<svg xmlns="http://www.w3.org/2000/svg" width="187" height="19"><path d="M10.57 2.163q.616 0 1.012.352t.396.924v13.156q0 .594-.374.946t-.99.352q-.616 0-.99-.352t-.374-.946v-.55q-.484.902-1.408 1.408-.902.506-2.068.506-1.386 0-2.486-.704-1.078-.704-1.694-1.98Q1 13.977 1 12.305q0-1.672.594-2.926.616-1.254 1.694-1.936 1.078-.682 2.486-.682 1.166 0 2.068.484.902.484 1.386 1.364V3.395q0-.55.352-.88.374-.352.99-.352zM6.5 15.825q1.32 0 2.024-.902.726-.902.726-2.574 0-1.672-.726-2.552-.704-.902-2.002-.902-1.32 0-2.046.88-.726.88-.726 2.53 0 1.672.726 2.596.726.924 2.024.924zm16.83-.99q.374 0 .594.286.242.286.242.77 0 .682-.814 1.144-.748.418-1.694.682-.946.242-1.804.242-2.596 0-4.114-1.496-1.518-1.496-1.518-4.092 0-1.65.66-2.926.66-1.276 1.848-1.98 1.21-.704 2.728-.704 1.452 0 2.53.638 1.078.638 1.672 1.804.594 1.166.594 2.75 0 .946-.836.946h-6.49q.132 1.518.858 2.244.726.704 2.112.704.704 0 1.232-.176.55-.176 1.232-.484.66-.352.968-.352zm-3.806-6.138q-1.122 0-1.804.704-.66.704-.792 2.024H21.9q-.044-1.342-.66-2.024-.616-.704-1.716-.704zm.484-3.146q-.242.176-.484.176-.308 0-.528-.198-.198-.22-.198-.506 0-.242.176-.484l2.134-2.838q.506-.66 1.166-.66.484 0 .814.352.352.33.352.792 0 .616-.594 1.056zm11.264 12.408q-1.606 0-2.838-.682-1.21-.682-1.87-1.936-.66-1.254-.66-2.926 0-1.672.682-2.948.704-1.298 1.958-2.002 1.254-.704 2.882-.704.858 0 1.716.242.88.242 1.54.66.704.462.704 1.166 0 .484-.242.792-.22.286-.594.286-.242 0-.506-.11t-.528-.264q-.484-.286-.924-.44-.44-.176-1.012-.176-1.364 0-2.112.902-.726.88-.726 2.552 0 1.65.726 2.552.748.88 2.112.88.55 0 .968-.154.44-.176.968-.462.33-.198.572-.286.242-.11.484-.11.352 0 .594.308t.242.77q0 .374-.176.66-.154.264-.528.484-.682.44-1.584.704-.902.242-1.848.242zm7.326-.044q-.594 0-.99-.33-.374-.352-.374-.99V8.103q0-.638.374-.968.396-.33.99-.33t.99.33q.396.33.396.968v8.492q0 .638-.396.99-.396.33-.99.33zm0-13.068q-.748 0-1.188-.396-.44-.418-.44-1.078 0-.66.44-1.056t1.188-.396q.726 0 1.166.396.462.396.462 1.056t-.44 1.078q-.44.396-1.188.396zm17.006 1.914q1.76 0 2.684 1.056.946 1.034.946 3.366v5.412q0 .638-.396.99-.374.33-.99.33-.594 0-.99-.33-.374-.352-.374-.99v-5.412q0-1.21-.44-1.716-.418-.528-1.298-.528-1.078 0-1.716.748-.638.726-.638 2.002v4.906q0 .638-.396.99-.374.33-.968.33t-.99-.33q-.396-.352-.396-.99v-5.412q0-1.21-.44-1.716-.418-.528-1.298-.528-1.078 0-1.716.748-.616.726-.616 2.002v4.906q0 .638-.396.99-.396.33-.99.33t-.99-.33q-.374-.352-.374-.99V8.081q0-.616.396-.946.396-.33.99-.33.572 0 .924.33.374.308.374.902v.528q.506-.88 1.342-1.342.858-.462 1.958-.462 2.42 0 3.234 2.024.484-.924 1.43-1.474.946-.55 2.134-.55zm11.088 0q2.244 0 3.322 1.122 1.1 1.1 1.1 3.366v5.368q0 .594-.352.946-.352.33-.968.33-.572 0-.946-.352-.352-.352-.352-.924v-.484q-.374.858-1.188 1.342-.792.484-1.848.484-1.078 0-1.958-.44-.88-.44-1.386-1.21-.506-.77-.506-1.716 0-1.188.594-1.87.616-.682 1.98-.99 1.364-.308 3.762-.308h.55v-.506q0-1.078-.462-1.562-.462-.506-1.496-.506-.638 0-1.298.198-.66.176-1.562.528-.572.286-.836.286-.396 0-.66-.286-.242-.286-.242-.748 0-.374.176-.638.198-.286.638-.528.77-.418 1.826-.66 1.078-.242 2.112-.242zm-.682 9.218q1.1 0 1.782-.726.704-.748.704-1.914v-.462H68.1q-1.474 0-2.288.132-.814.132-1.166.462t-.352.902q0 .704.484 1.166.506.44 1.232.44zm11.792 1.98q-2.398 0-3.872-.946-.704-.418-.704-1.188 0-.44.242-.704.242-.286.594-.286.374 0 1.034.352.704.33 1.276.506.594.176 1.496.176.924 0 1.43-.308.528-.308.528-.858 0-.374-.22-.594-.198-.22-.748-.396-.528-.198-1.628-.44-1.958-.396-2.816-1.122-.836-.726-.836-2.002 0-.968.572-1.738.572-.792 1.562-1.21 1.012-.44 2.288-.44.924 0 1.782.242.858.22 1.54.66.704.44.704 1.166 0 .44-.242.748-.242.286-.594.286-.242 0-.484-.088-.22-.11-.572-.308-.638-.33-1.1-.484-.462-.176-1.144-.176-.814 0-1.298.33-.462.33-.462.902 0 .55.484.836.484.286 1.87.572 1.474.308 2.31.704.836.396 1.188.99.374.594.374 1.518 0 1.496-1.254 2.398-1.232.902-3.3.902z"/></svg>