<svg height="42" width="120" xmlns:xlink="http://www.w3.org/1999/xlink" xmlns="http://www.w3.org/2000/svg"><path d="M3.408.453l113.354.201c1.584 0 3-.235 3 3.16l-.14 37.33H.547V3.676C.547 2 .71.453 3.408.453z" fill="#aab2ab"/><use xlink:href="#a" transform="translate(52.231)"/><use xlink:href="#a" transform="translate(26.08)"/><path d="M117.753 0H2.248A2.248 2.248 0 000 2.247v39.246c0 .28.227.507.508.507h118.984c.28 0 .508-.227.508-.507V2.247A2.248 2.248 0 00117.753 0zM2.248 1.015h115.505c.68 0 1.232.553 1.232 1.232v27.22H36.428c-3.026 5.472-8.856 9.186-15.547 9.186-6.692 0-12.521-3.711-15.545-9.185h-4.32V2.247c0-.68.552-1.232 1.232-1.232z"/><path d="M20.896 33.193c-7.53.005-13.64-6.096-13.644-13.633C7.247 12.02 13.35 5.915 20.88 5.91c7.531-.005 13.639 6.096 13.643 13.633.003 7.538-6.097 13.645-13.627 13.65z" fill="#fff"/><path d="M31.972 8.447c3.023 3.023 4.535 6.725 4.535 11.104 0 4.38-1.486 8.043-4.458 10.988-3.154 3.102-6.88 4.653-11.182 4.653-4.248 0-7.911-1.538-10.985-4.614-3.077-3.075-4.614-6.75-4.614-11.027 0-4.275 1.537-7.976 4.614-11.104C12.878 5.423 16.54 3.91 20.867 3.91c4.38 0 8.08 1.512 11.105 4.536zM11.917 10.48c-2.557 2.581-3.835 5.605-3.835 9.074 0 3.469 1.266 6.467 3.795 8.996 2.53 2.53 5.542 3.795 9.037 3.795 3.495 0 6.532-1.278 9.115-3.833 2.451-2.374 3.677-5.359 3.677-8.958 0-3.571-1.246-6.603-3.737-9.094-2.49-2.49-5.509-3.735-9.055-3.735-3.546 0-6.547 1.252-8.997 3.755zm6.726 7.549c-.39-.852-.974-1.278-1.755-1.278-1.378 0-2.067.928-2.067 2.784 0 1.856.69 2.783 2.067 2.783.91 0 1.56-.452 1.951-1.357l1.91 1.017c-.91 1.618-2.277 2.428-4.098 2.428-1.406 0-2.531-.43-3.377-1.292-.846-.862-1.27-2.05-1.27-3.564 0-1.487.438-2.668 1.31-3.543.87-.875 1.958-1.312 3.259-1.312 1.926 0 3.304.759 4.14 2.275zm7.27-1.278c-1.405 0-2.109.928-2.109 2.784 0 1.856.704 2.783 2.11 2.783.912 0 1.55-.452 1.915-1.357l1.953 1.017c-.91 1.618-2.274 2.428-4.092 2.428-1.404 0-2.526-.43-3.372-1.292-.843-.862-1.266-2.05-1.266-3.564 0-1.487.429-2.668 1.287-3.543.857-.875 1.947-1.312 3.273-1.312 1.923 0 3.3.759 4.13 2.275l-2.109 1.059c-.39-.852-.964-1.278-1.72-1.278z"/><ellipse cx="51.763" cy="14.987" fill="#fff" id="a" rx="10.739" ry="10.738" stroke-width=".994"/><path d="M54.872 12.117a.75.75 0 00-.75-.75H49.38a.75.75 0 00-.75.75v4.742h1.324v5.617h3.595v-5.617h1.324z"/><circle cx="51.751" cy="9.121" r="1.622"/><path d="M51.735 3.392c-3.21 0-5.934 1.116-8.156 3.363-2.287 2.313-3.424 5.064-3.424 8.232 0 3.17 1.14 5.895 3.424 8.175 2.283 2.28 5.004 3.42 8.156 3.42 3.193 0 5.966-1.145 8.303-3.45 2.21-2.179 3.309-4.898 3.309-8.145s-1.123-5.991-3.367-8.232c-2.245-2.241-4.992-3.363-8.245-3.363zm6.735 4.87c1.849 1.845 2.788 4.078 2.788 6.725 0 2.666-.921 4.869-2.73 6.638-1.926 1.883-4.17 2.841-6.762 2.841-2.594 0-4.83-.938-6.706-2.812-1.877-1.875-2.815-4.096-2.815-6.668 0-2.57.953-4.806 2.844-6.724 1.824-1.85 4.045-2.783 6.677-2.783 2.633 0 4.856.938 6.704 2.783z"/><path d="M50.52 34.389c0 .739-.382 1.129-.902 1.38.864.244 1.214.903 1.22 1.68.01 1.426-1.225 1.92-2.343 1.92H45.28v-6.622h3.122c1.293 0 2.118.432 2.118 1.642zm-1.413.251c0-.577-.456-.759-1.004-.759H46.74v1.545h1.476c.49 0 .891-.209.891-.786zm-.807 3.596c.588 0 1.078-.207 1.078-.872s-.402-.945-1.05-.945h-1.59v1.817zm2.795-5.489h1.633l1.55 2.616 1.543-2.616h1.623l-2.459 4.08v2.542h-1.46v-2.578zM99.783 38.391c.615 0 1.286-.193 1.286-.826 0-.575-.664-.757-1.25-.909l-.714-.185c-1.147-.297-1.973-.76-1.973-1.883 0-1.348 1.24-2.003 2.475-2.003 1.602 0 2.65.747 2.65 2.135h-1.414c0-.719-.57-1.002-1.301-1.002-.679 0-.997.353-.997.751 0 .526.498.62.968.742l1.005.26c1.046.27 1.933.643 1.964 1.93.037 1.511-1.405 2.116-2.756 2.116-1.657 0-2.819-.833-2.819-2.35h1.413c0 .83.644 1.224 1.463 1.224zm6.863-5.644l2.477 6.622h-1.512l-.501-1.475h-2.477l-.52 1.475h-1.465l2.504-6.622zm-1.632 4.06h1.716l-.845-2.427zM75.3 32.747h1.367v6.622H75.21l-2.765-4.433-.01 4.433H71.07v-6.622h1.448l2.774 4.443zm5.615 1.064c-1.275 0-1.805 1.103-1.805 2.272 0 .68.225 2.215 1.805 2.215 1.029 0 1.38-.718 1.503-1.485h1.41c-.186 1.805-1.399 2.704-2.913 2.704-2.139 0-3.259-1.569-3.259-3.434 0-2.11 1.359-3.499 3.26-3.499 1.641 0 2.704 1.045 2.857 2.386h-1.41c-.143-.711-.745-1.159-1.448-1.159z" fill="#fff"/><path d="M103.919 3.386c-3.212 0-5.936 1.116-8.156 3.362-2.288 2.315-3.426 5.063-3.426 8.233 0 3.169 1.142 5.893 3.426 8.174 2.283 2.28 5.002 3.42 8.156 3.42 3.193 0 5.965-1.145 8.301-3.448 2.211-2.18 3.31-4.9 3.31-8.146 0-3.247-1.122-5.99-3.368-8.233-2.244-2.24-4.992-3.362-8.243-3.362zm.029 2.087c2.632 0 4.856.937 6.705 2.783 1.848 1.845 2.786 4.076 2.786 6.725 0 2.666-.92 4.868-2.729 6.639-1.924 1.883-4.17 2.84-6.762 2.84-2.593 0-4.828-.938-6.705-2.812-1.877-1.875-2.815-4.097-2.815-6.667 0-2.57.953-4.807 2.844-6.725 1.825-1.85 4.044-2.783 6.676-2.783z"/><path d="M103.87 8.867c3.7 0 5.957 2.686 5.957 6.268 0 3.495-2.4 6.21-6.016 6.21-2.487 0-4.714-1.53-5.12-4.535h2.922c.087 1.56 1.1 2.109 2.546 2.109 1.648 0 2.718-1.53 2.718-3.87 0-2.456-.925-3.755-2.661-3.755-1.272 0-2.371.462-2.603 2.05l.85-.005-2.3 2.3-2.299-2.3.915.006c.462-2.918 2.516-4.478 5.091-4.478zM77.827 3.386c3.251 0 5.999 1.12 8.244 3.362s3.367 4.986 3.367 8.233c0 3.246-1.098 5.966-3.308 8.146-2.338 2.305-5.11 3.449-8.303 3.449-3.154 0-5.873-1.14-8.156-3.42-2.283-2.28-3.425-5.006-3.425-8.175 0-3.17 1.137-5.919 3.425-8.233 2.22-2.246 4.944-3.362 8.156-3.362zm-8.972 8.48a9.26 9.26 0 00-.519 3.115c0 2.57.938 4.792 2.815 6.667 1.877 1.874 4.112 2.811 6.705 2.811 2.594 0 4.84-.954 6.764-2.84a9.341 9.341 0 001.584-2.028l-4.371-1.947c-.296 1.471-1.608 2.464-3.192 2.58v1.789h-1.332v-1.788c-1.3-.015-2.558-.548-3.52-1.389l1.598-1.61c.77.724 1.538 1.049 2.588 1.049.681 0 1.435-.266 1.435-1.153a.867.867 0 00-.313-.696zm9.001-6.393c-2.632 0-4.853.93-6.676 2.783a11.106 11.106 0 00-1.291 1.566l4.433 1.973c.4-1.229 1.57-1.975 2.987-2.058V7.949h1.332v1.788c.917.044 1.922.296 2.914 1.063l-1.524 1.566c-.563-.398-1.272-.68-1.982-.68-.577 0-1.39.177-1.39.9 0 .112.037.21.104.295l10.291 4.582c.196-.778.294-1.606.294-2.482 0-2.649-.938-4.88-2.785-6.725-1.85-1.847-4.075-2.783-6.707-2.783z"/></svg>