<svg width="994" height="71" xmlns:xlink="http://www.w3.org/1999/xlink" xmlns="http://www.w3.org/2000/svg"><defs><radialGradient xlink:href="#a" id="b" cx="16.092" cy="16.092" fx="16.092" fy="16.092" r="34" gradientUnits="userSpaceOnUse" gradientTransform="translate(.522 .522) scale(.9853)"/><linearGradient id="a"><stop offset="0" stop-color="#5eecfe"/><stop offset="1" stop-color="#11a9be"/></linearGradient></defs><circle cx="35.5" cy="35.5" r="33.5" fill="url(#b)" stroke="#46cde0" id="c"/><use xlink:href="#c" transform="translate(71)"/><use xlink:href="#c" transform="translate(142)"/><use xlink:href="#c" transform="translate(213)"/><use xlink:href="#c" transform="translate(284)"/><use xlink:href="#c" transform="translate(355)"/><use xlink:href="#c" transform="translate(426)"/><use xlink:href="#c" transform="translate(497)"/><use xlink:href="#c" transform="translate(568)"/><use xlink:href="#c" transform="translate(639)"/><use xlink:href="#c" transform="translate(710)"/><use xlink:href="#c" transform="translate(781)"/><use xlink:href="#c" transform="translate(852)"/><use xlink:href="#c" transform="translate(923)"/><path d="M38.148 15.9c1.97 0 3.303 1.62 3.303 3.416v32.368c0 1.96-1.52 3.416-3.695 3.416s-3.584-1.488-3.584-3.416V25.166l-3.473 2.102a3.4 3.4 0 01-1.79.503c-2.09 0-3.36-1.791-3.36-3.416 0-1.269.585-2.227 1.734-2.912l8.457-5.039c.617-.367 1.438-.504 2.408-.504z" fill="#fff" id="e"/><path d="M106.191 15.34c7.613-.008 12.32 5.198 12.32 12.096 0 5.5-3.213 10.207-6.718 13.945l-7.088 7.558h11.512c1.91 0 3.135 1.316 3.135 3.137s-1.226 3.024-3.135 3.024H97.176c-1.937 0-3.123-1.294-3.137-3.192-.007-.933.342-1.751 1.01-2.465l12.207-13.047c2.266-2.421 4.543-5.77 4.48-8.68-.07-3.322-2.618-6.216-5.935-6.216-2.716 0-4.996 2.223-6.274 3.977-.709.973-1.513 1.36-2.576 1.343-1.985-.031-3.303-1.366-3.303-3.08 0-3.987 7.317-8.395 12.543-8.4z" fill="#fff" id="f"/><path d="M167.98 15.9h17.135c2.104 0 3.495 1.27 3.473 3.36-.012 1.133-.68 1.957-1.344 2.687l-7.535 8.301c6.192.08 10.447 5.907 10.447 11.973 0 9.082-6.787 13.44-14.896 13.44-2.7 0-5.3-.604-7.56-1.849-1.367-.751-2.055-1.647-2.071-3.025-.021-1.863 1.445-3.584 3.248-3.584.926 0 1.752.39 2.406.842 1.972 1.362 3.506 1.848 5.32 1.848 4.078 0 6.833-3.443 6.833-7.168 0-3.885-2.69-6.362-6.215-6.385-2.247-.015-3.635.978-5.377.953-1.926-.028-2.688-1.429-2.688-3.025 0-1.332.573-2.025 1.233-2.745l8.674-9.462H167.98c-2.04 0-3.136-1.339-3.136-3.137 0-1.989 1.498-3.024 3.136-3.024z" fill="#fff"/><path d="M254.77 15.9c1.976 0 3.305 1.62 3.305 3.416v18.985h2.352c2.04 0 3.08 1.277 3.136 3.135.057 1.857-1.466 3.025-3.136 3.025h-2.352v7.223c0 2.01-1.383 3.416-3.416 3.416-2.032 0-3.305-1.6-3.305-3.416V44.46h-14.558c-1.85 0-3.344-1.552-3.36-3.305-.01-.821.285-1.562.84-2.24l17.696-21.672c.76-.931 1.758-1.344 2.798-1.344zm-3.416 11.202L242.31 38.3h9.044z" fill="#fff" id="g"/><path id="h" d="M312.026 15.9h16.184c2.04 0 3.08 1.278 3.136 3.135.057 1.857-1.465 3.026-3.136 3.026h-13.897l-1.055 8.119c1.849-.826 3.842-1.428 5.768-1.4 8.05.114 13.105 6.01 13.105 12.991 0 8.29-7.712 13.89-15.4 13.89-4.693 0-9.857-1.779-9.857-5.993 0-1.746 1.446-2.633 3.136-2.633 1.986 0 3.473 2.498 6.664 2.522 4.104.03 8.737-3.122 8.737-7.786 0-4.001-3.241-6.761-7-6.832-3.342-.062-5.246 2.297-7.504 2.297-3.384 0-4.304-2.145-3.977-4.76l1.737-13.888c.231-1.852 1.79-2.688 3.359-2.688z" fill="#fff"/><path id="d" d="M395.596 15.732c2.037.02 3.36.997 3.36 3.135 0 2.382-1.718 2.966-5.336 4.342-3.482 1.323-6.938 5.25-8.56 8.924 1.852-1.575 4.205-2.457 6.391-2.457 6.539 0 12.153 6.488 12.153 12.992 0 7.928-6.607 12.992-13.047 12.992-8.346 0-13.16-7.609-13.16-15.289 0-13.585 9.881-24.718 18.199-24.639zm-5.04 20.104c-3.746 0-6.327 3.208-6.327 6.832 0 3.624 2.589 6.832 6.328 6.832 3.738 0 6.328-3.205 6.328-6.832s-2.582-6.832-6.328-6.832z" fill="#fff"/><use xlink:href="#d" transform="rotate(180 497 35.696)"/><path d="M451.504 15.9h19.488c1.943 0 3.617 1.274 3.64 3.303.007.485-.1.996-.335 1.514l-14.729 32.535c-.641 1.417-1.738 2.129-3.08 2.129-2.073 0-3.453-1.409-3.472-3.248a3.522 3.522 0 01.335-1.514l13.032-28.558h-14.88c-2.04 0-3.136-1.25-3.136-3.137 0-1.888 1.499-3.024 3.137-3.024zM532.5 15.9c-6.497 0-12.077 4.683-12.096 11.256-.01 3.836 1.891 5.813 4.608 7.469-3.155 1.944-5.616 4.893-5.616 8.771 0 7.15 6.493 11.704 13.104 11.704 6.611 0 13.104-4.554 13.104-11.704 0-3.878-2.46-6.827-5.616-8.771 2.717-1.656 4.619-3.633 4.608-7.469-.019-6.573-5.599-11.256-12.096-11.256zm0 6.16c2.77.036 5.377 2.105 5.377 5.208 0 3.035-2.42 5.263-5.377 5.263-2.956 0-5.377-2.228-5.377-5.263 0-3.103 2.607-5.172 5.377-5.207zm0 15.512c3.351 0 6.385 2.211 6.385 5.711 0 3.243-2.959 5.656-6.385 5.656-3.426 0-6.385-2.413-6.385-5.656 0-3.5 3.034-5.71 6.385-5.71zM684.672 15.34c-10.38 0-14.951 9.35-14.951 20.16s4.572 20.16 14.95 20.16c10.38 0 14.952-9.35 14.952-20.16s-4.572-20.16-14.951-20.16zm0 6.72c6.442 0 7.672 8.143 7.672 13.44 0 5.297-1.23 13.44-7.672 13.44S677 40.796 677 35.5c0-5.297 1.23-13.44 7.672-13.44z" fill="#fff"/><use xlink:href="#e" transform="translate(623.828)"/><use xlink:href="#e" transform="translate(696.732)"/><use xlink:href="#f" transform="translate(649.368)"/><use xlink:href="#e" transform="translate(764.315)"/><use xlink:href="#g" transform="translate(579.57)"/><use xlink:href="#e" transform="translate(838.618)"/><use xlink:href="#h" transform="translate(578.702)"/><use xlink:href="#f" transform="translate(838.378)"/><use xlink:href="#h" transform="translate(652.842)"/></svg>