<svg xmlns="http://www.w3.org/2000/svg" width="994" height="35"><path d="M964.336 19.65c2.201.008 3.642.37 4.312 1.092.417.469.625 1.08.625 1.836 0 .495.209.95.625 1.367.495.495 1.068.743 1.72.743.806 0 1.431-.3 1.874-.899.339-.443.508-.99.508-1.64 0-2.266-.911-4.05-2.734-5.352-1.823-1.276-3.959-1.914-6.407-1.914-.212 0-.322-.01-.523-.012h-458.68c-2.563-.014-4.329-.108-5.101-.3-.547-.13-.886-.34-1.016-.626-.104-.208-.156-.638-.156-1.289a2.3 2.3 0 00-.703-1.68 2.361 2.361 0 00-1.68-.664c-.651 0-1.21.222-1.68.665a2.292 2.292 0 00-.703 1.68c0 .65-.052 1.08-.156 1.288-.13.287-.469.495-1.016.625-.772.193-2.538.287-5.101.301H29.664c-.201.001-.311.012-.523.012-2.448 0-4.584.638-6.407 1.914C20.911 18.099 20 19.883 20 22.148c0 .651.17 1.198.508 1.641.443.599 1.068.898 1.875.898.65 0 1.224-.247 1.719-.742.416-.416.625-.872.625-1.367 0-.755.208-1.367.625-1.836.67-.722 2.111-1.084 4.312-1.092h458.711l1.828-.002c2.24 0 3.854-.234 4.844-.703A5.145 5.145 0 00497 17.227a5.145 5.145 0 001.953 1.718c.99.47 2.604.702 4.844.703l1.828.001z"/></svg>