<svg width="120" height="92" xmlns="http://www.w3.org/2000/svg"><path d="M59.998 25.197c-6.407 0-11.6-5.194-11.6-11.6 0-6.407 5.193-11.6 11.6-11.6 6.406 0 11.6 5.193 11.6 11.6 0 6.406-5.194 11.6-11.6 11.6z" fill="#fff"/><path d="M83.197 25.274c-6.407 0-11.6-5.194-11.6-11.6 0-6.407 5.193-11.6 11.6-11.6s11.6 5.193 11.6 11.6c0 6.406-5.194 11.6-11.6 11.6z" fill="#fff"/><path d="M68.6 21.386H51.402a11.56 11.56 0 01-3.002-7.787 11.556 11.556 0 013.002-7.786H68.6c1.87 2.06 3 4.793 3 7.786a11.54 11.54 0 01-3 7.787z" fill="#f46e16"/><path d="M59.998 19.443a5.846 5.846 0 110-11.692 5.846 5.846 0 010 11.692z" fill="#fff"/><path d="M57.25 15.348V12.08h-1.06v-.81c.614-.116 1.006-.277 1.407-.518h.96v4.595h1.061v1.06H56.02v-1.06zm7.111-.481c0 1.05-.963 1.647-2.101 1.647-.918 0-1.559-.32-1.969-.8l.607-.83c.337.331.755.571 1.237.571.552 0 .916-.24.916-.668 0-.499-.292-.81-1.523-.81v-.926c1.016 0 1.336-.302 1.336-.756 0-.392-.248-.623-.694-.623-.401 0-.703.186-1.06.498l-.658-.801c.517-.446 1.086-.723 1.78-.723 1.166 0 1.95.562 1.95 1.55 0 .587-.338.998-.945 1.273.651.206 1.124.668 1.124 1.398z" fill="#100f0d"/><path d="M68.598 21.386H51.402a11.553 11.553 0 01-2.765-5.442 9.82 9.82 0 008.011 4.133 9.816 9.816 0 003.485-.635 5.846 5.846 0 005.71-5.727 9.803 9.803 0 00.626-3.458c0-1.6-.381-3.109-1.058-4.444h3.185a11.561 11.561 0 013.002 7.786c0 2.997-1.136 5.728-3 7.787" fill="#d15d1d"/><path d="M91.8 21.386H74.6c-1.869-2.06-3-4.793-3-7.787 0-2.993 1.131-5.726 3-7.786h17.2c1.869 2.06 3 4.793 3 7.786 0 2.994-1.131 5.728-3 7.787z" fill="#2c923e"/><path d="M83.198 19.52a5.846 5.846 0 11-.001-11.692 5.846 5.846 0 01.001 11.692z" fill="#fff"/><path d="M80.317 15.348V12.08h-1.06v-.81c.615-.116 1.006-.277 1.406-.518h.963v4.595h1.06v1.06h-3.597v-1.06zm5.5-3.473l-1.23 2.182h1.193zM87 15.055v1.352h-1.22v-1.352h-2.448v-.9l2.065-3.402H87v3.304h.65v.998z" fill="#100f0d"/><path d="M106.398 25.197c-6.407 0-11.6-5.194-11.6-11.6 0-6.407 5.193-11.6 11.6-11.6 6.406 0 11.6 5.193 11.6 11.6 0 6.406-5.194 11.6-11.6 11.6z" fill="#fff"/><path d="M115 21.386H97.802a11.557 11.557 0 01-3.002-7.787 11.552 11.552 0 013.002-7.786H115c1.87 2.06 3 4.793 3 7.786a11.54 11.54 0 01-3 7.787z" fill="#ab1d22"/><path d="M106.398 19.443a5.846 5.846 0 110-11.692 5.846 5.846 0 010 11.692z" fill="#fff"/><path d="M103.624 15.348V12.08h-1.06v-.81c.615-.116 1.007-.277 1.407-.518h.961v4.595h1.06v1.06h-3.598v-1.06zm4.858.106c.579 0 .953-.302.953-.88 0-.57-.366-.874-.89-.874-.33 0-.5.073-.838.286l-.588-.374.161-2.86h3.206v1.106h-2.075l-.098 1.06a1.4 1.4 0 01.632-.135c.971 0 1.798.553 1.798 1.755 0 1.256-.97 1.976-2.073 1.976-.927 0-1.551-.347-1.995-.793l.587-.827c.339.31.739.56 1.22.56z" fill="#100f0d"/><path d="M108.72 2.222c3.605 2.451 5.122 7.439 3.527 11.49-1.445 4.015-5.733 6.737-9.982 6.324-2.859-.213-5.58-1.759-7.225-4.105.926 4.87 5.3 8.796 10.236 9.204 4.247.457 8.635-1.67 10.902-5.294 2.6-3.946 2.398-9.481-.5-13.22-1.684-2.246-4.201-3.853-6.958-4.4z" fill-opacity=".18"/><path d="M13.6 25.2C7.193 25.2 2 20.008 2 13.6 2 7.195 7.193 2 13.6 2c6.406 0 11.6 5.194 11.6 11.6 0 6.407-5.194 11.6-11.6 11.6z" fill="#fff"/><path d="M22.2 21.387H5c-1.869-2.06-3-4.793-3-7.787 0-2.993 1.131-5.726 3-7.786h17.2c1.869 2.06 3 4.793 3 7.786 0 2.994-1.131 5.727-3 7.787z" fill="#ea2922"/><path d="M13.597 19.443a5.845 5.845 0 110-11.69 5.845 5.845 0 010 11.69z" fill="#fff"/><path d="M10.69 15.349V12.08H9.63v-.81c.615-.116 1.006-.277 1.407-.516h.961v4.594h1.06v1.06H9.463v-1.06zm4.698 0V12.08h-1.06v-.81c.615-.116 1.006-.277 1.408-.516h.961v4.594h1.059v1.06h-3.597v-1.06z" fill="#100f0d"/><path d="M15.922 2.225c3.605 2.452 5.122 7.44 3.527 11.49-1.445 4.015-5.733 6.737-9.982 6.325-2.859-.213-5.58-1.76-7.225-4.106.926 4.87 5.3 8.797 10.236 9.205 4.247.456 8.635-1.67 10.902-5.295 2.6-3.946 2.398-9.48-.5-13.219-1.684-2.246-4.201-3.853-6.958-4.4z" fill-opacity=".18"/><path d="M36.798 25.198c-6.407 0-11.6-5.194-11.6-11.6 0-6.407 5.193-11.6 11.6-11.6 6.406 0 11.6 5.193 11.6 11.6 0 6.406-5.194 11.6-11.6 11.6z" fill="#fff"/><path d="M45.4 21.387H28.2a11.565 11.565 0 01-3-7.787 11.563 11.563 0 013-7.786h17.2a11.563 11.563 0 013 7.786 11.56 11.56 0 01-3 7.787z" fill="#592c95"/><path d="M36.798 19.443a5.845 5.845 0 110-11.69 5.845 5.845 0 010 11.69z" fill="#fff"/><path d="M33.904 15.349V12.08h-1.06v-.81c.614-.116 1.006-.277 1.408-.516h.96v4.594h1.06v1.06h-3.596v-1.06zm5.633-2.822c0-.552-.311-.855-.8-.855-.41 0-.722.276-1.007.58l-.713-.704c.56-.597 1.087-.9 1.897-.9 1.113 0 1.87.712 1.87 1.798 0 .953-.89 1.968-1.808 2.93.285-.035.677-.072.944-.072h1.14v1.104h-3.98v-.748c1.442-1.362 2.457-2.333 2.457-3.133z" fill="#100f0d"/><path d="M39.12 2.223c3.605 2.451 5.122 7.439 3.527 11.49-1.445 4.015-5.733 6.737-9.982 6.324-2.859-.213-5.58-1.759-7.225-4.105.926 4.87 5.3 8.796 10.236 9.204 4.247.457 8.635-1.67 10.902-5.294 2.6-3.946 2.398-9.481-.5-13.22-1.684-2.246-4.201-3.853-6.958-4.4zm46.4.075c3.605 2.452 5.122 7.44 3.527 11.49-1.445 4.016-5.734 6.738-9.983 6.325-2.858-.213-5.579-1.759-7.224-4.106.926 4.87 5.3 8.797 10.236 9.205 4.246.457 8.634-1.67 10.901-5.295 2.6-3.946 2.398-9.48-.5-13.218-1.684-2.247-4.2-3.854-6.957-4.4zm-23.2-.076c3.605 2.451 5.122 7.439 3.527 11.49-1.445 4.015-5.733 6.737-9.982 6.324-2.859-.213-5.58-1.759-7.225-4.105.926 4.87 5.3 8.796 10.236 9.204 4.247.457 8.635-1.67 10.902-5.294 2.6-3.946 2.398-9.481-.5-13.22-1.684-2.246-4.201-3.853-6.958-4.4z" fill-opacity=".18"/><path d="M71.6 41.285c-6.407 0-11.6-5.194-11.6-11.6 0-6.407 5.193-11.6 11.6-11.6 6.406 0 11.6 5.192 11.6 11.6 0 6.406-5.194 11.6-11.6 11.6z" fill="#fff"/><path d="M80.2 37.471H63a11.557 11.557 0 01-3-7.787 11.563 11.563 0 013-7.786h17.2a11.563 11.563 0 013 7.786 11.569 11.569 0 01-3 7.787z" fill="#fac608"/><path d="M71.597 35.527a5.846 5.846 0 110-11.692 5.846 5.846 0 010 11.692z" fill="#fff"/><path d="M72.35 28.887c-.116-.89-.481-1.175-.882-1.175-.383 0-.711.275-.711.916 0 .596.32.82.748.82.283 0 .596-.152.845-.561zm-1.14 2.652c.633 0 1.121-.445 1.166-1.762-.293.374-.783.597-1.13.597-.961 0-1.683-.553-1.683-1.746 0-1.175.855-1.896 1.878-1.896 1.095 0 2.147.818 2.147 2.805 0 2.11-1.105 3.062-2.288 3.062-.748 0-1.3-.32-1.657-.676l.695-.784c.187.213.543.4.872.4zm-1.267 2.725v-.794h3.313v.794z" fill="#100f0d"/><path d="M73.922 18.309c3.605 2.452 5.122 7.44 3.527 11.49-1.445 4.015-5.733 6.737-9.982 6.325-2.859-.213-5.58-1.76-7.225-4.106.926 4.87 5.3 8.797 10.236 9.205 4.247.456 8.635-1.67 10.902-5.295 2.6-3.946 2.398-9.48-.5-13.219-1.684-2.246-4.201-3.853-6.958-4.4z" fill-opacity=".18"/><path d="M94.797 41.281c-6.407 0-11.6-5.194-11.6-11.6 0-6.407 5.193-11.6 11.6-11.6 6.406 0 11.6 5.193 11.6 11.6 0 6.406-5.194 11.6-11.6 11.6z" fill="#fff"/><path d="M103.4 37.471H86.2a11.557 11.557 0 01-3-7.787 11.563 11.563 0 013-7.786h17.2a11.563 11.563 0 013 7.786 11.57 11.57 0 01-3 7.787z" fill="#3048a0"/><path d="M94.797 35.527a5.846 5.846 0 110-11.692 5.846 5.846 0 010 11.692z" fill="#fff"/><path d="M92.024 31.432v-3.267h-1.06v-.81c.613-.116 1.005-.277 1.406-.516h.962v4.593h1.06v1.06h-3.598v-1.06zm5.196-3.686c-.437 0-.784.348-.784 1.896 0 1.542.347 1.941.784 1.941.444 0 .783-.399.783-1.94 0-1.549-.339-1.897-.783-1.897zm-.001-1.013c1.211 0 2.022.987 2.022 2.91s-.81 2.956-2.021 2.956c-1.211 0-2.02-1.033-2.02-2.957-.001-1.922.809-2.909 2.019-2.909z" fill="#100f0d"/><path d="M97.12 18.306c3.604 2.451 5.121 7.439 3.526 11.49-1.445 4.015-5.733 6.737-9.982 6.324-2.859-.213-5.58-1.759-7.225-4.105.926 4.87 5.3 8.796 10.236 9.204 4.247.457 8.635-1.67 10.902-5.294 2.6-3.946 2.398-9.481-.5-13.22-1.684-2.246-4.201-3.853-6.958-4.4z" fill-opacity=".18"/><path d="M25.2 41.283c-6.407 0-11.6-5.194-11.6-11.6 0-6.407 5.193-11.6 11.6-11.6 6.406 0 11.6 5.193 11.6 11.6 0 6.406-5.194 11.6-11.6 11.6z" fill="#ab1d22"/><path d="M25.2 35.605a5.846 5.846 0 110-11.692 5.846 5.846 0 010 11.692z" fill="#fff"/><path d="M23.387 28.23v-1.105h3.935v.802c-1.309 1.585-1.496 2.643-1.593 4.851H24.41c.106-1.877.445-3.07 1.514-4.548z" fill="#100f0d"/><path d="M27.522 18.308c3.605 2.452 5.122 7.44 3.527 11.49-1.445 4.015-5.733 6.737-9.982 6.325-2.859-.213-5.58-1.76-7.225-4.106.926 4.87 5.3 8.797 10.236 9.205 4.247.456 8.635-1.67 10.902-5.295 2.6-3.946 2.398-9.48-.5-13.219-1.684-2.246-4.201-3.853-6.958-4.4z" fill-opacity=".18"/><path d="M48.4 41.283c-6.407 0-11.6-5.194-11.6-11.6 0-6.407 5.193-11.6 11.6-11.6 6.406 0 11.6 5.193 11.6 11.6 0 6.406-5.194 11.6-11.6 11.6z" fill="#2e2d2d"/><path d="M48.4 35.529a5.846 5.846 0 110-11.692 5.846 5.846 0 010 11.692z" fill="#fff"/><path d="M48.567 27.741c-.346 0-.632.214-.632.65 0 .463.391.686.97.908.223-.258.348-.535.348-.829 0-.435-.258-.729-.686-.729zm.009 4.051c.437 0 .757-.232.757-.703 0-.498-.48-.685-1.192-.989-.25.231-.437.552-.437.9 0 .498.4.792.872.792zm-1.79-3.401c0-.962.757-1.558 1.807-1.558 1.034 0 1.72.614 1.72 1.549 0 .544-.348.978-.74 1.256.543.31.98.747.98 1.496 0 .89-.8 1.567-2.004 1.567-1.13 0-1.968-.633-1.968-1.55 0-.685.428-1.104.962-1.407-.436-.348-.757-.757-.757-1.353z" fill="#100f0d"/><path d="M50.722 18.308c3.605 2.452 5.122 7.44 3.527 11.49-1.445 4.015-5.733 6.737-9.982 6.325-2.859-.213-5.58-1.76-7.225-4.106.926 4.87 5.3 8.797 10.236 9.205 4.247.456 8.635-1.67 10.902-5.295 2.6-3.946 2.398-9.48-.5-13.219-1.684-2.246-4.201-3.853-6.958-4.4z" fill-opacity=".18"/><path d="M60 57.367c-6.407 0-11.6-5.194-11.6-11.6 0-6.407 5.193-11.6 11.6-11.6 6.405 0 11.6 5.193 11.6 11.6 0 6.406-5.195 11.6-11.6 11.6z" fill="#f46e16"/><path d="M59.999 51.613a5.846 5.846 0 110-11.692 5.846 5.846 0 010 11.692z" fill="#fff"/><path d="M59.674 47.724c.58 0 .953-.302.953-.882 0-.57-.366-.87-.89-.87-.33 0-.499.069-.838.284l-.586-.375.16-2.857h3.205v1.103h-2.075l-.098 1.06c.213-.097.402-.134.633-.134.97 0 1.797.552 1.797 1.754 0 1.255-.97 1.977-2.073 1.977-.926 0-1.55-.348-1.995-.793l.587-.827c.339.31.74.56 1.22.56z" fill="#100f0d"/><path d="M62.322 34.392c3.605 2.452 5.122 7.44 3.527 11.49-1.445 4.015-5.733 6.737-9.982 6.325-2.859-.213-5.58-1.76-7.225-4.106.926 4.87 5.3 8.797 10.236 9.205 4.247.456 8.635-1.67 10.902-5.295 2.6-3.946 2.398-9.48-.5-13.219-1.684-2.246-4.201-3.853-6.958-4.4z" fill-opacity=".18"/><path d="M83.2 57.367c-6.407 0-11.6-5.194-11.6-11.6 0-6.407 5.193-11.6 11.6-11.6 6.405 0 11.6 5.193 11.6 11.6 0 6.406-5.195 11.6-11.6 11.6z" fill="#2c923e"/><path d="M83.199 51.613a5.846 5.846 0 110-11.692 5.846 5.846 0 010 11.692z" fill="#fff"/><path d="M83.943 46.887c0-.596-.311-.819-.738-.819-.285 0-.597.151-.856.562.116.89.49 1.175.882 1.175s.712-.276.712-.918zm-.452-2.911c-.625 0-1.123.446-1.169 1.763.294-.375.785-.596 1.132-.596.97 0 1.681.552 1.681 1.744 0 1.175-.854 1.897-1.877 1.897-1.095 0-2.137-.819-2.137-2.805 0-2.11 1.095-3.063 2.288-3.063a2.24 2.24 0 011.647.678l-.685.783c-.196-.215-.553-.401-.88-.401zm-1.865 6.282v-.796h3.312v.796z" fill="#100f0d"/><path d="M85.522 34.392c3.605 2.452 5.122 7.44 3.527 11.49-1.445 4.015-5.733 6.737-9.982 6.325-2.859-.213-5.58-1.76-7.225-4.106.926 4.87 5.3 8.797 10.236 9.205 4.247.456 8.635-1.67 10.902-5.295 2.6-3.946 2.398-9.48-.5-13.219-1.684-2.246-4.201-3.853-6.958-4.4z" fill-opacity=".18"/><path d="M36.8 57.367c-6.407 0-11.6-5.193-11.6-11.6 0-6.406 5.193-11.6 11.6-11.6 6.406 0 11.6 5.194 11.6 11.6 0 6.407-5.194 11.6-11.6 11.6z" fill="#592c95"/><path d="M36.8 51.613a5.846 5.846 0 110-11.692 5.846 5.846 0 010 11.692z" fill="#fff"/><path d="M35.834 46.246h1.193l.035-2.181zm3.063.998h-.65v1.354h-1.22v-1.354h-2.449v-.899l2.066-3.4h1.603v3.301h.65v.998" fill="#100f0d"/><path d="M39.122 34.392c3.605 2.452 5.122 7.44 3.527 11.49-1.445 4.015-5.733 6.737-9.982 6.325-2.859-.213-5.58-1.76-7.225-4.106.926 4.87 5.3 8.797 10.236 9.205 4.247.456 8.635-1.67 10.902-5.295 2.6-3.946 2.398-9.48-.5-13.219-1.684-2.246-4.201-3.853-6.958-4.4z" fill-opacity=".18"/><path d="M48.4 73.45c-6.407 0-11.6-5.193-11.6-11.6 0-6.406 5.193-11.6 11.6-11.6 6.406 0 11.6 5.194 11.6 11.6 0 6.407-5.194 11.6-11.6 11.6z" fill="#3048a0"/><path d="M48.4 67.772a5.846 5.846 0 110-11.692 5.846 5.846 0 010 11.692z" fill="#fff"/><path d="M46.472 63.933c1.442-1.362 2.456-2.332 2.456-3.134 0-.551-.311-.855-.802-.855-.408 0-.72.276-1.005.58l-.713-.703c.562-.597 1.087-.9 1.898-.9 1.111 0 1.87.711 1.87 1.798 0 .953-.892 1.968-1.81 2.929.286-.035.678-.07.945-.07h1.139v1.103h-3.978v-.748" fill="#100f0d"/><path d="M50.722 50.475c3.605 2.452 5.122 7.44 3.527 11.49-1.445 4.015-5.733 6.737-9.982 6.325-2.859-.213-5.58-1.76-7.225-4.106.926 4.87 5.3 8.797 10.236 9.205 4.247.456 8.635-1.67 10.902-5.295 2.6-3.946 2.398-9.48-.5-13.219-1.684-2.246-4.201-3.853-6.958-4.4z" fill-opacity=".18"/><path d="M71.599 73.45C65.193 73.45 60 68.258 60 61.85c0-6.406 5.193-11.6 11.599-11.6 6.407 0 11.601 5.194 11.601 11.6 0 6.407-5.194 11.6-11.601 11.6z" fill="#ea2922"/><path d="M71.599 67.696a5.846 5.846 0 110-11.692 5.846 5.846 0 010 11.692z" fill="#fff"/><path d="M71.646 63.834c.551 0 .916-.24.916-.668 0-.5-.293-.811-1.521-.811v-.925c1.015 0 1.335-.303 1.335-.757 0-.392-.25-.623-.694-.623-.401 0-.705.188-1.06.5l-.658-.802c.515-.446 1.085-.722 1.78-.722 1.167 0 1.95.562 1.95 1.55 0 .587-.339.996-.943 1.255v.034c.648.189 1.122.651 1.122 1.382 0 1.05-.962 1.646-2.102 1.646-.919 0-1.558-.32-1.969-.8l.606-.829c.338.33.757.57 1.238.57z" fill="#100f0d"/><path d="M73.922 50.475c3.605 2.452 5.122 7.44 3.527 11.49-1.445 4.015-5.733 6.737-9.982 6.325-2.859-.213-5.58-1.76-7.225-4.106.926 4.87 5.3 8.797 10.236 9.205 4.247.456 8.635-1.67 10.902-5.295 2.6-3.946 2.398-9.48-.5-13.219-1.684-2.246-4.201-3.853-6.958-4.4z" fill-opacity=".18"/><path d="M60 89.534c-6.407 0-11.6-5.193-11.6-11.6 0-6.406 5.193-11.6 11.6-11.6 6.406 0 11.6 5.194 11.6 11.6 0 6.407-5.194 11.6-11.6 11.6z" fill="#fac608"/><path d="M60 83.856a5.846 5.846 0 110-11.692 5.846 5.846 0 010 11.692z" fill="#fff"/><path d="M59.515 79.705v-3.267h-1.06v-.81c.614-.115 1.005-.277 1.407-.517h.961v4.594h1.06v1.06h-3.598v-1.06z" fill="#100f0d"/><path d="M62.314 66.566c3.606 2.452 5.123 7.44 3.528 11.49-1.445 4.016-5.734 6.738-9.983 6.325-2.858-.213-5.579-1.759-7.224-4.106.926 4.87 5.3 8.797 10.236 9.205 4.246.457 8.634-1.67 10.9-5.295 2.602-3.946 2.4-9.48-.5-13.218-1.683-2.247-4.2-3.854-6.957-4.4z" fill-opacity=".18"/></svg>