<svg height="186" width="302" xmlns="http://www.w3.org/2000/svg"><path d="M107.25 184.02c-10.926-.01-19.438-10.06-19.438-21.781 0-11.72 8.587-21.771 19.438-21.782l7.655-.007c11.153-.01 20.155 9.78 20.155 21.79 0 12.009-9.002 21.799-20.155 21.788l-7.655-.007z" fill="#133944"/><rect width="63.647" height="41.858" x="36.436" y="49.624" ry="17.797" fill="#b75742"/><path d="M103.523 62.124V164.76h-89.45v-55.28l14.564-40.165c2.284-6.297 3.853-7.191 11.65-7.191z" fill="#f47458"/><path d="M228.81 184.02c-10.927-.01-19.438-10.06-19.438-21.781 0-11.72 8.587-21.771 19.438-21.782l7.654-.007c11.154-.01 20.155 9.78 20.155 21.79 0 12.009-9.001 21.799-20.155 21.788l-7.654-.007z" fill="#133944"/><path d="M295.266 1.115A5.721 5.721 0 01301 6.849v123.165a5.721 5.721 0 01-5.734 5.734H185.518V1.115z" fill="#3c8f7c"/><path fill="#184655" d="M295.381 6.849H191.023v123.165h104.358z"/><path fill="#96d9c9" d="M295.381 6.849H191.023v27.339h104.358z"/><path d="M185.518 1v134.633h-99.54a5.721 5.721 0 01-5.735-5.734V6.734A5.721 5.721 0 0185.977 1z" fill="#355389"/><path d="M252.548 25.931a4.806 4.806 0 01-4.816 4.817h-9.06a4.806 4.806 0 01-4.816-4.817z" fill="#50bfa5"/><path d="M286.436 135.633v29.128H88.27a5.721 5.721 0 01-5.734-5.733v-17.661a5.721 5.721 0 015.734-5.734z" fill="#184655"/><path fill="#3c8f7c" d="M284.601 139.303h-96.33v21.789h96.33z"/><path fill="#b75742" d="M278.408 147.445h-12.615v8.601h12.615z"/><path fill="#f47458" d="M265.794 147.445h-15.252v8.601h15.252z"/><path fill="#b75742" d="M191.482 147.445h12.615v8.601h-12.615z"/><path fill="#f47458" d="M204.096 147.445h15.252v8.601h-15.252z"/><path d="M171.126 140.45c11.125.034 20.126 9.78 20.126 21.789 0 12.01-9.001 21.754-20.126 21.789h-7.683V140.45h7.626z" fill="#133944"/><ellipse cx="164.188" cy="162.239" rx="20.183" ry="21.789" fill="#13375b"/><ellipse cx="164.188" cy="162.239" rx="9.977" ry="10.78" fill="#355389"/><path d="M67.403 69.693a4.575 4.575 0 014.583 4.587v30.963a4.575 4.575 0 01-4.583 4.587H30.162c-2.54 0-5.435-2.193-4.584-4.587l11.67-32.814c.818-2.3 2.19-2.736 4.246-2.736z" fill="#13375b"/><path d="M71.986 86.55v18.693a4.575 4.575 0 01-4.583 4.587H30.162c-2.54 0-5.435-2.193-4.583-4.587l6.648-18.693z" fill="#355389"/><path d="M37.583 120.151v.344a4.005 4.005 0 01-4.014 4.014H23.248v-4.358z" fill="#b75742"/><path d="M17.834 146.757a3.456 3.456 0 013.464 3.464v10.847a3.456 3.456 0 01-3.464 3.464H13.5v-17.775z" fill="#13375b"/><path d="M49.567 140.45c11.124.034 20.126 9.78 20.126 21.789 0 12.01-9.002 21.754-20.126 21.789h-7.684V140.45h7.626z" fill="#133944"/><ellipse cx="42.628" cy="162.239" rx="20.183" ry="21.789" fill="#13375b"/><ellipse cx="42.628" cy="162.239" rx="9.977" ry="10.78" fill="#355389"/><path d="M43.087 70.84v2.631H17.522a8.957 8.957 0 00-9.005 9.006v3.5h.625a4.577 4.577 0 014.587 4.587v12.615a4.577 4.577 0 01-4.587 4.587H5.587A4.577 4.577 0 011 103.179V90.564a4.577 4.577 0 014.587-4.587h.298v-3.5c0-6.425 5.213-11.638 11.637-11.638z" fill="#13375b"/><rect width="8.601" height="17.661" x="3.064" y="88.041" ry="2.523" fill="#86b1f2"/></svg>