<svg width="1000" height="348" xmlns="http://www.w3.org/2000/svg"><path d="M0 1.535v58.883c8.722.456 17.381.336 26.217.617 13.724.437 27.445.996 41.162 1.645 26.336 1.24 52.657 2.814 78.969 4.492 54.821 3.49 109.621 7.44 164.51 9.81 27.414 1.184 54.85 1.977 82.29 2.116 12.309.064 26.979-2.34 38.989.375 9.598 2.17 17.532 6.27 27.91 3.937 8.072-1.813 14.107-11.602 9.223-19.148-3.235-4.996-11.237-6.275-15.452-2.073-2.862-7.36-10.986-12.293-18.84-11.441-3.889.421-7.701 2.1-11.578 1.559-2.896-.404-5.47-2.007-8.242-2.942-6.173-2.082-13.426-.544-18.222 3.865-4.326-9.2-13.782-15.775-23.915-16.63-3.249-.274-6.583-.008-9.716-.914-2.93-.848-5.475-2.659-8.28-3.856-6.995-2.983-15.61-1.726-21.46 3.13-2.291-9.563-15.868-14.087-23.442-7.812-8.616-5.815-19.637 2.272-26.799 9.803-4.37-7.627-13.49-12.244-22.224-11.25-.46-5.482-4.875-10.392-10.278-11.43-5.405-1.034-11.326 1.893-13.779 6.817-5.735-8.896-21.35-8.219-26.295 1.139-.412-4.966-6.378-7.887-11.275-6.967-4.898.92-8.84 4.434-12.508 7.806-1.334-4.373-7.538-5.643-11.434-3.248-3.895 2.397-5.73 7.109-6.422 11.627-7.893-5.097-18.958-4.685-26.453.983-4.265-10.264-16.214-16.7-27.135-14.614C113.408 6.805 98.966.317 89.328 6.044c-9.05-7.098-24.702-1.865-27.654 9.249-5.018-5.132-13.296-6.74-19.871-3.861-7.575-8.028-21.89-8.231-29.692-.424C8.792 7.34 4.478 3.57 0 1.535z" fill="#6eb765"/><path d="M465.979 187.166c68.019-7.493 140.413-16.073 191.787-50.814 5.667-3.833 11.479-9.294 9.06-14.762-1.873-4.236-7.893-6.4-13.34-8.076-53.424-16.443-108.456-30.599-164.408-41.18-51.852-9.805-104.334-16.41-157.147-20.477-52.46-4.038-105.25-5.573-158.08-5.252-31.698.194-63.412 1.055-100.122 2.674C46.41 50.57 22.272 48.703 0 51.641v145.433c132.817 17.69 318.296 6.363 465.979-9.908z" fill="#c4eb8b"/><path d="M608.727 207.63c121.939 0 240.67 46.657 391.273-22.987v-61.854c-7.037-4.48-15.476-7.343-23.691-9.951-82.627-26.233-169.187-45.346-277.253-48.559-101.072-3.004-180.292 9.36-258.327 21.768-40.713 6.473-81.262 13.572-155.022 25.604-67.872 11.073-135.53-3.24-136.394 35.404 111.889 55.229 331.179 60.576 459.414 60.576z" fill="#b0dc7b"/><path d="M763.294 4.08l14.279 61.936-6.609 1.651 7.09.44 3.819 16.562-7.535 2.046 8.16.676 3.152 13.663H740.94l4.563-19.792 8.14-.926-7.636-1.256 4.705-20.413 6.578-1.027-6.16-.791z" fill="#6eb765"/><path d="M763.294 26.684l4.667 74.37h-9.333z" fill="#5e9d52"/><path d="M728.554 27.267l9.933 43.082-4.598 1.15 4.932.306 2.656 11.52-5.241 1.424 5.679.47 2.19 9.503h-31.101l3.173-13.767 5.663-.645-5.313-.871 3.275-14.202 4.573-.713-4.283-.55z" fill="#6eb765"/><path d="M728.554 42.99l4.667 51.732h-9.334z" fill="#5e9d52"/><path d="M699.747 34.307l14.412 62.515-6.67 1.666 7.156.444 3.854 16.717-7.604 2.066 8.237.682 3.18 13.792h-45.13l4.606-19.978 8.216-.936-7.707-1.266 4.747-20.605 6.64-1.035-6.216-.8z" fill="#6eb765"/><path d="M699.747 57.122l4.667 75.066h-9.334z" fill="#5e9d52"/><path d="M672.02 31.406l14.41 62.514-6.669 1.666 7.156.444 3.854 16.718-7.606 2.066 8.24.683 3.18 13.79h-45.13l4.605-19.978 8.216-.936-7.707-1.266 4.748-20.605 6.64-1.034-6.216-.799z" fill="#6eb765"/><path d="M672.02 54.221l4.666 75.067h-9.334z" fill="#5e9d52"/><path d="M946.721 1.305l10.613 46.034-4.913 1.227 5.271.328 2.838 12.31-5.6 1.52 6.066.503 2.34 10.155h-33.23l3.39-14.711 6.051-.688-5.677-.933 3.499-15.173 4.888-.763-4.578-.586z" fill="#5f9b56"/><path d="M946.721 18.106l4 55.277h-8z" fill="#4c8143"/><path d="M905.637 240.11c35.175-4.739 74.229-13.053 94.363-41.971V81.16c-6.34-4.572-14.303-7.022-22.016-8.937-24.89-6.183-50.232-9.368-75.673-10.135-42.402-1.279-85.081 4.16-126.41 13.637-65.933 15.118-127.434 46.576-208.066 59.13-81.605 12.706-150.815 6.439-218.991.325-65.502-5.87-127.67-23.705-222.522-45.084C64.46 76.152 31.821 78.623 0 79.072V310.71c123.762 1.874 248.048-12.431 498.44-49.205 223.832-3.65 315.907-9.098 407.197-21.395z" fill="#7cbf5c"/><path d="M356.496 160.469c-64.276-.717-128.49 2.376-192.062 12.261C107.364 181.514 53.379 201.87 0 223.16V348h194.443c119.538-6.021 238.983-17.895 358.457-23.25 74.03-7.482 150.596 4.797 222.766-16.408 48.934-4.756 43.545-50.89 7.156-69.248-69.26-44.545-153.79-56.76-233.886-68.031-63.824-5.352-128.163-9.877-192.44-10.594z" fill="#89d064"/><path d="M1000 337.32V124.787c-24.295-2.966-50.818-4.626-72.248-4.812-21.826-.19-43.663.793-65.393 2.869-61.108 5.837-121.378 20.487-178.248 43.595-47.198 19.18-91.833 43.897-137.843 65.637-47.016 22.216-94.772 37.749-126.446 80.738z" fill="#b0dc7b"/><path d="M32.346 323.344c-7.067 1.686-16.27 5.693-15.293 12.89.889 6.553 7.985 9.989 13.01 11.766H1000v-68.898c-6.446-3.49-13.458-6.154-20.406-8.536-94.04-32.225-192.843-55.054-316.525-56.586-115.844-1.434-206.835 16.666-296.567 34.791-46.816 9.455-93.46 19.728-178.282 37.257-78.051 16.13-116.43 27.906-155.874 37.316z" fill="#7cbf5c"/><path d="M843.949 192.706c-80.571 0-145.889-2.24-145.889-5 0-2.763 65.318-5 145.889-5 80.573 0 145.888 2.237 145.888 5 0 2.76-65.315 5-145.888 5z" fill="#232923" opacity=".2"/><path d="M947.793 186.854h-99.545v-84.837h99.545z" fill="#e8cdaa"/><path d="M813.158 39.465v62.553H948.1l-36.194-62.551z" fill="#ae6f60"/><path d="M848.248 186.854h-68.84v-84.837h68.84zM812.964 39.466l-33.56 62.551h68.844z" fill="#f9e2b4"/><path d="M885.992 154.049h-18.386v-28.407h18.386zm45.648 0h-18.386v-28.407h18.386zM819.154 85.728h-11.995v-11.99h11.995z" fill="#615854"/><path d="M825.255 186.854h-61.942v-52.79h61.942z" fill="#e8cdaa"/><path d="M802.924 95.142l-21.417 38.922h43.938z" fill="#ae6f60"/><path d="M802.75 134.064h-61.273V95.142h61.273z" fill="#ae6f60"/><path d="M763.313 186.854h-42.835v-52.79h42.835zm-21.955-91.712l-20.881 38.922h42.836z" fill="#f9e2b4"/><path d="M786.8 166.44h-11.44v-17.675h11.44zm28.405 0h-11.44v-17.675h11.44zm-66.323 20.414h-14.809v-38.089h14.81z" fill="#615854"/><path d="M896.023 58.228h-12.532V25.16h12.532z" fill="#f9e2b4"/></svg>