<svg width="290" height="290" xmlns:xlink="http://www.w3.org/1999/xlink" xmlns="http://www.w3.org/2000/svg"><path d="M144.94 287.503c79.529.2 144.025-9.344 144.054-21.32v-6.299H.996s.004 4.218 0 5.574c-.028 11.974 64.418 21.844 143.945 22.045z" fill="#e9e9e9"/><path d="M144.997 281.567c79.528 0 143.998-9.707 143.998-21.683 0-11.974-64.47-21.682-144-21.682-79.527 0-143.999 9.708-143.998 21.682 0 11.975 64.47 21.683 144 21.683z" fill="#d3d2d2"/><path d="M142.793 273.188c62.137 0 112.509-7.584 112.509-16.941 0-9.355-50.373-16.941-112.509-16.941-62.137 0-112.51 7.586-112.51 16.94 0 9.358 50.373 16.942 112.51 16.942z" fill="#9c9a9b"/><path d="M146.338 107.094c-65.097 0-117.87 8.96-117.87 20.01 0 8.382 12.616 116.98 12.616 124.347 0 9.867 47.125 17.867 105.253 17.867 58.133 0 105.257-8 105.257-17.867 0-7.339 12.616-115.617 12.616-124.346 0-11.052-52.773-20.011-117.872-20.011z" fill="#f79745"/><path d="M38.94 228.416c-.205-1.95-.42-3.988-.644-6.094 0 0 56.954 6.093 109.998 6.093 52.944 0 105.896-6.07 106.097-6.093-.218 2.083-.645 6.094-.645 6.094s-61.588 8.84-112.766 8.84c-51.059 0-101.8-8.798-102.04-8.84zm-6.891-64.311c.442 4.159.87 8.21 1.35 12.65 1.767 1.255 4.278 1.617 7.775.573 9.563-9.128 18.633 2.18 29.164-.656 12.188-13.428 22.68 7.887 36.225 4.55 9.804-8.76 19.75.756 29.943 2.745 4.611.9 8.098-3.66 12.42-4.83 12.046-.627 25.17 8.01 35.219-3.022 2.1-.055 10.24 3.83 15.613 4.569 7.916 1.089 17.006-3.914 25.088-4.563 4.755-.382 8.48 4.698 12.988 4.135 6.409-.801 16.31-1.213 21.658-5.356.243-2.25.456-4.278.69-6.46-6.52 6.823-18.016 7.653-26.461 3.425-10.318-12.12-19.4 7.45-33.461 4.895-6.29-1.143-15.25-5.214-16.787-9.274-2.132 4.067-11.442 12.696-19.895 10.028-8.187 2.994-13.401-13.695-16.459-6.836-7.49 11.138-26.54 8.05-29.744-5.05-4.36 13.17-28.785 15.343-33.045 1.102-7.216 8.93-25.364 9.448-29.914-2.48-3.042.483-16.965 10.4-22.367-.145z" fill="#ed7f3b"/><path d="M41.084 251.45c0 9.868 47.125 17.869 105.253 17.869 58.133 0 105.257-8 105.257-17.87 0-1.926.87-10.814 2.152-23.022 0 0-61.588 8.84-112.766 8.84-51.18 0-102.041-8.84-102.041-8.84 1.278 12.208 2.145 21.093 2.145 23.023z" fill="#f3d28b"/><path d="M55.275 157.393s2.422 10.665 14.234 10.665c11.81 0 15.703-6.519 15.703-6.519s1.56 10.175 15.792 9.565c14.233-.609 16.656-10.666 16.656-10.666s3.728 12 15.282 12 15.91-10.17 15.91-10.17 2.725 10.17 16.656 10.17c13.93 0 16.656-11.083 16.656-11.083s3.634 11.083 18.777 11.083c15.141 0 22.41-11.388 22.41-11.388s8.176 8.226 20.29 8.226c12.114 0 16.976-9.86 16.976-9.86s3.593-34.446 3.593-37.518c0-11.052-52.773-20.01-117.872-20.01-65.097 0-117.87 8.958-117.87 20.01 0 2.76 1.368 16.383 3.201 33.675 1.294 1.513 3.742 8.54 12.704 8.22 6.847-.245 10.902-6.4 10.902-6.4z" fill="#f1b575"/><path d="M248.334 168.082c-3.764 0-6.813-3.068-6.813-6.855 0-3.787 3.049-6.858 6.813-6.858 3.763 0 6.813 3.071 6.814 6.858 0 3.787-3.051 6.855-6.814 6.855zm-46.333 3.964c-3.764 0-6.814-3.072-6.814-6.859s3.05-6.855 6.814-6.855c3.762 0 6.813 3.068 6.813 6.856 0 3.787-3.05 6.858-6.813 6.858zm-38.764 0c-3.763 0-6.813-3.073-6.813-6.86 0-3.786 3.05-6.854 6.813-6.854 3.764 0 6.813 3.068 6.813 6.855 0 3.788-3.05 6.858-6.813 6.858zm-30.296 0c-3.763 0-6.813-3.073-6.813-6.86 0-3.786 3.05-6.854 6.813-6.854 3.764 0 6.813 3.068 6.813 6.855 0 3.787-3.049 6.858-6.813 6.858zm-33.01-.001c-3.762 0-6.813-3.072-6.813-6.859s3.051-6.855 6.814-6.855c3.762 0 6.813 3.068 6.813 6.856 0 3.787-3.05 6.858-6.813 6.858zm-30.889-3.964c-3.762 0-6.813-3.068-6.813-6.855 0-3.787 3.05-6.859 6.813-6.859 3.764 0 6.814 3.072 6.814 6.86 0 3.786-3.05 6.854-6.814 6.854zm-25.74-4.57c-3.763 0-6.813-3.068-6.813-6.858 0-3.787 3.05-6.855 6.814-6.855 3.762 0 6.813 3.067 6.813 6.854 0 3.791-3.05 6.86-6.813 6.86zm23.069 31.835c-1.023.005-2.125.25-3.324.787-3.53 1.582-6.12 5.33-8.463 8.193-2.865 3.501-7.533-3.752-9.912-5.586-3.024-2.324-6.53-1.303-8.81 1.047.197 1.829.36 3.359.554 5.154 1-2.289 3.55-4.808 6.031-2.793 1.596 1.295 2.71 3.12 4.301 4.457 2.56 2.148 6.064 4.524 9.27 2.286 3.565-2.496 5.27-6.856 9.218-9.075 2.708-1.526 4.892 2.697 6.12 4.397 3.757 5.221 8.978 9.127 15.552 5.875 4.373-2.16 7.235-9.292 13.112-6.227 1.841.962 3.279 3.037 4.88 4.346 1.705 1.387 3.733 2.384 5.842 3.02 7.264 2.189 13.225-5.283 18.694-8.518 9.088-5.384 15.277 3.793 22.279 7.84 8.866 5.126 16.16-4.068 23.8-7.03 10.726-4.154 17.392 11.373 27.844 9.762 6.661-1.026 8.418-6.457 13.606-9.601 4.786-2.899 10.154 3.525 13.472 6.004 3.431 2.56 7.415 2.246 10.958.129 2.492-1.49 4.48-3.75 6.171-6.042 1.047-1.416 1.633-3.482 3.924-2.326 2.387 1.2 2.964 4.4 3.82 6.643.132.345.319.626.534.865.35-3.251.655-6.133 1.021-9.514-.951-1.188-2.163-2.22-3.845-3.072-3.68-1.864-6.657.243-8.842 3.067-2.05 2.645-5.73 8.524-9.881 6.498-2.996-1.462-5.215-4.386-8.088-6.12-3.09-1.866-6.87-2.304-10.313-1.304-4.476 1.297-6.437 5.935-9.97 8.48-5.354 3.855-11.788-2.797-16.069-5.484-3.755-2.356-8.37-4.267-12.906-3.522-8.809 1.446-16.361 13.427-25.094 6.77-6.391-4.873-12.11-10.173-20.869-7.945-6.77 1.721-12.48 11.625-19.84 9.591-4.209-1.166-6.181-5.713-10.224-7.084-4.537-1.537-8.32.024-11.719 3.038-2.885 2.557-5.543 6.14-9.822 3.986-2.42-1.213-3.981-3.91-5.506-6.008-2.082-2.86-4.436-5-7.506-4.984z" fill="#9c1661"/><path d="M146.338 141.907c-65.097 0-117.87-8.957-117.87-20.01 0-11.051 52.773-20.008 117.87-20.008 65.1 0 117.872 8.957 117.872 20.009s-52.773 20.01-117.872 20.01z" fill="#f3d28b"/><path d="M39.401 130.322c2.198.803 4.694 1.576 7.474 2.316 2.624.684 5.273 1.276 7.904 1.859-6.843-2.748-7.387-12.39-.152-15.04 13.085-7.606 28.527-7.924 43.129-9.96 23.377-2.138 46.79 1.318 70.196.25 11.029-.144 22.04-.998 33.022-1.973 4.03-1.101 4.903-2.427.145-3.597-16.367-1.462-35.003-2.29-54.78-2.29-65.098 0-117.871 8.96-117.871 20.01 0 1.293.587 2.747 3.416 4.701 3.2 2.212 5.394 2.943 7.517 3.724z" fill="#f8dea8"/><path d="M145.454 141.906c-23.365-.057-44.32-1.181-62.07-3.09 5.504-1.302 10.933-2.96 16.664-3.107 9.936-.26 19.88-.26 29.82-.26 19.19 0 38.098-3.322 57.18-4.884 9.209-.754 18.447-1.094 27.67-1.614 7.49-.42 14.515-1.642 20.99-5.658 4.183-2.596 8.786-6.74 12.133-11.572 10.133 2.906 16.062 6.282 16.362 10.034 0 11.195-52.766 20.152-118.749 20.15z" fill="#e8ae6f"/><g id="a" transform="matrix(.3449 0 0 -.3471 -38.417 546.549)"><path d="M307.847 1441.65c-13.281-.015-24.06 10.74-24.074 24.02-.014 13.28 23.967 69.34 23.967 69.34s24.114-56 24.128-69.28c.014-13.29-10.74-24.065-24.021-24.08z" fill="#f9a72b" stroke-width=".1"/><path d="M307.847 1441.65c-8.476-.01-15.355 6.85-15.366 15.33-.01 8.48 15.298 44.25 15.298 44.25s15.388-35.74 15.397-44.21c.009-8.48-6.854-15.36-15.329-15.37z" fill="#f4702e" stroke-width=".1"/><ellipse cx="307.864" cy="-1218.715" transform="scale(1 -1)" rx="43.397" ry="9.065" fill="#e8ae6f" stroke-width="19.657" stroke-linecap="round" stroke-linejoin="round" stroke-opacity=".685" paint-order="stroke fill markers"/><path d="M319.077 1216.48c5.578 1.923 8.894 4.84 11.387 8.4l8.781 201.76-62.762-.07 12.043-203.2c3.417-3.01 6.982-6.92 11.222-7.75 6.33-1.24 13.16-1.267 19.329.86z" fill="#e5e5ff" stroke-width=".1"/><path d="M276.921 1419.2c3.867-65.277 7.736-130.554 11.602-195.83 4.145-3.74 7.364 6.443 8.914 9.942 12.111 27.338.64 52.508-2.255 77.666-1.968 17.106 2.045 34.459-.324 51.593-2.923 21.14-6.992 41.636-17.937 56.629z" fill="#fff" fill-opacity=".5" stroke-width=".1"/><path d="M339.245 1426.64l-47.164-.05c2.776-11.232 13.511-17.006 22.542-22.684 10.335-7.253 10.557-21.126 10.994-32.51 1.034-26.157-1.018-52.297-4.354-78.225-2.706-18.655.734-37.823-3.736-56.247-1.667-8.125-8.014-13.99-15.221-17.45-4.702-1.65-5.811-3.997-.47-4.214 10.237-1.624 23.052.483 28.647 10.053z" fill-opacity=".25" stroke-width=".1"/><path d="M307.87 1420.42c-17.33-.02-31.384 2.73-31.388 6.15-.003 3.41 14.042 6.2 31.375 6.22 17.333.02 31.384-2.73 31.388-6.15.004-3.41-14.042-6.2-31.375-6.22z" fill="#b94bbe" stroke-width=".1"/><path d="M308.861 1426.61l-.039 34.68h-1.992l.039-34.68" fill="#280c23" stroke-width=".1"/></g><use xlink:href="#a" transform="translate(40.312 -10.068)"/><use xlink:href="#a" transform="translate(85.626 2.073)"/><use xlink:href="#a" transform="translate(120.644 -11.253)"/><use xlink:href="#a" transform="translate(158.308 3.85)"/></svg>