<svg width="324" height="258" xmlns:xlink="http://www.w3.org/1999/xlink" xmlns="http://www.w3.org/2000/svg"><g id="b"><path d="M31.97 54.949l-.087-2.492 3.026 3.62c1.399.878 2.307.302 2.845-1.393-4.129-2.708-6.58-6.008-7.199-9.951 0 0 4.665 2.801 4.763 2.875l.043-2.572-2.536-1.372 3.388-.83 2.451-2.652c-2.075.772-4.161 1.255-6.256 1.264a11.263 11.289 0 01-8.544-3.924 19.041 19.041 0 00-1.124-1.196.843.845 0 01.121-1.311 4.998 5.01 0 001.034-.945 5.593 5.605 0 001.124-2.217l1.492-5.685c-1.064 1.142-1.842 2.54-2.448 4.095-.337.856-.864 1.632-1.589 2.195l-.028.028a4.62 4.63 0 01-4.67.494c-2.55-1.127-5.486-1.683-8.826-1.647l.943 3.6c12.348-.061 20.682 11.089 19.56 20.84 1.286.918 2.514-.816 2.514-.816" fill="#ef771d"/><path d="M35.852 42.314c.108-.25.519-.678.484-.788-2.56.635-5.325.758-7.837-.152-2.114-.724-3.977-2.093-5.391-3.818-.225-.164-.584-.801-.744-.617-.164.624.467.975.809 1.38.813.932 1.66 1.848 2.698 2.542a11.339 11.365 0 007.61 1.937c.814-.04 1.584-.31 2.37-.484zM21.41 34.42c1.098-.475 1.946-1.428 2.415-2.514a5.095 5.107 0 01-4.812 2.022c-1.131-.132-2.11-.765-3.196-1.066a21.423 21.472 0 00-6.104-.945l.216.83c2.721.076 5.447.605 7.933 1.734a4.691 4.702 0 003.546-.061z" fill="#f8c299"/><path d="M10.07 15.243l3.416 4.912-1.321.24a8.096 8.114 0 005.054 2.41c-2.795.232-5.089 1.933-7.188 4.195a13.368 13.4 0 016.918 3.868l2.207-1.069-.1 1.398c2.076-.165 3.773-1.473 5.159-3.68a5.448 5.46 0 01.264-.415.968.97 0 011.764.572c0 .156 0 .316-.03.49-.167 2.606.44 4.66 2.03 6.014l.734-1.191 1.168 2.16a13.37 13.401 0 017.866.925c-.378-3.064-1.24-5.787-3.372-7.618a8.1 8.119 0 005.504 1.016l-.934-.975 5.642-1.972-1.522-.864c1.816-.86 3.416-2.38 4.726-4.787l-2.08-.578.307-1.328-1.612.052-.567-1.682c-3.426-1.003-6.658-.708-9.685.951 2.01-1.687 3.438-3.722 3.94-6.316l-1.19.33c.882-3.309.865-6.33-.44-8.938l-1.291.598c.18-1.807-.072-3.445-.952-4.832-1.528.607-2.687 1.79-3.599 3.354l-.696-1.241c-2.586 1.345-4.363 3.785-5.582 6.985l-.767-.964c-1.116 2.394-1.146 4.882-.502 7.43-1.485-3.12-3.932-5.259-7.291-6.457l-1.445 1.031-1.275-.988-.53 1.257-2.02-.752c-.347 2.717.064 4.888 1.028 6.654l-1.734-.195" fill="#6cc900"/><path d="M24.453 26.993c-1.003 1.673-2.357 3.324-4.287 3.91-.266-.029-1.146.51-1.001-.044 0-.373.16-.997 0-1.164l-2.21 1.069a13.554 13.586 0 00-6.77-3.814A20.098 20.144 0 0112 25.225a13.63 13.661 0 014.654 3.155l2.285-1.103-.108 1.445c1.974-.17 3.593-1.55 4.67-3.133.388-.485.59-1.27 1.307-1.363a1.066 1.068 0 011.204 1.18c-.097.407.048 1.271-.134 1.395-.231-.302-1.189-.254-1.44.195zm21.566-6.123c.12.028.408-.078.417.043l-.296 1.27.843.234c-.986 1.376-2.294 2.544-3.84 3.237l1.02.577-1.02-.577 1.5.85-5.585 1.954.908.951a8.163 8.182 0 01-3.485-.242 8.366 8.385 0 00-2.197-3.034c.255-.301.735.347 1.1.369a8.079 8.097 0 004.283.524l-.91-.947 5.588-1.957-1.5-.851a9.214 9.235 0 003.174-2.4zm-11.073 5.66zm12.037-4.113zm-7.925 6.041l5.588-1.954zm-12.787.51a5.523 5.536 0 001.651 2.697l.761-1.233 1.209 2.238a13.56 13.592 0 017.55.815c.087.355.202.821.277 1.252.035.36.232.954.132 1.175a13.57 13.6 0 00-7.661-.86l-1.21-2.237c-.277.356-.507 1.025-.816 1.181-1.398-1.252-1.91-3.206-1.893-5.027zm.034.639c.065.227.52 1.076.21.478a5.85 5.85 0 01-.21-.478zm4.172 5.401c.238-.05 1.23-.145.534-.076l-.536.074z" fill="#5d8d24"/><path d="M10.848 8.901l2 .745.515-1.23 1.24.957 1.455-1.042c3.237 1.168 5.615 3.229 7.076 6.132a13.784 13.815 0 00.372 2.12c-1.483-3.12-3.935-5.26-7.292-6.458l-1.448 1.032-1.274-.988-.527 1.256-2.02-.752c-.064.492-.1.967-.116 1.422a12.471 12.5 0 01.03-3.194zM34.304-.704a5.543 5.556 0 01.145-.065c.618 1 .936 2.162.955 3.523a6.067 6.067 0 00-.756-1.74l-.2.085c-1.426.628-2.524 1.772-3.395 3.271l-.699-1.241c-2.58 1.345-4.362 3.785-5.58 6.985l-.769-.964a9.728 9.75 0 00-.914 3.775c-.247-1.996 0-3.81.767-5.504l.778.975a15.366 15.401 0 015.52-7.042l.73 1.3c.642-1.278 1.898-2.67 3.416-3.358zm2.881 17.958c2.175-.59 4.469-.542 6.853.15l.571 1.7 1.565-.052-.302 1.3.469.13c-.108.135-.214.26-.32.386l-1.19.037-.561-1.682c-3.042-.888-5.934-.758-8.663.442-.345.152-.687.321-1.024.505a12.322 12.35 0 002.6-2.916z" fill="#bde78c"/><path d="M10.56 8.31a.519.52 0 01.397 0l1.558.578.337-.8a.517.518 0 01.792-.207l.97.758 1.133-.81a.519.52 0 01.473-.07c2.603.932 4.679 2.416 6.196 4.43a10.418 10.442 0 01.958-5.132.512.514 0 01.867-.104l.22.275c1.325-3.092 3.126-5.2 5.491-6.435a.512.514 0 01.685.206l.277.492c.945-1.376 2.054-2.306 3.381-2.832a.517.518 0 01.623.201c.767 1.205 1.124 2.613 1.087 4.28l.506-.234a.517.518 0 01.679.234c1.195 2.39 1.422 5.157.692 8.44l.337-.094a.517.518 0 01.642.596c-.33 1.733-1.066 3.293-2.227 4.717 2.41-.739 4.96-.722 7.614.052a.517.518 0 01.346.331l.44 1.318 1.233-.04a.512.514 0 01.519.636l-.197.845 1.6.446a.519.52 0 01.32.743c-1.124 2.063-2.48 3.562-4.114 4.553l.71.405a.517.518 0 01-.085.936l-4.881 1.707.373.392a.512.514 0 01-.287.867 8.824 8.845 0 01-3.718-.18c1.037 1.56 1.69 3.586 2.017 6.212a.517.518 0 01-.72.535 12.943 12.972 0 00-7.57-.89.517.518 0 01-.541-.26l-.744-1.378-.268.433a.519.52 0 01-.774.122c-1.05-.895-1.734-2.107-2.045-3.606l-.272 1.038c-.245.938-.662 1.761-1.248 2.448a5.43 5.43 0 01-1.158 1.056.244.245 0 00-.113.188.25.251 0 00.076.204 19.153 19.197 0 011.163 1.235 10.642 10.667 0 008.094 3.718c1.874 0 3.856-.405 6.057-1.222a.588.59 0 01.636.953l-2.45 2.652a.584.585 0 01-.294.174l-1.902.461 1.189.648a.59.592 0 01.309.529l-.039 2.567a.59.592 0 01-.923.477c-.156-.102-1.94-1.177-3.567-2.156.878 3.155 3.113 5.928 6.658 8.255a.59.592 0 01.236.672c-.346 1.092-.837 1.768-1.548 2.08-.683.252-1.392.12-2.237-.427l-2-2.368.028.78a.59.592 0 01-.108.36c-.043.056-.389.533-.927.899-.822.561-1.678.579-2.409.058a.597.598 0 01-.246-.55c.493-4.299-.93-8.964-3.841-12.734a2.826 2.826 0 01-.487 1.068c-1.068 1.435-2.998 1.775-4.676 1.677-1.6-.065-3.357-.355-4.79.555a2.065 2.07 0 00-.854.975 5.729 5.742 0 01.26.078c.838.319 1.707.917 1.966 1.82.251 1.066-.983 2.093-1.978 1.61-.962-.52-1.47-1.597-1.463-2.671a6.252 6.252 0 00-3.502.504c-.433.033-1.198 1.012-1.399.412a6.031 6.045 0 011.693-1.315 6.274 6.288 0 013.38-.629 2.804 2.81 0 01.39-.75c1.022-1.42 2.907-1.789 4.557-1.711 1.634.043 3.437.388 4.912-.54.789-.448 1.253-1.466.944-2.329a18.736 18.78 0 00-14.084-6.199.594.596 0 01-.573-.442l-.942-3.599a.588.59 0 01.562-.74c3.387-.038 6.44.534 9.07 1.696a4.036 4.045 0 004.09-.434 4.514 4.524 0 001.41-1.95 16.801 16.84 0 01.757-1.679c-1.455 2.063-3.193 3.187-5.173 3.346a.517.518 0 01-.556-.555l.037-.507-1.405.68a.519.52 0 01-.595-.106 12.934 12.964 0 00-6.652-3.72.512.514 0 01-.272-.858c1.799-1.937 3.51-3.198 5.264-3.853a8.79 8.79 0 01-3.113-2.032.517.518 0 01.268-.876l.534-.1-2.957-4.248a.517.518 0 01.475-.808l.813.088c-.75-1.766-.966-3.772-.67-6.101a.519.52 0 01.294-.405zm.658 1.19c-.186 2.205.156 4.073 1.038 5.689a.517.518 0 01-.506.76l-.605-.064 2.767 3.973a.519.52 0 01-.333.802l-.281.054a7.443 7.46 0 003.97 1.578.517.518 0 010 1.027c-2.102.173-4.1 1.256-6.24 3.395a13.911 13.943 0 016.031 3.527l1.879-.907a.519.52 0 01.737.502l-.056.763c1.584-.323 2.95-1.424 4.163-3.35a5.686 5.699 0 01.281-.442 1.455 1.458 0 011.274-.637l.26-.617a76.94 76.94 0 00-1.774-1.987 7.852 7.852 0 00-1.902-.458 12.74 12.74 0 00-2.134-.06.223.223 0 01-.043-.44 13.634 13.666 0 012.223-.16 9.722 9.744 0 01.86.052 82.137 82.137 0 00-1.546-1.584c-.391-.388-.795-.759-1.176-1.155a157.603 157.965 0 00-3.523-3.489.223.223 0 01.29-.338 63.34 63.486 0 013.648 3.025l-.18-2.411a.145.145 0 01.118-.156.147.147 0 01.173.108l.815 3.326.458.463a85.866 86.063 0 012.454 2.549.441.442 0 01.125.134 84.541 84.735 0 011.492 1.668 112.218 112.476 0 002.734-7.425 9.28 9.302 0 01-.772-2.492 9.685 9.707 0 01-.077-2.682.147.147 0 01.29.028 9.08 9.1 0 00.79 3.716 5.956 5.97 0 00.13.282l.398-1.311.735-2.401c.242-.802.471-1.608.7-2.414l.331-1.213.324-1.22v-.002a.223.223 0 01.433.095l-.216 1.248-.245 1.242-.261 1.241-.288 1.235-.309 1.227c-.108.411-.216.819-.337 1.222-.242.81-.508 1.612-.77 2.416a101.605 101.605 0 01-1.113 3.228 9.657 9.679 0 004.008-1.556.148.148 0 01.184.232 7.988 7.988 0 01-1.044.793 10.037 10.06 0 01-2.365 1.142c-.37.128-.748.223-1.125.31a161.55 161.55 0 01-1.27 3.263 86.969 87.168 0 015.69-1.103l.639-.104 2.598-2.218a.147.147 0 01.208.208l-1.55 1.852c.467-.048.936-.087 1.405-.128a60.798 60.938 0 013.318-.18.223.223 0 01.04.442 156.06 156.417 0 00-4.895.754c-.54.102-1.085.17-1.626.25-.838.132-1.675.277-2.507.435a9.886 9.909 0 01.61.336 13.637 13.668 0 011.81 1.3.223.223 0 01-.267.353 13.117 13.117 0 00-1.85-1.066 7.678 7.678 0 00-1.875-.61c-.562.116-1.124.242-1.686.37a.588.59 0 01.18.589l-.327 1.307c0 .225-.028.403-.032.58-.143 2.273.32 3.97 1.413 5.16l.402-.65a.519.52 0 01.887.027l.994 1.838a13.911 13.943 0 016.952.685c-.484-2.99-1.47-5.04-3.07-6.416a.517.518 0 01.593-.839 7.549 7.566 0 004.138 1.053l-.197-.206a.517.518 0 01.201-.845l4.57-1.599-.534-.3a.519.52 0 01.035-.915c1.66-.793 3.026-2.104 4.168-4.002l-1.442-.401a.512.514 0 01-.363-.613l.155-.676-.942.032a.519.52 0 01-.506-.353l-.476-1.423c-3.212-.876-6.252-.546-9.04.981a.517.518 0 01-.575-.85c1.835-1.538 3.009-3.243 3.564-5.189l-.346.1a.517.518 0 01-.637-.633c.854-3.196.793-5.858-.19-8.125l-.826.386a.517.518 0 01-.731-.52c.162-1.634-.052-2.988-.65-4.124-1.146.566-2.113 1.539-2.94 2.958a.519.52 0 01-.894 0l-.447-.797c-2.119 1.256-3.727 3.38-4.903 6.472a.517.518 0 01-.886.138l-.22-.281c-.686 1.902-.734 3.971-.146 6.298a.517.518 0 01-.962.347c-1.366-2.873-3.638-4.925-6.75-6.101l-1.222.875a.517.518 0 01-.616 0l-.744-.576-.268.634a.519.52 0 01-.655.287zM9.713 31.915l.636 2.423c5.649.095 10.835 2.478 14.648 6.745 3.632 4.065 5.517 9.388 5.085 14.328.536.126 1.06-.394 1.288-.663l-.075-2.27a.59.592 0 011.037-.399l2.968 3.545c.415.245.753.325 1.008.23.27-.098.519-.419.735-.937-4.077-2.782-6.455-6.18-7.07-10.097a.588.59 0 01.887-.598l3.887 2.34.03-1.178-2.22-1.205a.588.59 0 01.138-1.092l3.222-.784.806-.876a16.877 16.916 0 01-4.304.607 11.818 11.846 0 01-8.991-4.132 18.97 18.97 0 00-1.09-1.155 1.425 1.428 0 01.212-2.225 4.423 4.433 0 00.908-.834 4.957 4.968 0 001.008-1.985l.583-2.234c-.147.319-.292.652-.432 1.005-.39 1.004-1.001 1.849-1.768 2.444l-.035.029a5.203 5.215 0 01-5.266.567c-2.279-1.01-4.912-1.542-7.822-1.594zm4.324 16.396a1.967 1.972 0 00.376 1.018c.156.466.98.694.964.029-.259-.52-.812-.839-1.336-1.04z" fill="#390176"/><use xlink:href="#a" transform="translate(31.63 54.048) scale(.76887)" width="100%" height="100%"/><use xlink:href="#a" transform="translate(36.199 44.833) scale(.7432)" width="100%" height="100%"/><use xlink:href="#a" transform="translate(10.965 45.652) scale(.83736)" width="100%" height="100%"/><use xlink:href="#a" transform="translate(8.472 11.852)" width="100%" height="100%"/><use xlink:href="#a" transform="translate(-9.324 20.742)" width="100%" height="100%"/><g id="a" transform="matrix(-.03046 .01341 -.01338 -.03053 102.573 89.248)"><circle cx="835.65" cy="2073.837" fill="#390176" r="247.5"/><circle cx="835.651" cy="2073.871" fill="#9b47fc" r="212.172"/><circle cx="717.685" cy="2037.096" fill="#af6cfd" r="35.745"/><path d="M691.942 2139.265c12.079-12.932 29.01-19.258 47.274-19.258 22.352 0 46.699 9.507 66.501 27.999 35.974 33.593 43.481 84.264 16.189 113.246-10.089 10.713-23.245 16.556-37.522 18.349-35.869-8.947-69.391-27.17-96.612-53.631-7.819-13.943-11.897-28.864-11.985-43.064-.102-16.419 5.154-31.863 16.155-43.641z" fill="#af6cfd"/><path d="M835.5 2285.954c-78.393.238-154.421-46.328-189.256-116.562-15.247-30.74-23.362-65.044-22.709-99.353 15.095 83.245 77.09 156.457 158.135 182.67 74.517 24.102 160.372 5.741 218.171-46.812 10.616-10.617 2.225-.221-2.723 5.576-39.668 46.937-100.162 74.294-161.618 74.481z" fill="#fff" fill-opacity=".6"/><path d="M907.296 1990.216c-68.253-47.419-162.445-53.444-235.314-13.479-12.318 6.756-24.107 14.435-35.035 23.265 26.978-74.946 99.542-129.66 178.837-137.171 79.447-7.525 160.393 33.22 201.648 101.538 41.186 68.202 40.367 159.113-3.857 225.384-3.613 5.545-6.92 11.422-11.6 16.102 12.132-82.149-26.483-168.26-94.679-215.639z" fill="#7d32d4"/></g><use xlink:href="#a" transform="matrix(1.00036 .00012 .00012 1.00059 -9.445 7.053)" width="100%" height="100%"/><use xlink:href="#a" transform="matrix(.83485 0 0 .83486 16.814 28.932)" width="100%" height="100%"/><use xlink:href="#a" transform="matrix(1.00005 .00012 .00012 1.00026 -19.784 23.184)" width="100%" height="100%"/><use xlink:href="#a" transform="matrix(.83485 0 0 .83486 1.668 38.881)" width="100%" height="100%"/><use xlink:href="#a" transform="matrix(.83484 0 0 .83485 16.862 41.772)" width="100%" height="100%"/><use xlink:href="#a" transform="translate(-1.473 26.816) scale(.99999)" width="100%" height="100%"/><use xlink:href="#a" transform="matrix(.83506 -.0001 -.0001 .83488 8.12 20.35)" width="100%" height="100%"/><use xlink:href="#a" transform="translate(24.454 33.353) scale(.8346)" width="100%" height="100%"/><use xlink:href="#a" transform="matrix(.83484 0 0 .83486 24.035 44.266)" width="100%" height="100%"/><use xlink:href="#a" transform="translate(46.07 57.783) scale(.63191)" width="100%" height="100%"/></g><use xlink:href="#b" transform="translate(83.985 29.041)" width="100%" height="100%"/><use xlink:href="#b" transform="translate(145.992 1.57)" width="100%" height="100%"/><use xlink:href="#b" transform="translate(226.837 27.472)" width="100%" height="100%"/><use xlink:href="#b" transform="translate(-7.85 72.21)" width="100%" height="100%"/><use xlink:href="#b" transform="translate(169.54 73.781)" width="100%" height="100%"/><use xlink:href="#b" transform="translate(-1.57 145.208)" width="100%" height="100%"/><use xlink:href="#b" transform="translate(146.777 144.422)" width="100%" height="100%"/><use xlink:href="#b" transform="translate(222.127 144.422)" width="100%" height="100%"/><use xlink:href="#b" transform="translate(67.501 114.596)" width="100%" height="100%"/></svg>