<svg width="64" height="80" xmlns:xlink="http://www.w3.org/1999/xlink" xmlns="http://www.w3.org/2000/svg"><g id="b"><path d="M15.686 16.034l.025-.719-.873 1.045c-.403.253-.665.087-.82-.402 1.19-.781 1.898-1.733 2.076-2.87 0 0-1.346.808-1.374.829l-.012-.742.731-.395-.977-.24-.707-.765c.599.223 1.2.362 1.805.365a3.248 3.256 0 002.463-1.132 5.49 5.49 0 01.325-.345.243.244 0 00-.035-.378 1.441 1.445 0 01-.298-.273 1.613 1.617 0 01-.325-.639l-.43-1.64c.307.33.531.733.706 1.181.097.247.25.471.458.634l.008.008a1.332 1.335 0 001.347.142c.736-.325 1.582-.485 2.546-.475l-.272 1.038c-3.561-.017-5.965 3.198-5.641 6.01-.371.265-.725-.234-.725-.234" fill="#ef771d"/><path d="M14.566 12.39c-.03-.072-.15-.195-.14-.227.739.183 1.536.218 2.26-.044a3.5 3.5 0 001.556-1.101c.064-.048.168-.231.214-.178.047.18-.135.281-.233.398-.234.269-.479.533-.778.733a3.27 3.278 0 01-2.195.559c-.235-.012-.457-.09-.684-.14zm4.165-2.277a1.38 1.38 0 01-.696-.725 1.47 1.473 0 001.387.583c.327-.038.609-.22.922-.307a6.178 6.193 0 011.76-.273l-.062.24c-.785.022-1.57.174-2.288.5a1.353 1.356 0 01-1.022-.018z" fill="#f8c299"/><path d="M22.002 4.583l-.985 1.416.38.07a2.335 2.34 0 01-1.457.695c.806.066 1.468.557 2.073 1.21a3.855 3.864 0 00-1.995 1.115l-.637-.308.029.403c-.599-.048-1.088-.425-1.488-1.061a1.571 1.575 0 00-.076-.12.28.28 0 00-.508.165c0 .045 0 .091.008.141.048.752-.127 1.344-.585 1.735l-.212-.344-.337.623a3.856 3.865 0 00-2.268.267c.109-.884.357-1.67.972-2.197a2.336 2.342 0 01-1.587.293l.27-.281-1.628-.57.439-.248c-.524-.249-.985-.687-1.363-1.38l.6-.168-.089-.383.465.015.164-.485c.988-.289 1.92-.204 2.793.275-.58-.487-.992-1.074-1.136-1.822l.343.095c-.255-.954-.25-1.825.127-2.578l.372.173c-.052-.521.02-.994.274-1.394.441.175.775.516 1.038.968L16.2.544c.746.389 1.258 1.092 1.61 2.015l.221-.278c.322.69.33 1.408.145 2.143.428-.9 1.134-1.517 2.103-1.862l.416.297.368-.285.153.363.583-.217c.1.783-.019 1.41-.297 1.919l.5-.056" fill="#6cc900"/><path d="M17.854 7.972c.29.482.68.958 1.236 1.127.077-.008.33.147.289-.013 0-.107-.046-.287 0-.335l.637.308a3.909 3.918 0 011.953-1.1 5.796 5.81 0 00-.524-.497 3.93 3.94 0 00-1.342.91l-.66-.319.032.417c-.57-.05-1.036-.447-1.347-.903-.112-.14-.17-.367-.377-.393a.307.308 0 00-.347.34c.028.117-.014.366.038.402.067-.087.343-.073.416.056zm-6.22-1.766c-.035.008-.118-.023-.12.012l.085.366-.243.068a2.8 2.8 0 001.107.933l-.294.167.294-.167-.432.245 1.61.564-.261.274a2.354 2.36 0 001.005-.07 2.413 2.418 0 01.633-.875c-.073-.086-.212.1-.317.107a2.33 2.335 0 01-1.235.15l.262-.272-1.611-.564.432-.246a2.657 2.663 0 01-.915-.692zm3.194 1.632zm-3.472-1.186zm2.286 1.742L12.03 7.83zm3.688.147a1.593 1.597 0 01-.477.778l-.22-.356-.348.646a3.91 3.92 0 00-2.177.235 6.049 6.049 0 00-.08.36c-.01.105-.067.276-.038.34a3.913 3.923 0 012.21-.248l.348-.645c.08.102.146.295.235.34.404-.361.552-.925.547-1.45zm-.01.184c-.02.066-.15.31-.061.138.022-.045.042-.092.06-.138zm-1.204 1.558c-.068-.014-.354-.042-.154-.022l.155.021z" fill="#5d8d24"/><path d="M21.777 2.754l-.576.214-.149-.354-.358.276-.42-.3c-.933.336-1.618.93-2.04 1.768a3.975 3.984 0 01-.107.61c.428-.899 1.135-1.516 2.103-1.861l.418.297.367-.285.152.363.582-.217c.019.142.03.278.034.41a3.597 3.605 0 00-.009-.921zm-6.764-2.77a1.599 1.602 0 00-.042-.02 1.94 1.94 0 00-.276 1.017 1.75 1.75 0 01.219-.502l.057.024c.411.181.728.511.98.944l.2-.358c.745.388 1.259 1.091 1.61 2.014l.222-.278a2.806 2.812 0 01.264 1.089c.07-.576 0-1.099-.222-1.587l-.224.28a4.431 4.442 0 00-1.592-2.03L16 .952c-.186-.369-.548-.77-.986-.969zm-.831 5.179c-.627-.17-1.289-.157-1.977.043l-.164.49-.452-.015.088.375-.136.038c.032.038.062.075.093.11l.343.012.162-.485c.877-.257 1.711-.22 2.498.127.1.044.198.093.295.146a3.554 3.562 0 01-.75-.841z" fill="#bde78c"/><path d="M21.86 2.583a.15.15 0 00-.114 0l-.45.167-.097-.23a.149.15 0 00-.228-.06l-.28.218-.327-.234a.15.15 0 00-.136-.02c-.75.269-1.35.697-1.787 1.278a3.004 3.011 0 00-.276-1.48.148.148 0 00-.25-.03l-.064.08c-.382-.893-.901-1.5-1.583-1.857a.148.148 0 00-.198.06l-.08.141c-.272-.396-.592-.665-.975-.816a.149.15 0 00-.18.058c-.22.347-.323.753-.313 1.234l-.146-.068a.149.15 0 00-.196.068c-.344.69-.41 1.487-.2 2.434l-.096-.027a.149.15 0 00-.185.172c.095.5.307.95.642 1.36-.695-.213-1.43-.208-2.196.015a.149.15 0 00-.1.096l-.127.38-.355-.011a.148.148 0 00-.15.183l.057.243-.462.13a.15.15 0 00-.092.214c.324.594.715 1.027 1.186 1.312l-.204.117a.149.15 0 00.024.27l1.408.493-.108.113a.148.148 0 00.083.25 2.545 2.55 0 001.072-.052c-.299.45-.487 1.034-.581 1.791a.149.15 0 00.207.155 3.733 3.741 0 012.184-.257.149.15 0 00.156-.075l.214-.397.077.125a.15.15 0 00.224.035c.303-.259.5-.608.59-1.04l.078.299a1.757 1.757 0 00.694 1.01.07.07 0 01.032.055.072.072 0 01-.022.059 5.524 5.537 0 00-.335.356 3.07 3.076 0 01-2.334 1.072c-.54 0-1.112-.117-1.747-.352a.17.17 0 00-.183.275l.706.765a.168.169 0 00.085.05l.548.133-.343.187a.17.17 0 00-.089.152l.012.74a.17.17 0 00.266.138c.045-.03.559-.34 1.028-.622-.253.91-.897 1.71-1.92 2.381a.17.17 0 00-.068.194c.1.315.242.51.447.6.197.072.401.034.645-.123l.577-.683-.008.225a.17.17 0 00.03.103c.013.017.113.154.268.26.237.161.484.166.695.017a.172.172 0 00.07-.16c-.141-1.239.269-2.584 1.109-3.672a.815.815 0 00.14.308c.308.414.865.512 1.348.484.462-.019.969-.103 1.382.16a.595.597 0 01.246.281 1.652 1.656 0 00-.075.023c-.241.091-.492.264-.567.525-.072.307.284.603.57.464.278-.15.424-.46.423-.77.34-.05.698 0 1.01.145.124.01.345.292.403.119a1.74 1.743 0 00-.488-.38 1.81 1.813 0 00-.975-.18.809.81 0 00-.112-.217c-.295-.41-.839-.516-1.315-.494-.471.013-.991.112-1.416-.155-.228-.13-.362-.423-.273-.672a5.403 5.416 0 014.062-1.788.171.172 0 00.165-.127l.272-1.038a.17.17 0 00-.162-.214c-.977-.01-1.857.154-2.616.49a1.164 1.167 0 01-1.18-.126 1.302 1.305 0 01-.406-.562 4.845 4.857 0 00-.218-.485c.42.595.92.92 1.492.965a.149.15 0 00.16-.16l-.01-.146.405.196a.15.15 0 00.171-.03 3.73 3.739 0 011.918-1.073.148.148 0 00.079-.248c-.519-.558-1.012-.922-1.518-1.11.33-.126.631-.321.898-.587a.149.15 0 00-.078-.252l-.154-.03.853-1.225a.149.15 0 00-.137-.233l-.234.026c.216-.51.278-1.088.193-1.76a.15.15 0 00-.085-.117zm-.19.343c.054.636-.044 1.175-.299 1.641a.149.15 0 00.146.22l.175-.02-.798 1.147a.15.15 0 00.096.23l.08.017a2.147 2.152 0 01-1.144.454.149.15 0 000 .297c.606.05 1.182.362 1.8.979a4.012 4.021 0 00-1.74 1.017l-.542-.262a.15.15 0 00-.212.145l.016.22c-.457-.093-.851-.41-1.2-.966a1.64 1.644 0 00-.082-.127.42.42 0 00-.367-.184l-.075-.178c.167-.194.337-.385.511-.573a2.26 2.26 0 01.549-.132c.202-.024.408-.027.615-.017a.064.064 0 00.013-.127 3.932 3.941 0 00-.641-.047 2.804 2.81 0 00-.248.015c.146-.154.295-.306.445-.456.113-.112.23-.22.34-.333a45.452 45.558 0 011.016-1.007.064.064 0 00-.084-.097 18.267 18.31 0 00-1.052.872l.052-.695a.042.042 0 00-.034-.045.042.042 0 00-.05.031l-.235.96-.132.133a24.764 24.821 0 00-.708.735.127.127 0 00-.036.039 24.381 24.438 0 00-.43.48 32.363 32.439 0 01-.789-2.14 2.676 2.683 0 00.223-.72 2.793 2.8 0 00.022-.773.042.042 0 00-.083.008 2.619 2.625 0 01-.228 1.072 1.718 1.722 0 01-.038.081l-.115-.378-.212-.692c-.07-.232-.135-.464-.202-.697l-.095-.35-.093-.351a.064.064 0 00-.125.027l.062.36.07.358.076.358.083.356.09.354c.03.118.062.236.096.352.07.234.147.465.222.697.102.312.21.622.321.93a2.785 2.791 0 01-1.155-.448.043.043 0 00-.053.067c.094.086.195.16.3.229a2.895 2.901 0 00.683.33c.106.036.215.063.324.088.118.315.241.63.367.942a25.081 25.14 0 00-1.641-.318l-.185-.03-.75-.64a.042.042 0 00-.06.06l.448.534c-.135-.014-.27-.025-.405-.037a17.534 17.575 0 00-.957-.052.064.064 0 00-.012.128 45.007 45.112 0 011.412.217c.156.03.313.049.469.072.242.038.483.08.723.126a2.851 2.858 0 00-.176.096 3.933 3.942 0 00-.522.375.064.064 0 00.077.102c.171-.117.35-.222.534-.307a2.2 2.2 0 01.54-.176c.162.033.324.07.486.106a.17.17 0 00-.051.17l.094.377c0 .065.008.116.01.168.04.655-.093 1.145-.408 1.488l-.116-.188a.15.15 0 00-.256.008l-.287.53a4.012 4.021 0 00-2.005.198c.14-.863.424-1.454.885-1.85a.149.15 0 00-.17-.243 2.177 2.182 0 01-1.194.304l.057-.06a.149.15 0 00-.058-.243l-1.318-.461.154-.087a.15.15 0 00-.01-.264c-.479-.228-.873-.606-1.202-1.154l.416-.116a.148.148 0 00.105-.176l-.045-.195.272.01a.15.15 0 00.145-.103l.138-.41c.926-.253 1.803-.158 2.607.283a.149.15 0 00.166-.245c-.53-.444-.868-.936-1.028-1.497l.1.029a.149.15 0 00.183-.183c-.246-.921-.228-1.69.055-2.343l.238.111a.149.15 0 00.211-.15c-.047-.47.015-.862.188-1.189.33.163.609.444.848.853a.15.15 0 00.257 0l.13-.23c.61.363 1.074.975 1.413 1.867a.149.15 0 00.256.04l.063-.082c.198.55.212 1.146.042 1.817a.149.15 0 00.278.1c.394-.829 1.049-1.42 1.947-1.76l.352.253a.149.15 0 00.178 0L21 2.819l.077.183a.15.15 0 00.19.082zm.435 6.465l-.184.699a5.733 5.733 0 00-4.224 1.945c-1.048 1.173-1.591 2.708-1.467 4.133-.154.036-.305-.114-.371-.191l.022-.655a.17.17 0 00-.3-.115l-.856 1.022c-.12.07-.217.094-.29.066-.078-.028-.15-.12-.212-.27 1.176-.802 1.861-1.782 2.039-2.912a.17.17 0 00-.256-.172l-1.121.675-.009-.34.64-.348a.17.17 0 00-.04-.315l-.928-.226-.233-.252a4.867 4.879 0 001.241.175 3.408 3.416 0 002.593-1.192c.1-.115.206-.228.315-.333a.41.412 0 00-.061-.642 1.276 1.279 0 01-.262-.24 1.43 1.433 0 01-.29-.573l-.17-.644c.043.092.085.188.125.29.113.29.29.533.51.705l.01.008a1.5 1.504 0 001.52.163c.656-.29 1.416-.444 2.255-.46zm-1.247 4.729a.567.569 0 01-.109.294c-.045.134-.282.2-.278.008.075-.15.235-.242.385-.3z" fill="#390176"/><use xlink:href="#a" transform="translate(-3.366 15.63) scale(.76887)"/><use xlink:href="#a" transform="translate(-4.044 12.978) scale(.7432)"/><use xlink:href="#a" transform="translate(.889 13.197) scale(.83736)"/><use xlink:href="#a" transform="translate(-2.443 3.418)"/><use xlink:href="#a" transform="translate(2.689 5.982)"/><g id="a" transform="matrix(.00878 .00387 .00386 -.0088 -4.676 25.926)"><circle cx="835.65" cy="2073.837" fill="#390176" r="247.5"/><circle cx="835.651" cy="2073.871" fill="#9b47fc" r="212.172"/><circle cx="717.685" cy="2037.096" fill="#af6cfd" r="35.745"/><path d="M691.942 2139.265c12.079-12.932 29.01-19.258 47.274-19.258 22.352 0 46.699 9.507 66.501 27.999 35.974 33.593 43.481 84.264 16.189 113.246-10.089 10.713-23.245 16.556-37.522 18.349-35.869-8.947-69.391-27.17-96.612-53.631-7.819-13.943-11.897-28.864-11.985-43.064-.102-16.419 5.154-31.863 16.155-43.641z" fill="#af6cfd"/><path d="M835.5 2285.954c-78.393.238-154.421-46.328-189.256-116.562-15.247-30.74-23.362-65.044-22.709-99.353 15.095 83.245 77.09 156.457 158.135 182.67 74.517 24.102 160.372 5.741 218.171-46.812 10.616-10.617 2.225-.221-2.723 5.576-39.668 46.937-100.162 74.294-161.618 74.481z" fill="#fff" fill-opacity=".6"/><path d="M907.296 1990.216c-68.253-47.419-162.445-53.444-235.314-13.479-12.318 6.756-24.107 14.435-35.035 23.265 26.978-74.946 99.542-129.66 178.837-137.171 79.447-7.525 160.393 33.22 201.648 101.538 41.186 68.202 40.367 159.113-3.857 225.384-3.613 5.545-6.92 11.422-11.6 16.102 12.132-82.149-26.483-168.26-94.679-215.639z" fill="#7d32d4"/></g><use xlink:href="#a" transform="matrix(1.00036 -.00012 -.00012 1.00059 2.715 2.037)"/><use xlink:href="#a" transform="matrix(.83485 0 0 .83486 -.736 8.375)"/><use xlink:href="#a" transform="matrix(1.00005 -.00012 -.00012 1.00026 5.704 6.69)"/><use xlink:href="#a" transform="matrix(.83485 0 0 .83486 3.632 11.245)"/><use xlink:href="#a" transform="matrix(.83484 0 0 .83485 -.75 12.078)"/><use xlink:href="#a" transform="translate(.425 7.734) scale(.99999)"/><use xlink:href="#a" transform="matrix(.83506 .0001 .0001 .83488 1.766 5.897)"/><use xlink:href="#a" transform="translate(-2.933 9.65) scale(.8346)"/><use xlink:href="#a" transform="matrix(.83484 0 0 .83486 -2.818 12.797)"/><use xlink:href="#a" transform="translate(-4.119 16.734) scale(.63191)"/></g><use xlink:href="#b" transform="translate(21.785 -.277)" width="100%" height="100%"/><use xlink:href="#b" transform="translate(41.627)" width="100%" height="100%"/><use xlink:href="#b" transform="translate(4.024 14.43)" width="100%" height="100%"/><use xlink:href="#b" transform="translate(27.057 17.621)" width="100%" height="100%"/><use xlink:href="#b" transform="translate(3.747 30.11)" width="100%" height="100%"/><use xlink:href="#b" transform="translate(40.377 29.555)" width="100%" height="100%"/><use xlink:href="#b" transform="translate(2.915 49.535)" width="100%" height="100%"/><use xlink:href="#b" transform="translate(22.2 38.019)" width="100%" height="100%"/><use xlink:href="#b" transform="translate(37.325 51.061)" width="100%" height="100%"/></svg>