<svg width="80" height="64" xmlns:xlink="http://www.w3.org/1999/xlink" xmlns="http://www.w3.org/2000/svg"><g id="b"><path d="M8.044 16.897l-.024-.692.84 1.005c.388.244.64.084.79-.386-1.146-.752-1.827-1.668-1.998-2.763 0 0 1.295.778 1.322.798l.012-.714-.704-.38.94-.23.68-.737c-.576.214-1.155.348-1.736.35a3.126 3.134 0 01-2.371-1.088 5.285 5.285 0 00-.312-.332.234.235 0 01.033-.364 1.387 1.39 0 00.287-.263 1.552 1.556 0 00.312-.615l.414-1.578c-.295.317-.511.705-.68 1.137-.093.237-.24.453-.44.609l-.008.008a1.282 1.285 0 01-1.296.137c-.708-.313-1.523-.467-2.45-.457l.262.999c3.427-.017 5.74 3.078 5.429 5.785.357.255.697-.227.697-.227" fill="#ef771d"/><path d="M9.122 13.39c.03-.07.144-.188.134-.219-.71.176-1.478.21-2.175-.042a3.369 3.369 0 01-1.496-1.06c-.063-.046-.162-.222-.207-.171-.045.173.13.27.225.383.225.258.46.513.748.705a3.147 3.155 0 002.112.538c.227-.01.44-.086.659-.134zm-4.008-2.192c.304-.131.54-.396.67-.697a1.414 1.418 0 01-1.336.56c-.314-.036-.586-.212-.887-.295a5.946 5.96 0 00-1.694-.262l.06.23c.755.021 1.512.168 2.202.481a1.302 1.305 0 00.984-.017z" fill="#f8c299"/><path d="M1.966 5.875l.948 1.364-.367.067a2.247 2.252 0 001.403.668c-.776.065-1.412.537-1.995 1.165a3.71 3.72 0 011.92 1.073l.613-.296-.028.388c.576-.046 1.047-.41 1.432-1.021a1.512 1.516 0 01.073-.116.269.27 0 01.49.159c0 .043 0 .088-.009.136-.046.723.123 1.294.564 1.67l.204-.331.324.6a3.711 3.72 0 012.183.256c-.105-.85-.344-1.606-.936-2.115a2.248 2.254 0 001.528.283l-.26-.271 1.567-.547-.423-.24c.504-.24.948-.66 1.312-1.33l-.577-.16.085-.368-.448.014-.157-.467c-.951-.278-1.848-.196-2.688.264.558-.468.954-1.033 1.093-1.753l-.33.092c.245-.919.24-1.757-.122-2.481l-.358.166c.05-.502-.02-.957-.265-1.342-.424.169-.745.497-.999.931L7.55 1.99c-.717.373-1.21 1.05-1.549 1.939l-.213-.268c-.31.665-.318 1.355-.14 2.063-.411-.867-1.09-1.46-2.023-1.793l-.401.287-.354-.275-.147.35-.561-.21c-.096.755.018 1.357.286 1.847l-.482-.054" fill="#6cc900"/><path d="M5.958 9.137c-.279.464-.654.923-1.19 1.085-.074-.008-.318.142-.278-.012 0-.103.044-.277 0-.323l-.613.297a3.762 3.771 0 00-1.88-1.059 5.578 5.592 0 01.505-.479 3.783 3.792 0 011.291.876l.635-.306-.03.401c.548-.048.997-.43 1.296-.87.108-.134.164-.352.363-.378a.296.297 0 01.334.327c-.027.113.013.353-.037.388-.064-.084-.33-.07-.4.054zm5.986-1.7c.033.008.113-.021.115.012l-.082.353.234.065a2.69 2.69 0 01-1.065.898l.283.16-.283-.16.416.236-1.55.543.252.264a2.266 2.271 0 01-.968-.068 2.322 2.328 0 00-.61-.842c.072-.083.205.097.306.103a2.242 2.248 0 001.189.145l-.253-.263 1.551-.543-.416-.236a2.557 2.563 0 00.88-.667zM8.87 9.008zm3.341-1.141zm-2.2 1.677L11.564 9zm-3.549.141a1.533 1.537 0 00.459.749l.211-.342.335.62a3.764 3.773 0 012.096.227c.024.099.056.228.077.348.01.1.064.264.037.326a3.766 3.775 0 00-2.127-.24l-.336-.62c-.077.099-.14.285-.226.328-.388-.348-.53-.89-.526-1.395zm.01.177c.018.064.144.3.058.133a1.622 1.622 0 01-.058-.133zm1.158 1.5c.066-.014.341-.04.148-.021l-.149.02z" fill="#5d8d24"/><path d="M2.182 4.115l.555.207.143-.342.344.266.404-.29c.898.325 1.558.897 1.964 1.703a3.826 3.835 0 00.103.588c-.412-.866-1.092-1.46-2.024-1.792l-.402.286-.353-.274-.147.349-.56-.21a4.045 4.045 0 00-.033.395 3.462 3.47 0 01.009-.886zm6.51-2.666a1.538 1.542 0 01.04-.018c.172.277.26.6.266.978a1.684 1.684 0 00-.21-.483l-.056.023c-.396.174-.7.492-.942.908l-.194-.344c-.717.373-1.211 1.05-1.549 1.939l-.213-.268a2.7 2.707 0 00-.254 1.048 2.78 2.78 0 01.213-1.528l.216.27A4.265 4.275 0 017.54 2.02l.202.36c.179-.354.527-.74.948-.931zm.8 4.985c.604-.164 1.24-.15 1.902.041l.158.472.435-.014-.084.36.13.037-.089.107-.33.01-.156-.467c-.844-.246-1.647-.21-2.404.123a3.66 3.66 0 00-.284.14 3.42 3.428 0 00.721-.81z" fill="#bde78c"/><path d="M2.102 3.95a.144.144 0 01.11 0l.432.161.094-.222a.143.144 0 01.22-.057l.269.21.314-.225a.144.144 0 01.132-.02c.722.26 1.298.672 1.72 1.23a2.892 2.898 0 01.265-1.424.142.143 0 01.24-.029l.062.077c.368-.859.868-1.444 1.524-1.787a.142.143 0 01.19.057l.077.137c.262-.382.57-.64.939-.786a.143.144 0 01.172.056c.214.334.313.725.302 1.188l.14-.065a.143.144 0 01.19.065c.33.663.394 1.431.191 2.342l.094-.026a.143.144 0 01.178.166 2.897 2.897 0 01-.618 1.31c.669-.206 1.376-.201 2.113.014a.143.144 0 01.096.092l.123.365.342-.01a.142.143 0 01.144.176l-.055.234.444.124a.144.144 0 01.089.206c-.312.573-.688.99-1.142 1.264l.197.113a.143.144 0 01-.024.26l-1.354.473.103.11a.142.143 0 01-.08.24 2.45 2.455 0 01-1.032-.05c.289.433.47.995.56 1.724a.143.144 0 01-.2.149 3.592 3.6 0 00-2.1-.247.143.144 0 01-.15-.073l-.207-.382-.075.12a.144.144 0 01-.214.034c-.292-.248-.482-.585-.568-1l-.076.287a1.69 1.69 0 01-.667.973.068.068 0 00-.032.052.07.07 0 00.021.057 5.316 5.329 0 01.323.342 2.954 2.961 0 002.247 1.033c.52 0 1.07-.113 1.68-.34a.163.164 0 01.177.265l-.68.736a.162.162 0 01-.081.048l-.528.128.33.18a.164.164 0 01.086.147l-.011.713a.164.164 0 01-.256.132c-.044-.028-.539-.327-.99-.598.243.875.864 1.645 1.848 2.291a.164.164 0 01.065.187c-.096.303-.232.49-.43.577-.19.07-.386.033-.62-.119l-.556-.657.008.217a.164.164 0 01-.03.1c-.012.015-.108.147-.257.25-.228.155-.466.16-.669.015a.166.166 0 01-.068-.152c.137-1.194-.258-2.489-1.066-3.535a.784.784 0 01-.135.296c-.297.398-.832.493-1.298.466-.444-.018-.932-.099-1.33.154a.573.574 0 00-.237.27 1.59 1.594 0 01.072.022c.233.089.474.255.546.505.07.296-.273.581-.549.447-.267-.144-.408-.443-.406-.741-.328-.047-.672 0-.972.14-.12.009-.332.28-.388.114a1.674 1.678 0 01.47-.365 1.741 1.745 0 01.938-.174.778.78 0 01.108-.209c.284-.394.807-.496 1.265-.475.453.012.954.108 1.363-.15.22-.124.348-.407.262-.646a5.2 5.213 0 00-3.909-1.72.165.165 0 01-.159-.124l-.261-.999a.163.164 0 01.156-.205c.94-.01 1.787.148 2.517.47a1.12 1.123 0 001.136-.12 1.253 1.256 0 00.39-.54 4.663 4.675 0 01.21-.467c-.403.573-.885.885-1.435.929a.143.144 0 01-.154-.154l.01-.141-.39.189a.144.144 0 01-.165-.03 3.59 3.599 0 00-1.846-1.032.142.143 0 01-.076-.239c.5-.537.974-.887 1.461-1.069a2.44 2.44 0 01-.864-.564.143.144 0 01.074-.243l.149-.028-.821-1.18a.143.144 0 01.132-.224l.225.025c-.208-.49-.268-1.047-.186-1.694a.144.144 0 01.082-.112zm.182.33c-.051.613.044 1.132.288 1.58a.143.144 0 01-.14.211l-.168-.018.768 1.103a.144.144 0 01-.092.223l-.078.015a2.066 2.07 0 001.102.438.143.144 0 010 .285c-.584.048-1.138.349-1.732.942a3.861 3.87 0 011.674.98l.521-.252a.144.144 0 01.205.14l-.016.21c.44-.089.82-.394 1.156-.929a1.578 1.582 0 01.078-.123.404.405 0 01.353-.176l.072-.172a21.35 21.35 0 00-.492-.551 2.179 2.179 0 00-.528-.127 3.53 3.53 0 00-.592-.017.062.062 0 01-.012-.122 3.784 3.793 0 01.617-.045 2.698 2.705 0 01.239.015 22.799 22.799 0 00-.43-.44c-.108-.108-.22-.21-.326-.32a43.745 43.848 0 00-.978-.969.062.062 0 01.08-.094 17.58 17.623 0 011.013.84l-.05-.67a.04.04 0 01.033-.043.04.04 0 01.048.03l.226.923.127.13a23.833 23.89 0 01.681.706.122.123 0 01.035.038 23.465 23.521 0 01.414.463 31.148 31.222 0 00.76-2.061 2.576 2.582 0 01-.215-.692 2.688 2.695 0 01-.022-.745.04.04 0 01.08.008 2.52 2.526 0 00.22 1.032 1.653 1.657 0 00.036.078l.11-.364.205-.666c.067-.223.13-.447.194-.67l.092-.337.09-.339a.062.062 0 01.12.026l-.06.346-.068.345-.072.345-.08.343-.086.34c-.03.114-.06.227-.094.34-.067.224-.14.447-.213.67-.098.3-.201.599-.31.896a2.68 2.687 0 001.113-.432.041.041 0 01.051.064 2.217 2.217 0 01-.29.22 2.786 2.793 0 01-.656.318 3.039 3.039 0 01-.312.086 44.85 44.85 0 01-.353.905 24.14 24.197 0 011.58-.306l.177-.029.721-.616a.04.04 0 01.058.058l-.43.514c.13-.013.26-.024.39-.035a16.875 16.915 0 01.92-.05.062.062 0 01.012.123 43.316 43.419 0 00-1.359.209c-.15.028-.301.047-.451.07a20.22 20.22 0 00-.696.12 2.744 2.75 0 01.17.093 3.785 3.794 0 01.502.361.062.062 0 01-.075.098 3.627 3.627 0 00-.513-.296 2.131 2.131 0 00-.52-.17c-.156.033-.312.068-.468.104a.163.164 0 01.05.163l-.091.363c0 .062-.008.112-.01.161-.039.631.09 1.102.393 1.432l.112-.18a.144.144 0 01.246.007l.276.51a3.861 3.87 0 011.93.19c-.135-.83-.408-1.398-.853-1.78a.143.144 0 01.165-.233 2.095 2.1 0 001.148.292l-.054-.057a.143.144 0 01.056-.234l1.268-.444-.148-.084a.144.144 0 01.01-.254c.46-.22.84-.584 1.157-1.11l-.4-.112a.142.143 0 01-.101-.17l.043-.188-.262.01a.144.144 0 01-.14-.099l-.132-.395c-.892-.243-1.735-.152-2.51.272a.143.144 0 01-.16-.235c.51-.427.836-.9.99-1.44l-.096.027a.143.144 0 01-.177-.176c.237-.887.22-1.626-.052-2.255l-.23.107a.143.144 0 01-.203-.144c.045-.454-.014-.83-.18-1.145-.318.157-.586.427-.816.82a.144.144 0 01-.248 0l-.124-.22c-.588.348-1.035.938-1.361 1.796a.143.144 0 01-.246.039l-.061-.079c-.19.529-.204 1.103-.04 1.749a.143.144 0 01-.267.096c-.38-.797-1.01-1.367-1.874-1.694l-.34.243a.143.144 0 01-.17 0l-.207-.16-.074.177a.144.144 0 01-.182.079zm-.417 6.224l.176.672a5.518 5.518 0 014.066 1.872c1.008 1.129 1.531 2.606 1.411 3.978.149.035.294-.11.358-.184l-.021-.63a.164.164 0 01.288-.111l.824.984c.115.068.209.09.28.063.074-.027.143-.116.203-.26-1.131-.772-1.791-1.715-1.962-2.802a.163.164 0 01.246-.166l1.08.65.008-.328-.617-.334a.163.164 0 01.039-.303l.894-.218.224-.243a4.684 4.696 0 01-1.195.168 3.28 3.288 0 01-2.496-1.147 5.267 5.267 0 00-.302-.32.395.396 0 01.059-.618 1.228 1.23 0 00.252-.231 1.376 1.38 0 00.28-.551l.161-.62c-.04.088-.08.18-.12.279a1.572 1.572 0 01-.49.678l-.01.008a1.444 1.448 0 01-1.462.157c-.632-.28-1.363-.428-2.17-.442zm1.2 4.55a.546.547 0 00.104.283c.043.13.272.193.268.008-.072-.144-.226-.233-.371-.288z" fill="#390176"/><use xlink:href="#a" transform="translate(8.588 15.383) scale(.76887)"/><use xlink:href="#a" transform="translate(9.834 12.867) scale(.7432)"/><use xlink:href="#a" transform="translate(2.908 12.94) scale(.83736)"/><use xlink:href="#a" transform="translate(2.352 3.29)"/><use xlink:href="#a" transform="translate(-2.588 5.758)"/><g id="a" transform="matrix(-.00845 .00372 -.00371 -.00847 27.641 26.418)"><circle cx="835.65" cy="2073.837" fill="#390176" r="247.5"/><circle cx="835.651" cy="2073.871" fill="#9b47fc" r="212.172"/><circle cx="717.685" cy="2037.096" fill="#af6cfd" r="35.745"/><path d="M691.942 2139.265c12.079-12.932 29.01-19.258 47.274-19.258 22.352 0 46.699 9.507 66.501 27.999 35.974 33.593 43.481 84.264 16.189 113.246-10.089 10.713-23.245 16.556-37.522 18.349-35.869-8.947-69.391-27.17-96.612-53.631-7.819-13.943-11.897-28.864-11.985-43.064-.102-16.419 5.154-31.863 16.155-43.641z" fill="#af6cfd"/><path d="M835.5 2285.954c-78.393.238-154.421-46.328-189.256-116.562-15.247-30.74-23.362-65.044-22.709-99.353 15.095 83.245 77.09 156.457 158.135 182.67 74.517 24.102 160.372 5.741 218.171-46.812 10.616-10.617 2.225-.221-2.723 5.576-39.668 46.937-100.162 74.294-161.618 74.481z" fill="#fff" fill-opacity=".6"/><path d="M907.296 1990.216c-68.253-47.419-162.445-53.444-235.314-13.479-12.318 6.756-24.107 14.435-35.035 23.265 26.978-74.946 99.542-129.66 178.837-137.171 79.447-7.525 160.393 33.22 201.648 101.538 41.186 68.202 40.367 159.113-3.857 225.384-3.613 5.545-6.92 11.422-11.6 16.102 12.132-82.149-26.483-168.26-94.679-215.639z" fill="#7d32d4"/></g><use xlink:href="#a" transform="matrix(1.00036 .00012 .00012 1.00059 -2.621 1.957)"/><use xlink:href="#a" transform="matrix(.83485 0 0 .83486 4.53 8.303)"/><use xlink:href="#a" transform="matrix(1.00005 .00012 .00012 1.00026 -5.491 6.435)"/><use xlink:href="#a" transform="matrix(.83485 0 0 .83486 .326 11.064)"/><use xlink:href="#a" transform="matrix(.83484 0 0 .83485 4.543 11.867)"/><use xlink:href="#a" transform="translate(-.409 7.444) scale(.99999)"/><use xlink:href="#a" transform="matrix(.83506 -.0001 -.0001 .83488 2.117 5.92)"/><use xlink:href="#a" transform="translate(6.65 9.53) scale(.8346)"/><use xlink:href="#a" transform="matrix(.83484 0 0 .83486 6.534 12.559)"/><use xlink:href="#a" transform="translate(12.482 16.645) scale(.63191)"/></g><use xlink:href="#b" transform="translate(20.675 5.55)"/><use xlink:href="#b" transform="translate(37.603)"/><use xlink:href="#b" transform="translate(57.444 8.88)"/><use xlink:href="#b" transform="translate(0 17.344)"/><use xlink:href="#b" transform="translate(1.943 37.741)"/><use xlink:href="#b" transform="translate(14.985 29.139)"/><use xlink:href="#b" transform="translate(41.764 15.68)"/><use xlink:href="#b" transform="translate(34.272 33.579)"/><use xlink:href="#b" transform="translate(56.056 35.52)"/></svg>