<svg width="37" height="45" xmlns:xlink="http://www.w3.org/1999/xlink" xmlns="http://www.w3.org/2000/svg"><path d="M24.95 27.185l.04-1.15-1.4 1.671c-.647.405-1.067.139-1.316-.643 1.91-1.25 3.044-2.773 3.33-4.593 0 0-2.158 1.293-2.203 1.327l-.02-1.187 1.173-.633-1.567-.383-1.134-1.224c.96.356 1.925.579 2.894.583a5.21 5.21 0 003.952-1.811c.167-.193.34-.377.52-.552a.39.39 0 00-.056-.605 2.312 2.312 0 01-.478-.436 2.587 2.587 0 01-.52-1.023l-.69-2.624c.492.527.852 1.172 1.132 1.89.156.395.4.753.735 1.013l.013.013a2.137 2.137 0 002.16.228c1.18-.52 2.538-.777 4.083-.76l-.436 1.661c-5.712-.028-9.567 5.118-9.048 9.618-.595.424-1.163-.376-1.163-.376" fill="#ef771d"/><path d="M23.154 21.354c-.05-.116-.24-.313-.224-.364 1.184.293 2.463.35 3.625-.07.978-.334 1.84-.966 2.494-1.762.104-.076.27-.37.344-.285.076.288-.216.45-.374.637-.376.43-.768.853-1.248 1.173a5.245 5.245 0 01-3.52.894c-.377-.018-.733-.143-1.097-.223zm6.68-3.644c-.508-.219-.9-.659-1.117-1.16a2.357 2.357 0 002.226.933c.523-.061.976-.353 1.478-.492a9.91 9.91 0 012.824-.436l-.1.383c-1.259.035-2.52.279-3.67.8a2.17 2.17 0 01-1.64-.028z" fill="#f8c299"/><path d="M35.08 8.86l-1.58 2.267.611.111a3.745 3.745 0 01-2.338 1.112c1.293.107 2.354.892 3.325 1.936a6.184 6.184 0 00-3.2 1.785l-1.021-.493.046.645c-.96-.076-1.745-.68-2.386-1.698a2.52 2.52 0 00-.122-.192.448.448 0 00-.816.264c0 .072 0 .146.014.226.077 1.203-.204 2.151-.939 2.776l-.34-.55-.54.997a6.185 6.185 0 00-3.639.427c.175-1.414.574-2.671 1.56-3.516a3.747 3.747 0 01-2.546.469l.432-.45-2.61-.91.704-.399c-.84-.397-1.58-1.098-2.186-2.209l.962-.267-.142-.613.746.024.262-.776c1.585-.463 3.08-.327 4.48.439-.93-.779-1.59-1.718-1.822-2.915l.55.152c-.408-1.527-.4-2.921.204-4.125l.597.276c-.083-.834.033-1.59.44-2.23.707.28 1.243.826 1.665 1.548l.322-.573c1.196.621 2.018 1.747 2.582 3.224l.355-.445c.516 1.105.53 2.253.232 3.429.687-1.44 1.819-2.427 3.373-2.98l.668.476.59-.456.245.58.935-.347c.16 1.254-.03 2.256-.476 3.071l.802-.09" fill="#6cc900"/><path d="M28.427 14.283c.464.772 1.09 1.534 1.983 1.804.123-.013.53.236.463-.02 0-.172-.074-.46 0-.537l1.022.493a6.27 6.27 0 013.132-1.76 9.297 9.297 0 00-.84-.796 6.305 6.305 0 00-2.153 1.456l-1.057-.509.05.667c-.913-.079-1.662-.716-2.16-1.446-.18-.224-.273-.586-.605-.629a.493.493 0 00-.557.544c.045.188-.022.587.062.644.107-.139.55-.117.666.09zm-9.976-2.826c-.056.013-.189-.036-.193.02l.137.586-.39.108c.456.635 1.061 1.174 1.776 1.494l-.472.266.472-.266-.694.392 2.584.902-.42.439a3.776 3.776 0 001.612-.112 3.87 3.87 0 011.016-1.4c-.118-.139-.34.16-.509.17a3.737 3.737 0 01-1.981.242l.421-.437-2.585-.903.694-.393a4.262 4.262 0 01-1.468-1.108zm5.122 2.612zm-5.568-1.898zm3.666 2.788l-2.585-.902zm5.915.235a2.555 2.555 0 01-.764 1.245l-.352-.569-.559 1.033a6.273 6.273 0 00-3.493.376c-.04.164-.093.379-.128.578-.016.166-.107.44-.061.542a6.277 6.277 0 013.544-.397l.56-1.032c.128.164.234.473.377.545.647-.578.884-1.48.876-2.32zm-.016.295c-.03.105-.24.497-.097.221.036-.072.068-.147.097-.221zm-1.93 2.493c-.11-.023-.569-.067-.247-.035l.248.034z" fill="#5d8d24"/><path d="M34.72 5.933l-.925.344-.238-.568-.574.442-.673-.481c-1.497.539-2.597 1.49-3.273 2.83a6.376 6.376 0 01-.172.978c.686-1.44 1.82-2.427 3.373-2.98l.67.476.589-.456.244.58.934-.347c.03.227.047.446.054.656a5.769 5.769 0 00-.014-1.474zM23.87 1.5a2.564 2.564 0 00-.067-.03c-.286.462-.433.998-.442 1.626.074-.284.19-.552.35-.803l.092.039c.66.29 1.168.818 1.571 1.51l.323-.573c1.194.621 2.018 1.747 2.581 3.224l.356-.445a4.5 4.5 0 01.423 1.742c.114-.921 0-1.758-.355-2.54l-.36.45a7.108 7.108 0 00-2.553-3.25l-.338.6c-.297-.59-.878-1.232-1.58-1.55zm-1.333 8.288c-1.006-.272-2.067-.25-3.17.069l-.264.785-.724-.024.14.6-.217.06c.05.062.099.12.148.178l.55.017.26-.776c1.407-.41 2.745-.35 4.007.204.16.07.318.148.474.233a5.7 5.7 0 01-1.203-1.346z" fill="#bde78c"/><path d="M34.853 5.66a.24.24 0 00-.183 0l-.721.267-.156-.369a.239.239 0 00-.366-.096l-.449.35-.524-.374a.24.24 0 00-.219-.032c-1.204.43-2.164 1.115-2.866 2.044a4.819 4.819 0 00-.443-2.368.237.237 0 00-.401-.048l-.102.127c-.613-1.427-1.446-2.4-2.54-2.97a.237.237 0 00-.317.095l-.128.227c-.437-.635-.95-1.064-1.564-1.307a.239.239 0 00-.288.093c-.355.556-.52 1.206-.503 1.975l-.234-.108a.239.239 0 00-.314.108c-.553 1.103-.658 2.38-.32 3.895l-.156-.043a.239.239 0 00-.297.275c.153.8.493 1.52 1.03 2.177-1.115-.341-2.294-.333-3.522.024a.239.239 0 00-.16.153l-.204.608-.57-.018a.237.237 0 00-.24.293l.091.39-.74.206a.24.24 0 00-.148.343c.52.952 1.147 1.644 1.903 2.101l-.328.187a.239.239 0 00.039.432l2.258.788-.173.181a.237.237 0 00.133.4 4.082 4.082 0 001.72-.083c-.48.72-.782 1.655-.933 2.867a.239.239 0 00.333.247 5.987 5.987 0 013.502-.411.239.239 0 00.25-.12l.344-.636.124.2a.24.24 0 00.358.056c.486-.413.802-.972.946-1.664l.126.479c.113.433.306.813.577 1.13.172.203.352.367.536.487a.113.113 0 01.052.087.116.116 0 01-.035.094 8.86 8.86 0 00-.538.57 4.923 4.923 0 01-3.744 1.716c-.867 0-1.784-.187-2.802-.564a.272.272 0 00-.294.44l1.133 1.224a.27.27 0 00.136.08l.88.213-.55.299a.273.273 0 00-.143.244l.018 1.185a.273.273 0 00.427.22c.072-.047.897-.543 1.65-.995-.406 1.456-1.44 2.736-3.08 3.81a.273.273 0 00-.109.31c.16.504.387.816.716.96.316.116.644.055 1.035-.197l.925-1.093-.013.36a.273.273 0 00.05.166c.02.026.18.246.429.415.38.259.776.267 1.114.027a.276.276 0 00.114-.254c-.228-1.984.43-4.137 1.777-5.877.04.179.117.348.225.493.494.662 1.387.819 2.163.774.74-.03 1.553-.164 2.216.256a.955.955 0 01.395.45 2.65 2.65 0 00-.12.036c-.388.147-.79.423-.91.84-.116.492.455.966.915.743.445-.24.68-.737.677-1.233.547-.078 1.12 0 1.62.233.2.015.554.467.647.19a2.79 2.79 0 00-.783-.607 2.902 2.902 0 00-1.564-.29 1.297 1.297 0 00-.18-.346c-.473-.656-1.345-.826-2.108-.79-.756.02-1.59.179-2.272-.249-.365-.207-.58-.677-.437-1.075a8.667 8.667 0 016.515-2.861.275.275 0 00.265-.204l.436-1.661a.272.272 0 00-.26-.342c-1.567-.017-2.979.247-4.196.783a1.867 1.867 0 01-1.892-.2 2.088 2.088 0 01-.652-.9 7.772 7.772 0 00-.35-.775c.673.952 1.477 1.471 2.393 1.544a.239.239 0 00.257-.256l-.017-.234.65.314a.24.24 0 00.275-.049 5.983 5.983 0 013.077-1.717.237.237 0 00.126-.396c-.832-.894-1.624-1.476-2.435-1.778.53-.2 1.013-.513 1.44-.938a.239.239 0 00-.124-.404l-.247-.046 1.368-1.961a.239.239 0 00-.22-.373l-.376.041c.347-.815.447-1.741.31-2.816a.24.24 0 00-.136-.187zm-.304.549c.086 1.018-.072 1.88-.48 2.626a.239.239 0 00.234.351l.28-.03-1.28 1.834a.24.24 0 00.154.37l.13.025a3.443 3.443 0 01-1.837.728.239.239 0 000 .474c.973.08 1.897.58 2.887 1.567a6.435 6.435 0 00-2.79 1.628l-.869-.419a.24.24 0 00-.341.232l.026.352c-.733-.149-1.365-.657-1.926-1.546a2.63 2.63 0 00-.13-.204.673.673 0 00-.589-.294l-.12-.285c.268-.31.541-.616.82-.917.276-.107.573-.174.88-.211.324-.039.655-.044.987-.028a.103.103 0 00.02-.203 6.307 6.307 0 00-1.028-.074 4.497 4.497 0 00-.398.024c.235-.247.474-.491.715-.731.181-.179.368-.35.544-.533a72.904 72.904 0 011.63-1.61.103.103 0 00-.134-.156 29.3 29.3 0 00-1.688 1.396l.083-1.113a.067.067 0 00-.054-.072.068.068 0 00-.08.05l-.377 1.535-.212.214a39.72 39.72 0 00-1.135 1.176.204.204 0 00-.058.062 39.107 39.107 0 00-.69.77 51.91 51.91 0 01-1.265-3.427 4.293 4.293 0 00.357-1.15 4.48 4.48 0 00.036-1.238.068.068 0 00-.134.013 4.2 4.2 0 01-.366 1.715 2.755 2.755 0 01-.06.13l-.184-.605-.34-1.108c-.112-.37-.218-.742-.324-1.114l-.153-.56-.15-.563v-.001a.103.103 0 00-.2.044l.1.576.113.573.121.573.133.57.143.566c.05.19.1.378.156.564.112.374.235.744.356 1.115.163.499.335.996.515 1.49a4.467 4.467 0 01-1.854-.718.068.068 0 00-.085.107c.152.138.313.256.483.366a4.643 4.643 0 001.094.527c.171.059.346.103.52.143.19.504.387 1.006.588 1.506a40.23 40.23 0 00-2.632-.509l-.296-.048-1.202-1.024a.068.068 0 00-.096.096l.717.855c-.216-.022-.433-.04-.65-.059a28.124 28.124 0 00-1.535-.083.103.103 0 00-.018.204 72.19 72.19 0 012.264.348c.25.047.502.078.752.115.388.061.775.128 1.16.201a4.573 4.573 0 00-.282.155 6.308 6.308 0 00-.838.6.103.103 0 00.124.163c.275-.187.56-.355.856-.492.28-.13.574-.23.867-.282.26.054.52.112.78.171a.272.272 0 00-.083.272l.151.603c0 .104.013.186.015.268.066 1.049-.148 1.832-.654 2.381l-.186-.3a.24.24 0 00-.41.013l-.46.848a6.435 6.435 0 00-3.216.316c.224-1.38.68-2.326 1.42-2.961a.239.239 0 00-.274-.387 3.492 3.492 0 01-1.914.486l.091-.095a.239.239 0 00-.093-.39l-2.114-.738.247-.139a.24.24 0 00-.016-.422c-.768-.366-1.4-.971-1.928-1.847l.667-.185a.237.237 0 00.168-.283l-.072-.312.436.015a.24.24 0 00.234-.163l.22-.657c1.486-.404 2.892-.252 4.182.453a.239.239 0 00.266-.392c-.849-.71-1.392-1.497-1.649-2.395l.16.046a.239.239 0 00.295-.292c-.395-1.475-.367-2.704.088-3.75l.382.178a.239.239 0 00.338-.24c-.075-.754.024-1.379.301-1.903.53.261.977.71 1.36 1.365a.24.24 0 00.413 0l.207-.368c.98.58 1.724 1.56 2.268 2.987a.239.239 0 00.41.064l.102-.13c.317.878.339 1.833.067 2.907a.239.239 0 00.445.16c.632-1.326 1.683-2.273 3.123-2.816l.565.404a.239.239 0 00.285 0l.344-.266.124.293a.24.24 0 00.303.132zm.696 10.346l-.294 1.118c-2.613.044-5.012 1.144-6.776 3.113-1.68 1.876-2.552 4.333-2.352 6.613-.248.058-.49-.182-.596-.306l.035-1.048a.273.273 0 00-.48-.184l-1.373 1.636c-.192.113-.348.15-.466.106-.125-.045-.24-.193-.34-.432 1.886-1.284 2.986-2.852 3.27-4.66a.272.272 0 00-.41-.276l-1.798 1.08-.014-.544 1.027-.556a.272.272 0 00-.064-.504l-1.49-.362-.373-.404a7.807 7.807 0 001.991.28 5.467 5.467 0 004.159-1.907c.16-.184.33-.364.504-.533a.659.659 0 00-.098-1.027 2.046 2.046 0 01-.42-.385 2.293 2.293 0 01-.466-.916l-.27-1.031c.068.147.135.301.2.464.18.463.463.853.818 1.128l.016.013a2.407 2.407 0 002.436.262c1.054-.466 2.272-.712 3.618-.736zm-2 7.567a.91.91 0 01-.174.47c-.072.215-.453.32-.446.013.12-.24.376-.387.618-.48z" fill="#390176"/><use xlink:href="#a" transform="translate(-5.447 25.366) scale(.76887)"/><use xlink:href="#a" transform="translate(-6.54 21.16) scale(.7432)"/><use xlink:href="#a" transform="translate(1.391 21.366) scale(.83736)"/><use xlink:href="#a" transform="translate(-3.919 5.47)"/><use xlink:href="#a" transform="translate(4.313 9.573)"/><g id="a" transform="matrix(.01409 .00619 .00619 -.01409 -7.71 43.015)"><circle cx="835.65" cy="2073.837" fill="#390176" r="247.5"/><circle cx="835.651" cy="2073.871" fill="#9b47fc" r="212.172"/><circle cx="717.685" cy="2037.096" fill="#af6cfd" r="35.745"/><path d="M691.942 2139.265c12.079-12.932 29.01-19.258 47.274-19.258 22.352 0 46.699 9.507 66.501 27.999 35.974 33.593 43.481 84.264 16.189 113.246-10.089 10.713-23.245 16.556-37.522 18.349-35.869-8.947-69.391-27.17-96.612-53.631-7.819-13.943-11.897-28.864-11.985-43.064-.102-16.419 5.154-31.863 16.155-43.641z" fill="#af6cfd"/><path d="M835.5 2285.954c-78.393.238-154.421-46.328-189.256-116.562-15.247-30.74-23.362-65.044-22.709-99.353 15.095 83.245 77.09 156.457 158.135 182.67 74.517 24.102 160.372 5.741 218.171-46.812 10.616-10.617 2.225-.221-2.723 5.576-39.668 46.937-100.162 74.294-161.618 74.481z" fill="#fff" fill-opacity=".6"/><path d="M907.296 1990.216c-68.253-47.419-162.445-53.444-235.314-13.479-12.318 6.756-24.107 14.435-35.035 23.265 26.978-74.946 99.542-129.66 178.837-137.171 79.447-7.525 160.393 33.22 201.648 101.538 41.186 68.202 40.367 159.113-3.857 225.384-3.613 5.545-6.92 11.422-11.6 16.102 12.132-82.149-26.483-168.26-94.679-215.639z" fill="#7d32d4"/></g><use xlink:href="#a" transform="matrix(1.00036 -.00012 -.00012 1.00059 4.355 3.259)"/><use xlink:href="#a" transform="matrix(.83485 0 0 .83486 -1.215 13.654)"/><use xlink:href="#a" transform="matrix(1.00005 -.00012 -.00012 1.00026 9.15 10.704)"/><use xlink:href="#a" transform="matrix(.83485 0 0 .83486 5.791 18.246)"/><use xlink:href="#a" transform="matrix(.83484 0 0 .83485 -1.237 19.58)"/><use xlink:href="#a" transform="translate(.682 12.376) scale(.99999)"/><use xlink:href="#a" transform="matrix(.83506 .0001 .0001 .83488 2.798 9.689)"/><use xlink:href="#a" transform="translate(-4.739 15.695) scale(.8346)"/><use xlink:href="#a" transform="matrix(.83484 0 0 .83486 -4.555 20.731)"/><use xlink:href="#a" transform="translate(-6.684 27.34) scale(.63191)"/></svg>