<svg height="518" width="975" xmlns:xlink="http://www.w3.org/1999/xlink" xmlns="http://www.w3.org/2000/svg"><path d="M807.121 432.69h25.214V112.633h-25.214zm90.085 0h25.213V112.633h-25.213zm-849.899 0H72.52V112.633H47.307zm90.087 0h25.213V112.633h-25.213z" fill="#7b2e22"/><path d="M10 506.111h955v-226H10z" fill="#6f6a5d"/><path d="M778 410.649h187V273.318H778z" fill="#c28933"/><path d="M783.5 405.52h176v-125h-176z" fill="#594519"/><path d="M965 410.649H778v-7.167h187v7.167" fill="#c28933"/><path d="M778 410.649v72.47h187v-72.47c-64.945-.122-131.281-.003-187 0z" fill="#e5c560"/><path d="M586 410.649h187V273.318H586z" fill="#c28933"/><path d="M591.5 405.52h176v-125h-176z" fill="#594519"/><path d="M10 410.649h187V273.318H10z" fill="#c28933"/><path d="M15.5 405.52h176v-125h-176z" fill="#594519"/><use xlink:href="#a" transform="rotate(87.693 52.672 395.005)"/><use xlink:href="#a" transform="rotate(42.815 100.992 347.254)"/><g id="a" stroke-width=".133"><path d="M197.341 670.252l5.528-26.604s-7.86 4.739-9.596 13.21c-1.648 8.065 4.068 13.394 4.068 13.394" fill="#aedc4b" transform="translate(-177 -349.886)"/><path d="M197.341 670.252l5.528-26.604c.13.2.448.713.848 1.473 1.407 2.678 3.836 8.422 2.63 14.392a14.259 14.259 0 01-2.49 5.643c-2.748 3.737-6.516 5.096-6.516 5.096" fill="#86ba3b" transform="translate(-177 -349.886)"/><path d="M244.187 700.335s-5.474 4.734-6.514 5.941c-1.028 1.201-4.56 6.916-4.56 6.916-7.925 9.205-28.433 4.612-37.644-3.321-8.124-6.999-9.889-18.647-4.73-27.618 1.4-2.432 3.656-4.205 5.904-5.882 1.436-1.071 2.938-2.28 3.684-3.146.685-.784 1.452-2.121 2.129-3.45 1.27-2.467 2.624-4.966 4.799-6.691 8.104-6.427 19.884-6.421 28.012.593 9.21 7.92 16.852 27.455 8.92 36.658z" fill="#d82225" transform="translate(-177 -349.886)"/><path d="M244.187 700.335s-5.474 4.734-6.514 5.941c-1.029 1.201-4.56 6.916-4.56 6.916-7.925 9.205 2.932-20.41-1.77-31.62-4.963-11.832-18.322-16.287-23.791-8.27-7.567 11.083-13.157 4.746-10.91 3.069 1.437-1.071 2.94-2.28 3.685-3.146.685-.784 1.452-2.121 2.129-3.45 1.27-2.467 2.624-4.966 4.797-6.69 8.106-6.428 19.886-6.422 28.014.592 9.21 7.92 16.852 27.455 8.92 36.658z" fill="#c71e25" transform="translate(-177 -349.886)"/><path d="M196.056 703.836c-5.127-4.412-6.233-11.755-2.985-17.415.882-1.529 2.302-2.642 3.722-3.702a27.44 27.44 0 001.135-.88c-2.81 5.553 2.423 13.825 7.355 18.07 3.352 2.888 8.12 5.434 12.369 5.434 1.457 0 2.855-.3 4.112-.988-.692 1.081-1.336 2.12-1.336 2.12-1.856 2.154-4.89 3.036-8.27 3.036-5.729 0-12.449-2.53-16.102-5.675z" fill="#ec3d4f" transform="translate(-177 -349.886)"/><path d="M200.708 674.675c-.358-.245-9.436-5.479-12.719-15.782-.22-.693-.11-1.996 1.107-2.19.91-.146 1.634.653 1.833 1.342 3.03 10.476 10.859 14.871 10.939 14.924.664.443.892 1.08.5 1.642-.367.526-1.022.5-1.66.064z" fill="#492b14" transform="translate(-177 -349.886)"/></g><path d="M823.005 349.42c-6.621-1.769-12.069-6.365-18.434-8.9a12.78 12.78 0 00-10.922.677 12.805 12.805 0 00-6.612 10.081c-.592 6.443.395 13.084-1.402 19.3-2.178 7.519-1.496 15.852 2.564 23.244 8.158 14.848 26.808 20.273 41.653 12.123 14.856-8.16 20.277-26.804 12.123-41.655-4.198-7.64-11.168-12.785-18.97-14.87" fill="#e6a811"/><path d="M823.005 349.42c4.506 2.05 9.696 5.745 13.894 13.394 8.154 14.848 2.73 33.496-12.123 41.65-6.59 3.622-13.92 4.553-20.767 3.186 8.156 3.15 17.584 2.833 25.843-1.705 14.856-8.16 20.277-26.804 12.123-41.655-4.198-7.64-11.168-12.785-18.97-14.87" fill="#cc8f19"/><path d="M793.557 343.614a1.229 1.229 0 01-1.676-.487c-3.014-5.486-1.002-12.405 4.48-15.412a1.237 1.237 0 111.195 2.167c-4.292 2.35-5.865 7.764-3.51 12.055a1.23 1.23 0 01-.489 1.677" fill="#492b14"/><path d="M799.13 395.17a10.81 10.81 0 01-9.489-5.616c-2.884-5.233-.969-11.812 4.268-14.69a10.816 10.816 0 0114.695 4.281c2.877 5.232.961 11.814-4.283 14.69a10.758 10.758 0 01-5.19 1.335m-5.421-38.99a4.154 4.154 0 01-3.647-2.16 4.15 4.15 0 011.642-5.647 4.15 4.15 0 015.645 1.639 4.173 4.173 0 01-1.643 5.651 4.12 4.12 0 01-1.996.516" fill="#f2c437"/><path d="M892.955 370.789c-3.18-5.115-3.914-11.342-6.466-16.791a11.265 11.265 0 00-7.41-6.144 11.283 11.283 0 00-10.3 2.496c-4.262 3.77-7.623 8.621-12.519 11.528-5.91 3.507-10.488 9.26-12.33 16.45-3.707 14.423 4.987 29.126 19.413 32.829 14.436 3.698 29.128-4.994 32.834-19.422 1.904-7.418.526-14.91-3.222-20.946" fill="#e6a811"/><path d="M892.955 370.789c1.657 4.022 2.764 9.521.857 16.949-3.712 14.427-18.404 23.119-32.84 19.41-6.403-1.637-11.66-5.46-15.225-10.443 3.33 6.918 9.568 12.392 17.596 14.452 14.436 3.698 29.128-4.994 32.834-19.422 1.904-7.418.526-14.91-3.222-20.946" fill="#cc8f19"/><path d="M877.57 349.351a1.088 1.088 0 01-.787-1.324c1.368-5.328 6.822-8.556 12.152-7.182.584.15.936.741.781 1.324-.152.577-.74.933-1.324.778-4.163-1.068-8.43 1.452-9.504 5.626a1.08 1.08 0 01-1.317.778" fill="#492b14"/><path d="M856.635 388.331a9.546 9.546 0 01-2.37-.3c-5.093-1.305-8.158-6.494-6.848-11.578a9.499 9.499 0 0111.571-6.852c5.095 1.312 8.163 6.49 6.853 11.581-1.1 4.299-4.969 7.15-9.206 7.15m15.972-29.846a3.653 3.653 0 01-3.541-4.568 3.658 3.658 0 014.451-2.63 3.651 3.651 0 012.63 4.451 3.664 3.664 0 01-3.54 2.747" fill="#f2c437"/><path d="M953.303 345.649c-1.598-5.294-.762-10.984-1.734-16.431a10.32 10.32 0 00-5.108-7.207 10.323 10.323 0 00-9.728-.242c-4.678 2.33-8.814 5.838-13.848 7.241-6.077 1.707-11.502 5.719-14.848 11.655-6.716 11.908-2.508 27.017 9.403 33.732 11.916 6.718 27.023 2.509 33.736-9.408 3.463-6.124 4.021-13.098 2.127-19.34" fill="#e6a811"/><path d="M953.303 345.649c.517 3.972.189 9.105-3.272 15.236-6.716 11.906-21.818 16.118-33.736 9.398-5.284-2.974-9.046-7.613-11.019-12.889 1.308 6.925 5.537 13.265 12.164 17.003 11.916 6.718 27.023 2.509 33.736-9.408 3.463-6.124 4.021-13.098 2.127-19.34" fill="#cc8f19"/><path d="M944.76 322.98a1.008 1.008 0 01-.381-1.362c2.482-4.403 8.092-5.956 12.484-3.48.482.275.653.88.381 1.357a.989.989 0 01-1.357.379c-3.444-1.939-7.822-.717-9.763 2.721a.999.999 0 01-1.364.384" fill="#492b14"/><path d="M919.173 352.86a8.688 8.688 0 01-4.525-1.271 24.713 24.713 0 0011.79-12.33 8.728 8.728 0 01.35 9.158 8.727 8.727 0 01-7.615 4.442m19.883-22.845c-.559 0-1.124-.14-1.643-.433a3.355 3.355 0 01-1.278-4.572 3.363 3.363 0 012.929-1.714c.559 0 1.123.14 1.644.434a3.352 3.352 0 011.273 4.574 3.346 3.346 0 01-2.925 1.711" fill="#f2c437"/><path d="M924.981 316.635c-2.84-4.744-3.42-10.47-5.686-15.514a10.297 10.297 0 00-6.699-5.756 10.364 10.364 0 00-9.5 2.129c-3.963 3.404-7.127 7.805-11.67 10.39-5.477 3.14-9.767 8.343-11.574 14.917-3.615 13.188 4.137 26.82 17.325 30.436 13.192 3.622 26.82-4.135 30.438-17.319a24.672 24.672 0 00-2.634-19.283" fill="#e6a811"/><path d="M924.981 316.635c1.462 3.723 2.391 8.782.526 15.572-3.622 13.182-17.247 20.942-30.439 17.322a24.666 24.666 0 01-13.821-9.83c2.957 6.402 8.597 11.524 15.93 13.538 13.192 3.622 26.82-4.135 30.438-17.319a24.672 24.672 0 00-2.634-19.283" fill="#cc8f19"/><path d="M911.18 296.718a1.005 1.005 0 01-.699-1.228c1.336-4.873 6.395-7.745 11.262-6.404a.98.98 0 01.7 1.217.99.99 0 01-1.226.703c-3.81-1.044-7.764 1.203-8.81 5.015a.997.997 0 01-1.227.697" fill="#492b14"/><path d="M891.516 332.182a8.709 8.709 0 01-2.319-.315 8.688 8.688 0 01-4.113-2.506 25.973 25.973 0 0015.057-7.288 8.667 8.667 0 01-.206 3.689c-1.063 3.872-4.584 6.42-8.419 6.42m16.361-27.431a26.062 26.062 0 00-.48-6.33c.012.003.024.005.035.009a3.35 3.35 0 012.347 4.126 3.326 3.326 0 01-1.901 2.195" fill="#f2c437"/><path d="M841.284 272.095a1.055 1.055 0 01-1.061-1.058c0-5.36 4.364-9.722 9.728-9.722.578 0 1.058.474 1.058 1.059 0 .584-.48 1.059-1.058 1.059-4.199 0-7.611 3.416-7.611 7.604 0 .586-.476 1.058-1.056 1.058" fill="#492b14"/><path d="M869.864 323.814a28.503 28.503 0 00-10.385-22.056l-.012-.05c-5.19-3.93-8.568-10.135-8.568-17.135 0-1.132.318-1.898.306-3.3-.057-6.914-4.437-10.236-9.921-10.236-5.492 0-9.872 3.322-9.93 10.236-.011 1.402.313 2.168.313 3.3 0 7-3.378 13.205-8.567 17.134l-.017.051a28.507 28.507 0 00-10.384 22.056c0 15.767 12.81 28.564 28.585 28.564 15.763 0 28.58-12.797 28.58-28.564" fill="#e6a811"/><path d="M846.75 276.82c.018 1.405-.303 2.173-.303 3.295 0 7.008 3.374 13.214 8.564 17.146l.02.048c.134.114.248.238.382.35-2.812-3.632-4.514-8.149-4.514-13.086 0-1.132.318-1.898.306-3.3-.04-4.856-2.236-7.9-5.433-9.307.6 1.363.964 2.961.979 4.853m12.726 24.939l-.01-.05c-.193-.14-.366-.313-.542-.457 4.041 4.932 6.487 11.227 6.487 18.11 0 15.762-12.814 28.566-28.58 28.566-6.76 0-12.96-2.362-17.858-6.285 5.247 6.535 13.283 10.736 22.31 10.736 15.762 0 28.58-12.797 28.58-28.564a28.502 28.502 0 00-10.387-22.056" fill="#cc8f19"/><path d="M828.21 322.738a9.251 9.251 0 01-3.523-.693 25.13 25.13 0 00.86-17.456 9.3 9.3 0 012.664-.388 9.261 9.261 0 019.264 9.269c0 5.116-4.144 9.268-9.264 9.268m10.819-41.213a4.299 4.299 0 01-4.294-4.298 4.298 4.298 0 118.595 0 4.3 4.3 0 01-4.302 4.298" fill="#f2c437"/><path d="M910.208 262.747a.834.834 0 01-1.132-.328c-2.032-3.712-.675-8.378 3.023-10.412a.84.84 0 011.14.335c.222.4.073.91-.332 1.132-2.899 1.59-3.963 5.244-2.366 8.137a.837.837 0 01-.333 1.136" fill="#492b14"/><path d="M949.577 287.62a22.455 22.455 0 00-15.546-11.291l-.023-.03c-5.083-.742-9.77-3.75-12.423-8.584-.43-.784-.499-1.433-1.039-2.401-2.66-4.75-6.95-5.381-10.74-3.301-3.788 2.085-5.55 6.038-2.97 10.838.525.975 1.037 1.379 1.464 2.158 2.662 4.837 2.682 10.404.584 15.088l.012.042a22.458 22.458 0 001.192 19.175c5.986 10.89 19.69 14.868 30.588 8.884 10.884-5.985 14.877-19.685 8.901-30.579" fill="#f1ce3b"/><path d="M915.784 263.937c.533.961.605 1.608 1.035 2.392 2.657 4.829 7.348 7.841 12.426 8.588l.03.02c.131.033.26.073.39.101-3.315-1.435-6.208-3.912-8.08-7.323-.43-.784-.499-1.433-1.039-2.401-1.872-3.335-4.548-4.607-7.282-4.364.933.716 1.784 1.675 2.52 2.987m18.246 12.392l-.022-.03c-.186-.029-.362-.074-.552-.114 4.661 1.876 8.742 5.298 11.352 10.053 5.986 10.892 1.993 24.59-8.898 30.577-4.666 2.564-9.841 3.279-14.725 2.431 6.104 2.523 13.255 2.376 19.49-1.048 10.885-5.985 14.878-19.685 8.902-30.579a22.455 22.455 0 00-15.547-11.29" fill="#e0b930"/><path d="M923.281 292.766c1.944 3.533.654 7.973-2.882 9.921-3.538 1.939-7.979.65-9.918-2.889-1.946-3.53-.654-7.976 2.88-9.919 3.539-1.948 7.976-.65 9.92 2.887m-9.711-27.257a3.384 3.384 0 01-1.343 4.601 3.386 3.386 0 11-3.252-5.941 3.385 3.385 0 014.594 1.34" fill="#fbdf70"/><path d="M808.047 287.863c-5.424-1.45-9.888-5.216-15.104-7.294a10.52 10.52 0 00-8.962.546 10.512 10.512 0 00-5.417 8.27c-.49 5.28.321 10.729-1.155 15.834-1.78 6.151-1.222 12.983 2.11 19.044 6.684 12.178 21.973 16.627 34.146 9.948 12.182-6.701 16.624-21.988 9.936-34.157-3.436-6.27-9.154-10.483-15.554-12.19" fill="#f6bf1a"/><path d="M808.047 287.863c3.698 1.682 7.958 4.712 11.394 10.979 6.69 12.175 2.243 27.464-9.942 34.148-5.395 2.968-11.407 3.73-17.022 2.613 6.683 2.583 14.416 2.324 21.188-1.392 12.182-6.701 16.624-21.988 9.936-34.157-3.436-6.27-9.154-10.483-15.554-12.19" fill="#dea313"/><path d="M783.904 283.103c-.488.271-1.1.088-1.37-.402-2.477-4.496-.82-10.167 3.675-12.635a1 1 0 011.374.396c.276.492.097 1.11-.395 1.38-3.513 1.928-4.81 6.364-2.876 9.885a1.006 1.006 0 01-.408 1.376" fill="#492b14"/><path d="M788.472 325.369a8.862 8.862 0 01-7.779-4.602 8.858 8.858 0 013.504-12.044 8.865 8.865 0 0112.047 3.505c2.359 4.295.784 9.683-3.51 12.043a8.835 8.835 0 01-4.262 1.098m-4.442-31.966c-1.203 0-2.37-.64-2.989-1.769a3.402 3.402 0 011.348-4.63 3.388 3.388 0 011.639-.422c1.203 0 2.37.639 2.993 1.768a3.417 3.417 0 01-2.99 5.053" fill="#fad857"/><path d="M914.42 363.87c-4.125-3.17-6.613-7.984-10.337-11.624a9.74 9.74 0 00-7.858-2.71 9.747 9.747 0 00-7.577 5.149c-2.29 4.34-3.536 9.292-6.617 13.125a23.16 23.16 0 00-4.978 17.048c1.387 12.79 12.89 22.037 25.676 20.653 12.803-1.388 22.04-12.884 20.654-25.681a23.26 23.26 0 00-8.963-15.96" fill="#f6bf1a"/><path d="M914.42 363.87c2.56 2.756 5.119 6.859 5.83 13.45 1.397 12.787-7.853 24.283-20.646 25.67a23.17 23.17 0 01-15.495-3.824c4.796 4.587 11.508 7.117 18.62 6.345 12.803-1.388 22.04-12.884 20.654-25.681a23.26 23.26 0 00-8.963-15.96" fill="#dea313"/><path d="M895.459 351.207a.93.93 0 01-1.032-.826c-.518-4.732 2.917-8.996 7.641-9.506a.928.928 0 011.033.827.942.942 0 01-.834 1.043c-3.691.392-6.382 3.732-5.972 7.426a.943.943 0 01-.836 1.036" fill="#492b14"/><path d="M887.463 389.611a8.212 8.212 0 01-8.158-7.328c-.489-4.513 2.771-8.562 7.286-9.057a8.234 8.234 0 017.503 3.297 24.7 24.7 0 00-1.98 11.658 8.185 8.185 0 01-3.75 1.381c-.303.033-.604.05-.901.05m5.652-29.31a3.168 3.168 0 01-3.146-2.819 3.16 3.16 0 113.146 2.819" fill="#fad857"/><path d="M956.79 374.077c-1.96-4.823-1.666-10.232-3.035-15.25a9.73 9.73 0 00-5.41-6.314 9.728 9.728 0 00-9.142.61c-4.17 2.588-7.747 6.223-12.346 7.975-5.55 2.123-10.285 6.345-12.906 12.192-5.272 11.736-.036 25.533 11.701 30.799 11.75 5.274 25.533.026 30.805-11.711a23.242 23.242 0 00.334-18.301" fill="#f6bf1a"/><path d="M956.79 374.077c.818 3.673.955 8.502-1.76 14.552-5.269 11.738-19.06 16.984-30.8 11.709-5.21-2.339-9.126-6.359-11.433-11.133 1.822 6.384 6.331 11.957 12.855 14.884 11.75 5.274 25.533.026 30.805-11.71a23.245 23.245 0 00.334-18.302" fill="#dea313"/><path d="M946.836 353.566c-.473-.215-.683-.764-.473-1.24 1.952-4.344 7.066-6.283 11.4-4.336a.93.93 0 01.474 1.24c-.214.475-.769.697-1.241.475-3.39-1.523-7.392-.008-8.919 3.385-.209.476-.764.684-1.241.476" fill="#492b14"/><path d="M941.81 360.657a3.157 3.157 0 01-2.879-4.448 3.142 3.142 0 012.878-1.87c.434 0 .872.09 1.294.276a3.165 3.165 0 011.584 4.182 3.15 3.15 0 01-2.878 1.86" fill="#fad857"/><path d="M907.372 298.295c-1.163-5.706.257-11.592-.23-17.384-.265-3.134-1.869-6.124-4.651-8.044a10.877 10.877 0 00-10.17-1.198c-5.113 1.993-9.793 5.266-15.198 6.258-6.532 1.198-12.596 4.871-16.672 10.762-8.187 11.829-5.238 28.058 6.582 36.238 11.839 8.19 28.059 5.24 36.242-6.59a25.957 25.957 0 004.097-20.042" fill="#f6bf1a"/><path d="M907.372 298.295c.156 4.2-.688 9.536-4.897 15.63-8.182 11.824-24.416 14.774-36.243 6.589-5.248-3.63-8.737-8.85-10.295-14.573.703 7.388 4.522 14.437 11.096 18.986 11.839 8.19 28.059 5.24 36.242-6.59a25.957 25.957 0 004.097-20.042" fill="#dea313"/><path d="M900.615 273.72a1.057 1.057 0 01-.266-1.462c3.024-4.376 9.042-5.464 13.414-2.437.477.326.6.981.262 1.457-.328.479-.981.6-1.458.268-3.415-2.37-8.123-1.515-10.494 1.904-.325.48-.972.597-1.458.27" fill="#492b14"/><path d="M871.781 302.577a9.16 9.16 0 01-5.226-1.634c-4.176-2.888-5.21-8.612-2.327-12.776a9.183 9.183 0 017.561-3.964c1.804 0 3.624.531 5.22 1.638 4.172 2.884 5.216 8.606 2.33 12.78a9.162 9.162 0 01-7.558 3.956m22.502-22.028a3.491 3.491 0 01-2.003-.63 3.53 3.53 0 012.01-6.432 3.54 3.54 0 012.01.626 3.532 3.532 0 01.89 4.912 3.527 3.527 0 01-2.907 1.524" fill="#fad857"/><path d="M894.404 317.326a.932.932 0 01.148-1.337c3.781-3.019 9.313-2.382 12.325 1.4a.955.955 0 11-1.497 1.189c-2.352-2.961-6.677-3.45-9.637-1.099a.952.952 0 01-1.339-.153" fill="#492b14"/><path d="M873.935 366.534a25.718 25.718 0 009.742-19.712l.025-.03c-.136-5.88 2.346-11.746 7.287-15.677.799-.634 1.515-.838 2.508-1.628 4.848-3.93 4.727-8.884 1.645-12.754-3.086-3.874-7.881-5.107-12.792-1.26-.996.778-1.357 1.433-2.153 2.068-4.943 3.934-11.219 5.028-16.91 3.573l-.042.013c-7.266-1.536-15.132.064-21.402 5.054-11.134 8.854-12.97 25.084-4.116 36.217 8.854 11.119 25.081 12.99 36.208 4.136" fill="#f1ce3b"/><path d="M894.132 323.842c-.981.796-1.7.997-2.496 1.636-4.944 3.928-7.428 9.799-7.293 15.667l-.02.038c-.01.156-.035.31-.038.466.981-4.019 3.22-7.758 6.704-10.534.798-.634 1.514-.838 2.508-1.628 3.405-2.762 4.32-6.024 3.518-9.061-.626 1.185-1.553 2.337-2.884 3.416m-10.454 22.98l.025-.03c0-.217.02-.434.023-.649a25.692 25.692 0 01-9.146 14.75c-11.126 8.844-27.358 6.992-36.206-4.14-3.797-4.766-5.602-10.468-5.584-16.131-1.677 7.368-.125 15.407 4.938 21.776 8.854 11.119 25.081 12.99 36.208 4.136a25.718 25.718 0 009.742-19.712" fill="#e0b930"/><path d="M863.056 337.869c-3.613 2.869-8.87 2.273-11.74-1.346a8.355 8.355 0 011.336-11.744c3.617-2.873 8.879-2.273 11.747 1.34a8.366 8.366 0 01-1.343 11.75m28.869-16.223a3.86 3.86 0 01-5.442-.619 3.879 3.879 0 01.62-5.446 3.884 3.884 0 015.452.624 3.868 3.868 0 01-.63 5.441" fill="#fbdf70"/><path d="M926.636 363.594c-5.079-2.193-8.883-6.507-13.67-9.279a10.315 10.315 0 00-8.797-.758 10.318 10.318 0 00-6.465 7.27c-1.243 5.08-1.24 10.504-3.41 15.247-2.625 5.745-3.07 12.477-.7 18.867 4.758 12.82 19.009 19.361 31.834 14.606 12.82-4.764 19.363-19.013 14.6-31.833-2.44-6.605-7.4-11.533-13.392-14.12" fill="#e6a811"/><path d="M926.636 363.594c3.364 2.172 7.067 5.737 9.516 12.337 4.757 12.826-1.781 27.075-14.607 31.832-5.682 2.115-11.653 1.992-16.958.091 6.134 3.472 13.709 4.337 20.841 1.693 12.821-4.764 19.363-19.013 14.601-31.833-2.441-6.604-7.401-11.533-13.393-14.12" fill="#cc8f19"/><path d="M903.81 355.477a1.007 1.007 0 01-1.286-.586c-1.755-4.733.676-10.022 5.405-11.776a.984.984 0 011.28.587.993.993 0 01-.584 1.284c-3.705 1.372-5.606 5.507-4.229 9.212a.99.99 0 01-.585 1.279" fill="#492b14"/><path d="M903.433 397.402a8.739 8.739 0 01-8.188-5.697 8.724 8.724 0 015.152-11.226 8.725 8.725 0 0111.228 5.145c1.679 4.523-.63 9.555-5.15 11.229a8.742 8.742 0 01-3.042.549m-.508-31.839a3.347 3.347 0 01-3.136-2.181 3.364 3.364 0 013.15-4.535 3.35 3.35 0 013.145 2.191 3.35 3.35 0 01-1.987 4.31 3.314 3.314 0 01-1.172.215" fill="#f2c437"/><use xlink:href="#a" transform="rotate(47.939 54.902 499.602)"/><path d="M197 410.649H10v-7.167h187v7.167" fill="#c28933"/><path d="M752.564 320.386c20.91 20.719 21.065 54.457.35 75.367-20.714 20.902-54.465 21.061-75.369.345-20.908-20.712-21.06-54.459-.346-75.363 20.722-20.906 54.461-21.061 75.365-.349" fill="#23381b"/><path d="M755.323 378.635c2.148-11.473-2.491-26.448-18.271-42.09-13.741-13.615-28.815-20.246-41.19-19.111 16.666-7.815 37.155-4.953 50.977 8.735 14.25 14.125 17.085 35.46 8.484 52.466m-72.046 11.68c-13.273-13.153-16.652-32.58-10.1-48.925-.54 12.163 6.211 26.683 19.547 39.896 15.139 15.008 29.564 19.728 40.827 18.093-16.532 7.411-36.648 4.436-50.274-9.064m41.57-41.454c-7.768-7.698-23.883-22.551-35.156-25.356 11.726-5.058 28.75.86 44.232 16.196 14.956 14.822 20.633 30.866 15.79 42.49-3.434-11.048-17.477-26.006-24.866-33.33m-45.598-14.814c2.903 11.247 17.903 27.23 25.671 34.923 7.39 7.323 22.483 21.224 33.559 24.564-11.575 4.95-27.675-.579-42.636-15.399-15.478-15.345-21.547-32.313-16.594-44.088m64.978 53.939c-1.819 1.837-13.184-1.465-35.142-23.221-22.802-22.592-25.632-33.904-24.085-35.462 1.541-1.561 12.876 1.167 35.677 23.763 21.955 21.752 25.359 33.09 23.55 34.92m-60.408-66.283c-1.239.856-2.448 1.796-3.558 2.911a24.49 24.49 0 00-3.732 4.912c-14.1 18.899-12.549 45.83 4.67 62.89 18.842 18.674 49.364 18.534 68.032-.31 18.677-18.848 18.533-49.363-.314-68.039-17.892-17.725-46.293-18.462-65.098-2.364" fill="#649f6e"/><path d="M764.65 338.773c.351.895.679 1.8.979 2.711v-.222a49.08 49.08 0 00-.979-2.489zm1.002 2.479v.22a53.436 53.436 0 01-.011 33.55 53.222 53.222 0 01-12.75 20.74 53.414 53.414 0 01-9.664 7.728h.006c-.373.233-.748.46-1.125.684a53.52 53.52 0 001.197-.694h-.008a52.946 52.946 0 009.28-7.023 51.383 51.383 0 0013.064-20.026c4.081-11.39 4.087-23.937.011-35.179z" fill="#33411a"/><path d="M722.339 410.689h-13.98c-8.891-1.142-17.5-4.479-24.868-10.032a64.828 64.828 0 005.246-2.139c7.964 5.21 17.146 7.812 26.322 7.813 12.393 0 24.781-4.745 34.172-14.225 15.572-15.713 18.061-39.539 7.536-57.85a70.193 70.193 0 00-.452-1.866 52.435 52.435 0 002.804-3.417 48.968 48.968 0 015.556 9.79 53.5 53.5 0 01.977 36.253 53.082 53.082 0 01-12.739 20.737 53.409 53.409 0 01-9.664 7.728 53.27 53.27 0 01-1.141.692 54.477 54.477 0 01-19.77 6.516m-7.349-7.35c-8.017 0-16.033-2.114-23.13-6.358a64.468 64.468 0 0010.824-7.172c9.614 6.953 18.689 9.878 26.542 9.878a30.02 30.02 0 004.326-.308 45.405 45.405 0 01-18.562 3.96m14.475-8.036c-5.16 0-10.788-1.508-16.564-4.454 1.293.089 2.592.137 3.893.137 4.234 0 8.491-.51 12.631-1.779 3.15 1.939 6.232 3.476 9.055 4.327-2.771 1.185-5.803 1.77-9.015 1.77m13.3-6.883c-1.355 0-3.519-.594-6.513-2.1a36.178 36.178 0 006.882-4.955c1.711 3.713 1.806 5.901 1.094 6.62-.272.275-.759.435-1.463.435m6.95-6.23c-.529-1.701-1.309-3.493-2.277-5.337a48.314 48.314 0 003.899-5.312c.261 3.812-.27 7.403-1.623 10.65m5.61-3.557c.777-4.15.665-8.76-.54-13.693 2.901-6.915 3.686-13.764 3.448-19.877 3.344 11.04 2.376 23.122-2.908 33.57" fill="#20301a"/><path d="M715.059 406.331c-9.176 0-18.358-2.604-26.322-7.813a65.698 65.698 0 003.122-1.537c7.097 4.244 15.113 6.358 23.13 6.358a45.405 45.405 0 0018.562-3.96 30.053 30.053 0 01-4.326.308c-7.853 0-16.928-2.925-26.542-9.878l.424-.351c3.174.656 6.462 1.16 9.793 1.39 5.776 2.947 11.404 4.455 16.564 4.455 3.212 0 6.244-.584 9.015-1.769-2.823-.85-5.906-2.388-9.055-4.327a35.487 35.487 0 006.827-2.886c2.994 1.506 5.158 2.1 6.513 2.1.704 0 1.19-.16 1.463-.435.712-.719.617-2.907-1.094-6.62a39.148 39.148 0 001.579-1.521 53.29 53.29 0 002.725-2.991c.968 1.844 1.748 3.636 2.276 5.337 1.352-3.246 1.884-6.837 1.623-10.649a44.588 44.588 0 003.447-6.6c1.205 4.933 1.317 9.543.54 13.693 5.284-10.448 6.252-22.53 2.908-33.57-.155-3.975-.743-7.639-1.464-10.808 10.525 18.31 8.036 42.136-7.536 57.849-9.391 9.48-21.779 14.225-34.172 14.225" fill="#28431d"/><path d="M759.56 266.871c16.847 23.596 11.37 56.383-12.232 73.224-23.593 16.844-56.381 11.371-73.227-12.233-16.842-23.597-11.364-56.384 12.232-73.219 23.603-16.848 56.387-11.37 73.227 12.228" fill="#2a481f"/><path d="M752.523 323.88c3.996-10.783 1.992-26.094-10.72-43.911-11.072-15.51-24.6-24.463-36.796-25.424 17.477-4.807 36.894 1.386 48.025 16.986 11.481 16.083 10.679 37.27-.51 52.35m-71.887-.676c-10.7-14.983-10.738-34.408-1.65-49.183-2.558 11.716 1.579 26.941 12.32 41.99 12.202 17.1 25.418 24.083 36.622 24.377-17.292 4.436-36.319-1.806-47.292-17.184m47.265-33.316c-6.257-8.77-19.43-25.872-29.901-30.478 12.226-2.954 27.769 5.626 40.24 23.099 12.05 16.887 14.889 33.41 8.248 43.888-1.498-11.301-12.631-28.164-18.587-36.51m-41.803-21.983c.952 11.404 12.847 29.418 19.104 38.182 5.955 8.344 18.286 24.356 28.484 29.448-12.062 2.878-26.772-5.181-38.825-22.061-12.47-17.476-15.528-34.961-8.763-45.57m54.094 63.207c-2.071 1.478-12.556-3.629-30.239-28.409-18.37-25.739-19.239-37.187-17.483-38.448 1.767-1.256 12.314 3.284 30.683 29.024 17.69 24.779 19.104 36.36 17.039 37.833m-47.592-74.429c-1.352.623-2.676 1.335-3.94 2.232a24.14 24.14 0 00-4.446 4.145c-16.84 15.999-19.821 42.402-5.952 61.839 15.179 21.272 44.835 26.225 66.102 11.047 21.272-15.188 26.224-44.838 11.046-66.112-14.418-20.191-41.865-25.646-62.81-13.151" fill="#649f6e"/><path d="M725.592 349.298l.023-.163a52.093 52.093 0 0013.245-4.106c.05.057.099.116.147.173a52.476 52.476 0 01-13.415 4.096m17.481-6.185l-.153-.187a53.135 53.135 0 004.408-2.83 52.726 52.726 0 006.323-5.298l.138.23a52.62 52.62 0 01-10.716 8.084m12.842-10.28l-.148-.235c.157-.174.312-.347.465-.52l.083.313c-.134.15-.266.296-.4.443" fill="#20301a"/><path d="M739.007 345.202a16.866 16.866 0 00-.147-.173 52.795 52.795 0 004.06-2.103c.05.063.103.125.153.187a52.25 52.25 0 01-4.066 2.089m14.782-10.173l-.138-.231a52.164 52.164 0 002.116-2.201l.148.236a52.22 52.22 0 01-2.126 2.196" fill="#28431d"/><path d="M763.85 273.318h-.347a52.94 52.94 0 00-3.943-6.447 52.918 52.918 0 00-4.605-5.601c-.047-.193-.047-.293.01-.293.051 0 .143.072.284.221a52.692 52.692 0 018.6 12.12" fill="#2e502d"/><path d="M759.375 328.63a40.238 40.238 0 00-.168-.25 52.318 52.318 0 006.445-11.694v.845a52.248 52.248 0 01-6.277 11.099m6.277-50.595l-.183-.453h.183v.453" fill="#283619"/><path d="M765.652 317.531v-.845c4.828-12.23 4.99-26.084 0-38.65v-.454h-.183a52.187 52.187 0 00-1.966-4.264h.346c7.104 13.812 7.664 30.055 1.803 44.213" fill="#33411a"/><path d="M759.119 328.973a26.003 26.003 0 00-.175-.238l.263-.354.168.249c-.084.115-.17.23-.256.343" fill="#20301a"/><path d="M756.315 332.39l-.083-.313a51.897 51.897 0 002.712-3.342l.175.238a52.435 52.435 0 01-2.804 3.417" fill="#202e1a"/><path d="M725.615 349.135c.128-.884.237-1.769.326-2.653.1-.88.183-1.764.247-2.656a47.077 47.077 0 0018.175-7.881c19.288-13.771 25.157-39.435 14.769-59.962-1.34-7.8-3.853-13.402-4.177-14.713a52.918 52.918 0 014.605 5.601 52.94 52.94 0 013.943 6.447 52.187 52.187 0 012.149 4.717c4.99 12.567 4.828 26.42 0 38.651a52.318 52.318 0 01-6.445 11.695l-.263.354a51.897 51.897 0 01-5.293 6.063 52.726 52.726 0 01-6.323 5.297 52.795 52.795 0 01-8.468 4.933 52.093 52.093 0 01-13.245 4.107m.724-8.37c.004-.152.008-.308.01-.462.53.044 1.056.072 1.578.086a40.95 40.95 0 01-1.588.376m2.396-4.656c-.855 0-1.719-.05-2.591-.146a64.495 64.495 0 00-.71-6.298c2.795 2.478 5.595 4.545 8.251 5.87a21.258 21.258 0 01-4.95.574m10.562-4.766c-1.382 0-3.882-1.064-7.437-3.84a35.353 35.353 0 008.127-3.885c1.328 4.45 1.076 6.872.204 7.493-.211.15-.51.232-.894.232m7.19-4.945c-.268-2.027-.847-4.232-1.65-6.535.515-.47 1.024-.962 1.527-1.474a52.141 52.141 0 003.608-4.067c-.145 4.543-1.304 8.636-3.485 12.076m6.036-2.517c1.654-4.466 2.28-9.708 1.542-15.582 4.247-7.437 5.762-14.982 5.894-21.797 3.22 12.86.514 26.663-7.436 37.379" fill="#22321a"/><path d="M726.188 343.826c.073-1.013.124-2.035.15-3.061a40.95 40.95 0 001.589-.376 27.525 27.525 0 01-1.578-.086c.008-.417.012-.833.012-1.253 0-.376-.033-.565-.109-.59a64.735 64.735 0 00-.108-2.497 23.67 23.67 0 002.59.146c1.689 0 3.345-.19 4.951-.574-2.656-1.325-5.456-3.392-8.25-5.87-.034-.21-.068-.415-.104-.624a39.182 39.182 0 006.529-1.538c3.555 2.776 6.055 3.84 7.437 3.84.384 0 .683-.081.894-.232.872-.621 1.124-3.042-.204-7.493a36.921 36.921 0 004.85-3.755c.803 2.303 1.382 4.508 1.65 6.535 2.181-3.44 3.34-7.533 3.485-12.076a47.286 47.286 0 004.093-6.023c.738 5.874.112 11.116-1.542 15.582 7.95-10.716 10.656-24.519 7.436-37.379.073-3.779-.279-7.332-.827-10.519 10.388 20.527 4.519 46.191-14.77 59.962a47.077 47.077 0 01-18.174 7.881" fill="#28431d"/><path d="M720.385 366.833c-14.845 32.358-53.106 46.56-85.469 31.71-32.357-14.841-46.56-53.109-31.713-85.468 14.845-32.358 53.113-46.552 85.465-31.708 32.364 14.844 46.559 53.11 31.717 85.466" fill="#23381b"/><path d="M655.361 394.17c13.927-2.327 29.007-13.817 40.218-38.25 9.753-21.266 11.029-41.143 4.6-54.726 15.8 15.68 21.062 40.147 11.25 61.532-10.117 22.057-33.172 34.14-56.068 31.444m-43.202-76.988c9.424-20.543 30.082-32.456 51.376-31.803-14.039 4.438-27.738 18.144-37.2 38.775-10.75 23.448-10.122 41.788-3.582 53.907-15.288-15.704-20.272-39.79-10.594-60.879m64.364 29.995c5.516-12.024 15.681-36.506 14.188-50.476 10.618 11.222 10.981 33.018-.015 56.98-10.619 23.149-26.487 36.264-41.704 35.598 11.117-8.501 22.283-30.664 27.53-42.102m-2.126-57.954c-11.561 7.975-23.485 31.654-29 43.674-5.252 11.437-14.767 34.358-13.963 48.325-10.43-11.09-10.836-31.676-.217-54.828 10.999-23.959 27.75-37.904 43.18-37.17m-34.27 96.223c-2.838-1.298-3.807-15.585 11.777-49.565 16.194-35.292 27.854-43.212 30.273-42.099 2.416 1.107 4.03 15.111-12.167 50.406-15.585 33.978-27.05 42.561-29.882 41.258m50.193-96.158c-1.493-1.06-3.06-2.04-4.783-2.831-2.332-1.07-4.721-1.773-7.133-2.208-27.327-8.163-57.272 4.79-69.499 31.443-13.382 29.166-.545 63.777 28.622 77.153 29.172 13.385 63.78.54 77.16-28.627 12.7-27.694 1.738-60.258-24.367-74.93" fill="#649f6e"/><path d="M643.868 401.882c-27.575-7.59-47.83-32.844-47.83-62.832.43.597.86 1.187 1.283 1.764.34 24.093 14.238 47.016 37.595 57.73a65.12 65.12 0 008.952 3.338" fill="#283619"/><path d="M725.941 346.482c.091-.885.162-1.765.215-2.65a.16.16 0 00.032-.006 64.185 64.185 0 01-.247 2.656m.324-5.702c.003-.161.004-.322.005-.482.026 0 .052.004.079.005l-.01.461-.074.016" fill="#202f1a"/><path d="M726.156 343.833a63.21 63.21 0 00.11-3.052l.073-.016a66.27 66.27 0 01-.151 3.061c-.009.003-.021.005-.032.007m.193-3.53c-.026 0-.053-.003-.078-.004a63.582 63.582 0 00-.02-1.839c.077.025.11.215.11.59 0 .42-.004.837-.012 1.254" fill="#21321b"/><path d="M661.197 404.211c-6 0-11.81-.81-17.329-2.329a65.12 65.12 0 01-8.952-3.339c-23.357-10.713-37.255-33.636-37.595-57.729 2.471 3.359 4.846 6.38 7.156 9.1 3.192 18.23 14.991 34.65 33.05 42.932a57.872 57.872 0 0024.184 5.3c22.061.003 43.19-12.599 52.976-33.927a58.062 58.062 0 004.496-14.601c4.797-6.16 6.593-11.161 7.05-11.161.007 0 .014 0 .019.003.015.612.021 1.224.019 1.838l-.005.483a63.133 63.133 0 01-.324 5.701c-3.688 32.488-31.267 57.73-64.744 57.73m.52-9.668a54.28 54.28 0 01-6.356-.374c10.992-1.836 22.702-9.381 32.662-24.493 12.076-3.224 20.46-8.905 26.232-14.544a54.652 54.652 0 01-2.826 7.593c-9.179 20.014-29.012 31.818-49.712 31.818m-11.619-5.24c-.37 0-.737-.008-1.107-.024 4.763-3.643 9.535-9.792 13.847-16.532 3.112-.158 6.387-.368 9.857-.603a86.527 86.527 0 007.487-.825c-9.01 11.592-19.664 17.984-30.084 17.984m-9.337-3.732c-.246 0-.458-.043-.635-.124-1.47-.672-2.439-4.824-.87-13.387 4.225.705 8.711.976 13.615.976.404 0 .812-.001 1.222-.005-6.482 9.23-11.18 12.54-13.332 12.54m-9.328-4.35c-3.512-3.734-5.888-8.543-7.088-14.166a45.48 45.48 0 007.992 3.368c-.728 3.908-1.088 7.59-.904 10.799m-8.68-3.162a54.988 54.988 0 01-13.267-22.621c2.995 3.073 5.912 5.643 8.82 7.78.615 5.667 2.175 10.63 4.447 14.841" fill="#20301a"/><path d="M661.71 398.146a57.872 57.872 0 01-24.183-5.3c-18.059-8.281-29.858-24.701-33.05-42.932a109.218 109.218 0 005.01 5.525 54.988 54.988 0 0013.266 22.622c-2.272-4.212-3.832-9.175-4.446-14.842a51.144 51.144 0 006.038 3.836c1.2 5.623 3.576 10.432 7.088 14.167-.184-3.21.176-6.89.904-10.799a51.037 51.037 0 006.92 1.638c-1.569 8.562-.6 12.714.87 13.386a1.5 1.5 0 00.634.124c2.152 0 6.851-3.31 13.332-12.54 2.772-.024 5.68-.128 8.746-.284-4.312 6.74-9.084 12.89-13.847 16.532.37.016.737.024 1.107.024 10.42 0 21.074-6.392 30.084-17.984a75.406 75.406 0 007.841-1.642c-9.96 15.112-21.67 22.657-32.663 24.493 2.122.25 4.243.373 6.356.373 20.7 0 40.534-11.804 49.712-31.817a54.652 54.652 0 002.827-7.593 54.681 54.681 0 004.927-5.515 58.062 58.062 0 01-4.496 14.601c-9.786 21.328-30.915 33.93-52.976 33.927" fill="#28431d"/><path d="M707.897 367.153c-14.845 32.357-53.108 46.552-85.472 31.712-32.357-14.847-46.553-53.112-31.71-85.466l117.182 53.754" fill="#2d481f"/><path d="M699.457 363.28c-12.712 27.695-45.464 39.847-73.157 27.142-27.695-12.704-39.847-45.456-27.14-73.156l100.297 46.015" fill="#a4dda1"/><path d="M694.367 360.946c-11.412 24.887-40.844 35.804-65.73 24.39-24.888-11.417-35.808-40.849-24.393-65.731l90.123 41.341" fill="#ef3037"/><path d="M623.09 354.207c.097-.28.069-.638-.047-.89-.09-.18-.382-.491-.656-.588-1.023-.547-3.186-.831-6.254.553l-.181.09a2.993 2.993 0 00-1.28 3.92 2.996 2.996 0 003.844 1.487l.188-.082c3.015-1.496 4.157-3.347 4.385-4.49m-2.408-19.707a1.24 1.24 0 00.534-.707c.048-.198.03-.623-.123-.876-.435-1.08-1.904-2.68-5.147-3.591l-.196-.05c-1.553-.313-3.105.625-3.504 2.177a3.001 3.001 0 001.992 3.612l.203.052c3.261.794 5.332.113 6.241-.616m52.603 22.364c-.292.046-.593.25-.745.478-.119.171-.232.574-.182.863.039 1.165.862 3.176 3.603 5.137l.172.114a2.995 2.995 0 004.035-.842 3.006 3.006 0 00-.642-4.08l-.166-.118c-2.803-1.864-4.972-1.928-6.075-1.552m-15.861 11.938a1.27 1.27 0 00-.88-.116c-.194.058-.55.292-.698.544-.716.92-1.377 2.991-.536 6.254l.054.201c.509 1.499 2.089 2.37 3.634 1.948a3.004 3.004 0 002.132-3.537l-.05-.198c-.948-3.226-2.571-4.672-3.656-5.096m-19.828-1.05a1.194 1.194 0 00-.596-.65 1.37 1.37 0 00-.886-.032c-1.137.243-2.97 1.41-4.425 4.44l-.087.191a2.994 2.994 0 001.534 3.825 2.995 2.995 0 003.896-1.333l.096-.187c1.349-3.081 1.029-5.233.468-6.254" fill="#292121"/><path d="M329.168 152.631V83.667h105.567v68.964c0 26.776-23.247 48.48-52.793 48.48-29.547 0-52.774-21.704-52.774-48.48z" fill="#e9eae9"/><path d="M12.5 83.667L165.12 10h644.754l152.618 73.667z" fill="#f8be2c"/><path d="M118.052 152.631l-.045-68.964H12.5v68.964c0 26.776 23.233 48.48 52.777 48.48s52.793-21.704 52.775-48.48z" fill="#f8a62c"/><path d="M118.052 152.631l-.045-68.964H223.58l.028 68.964c.01 26.776-23.232 48.48-52.776 48.48-29.543 0-52.762-21.704-52.78-48.48z" fill="#e9eae9"/><path d="M223.608 150.45l-.028-68.964h105.588v68.964c0 26.775-23.234 48.48-52.78 48.48-29.544 0-52.77-21.705-52.78-48.48zm263.89 50.661c-29.546 0-52.763-21.704-52.763-48.48V83.667h105.524v68.964c0 26.776-23.214 48.48-52.76 48.48z" fill="#f8a62c"/><path d="M540.26 152.631V83.667h105.572v68.964c0 26.776-23.233 48.48-52.778 48.48-29.545 0-52.795-21.704-52.795-48.48z" fill="#e9eae9"/><path d="M645.832 83.667h105.806l-.087 68.964c-.034 26.776-23.395 48.48-52.941 48.48-29.547 0-52.778-21.704-52.778-48.48z" fill="#f8a62c"/><path d="M751.55 152.631l.088-68.964h105.367v68.964c0 26.776-23.294 48.48-52.84 48.48-29.545 0-52.648-21.704-52.614-48.48z" fill="#e9eae9"/><path d="M857.005 152.631V83.667H962.5v68.964c0 26.776-23.233 48.48-52.78 48.48-29.544 0-52.715-21.704-52.715-48.48z" fill="#f8a62c"/><path d="M531.274 10l8.985 73.667h105.542L611.932 10zm153.491.01l66.873 73.657h105.367L750.497 10.01zM443.707 10l-8.972 73.667H329.168L363.046 10zm-153.332.006L223.58 83.667H118.007l106.636-73.661z" fill="#edf5f7"/><path d="M10 410.649v72.47h187v-72.47c-64.945-.122-131.281-.003-187 0z" fill="#e5c560"/><use xlink:href="#a" transform="rotate(54.932 112.999 386.778)"/><use xlink:href="#b" transform="rotate(-37.225 46.853 226.202)"/><use xlink:href="#b" transform="rotate(30 149.872 470.072)"/><use xlink:href="#b" transform="rotate(-60 50.145 345.734)"/><g id="b" stroke-width=".133"><path d="M282.672 690.03l25.172 6.723s-4.181-7.714-12.161-9.844c-7.6-2.032-13.011 3.12-13.011 3.12" fill="#aedc4b" transform="translate(-177 -349.886)"/><path d="M292.397 699.225c-.969-.26-1.85-.602-2.648-1.004-5.46-2.741-7.077-8.192-7.077-8.192l25.07 6.78a17.99 17.99 0 01-.974.502c-.495.236-1.145.526-1.917.822-2.067.791-5.011 1.63-8.216 1.63a16.4 16.4 0 01-4.238-.538z" fill="#86ba3b" transform="translate(-177 -349.886)"/><path d="M257.075 727.045s-4.208-5.492-5.294-6.537c-1.097-1.064-6.349-4.752-6.349-4.752-8.337-8.084-8.543-21.401-.456-29.733 7.143-7.37 18.348-8.388 26.617-2.96 2.24 1.465 3.81 3.717 5.284 5.962.95 1.431 2.002 2.93 2.79 3.692.714.691 1.953 1.5 3.169 2.224 2.284 1.346 4.599 2.78 6.12 4.951 5.67 8.1 4.997 19.339-2.136 26.696-8.09 8.336-21.407 8.545-29.745.457z" fill="#f1485c" transform="translate(-177 -349.886)"/><path d="M257.075 727.045s-4.208-5.492-5.294-6.537c-1.097-1.064-6.349-4.752-6.349-4.752-8.337-8.084-8.72-21.576-.456-29.733 1.039-1.024-.796 21.066 7.473 26.494 2.24 1.467 4.172 1.995 5.648 4.239.948 1.432 1.707 2.307 2.49 3.07.717.69 3.354 1.837 4.769 1.949 17.54 1.377 20.124-18.495 16.396-26.275-1.988-4.141 6.643 3.59 7.204 4.392 5.67 8.1 4.997 19.339-2.136 26.696-8.09 8.336-21.407 8.545-29.745.457z" fill="#ef3c4e" transform="translate(-177 -349.886)"/><path d="M267.768 688.075a24.64 24.64 0 01-.608-.887c-.735-1.108-1.507-2.227-2.616-2.955-4.095-2.686-9.65-2.178-13.18 1.464-4.004 4.132-3.904 10.72.225 14.727 0 0 .75.527 1.526 1.097-1.796-3.809-1.16-8.498 1.946-11.701 3.4-3.508 8.667-4.099 12.707-1.745z" fill="#f36077" transform="translate(-177 -349.886)"/><path d="M278.267 693c.257-.333 5.76-8.702 15.776-11.253.671-.171 1.837-.18 1.958.993.091.88-.642 1.714-1.322 1.868-10.16 2.297-14.803 9.519-14.855 9.587-.465.607-1.083.79-1.593.391-.489-.383-.413-1.005.036-1.586z" fill="#492b14" transform="translate(-177 -349.886)"/></g><path d="M62.696 354.309c-4.51 0-8.735 1.229-12.368 3.362a24.313 24.313 0 00-12.363-3.362c-13.502 0-24.449 10.953-24.449 24.457 0 13.507 10.947 24.455 24.45 24.455h24.73c13.507 0 24.448-10.948 24.448-24.455 0-13.504-10.941-24.457-24.448-24.457" fill="#f9e773"/><path d="M62.696 354.309c-4.51 0-8.735 1.229-12.368 3.362a24.313 24.313 0 00-12.363-3.362c-13.502 0-24.449 10.953-24.449 24.457 0 13.507 10.947 24.455 24.45 24.455h24.73c13.507 0 24.448-10.948 24.448-24.455 0-13.504-10.941-24.457-24.448-24.457zm0 2.92c11.87 0 21.541 9.658 21.541 21.537s-9.67 21.536-21.541 21.536H37.965c-11.878 0-21.537-9.657-21.537-21.536 0-11.879 9.659-21.537 21.537-21.537 3.83 0 7.602 1.018 10.888 2.957l1.475.868 1.48-.868a21.444 21.444 0 0110.888-2.957" fill="#d82225"/><path d="M54.053 375.06c-.125 0-.357.092-.494.202-.544.436-1.323 1.514-1.31 3.605.007 1.018.838 1.771 1.804 1.771.97 0 1.807-.753 1.811-1.771.008-2.09-.762-3.167-1.319-3.605-.137-.108-.325-.203-.492-.203zm-6.393 0c-.124 0-.356.092-.494.202-.543.436-1.323 1.514-1.31 3.605.008 1.018.838 1.771 1.805 1.771.97 0 1.807-.753 1.81-1.771.009-2.09-.762-3.167-1.318-3.605-.137-.108-.325-.203-.492-.203z" fill="#292121"/><path d="M51.928 351.507l25.102-6.664s-7.419-4.69-15.394-2.544c-7.598 2.04-9.708 9.208-9.708 9.208" fill="#aedc4b"/><path d="M64.948 354.608c-.969.26-1.904.403-2.795.455-6.099.355-10.225-3.556-10.225-3.556l25.102-6.664a18 18 0 01-.594.922c-.31.451-.728 1.028-1.249 1.67-1.394 1.719-3.524 3.917-6.3 5.52a16.4 16.4 0 01-3.939 1.653z" fill="#86ba3b"/><path d="M49.598 356.282c.056-.417.638-10.416 8.036-17.634.496-.484 1.502-1.073 2.193-.119.519.717.3 1.806-.212 2.28-7.65 7.068-8.06 15.644-8.07 15.729-.1.758-.543 1.226-1.184 1.135-.615-.087-.86-.663-.763-1.391z" fill="#492b14"/><path d="M202 410.649h187V273.318H202z" fill="#c28933"/><path d="M207.5 405.52h176v-125h-176z" fill="#594519"/><use xlink:href="#c" transform="matrix(-1 0 0 1 597.987 -46.977)" width="100%" height="100%"/><g id="d" stroke-width=".133"><path d="M418.904 902.627l-2.877-7.539 5.533-2.11 1.727 4.529 7.642 3.412-2.472 5.984z" fill="#7f331a" transform="translate(-103.835 -650.914)"/><path d="M420.993 900.256l8.612 3.855 1.324-3.192-7.642-3.412-1.727-4.53-2.925 1.111z" fill="#622a15" transform="translate(-103.835 -650.914)"/><path d="M427.977 905.424c-.586 1.31-.561 2.827.128 4.09 7.138 13.162 8.315 29.35 1.722 44.08a49.698 49.698 0 01-10.498 15.117c-4.693 4.618-9.27 9.509-11.969 15.53-2 4.46 1.155 9.723 6.024 9.21 17.084-1.814 32.757-12.39 40.281-29.184 10.584-23.647 1.219-51.096-20.836-63.64-1.148-.648-2.612-.203-3.148.997l-1.704 3.8" fill="#e2c31d" transform="translate(-103.835 -650.914)"/><path d="M406.85 985.93a6.661 6.661 0 00-.075 1.671c.041.555.156 1.094.32 1.604l.003.01c.164.512.396.991.661 1.436l.016.012c16.317-2.374 31.101-12.745 38.333-28.913 9.798-21.867 2.474-46.95-16.129-60.527-.101.124-.23.244-.297.4l-1.704 3.8c-.587 1.311-.562 2.827.128 4.09 7.137 13.162 8.314 29.35 1.721 44.081a49.698 49.698 0 01-10.497 15.116c-4.694 4.619-9.271 9.51-11.97 15.53a7.571 7.571 0 00-.513 1.675l.004.013" fill="#f9ec2d" transform="translate(-103.835 -650.914)"/><path d="M406.757 986.881c.008-.26.03-.521.067-.784.008-.056.016-.112.027-.168h-.001a7.177 7.177 0 01.51-1.687c2.699-6.022 7.276-10.912 11.97-15.531a49.698 49.698 0 0010.497-15.116 49.466 49.466 0 004.345-20.24 50.02 50.02 0 00-5.932-23.59 10.69 10.69 0 005.192-.185c10.22 13.955 12.895 32.812 5.32 49.739-6.28 14.044-18.269 23.707-31.994 27.563" fill="#f6f34e" transform="translate(-103.835 -650.914)"/><path d="M409.37 992.392a3.95 3.95 0 001.142-1.483 4.154 4.154 0 00-2.093-5.496 4.281 4.281 0 00-1.379-.329c-.843 2.817.213 5.764 2.33 7.308" fill="#be741c" transform="translate(-103.835 -650.914)"/></g><use x="0" y="0" xlink:href="#d" id="e" transform="rotate(60 343.322 300.624)"/><g id="c" stroke-width=".133"><path d="M446.055 960.9l1.423-10.114 7.427 1.047-.855 6.073 6.37 8.465-6.41 5.125z" fill="#7f331a" transform="translate(-120.304 -658.203)"/><path d="M449.815 959.564l7.18 9.541 3.425-2.734-6.37-8.465.855-6.073-3.918-.557z" fill="#622a15" transform="translate(-120.304 -658.203)"/><path d="M454.39 969.556c-1.452 1.088-2.342 2.787-2.36 4.604-.161 18.955-8.778 37.612-25.104 49.887a62.768 62.768 0 01-20.882 10.326c-8.031 2.237-16.099 4.847-22.77 9.866-4.96 3.721-4.687 11.481 1.034 13.893 20.023 8.459 43.86 6.352 62.49-7.657 26.21-19.701 32.656-55.85 15.907-83.267-.87-1.421-2.771-1.82-4.1-.812l-4.215 3.16" fill="#e7c411" transform="translate(-120.304 -658.203)"/><path d="M381.67 1045.798a8.785 8.785 0 00-1.115 1.814 8.56 8.56 0 00-.765 3.994c19.528 7.365 42.266 4.94 60.184-8.536 24.245-18.227 31.503-50.497 19.207-76.941-.188.086-.397.125-.575.268l-4.214 3.16c-1.452 1.089-2.342 2.788-2.36 4.604-.161 18.956-8.777 37.613-25.104 49.887a62.768 62.768 0 01-20.882 10.327c-8.031 2.236-16.099 4.847-22.77 9.865a8.749 8.749 0 00-1.597 1.546l-.01.01" fill="#eecd21" transform="translate(-120.304 -658.203)"/><path d="M382.127 1045.267a60.18 60.18 0 00-.523 1.681c-.208-.048-.416-.095-.623-.144.32-.543.702-1.06 1.146-1.537" fill="#f5de44" transform="translate(-120.304 -658.203)"/><path d="M382.674 1053.562a5.247 5.247 0 001.046-7.358 5.011 5.011 0 00-1.321-1.218c-2.66 2.592-3.307 6.505-1.899 9.523a5.222 5.222 0 002.174-.947z" fill="#87441b" transform="translate(-120.304 -658.203)"/><path d="M462.13 965.76l-1.172 8.277 7.178 9.548 3.419-2.732-6.37-8.469.852-6.067-3.907-.557" fill="#622a15" transform="translate(-120.304 -658.203)"/><path d="M463.17 988.64c-.163 18.957-8.776 37.613-25.1 49.891a62.9 62.9 0 01-20.889 10.323c-8.03 2.233-16.107 4.848-22.769 9.86-4.952 3.725-4.684 11.496 1.028 13.899 20.032 8.457 43.872 6.35 62.5-7.655 26.209-19.71 32.65-55.852 15.9-83.265-.87-1.425-2.76-1.826-4.098-.82l-4.206 3.165c-1.457 1.096-2.36 2.786-2.367 4.602z" fill="#e7c411" transform="translate(-120.304 -658.203)"/><path d="M392.807 1060.274a8.774 8.774 0 00-1.74 3.792 8.727 8.727 0 00-.14 2.015c19.538 7.37 42.27 4.946 60.19-8.53 24.243-18.231 31.497-50.505 19.2-76.943-.185.089-.393.134-.573.267l-4.206 3.165c-1.456 1.097-2.36 2.786-2.366 4.603-.162 18.956-8.776 37.612-25.099 49.89a62.9 62.9 0 01-20.89 10.323c-8.03 2.234-16.106 4.848-22.768 9.86a8.548 8.548 0 00-1.594 1.548l-.012.013" fill="#f4dc2a" transform="translate(-120.304 -658.203)"/><path d="M465.536 984.038c-1.457 1.096-2.36 2.786-2.367 4.602-.162 18.957-8.775 37.613-25.098 49.891a62.9 62.9 0 01-20.89 10.323c-8.03 2.233-16.107 4.848-22.769 9.86a8.745 8.745 0 00-2.294 2.569c17.572 4.131 36.77.758 52.323-10.938 21.426-16.106 29.582-43.195 22.717-67.53z" fill="#d6b713" transform="translate(-120.304 -658.203)"/><path d="M393.814 1068.046a5.264 5.264 0 001.043-7.371 5.286 5.286 0 00-1.319-1.212c-2.662 2.595-3.303 6.51-1.896 9.524a5.163 5.163 0 002.172-.941z" fill="#87441b" transform="translate(-120.304 -658.203)"/><path d="M453.66 973.25c13.29 13.514 20.386 32.795 17.524 53.023a62.793 62.793 0 01-7.462 22.07c-4.104 7.257-7.965 14.817-9.13 23.068-.872 6.145 4.809 11.44 10.556 9.103 20.14-8.18 35.506-26.53 38.776-49.61 4.6-32.462-16.403-62.582-47.63-70.12-1.629-.39-3.246.667-3.48 2.321l-.736 5.214c-.254 1.792.299 3.636 1.581 4.932z" fill="#f5d525" transform="translate(-120.304 -658.203)"/><path d="M454.56 1073.652c.25 3.461 3.003 7.288 6.288 3.721 19.184-9.889 32.365-30.231 33.517-51.78 1.645-22.289-9.854-44.812-28.687-56.779a63.02 63.02 0 00-12.643-6.302c-.549 2.539-1.071 5.208-.904 7.815 1.97 4.828 6.917 7.867 9.324 12.571 12.779 18.94 13.754 44.906 2.616 64.822-4.384 7.884-8.973 16.193-9.553 25.375l.047.548-.006.01" fill="#f9ec2d" transform="translate(-120.304 -658.203)"/><path d="M460.77 1078.434a5.253 5.253 0 00-4.478-5.942 4.953 4.953 0 00-1.787.068c-.043 3.718 2.26 6.943 5.39 8.077a5.26 5.26 0 00.876-2.203z" fill="#87441b" transform="translate(-120.304 -658.203)"/><path d="M447.186 970.788c-.12 14.88-6.886 29.516-19.696 39.149a49.298 49.298 0 01-16.404 8.109c-6.3 1.75-12.639 3.804-17.863 7.74-3.889 2.922-3.672 9.012.804 10.91 15.719 6.637 34.432 4.981 49.058-6.01 20.57-15.472 25.628-43.84 12.478-65.357-.68-1.115-2.167-1.43-3.209-.646l-3.315 2.489c-1.132.853-1.842 2.185-1.853 3.616z" fill="#e5cb2e" transform="translate(-120.304 -658.203)"/><path d="M437.725 1024.877c19.032-14.31 24.729-39.644 15.073-60.395-.152.063-.303.097-.442.203l-3.315 2.49c-1.132.852-1.842 2.185-1.853 3.616-.12 14.88-6.886 29.515-19.696 39.148a49.296 49.296 0 01-16.404 8.109c-6.3 1.75-12.639 3.804-17.863 7.74-.483.36-.899.774-1.26 1.218-.36.446-.645.92-.876 1.427a6.928 6.928 0 00-.496 1.553c-.1.53-.137 1.059-.112 1.59 15.333 5.782 33.18 3.873 47.244-6.7z" fill="#f9ec2d" transform="translate(-120.304 -658.203)"/><path d="M438.078 1014.33c11.809-11.81 16.75-29.929 12.762-46.124.06-3.49-3.593.007-3.55 1.71-.158 9.189-2.387 18.434-7.322 26.257-6.677 11.037-17.823 19.22-30.35 22.298-6.14 1.81-12.487 3.917-17.37 8.206-1.684 2.35 3.548.733 4.931.577 3.655-.872 7.394-1.245 11.144-.893 7.088.333 14.62-.266 20.648-4.395 3.357-2.129 6.325-4.81 9.107-7.636z" fill="#f9f55d" transform="translate(-120.304 -658.203)"/><path d="M392.75 1033.11a4.133 4.133 0 00.82-5.785 4.045 4.045 0 00-1.037-.949c-2.092 2.037-2.593 5.112-1.489 7.474a3.983 3.983 0 001.706-.74z" fill="#be741c" transform="translate(-120.304 -658.203)"/><path d="M452.397 970.652c10.434 10.609 16.002 25.74 13.753 41.62a49.128 49.128 0 01-5.855 17.323c-3.217 5.696-6.248 11.631-7.168 18.112-.68 4.817 3.775 8.977 8.29 7.141 15.805-6.416 27.871-20.827 30.442-38.936 3.602-25.486-12.883-49.117-37.397-55.04-1.272-.306-2.543.52-2.723 1.813l-.583 4.097c-.203 1.408.239 2.854 1.24 3.87z" fill="#e5cb2e" transform="translate(-120.304 -658.203)"/><path d="M451.376 965.207l-.032.23-.004.003.033-.235" fill="#bf9b49" transform="translate(-120.304 -658.203)"/><path d="M451.343 965.442l.004-.003-.192 1.343c-.202 1.408.239 2.854 1.241 3.87-1.002-1.016-1.443-2.462-1.24-3.87l.186-1.34" fill="#f9f55d" transform="translate(-120.304 -658.203)"/><path d="M435.8 1036.385l.005.011-.005-.01" fill="#efe652" transform="translate(-120.304 -658.203)"/><path d="M503.786 1033.93c.034.045.07.091.102.138l-.1-.138m.275.392a6.954 6.954 0 01.658 1.3 7.242 7.242 0 00-.658-1.3" fill="#ede742" transform="translate(-120.304 -658.203)"/><path d="M453.1 1049.461c.068.566.205 1.108.394 1.622a6.706 6.706 0 001.788 2.65c14.931-6.756 26.206-20.721 28.673-38.139 3.332-23.578-10.55-45.522-32.048-53.369-.06.15-.14.288-.168.46l-.583 4.098c-.202 1.408.239 2.854 1.241 3.87 10.434 10.609 16.002 25.739 13.753 41.62a49.128 49.128 0 01-5.855 17.323c-3.217 5.696-6.248 11.631-7.168 18.112a6.979 6.979 0 00-.022 1.743l-.008.01" fill="#f9ec2d" transform="translate(-120.304 -658.203)"/><path d="M476.802 1012.413c2.54-14.598-4.252-29.585-14.913-39.483-3.156-2.943-6.8-5.738-10.517-7.661-.48 2.081-.32 4.504 1.527 5.902 11.091 11.437 16.03 28.407 12.748 44.005-1.207 6.731-4.36 12.851-7.705 18.735-2.395 4.851-4.798 10.046-4.85 15.542l2.965.543c4.907-4.56 19.14-28.353 20.745-37.583z" fill="#f9f55d" transform="translate(-120.304 -658.203)"/><path d="M457.977 1053.218a4.132 4.132 0 00-3.51-4.672 3.956 3.956 0 00-1.41.06c-.032 2.918 1.78 5.45 4.239 6.336a4.16 4.16 0 00.681-1.724z" fill="#be741c" transform="translate(-120.304 -658.203)"/></g><use xlink:href="#e" transform="scale(-1 1) rotate(-40.083 189.854 1127.967)"/><path d="M389 410.649H202v-7.167h187v7.167" fill="#c28933"/><path d="M202 410.649v72.47h187v-72.47c-64.945-.122-131.281-.003-187 0z" fill="#e5c560"/><use xlink:href="#e" transform="translate(-70.195 64.795)"/><path d="M394 410.649h187V273.318H394z" fill="#c28933"/><path d="M399.5 405.52h176v-125h-176z" fill="#594519"/><g id="f" stroke-width=".133"><path d="M599.593 997.705c-15.521 0-28.109-12.586-28.109-28.105 0-15.524 12.588-28.11 28.11-28.11 15.525 0 28.107 12.586 28.107 28.11 0 15.519-12.582 28.105-28.108 28.105z" fill="#f36a17" transform="translate(-171.265 -621.71)"/><path d="M623.587 965.472c0 15.528-12.587 28.115-28.114 28.115a27.99 27.99 0 01-17.702-6.286c5.153 6.342 13.008 10.404 21.822 10.404 15.526 0 28.108-12.586 28.108-28.105 0-8.812-4.058-16.673-10.402-21.825a27.998 27.998 0 016.288 17.697z" fill="#c5561e" transform="translate(-171.265 -621.71)"/><path d="M586.153 955.984a6.088 6.088 0 1112.177-.002 6.088 6.088 0 01-12.177.002z" fill="#f68930" transform="translate(-171.265 -621.71)"/></g><use xlink:href="#f" transform="translate(41.847 31.858)"/><g id="g" stroke-width=".133"><path d="M613.284 1084c13.759 13.761 36.09 13.761 49.865 0l-49.865-49.887c-13.777 13.78-13.777 36.112 0 49.887z" fill="#f9ad2b" transform="translate(-208.318 -685.201)"/><path d="M615.257 1082.03c12.668 12.674 33.236 12.678 45.928 0l-45.928-45.946c-12.696 12.685-12.696 33.256 0 45.947z" fill="#fbe964" transform="translate(-208.318 -685.201)"/><path d="M619.025 1078.239c10.604 10.594 27.788 10.594 38.384 0l-38.381-38.356c-10.587 10.589-10.587 27.762-.003 38.356z" fill="#fad721" transform="translate(-208.318 -685.201)"/><path d="M632.28 1065.603a1.33 1.33 0 01-.018-1.883c1.09-1.106 2.064-1.267 2.582-1.212.137.014.288.064.373.155a.748.748 0 01.148.368c.06.519-.098 1.495-1.203 2.586a1.33 1.33 0 01-1.882-.014zm-9.185-12.382l-.152.366c-.202.483-1.13.988-2.686.977a1.328 1.328 0 01-1.316-1.343c0-.721.56-1.331 1.319-1.336 1.552-.01 2.36.565 2.68.967.085.107.202.256.155.37zm22.681 25.087a1.328 1.328 0 01-1.341-1.325c-.012-1.558.566-2.357.976-2.683.102-.082.252-.206.365-.157l.367.157c.471.202.985 1.125.976 2.683a1.334 1.334 0 01-1.343 1.325z" fill="#ee9c23" transform="translate(-208.318 -685.201)"/></g><use xlink:href="#f" transform="translate(118.791 37.797)"/><use xlink:href="#f" transform="translate(61.016 .81)"/><use xlink:href="#f" transform="rotate(119.904 488.618 381.323)"/><use xlink:href="#g" transform="rotate(-75 468.122 322.685)"/><path d="M581 410.649H394v-7.167h187v7.167" fill="#c28933"/><path d="M394 410.649v72.47h187v-72.47c-64.945-.122-131.281-.003-187 0z" fill="#e5c560"/><use xlink:href="#f" transform="rotate(52.26 502.62 415.498)"/><use xlink:href="#f" transform="rotate(-53.087 411.282 285.347)"/><use xlink:href="#f" transform="translate(-2.16 -52.646)"/><use xlink:href="#f" transform="rotate(49.015 549.37 452.574)"/><path d="M773 410.649H586v-7.167h187v7.167" fill="#c28933"/><path d="M586 410.649v72.47h187v-72.47c-64.945-.122-131.281-.003-187 0z" fill="#e5c560"/></svg>