<svg width="469" height="403" xmlns="http://www.w3.org/2000/svg"><path d="M370.513 178.55A156 156 0 01384 242H228z" fill="#2079ce"/><path d="M324.043 119.07a156 156 0 0146.47 59.48L228 242z" fill="#3f0"/><path d="M123.616 126.07a156 156 0 01200.427-7L228 242z" fill="#906"/><path d="M154.762 379.74a156 156 0 01-81.6-118.728 156 156 0 0150.454-134.943L228 242z" fill="#cf0"/><path d="M384 242a156 156 0 01-75.654 133.718 156 156 0 01-153.584 4.022L228 242z" fill="#f63"/><path d="M160.379 10.482c-.387 0-.723.136-1.01.409a1.346 1.346 0 00-.408.988c0 .387.136.716.408.988a1.42 1.42 0 001.01.408c.387 0 .709-.136.967-.408.272-.272.408-.601.408-.988s-.136-.716-.408-.988a1.275 1.275 0 00-.967-.409zm15.598 0c-.387 0-.724.136-1.01.409a1.346 1.346 0 00-.408.988c0 .387.136.716.408.988a1.42 1.42 0 001.01.408c.386 0 .709-.136.966-.408.273-.272.409-.601.409-.988s-.136-.716-.409-.988a1.274 1.274 0 00-.966-.409zm131.935 0c-.387 0-.723.136-1.01.409a1.346 1.346 0 00-.408.988c0 .387.136.716.408.988a1.42 1.42 0 001.01.408c.387 0 .709-.136.967-.408.272-.272.408-.601.408-.988s-.136-.716-.408-.988a1.275 1.275 0 00-.967-.409zm-210.418.065c-1.432 0-2.664.394-3.695 1.182-1.018.773-1.526 1.862-1.526 3.265 0 1.275.459 2.277 1.375 3.008.932.716 2.156 1.196 3.674 1.44.502.085.924.171 1.268.257.343.086.737.222 1.181.408.444.187.78.445 1.01.774.23.315.344.688.344 1.117 0 .802-.373 1.425-1.117 1.87-.73.43-1.57.644-2.514.644-.717 0-1.339-.086-1.869-.258-.515-.172-.888-.344-1.117-.516-.23-.186-.537-.472-.924-.86a.931.931 0 00-.688-.278.979.979 0 00-.687.279.932.932 0 00-.28.687c0 .272.093.501.28.688 1.46 1.46 3.222 2.191 5.285 2.191a7.48 7.48 0 002.6-.45 5.045 5.045 0 002.084-1.505c.587-.701.88-1.532.88-2.492 0-2.435-1.797-3.917-5.392-4.447-1.045-.144-1.883-.43-2.514-.86-.63-.429-.945-.996-.945-1.697 0-.831.308-1.454.924-1.869.63-.43 1.417-.645 2.363-.645a8.66 8.66 0 011.461.108c.415.071.766.2 1.053.387.286.172.487.308.601.408.115.1.28.265.495.494.172.2.409.3.709.3.272 0 .5-.092.687-.279a.935.935 0 00.28-.687.973.973 0 00-.259-.645c-1.26-1.346-2.936-2.02-5.027-2.02zm109.033.043a.93.93 0 00-.687.28.934.934 0 00-.28.687v5.005c-.973-.83-2.076-1.246-3.308-1.246-1.447 0-2.686.551-3.717 1.655-1.017 1.088-1.525 2.392-1.525 3.91 0 1.518.508 2.829 1.525 3.931 1.031 1.09 2.27 1.633 3.717 1.633 1.232 0 2.335-.415 3.309-1.246v.28c0 .27.092.5.279.687a.93.93 0 00.687.28.934.934 0 00.688-.28.932.932 0 00.28-.687V11.557a.93.93 0 00-.28-.688.931.931 0 00-.688-.28zm22.559 0a.932.932 0 00-.688.28.931.931 0 00-.279.687v8.25c0 .844.014 1.539.043 2.084.029.544.086 1.095.172 1.654.1.544.243.98.43 1.31.186.315.43.61.73.881.315.258.695.437 1.139.537.458.116 1.002.172 1.633.172.271 0 .5-.092.687-.279a.932.932 0 00.28-.687.934.934 0 00-.28-.688.935.935 0 00-.687-.28c-.388 0-.696-.006-.924-.02a1.266 1.266 0 01-.623-.259c-.187-.158-.316-.3-.387-.43-.071-.143-.136-.429-.193-.859a20.91 20.91 0 01-.086-1.203V11.557a.934.934 0 00-.28-.688.932.932 0 00-.687-.28zm-73.326.088c-1.032 0-1.862.322-2.492.967-.616.644-.924 1.446-.924 2.406v1.394h-1.246a.934.934 0 00-.688.28.932.932 0 00-.28.687c0 .272.093.5.28.688a.933.933 0 00.688.28h1.246v8.077a.93.93 0 00.28.688.933.933 0 00.687.28c.27 0 .5-.093.687-.279a.94.94 0 00.28-.689v-8.076h2.148a.935.935 0 00.687-.28.938.938 0 00.28-.689c0-.272-.093-.5-.28-.685a.934.934 0 00-.687-.282h-2.149v-1.394c0-.459.13-.812.387-1.055.272-.258.637-.387 1.096-.387.344 0 .616.072.816.215.186.13.372.196.559.196a.934.934 0 00.687-.282.931.931 0 00.28-.687c0-.458-.258-.8-.774-1.03a3.73 3.73 0 00-1.568-.343zm144.46 1.459a.932.932 0 00-.687.279.931.931 0 00-.28.688v2.427h-1.374a.932.932 0 00-.688.28.932.932 0 00-.279.687c0 .272.093.502.28.688a.934.934 0 00.687.279h1.375v4.146c0 1.848.336 3.116 1.01 3.803.672.688 2.004 1.031 3.996 1.031a.932.932 0 00.687-.279.932.932 0 00.28-.687.934.934 0 00-.28-.688.935.935 0 00-.687-.28c-1.39 0-2.249-.157-2.578-.472-.33-.315-.495-1.124-.495-2.428v-4.146h2.643a.935.935 0 00.688-.28.934.934 0 00.279-.687.935.935 0 00-.28-.687.934.934 0 00-.687-.28h-2.642v-2.427a.934.934 0 00-.28-.688.932.932 0 00-.687-.28zm50.64 0a.934.934 0 00-.688.279.934.934 0 00-.28.688v2.427h-1.374a.934.934 0 00-.688.28.932.932 0 00-.28.687c0 .272.093.502.28.688a.934.934 0 00.688.279h1.375v4.146c0 1.848.336 3.116 1.01 3.803.673.688 2.005 1.031 3.995 1.031a.934.934 0 00.688-.279.932.932 0 00.28-.687.934.934 0 00-.28-.688.934.934 0 00-.688-.28c-1.389 0-2.248-.157-2.578-.472-.329-.315-.494-1.124-.494-2.428v-4.146h2.643c.271 0 .5-.093.687-.28a.934.934 0 00.28-.687.932.932 0 00-.28-.687.932.932 0 00-.687-.28h-2.643v-2.427a.93.93 0 00-.28-.688.931.931 0 00-.687-.28zm-202.426 3.136c-1.418 0-2.636.466-3.653 1.397v-.387a.932.932 0 00-.28-.687.931.931 0 00-.687-.28c-.27 0-.5.093-.687.28a.932.932 0 00-.28.687v9.153c0 .27.093.5.28.687a.93.93 0 00.687.28.93.93 0 00.688-.28.932.932 0 00.28-.687v-4.19c0-1.131.336-2.084 1.009-2.857.687-.788 1.568-1.182 2.643-1.182.27 0 .5-.093.687-.28a.934.934 0 00.28-.687.932.932 0 00-.28-.687.932.932 0 00-.687-.28zm143.236 0c-1.475 0-2.758.48-3.846 1.44v-.43a.932.932 0 00-.28-.687.931.931 0 00-.687-.28c-.27 0-.5.093-.687.28a.932.932 0 00-.28.687v9.153c0 .27.093.5.28.687a.93.93 0 00.687.28.93.93 0 00.688-.28.932.932 0 00.28-.687v-4.598c0-.96.379-1.805 1.138-2.535.76-.73 1.662-1.096 2.707-1.096.3 0 .559.05.773.15.23.087.409.23.537.43.13.2.236.401.323.602.086.2.143.458.172.773.042.3.064.558.064.774.014.2.022.465.022.794v4.706c0 .27.092.5.279.687a.93.93 0 00.687.28.932.932 0 00.688-.28.932.932 0 00.28-.687v-4.598c0-1.833-.309-3.215-.925-4.147-.601-.945-1.568-1.418-2.9-1.418zm26.19 0c-1.476 0-2.758.48-3.846 1.44v-.43a.932.932 0 00-.28-.687.932.932 0 00-.687-.28.932.932 0 00-.688.28.932.932 0 00-.279.687v9.153c0 .27.093.5.28.687a.93.93 0 00.687.28.932.932 0 00.687-.28.932.932 0 00.28-.687v-4.598c0-.96.38-1.805 1.138-2.535.76-.73 1.662-1.096 2.707-1.096.301 0 .558.05.774.15.228.087.408.23.537.43.129.2.236.401.322.602.086.2.143.458.172.773.043.3.065.558.065.774.014.2.021.465.021.794l-.002 4.706c0 .27.095.5.281.687.187.187.416.28.688.28.271 0 .5-.093.687-.28a.932.932 0 00.28-.687v-4.598c0-1.833-.308-3.215-.924-4.147-.602-.945-1.569-1.418-2.9-1.418zm24.449 0c-1.476 0-2.757.48-3.846 1.44v-.43a.935.935 0 00-.28-.687.934.934 0 00-.687-.28.932.932 0 00-.687.28.932.932 0 00-.28.687v9.153c0 .27.093.5.28.687a.93.93 0 00.687.28.932.932 0 00.688-.28.932.932 0 00.279-.687v-4.598c0-.96.38-1.805 1.139-2.535.759-.73 1.66-1.096 2.707-1.096.3 0 .558.05.773.15.23.087.408.23.537.43.129.2.236.401.322.602.086.2.144.458.172.773.044.3.065.558.065.774.014.2.021.465.021.794v4.706c0 .27.094.5.28.687a.93.93 0 00.687.28.932.932 0 00.688-.28.932.932 0 00.279-.687v-4.598c0-1.833-.308-3.215-.924-4.147-.601-.945-1.568-1.418-2.9-1.418zm-235.834.043c-.273 0-.51.093-.71.28a.932.932 0 00-.279.687v4.598c0 1.833.3 3.222.903 4.168.615.931 1.589 1.396 2.922 1.396 1.403 0 2.65-.48 3.738-1.44v.43c0 .272.086.501.258.688a.93.93 0 00.687.28.934.934 0 00.688-.28c.2-.186.3-.415.3-.687v-9.153c0-.272-.1-.501-.3-.687a.934.934 0 00-.688-.28.932.932 0 00-.687.28.975.975 0 00-.258.687v4.598c0 2.42-1.246 3.63-3.738 3.63-.746 0-1.247-.285-1.504-.859-.258-.587-.387-1.475-.387-2.664v-4.705a.935.935 0 00-.28-.687.864.864 0 00-.665-.28zm12.546 0c-.27 0-.5.093-.687.28a.932.932 0 00-.28.687V29.39c0 .271.093.5.28.687a.93.93 0 00.687.28.934.934 0 00.688-.28.935.935 0 00.28-.687V25.2c.973.83 2.076 1.246 3.308 1.246 1.447 0 2.679-.544 3.695-1.633 1.032-1.103 1.547-2.413 1.547-3.931 0-1.518-.515-2.822-1.547-3.91-1.016-1.104-2.248-1.655-3.695-1.655-1.232 0-2.335.415-3.309 1.246v-.279a.932.932 0 00-.279-.687.931.931 0 00-.688-.28zm16.63 0c-1.461 0-2.708.551-3.739 1.655-1.031 1.088-1.547 2.392-1.547 3.91 0 1.518.516 2.828 1.547 3.931 1.031 1.088 2.278 1.633 3.738 1.633 1.691 0 3.059-.45 4.104-1.353a.919.919 0 00.322-.73.93.93 0 00-.28-.688c-.171-.186-.4-.28-.687-.28a.944.944 0 00-.623.237c-.358.33-.716.559-1.074.687-.358.13-.945.194-1.762.194a3.1 3.1 0 01-2.148-.838c-.616-.574-.995-1.29-1.139-2.149h7.069c.271 0 .5-.092.687-.279a.935.935 0 00.28-.687c0-1.404-.423-2.629-1.268-3.674-.83-1.046-1.99-1.569-3.48-1.569zm33.494 0c-1.52 0-2.815.545-3.89 1.633-1.06 1.089-1.589 2.4-1.589 3.932 0 1.533.53 2.843 1.59 3.931 1.075 1.088 2.37 1.633 3.889 1.633a5.3 5.3 0 003.072-.945c.286-.186.43-.458.43-.816a.93.93 0 00-.28-.688.932.932 0 00-.687-.28.886.886 0 00-.537.173 3.441 3.441 0 01-1.998.623c-.974 0-1.811-.351-2.514-1.053-.687-.716-1.031-1.575-1.031-2.578s.344-1.855 1.03-2.557c.703-.716 1.54-1.074 2.515-1.074.73 0 1.396.208 1.998.623a.889.889 0 00.537.172c.271 0 .5-.093.687-.28a.934.934 0 00.28-.687c0-.358-.144-.63-.43-.816a5.297 5.297 0 00-3.072-.946zm15.64 0c-1.46 0-2.707.551-3.738 1.655-1.031 1.088-1.547 2.392-1.547 3.91 0 1.518.516 2.828 1.547 3.931 1.031 1.088 2.277 1.633 3.738 1.633 1.69 0 3.058-.45 4.104-1.353a.92.92 0 00.322-.73.933.933 0 00-.28-.688c-.171-.186-.4-.28-.687-.28a.944.944 0 00-.623.237c-.358.33-.716.559-1.074.687-.358.13-.945.194-1.762.194a3.1 3.1 0 01-2.148-.838 3.68 3.68 0 01-1.139-2.149h7.068a.93.93 0 00.688-.279.932.932 0 00.28-.687c0-1.404-.423-2.629-1.268-3.674-.83-1.046-1.99-1.569-3.48-1.569zm30.465 0c-1.46 0-2.707.551-3.738 1.655-1.032 1.088-1.547 2.392-1.547 3.91 0 1.518.515 2.828 1.547 3.931 1.031 1.088 2.277 1.633 3.738 1.633 1.69 0 3.058-.45 4.104-1.353a.92.92 0 00.322-.73.933.933 0 00-.28-.688c-.17-.186-.4-.28-.687-.28a.944.944 0 00-.623.237c-.358.33-.716.559-1.074.687-.358.13-.945.194-1.762.194-.817 0-1.533-.28-2.148-.838a3.686 3.686 0 01-1.14-2.149h7.07a.932.932 0 00.687-.279.932.932 0 00.28-.687c0-1.404-.423-2.629-1.269-3.674-.83-1.046-1.99-1.569-3.48-1.569zm24.148 0c-1.474 0-2.735.551-3.78 1.655-1.032 1.088-1.548 2.392-1.548 3.91 0 1.518.516 2.828 1.547 3.931 1.046 1.088 2.307 1.633 3.781 1.633 1.476 0 2.721-.544 3.739-1.633 1.031-1.103 1.547-2.413 1.547-3.931 0-1.518-.516-2.822-1.547-3.91-1.018-1.104-2.263-1.655-3.739-1.655zm11.602 0c-1.06 0-1.998.251-2.814.752-.817.488-1.225 1.225-1.225 2.213 0 .96.323 1.698.967 2.213.66.501 1.525.88 2.6 1.139.043.014.114.028.214.043.287.057.559.13.817.215a7.3 7.3 0 01.837.279c.302.115.538.264.71.451a.797.797 0 01.257.58c0 .874-.816 1.31-2.449 1.31-.601 0-1.11-.092-1.525-.279-.402-.2-.824-.5-1.268-.902a.975.975 0 00-.644-.258c-.273 0-.51.093-.71.28-.186.17-.279.4-.279.687 0 .43.286.838.86 1.225.586.386 1.217.68 1.89.88.674.2 1.232.301 1.676.301.53 0 1.03-.05 1.504-.15a5.44 5.44 0 001.375-.494c.458-.23.823-.566 1.096-1.01.272-.444.408-.966.408-1.568 0-.888-.322-1.569-.967-2.041-.63-.488-1.697-.953-3.201-1.397l-.688-.172a5.778 5.778 0 01-.644-.193 6.285 6.285 0 01-.43-.215.875.875 0 01-.387-.365 1.648 1.648 0 01-.085-.559c0-.343.229-.601.687-.773a4.122 4.122 0 011.848-.237c.143.015.265.03.365.043.1.015.208.044.322.086.13.044.223.08.28.108a.908.908 0 01.279.129c.128.071.214.128.258.172.057.028.157.093.3.193.143.086.244.15.301.193.143.1.33.15.559.15.257 0 .48-.092.666-.279a.93.93 0 00.28-.687c0-.572-.488-1.06-1.462-1.461-.96-.401-1.819-.602-2.578-.602zm17.016 0c-1.519 0-2.815.545-3.889 1.633-1.06 1.089-1.59 2.4-1.59 3.932 0 1.533.53 2.843 1.59 3.931 1.075 1.088 2.37 1.633 3.889 1.633a5.302 5.302 0 003.072-.945c.287-.186.43-.458.43-.816a.93.93 0 00-.28-.688.932.932 0 00-.687-.28c-.2 0-.38.058-.537.173a3.441 3.441 0 01-1.998.623c-.974 0-1.812-.351-2.514-1.053-.687-.716-1.031-1.575-1.031-2.578s.344-1.855 1.031-2.557c.702-.716 1.54-1.074 2.514-1.074.73 0 1.396.208 1.998.623a.889.889 0 00.537.172.935.935 0 00.687-.28.934.934 0 00.28-.687c0-.358-.143-.63-.43-.816a5.297 5.297 0 00-3.072-.946zm10.162 0c-1.476 0-2.736.551-3.782 1.655-1.03 1.088-1.546 2.392-1.546 3.91 0 1.518.516 2.828 1.546 3.931 1.046 1.088 2.306 1.633 3.782 1.633 1.475 0 2.721-.544 3.738-1.633 1.031-1.103 1.547-2.413 1.547-3.931 0-1.518-.516-2.822-1.547-3.91-1.017-1.104-2.263-1.655-3.738-1.655zm51.197 0c-1.46 0-2.707.551-3.738 1.655-1.032 1.088-1.547 2.392-1.547 3.91 0 1.518.515 2.828 1.547 3.931 1.031 1.088 2.277 1.633 3.738 1.633 1.69 0 3.058-.45 4.104-1.353a.92.92 0 00.322-.73.933.933 0 00-.28-.688c-.17-.186-.4-.28-.687-.28a.944.944 0 00-.623.237c-.358.33-.716.559-1.074.687-.358.13-.945.194-1.762.194-.817 0-1.533-.28-2.148-.838a3.686 3.686 0 01-1.14-2.149h7.07a.932.932 0 00.687-.279.932.932 0 00.279-.687c0-1.404-.422-2.629-1.268-3.674-.83-1.046-1.99-1.569-3.48-1.569zm32.355 0c-1.46 0-2.706.551-3.738 1.655-1.031 1.088-1.547 2.392-1.547 3.91 0 1.518.516 2.828 1.547 3.931 1.032 1.088 2.278 1.633 3.738 1.633 1.691 0 3.059-.45 4.104-1.353a.919.919 0 00.322-.73.932.932 0 00-.279-.688c-.172-.186-.4-.28-.688-.28a.944.944 0 00-.623.237c-.358.33-.716.559-1.074.687-.358.13-.945.194-1.762.194a3.1 3.1 0 01-2.148-.838c-.616-.574-.995-1.29-1.139-2.149h7.069c.271 0 .5-.092.687-.279a.932.932 0 00.28-.687c0-1.404-.422-2.629-1.268-3.674-.83-1.046-1.99-1.569-3.48-1.569zm11.043 0c-1.059 0-1.997.251-2.814.752-.817.488-1.225 1.225-1.225 2.213 0 .96.323 1.698.967 2.213.659.501 1.525.88 2.6 1.139.043.014.115.028.215.043.286.057.558.13.816.215.272.072.552.164.838.279.301.115.537.264.709.451a.8.8 0 01.258.58c0 .874-.817 1.31-2.45 1.31-.601 0-1.11-.092-1.525-.279-.4-.2-.823-.5-1.267-.902a.973.973 0 00-.645-.258c-.273 0-.509.093-.709.28-.186.17-.28.4-.28.687 0 .43.287.838.86 1.225.587.386 1.217.68 1.89.88.673.2 1.232.301 1.676.301.53 0 1.032-.05 1.504-.15a5.44 5.44 0 001.375-.494c.46-.23.824-.566 1.096-1.01.272-.444.408-.966.408-1.568 0-.888-.322-1.569-.966-2.041-.63-.488-1.698-.953-3.202-1.397a108.07 108.07 0 01-.687-.172 5.779 5.779 0 01-.645-.193 5.993 5.993 0 01-.43-.215c-.186-.1-.315-.222-.386-.365a1.631 1.631 0 01-.086-.559c0-.343.23-.601.687-.773a4.122 4.122 0 011.848-.237c.143.015.265.03.365.043.101.015.208.044.323.086.128.044.222.08.279.108a.908.908 0 01.28.129c.129.071.214.128.257.172.057.028.157.093.3.193.144.086.244.15.302.193.142.1.329.15.558.15.258 0 .48-.092.666-.279a.932.932 0 00.28-.687c0-.572-.488-1.06-1.461-1.461-.96-.401-1.819-.602-2.579-.602zm-212.373.086c-.27 0-.5.095-.687.282a.97.97 0 00-.258.685v9.045c0 .272.086.502.258.688a.934.934 0 00.687.279.934.934 0 00.688-.28c.2-.186.3-.415.3-.687V16.37c0-.272-.1-.5-.3-.685a.933.933 0 00-.688-.282zm15.598 0a.934.934 0 00-.687.282.97.97 0 00-.258.685v9.045c0 .272.086.502.258.688a.934.934 0 00.687.279c.272 0 .5-.093.688-.28.2-.186.3-.415.3-.687V16.37c0-.272-.1-.5-.3-.685a.935.935 0 00-.688-.282zm131.936 0a.936.936 0 00-.688.282.97.97 0 00-.258.685v9.045c0 .272.086.502.258.688a.934.934 0 00.688.279c.272 0 .5-.093.687-.28.2-.186.3-.415.3-.687V16.37c0-.272-.1-.5-.3-.685a.934.934 0 00-.687-.282zM123.297 17.25c.917 0 1.697.35 2.342 1.053.644.701.966 1.56.966 2.578 0 1.017-.322 1.876-.966 2.578-.645.702-1.425 1.053-2.342 1.053s-1.697-.351-2.342-1.053-.967-1.561-.967-2.578.322-1.877.967-2.578c.645-.702 1.425-1.053 2.342-1.053zm12.353 0c.66 0 1.232.222 1.72.666.5.43.83.988.987 1.676h-5.843a3.494 3.494 0 011.224-1.697 3.111 3.111 0 011.912-.645zm49.135 0c.66 0 1.232.222 1.719.666.501.43.83.988.988 1.676h-5.844a3.498 3.498 0 011.225-1.697 3.108 3.108 0 011.912-.645zm17.467 0c.917 0 1.697.35 2.342 1.053.644.701.967 1.56.967 2.578 0 1.017-.323 1.876-.967 2.578-.645.702-1.425 1.053-2.342 1.053s-1.697-.351-2.342-1.053-.967-1.561-.967-2.578.322-1.877.967-2.578c.645-.702 1.425-1.053 2.342-1.053zm12.998 0c.66 0 1.232.222 1.719.666.501.43.83.988.988 1.676h-5.844a3.498 3.498 0 011.225-1.697 3.108 3.108 0 011.912-.645zm24.148 0c.917 0 1.704.35 2.364 1.053.658.701.988 1.56.988 2.578 0 1.017-.33 1.876-.988 2.578-.66.702-1.447 1.053-2.364 1.053-.916 0-1.711-.351-2.384-1.053-.674-.702-1.01-1.561-1.01-2.578s.336-1.877 1.01-2.578c.672-.702 1.468-1.053 2.384-1.053zm38.78 0c.916 0 1.704.35 2.363 1.053.659.701.988 1.56.988 2.578 0 1.017-.33 1.876-.988 2.578-.659.702-1.447 1.053-2.363 1.053-.917 0-1.712-.351-2.385-1.053-.673-.702-1.01-1.561-1.01-2.578s.337-1.877 1.01-2.578c.673-.702 1.468-1.053 2.385-1.053zm51.197 0c.66 0 1.232.222 1.719.666.501.43.83.988.988 1.676h-5.844a3.498 3.498 0 011.225-1.697 3.108 3.108 0 011.912-.645zm32.355 0c.66 0 1.233.222 1.72.666.5.43.83.988.988 1.676h-5.844a3.502 3.502 0 011.224-1.697 3.111 3.111 0 011.912-.645zM164.951 57.39a.912.912 0 00-.838.473l-1.74 3.051a.932.932 0 00-.129.494c0 .272.093.502.28.688a.938.938 0 00.689.279c.372 0 .65-.164.836-.494l1.74-3.05a.972.972 0 00.13-.474.94.94 0 00-.28-.687.932.932 0 00-.688-.28zm23.87 5.672c-.387 0-.724.136-1.01.409a1.346 1.346 0 00-.409.988c0 .387.137.716.409.988a1.42 1.42 0 001.01.408c.386 0 .708-.136.966-.408.272-.272.408-.601.408-.988s-.136-.716-.408-.988a1.275 1.275 0 00-.967-.408zm-25.76.108c-.416 0-.71.2-.881.601l-5.842 13.88a1.364 1.364 0 00-.086.365c0 .415.199.71.6.88.172.058.295.086.367.086.43 0 .728-.2.9-.601l1.547-3.695h6.79l1.548 3.695c.172.4.471.601.9.601.072 0 .194-.028.366-.086.4-.17.601-.464.601-.88 0-.072-.029-.194-.086-.366l-5.844-13.879c-.172-.4-.465-.601-.88-.601zm12.955.088c-1.031 0-1.862.322-2.493.967-.616.644-.923 1.446-.923 2.406v1.394h-1.246a.93.93 0 00-.686.28.934.934 0 00-.281.687c0 .272.094.501.281.688a.93.93 0 00.686.28h1.246v8.077c0 .272.094.502.28.688a.93.93 0 00.686.28.934.934 0 00.688-.28.932.932 0 00.28-.688v-8.076h2.148c.272 0 .5-.093.687-.28a.94.94 0 00.281-.689.93.93 0 00-.28-.685.933.933 0 00-.688-.282h-2.149v-1.394c0-.459.13-.811.389-1.055.272-.258.636-.387 1.094-.387.344 0 .615.072.816.215.186.13.373.196.559.196a.932.932 0 00.687-.282.928.928 0 00.28-.685c0-.459-.257-.804-.772-1.033a3.744 3.744 0 00-1.57-.342zm-12.953 3.37l2.576 6.124h-5.157l2.58-6.123zm22.04 1.226c-1.417 0-2.635.465-3.652 1.396v-.387a.933.933 0 00-.277-.687.938.938 0 00-.69-.28c-.272 0-.5.093-.685.28a.934.934 0 00-.281.687v9.153c0 .272.094.5.28.687a.93.93 0 00.686.28.932.932 0 00.688-.28.932.932 0 00.28-.687v-4.19c0-1.131.338-2.084 1.01-2.857.688-.788 1.568-1.182 2.642-1.182a.94.94 0 00.689-.28.934.934 0 00.28-.687.932.932 0 00-.28-.687.938.938 0 00-.69-.28zm12.485.042c-1.519 0-2.817.545-3.89 1.633-1.06 1.089-1.59 2.4-1.59 3.932 0 1.533.53 2.844 1.59 3.932 1.073 1.088 2.371 1.632 3.89 1.632a5.296 5.296 0 003.07-.945c.287-.186.432-.458.432-.816a.94.94 0 00-.281-.688.935.935 0 00-.688-.28c-.2 0-.378.058-.535.173a3.441 3.441 0 01-1.998.623c-.974 0-1.814-.35-2.516-1.053-.687-.716-1.029-1.575-1.029-2.578s.342-1.855 1.03-2.557c.701-.716 1.54-1.074 2.515-1.074.73 0 1.396.208 1.998.623a.886.886 0 00.535.172.935.935 0 00.688-.28.935.935 0 00.28-.687c0-.358-.144-.63-.43-.816a5.29 5.29 0 00-3.071-.946zm10.29 0c-1.474 0-2.736.551-3.782 1.655-1.031 1.088-1.545 2.391-1.545 3.91 0 1.518.514 2.829 1.545 3.932 1.046 1.088 2.308 1.632 3.783 1.632 1.274 0 2.39-.423 3.35-1.267v.086c0 .271.085.5.257.687.186.187.417.28.69.28a.93.93 0 00.685-.28.902.902 0 00.301-.687v-8.766c0-.272-.1-.501-.3-.687a.928.928 0 00-.686-.28.94.94 0 00-.69.28.976.976 0 00-.257.687v.086a4.908 4.908 0 00-3.35-1.268zm-19.034.086a.938.938 0 00-.69.28.975.975 0 00-.258.687v9.045c0 .272.086.502.258.688a.939.939 0 00.69.279c.272 0 .5-.093.687-.28a.901.901 0 00.3-.687V68.95a.903.903 0 00-.302-.687.928.928 0 00-.685-.28zm19.035 1.848c.917 0 1.703.35 2.361 1.053.659.701.989 1.56.989 2.578 0 1.017-.33 1.876-.989 2.578-.658.702-1.444 1.053-2.361 1.053-.917 0-1.713-.35-2.387-1.053-.673-.702-1.01-1.561-1.01-2.578s.337-1.877 1.01-2.578c.674-.702 1.47-1.053 2.387-1.053zm153.668 64.348a.934.934 0 00-.688.279.934.934 0 00-.28.688v13.578c0 .272.094.5.28.685a.936.936 0 00.688.281h7.95a.935.935 0 00.687-.279.934.934 0 00.279-.687.932.932 0 00-.28-.688.932.932 0 00-.687-.28h-6.982v-5.413h6.144a.932.932 0 00.688-.28.932.932 0 00.279-.687.933.933 0 00-.28-.688.933.933 0 00-.687-.279h-6.144v-4.297h6.982a.935.935 0 00.688-.279.934.934 0 00.279-.687.932.932 0 00-.28-.688.932.932 0 00-.687-.28h-7.95zm29.95 4.533c-1.419 0-2.637.466-3.653 1.396v-.386a.934.934 0 00-.28-.688.932.932 0 00-.687-.28.932.932 0 00-.688.28.932.932 0 00-.279.688v9.152c0 .271.093.5.28.688a.934.934 0 00.687.279.932.932 0 00.687-.28.935.935 0 00.28-.687v-4.19c0-1.131.336-2.085 1.01-2.859.688-.786 1.568-1.18 2.642-1.18a.932.932 0 00.688-.279.931.931 0 00.279-.687.934.934 0 00-.28-.688.932.932 0 00-.687-.28zm-17.167.043c-.273 0-.509.093-.709.28a.935.935 0 00-.28.687v4.597c0 1.834.302 3.223.903 4.168.616.932 1.59 1.397 2.922 1.397 1.403 0 2.65-.48 3.738-1.44v.43c0 .271.086.5.258.688a.936.936 0 00.688.279c.272 0 .5-.093.687-.28a.9.9 0 00.3-.687v-9.152c0-.272-.1-.501-.3-.688a.931.931 0 00-.687-.28.938.938 0 00-.688.28.975.975 0 00-.258.688v4.597c0 2.421-1.246 3.631-3.738 3.631-.745 0-1.246-.286-1.504-.86-.257-.586-.387-1.474-.387-2.663v-4.705a.934.934 0 00-.279-.688.864.864 0 00-.666-.28zm24.277 0c-1.475 0-2.735.55-3.78 1.654-1.032 1.089-1.548 2.392-1.548 3.91 0 1.518.516 2.829 1.547 3.932 1.046 1.088 2.306 1.633 3.781 1.633 1.476 0 2.721-.545 3.739-1.633 1.03-1.103 1.547-2.414 1.547-3.932 0-1.518-.517-2.821-1.547-3.91-1.018-1.103-2.263-1.654-3.739-1.654zm8.723 0a.932.932 0 00-.687.28.932.932 0 00-.28.687v13.105c0 .272.094.501.28.688a.934.934 0 00.687.279.932.932 0 00.688-.28.932.932 0 00.279-.687v-4.19c.974.831 2.077 1.247 3.308 1.247 1.447 0 2.678-.545 3.696-1.633 1.031-1.103 1.547-2.414 1.547-3.932 0-1.518-.516-2.821-1.547-3.91-1.018-1.103-2.249-1.654-3.696-1.654-1.232 0-2.335.415-3.308 1.246v-.28c0-.27-.093-.5-.28-.687a.932.932 0 00-.687-.28zm16.693 0c-1.475 0-2.735.552-3.78 1.654-1.032 1.089-1.548 2.392-1.548 3.91 0 1.518.516 2.829 1.547 3.932 1.046 1.088 2.306 1.633 3.781 1.633a4.917 4.917 0 003.352-1.268v.086c0 .272.086.502.258.688a.934.934 0 00.687.279.934.934 0 00.688-.28.9.9 0 00.3-.687v-8.765c0-.272-.1-.502-.3-.688a.933.933 0 00-.688-.28.932.932 0 00-.687.28.975.975 0 00-.258.688v.085a4.914 4.914 0 00-3.352-1.267zM230.95 140c-1.16 0-2.07.401-2.728 1.203-.645.788-.967 1.776-.967 2.965 0 1.189.322 2.191.967 3.008.658.802 1.568 1.203 2.728 1.203 1.16 0 2.063-.401 2.707-1.203.645-.817.967-1.82.967-3.008 0-1.189-.322-2.177-.967-2.965-.644-.802-1.547-1.203-2.707-1.203zm11.065 0c-.344 0-.609.129-.795.387l-11.11 14.394a.943.943 0 00-.191.58c0 .272.091.501.277.688.186.2.423.3.71.3.357 0 .622-.12.794-.365l11.112-14.394a.976.976 0 00.193-.602c0-.272-.093-.5-.28-.687a.927.927 0 00-.708-.301h-.002zm-35.643.172c-1.131 0-2.313.387-3.545 1.16-1.217.773-1.826 1.533-1.826 2.277 0 .244.086.473.258.688.186.2.43.3.73.3.358 0 .659-.193.903-.58.358-.53.88-.973 1.568-1.331.688-.36 1.325-.538 1.912-.538.817 0 1.518.222 2.106.666.586.444.88 1.06.88 1.848 0 .43-.322.939-.966 1.525-.273.258-1.203.938-2.793 2.042-1.404.987-2.421 1.86-3.051 2.62-1.031 1.26-1.547 2.621-1.547 4.083 0 .286.093.523.28.709.2.186.436.279.708.279h8.766c.272 0 .5-.093.687-.28a.924.924 0 00.301-.708.93.93 0 00-.3-.71.932.932 0 00-.688-.279h-7.649c.158-.601.48-1.203.967-1.804.53-.645 1.426-1.411 2.686-2.3.142-.1.45-.308.924-.622.487-.33.881-.609 1.181-.838a11.4 11.4 0 00.86-.688c1.088-.96 1.632-1.969 1.632-3.029 0-1.232-.472-2.285-1.417-3.158-.931-.888-2.12-1.332-3.567-1.332zm13.191 0c-1.13 0-2.313.387-3.544 1.16-1.218.773-1.827 1.533-1.827 2.277 0 .244.086.473.258.688.186.2.43.3.73.3.359 0 .66-.193.903-.58.359-.53.882-.973 1.568-1.331.688-.36 1.326-.538 1.912-.538.818 0 1.52.222 2.106.666.587.444.88 1.06.88 1.848 0 .43-.321.939-.966 1.525-.272.258-1.203.938-2.793 2.042-1.403.987-2.42 1.86-3.05 2.62-1.032 1.26-1.548 2.621-1.548 4.083 0 .286.094.523.28.709.2.186.436.279.709.279h8.765a.934.934 0 00.688-.28c.2-.185.3-.422.3-.708a.93.93 0 00-.3-.71.931.931 0 00-.688-.279h-7.648c.158-.601.48-1.203.967-1.804.53-.645 1.425-1.411 2.685-2.3.144-.1.451-.308.924-.622.487-.33.882-.609 1.182-.838.315-.23.601-.459.86-.688 1.088-.96 1.632-1.969 1.632-3.029 0-1.232-.473-2.285-1.418-3.158-.931-.888-2.12-1.332-3.566-1.332zm179.045.516c.917 0 1.704.35 2.364 1.052.658.702.988 1.562.988 2.578 0 1.017-.33 1.876-.988 2.578-.66.702-1.447 1.053-2.364 1.053-.916 0-1.711-.35-2.384-1.053-.674-.702-1.01-1.561-1.01-2.578 0-1.016.336-1.876 1.01-2.578.672-.702 1.468-1.053 2.384-1.053zm12.998 0c.917 0 1.698.35 2.342 1.052.645.702.967 1.562.967 2.578 0 1.017-.322 1.876-.967 2.578-.644.702-1.425 1.053-2.342 1.053-.916 0-1.697-.35-2.341-1.053-.645-.702-.967-1.561-.967-2.578 0-1.016.322-1.876.967-2.578.644-.702 1.425-1.053 2.341-1.053zm12.418 0c.917 0 1.704.35 2.364 1.052.658.702.988 1.562.988 2.578 0 1.017-.33 1.876-.988 2.578-.66.702-1.447 1.053-2.364 1.053-.916 0-1.711-.35-2.384-1.053-.674-.702-1.01-1.561-1.01-2.578 0-1.016.336-1.876 1.01-2.578.672-.702 1.468-1.053 2.384-1.053zm-193.074 1.289c.358 0 .66.079.903.236.243.157.415.365.515.623.115.243.186.473.215.687a3.307 3.307 0 010 1.29c-.029.214-.1.458-.215.73a1.28 1.28 0 01-.515.623c-.244.157-.545.236-.903.236s-.659-.079-.902-.236a1.413 1.413 0 01-.537-.623 4.88 4.88 0 01-.215-.73 3.308 3.308 0 010-1.29c.043-.214.115-.444.215-.687.114-.258.294-.466.537-.623.243-.157.544-.236.902-.236zm-181.836 5.65a.912.912 0 00-.838.473l-1.74 3.05a.933.933 0 00-.13.495c0 .27.094.5.28.687.187.186.415.28.688.28.372 0 .652-.165.838-.495l1.738-3.05a.976.976 0 00.131-.473.932.932 0 00-.28-.688.932.932 0 00-.687-.28zm192.88.365c-1.16 0-2.07.401-2.73 1.203-.644.802-.966 1.797-.966 2.987 0 1.188.322 2.184.967 2.986.658.788 1.568 1.182 2.728 1.182 1.16 0 2.063-.394 2.707-1.182.645-.802.967-1.798.967-2.986 0-1.19-.322-2.185-.967-2.987-.644-.802-1.547-1.203-2.707-1.203zm-178.464.774a1.42 1.42 0 00-1.01.408 1.346 1.346 0 00-.408.988c0 .387.137.716.409.988a1.42 1.42 0 001.01.409c.386 0 .708-.137.966-.409.272-.272.408-.601.408-.988s-.136-.716-.408-.988a1.277 1.277 0 00-.967-.408zm-49.158.107c-.415 0-.707.202-.879.602l-5.844 13.879a1.358 1.358 0 00-.085.365c0 .415.2.709.601.88.171.058.293.087.365.087.43 0 .73-.2.903-.602l1.547-3.695h6.789l1.546 3.695c.172.401.473.602.903.602.072 0 .193-.028.365-.086.4-.172.602-.466.602-.881 0-.072-.029-.194-.086-.365l-5.844-13.88c-.171-.4-.467-.6-.883-.6zm227.621 1.117c.358 0 .66.079.903.237.243.157.415.365.515.623.115.243.186.472.215.687a3.297 3.297 0 010 1.29c-.029.214-.1.45-.215.708-.1.243-.272.444-.515.602-.244.157-.545.236-.903.236s-.659-.078-.902-.236a1.447 1.447 0 01-.537-.602 4.273 4.273 0 01-.215-.709 3.252 3.252 0 010-1.289c.043-.215.115-.444.215-.687.114-.258.294-.466.537-.623.243-.158.544-.237.902-.237zm-227.619 2.342l2.578 6.123h-5.156l2.578-6.123zm45.44 1.225c-1.419 0-2.636.465-3.653 1.396v-.387c0-.272-.092-.5-.28-.687a.932.932 0 00-.687-.28.932.932 0 00-.687.28.931.931 0 00-.28.687v9.153c0 .272.094.501.28.687.187.187.415.28.687.28a.932.932 0 00.688-.28.933.933 0 00.277-.687v-4.19c0-1.131.339-2.084 1.012-2.857.688-.787 1.569-1.182 2.642-1.182.273 0 .5-.092.686-.28a.934.934 0 00.281-.687c0-.272-.093-.5-.279-.685a.935.935 0 00-.688-.281zm-31.024.043c-.702 0-1.37.193-2 .58-.63.386-1.116.866-1.459 1.44v-1.01a.933.933 0 00-.28-.688.932.932 0 00-.687-.28.932.932 0 00-.687.28.931.931 0 00-.28.687v9.153c0 .272.094.501.28.687a.93.93 0 00.687.28.932.932 0 00.688-.28.932.932 0 00.28-.687v-4.598c0-1.031.314-1.89.944-2.578.645-.702 1.483-1.053 2.514-1.053.343 0 .623.087.838.26.23.157.394.398.494.728.1.315.165.638.193.967.043.316.065.71.065 1.182v5.092a.93.93 0 00.28.687.93.93 0 00.687.28c.272 0 .5-.093.685-.28a.98.98 0 00.282-.687v-4.64c0-1.104.315-1.977.945-2.622.63-.645 1.468-.967 2.513-.967.358 0 .652.079.881.237.229.157.386.408.473.751.1.344.165.68.193 1.01.028.33.041.78.041 1.354v4.877c0 .272.095.501.282.687a.93.93 0 00.687.28.936.936 0 00.688-.28.935.935 0 00.279-.687v-4.598c0-.845-.05-1.575-.15-2.191a6.124 6.124 0 00-.495-1.72 2.442 2.442 0 00-1.074-1.224c-.487-.286-1.089-.43-1.805-.43-1.546 0-2.814.567-3.802 1.698-.545-1.131-1.605-1.697-3.18-1.697zm18.24 0c-1.461 0-2.707.551-3.738 1.654-1.031 1.089-1.547 2.392-1.547 3.91 0 1.519.516 2.829 1.547 3.932 1.03 1.088 2.277 1.633 3.738 1.633 1.69 0 3.058-.451 4.104-1.354a.92.92 0 00.322-.73.93.93 0 00-.28-.688c-.17-.187-.4-.28-.687-.28a.944.944 0 00-.623.237c-.358.33-.716.558-1.074.688-.359.128-.946.193-1.762.193-.816 0-1.532-.28-2.148-.838-.615-.573-.995-1.29-1.139-2.148h7.069c.272 0 .5-.093.685-.28a.934.934 0 00.281-.687c0-1.404-.422-2.629-1.267-3.674-.83-1.045-1.991-1.568-3.48-1.568zm25.266 0c-1.518 0-2.815.544-3.889 1.632-1.06 1.088-1.59 2.4-1.59 3.932 0 1.533.53 2.843 1.59 3.932 1.074 1.088 2.37 1.633 3.889 1.633a5.288 5.288 0 003.07-.946c.287-.186.432-.458.432-.816a.932.932 0 00-.28-.688.932.932 0 00-.687-.279c-.2 0-.38.057-.537.172a3.44 3.44 0 01-1.998.623c-.973 0-1.813-.35-2.516-1.053-.686-.716-1.029-1.575-1.029-2.578s.344-1.855 1.031-2.557c.702-.716 1.54-1.074 2.514-1.074.73 0 1.396.208 1.998.623a.885.885 0 00.537.172c.271 0 .5-.093.688-.28a.931.931 0 00.279-.687c0-.357-.143-.63-.43-.816a5.3 5.3 0 00-3.072-.945zm10.29 0c-1.474 0-2.734.551-3.78 1.654-1.032 1.089-1.547 2.392-1.547 3.91 0 1.519.515 2.829 1.547 3.932 1.045 1.088 2.306 1.633 3.78 1.633a4.914 4.914 0 003.353-1.268v.086c0 .272.085.501.257.687.186.187.416.28.688.28.272 0 .5-.094.687-.28a.902.902 0 00.3-.687v-8.766c0-.271-.1-.5-.3-.687a.931.931 0 00-.687-.28.934.934 0 00-.688.28.975.975 0 00-.257.687v.086a4.915 4.915 0 00-3.352-1.267zm-19.034.086a.934.934 0 00-.688.279.975.975 0 00-.258.687v9.045c0 .272.086.501.258.688.186.186.416.28.688.28.272 0 .5-.094.687-.28a.9.9 0 00.301-.688v-9.045h-.002c0-.271-.099-.5-.299-.687a.931.931 0 00-.687-.28zm-16.524 1.847c.66 0 1.234.222 1.721.666.501.43.831.989.988 1.676h-5.843a3.498 3.498 0 011.224-1.697 3.104 3.104 0 011.91-.645zm35.559 0c.917 0 1.704.35 2.363 1.053.659.702.989 1.561.989 2.578s-.33 1.877-.989 2.578c-.66.702-1.446 1.053-2.363 1.053-.916 0-1.711-.35-2.385-1.053-.673-.701-1.01-1.56-1.01-2.578 0-1.017.337-1.876 1.01-2.578s1.468-1.053 2.385-1.053zM309.736 172c-1.16 0-2.07.401-2.728 1.203-.645.788-.967 1.776-.967 2.965 0 1.189.322 2.191.967 3.008.658.802 1.568 1.203 2.728 1.203 1.161 0 2.063-.401 2.707-1.203.645-.817.967-1.82.967-3.008 0-1.189-.322-2.177-.967-2.965-.644-.802-1.547-1.203-2.707-1.203zm11.067 0c-.344 0-.609.129-.795.387l-11.11 14.394a.945.945 0 00-.193.58c0 .272.093.501.28.688.185.2.422.3.708.3.358 0 .623-.12.795-.365l11.11-14.394a.972.972 0 00.193-.602c0-.272-.093-.5-.28-.687a.927.927 0 00-.708-.301zm-22.453.236c-1.347 0-2.486.4-3.416 1.203-.932.803-1.397 1.87-1.397 3.202 0 1.403.53 2.52 1.59 3.351-1.418.903-2.127 2.106-2.127 3.61 0 1.346.544 2.435 1.633 3.265a6.023 6.023 0 003.717 1.246 5.935 5.935 0 003.695-1.246c1.103-.83 1.654-1.919 1.654-3.265 0-1.52-.702-2.722-2.105-3.61 1.045-.816 1.568-1.933 1.568-3.351 0-1.332-.466-2.399-1.396-3.202-.931-.802-2.07-1.203-3.416-1.203zm11.386 1.74c.358 0 .66.08.903.237.243.157.415.365.515.623.115.243.186.473.215.687a3.257 3.257 0 010 1.29c-.029.214-.1.458-.215.73a1.28 1.28 0 01-.515.623c-.244.157-.545.236-.903.236s-.659-.079-.902-.236a1.413 1.413 0 01-.537-.623 5.041 5.041 0 01-.215-.73 3.307 3.307 0 010-1.29c.043-.214.115-.444.215-.687.115-.258.294-.466.537-.623.243-.157.544-.236.902-.236zm-11.386.237c.844 0 1.525.23 2.04.687.53.444.796 1.024.796 1.74 0 .717-.265 1.297-.795 1.74-.516.445-1.197.667-2.041.667-.846 0-1.533-.221-2.063-.666-.515-.443-.773-1.024-.773-1.74s.258-1.297.773-1.74c.53-.459 1.217-.688 2.063-.688zm22.43 5.78c-1.16 0-2.07.4-2.73 1.202-.644.802-.966 1.797-.966 2.987 0 1.188.322 2.184.967 2.986.658.788 1.568 1.182 2.728 1.182 1.161 0 2.063-.394 2.707-1.182.645-.802.967-1.798.967-2.986 0-1.19-.322-2.185-.967-2.987-.644-.802-1.547-1.203-2.707-1.203zm-22.43 1.095c.859 0 1.633.236 2.32.709.702.473 1.053 1.074 1.053 1.805 0 .73-.35 1.34-1.053 1.826a3.992 3.992 0 01-2.32.709 4.003 4.003 0 01-2.32-.71c-.688-.487-1.032-1.095-1.032-1.825 0-.731.343-1.332 1.031-1.805a3.992 3.992 0 012.32-.71zm22.43.902c.357 0 .658.079.902.237.243.157.415.365.515.623.115.243.186.472.215.687a3.247 3.247 0 010 1.29c-.029.214-.1.45-.215.708-.1.243-.272.444-.515.602-.244.157-.545.236-.903.236s-.659-.078-.902-.236a1.447 1.447 0 01-.537-.602 4.403 4.403 0 01-.215-.709 3.252 3.252 0 010-1.289c.043-.215.115-.444.215-.687.115-.258.294-.466.537-.623.243-.158.544-.237.902-.237zm131.476 13.55a.914.914 0 00-.838.474l-1.74 3.048a.942.942 0 00-.131.497.93.93 0 00.28.685c.185.186.416.28.689.28.372 0 .65-.165.836-.495l1.74-3.05a.967.967 0 00.13-.471.934.934 0 00-.28-.688.93.93 0 00-.686-.28zm-60.18 1.202c-2.191 0-3.946.723-5.264 2.17-1.303 1.447-1.955 3.373-1.955 5.78 0 2.406.652 4.334 1.955 5.78 1.318 1.447 3.074 2.17 5.266 2.17 2.19 0 3.931-.717 5.22-2.15 1.304-1.446 1.956-3.379 1.956-5.799 0-2.421-.653-4.349-1.957-5.78-1.289-1.448-3.03-2.17-5.22-2.17zm.002 1.936c.945 0 1.769.178 2.47.535.717.359 1.267.838 1.653 1.44.387.6.666 1.238.838 1.911.187.674.281 1.383.281 2.127a7.95 7.95 0 01-.28 2.127 6.484 6.484 0 01-.839 1.912c-.386.602-.937 1.084-1.654 1.442-.701.358-1.525.535-2.47.535-.946 0-1.775-.177-2.491-.535-.716-.358-1.268-.84-1.654-1.442a6.932 6.932 0 01-.86-1.912 7.92 7.92 0 01-.279-2.127c0-.744.091-1.453.277-2.127a6.954 6.954 0 01.862-1.91c.386-.602.938-1.081 1.654-1.44.716-.357 1.546-.536 2.492-.536zm50.016 2.79c-1.476 0-2.76.48-3.848 1.44v-.43a.931.931 0 00-.277-.685.94.94 0 00-.69-.281.93.93 0 00-.685.281.93.93 0 00-.281.686v9.154c0 .272.094.5.28.685a.93.93 0 00.686.282.934.934 0 00.688-.282.928.928 0 00.28-.685v-4.6c0-.96.38-1.804 1.14-2.535.758-.73 1.66-1.096 2.707-1.096.3 0 .557.05.771.15.23.087.409.23.537.43.13.202.237.404.323.604.086.2.143.457.171.771.044.302.067.561.067.776.014.2.02.465.02.795v4.705c0 .272.094.5.28.685a.93.93 0 00.686.282.934.934 0 00.688-.282.93.93 0 00.281-.685v-4.6c0-1.833-.31-3.214-.926-4.144-.601-.946-1.566-1.42-2.898-1.42zm-35.45.046c-1.518 0-2.814.543-3.888 1.63-1.06 1.09-1.592 2.4-1.592 3.932 0 1.533.53 2.845 1.59 3.934 1.075 1.088 2.372 1.633 3.89 1.633a5.291 5.291 0 003.07-.948c.288-.186.43-.456.43-.814h.002a.934.934 0 00-.28-.688.93.93 0 00-.686-.28.886.886 0 00-.537.173 3.44 3.44 0 01-1.998.621c-.974 0-1.813-.35-2.516-1.053-.687-.716-1.03-1.575-1.03-2.578 0-1.002.345-1.854 1.032-2.556.702-.716 1.54-1.075 2.514-1.075.73 0 1.396.208 1.998.623a.886.886 0 00.537.174.93.93 0 00.685-.28.937.937 0 00.281-.689c0-.357-.143-.63-.43-.816a5.3 5.3 0 00-3.071-.943zm10.096 0c-1.46 0-2.705.551-3.736 1.654-1.031 1.089-1.549 2.39-1.549 3.908 0 1.518.518 2.83 1.549 3.934 1.031 1.088 2.276 1.633 3.736 1.633 1.69 0 3.06-.453 4.106-1.356a.919.919 0 00.322-.728.933.933 0 00-.28-.688c-.171-.187-.402-.28-.689-.28a.942.942 0 00-.623.235c-.358.33-.714.56-1.072.69-.358.128-.947.191-1.764.191-.816 0-1.53-.28-2.146-.838a3.672 3.672 0 01-1.14-2.146h7.067a.94.94 0 00.69-.282.928.928 0 00.28-.685h-.003c0-1.404-.422-2.63-1.267-3.676-.83-1.045-1.99-1.566-3.48-1.566zm11.86 0c-1.475 0-2.736.552-3.782 1.654-1.031 1.089-1.547 2.39-1.547 3.908 0 1.519.516 2.831 1.547 3.934 1.046 1.088 2.308 1.633 3.784 1.633 1.274 0 2.39-.425 3.35-1.27v.088c0 .272.087.5.259.685a.93.93 0 00.685.282.94.94 0 00.69-.282.897.897 0 00.299-.685v-8.768a.9.9 0 00-.3-.685.938.938 0 00-.689-.281.932.932 0 00-.685.28.972.972 0 00-.26.686v.086a4.913 4.913 0 00-3.35-1.265h-.001zm30.4 0c-1.475 0-2.734.551-3.78 1.654-1.03 1.089-1.546 2.39-1.546 3.908 0 1.519.515 2.831 1.547 3.934 1.045 1.088 2.306 1.633 3.781 1.633 1.275 0 2.392-.425 3.352-1.27v.088c0 .272.084.5.255.685a.94.94 0 00.69.282c.272 0 .5-.095.687-.282a.897.897 0 00.3-.685v-8.768a.897.897 0 00-.302-.685.93.93 0 00-.685-.281.94.94 0 00-.69.28.972.972 0 00-.255.686v.086a4.92 4.92 0 00-3.354-1.265zm-8.914.084a.94.94 0 00-.69.28.972.972 0 00-.255.686v9.045c0 .272.084.503.255.69.187.186.418.28.69.28.272 0 .5-.094.687-.28a.904.904 0 00.3-.69v-9.045c0-.27-.1-.498-.302-.685a.93.93 0 00-.685-.281zm-33.346 1.847c.66 0 1.234.222 1.72.666.502.43.83.989.987 1.676h-5.843a3.493 3.493 0 011.224-1.695 3.11 3.11 0 011.912-.647zm11.862 0c.916 0 1.704.351 2.363 1.053s.986 1.562.986 2.578c0 1.018-.327 1.877-.986 2.578-.659.702-1.447 1.053-2.363 1.053-.917 0-1.712-.35-2.385-1.053-.674-.701-1.012-1.56-1.012-2.578 0-1.016.338-1.876 1.012-2.578.673-.702 1.468-1.053 2.385-1.053zm30.4 0c.917 0 1.703.351 2.361 1.053.66.702.99 1.562.99 2.578 0 1.018-.33 1.877-.99 2.578-.658.702-1.444 1.053-2.361 1.053-.917 0-1.713-.35-2.387-1.053-.673-.701-1.01-1.56-1.01-2.578 0-1.016.337-1.876 1.01-2.578.674-.702 1.47-1.053 2.387-1.053zM328.758 215c-1.16 0-2.07.401-2.729 1.203-.644.788-.966 1.776-.966 2.965 0 1.189.322 2.191.966 3.008.66.802 1.569 1.203 2.729 1.203 1.16 0 2.062-.401 2.707-1.203.645-.817.967-1.82.967-3.008 0-1.189-.322-2.177-.967-2.965-.645-.802-1.547-1.203-2.707-1.203zm11.064 0c-.343 0-.608.129-.795.387L327.92 229.78a.945.945 0 00-.193.58c0 .272.094.501.279.688.187.2.422.3.709.3.358 0 .623-.12.795-.365l11.107-14.394a.972.972 0 00.194-.602c0-.272-.094-.5-.28-.687a.928.928 0 00-.709-.301zm-26.834.408c-.272 0-.509.093-.709.28a.957.957 0 00-.279.708.96.96 0 00.28.71c.2.186.436.279.708.279h7.069l-6.94 12.224a.95.95 0 00-.15.473.96.96 0 00.28.709.96.96 0 00.708.28c.401 0 .688-.165.86-.495l7.798-13.685a1.01 1.01 0 00.13-.495c0-.27-.093-.5-.28-.687a.924.924 0 00-.71-.3h-8.765zm15.77 1.569c.358 0 .659.079.902.236.244.157.416.365.516.623.114.243.186.473.215.687a3.307 3.307 0 010 1.29c-.029.214-.1.458-.215.73-.1.258-.273.466-.516.623-.243.157-.544.236-.902.236s-.659-.079-.903-.236a1.413 1.413 0 01-.537-.623 4.96 4.96 0 01-.214-.73 3.256 3.256 0 010-1.29c.042-.214.114-.444.214-.687.115-.258.294-.466.537-.623.244-.157.545-.236.903-.236zm11.043 6.015c-1.16 0-2.07.401-2.729 1.203-.644.802-.967 1.797-.967 2.987 0 1.188.323 2.184.967 2.986.66.788 1.569 1.182 2.729 1.182 1.16 0 2.062-.394 2.707-1.182.644-.802.967-1.798.967-2.986 0-1.19-.323-2.185-.967-2.987-.645-.802-1.547-1.203-2.707-1.203zm0 1.998c.358 0 .659.079.902.237.244.157.416.365.516.623.114.243.186.472.215.687a3.297 3.297 0 010 1.29c-.03.214-.1.45-.215.708-.1.243-.273.444-.516.602-.243.157-.544.236-.902.236s-.659-.078-.903-.236a1.447 1.447 0 01-.537-.602 4.404 4.404 0 01-.215-.709 3.303 3.303 0 010-1.289c.044-.215.115-.444.215-.687.115-.258.294-.466.537-.623.244-.158.545-.237.903-.237zm-213.45 18.934c-1.16 0-2.071.4-2.73 1.203-.645.788-.967 1.776-.967 2.965 0 1.188.322 2.19.967 3.008.66.802 1.57 1.203 2.73 1.203s2.063-.401 2.708-1.203c.644-.817.964-1.82.964-3.008 0-1.189-.32-2.177-.964-2.965-.645-.802-1.547-1.203-2.707-1.203zm11.063 0c-.343 0-.608.129-.795.387l-11.105 14.394a.943.943 0 00-.196.58c0 .272.094.501.28.688.186.2.424.3.71.3.359 0 .624-.121.796-.365l11.107-14.394a.972.972 0 00.193-.602c0-.272-.094-.5-.28-.687a.927.927 0 00-.71-.301zm-36.05.215c-.874 0-1.862.243-2.966.73-1.088.487-1.63 1.06-1.63 1.719a.96.96 0 00.277.709c.187.187.424.28.71.28.244 0 .51-.144.796-.43.2-.2.593-.423 1.18-.667.587-.243 1.13-.365 1.632-.365.473 0 .883.029 1.227.086a3.83 3.83 0 011.053.301c.357.144.627.38.814.709.186.33.28.745.28 1.246 0 .515-.086.916-.258 1.203-.158.287-.43.537-.817.752-.573.33-1.76.494-3.564.494a.91.91 0 00-.69.301.958.958 0 00-.28.709c0 .272.094.502.28.688a.939.939 0 00.69.279c1.833 0 3.108.179 3.824.537.816.415 1.223 1.167 1.223 2.256 0 1.59-1.261 2.385-3.782 2.385-.73 0-1.388-.143-1.974-.43-.574-.3-.933-.601-1.076-.902-.2-.387-.502-.58-.903-.58a.955.955 0 00-.707.279c-.187.172-.28.408-.28.709 0 .672.516 1.324 1.548 1.955a6.453 6.453 0 003.392.945c.76 0 1.469-.072 2.127-.215a7.051 7.051 0 001.828-.709 3.45 3.45 0 001.31-1.375c.33-.587.493-1.275.493-2.062 0-.817-.213-1.569-.642-2.256-.416-.702-.96-1.232-1.633-1.59 1.26-.83 1.888-1.955 1.888-3.373 0-1.504-.487-2.6-1.46-3.287-.96-.687-2.264-1.031-3.91-1.031zm13.945.043c-.187 0-.367.05-.54.15l-3.738 2.406c-.3.201-.45.48-.45.838 0 .273.094.51.28.71.2.185.444.278.73.278.115 0 .286-.064.514-.193l2.194-1.396v10.892h-2.065a.957.957 0 00-.988.988.96.96 0 00.28.71.958.958 0 00.708.279h6.123a.94.94 0 00.69-.28.926.926 0 00.299-.709.926.926 0 00-.3-.709.936.936 0 00-.689-.279h-2.06V245.17h-.002c0-.272-.1-.5-.3-.688a.899.899 0 00-.686-.3zm11.043 1.718c.358 0 .657.079.9.237h.002c.244.157.416.365.516.623.114.243.184.473.212.687.044.216.067.43.067.645 0 .214-.023.429-.067.644a2.924 2.924 0 01-.212.73 1.29 1.29 0 01-.516.624c-.243.157-.544.236-.902.236-.36 0-.661-.079-.905-.236a1.416 1.416 0 01-.537-.623 4.996 4.996 0 01-.215-.73 3.3 3.3 0 010-1.29c.044-.214.115-.444.215-.687.115-.258.294-.466.537-.623.244-.158.546-.237.905-.237zm11.043 6.016c-1.161 0-2.072.4-2.73 1.203-.646.802-.968 1.798-.968 2.986 0 1.19.322 2.185.967 2.987.66.787 1.57 1.181 2.73 1.181s2.063-.394 2.708-1.181c.644-.802.964-1.797.964-2.987 0-1.188-.32-2.184-.964-2.986-.645-.802-1.547-1.203-2.707-1.203zm0 1.998c.358 0 .657.08.9.236h.002c.244.158.416.366.516.623.114.244.184.473.212.688.044.215.067.43.067.644 0 .216-.023.43-.067.645a2.638 2.638 0 01-.213.709c-.1.243-.272.444-.515.602-.243.157-.544.236-.902.236-.36 0-.661-.08-.905-.236a1.447 1.447 0 01-.537-.602 4.383 4.383 0 01-.215-.709 3.294 3.294 0 010-1.29c.044-.214.115-.443.215-.687a1.42 1.42 0 01.537-.623c.244-.157.546-.236.905-.236zM296.928 318c-1.16 0-2.07.401-2.729 1.203-.644.788-.967 1.776-.967 2.965 0 1.189.323 2.191.967 3.008.66.802 1.569 1.203 2.729 1.203 1.16 0 2.062-.401 2.707-1.203.644-.817.967-1.82.967-3.008 0-1.189-.323-2.177-.967-2.965-.645-.802-1.547-1.203-2.707-1.203zm11.064 0c-.343 0-.608.129-.795.387L296.09 332.78a.94.94 0 00-.194.58c0 .272.094.501.28.688.186.2.422.3.709.3.358 0 .623-.12.795-.365l11.107-14.394a.976.976 0 00.193-.602c0-.272-.093-.5-.279-.687a.928.928 0 00-.709-.301zm-22.451.172c-1.131 0-2.313.387-3.545 1.16-1.217.773-1.826 1.533-1.826 2.277 0 .244.086.473.258.688.186.2.43.3.73.3.358 0 .659-.193.903-.58.358-.53.88-.973 1.568-1.331.688-.36 1.325-.538 1.912-.538.817 0 1.518.222 2.105.666.587.444.881 1.06.881 1.848 0 .43-.322.938-.966 1.526-.273.257-1.203.937-2.793 2.04-1.404.988-2.421 1.862-3.051 2.622-1.032 1.26-1.547 2.62-1.547 4.082a.96.96 0 00.28.709c.2.186.436.279.708.279h8.766c.272 0 .5-.093.687-.28a.924.924 0 00.301-.708.93.93 0 00-.3-.71.932.932 0 00-.688-.279h-7.649c.158-.601.48-1.203.967-1.804.53-.645 1.426-1.411 2.686-2.3.142-.1.45-.308.924-.622.486-.33.88-.609 1.181-.838a11.4 11.4 0 00.86-.688c1.088-.96 1.632-1.969 1.632-3.029 0-1.232-.472-2.285-1.418-3.158-.93-.888-2.12-1.332-3.566-1.332zm-13.6.043c-.873 0-1.862.244-2.964.73-1.09.488-1.633 1.06-1.633 1.72a.96.96 0 00.279.708.96.96 0 00.709.28c.243 0 .508-.144.795-.43.2-.201.594-.423 1.182-.666.586-.244 1.131-.366 1.632-.366.473 0 .881.028 1.225.086.344.043.695.144 1.053.301.357.143.63.38.816.71.186.328.28.744.28 1.245 0 .516-.087.917-.258 1.203-.158.287-.43.538-.817.752-.572.33-1.762.494-3.566.494a.904.904 0 00-.688.301.958.958 0 00-.279.71c0 .271.093.5.28.687a.934.934 0 00.687.279c1.833 0 3.108.18 3.824.537.817.415 1.225 1.167 1.225 2.256 0 1.59-1.26 2.385-3.782 2.385-.73 0-1.39-.143-1.976-.43-.573-.301-.932-.602-1.074-.902-.201-.387-.501-.58-.903-.58a.964.964 0 00-.709.279c-.186.173-.279.408-.279.709 0 .673.516 1.325 1.547 1.955a6.46 6.46 0 003.394.945c.76 0 1.469-.072 2.127-.215a7.02 7.02 0 001.827-.709 3.457 3.457 0 001.31-1.375c.33-.586.494-1.274.494-2.062 0-.817-.215-1.569-.644-2.256-.416-.702-.96-1.232-1.633-1.59 1.26-.83 1.89-1.955 1.89-3.373 0-1.504-.486-2.6-1.46-3.287-.96-.687-2.263-1.031-3.91-1.031zm24.987 1.762c.358 0 .659.079.902.236.244.157.416.365.516.623.114.243.186.473.215.687a3.308 3.308 0 010 1.29c-.03.214-.1.458-.215.73a1.288 1.288 0 01-.516.623c-.243.157-.544.236-.902.236s-.659-.079-.903-.236a1.413 1.413 0 01-.537-.623 5.019 5.019 0 01-.215-.73 3.302 3.302 0 010-1.29c.044-.214.115-.444.215-.687.115-.258.294-.466.537-.623.244-.157.545-.236.903-.236zm11.043 6.015c-1.161 0-2.07.401-2.729 1.203-.644.802-.967 1.797-.967 2.987 0 1.188.323 2.184.967 2.986.66.788 1.569 1.182 2.729 1.182 1.16 0 2.062-.394 2.707-1.182.644-.802.967-1.798.967-2.986 0-1.19-.323-2.185-.967-2.987-.645-.802-1.547-1.203-2.707-1.203zm0 1.998c.358 0 .659.079.902.237.244.157.416.365.516.623.114.243.186.472.215.687a3.298 3.298 0 010 1.29c-.03.214-.1.45-.215.708a1.314 1.314 0 01-.516.602c-.243.157-.544.236-.902.236s-.659-.078-.903-.236a1.447 1.447 0 01-.537-.602 4.403 4.403 0 01-.215-.709 3.302 3.302 0 010-1.289c.044-.215.115-.444.215-.687.115-.258.294-.466.537-.623.244-.158.545-.237.903-.237zm53.431 35.371a1.42 1.42 0 00-1.01.409 1.346 1.346 0 00-.408.988c0 .386.137.716.409.988.286.273.623.408 1.01.408.386 0 .709-.135.966-.408.273-.272.408-.602.408-.988 0-.387-.136-.716-.408-.988a1.276 1.276 0 00-.967-.409zm-20.625.11c-.414 0-.709.2-.88.6l-5.844 13.878a1.358 1.358 0 00-.086.365c0 .416.2.71.601.881.172.058.294.086.366.086.429 0 .73-.2.902-.601l1.547-3.696h6.789l1.547 3.696c.172.401.473.601.902.601.072 0 .193-.028.365-.086.401-.171.602-.465.602-.88 0-.073-.029-.194-.086-.366l-5.844-13.879c-.171-.4-.465-.6-.88-.6zm0 3.457l2.578 6.123H338.2l2.578-6.123zm12.72 1.267c-1.06 0-1.999.25-2.815.752-.817.487-1.225 1.225-1.225 2.213 0 .96.322 1.698.967 2.213.658.501 1.525.88 2.6 1.139.043.014.114.029.214.043.286.057.559.13.817.215.272.072.552.164.838.279.3.114.537.266.709.453a.795.795 0 01.257.578c0 .873-.816 1.31-2.449 1.31-.601 0-1.11-.093-1.525-.279-.4-.2-.823-.5-1.268-.902a.972.972 0 00-.644-.258c-.273 0-.51.093-.71.28-.185.17-.279.4-.279.687 0 .43.288.838.862 1.225.586.386 1.215.68 1.888.88.673.201 1.232.301 1.676.301.53 0 1.031-.05 1.504-.15a5.44 5.44 0 001.375-.494c.459-.23.824-.565 1.096-1.008.272-.445.408-.968.408-1.57 0-.888-.322-1.569-.967-2.041-.63-.488-1.697-.953-3.201-1.397l-.688-.172a5.422 5.422 0 01-.642-.193 5.954 5.954 0 01-.432-.215c-.186-.1-.315-.222-.386-.365a1.632 1.632 0 01-.086-.559c0-.343.23-.601.687-.773a4.122 4.122 0 011.848-.237c.143.014.265.029.365.043.1.014.208.043.322.086.129.043.223.079.28.108a.924.924 0 01.279.129c.13.071.215.128.258.171.057.03.157.094.3.194a3.8 3.8 0 01.301.193c.143.1.33.15.559.15a.91.91 0 00.666-.279.936.936 0 00.28-.687c0-.573-.488-1.06-1.462-1.461-.96-.4-1.818-.602-2.578-.602zm16.778 0c-1.475 0-2.735.552-3.78 1.655-1.032 1.088-1.548 2.392-1.548 3.91 0 1.518.516 2.829 1.547 3.931 1.046 1.09 2.306 1.633 3.781 1.633a4.915 4.915 0 003.352-1.267v.086c0 .272.086.501.258.687a.93.93 0 00.687.28.934.934 0 00.688-.28c.2-.186.3-.415.3-.687v-8.766c0-.271-.1-.5-.3-.688a.932.932 0 00-.688-.279c-.272 0-.5.093-.687.28a.975.975 0 00-.258.687v.086a4.916 4.916 0 00-3.352-1.268zm-8.851.086a.932.932 0 00-.688.28.975.975 0 00-.257.687v9.045c0 .272.085.5.257.687a.934.934 0 00.688.282c.272 0 .5-.095.687-.282a.9.9 0 00.301-.687v-9.045c0-.271-.1-.5-.3-.687a.934.934 0 00-.688-.28zm8.851 1.848c.917 0 1.705.35 2.364 1.053.658.702.988 1.561.988 2.578 0 1.016-.33 1.876-.988 2.578-.659.702-1.447 1.053-2.364 1.053-.916 0-1.711-.351-2.384-1.053-.674-.702-1.01-1.562-1.01-2.578 0-1.017.336-1.876 1.01-2.578.673-.702 1.468-1.053 2.384-1.053z"/></svg>