<svg width="800" height="566" xmlns="http://www.w3.org/2000/svg"><path d="M183.907 255.112c3.08 1.03 211.799 23.673 211.799 23.673l233.397-8.233 72.995 37.359-17.06 52.137-116.543.687-178.962-56.22-137.723 52.101-116.543-17.154-6.89-55.531s52.437-29.848 55.53-28.819" fill="#2b2a25"/><path d="M576.665 352.411c0 27.663 22.396 50.089 50.043 50.089 27.635 0 50.032-22.426 50.032-50.089s-22.397-50.09-50.032-50.09c-27.647 0-50.043 22.427-50.043 50.09" fill="#777464"/><path d="M607.883 306.305c-14.544 8.761-27.378 23.219-28.066 41.438-.947 24.947 10.208 53.242 52.366 52.105 6.66-.18 14.469-1.81 20.278-4.173-7.52 4.532-18.427 6.699-27.85 6.699-27.636 0-47.946-21.983-47.946-49.647 0-21 12.909-38.977 31.218-46.422" fill="#424038"/><path d="M596.177 352.41c0 16.872 13.669 30.55 30.53 30.55 16.85 0 30.519-13.678 30.519-30.55 0-16.874-13.67-30.552-30.52-30.552-16.86 0-30.53 13.678-30.53 30.551" fill="#b7b29e"/><path d="M598.661 352.41c0 15.5 12.556 28.064 28.044 28.064 15.476 0 28.032-12.565 28.032-28.064 0-15.5-12.556-28.065-28.032-28.065-15.488 0-28.044 12.565-28.044 28.065" fill="#969283"/><path d="M606.83 352.41c0 10.987 8.891 19.894 19.876 19.894 10.974 0 19.865-8.907 19.865-19.893 0-10.987-8.891-19.895-19.865-19.895-10.985 0-19.876 8.908-19.876 19.895" fill="#777464"/><path d="M623.822 365.638a2.877 2.877 0 002.879 2.877 2.884 2.884 0 002.878-2.877V339.18a2.883 2.883 0 00-2.878-2.876 2.877 2.877 0 00-2.879 2.876v26.458" fill="#969283"/><path d="M613.484 349.248a2.875 2.875 0 00-2.87 2.876 2.874 2.874 0 002.87 2.875h26.436a2.867 2.867 0 002.87-2.875 2.868 2.868 0 00-2.87-2.876h-26.436" fill="#969283"/><path d="M615.227 359.833a2.87 2.87 0 000 4.068 2.871 2.871 0 004.064 0l18.686-18.71a2.87 2.87 0 000-4.066 2.871 2.871 0 00-4.063 0l-18.687 18.708" fill="#969283"/><path d="M619.497 340.922a2.871 2.871 0 00-4.063 0 2.87 2.87 0 000 4.068l18.684 18.709a2.87 2.87 0 004.064 0 2.872 2.872 0 000-4.068l-18.685-18.709" fill="#969283"/><path d="M615.205 352.41c0 6.352 5.145 11.501 11.5 11.501 6.344 0 11.488-5.15 11.488-11.502s-5.144-11.502-11.489-11.502c-6.354 0-11.499 5.15-11.499 11.502" fill="#969283"/><path d="M672.015 349.952s1.386-18.61-16.565-33.156c-10.413-8.44-24.06-9.711-31.345-9.711-3.14 0-5.092.236-5.092.236l1.659 3.316s1.134-.12 3.065-.12c5.564 0 17.73 1.01 28.165 8.883 15.379 11.605 15.851 27.238 15.851 27.238l4.262 3.314" fill="#838070"/><path d="M625.34 338.82a1.359 1.359 0 102.72 0 1.359 1.359 0 10-2.72 0m-9.456 3.793c0 .752.61 1.362 1.357 1.362.757 0 1.356-.61 1.356-1.362 0-.751-.6-1.362-1.356-1.362-.747 0-1.357.61-1.357 1.362m-4.498 9.592c0 .751.611 1.36 1.36 1.36a1.362 1.362 0 000-2.723c-.749 0-1.36.609-1.36 1.363m4.026 10.303c0 .752.61 1.363 1.357 1.363.758 0 1.357-.611 1.357-1.363s-.6-1.361-1.357-1.361a1.36 1.36 0 00-1.357 1.361m10.044 3.55a1.359 1.359 0 102.72 0 1.36 1.36 0 00-1.36-1.363c-.743 0-1.36.61-1.36 1.363m9.468-4.143c0 .751.614 1.361 1.362 1.361.76 0 1.363-.61 1.363-1.361 0-.752-.603-1.362-1.363-1.362-.748 0-1.362.61-1.362 1.362m3.786-9.595c0 .752.6 1.362 1.358 1.362a1.363 1.363 0 000-2.724c-.757 0-1.359.61-1.359 1.362m-3.785-9.708c0 .753.614 1.362 1.362 1.362.76 0 1.363-.61 1.363-1.362 0-.752-.603-1.362-1.363-1.362-.748 0-1.362.61-1.362 1.362m-14.53 9.798a6.312 6.312 0 006.314 6.316c3.472 0 6.294-2.829 6.294-6.317s-2.822-6.315-6.294-6.315a6.311 6.311 0 00-6.314 6.315" fill="#b7b29e"/><path d="M140.71 352.41c0 27.664 22.405 50.09 50.048 50.09 27.63 0 50.034-22.426 50.034-50.09 0-27.663-22.405-50.089-50.034-50.089-27.643 0-50.047 22.426-50.047 50.09" fill="#777464"/><path d="M171.94 306.305c-14.547 8.761-27.388 23.217-28.073 41.437-.954 24.947 10.208 53.242 52.371 52.106 6.649-.18 14.466-1.811 20.282-4.173-7.535 4.532-18.428 6.698-27.857 6.698-27.643 0-47.952-21.983-47.952-49.647 0-21 12.921-38.978 31.229-46.42" fill="#424038"/><path d="M160.234 352.41c0 16.873 13.658 30.552 30.525 30.552 16.853 0 30.511-13.679 30.511-30.552 0-16.872-13.658-30.55-30.511-30.55-16.867 0-30.525 13.678-30.525 30.55" fill="#b7b29e"/><path d="M162.719 352.411c0 15.5 12.552 28.064 28.03 28.064 15.49 0 28.043-12.564 28.043-28.064s-12.552-28.064-28.043-28.064c-15.478 0-28.03 12.564-28.03 28.064" fill="#969283"/><path d="M170.876 352.41c0 10.987 8.901 19.894 19.87 19.894 10.981 0 19.883-8.907 19.883-19.894 0-10.987-8.902-19.894-19.883-19.894-10.969 0-19.87 8.907-19.87 19.894" fill="#777464"/><path d="M187.88 365.64a2.877 2.877 0 002.877 2.876 2.874 2.874 0 002.866-2.876v-26.46a2.874 2.874 0 00-2.866-2.876 2.877 2.877 0 00-2.878 2.876v26.459" fill="#969283"/><path d="M177.542 349.248a2.872 2.872 0 00-2.87 2.877 2.872 2.872 0 002.87 2.876h26.434a2.872 2.872 0 002.87-2.876 2.872 2.872 0 00-2.87-2.877h-26.434" fill="#969283"/><path d="M179.28 359.834a2.878 2.878 0 000 4.068 2.874 2.874 0 004.066 0l18.695-18.71a2.877 2.877 0 00-4.067-4.066l-18.694 18.708" fill="#969283"/><path d="M183.54 340.922a2.86 2.86 0 00-4.053 0 2.878 2.878 0 000 4.068l18.693 18.71a2.874 2.874 0 004.065 0 2.902 2.902 0 000-4.068l-18.705-18.71" fill="#969283"/><path d="M179.263 352.411c0 6.352 5.146 11.502 11.493 11.502s11.493-5.15 11.493-11.502c0-6.353-5.146-11.503-11.493-11.503s-11.493 5.15-11.493 11.503" fill="#969283"/><path d="M189.398 338.825c0 .75.617 1.36 1.366 1.36.749 0 1.353-.61 1.353-1.36 0-.753-.604-1.362-1.353-1.362s-1.366.609-1.366 1.362m-9.468 3.787c0 .752.62 1.363 1.358 1.363a1.363 1.363 0 100-2.725c-.738 0-1.358.61-1.358 1.362m-4.499 9.591a1.36 1.36 0 001.362 1.362 1.36 1.36 0 001.361-1.362 1.36 1.36 0 00-1.361-1.361 1.36 1.36 0 00-1.362 1.361m4.027 10.305c0 .751.62 1.361 1.36 1.361a1.36 1.36 0 001.358-1.361 1.36 1.36 0 00-1.359-1.362c-.739 0-1.359.609-1.359 1.362m10.055 3.552a1.358 1.358 0 102.718 0 1.36 1.36 0 10-2.719 0m9.469-4.144c0 .752.602 1.362 1.36 1.362.745 0 1.36-.61 1.36-1.362 0-.753-.615-1.363-1.36-1.363-.758 0-1.36.61-1.36 1.363m3.774-9.596a1.363 1.363 0 002.727 0 1.364 1.364 0 00-2.728 0m-3.773-9.707c0 .752.602 1.362 1.36 1.362.745 0 1.36-.61 1.36-1.362 0-.751-.615-1.361-1.36-1.361-.758 0-1.36.61-1.36 1.36m-14.541 9.798a6.308 6.308 0 006.305 6.316 6.32 6.32 0 006.318-6.317 6.318 6.318 0 00-6.318-6.315 6.307 6.307 0 00-6.305 6.315" fill="#b7b29e"/><path d="M685.037 360.046l67.185.135 2.018-16.72 15.788-14.293 2.06-13.725-15.083-6.86-8.902-32.937s-35.653-19.898-100.779-30.191c-65.111-10.293-98.013-8.92-98.013-8.92s-99.396-63.129-112.418-65.187l-13.036-2.059s-189.184-10.292-202.206-3.43c-13.037 6.86-78.148 52.148-78.148 52.148s-85.005-5.488-89.125 2.746c-4.106 8.233-4.797 67.93-4.797 67.93L30.393 292.8l4.797 26.075 10.963 4.803 4.12 13.037 84.99 2.745s17.777-40.2 22.63-41.17c20.557-4.117 43.187-6.176 71.969 5.49 11.88 4.808 21.94 52.835 21.94 52.835l316.697 4.117s-.96-15.445 8.225-36.368c12.345-28.132 51.342-41.988 83.623-21.271 26.736 17.155 24.69 56.953 24.69 56.953" fill="#2e93cc"/><path d="M520.864 242.712c2.257-.189-14.275-17.675-32.906-32.25-19.163-14.985-46.193-30.52-51.417-31.563-10.282-2.06-73.343-4.803-73.343-4.803l15.083 64.498s126.124 5.49 142.583 4.118" fill="#97c1bf"/><path d="M483.167 214.579c-19.162-14.985-46.204-30.52-51.417-31.564-8.375-1.675-51.683-3.804-67.527-4.54l-1.025-4.38s63.061 2.744 73.343 4.804c5.224 1.043 32.254 16.578 51.417 31.563 18.631 14.576 35.163 32.061 32.906 32.25-1.496.125-3.91.193-7.059.214-5.068-6.01-17.316-17.92-30.638-28.347" fill="#2b2a25"/><path d="M342.294 172.722l10.285 63.814-117.91-2.745 14.385-62.442 93.24 1.373" fill="#97c1bf"/><path d="M337.655 176.897l-89.952-2.8 1.367-2.745 93.223 1.372 10.284 63.814h-5.583l-9.339-59.641" fill="#2b2a25"/><path d="M238.091 172.722l-18.261 60.135-43.303-.76s-.29-6.15 3.145-10.266c3.423-4.118 12.87-10.623 28.265-26.465 23.983-24.702 30.154-22.644 30.154-22.644" fill="#97c1bf"/><path d="M233.503 173.726c3.385-1.672 4.592-1.272 4.592-1.272l-18.265 60.135-4.19-.076 17.863-58.787" fill="#2b2a25"/><path d="M772.711 313.594s-77.16-.381-86.942.531c-6.207.579-5.478 16.134 1.742 17.256 12.1 1.882 73.201.797 73.201.797s15.533.358 16.678-8.437c.962-7.457-4.679-10.147-4.679-10.147" fill="#72726f"/><path d="M685.026 319.886l90.722-1.332-3.997-3.853-84.797.297-1.928 4.888" fill="#859a97"/><path d="M138.074 293.009s-97.834-.382-110.235.53c-7.88.58-6.945 16.135 2.196 17.256 15.35 1.882 92.832.796 92.832.796s19.671.359 21.117-8.436c1.247-7.456-5.91-10.146-5.91-10.146" fill="#72726f"/><path d="M26.896 299.303l115.033-1.332-5.072-3.853-107.517.297-2.444 4.888" fill="#859a97"/><path d="M249.466 309.017l323.837 8.486 7.53-6.86-338.18-10.547 6.813 8.921" fill="#72726f"/><path d="M715.108 279.526c1.537-5.173 36.945-2.682 36.945-2.682s3.709 6.806 4.978 11.496c1.844 6.874.565 19.542.565 19.542l-41.14-.383s-2.588-23.78-1.348-27.973" fill="#97c1bf"/><path d="M749.377 279.532s3.452 6.516 4.029 10.347c.567 3.832.567 15.902.567 15.902l-7.08.192s1.154-9.005-.567-13.411c-1.73-4.407-10.15-13.796-10.15-13.796l13.2.766" fill="#fff"/><path d="M63.987 231.734l483.95 15.78 52.092 27.448-507.64-23.967-28.402-19.261m659.776 43.378s-54.5-15.933-81.92-19.365c-27.421-3.43-93.915-8.233-93.915-8.233l-16.442 8.92s90.483 2.058 108.988 3.431c18.505 1.373 75.763 16.503 75.763 16.503l7.526-1.256" fill="#38bbf4"/><path d="M51.51 247.782s18.278-.458 20.097-.458c1.834 0 4.577 1.83 4.577 4.118 0 2.288-1.371 16.926-1.82 18.755-.461 1.83-3.204 3.66-6.41 3.66-3.19 0-19.188.457-19.188.457l2.743-26.532" fill="#b52c1a"/><path d="M71.728 250.22l-1.64 20.29h-6.55l1.64-20.495 6.55.204" fill="#f23325"/><path d="M569.064 351.178l1.88-9.852a89.091 89.091 0 00-1.88 9.852m-319.302-3.29a285.968 285.968 0 00-3.503-12.768h-.166l3.669 12.77" fill="#2a4974"/><path d="M568.74 352.956l.32-1.779c.37-2.79.946-6.112 1.879-9.852l.307-1.634-324.993-4.573a285.183 285.183 0 013.503 12.77l.665 2.284 318.319 2.784" fill="#2b68a6"/><path d="M140.066 329.17l3.239-6.676h-.135a498.753 498.753 0 00-3.184 6.675h.081" fill="#2a4974"/><path d="M139.983 329.165c.985-2.078 2.055-4.345 3.182-6.675L35.19 318.876l10.967 4.803 93.825 5.486" fill="#2b68a6"/><path d="M382.732 261.582c0 7.009 5.687 12.693 12.688 12.693s12.676-5.684 12.676-12.693c0-7.012-5.675-12.695-12.676-12.695-7 0-12.688 5.683-12.688 12.695M231.24 254.72c0 7.01 5.679 12.695 12.683 12.695 7.005 0 12.684-5.685 12.684-12.695 0-7.01-5.679-12.695-12.684-12.695-7.004 0-12.683 5.684-12.683 12.695" fill="#2a5696"/><path d="M535.788 241.817c.79 1.102 11.522 16.322 14.898 42.84 3.727 29.205-2.222 51.286-3.254 54.796l-179.63-4.088c.947-5.01 5.888-32.381 4.65-52.21-1.324-21.298-8.523-44.161-8.924-45.404l-10.83-67.736c8.426.36 77.218 3.369 84.637 6.099 32.636 11.996 96.037 63.722 98.453 65.703zm12.652 99.03l.157-.485c.074-.235 7.54-23.848 3.449-55.88-3.546-27.798-15.092-43.399-15.213-43.554l-.11-.116c-.655-.538-65.599-53.738-98.915-65.987-8.061-2.967-82.718-6.085-85.887-6.218l-.838-.033 11.122 69.547c.085.234 7.527 23.504 8.875 45.12 1.36 21.615-4.71 52.35-4.784 52.658l-.158.8.814.02 181.488 4.13" fill="#2b2a25"/><path d="M366.965 336.719l.013-1.374-111.58-1.26c-.22-3.797-1.608-22.493-8.546-30.745-5.239-6.226-11.438-8.878-16.91-11.219-5.979-2.557-10.7-4.577-11.737-10.416-.48-2.747 4.474-28.505 11.062-57.419 8.339-36.622 13.682-54.042 15.29-55.057 3.813-1.633 78.757-.013 107.313.75l.039-1.372c-4.215-.112-103.034-2.726-107.91-.63-3.19 1.366-11.373 35.398-15.964 55.563-5.952 26.104-11.762 55.086-11.179 58.403 1.155 6.572 6.446 8.828 12.54 11.44 5.33 2.281 11.374 4.864 16.406 10.84 7.275 8.657 8.247 30.352 8.247 30.57l.04.65 112.876 1.276m12.799-76.395a2.514 2.514 0 002.513 2.516H409.7a2.514 2.514 0 002.513-2.516 2.514 2.514 0 00-2.513-2.515h-27.424a2.514 2.514 0 00-2.513 2.515" fill="#2b2a25"/><path d="M228.502 253.919a2.513 2.513 0 002.514 2.516h27.424a2.51 2.51 0 002.501-2.516 2.51 2.51 0 00-2.5-2.516h-27.425a2.512 2.512 0 00-2.514 2.516" fill="#2b2a25"/><path d="M683.805 343.406a84.507 84.507 0 00-2.023-9.045l2.023 9.045" fill="#2a4974"/><path d="M684.055 344.533l70.181-1.07 9.486-8.726-81.963-.458.02.081a84.401 84.401 0 012.023 9.045l.252 1.127" fill="#2b68a6"/></svg>