<svg width="994" height="450" xmlns:xlink="http://www.w3.org/1999/xlink" xmlns="http://www.w3.org/2000/svg"><defs><clipPath clipPathUnits="userSpaceOnUse" id="b"><path d="M0 500h500V0H0z"/></clipPath><clipPath clipPathUnits="userSpaceOnUse" id="c"><path d="M179.692 322.337h154.451V79.277H179.692z"/></clipPath></defs><use xlink:href="#a" transform="translate(588.725)"/><path d="M757.86 353H235V12h522.86z" fill="#ff867b"/><g clip-path="url(#b)" transform="matrix(3.34117 0 0 -1.26078 -358.573 452.95)"><g clip-path="url(#c)" opacity=".07" stroke-width=".275"><path d="M334.144 322.337V79.276H179.692z" fill="#1a2029"/></g></g><path d="M759 27.751H236.142v-1.993H759z" fill="#ef4d61"/><path d="M273.6 280.374h-12.075a3.876 1.463 0 01-3.873-1.462v-1.234c0-.807 1.734-1.462 3.873-1.462H273.6a3.876 1.463 0 013.872 1.463v1.233a3.876 1.463 0 01-3.872 1.462m13.752 4.952h-12.075a3.876 1.463 0 01-3.872-1.463v-1.233c0-.807 1.737-1.463 3.875-1.463h12.072a3.876 1.463 0 013.876 1.463v1.234a3.876 1.463 0 01-3.876 1.462m8.687-4.952h-12.075a3.876 1.463 0 01-3.872-1.462v-1.234c0-.807 1.737-1.462 3.875-1.462h12.072a3.876 1.463 0 013.876 1.463v1.233a3.876 1.463 0 01-3.876 1.462m25.005 34.429H308.97c-2.138 0-3.872-.656-3.872-1.463v-1.236a3.876 1.463 0 013.876-1.46h12.071c2.139 0 3.876.656 3.876 1.462v1.235a3.876 1.463 0 01-3.876 1.462m13.753 4.952h-12.075c-2.139 0-3.873-.656-3.873-1.463v-1.235a3.876 1.463 0 013.876-1.461h12.072c2.138 0 3.875.655 3.875 1.462v1.236a3.876 1.463 0 01-3.875 1.46m8.69-4.951h-12.075c-2.138 0-3.876-.656-3.876-1.463v-1.236a3.876 1.463 0 013.876-1.46h12.075c2.138 0 3.872.656 3.872 1.462v1.235a3.876 1.463 0 01-3.875 1.462m295.396-46.764h-12.075a3.876 1.463 0 01-3.873-1.463v-1.233c0-.806 1.738-1.462 3.876-1.462h12.072c2.142 0 3.876.656 3.876 1.462v1.235a3.876 1.463 0 01-3.876 1.461m13.752 4.952h-12.075a3.876 1.463 0 01-3.872-1.462v-1.233c0-.807 1.737-1.463 3.875-1.463h12.072c2.142 0 3.876.656 3.876 1.463v1.234a3.876 1.463 0 01-3.876 1.461m8.687-4.952h-12.072a3.876 1.463 0 01-3.872-1.463v-1.233c0-.806 1.73-1.462 3.872-1.462h12.072a3.876 1.463 0 013.873 1.462v1.235c0 .807-1.731 1.461-3.873 1.461M552.317 42.831h-12.075c-2.142 0-3.873-.654-3.873-1.461v-1.235c0-.807 1.731-1.46 3.873-1.46h12.075a3.876 1.463 0 013.872 1.462v1.233a3.876 1.463 0 01-3.872 1.462m13.752 4.951h-12.075c-2.138 0-3.872-.655-3.872-1.462v-1.233c0-.807 1.73-1.463 3.875-1.463h12.072a3.876 1.463 0 013.876 1.463v1.234a3.876 1.463 0 01-3.876 1.461m8.687-4.952h-12.075a3.876 1.463 0 01-3.876-1.461v-1.235c0-.807 1.738-1.46 3.876-1.46h12.075c2.138 0 3.873.655 3.873 1.462v1.233c0 .807-1.731 1.462-3.876 1.462M264.655 163.264H252.58c-2.138 0-3.872-.655-3.872-1.46v-1.236a3.876 1.463 0 013.876-1.462h12.071c2.139 0 3.876.656 3.876 1.463v1.235a3.876 1.463 0 01-3.876 1.46m13.753 4.951h-12.075a3.876 1.463 0 01-3.873-1.46v-1.235c0-.807 1.734-1.461 3.873-1.461h12.075a3.876 1.463 0 013.872 1.462v1.232c0 .807-1.73 1.462-3.872 1.462m8.687-4.95H275.02c-2.139 0-3.873-.656-3.873-1.462v-1.235a3.876 1.463 0 013.876-1.462h12.072a3.876 1.463 0 013.875 1.463v1.235a3.876 1.463 0 01-3.875 1.46m411.304-56.24h-12.071a3.876 1.463 0 01-3.876-1.46v-1.235c0-.807 1.734-1.461 3.876-1.461h12.071a3.876 1.463 0 013.873 1.461v1.234c0 .807-1.73 1.462-3.876 1.462m13.756 4.952h-12.075a3.876 1.463 0 01-3.876-1.462v-1.233c0-.807 1.737-1.463 3.876-1.463h12.075c2.138 0 3.872.656 3.872 1.463v1.234c0 .807-1.73 1.461-3.876 1.461m8.694-4.952h-12.075a3.876 1.463 0 01-3.876-1.462v-1.234c0-.807 1.734-1.461 3.876-1.461h12.075a3.876 1.463 0 013.873 1.461v1.234a3.876 1.463 0 01-3.876 1.462m-14.892 215.714h-12.075c-2.138 0-3.872-.655-3.872-1.462v-1.236a3.876 1.463 0 013.876-1.46h12.071a3.876 1.463 0 013.876 1.461v1.236a3.876 1.463 0 01-3.876 1.461m13.756 4.953h-12.075c-2.139 0-3.876-.656-3.876-1.463v-1.236a3.876 1.463 0 013.876-1.46h12.075a3.876 1.463 0 013.872 1.462v1.235a3.876 1.463 0 01-3.876 1.46m8.687-4.95h-12.071a3.876 1.463 0 01-3.873-1.463v-1.236a3.876 1.463 0 013.876-1.46h12.068a3.876 1.463 0 013.876 1.461v1.236a3.876 1.463 0 01-3.876 1.461" fill="#ef4d61" opacity=".63"/><g id="d"><path d="M355.692 79.692h-61.384V42.308h61.384z" fill="#badbed"/><path d="M294.309 40.785v40.43h61.382V69.412c-.35.278-.714.525-1.082.758-5.625 3.67-12.364 5.803-19.597 5.803-19.612 0-35.528-15.707-35.768-35.188h-4.935z" opacity=".13"/><path d="M334.36 40.785l-42.553 39.15v1.28h7.547l43.94-40.43h-8.935zm21.523 0l-43.942 40.43h5.627l40.625-37.377v-3.053h-2.31zm2.31 11.506l-31.437 28.924h24.824l6.613-6.086V52.29z" fill="#fff" opacity=".35"/><path d="M355.692 42.308v5.1H299.7v34.284h-5.392V42.308z" fill="#1a2029" opacity=".21"/><path d="M355.692 79.692h-27.04v-15.04h27.04zm-34.347-22.345h-27.04v-15.04h27.04zm0 22.345h-27.04v-15.04h27.04zm7.308-37.384h27.04v15.04h-27.04zM287 87h76V35h-76z" fill="#fff"/></g><path d="M169 353H54.302c-1.514-4.492-1.804-9.638-.363-14.184 3.171-10.012 13.9-14.557 21.072-8.931-1.41-7.333 1.006-15.625 5.803-19.973 4.8-4.359 11.681-4.478 16.574-.319.964.827 1.96 1.853 3.12 1.84 1.43-.013 2.529-1.56 3.555-2.84 5.939-7.425 17.433-7.932 21.476 1.36.632 1.44 1.13 3.146 2.28 3.879 1.016.641 2.208.334 3.307.027 5.514-1.52 11.629-2.307 16.449 1.453 5.99 4.667 7.877 14.626 8.54 23.597.104 1.466.29 3.16 1.275 3.933.55.425 1.233.453 1.876.532 4.29.535 8.177 4.494 9.733 9.626" fill="#8baa3d" id="e"/><g id="a"><path d="M200.211 345.16h-4.342v-26.334h4.342z" fill="#5e1726"/><path d="M216.822 302.41c0 10.721-8.69 19.411-19.41 19.411s-19.411-8.69-19.411-19.411c0-10.72 8.69-19.41 19.41-19.41s19.411 8.69 19.411 19.41" fill="#8baa3d"/><path d="M204.848 352.851h-13.679v-13.375h13.679z" fill="#db3552"/><path d="M216.733 302.626c0 10.838-8.73 19.624-19.498 19.624-9.204 0-16.918-6.413-18.969-15.049a19.392 19.517 0 0012.729 4.763c10.773 0 19.504-8.787 19.504-19.623 0-1.579-.186-3.11-.534-4.58a19.444 19.57 0 016.768 14.865" fill="#1a2029" opacity=".09"/><path d="M206.769 341.381h-17.538v-3.85h17.538z" fill="#db3552"/><path d="M204.91 341.151V353h-13.74v-3.516c1.311.882 2.8 1.38 4.372 1.38 4.548 0 8.363-4.138 9.369-9.713" fill="#1a2029" opacity=".09"/></g><use xlink:href="#d" transform="translate(116)"/><use xlink:href="#d" transform="translate(232)"/><use xlink:href="#d" transform="translate(348)"/><use xlink:href="#d" transform="translate(0 76)"/><use xlink:href="#d" transform="translate(0 152)"/><use xlink:href="#d" transform="translate(0 228)"/><use xlink:href="#d" transform="translate(116 76)"/><use xlink:href="#d" transform="translate(232 76)"/><use xlink:href="#d" transform="translate(348 76)"/><use xlink:href="#d" transform="translate(116 152)"/><use xlink:href="#d" transform="translate(232 152)"/><use xlink:href="#d" transform="translate(348 152)"/><use xlink:href="#d" transform="translate(116 228)"/><use xlink:href="#d" transform="translate(232 228)"/><use xlink:href="#d" transform="translate(348 228)"/><use xlink:href="#e" transform="matrix(-1.2931 0 0 1.3 1051.534 -105.9)"/></svg>