<svg height="200" viewBox="0 0 52.917 52.917" width="200" xmlns:xlink="http://www.w3.org/1999/xlink" xmlns="http://www.w3.org/2000/svg"><path d="M0 0h52.917v52.917H0z" fill="#ecf0f1"/><rect width="15.875" height="6.615" x="18.521" y="35.719" rx="1.323" fill="#95a5a6"/><rect width="42.334" height="26.459" x="5.292" y="13.229" rx="2.646" fill="#95a5a6"/><rect width="37.042" height="21.167" x="7.938" y="15.875" rx=".529" fill="#fff"/><rect width="5.292" height="2.646" x="19.844" y="38.424" rx=".529" fill="#d35400"/><rect width="5.292" height="2.646" x="27.781" y="38.424" rx=".529" fill="#2980b9"/><g transform="matrix(.75987 0 0 .75987 6.352 46.564)" stroke-width="1.316"><use xlink:href="#a" transform="translate(12.04)" width="100%" height="100%"/><path d="m20.226-19.306-2.852 1.002c-.03.01-.045.034-.042.062.092.832.68 1.55 1.571 1.53.483-.011.904-.17 1.261-.517.098-.095.176-.145.238-.145.117 0 .176.052.176.155 0 .041-.026.098-.083.166-.483.58-1.125.959-1.871.94-.844-.021-1.557-.476-1.85-1.25a3.05 3.05 0 0 1-.186-1.127c.016-1.287.716-2.377 1.954-2.377.75 0 1.393.453 1.819 1.013.053.07.078.154.082.237a.322.322 0 0 1-.217.311zm-.806-.279c0-.19-.655-.727-1.116-.704-.31.016-.56.133-.744.404-.181.267-.269.637-.269 1.106 0 .055.02.094.052.082l1.984-.764c.053-.02.093-.076.093-.124zm11.72 3.462c-1.44.004-2.045-1.172-2.036-2.274.013-1.556 1.03-2.427 2.274-2.439.372-.004.689.08.951.238.262.158.393.34.393.547 0 .26-.198.393-.424.393-.151 0-.355-.1-.6-.31-.244-.21-.468-.32-.682-.32-.779 0-1.209.926-1.209 1.633 0 1.03.728 1.86 1.674 1.86.76 0 1.08-.57 1.292-.568.135.001.176.087.176.175a.263.263 0 0 1-.062.166c-.446.559-1.012.897-1.747.899zm12.801-4.573c.19-.008.232.042.232.191 0 .161-.107.206-.248.206-.243 0-.304.05-.341.114-.012.021-.026.095-.062.217-.641 2.142-1.087 2.994-1.53 3.825-.041.077-.123.103-.206.103-.117 0-.227-.115-.352-.331-.648-1.118-1.17-2.21-1.663-3.297-.127-.279-.187-.447-.218-.486-.09-.112-.205-.144-.33-.155-.156-.014-.163-.137-.166-.258-.003-.108.041-.137.202-.13.167.007.622.029.934.03.31 0 .766-.023.932-.029.179-.007.221.016.227.211.004.118-.07.185-.155.186-.152.002-.287.01-.434.031-.144.021-.217.076-.217.186 0 .055.03.228.144.496.333.782.634 1.56 1.116 2.357.04.067.09.083.104.083.035 0 .036-.021.052-.052.493-.945.88-1.84 1.012-2.915.02-.157-.137-.153-.289-.175-.115-.017-.22-.018-.331-.031-.111-.013-.165-.083-.165-.212 0-.123.02-.174.186-.166.138.007.52.026.78.026.262 0 .65-.02.786-.025z" fill="#34495e"/><path d="M12.123-36.815c-.458.032-1.048.053-1.612.053-.151 0-.234.076-.227.228.009.182.044.28.248.28h.382c.158 0 .228.067.228.267v5.663c0 .171-.067.26-.29.289-.185.024-.356.035-.537.062-.07.01-.129.094-.124.212.008.202.049.291.217.285.26-.01.438-.052.765-.052.234 0 .468-.01.702-.01.227 0 .458-.002.693.01.215.01.633.052.765.052.137 0 .206-.083.206-.254 0-.136-.048-.214-.144-.243-.041-.013-1.002-.062-1.002-.062-.248-.024-.332-.093-.332-.371v-2.15c0-.11.045-.166.135-.166.948 0 1.71.055 2.697-.434.604-.3 1.075-.935 1.075-1.7 0-.55-.202-1.01-.61-1.38-.474-.429-1.165-.641-2.068-.641-.233 0-.622.024-1.167.062zm.672.416c.57-.005 1.07.08 1.643.453.463.302.642.682.641 1.138 0 .51-.239.927-.723 1.24-.568.367-1.39.532-2.222.455-.037-.003-.052-.048-.052-.104v-3.019c0-.068.035-.13.114-.135.211-.014.409-.026.599-.028z" fill="#3498db"/><path id="b" d="M17.7-36.583c-.67 0-.671 1.005 0 1.005.67 0 .67-1.005 0-1.005zm-1.453 3.149c0 .055.046.098.135.133.373.15.58.25.63.28.053.032.083.08.082.155l-.01 2.543c0 .194-.013.339-.279.381-.26.042-.417.062-.464.083-.043.02-.063.09-.063.207 0 .117.047.183.197.17.199-.016.428-.051.64-.055.197-.004.393-.01.59 0 .103.005.193.013.372.03.165.017.214.019.28.026.118.014.155-.07.155-.222 0-.083-.028-.135-.084-.155a2.246 2.246 0 0 0-.392-.073c-.117-.015-.201-.078-.208-.197-.07-1.34-.033-2.587.032-3.905.006-.118-.064-.177-.15-.177-.027 0-1.268.603-1.328.631-.055.027-.135.04-.135.145z" fill="#34495e" stroke-width="1.732"/><use xlink:href="#b" transform="translate(20.38 13.23)" width="100%" height="100%"/><path id="c" d="M19.162-33.517c-.016.212-.057.445-.088.702-.014.12.057.167.181.167.107 0 .157-.055.202-.25.049-.211.065-.3.087-.34.025-.043.07-.062.126-.062h1.26c.144 0 .217.052.217.156 0 .04-.032.079-.073.133l-2.15 2.915c-.106.145-.144.255-.144.31 0 .166.107.248.32.248h2.46c.117 0 .176.052.176.155v.64c0 .124.058.186.175.186.214 0 .32-.068.32-.205 0-.031.002-.063-.004-.197a6.932 6.932 0 0 1 0-.62c.01-.396.025-.535.062-.807l.056-.418c.02-.147-.072-.223-.238-.223-.09 0-.162.053-.186.167-.044.206-.043.368-.124.568-.02.05-.078.072-.154.071l-1.695-.01c-.154 0-.223-.06-.099-.228l2.332-3.183c.098-.134.112-.31-.167-.31H19.7c-.09 0-.145-.065-.155-.196-.01-.13-.051-.195-.165-.195-.148 0-.207.051-.207.154 0 .24.007.437-.01.671z" fill="#34495e" stroke-width="1.732"/><use xlink:href="#c" transform="translate(3.817)" width="100%" height="100%"/><path id="a" d="M27.018-32.803a.246.246 0 0 0 .227-.125c.247-.462.537-.706.91-.704.578.006.868.47.868 1.127v.384c0 .082-.013.149-.156.15-.353.002-1.27.142-1.787.512-.304.216-.447.54-.444.944.005.646.459 1.187 1.207 1.184.45-.002.956-.187 1.26-.53.213.234.396.45.777.448.469-.004.759-.394.817-.839.011-.088-.032-.134-.093-.134-.042 0-.077.033-.115.094-.09.143-.144.257-.35.257-.232 0-.362-.179-.362-.465v-2.086c0-.09-.004-.218-.021-.383-.085-.771-.688-1.15-1.54-1.157-.621-.006-1.612.412-1.623.94-.004.223.146.369.425.383zm1.994 1.28c.036.312.022.628.02.942 0 .103-.015.185-.062.236-.235.262-.514.434-.878.434-.404 0-.671-.21-.671-.713 0-.505.393-.764.858-.878a2.75 2.75 0 0 1 .65-.082c.049 0 .079.02.083.061z" fill="#34495e" stroke-width="1.732"/><use xlink:href="#a" transform="translate(-1.83 13.229)" width="100%" height="100%"/><use xlink:href="#a" transform="translate(17.931 13.229)" width="100%" height="100%"/><path id="d" d="M32.288-33.527c-.023 0-.03-.018-.03-.053v-.423c0-.144-.042-.216-.124-.216-.047 0-.506.234-.786.372-.28.137-.428.21-.425.236a.108.108 0 0 0 .043.073c.172.127.338.219.516.382.037.035.072.058.072.176v2.812c0 .138-.067.213-.196.248-.24.064-.475.025-.475.268 0 .117.04.2.284.165a8.118 8.118 0 0 1 1.55-.03c.151.015.384.027.454.036.137.02.182-.064.182-.202 0-.096-.032-.151-.093-.176-.158-.062-.448-.068-.682-.083-.172-.01-.258-.12-.258-.32v-2.573c0-.09.005-.162.04-.196.245-.236.497-.434.818-.434.27 0 .43.267.63.267.225 0 .723-.376.723-.594 0-.285-.448-.47-.826-.47-.274 0-.371.046-.703.26-.23.147-.682.475-.714.475z" fill="#34495e" stroke-width="1.732"/><use xlink:href="#d" transform="translate(3.784)" width="100%" height="100%"/><path d="M4.703-23.503c-.152-.01-.228.096-.228.29 0 .166.079.22.362.233.316.015.44.025.496.046.055.02.077.076.077.243l-.005 5.576c0 .194-.076.292-.227.3-.103.005-.257-.004-.619.042-.268.034-.277.078-.264.236.017.21.042.318.335.279.226-.03.32-.026.61-.04.454-.024.895-.013 1.333.01.41.021.48.028.569.036.199.018.247-.099.247-.305 0-.078-.02-.167-.144-.187-.238-.037-.453-.025-.692-.05-.124-.013-.186-.105-.186-.27v-5.715c0-.11.055-.167.165-.176.129-.01.248-.012.424-.041.207-.035.244-.106.247-.27.004-.178-.058-.232-.175-.226-.38.019-.724.042-1.105.041a18.113 18.113 0 0 1-1.22-.052z" fill="#3498db"/><use xlink:href="#d" transform="translate(-10.086 13.23)" width="100%" height="100%"/><path d="M8.94-20.929c-.027 0-.06.018-.103.041l-.93.507c-.049.027-.07.057-.073.098-.002.033.016.072.062.108.244.191.387.304.424.352.033.043.052.124.052.248v2.522c0 .186-.038.32-.279.36-.185.033-.303.058-.352.084-.04.022-.062.08-.062.176 0 .123.04.198.207.18.066-.007.329-.04.494-.048.274-.013.549-.011.823.004.176.01.427.055.528.055.13 0 .17-.04.17-.18 0-.084-.022-.14-.062-.177-.028-.026-.196-.067-.506-.113-.158-.023-.237-.12-.237-.3v-2.532c0-.438.571-.827 1.105-.827.923 0 1.198.653 1.198 1.778v1.643c0 .212-.096.249-.33.28a1.32 1.32 0 0 0-.331.07c-.042.021-.062.07-.062.146 0 .137.048.21.171.206.06-.002.244-.031.367-.04a8.21 8.21 0 0 1 .687-.016c.178.004.503.031.604.047.193.03.238-.059.238-.197 0-.117-.052-.181-.155-.197a4.183 4.183 0 0 0-.248-.03c-.205-.02-.26-.083-.258-.3l.01-1.85c.004-.874-.15-2.057-1.53-2.057-.893 0-1.443.631-1.473.631-.025 0-.03-.014-.03-.073l.005-.444c.001-.103-.041-.155-.124-.155z" fill="#34495e"/><path id="e" d="M14.356-21.848c-.144 0-.355.49-.688.876-.291.338-.625.554-.625.664 0 .089.073.133.217.133h.341c.048 0 .074.031.072.094l-.04 2.347c-.003.151.009.265.01.34.015.591.338 1.282 1.064 1.282.428 0 .93-.31 1.478-.951a.274.274 0 0 0 .073-.175c0-.095-.058-.19-.196-.197-.208-.011-.672.64-1.148.64-.364 0-.55-.26-.547-.784l.02-2.471c0-.07.035-.103.103-.103l1.298-.001c.186 0 .221-.23.221-.362 0-.13-.089-.2-.315-.2l-.997-.005c-.138 0-.209-.07-.206-.208l.01-.744c0-.117-.049-.175-.145-.175z" fill="#34495e" stroke-width="1.732"/><use xlink:href="#e" transform="translate(20.122)" width="100%" height="100%"/></g></svg>