<svg width="345" height="164" xmlns="http://www.w3.org/2000/svg"><path d="M119.91 106.692v-15.36s.01-8.531-7.714-8.531c-7.725 0-7.714 8.53-7.714 8.53v15.36m-68.982-19v19" fill="none" stroke="#f2a82a" stroke-width="5" stroke-linecap="round"/><path d="M195.375 79.814c-2.16-.036-3.607-2.42-3.607-4.498 0-3.71 3.953-6.314 7.71-6.248 3.757.067 6.231 4.389 6.184 8.35-.054 4.607-4.997 12.271-10.402 18.072-5.405 5.8-8.678 9.51-12.167 12.64-1.495 1.342.936 1.458 3.323.08 1.06-.612 6.207-3.913 12.145-9.81 5.937-5.896 12.289-13.213 12.42-20.904.123-7.263-2.994-13.65-9.975-13.65-6.545 0-13.825 5.936-13.825 11.82 0 5.118 3.74 9.148 8.194 9.148 4.703 0 7.864-3.909 7.908-7.843.024-2.149-1.53-4.005-3.11-4.614-1.579-.608-3.11-.566-4.585.286a2.5 2.5 0 00-.916 3.414c.69 1.196 2.22 1.606 3.505.931-.276 1.66-.902 2.859-2.802 2.826zM286.514 21.508c-2.68 0-6.313 1.344-6.313 3.588 0 3.562 4.05 4.817 4.05 6.236 0 1.51-3.897 2.757-3.897 5.317 0 2.094 3.33 1.772 4.535 1.765a9.11 9.11 0 001.209-.097V85.5c-1.907.089-3.944-.01-6.11-.293-1.794 2.84 2.354 4.395 2.354 7.698 0 3.192-5.344 2.8-5.344 8.97 0 5.25 2.887 7.317 8.588 7.317 6.718 0 8.334-3.343 8.334-7.889 0-6.688-3.943-7.256-3.943-9.67 0-2.414 3.854-4.5 1.845-7.127-1.162.387-2.409.653-3.724.82V37.811c3.514-1.298 6.328-4.591 6.328-8.703 0-3.763-4.088-7.6-7.912-7.6zm.88 2.035c2.008 0 5.33 2.099 5.33 5.063 0 4.186-3.8 7.138-5.197 7.138-.632 0-2.19.196-2.19-1.453 0-1.634 2.43-1.756 2.43-4.185 0-1.977-3.78-1.949-3.78-4.754 0-1.767 2-1.809 3.408-1.809zm-2.03 72.098c2.832 0 6.84 2.73 6.84 5.47 0 2.61-3.933 4.645-6.49 4.645-2.544 0-6.648-.636-6.648-3.182 0-3.594 3.379-6.933 6.297-6.933z" fill="#f2a82a"/><path d="M32.488 130.164q-.351.234-.68.234-.585 0-.984-.398-.375-.399-.375-.961 0-.774.61-1.172 1.828-1.242 4.007-2.508.422-.21.844-.21.656 0 1.078.398.446.398.446.984v12.797h1.78q.563 0 .938.422.399.422.399 1.031 0 .61-.399 1.031-.375.422-.937.422H32.44q-.562 0-.96-.422-.376-.422-.376-1.031 0-.61.375-1.031.399-.422.961-.422h1.875v-10.266q-1.57.938-1.828 1.102zm69.255 0q-.352.234-.68.234-.586 0-.984-.398-.375-.399-.375-.961 0-.774.609-1.172 1.828-1.242 4.008-2.508.422-.21.844-.21.656 0 1.078.398.445.398.445.984v12.797h1.781q.563 0 .938.422.398.422.398 1.031 0 .61-.398 1.031-.375.422-.938.422h-6.773q-.563 0-.961-.422-.375-.422-.375-1.031 0-.61.375-1.031.398-.422.96-.422h1.876v-10.266q-1.57.938-1.828 1.102zm13.664-4.266q1.289-.797 2.976-.797 1.688 0 2.953.797 1.29.774 1.993 2.086.703 1.29 1.03 2.766.329 1.453.329 3.047 0 1.593-.328 3.07-.328 1.453-1.031 2.766-.704 1.289-1.993 2.086-1.265.773-2.953.773-1.687 0-2.976-.773-1.266-.797-1.969-2.086-.703-1.313-1.031-2.766-.328-1.477-.328-3.07 0-1.594.328-3.047.328-1.477 1.031-2.766.703-1.312 1.969-2.086zm4.71 2.672q-.726-.562-1.734-.562t-1.758.562q-.726.54-1.125 1.453-.375.89-.562 1.852-.164.937-.164 1.922 0 .984.164 1.945.187.937.562 1.852.399.89 1.125 1.453.75.539 1.758.539t1.735-.54q.75-.562 1.125-1.452.398-.915.562-1.852.188-.961.188-1.945 0-.985-.188-1.922-.164-.961-.562-1.852-.375-.914-1.125-1.453zm59.043 1.594q-.351.234-.68.234-.585 0-.984-.398-.375-.399-.375-.961 0-.774.61-1.172 1.828-1.242 4.008-2.508.421-.21.843-.21.657 0 1.078.398.446.398.446.984v12.797h1.781q.562 0 .937.422.399.422.399 1.031 0 .61-.399 1.031-.375.422-.937.422h-6.773q-.563 0-.961-.422-.375-.422-.375-1.031 0-.61.375-1.031.398-.422.96-.422h1.876v-10.266q-1.57.938-1.829 1.102zm13.664-4.266q1.29-.797 2.977-.797 1.688 0 2.953.797 1.29.774 1.992 2.086.703 1.29 1.032 2.766.328 1.453.328 3.047 0 1.593-.328 3.07-.329 1.453-1.032 2.766-.703 1.289-1.992 2.086-1.265.773-2.953.773-1.687 0-2.977-.773-1.265-.797-1.968-2.086-.703-1.313-1.032-2.766-.328-1.477-.328-3.07 0-1.594.328-3.047.329-1.477 1.032-2.766.703-1.312 1.968-2.086zm4.711 2.672q-.726-.562-1.734-.562t-1.758.562q-.726.54-1.125 1.453-.375.89-.562 1.852-.164.937-.164 1.922 0 .984.164 1.945.187.937.562 1.852.399.89 1.125 1.453.75.539 1.758.539t1.734-.54q.75-.562 1.125-1.452.399-.915.563-1.852.187-.961.187-1.945 0-.985-.187-1.922-.164-.961-.563-1.852-.375-.914-1.125-1.453zm9.68-2.672q1.29-.797 2.977-.797 1.687 0 2.953.797 1.289.774 1.992 2.086.703 1.29 1.031 2.766.328 1.453.328 3.047 0 1.593-.328 3.07-.328 1.453-1.031 2.766-.703 1.289-1.992 2.086-1.266.773-2.953.773-1.688 0-2.977-.773-1.266-.797-1.969-2.086-.703-1.313-1.03-2.766-.33-1.477-.33-3.07 0-1.594.33-3.047.327-1.477 1.03-2.766.703-1.312 1.97-2.086zm4.711 2.672q-.727-.562-1.734-.562-1.008 0-1.758.562-.727.54-1.125 1.453-.375.89-.563 1.852-.164.937-.164 1.922 0 .984.164 1.945.188.937.563 1.852.398.89 1.125 1.453.75.539 1.758.539 1.007 0 1.734-.54.75-.562 1.125-1.452.398-.915.563-1.852.187-.961.187-1.945 0-.985-.187-1.922-.165-.961-.563-1.852-.375-.914-1.125-1.453zm48.942 1.594q-.351.234-.68.234-.585 0-.984-.398-.375-.399-.375-.961 0-.774.61-1.172 1.828-1.242 4.007-2.508.422-.21.844-.21.656 0 1.078.398.445.398.445.984v12.797h1.782q.562 0 .937.422.399.422.399 1.031 0 .61-.399 1.031-.375.422-.937.422h-6.774q-.562 0-.96-.422-.376-.422-.376-1.031 0-.61.375-1.031.399-.422.961-.422h1.875v-10.266q-1.57.938-1.828 1.102zm13.664-4.266q1.29-.797 2.977-.797 1.687 0 2.953.797 1.289.774 1.992 2.086.703 1.29 1.031 2.766.328 1.453.328 3.047 0 1.593-.328 3.07-.328 1.453-1.03 2.766-.704 1.289-1.993 2.086-1.266.773-2.953.773-1.688 0-2.977-.773-1.265-.797-1.969-2.086-.703-1.313-1.03-2.766-.329-1.477-.329-3.07 0-1.594.328-3.047.328-1.477 1.031-2.766.704-1.312 1.97-2.086zm4.711 2.672q-.726-.562-1.734-.562t-1.758.562q-.727.54-1.125 1.453-.375.89-.563 1.852-.164.937-.164 1.922 0 .984.164 1.945.188.937.563 1.852.398.89 1.125 1.453.75.539 1.758.539t1.734-.54q.75-.562 1.125-1.452.399-.915.563-1.852.187-.961.187-1.945 0-.985-.187-1.922-.164-.961-.563-1.852-.375-.914-1.125-1.453zm9.68-2.672q1.289-.797 2.976-.797 1.688 0 2.954.797 1.289.774 1.992 2.086.703 1.29 1.031 2.766.328 1.453.328 3.047 0 1.593-.328 3.07-.328 1.453-1.031 2.766-.703 1.289-1.992 2.086-1.266.773-2.954.773-1.687 0-2.976-.773-1.266-.797-1.969-2.086-.703-1.313-1.031-2.766-.328-1.477-.328-3.07 0-1.594.328-3.047.328-1.477 1.031-2.766.703-1.312 1.969-2.086zm4.71 2.672q-.726-.562-1.734-.562-1.007 0-1.757.562-.727.54-1.125 1.453-.375.89-.563 1.852-.164.937-.164 1.922 0 .984.164 1.945.188.937.563 1.852.398.89 1.125 1.453.75.539 1.757.539 1.008 0 1.735-.54.75-.562 1.125-1.452.398-.915.562-1.852.188-.961.188-1.945 0-.985-.188-1.922-.164-.961-.562-1.852-.375-.914-1.125-1.453zm9.68-2.672q1.29-.797 2.977-.797 1.688 0 2.953.797 1.29.774 1.992 2.086.703 1.29 1.032 2.766.328 1.453.328 3.047 0 1.593-.328 3.07-.329 1.453-1.032 2.766-.703 1.289-1.992 2.086-1.265.773-2.953.773-1.687 0-2.977-.773-1.265-.797-1.968-2.086-.703-1.313-1.032-2.766-.328-1.477-.328-3.07 0-1.594.328-3.047.329-1.477 1.032-2.766.703-1.312 1.968-2.086zm4.711 2.672q-.726-.562-1.734-.562t-1.758.562q-.726.54-1.125 1.453-.375.89-.562 1.852-.164.937-.164 1.922 0 .984.164 1.945.187.937.562 1.852.399.89 1.125 1.453.75.539 1.758.539t1.734-.54q.75-.562 1.125-1.452.399-.915.563-1.852.187-.961.187-1.945 0-.985-.187-1.922-.164-.961-.563-1.852-.375-.914-1.125-1.453z"/></svg>