<svg width="570" height="190" xmlns:xlink="http://www.w3.org/1999/xlink" xmlns="http://www.w3.org/2000/svg"><path d="M295.86 154.922q0 .703-.258 1.36-.258.655-.61 1.124-.351.446-.96.961-.587.492-1.055.797-.446.281-1.172.727-.703.445-1.032.68-.07.046-.539.374-.468.305-.586.399-.117.07-.515.375-.399.281-.563.422l-.445.445q-.305.281-.469.492-.164.211-.351.516-.188.281-.328.586h7.921q.563 0 .938.422.398.421.398 1.03 0 .61-.398 1.032-.375.422-.938.422h-9.562q-.563 0-.961-.399-.375-.398-.375-.984 0-1.055.305-2.015.304-.985.773-1.688.469-.703 1.172-1.406.727-.703 1.336-1.149.633-.468 1.453-.984.023-.023.797-.492.773-.469 1.125-.703.375-.258.96-.703.61-.446.892-.82.28-.376.28-.68 0-1.055-.866-1.641-.844-.61-2.11-.61-1.008 0-2.015.516-1.008.516-1.57 1.36-.516.796-1.196.796-.61 0-.984-.445-.352-.469-.352-1.008 0-1.64 2.11-2.883 2.109-1.242 4.007-1.242 2.555 0 4.149 1.453 1.593 1.454 1.593 3.563zm5.671-4.172q1.29-.797 2.977-.797 1.687 0 2.953.797 1.289.773 1.992 2.086.703 1.289 1.031 2.766.329 1.453.329 3.046 0 1.594-.329 3.07-.328 1.454-1.03 2.766-.704 1.29-1.993 2.086-1.266.774-2.953.774-1.688 0-2.977-.774-1.265-.797-1.969-2.086-.703-1.312-1.03-2.765-.329-1.477-.329-3.07 0-1.594.328-3.047.328-1.477 1.031-2.766.704-1.313 1.97-2.086zm4.711 2.672q-.726-.563-1.734-.563t-1.758.563q-.727.539-1.125 1.453-.375.89-.563 1.852-.164.937-.164 1.921 0 .985.164 1.946.188.937.563 1.851.398.89 1.125 1.453.75.54 1.758.54t1.734-.54q.75-.562 1.125-1.453.399-.914.563-1.851.187-.961.187-1.946 0-.984-.187-1.921-.164-.961-.563-1.852-.375-.914-1.125-1.453zm9.68-2.672q1.289-.797 2.976-.797 1.688 0 2.954.797 1.289.773 1.992 2.086.703 1.289 1.031 2.766.328 1.453.328 3.046 0 1.594-.328 3.07-.328 1.454-1.031 2.766-.703 1.29-1.992 2.086-1.266.774-2.954.774-1.687 0-2.976-.774-1.266-.797-1.969-2.086-.703-1.312-1.031-2.765-.328-1.477-.328-3.07 0-1.594.328-3.047.328-1.477 1.031-2.766.703-1.313 1.969-2.086zm4.71 2.672q-.726-.563-1.734-.563-1.007 0-1.757.563-.727.539-1.125 1.453-.375.89-.563 1.852-.164.937-.164 1.921 0 .985.164 1.946.188.937.563 1.851.398.89 1.125 1.453.75.54 1.757.54 1.008 0 1.735-.54.75-.562 1.125-1.453.398-.914.562-1.851.188-.961.188-1.946 0-.984-.188-1.921-.164-.961-.562-1.852-.375-.914-1.125-1.453zm9.681-2.672q1.289-.797 2.976-.797 1.688 0 2.953.797 1.29.773 1.992 2.086.704 1.289 1.032 2.766.328 1.453.328 3.046 0 1.594-.328 3.07-.329 1.454-1.032 2.766-.703 1.29-1.992 2.086-1.265.774-2.953.774-1.687 0-2.976-.774-1.266-.797-1.97-2.086-.702-1.312-1.03-2.765-.329-1.477-.329-3.07 0-1.594.329-3.047.328-1.477 1.03-2.766.704-1.313 1.97-2.086zm4.71 2.672q-.726-.563-1.734-.563t-1.758.563q-.726.539-1.125 1.453-.375.89-.562 1.852-.164.937-.164 1.921 0 .985.164 1.946.187.937.562 1.851.399.89 1.125 1.453.75.54 1.758.54t1.734-.54q.75-.562 1.125-1.453.399-.914.563-1.851.187-.961.187-1.946 0-.984-.187-1.921-.164-.961-.563-1.852-.375-.914-1.125-1.453zm11.625.868q.422-.423 1.032-.423.61 0 1.03.422.423.422.423 1.031v3.493h3.492q.61 0 1.031.421.422.422.422 1.032 0 .609-.422 1.03-.422.423-1.031.423h-3.492v3.492q0 .61-.422 1.031-.422.422-1.031.422-.61 0-1.032-.422-.421-.422-.421-1.031v-3.492h-3.493q-.609 0-1.03-.422-.423-.422-.423-1.031 0-.61.422-1.032.422-.421 1.031-.421h3.493v-3.493q0-.61.421-1.03zm21.165.632q0 .703-.258 1.36-.258.655-.61 1.124-.351.446-.96.961-.587.492-1.055.797-.446.281-1.172.727-.703.445-1.031.68-.07.046-.54.374-.468.305-.585.399-.118.07-.516.375-.399.281-.563.422l-.445.445q-.305.281-.469.492-.164.211-.351.516-.188.281-.328.586h7.922q.562 0 .937.422.399.421.399 1.03 0 .61-.399 1.032-.375.422-.937.422h-9.563q-.562 0-.96-.399-.376-.398-.376-.984 0-1.055.305-2.015.305-.985.773-1.688.469-.703 1.172-1.406.727-.703 1.336-1.149.633-.468 1.453-.984.024-.023.797-.492.774-.469 1.125-.703.375-.258.961-.703.61-.446.89-.82.282-.376.282-.68 0-1.055-.867-1.641-.844-.61-2.11-.61-1.007 0-2.015.516-1.008.516-1.57 1.36-.516.796-1.196.796-.61 0-.984-.445-.352-.469-.352-1.008 0-1.64 2.11-2.883 2.109-1.242 4.007-1.242 2.555 0 4.149 1.453 1.594 1.454 1.594 3.563zm5.671-4.172q1.29-.797 2.977-.797 1.687 0 2.953.797 1.29.773 1.992 2.086.703 1.289 1.031 2.766.329 1.453.329 3.046 0 1.594-.329 3.07-.328 1.454-1.03 2.766-.704 1.29-1.993 2.086-1.266.774-2.953.774-1.688 0-2.977-.774-1.265-.797-1.968-2.086-.704-1.312-1.032-2.765-.328-1.477-.328-3.07 0-1.594.328-3.047.329-1.477 1.032-2.766.703-1.313 1.968-2.086zm4.711 2.672q-.726-.563-1.734-.563t-1.758.563q-.726.539-1.125 1.453-.375.89-.562 1.852-.164.937-.164 1.921 0 .985.164 1.946.187.937.562 1.851.399.89 1.125 1.453.75.54 1.758.54t1.734-.54q.75-.562 1.125-1.453.399-.914.563-1.851.187-.961.187-1.946 0-.984-.187-1.921-.164-.961-.563-1.852-.375-.914-1.125-1.453zm9.68-2.672q1.29-.797 2.977-.797 1.687 0 2.953.797 1.289.773 1.992 2.086.703 1.289 1.031 2.766.328 1.453.328 3.046 0 1.594-.328 3.07-.328 1.454-1.031 2.766-.703 1.29-1.992 2.086-1.266.774-2.953.774-1.688 0-2.977-.774-1.266-.797-1.969-2.086-.703-1.312-1.031-2.765-.328-1.477-.328-3.07 0-1.594.328-3.047.328-1.477 1.031-2.766.703-1.313 1.969-2.086zm4.71 2.672q-.726-.563-1.733-.563-1.008 0-1.758.563-.727.539-1.125 1.453-.375.89-.563 1.852-.164.937-.164 1.921 0 .985.164 1.946.188.937.563 1.851.398.89 1.125 1.453.75.54 1.758.54 1.007 0 1.734-.54.75-.562 1.125-1.453.398-.914.562-1.851.188-.961.188-1.946 0-.984-.188-1.921-.164-.961-.562-1.852-.375-.914-1.125-1.453zm11.625.868q.423-.423 1.032-.423.61 0 1.031.422.422.422.422 1.031v3.493h3.493q.609 0 1.03.421.423.422.423 1.032 0 .609-.422 1.03-.422.423-1.031.423h-3.493v3.492q0 .61-.422 1.031-.421.422-1.03.422-.61 0-1.032-.422-.422-.422-.422-1.031v-3.492h-3.492q-.61 0-1.031-.422-.422-.422-.422-1.031 0-.61.422-1.032.421-.421 1.03-.421h3.493v-3.493q0-.61.422-1.03zm13.009-.962q-.305.117-.961.633-.633.492-1.031.492-.563 0-.961-.398-.399-.422-.399-1.055 0-.914.961-1.64.961-.727 2.156-1.055 1.196-.352 2.204-.352 2.976 0 4.57 1.149 1.594 1.125 1.594 3.726 0 2.133-1.641 3.492.914.68 1.476 1.758.563 1.055.563 2.297 0 2.508-1.805 3.727-1.78 1.195-4.757 1.195-1.079 0-2.344-.375-1.242-.375-2.297-1.219-1.031-.844-1.031-1.945 0-.633.398-1.031.399-.422.961-.422.633 0 1.148.68.516.656.844.843 1.031.563 2.32.563 3.868 0 3.868-2.063 0-1.43-1.196-1.945-1.171-.516-4.125-.516-.609 0-1.054-.398-.422-.422-.422-1.031 0-.61.422-1.032.422-.445 1.054-.445 1.36 0 2.532-.117 2.32-.258 2.32-1.992 0-.68-.328-1.102-.305-.445-.89-.61-.563-.187-1.009-.234-.445-.047-1.078-.047-.703 0-2.062.47zm13.828-2.578q1.289-.797 2.976-.797 1.688 0 2.954.797 1.289.773 1.992 2.086.703 1.289 1.031 2.766.328 1.453.328 3.046 0 1.594-.328 3.07-.328 1.454-1.031 2.766-.703 1.29-1.992 2.086-1.266.774-2.954.774-1.687 0-2.976-.774-1.266-.797-1.969-2.086-.703-1.312-1.031-2.765-.328-1.477-.328-3.07 0-1.594.328-3.047.328-1.477 1.031-2.766.703-1.313 1.969-2.086zm4.71 2.672q-.726-.563-1.734-.563-1.007 0-1.757.563-.727.539-1.125 1.453-.375.89-.563 1.852-.164.937-.164 1.921 0 .985.164 1.946.188.937.563 1.851.398.89 1.125 1.453.75.54 1.757.54 1.008 0 1.735-.54.75-.562 1.125-1.453.398-.914.562-1.851.188-.961.188-1.946 0-.984-.188-1.921-.164-.961-.562-1.852-.375-.914-1.125-1.453zm11.626.868q.422-.423 1.031-.423.61 0 1.031.422.422.422.422 1.031v3.493h3.492q.61 0 1.032.421.421.422.421 1.032 0 .609-.421 1.03-.422.423-1.032.423h-3.492v3.492q0 .61-.422 1.031-.422.422-1.03.422-.61 0-1.032-.422-.422-.422-.422-1.031v-3.492h-3.492q-.61 0-1.031-.422-.422-.422-.422-1.031 0-.61.421-1.032.422-.421 1.032-.421h3.492v-3.493q0-.61.422-1.03zm10.64-4.126h9.563q.562 0 .937.422.399.398.399.96 0 .423-.164.704l-8.485 14.297q-.421.703-1.265.703-.586 0-.985-.398-.375-.399-.375-.985 0-.281.211-.656l7.29-12.14h-7.126q-.562 0-.96-.423-.375-.421-.375-1.03 0-.61.375-1.032.398-.422.96-.422zm24.117 6.046q.61 0 1.032.423.422.422.422 1.031 0 .61-.422 1.031-.422.422-1.031.422h-9.891q-.61 0-1.031-.422-.422-.422-.422-1.03 0-.61.422-1.032.422-.422 1.031-.422zm0 4.946q.61 0 1.032.422.422.422.422 1.031 0 .61-.422 1.032-.422.422-1.031.422h-9.891q-.61 0-1.031-.422-.422-.422-.422-1.032 0-.609.422-1.03.422-.423 1.031-.423zm15.188-6.234q0 .703-.258 1.36-.257.655-.61 1.124-.35.446-.96.961-.586.492-1.055.797-.445.281-1.172.727-.703.445-1.03.68-.071.046-.54.374-.469.305-.586.399-.117.07-.515.375-.399.281-.563.422l-.445.445q-.305.281-.469.492-.164.211-.352.516-.187.281-.328.586h7.922q.563 0 .938.422.398.421.398 1.03 0 .61-.398 1.032-.375.422-.938.422h-9.562q-.563 0-.961-.399-.375-.398-.375-.984 0-1.055.304-2.015.305-.985.774-1.688.469-.703 1.172-1.406.726-.703 1.336-1.149.632-.468 1.453-.984.023-.023.797-.492.773-.469 1.125-.703.375-.258.96-.703.61-.446.891-.82.281-.376.281-.68 0-1.055-.867-1.641-.843-.61-2.11-.61-1.007 0-2.015.516-1.007.516-1.57 1.36-.516.796-1.195.796-.61 0-.985-.445-.351-.469-.351-1.008 0-1.64 2.11-2.883 2.109-1.242 4.007-1.242 2.555 0 4.148 1.453 1.594 1.454 1.594 3.563zm14.391 0q0 .703-.258 1.36-.258.655-.61 1.124-.351.446-.96.961-.586.492-1.055.797-.445.281-1.172.727-.703.445-1.031.68-.07.046-.54.374-.468.305-.585.399-.117.07-.516.375-.398.281-.562.422l-.446.445q-.304.281-.468.492-.164.211-.352.516-.187.281-.328.586h7.922q.562 0 .937.422.399.421.399 1.03 0 .61-.399 1.032-.375.422-.937.422h-9.563q-.562 0-.96-.399-.376-.398-.376-.984 0-1.055.305-2.015.305-.985.774-1.688.468-.703 1.171-1.406.727-.703 1.336-1.149.633-.468 1.453-.984.024-.023.797-.492.774-.469 1.125-.703.375-.258.961-.703.61-.446.89-.82.282-.376.282-.68 0-1.055-.867-1.641-.844-.61-2.11-.61-1.007 0-2.015.516-1.008.516-1.57 1.36-.516.796-1.196.796-.61 0-.984-.445-.352-.469-.352-1.008 0-1.64 2.11-2.883 2.11-1.242 4.008-1.242 2.554 0 4.148 1.453 1.594 1.454 1.594 3.563zm6.234-1.594q-.305.117-.96.633-.634.492-1.032.492-.563 0-.961-.398-.398-.422-.398-1.055 0-.914.96-1.64.961-.727 2.157-1.055 1.195-.352 2.203-.352 2.976 0 4.57 1.149 1.594 1.125 1.594 3.726 0 2.133-1.64 3.492.913.68 1.476 1.758.562 1.055.562 2.297 0 2.508-1.804 3.727-1.782 1.195-4.758 1.195-1.078 0-2.344-.375-1.242-.375-2.297-1.219-1.031-.844-1.031-1.945 0-.633.398-1.031.399-.422.961-.422.633 0 1.149.68.515.656.844.843 1.03.563 2.32.563 3.867 0 3.867-2.063 0-1.43-1.195-1.945-1.172-.516-4.125-.516-.61 0-1.055-.398-.422-.422-.422-1.031 0-.61.422-1.032.422-.445 1.055-.445 1.36 0 2.531-.117 2.32-.258 2.32-1.992 0-.68-.328-1.102-.304-.445-.89-.61-.563-.187-1.008-.234-.446-.047-1.078-.047-.703 0-2.063.47zm12.024-3.164h9.562q.563 0 .938.422.398.398.398.96 0 .423-.164.704l-8.484 14.297q-.422.703-1.266.703-.586 0-.984-.398-.375-.399-.375-.985 0-.281.21-.656l7.29-12.14h-7.125q-.563 0-.961-.423-.375-.421-.375-1.03 0-.61.375-1.032.398-.422.96-.422zM38.203 165.96v-3.21H31.36q-.586 0-.984-.398-.375-.399-.375-1.008 0-.54.281-.89l8.25-9.891q.399-.516 1.149-.516.61 0 1.03.422.423.398.423.984v8.39h.914q.586 0 .96.423.4.422.4 1.03 0 .61-.4 1.032-.374.422-.96.422h-.914v3.21q0 .563-.422.962-.422.375-1.031.375-.61 0-1.055-.375-.422-.399-.422-.961zm-3.844-6.116h3.844v-4.617zm13.758-9.047q1.29-.797 2.977-.797 1.687 0 2.953.797 1.289.773 1.992 2.086.703 1.289 1.031 2.765.328 1.454.328 3.047 0 1.594-.328 3.07-.328 1.454-1.03 2.766-.704 1.29-1.993 2.086-1.266.774-2.953.774-1.688 0-2.977-.774-1.265-.797-1.969-2.086-.703-1.312-1.03-2.765-.329-1.477-.329-3.07 0-1.594.328-3.048.328-1.476 1.031-2.765.704-1.313 1.97-2.086zm4.711 2.672q-.726-.563-1.734-.563t-1.758.563q-.727.539-1.125 1.453-.375.89-.563 1.851-.164.938-.164 1.922 0 .985.164 1.946.188.937.563 1.851.398.89 1.125 1.453.75.54 1.758.54t1.734-.54q.75-.562 1.125-1.453.399-.914.563-1.851.187-.961.187-1.946 0-.984-.187-1.922-.164-.96-.563-1.851-.375-.914-1.125-1.453zm9.68-2.672q1.289-.797 2.976-.797 1.688 0 2.954.797 1.289.773 1.992 2.086.703 1.289 1.03 2.765.33 1.454.33 3.047 0 1.594-.33 3.07-.327 1.454-1.03 2.766-.703 1.29-1.993 2.086-1.265.774-2.953.774-1.687 0-2.976-.774-1.266-.797-1.969-2.086-.703-1.312-1.031-2.765-.328-1.477-.328-3.07 0-1.594.328-3.048.328-1.476 1.031-2.765.703-1.313 1.969-2.086zm4.71 2.672q-.726-.563-1.734-.563-1.007 0-1.757.563-.727.539-1.125 1.453-.375.89-.563 1.851-.164.938-.164 1.922 0 .985.164 1.946.188.937.563 1.851.398.89 1.125 1.453.75.54 1.757.54 1.008 0 1.735-.54.75-.562 1.125-1.453.398-.914.562-1.851.188-.961.188-1.946 0-.984-.188-1.922-.164-.96-.562-1.851-.375-.914-1.125-1.453zm11.626.867q.422-.422 1.031-.422.61 0 1.031.422.422.422.422 1.031v3.492h3.492q.61 0 1.032.422.421.422.421 1.031 0 .61-.421 1.032-.422.422-1.032.422h-3.492v3.492q0 .61-.422 1.031-.422.422-1.031.422-.61 0-1.031-.422-.422-.422-.422-1.031v-3.492H74.93q-.61 0-1.032-.422-.421-.422-.421-1.032 0-.609.421-1.03.422-.423 1.032-.423h3.492v-3.492q0-.61.422-1.031zm13.008-.961q-.305.117-.961.633-.633.492-1.032.492-.562 0-.96-.398-.399-.422-.399-1.055 0-.914.96-1.64.962-.727 2.157-1.055Q92.812 150 93.82 150q2.977 0 4.57 1.148 1.594 1.125 1.594 3.727 0 2.133-1.64 3.492.914.68 1.476 1.758.563 1.055.563 2.297 0 2.508-1.805 3.726-1.781 1.196-4.758 1.196-1.078 0-2.343-.375-1.243-.375-2.297-1.219-1.032-.844-1.032-1.945 0-.633.399-1.032.398-.421.96-.421.634 0 1.15.68.515.656.843.843 1.031.563 2.32.563 3.868 0 3.868-2.063 0-1.43-1.196-1.945-1.172-.516-4.125-.516-.61 0-1.055-.398-.421-.422-.421-1.032 0-.609.421-1.03.422-.446 1.055-.446 1.36 0 2.531-.117 2.32-.258 2.32-1.993 0-.68-.327-1.101-.305-.445-.891-.61-.563-.187-1.008-.234-.445-.047-1.078-.047-.703 0-2.062.469zm13.828-2.578q1.289-.797 2.976-.797 1.688 0 2.953.797 1.29.773 1.993 2.086.703 1.289 1.03 2.765.329 1.454.329 3.047 0 1.594-.328 3.07-.328 1.454-1.031 2.766-.704 1.29-1.993 2.086-1.265.774-2.953.774-1.687 0-2.976-.774-1.266-.797-1.97-2.086-.702-1.312-1.03-2.765-.328-1.477-.328-3.07 0-1.594.328-3.048.328-1.476 1.03-2.765.704-1.313 1.97-2.086zm4.71 2.672q-.726-.563-1.734-.563t-1.758.563q-.726.539-1.125 1.453-.375.89-.562 1.851-.164.938-.164 1.922 0 .985.164 1.946.187.937.562 1.851.399.89 1.125 1.453.75.54 1.758.54t1.735-.54q.75-.562 1.125-1.453.398-.914.562-1.851.188-.961.188-1.946 0-.984-.188-1.922-.164-.96-.562-1.851-.375-.914-1.125-1.453zm11.626.867q.421-.422 1.03-.422.61 0 1.032.422.422.422.422 1.031v3.492h3.492q.61 0 1.031.422.422.422.422 1.031 0 .61-.422 1.032-.421.422-1.03.422H124.5v3.492q0 .61-.422 1.031-.422.422-1.031.422-.61 0-1.031-.422-.422-.422-.422-1.031v-3.492h-3.492q-.61 0-1.032-.422-.422-.422-.422-1.032 0-.609.422-1.03.422-.423 1.032-.423h3.492v-3.492q0-.61.422-1.031zm21.492 6.633q0 3.023-2.063 4.71-2.062 1.665-5.437 1.665-.797 0-1.805-.235-1.008-.257-1.922-.89-.914-.633-.914-1.524 0-.61.399-1.03.398-.423.96-.423.47 0 .938.375.961.82 2.344.82 1.992 0 3.398-.843 1.43-.867 1.43-2.625 0-1.196-1.102-1.899-1.078-.726-2.414-.726-1.265 0-2.765.539-1.5.539-1.828.539-.563 0-.961-.399-.399-.421-.399-1.03l.89-6.61q.095-.516.47-.844.375-.328.89-.328h7.313q.562 0 .96.422.4.422.4 1.031 0 .61-.4 1.031-.398.422-.96.422h-6.047l-.516 2.742q1.64-.421 2.953-.421 2.625 0 4.407 1.546 1.78 1.547 1.78 3.985zm19.805-4.711q.609 0 1.03.422.423.422.423 1.03 0 .61-.422 1.032-.422.422-1.031.422h-9.891q-.61 0-1.031-.422-.422-.422-.422-1.031 0-.61.422-1.031.422-.422 1.03-.422zm0 4.945q.609 0 1.03.422.423.422.423 1.031 0 .61-.422 1.031-.422.422-1.031.422h-9.891q-.61 0-1.031-.421-.422-.422-.422-1.032 0-.61.422-1.031.422-.422 1.03-.422zm17.484 4.757v-3.21h-6.844q-.586 0-.984-.398-.375-.399-.375-1.008 0-.54.281-.89l8.25-9.891q.398-.516 1.148-.516.61 0 1.032.422.422.398.422.984v8.39h.914q.586 0 .96.423.399.422.399 1.03 0 .61-.398 1.032-.375.422-.961.422h-.914v3.21q0 .563-.422.962-.422.375-1.032.375-.609 0-1.054-.375-.422-.399-.422-.961zm-3.844-6.116h3.844v-4.617zm14.32-6.469q-.304.117-.96.633-.633.492-1.032.492-.562 0-.96-.398-.4-.422-.4-1.055 0-.914.962-1.64.96-.727 2.156-1.055 1.195-.352 2.203-.352 2.977 0 4.57 1.148 1.594 1.125 1.594 3.727 0 2.133-1.64 3.492.914.68 1.476 1.758.563 1.055.563 2.297 0 2.508-1.805 3.726-1.781 1.196-4.758 1.196-1.078 0-2.344-.375-1.242-.375-2.296-1.219-1.032-.844-1.032-1.945 0-.633.399-1.032.398-.421.96-.421.634 0 1.15.68.515.656.843.843 1.031.563 2.32.563 3.867 0 3.867-2.063 0-1.43-1.195-1.945-1.172-.516-4.125-.516-.61 0-1.055-.398-.421-.422-.421-1.032 0-.609.421-1.03.422-.446 1.055-.446 1.36 0 2.531-.117 2.32-.258 2.32-1.993 0-.68-.327-1.101-.305-.445-.891-.61-.563-.187-1.008-.234-.445-.047-1.078-.047-.703 0-2.063.469zm22.875 7.594q0 3.023-2.062 4.71-2.063 1.665-5.438 1.665-.796 0-1.804-.235-1.008-.257-1.922-.89-.914-.633-.914-1.524 0-.61.398-1.03.399-.423.961-.423.469 0 .938.375.96.82 2.343.82 1.993 0 3.399-.843 1.43-.867 1.43-2.625 0-1.196-1.102-1.899-1.078-.726-2.414-.726-1.266 0-2.766.539t-1.828.539q-.562 0-.96-.399-.4-.421-.4-1.03l.891-6.61q.094-.516.47-.844.374-.328.89-.328h7.312q.563 0 .961.422.399.422.399 1.031 0 .61-.399 1.031-.398.422-.96.422h-6.048l-.515 2.742q1.64-.421 2.953-.421 2.625 0 4.406 1.546 1.781 1.547 1.781 3.985z"/><path d="M132.724 65.415v-15.36s.011-8.53-7.713-8.53c-7.725 0-7.714 8.53-7.714 8.53v15.36" id="b" fill="none" stroke="#f2a82a" stroke-width="5" stroke-linecap="round"/><path d="M183.188 41.834v19" id="c" fill="none" stroke="#f2a82a" stroke-width="5" stroke-linecap="round"/><path d="M57.202 47.842c-2.16-.036-3.607-2.42-3.607-4.498 0-3.71 3.953-6.314 7.71-6.248 3.757.067 6.231 4.389 6.185 8.35-.055 4.607-4.998 12.271-10.403 18.072-5.405 5.8-8.677 9.51-12.167 12.641-1.495 1.341.936 1.457 3.323.08 1.06-.613 6.207-3.914 12.145-9.81 5.937-5.897 12.289-13.214 12.42-20.905.123-7.263-2.994-13.65-9.975-13.65-6.545 0-13.825 5.936-13.825 11.82 0 5.118 3.74 9.148 8.194 9.148 4.703 0 7.864-3.909 7.908-7.843.024-2.149-1.53-4.005-3.109-4.614-1.58-.608-3.11-.566-4.586.286a2.5 2.5 0 00-.916 3.414c.69 1.196 2.22 1.607 3.505.931-.275 1.66-.901 2.859-2.802 2.826z" id="a" fill="#f2a82a"/><path id="d" d="M322.066 36.726c-2.68 0-6.313 1.343-6.313 3.587 0 3.562 4.051 4.817 4.051 6.237 0 1.51-3.898 2.756-3.898 5.316 0 2.094 3.33 1.773 4.535 1.766a9.11 9.11 0 001.209-.098v47.184c-1.907.089-3.944-.011-6.11-.293-1.794 2.84 2.354 4.395 2.354 7.697 0 3.193-5.344 2.8-5.344 8.97 0 5.25 2.887 7.317 8.588 7.317 6.718 0 8.334-3.343 8.334-7.889 0-6.687-3.943-7.255-3.943-9.67 0-2.414 3.854-4.5 1.845-7.126-1.162.386-2.409.652-3.724.82V53.028c3.514-1.297 6.328-4.59 6.328-8.703 0-3.763-4.088-7.6-7.912-7.6zm.88 2.035c2.008 0 5.33 2.099 5.33 5.062 0 4.186-3.8 7.139-5.197 7.139-.632 0-2.19.196-2.19-1.453 0-1.635 2.43-1.756 2.43-4.186 0-1.977-3.78-1.949-3.78-4.754 0-1.767 2-1.808 3.408-1.808zm-2.03 72.097c2.833 0 6.84 2.73 6.84 5.471 0 2.61-3.933 4.645-6.49 4.645-2.544 0-6.648-.637-6.648-3.182 0-3.594 3.379-6.934 6.297-6.934z" fill="#f2a82a" stroke="none"/><use xlink:href="#a" transform="translate(30)"/><use xlink:href="#a" transform="translate(0 48)"/><use xlink:href="#a" transform="translate(30 48)"/><use xlink:href="#b" transform="translate(28)"/><use xlink:href="#b" transform="translate(14 40)"/><use xlink:href="#c" transform="translate(10)"/><use xlink:href="#c" transform="translate(-6 40)"/><use xlink:href="#c" transform="translate(4 40)"/><use xlink:href="#c" transform="translate(14 40)"/><use xlink:href="#d" transform="translate(26)"/><use xlink:href="#a" transform="translate(328.637)"/><use xlink:href="#a" transform="translate(328.637 48)"/><use xlink:href="#b" transform="translate(314.637)"/><use xlink:href="#b" transform="translate(342.637)"/><use xlink:href="#b" transform="translate(328.637 40)"/><use xlink:href="#c" transform="translate(232.637 44)"/><use xlink:href="#c" transform="translate(242.637 44)"/><use xlink:href="#c" transform="translate(312.637)"/><use xlink:href="#c" transform="translate(322.637)"/><use xlink:href="#c" transform="translate(306.637 40)"/><use xlink:href="#c" transform="translate(316.637 40)"/><use xlink:href="#c" transform="translate(326.637 40)"/></svg>