<svg width="129" height="72" xmlns="http://www.w3.org/2000/svg"><path d="M35.186 19.632c-1.407-.023-2.35-1.576-2.35-2.93 0-2.416 2.576-4.113 5.023-4.07 2.447.044 4.059 2.86 4.028 5.44-.035 3-3.255 7.993-6.776 11.772-3.52 3.778-5.653 6.195-7.925 8.234-.974.874.61.95 2.164.052.69-.399 4.044-2.549 7.912-6.39 3.867-3.841 8.005-8.607 8.09-13.617.08-4.732-1.95-8.892-6.498-8.892-4.263 0-9.005 3.867-9.005 7.7 0 3.333 2.436 5.959 5.337 5.959 3.064 0 5.123-2.547 5.152-5.11.015-1.4-.997-2.608-2.026-3.005-1.029-.396-2.026-.369-2.987.186a1.629 1.629 0 00-.597 2.224c.45.78 1.447 1.046 2.284.607-.18 1.08-.588 1.862-1.826 1.84zM11.313 7.44c-1.746 0-4.112.876-4.112 2.338 0 2.32 2.638 3.138 2.638 4.062 0 .984-2.538 1.796-2.538 3.464 0 1.364 2.169 1.154 2.954 1.15a5.934 5.934 0 00.787-.064v30.736a22.638 22.638 0 01-3.98-.19c-1.169 1.85 1.534 2.862 1.534 5.014 0 2.079-3.482 1.824-3.482 5.843 0 3.42 1.881 4.766 5.595 4.766 4.376 0 5.429-2.177 5.429-5.139 0-4.356-2.569-4.726-2.569-6.299 0-1.572 2.51-2.931 1.202-4.643-.757.253-1.57.426-2.426.535V18.06c2.29-.846 4.122-2.99 4.122-5.67 0-2.45-2.663-4.95-5.154-4.95zm.573 1.326c1.309 0 3.473 1.368 3.473 3.298 0 2.727-2.476 4.65-3.386 4.65-.412 0-1.426.128-1.426-.946 0-1.065 1.582-1.144 1.582-2.726 0-1.288-2.462-1.27-2.462-3.097 0-1.151 1.303-1.179 2.22-1.179zm-1.322 46.966c1.845 0 4.456 1.778 4.456 3.563 0 1.7-2.562 3.026-4.228 3.026-1.657 0-4.33-.414-4.33-2.073 0-2.341 2.2-4.516 4.101-4.516zM41.186 43.632c-1.407-.023-2.35-1.576-2.35-2.93 0-2.416 2.576-4.113 5.023-4.07 2.447.044 4.059 2.86 4.028 5.44-.035 3-3.255 7.993-6.776 11.772-3.52 3.778-5.653 6.195-7.925 8.234-.974.874.61.95 2.164.052.69-.399 4.044-2.549 7.912-6.39 3.867-3.841 8.005-8.607 8.09-13.617.08-4.732-1.95-8.892-6.498-8.892-4.263 0-9.005 3.867-9.005 7.7 0 3.333 2.436 5.959 5.337 5.959 3.064 0 5.123-2.547 5.152-5.11.015-1.4-.997-2.608-2.026-3.005-1.029-.396-2.026-.369-2.987.186a1.629 1.629 0 00-.597 2.224c.45.78 1.447 1.046 2.284.607-.18 1.08-.588 1.862-1.826 1.84z" fill="#f2a82a"/><path d="M79.19 30.781V20.776s.007-5.557-5.025-5.557c-5.033 0-5.025 5.556-5.025 5.556v10.006m.05 26V46.776s.007-5.557-5.025-5.557c-5.033 0-5.025 5.556-5.025 5.556v10.006m32.05 0V46.776s.007-5.557-5.025-5.557c-5.033 0-5.025 5.556-5.025 5.556v10.006m33.442-26.969v12.376m6-12.376v12.376m-12-12.376v12.376" fill="none" stroke="#f2a82a" stroke-linecap="round" stroke-width="1.954"/></svg>