<svg width="195" height="46" xmlns="http://www.w3.org/2000/svg"><path d="M16.554 18.632c-1.407-.023-2.35-1.576-2.35-2.93 0-2.416 2.576-4.113 5.023-4.07 2.447.044 4.059 2.86 4.028 5.44-.035 3-3.255 7.993-6.776 11.772-3.52 3.778-5.653 6.195-7.925 8.234-.974.874.61.95 2.164.052.69-.4 4.044-2.55 7.912-6.39 3.867-3.841 8.005-8.607 8.09-13.617.08-4.732-1.95-8.892-6.498-8.892-4.263 0-9.005 3.867-9.005 7.7 0 3.333 2.436 5.959 5.337 5.959 3.064 0 5.123-2.547 5.152-5.11.015-1.4-.997-2.608-2.026-3.005-1.03-.396-2.026-.37-2.987.186a1.629 1.629 0 00-.597 2.224c.45.78 1.447 1.046 2.284.607-.18 1.08-.588 1.862-1.826 1.84z" fill="#f2a82a"/><path d="M56.904 30.781V20.776s.007-5.557-5.025-5.557c-5.033 0-5.025 5.556-5.025 5.556v10.006m30.05 0V20.776s.007-5.557-5.025-5.557c-5.033 0-5.025 5.556-5.025 5.556v10.006m30.05 0V20.776s.007-5.557-5.025-5.557c-5.033 0-5.025 5.556-5.025 5.556v10.006m30.05 0V20.776s.007-5.557-5.025-5.557c-5.033 0-5.025 5.556-5.025 5.556v10.006m28.915-13.969v12.376m10-12.376v12.376m10-12.376v12.376m10-12.376v12.376m10-12.376v12.376m10-12.376v12.376" fill="none" stroke="#f2a82a" stroke-width="1.954" stroke-linecap="round"/></svg>