<svg width="122" height="40" xmlns="http://www.w3.org/2000/svg"><path d="M14.283 15.433c-1.383-.023-2.31-1.549-2.31-2.88 0-2.375 2.532-4.042 4.937-4 2.406.043 3.99 2.81 3.96 5.346-.035 2.95-3.2 7.857-6.66 11.572-3.461 3.713-5.557 6.089-7.79 8.093-.958.86.598.933 2.127.051.678-.392 3.974-2.505 7.776-6.281 3.801-3.775 7.869-8.46 7.952-13.385.08-4.65-1.917-8.74-6.386-8.74-4.191 0-8.852 3.801-8.852 7.569 0 3.277 2.394 5.857 5.246 5.857 3.011 0 5.035-2.503 5.063-5.022.016-1.376-.98-2.564-1.99-2.954-1.012-.39-1.992-.363-2.937.183a1.6 1.6 0 00-.586 2.186c.442.766 1.421 1.028 2.244.596-.177 1.063-.577 1.83-1.794 1.81z" fill="#f2a82a"/><path d="M40.752 27.375V17.54s.006-5.462-4.94-5.462c-4.946 0-4.939 5.461-4.939 5.461v9.835m61.937-13.73v12.165m8-12.165v12.165m8-12.165v12.165m8-12.165v12.165m-58.058 1.566V17.54s.006-5.462-4.94-5.462c-4.946 0-4.939 5.461-4.939 5.461v9.835m27.879.001V17.54s.006-5.462-4.94-5.462c-4.946 0-4.939 5.461-4.939 5.461v9.835m17.937-13.73v12.165" stroke="#f2a82a" stroke-linecap="round" stroke-width="1.921" fill="none"/></svg>