<svg width="104" height="122" xmlns="http://www.w3.org/2000/svg"><defs><linearGradient x1="0" y1="0" x2="1" y2="0" gradientUnits="userSpaceOnUse" gradientTransform="matrix(37.29663 -99.44594 99.10003 37.42682 32.18 112.252)" spreadMethod="pad" id="a"><stop offset="0" stop-color="#aedccd"/><stop offset=".428" stop-color="#aee6ed"/><stop offset=".988" stop-color="#86e1ff"/><stop offset="1" stop-color="#86e1ff"/></linearGradient></defs><path d="M102 40.502v-3.167a2.83 2.83 0 01-2.823-2.832A2.83 2.83 0 01102 31.668v-3.164a2.832 2.832 0 01-2.823-2.836A2.83 2.83 0 01102 22.835v-3.167a2.83 2.83 0 01-2.823-2.833A2.832 2.832 0 01102 14v-3.166a2.83 2.83 0 01-2.823-2.833A2.832 2.832 0 01102 5.165V2h-3.154a2.827 2.827 0 01-2.826 2.834A2.827 2.827 0 0193.197 2h-3.156a2.828 2.828 0 01-2.824 2.834A2.827 2.827 0 0184.394 2h-3.155a2.828 2.828 0 01-2.827 2.834A2.828 2.828 0 0175.588 2h-3.156a2.827 2.827 0 01-2.823 2.834A2.825 2.825 0 0166.786 2h-3.157a2.828 2.828 0 01-2.825 2.834A2.827 2.827 0 0157.98 2h-3.157A2.826 2.826 0 0152 4.834 2.828 2.828 0 0149.176 2H46.02a2.828 2.828 0 01-2.823 2.834A2.828 2.828 0 0140.37 2h-3.154a2.828 2.828 0 01-2.824 2.834A2.827 2.827 0 0131.568 2h-3.155a2.828 2.828 0 01-2.825 2.834A2.828 2.828 0 0122.763 2H19.61a2.828 2.828 0 01-2.827 2.834A2.827 2.827 0 0113.96 2h-3.156a2.828 2.828 0 01-2.826 2.834A2.828 2.828 0 015.155 2H2.002v3.165a2.832 2.832 0 012.825 2.836 2.832 2.832 0 01-2.825 2.833V14a2.832 2.832 0 012.825 2.835 2.83 2.83 0 01-2.826 2.833L2 22.835a2.831 2.831 0 012.825 2.833A2.833 2.833 0 012 28.504v3.164a2.831 2.831 0 012.825 2.835A2.83 2.83 0 012 37.335v3.167a2.831 2.831 0 012.825 2.834A2.833 2.833 0 012 46.171v3.165a2.832 2.832 0 012.825 2.834A2.832 2.832 0 012 55.005v3.165a2.831 2.831 0 012.825 2.833A2.831 2.831 0 012 63.838v3.166a2.831 2.831 0 012.825 2.835A2.832 2.832 0 012 72.673v3.166a2.83 2.83 0 012.82 2.833A2.83 2.83 0 012 81.507v3.167c1.56 0 2.818 1.27 2.82 2.833A2.827 2.827 0 012 90.339v3.167a2.832 2.832 0 012.82 2.835A2.83 2.83 0 012 99.174v3.167a2.83 2.83 0 012.82 2.833A2.832 2.832 0 012 108.01v3.167a2.829 2.829 0 012.82 2.832A2.83 2.83 0 012 116.842V120h3.155a2.827 2.827 0 012.823-2.833A2.827 2.827 0 0110.803 120h3.157a2.826 2.826 0 012.823-2.833A2.828 2.828 0 0119.609 120h3.153a2.828 2.828 0 012.826-2.833A2.828 2.828 0 0128.413 120h3.155a2.827 2.827 0 012.824-2.833A2.827 2.827 0 0137.216 120h3.155a2.828 2.828 0 012.827-2.833A2.827 2.827 0 0146.02 120h3.154a2.826 2.826 0 115.65 0h3.157a2.826 2.826 0 012.823-2.833A2.828 2.828 0 0163.629 120h3.157a2.825 2.825 0 012.823-2.833A2.826 2.826 0 0172.432 120h3.156a2.827 2.827 0 115.652 0h3.155a2.826 2.826 0 012.823-2.833A2.826 2.826 0 0190.04 120h3.156a2.827 2.827 0 012.823-2.833A2.827 2.827 0 0198.846 120h3.15v-3.157a2.831 2.831 0 01-2.826-2.835 2.831 2.831 0 012.826-2.833v-3.166a2.831 2.831 0 01-2.826-2.835 2.831 2.831 0 012.826-2.833H102h-.002v-3.167a2.83 2.83 0 01-2.825-2.833 2.832 2.832 0 012.825-2.835v-3.164a2.832 2.832 0 01-2.825-2.835 2.83 2.83 0 012.825-2.833v-3.167a2.832 2.832 0 01-2.825-2.835 2.83 2.83 0 012.825-2.833v-3.166a2.832 2.832 0 01-2.825-2.834 2.832 2.832 0 012.825-2.835v-3.166a2.83 2.83 0 01-2.825-2.835 2.832 2.832 0 012.825-2.833v-3.165a2.832 2.832 0 01-2.825-2.835 2.83 2.83 0 012.826-2.834l.001-3.165a2.831 2.831 0 01-2.824-2.835A2.83 2.83 0 01102 40.502z" fill="#34495e"/><path d="M93.399 109.873H9.488V12.33h83.91v97.543" fill="url(#a)"/><path d="M50.791 15.58c20.485 0 37.09 16.663 37.09 37.216 0 20.554-16.605 37.216-37.09 37.216-20.484 0-37.09-16.662-37.09-37.216.001-20.553 16.606-37.216 37.09-37.216z" fill="#f9f0df"/><path d="M41.057 40.195c.345-.051.983-.814 1.13-.37.146.443-.979 2.116.197 5.609 1.174 3.493 3.383 3.543 4.754 3.248 1.373-.296 2.895-.887 2.648-1.675-.243-.786-2.304-1.523-.782-2.755 1.763-1.425 1.273-3.394.684-3.935-.588-.542.082 1.308-1.372.689-1.62-.69-.49-3.124.049-4.01 0 0-.688.484-2.208.787-1.89.378-4.697.601-4.78.738-.563.944-.662 1.722-.32 1.674zm-4.951-13.901c-1.97-.644-3.67.744-4.511 2.413-1.137 2.257-.933 5.607.049 9.1l4.118 13.827c.149.499.323.683-.22.916-1.601.688-3.233 1.2-4.977 1.641-3.235-6.09-5.62-13.662-5.584-20.179.022-3.935 1.925-9.096 5.094-10.621 3.263-1.57 7.208.442 7.208.442 0-1.627 1.189-2.911 2.452-2.915 1.865-.006 2.975 2.573 2.747 3.752-1.533-.548-2.552-.615-3.092 1.132z" fill="#e32333"/><path d="M40.662 21.145c-.738.093-1.649.452-2.305 1.128-.541.568-1.071 1.514-.757 2.965-.088-.152-.224-.248-.336-.37a3.044 3.044 0 00-1.453-.766c-.822-.178-5.036-.913-7.498 2.21-2.059 2.611-2.931 6.117-2.458 9.868.288 2.242 1.174 4.646 1.954 6.77.458 1.245.892 2.423 1.181 3.484.714 2.625 2.092 5.907 2.758 7.439l.195-.055c-.663-1.518-2.048-4.808-2.763-7.437-.29-1.07-.725-2.251-1.186-3.502-.775-2.111-1.657-4.506-1.937-6.723-.471-3.7.386-7.152 2.412-9.72 2.39-3.031 6.5-2.316 7.299-2.143.23.051.453.133.664.238-1.715-.454-4.913-.344-6.43 1.281-2.1 2.26-4.267 5.075-3.348 9.881.553 2.9 1.188 4.323 1.862 5.832.48 1.068.971 2.17 1.466 3.871.806 2.761 1.624 5.519 2.456 8.272l.19-.059c-.523-1.743-1.596-5.305-2.456-8.267-.5-1.715-.993-2.823-1.47-3.897-.671-1.497-1.306-2.913-1.854-5.789-.897-4.716 1.236-7.482 3.302-9.707 1.738-1.867 5.768-1.675 6.954-.949.185.173.346.365.482.572.089-.039.178-.076.273-.111-.419-1.52.1-2.489.641-3.049v-.002c.708-.732 1.723-1.068 2.445-1.098a2.392 2.392 0 00-.283-.168zm-1.414 1.347c-1.076.917-1.06 1.855-.945 2.842l.199-.014c-.114-.936-.123-1.823.877-2.677.713-.61 1.448-.874 2.144-.803a2.342 2.342 0 00-.212-.219c-.68.001-1.383.29-2.063.871zm1.947.084a2.044 2.044 0 00-.933.197c-1.175.561-1.642 1.557-1.701 2.55l.185.017c.07-1.521 1.199-2.195 1.606-2.389.649-.31 1.326-.18 1.888.106a4.565 4.565 0 00-.115-.268 2.593 2.593 0 00-.93-.213zm-.174 1.049c-.094.002-.19.013-.289.033-1.227.253-1.695 1.137-1.865 1.715l.186.072c.156-.53.577-1.357 1.718-1.593.706-.148 1.305.292 1.72.744.011-.086.017-.178.017-.276-.382-.375-.886-.709-1.487-.695zm-6.595 1.809c-1.102-.026-2.124.219-3.031.736-1.691.963-2.854 2.853-3.204 5.187-.654 4.418 1.117 9.052 2.29 12.12.563 1.471 1.194 3.34 1.8 5.146.535 1.587 1.083 3.214 1.588 4.574l.188-.064c-.502-1.36-1.05-2.982-1.586-4.572-.61-1.808-1.24-3.679-1.803-5.157-1.167-3.047-2.928-7.652-2.277-12.021.334-2.271 1.467-4.107 3.103-5.04a5.396 5.396 0 012.322-.693 5.693 5.693 0 00-.295.09c-2.25.746-3.684 2.146-3.89 6.81-.172 3.974.292 5.801 1.139 9.118.136.532.27 1.064.402 1.598.597 2.407 1.57 4.587 2.43 6.511.505 1.131.956 2.15 1.257 3.047l.184-.074c-.307-.903-.756-1.922-1.26-3.053-.856-1.915-1.825-4.088-2.416-6.478-.143-.577-.28-1.105-.406-1.6-.84-3.297-1.305-5.115-1.13-9.058.198-4.555 1.584-5.913 3.755-6.637a5.633 5.633 0 011.3-.262 8.152 8.152 0 011.72.36l.294-.15c-.635-.38-1.365-.453-1.998-.411a6.962 6.962 0 00-.476-.027zm-.219.845c-1.06.088-2.387.535-3.174 1.977-1.594 2.921-1.114 5.242-.506 8.18.45 2.18 1.254 4.756 2.106 7.484.366 1.166.724 2.335 1.074 3.506a161.33 161.33 0 001.635 5.205c.06-.026.123-.046.183-.072-.571-1.72-1.113-3.451-1.625-5.19-.346-1.166-.72-2.358-1.078-3.51-.848-2.722-1.65-5.293-2.1-7.464-.665-3.215-.998-5.324.485-8.043.594-1.09 1.542-1.59 2.365-1.8.203-.112.415-.204.635-.273zm-9.201 7.012c-.015.244-.024.484-.026.72-.002.356.008.717.02 1.079.156 1.105.377 2.2.664 3.28.309 1.276.65 2.19 1.01 3.157.397 1.063.808 2.162 1.222 3.866.782 3.205 1.646 6.457 2.692 8.793l.197-.053c-1.048-2.321-1.915-5.578-2.697-8.79-.417-1.712-.829-2.815-1.23-3.884-.357-.961-.696-1.87-1.003-3.143-.008-.035-.662-2.366-.85-5.025z" fill="#802128"/><path d="M40.373 27.293a9.85 9.85 0 00-1.914.232c-2.093.454-4.658 1.967-5.59 4.28-.932 2.313-1.17 8.544.392 8.856.148.03.55-.066 1.05-.207.216.187.357.585.275.748-.098.197-1.47 2.116-1.126 4.675.342 2.558 2.206 4.477 4.362 4.822 2.158.344 6.179-.934 6.276-1.426.099-.493-.882-.199-1.615-.887-.739-.689-.543-1.182 1.272-3.001 1.814-1.82.737-2.951-.048-3.592 0 0-.295-.344-.295 0 0 .345-.293 1.23-1.225.886-.93-.345-1.858-2.083-.646-4.145 2.547-.413 5.473-.7 6.285-1.07.89-.406 1.178-1.045.948-2.197a7.402 7.402 0 00-.213-.806c-.488-1.516-2.428-7.274-8.188-7.168z" fill="#ffb528"/><path d="M42.483 36.135c-3.287.638-4.415 1.13-4.563.688-.147-.442 1.813-.983 3.627-1.378 1.817-.392 5.982-1.18 7.013-.983.093.293.166.56.213.806-1.269.122-3.91.402-6.29.867z" fill="#e32333"/><path d="M35.517 41.3s.246.345 0 .69c-.245.344-1.765 2.46-.735 4.477 1.029 2.018 2.254 2.952 4.02 3.051 1.767.099 2.111 0 2.012-.295-.099-.296-1.372-1.279-.49-2.263.884-.985 1.912-1.575 1.716-2.314-.197-.737-1.767-1.721-2.208-2.902-.441-1.182-.245-1.526-.245-1.526-.342.296-4.07 1.082-4.07 1.082z" fill="#0f6c7a"/><path d="M36.596 39.235c.536-.201.195-.884-.342-.688-.336.122-.248.909.342.688zm2.11-.59c.538-.147.293-.788-.297-.64-.391.098-.244.788.297.64z" fill="#e32333"/><path d="M37.846 27.845s.344.196.786-.223l-.271-.81s-.54-.32-.685.27z" fill="#125867"/><path d="M36.107 27.23c.44.392 2.843-.149 3.284-.787.441-.64-.047-2.02-3.187-.591-.607.276-.54.983-.097 1.378z" fill="#ffb528"/><path d="M55.525 41.403C51.34 52.473 49.6 65.44 50.462 71.072c.861 5.63 7.494 9.32 11.412 9.168 3.92-.152 8.819-4.288 11.5-11.897 2.683-7.613 5.399-19.552 4.841-25.994-.557-6.442-3.228-9.897-8.392-11.148-3.578-.866-10.113-.87-14.298 10.202z" fill="#e32333"/><path d="M59.606 36.212c-2.388 4.478-5.337 11.19-6.905 18.297-1.567 7.106-2.103 16.078.009 19.674 2.11 3.593 7.206 5.871 11.133 4.375 3.927-1.496 8.856-8.614 11.111-18.666 2.255-10.053 4.448-24.085-5.335-27.178-2.818-.891-7.624-.982-10.013 3.498z" fill="#ffb528"/><path d="M69.966 34.907l-1.891 1.406.81.305-3.553 13.568-1.216 4.907-9.29-3.345.393-.858-1.9.652.75 2.086.482-.911 9.295 3.387-1.143 3.879-4.124 14.007-1.28-.218 1.086 2.48 2.086-1.574-1.292-.443 4.44-14.065.814-3.852 8.157 2.974-.196.692 2.097-.563-1.008-1.969-.53.822-8.25-2.97 1.672-5.118 3.404-13.313 1.035.296z" fill="#0f6c7a"/><path d="M64.528 38.24c-.496-.02-1.427.532-2.385 2.375.158-.322.357-.877-.033-1.144-.515-.357-1.686 1.195-2.085 3.42.075-.56.1-1.317-.364-1.355-.73-.058-1.523 3.004-1.139 4.538 0 0-.366-1.6-.955-1.097-.58.497-.446 5.6 1.929 7.658-.306.241-.5.444-.498.568 0 0 .462.989 1.025 2.153-2.239.627-3.725 1.694-4.935 3.873-1.218 2.196-1.247 3.085-.734 3.38.513.297 1.387-1.472 1.387-1.472s-1.877 3.727-1.256 4.428c.348.39.785-.162 1.118-.732-.384.805-.832 1.95-.643 2.737.23.972.537 1.233.854.543-.167.678-.275 1.559.104 2.124.68 1.016 1.102.315 1.504-2.413.393-2.667 1.956-6.93 4.521-8.782.434.73.81 1.255 1.026 1.317.342.097 1.625-.377 3.038-.994.594 1.316.913 4.871-.206 8.085-1.207 3.469-2.083 4.715-1.306 4.862.722.135 1.46-.94 1.753-2.587-.073.495-.12 1.263.346 1.242.678-.032 1.386-1.996 1.454-3.026 0 0-.088 1.623.543 1.502.595-.113 1.167-2.295.814-4.173.096.468.334 1.245.858.91.716-.457 1.87-3.766-1.857-7.941 1.104-.557 1.995-1.059 2.153-1.25.16-.192-.251-1.142-.863-2.293 3.568.07 6.113-3.615 5.819-4.143-.295-.534-1.221.101-1.221.101 1.241-.694 2.183-4.015 1.71-4.45-.347-.319-.895.507-1.165.972.802-1.45 1.44-4.787.616-5.09-.44-.165-.653.267-.756.737.076-1.87-.514-3.695-1.194-3.316-.797.446.052 3.232-1.046 7.106-1.038 3.658-4.039 5.144-4.382 5.305-.768-1.22-1.479-2.23-1.732-2.414-.307-.223-1.846.37-3.433 1.143-.236-1.961-.729-2.278-.07-6.405.678-4.22 1.652-4.765 2.006-5.487.132-.27-.009-.503-.32-.515z" fill="#e32333"/><path d="M63.208 59.379c.734.21 6.28-2.3 6.672-2.753.394-.456-3.21-5.955-3.816-6.378-.608-.429-6.474 2.4-6.456 3.033 0 0 2.866 5.888 3.6 6.098z" fill="#0f6c7a"/><path d="M65.77 50.6c-.665.161.078 1.053.302.396.065-.19-.088-.448-.302-.396zm-2.296 1.179c-.567.15.019 1.044.253.382.059-.167-.041-.438-.253-.382zm4.04 1.078c-.661.162.08 1.049.304.396.066-.191-.088-.45-.304-.396zm-6.626.13c-.75.134.105 1.225.392.455.086-.232-.148-.499-.392-.455zm2.004 1.547c-.206.771-.023 1.668.7 2.095 1.023.604 2.66.323 3.036-.918.328-1.088-.386-2.38-1.69-2.583-1.059-.165-1.822.571-2.046 1.406zm5.878 1.078c-.876.319.342 1.209.35.31.002-.177-.173-.374-.35-.31zm-6.916.197c-.851.308.315 1.273.35.319.006-.179-.166-.386-.35-.319zm4.602 1.463c-.892.248.303 1.247.402.376.024-.21-.191-.435-.402-.376zm-3.079 1.135c-.883.215.42 1.125.405.294-.004-.187-.227-.337-.405-.294z" fill="#ffb528"/><path d="M43.766 78.076l.781-1.477 4.64 3.599-.792 1.365z" fill="#e32333"/><path d="M45.427 77.28l-1.038 1.266.278.21 1.096-1.215zm1.278.99c-.29.318-.754.834-1.085 1.202l.344.26 1.15-1.141zm1.32 1.027l-.821 1.369.386.29.787-1.388z" fill="#0f6c7a"/><path d="M51.929 81.657c-.09 2.027-1.71 2.608-2.81 2.195-.81-.304-1.891-1.63.068-3.654.818-.845 2.827-.458 2.742 1.459z" fill="#ffb528"/><path d="M13.891 55.576a.413.413 0 00-.21.12c-.454.468.692 1.29 1.182 1.035.434.492 5.72 6.491 6.064 6.946l18.754 14.308c1.914-1.219 3.222-4.774 3.222-4.774l-19.425-13.86c-.679-.223-6.73-2.36-8.473-2.798.037-.341-.634-1.087-1.114-.977z" fill="#e32333"/><path d="M16.437 57.575l4.75 4.73c.581-.753.984-1.343 1.439-2.215-.912-.475-6.189-2.515-6.189-2.515zm7.015 2.731s-1.226 1.907-1.856 2.728c0 0 6.732 5.222 11.424 8.893l3.153 2.486c1.3.995 2.63 1.946 3.993 2.853l-.484.717c1.298 1.019 3.724 1.55 4.776-.95 1.05-2.502-1.555-3.822-1.555-3.822l-.497.736c-.069-.049-1.4-.992-3.715-2.642l-3.26-2.326c-4.008-2.871-7.968-5.807-11.979-8.673zm12.646 6.557c-.556.028-.743.897-.743.897l1.005.736c.515.014 1.09-.942.184-1.498a.777.777 0 00-.446-.135zm3.396 2.406c-.415-.024-.814.362-.814.879l1.037.76s.83-.327.458-1.098c-.178-.367-.432-.528-.681-.541zm-7.542 2.842c-.194.004-.958.14-.948.8.01.75.956.978 1.323.822.364-.158.572-.725.472-.958zm3.265 2.461s-1.13.273-.969 1.11c.16.837 1.685 1.36 1.89-.367z" fill="#ffb528"/><path d="M40.55 77.788s2.174 1.162 3.11-.512c.935-1.672.146-2.691-.555-3.365z" fill="#e32333"/><path d="M39.969 91.108c.882 2.065.04 4.26-.785 6.182.11 3.14 1.394 6.06 2.318 9.018.833 1.042-.316 2.955-1.258 1.298-.243-3.486-1.604-6.754-2.476-10.107v9.256c.382 1.017-.994 2.185-1.334.73.027-5.63.09-11.261.097-16.892.042-.555-.195-1.524.602-1.648 1.452.005 2.42 1.019 2.836 2.163zm-2.153-1.01c-.043 1.804-.105 3.607-.136 5.41-.208 1.193.34.657.771.024.283-.658.287-1.435.46-2.14.12-1.122-.021-2.693-1.095-3.294zm8.774 1.456c2.165 1.142 2.613 3.868 2.707 6.085-.024 3.099.431 6.357-.885 9.266-.566 1.404-2.528 2.136-3.738 1.1-1.49-1.567-1.653-3.889-1.813-5.938-.084-2.376-.136-4.752.084-7.127.271-1.285.206-3.354 1.72-3.8.66-.002 1.33.118 1.925.414zm19.795.298c.916 1.881 1.355 3.958 1.873 5.977.596 2.911 1.062 5.85 1.799 8.732.665.73-.289 2.716-.807 1.291-.462-1.51-1.167-2.996-1.217-4.574-.045-1.414-.646-2.835-.967-4.254-.495.501-1.577.105-2.275.201.198 2.582-.128 5.171.002 7.754.576 1.096-1.002 2.05-1.26.604.001-2.18-.228-4.357-.12-6.537.006-2.393.228-4.79.036-7.18-.077-.878-.15-2.304 1.012-2.408.643.04 1.352.112 1.924.394zm-13.098 1.041c1.278 3.463 2.388 6.999 3.211 10.598.822-3.229 1.479-6.503 2.496-9.68.226-.98 1.153-3.277 2.238-1.77.043 3.6.3 7.198.334 10.8-.038 1.574-.124 3.136.11 4.703.84 1.19-1.226 2.723-1.442.91-.131-2.127.077-4.27-.156-6.396-.268-2.33-.278-4.672-.148-7.01-.914 3.483-1.544 7.053-2.8 10.44-.176 1.764-2.245 1.063-1.837-.473-.527-3.41-1.488-6.742-2.482-10.042-.2 4.023-.45 8.048-.471 12.077.438 1.055-.983 2.204-1.508.865.023-3.976.46-7.933.662-11.9-.004-1.316.277-2.685-.039-3.961.205-.482.5-.616.793-.545.488.117.973.802 1.04 1.384zm-7.67-.42c-1.325.024-1.284 1.733-1.363 2.676.103 2.094-.225 4.18-.045 6.274.177 1.735.138 3.595.988 5.166.81 1.958 2.39-.223 2.407-1.46.776-3.247.18-6.579.078-9.86.14-1.257-.655-2.814-2.065-2.796zm19.17 3.981c.017.46-.267 1.352.219 1.492.478.043 1.285-.154 1.8-.035-.17-.74-.221-1.52-.525-2.217-.341-.783-.206-3.015-1.343-2.84-.353.054-.194 2.409-.151 3.6z" fill="#7f0d20" paint-order="stroke fill markers"/><path d="M14.401 106.819v-.115c0-.952-.064-2.38-.195-4.282-.128-1.902-.193-3.182-.193-3.84 0-.659-.045-1.356-.135-2.091-.091-.735-.137-1.238-.137-1.512 0-.273.035-.575.105-.905-.11-.199-.418-.299-.921-.299-.967 0-1.451.159-1.451.476 0 .259.17.389.51.389l.414-.019c.415 0 .623.284.623.848l-.027.66c0 1.123.09 2.856.273 5.195.18 2.34.272 4.1.272 5.282 0 .2-.116.3-.347.3-.232 0-.374.024-.432.07-.054.048-.082.157-.082.327s.043.287.131.348c.087.062.233.093.432.093l.536-.008c1.364 0 2.048-.176 2.048-.53 0-.3-.255-.45-.764-.445-.16.005-.38.022-.66.058zm3.621-12.939c-.294 0-.546.078-.757.231-.516.376-.772 1.3-.772 2.777 0 2.704.084 4.804.254 6.298.333 2.945.976 4.417 1.925 4.417 1.288 0 1.933-1.511 1.933-4.533 0-6.126-.861-9.19-2.583-9.19zm65.921 13.348v-.115c0-.952-.064-2.379-.192-4.28-.13-1.903-.193-3.183-.193-3.841 0-.659-.046-1.356-.136-2.09-.09-.735-.137-1.239-.137-1.512 0-.274.036-.575.106-.905-.112-.2-.42-.3-.923-.3-.968 0-1.45.16-1.45.477 0 .259.17.388.51.388l.412-.018c.418 0 .625.283.625.847l-.026.66c0 1.125.089 2.857.27 5.196.182 2.34.273 4.1.273 5.281 0 .201-.115.3-.347.3-.23 0-.375.024-.43.072-.055.046-.082.156-.082.326s.043.286.131.348c.088.062.23.093.43.093l.537-.009c1.365 0 2.047-.176 2.047-.529 0-.3-.255-.45-.765-.446a7.12 7.12 0 00-.66.057zm-66.125-12.95c.575.083 1.007.664 1.294 1.745.135.506.248 1.04.342 1.598.092.558.16 1.17.2 1.834a49.2 49.2 0 01.12 3.258c.003.532-.054 1.274-.17 2.227-.06.512-.16.947-.3 1.305-.134.359-.29.538-.465.538-.37 0-.648-.462-.836-1.385-.258-1.3-.389-2.866-.395-4.7l-.183-1.763-.072-3.572c0-.26.031-.465.093-.617.061-.153.186-.31.372-.468zm69.746.014a1.25 1.25 0 00-.754.23c-.516.375-.774 1.3-.774 2.776 0 2.705.084 4.804.254 6.297.335 2.945.976 4.42 1.926 4.42 1.289 0 1.933-1.513 1.933-4.535 0-6.126-.86-9.188-2.585-9.188zm-.202.397c.575.082 1.005.663 1.293 1.745.295 1.123.478 2.272.545 3.431.073 1.085.113 2.171.118 3.258.004.532-.053 1.276-.171 2.228-.06.512-.159.947-.3 1.305-.134.359-.29.537-.465.537-.369 0-.647-.461-.833-1.384-.259-1.3-.392-2.866-.397-4.7l-.185-1.764-.07-3.572c0-.26.031-.464.093-.617.061-.153.185-.308.372-.467z"/><path d="M35.368 67.745c-.64 1.707-2.152 3.357-3.419 4.404.292.226.587.445.878.667a24.372 24.372 0 003.576-4.323zm3.316 2.402c-.92 1.624-2.333 3.239-3.509 4.442l.962.726c1.326-1.398 2.539-2.975 3.595-4.408-.329-.242-.68-.496-1.048-.76z" fill="#0f6c7a"/></svg>