<svg width="152" height="390" xmlns:xlink="http://www.w3.org/1999/xlink" xmlns="http://www.w3.org/2000/svg"><path fill="#fff" stroke="#221e1f" stroke-width="2" d="M38.5 339h75v50h-75z" id="a"/><use xlink:href="#a" transform="translate(37.5 -250)"/><use xlink:href="#a" transform="translate(-37.5 -250)"/><use xlink:href="#a" transform="translate(0 -200)"/><use xlink:href="#a" transform="translate(37.5 -150)"/><use xlink:href="#a" transform="translate(-37.5 -150)"/><use xlink:href="#a" transform="translate(0 -100)"/><use xlink:href="#a" transform="translate(0 -50)"/><path fill="#fff" stroke="#221e1f" stroke-width="2" d="M38.5 39h75v50h-75zM76 1c35.987 0 37.5 38 37.5 38h-75S40.013 1 76 1z"/><path d="M79.404 371.512v.433h-6.808v-.433h.562q.985 0 1.43-.574.281-.375.281-1.805v-10.266q0-1.207-.152-1.594-.117-.293-.48-.503-.516-.282-1.079-.282h-.562v-.433h6.808v.433h-.574q-.973 0-1.418.574-.293.375-.293 1.805v10.266q0 1.207.152 1.594.118.293.493.503.504.282 1.066.282zm-3.996-50v.433H68.6v-.433h.562q.984 0 1.43-.574.281-.375.281-1.805v-10.266q0-1.207-.152-1.594-.117-.293-.48-.503-.516-.282-1.079-.282H68.6v-.433h6.808v.433h-.574q-.973 0-1.418.574-.293.375-.293 1.805v10.266q0 1.207.152 1.594.118.293.493.503.503.282 1.066.282zm7.992 0v.433h-6.808v-.433h.562q.985 0 1.43-.574.281-.375.281-1.805v-10.266q0-1.207-.152-1.594-.117-.293-.48-.503-.516-.282-1.079-.282h-.562v-.433H83.4v.433h-.574q-.972 0-1.418.574-.293.375-.293 1.805v10.266q0 1.207.153 1.594.117.293.492.503.504.282 1.066.282zm-11.988-50v.433h-6.808v-.433h.562q.984 0 1.43-.574.281-.375.281-1.805v-10.266q0-1.207-.152-1.594-.118-.293-.48-.503-.516-.282-1.079-.282h-.562v-.433h6.808v.433h-.574q-.973 0-1.418.574-.293.375-.293 1.805v10.266q0 1.207.152 1.594.117.293.492.503.504.282 1.067.282zm7.992 0v.433h-6.808v-.433h.562q.985 0 1.43-.574.281-.375.281-1.805v-10.266q0-1.207-.152-1.594-.117-.293-.48-.503-.516-.282-1.079-.282h-.562v-.433h6.808v.433h-.574q-.973 0-1.418.574-.293.375-.293 1.805v10.266q0 1.207.152 1.594.118.293.493.503.504.282 1.066.282zm7.992 0v.433h-6.808v-.433h.562q.985 0 1.43-.574.281-.375.281-1.805v-10.266q0-1.207-.152-1.594-.117-.293-.48-.503-.516-.282-1.079-.282h-.562v-.433h6.808v.433h-.574q-.972 0-1.418.574-.293.375-.293 1.805v10.266q0 1.207.153 1.594.117.293.492.503.504.282 1.066.282zM33.092 221.33v.434h-6.809v-.434h.563q.984 0 1.43-.574.28-.375.28-1.805v-10.265q0-1.207-.152-1.594-.117-.293-.48-.504-.516-.281-1.078-.281h-.563v-.434h6.809v.434h-.574q-.973 0-1.418.574-.293.375-.293 1.805v10.265q0 1.207.152 1.594.117.293.492.504.504.281 1.067.281zm17.625-15.457v.434q-.844.152-1.278.539-.62.574-1.101 1.758l-5.543 13.523h-.434l-5.953-13.7q-.457-1.054-.644-1.288-.293-.364-.727-.563-.422-.21-1.148-.27v-.433h6.492v.434q-1.102.105-1.43.375-.328.27-.328.691 0 .586.54 1.828l4.042 9.317 3.75-9.2q.55-1.359.55-1.886 0-.34-.339-.645-.34-.316-1.148-.445-.059-.012-.2-.035v-.434zm71.197 0v.434q-.844.152-1.277.539-.621.574-1.102 1.758l-5.543 13.523h-.433l-5.954-13.7q-.457-1.054-.644-1.288-.293-.364-.727-.563-.421-.21-1.148-.27v-.433h6.492v.434q-1.101.105-1.43.375-.328.27-.328.691 0 .586.54 1.828l4.042 9.317 3.75-9.2q.551-1.359.551-1.886 0-.34-.34-.645-.34-.316-1.148-.445-.059-.012-.2-.035v-.434zm-41.35-50v.434q-.843.152-1.277.539-.621.574-1.101 1.758l-5.543 13.523h-.434l-5.953-13.7q-.457-1.054-.645-1.288-.293-.364-.726-.563-.422-.21-1.149-.27v-.433h6.493v.434q-1.102.105-1.43.375-.328.27-.328.691 0 .586.539 1.828l4.043 9.317 3.75-9.2q.55-1.359.55-1.886 0-.34-.34-.645-.34-.316-1.148-.445-.058-.012-.199-.035v-.434zm7.7 15.457v.434h-6.809v-.434h.563q.984 0 1.43-.574.28-.375.28-1.805v-10.265q0-1.207-.152-1.594-.117-.293-.48-.504-.516-.281-1.078-.281h-.563v-.434h6.809v.434h-.575q-.972 0-1.418.574-.292.375-.292 1.805v10.265q0 1.207.152 1.594.117.293.492.504.504.281 1.066.281zm-49.196-65.457v.434q-.843.152-1.277.539-.621.574-1.102 1.758l-5.543 13.523h-.433l-5.953-13.7q-.457-1.054-.645-1.288-.293-.364-.726-.563-.422-.21-1.149-.27v-.433h6.492v.434q-1.101.105-1.43.375-.327.27-.327.691 0 .586.539 1.828l4.043 9.317 3.75-9.2q.55-1.359.55-1.886 0-.34-.34-.645-.34-.316-1.148-.445-.058-.012-.2-.035v-.434zm7.7 15.457v.434h-6.809v-.434h.562q.985 0 1.43-.574.281-.375.281-1.805v-10.265q0-1.207-.152-1.594-.117-.293-.48-.504-.516-.281-1.079-.281h-.562v-.434h6.809v.434h-.575q-.972 0-1.418.574-.293.375-.293 1.805v10.265q0 1.207.153 1.594.117.293.492.504.504.281 1.066.281zm7.992 0v.434h-6.81v-.434h.563q.984 0 1.43-.574.28-.375.28-1.805v-10.265q0-1.207-.152-1.594-.117-.293-.48-.504-.516-.281-1.078-.281h-.563v-.434h6.809v.434h-.574q-.973 0-1.418.574-.293.375-.293 1.805v10.265q0 1.207.152 1.594.117.293.492.504.504.281 1.067.281zm55.312-15.457v.434q-.843.152-1.277.539-.621.574-1.102 1.758l-5.543 13.523h-.433l-5.953-13.7q-.457-1.054-.645-1.288-.293-.364-.726-.563-.422-.21-1.149-.27v-.433h6.492v.434q-1.101.105-1.43.375-.327.27-.327.691 0 .586.539 1.828l4.043 9.317 3.75-9.2q.55-1.359.55-1.886 0-.34-.34-.645-.34-.316-1.148-.445-.059-.012-.2-.035v-.434zm7.699 15.457v.434h-6.808v-.434h.562q.985 0 1.43-.574.281-.375.281-1.805v-10.265q0-1.207-.152-1.594-.117-.293-.48-.504-.516-.281-1.079-.281h-.562v-.434h6.808v.434h-.574q-.972 0-1.418.574-.293.375-.293 1.805v10.265q0 1.207.153 1.594.117.293.492.504.504.281 1.066.281zm7.993 0v.434h-6.809v-.434h.563q.984 0 1.43-.574.28-.375.28-1.805v-10.265q0-1.207-.152-1.594-.117-.293-.48-.504-.516-.281-1.078-.281h-.563v-.434h6.809v.434h-.575q-.972 0-1.418.574-.292.375-.292 1.805v10.265q0 1.207.152 1.594.117.293.492.504.504.281 1.066.281zm7.992 0v.434h-6.809v-.434h.563q.984 0 1.43-.574.28-.375.28-1.805v-10.265q0-1.207-.152-1.594-.117-.293-.48-.504-.516-.281-1.078-.281h-.563v-.434h6.809v.434h-.574q-.973 0-1.418.574-.293.375-.293 1.805v10.265q0 1.207.152 1.594.117.293.492.504.504.281 1.067.281zm-63.17-49.818v.433h-6.809v-.433h.563q.984 0 1.43-.575.28-.374.28-1.804V58.867q0-1.207-.152-1.594-.117-.293-.48-.503-.516-.282-1.078-.282h-.563v-.433h6.809v.433h-.574q-.973 0-1.418.575-.293.374-.293 1.804v10.266q0 1.207.152 1.594.117.293.492.503.504.282 1.067.282zm10.383-8.367l3.41 5.085q1.418 2.11 2.098 2.672.691.551 1.746.61v.433h-6.82v-.433q.679-.012 1.007-.14.246-.106.399-.317.164-.223.164-.446 0-.27-.106-.539-.082-.199-.644-1.03l-2.696-4.08-3.328 4.267q-.527.68-.633.914-.105.222-.105.468 0 .375.316.621.317.247 1.207.282v.433h-5.636v-.433q.597-.059 1.03-.246.727-.305 1.384-.82.656-.516 1.5-1.583l3.75-4.734-3.13-4.582q-1.277-1.863-2.167-2.438-.89-.586-2.05-.62v-.434h7.347v.433q-.938.035-1.29.305-.34.27-.34.598 0 .433.563 1.265l2.438 3.645 2.824-3.574q.492-.633.598-.868.117-.234.117-.48 0-.246-.14-.434-.177-.246-.446-.34-.27-.105-1.113-.117v-.433h5.636v.433q-.668.035-1.09.211-.632.27-1.16.727-.527.457-1.488 1.687zm-3.785-44l3.41 5.085q1.418 2.11 2.097 2.672.692.551 1.746.61v.433h-6.82v-.433q.68-.012 1.008-.14.246-.106.398-.317.165-.223.165-.446 0-.27-.106-.539-.082-.199-.644-1.03l-2.696-4.08-3.328 4.267q-.527.68-.633.914-.105.222-.105.468 0 .375.316.621.317.247 1.207.282v.433h-5.636v-.433q.597-.059 1.03-.246.727-.305 1.384-.82.656-.516 1.5-1.583l3.75-4.734-3.13-4.582q-1.277-1.863-2.167-2.438-.89-.586-2.051-.62v-.434h7.348v.433q-.938.035-1.29.305-.34.27-.34.598 0 .433.563 1.265l2.438 3.645 2.824-3.574q.492-.633.598-.868.117-.234.117-.48 0-.246-.14-.434-.177-.246-.446-.34-.27-.105-1.114-.117v-.433h5.637v.433q-.668.035-1.09.211-.632.27-1.16.727-.527.457-1.488 1.687z" fill="#c03431"/></svg>