<svg width="506" height="686" xmlns="http://www.w3.org/2000/svg"><ellipse cx="223.922" cy="638.736" rx="150" ry="37.5" fill-opacity=".2"/><path d="M207.786 44.64c-8.434.095-18.755 1.496-23.042 9.845-4.235 6.138 1.625 12.19.896 18.398-.75 5.987-7.542 7.62-11.546 11.023-9.362 5.852-11.579 18.793-7.718 28.586 1.587 5.46 5.13 12.164.378 17.103-5.087 5.97-11.457 11.67-12.852 19.774.054 9.139.793 18.335-.058 27.443-3.042 5.81-15.019 8.276-8.883 16.915 1.05 4.355-9.83 10.986-.914 12.461 6.485-.997 13.875 7.01 18.892 1.278 4.565-4.761-4.25-11.383 1.682-16.363 4.113-5.505 9.772-10.387 11.645-17.174-1.196-7.303-1.975-14.743-.66-22.149.617-6.692 3.802-12.778 8.364-17.609 1.094-6.083-6.834-10.801-5.65-17.738-.553-6.198 2.253-12.893 8.375-15.214 10.069-2.252 4.445-12.648 7.566-19.294 3.7-7 1.548-16.317 7.834-22.045 2.986-5.366 14.224-7.53 12.478-14.098-1.941-1.414-4.53-1.041-6.787-1.142z" fill="#683014"/><path d="M140.282 168.456c-1.5-.15-3.549.529-3.52 2.334.17 1.571 1.107 2.962 1.183 4.567.392 2.48-.482 5.412-2.887 6.554-1.608.812-1.437 2.87-1.56 4.391-.396 2.22-2.335 3.693-3.771 5.279-1.798 1.7-3.185 3.946-3.296 6.47-.123 2.347.02 5.112 1.935 6.765 1.362 1.196 3.6 1.89 5.131.591 1.676-1.401 3.248-2.95 4.467-4.779 1.207-1.5 1.996-3.381 1.788-5.332.094-1.48-.578-3.235.597-4.42 1.19-1.78 2.924-3.605 2.64-5.912-.493-1.683-.13-3.344.711-4.83 1.185-3 .845-6.296 1.514-9.406-.07-1.732-2.01-2.437-3.497-2.272-.478-.01-.957-.002-1.435 0z" fill="#a55d36"/><path d="M190.409 35.56c-10.07.7-16.264 10.252-20.224 18.536-3.407 6.588-1.813 14.331-2.545 21.456 1.008 6.659-3.757 11.394-8.269 15.43-5.834 5.38-11.097 12.736-9.418 21.135.989 6.592 6.394 12.344 4.393 19.346-1.273 6.169-7.196 10.586-6.337 17.433-1.008 8.688.405 18.116-4.376 25.924-2.727 4.297-1.63 9.568-4.045 13.892-1.34 1.48-2.276 3.181-1.79 5.241.879 4.132-2.478 6.925-4.742 9.822-.457 2.222 2.576 1.794 3.886 1.726 1.601-.333 4.826 1.019 5.132-1.444 1.712-4.455 7.975-8.423 3.606-13.747-2.428-7.367 7.821-8.714 9.61-14.742.525-9.746-1.285-19.628.318-29.34 2.521-8.192 10.55-12.957 13.975-20.578 1.744-6.788-3.76-12.698-3.376-19.483-.88-7.811.633-17.004 7.988-21.342 4.907-4.122 13.957-5.868 12.756-14.114-1.039-5.373-4.734-10.837-1.113-16.3 2.944-6.102 9.934-8.383 16.306-8.211 4.607.929 16.414-2.47 8.093-6.988-6.22-2.61-13.105-3.68-19.828-3.652z" fill="#8b512f"/><path d="M184.06 17.378c-11.771.685-20.55 10.127-25.928 19.842-4.082 6.986-7.086 14.86-7.543 22.983 1.818 7.155 3.1 14.553 2.907 21.98-.18 6.271-7.643 3.304-10.94 6.362-5.01 3.36-8.96 8.74-8.927 14.984.212 6.05-1.752 12.813 1.643 18.22 1.545 5.135 3.734 9.753 7.789 13.478 1.807 3.83 5.18 10.77 8.382 3.7 3.326-4.618 5.248-10.726 2.803-16.19-3.282-6.69-5.886-15.223-1.964-22.188 4.824-6.63 12.59-11.31 15.312-19.324 2.73-9.96-.764-21.244 4.903-30.446 3.44-7.564 10.083-14.825 18.988-14.85 7.541-.45 14.458 2.96 21.517 4.982 7.597-1.104-.612-8.499-3.784-10.59-7.576-5.435-15.22-12.961-25.159-12.943z" fill="#a55d36"/><path d="M248.858 11.73c-4.021.08-8.026 1.438-11.132 4.022-4.418 3.645-7.706 8.52-10.051 13.71-1.555 3.496-2.61 7.294-2.407 11.15-.127.791.43 1.433.686 2.141.585.087 1.201.54 1.765.386 1.28-.463 2.03-1.66 3.014-2.534 2.55-2.46 4.888-5.188 7.803-7.232 1.56-.919 3.248-1.872 5.124-1.762 5.035-.176 10.353.74 14.47 3.812 1.955 1.463 3.705 3.839 3.183 6.406-.88 3.632-3.769 6.275-5.235 9.64-1.141 2.523-2.145 5.45-1.251 8.202.935 2.07 2.709 3.599 4.275 5.19 1.894 1.708 3.77 3.542 6.088 4.662.539.17 1.127.212 1.432.771 1.464 1.948 2.428 4.341 2.545 6.786-.08 3.273-2.22 5.963-3.22 8.975-.931 2.393-.934 5.178.323 7.456 2.464 4.609 7.04 7.623 9.565 12.187.444.763.752 1.855-.015 2.532-2.057 2.466-3.15 5.816-2.656 9.013.764 3.562 4.244 5.639 5.436 8.994.726 2.602.454 5.344.44 8.012-.044 1.442-.13 3.047-.257 4.291-.206 1.676-.451 3.607.77 4.982 1.587 1.604 1.72 3.975 1.787 6.099-.034 1.816.229 3.71-.376 5.458-.822 1.878-1.951 3.727-1.905 5.85-.07 2.58.049 5.16.07 7.738.332.48.396 1.279.904 1.55.69.146 1.393.604 2.057.147.815-.442 1.509-.965 2.25-1.372 2.624-1.553 5.772-1.136 8.67-1.024a5.39 5.39 0 001.756-.699c.754-1.208.854-2.68 1.211-4.033.764-4.088 1.256-8.295.765-12.446-.351-2.753-1.54-5.354-3.338-7.462a32.39 32.39 0 01-4.056-5.71 44.798 44.798 0 01-1.039-1.922c-1.073-2.236-2.32-4.563-2.28-7.11.296-3.242 1.673-6.25 2.57-9.35.934-2.863 1.517-6.062.35-8.95-1.792-4.549-5.472-8.005-7.597-12.373-.412-2.535-.208-5.132-.007-7.681.167-1.409.223-2.954 1.24-4.057 1.28-1.922 3.525-3.28 3.996-5.669.404-2.135-.437-4.325-1.918-5.866-2.879-3.092-6.227-5.7-9.251-8.644-2.055-2.007-4.235-3.946-5.88-6.319-.586-.625-.09-1.505-.068-2.235.758-4.088 2.153-8.028 3.598-11.915 1.544-3.943 3.537-7.913 3.44-12.255-.108-4.911-2.718-9.478-6.235-12.785-4.649-4.364-10.583-7.411-16.88-8.48a23.014 23.014 0 00-4.529-.277z" fill="#8b5130"/><path d="M81.473 306.946c-2.284.114-14.269 4.995-15.955 6.068l4.53 39.321c1.484 2.715 5.007 3.596 7.827 2.678 2.98-.705 5.807-2.047 8.33-3.763 2.174-2.172 1.472-5.533 1.249-8.279.178-1.197-1.389-4.247.658-2.998 1.887.218 3.033-1.643 3.232-3.29.813-4.418.786-8.939 1.188-13.404.21-3.667.644-7.328.757-10.995-.007-2.176-2.459-2.73-4.208-2.492-1.457-.346-2.815 1.323-3.56-.552-1.211-.894-2.43-2.341-4.048-2.294z" fill="#efe000"/><path d="M231.548 41.921c-2.762.66-3.967 3.654-5.166 5.934-.353 4.329-4.884 1.043-7.752 2.351-2.01 1.04-3.47.436-5.469.451-2.043 1.213-2.956 3.66-4.26 5.573-4.89 8.061-7.686 17.114-10.994 25.882-1.311 3.747-2.945 7.591-2.305 11.655.209 2.661.823 8.206 4.588 7.11 1.863-2.777.836-6.57 1.9-9.714 1.11-4.865 2.348-10.026 5.587-13.959a8.385 8.385 0 012.511-2.043c-.039.057-.085.104-.12.164-1.347 2.204-1.633 4.924-1.384 7.453.178 2.345 1.829 4.274 3.8 5.409 3.537 2.075 7.73 2.63 11.765 2.758 1.708-.054 3.696.044 5.047-1.182.976-.892.788-2.356.232-3.424-1.216-3.136-3.35-5.78-5.73-8.125 1.547 1.01 3.11 1.477 4.386-.547 1.448-2.271 3.835-3.963 6.516-4.137-.737.569-1.202 1.511-1.373 2.428-.596 2.832-.068 6.108 2.068 8.195 1.565 1.748 3.632 3.44 5.573 4.938 1.94 1.499 3.876 1.041 5.652 1.678 1.47.378 2.973 1.465 4.521.8.844-.477 1.344-1.472 1.13-2.433-.593-2.475-1.74-4.783-2.848-7.063-.093-.188-.2-.37-.3-.556 2.525 1.828 4.132-2.63 3.567-4.998-.22-5.37-1.435-10.814-4-15.569-1.67-2.346-4.86-3.278-5.65-6.357-2.481-4.415-5.238-8.91-9.297-12.045-.648-.415-1.414-.704-2.195-.627zm-31.604 63.875c-13.942 1.515-12.029 22.05-5.383 30.26 9.337 9.985-15.752 14.563-11.232 27.517 7.56 12.682-11.129 14.894-11.424 27.028-4.997 11.248 10.03 17.51 9.924 26.2-2.808 5.341-7.603 14.991-10.543 3.694-6.588-7.176-16.626-16.104-26.936-10.894-14.231 3.815-17.517 19.63-17.76 30.78-18.874 4.97-8.293 19.73-3.634 29.567 1.355 5.832 4.029 21.792-4.717 10.545-9.167-6.909-24.084-11.33-29.24-.488-5.482 11.887-12.57-8.895-22.606-7.283-10.499-3.955-31.636 3.283-22.9 16.71 5.556 2.74-13.785 3.477-7.752 12.106 10.527 12 29.235 9.619 41.61 2.104 3.51-6 6.158 11.953 14.986 6.086 5.71-6.324-3.366 12.259-1.06 17.299-.336 11.278-2.314 23.882-10.993 30.017 7.81 11.193 26.303 7.774 31.348-4.344 8.514-13.154 16.794-26.74 25.224-39.76-9.507-4.036-20.074 10.449-27.558 3.143.807-10.753 11.34-19.618 20.306-25.185.486-9.606 11.616-12.401 18.85-8.03 7.504 1.984 10.387 8.014 14.33 14.373 2.608 13.812 18.013-1.16 26.525 5.526 11.098 10.877 9.717-8.877 11.391-15.348 7.714-6.833 13.259-18.575 23.059-24.54 11.347-6.495 26.126-5.3 36.783 1.99 4.66-3.598 18.39-9.582 6.992-14.983-8.06-8.221-15.968-17.761-16.344-29.844-.275-7.695-8.734-1.282-7.46-10.69-1.259-5.607-5.92-6.808-10.008-4.991 3.661-6.323-4.009-17.574-7.022-6.036-7.281 8.51-30.114 6.16-25.477-9.474-.437-5.1.34-16.624-3.433-16.342 12.321-7.349 16.79-23.668 11.48-36.668 14.953 2.406 2.834 22.635 12.75 27.338 7.22.726 29.592 6.597 22.102-7.494-3.305-3.397-11.465-3.638-6.299-10.385-6.155-4.84-3.59-16.373 3.457-8.414 7.68 7.714 28.638 9.898 32.254-2.027 2.004-12.256-11.462-21.14-22.33-21.579-10.027-.653-18 3.986-25.648 8.737-13.346 3.763-19.491-8.272-25.612-16.22zM76.378 293.855c.35.017.772.063 1.275.142 4.281 5.755-6.538-.398-1.275-.142zm-3.252 19.548c-11.98 6.227-25.058.455-36.813 2.385-6.183 8.588 13.125 10.023 19.457 10.707 7.147.556 27.634-1.861 20.875-12.078-.98-.819-2.283-1.055-3.52-1.014zm2.633 17.137c-11.63 3.838-23.93 3.473-35.936 2.297-9.434 10.496 10.036 12.648 17.61 12.244 7.287-.392 28.505-4.697 20.804-14.04l-1.637-.48z" fill="#d58671"/><path d="M245.972 31.066c-5.974-.973-11.481 3.065-13.555 8.505 2.218 5.595 7.711 9.913 10.531 15.52 4.491 7.794 8.662 17.105 6.375 26.248 2.282 6.3 3.357 12.98 2.942 19.721.838 5.423-5.045 14.756 4.554 13.936 7.564 1.623 16.337 6.493 16.681 15.167.427 7.083-1.274 16.038-8.225 19.466-8.716 2.798 4.052 8.812 3.516 14.084.878 6.527-.248 14.368-5.48 18.862-4.014 2.708-12.905 3.305-12.488 9.289 3.3 5.126 7.81 3.55 10.97-.518 4.611-3.336 10.916-4.574 16.019-1.715 4.526-3.282-1.987-10.917 1.769-15.806 4.531-5.603.058-11.679 1.113-17.222 3.763-4.84-.223-10.003.57-15.205.332-6.332 2.358-13.465-1.9-19.014-5.068-4.667-5.595-11.405-2.529-17.185-2.837-4.912-8.756-7.992-10.534-13.659-.477-6.489 5.753-12.998 1.978-19.306-4.153-4.765-9.788-8.27-13.154-13.67-.756-6.914 6.655-11.062 7.541-17.33-1.848-5.734-7.267-10.949-13.7-10.15-.998-.014-1.996-.003-2.994-.018z" fill="#653013"/><path d="M211.02 50.993c-8.497 3.325-13.589 12.104-15.37 20.761-.752 6.264-5.871 12.375-3.473 18.645 3.4 7.5-8.034 9.103-11.451 13.595-5.816 7.538-5.128 19.239 1.687 25.97 2.982 2.904 3.818 4.9-.617 6.158-7.61 6.493-8.9 17.003-8.503 26.408-1.11 5.613 4.268 11.692-.819 16.247-3.499 5.585-9.163 9.873-11.236 16.252.117 4.348 2.2 8.763.649 12.829-6.157 2.691 2.898 5.906 4.685 9.244 3.511 2.33 6.41 9.325 9.613 9.22 3.24-4.171 10.87-11.352 4.485-15.923-5.288-4.44-9.921-10.898-8.374-18.21 1.162-7.3 5.71-13.945 12.422-17.124 4.277-5.143-3.295-11.266-.113-17.074 2.07-6.797 8.088-11.272 13.698-15.105 1.428-6.307-7.972-9.112-7.07-15.79-1.154-6.282-2.092-14.949 3.777-19.194 3.548-2.167 9.25-.115 6.178-6.174-1.42.993-6.047-5.69-5.072-10.078 1.343-9.258 6.207-17.54 8.925-26.42.661-4.377 8.604-11.381 5.98-14.237z" fill="#ae6856"/><path d="M233.413 73.24c-2.451.563-4.072 2.754-5.44 4.704-1.228 1.59-.798 3.59-.175 5.314.627 1.91 1.145 3.931 2.275 5.611 1.744 1.654 4.284.702 6.402.698 1.74-.295 4.139.526 5.28-1.165-1.625-.81-2.712-2.474-4.379-3.28-2.197-1.606-3.859-4.24-3.472-7.047-.27-1.547.87-3.334 1.05-4.375a2.219 2.219 0 00-1.541-.46zm-23.873 2.195c-2.136.082-3.185 2.298-4.333 3.788-2.92 4.307-4.001 9.55-4.528 14.644-.028 1.513 1.584 2.726 3.021 2.14 3.994-1.669 8.126-3.034 12.368-3.926 1.388-.3 3.176-.737 3.331-2.431-3.48-.341-7.287-1.54-9.247-4.65-1.354-2.386-.732-5.236-.145-7.749.25-.907 1.076-1.765-.467-1.816z" fill="#ae6856"/><path d="M132.054 125.82c-4.12.231-6.159 4.453-7.364 7.864-.93 1.289.287 3.731.423 3.877-3.049.311-4.517 3.548-5.884 5.892-1.316 2.417-2.64 6.584.637 8.058-2.928 1.107-5.522 3.317-6.634 6.32-2.535 5.55-5.137 11.917-3.225 18.067 1.6 3.864 5.095 6.48 7.24 10.02 2.276 3.135 4.481 6.565 7.775 8.7 3.283.748 5.637-3.14 7.93-5.082 1.656-1.602 3.057-5.106.238-6.32 2.699-.612 5.75-2.574 5.492-5.705.04-3.044-.706-6.288-2.905-8.485-.42-1.532 3.043.64 4.18.113 2.886.525 7.706-1.097 5.932-4.832-.275-1.16-1.919-3.658-1.768-3.778 3.99.415 3.069-4.951 3.363-7.498-.134-2.95.812-6.393-1.124-8.943-1.422-1.168.829-3.858-.913-5.605-1.677-2.992-3.782-5.736-5.804-8.496-1.998-2.076-4.54-4.225-7.59-4.168z" fill="#aaaaa9"/><path d="M237.468 88.58c-1.83.061-3.771.18-5.323 1.223-1.202.29-2.375.771-3.624.485-8.129.427-16.318 1.685-23.913 4.71-2.785.886-4.15 3.859-3.78 6.631.436 4.555 1.877 9.129 4.53 12.888 3.436 4.488 8.69 7.655 14.312 8.373 3.833.347 7.773-1.311 10.093-4.396l2.894-2.606c.553 2.79 3.633 1.99 4.969.392 3.066-1.75 6.555-2.746 10.098-2.533 2 .343 4.047-.637 4.505-2.732 1.994-4.908 1.78-10.386 1.345-15.566.42-3.055-2.43-4.084-4.857-4.53-3.654-1.152-7.387-2.283-11.25-2.34z" fill="#fff"/><path d="M212.114 135.433c-1.442.177-2.24 1.767-1.899 3.1.541 2.553 1.474 5.066 1.345 7.717a158.504 158.504 0 01-.417 10.417c-.26 1.081-.222 2.378.709 3.141 1.32 1.063 3.008 1.532 4.578 2.105.785.18 1.703.52 2.459.16.584-.41 1.28-.8 1.331-1.598.342-2.81.209-5.655.215-8.48-.089-2.898-.011-5.826-.498-8.693-.449-2.363-1.115-5.059-3.344-6.37-1.24-.618-2.516-1.287-3.895-1.512-.194-.033-.39.003-.584.013z" fill="#ae6856"/><path d="M206.093 167.702a2.635 2.635 0 00-.512.022c-1.982.41-3.267 2.323-3.824 4.152-.594 2.143-1.292 4.657.002 6.69l.515 4.697c-.581 2.312-.272 4.73-.275 7.088.159 2.794.027 5.74 1.223 8.34 1.01 2.164 3.389 3.1 5.566 3.62 3.085.643 6.279.676 9.412.44.944-.143 1.958-.198 3.859-.863 1.9-.664 3.482-2.191 5.063-3.695 1.297-1.914 1.299-4.98-.746-6.39a3.339 3.339 0 00-2.19-.577c-1.541.07-3.014 1.337-2.947 2.951.003.051.016.103.02.154-.713-1.477-1.694-2.823-2.94-3.883-1.084-1.044-2.945-1.298-4.076-.187-1.016.956-1.54 2.288-2.182 3.498-.376-3.497-.256-7.207-1.105-12.918-.849-5.712-1.143-8.602-2.2-11.168-.467-1.084-1.488-1.91-2.663-1.97z" fill="#fff986"/><path d="M260.3 153.753c-2.04.439-3.558 2.135-5.669 2.433-2.62 1.054-7.766-2.173-10.395-2.418-2.529.802.734 6.191 1.896 7.835 1.137 1.23 1.141 2.176-.438 2.748-2.929.285-6.015.032-9.003.114-2.917.261-6.054-.554-8.818.446-1.745 1.704-1.343 4.697-2.165 6.943-.557 4.174-.902 8.458-.282 12.645.54 2.295.79 5.365 3.357 6.326 2.551 1.423 4.962 3.81 5.493 6.774.305 2.145-.96 4.694.505 6.55 1.778 1.351 3.958-.172 5.348-1.415 3.89-3.405 5.51-8.638 9.333-12.083 4.942-3.782 11.544-5.02 15.793-9.789 3.105-2.738 4.624-6.81 4.751-10.876.503-6.103-2.712-12.087-7.494-15.73-.657-.402-1.442-.618-2.212-.503z" fill="#d58671"/><path d="M239.013 174.487c-1.796-.003-3.512 1.677-3.13 3.523.308 1.789 2.09 3.456 3.982 2.916 2.07-.421 3.642-3.039 2.432-4.943-.688-1.068-2.058-1.548-3.284-1.496z" fill="#fff986"/><path d="M223.235 163.265c-1.623-.154-2.875 1.238-3.328 2.668-.903 3.182-1.234 6.494-1.642 9.767-.248 2.588-.74 5.17-.65 7.778.138 3.372 2.74 6.094 5.635 7.511 1.535.743 3.396.173 4.645-.873-.754.134-.537-1.004-.69-1.476-.463-2.76-1.71-5.447-1.36-8.299.13-3.089-.033-6.25.89-9.242.258-1.107.512-2.505.772-3.723.383-.872.218-2.606 1.09-2.933-.45-.539-1.816-.585-2.698-.723-.895-.11-1.768-.36-2.664-.455z" fill="#ae6856"/><path d="M249.112 191.03c-1.835.35-2.83 2.137-3.867 3.509-1.685 2.393-3.083 5.025-5.18 7.099-.146.71-.776 1.423-.337 2.13.627 1.352 1.711 2.464 2.306 3.849 1.02 2.04 1.765 4.209 2.299 6.423.421 1.382 2.037 2.091 3.37 1.614.956-.158 2.072-.278 2.603-1.22.876-1.747.449-3.781.636-5.661.192-4.037 1.535-8.064 4.135-11.197.487-.533.411-1.324.627-1.981-.396-.727-.855-1.398-1.578-1.833-1.325-.987-2.57-2.212-4.182-2.706-.276-.001-.557-.063-.832-.026z" fill="#6c6b6b"/><path d="M89.222 203.56c-3.887 3.873-6.852 8.54-10.014 12.99-4.448 7.838-8.426 15.98-11.372 24.508-.642 2.637-.89 5.34-1.87 7.89-.147 2.673 2.852 2.985 4.54 4.211 4.601 2.846 6.022 8.428 7.397 13.297 1.172 3.398 4.747.813 5.447-1.55 1.684-3.175 4.856-5.793 5.31-9.465.481-9.292 2.572-18.687 7.529-26.667 2.605-4.456 5.622-8.648 8.51-12.921 1.054-3.779-4.415-3.978-6.354-6.143-2.29-1.805-4.293-3.947-6.255-6.097-.988-.7-1.856-.726-2.868-.053zm-9.473 50.898l-.1.05z" fill="#fffb86"/><path d="M85.616 193.345c-3.545 1.894-5.74 5.449-8.226 8.481-4.723 6.34-9.146 12.956-12.658 20.05-2.626 5.773-4.085 12.007-5.332 18.201-.323 2.538-1.081 5.22-.307 7.74 1.28 1.714 3.656 1.858 5.494 2.684 2.128 1.313 4.56-.107 4.648-2.59.175-2.18-.463-4.456.534-6.585.926-2.547 1.681-5.146 2.445-7.741 1.808-4.282 4.553-8.086 6.865-12.1 2.274-3.688 5.17-6.935 7.594-10.522 1.437-1.955 2.948-3.871 4.71-5.546 1.602-2.403-1.556-4.189-2.061-6.403-.553-2.044-.108-5.832-3.127-5.733l-.29.032z" fill="#cec85b"/><path d="M90.972 192.382c-1.746.222-2.748 2.077-2.558 3.717.26 2.96 1.857 5.636 3.696 7.898 2.278 2.559 4.699 5.081 7.638 6.883 1.4.844 3.3 1.485 4.768.426 1.591-1.031 1.544-3.151 1.41-4.824-.176-2.459-1.249-4.85-3.114-6.488-2.12-2.06-4.904-3.254-7.026-5.316-1.36-1.114-2.916-2.537-4.814-2.296z" fill="#fffdc3"/><path d="M44.843 248.25c-8.291-.325-15.995 4.365-20.532 11.122-5.5 7.988-9.548 17.113-10.757 26.794-.851 5.318-3.3 11.186-.49 16.297 4.104 3.243 5.186-3.829 5.926-6.595 1.792-4.205 1.045-8.522 1.09-12.889 1.594-7.87 7.054-14.4 12.795-19.736 6.283-5.796 15.694-6.003 23.55-4.01 5.02 1.403 9.81 5.575 10.595 10.867-1.64 5.025 5.59 4.77 8.267 7.163 4.508.995 6.97 8.4 11.539 6.792 3.653-4.494-1.854-10.618 1.226-15.183 1.98-3.349 4.59-7.986 9.068-7.748 6.097-.73 11.653 2.617 15.523 7.055 3.219 2.882 6.16 6.206 7.073 10.561-.515 4.032 5.715 8.224 6.281 2.46-1.489-8.962-1.585-19.2-8.275-26.16-4.733-4.737-12.019-3.88-18.097-3.388-5.3.407-10.144 3.111-13.143 7.53-2.565 2.305-6 8.779-7.655 8.705-1.126-6.802-4.213-14.798-11.496-16.904-7.223-2.338-14.944-2.767-22.488-2.734z" fill="#efe000"/><path d="M48.634 257.17c-6.094-.308-12.357 1.464-16.843 5.73-5.336 5.105-10.299 11.153-12.346 18.37-.443 2.08-1.136 7.022.708 7.297 2.245-2.828 2.426-7.027 4.613-10.065 3.163-4.358 7.338-8.313 12.348-10.417 4.194-.774 8.684.38 11.76 3.42 2.707 2.45 6.315-.184 9.53.567 3.239-.323 9.086 2.588 9.6-2.42-1.33-6.204-7.1-10.73-13.204-11.811-2.025-.438-4.097-.64-6.166-.672zm48.244 1.94c-4.754.339-7.964 4.722-10.127 8.551-2.842 3.28.926 6.7.189 10.398-.492 2.526 1.36 3.925 2.565 1.093 2.456-4.866 8.894-6.906 13.819-4.751 6.001 1.973 11.767 4.717 17.126 8.028 2.84.03-.664-4.68-.693-6.524-1.357-3.813-4.318-6.703-6.874-9.728-3.15-3.384-7.062-6.367-11.829-6.752a30.188 30.188 0 00-4.176-.314z" fill="#bcb200"/><path d="M234.03 134.806c.158 3.327 1.1 6.743 3.39 9.254.605.77.81 1.2.81 1.2-.487.778-1.966 1.254-2.376 2.337-1.111 1.153-.77 2.921-.186 4.232.707 1.416 2.218 1.904 3.71 1.838 2.973-.307 4.24 1.376 6.36 2.064 2.253 1.87 5.506 2.46 8.263 1.43 1.954-.328 3.899-1.112 5.377-2.451 1.226-1.597.376-1.665.376-1.665l4.063-2.364c3.882-1.135 6.39-4.688 7.767-8.302.79-1.09.748-4.322-1.123-2.753-3.035 1.25-6.235 2.429-9.574 2.316-4.151-.16-8.471.383-12.43-1.178-3.568-1.142-6.56-3.685-8.655-6.744-.43-.63-1.114-.958-2.112-.74-.997.218-3.08.675-3.66 1.526zm-33.027 74.969c-1.511.286-2.477 1.69-3.563 2.67-1.176.796-1.152 2.74-1.563 3.457-1.438-.263-1.21.726-.581 1.73 1.692 3.63 3.402 7.41 6.486 10.1 5.12 4.95 11.903 8.354 19.039 8.952 4.307.235 8.808-.632 12.436-3.041 2.632-2.008 3.909-5.382 4.011-8.606-.09-.872-.523-2.377-1.327-1.04-3.214 2.514-7.502 2.847-11.436 2.774-5.837-.372-11.87-1.882-16.477-5.644-3.243-2.768-4.798-6.897-6.243-10.781-.16-.284-.424-.578-.782-.571zm-64.121-5.016c-8.448-.04-16.812 3.845-22.044 10.51-3.491 4.267-5.523 9.757-5.397 15.28.04 1.563 2.675 1.953.422 2.753-5.255 4.02-8.4 10.39-9.333 16.863.536 3.709 5.316 1.995 7.916 2.38 3.135-.394 5.775 1.65 8.596 2.273-.186-3.261.329-6.742 2.639-9.22 1.966-2.538 4.899-4.497 8.177-4.614 2.127-1.628.163-4.914.627-7.201-.343-4.069-.058-8.346 2.117-11.92 2.307-4.317 6.375-7.328 10.399-9.93 3.297-2.12 7.256-2.492 10.976-3.403-.506-2.696-4.18-2.097-6.226-2.926-2.917-.578-5.893-.89-8.87-.845zM34.85 299.558c-1.789 4.412-1.773 11.264 3.255 13.566 12.537 5.674 28.185 5.416 39.891-2.143 2.652-1.827 3.435-10.284.636-9.997-4.097 5.185-11.217 5.86-17.194 7.498-8.253 1.89-17.119-.513-23.624-5.81-1.25-.891-1.466-2.559-2.964-3.114zm101.094 13.137c-2.559 3.16-5.124 8.438-7.725 12.41-6.325 10.57-13.454 20.643-19.748 31.233-6.426 8.985-22.51 9.34-28.134-.678-4.049-.587-11.406-2.44-10.705-6.329 5.715-2.166 14.231-5.881 11.642-13.539-3.628.753-6.451 4.178-10.155 5.276-6.816 3.114-14.543 3.658-21.908 2.95-3.645-.39-7.722-5.89-10.931-1.477.97 4.773 6.888 8.344 11.718 9.517 3.257 1.053 7.191-1.26 6.578 3.24 4.648 9.874 11.841 20.338 23.34 22.426 7.875 1.165 15.324-2.465 22.214-5.807-1.793 4.473-.53 9.742-1.286 14.526-1.215 5.245-.783 10.585 5.108 12.408 7.082 4.13 14.936 6.68 22.719 9.125 5.56-1.677.042-10.295 2.695-14.64.688-3.356 4.07-5.93-.08-8.062-2.361-4.334-.813-10.924 4.258-12.517 6.066-2.913-4.503-7.216-3.288-12.223-1.421-6.62 3.506-12.325 8.958-15.294-.672-3.777-1.244-7.807-.89-11.793-.219-4.878 2.36-9.515 1.764-14.346-.718-2.987-3.096-5.709-6.144-6.406zm-58.22 7.05c-4.868 3.223-10.323 5.736-16.273 5.743-5.98.184-12.304.359-17.918-1.945-2.407-2.888-10.566-4.201-9.664.442 2.606 6.886 10.848 8.63 17.38 9.34 8.019.25 16.625.812 23.995-2.886 3.163-.996 7.04-9.88 2.48-10.694zm83.441-64.533c-.032 1.173-.087 2.398-.225 3.6a17.692 17.692 0 01-2.248 7.216l-.004.008-.006.008c-.947 1.52-1.542 3.257-2.289 4.985l-.006.014-.006.013c-.879 1.755-1.685 3.66-3.045 5.119-1.36 1.459-2.827 2.695-4.549 3.536-1.097.696-2.293.762-2.853.85-.561.088-.524.32-.48.556-.047.717.677 1.131 1.218 1.453 2.38 1.15 4.667 2.511 7.123 3.494 1.436.598 3.195.055 3.996-1.29 2.728-4.581 4.494-9.721 5.202-15.005.441-3.413.831-6.864.648-10.31-.288-2.17-1.145-4.69-2.294-6.16-.196.017-.177 1.697-.183 1.914z" fill="#ae6856"/><path d="M157.532 318.216c-2.085.13-4.514.182-5.991 1.9-1.588 1.695-1.49 4.197-1.413 6.36.488 4.749 2.769 9.177 2.824 13.99-.009 1.957-1.232 3.658-2.448 5.09-1.08 1.032-2.591 1.583-4.062 1.726-1.787-.158-3.175-1.412-4.695-2.216-1.34-.577-2.637.352-3.637 1.16-3.087 2.293-5.88 5.412-6.7 9.268-.363 2.71-.238 5.557.728 8.136.934 2.529 2.518 4.813 4.595 6.535.297.254.42.737-.072.865-2.207 1.419-5.02 2.362-6.232 4.885-1.053 2.381-1.365 5.129-.817 7.677.457 1.443 1.112 3.062 2.55 3.77.825-.063 1.811.196 2.376-.579 1.415-1.727 3.057-3.291 5.027-4.374 2.706-1.5 5.683-2.56 8.744-3.03 3.198-.335 6.48-.323 9.614.474.419.102 1.18.3 1.729.469 2.484.703 4.91 1.624 7.39 2.33.755.245 1.385-.368 2.023-.668.953-1.288.4-2.97.15-4.396-.82-3.836-3.322-7.22-6.59-9.34-1.371-.936-3.06-.966-4.614-1.356-3.04-1.004-5.633-3.018-7.999-5.124-1.713-1.633-3.503-3.33-4.505-5.509-.077-1.916 1.725-3.155 3.29-3.829 3.398-1.44 7.307-1.752 10.854-.673.369.11 1.133.363 1.644.555 5.675 2.224 10.763 6.133 14.102 11.26 1.267 1.994 2.025 4.281 3.393 6.209.778 1.06 2.532 1.166 3.344.099.828-.996.836-2.396 1.164-3.602 1.68-8.672 3.967-17.457 8.456-25.18.99-1.86 2.372-3.499 3.218-5.433.654-1.595-.339-3.22-1.458-4.312-2.15-2.271-4.524-4.361-7.29-5.855-4.368-2.458-8.988-4.545-13.84-5.842-4.85-1.12-9.88-1.56-14.852-1.44zm47.025 39.779c-2.712.901-4.793 3.171-6.366 5.474-2.355 4.155-3.25 9.162-2.63 13.888.665 4.934 3.857 9.284 3.513 14.396.159 3.875-1.114 7.883-3.657 10.826-3 2.766-6.888 5.031-11.104 4.683-2.366.128-6.14.614-6.406 3.546.974 3.173 5.42 2.707 8.119 3.23 7.42.087 14.857-1.843 22.263-.69 2.989.476 6.085 2.308 9.112 1.095 2.49-1.654 2.7-5.02 3.225-7.695 1.183-9.24.653-18.592 1.346-27.864.282-2.803 1.122-5.503 1.968-8.171.104-2.997-3.833-3.553-5.559-5.376-4.08-2.87-8.124-6.223-13.094-7.352l-.363-.016z" fill="#d58671"/><path d="M139.624 280.23c-4.545-.043-9.772 3.266-9.844 8.17-.537 1.87 3.674 3.513.432 3.132-5.38.741-10.675 4.208-12.817 9.297.318 1.76.937 2.404-1.358 2.712-4.56 1.863-8.503 6.974-7.113 12.051.933 3.155 4.86 4.123 7.574 2.696 5.308-3.033 11.208-5.631 17.455-5.383 3.594-.185 7.551 2.394 7.785 6.174.105 4.995-1.99 9.706-2.44 14.651-.618 4.236-.391 9.21 3.146 12.181 2.105 1.888 3.51 1.977 6.236 1.122 3.579-1.5 5.588-5.74 4.575-9.482-1.14-5.385-3.555-10.754-2.564-16.365 2.06-2.587 3.897-5.452 5.892-8.137 2.153-2.66 4.596-5.257 7.722-6.739 2.397-2.733.172-6.906-1.21-9.738-3.45-6.528-8.82-12.265-15.852-14.89-2.419-.95-5.012-1.514-7.62-1.452z" fill="#aaaaa9"/><path d="M200.946 411.917c-3.82.122-7.619.653-11.43.863-2.562.826-4.168 3.296-5.462 5.513-1.6 2.202-1.409 4.884-1.078 7.44.261 3.755 1.508 7.793 4.844 9.934 3.935 3.068 9.148 2.252 13.788 2.371 3.931-.156 7.83 1.072 11.038 3.324 1.705 1.541 2.04 3.962 3.12 5.902 1.224 2.163.097 5.16 2.289 6.835 2.035 1.811 3.857 4.528 6.813 4.734 2.858-.278 3.806-3.547 3.987-5.974.443-3.55-.908-7.034-3.012-9.843-2.28-3.472-5.264-6.537-6.956-10.364-.646-4.357-.56-8.803-.977-13.19.332-2.424-1.513-4.089-3.634-4.776-3.47-1.725-7.255-2.951-11.177-2.781-.718-.008-1.435 0-2.153.012zm-98.426-13.031c-6.26 9.386-11.068 19.934-12.991 31.098-.916 9.632-1.772 19.322-1.477 29.006.088 3.038.709 9.887 5.282 7.73 2.586-2.235 4.44-5.355 5.6-8.559 1.23-3.016 3.13-5.75 4.286-8.826 2.7-6.584 6.357-13.383 12.888-16.846 4.694-2.313 10.205-1.727 15.02-3.721 3.57-.743 7.512-.078 10.017 2.75 2.107 1.936 5.296 2.646 8.023 2.032 2.517-2.654-.044-7.238.924-10.679.72-2.901.432-7.896-3.91-6.14-3.21.63-7.526-.574-8.085-4.277.444-2.496-.56-7.642-3.96-5.009-2.508 2.839-4.978-1.408-8.137-.57-6.097-1.381-11.592-4.54-17.3-6.99-1.922-.637-4.337-2.973-6.18-1z" fill="#7b653a"/><path d="M93.788 394.265c-8.559.397-12.262 9.348-14.355 16.393-4.568 11.884-6.63 24.574-6.138 37.293.328 14.643.015 29.788 4.92 43.786 2.612 6.632 10.475 13.58 17.769 9.476 8.451-5.336 9.607-16.31 10.238-25.37 2.65-11.761 10.438-22.14 20.077-29.173 6.39-4.393 15.28-7.905 22.472-3.182 7.266 3.843 12.687 10.276 16.94 17.17 6.702 7.167 13.497-1.647 16.798-7.322 6.217-8.595 18.444-8.498 27.288-4.617 3.184 2.308 11.183 6.707 9.091-.85-1.471-6.12-5.88-11.213-12.349-12.134-6.607-1.594-16.023 2.18-19.828-5.446-2.778-5.694-.186-11.368 2.603-16.081-3.517-2.475-9.626-2.708-13.947-3.548-6.357 3.687-8.739 10.935-9.233 17.867-.892 5.399-7.799 11.389-13.113 8.088-1.751-6.499-8.637-4.71-12.44-9.024-4.917-3.137-10.882.69-16.368.839-8.739 1.016-16.208 7.007-19.758 14.967-2.53 5.026-4.176 10.555-8.14 14.727-2.135 5.33-6.174 8.093-5.487.488.076-11.143.075-22.46 2.466-33.39 2.366-8.987 6.523-17.4 11.563-25.168.003-4.358-7.77-5.384-11.069-5.79z" fill="#513d16"/><path d="M139.405 440.536c-7.96-.738-24.118 9.376-8.76 12.38 14.522 8.448 19.511 25.89 30.494 37.81 9.211 11.789 20.558 22.735 24.14 37.805 3.196 11.014 9.737 21.376 8.407 33.288-.418 10.597-1.514 22.41-10.758 29.292-8.833 8.214-6.854 22.21-19.102 27.878-8.56 10.411 4.727 23.438 15.091 25.932 10.331 3.664 22.328.88 31.603 7.69 9.384 2.813 14.431 12.277 23.96 13.86 7.403 3.022 10.272-12.5 14.04-3.593 6.866.566 8.678-9.21 15.226-7.462 3.696-3.185-1.13-13.12 5.35-5.235 8.917 1.31 19.17-9.487 17.702-18.65-.833-4.674-9.26-10.79.597-9.36 7.531 1.983 20.423 6.884 22.485-4.893.775-3.43-4.902-8.764 2.009-5.85 8.306-1.298 6.876-12.69.297-15.415 10.97 1.44-1.165-12.29-2.803-11.978 4.54-9.388-14.435-11.485-13.231 0-13.455-3.501-25.613-11.733-39.72-13.365-10.22-1.824-20.642-.415-30.431 2.816 5.557-10.75 11.76-21.666 14.15-33.596-2.085-11.275 18.802-12.437 11.625-25.377-11.62-4.7-10.69-18.655-18.27-27.706-9.255-15.631-21.153-30.166-35.637-41.017-12.198-1.646-16.757 11.282-23.771 18.283-10.365.223-13.488-15.815-23.134-19.83-3.485-2.113-7.4-3.82-11.559-3.706z" fill="#d58671"/><path d="M124.231 449.673l-1.514-.62c-.234-.122-.628-.167-.847-.423-3.654 3.38-6.783 7.287-9.934 11.13-.072.913-.563 1.865-.045 2.72a54.067 54.067 0 006.616 12.978c5.501 8.023 11.975 15.31 17.931 22.988 7.622 9.648 14.745 19.805 23.848 28.157 5.042 4.606 10.25 9.109 16.123 12.634 1.655 1.083 3.68 1.673 5.027 3.176.68 1.027-.064 2.268-.472 3.26-1.683 3.272-3.98 6.195-5.498 9.559-3.168 6.53-3.758 13.892-4.155 21.03-.35 5.839-.234 11.706-.873 17.524-.263 2.494-1.197 5.021-3.025 6.787-1.958 1.472-4.391 2.084-6.66 2.91-3.25 1.152-6.617 2.028-9.73 3.532-2.247 1.224-3.885 3.282-5.419 5.277-3.932 5.507-6.291 12.15-6.68 18.906-.14 3.518.065 7.37 2.344 10.246 2.199 2.73 5.26 4.582 8.268 6.295 7.287 3.925 15.44 5.805 23.49 7.438 9.714 1.927 19.539 3.205 29.328 4.67 4.205.692 8.533 1.318 12.329 3.379.724.527 1.61.383 2.453.424.249.064.245.882.51 1.193.994 1.817 2.876 2.881 4.41 4.191 3.139 2.378 6.533 4.814 10.533 5.366 3.047.428 6.067-1.003 8.125-3.196 2.303-2.3 3.842-5.357 4.373-8.552-.218-.536-.004-1.374-.547-1.68-.273-.107-.533-.338-.8-.492-.55 1.229-1.308 2.24-2.22 3.027-1.79 1.546-4.137 2.234-6.546 2.209-4.741-.05-9.779-2.857-11.727-7.592-9.501-3.192-17.969-11.402-27.293-11.322l-.014.002-.013-.002c-6.104-.205-12.986-1.034-19.047-3.399-6.059-2.363-11.315-6.29-14.033-12.652-1.546-3.254-1.588-5.888-.688-8.074.901-2.19 2.686-3.9 4.662-5.518 3.941-3.224 8.628-6.085 9.467-11.101-.495-6.072 2.969-10.188 6.768-14.002 3.813-3.83 7.964-7.43 9.238-12.545 2.387-12.76 4.634-26.857-1.932-38.55l-.017-.028-.012-.03c-4.583-11.37-6.207-24.015-14.57-33.205l-.014-.015-.014-.018c-8.56-11.268-18.562-21.509-25.646-34.015-6.167-9.755-12.751-20.699-24.567-23.595zm59.317 2.313c-2.244.787-3.388 3.172-4.932 4.86-1.615 1.75-2.392 4.242-4.27 5.686-4.16 1.392-1.164 5.774 2.069 5.677 4.663 3.185 8.025 7.864 11.62 12.144 6.1 7.67 11.144 16.206 14.84 25.282 1.551 4.179 2.361 8.655 4.404 12.635 1.848 2.06 4.986.05 7.305 1.36 1.745.82 3.97 1.65 3.405-1.267.585-11.81-4.943-22.705-10.001-33.016-4.258-8.723-9.881-16.772-16.788-23.605-2.522-2.69-4.957-5.464-7.588-8.051.057-.63 1.456-1.835-.064-1.705zm32.625 86.234c-1.466.133-3.306.026-4.215 1.424-.376.739-.322 1.569-.002 2.314.4 2.208.296 4.487.512 6.7.357.454.385 1.316.992 1.46.183.017.374.08.566.145.965-4.005 2.553-7.796 2.383-11.776l-.236-.267zm92.961 79.111c-.25 1.356-.764 2.663-1.528 3.781-1.38 2.022-3.593 3.434-6.318 3.268-3.72-.227-5.68-.743-7.152-1.318-1.473-.576-2.396-1.167-4.182-1.6-1.399-.339-3.492-.54-5.264-.29-.886.124-1.69.363-2.285.72-.587.352-.969.793-1.13 1.402.656 1.05 1.696 1.826 2.31 2.918 1.041 1.33 1.462 3.39 3.256 3.938 1.523.44 2.942-.892 3.193-2.336 2.134 1.394 4.009 3.268 6.43 4.17 2.781.97 5.846.12 8.236-1.444 2.937-1.695 5.613-4.366 6.184-7.836.206-1.34.29-2.753-.016-4.08-.147-.519-.622-.973-1.055-1.232-.226-.019-.452-.036-.68-.06z" fill="#ae6856"/><path d="M259.21 314.966c-1.883.005-3.879 1.144-4.467 2.994-.27 1.22.434 2.245 1.336 2.998-1.486.576-2.22 2.339-2.473 3.84-.253 1.382-.242 2.94.631 4.1-1.007.074-1.964.708-2.484 1.595-1.787 2.557-1.81 5.847-1.467 8.826.08.561.2 1.115.354 1.66-1.476-.596-3.013.42-3.745 1.684-1.846 2.979-2.542 6.536-2.72 9.996.024 1.794-.121 3.876 1.154 5.31l-.129 1.638c-1.193-.914-3.194-.595-3.768.877-.56 1.52-.1 3.191.186 4.728 1.495 6.018 5.393 11.154 9.9 15.281 6.072 5.508 13.773 9.322 21.95 10.297 6.863.986 14.029.76 20.611-1.566 1.435-.402 1.93-1.903 2.547-3.086 2.66-5.157 4.583-10.813 4.713-16.658.002-.748-.729-1.192-1.08-1.791-.894.194-.22-.677-.155-1.133.82-2.419 1.077-4.976 1.723-7.438 1.118-.299 1.563-1.5 2.506-2.078a8.35 8.35 0 014.701-1.902c3.677-.54 6.525-3.465 8.139-6.658 1.715-3.465 2.28-7.652.967-11.342-.443-1.02-1.03-2.063-1.866-2.787-.584-.185-1.143-.912-1.758-.48-.574.228-1.243.35-1.412 1.038-.342.616-.28 1.475-1.025 1.825-2.582 1.991-5.877 2.944-9.123 2.777-5.811-.186-11.542-1.835-16.7-4.488-5.232-2.637-9.479-6.777-13.4-11.051-2.854-2.993-5.902-5.924-9.576-7.89-1.264-.63-2.638-1.14-4.07-1.116z" fill="#d58671"/><path d="M299.784 301.855c-3.738 1.177-3.915 6.016-2.41 9.01 2.154 5.19 6.906 8.394 11.087 11.81 3.584 2.85 5.026 7.349 5.686 11.7 2.542 1.865 3.545 5.135 3.148 8.197-.414 5.234-4.015 11.004-9.732 11.287-3.195.689-6.666 3.079-6.154 6.737.098 2.752-2.43 6.027-1.625 8.317.186 6.237-2.295 12.143-4.94 17.64 2.086 1.561 5.508-2.345 7.704-3.261 6.994-5.326 14.044-10.94 19.065-18.253 5.293-8.106 7.654-17.667 9.956-26.954-.08-2.348 2.529-6.206-.422-7.453-5.815-3.1-11.151-6.99-16.854-10.273-3.04-2.044-5.363-5.115-6.421-8.625-2.484-1.531-4.742-3.664-6.176-6.29-.977-.943-.63-3.11-1.912-3.59z" fill="#ac6755"/><path d="M304.813 299.232c-2.334-.148-4.463 2.365-3.34 4.59 1.013 2.256 2.734 4.106 4.399 5.9.401.433.909.712 1.451.873-.756.72-.853 1.908-.422 2.842 1.576 4.25 5.034 7.578 9.012 9.629 3.362 1.892 6.421 4.276 9.807 6.134 1.774 1.064 3.531 2.167 5.382 3.094.718-.074 1.6.341 2.118-.324 1.062-.705.803-2.15.836-3.25.04-3.866-1.379-7.703-3.883-10.645-3.473-4.307-7.355-8.276-11.414-12.03-1.15-.994-2.312-2.077-3.723-2.66-.684.048-1.535-.392-2.004.292l-.088.078a4.582 4.582 0 00-.406-1.059c-.909-1.416-2.589-2.034-4.033-2.755a7.544 7.544 0 00-3.692-.71z" fill="#d58671"/><path d="M439.848 278.99c-.379.685-.394 1.441-.244 2.193.26 2.796-.56 5.965-3.004 7.601-.655.427-1.508.588-1.844 1.382-.53.483-.352 1.265-.253 1.888 1.321 3.61 2.354 7.56 5.148 10.36.577.088 1.2.589 1.746.406.466-.4 1.38-.488 1.338-1.239.151-.664.328-1.376-.176-1.942-1.463-2.054-1.797-4.793-.923-7.153.92-2.521 2.656-4.874 5.072-6.124.28-.512.962-.929.975-1.504-.174-.712-.116-1.578-.842-1.988-1.463-1.048-2.776-2.32-3.688-3.88-.408-.623-1.267-.561-1.888-.858l-1.417.857zm18.534 23.312c-1.905.262-3.557 1.507-5.522 1.508-1.643.091-3.275-.07-4.89-.359-1.419-.209-3.24-.25-4.113 1.114-.927 1.413-.246 3.18.385 4.57.83 1.718 1.58 3.471 2.096 5.312.583 2.046 2.044 4.016 4.227 4.471 2.58.57 5.52-.317 7.058-2.542 1.237-1.614 1.582-3.652 2.145-5.55.783-1.963 2.318-3.91 1.82-6.14-.332-1.401-1.75-2.521-3.206-2.384zm-33.102-57.865c-4.53.005-8.681 2.338-12.118 5.107-7.902 6.447-12.585 16.31-13.59 26.371-.41 4.494-.177 9.059.8 13.469.449 2.034.955 4.092 1.734 6.014.472.335.744 1.156 1.366 1.12.573-.113 1.369.216 1.67-.441.446-.506.919-1.021.82-1.75.502-6.527.935-13.106 2.488-19.486.137-.534.38-1.396.575-2.051 1.447-4.566 2.815-9.242 5.335-13.355 1.61-2.602 3.936-4.681 6.535-6.263 1.552-1.05 3.317-1.994 5.254-1.844 2.203-.006 4.396.592 6.596.34.649-.115 1.178-.622 1.538-1.13.539-1.019.149-2.224-.624-3.006-1.256-1.573-3.029-2.81-5.078-2.994-1.096-.115-2.2-.124-3.3-.101zm36.248-11.116c-5.677.177-11.574 1.605-16.033 5.284a2.553 2.553 0 00-1.125 1.879c.243.41.234 1.061.547 1.404-1.23.61-2.394 1.351-3.438 2.287-1.21 1.092-2.333 2.375-3.013 3.855.071.574-.35 1.328.095 1.764.485.398.814 1.172 1.551.961 1.204.161 2.175-.713 3.233-1.14 3.479-1.73 7.001-3.74 10.974-3.956 4.806-.255 9.44 1.407 13.863 3.088.306.137 1.04.425 1.495.653 5.112 2.58 9.026 6.984 12.275 11.603 2.233 3.233 4.11 6.711 5.725 10.281.531.514.93 1.59 1.84 1.282.6-.083 1.265-.076 1.482-.764.084-.096.156-.2.226-.303l.166.612c.274.551.685 1.196 1.38 1.177.614.177 1.22.297 1.734-.18.536-.256.628-.984.877-1.472.2-9.726-3.264-19.464-9.446-26.963-2.74-3.111-5.79-6.039-9.492-7.979-4.54-2.465-9.782-3.46-14.916-3.373z" fill="#efe000"/><path d="M415.366 206.653c-1.755.226-2.647 2.249-2.17 3.833.604 1.834 1.61 3.514 2.161 5.373 3.208 9.165 5.63 18.593 9.038 27.689.446.964 1.458 1.404 2.46 1.537 1.775.362 3.674.508 5.22 1.539.607.284 1.31-.064 1.957-.054.326-.644 1.15-1.163.875-1.958-.142-1.209-.914-2.24-1.34-3.366-1.39-2.95-2.552-6.002-3.898-8.97-.385-.494-.82-.894-1.49-.828-.748.15-.503-.684-.631-1.146-.453-3.769-1.714-7.375-2.908-10.958-.561-1.525-1.257-3.017-1.53-4.626-.625-1.767-1.267-3.557-2.02-5.26-.551-.41-.91-1.286-1.71-1.092-.509-.136-1.114.346-1.373-.289-.606-.851-1.534-1.56-2.64-1.423z" fill="#cec85b"/><path d="M439.686 201.468c-.72.088-1.373.44-1.99.803-.927-.81-2.456-.948-3.33.015-.942 1.158-1.443 2.678-2.656 3.614-1.078-1.042-2.817-1.541-4.153-.68-1.16.607-1.714 1.98-2.89 2.53-1.104.03-1.912-.802-2.675-1.454-.572-.079-1.192-.681-1.728-.363-.618.364-1.381.619-1.56 1.4-.37.771-.612 1.581-.485 2.442.198 1.122.8 2.165 1.154 3.257a46.178 46.178 0 002.347 5.442c1.163 2.718 2.506 5.393 3.214 8.277.314 1.558.633 3.12 1.295 4.576 2.236 5.704 4.609 11.37 7.446 16.804.367.538 1.092.691 1.609 1.067.717-.319 1.68-.331 2.005-1.167a19.825 19.825 0 017.516-8.91c.935-.66 2.003-1.127 2.98-1.689.276-.51 1.055-.88.949-1.495-.1-.722-.15-1.463-.666-2.026-2-2.965-3.797-6.128-4.67-9.625-1.41-5.249-1.288-10.74-1.017-16.121.033-1.646.372-3.35-.08-4.961-.382-1.077-1.454-1.86-2.615-1.736z" fill="#fffb86"/><path d="M431.333 191.095c-5.462.285-11.022 1.567-15.661 4.562-2.385 1.578-4.418 3.763-5.685 6.334-.77 1.535-.433 3.621 1.079 4.575 1.959 1.154 4.331 1.512 6.58 1.368 1.036-.077 2.088-.378 2.908-1.04 1.415 1.298 3.8 1.603 5.273.234.888-.719 1.213-1.845 1.65-2.84.496-.475.78.485 1.182.678 1.438 1.058 3.349.278 4.547-.777.664-.534 1.26-1.145 1.832-1.774 2.174.91 4.646-.456 5.88-2.275 1.353-1.839 1.015-4.522-.536-6.135-2.248-2.492-5.856-3.06-9.05-2.91z" fill="#fffdc3"/><path d="M454.909 244.314c-5.704.27-10.867 3.119-15.815 5.706-2.246.673-3.361 4.66-3.588 5.253-2.648-5.04-10.052-6.495-14.488-2.948-7.21 4.102-10.283 12.353-12.565 19.872-.868 2.934-1.59 5.91-2.237 8.9.363 3.18 5.737 2.544 5.007 6.648-1.236 2.909.734 5.553 3.86 5.133 2.05 2.172 2.24 5.758 5.585 6.81 4.533 2.913 10.15 3.586 15.386 2.704 4.552.344 2.556-4.51 1.098-6.772-.448-1.78-2.343-5.46-2.03-5.763 4.693.283 6.643-6.96 2.983-9.477-.287-.628 2.172-.456 3.027-.751 1.973-.015 2.938 3.252 5.33 3.378 1.596.749 5.563.033 1.887 1.332-3.973 2.229-7.906 6.231-7.371 11.152-.525 5.826 5.89 10.911 11.411 9.134 1.801-.803 1.751-2.474 3.598-1.079 8.708-.747 16.535-6.642 20.655-14.216 1.991-3.985-.063-8.854-3.681-11.13-1.004-1.547-5.119-1.826-4.991-2.754 3.224-4.949 2.918-11.921-.334-16.762-1.183-1.963-5.922.517-2.525-1.608 2.775-2.042 4.213-6.694 1.123-9.138-2.993-2.786-7.38-3.523-11.325-3.624z" fill="#aaaaa9"/><path d="M321.409 154.183c-9.074 1.169-5.831 10.852-2.668 15.836 6.555 3.358 10.802 9.114 18.541 10.227 6.402 3.154 10.104 10.47 8.66 17.495-.644 5.519-4.72 12.577-11.117 11.886-8.302 2.172-14.172-4.458-17.99-10.674-5.204-1.436-9.389-8.013-14.299-7.413.03 6.697 6.002 14.023 7.923 19.39-9.935 6.287-15.36 18.616-14.508 30.34-.546 11.342 7.545 20.102 14.07 28.397 3.586 5.66 9.908 10.975 9.493 18.193-.092 5.389-9.603 10.656-5.23 15.299 7.503 5.607 13.8 12.808 20.06 19.66 8.306-.264 15.46 5.688 23.905 4.695 13.467-.535 25.96-6.848 35.917-15.663 5.93-4.848 13.741-6.151 19.81-10.791 7.693-.636 5.632-10.997-1.15-10.498 3.584-6.47-8.315-13.684-7.354-3.825-.722 3.603.045 12.645-.953 12.745-2.707-6.108-5.122-16.232-13.468-9.316-6.797 2.86-13.044 7.626-20.437 8.741-14.223-1.808-27.653-8.917-37.822-18.943 8.597.59 16.371-5.07 19.523-12.879 2.358-6.358-1.794-12.596-1.435-19.055-1.646-7.638 4.656-13.006 9.927-17.822 4.89-5.229 10.256-11.373 18.319-10.336 4.299.833 13.453 4.12 9.922-3.97-.227-5.985-13.36-3.647-5.957-6.103 2.919-4.25-7.75-4.254-1.562-7.1 5.42-.897 9.5-8.94 1.167-7.333-4.065.22-11.5 3.52-4.978-1.927 6.532-6.397-9.171-2.427-3.513-6.83 3.852-1.306 10.042-9.372 1.995-7.504-3.788 1.026-10.498 7.86-5.566.345-.537-5.04-7.6 1.668-5.682-5.109-.346-3.678.584-16.97-5.51-12.121-.78 2.907-1.858 15.939-3.164 6.53-.166-6.115-7.3-6.738-6.652.024-1.075 4.425-2.19 6.48-5.324 1.937-6.125-5.294-11.17-12.331-18.528-15.92-1.406-.445-2.888-.686-4.365-.608z" fill="#6c6b6b"/><path d="M287.509 167.415c-9.388.902-13.168 13.442-6.82 20.002-1.825 4.672-11.325-4.53-15.53.917-9.177 4.586-16.252 14.304-14.892 24.939-.112 9.268 1.231 19.065 7.52 26.339 3.939 6.594 10.304 10.967 16.087 15.766-3.258 3.355-10.623 4.667-11.688 10.66-8.6-7.158-20.64-10.733-31.425-6.556-12.428 3.712-20.397 15.044-27.242 25.317-7.084 7.785.086 16.415 3.103 24.21 5.533 13.403 16.886 25.286 31.768 27.37 5.502.897 14.241 3.14 13.64-5.357 5.687-3.398.011-16.555 9.726-15.118 7.557 2.96 11.39 11.369 18.208 15.064 7.384-3.363 14.796-7.894 20.1-14.041-1.715-4.414-7.443-10.813-1.42-15.342 6.387-5.188 16.421 5.193 19.073-6.057 6.283-6.28 3.25-15.22-1.89-21.038-4.695-5.913-9.146-12.193-14-17.802-6.14-9.902-5.683-22.22-2.855-33.1 1.458-5.057 10.742-9.604 9.79-16.622-1.915-6.946-7.083-11.853-9.343-18.71-.7-.999 4.345-2.88 2.846-6.605 3.32-7.899-7.942-14.538-14.756-14.236zm90.996 51.465c-4.908.036-10.085 1.163-13.681 4.74-2.361 2.297-4.542 4.788-7.253 6.695-2.868 2.11-4.621 5.366-5.726 8.674-1.303 2.203-2.34 4.658-2.068 7.273.312 7.076 1.506 14.406 5.301 20.509 3.436 5.534 10.386 7.963 16.655 7.663 7.626-.417 14.026-5.626 18.338-11.588 3.293-4.411 4.624-9.839 5.669-15.143 1.317-6.653 2.257-14.232-1.595-20.26-3.413-5.017-9.442-8.798-15.64-8.563z" fill="#aaaaa9"/><path d="M316.938 170.35c-4.498.291-9.182 2.016-12.04 5.647-2.232 2.766-2.57 6.476-2.483 9.899-.054 1.556.261 3.151 1.236 4.404 2.238 3.096 5.4 5.386 8.621 7.37 1.076.604 2.158 1.252 3.29 1.72.571-.087 1.337.314 1.761-.143.158-.169.33-.334.494-.504.217 1.52.701 2.998 1.469 4.34 2.606 5.082 8.478 7.952 14.078 7.653 3.457-.138 7.037-1.342 9.328-4.047 2.494-2.87 3.624-6.75 3.668-10.504.038-2.834-.299-5.725-1.539-8.307-2.27-5.174-7.46-9.162-13.201-9.32-.202-.014-.404-.005-.605-.006-1.139.005-2.226.245-3.26.63.345-.541.872-1.05.586-1.708-.248-1.525-1.52-2.613-2.555-3.66-2.32-2.286-5.593-3.565-8.848-3.463z" fill="#fff"/><path d="M298.313 316.778c-4.785 4.015-9.787 7.829-15.328 10.75-.908.565-2.045.964-2.663 1.861-.15.768-.627 1.604-.038 2.3 1.023 1.254 2.563 1.936 3.89 2.818 3.9 2.41 8.232 4.07 12.716 5.006 3.49.804 7.317 1.402 10.708-.115 2.286-1.028 4.624-2.473 5.793-4.778.818-1.61-.149-3.31-.789-4.792-2.066-4.654-5.966-8.124-9.758-11.374-.771-.55-1.4-1.373-2.269-1.74-.623-.112-1.274-.58-1.854-.118l-.408.182zm-97.564-21.638c-1.44.486-1.87 2.102-1.977 3.459a35.591 35.591 0 00.526 10.009c.401.958-.298.191-.665-.078-2.93-2.204-6.004-4.241-9.263-5.926-3.142-1.558-6.748-1.191-10.142-1.216-3.64.053-7.305.583-10.692 1.967-1.774.628-3.588 1.145-5.441 1.468-2.784.975-4.287 3.349-6.356 5.383-1.727 1.725-3.052 3.82-4.141 5.977.057.575-1.127.994-.692 1.441.484.47.847 1.16 1.614 1.122 4.46.056 8.95-.147 13.383.5.35.05 1.078.147 1.58.234.738.115 1.282.223 2.06.372 6.988 1.437 13.908 4.088 19.415 8.727 2.026 1.795 3.766 3.895 5.903 5.572 1.18.976 2.407 1.91 3.773 2.612-1.84.09-4.003.093-5.584 1.267-1.84 1.702-2.827 4.089-3.868 6.318-2.944 6.803-5.1 13.933-6.722 21.16-.649 3.313-1.406 6.616-1.803 9.972-.208 1.4.362 3.09 1.85 3.506.992.274 2.062.034 3.019.5 2.415.782 4.515 2.276 6.877 3.181.606-.022 2.83 1.605 3.283 1.068 1.278-.656-.435-3.695-.412-4.91-.098-2.595-.476-5.21.004-7.793.726-4.995 3.761-9.462 7.843-12.356 1.438-1.13 3.182-1.953 5.047-1.88.498-.03-.244.852-.01 1.23.164 1.812 1.915 2.822 3.212 3.835 4.44 3.053 8.887 6.117 13.578 8.775 3.267 1.846 6.905 3.15 10.687 3.241 1.922.058 3.87.087 5.777.008.47-.337 1.334-.33 1.503-.93.193-.685.577-1.39.162-2.072-.95-2.567-1.888-5.198-1.922-7.97-.004-1.205-.043-2.51.51-3.608 1.709-1.033 2.14-3.231 1.861-5.052-.342-3.685.527-7.488 2.393-10.68 1.115-1.811 3.123-3.062 3.664-5.219.34-1.339-.675-2.888-2.011-2.907-4.487-.063-9.573-.206-13.914-1.435-5.837-1.464-11.341-4.378-15.61-8.648-3.298-3.114-5.54-7.112-7.82-10.983-2.73-4.805-5.157-9.782-7.204-14.92-.545-1.368-2.142-5.898-3.083-7.68l-.192 3.358z" fill="#6c6b6b"/><path d="M151.772 350.693c-2.235.208-4.11 1.748-5.532 3.383-1.026 1.202-.743 3.025.295 4.123 2.906 3.153 6.106 6.161 9.956 8.126 1.733.884 3.643 1.423 5.59 1.468 2.004.621 3.394 2.774 4.603 4.405 2.668 3.6 4.406 8.729 2.042 9.779-2.365 1.05-7.466-1.888-12.29-2.587-6.297-.985-13.136-.06-18.416 3.699-3.07 2.194-5.6 5.23-6.994 8.749-1.172 3.528-1.453 7.32-1.187 11.013.196 1.787.512 3.988 2.285 4.904 1.227.64 2.55-.089 3.475-.913 1.256-.985 2.455-2.043 3.63-3.128l1.953-1.295c-2.065 2.459-3.843 5.622-3.314 8.943.461 2.786 2.803 5.487 5.768 5.526 2.886-.054 5.333-1.853 7.61-3.432l3.029-1.035c-2.741 2.87-3.655 6.93-4.083 10.754-.312 3.565-.273 7.317 1.155 10.658 1.111 2.586 4.093 4.559 6.933 3.71 2.474-.779 4.403-2.749 5.793-4.871 2.626-4.285 3.987-9.197 5.033-14.07.996-2.689 3.148-4.747 5.29-6.563 2.315-1.815 4.897-3.555 7.864-4.005 4.94.033 10.007-1.677 13.522-5.232 2.004-1.96 3.258-4.575 3.753-7.317.756-3.177.785-6.764-1.07-9.585-2.109-3.27-5.535-5.421-8.988-7.05-2.347-1.075-4.895-1.796-7.496-1.708-.445-.213-.461-.957-.694-1.386-2.054-6.413-5.003-12.789-9.97-17.477-5.2-4.96-12.364-7.724-19.545-7.586z" fill="#aaaaa9"/><path d="M248.272 10.01c-3.846-.018-7.05.975-9.771 2.98-4.853 3.572-8.684 7.72-10.74 11.628l-1.579 3-.04-3.111c-.023-1.747 1.086-4.769 2.529-6.895 2.196-3.235 2.365-3.988 1.174-5.18-1.192-1.19-1.78-1.003-4.065 1.282-2.612 2.612-4.226 6.874-4.885 12.904l-.328 3-2.236-4.216c-2.15-4.054-8.324-9.284-10.961-9.284-2.468 0-1.29 3.938 1.63 5.448 2.994 1.548 8.394 9.93 7.888 12.242-.173.789-3.443-1.265-8.248-5.18-4.38-3.567-10.42-7.729-13.422-9.248-12.498-6.323-24.499-2.373-33.914 11.162-6.067 8.72-7.803 12.066-10.27 19.787-2.218 6.943-2.377 9.53-.826 13.475 1.417 3.606 3.032 17.274 2.31 19.564-.41 1.304-1.628 1.75-4.775 1.75-3.66 0-4.772.568-8.324 4.25-6.303 6.535-7.319 9.303-7.315 19.952.003 7.529.384 9.92 2 12.572 1.402 2.298 2.032 3.357 1.745 3.629-10.008-3.608-12.758 8.341-13.237 11.299-4.777 1.914-7.788 12.152-6.892 14.345-4.134 2.175-8.708 14.246-8.618 18.987.11 5.688.874 7.815 5.393 13.097 1.708 1.997 4.396 5.515 5.97 7.819 1.576 2.303 4.788 4.735 6.1 5.234-.251 1.785-.385 6.01 1.409 8-6.052 2.389-10.911 7.489-14.577 12.945-1.97 2.933-2.7 5.433-2.816 9.346-.128 4.276-.757 6.093-3.182 9.178-4.67 4.233-4.894 10.613-6.898 14.709-2.479.294-6.68 1.403-8.79 3.445.04-4.666 1.836-9.708 2.782-12.49 2.913-8.568 4.844-11.073 11.41-21.207 3.797-5.86 4.832-11.963 3.031-17.87-.805-2.642-3.203-3.31-9.443-8.25-3.673-2.907-7.557-5.203-9.312-4.99-2.15.262-11.446 9.839-16.455 17.446-8.872 13.47-14.622 28.267-14.622 37.627v2.949l-9.75-.201c-14.501-.299-18.863 2.357-27.386 16.68-4.92 8.266-8.03 18.63-9.477 31.587-.498 4.458-.2 6.547 1.477 10.338 1.187 2.685 2.632 4.576 3.322 4.346 1.113-.371 2.552-4.835 6.299-19.541 2.008-7.883 6.675-15.192 11.763-18.904 4.947-3.609 9.234-2.215 13.588.556-10.6 5.189-8.452 15.736-7.193 17.348-11.611 3.95-10.379 24.985-4.648 25.699-2.56.992-4.09 5.764-3.995 6.813.424 4.621 2.874 7.478 6.704 10.212-3.345 3.545-3.484 6.351-.706 12.444 2.78 6.092 9.717 9.887 17.614 9.23 9.843 23.45 23.702 32.38 44.818 20.533.088 6.744-.318 11.877-.687 19.075-6.98-1.766-12.73.038-15.827 5.658-4.693 8.52-7.301 18.565-9.457 27.605-2.787 11.692-2.917 44.269 3.475 65.313 1.886 6.21 8.851 12.015 15.342 11.99 4.818-.019 9.134-4.76 11.32-8.988.849-1.642 2.543-7.061 2.469-11.942-.06-3.903.812-12.995 4.92-16.521.704-.133 1.23.527 1.635 1.398 5.033 10.817 18.07 26.292 28.1 38.674 8.175 10.094 16.047 20.7 26.08 28.951 3.712 3.053 8.494 5.46 12.376 7.4.902.903-4.983 9.047-6.521 13.94-2.097 6.669-2.842 13.711-3.58 20.662-.59 5.555.517 11.287-.672 16.744-.314 1.44-.641 3.044-1.678 4.092-1.843 1.864-4.889 1.909-7.24 3.067-4.955 2.44-10.577 4.192-14.422 8.156-3.33 3.432-5.487 8.064-6.682 12.695-1.436 5.567-2.117 10.524-.355 17.244 1.344 5.128 7.218 8.015 11.832 10.625 6.13 3.469 13.332 4.631 20.197 6.205 9.566 2.194 19.4 2.99 29.1 4.483 3.336.514 6.848.353 10.008 1.54 4.549 1.711 8.297 5.074 12.304 7.825 2.1 1.442 4.55 4.064 7.362 5.025 2.262.775 4.936 1.345 8.14-.09 3.205-1.434 7.92-6.192 8.715-9.542 1.049.51 2.887 1.376 4.402 1.222 2.208-.223 4.29-1.531 5.926-3.029 1.528-1.398 2.52-2.94 3.307-5.26 3.007 1.736 5.456-.875 6.861-2.928.85-1.24 1.536-2.809 2.014-3.959.876.533 2.564.91 3.49 1.143 1.567.393 3.743-.667 5.336-1.627 4.05-2.44 7.602-5.988 10-10.064 1.107-1.882 2.012-3.615 1.818-6.293-.35-4.841.98-5.538 4.143-2.17 2.755 2.932 9.404 3.01 14.623-1.666 5.943-5.325 6.221-10.134 2.861-17.633 2.17.915 5.382-.462 6.742-2.426 2.482-3.581 3.502-5.37-.18-13.07 3.682-3.74 1.804-8.496-.523-10.682-1.372-1.29-1.96-1.863-3.576-2.844 1.368-3.688-.86-5.87-2.928-7.66-2.498-2.162-6.595-3.38-9.671-2.174-2.733 1.071-4.763 4.804-4.993 7.252-2.532.579-9-3.342-13.515-4.972-6.537-2.36-12.84-5.592-19.655-6.957a83.858 83.858 0 00-23.742-1.315c-2.733.242-6.644 1.38-8.011 1.89.419-1.52 3.302-6.838 4.896-10.284 1.962-4.24 4.253-8.358 5.746-12.785.852-2.526 2.024-4.325 1.81-7.788-.279-4.542-.718-5.486 2.743-7.037 7.782-3.485 10.565-10.473 8.492-17.39-1.022-3.413-1.925-4.365-5.658-5.965-3.395-1.455-4.445-2.443-4.455-4.19-.039-6.833-11.862-25.5-20.258-36.652-5.547-7.367-15.941-16.624-19.57-19.553 6.43 0 9.837 3.751 14.341 8.487 5.604 5.891 9.443 5.665 11.536-.676 1.945-5.895 1.184-10.632-4.913-17.727-4.644-5.404-5.123-8.315-5.123-15.017 0-4.612-.902-5.931.159-8.592 2.235-5.607 2.215-7.964 2.496-16.693.263-8.174.561-17.224.662-20.112.11-3.164.842-4.95 1.547-6.367 5.818 5.098 12.145 4.61 19.51 3.352 7.641 9.7 17.679 15.146 28.06 17.091 8.118 1.522 19.358-.5 24.576-3.171 6.967-3.566 10.225-5.998 19.059-14.229 7.764-7.234 11.658-14.664 14.422-22.752 2.807-8.216 4.782-14.199 5.51-22.726.412-4.837 1.788-5.165 9.304-1.614 6.123 2.893 11.366 2.382 16.986 1.53 9.757-1.48 24.097-8.593 27.375-11.274 5.338-4.365 7.112-7.382 18.327-11.89 3.051-1.227 6.359-3.635 9.507-5.3 5.02 1.742 10.485 3.083 15.579 3.1 6.573.023 6.823.381 10.992 10.5 1.36 3.302 2.636 6.002 7.095 6.297 6.403.425 8.468-1.63 10.6-10.55 1.265-5.293 2.246-7.419 3.629-7.864 3.048-.98 10.608-8.467 12.709-12.586 2.573-5.044 1.706-7.947-3.766-12.625-4.099-3.504-4.355-4-3.386-6.547 1.488-3.913 1.306-6.694-.702-10.664-.777-1.538-2.306-2.881-3.142-3.738 1.221-.816 2.8-3.108 1.765-5.688 4.202 0 11.36 9.15 14.508 15.805 2.006 4.24 2.88 7.984 3.319 14.21.492 6.981.887 8.45 2.263 8.45 2.038 0 4.38-4.703 6.043-12.138 1.56-6.972.13-16.406-3.718-24.534-3.728-7.873-10.247-14.979-17.745-17.812-4.486-1.696-14.113-2.638-20.212-1.043-3.071.803-3.24.599-6-5.113-2.704-5.596-2.83-6.504-2.83-20.198 0-13.71-.102-14.418-2.278-16.181-4.002-3.242-11.693-3.448-20.142-.54-7.943 2.735-10.473 4.481-12.684 8.757-2.065 3.993-.949 5.889 1.543 10.878 4.673 9.359 6.475 18.998 11.273 31.75-13.04 6.214-18.212 11.783-21.949 22.905-1.987 5.915-3.16 12.525-2.225 18.377l-9.77 4.494c-5.373 2.472-10.67 6.542-16.903 8.244-3.774 1.03-13.667-2.652-19.883-5.617-4.791-2.286-13.555-8.303-13.008-9.188 8.13-2.064 11.607-6.7 15.656-12.752 0 0 9.723 6.182 15.237 6.518 10.941.667 21.755-8.293 25.744-19.27 1.884-5.184 3.105-9.525 3.566-15.724.724-9.736-1.601-13.348-9.326-19.742 3.62-2.418-1.339-4.14 1.648-3.36 2.733.715 2.509-.57-.677-3.896-2.984-3.115-2.525-4.675.922-3.13 2.864 1.285 4.755.645 4.755-1.612 0-2.82-3.154-4.905-8.002-5.29l-4.498-.357 4-1.812c5.942-2.693 7.643-4.478 6.432-6.74-.8-1.496-2.153-1.874-6.7-1.874h-5.696l3.695-2.511c6.604-4.488 2.147-6.982-6.895-3.858-1.01.35.381-1.365 3.092-3.81 3.69-3.328 4.756-4.9 4.238-6.248-.477-1.245-1.383-1.645-2.93-1.293-9.563 2.172-9.127 2.166-8.251.128 2.704-6.29-.505-9.479-5.008-4.976-1.413 1.413-2.773 2.568-3.023 2.568s-.474-1.462-.498-3.25c-.025-1.787-.635-5.5-1.356-8.25-.995-3.793-1.82-5.075-3.42-5.314-1.613-.241-2.255.347-2.728 2.5-1.265 5.75-1.386 5.81-4.534 2.236-1.657-1.881-3.672-4.884-4.478-6.672-1.542-3.417-4.103-4.294-5.082-1.742-.318.83.198 3.144 1.146 5.143 2.269 4.78 3.068 10.877 1.55 11.816-.721.445-3.961-2.122-8.366-6.63-8.115-8.307-13.762-11.42-18.945-10.448-2.596.487-3.775 1.455-5.063 4.156-2.085 4.372-2.892 7.144-.127 9.229 3.58 2.699 1.586 2.776-1.25 3.299-4.614.85-8.29 3.575-9.816 7.04l-4.086-6.214-4.106-2.713c2.731-6.825 4.624-19.856-1.841-26.686-5.324-5.623-6.617-11.95-3.008-21.468 2.242-5.916 1.416-9.689-3.473-15.829-3.468-4.355-3.973-5.643-3.973-10.13 0-4.394.436-5.566 3-8.073 5.733-5.604 4.06-9.422-8.511-19.433-6-4.779-7.208-6.98-5.54-11.862 2.328-6.807 6.036-13.938 5.981-20.037-.065-7.291-.37-8.08-4.908-13.525-2.693-3.23-5.223-4.847-11.217-7.158-5.297-2.043-9.788-3.073-13.635-3.092zm21.893 12.794c3.78 4.1 6.477 10.48 2.913 18.053-3.182 6.762-6.117 16.567-5.565 18.765.486 1.938 5.514 7.016 14.484 14.631 3.866 3.282 4.008 6.568.41 9.438-2.317 1.847-2.747 3.04-3.082 8.537-.383 6.277-.31 6.496 4.166 12.39 5.17 6.808 5.533 9.09 2.611 16.5-1.1 2.791-1.995 6.295-1.99 7.787.013 3.64 4.366 12.114 7.432 14.956 2.007 1.86 3.613 4.994 3.605 9.148-.01 5.71-.31 7.525-1.705 13.27-4.541-1.149-8.52-.162-12.342 2.623-4.938 3.598-5.608 12.576-3.529 17.08.96 2.079.478 2.534-1.26 1.25-4.341-3.21-14.55.07-20.09 6.7l-4.501-3.316c1.507-1.48 6.51-4.406 10.205-5.296 1.557-.376 4.61-2.63 5.93-4.977 2.398-4.268 4.188-12.859 2.3-18.928-1.223-3.93-6.183-8.692-8.182-9.252 10.828-.07 14.524-14.577 13.252-23.468-1.934-13.526-20.03-16.197-22.806-16.186 1.098-3.773 1.906-6.428 1.885-12.188-.037-10.124-1.18-15.537-5.35-21.939-4.14-6.354-19.108-11.088-22.749-.225-8.346-8.54-15.37-7.137-20.444-1.617-3.394 3.662-6.709 16.097-6.467 24.559.134 4.7 2.804 10.83 4.363 13.412 3.308 5.478 7.016 8.192 15.082 9.48 5.067.81 6.287.677 9.012-.988 1.733-1.059 3.406-2.59 3.719-3.404.312-.814 1.144-2.047 1.796-2.047-.805 1.703-3.9 7.354-1.193 7.566.536 0 1.306-1.97 2.137-3.576 2.602-5.031 6.75-6.308 14.48-6.531 5.828-.168 7.684.22 11.862 2.482 11.439 6.195 13.882 12.312 9.544 23.905-2.638 7.053-6.442 9.077-15.359 8.173-3.376-.341-7.578-1.062-9.338-1.6-4.367-1.332-9.299-7.123-9.299-10.92 0-1.797-.627-3.236-1.568-3.597-2.307-.885-3.218.798-2.598 3.297.833 3.353 2.528 7.3 5.301 9.748 4.326 3.82 6.712 5.231 16.115 6.322 2.613.304 7.072 1.523 9.473 3.963 3.38 3.436 5.97 6.94 5.363 13.43-.538 5.768-1.472 6.714-4.658 9.977-2.072 2.122-5.31 4.006-8.775 5.363-4.6 1.8-7.483 3.95-9.283 6.795-2.27 3.588-5.13 9.789-9.551 10.74-.366.079-.305-1.275.152-2.87 1.543-5.378-5.936-13.38-10.25-10.966-1.31.733-2.333.344-4.316-1.639-2.22-2.219-2.52-3.212-2.06-6.796.295-2.31.845-6.787 1.22-9.95.619-5.219.96-6.242 3.09-5.75 9.638 2.23 15.51 1.336 22.754.952 2.391 2.042 8.095 10.742 10.836 8.203.848-.85.095-2.027-2.977-4.657-2.438-2.087-5.4-6.163-7.273-10.01-3.185-6.537-4.248-7.354-6.995-5.378-1.28.92-1.253 1 .19.539 1.25-.4 1.985.354 2.82 2.886.622 1.885 1.46 3.973 1.113 4.534-1.564 2.53-27.778-.667-31.464-3.727.475-5.173 1.393-11.016.199-16.326-.897-3.988-3.038-11.016-5.385-11.016-1.838 0-1.866 1.329-.102 4.8.755 1.484 1.688 5.287 2.073 8.448 1.46 12.003-4.678 23.2-15.44 28.168-4.269 1.971-6.004 3.323-6.004 4.678 0 2.394 4.698-.574 10.694-3.04.194 8.65.518 16.57 1.511 26.077 3.372 3.141 10.809 5.708 17.872 4.356 4.513-.864 9.923-3.207 9.923-4.494 0-.474.457-2.065 1.016-3.536.843-2.218 1.27-2.464 2.5-1.443 3.503 2.907 1.325 8.424-4.95 12.535-1.411.925-2.566 2.08-2.566 2.567 0 2.063 4.613.623 8.68-2.71 3.675-3.01 4.636-3.389 5.92-2.324 6.113 4.416 6.637 19.69-.227 17.899.24-7.377-4.88-13.023-7.492-11.408-1.28.791-1.13 3.056.211 3.056 2.174 0 4.262 3.943 4.293 8.735.04 6.082-1.668 8.438-5.933 10.22-10.834 4.527-27.949-3.616-31.928-15.191-1.307-3.803-1.45-3.893-6.182-3.893-3.638 0-4.842.373-4.842 1.5 0 1.077.913 1.43 3.235 1.248 2.792-.217 3.433.194 4.68 3 2.645 5.96 9.647 12.635 15.585 14.862 10.068 3.775 17.4 5.26 24.147.863 2.96-1.93 4.537-8.13 3.932-9.844 5.58 1.218 7.233-5.328 7.974-8.611.925-.173 1.688-.12 2.893-.686.568 8.305 2.492 16.523 6.185 21.305 5.041 6.527 12.463 15.182 14.87 16.217 1.249.537 1.266.752.107 1.277-2.385 1.214-7.734 4.164-9.147 8.117-.5-.79-1.712-3.965-1.947-4.77-1.135-3.89-8.66-12.478-12.014-11.126-.592.239 1.132 2.146 2.516 3.35 3.026 2.63 6.82 8.798 5.414 8.798-.55 0-2.17-.765-3.598-1.7-3.386-2.22-17.177-2.049-22.4.032-13.274 3.953-22.97 20.665-26.61 26.123-.869-3.723-2.814-16.67-6.956-17.455-1.829 0-1.527.866.752 7.584 3.497 10.311 2.39 18.902-.44 30.344-8.004-7.895-19.011-6.324-29.164-2.664-1.113-4.869-3.298-8.528-6.285-12.152-2.168-2.63-2.317-3.705-1.38-5 1.407-1.95 5.21-11.27 5.85-17.334.649-6.146.578-12.491-2.134-18.416-2.317-5.061-3.796-6.415-4.955-4.54-.557.9 4.15 2.684 4.15 16.499 0 8.175-1.494 16.352-6.392 23.68-.22 0-2.752-1.717-5.965-3.141-4.196-1.86-8.328-4.068-13.121-2.7-3.592 1.026-8.954 6.363-7.77 10.59-10.49 4.004-11.404 8.015-12.9 12.15-4.492 1.573-8.592 6.81-8.612 10.876-.021 4.544.997 6.001 3.377 7.095 5.746 2.641 8.984-3.04 18.309-4.966 5.43-1.122 6.408-1.073 8.715.44 2.066 1.353 3.272 4.163 2.758 6.476-.884 3.97-1.801 7.618-1.961 12.047-.395 10.923 1.282 12.508 6.103 14.783 2.526 1.192 6.317-.235 8.012-2.455 3.18-4.166 3.358-5.955.486-15.717-1.25-4.247-1.612-9.176 1.27-10.014 3.22-.936 12.409-.485 18.324 1.08 6.066 1.605 14.255 5.883 16.88 8.328 4.704 4.38 4.463 4.26 2.94 6.537-6.363 9.521-9.15 19.514-11.13 30.59-.436 2.438-.816 2.285-2.747-2-4.008-8.894-15.995-16.734-24.345-15.927-6.968.673-10.55 3.522-10.55 6.95 0 3.407 10.568 12.977 15.888 12.977 2.597 0 6.595 4.065 7.609 7.739.554 2.006.753 2.996.65 4.005-1.009-.245-2.601-.847-5.828-1.916-8.71-2.885-15.224-2.025-21.853 1.012-4.266 1.954-7.81 5.916-9.676 10.22-2.13 4.916-1.687 12.658-.961 16.042-9.642-3.057-19.218-6.154-27.275-12.207.958-7.505 1.072-15.792 1.154-20.674 6.201-4.28 16.256-7.511 22.156-21.566 2.18-5.194 4.773-11.612 6.43-17.65.934-3.407 1.604-7.005.386-7.005-1.408 0-2.682 2.185-4.044 6.942-.7 2.442-3.029 12.937-6.666 18.322-4.88 7.224-9.903 12.839-19.461 17.47-6.505 3.153-15.282 7.639-22.946 5.778-10.486-2.546-17.278-13.125-21.22-22.143 2.207.13 7.04-1.151 10.556-2.037 2.347 7.476 11.963 5.576 17.137 2.961 3.571-1.805 4.543-6.006 5.37-10.736.721-4.135 2.097-12.07 2.59-22.693.496-10.662 1.737-11.57 5.063-13.407 2.2-1.214 5.894-4.626 8.21-7.582 3.512-4.485 3.905-6.144 4.25-9.93.675-7.424-9.842-14.517-17.626-13.67 5.5-3.91 10.62-.764 14.434.813 4.243 1.754 8.838 3.441 11.924 6.895 2.133 2.388 3.505 3.155 4.77 2.67 1.57-.603 2.268-1.784 1.31-9.916-2.726-23.132-8.82-27.572-23.43-26.127.02-.833.276-2.02.645-3.565 1.38-5.78 6.895-13.88 11.746-13.748 2.205.06 3.4-2.247 3.176-2.797-.226-.55-.634-.946-.909-.879-6.682 1.628-5.974 1.825-5.56-2.16.615-5.932 3.89-11.208 9.103-15.394 4.964-3.986 13.733-7.79 28.455-3.846 13.542 3.628 21.985 13.735 22.038 15.244.056 1.637 4.802 7.03 5.539 6.293 1.746-1.746-1.407-6.875-8.563-13.926-7.054-6.95-8.553-7.938-15.017-9.902-5.56-1.688-8.833-2.074-14.493-1.71-9 .577-10.502-.152-10.502-5.095 0-2.777.686-4.418 2.598-6.2 1.877-1.752 6.11-5.232 4.37-9.104 6.088-2.451 5.681-9.484 2.706-14.26 1.938 1.383 4.849.769 5.998.174-.47 1.874-1.12 3.185-1.12 4.351 0 4.119 1.412 2.378 3.85-2.658 1.467-3.026 1.992-6.776 2.294-16.34.385-12.204.446-12.481 3.597-16.463 2.656-3.354 3.57-7.61 3.51-11.672-.076-5.124-4.188-9.504-4.865-14.584-.39-2.92-.287-5.987.504-8.826.636-2.282 1.953-4.35 3.322-6.283 3.602-5.088 11.097-9.865 12.69-13.738 1.2-2.92 1.591-6.727 1.47-14.309-.158-9.9-.025-10.604 3.205-16.982 3.91-7.72 8.405-12.589 13.655-14.793 3.172-1.332 4.919-1.39 11.953-.397 16.62 2.346 19.991 7.515 5.134 7.873-8.92.215-11.824 1.281-16.287 5.975-3.604 3.791-4.913 12.764-2.191 15.023 2.527 2.098 1.392 11.1-1.299 12.088-1.227.45-11.246 5.53-14.704 10.447-2.627 3.736-3.756 9.371-3.69 13.194.083 4.683.39 9.774 2.205 13.877 3.377 7.634 2.863 10.114-3.487 16.887-3.045 3.247-6.418 7.634-7.496 9.748-1.975 3.87-3.3 6.538-1.543 28.68.38 4.775-.2 5.618-3.023 8.14-1.729 1.545-3.979 3.28-5 3.855-1.326.748-1.55 1.358-.783 2.133.77.78 1.592.515 2.906-.937 1.007-1.113 2.384-2.024 3.06-2.024.677 0 2.06-1.237 3.075-2.75 1.929-2.875 2.263-11.93.83-22.48-1.025-7.54 1.813-14.95 8.1-21.152 8.47-8.36 9.08-11.064 4.956-22.022-2.952-7.842-3.028-14.175-.335-20.431 2.352-5.462 4.273-6.536 13.16-12.046 5.145-3.19 4.94-3.762 6.105-8.312 1.421-5.552-3.135-8.282-2.689-12.48 1.3-12.233 13.173-13.357 18.89-13.81 10.018-.79 12.352.181 7.65 3.153-4.66 2.947-11.551 9.245-13.349 12.201-.935 1.538-2.01 4.334-2.387 6.213-.377 1.88-.68 6.676-1.425 9.15-.746 2.476-3.874 7.104-3.143 11.766.697 4.45 1.358 7.257-1.168 8.5 0 0-3.3 1.391-4.795 2.36-2.192 1.42-4.684 2.763-6.033 5-2.165 3.588-2.948 8.13-2.585 12.305.401 4.607 2.9 11.007 5.155 12.878 1.979 1.643 1.852 2.23-1.203 5.526-4.159 4.487-6.375 10.69-7.209 20.177-.568 6.458-.405 9.997.62 13.497 1.294 4.423 1.023 4.792-.686 7.654-2.141 3.584-4.523 6.998-6.98 9.453-5.66 5.652-7.032 10.254-4.38 14.744 1.37 2.318 1.422 3.038.32 4.365-1.771 2.135-.682 3.046 1.288 1.076 1.52-1.52 1.527-3.435.029-7.865-1.23-3.636-.333-5.97 4.129-10.746 2.351-2.517 3.88-4.81 5.611-7.365 1.339-1.975 3.313-3.78 3.682-6.137.39-2.5-1.587-4.864-1.733-7.39-.44-7.622-.549-15.809 2.622-22.754 1.553-3.405 5.37-8.278 7.584-8.278 3.109 0 2.875-2.041-.715-6.236-1.982-2.316-3.774-4.374-4.856-6.999-.905-2.195-1.282-4.127-1.244-7.015.094-7.055 3.156-12.2 8.545-14.357 6.496-2.6 9.843-8.718 6.563-11.998-1.043-1.043-.712-3.459-.071-5.038 1.148-2.83 3.146-8.315 4.061-13.373 1.974-10.904 10.747-18.984 16.48-18.984.621 0 .778.55.358 1.25-.478.795-.112.73 1.002-.173 2.06-1.673 9.804-2.108 10.867-.612.414.583.743.162.754-.965.01-1.1.918-3.478 2.02-5.283 1.682-2.76 2.305-3.119 3.921-2.254 2.073 1.11 7.714 8.974 9.154 12.762.487 1.28 1.68 2.624 2.65 2.988.972.365 2.343 1.366 3.048 2.225.891 1.086.83.422-.2-2.186-1.55-3.924-9.505-15.612-12.084-17.752-2.2-1.826-1.857-3.283 1.54-6.537 2.793-2.676 3.613-2.904 10.164-2.842 6.882.067 7.238.193 10.46 3.71 3.964 4.324 4.1 5.605.979 9.343-3.389 4.06-5.64 8.814-5.64 11.908 0 2.584 1.87 4.702 12.353 13.977 3.222 2.85 3.239 5.4.088 13.473-2.376 6.086-1.446 9.121 4.603 15.013 2.725 2.654 4.955 5.123 4.955 5.489 0 .365-.71 2.16-1.578 3.988-1.335 2.813-1.373 3.68-.25 5.65 1.324 2.323 1.328 2.32 1.635-.847.17-1.747.957-3.715 1.75-4.373 2.863-2.376 1.632-5.813-4.057-11.323-6.249-6.053-7.05-9.575-3.498-15.402 1.098-1.8 1.998-4.404 1.998-5.783 0-3.77-2.687-9.444-4.472-9.444-.866 0-3.634-1.899-6.153-4.22-4.204-3.876-4.539-4.531-4.076-7.985.288-2.145 1.9-5.523 3.752-7.861 3.877-4.895 4.127-9.043.762-12.647-3.806-4.075-12.858-6.794-19.417-5.36-6.129 1.34-14.396 12.124-14.396 12.124v-3.865c0-6.651 6.875-18.335 13.19-22.414 2.135-1.38 7.396-2.93 11.183-2.457 6.915.864 13.861 4.132 18.69 9.37zm-84.897-3.68c5.896.277 11.15 4 16.069 7.44 3.334 2.331 7.234 5.37 9.642 7.484 5.453 4.788 4.797 6.698-1.365 3.973-6.341-2.805-16.938-5.666-24.683-2.743-6.919 2.612-11.674 9.223-14.932 16.409-2.61 5.754-2.897 7.434-2.897 16.949 0 12.878-1.062 15.36-10.367 24.226-4.813 4.586-6.386 6.261-7.662 10.364-1.253 4.028-.37 8.505.426 12.648.782 4.074 4.098 7.562 4.219 11.71.088 3.052-.74 5.635-2.6 8.784-1.218 2.063-3.002 3.042-3.42 6.475 1.015-5.974-6.115-11.788-9.033-15.39.163-2.397-.24-3.926-1.361-5.589-2.271-3.364-2.202-5.22-2.202-12.578 0-5.663.526-9.475 1.63-11.8 2.171-4.577 8.268-9.587 10.884-8.944 2.925.719 6.745-1.534 7.5-4.424.863-3.303-.548-17.457-2.117-21.246-1.033-2.494-.935-4.214.59-10.338 1.006-4.04 2.771-8.892 3.922-10.78 5.303-8.71 7.636-13.29 13.665-17.647 4.038-2.919 9.116-5.216 14.092-4.983zM209.54 66.34c-1.638 2.28-2.79 3.256-2.841 5.678-.021.995 1.195 2.14 2.964.37.765-.764 1.304-2.338 3.44-5.51 3.02-4.49 4.743-5.3 6.972-3.282.926.838 1.986 1.523 2.356 1.523 1.072 0 .774-8.817-.941-9.224-1.716-.408-8.236 5.275-11.95 10.445zm21.941-.32c1.21 1.003 1.684.85 2.586-.836.608-1.136 1.685-2.065 2.395-2.065 1.511 0 5.07 3.733 5.959 6.25.757 2.146 1.86 2.072 3.681.25.475-.474.506-.898-.134-1.5-.553-.519-1.651-1.929-2.602-2.763-3.296-2.893-7.993-7.785-10.67-7.698-2.676.087-3.16 6.748-1.215 8.362zm-14.976 9.409c5.752 1.561 11.783 9.858 11.783 13.45-7.664.346-18.123 1.655-25.906 6.002.565-5.748 1.61-12.548 5.801-16.683 2.081-2.053 5.5-3.535 8.322-2.77zm25.287.731c3.15 1.378 6.892 6.158 9.119 14.475-3.753-2.354-11.334-3.622-19.063-2.404-.665-.263-1.053-1.55-1.623-3.184-1.568-4.5-1.9-5.25.706-8.273 2.606-3.024 7.71-1.992 10.86-.614zm-3.555 14.256c2.194.073 4.529.464 6.276 1.028l7.09 2.289c.462 4.462 1.328 14.885-2.126 18.367-5.423-.975-10.914.911-15.287 4.37l.092-12.741c.642 1.807 2.176 2.99 3.879 2.99 2.314 0 4.19-2.15 4.19-4.8 0-2.652-1.876-4.802-4.19-4.802-1.784 0-3.372 1.296-3.957 3.227-.296-5.155-1.03-7.645-1.402-9.057 1.186-.701 3.24-.944 5.435-.87zm-8.615 1.819c1.61 7.88 3.926 23.364-4.318 27.904-6.666 3.67-17.813-2.976-20.278-9.424-2.121-5.55-3.327-9.978-1.982-12.49 1.578-1.883 3.436-1.807 5.162-2.66 7.437-2.33 13.483-3.412 21.416-3.33zm-10.367 6.382c-2.644.016-4.746 2.448-4.746 5.44 0 3.012 2.13 5.454 4.76 5.455 2.63 0 4.761-2.442 4.761-5.455s-2.132-5.455-4.775-5.44zm21.832 24.102c-1.883-.002-2.47.515-3.201 1.418-.976 1.205-1.526 2.593-1.221 3.086.628 1.016 6.464 1.206 8.855.289 3.099-1.19 1.808-4.126-2.066-4.611-.968-.122-1.74-.181-2.367-.182zm-109.31 4.873c1.13.04 2.835.034 4.784 1.855 3.251 3.038 3.3 3.426 2.35 5.2-1.896 3.542-.635 7.802 2.441 9.27 2.391 1.14 3.773.06 4.202 2.029.663 3.049.016 12-.6 14.353-1.517-2.502-5.01-9.149-6.746-11.47-3.596-4.812-8.852-11.17-12.158-12.897.153-2.65 2.785-8.443 5.726-8.34zm9.788 7.953c.227-.033.558.176 1.037.574.825.685 2.102 3.046 2.102 4.078 0 1.033-.675 1.877-1.5 1.877-1.013 0-2.385-1.828-2.385-3.937 0-1.664.37-2.536.746-2.592zm-16.39 3.777c.844.134 1.016.58 1.814 1.811.887 1.367 3.34 4.195 5.451 6.283 2.66 2.632 3.637 4.32 3.18 5.5-1.92 4.96-1.708 6.849.959 8.596 2.112 1.384 3.177 1.424 4.514.732.801-.415 1.159-1.233 1.283-1.017 2.042 3.549 2.507 4.778 2 5.285-1.68 1.679-7.276.897-10.326-.715-4.487-2.37-6.73-6.88-9.426-11.955-1.088-2.048-2.524-3.723-3.192-3.723-.667 0-1.48-.43-1.804-.957-.814-1.316 1.771-7.218 3.955-9.029.608-.504 1.003-.904 1.592-.81zm154.765 2.797c-1.2.188-1.03 3.488.346 6.506.973 2.137.884 3.108-.5 5.451-.926 1.569-1.684 4.02-1.684 5.448 0 1.717.543 2.595 1.606 2.595.902 0 1.39-.567 1.111-1.293-.272-.71.165-2.119.893-3.19 3.118-4.586 1.36-16.005-1.772-15.517zm-159.695 11.243c.522.01.994.375 1.523 1.316 1.492 2.652 2.775 5.466 4.39 7.51 2.347 2.972 2.832 4.27 2.095 5.648-.527.984-1.514 3.362-1.705 5.285-.317 3.196.298 3.526 2.888 3.823 4.06.464 6.348-.543 4.784-2.108-.67-.67-2.47-.566-3.084-.566-1.544 0-1.554-2.648-.059-4.143 1.856-1.856 5.957.248 5.957 7.352 0 3.351-4.287 4.636-8.666 4.636-3.672 0-8.215-4.924-9.611-10.43-1.306-5.145-3.655-7.405-3.655-3.515 0 4.82 2.457 10.13 6.291 13.594 3.528 3.187 4.37 3.504 7.83 2.951 4.983-.797 5.231 1.28.655 5.461-1.773 1.619-3.594 3.142-3.926 2.943-5.226-3.122-6.745-9.067-11.6-13.785-2.866-2.785-3.25-4.455-3.25-8.21 0-2.607.922-6.243 2-8.505 1.428-2.994 2.098-6.311 4.666-8.017 1.27-.843 1.955-1.25 2.477-1.24zm18.21 1.248c.272.021.625.428 1.233 1.23.743.979 1.364 2.117 1.381 2.53.045 1.063-2.736.932-3.412-.16-.31-.501-.283-1.64.059-2.53.28-.73.47-1.092.74-1.07zm183.524 1.054c6.266.212 9.695 5.125 17.9 13.33 8.504 8.503 10.489 9.995 14.126 10.61 2.327.393 4.47.474 4.763.181 1.032-1.03-.81-2.666-3.003-2.666-1.22 0-3.217-.7-4.438-1.554-2.085-1.461-2.13-1.731-.723-4.452.824-1.592 1.514-3.93 1.534-5.195l.035-2.299 1.43 2.5c.785 1.375 1.443 3.711 1.462 5.192.075 5.695 4.936 3.669 5.115-2.133.044-1.407.122-5.712 1.229-7.393 1.153 1.108 1.557 5.068 1.64 7.485.027.749-.131 3.487-.066 6.1.098 3.937.44 4.75 1.996 4.75 1.033 0 2.447-.686 3.143-1.524 2.212-2.665 2.3-.699.094 2.105-1.163 1.478-2.114 3.302-2.114 4.053 0 1.886 2.466 1.714 4.127-.289 1.187-1.43 6.78-4.346 8.34-4.346 1.686 0 .13 1.884-1.998 2.418-2.274.57-6.457 5.724-6.467 7.965-.002.485 1.812.638 4.032.34l4.035-.541-3.569 3.95c-4.08 4.515-3.837 6.61.506 4.364 1.592-.823 5.054-1.49 7.694-1.486l4.8.01-5.312 3.045c-5.63 3.229-6.68 6.15-2.428 6.756 2.895.413 2.895 1.946 0 2.36-1.246.177-2.4 1.16-2.601 2.216-.316 1.652.09 1.825 3.138 1.33 2.788-.452 3.93-.114 5.602 1.666 1.898 2.02 2.854 3.562 1.566 5.608-6.672-3.297-12.832-2.444-18.455.05-3.994 1.772-8.822 8.81-8.822 9.694 0 2.883 4.854-7.084 12.627-8.485 6.191-1.116 9.347-.707 12.281.79 11.545 5.89 11.528 15.352 7.008 32.22-2.073 7.737-10.402 16.697-18.805 18.022-5.305.836-11.734-.834-15.389-4.77-5.905-6.361-7.238-23.251-5.845-25.377.918-1.402 1.935-3.315 1.935-3.61 0-1.089-3.909-.491-4.652.712-1.246 2.015-.49 14.48 1.111 18.31 1.906 4.56 1.043 8.914-2.718 13.723-3.769 4.818-7.486 6.72-13.133 6.72-5.033 0-6.026.224-3.547 2.635 1.49 1.45 5.532 5.436 8.707 7.631 5.072 3.507 10.554 6.53 16.32 8.713 4.89 1.852 11.59 3.76 15.262 3.633 4.337-.151 12.948-6.123 22.783-10.238 4.01-1.678 4.619-2.319 5.236 1.543.332 2.07 1.742 5.441 3.133 7.492 2.89 4.26 2.664 5.177-1.508 6.094-1.64.36-6.232 3.184-8.533 5.267-7.452 6.747-15.473 11.316-24.556 13.483-7.1 1.693-14.905 2.794-21.881-.74-3.021-1.532-7.14-3.4-10.803-1.669-5.288-7.504-10.706-12.33-17.8-18.58-4.436-3.907-11.572-6.244-15.956-5.256a9.505 9.505 0 00-5.53 15.237c4.248 5.38 6.118 7.156 7.808 8.256 3.832 2.496 8.42 9.34 8.04 11.996-.168 1.182-1.833 2.724-4.083 3.78-3.474 1.633-4.38 1.665-10.579.382-9.935-2.056-16.271-6.789-21.945-13.156-4.356-4.89-10.688-10.992-14.926-10.862-7.055.217-7.884 8.364-7.197 13.803-3.86.933-4.763 8.694-3.744 11.492-6.974 2.523-6.867 14.26-6.108 18.39-4.757.625-3.015 8.065-.74 14.153.053 1.328-7.985.897-11.75-.185-5.31-1.528-9.496-5.649-14.177-8.582-2.528-1.585-4.962-3.272-7.51-4.87.472-.384 1.54-.844 2.642-1.267 3.25-1.247-.065-2.499-4.168-1.574-4.805 1.082-10.927 7.558-12.523 13.248-1.331 4.744-1.42 9.835 2.453 18.248 1.504 3.267 1.084 10.107-1.603 13.931-2.404 3.42-7.054 5.694-11.237 5.573-6-.175-16.756 6.376-17.588 13.69-.716 6.298-4.672 17.375-11.142 16.25-5.1-.889-4.705-10.155-3.936-15.022.795-5.033 1.372-5.903 8.11-12.215 3.99-3.738 8.765-7.428 10.61-8.2 3.578-1.494 4.329-3.194 1.833-4.152-1.958-.751-7.524 3.23-16.21 10.787-4.695 4.086-11.57 11.447-15.784 6.635-5.22-5.96 6.232-15.985 10.724-17.717 2.729-1.052 5.066-3.056 8.282-3.056 1.918 0 1.986-2.605.086-3.334-.785-.302-3.823.313-6.75 1.365-3.89 1.397-6.85 3.5-10.957 7.842-3.095 3.27-8.218 8.458-9.668 7.62-1.104-.636-2.002-11.5.931-15.943 4.16-6.302 8.173-10.515 20.278-10.101 6.37.217 14.44 3.883 16.056 4.88 2.313 1.428 3.537 2.157 3.537 1.126-.402-11.905-7.188-21.011-11.955-20.455-3.942.46-14.265-7.415-14.045-10.66.107-1.568 3.16-3.34 5.969-3.34 1.765 0 1.935.308 1.068 1.927-1.552 2.9-.3 4.8 3.647 5.541 2.847.535 4.002.234 5.871-1.521l2.326-2.186s4.726 3.113 6.43 5.309c3.695 4.762 7.69 14.272 7.69 16.365 0 1.52 2.962 2.315 3.034.815.387-8.06 3.362-21.28 6.471-28.75 4.758-11.434 5.067-11.803 9.18-11.032 2.899.544 3.064.455 3.383-.648 1.1-3.812-4.163-1.068-8.702-8.12-3.23-5.02-12.9-9.377-20.453-11.241-7.55-1.864-20.802-2.448-23.326.435-2.005 2.291-1.443 8.256.863 15.59 1.757 5.586 1.194 7.325-1.04 9.676-1.189 1.25-3.745 1.866-5.11.812-4.898-3.781-3.783-9.2-1.818-18.472.815-3.85 1.91-6.803.664-9.848-1.027-2.508-3.457-4.711-6.078-5.399-6.524-1.71-15.858 1.723-19.772 4.288-7.362 4.823-9.78-4.214-2.512-9.39 2.566-1.826 7.872-2.536 11.928-2.43 4.266.11 9.817 1.633 12.395 3.204 6.819 4.158 8.185 2.214 1.584-2.328-3.757-2.584-7.447-3.294-11.43-3.761-3.417-.402-7.589-.404-10.285.867 1.3-4.376 6.998-7.633 10.113-8.205 5.777-1.062 10.866.944 16.742 6.601 3.94 3.792 5.627 4.842 6.455 4.014 2.542-2.541-12.254-14.113-18.045-14.113-5.207 0-2.114-6.6 3.153-7.707 5.417-1.14 11.446 1.547 15.84 4.9 4.94 3.769 10.173 12.688 10.015 15.72-.148 2.842.677 4.251 1.992 3.407 2.503-1.606 8.226-4.54 19.624-3.649 5.981.469 14.715 8.881 15.884 9.325 1.401.53 2.36-.83-.152-2.914-1.041-.865-2.427-14.288 6.467-26.682 12.36-17.227 18.823-20.966 31.718-22.877 7.457-1.105 17.35 3.758 21.39 7.342 2.934 2.603 3.827 1.597 3.827-.873 0-2.078 5.782-6.992 8.227-6.992 1.83 0 5.09-3.186 2.76-5.239-4.197-3.696-10.398-7.406-13.836-12.61-5.01-7.58-8.648-9.565-9.045-25.716-.236-9.587.324-10.286 1.77-13.734 2.17-5.182 11.582-14.238 18.622-13.125 3.518.556 5.364 1.172 6.635 2.572-8.47 1.48-8.5 9.1-7.982 15.363-4.25-2.136-8.03 4.336-9.627 9.717-1.657 5.579-2.06 14.772-.647 14.772 1.705 0 2.34-2.775 2.32-5.559-.018-2.623.636-5.095.803-7.71l2.088 2.653c1.149 1.46 3.29 3.279 4.762 4.04 3.39 1.752 12.15 3.113 12.15 1.888 0-1.776-2.436-3.312-5.25-3.312-3.846 0-8.25-2.194-9.634-5.284-2.423-5.407-.03-9.325 4.994-7.175 2.567 1.099 6.265 1.9 10.39 4.42 3.602 2.2 10.57 5.395 13.647 8.267-.636 1.188-2.317 9.7-2.262 14.635.054 4.777.68 9.697 2.506 14.111 1.284 3.105 4.362 9.671 5.764 8.27.767-.768.354-2.031-1.442-4.41-4.797-6.356-5.228-17.547-3.16-26.043 1.602-6.582 6.15-13.187 11.447-16.791 3.511-2.39 12.398-2.516 14.686-2.465 3.033 1.623 11.392 1.672 15.314-.287 4.01-2.004 7.81-8.88 8-13.782.65-16.698-14.686-20.806-18.88-19.816-.672-3.708-5.413-7.186-9.77-6.975 1.137-1.607.439-4.136-1.09-5.129-3.871-2.512-.297-8.815 2.324-8.98a13.36 13.36 0 011.293-.021zm-34.222 13.604c.2-.01.4-.008.601.002 9.081.436 13.992 9.002 12.785 10.209-.572.572-1.04 2.261-1.04 3.754 0 2.6-.126 2.665-3 1.58-3.12-1.178-4.244-4.694-1.5-4.694.824 0 1.5-.585 1.5-1.3 0-4.249-7.805-5.176-10.387-1.235-.889 1.356-1.616 3.156-1.616 4 0 2.009 2.614 1.986 3.387-.03.33-.859 1.054-1.28 1.608-.939 2.757 4.879-.818 7.494-.952 10.319-1.374-1.165-3.071-.928-4.66-.361-1.186-.395-1.66-1.54-1.806-2.577.304-.493-.374-2.077-1.51-3.521-4.76-6.052.408-14.939 6.59-15.207zm-81.776.101c.426.011.835.267 1.182.815.5.79.916 3.123.924 5.185.008 2.063-.322 3.689-.735 3.614-4.794-.87-4.842-.918-4.44-4.371.363-3.105 1.792-5.276 3.07-5.243zm111.19 2.891c4.844-.076 8.53 3.426 9.363 5.598-3.3 2.088-5.485 4.249-6.957 6.474-.113-1.786-1.38-3.168-2.906-3.168-1.61 0-2.914 1.532-2.914 3.422 0 1.89 1.304 3.422 2.914 3.422.413 0 .822-.104 1.199-.305-1.175 3.213-1.285 6.552-1.328 10.012-3.662-1.448-10.826-6.341-11.998-9.777-.352-1.11-.346-3.975.014-6.37.92-6.143 6.709-8.677 11.628-9.244.333-.038.662-.059.985-.064zm-77.031 1.256c-.862.049-2.035.267-3.739.633-4.95 1.061-8.298 3.305-6.947 4.656.351.35 1.765.125 3.143-.502 2.16-.985 2.505-.896 2.505.639 0 .978.54 2.318 1.2 2.978 1.848 1.849 3.462 1.444 5.726-1.435 2.43-3.089 2.48-3.43.809-5.715-.695-.95-1.262-1.336-2.697-1.254zm-.538 2.603c.825 0 1.5.424 1.5.942 0 1.26-1.562 2.164-2.36 1.365-1.127-1.126-.686-2.307.86-2.307zm91.524 4.336c4.609-.099 9.393 2.997 11.726 7.625 2.732 5.418 2.158 14.6-2.716 18.467-4.464 3.54-12.68 2.926-17.034-1.428-4.448-4.448-4.1-10.397-2.474-15.302 1.4-4.224 5.158-8.783 9.578-9.297.305-.036.613-.059.92-.065zm-125.297 2.143c3.592-.265 4.273 5.076 4.273 9.926 0 5.426 2.197 6.337 3.85 1.595.575-1.65 1.45-3 1.943-3 1.595 0 4.166 3.55 4.774 6.59.514 2.57.287 2.987-1.737 3.153-1.281.105-6.47.681-9.343-.168-4.37-1.293-5.719-1.314-5.862-10.18-.1-6.272-.62-7.715 2.102-7.916zm90.045 5.105a1.36 1.36 0 01.84.223c1.452.963 4.455 7.274 3.894 8.182-.253.41.476 1.59 1.62 2.625 4.673 4.23 6.276 10.985 3.206 13.513-.916.755-2.829 2.97-4.25 4.92l-2.582 3.547-4.714-3.568c-2.593-1.963-7.7-4.684-11.346-6.047-3.647-1.363-6.883-2.886-7.192-3.385-3.723-13.267 5.075-16.148 14.752-14.092.427.488 1.405-.439 1.897-1.732.922-2.426 2.566-4.117 3.875-4.186zm35.767 3.735c-2.006.042-3.614 1.964-3.615 4.32 0 2.387 1.649 4.323 3.682 4.322 2.033 0 3.682-1.935 3.682-4.322-.001-2.387-1.65-4.32-3.682-4.32zm-28.074.6c3.353 5.266 10.385 6.418 13.35 9.558.547 2.287 2.353 4.42 4.685 6.094l-5.793-.035c-5.339-.033-5.84-.231-6.392-2.536-.33-1.375-1.414-4.129-2.41-6.119zm-54.379.533c1.835.662 3.278 2.144 4.92 3.474-6.767 7.682-4.49 15.372-5.256 17.55l-2.826.554c-.6-5.836-3.571-9.29-4.816-11.266 3.3-2.497 4.953-7.925 7.978-10.312zm183.375.476c3.687.015 6.61 1.511 7.184 3.795.679 2.705-3.515 5.159-4.54 3.197-.764-.293-1.263.819-2.552 2.03-1.503 1.411-2.582 1.814-3.008 1.125-1.098-1.778-3.696-1.212-4.256.925-.575 2.203-2.293 2.596-3.976.912-.783-.782-1.276-.782-1.76 0-.755 1.223-4.099 1.323-6.94.207-1.74-.683-1.706-2.202 1.223-5.539 4.03-4.588 12.48-6.676 18.625-6.652zm-237.261.072c-4.118 0-5.614 5.536-2.643 9.778.856 1.222 2.206 2.222 3 2.222 1.638 0 1.962-2.561.443-3.5-.55-.34-1-1.69-1-3s.45-2.66 1-3c1.623-1.003 1.144-2.5-.8-2.5zm29.3 0c.825 0 1.5.874 1.5 1.942 0 2.515-1.615 3.506-2.396 1.47-.958-2.496-.717-3.412.896-3.412zm-133.271 1.159c1.974-.001 3.706 2.786 6.414 4.373 4.58 2.683 6.357 4.748 6.357 9.392 0 3.807-4.257 1.512-9.336-3.851-4.684-4.948-5.41-9.913-3.435-9.914zm-4.83.841c.33 0 .601 1.302.601 2.893 0 3.472 7.456 12.267 12.664 14.94l3.4 1.744-3.782 5.523c-7.758 11.326-11.837 19.054-12.733 36.271-1.768 2.685-5.174 7.584-6.746 10.245-3.436-14.931-8.01-15.805-18.99-19.532-1.334-1.137 2.32-17.672 5.299-23.978 5.024-10.635 17.635-28.106 20.287-28.106zm339.601 2c-1.11 0-2 .667-2 1.5 0 .834.89 1.5 2 1.5 1.112 0 2-.666 2-1.5 0-.833-.888-1.5-2-1.5zm-139.787.692c-.866.035-2.04.523-3.463 1.52-3.1 2.17-3.588 5.22-1.06 6.634 2.272 1.272 3.81.545 5.174-2.447 1.674-3.676 1.255-5.785-.65-5.707zm153.666 5.607c.986.07.522 2.409.317 6.662-.736 15.222 3.266 20.564 6.623 25.649-4.443 1.965-9.38 5.95-11.707 12.283-1.78-4.981-6.745-4.242-9-5.12-4.418-12.218-6.18-20.115-9.633-29.43-.727-1.962-2.248-3.905-1.203-4.772.92-.763 1.266 2.408 3.547 1.654 1.557-.515 1.45-3.194 1.98-2.47 1.004 1.369 3.176 2.129 4.432 1.743 2.314-.71 2.845-4.39 5.092-2.22 2.115 2.043 4.405-2.095 5.199-3.578.59-1.102 1.267 1.378 2.822.3.714-.494 1.203-.724 1.531-.7zm-140.5.365a3 3 0 00-1.449.373c-2.166 1.16-2.446 3.133-.863 6.09 1.566 2.927 5.347 2.102 5.736-1.252.335-2.888-1.378-5.192-3.424-5.21zm136.205 8.225c-.113-.08-.277 1.208-.543 3.611-.771 6.974-.365 14.521.971 18.036.515 1.355 1.4 2.464 1.963 2.464 1.363 0 1.246-.99-.475-4-.933-1.633-1.494-5.966-1.613-12.5-.094-5.149-.157-7.51-.303-7.611zm-13.949 2.748c-.193-.04-.32.18-.412.611-.203.962 1.437 4.156 2.041 6.27.871 3.047 1.893 5.52 2.28 9.232.386 3.713.898 7.088 1.138 7.5 2 3.44 1.316-9.748-.77-14.838-2.53-6.178-3.698-8.652-4.277-8.775zm-340.52.854c-1.005-.14-5.21 7.222-7.515 11.027-1.18 1.947-2.35 3.919-3.223 6.021-.797 1.92-.957 3.91-1.816 5.967-.86 2.057-1.56 4.808-1.56 6.115 0 1.308.45 2.38 1 2.38s1-1.117 1-2.481c0-3.033 2.77-8.662 4.486-12.87.892-2.189 1.996-4.287 3.013-6.421 1.546-3.242 5.408-8.987 4.698-9.697a.14.14 0 00-.082-.041zm10.585.91c-1.264-.017-4.387 6.69-6.647 9.99-2.79 4.073-4.098 8.74-4.621 16.889-.202 3.14-1.1 9.014-1.572 9.306-.473.293-.86 1.18-.86 1.973 0 .793.34 1.441.756 1.441 1.5 0 2.586-8.93 3.703-13.441.849-3.427.459-6.098 2.278-10.346s4.45-10.4 6.199-12.148c1.175-1.176 1.856-2.594 1.512-3.15-.209-.338-.457-.51-.748-.514zm283.318 18.1c-4.928 0-9.107 2.106-11.406 5.751-1.816 2.88.184 3.098 3.422.373 1.715-1.443 4.21-2.625 5.543-2.625 2.188 0 2.423.417 2.423 4.301 0 2.365-.5 4.8-1.113 5.412-.612.612-.81 1.602-.441 2.2 1.65 2.67 3.954-.407 5.017-6.702.392-2.316 1.096-4.21 1.567-4.21 1.43 0 3.97 4.3 3.97 6.722 0 2.38 2.522 3.209 3.237 1.064.838-2.515-.546-5.693-3.89-8.935-2.963-2.87-4.157-3.352-8.329-3.352zm87.102.644c4.895-.001 9.831 1.11 13.673 3.318 10.805 6.21 18.175 20.13 17.512 33.893-2.68-12.8-8.637-24.428-19.414-30.158-9.694-5.155-18.426-4.819-28.049-1.498 3.755-3.713 9.983-5.553 16.278-5.555zm-264.055.672c-1.215.014-2.27.192-2.86.556-1.948 1.205-.378 2.627 2.9 2.627 3.33 0 7.555 3.803 8.526 7.672.644 2.566 1.415 2.88 3.051 1.244 1.317-1.316-2.895-9.423-5.666-10.906-1.464-.783-3.926-1.217-5.951-1.193zm32.75 3.613c-1.3-.004-2.456.58-4.664 1.975-4.68 2.953-5.368 3.865-4.547 6.006.924 2.408 2.173 1.922 3.963-1.54 1.556-3.01 1.803-3.106 6.525-2.546 5.95.704 6.934-1.502 1.475-3.303-1.142-.377-1.973-.59-2.752-.592zm225.742 1.955c2.853.02 5.493.37 7.424.77 9.02 1.87 13.16 5.454 19 12.756 1.654 2.068 6.479 11.876 6.598 16.013-3.942-9.222-11.345-20.373-20.665-24.068-15.446-6.124-19.053-2.806-28.974 2.144 3.038-6.11 10.341-7.66 16.617-7.615zm-1.805 4.752c2.996-.078 7.246.98 8.754 2.053 2.604 1.851 3.129 2.947 1.756 5.601-1.47 2.844-7.174 4.713-11.133 6.293-3.713 1.483-9.983 2.908-11.636 2.91-2.629.006-2.957-.56-4.239-3.94-2.437-6.43 1.27-7.441 7.164-10.204 2.71-1.27 6.095-2.628 9.334-2.713zm-29.166.098c.707-.004 1.382.028 2.043.054 1.586.063 2.856.59 3.76 1.588 1.86 2.055 1.856 2.058-3.014 1.524-4.325-.475-5.433-.16-9.812 2.783-5.722 3.845-8.078 8.672-11.559 20.057-2.1 6.868-2.662 15.877-3.142 22.564-7.542-20.93 2.195-39.752 14.078-46.379 3.13-1.835 5.528-2.178 7.646-2.191zm-378.912 3.765c8.233.084 20.244 1.357 24.21 4.897 3.053 2.726 6.082 10.094 6.105 14.853.015 3.154 1.482 2.802 4.177-1 2.461-3.47 4.822-6.389 8.834-10.921 2.092-2.363 3.893-3.533 10.348-4.47 4.244-.614 8.62-.146 9.955.003 6.687.747 11.352 7.988 12.639 21.138.483 4.935 2.932 10.23-1.686 6.325-4.088-3.458-18.817-9.694-22.314-9.416-5.636.447-9.26 2.73-11.557 7.279l-2.115 4.187-3.287-3.392c-2.18-2.25-17.823-12.658-30.887-8.717-4.201-3.36-6.299-5.3-13.426-4.937-3.21.163-10.148 5.487-14.062 10.619-1.395 1.828-3.407 6.57-4.47 10.537-1.912 7.126-3.658 15.959-4.614 14.303-2.37-4.104.267-10.819.996-15.747 1.02-6.896 2.314-10.91 5.621-17.433 7.905-15.591 15.326-18.212 25.533-18.108zm379.264 2.174c7.274-.006 8.319 4.332 10.435 10.733 2.253 6.812 2.104 8.093-.814 8.093-1.343 0-2.702.42-3.02.934-.903 1.462 2.495 9.015 4.551 10.115 1.561.836.902 5.017-.894 5.56-5.254 1.591-11.196-7.332-11.196-12.077 0-4.789-.731-6-2.658-4.4-4.19 6.496 5.182 18.363 11.24 20.29.889 2.693 1.427 5.079 3.641 8.932-.855-.106-1.778-.125-2.73.078-5.556 1.185-11.926-1.399-13.586-3.016-1.673-1.513-2.198-1.4-7.602 1.663-3.193 1.808-6.03 3.614-6.305 4.011-.676-5.002.007-17.245.965-21.59 3.333-15.117 7.006-22.942 12.535-26.709 2.686-1.83 4.204-2.616 5.438-2.617zm-327.48 6.812a29.707 29.707 0 00-3.03.117c-5.291.464-10.429 10.11-10.429 12.047 0 2.703.702 2.279 2.498-1.508.877-1.846 2.893-4.602 4.48-6.123 2.68-2.566 3.24-2.997 8.339-2.36 4.487.561 6.394 1.712 10.158 5.026 5.416 4.767 7.503 4.295 2.469-.559-4.04-3.896-7.841-6.544-14.485-6.64zm366.737.638c1.024-.09 1.297.537 1.925 2.186 1.539 4.034 1.443 8.427-.482 11.898-1.397 2.52-4.71 3.548-7.139 4.87-7.103 3.867-13.33 3.855-15.875-.028-.84-1.282-1.832-4.63-2.205-7.441-.615-4.64-.498-5.11 1.282-5.11 1.998 0 12.734-3.013 19.595-5.5 1.398-.506 2.284-.82 2.899-.875zm-225.254 4.606c-1.148.005-1.966.385-2.29 1.228-.356.931-.042 1.541.796 1.541 3.2 0 11.353 4.412 15.357 8.309 4.946 4.815 7.862 10.699 8.799 17.762.423 3.191 1.136 4.93 2.023 4.93 3.147 0 .493-12.26-4.34-20.047-4.181-6.739-15.37-13.746-20.345-13.723zm50.187.885c-.68.03-1.856.638-3.826 1.84-4.018 2.45-6.224 5.784-7.002 10.574-.851 5.245 1.474 4.224 3.586-1.575 1.184-3.25 2.495-4.86 4.846-5.955 1.808-.841 3.232-2.267 3.244-3.25.014-1.115-.168-1.664-.848-1.634zm-54.554 7.707a5.997 5.997 0 00-2.362.533c-4.18 1.892-3.555 8.121-1.963 9.414.688.558 2.15 1.235 3.25 1.506 3.22.791 4.695.758 5.485-.026 1.375-1.364-.219-3.095-2.576-2.789-3.124.407-4.409-.633-4.409-2.96 0-2.946 2.405-3.349 5.15-.864.96.868 2.486 1.049 2.98-.238.746-1.945-2.187-4.646-5.555-4.576zm-175.993.994c3.353-.012 6.742.464 9.782 1.75 12.58 5.322 18.065 13.331 8.636 16.215-5.958 1.822-22.02 2.242-26.191.685-9.5-3.544-11.587-9.82-5.146-15.474 3.185-2.798 6.256-2.706 9.593-3.014a37.806 37.806 0 013.326-.162zm378.418 1.183c.69-.018.746.469 1 .942.63 1.173-.138 3.08-.744 2.28l-1.256-1.663c-.523-.692.177-1.537 1-1.559zm29.68 2.707c.741-.025 1.637.418 3.135 1.329 4.245 2.581 5.638 6.197 3.765 9.771-2.124 4.055-7.43 9.158-12.22 11.006-2.349.906-5.017 1.713-6.531 1.713-.003-1.25-.465-2.706-1.233-5.526-1.593-5.849-7.908-6.396-9.484-2.537-.638 1.562.86 3.779 1.775 4.909-.32-1.678.089-3.862 1.94-4.118 1.118-.154 2.324.652 3.023 3.207.544 1.99.994 3.98.652 4.534-.786 1.272-3.462 1.394-6.252-.215-3.559-2.053-3.825-5.645-3.25-9.162.313-1.914 3.8-6.177 8.256-7.618 2.185-.706 12.409-4.503 14.785-6.584.49-.428.898-.683 1.64-.709zm-373.537 1.4c3.097-.115 8.54 3.322 11.607 6.161 2.484 2.298 2.541 6.474.985 8.91-3.736 5.848-7.03 8.708-9.084 9.424 1.486-3.311-4.074-10.878-6.373-11.348-1.834-.374-6.278 4.29-6.278 6.8 0 1.178 1.35 3.405 3 4.946 1.65 1.542 3.186 2.7 4.766 3.122-1.673 1.728-6.47 1.006-8.406-.583-3.059-2.507-2.512-6.21-3.832-9.658-.44-1.107.003-1.786 1.402-2.152 2.103-.55 4.72-4.338 4.72-7.842 0-2.081 3.96-7.058 6.907-7.707.184-.04.38-.064.586-.072zm347.162.557c.987 2.04 2.63 3.518 4.479 4.819-3.42 1.27-10.23 9.524-4.514 16.734-2.738-2.344-3.965-7.168-5.098-10.183 3.731-1.379 6.128-5.923 5.133-11.37zm-375.945.536c-.234.016-.46.172-.655.502-1.019 1.726-1.818 7.308-1.19 8.322 1.054 1.706 3.204-.657 3.706-4.074.336-2.286-.849-4.823-1.861-4.75zm215.496 10.824c-.354-.013-.894.63-1.201 1.431-.389 1.013 1.024 2.207 4.642 3.918 5.904 2.793 8.049 3.188 7.467 1.377-.362-1.128-9.35-6.67-10.908-6.726zm-237.002 1.861a5.46 5.46 0 012.19.62c5.937 3.05 8.079 3.913 18.911 2.921 12.358-1.132 12.944.878 13.211 6.344.194 3.968-.132 6.013-2.341 7.267-12.15 6.897-27.004 5.983-37.153 1.18-2.393-1.133-3.162-3.285-3.045-6.904.185-5.717 3.472-11.064 7.52-11.418.233-.02.469-.023.707-.01zm46.826 4.06c.752.04 1.922.596 2.969 2.39 2.224 3.808 1.63 4.987-1.684 3.335-1.512-.754-3.115-1.994-3.115-3.355 0-1.432.982-2.275 1.535-2.358.09-.013.188-.017.295-.011zm214.233 4.085c2.236-.047 3.54.96 5.32 1.97 2.458 1.397-.898 7.849-3.352 5-.692-.803-3.88-4.16-3.88-5.722 0-.753.897-1.227 1.912-1.248zm-5.065 1.17c.355 3.324 4.268 7.816 6.268 8.97 3.992 2.305 5.446-1.54 7.898-6.148 1.741-.073 14.46 12.989 16.406 16.847 2.094 4.153 2.474 9.092-.68 20.862-5.217 19.473-9.074 24.906-22.447 35.986-5.91 4.897-15.593 13.496-36.468 9.568-13.903-2.615-27.038-15.336-27.815-26.162-.25-3.474 3.23 1.28 4.39 2.5 4.799 5.05 14.096 11.928 17.04 13.25 3.112 1.398 18.696 4.167 19.5 3.465 1.456-1.272-2.638-3.018-8.11-3.646-7.163-.823-9.063-1.685-12.414-3.774-6.225-3.881-11.95-9.57-15.377-13.166l2.434-3.021c1-1.242 1.581-3.315.672-5.31-1.573-3.454-2.74-3.02-2.367.73.186 1.87-.785 3.327-1.528 3.584-1.78.616-1.629-6.892.229-11.338 1.57-3.758 2.996-3.646 3.521-.033.406 2.787 5.32 11.313 8.807 14.064 5.57 4.394 14.699 7.132 25.912 7.774 5.436.31 7.47-1.194 3.211-2.375-1.337-.371-5.826-.595-10.305-1.38-12.962-2.271-15.67-3.056-23.293-14.492l1.774-3.412c1.788-3.44 2.05-4.036.871-7.61-.922-2.793-1.863-3.933-3.252-3.933-1.857 0-2.001.214-.314 2.506 2.35 3.195 1.815 6.809-.12 8.994-.855-2.201-1.865-4.779-2.02-5.578-.846-4.386-.035-7.487 1.349-8.941 1.295-1.361 4.189 2.406 8.68 8.105 5.645 7.166 9.013 9.531 13 11.313 12.088 5.404 12.107 5.009 12.945 3.558 1.197-2.074-4.242-3.047-7.97-4.484-5.355-2.065-7.976-3.88-12.501-8.654-5.074-5.353-5.6-6.284-4.602-8.18.62-1.177 1.582-2.435 2.137-2.797 2.022-1.317-1.453-6.874-5.63-9.006-3.485-1.777-3.747-2.474-2.35-3.498 3.502-2.567 10.82 4.207 15.251 9.158 6.084 6.8 13.365 11.889 23.506 14.022 7.632 1.605 12.283 1.03 16.694-2.07 1.93-1.357 2.18-2.167 1.617-5.276-1.03-5.696-2.423-8.92-8.858-13.594-9.036-6.562-11.062-15.319-5.69-17.378zm158.582 1.947c.2-.013.374.015.518.096 2.02 1.134-1.006 4.502-1.448 6.757-.69 3.525-2.097 6.043-5.623 6-3.8-.046-3.634-3.92-4.877-6.5-2.653-5.51-2.552-5.769 2.057-4.99 2.497.422 5.2.212 7.031-.547.916-.38 1.743-.778 2.342-.816zm-377.074 4.392c.756.384 2.236 1.434 3.35 2.524-.875 3.163-.568 8.727-.706 16.002-.223 11.836 3.644 21.107.545 22.896-2.473 1.429-9.194 5.06-12.037 2.405-2.017-1.883-1.244-3.044 2.494-3.866 1.655-.363 5.261-2.465 6.598-4.843 1.375-2.446 1.433-5.67.729-8.385-.511-1.97-.62-4.718-3.418-5.06 2.927-3.645 2.36-12.903-1.041-16.509 2.158-2.243 3.172-3.257 3.486-5.164zm8.4 2.998c.698.02 1.31.102 1.46.344.299.485-.534 6.56-.886 13.5-.486 9.59-.961 12.62-1.984 12.62-1.061 0-1.346-2.855-1.346-13.5 0-11.088-.208-12.942.78-12.942.494 0 1.278-.042 1.976-.022zm-16.666 3.657c2.744-.098 3.834 1.626 4.43 5.959 1.014 7.373-4.871 10.255-20.47 10.363-18.294.126-23.92-7.145-20.891-12.447 1.355-2.373 1.475-4.237 11.252-1.442 8.961 2.562 15.608.317 22.343-1.758 1.325-.408 2.422-.643 3.336-.675zm183.97 7.412c1.599.172 5.535 3.761 5.263 5.597-.374 2.516-1.892 3.076-3.823 1.973-1.064-.608-2.876-2.312-3.127-3.119-.25-.807.06-4.112 1.4-4.438a.84.84 0 01.288-.013zM76.04 332.43c2.683.113 3.314 2.747 3.607 4.687.519 3.432-.432 5.88-6.148 8.405-3.07 1.356-7.17 3.468-11.416 4.191-4.034.687-9.287 1.426-13.154.088-5.683-1.967-10.431-6.582-9.827-12.135.582-5.342.772-2.1 15.848-2.01 7.436.045 12.834-.877 18.883-2.863.859-.282 1.588-.39 2.207-.363zm81.48 20.42c1.027 0 5.813 1.174 5.813 2.047 0 .873-2.273 2.93-3.3 2.93-1.029 0-3.953-.897-3.952-1.77 0-.873.413-3.207 1.44-3.207zm143.633 4.416c-1.132-.044-1.34 1.686-1.69 3.345-.357 1.7-.587 3.943-1.335 5.715-.476 1.128-.761 2.411-.42 2.963.364.59.989.634 1.514.11 1.415-1.416 3.692-11.279 2.74-11.868a1.66 1.66 0 00-.809-.265zm-96.46 2.56c1.091-.108 5.7 2.026 8.761 4.319 3.428 2.567 8.321 5.972 8.77 5.972-3.183 7.85-2.27 12.875-2.76 26.342-.295 8.086-1.003 15.584-3.11 16.393-.822.315-3.58-.152-6.125-1.037-4.999-1.74-15.206-.139-22.69.353-2.393.158-7.382-.869-7.966-1.467 1.472-1.288 4.06-1.801 6.266-1.517 3.076.396 10.491-3.358 12.738-7.616 3.997-7.574 2.701-13.832.096-19.95-2.21-5.192-1.585-11.05.465-15.964 1.033-2.476 3.788-4.796 5.554-5.828zM93.545 396.015c5.102-.266 10.884 4.265 14.783 5.783 6.942 2.702 14.115 7.548 21.156 7.2.695 1.648 1.549 1.564 2.545 1.566 1.745.003 3.089-1.679 4.467-2.727-2.401 8.429 4.652 12.833 12.217 10.264-1.21 7.722-1.546 18.347 5.133 21.191 3.97 1.691 9.011-1.93 11.873-5.162 3.673-4.148 1.895-11.176 4.734-15.934 1.505-2.521 4.61-5.375 6.24-6.216 0 0 3.214 1.649 4.963 1.994 4.843.955 9.6.712 14.81.11 4.82-.558 10.123-.844 14.221.944 2.55 1.113 4.77 2.119 5.215 2.604.166.535.391 3.833.5 8.205.199 7.948.2 7.949 5.45 14.746 3.889 5.036 5.25 7.652 5.25 10.086 0 6.866-2.047 8.164-6.077 3.858-5.318-5.684-10.82-8.293-17.273-9.672-5.076-1.086-10.81-.814-15.512 1.386-4.556 2.133-9.31 8.11-10.662 10.682-3.844 7.309-9.644 4.643-11.447 1.254-5.422-10.188-15.35-16.37-20.11-18.065-2.246-.799-5.274-1.018-8.13-.59-5.47.821-15.15 6.358-19.29 11.034-4.795 5.418-7.802 9.158-10.5 14.472-2.12 4.18-3.988 9.322-4.045 13.575-.106 7.994-3.182 19.923-11.128 21.906-5.095 1.271-10.875-4.199-12.897-9.045-4.116-9.867-4.99-29.97-4.965-44.504.012-6.667.332-13.236 1.455-19.736.72-4.169 3.37-12.237 3.37-12.237 3.006-8.85 4.691-16.018 11.515-18.542a7.21 7.21 0 012.139-.43zm40.308 30.496c-1.495-.021-4.484.984-6.716 1.516-4.199.998-8.944.788-12.561 3.142-5.65 3.677-8.425 7.01-12.436 15.95-.896 1.998-1.425 3.958-4.097 8.449-.377.632-.942 1.31-.942 1.75 0 2.895 4.05-1.474 5.512-5.264 2.291-5.94 4.964-11.769 9.354-16.195 2.038-2.056 4.778-3.38 7.484-4.409 3.13-1.19 6.565-1.317 9.855-1.94 1.613-.304 3.772-1.216 4.844-.876 1.126.357 1.951.154 1.951-.48 0-1.075-.752-1.622-2.248-1.643zm5.955 15.668c4.685-.084 9.299 2.751 13.15 5.473 4.446 3.14 6.962 8.37 10.614 12.404 1.423 1.572 2.577 3.512 4.4 4.594 1.07.634 1.907 1.371 3.6.972.214 1.268 2.123 3.084 3.461 2.367 1.25-.669 6.664 5.266 9.463 8.43 4.157 4.699 7.58 10.038 10.71 15.475 3.066 5.322 5.649 10.937 7.843 16.674 1.46 3.816 2.986 11.363 3.517 11.744.532.38 2.317-.41 3.475-.303 6.123.563 9.68 3.37 10.45 7.61.687 3.793 1.88 9.658-6.364 9.658-2.144 0-5.876 1.157-5.65 3.591.14 1.513.834 2.194 1.341 2.534 1.317.88 1.406 18.674-.472 27.724-1.718 8.275-7.102 15.385-9.69 23.43-1.002 3.117-1.997 7.044-2.305 10.98-.404 5.176-2.969 4.874-4.197 5.926-3.102 2.657-.213 4.649 1.77 3.924.922-.337 5.067-3.348 7.863-4.48 5.428-2.2 11.164-4.14 17.016-4.378 7.466-.304 15.095 1.178 22.091 3.801 3.836 1.438 7.52 3.578 10.496 6.393 2.278 2.153 4.799 4.656 5.332 7.744.284 1.641.79 2.52-1.289 4.828-.83.922-1.355 2.43-1.17 3.352.289 1.43 3.598-.81 4.147-2.291 1.59-4.293 4.29-5.274 6.572-5.713 2.026-.39 2.064-.286.637 1.752-.836 1.193-1.518 3.616-1.518 5.384 0 3.084.318 2.63 4.75 3.834 2.132.58 5.52.91 6.891 1.053 1.255.132 2.131.087 1.979-6.084-.186-7.517 2.29-7.156 5.443-1.27 3.71 6.927-1.793 12.756-6.815 16.864-1.816 1.486-5.43 2.943-6.396 2.943-.966 0-3.72-2.592-4.842-4.484-1.881-3.172-4.947-5.999-8.469-6.477-3.441-.467-8.37.531-9.664 3.895-2.712-.596-4.488-1.213-6.517-.424-2.49.968-4.734 2.7-5.547 5.785-.678-.016-1.654.031-2.504.031-4.114 0-9.162 3.155-7.912 4.66.775.934 7.123-3.114 10.547-2.06 3.359 1.034 6.873 4.02 7.418 7.492.857 5.463-1.941 12.891-7.5 14.797-5.56 1.906-11.732-3.734-16.883-7.97-.721-8.78-1.917-1.534-2.902-2.202-1.205-.816-2.394-1.533-3.723-1.996-5.921-2.062-11.861-2.317-18.512-3.332-17.448-2.662-39.858-5.27-50.61-15.566-2.648-2.537-2.997-7.02-2.673-10.672.67-7.544 3.9-15.43 9.314-20.725 2.596-2.538 6.69-2.82 10.032-4.24 2.856-1.213 6.301-1.393 8.562-3.654 5.629-5.63 3.888-15.175 4.305-22.946.581-10.839.93-19.83 7.861-29.34 2.024-2.777 5.045-7.972.158-10.093-7.137-3.098-15.188-10.179-21.742-16.485-8.82-8.486-15.675-18.806-23.299-28.382-5.893-7.403-12.454-14.373-17.345-22.473-2.155-3.568-4.015-7.071-5.203-11.37 0 0 2.51-2.993 3.714-4.53 5.912-7.543 13.228-13.227 21.854-14.122.313-.032.625-.05.937-.056zm55.649 5.262a9.985 9.985 0 013.185.47c-.61.61 7.391 6.627 10.838 10.192 4.573 4.729 10.851 11.865 13.028 14.822 5.125 6.963 9.837 15.535 13.615 22.078 6.96 12.056 4.993 13.115 2.535 13.115-1.906 0-2.69 2.014-2.287 3.285.36 1.138 1.246 2.062 3.365 1.223 2.557-1.011 8.264-.547 10.322 2.317 2.36 3.282 1 8.53-1.912 11.6-1.978 2.084-5.77 1.896-7.56 4.146-1.607 2.02-2.342 3.915-2.1 7.45.349 5.097-2.065 8.51-3.57 12.612-2.258 6.152-5.238 12.02-8.152 17.889-1.14 2.297-3.625 5.541-3.649 6.773-.02 1.026 6.686-.972 9.893-1.986 6.653-2.104 13.401-1.933 20.093-1.397 6.112.49 12.08 2.284 17.91 4.18 5.193 1.689 10.038 4.302 15.09 6.371 2.51 1.028 5.326 2.644 7.559 3 4.02.642 4.07.613 5-3.058 1.272-5.02 3.593-6.38 7.18-4.211 3.968 2.4 4.181 4.806.424 4.806-3.476 0-8.186 4.826-8.125 8.327.033 1.915.418 1.73 3.25-1.577 3.903-4.556 7.292-4.897 11.076-1.113 3.08 3.08 3.684 7.038.886 5.809-4.522-1.987-8.86-1.646-11.931.94-1.673 1.407-4.328 3.8-2.967 5.3.943 1.038 1.9 1.736 3.852-1.693 2.205-3.875 6.406-4.033 10.718-.405 3.992 3.359 3.508 6.76 1.791 9.479-.952 1.508-4.434 2.08-5.174 1.365-4.433-4.292-8.876-6.161-13.837-5.676-3.476.34-7.108 4.216-8.739 5.778-3.042 2.914-3.876 5.466-1.787 5.466.648 0 2.437-2.231 3.447-3.529 1.16-1.49 2.149-2.223 3.295-2.97l.041 3.062c.04 2.983 4.336 8.437 6.647 8.437.548 0 2.737-2.726 3.838-4.302 1.016-1.456 1.97-4.698 2.508-4.698 1.488 0 4.167 5.088 4.332 8.164.156 2.93-.35 5.93-3.274 8.172-4.521 3.468-7.852 4.89-12.664.664-3.958-3.475-5.602-3.807-5.16-1.045.172 1.075-.462 1.602-1.012 1.627-2.232-2.114-1.449-5.264-6.937-7.593-4.954-2.103-12.828-1.274-16.139.449-2.82 1.468-3.534 1.536-4.172.396-.423-.756-2.972-4.715-4.957-6.634-2.791-2.7-6.038-5.025-9.56-6.663a59.817 59.817 0 00-19.866-5.32c-6.503-.567-13.077.59-19.507 1.715-1.85.323-5.465 3.348-5.448 1.441.017-1.949 1.636-10.59 3.887-15.373 2.603-5.53 5.96-10.287 7.354-15.984 2.716-11.103 2.85-33.384 1.671-34.25-.55-.404.885-.742 3.192-.75 5.239-.02 7.701-4.395 7.701-9.531 0-6.351-2.804-8.99-6.387-11.535-2.512-1.786-7.747-2.37-9.113-1.569-2.274-4.467-3.161-10.583-5.516-15.555-3.657-7.723-7.927-15.264-13.265-21.937-4.238-5.297-11.289-14.098-14.676-14.098-.979 0-1.304-.583-1.621-1.058 1.798-.733 2.537-1.168 3.185-2.307 2.455-4.31 7.653-11.087 13.463-13.873 1.525-.73 3.168-1.203 4.893-1.23zm103.334 159.353c.322-.003.66.048 1.014.162 3.55 1.154 3.174 2.651 1.388 6.03-1.293 2.446-2.096 2.488-3.422 2.2-1.604-.347-2.67-3.054-2.67-4.138 0-1.604 1.438-4.236 3.69-4.254zm-25.96 16.324c4.703.086 3.344 6.374 2.37 9.776-.813.678-2.871.183-5.35-.465-2.067-.54-2.16-1.54-.55-5.99.892-2.468 1.8-3.352 3.53-3.32zm-17.884 17.604c3.514.166 7.448 2.24 9.102 5.346 1.33 2.499 1.727 6.232-.52 8.478-2.497 2.497-4.231.733-4.603-1.197-.609-3.154-3.21-5.917-5.02-7.813-1.04-1.09-3.691-2.605-3.691-2.605s2.993-2.291 4.732-2.21zm-10.25 3.38c3.553.32 7.13 2.963 8.772 6.13 1.706 3.29 2.339 8.379-.043 11.119-1.166 1.34-3.114 2.12-5.575.687-1.094-.637-1.75-2.229-1.75-4.248 0-3.908-2.32-7.463-5.71-8.752-1.983-.753-2.268-1.24-1.366-2.328.628-.756 3.6-2.793 5.672-2.607z"/></svg>