<svg width="577" height="895" xmlns="http://www.w3.org/2000/svg"><path d="M142 834.999C142 854.879 222.813 871 322.5 871S503 854.879 503 834.999C503 815.117 422.187 799 322.5 799S142 815.117 142 834.999" fill-opacity=".2"/><path d="M339.078 428.366l39.804 108.94c-95.447 42.295-157.433 7.131-157.433 7.131l4.384-104.49s-32.112 80.761-71.681 59c-39.57-21.762-45.246-118.27-45.246-118.27-5.082-9.94-14.75-43.524-10.432-45.737 4.317-2.213 12.59 17.334 12.59 17.334s-8.274-24.345-3.958-26.188c4.317-1.843 11.87 23.852 11.87 23.852s-5.803-26.166-1.799-28.049c6.788-3.193 10.435 28.05 10.435 28.05s0-25.328 5.394-26.065c5.395-.738 4.708 32.087 4.708 32.087s4.645-14.014 8.963-8.85c4.317 5.162-4.678 28.893-4.678 28.893l23.172 74.062s16.727-40.271 35.97-68.911c14.871-22.131 42.928-28.77 42.928-28.77 0-.738 22.303-5.164 22.303-5.164l1.44-27.54 44.422-2.705-.479 30.245 29.201 1.968s28.894 6.146 42.447 20.161c39.975 67.506 56.207 114.472 56.598 199.355 3.6 13.965 9.543 43.986 4.995 45.647-4.546 1.66-10.45-18.771-10.45-18.771s5.34 25.192.836 26.487c-4.503 1.295-8.966-25.152-8.966-25.152s2.67 26.697-1.528 28.068c-7.114 2.324-7.043-29.14-7.043-29.14s-2.991 25.144-8.433 25.205c-5.444.061-.883-32.435-.883-32.435s-6.27 13.334-9.943 7.671c-3.676-5.66 8.054-28.099 8.054-28.099-5.396-47.878-19.619-93.661-33.069-139.82" fill="#f8bc8d"/><path d="M214.53 548.217s82.791 22.78 167.806-5c0 0-21.67-24.45-78.903-18.892-57.232 5.555-68.9 7.223-88.903 23.892" fill="#429797"/><path d="M235.212 805.949s-39.31 14.698-39.522 24.943c-.216 10.246 55.147 5.758 55.147 5.758s38.785 11.184 28.157-22.71c0 0 2.838-38 6.117-82.799-20.24-.977-40.432-4.123-60.385-9.858 4.68 38.004 9.552 76.073 10.486 84.666z" fill="#f8bc8d"/><path d="M215.613 640.839c.95 12.934 4.956 46.664 9.113 80.443 19.953 5.738 40.145 8.883 60.385 9.86 4.71-64.342 10.325-142.711 9.74-142.707-13.435.13-65.843 53.015-79.238 52.404z" fill="#eca278"/><path d="M233.867 805.724c-8.85 2.287-15.613 6.71-21.385 9.302 2.672 5.988 3.316 13.098 1.738 19.972 5.768.784 12.947 1.618 21.947 2.467 43.923 4.148 46.001-7.738 46.001-7.738.594-11.612-2.078-18.58-1.904-19.203-21.258 11.343-46.397-4.8-46.397-4.8z" fill="#e95336"/><path d="M234.615 822.771a.546.546 0 00.516.565h.004a.546.546 0 00.539-.54c.104-4.592-.966-7.915-2.219-10.208 2.434-.2 8.338-.934 9.703-3.393.283-.509.508-1.34-.021-2.412-.423-.855-1.084-1.368-1.918-1.467-2.263-.268-5.379 2.44-7.346 4.438.964-2.78 2.132-7.11.897-9.066-.31-.49-.925-1.055-2.077-1.053-.922 0-1.655.405-2.119 1.135-1.2 1.89-.39 5.782.412 8.513-.6-.585-1.036-.88-1.1-.922a.513.513 0 00-.728.172.568.568 0 00.164.762c.027.018 1.347.88 2.73 3.082 1.46 2.32 2.681 5.653 2.563 10.394zm-.726-21.476c1.056 1.673-.37 6.41-1.41 9.182-.917-2.725-2.122-7.368-1.022-9.098.273-.43.668-.644 1.293-.64.715.003.99.32 1.139.556zm8.308 5.998c.336.679.19 1.096.05 1.352-.961 1.733-5.66 2.534-8.5 2.808 1.871-2.019 5.165-5.138 7.251-5.048.583.026.932.348 1.2.888zM228 825.367c1.054-9.812-5.888-14.457-5.957-14.502a.525.525 0 00-.73.178.565.565 0 00.166.762c.261.173 6.46 4.336 5.47 13.44-.032.297.168.589.491.612.303.022.53-.212.56-.49z" fill="#d83c27"/><path d="M327.325 681.572c-.377.08 6.567 21.238 15.158 46.956 20.472-2.725 40.796-7.214 60.774-13.006-3.933-29.167-7.632-56.16-9.254-67.288-12.946 3.497-53.532 30.556-66.678 33.338z" fill="#eca278"/><path d="M416.23 814.373c-1.06-9.61-7.263-56.517-12.972-98.851-19.978 5.792-40.304 10.28-60.774 13.006 13.346 39.956 30.67 90.918 30.67 90.918-3.044 35.394 32.403 16.08 32.403 16.08s46.993 8.25 44.567-1.706c-2.424-9.957-33.895-19.447-33.895-19.447" fill="#f8bc8d"/><path d="M417.907 811.588c8.876 2.186 15.69 6.532 21.491 9.057-2.605 6.015-3.169 13.137-1.515 19.987-5.758.853-12.928 1.768-21.917 2.718-43.872 4.645-46.086-7.218-46.086-7.218-.725-11.606 1.869-18.603 1.687-19.224 21.386 11.102 46.34-5.32 46.34-5.32z" fill="#e95336"/><path d="M422.492 815.102a.566.566 0 00.154-.76.514.514 0 00-.728-.164c-.062.042-.495.34-1.09.933.772-2.74 1.536-6.64.315-8.517-.471-.724-1.21-1.126-2.131-1.115-1.153.012-1.76.585-2.065 1.08-1.212 1.97.005 6.288 1 9.056-1.989-1.975-5.136-4.649-7.396-4.355-.83.108-1.486.63-1.9 1.49-.52 1.076-.285 1.906.001 2.41 1.39 2.445 7.31 3.111 9.746 3.283-1.226 2.308-2.265 5.643-2.105 10.235a.545.545 0 00.547.533h.002a.541.541 0 00.508-.57c-.167-4.745 1.016-8.093 2.453-10.434 1.358-2.212 2.664-3.087 2.69-3.105zm-2.222-7.89c1.117 1.718-.034 6.374-.922 9.108-1.07-2.759-2.547-7.482-1.51-9.166.145-.236.415-.556 1.13-.567.624-.01 1.024.2 1.302.626zm-2.178 10.099c-2.84-.24-7.552-.984-8.531-2.71-.145-.253-.296-.67.033-1.353.262-.543.608-.869 1.191-.9 2.086-.113 5.414 2.966 7.307 4.963zm11.96-.801a.52.52 0 00-.261.084c-.07.048-6.967 4.765-5.797 14.566.026.279.262.49.541.486.016 0 .035 0 .049-.006a.546.546 0 00.46-.613c-1.084-9.093 5.057-13.327 5.32-13.502a.57.57 0 00.157-.763.522.522 0 00-.468-.252z" fill="#d83c27"/><path d="M374.834 532.38s-123.355-5.833-155.858 5.837l-5.048 39.622c55.517-9.48 111.267-14.293 167.685-13.755z" fill="#253269"/><path d="M200.638 684.073s23.338 20.003 93.349 17.503l4.169-80.013 4.999-.832 18.336 80.01s52.51 7.502 85.847-15.001l-25.802-121.875c-56.416-.54-112.016 4.275-167.533 13.756z" fill="#334b9a"/><path d="M292.32 529.881l3.334 65.01m-.278-5.555s11.114.832 11.946-13.613c.835-14.448-1.11-50.01-1.11-50.01m43.618 7.224s6.39 30.007 33.06 47.786m-163.499 5.417s29.172-12.78 29.45-53.895m30.978 92.929l57.508-10.557m-34.172 6.113l18.06 10.556m-5.558 7.364l14.17 62.51m-126.271-16.253l21.67-139.19" fill="none" stroke="#2f2035" stroke-width="1.32" stroke-linecap="round"/><path d="M247.214 344.934c5.413 9.817 17.372 22.038 43.44 22.698 23.1.585 36.19-12.217 43.417-24.48-3.433-.664-26.133-5.589-39.39-5.5-16.007.109-41.256 5.769-47.467 7.282zm-81.58 90.764c25.853 14.22 46.61 16.405 54.652 16.67 3.026-4.59 5.358-8.056 5.358-8.056-22.77-1.32-43.382-9.89-56.37-16.634-2.237 4.9-3.64 8.02-3.64 8.02zm206.019 16.532c9.423-.654 28.675-3.66 52.077-16.53 0 0-1.304-2.904-3.395-7.48-12.686 6.705-33.324 15.526-56.27 17.11z" fill="#429797"/><path d="M392.325 370.697c-7.975-12.091-33.84-22.85-58.254-27.546-7.227 12.263-20.316 25.067-43.416 24.48-26.068-.66-38.027-12.88-43.44-22.698-22.375 5.452-44.22 15.499-50.744 26.589a111.074 111.074 0 00-1.98 3.541c65.546 15.934 134.938 16.76 197.834-4.366" fill="#fab94c"/><path d="M392.325 370.697c-62.896 21.125-132.288 20.3-197.833 4.366-3.79 7.018-9.178 18.157-14.285 29.002 75.13 21.636 153.411 18.6 227.085-3.944-5.502-11.601-11.076-22.95-14.4-28.599-.163-.276-.386-.55-.567-.825" fill="#4ca5a2"/><path d="M169.274 427.678c12.987 6.744 33.6 15.314 56.37 16.634l136.687-.556 1.734 1.575c22.947-1.587 43.585-10.405 56.27-17.113a2128.383 2128.383 0 00-13.042-28.097c-73.674 22.544-151.958 25.581-227.085 3.943-4.194 8.906-8.193 17.6-10.934 23.614z" fill="#fab94c"/><path d="M216.837 509.731c-1.584 20.935-2.306 38.485-2.306 38.485 17.67-10.753 72.95-13.137 80.151-13.312 7.202.175 69.983-2.442 87.653 8.315 0 0-1.762-16.478-5.068-36.942-53.588-4.042-107.748-1.867-160.43 3.454" fill="#4ca5a2"/><path d="M377.267 506.278c-1.488-9.212-3.29-19.231-5.383-28.921-51.12-1.902-101.963-6.653-152.034.464-1.228 10.32-2.226 21.528-3.013 31.91 52.682-5.32 106.842-7.496 160.43-3.453" fill="#fab94c"/><path d="M219.851 477.82c50.072-7.114 100.914-2.366 152.032-.464a718.467 718.467 0 00-7.819-32.025l-1.734-1.576-136.687.557-2.063 8.07c-1.684 6.582-2.566 15.667-3.729 25.438z" fill="#4ca5a2"/><path d="M278.349 494.749a320.338 320.338 0 0049.582-72.913m-23.469 84.046c15.99-16.77 26.513-38.67 29.617-61.633m-108.436-.067c-1.11-2.778 5-47.101 8.89-57.101 3.89-10.001 13.337-36.117 13.337-36.117m89.458-.001s19.449 34.45 22.227 46.673c2.777 12.225 4.05 46.663 4.05 46.663M215.64 539.326s69.457-27.226 163.916-6.666" fill="none" stroke="#429797" stroke-width="1.32" stroke-linecap="round"/><path d="M256.964 317.88l1.557 16.273c19.72 4.457 40.066 4.993 58.874 1.415l.347-23.278z" fill="#eca278"/><path d="M259.296 345.684s4.949 13.238 28.056 13.238c25.9 0 29.696-13.239 29.696-13.239l.347-10.115c-18.807 3.578-39.153 3.04-58.874-1.414z" fill="#f8bc8d"/><path d="M217.788 124.504c-19.19 7.446-35.263 22.597-43.826 41.315-1.9 4.15-3.463 8.784-2.385 13.22 1.081 4.436 5.804 8.225 10.125 6.747-14.094 7.882-21.431 26.131-16.717 41.575 4.714 15.443 20.99 26.485 37.081 25.154" fill="none" stroke="#be6854" stroke-width="1.5"/><path d="M371.421 255.493c-3.555 37.392-36.891 71.156-82.826 69.778-43.175-1.294-86.112-22.809-93.765-84.265-7.65-61.457 15.853-107.578 71.738-115.76 55.883-8.179 92.399 9.911 99.994 48.309 0 0 9.417 34.014 4.859 81.938z" fill="#f8bc8d"/><path d="M361.086 128.409c12.823 8.484 26.676 17.71 32.875 32.418 4.509 11.077 3.758 25.735-5.894 33.906-.346 4.713 2.15 10.412 2.899 15.504 2.162 11.53 6.754 23.184 4.577 35.062-1.42 8.164-7.86 16.101-16.657 16.303-10.621.697-20.005-7.532-22.795-17.44-4.147-12.721-.378-26.13 3.321-38.46-10.072-16.224-20.081-33.282-24.606-52.026-1.892-7.971.008-17.529 7.252-22.243 2.72-1.86 6.162-2.797 9.425-2.068" fill="#be6854"/><path d="M380.315 262.892c9.079-1.695 16.71-9.44 18.27-18.544 1.218-7.103-.975-14.316-3.408-21.1a272.134 272.134 0 00-14.699-33.628c2.187 3.728 5.33 7.798 9.651 7.667 3.068-.092 5.72-2.474 6.931-5.296 1.212-2.824 1.228-6.009.964-9.067-.973-11.217-5.551-22.096-12.896-30.63-7.347-8.533-17.419-14.68-28.369-17.31" fill="none" stroke="#be6854" stroke-width="1.5"/><path d="M218.924 120.795l-3.313-14.037c-.419-1.77-.864-3.605-1.998-5.028-1.133-1.424-3.159-2.307-4.82-1.562-2.195.991-2.476 3.965-2.26 6.363a50.973 50.973 0 005.453 18.735l-8.64-10.205c-.805-.95-1.965-2.003-3.125-1.543-1.53.602-1.083 2.88-.317 4.336a73.186 73.186 0 006.924 10.755c-16.227 9.313-44.339 30.013-31.336 56.434 0 0-21.404 32.739 2.196 47.309 23.598 14.57 19.019 1.808 19.019 1.808s16.678-2.243 21.357-30.504c0 0 14.327-4.377 21.555-32.394 0 0 70.127 34.734 92.01 22.783 0 0 9.041-5.52 5.058-16.742 0 0 10.831 9.172 31.764 4.783 20.928-4.388 12.63-35.01-.287-40.065 0 0 10.932-37.97-31-36.214-41.935 1.754-48.096-6.494-74.473-6.74-22.354-.208-36.24 11.177-43.767 21.728z" fill="#be6854"/><path d="M231.32 167.257a592.515 592.515 0 0067.983 28.09c7.694 2.634 15.767 5.14 23.818 4.016 8.053-1.123 16.034-6.956 16.922-15.04.665-6.03-2.592-11.722-5.73-16.917 4.796 7.805 13.095 13.36 22.14 14.82 9.043 1.46 18.669-1.2 25.678-7.098" fill="none" stroke="#be6854" stroke-width="1.5"/><path d="M355.085 246.043s41.404-8.212 39.937 24.963c-1.47 33.18-36.318 31.552-45.196 9.621z" fill="#f8bc8d"/><path d="M284.502 219.479c-1.336 9.9-2.5 21.161-1.28 23.585 1.17 2.315 4.038 4.314 11.401 1.012 2.166-.97 3.865-.64 4.99.692 1.872 2.214 1.904 6.925.07 9.884-2.335 3.77-6.95 5.396-7 5.414a.558.558 0 00.129 1.08.58.58 0 00.235-.03c.204-.07 5.034-1.765 7.582-5.878 2.093-3.38 2.012-8.607-.168-11.19-1.44-1.705-3.645-2.16-6.281-.991-5.327 2.362-8.586 2.24-9.965-.494-1.047-2.078.053-12.91 1.422-23.08a3.748 3.748 0 01-1.135-.005zm-95.158 18.904a13.963 13.963 0 00-1.602.039c-7.855.628-12.414 6.854-12.607 7.107-.501.702.52 1.476 1.06.803.045-.058 4.452-5.765 10.942-6.545 3.762-.446 7.514.827 11.156 3.791 3.372 2.743 4.734 6.2 5.045 9.623-7.455-6.915-18.053-.63-18.166-.56-.546.332-.352 1.166.283 1.228a.67.67 0 00.408-.094c.108-.064 10.807-6.403 17.545 1.416-.124 6.362-3.343 12.085-3.396 12.178a.665.665 0 001.15.664c.056-.099 3.495-6.122 3.574-13.068.05-4.432-1.32-8.932-5.603-12.416-3.014-2.453-6.131-4.041-9.79-4.166zm171.017 44.789c.086.246.307.42.567.443a.664.664 0 00.691-.879c-.035-.102-2.12-6.335-1.039-12.609 8.092-6.404 17.401 1.843 17.494 1.928a.68.68 0 00.383.168c.64.066.99-.726.51-1.155-.095-.09-9.319-8.262-17.946-2.877.951-3.301 2.941-6.438 6.768-8.496 4.136-2.224 8.063-2.77 11.674-1.619 6.228 1.985 9.476 8.426 9.51 8.488.408.74 1.527.189 1.19-.585-.14-.285-3.517-7-10.286-9.165a13.775 13.775 0 00-4.59-.648c-2.615.07-5.334.857-8.129 2.36-4.871 2.618-7.02 6.795-7.847 11.15-1.181 6.838 1.014 13.387 1.05 13.496z" fill="#763633"/><path d="M237.499 281.526c-11.553-3.454-19.42-11.253-17.578-17.42 1.843-6.17 12.703-8.37 24.253-4.917 11.553 3.453 19.424 11.251 17.58 17.421-1.844 6.17-12.703 8.37-24.255 4.916z" fill="#eca278"/><path d="M205.299 231.459s-31.07-14.763-35.881 18.097c-4.81 32.858 29.719 37.83 42.573 17.964z" fill="#f8bc8d"/><path d="M240.359 207.548c14.612-5.991 19.35-3.916 21.259-.043 1.742 3.532-1.92 8.23-10.196 11.428-9.932 3.84-16.395 4.785-19.65 1.083 0 0-6.027-6.476 8.587-12.468z" fill="#be6854"/><path d="M251.738 253.762c-3.7-.282-6.419-4.167-6.075-8.674.344-4.51 3.622-7.935 7.32-7.653 3.7.283 6.418 4.165 6.075 8.675-.343 4.506-3.622 7.933-7.32 7.652z" fill="#000100"/><path d="M328.235 290.154c11.994-1.214 21.195-7.39 20.546-13.796-.648-6.404-10.897-10.613-22.894-9.4-11.996 1.213-21.194 7.39-20.546 13.796.648 6.407 10.897 10.614 22.894 9.4z" fill="#eca278"/><path d="M339.366 216.963c-13.222-8.637-18.264-7.494-20.868-4.05-2.375 3.14.335 8.445 7.86 13.147 9.03 5.641 15.2 7.788 19.093 4.767 0 0 7.138-5.225-6.085-13.864z" fill="#be6854"/><path d="M321.781 258.747c3.698.283 6.976-3.143 7.32-7.652.343-4.507-2.376-8.392-6.076-8.674-3.698-.281-6.977 3.146-7.32 7.653-.342 4.507 2.376 8.39 6.076 8.673z" fill="#000100"/><path d="M239.193 208.865c-18.07.822-32.992 15.25-34.029 33.696-1.106 19.672 14 36.577 33.676 37.683 19.672 1.106 36.578-14.002 37.683-33.674a35.807 35.807 0 00-.04-4.273c12.572-6.317 24.436-.044 26.777 1.336-.263 1.443-.47 2.907-.555 4.408-1.105 19.672 14.004 36.577 33.678 37.684 19.673 1.106 36.579-14 37.683-33.672 1.105-19.675-14-36.58-33.675-37.686-17.49-.983-32.763 10.859-36.721 27.32-3.56-1.938-15.117-7.182-27.38-1.41-2.035-16.86-15.907-30.406-33.442-31.39a36.028 36.028 0 00-3.655-.022zm.09 1.897a34.046 34.046 0 013.457.02c18.628 1.046 32.933 17.053 31.887 35.68-1.046 18.629-17.054 32.933-35.682 31.886-18.629-1.047-32.932-17.055-31.884-35.684.982-17.464 15.112-31.125 32.222-31.902zm97.543 5.482a34.087 34.087 0 013.46.02c18.627 1.046 32.93 17.054 31.884 35.68-1.047 18.627-17.054 32.934-35.682 31.886-18.628-1.047-32.932-17.056-31.884-35.684.982-17.463 15.112-31.124 32.222-31.902z" fill="#151723"/><path d="M299.171 280.51c-13.204-5.348-28.753-5.696-28.753-5.696s-.373 3.013.225 6.632c6.441-.092 16.435.662 26.84 4.797 1.44-2.994 1.688-5.733 1.688-5.733z"/><path d="M281.665 293.556c9.435 1.572 13.802-3.123 15.818-7.313-10.405-4.134-20.399-4.891-26.84-4.797.805 4.866 3.369 10.836 11.022 12.11z" fill="#b34865"/><path d="M107.241 358.18s15.984-11.798 27.636-2.755" fill="none" stroke="#763633" stroke-width="1.34" stroke-linecap="round"/><path d="M212.482 815.025c-16.274 7.306-21.396 14.547-21.396 14.547l.002.004-.006-.002c-.867 2.836-.654 4.785-.654 4.785s4.838 5.234 43.418 6.04c34.524.72 47.302-3.545 47.302-3.545a69.96 69.96 0 001.022-7.127c-13.964 3.335-37.799 7.005-67.637 3.722 1.153-6.384.421-12.884-2.05-18.424zM439.396 820.645c-2.408 5.564-3.068 12.077-1.843 18.445-29.798 3.62-53.673.22-67.672-2.957a70.703 70.703 0 001.1 7.115s12.826 4.12 47.34 3.008c38.566-1.24 43.347-6.53 43.347-6.53s.189-1.949-.711-4.777c0 0-5.207-7.183-21.56-14.304z" fill="#fff"/></svg>