<svg width="470" height="791" xmlns="http://www.w3.org/2000/svg"><path d="M219.165 764.381c-91.47 0-165.62-15.762-165.62-35.202 0-19.44 74.15-35.2 165.62-35.2s165.62 15.76 165.62 35.2c.001 19.439-74.15 35.202-165.62 35.202z" fill-opacity=".2"/><path d="M395.496 242.953c-6.139.722-9.977 27.74-9.977 27.74s.588-25.071-4.874-25.93c-5.46-.86-5.516 31.657-5.516 31.657s-4.395-13.986-8.894-8.976c-4.501 5.013 4.085 28.714 4.085 28.714s-17.138 45.184-36.277 73.514l-22.346-16.995c4.328.978-46.953 25.959-42.77 27.32 16.435 15.377 26.194 28.167 63.536 41.471 24.636 8.778 34.787-9.519 43.783-31.285 19.67-47.596 27.554-88.621 27.554-88.621 5.387-9.721 15.97-42.737 11.64-45.03-4.33-2.293-13.174 16.863-13.174 16.863s8.955-23.903 4.615-25.83c-4.34-1.928-12.592 23.335-12.592 23.335s6.434-25.67 2.465-27.727a2.285 2.285 0 00-1.258-.22z" fill="#f6ba8b"/><path d="M311.939 352.857c.698 2.45-47.056 25.825-43.012 27.14 8.336 7.8 14.971 14.933 24.344 21.807 23.136-9.272 34.451-24.43 39.323-33.23z" fill="#e9a077"/><path d="M178.967 543.873c-2.028 2.91-9.545 13.889-19.112 27.89a130168.84 130168.84 0 00-57.523 84.301c-28.328 18.822 7.275 33.864 7.275 33.864s38.5 36.688 44.512 28.933c6.014-7.753-14.39-42.369-14.39-42.369a95086.61 95086.61 0 0164.039-63.4c14.28-14.123 26.008-25.704 28.619-28.244-18.986-9.667-36.976-26.83-53.42-40.975zm110.228 67.123c-20.01 3.733-40.626 5.367-60.275 1.828 7.496 39.83 18.934 100.57 18.934 100.57-6.722 33.342 29.09 18.8 29.09 18.8s53.168-1.28 51.935-11.014c-1.23-9.735-40.137-19.79-40.137-19.79.018-5.332.253-53.956.453-90.394z" fill="#f9bb8b"/><path d="M178.967 543.873c-11.68 16.963-22.593 32.998-32.385 47.344 23.893 8.219 44.734 13.31 62.97 16.17 7.001-6.92 10.978-10.84 15.434-15.235 1.07 5.717 2.41 12.855 3.934 20.955 19.646 3.54 40.263 1.907 60.277-1.826.112-20.084.212-36.569.262-40.21z" fill="#e9a077"/><path d="M140.867 677.132c5.209 7.035 7.578 14.401 10.311 19.806-5.591 2.846-10.355 7.75-13.321 13.817-4.768-2.892-10.614-6.594-17.824-11.383-35.19-23.374-29.575-33.473-29.575-33.473 6.553-9 12.74-12.578 12.985-13.143 8.99 21.247 37.424 24.376 37.424 24.376z" fill="#334b98"/><path d="M142.678 682.06a.494.494 0 00-.438-.57c-.072-.007-.574-.048-1.375.026 2.242-1.549 5.188-3.958 5.434-6.088.095-.824-.205-1.565-.893-2.123-.855-.694-1.652-.648-2.177-.469-2.098.714-3.837 4.639-4.793 7.287-.26-2.674-.95-6.56-2.793-7.725a2.131 2.131 0 00-1.1-.335 2.747 2.747 0 00-1.211.273c-1.043.48-1.376 1.231-1.473 1.781-.467 2.652 3.488 6.755 5.178 8.371-2.314.953-5.116 2.781-7.8 6.266a.516.516 0 00.08.723c.224.17.543.12.72-.11 2.768-3.589 5.675-5.338 8.171-6.191 2.362-.807 3.86-.653 3.89-.65a.542.542 0 00.58-.465zm-8.215-8.964c.235.004.46.08.685.248 1.607 1.19 2.18 5.494 2.358 8.125-1.95-1.912-4.965-5.34-4.637-7.211.048-.275.193-.673.854-.979.26-.12.505-.187.74-.183zm9.305.697c.294.004.698.108.933.299.358.29.635.773.578 1.258-.226 1.949-3.918 4.68-6.242 6.156.895-2.688 2.69-7.075 4.483-7.684a.78.78 0 01.248-.029zm-9.514 22.033c4.75-7.37 11.87-6.736 12.17-6.709a.544.544 0 00.582-.467.496.496 0 00-.436-.568 7.422 7.422 0 00-.804-.02c-2.162.042-8.197.774-12.364 7.221-.145.225-.12.537.118.703.254.178.579.081.734-.16z" fill="#253269"/><path d="M278.432 237.175s48.156 12.844 38.51 35.011c-9.647 22.167-29.67 1.442-29.67 1.442s15.448 14.8 5.196 25.462c-10.253 10.661-21.744-15.074-21.744-15.074s.847 23.517-13.842 23.767-14.283-42.23-14.283-42.23z" fill="#845846"/><path d="M278.432 237.175s4.28 4.186-7.702 17.819c-11.982 13.632-28.13 10.558-28.13 10.558l-3.92-4.695 35.974-30.187z" fill="#e58aa2"/><path d="M405.665 283.608s-12.796-14.273-25.478-7.868" fill="none" stroke="#6c4820" stroke-width="1.2" stroke-linecap="round"/><path d="M290 701.043c8.658 1.291 15.542 4.825 21.296 6.713-1.942 5.966-1.841 12.803.35 19.19-5.416 1.327-12.167 2.842-20.652 4.554-41.41 8.355-44.582-2.756-44.582-2.756-1.73-10.997.115-17.902-.111-18.476 21.381 8.667 43.699-9.225 43.699-9.225z" fill="#334b98"/><path d="M311.297 707.756c-1.798 5.524-1.843 11.787-.106 17.75-28.082 6.12-51.147 5.015-64.779 3.238a68.698 68.698 0 001.686 6.686s12.599 2.78 45.404-1.371c36.653-4.64 40.734-10.108 40.734-10.108s.004-1.878-1.102-4.49c0 0-5.607-6.38-21.837-11.705z" fill="#fff"/><path d="M294.684 703.986a.538.538 0 00.082-.738.49.49 0 00-.713-.094c-.056.046-.44.372-.953.99.49-2.68.869-6.467-.463-8.148-.451-.569-1.073-.93-1.972-.876-1.26.075-1.788.72-2.032 1.216-.98 1.989.565 5.994 1.761 8.543-2.073-1.705-5.311-3.971-7.437-3.488-.784.178-1.361.732-1.678 1.588-.398 1.077-.1 1.844.219 2.3 1.545 2.207 7.247 2.311 9.584 2.258-.963 2.31-1.655 5.584-1.09 9.947a.516.516 0 00.569.455.516.516 0 00.433-.587c-.583-4.508.244-7.806 1.403-10.163 1.098-2.232 2.265-3.183 2.287-3.203zm-2.825-7.326c1.219 1.539.54 6.082-.06 8.768-1.268-2.532-3.102-6.904-2.264-8.602.118-.238.345-.593 1.126-.65.592-.044.934.15 1.198.484zm-1.171 9.824c-2.73.027-7.286-.265-8.375-1.82-.16-.228-.34-.611-.088-1.295.198-.537.493-.918 1.144-.97 2.102-.166 5.396 2.405 7.318 4.085zm11.332-1.836a.495.495 0 00-.243.104c-.062.05-6.21 5.17-4.218 14.404.058.27.299.454.554.418a.525.525 0 00.432-.637c-1.853-8.57 3.628-13.156 3.86-13.35a.543.543 0 00.081-.741.498.498 0 00-.467-.198z" fill="#253269"/><path d="M239.971 302.46c-27.257 26.91-7.11 72.927 2.627 91.185 10.573-.67 29.046-3.836 49.51-16.425 13.576-8.352 22.608-20.658 28.533-32.014-14.195-20.596-52.919-70.14-80.67-42.746z" fill="#ffb325"/><path d="M242.597 393.646c2.61 4.892 4.475 7.81 4.475 7.81 65.137-3.765 79.079-47.855 79.079-47.855s-2.027-3.34-5.51-8.394c-16.877 28.989-43.479 45.966-78.044 48.439z" fill="#e58aa2"/><path d="M168.409 299.683s45.844-2.936 57.576-3.669c11.738-.732 38.877.733 38.877.733s19.805 61.248 28.607 127.261c0 0-60.15 30.44-137.163 17.237z" fill="#ffb326"/><path d="M184.233 299.749s5.604 35.86 42.408 34.73c36.803-1.133 35.34-38.39 35.34-38.39s-42.883-4.683-77.748 3.66" fill="#e58aa2"/><path d="M130.11 241.924s-51.778 13.809-41.402 37.641c10.37 23.836 31.9 1.554 31.9 1.554s-16.614 15.912-5.59 27.374c11.023 11.465 23.379-16.207 23.379-16.207s-.912 25.286 14.883 25.557c15.795.267 15.354-45.406 15.354-45.406z" fill="#845846"/><path d="M130.11 241.924s-4.602 4.5 8.281 19.16c12.883 14.657 30.243 11.353 30.243 11.353l4.213-5.051-38.675-32.455z" fill="#e58aa2"/><path d="M324.274 174.623c-4.199 57.762-38.304 102.12-94.6 105.318-52.91 3.003-111.393-18.393-127.882-83.312-16.493-64.92 7.872-122.675 77.722-128.273 68.532-5.493 114.067 1.203 127.808 41.475 0 0 20.7 13.247 16.952 64.792z" fill="#845846"/><path d="M249.707 278.598c40.126-7.715 65.766-43.058 65.766-79.127 0-50.126-12.657-84.455-12.657-84.455-8.437-29.29-32.06-45.137-66.6-45.328-11.512-.064-24.238 1.612-38.019 5.109-55.122 13.989-74.246 64.118-60.748 127.066 8.83 41.176 31.14 63.143 57.637 72.602l3.055 36.492s3.055 13.79 24.101 13.79c23.585 0 27.043-13.79 27.043-13.79z" fill="#f6ba8b"/><path d="M195.724 239.66c-12.311-2.441-21.24-9.75-19.937-16.325 1.303-6.578 12.344-9.928 24.66-7.487 12.314 2.44 21.239 9.75 19.937 16.325-1.301 6.575-12.342 9.93-24.66 7.487z" fill="#eca278"/><path d="M167.906 227.657l-10.49-36.721S123.75 178.694 122 213.228c-1.745 34.536 34.538 36.286 45.905 14.428" fill="#f8bc8d"/><path d="M191.4 162.694c14.56-7.65 19.673-5.967 22.035-2.142 2.15 3.49-1.183 8.723-9.443 12.85-9.918 4.96-16.525 6.578-20.264 3.063 0 0-6.884-6.122 7.672-13.771z" fill="#845846"/><path d="M204.637 208.339c-3.863 0-6.996-3.816-6.996-8.526 0-4.707 3.133-8.522 6.996-8.522 3.862 0 6.993 3.815 6.993 8.522 0 4.71-3.13 8.526-6.993 8.526z" fill="#000100"/><path d="M290.634 239.66c12.314-2.442 21.241-9.75 19.937-16.325-1.305-6.578-12.34-9.928-24.66-7.487-12.31 2.44-21.238 9.75-19.936 16.325 1.302 6.575 12.34 9.93 24.659 7.487z" fill="#eca278"/><path d="M302.63 176.465s6.888-6.122-7.669-13.771c-14.56-7.65-19.675-5.967-22.035-2.142-2.153 3.49 1.183 8.723 9.444 12.85 9.917 4.96 16.522 6.578 20.26 3.063" fill="#845846"/><path d="M278.65 208.339c3.863 0 6.996-3.816 6.996-8.526 0-4.707-3.133-8.522-6.996-8.522-3.863 0-6.993 3.815-6.993 8.522 0 4.71 3.13 8.526 6.993 8.526z" fill="#000100"/><path d="M236.02 145.762a.703.703 0 00-.743.638c-.32 4.505-3.054 44.169.112 49.194 1.72 2.736 5.519 4.876 14.265-.092 2.573-1.461 4.72-1.25 6.274.268 2.583 2.527 3.184 8.371 1.258 12.261-2.454 4.954-7.995 7.52-8.051 7.547-.683.305-.46 1.327.289 1.32a.713.713 0 00.285-.062c.247-.111 6.037-2.785 8.717-8.19 2.197-4.439 1.48-10.92-1.53-13.869-1.992-1.944-4.779-2.248-7.912-.488-6.336 3.56-10.395 3.796-12.427.566-2.472-3.928-.764-36.235.103-48.353a.69.69 0 00-.64-.74zm-96.916 54.248c-7.228 1.577-11.392 8.202-11.569 8.484-.464.78.689 1.491 1.178.727.04-.064 4.04-6.416 10.695-7.86 3.857-.836 7.87.114 11.94 2.827 3.766 2.51 5.518 5.961 6.177 9.48-8.409-6.436-18.778 1.123-18.886 1.207-.542.396-.258 1.254.414 1.246a.7.7 0 00.416-.135c.105-.078 10.568-7.705 18.324-.263.497 6.605-2.275 12.853-2.322 12.955a.692.692 0 001.26.578c.05-.11 3.021-6.695 2.418-13.899-.384-4.594-2.247-9.13-7.034-12.32-3.298-2.2-6.586-3.32-9.81-3.355" fill="#763633"/><path d="M214.805 48.379c.36 5.8.736 11.603.91 17.47-1.983-5.558-5.864-10.487-10.877-13.597-2.086-1.295-4.645.616-4.133 3.02a38.75 38.75 0 004.748 11.984c-21.85-2.232-108.965-3.298-85.736 126.072 0 0 7.87-4.666 23.238-3.215 14.717 1.386 58.43-42.673 63.654-62.99 16.395 22.38 39.213 42.782 61.22 53.58 18.609 9.13 31.225 15.32 46.306 16.453 1.526.114 3.091.155 4.685.149-.047-.347-.091-.696-.138-1.043-.01-.197.032-.383.05-.57-16.946-.143-30.16-6.48-50.338-16.38-21.762-10.677-45.044-31.684-61.39-54.164.026-.192.076-.399.094-.585 0 0 59.81 68.765 111.675 68.765 2.565 0 25.6-60.24-6.029-97.644-29.81-35.25-60.2-38.475-83.424-33.676-.181-5.085-1.08-10.175-3.004-14.885-1.406-3.442-3.422-6.88-7.248-6.723-3.926.162-4.447 5.014-4.263 7.979z" fill="#845846"/><path d="M260.461 294.273c.824 0 14.578 24.756 20.356 56.388 5.486 30.057 17.05 100.669 17.05 100.669l26.958 106.723s-39.61 65.46-198.04 3.848l26.956-140.276s30.805-7.702 39.607-27.506c8.802-19.802 12.65-55.561 4.4-72.065-8.251-16.505-17.327-23.106-17.327-23.106l13.2-1.65s20.447 20.905 22.097 62.165l51.345-8.802s-6.325-44.008-17.328-55.561z" fill="#e55336"/><path d="M280.682 343.648l-11.975 1.18c-1.502.13-3.173.248-4.146 1.604-2.358 2.568.095 7.154 3.539 6.623 1.622-.162 3.246-.319 4.869-.477-1.407.873-2.304 2.506-1.565 4.527 1.435 4.935 9.423 2.123 7.451-2.623-.398-1.182-1.143-1.913-2.017-2.289 1.641-.162 3.283-.321 4.924-.492 1.317-.205 2.477-1.122 3.02-2.328 1.22-2.469-.794-5.743-3.542-5.763a3.668 3.668 0 00-.558.038zm.031.86c1.42-.05 2.88.605 3.363 2.06.764 1.865-.623 4.201-2.685 4.313l-11.227 1.103c-1.265.073-2.56.45-3.785-.056-2.844-1.099-2.233-5.736.785-6.073 4.313-.443 8.63-.852 12.945-1.283.2-.035.401-.057.604-.064zm-65.677 7.943l-11.75 1.158c-5.622-.873-7.487 8.489-.835 8.248 1.603-.16 3.206-.32 4.809-.476-1.346.875-2.184 2.5-1.502 4.525 1.702 5.059 9.288 2.39 7.449-2.62-.43-1.17-1.176-1.909-2.041-2.292 1.65-.162 3.3-.32 4.947-.49h.002c4.839-.751 4.222-8.082-.6-8.076a4.92 4.92 0 00-.479.023zm.595.766c3.47.143 4.264 6.182.115 6.467l-11.916 1.17c-4.119 1.586-7.367-4.98-2.312-6.196 4.315-.447 8.634-.852 12.95-1.283.376-.117.77-.17 1.163-.158zm62.283 10.373l-64.67 10.848s5.196 38.258 39.176 32.806c33.979-5.45 25.494-43.654 25.494-43.654z" fill="#cb3521"/><path d="M178.449 396.027l-35.91-51.524c-15.624 22.261-26.139 46.723-33.243 69.476 12.865 9.458 28.619 15.03 45.205 17.895" fill="#e9a077"/><path d="M94.577 498.461c-4.537 10.143-12.28 43.943-7.77 45.858 4.513 1.915 11.697-17.925 11.697-17.925s-6.893 24.58-2.403 26.13c4.486 1.553 10.567-24.318 10.567-24.318s-4.236 26.122-.106 27.834c7.117 2.624 8.855-28.375 8.855-28.375s1.55 25.03 7.064 25.421c5.513.388 2.806-32.008 2.806-32.008s5.563 13.56 9.623 8.184c4.057-5.374-6.51-28.262-6.51-28.262s11.27-39.557 26.1-69.126c-16.583-2.866-32.34-8.438-45.205-17.896-14.271 45.702-14.718 84.483-14.718 84.483z" fill="#f6ba8b"/><path d="M170.949 299.69c-38.292.848-55.243 48.133-60.703 68.09 8.152 6.776 23.75 17.155 47.27 22.056 15.604 3.254 30.622.51 42.725-3.678 3.828-24.72 9.694-87.33-29.292-86.468z" fill="#ffb325"/><path d="M110.247 367.782c-1.462 5.349-2.11 8.755-2.11 8.755 49.937 41.984 90.35 19.505 90.35 19.505s.817-3.815 1.753-9.882c-32.162 9.48-63.184 3.561-89.993-18.378z" fill="#e58aa2"/><path d="M235.674 234.682c5.446.52 9.668 2.263 12.901 4.995.509-.96.83-2.059.83-3.305 0-4.222-3.415-8.31-6.881-8.31-2.95-.001-6.001 3.093-6.85 6.62z" fill="#000100"/><path d="M242.524 243.361c2.446 0 4.838-1.392 6.052-3.684-3.234-2.732-7.455-4.476-12.901-4.995-.147.616-.251 1.24-.251 1.87 0 4.225 3.634 6.809 7.1 6.809z" fill="#e55336"/><path d="M249.554 286.694l.153-8.07a85.894 85.894 0 01-10.447 1.345c-14.98 1.008-30.163-.498-44.174-5.5l.898 10.746h.002l.032.008c18.065 4.43 36.545 5.039 53.536 1.47z" fill="#eca278"/><path d="M90.457 665.898a68.876 68.876 0 00-3.533 5.92s6.94 10.873 33.072 31.135c29.2 22.637 35.951 21.66 35.951 21.66s1.332-1.328 2.397-3.957c0 0 .547-8.476-7.164-23.718-5.176 2.635-9.64 7.032-12.627 12.476-24.185-15.53-39.713-32.62-48.096-43.516z" fill="#fff"/></svg>