<svg width="561" height="944" xmlns="http://www.w3.org/2000/svg"><path d="M374.778 462.514l54.241-12.663s1.756 19.048 3.753 45.138c-14.692 6.494-31.185 10.336-47.774 11.864-3.566-17.696-7.132-33.698-10.22-44.339" fill="#e9a077"/><path d="M432.773 494.99c6.02 31.526 12.889 84.834 12.446 116.063 4.705 13.623 12.993 43.045 8.477 45.045s-12.053-17.886-12.053-17.886 7.312 24.665 2.815 26.296c-4.5 1.627-11.017-24.347-11.017-24.347s4.661 26.257.52 28.042c-7.129 2.754-9.344-28.46-9.344-28.46s-1.187 25.247-6.737 25.722c-5.55.475-3.303-32.212-3.303-32.212s-5.41 13.745-9.576 8.39c-4.17-5.353 6.138-28.574 6.138-28.574s-16.465-58.17-26.143-106.219c16.59-1.525 33.085-5.37 47.777-11.86" fill="#f9bb8b"/><path d="M249.468 487.844C93.41 433.28 102.27 246.88 102.27 246.88c-4.84-11.909-12.448-51.295-7.158-53.33 5.29-2.035 12.811 21.189 12.811 21.189s-6.994-28.69-1.743-30.308c5.251-1.615 11.254 28.54 11.254 28.54s-3.862-30.373.985-32.187c8.33-2.754 9.11 33.159 9.11 33.159s2.786-28.88 9.177-29.11c6.388-.232 1.968 37.119 1.968 37.119s6.975-15.456 11.456-9.081c4.475 6.375-8.65 32.417-8.65 32.417 10.598 71.697 45.243 117.354 104.264 146.268" fill="#f6ba8b"/><path d="M142.935 411.334l5.724 5.088s17.991-35.518 58.78-50.242c0 0-3.05-4.237-5.242-6.837 0 0-36.166 11.45-59.262 51.99" fill="#e58aa2"/><path d="M201.462 365.262c2.67-.126 5.325.264 7.937 1.283 42.014 16.406 51.19 14.6 51.19 14.6l42.446-2.595 3.301.197v-.583l45.751 2.59s32.378-1.793 55.987 30.418c17.677 24.123 33.615 51.624 33.615 51.624s-21.609 27.613-65.424 37.814l3 63.026s-22.7 12.512-69.633 13.09l.007.438c-49.218 0-95.076-74.965-95.076-74.965v-30.013c-44.419-23.407-65.988-56.02-65.988-56.02s27.08-49.685 52.889-50.904z" fill="#ffb325"/><path d="M110.265 865.024c0 21.21 80.907 38.41 180.71 38.41 99.803 0 180.71-17.2 180.71-38.41 0-21.212-80.907-38.407-180.71-38.407-99.803 0-180.71 17.195-180.71 38.407" fill-opacity=".2"/><path d="M386.435 718.495a7830.135 7830.135 0 01-3.203 35.117c-3.708 39.835-7.617 79.738-8.327 88.742 0 0 41.505 14.13 42.044 24.822.543 10.692-57.41 7.72-57.41 7.72s-40.159 12.881-30.109-22.845c0 0-4.14-39.595-8.952-86.274-1.303-12.656-2.658-25.83-3.99-38.885 23.663.01 47.366-2.892 69.947-8.397" fill="#f9bb8b"/><path d="M305.888 617.056c14.037-.282 70.4 53.324 84.373 52.268-.392 8.95-1.9 27.448-3.827 49.173-22.581 5.502-46.284 8.407-69.947 8.397-5.73-56.084-11.094-109.828-10.6-109.838" fill="#e9a077"/><path d="M398.92 851.13c17.222 7.124 22.798 14.526 22.798 14.526s-.72 2.5-23.994 6.384c-1.86-7.129-1.406-14.576 1.197-20.91" fill="#fff"/><path d="M327.998 848.526c22.55 11.183 48.303-6.45 48.303-6.45 9.316 2.113 16.515 6.523 22.62 9.053-2.602 6.333-3.055 13.78-1.197 20.906-5.996 1.005-13.468 2.096-22.841 3.261-45.739 5.688-48.278-6.657-48.278-6.657-.982-12.111 1.592-19.471 1.393-20.113" fill="#334b98"/><path d="M326.605 868.638c.286 2.353.7 4.825 1.287 7.412 0 0 13.475 4.057 49.507 2.234 40.262-2.035 45.15-7.65 45.15-7.65s.161-2.044-.83-4.978c-42.285 10.692-76.757 6.795-95.114 2.982" fill="#fff"/><path d="M383.611 862.905a.57.57 0 00.52-.655c-1.31-9.48 5.024-14.018 5.296-14.207a.593.593 0 00.148-.8.543.543 0 00-.764-.163c-.07.05-7.184 5.113-5.775 15.33a.56.56 0 00.575.495m-8.086-2.398a.567.567 0 00.523-.604c-.542-10.13 5.056-14.197 5.11-14.239a.593.593 0 00.148-.8.535.535 0 00-.767-.157c-.25.174-6.173 4.437-5.595 15.254a.563.563 0 00.581.546" fill="#253269"/><path d="M377.27 836.836c.028-.003.057-.003.086-.003.61-.01 1.03.193 1.33.632 1.2 1.772.086 6.658-.787 9.53-1.172-2.862-2.806-7.764-1.756-9.546.147-.247.424-.577 1.126-.613m.732 12.3a.55.55 0 00.488-.372c.324-.908 3.114-8.987 1.098-11.963-.507-.748-1.284-1.133-2.25-1.12-1.204.048-1.827.642-2.135 1.162-1.778 3.01 1.852 11.058 2.27 11.963.096.212.305.34.526.33z" fill="#253269"/><path d="M368.972 843c2.083-.103 5.618 3.007 7.63 5.055-2.969-.196-7.9-.886-8.959-2.67-.154-.26-.324-.694.007-1.413.263-.571.623-.873 1.13-.953.06-.01.125-.016.192-.02m9.033 6.27a.552.552 0 00.478-.34.588.588 0 00-.102-.627c-.636-.712-6.282-6.933-9.768-6.423-.867.135-1.544.684-1.958 1.59-.52 1.135-.26 1.999.048 2.519 1.794 3.017 10.304 3.264 11.267 3.28.013.004.026 0 .035 0" fill="#253269"/><path d="M279.624 751.347c-13.196 41.986-30.34 95.543-30.34 95.543 3.842 36.915-33.548 17.405-33.548 17.405s-48.932 9.495-46.585-.954c2.35-10.445 35.043-20.948 35.043-20.948.93-10.056 6.532-59.168 11.703-103.497 1.233-10.551 2.436-20.807 3.55-30.225 21.398 8.805 44.554 14.306 68.275 16.733a6602.69 6602.69 0 01-8.098 25.943" fill="#f6ba8b"/><path d="M294.58 702.015c.256.051-2.546 9.443-6.857 23.39-23.721-2.426-46.878-7.928-68.275-16.733 2.109-17.844 3.887-32.61 4.86-40.236 13.587 3.409 56.488 30.918 70.271 33.579" fill="#e9a077"/><path d="M180.111 849.381c-16.952 7.743-22.254 15.344-22.254 15.344s.808 2.468 24.209 5.505c1.598-7.187.876-14.615-1.955-20.849" fill="#fff"/><path d="M250.894 844.21c-22.132 11.995-48.505-4.694-48.505-4.694-9.229 2.45-16.265 7.117-22.277 9.864 2.831 6.237 3.553 13.662 1.955 20.849 6.031.786 13.536 1.605 22.944 2.43 45.915 4.032 48.005-8.4 48.005-8.4.542-12.137-2.298-19.398-2.122-20.05" fill="#334b98"/><path d="M253.016 864.259a74.603 74.603 0 01-1.017 7.453s-13.322 4.542-49.395 4.025c-40.31-.574-45.398-6.009-45.398-6.009s-.234-2.035.649-5c42.644 9.15 76.955 4.009 95.161-.47" fill="#fff"/><path d="M195.84 860.594c-.017 0-.036 0-.052-.003a.573.573 0 01-.491-.632c.966-9.52-5.53-13.829-5.807-14.008a.59.59 0 01-.18-.793.544.544 0 01.761-.19c.074.049 7.364 4.85 6.324 15.11a.559.559 0 01-.556.516m7.994-2.689a.565.565 0 01-.542-.588c.173-10.14-5.566-14.001-5.624-14.043a.592.592 0 01-.177-.793.534.534 0 01.758-.183c.26.16 6.33 4.208 6.147 15.039-.007.317-.257.574-.562.568" fill="#253269"/><path d="M202.38 834.887c1.117 1.74-.34 6.702-1.406 9.604-.98-2.844-2.27-7.682-1.133-9.498.282-.45.693-.668 1.303-.681.029-.003.058 0 .087 0 .703.01.992.33 1.149.575m-1.429 11.745a.553.553 0 00.51-.347c.39-.921 3.724-9.094 1.837-12.04-.327-.508-.973-1.079-2.176-1.085-.963.022-1.727.44-2.206 1.203-1.906 3.047 1.172 11.017 1.528 11.916a.56.56 0 00.504.353z" fill="#253269"/><path d="M209.94 840.184c.51.061.882.35 1.165.912.356.706.205 1.146.057 1.412-.992 1.82-5.896 2.687-8.856 2.992 1.939-2.122 5.357-5.357 7.44-5.329.068 0 .132.004.193.013m-8.955 6.58c.963-.054 9.456-.606 11.138-3.69.292-.53.52-1.4-.042-2.517-.446-.89-1.142-1.413-2.012-1.519-3.506-.382-8.92 6.035-9.53 6.773a.599.599 0 00-.08.63.55.55 0 00.49.324z" fill="#253269"/><path d="M352.087 380.758s-.63 38.484-41.228 38.892c-40.6.41-44.737-39.386-44.737-39.386s46.383-6.873 85.965.494m24.177 119.852l-2.6-7.203s34.811-5.601 63.624-38.012c0 0 2.799 4.4 4.4 7.402 0 0-19.208 31.41-65.424 37.813" fill="#e58aa2"/><path d="M307.037 711.652c-56.004-.815-100.84-15.568-100.84-15.568 3.604-39.614 22.81-195.074 22.81-195.074 9.003-18.605 21.008-51.619 21.008-51.619v-67.826l12.606-1.8c4.802 18.608 4.201 67.225 4.201 67.225 5.104-1.02 80.473-.953 85.23 0 0 0-.6-48.617 4.202-67.225l12.606 1.8v67.826s12.005 33.014 21.009 51.62c0 0 19.208 155.46 22.81 195.073 0 0-44.837 14.753-100.84 15.568v.039c-.806 0-1.599-.014-2.401-.02-.8.007-1.596.02-2.401.02z" fill="#e55336"/><path d="M411.05 318.943s56.494 15.068 45.176 41.075c-11.318 26.003-34.806 1.691-34.806 1.691s18.124 17.363 6.096 29.872c-12.027 12.506-25.51-17.687-25.51-17.687s.996 27.59-16.238 27.885c-17.234.292-16.753-49.542-16.753-49.542z" fill="#845846"/><path d="M411.05 318.943s5.02 4.912-9.037 20.907c-14.056 15.995-32.998 12.387-32.998 12.387l-4.596-5.508 42.197-35.416z" fill="#e58aa2"/><path d="M219.218 322.144s-56.492 15.067-45.177 41.074c11.319 26.004 34.809 1.692 34.809 1.692s-18.123 17.362-6.099 29.872c12.028 12.505 25.51-17.687 25.51-17.687s-.996 27.59 16.238 27.885c17.234.295 16.753-49.543 16.753-49.543z" fill="#845846"/><path d="M219.218 322.144s-5.02 4.914 9.036 20.906c14.056 15.995 32.998 12.387 32.998 12.387l4.597-5.508-42.198-35.415z" fill="#e58aa2"/><path d="M203.07 176.017s-20.563 15.054-16.278 71.296c4.802 63.027 40.692 110.822 105.064 114.312 60.504 3.28 123.361-17.052 142.22-87.885 18.858-70.834-7.855-127.235-84.858-142.977-77.003-15.741-130.432 1.313-146.148 45.254" fill="#845846"/><path d="M340.32 347.088l-1.548 18.49c-19.596 5.062-39.813 5.672-58.5 1.605l-.344-26.447z" fill="#eca278"/><path d="M338.772 365.578l-2.35 28.09s-3.338 15.042-26.298 15.042c-25.737 0-29.51-15.042-29.51-15.042l-.343-26.485c18.689 4.067 38.905 3.457 58.501-1.605m-109.67-185.704s-14.31 37.457-14.31 92.15c0 42.677 34.073 84.448 86.174 87.831 48.973 3.181 99.85-16.534 115.114-85.22 15.263-68.687-6.362-123.38-68.686-138.644-62.327-15.263-105.575 1.271-118.292 43.883" fill="#f8bc8d"/><path d="M236.515 302.776L225.07 262.71s-36.728-13.357-38.638 24.325c-1.907 37.681 37.681 39.591 50.084 15.741" fill="#f8bc8d"/><path d="M223.636 304.961a.755.755 0 01-.687-1.069c.084-.18 8.138-18.296-4.5-26.722-4.442-2.96-8.82-3.997-13.026-3.085-7.257 1.576-11.626 8.51-11.671 8.577a.755.755 0 01-1.284-.793c.19-.308 4.731-7.537 12.621-9.257 4.623-1.005 9.4.102 14.198 3.303 13.71 9.138 5.126 28.41 5.036 28.606a.755.755 0 01-.687.44" fill="#763633"/><path d="M205.034 290.19a.743.743 0 01-.604-.304.753.753 0 01.151-1.057c.125-.093 12.798-9.34 22.2.074a.756.756 0 01-1.069 1.066c-8.484-8.497-20.11-.013-20.226.074a.763.763 0 01-.452.148m102.407 19.083c11.536 0 12.875-9.59 12.888-9.694a.754.754 0 00-.655-.84c-.392-.061-.79.237-.844.651-.052.389-1.38 9.434-13.488 8.266-.414-.01-.784.266-.825.68a.758.758 0 00.677.825c.79.077 1.538.113 2.247.113" fill="#763633"/><path d="M336.56 307.704c1.421 7.174 13.465 10.833 26.902 8.17 13.44-2.662 23.179-10.639 21.757-17.813-1.422-7.177-13.47-10.833-26.906-8.17-13.437 2.662-23.176 10.639-21.754 17.813" fill="#eca278"/><path d="M393.82 302.776l11.446-40.066s36.728-13.357 38.638 24.325c1.907 37.681-37.682 39.591-50.085 15.741" fill="#f8bc8d"/><path d="M376.555 246.92s7.511-6.676-8.372-15.025c-15.882-8.346-21.464-6.51-24.039-2.337-2.35 3.807 1.287 9.518 10.304 14.024 10.82 5.412 18.027 7.174 22.107 3.339" fill="#845846"/><path d="M346.11 272.398c0 5.136 3.416 9.299 7.63 9.299 4.215 0 7.634-4.163 7.634-9.3 0-5.138-3.419-9.302-7.633-9.302-4.215 0-7.63 4.164-7.63 9.303" fill="#000100"/><path d="M286.815 307.704c-1.422 7.174-13.47 10.833-26.906 8.17-13.437-2.662-23.176-10.639-21.754-17.813 1.422-7.177 13.47-10.833 26.906-8.17 13.437 2.662 23.176 10.639 21.754 17.813" fill="#eca278"/><path d="M246.82 246.92s-7.512-6.676 8.37-15.025c15.883-8.346 21.465-6.51 24.04-2.337 2.35 3.807-1.287 9.518-10.304 14.024-10.82 5.412-18.027 7.174-22.107 3.339" fill="#845846"/><path d="M280.616 272.398c0 5.136-3.415 9.299-7.633 9.299-4.215 0-7.63-4.163-7.63-9.3 0-5.138 3.415-9.302 7.63-9.302 4.218 0 7.633 4.164 7.633 9.303" fill="#000100"/><path d="M406.698 304.961a.755.755 0 00.687-1.069c-.083-.18-8.137-18.296 4.5-26.722 4.443-2.96 8.821-3.997 13.026-3.085 7.258 1.576 11.627 8.51 11.672 8.577a.755.755 0 001.284-.793c-.19-.308-4.732-7.537-12.622-9.257-4.622-1.005-9.399.102-14.197 3.303-13.71 9.138-5.127 28.41-5.037 28.606.129.277.401.44.687.44" fill="#763633"/><path d="M425.301 290.19a.754.754 0 00.453-1.361c-.126-.093-12.798-9.34-22.2.074a.756.756 0 001.069 1.066c8.483-8.497 20.11-.013 20.225.074.135.1.296.148.453.148m-120.426.849a.752.752 0 00.687-.443.759.759 0 00-.372-1.002c-.061-.025-6.105-2.828-8.783-8.23-2.102-4.247-1.447-10.622 1.371-13.382 1.695-1.653 3.987-1.794 6.648-.401.087.045.218.122.395.224 9.296 5.396 13.488 2.973 15.369-.016 3.454-5.479.469-48.755.115-53.67a.769.769 0 00-.808-.703.762.762 0 00-.7.81c.947 13.22 2.812 48.476.119 52.76-2.222 3.525-6.706 3.365-13.334-.487-.206-.119-.36-.205-.456-.26-3.246-1.692-6.23-1.46-8.404.664-3.287 3.217-4.067 10.285-1.669 15.129 2.921 5.9 9.241 8.817 9.511 8.94a.767.767 0 00.311.067" fill="#763633"/><path d="M324.475 128.476s142.958-24.17 110.611 136.846c0 0-9.604-5.094-28.363-3.512-18.759 1.583-41.122-55.734-43.289-76.338 0 0-87.965 76.14-153.444 76.14-10.041 0-18.258 9.446-20.4 12.714-2.137 3.264-28.722-74.734 9.887-115.545 47.44-50.146 96.138-40.95 124.998-30.305" fill="#845846"/><path d="M333.22 138.118c7.112-5.948 12.091-14.367 14.007-23.432.556-2.62-2.237-4.71-4.513-3.297-6.038 3.75-10.599 9.91-12.21 16.85.446-7.024.895-14.047 1.338-21.074.183-2.86.129-6.25-2.208-7.91-1.93-1.37-4.735-.853-6.58.627-1.846 1.48-2.918 3.707-3.772 5.912-3.637 9.412-4.33 19.934-1.965 29.74m-99.262 128.168c18.457 0 34.378-5.707 57.079-13.841l1.57-.565c34.879-12.496 74.242-42.798 95.726-73.687l-1.36-.947c-20.968 30.144-60.89 60.876-94.925 73.07l-1.573.566c-33.83 12.124-52.466 18.8-87.156 9.023l-.45 1.595c11.807 3.332 21.77 4.786 31.089 4.786" fill="#845846"/><path d="M367.712 444.473a3.446 3.446 0 012.112 1.226c.594.722.867 1.63.777 2.558a3.47 3.47 0 01-1.262 2.36 3.46 3.46 0 01-2.558.773l-14.592-1.435a3.503 3.503 0 01-2.36-1.261 3.473 3.473 0 01-.776-2.555c.09-.931.539-1.77 1.261-2.36a3.473 3.473 0 012.555-.777l14.596 1.439c.083.006.167.019.247.032m-15.928 6.378c.103.016.209.032.312.042l14.595 1.434a4.389 4.389 0 003.245-.985 4.394 4.394 0 001.602-2.995 4.403 4.403 0 00-.985-3.245 4.384 4.384 0 00-2.995-1.599l-14.596-1.438a4.391 4.391 0 00-3.245.989 4.393 4.393 0 00-1.602 2.992 4.403 4.403 0 00.986 3.245 4.399 4.399 0 002.683 1.56" fill="#cb3521"/><path d="M351.652 469.998l-84.633-.6s-3.001 50.422 41.418 50.422c44.416 0 43.215-49.818 43.215-49.818" fill="#cb3521" opacity=".8"/><path d="M363.085 456.746a4.309 4.309 0 11-8.13-2.86 4.31 4.31 0 018.13 2.86M251.391 444.44l14.596-1.435a3.47 3.47 0 012.558.773 3.48 3.48 0 011.258 2.36 3.458 3.458 0 01-.777 2.558 3.505 3.505 0 01-2.356 1.258l-14.598 1.438a3.482 3.482 0 01-2.556-.777 3.483 3.483 0 01-1.261-2.359 3.485 3.485 0 01.777-2.558 3.47 3.47 0 012.36-1.258m18.363 4.853a4.41 4.41 0 00.986-3.249 4.402 4.402 0 00-1.599-2.991 4.401 4.401 0 00-3.248-.986l-14.596 1.435a4.37 4.37 0 00-2.992 1.599 4.396 4.396 0 00-.988 3.245 4.421 4.421 0 001.598 2.995 4.409 4.409 0 003.252.985l14.592-1.435a4.41 4.41 0 002.995-1.599" fill="#cb3521"/><path d="M255.77 456.746a4.309 4.309 0 005.496 2.636 4.31 4.31 0 10-2.86-8.131 4.31 4.31 0 00-2.636 5.495" fill="#cb3521"/><path d="M102.61 223.997s16.663-14.627 30.347-5.524" fill="none" stroke="#6c4820" stroke-width="1.339" stroke-linecap="round" stroke-miterlimit="10"/></svg>