<svg width="641" height="791" xmlns="http://www.w3.org/2000/svg"><path d="M478.75 729.178c0 19.44-74.152 35.203-165.621 35.203-91.47 0-165.621-15.763-165.621-35.203 0-19.44 74.15-35.2 165.62-35.2s165.621 15.76 165.621 35.2" fill-opacity=".2"/><path d="M367.034 383.138c143.027-50.01 138.573-239.174 138.573-239.174 4.436-10.915 11.409-47.012 6.56-48.877-4.848-1.865-11.74 19.42-11.74 19.42s6.41-26.296 1.597-27.778c-4.813-1.48-10.315 26.156-10.315 26.156s3.54-27.836-.903-29.498c-7.634-2.524-8.349 30.39-8.349 30.39s-2.553-26.469-8.41-26.68c-5.855-.212-1.804 34.02-1.804 34.02s-6.393-14.166-10.5-8.323c-4.1 5.843 7.929 29.71 7.929 29.71s-12.333 49.733-28.902 81.974c-19.743 38.421-46.761 59.185-70.323 70.411" fill="#f6ba8b"/><path d="M505.295 124.824s-15.271-13.406-27.813-5.063" fill="none" stroke="#6c4820" stroke-width="1.227" stroke-linecap="round" stroke-miterlimit="10"/><path d="M273.966 383.138c-143.027-50.01-138.573-239.174-138.573-239.174-4.439-10.915-11.408-47.012-6.56-48.877 4.848-1.865 11.741 19.42 11.741 19.42s-6.41-26.296-1.597-27.778c4.81-1.48 10.314 26.156 10.314 26.156s-3.54-27.836.903-29.498c7.634-2.524 8.346 30.39 8.346 30.39s2.557-26.469 8.414-26.68c5.855-.212 1.804 34.02 1.804 34.02s6.392-14.166 10.5-8.323c4.103 5.843-7.93 29.71-7.93 29.71s12.33 49.733 28.902 81.974c19.743 38.421 46.762 59.185 70.324 70.411" fill="#f6ba8b"/><path d="M135.706 124.824s15.272-13.406 27.813-5.063" fill="none" stroke="#6c4820" stroke-width="1.227" stroke-linecap="round" stroke-miterlimit="10"/><path d="M383.924 712.559c-3.519 33.832 30.746 15.951 30.746 15.951s44.846 8.702 42.696-.874c-2.151-9.573-32.117-19.199-32.117-19.199-4.866-44.784-9.104-81.336-13.978-122.555-19.614 8.07-40.833 13.112-62.574 15.336" fill="#f6ba8b"/><path d="M342.413 579.78c-.236.047 2.333 8.655 6.284 21.438 21.74-2.224 42.96-7.267 62.574-15.336-1.933-16.354-3.563-29.887-4.454-36.877-12.456 3.124-51.772 28.336-64.404 30.775" fill="#e9a077"/><path d="M447.322 714.842c15.533 7.096 20.396 14.062 20.396 14.062s-.738 2.263-22.185 5.046c-1.468-6.587-.806-13.395 1.789-19.108" fill="#fff"/><path d="M382.45 710.102c20.285 10.994 44.453-4.301 44.453-4.301 8.46 2.244 14.91 6.522 20.42 9.04-2.595 5.716-3.26 12.52-1.792 19.108-5.528.72-12.406 1.47-21.029 2.227-42.084 3.695-43.996-7.7-43.996-7.7-.497-11.123 2.106-17.777 1.944-18.374" fill="#334b98"/><path d="M380.506 728.477c.182 2.162.48 4.442.93 6.831 0 0 12.211 4.163 45.272 3.69 36.942-.527 41.608-5.508 41.608-5.508s.214-1.865-.598-4.583c-39.083 8.387-70.526 3.674-87.212-.43" fill="#fff"/><path d="M432.905 725.119c.018 0 .036 0 .05-.003a.525.525 0 00.45-.58c-.885-8.725 5.07-12.673 5.322-12.838a.543.543 0 00.165-.727.499.499 0 00-.697-.173c-.068.044-6.752 4.445-5.799 13.847.03.277.253.477.51.474m-7.326-2.465h.002a.517.517 0 00.497-.539c-.159-9.293 5.102-12.832 5.154-12.87a.542.542 0 00.162-.727.492.492 0 00-.697-.168c-.235.147-5.798 3.857-5.63 13.783a.514.514 0 00.511.52" fill="#253269"/><path d="M426.912 701.557c-1.023 1.595.312 6.143 1.289 8.803.897-2.607 2.083-7.04 1.038-8.705-.258-.412-.638-.612-1.194-.624-.027-.003-.053 0-.082 0-.642.01-.906.303-1.05.526m1.309 10.765a.506.506 0 01-.468-.318c-.356-.844-3.413-8.334-1.683-11.035.3-.465.891-.988 1.998-.994.88.02 1.58.403 2.018 1.103 1.747 2.792-1.074 10.097-1.4 10.92a.513.513 0 01-.463.324z" fill="#253269"/><path d="M419.983 706.413c-.468.056-.806.32-1.065.835-.327.648-.189 1.05-.056 1.295.912 1.668 5.404 2.462 8.12 2.742-1.78-1.945-4.91-4.91-6.82-4.884-.062 0-.12.003-.18.012m8.212 6.03c-.886-.05-8.67-.555-10.212-3.382-.267-.486-.476-1.283.039-2.307.411-.815 1.05-1.294 1.847-1.391 3.213-.35 8.173 5.53 8.735 6.207a.548.548 0 01.07.577.497.497 0 01-.447.297z" fill="#253269"/><path d="M280.173 624.993c-12.094 38.48-27.807 87.566-27.807 87.566 3.522 33.832-30.746 15.951-30.746 15.951s-44.843 8.702-42.693-.874c2.151-9.573 32.114-19.199 32.114-19.199.854-9.217 5.987-54.228 10.727-94.856 1.13-9.67 2.232-19.069 3.253-27.7 19.614 8.07 40.834 13.112 62.575 15.336a5193.495 5193.495 0 01-7.423 23.776" fill="#f6ba8b"/><path d="M293.881 579.78c.236.047-2.333 8.655-6.284 21.438-21.74-2.224-42.963-7.267-62.574-15.336 1.933-16.354 3.563-29.887 4.451-36.877 12.456 3.124 51.775 28.336 64.407 30.775" fill="#e9a077"/><path d="M188.971 714.842c-15.536 7.096-20.396 14.062-20.396 14.062s.741 2.263 22.185 5.046c1.468-6.587.806-13.395-1.789-19.108" fill="#fff"/><path d="M253.844 710.102c-20.284 10.994-44.455-4.301-44.455-4.301-8.461 2.244-14.91 6.522-20.417 9.04 2.595 5.716 3.257 12.52 1.789 19.108 5.528.72 12.406 1.47 21.031 2.227 42.081 3.695 43.997-7.7 43.997-7.7.497-11.123-2.107-17.777-1.945-18.374" fill="#334b98"/><path d="M255.789 728.477a68.374 68.374 0 01-.933 6.831s-12.209 4.163-45.273 3.69c-36.941-.527-41.607-5.508-41.607-5.508s-.212-1.865.597-4.583c39.083 8.387 70.527 3.674 87.216-.43" fill="#fff"/><path d="M203.386 725.119c-.014 0-.032 0-.047-.003a.525.525 0 01-.45-.58c.883-8.725-5.069-12.673-5.322-12.838a.54.54 0 01-.165-.727.495.495 0 01.695-.173c.067.044 6.751 4.445 5.798 13.847a.514.514 0 01-.509.474m7.326-2.465a.517.517 0 01-.497-.539c.156-9.293-5.104-12.832-5.154-12.87a.537.537 0 01-.162-.727.489.489 0 01.694-.168c.236.147 5.802 3.857 5.634 13.783a.519.519 0 01-.515.52" fill="#253269"/><path d="M208.328 701.032c-.027 0-.053-.003-.08 0-.559.012-.938.209-1.194.623-1.044 1.663.141 6.099 1.035 8.706.98-2.66 2.313-7.208 1.292-8.803-.144-.223-.409-.517-1.053-.526m-.26 11.29a.513.513 0 01-.461-.323c-.327-.827-3.148-8.128-1.4-10.92.438-.703 1.138-1.086 2.02-1.103 1.104.005 1.695.526 1.995.994 1.727 2.698-1.33 10.188-1.682 11.032a.508.508 0 01-.468.32z" fill="#253269"/><path d="M216.132 706.401c-1.91-.026-5.042 2.94-6.822 4.884 2.715-.283 7.21-1.074 8.12-2.742.132-.244.273-.647-.056-1.294-.26-.515-.598-.783-1.065-.836a1.076 1.076 0 00-.177-.012m-8.067 6.043a.504.504 0 01-.447-.297.543.543 0 01.074-.577c.559-.677 5.522-6.557 8.734-6.21.797.1 1.433.58 1.845 1.394.515 1.024.306 1.821.038 2.307-1.542 2.827-9.326 3.333-10.208 3.383z" fill="#253269"/><path d="M314.038 283.2l3.901-.229 38.904 2.377s8.408 1.656 46.915-13.38c25.526-9.97 55.746 45.476 55.746 45.476s-19.77 29.89-60.48 51.342v27.507s-42.025 68.709-87.133 68.709" fill="#ffb325"/><path d="M464.671 313.016l-5.245 4.663s-16.49-32.552-53.872-46.047c0 0 2.795-3.883 4.804-6.266 0 0 33.146 10.494 54.313 47.65" fill="#e58aa2"/><path d="M325.859 283.327l-2.148-.127m0 0l-3.903-.229-38.904 2.377s-8.405 1.656-46.912-13.38c-25.53-9.97-55.746 45.476-55.746 45.476s16.69 31.54 57.396 52.993v27.507s45.109 67.058 90.217 67.058" fill="#ffb325"/><path d="M280.904 285.348s.577 35.27 37.786 35.644c37.212.377 41.002-36.097 41.002-36.097s-42.511-6.299-78.788.453m-107.827 27.668l5.245 4.663s16.487-32.552 53.872-46.047c0 0-2.795-3.883-4.804-6.266 0 0-33.146 10.494-54.313 47.65" fill="#e58aa2"/><path d="M322.193 588.613c51.328-.747 104.338-15.183 104.338-15.183-3.301-36.306-26.554-180.072-26.554-180.072-8.252-17.054-25.524-45.108-25.524-45.108v-62.162l-11.553-1.65c-4.398 17.054-3.85 61.612-3.85 61.612-4.678-.936-73.754-.874-78.114 0 0 0 .55-44.558-3.851-61.613l-11.553 1.65v62.163s-20.355 29.708-28.607 46.759c0 0-23.838 138.81-27.136 175.12 0 0 56.676 17.737 108.003 18.484v.035c.738 0 1.465-.012 2.2-.017.733.005 1.463.017 2.201.017z" fill="#e55336"/><path d="M226.866 228.695s-51.778 13.809-41.405 37.644c10.373 23.833 31.9 1.55 31.9 1.55s-16.61 15.913-5.587 27.378c11.023 11.462 23.379-16.21 23.379-16.21s-.912 25.286 14.883 25.556c15.795.268 15.354-45.405 15.354-45.405z" fill="#845846"/><path d="M226.866 228.695s-4.602 4.5 8.281 19.16c12.883 14.66 30.243 11.353 30.243 11.353l4.213-5.048-38.675-32.458z" fill="#e58aa2"/><path d="M402.679 231.628s51.778 13.81 41.401 37.645c-10.37 23.832-31.899 1.55-31.899 1.55s16.613 15.913 5.59 27.377c-11.023 11.462-23.38-16.21-23.38-16.21s.913 25.286-14.882 25.557c-15.796.27-15.357-45.406-15.357-45.406z" fill="#845846"/><path d="M402.679 231.628s4.598 4.504-8.281 19.16c-12.883 14.66-30.246 11.353-30.246 11.353l-4.21-5.048 38.674-32.458z" fill="#e58aa2"/><path d="M417.48 97.702s18.846 13.798 14.919 65.343c-4.401 57.764-37.298 101.57-96.295 104.767-55.449 3.007-113.06-15.627-130.344-80.547-17.284-64.919 7.202-116.61 77.775-131.038C354.11 41.8 403.077 57.43 417.48 97.702" fill="#845846"/><path d="M291.69 254.49l1.417 16.945c17.96 4.64 36.489 5.198 53.62 1.47l.311-24.237z" fill="#eca278"/><path d="M293.107 271.294l2.154 25.886s3.056 13.786 24.103 13.786c23.585 0 27.045-13.786 27.045-13.786l.318-24.416c-17.131 3.728-35.66 3.169-53.62-1.47M393.62 101.237s13.116 34.33 13.116 84.457c0 39.112-31.226 77.395-78.982 80.496-44.882 2.916-91.51-15.154-105.5-78.105-13.988-62.95 5.828-113.078 62.951-127.066 57.12-13.99 96.757 1.165 108.416 40.218" fill="#f8bc8d"/><path d="M386.826 224.981l10.49-36.72s33.665-12.242 35.413 22.296c1.747 34.532-34.538 36.283-45.903 14.424" fill="#f8bc8d"/><path d="M398.63 226.985a.694.694 0 00.63-.98c-.076-.167-7.457-16.768 4.122-24.49 4.072-2.713 8.084-3.663 11.941-2.828 6.652 1.445 10.656 7.796 10.697 7.861a.691.691 0 001.177-.727c-.177-.282-4.34-6.907-11.57-8.484-4.234-.921-8.612.094-13.013 3.027-12.565 8.376-4.695 26.039-4.616 26.218a.696.696 0 00.633.403" fill="#763633"/><path d="M415.679 213.448c.209 0 .42-.097.553-.28a.688.688 0 00-.138-.967c-.115-.089-11.73-8.564-20.346.064a.692.692 0 10.98.98c7.775-7.787 18.43-.012 18.536.067a.693.693 0 00.415.136" fill="#763633"/><path d="M295.136 206.291c-1.304 6.576-12.342 9.93-24.66 7.488-12.314-2.44-21.24-9.75-19.937-16.325 1.303-6.578 12.344-9.929 24.66-7.487 12.314 2.439 21.24 9.75 19.937 16.324" fill="#eca278"/><path d="M258.48 150.583s-6.884-6.119 7.672-13.77c14.557-7.65 19.673-5.967 22.032-2.143 2.154 3.49-1.18 8.723-9.443 12.854-9.918 4.96-16.522 6.575-20.261 3.06" fill="#845846"/><path d="M286.382 173.933c0 4.707-3.13 8.523-6.993 8.523-3.863 0-6.996-3.816-6.996-8.523 0-4.71 3.133-8.525 6.996-8.525 3.862 0 6.993 3.815 6.993 8.525" fill="#000100"/><path d="M340.727 206.291c1.303 6.576 12.34 9.93 24.659 7.488 12.312-2.44 21.243-9.75 19.937-16.325-1.303-6.578-12.341-9.929-24.66-7.487-12.314 2.439-21.24 9.75-19.936 16.324" fill="#eca278"/><path d="M377.382 150.583s6.887-6.119-7.67-13.77c-14.559-7.65-19.675-5.967-22.034-2.143-2.153 3.49 1.18 8.723 9.44 12.854 9.918 4.96 16.525 6.575 20.264 3.06" fill="#845846"/><path d="M346.41 175.4c0 4.707 3.13 8.523 6.992 8.523 3.863 0 6.996-3.816 6.996-8.523 0-4.71-3.133-8.526-6.996-8.526-3.863 0-6.993 3.816-6.993 8.526" fill="#000100"/><path d="M242.657 224.981l-10.491-36.72s-33.662-12.242-35.412 22.296c-1.748 34.532 34.535 36.283 45.903 14.424" fill="#f8bc8d"/><path d="M230.853 226.985a.692.692 0 01-.63-.98c.077-.167 7.458-16.768-4.124-24.49-4.072-2.713-8.084-3.663-11.938-2.828-6.652 1.445-10.656 7.796-10.697 7.861a.695.695 0 01-.953.224.689.689 0 01-.224-.95c.174-.283 4.337-6.908 11.568-8.485 4.236-.921 8.614.094 13.012 3.027 12.565 8.376 4.698 26.039 4.616 26.218a.695.695 0 01-.63.403" fill="#763633"/><path d="M213.804 213.448a.69.69 0 01-.415-1.247c.114-.089 11.73-8.564 20.346.064a.692.692 0 11-.98.98c-7.775-7.787-18.43-.012-18.537.067a.699.699 0 01-.414.136m110.368-22.429a.693.693 0 01-.285-1.324c.056-.024 5.596-2.592 8.05-7.543 1.923-3.892 1.326-9.735-1.257-12.265-1.553-1.515-3.657-1.644-6.096-.368-.076.042-.2.112-.362.206-8.516 4.946-12.361 2.724-14.085-.014-3.163-5.022-.427-44.685-.106-49.192a.708.708 0 01.741-.641c.383.03.668.359.641.741-.867 12.118-2.577 44.429-.105 48.356 2.035 3.23 6.145 3.083 12.22-.447.186-.109.327-.191.415-.238 2.977-1.55 5.71-1.339 7.705.609 3.01 2.947 3.727 9.425 1.53 13.865-2.68 5.407-8.473 8.081-8.717 8.193a.716.716 0 01-.288.062" fill="#763633"/><path d="M306.21 54.13S175.19 31.979 204.837 179.55c0 0-.139 4.601 17.054 6.049 17.192 1.45 46.63-60.347 48.615-79.232 0 0 79.51 77.031 139.523 77.031 9.202 0 17.843 1.41 19.805 4.404 1.96 2.992 26.324-68.493-9.061-105.897-43.479-45.958-88.113-37.53-114.561-27.774" fill="#845846"/><path d="M298.195 62.968c-6.519-5.451-11.082-13.168-12.838-21.476-.51-2.4 2.05-4.316 4.136-3.021 5.537 3.436 9.717 9.082 11.191 15.442l-1.227-19.314c-.167-2.62-.117-5.728 2.024-7.249 1.769-1.256 4.343-.782 6.031.574 1.695 1.356 2.678 3.398 3.457 5.42 3.336 8.625 3.972 18.268 1.8 27.256M402.2 184.5c-16.731 0-31.167-5.643-51.74-13.686l-1.424-.559c-31.62-12.356-67.302-42.32-86.777-72.86l1.235-.935c19.005 29.805 55.196 60.192 86.048 72.25l1.424.56c30.666 11.988 47.559 18.59 79.008 8.92l.406 1.58c-10.703 3.294-19.735 4.73-28.18 4.73" fill="#845846"/><path d="M266.584 343.742a3.158 3.158 0 00-1.936 1.124 3.182 3.182 0 00-.712 2.345 3.18 3.18 0 001.156 2.162 3.172 3.172 0 002.345.71l13.374-1.316a3.21 3.21 0 002.162-1.156 3.183 3.183 0 00.712-2.342 3.169 3.169 0 00-1.156-2.162 3.183 3.183 0 00-2.342-.712l-13.376 1.318a2.537 2.537 0 00-.227.03m14.598 5.845c-.094.015-.191.03-.286.038l-13.376 1.315a4.023 4.023 0 01-2.975-.903 4.027 4.027 0 01-1.468-2.745 4.035 4.035 0 01.903-2.974 4.018 4.018 0 012.745-1.465l13.377-1.318a4.025 4.025 0 012.974.906 4.027 4.027 0 011.468 2.742 4.035 4.035 0 01-.903 2.974 4.031 4.031 0 01-2.46 1.43" fill="#cb3521"/><path d="M281.3 367.137l77.567-.55s2.75 46.211-37.96 46.211c-40.706 0-39.606-45.661-39.606-45.661" opacity=".8" fill="#cb3521"/><path d="M270.824 354.991a3.948 3.948 0 005.037 2.416 3.948 3.948 0 002.415-5.037 3.95 3.95 0 00-7.452 2.621m102.37-11.279l-13.377-1.315a3.18 3.18 0 00-2.345.709 3.19 3.19 0 00-1.153 2.162 3.17 3.17 0 00.709 2.345 3.213 3.213 0 002.162 1.153l13.377 1.318a3.19 3.19 0 002.345-.712 3.193 3.193 0 001.156-2.162 3.184 3.184 0 00-.715-2.345 3.172 3.172 0 00-2.16-1.153m-16.833 4.448a4.053 4.053 0 01-.9-2.977 4.034 4.034 0 011.465-2.742 4.023 4.023 0 012.974-.903l13.377 1.315c1.083.1 2.057.627 2.745 1.465a4.054 4.054 0 01-.562 5.72 4.034 4.034 0 01-2.977.902l-13.377-1.315a4.05 4.05 0 01-2.745-1.465" fill="#cb3521"/><path d="M369.177 354.991a3.949 3.949 0 11-7.451-2.62 3.948 3.948 0 015.036-2.416 3.948 3.948 0 012.415 5.036" fill="#cb3521"/><path d="M331.927 210.355c2.103-3.492 2.46-7.152 2.46-7.152-17.052-4.951-30.532-2.2-30.532-2.2s.005 1.98.809 4.521c6.22-.464 16.842-.194 27.263 4.831" fill="#000100"/><path d="M304.664 205.526c1.291 4.104 4.663 9.69 13.494 10.882 7.529 1.012 11.588-2.43 13.768-6.052-10.42-5.027-21.043-5.295-27.262-4.83" fill="#e55336"/></svg>