<svg width="641" height="791" xmlns="http://www.w3.org/2000/svg"><path d="M320.5 764.381c-90.587 0-164.023-15.61-164.023-34.863s73.436-34.86 164.023-34.86c90.587 0 164.023 15.607 164.023 34.86 0 19.252-73.436 34.863-164.023 34.863z" fill-opacity=".2"/><path d="M375.476 350.072l49.233-11.494s14.538 36.189-.938 66.714c-11.893 23.453-21.992 17.682-37.049 19.066-3.234-16.063-8.443-64.628-11.246-74.286M265.58 706.305s-37.672 12.826-38.162 22.533c-.492 9.705 52.109 7.004 52.109 7.004s36.45 11.695 27.328-20.732c4.443-42.468 7.67-73.906 11.748-113.885-21.479.008-42.992-2.628-63.489-7.625 3.063 37.403 7.32 74.155 10.466 112.705z" fill="#f9bb8b"/><path d="M251.643 549.256c.356 8.12 1.725 24.91 3.47 44.63a268.916 268.916 0 0063.489 7.622c1.32-12.934 2.615-25.678 3.812-37.572 1.197 11.894 2.49 24.638 3.81 37.572 21.48.009 42.994-2.625 63.49-7.621 1.748-19.72 3.116-36.511 3.472-44.631z" fill="#e9a077"/><path d="M264.312 706.055c-8.452 1.917-14.987 5.92-20.534 8.216 2.365 5.749 2.776 12.508 1.086 18.976 5.446.91 12.228 1.9 20.736 2.957 41.518 5.166 43.822-6.04 43.822-6.04.886-10.992-1.448-17.673-1.267-18.256-20.468 10.151-43.843-5.853-43.843-5.853z" fill="#334b98"/><path d="M265.545 722.287c.227-4.351-.695-7.53-1.818-9.74 2.311-.12 7.932-.65 9.294-2.942.281-.472.518-1.258.047-2.287-.376-.821-.989-1.328-1.777-1.445-2.138-.318-5.168 2.165-7.088 4.004.992-2.607 2.225-6.684 1.108-8.572-.28-.473-.847-1.025-1.94-1.055-.877-.024-1.58.336-2.04 1.016-1.194 1.757-.533 5.47.151 8.082-.553-.573-.958-.867-1.017-.909a.486.486 0 00-.697.147.542.542 0 00.134.725c.025.018 1.254.875 2.501 2.997 1.315 2.236 2.385 5.43 2.14 9.926-.015.283.19.546.474.55a.52.52 0 00.528-.497zm-1.09-20.432c.956 1.616-.53 6.066-1.59 8.665-.796-2.607-1.807-7.042-.717-8.653.268-.396.654-.592 1.247-.57.678.025.926.332 1.06.558zm7.707 5.92c.301.654.15 1.044.01 1.282-.96 1.615-5.435 2.246-8.135 2.423 1.772-1.8 4.836-4.585 6.925-4.579.644.002.962.357 1.2.874zM258.2 724.508c1.273-9.272-5.177-13.867-5.242-13.912a.49.49 0 00-.693.146.538.538 0 00.134.729c.243.172 6 4.292 4.809 12.894-.039.28.143.56.447.592.287.03.51-.187.545-.45z" fill="#253269"/><path d="M379.248 706.305s37.672 12.826 38.164 22.533c.49 9.705-52.11 7.004-52.11 7.004s-36.452 11.695-27.33-20.732c-4.442-42.468-7.668-73.906-11.747-113.885 21.479.008 42.992-2.628 63.489-7.625-3.063 37.403-7.32 74.155-10.466 112.705z" fill="#f9bb8b"/><path d="M380.518 706.055c8.452 1.917 14.987 5.92 20.532 8.216-2.366 5.749-2.777 12.508-1.087 18.976-5.445.91-12.228 1.9-20.735 2.957-41.515 5.166-43.82-6.04-43.82-6.04-.888-10.992 1.445-17.673 1.265-18.256 20.467 10.151 43.845-5.853 43.845-5.853z" fill="#334b98"/><path d="M385.06 708.586a.488.488 0 00-.697-.147c-.059.042-.464.336-1.017.909.685-2.61 1.34-6.321.15-8.08-.46-.681-1.164-1.046-2.04-1.02-1.093.033-1.656.584-1.936 1.059-1.117 1.887.11 5.957 1.101 8.564-1.92-1.838-4.948-4.316-7.086-3.996-.785.118-1.396.622-1.773 1.445-.471 1.027-.234 1.81.047 2.284 1.36 2.292 6.983 2.823 9.293 2.943-1.124 2.21-2.052 5.389-1.819 9.74.016.285.253.515.53.496a.514.514 0 00.47-.549c-.245-4.497.825-7.69 2.147-9.934 1.249-2.12 2.47-2.971 2.496-2.99a.543.543 0 00.135-.724zm-2.38-6.719c1.09 1.611.077 6.044-.713 8.654-1.063-2.598-2.548-7.048-1.594-8.665.135-.228.384-.536 1.062-.56.59-.02.974.171 1.245.571zm-1.887 9.613c-2.697-.178-7.174-.806-8.135-2.423-.14-.236-.293-.629.006-1.282.237-.518.56-.872 1.203-.875 2.088-.007 5.153 2.78 6.926 4.58zm6.828 12.885c-1.192-8.602 4.565-12.725 4.809-12.894a.541.541 0 00.132-.729.496.496 0 00-.693-.146c-.064.047-6.512 4.64-5.24 13.912.036.263.258.48.545.449a.514.514 0 00.447-.592z" fill="#253269"/><path d="M276.874 350.072l-49.23-11.494s-14.54 36.189.939 66.714c11.893 23.453 21.988 17.682 37.045 19.066 3.237-16.063 8.444-64.628 11.246-74.286" fill="#f9bb8b"/><path d="M396.05 453.322l-6.368-64.738c39.772-9.265 57.752-35.957 57.752-35.957s-9.288-24.69-25.336-46.582c-21.426-29.237-52.57-18.797-52.57-18.797s-27.834-2.27-41.782-2.27c-13.947 0-41.78 2.27-41.78 2.27s-31.142-10.44-52.571 18.797c-16.045 21.892-25.336 46.582-25.336 46.582s17.979 26.692 57.752 35.957l-6.366 64.738s23.89 11.588 68.302 11.905c44.409-.317 68.304-11.905 68.304-11.905z" fill="#ffb325"/><path d="M390.474 384.249s31.126-7.458 54.98-38.77c0 0 2.834 3.79 4.492 6.395 0 0-15.232 29.75-56.622 38.715zm-106.361-96.914s.57 34.93 37.421 35.3c36.85.37 40.603-35.748 40.603-35.748s-42.098-6.241-78.024.448m-19.093 96.914c.04.924-31.088-6.678-54.979-38.77 0 0-2.834 3.79-4.492 6.395 0 0 15.229 29.75 56.621 38.715z" fill="#e58aa2"/><path d="M325.002 587.673c50.832-.74 91.525-14.13 91.525-14.13-3.266-35.957-20.7-177.061-20.7-177.061-8.173-16.887-19.07-46.853-19.07-46.853v-61.562l-11.44-1.635c-4.357 16.89-3.815 61.018-3.815 61.018-4.632-.927-73.039-.865-77.36 0 0 0 1.553-44.128-2.805-61.018l-11.442-1.09-1.008 64.287s-10.896 29.966-19.069 46.853c0 0-17.431 141.104-20.7 177.06 0 0 40.693 13.39 91.525 14.13v.036c.731 0 1.454-.012 2.18-.018.728.006 1.447.018 2.179.018z" fill="#e55336"/><path d="M349.61 251.008l-54.815 5.765 3.533 42.28s3.027 13.654 23.873 13.654c23.355 0 26.781-13.654 26.781-13.654z" fill="#f8bc8d"/><path d="M245.015 246.845s-47.97 22.699-33.612 44.065c14.363 21.361 31.352-4.187 31.352-4.187s-13.337 18.468-.553 27.666c12.783 9.198 19.881-19.966 19.881-19.966s3.625 24.797 19.058 22.236c15.434-2.557 6.851-46.971 6.851-46.971z" fill="#845846"/><path d="M245.015 246.845s-3.68 5.209 11.488 17.185c15.167 11.98 31.49 5.658 31.49 5.658l3.2-5.672-43.471-24.71z" fill="#e58aa2"/><path d="M416.8 218.305s52.902 4.206 47.056 29.276c-5.848 25.07-30.798 7.208-30.798 7.208s19.024 12.533 10.331 25.67c-8.69 13.136-25.67-11.615-25.67-11.615s5.41 24.47-9.932 27.552c-15.338 3.084-23.067-41.489-23.067-41.489z" fill="#845846"/><path d="M416.8 218.305s5.289 3.563-4.644 20.144c-9.933 16.58-27.436 16.458-27.436 16.458l-5.005-4.167 31.88-38.52z" fill="#e58aa2"/><path d="M407.301 85.202s20.822 10.076 26.205 60.987c6.024 57.053-18.198 105.6-75.095 119.252-53.477 12.83-112.927 4.967-141.354-55.183-28.43-60.152-13.812-114.879 52.36-141.538 66.17-26.655 116.661-20.177 137.883 16.482" fill="#845846"/><path d="M384.69 92.906s18.908 31.099 27.86 79.93c6.984 38.1-16.6 80.967-62.56 92.516-43.198 10.854-91.85 1.582-116.718-57.242-24.868-58.823-14.517-111.194 38.628-135.02 53.145-23.829 94.461-16.144 112.79 19.816" fill="#f8bc8d"/><path d="M398.188 203.843l3.664-37.644s30.603-17.934 38.472 15.396c7.872 33.33-27.16 41.51-42.136 22.248" fill="#f8bc8d"/><path d="M286.993 236.316c-12.43-.178-22.43-5.705-22.334-12.342.096-6.64 10.25-11.875 22.68-11.697 12.435.178 22.434 5.704 22.34 12.341-.095 6.638-10.251 11.876-22.686 11.698z" fill="#eca278"/><path d="M257.75 229.591l-16.78-33.898s-34.974-5.91-30.51 28.043c4.465 33.953 40.123 29.176 47.29 5.855" fill="#f8bc8d"/><path d="M277.683 174.08c13.612-8.94 14.61-14.178 12.427-18.058-1.987-3.542-8.12-3.163-15.664 2.014-9.053 6.21-13.627 11.159-12.374 16.084 0 0 2 8.901 15.611-.04z" fill="#845846"/><path d="M290.079 204.213c-3.76.69-7.493-2.468-8.333-7.054-.84-4.586 1.528-8.862 5.289-9.552 3.763-.69 7.494 2.467 8.335 7.053.841 4.586-1.527 8.863-5.291 9.553z" fill="#000100"/><path d="M379.444 219.366c11.562-4.577 18.951-13.292 16.508-19.463-2.445-6.174-13.797-7.467-25.357-2.89-11.56 4.577-18.954 13.29-16.508 19.465 2.445 6.17 13.796 7.465 25.357 2.888z" fill="#eca278"/><path d="M364.673 141.475c-15.07 6.183-17.044 11.137-15.643 15.364 1.28 3.853 7.369 4.65 15.761 1.007 10.073-4.373 15.505-8.359 15.214-13.433 0 0-.266-9.12-15.332-2.938z" fill="#845846"/><path d="M362.179 190.995c3.764-.69 6.133-4.967 5.292-9.553-.841-4.586-4.573-7.744-8.333-7.055-3.767.69-6.134 4.968-5.294 9.554.84 4.586 4.572 7.744 8.335 7.054z" fill="#000100"/><path d="M281.742 37.383c-1.817 1.867-1.31 4.902-.68 7.428 1.512 6.055 3.027 12.11 4.488 18.17-2.675-5.728-7.639-10.32-13.5-12.622-2.263-.889-4.418 1.436-3.491 3.684a38.31 38.31 0 006.42 10.422c-33.246 5.8-103.17 30.725-60.2 138.441 0 0 7.74-6.117 24.744-7.775 16.619-1.62 27.077-53.935 26.204-73.817 24.372 20.175 58.753 36.585 88.575 41.484 22.344 3.67 37.495 6.161 53.971 3.14 3.924-.72 7.928-1.765 12.106-3.168 6.965 1.037 13.082 5.935 15.043 7.994 2.446 2.566 13.411-71.421-27.735-101.535C361.762 35.614 322.97 45.894 298.23 58.72c-.89-6.068-2.967-11.963-6.173-17.192-1.123-1.832-2.447-3.644-4.338-4.662a5.91 5.91 0 00-3.137-.699c-1.07.062-2.091.447-2.84 1.216zm72.805 123.928c-28.518-4.684-62.358-20.716-86.36-39.999h.001c12.383 7.04 93.041 51.323 147.032 41.428-19.225 5.352-35.373 2.728-60.673-1.429z" fill="#845846"/><path d="M361.319 367.791s2.727 45.762-37.59 45.762c-40.315 0-39.225-45.218-39.225-45.218zM269.93 345.166a3.137 3.137 0 00-1.918 1.11 3.127 3.127 0 00-.702 2.325 3.14 3.14 0 001.14 2.139c.658.539 1.48.79 2.321.705l13.25-1.302a3.173 3.173 0 002.14-1.145 3.12 3.12 0 00.702-2.322 3.13 3.13 0 00-1.14-2.139 3.164 3.164 0 00-2.322-.705l-13.25 1.302c-.073.009-.149.02-.222.032m14.457 5.79c-.09.014-.19.029-.283.037l-13.247 1.303a3.996 3.996 0 01-2.946-.895 3.985 3.985 0 01-1.45-2.718 3.982 3.982 0 01.89-2.946 3.994 3.994 0 012.719-1.453l13.248-1.303a3.996 3.996 0 012.945.895 3.99 3.99 0 011.451 2.718 3.982 3.982 0 01-.891 2.946 4.006 4.006 0 01-2.436 1.416" fill="#cb3521"/><path d="M274.129 356.305a3.91 3.91 0 102.392-4.988 3.91 3.91 0 00-2.392 4.988m101.381-11.17l-13.248-1.302a3.149 3.149 0 00-2.322.702 3.158 3.158 0 00-1.142 2.141 3.149 3.149 0 00.702 2.322 3.176 3.176 0 002.142 1.142l13.248 1.306a3.164 3.164 0 002.322-.706 3.156 3.156 0 001.145-2.14 3.153 3.153 0 00-.708-2.323 3.137 3.137 0 00-1.917-1.11 1.93 1.93 0 00-.222-.032m-16.671 4.405a4.01 4.01 0 01-.891-2.948 3.996 3.996 0 011.45-2.716c.83-.684 1.877-1 2.946-.894l13.248 1.302a3.977 3.977 0 012.718 1.454 4.011 4.011 0 01-.556 5.661 3.997 3.997 0 01-2.949.897l-13.248-1.305a4.675 4.675 0 01-.282-.035 4.014 4.014 0 01-2.436-1.416" fill="#cb3521"/><path d="M371.533 356.305a3.91 3.91 0 11-2.392-4.988 3.91 3.91 0 012.392 4.988" fill="#cb3521"/><path d="M406.188 425.085c-19.046 14.433-111.816-21.747-117.497-33.777-12.986-1.6 3.79-23.314 36.865-19.797 19.573 2.083 54.67-.647 80.565 14.014 22.405 12.682 15.007 33.153.067 39.56" fill="#f9bb8b"/><path d="M382.675 376.795c8.175 1.868 16.173 4.612 23.445 8.73 4.315 2.444 7.534 5.136 9.807 7.936" fill="none" stroke="#eca278" stroke-width="1.725" stroke-linecap="round"/><path d="M344.398 364.588c12.988 1.559 40.297 6.46 40.136 10.937-.157 4.481-19.38 2.75-19.38 2.75s23.037 3.809 22.585 8.13c-.451 4.32-24.246-.662-24.246-.662s23.285 6.608 23.104 10.695c-.583 6.911-26.944-3.656-26.944-3.656s20.141 10.981 18.329 15.701c-1.812 4.72-27.609-10.075-27.609-10.075s9.079 9.865 3.054 11.144c-6.028 1.282-20.9-16.342-20.9-16.342m-24.941-30.31c-13.047-.971-40.787-1.414-41.492 3.012-.705 4.428 18.49 6.427 18.49 6.427s-23.338-.693-23.725 3.633c-.388 4.327 23.92 4.012 23.92 4.012s-24.121 2.008-24.73 6.051c-.76 6.897 27.142 1.597 27.142 1.597s-21.877 6.902-21.006 11.881c.87 4.983 29.033-4.574 29.033-4.574s-10.806 7.934-5.14 10.349c5.667 2.415 23.65-12.015 23.65-12.015" fill="#f9bb8b"/><path d="M246.47 423.178c11.538 4.962 31.35 3.552 48.033-3.904 32.156-14.37 63.625-44.134 78.452-44.492 1.273.043-27.58-15.687-60.654-12.17-19.576 2.083-38.321 4.452-67.16 22.912-19.86 12.714-13.11 23.215 1.33 37.654" fill="#f9bb8b"/><path d="M232.577 398.39s6.721-13.983 31.78-23.064c0 0 27.152-10.169 46.218-12.348m55.478 13.437c-10.169 2.905-24.879 11.351-40.86 24.424 0 0-11.578 9.4-17.976 12.26" fill="none" stroke="#eca278" stroke-width="1.725" stroke-linecap="round"/><path d="M349.42 265.29c-17.718 4.374-36.327 5.345-53.822.896l.597 7.168c17.79 4.595 36.14 5.149 53.102 1.46z" fill="#eca278"/><path d="M337.799 182.813c2.97 2 4.597 7.583 3.416 11.718-1.507 5.263-6.446 8.752-6.496 8.787-.603.423-.207 1.37.517 1.237a.71.71 0 00.27-.112c.219-.153 5.383-3.793 7.023-9.535 1.351-4.72-.505-10.9-3.963-13.236-2.288-1.538-5.058-1.338-7.794.936-5.534 4.601-9.446 5.557-12.006 2.773-3.108-3.384-7.214-35.165-8.53-47.125-.124-.881-1.438-.735-1.365.152.49 4.448 4.91 43.57 8.887 47.899 2.17 2.358 6.25 3.768 13.883-2.635 2.246-1.884 4.376-2.062 6.158-.86zm82.707-11.047c-4 .094-7.81 1.862-11.334 5.277-10.743 10.404.075 26.203.187 26.363.53.702 1.598-.043 1.123-.783-.061-.094-3.878-5.686-4.574-12.209 6.228-8.634 17.78-3.075 17.897-3.02.34.169.752.03.922-.308a.689.689 0 00-.315-.918c-.119-.062-11.565-5.574-18.611 2.195.014-3.544 1.107-7.219 4.328-10.338 3.477-3.369 7.219-5.01 11.125-4.886 6.737.222 11.768 5.695 11.822 5.75.615.678 1.632-.244 1.018-.922-.222-.243-5.46-5.952-12.785-6.197-.269-.01-.536-.01-.803-.004zM237.971 208.43c-4.4-1.849-9.088-2.336-13.216-.625-6.767 2.806-9.633 10.025-9.753 10.328-.333.851.944 1.351 1.277.5.03-.068 2.796-6.974 9.016-9.569 3.606-1.504 7.686-1.291 12.135.624 4.117 1.773 6.443 4.822 7.713 8.132-9.343-4.77-18.091 4.447-18.182 4.545a.69.69 0 00.031.973c.28.257.714.24.973-.037.088-.096 8.919-9.393 17.804-3.528 1.663 6.346.078 12.929.05 13.036a.69.69 0 00.788.841.688.688 0 00.543-.507c.028-.114 1.748-7.057-.124-13.968-1.195-4.41-3.802-8.538-9.055-10.745zm90.925 5.043c-1.987-.086-3.758.277-5.503.733a.68.68 0 00-.473.847c.104.364.488.57.85.468 10.626-2.999 13.285 4.838 13.394 5.174.119.357.5.555.861.446.36-.115.56-.5.446-.86-.024-.08-2.144-6.484-9.575-6.808z" fill="#763633"/><path d="M222.332 731.977s4.44 5.096 40.982 6.943c32.704 1.652 44.94-2.03 44.94-2.03.501-2.22.89-4.466 1.168-6.726-13.33 2.766-36.024 5.577-64.213 1.627 1.271-6.017.762-12.201-1.428-17.521-15.63 6.468-20.692 13.187-20.692 13.187-.9 2.663-.757 4.52-.757 4.52zM401.047 714.27c-2.186 5.32-2.699 11.504-1.426 17.521-28.19 3.95-50.883 1.14-64.21-1.627.274 2.26.661 4.506 1.163 6.727 0 0 12.236 3.68 44.94 2.029 36.54-1.847 40.98-6.943 40.98-6.943s.146-1.857-.754-4.52c0 0-5.062-6.72-20.693-13.187z" fill="#fff"/></svg>