<svg xmlns="http://www.w3.org/2000/svg" width="69" height="93"><path fill="#f1c40f" stroke="#f39c12" stroke-width="4" stroke-linecap="round" stroke-linejoin="round" paint-order="markers stroke fill" d="M7 7h57v81H7z"/><path d="M33.89 22.195q9.38 0 14.42 6.37 5.11 6.3 5.11 18.06 0 8.05-2.38 14-2.38 5.88-6.86 9.03-4.41 3.15-10.43 3.15-3.99 0-8.05-1.4-3.99-1.47-6.79-3.92-.91-.77-1.33-1.47-.35-.77-.35-1.82 0-1.54.84-2.59.91-1.12 2.1-1.12.7 0 1.33.28.63.21 1.54.77 5.81 4.06 10.36 4.06 5.11 0 8.05-4.69 2.94-4.76 3.08-13.3-1.61 3.15-4.83 5.04-3.22 1.82-7.21 1.82-4.41 0-7.84-1.96-3.43-2.03-5.39-5.6-1.89-3.64-1.89-8.26 0-4.76 2.1-8.47 2.17-3.78 5.88-5.88 3.78-2.1 8.54-2.1zm.49 25.13q3.92 0 6.3-2.45 2.45-2.52 2.45-6.51 0-4.06-2.45-6.51-2.38-2.52-6.3-2.52-3.85 0-6.16 2.52-2.31 2.45-2.31 6.51t2.31 6.51q2.31 2.45 6.16 2.45z" fill="#351ea7"/></svg>