<svg xmlns="http://www.w3.org/2000/svg" width="69" height="93"><path fill="#f1c40f" stroke="#f39c12" stroke-width="4" stroke-linecap="round" stroke-linejoin="round" paint-order="markers stroke fill" d="M7 7h57v81H7z"/><path d="M51.25 55.515q2.1 0 3.15.91 1.05.91 1.05 2.59 0 3.5-4.2 3.5h-3.57v5.53q0 2.17-1.26 3.36-1.19 1.19-3.15 1.19t-3.22-1.19q-1.19-1.19-1.19-3.36v-5.53H20.52q-1.89 0-2.94-1.05-1.05-1.12-1.05-2.73 0-1.68 1.12-3.22l21.63-31.08q.7-.98 1.75-1.47 1.05-.56 2.17-.56 1.82 0 3.15 1.19 1.33 1.19 1.33 3.36v28.56zm-25.41 0h13.02v-18.83z" fill="#351ea7"/></svg>