<svg xmlns="http://www.w3.org/2000/svg" width="69" height="93"><path fill="#f1c40f" stroke="#f39c12" stroke-width="4" stroke-linecap="round" stroke-linejoin="round" paint-order="markers stroke fill" d="M7 7h57v81H7z"/><path d="M38.51 40.535q4.41 0 7.84 2.03 3.43 1.96 5.32 5.6 1.96 3.57 1.96 8.19 0 4.76-2.17 8.54-2.1 3.71-5.88 5.81-3.71 2.1-8.47 2.1-9.38 0-14.49-6.3-5.04-6.37-5.04-18.13 0-8.05 2.38-13.93 2.38-5.95 6.79-9.1 4.48-3.15 10.5-3.15 3.99 0 7.98 1.47 4.06 1.4 6.86 3.85.91.77 1.26 1.54.42.7.42 1.75 0 1.54-.91 2.66-.84 1.05-2.03 1.05-.7 0-1.33-.21-.63-.28-1.54-.84-5.81-4.06-10.36-4.06-5.11 0-8.05 4.76-2.94 4.69-3.08 13.23 1.61-3.15 4.83-4.97 3.22-1.89 7.21-1.89zm-1.89 25.13q3.85 0 6.16-2.45 2.31-2.52 2.31-6.58 0-4.06-2.31-6.51t-6.16-2.45q-3.92 0-6.37 2.52-2.38 2.45-2.38 6.44 0 4.06 2.38 6.58 2.45 2.45 6.37 2.45z" fill="#351ea7"/></svg>