<svg xmlns="http://www.w3.org/2000/svg" width="69" height="93"><path fill="#f1c40f" stroke="#f39c12" stroke-width="4" stroke-linecap="round" stroke-linejoin="round" paint-order="markers stroke fill" d="M7 7h57v81H7z"/><path d="M49.325 64.895q4.2 0 4.2 3.57 0 3.71-4.2 3.71h-26.6q-1.82 0-2.87-1.05-1.05-1.12-1.05-2.73 0-2.1 1.61-3.78l15.96-17.15q2.94-3.22 4.27-5.88 1.4-2.73 1.4-5.39 0-3.29-1.89-5.04t-5.39-1.75q-2.87 0-5.6 1.12-2.66 1.05-5.39 2.94-.7.49-1.4.84-.7.28-1.4.28-1.19 0-2.1-1.12-.84-1.12-.84-2.66 0-1.05.35-1.82.42-.77 1.26-1.47 3.08-2.45 7.21-3.85 4.13-1.47 8.26-1.47 7.21 0 11.48 3.64 4.34 3.64 4.34 9.8 0 4.27-1.82 8.05-1.82 3.71-6.16 8.33l-12.11 12.88z" fill="#351ea7"/></svg>