<svg xmlns="http://www.w3.org/2000/svg" width="69" height="93"><path fill="#f1c40f" stroke="#f39c12" stroke-width="4" stroke-linecap="round" stroke-linejoin="round" paint-order="markers stroke fill" d="M7 7h57v81H7z"/><path d="M35.5 72.805q-8.75 0-13.37-6.44-4.62-6.51-4.62-18.9 0-12.32 4.62-18.76 4.62-6.51 13.37-6.51t13.37 6.51q4.62 6.44 4.62 18.76t-4.62 18.83q-4.62 6.51-13.37 6.51zm0-7.07q4.76 0 6.93-4.34 2.17-4.41 2.17-13.93 0-9.59-2.17-13.86-2.17-4.34-6.93-4.34t-6.93 4.34q-2.17 4.34-2.17 13.86t2.17 13.93q2.17 4.34 6.93 4.34z" fill="#351ea7"/></svg>