<svg xmlns="http://www.w3.org/2000/svg" width="69" height="93"><path fill="#f1c40f" stroke="#f39c12" stroke-width="4" stroke-linecap="round" stroke-linejoin="round" paint-order="markers stroke fill" d="M7 7h57v81H7z"/><path d="M44.95 46.835q4.34 1.19 6.65 4.34 2.38 3.15 2.38 7.7 0 6.51-4.9 10.22-4.9 3.64-13.58 3.64t-13.58-3.64q-4.9-3.71-4.9-10.22 0-4.55 2.38-7.7 2.38-3.22 6.72-4.34-3.71-1.4-5.81-4.34-2.1-3.01-2.1-7 0-6.16 4.62-9.73 4.62-3.57 12.67-3.57t12.67 3.57q4.62 3.57 4.62 9.73 0 4.06-2.1 7.07-2.1 3.01-5.74 4.27zm-9.45-17.57q-8.75 0-8.75 7.14 0 3.57 2.17 5.46 2.24 1.82 6.58 1.82t6.51-1.82q2.24-1.89 2.24-5.46 0-7.14-8.75-7.14zm0 36.4q10.01 0 10.01-7.49t-10.01-7.49q-10.01 0-10.01 7.49t10.01 7.49z" fill="#351ea7"/></svg>