<svg xmlns="http://www.w3.org/2000/svg" width="69" height="93"><path fill="#f1c40f" stroke="#f39c12" stroke-width="4" stroke-linecap="round" stroke-linejoin="round" paint-order="markers stroke fill" d="M7 7h57v81H7z"/><path d="M43.06 46.835q4.41 1.12 6.72 4.27 2.38 3.08 2.38 7.7 0 6.37-4.69 10.15-4.69 3.78-12.67 3.78-4.55 0-8.75-1.4t-7.14-3.92q-1.61-1.4-1.61-3.29 0-1.54.84-2.59.91-1.12 2.1-1.12.7 0 1.26.28.56.21 1.54.77 2.94 1.96 5.6 3.01 2.66 1.05 5.81 1.05 4.62 0 6.86-1.82 2.24-1.89 2.24-5.67 0-3.71-2.38-5.46-2.31-1.82-7.21-1.82h-3.99q-1.61 0-2.52-1.05-.84-1.12-.84-2.52 0-1.47.84-2.52.91-1.05 2.52-1.05h2.8q9.59 0 9.59-7.21 0-3.36-2.03-5.18-2.03-1.82-5.6-1.82-5.11 0-10.92 4.06-.98.56-1.54.84-.56.21-1.26.21-1.19 0-2.1-1.05-.84-1.12-.84-2.66 0-1.05.35-1.75.42-.77 1.26-1.54 2.94-2.45 7-3.85 4.13-1.47 8.4-1.47 7.28 0 11.55 3.57 4.34 3.57 4.34 9.52-.07 4.06-2.17 7.14-2.03 3.01-5.74 4.41z" fill="#351ea7"/></svg>