<svg width="1080" height="120" xmlns:xlink="http://www.w3.org/1999/xlink" xmlns="http://www.w3.org/2000/svg"><path d="M1030.29 84.778c9.28 3.983 16.934 7.79 21.424 16.562l-5.941 5.58c-4.292-7.49-12.006-8.343-21.085-9.61z" stroke-width="1.782" stroke="#481d32" fill="#bebee6"/><use xlink:href="#a" transform="translate(959.713)"/><use xlink:href="#b" transform="translate(959.713)"/><path d="M997.222 47.388v-8.172m8.555 8.172V29.853m4.277 17.535v-7.34m-8.555 7.34V33.514m12.832 13.874v-2.483" fill="none" stroke="#819da5" stroke-width="1.782" stroke-linecap="round"/><path d="M1009.262 84.802c-1.737 2.197-10.538-1.37-3.047 5.21l-9.08-3.17c-1.617 3.528-1.893 5.565-2.806 8.644-4.78 16.104 3.175 16.06 11.883 6.208 1.151-1.301 3.07-2.825.496-3.999" fill="#bebee6"/><ellipse cx="22.061" cy="205.819" rx="6.269" ry="3.835" fill="#f4cbaf" stroke="#481d32" stroke-width="1.789" transform="matrix(-.58548 .81069 .87668 .48108 0 0)"/><path d="M176.056 92.646L163.1 104.833l6.28 4.545-6.088 7.699s-7.21-4.24-9.322-8.856c-.868-1.897-1.565-4.477-.864-6.441 1.672-4.684 14.814-17.192 14.814-17.192m22.205-.784l10.325 17.855 2.098-6.556 6.743 4.87s-1.93 9.405-4.555 11.806c-1.079.986-2.391 1.402-3.695.827-3.107-1.37-7.583-8.662-7.583-8.662" fill="#bebee6" stroke="#481d32" stroke-width="1.782" stroke-linecap="round" stroke-linejoin="round"/><use xlink:href="#a" transform="translate(119.45)"/><use xlink:href="#b" transform="translate(119.449)"/><use xlink:href="#c" transform="translate(239.793)"/><use xlink:href="#d" transform="translate(360.311)"/><use xlink:href="#d" transform="translate(239.793)"/><path d="M186.113 71.38a6.751 6.7 0 01-6.52 4.965 6.751 6.7 0 01-6.522-4.966" stroke="#481d32" stroke-width="1.782" stroke-linecap="round" fill="none"/><path fill="#fff" d="M205.144 72.754h-3.837v7.675h3.837z" stroke="#481d32" stroke-width="1.782"/><path d="M203.224 32.76a20.956 20.956 0 0120.956 20.956 20.956 20.956 0 01-20.956 20.957 20.956 20.956 0 01-20.955-20.957 20.956 20.956 0 0120.955-20.956zm0 5.165a15.791 15.791 0 00-15.79 15.791 15.791 15.791 0 0015.79 15.792 15.791 15.791 0 0015.791-15.792 15.791 15.791 0 00-15.791-15.791z" fill="#fff" stroke="#481d32" stroke-width="1.782"/><rect x="199.83" y="78.5" width="6.78" height="26.25" rx="1.07" fill="#57a2ff" stroke="#481d32" stroke-width="1.782"/><g stroke="#481d32" stroke-width="1.782" stroke-linecap="round"><ellipse cx="-203.318" cy="93.108" rx="7.878" ry="8.975" fill="#f4cbaf" transform="scale(-1 1)"/><ellipse transform="scale(-1 1) rotate(-14.833)" cx="-212.822" cy="35.099" rx="2.869" ry="3.548" fill="#f4cbaf"/><path d="M205.747 95.091l-3.366-.28m3.371-3.387l-3.377-.074m3.37-3.687l-3.363.32" fill="none"/></g><path d="M220.516 80.124s.329-4.99 2.139-4.99c1.81 0 2.138 4.99 2.138 4.99s4.277.544 4.277 2.138c0 1.594-4.277 2.139-4.277 2.139s-.329 4.99-2.138 4.99c-1.81 0-2.139-4.99-2.139-4.99s-4.277-.545-4.277-2.139c0-1.594 4.277-2.138 4.277-2.138zm-85.31-60.734s.329-4.99 2.139-4.99c1.81 0 2.138 4.99 2.138 4.99s4.277.544 4.277 2.138c0 1.594-4.277 2.139-4.277 2.139s-.329 4.99-2.138 4.99-2.139-4.99-2.139-4.99-4.277-.545-4.277-2.139c0-1.594 4.277-2.138 4.277-2.138z" fill="#ffc800"/><g id="c"><path d="M48.232 82.55c-8.879 15.56-6.955 26.388-6.098 37.082h6.933c0-12.205 1.07-18.799 1.956-27.73" fill="#bebee6"/><path d="M48.232 82.55c-8.879 15.56-6.955 26.306-6.098 37" fill="none" stroke="#481d32" stroke-linecap="round" stroke-width="1.782"/></g><path d="M70.855 84.412L83.84 96.569l4.137-6.556 9.293 5.092s-4.502 9.183-8.975 11.584c-1.838.987-3.977 1.403-5.983.827-4.78-1.37-11.906-8.44-11.906-8.44" fill="#bebee6" stroke="#481d32" stroke-width="1.782" id="d" stroke-linejoin="round"/><g id="e" stroke-width="1.782" stroke="#481d32" stroke-linecap="round" stroke-linejoin="round"><path d="M99.344 71.917c1.6.004 2.738 1.26 2.287 3.993-.404 2.45-2.049 5.21-3.253 6.972a8.707 7.625 18.97 013.486 8.91 8.707 7.625 18.97 01-10.714 4.381 8.707 7.625 18.97 01-5.755-10.041 8.707 7.625 18.97 016.372-4.84c1.034-2.484 3.29-7.456 5.217-8.628.811-.493 1.633-.75 2.36-.747z" fill="#f4cbaf"/><path d="M88.074 84.713c4.94-1.375 6.073 5.4.286 4.2m8.352-5.006c-4.616.072-6.093 7.086-.02 4.062-3.64 1.947-1.697 4.862 1.195 3.4-1.77 2.54 1.094 4.007 3.1 2.008" fill="none"/></g><path d="M114.432 71.783l-4.222 1.765m.82-10.523l-4.222 4.096m-3.78-9.326l-1.89 4.789" fill="none" stroke="#ff5851" stroke-linecap="round" stroke-width="1.782"/><path d="M792.981 83.949c2.685 4.55 5.648 11.25 7.295 16.18l3-5.984 6.797 5.983c-3.627 6.592-5.781 12.757-11.393 11.699-4.78-1.372-5.847-12.184-5.847-12.184m-21.606-15.694c-2.685 4.55-5.647 11.25-7.294 16.18l-2.999-5.984-6.798 5.983c3.627 6.592 5.782 12.757 11.393 11.699 4.78-1.372 5.848-12.184 5.848-12.184" fill="#bebee6" stroke-width="1.782" stroke="#481d32" stroke-linejoin="round"/><path d="M528.888 82.253c-9.678 15.078-12.355 31.49-1.28 35.728l2.804.681c.636-12.188-.576-18.05.775-26.923" fill="#bebee6"/><path d="M528.888 82.253c-9.678 15.078-13.736 34.013.496 35.917" fill="none" stroke="#481d32" stroke-width="1.782"/><path d="M550.607 83.71c6.717 7.526 9.618 6.694 16.648 7.857 0 0 .54 15.988-3.933 18.389-6.946 3.224-14.06-10.71-15.622-12.906" fill="#bebee6" stroke="#481d32" stroke-width="1.782"/><path d="M557.674 91.652l.693 9.703" fill="none" stroke="#481d32" stroke-linecap="round" stroke-width="1.426"/><path d="M584.584 23.284c3.5.208 7 1.974 9.008 4.916 1.899 2.784 1.651 6.988-.991 9.202-1.918 1.607-4.419 2.163-6.712 3.017-1.266.472-2.53 1.15-3.154 2.379-.63 1.242-2.066 1.974-3.394 1.256-1.26-.68-1.459-2.203-.911-3.42.89-1.978 2.625-3.365 4.607-4.14 1.877-.734 3.993-1.074 5.56-2.415 1.611-1.377 1.25-4.102-.375-5.339-1.46-1.11-3.62-1.658-5.285-.567-1.239.811-1.992 2.136-3.232 2.9-1.633 1.005-4.23-.716-3.58-2.816 1.126-3.634 5.118-5.172 8.46-4.973zm-7.702 27.971c-1.412-.553-2.223-2.187-1.686-3.663.623-1.712 2.755-2.44 4.297-1.52 1.47.878 1.798 2.94.798 4.288-.772 1.041-2.234 1.355-3.409.895z" fill="#f44c8a"/><path d="M341.353 96.807c3.985-1.591 3.59-3.328-.044-3.167 6.318.15 4.434-4.536-.585-3.015 6.638-.826 5.932-6.49-.946-2.69 6.85-3.416-.263-6.124-6.166-.64 2.11-2.724 2.3-9.248-3.857-2.826-1.812 1.89-2.5 4.3-2.263 8.046.227 3.6 2.467 4.374 4.635 5.22 2.88 1.125 6.397.201 9.226-.928z" fill="#f4cbaf" stroke="#481d32" stroke-linejoin="round" stroke-width="1.782" id="f"/><path d="M354.84 88.237l-4.223 1.765m.82-10.523l-4.222 4.096m-3.78-9.326l-1.89 4.79" fill="none" stroke="#ff5851" stroke-linecap="round" stroke-width="1.782"/><path d="M648 81.657c-8.88 15.562-8.065 28.28-3.248 37.083h4.083c0-12.205 1.068-18.799 1.955-27.73" fill="#bebee6"/><path d="M648 81.657c-8.88 15.562-8.605 30.357-3.248 37" fill="none" stroke="#481d32" stroke-linecap="round" stroke-width="1.782"/><path d="M690.842 87.962c4.266 6.645-1.734 9.58-1.928 3.695m5.3-16.489c4.268 6.645-1.733 9.581-1.926 3.695" stroke-width="1.425" fill="none" stroke="#a0c3d5" stroke-linecap="round"/><path d="M408.236 80.987c-8.879 15.561-8.485 14.022-6.098 22.825h6.934c0-12.204 1.068-4.541 1.955-13.472" fill="#bebee6"/><path d="M408.236 80.987c-7.348 8.63-8.395 14.03-6.098 22.743" fill="none" stroke="#481d32" stroke-width="1.782"/><path d="M861.135 40.266l-11.846 6.552 37.553 52.801c1.237-5.198 3.71-9.688 2.424-16.326zm77.73 0l-28.13 43.027c-1.353 6.162 1.591 10.891 2.423 16.326l37.553-52.8z" fill="#bebee6"/><path d="M889.266 83.292l-28.131-43.027-11.846 6.553 37.553 52.802m23.892-16.328l28.13-43.027 11.847 6.553-37.553 52.802" fill="none" stroke="#481d32" stroke-width="1.782" stroke-linecap="round"/><path d="M945.257 26.122c2.562.892-1.327 13.222.43 7.352.915-3.06 3.721-7.053 5.363-6.243 1.368.676 1.84 3.09-.783 7.808-2.26 5.648 2.512-6.746 5.87-4.51 3.357 2.236-6.443 11.789-1.726 7.109 1.02-1.012 2.834-2.5 3.723-1.746 1.736 1.472-1.467 6.898-4.778 10.034-6.11 5.79-10.46 1.49-15.432-1.663-4.191-2.659-5.987-7.13-4.5-8.74 1.047-1.135 4.094.555 5.944 2.43.514-4.121 2.652-12.959 5.889-11.831zm-90.514 0c-2.562.892 1.327 13.222-.43 7.352-.915-3.06-3.721-7.053-5.363-6.243-1.368.676-1.84 3.09.783 7.808 2.26 5.648-2.512-6.746-5.87-4.51-3.357 2.236 6.443 11.789 1.726 7.109-1.02-1.012-2.834-2.5-3.723-1.746-1.736 1.472 1.467 6.898 4.778 10.034 6.11 5.79 10.46 1.49 15.432-1.663 4.191-2.659 5.987-7.13 4.5-8.74-1.047-1.135-4.094.555-5.944 2.43-.514-4.121-2.652-12.959-5.889-11.831z" fill="#f4cbaf" stroke="#481d32" stroke-width="1.782" stroke-linejoin="round"/><path d="M844.068 64.635l9.005 7.92m-9.54-18.434L854.37 66.27m101.434-1.636l-9.004 7.92m9.539-18.434l-10.836 12.15" fill="none" stroke="#ff5851" stroke-linecap="round" stroke-width="1.782"/><path d="M1045.92 110.996c1.927.488 1.914-4.476 2.49-2.685.644 2.006.9 4.565 2.515 6.06.59.547 1.634.574 2.152-.143.62-.857-.06-2.84-.706-4.42-.621-1.518 2.246 2.726 3.812 2.9 1.19.133 1.864-.645 1.51-1.897-.376-1.328-1.535-2.475-2.64-3.17-2.098-1.316 1.955.417 2.53.412.94.322 2.127-.208 2.03-1.322.072-1.068-3.096-1.867-4.023-2.065-1.196-.256 3.166.462 2.977-1.434-.123-1.23-1.504-1.335-2.394-1.597-2.37-.696-5.808-.18-8.05 1.275-3.391 2.202-3.91 7.653-2.202 8.086z" fill="#f4cbaf" stroke-width="1.782" stroke="#481d32" stroke-linejoin="round"/><path d="M1002.582 38.037l4.29 2.617" fill="none" stroke="#481d32" stroke-linecap="round" stroke-width="1.782"/><path d="M995.367 80.098c1.867-1.146 3.484 4.091 3.502 2.015.02-2.326-.55-5.109.66-7.214.44-.77 1.532-1.141 2.313-.555.934.7.87 3.013.708 4.892-.156 1.803 1.47-3.612 3.062-4.31 1.21-.53 2.175.07 2.213 1.506.04 1.523-.804 3.113-1.74 4.207-1.777 2.076 1.923-1.08 2.53-1.264.885-.648 2.308-.478 2.574.728.425 1.103-2.65 2.983-3.56 3.496-1.177.663 3.182-1.526 3.605.535.275 1.337-1.146 1.901-1.998 2.47-2.266 1.51-6.057 2.095-8.896 1.296-4.294-1.21-6.63-6.785-4.973-7.802z" fill="#f4cbaf" stroke="#481d32" stroke-linejoin="round" stroke-width="1.782"/><path d="M1013.262 69.89l-2.173 8.474 17.537-.295-2.293-8.178z" fill="#fff" stroke="#481d32" stroke-width="1.782" stroke-linejoin="round"/><ellipse cx="1005.977" cy="56.063" rx="2.419" ry="3.373" fill="#fff"/><path d="M1002.63 50.919a.713.713 0 00-.713.71c-.014.812.326 1.586.813 2.237.084.112.174.22.268.326a5.322 5.322 0 00-.331 1.87c0 1.104.313 2.12.875 2.905.564.785 1.431 1.36 2.435 1.36s1.872-.575 2.434-1.36c.563-.785.876-1.801.876-2.905 0-1.104-.313-2.12-.875-2.904-.563-.785-1.431-1.36-2.435-1.36-.873 0-1.643.435-2.2 1.065-.275-.42-.441-.896-.436-1.207a.713.713 0 00-.71-.737zm3.347 2.661c.332 0 .673.18.986.616.312.437.542 1.107.542 1.866 0 .76-.23 1.43-.542 1.866-.313.436-.654.616-.986.616-.332 0-.674-.18-.986-.616-.313-.435-.542-1.107-.542-1.866 0-.759.23-1.43.542-1.866.312-.436.654-.616.986-.616z" fill="#481d32"/><ellipse cx="1033.737" cy="56.063" rx="2.419" ry="3.373" fill="#fff"/><path d="M1037.083 50.919a.713.713 0 01.714.71c.014.812-.326 1.586-.813 2.237a5.023 5.023 0 01-.267.326 5.322 5.322 0 01.33 1.87c0 1.104-.313 2.12-.875 2.905-.564.785-1.431 1.36-2.435 1.36s-1.872-.575-2.434-1.36c-.563-.785-.876-1.801-.876-2.905 0-1.104.313-2.12.875-2.904.563-.785 1.431-1.36 2.435-1.36.873 0 1.644.435 2.2 1.065.275-.42.442-.896.436-1.207a.713.713 0 01.71-.737zm-3.346 2.661c-.332 0-.673.18-.986.616-.312.437-.541 1.107-.541 1.866 0 .76.229 1.43.541 1.866.313.436.654.616.986.616.332 0 .674-.18.986-.616.313-.435.542-1.107.542-1.866 0-.759-.229-1.43-.542-1.866-.312-.436-.654-.616-.986-.616z" fill="#481d32"/><path d="M1053.87 19.128c3.914 3.564 6.96 3.085 9.803 1.654-2.37 5.364-2.522 9.968 3.819 12.348-3.24 3.018-2.63 4.753-2.8 6.747" fill="none" stroke="#481d32" stroke-linecap="round" stroke-width="1.782" stroke-linejoin="round"/><g id="a"><path d="M50.297 82.941c-3.586 10.375-5.639 20.245-2.138 36.752h23.97c3.5-16.507 1.447-26.377-2.14-36.752z" fill="#bebee6"/><path d="M50.696 85.514l-2.45 10.788 3.432.323-.44 4.482 4.92 5.092M69.59 85.514l2.45 10.788-3.432.323.441 4.483-4.92 5.091m8.014 13.404c1.711-8.07 1.18-14.517 1.23-20.227m-26.43 0c.01 5.805-.52 11.975 1.23 20.227" fill="none" stroke="#481d32" stroke-linecap="round" stroke-linejoin="round" stroke-width="1.782"/><path d="M53.01 91.102c1.743 5.166 3.73 10.297 7.133 15.225 3.43-5.075 5.358-10.15 7.135-15.225" fill="#fff" stroke="#481d32" stroke-linecap="round" stroke-width="1.782" stroke-linejoin="round"/><path d="M55.6 82.423c-2.573 0-4.659 2.78-4.658 6.21 0 3.431 2.085 6.212 4.658 6.212 2.184-.003 4.073-2.027 4.545-4.87.471 2.842 2.36 4.866 4.542 4.87 2.573 0 4.658-2.781 4.658-6.211s-2.085-6.211-4.658-6.211z" fill="#fff" stroke="#481d32" stroke-width="1.782"/><path d="M55.706 84.69c1.283 2.432 1.77 4.978 4.583 7.192 2.88-2.478 3.178-4.956 4.292-7.434" fill="#f4cbaf" stroke="#481d32" stroke-width="1.782"/></g><use xlink:href="#a" transform="translate(239.793)"/><use xlink:href="#a" transform="translate(360.097)"/><use xlink:href="#a" transform="translate(479.103)"/><use xlink:href="#a" transform="translate(599.96)"/><use xlink:href="#a" transform="translate(721.961)"/><use xlink:href="#b" transform="translate(721.96)"/><use xlink:href="#a" transform="translate(839.792)"/><use xlink:href="#e" transform="rotate(-15 273.973 -1278.04)"/><use xlink:href="#f" transform="rotate(-38.209 575.19 -593.07)"/><use xlink:href="#f" transform="scale(-1 1) rotate(-38.209 -206.916 1664.944)"/><use xlink:href="#b" transform="translate(599.96)"/><path d="M670.958 91.528c-.483-1.691-.59-3.041-.195-5.962.394-2.921 3.475-4.469 5.95-2.315-2.911-4.58.897-5.008 3.285-2.244-3.74-6.301 1.399-3.97 3.017-1.493-2.212-2.682 1.272-12.395 4.164-1.066.523 2.046-.56 4.386-1.465 5.054 0 0-3.32 2.287-5.21 3.378-2.987 1.724-9.546 4.648-9.546 4.648z" fill="#f4cbaf" stroke-width="1.782" stroke="#481d32" stroke-linejoin="round"/><path d="M680.4 86.883c1.74 4.067 2.246 6.357 3.018 9.965 2.035 9.501-6.094 16.913-10.787 4.753-1.322-3.426-2.503-5.665-3.41-9.677z" fill="#bebee6" stroke-width="1.782" stroke="#481d32"/><path d="M676.602 88.84l2.818 9.598" fill="none" stroke-width="1.782" stroke="#481d32" stroke-linecap="round"/><g id="b"><path d="M30.784 103.144c9.746-5.975 14.18-16.949 8.02-39.844l-15.276-9.929c-12.268 13.007-4.818 23.507-.763 28.005 7.431 8.246 8.8 12.993 8.02 21.768z" fill="#704241"/><path d="M24.781 57.504l-1.35-3.6c-.216-.359-6.964 5.725-6.752 14.582.212 8.857 8.16 14.367 12.242 20.522-.915-4.574-7.835-11.672-8.46-19.892-.627-8.22 4.266-11.72 4.32-11.612z" fill="#fff"/><path d="M23.53 53.371c-12.27 13.007-4.82 23.507-.765 28.005 7.431 8.246 8.8 12.993 8.02 21.768m3.627-2.737c6.182-6.61 10.17-15.103 4.392-37.107" fill="none" stroke="#481d32" stroke-linecap="round" stroke-width="1.782"/><path d="M35.066 64.7C3.08 49.832 35.151-1.225 70.073 13.018c29.598 4.626 39.786 44.3 16.04 54.992" fill="#704241"/><path d="M66.672 12.691c-8.608-.776-24.01 2.491-33.383 13.671.865 1.761 4.034 4.102 8.138 3.549-2.347 1.479-4.57 2.839-11.733.42-5.062 6.856-6.906 14.949-6.424 21.686-3.848-7.689.584-21.851 8.178-29.818C41.22 11.946 57.711 7.53 66.672 12.69z" fill="#fff"/><path d="M35.066 64.7C3.08 49.832 35.151-1.225 70.073 13.018m16.04 54.992c23.746-10.692 13.566-50.421-16.04-54.992-1.906-.294-4.91.593-6.075 1.627" fill="none" stroke="#481d32" stroke-width="1.782" stroke-linecap="round"/><ellipse transform="rotate(-14.855)" cx="14" cy="66.11" rx="4.328" ry="5.157" fill="#f4cbaf" stroke="#481d32" stroke-width="1.782"/><ellipse transform="scale(-1 1) rotate(-14.855)" cx="-102.269" cy="35.271" rx="4.328" ry="5.157" fill="#f4cbaf" stroke="#481d32" stroke-width="1.782"/><ellipse cx="60.145" cy="55.663" rx="28.693" ry="32.08" fill="#f4cbaf" stroke-width="1.347"/><ellipse cx="38.81" cy="65.363" rx="6.303" ry="6.621" fill="#ff69b4" fill-opacity=".392" stroke-width="1.347"/><ellipse cx="81.48" cy="65.363" rx="6.303" ry="6.621" fill="#ff69b4" fill-opacity=".392" stroke-width="1.347"/><ellipse cx="60.145" cy="55.663" rx="28.693" ry="32.08" fill="none" stroke="#481d32" stroke-width="1.782"/><path d="M52.2 22.978c-6.523 6.492-1.545 17.154 4.485 21.355 4.455 1.031 8.55 1.173 13.006 0 5.374.826 10.182.984 14.564-.127-4.724-4.758-3.603-10.516-2.897-16.738-12.79-7.527-20.69-8.194-29.16-4.49z" fill="#704241"/><path d="M52.2 22.978c-6.523 6.492-1.545 17.154 4.485 21.355m13.388.064c-2.864-2.27-6.927-11.958-4.123-17.822m18.305 17.63c-4.724-4.757-3.603-10.515-2.897-16.737" fill="none" stroke="#481d32" stroke-width="1.782" stroke-linecap="round"/></g><path d="M59.827 58.413l.636 1.082" fill="none" stroke="#481d32" stroke-linecap="round" stroke-width="1.782" id="h"/><path d="M44.47 51.044a.713.713 0 00-.717.713c-.014.811.33 1.583.816 2.234l.055.068a2.262 3.361 0 00-1 2.786 2.262 3.361 0 002.262 3.362 2.262 3.361 0 002.262-3.362 2.262 3.361 0 00-2.11-3.35 2.774 2.774 0 01-.327-.357c-.337-.45-.537-1.01-.53-1.358a.713.713 0 00-.712-.736zm31.348 0a.713.713 0 01.715.713c.014.811-.329 1.583-.816 2.234-.017.023-.037.045-.055.068a2.262 3.361 0 011 2.786 2.262 3.361 0 01-2.26 3.362 2.262 3.361 0 01-2.264-3.362 2.262 3.361 0 012.112-3.35 2.8 2.8 0 00.326-.357c.336-.45.537-1.01.53-1.358a.713.713 0 01.712-.736z" id="g" fill="#481d32"/><path d="M42.96 39.394c.808-1.112 2.952-1.423 4.2-.547" fill="none" stroke="#481d32" stroke-linecap="round" stroke-width="1.782" id="i"/><path d="M55.416 69.628l9.468.172c0 2.66-1.177 6.39-4.097 6.367-2.617-.02-4.27-2.715-4.27-6.139" fill="#fff" stroke="#481d32" stroke-linecap="round" stroke-width="1.782" stroke-linejoin="round"/><use xlink:href="#g" transform="translate(119.45)"/><use xlink:href="#h" transform="translate(119.448)"/><use xlink:href="#i" transform="translate(119.448)"/><use xlink:href="#b" transform="translate(239.794)"/><use xlink:href="#g" transform="translate(239.794)"/><use xlink:href="#i" transform="translate(239.793)"/><use xlink:href="#h" transform="translate(239.793)"/><path d="M303.137 73.708a3.313 3.318 0 01-3.2 2.459 3.313 3.318 0 01-3.2-2.46" fill="none" stroke="#481d32" stroke-linecap="round" stroke-width="1.782"/><use xlink:href="#b" transform="translate(360.097)"/><g stroke-width="1.782" stroke="#481d32" stroke-linecap="round" stroke-linejoin="round"><path fill="#f6dbda" d="M406.998 86.55l-23.953 3.709 4.691 30.292 23.952-3.709z"/><path d="M402.656 92.993l-13.522 2.094m14.394 3.543l-13.522 2.093" fill="none"/><path d="M387.64 112.163c2.755.162 5.263-3.75-.158-3.15 2.776-1.262 5.234-5.282-1.606-3.277 2.008-.68 3.355-8.336-2.332-3.308-1.789 1.582-1.555 3.365-1.827 5.104-.274 1.75.235 4.193.6 6.112.59 3.117 4.846 5.078 6.483 4.645 5.212-1.536.483-2.65-.778-3.241 4.394-.791 3.242-2.793-.382-2.885z" fill="#f4cbaf"/></g><use xlink:href="#g" transform="translate(360.097)"/><use xlink:href="#h" transform="translate(360.096)"/><ellipse cx="420.24" cy="72.341" rx="2.925" ry="3.826" fill="#fff" stroke="#481d32" stroke-width="1.782"/><use xlink:href="#i" transform="translate(360.096)"/><g transform="rotate(-15 1.932 126.842)"><use xlink:href="#b" transform="translate(475.596 140)" width="100%" height="100%"/><use xlink:href="#g" transform="translate(475.597 140)" width="100%" height="100%"/><use xlink:href="#h" transform="translate(475.596 140)" width="100%" height="100%"/><path d="M532.64 216.528a3.21 1.3 0 013.1-.962 3.21 1.3 0 013.101.962" fill="none" stroke="#481d32" stroke-linecap="round" stroke-width="1.782"/><use xlink:href="#i" transform="rotate(-18.89 703.658 -1320.642)" width="100%" height="100%"/></g><path d="M556.283 76.93c.448 1.594 1.293 3.005 2.749 4.137-4.357-1.354-8.041 2.266-6.952 5.445 1.369 3.983 3.829 5.503 8.634 5.326 2.417-.09 5.942.008 6.158-1.406.216-1.413-.42-4.083-.654-5.17-.588-2.725-1.883-9.495-5.288-11.578-3.44-2.104-5.31.892-4.647 3.246z" fill="#f4cbaf" stroke="#481d32" stroke-width="1.782" stroke-linejoin="round"/><path d="M1001.48 99.879l3.71-10.105-8.662-3.267s-2.577 6.603-3.28 10.059c-3.196 15.737 4.436 14.286 13.218 4.808 0 0 .223-1.28.413-2.996" fill="none" stroke="#481d32" stroke-linecap="round" stroke-width="1.782" stroke-linejoin="round"/><path d="M1008.398 27.248c-9.62 4.889-16.343 15.737-16.343 28.414 0 .093.005.185.006.277h55.591c.001-.092.01-.184.01-.277 0-7.526-2.369-14.408-6.306-19.783.01.145.01.294.02.437.211 2.667 1.018 5.034 3.23 7.26a.891.891 0 010 1.262.891.891 0 01-1.26-.006c-.134-.135-.246-.274-.372-.41-3.759.78-7.83.69-12.296.086a.891.891 0 01-.186.443.891.891 0 01-1.252.145 6.677 6.677 0 01-.63-.579c-3.858.887-7.48.793-11.333-.004a.891.891 0 01-.14.329.891.891 0 01-1.24.222c-3.211-2.237-6.049-6.078-7.296-10.297-.725-2.453-.879-5.07-.195-7.52z" fill="#00f" fill-opacity=".235"/><use xlink:href="#h" transform="translate(959.712)"/><use xlink:href="#b" transform="translate(839.792)"/><path d="M916.166 52.948a.891.891 0 00-.555.187l-4.723 3.565a.891.891 0 00.566 1.602l5.523-.178a.891.891 0 10-.056-1.782l-2.718.087 2.482-1.87a.891.891 0 00-.52-1.611zm-32.46 0a.891.891 0 01.555.187l4.723 3.565a.891.891 0 01-.566 1.602l-5.522-.178a.891.891 0 11.055-1.782l2.718.087-2.481-1.87a.891.891 0 01.518-1.611z" fill="#481d32"/><path d="M892.69 69.77c5.236 1.02 10.206 1.424 14.505.273 0 4.198-1.803 10.087-6.277 10.05-4.01-.032-6.542-4.286-6.542-9.69" fill="#fff" stroke="#481d32" stroke-linecap="round" stroke-width="1.782" stroke-linejoin="round"/><use xlink:href="#i" transform="translate(839.791)"/><use xlink:href="#h" transform="translate(839.79)"/><path d="M763.246 53.113a.713.713 0 00-.714.711c-.014.812.326 1.585.814 2.236.328.439.73.829 1.202 1.091a4.575 4.575 0 00-.387 2.222.892.892 0 101.78-.118c-.103-1.547.611-2.245 1.485-2.476.874-.231 1.954.075 2.637 1.244a.891.891 0 101.54-.897c-1.049-1.795-2.985-2.506-4.63-2.07-.59.156-1.136.47-1.588.909-.28-.129-.628-.4-.898-.76-.336-.45-.537-1.006-.53-1.354a.713.713 0 00-.71-.738zm37.716 0a.713.713 0 01.714.711c.014.812-.326 1.585-.813 2.236-.328.439-.73.829-1.202 1.091.294.638.44 1.39.387 2.222a.891.891 0 11-1.78-.118c.102-1.547-.612-2.245-1.486-2.476-.874-.231-1.953.075-2.636 1.244a.891.891 0 11-1.54-.897c1.049-1.795 2.985-2.506 4.632-2.07.59.156 1.135.47 1.587.909.28-.129.628-.4.897-.76.337-.45.537-1.006.53-1.354a.713.713 0 01.71-.738z" fill="#481d32"/><path d="M777.021 69.978h10.18c0 3.194-1.89 6.39-4.81 6.367-2.616-.02-4.983-2.715-4.983-6.138" fill="#fff" stroke="#481d32" stroke-linecap="round" stroke-linejoin="round" stroke-width="1.782"/><path d="M819.075 24.529c9.531-3.708 1.754-9.805-2.525-2.47m5.86 8.759c7.208.56 5.867-7.491-.204-2.818" stroke-width="1.425" fill="none" stroke="#a0c3d5" stroke-linecap="round"/><path d="M804.12 53.008c-3.78 9.39 9.063 7.603 1.954-2.457" fill="#fff" stroke="#481d32" stroke-linecap="round" stroke-linejoin="round" stroke-width="1.782"/><path d="M764.92 38.35c.81 1.111 2.954 1.422 4.2.546" fill="none" stroke="#481d32" stroke-linecap="round" stroke-width="1.782"/><use xlink:href="#h" transform="translate(721.96)"/><path d="M663.304 76.155a3.313 3.318 0 00-3.2-2.46 3.313 3.318 0 00-3.2 2.46M643.026 39.46c1.224.627 3.278-.062 3.996-1.406" fill="none" stroke="#481d32" stroke-linecap="round" stroke-width="1.782"/><use xlink:href="#g" transform="translate(599.961)"/><use xlink:href="#h" transform="translate(599.96)"/></svg>