<svg width="520" height="405" xmlns="http://www.w3.org/2000/svg"><path d="M91.503 53.5H512m-420.497 44H512m-420.497 44H512m-420.497 44H512m-420.497 44H512m-420.497 44H512" fill="none" stroke="#bcbcb5"/><path d="M94.097 12.48q-2.342 0-3.996 1.827-1.655 1.804-1.655 4.168 0 2.255 1.633 4.146 1.633 1.89 3.932 1.89 1.267 0 2.449-.257.408-.086.967-.408.558-.323.795-.323.408 0 .687.28.28.279.28.687 0 .43-.409.795-.408.344-.816.494-.387.15-1.031.344-1.096.322-2.922.322-3.03 0-5.264-2.363-2.234-2.385-2.234-5.607 0-3.137 2.17-5.522 2.191-2.406 5.414-2.406 1.353 0 2.363.215 1.01.193 2.191.816.537.28.537.881 0 .408-.3.687-.28.28-.666.28-.237 0-.838-.301-.602-.3-1.203-.451-.752-.194-2.084-.194zm12.053 2.836q1.912 0 3.351 1.268v-.086q0-.408.258-.687.28-.28.687-.28.408 0 .688.28.3.279.3.687v8.766q0 .408-.3.687-.28.28-.688.28-.408 0-.687-.28-.258-.28-.258-.687v-.086q-1.44 1.267-3.352 1.267-2.212 0-3.78-1.633-1.548-1.654-1.548-3.931t1.547-3.91q1.569-1.655 3.781-1.655zm2.363 2.987q-.989-1.053-2.364-1.053t-2.384 1.053q-1.01 1.052-1.01 2.578 0 1.525 1.01 2.578t2.384 1.053q1.375 0 2.364-1.053.988-1.053.988-2.578 0-1.526-.988-2.578zm10.785-1.053q-1.547 0-2.514 1.053-.945 1.031-.945 2.578v4.598q0 .408-.28.687-.279.28-.687.28-.408 0-.687-.28-.28-.28-.28-.687v-9.153q0-.408.28-.687.279-.28.687-.28.408 0 .688.28.279.279.279.687v1.01q.515-.86 1.46-1.44.946-.58 1.999-.58 2.363 0 3.18 1.698 1.482-1.698 3.802-1.698 1.074 0 1.805.43.73.408 1.074 1.225.365.795.494 1.718.15.924.15 2.192v4.598q0 .408-.279.687-.279.28-.687.28-.408 0-.688-.28-.279-.28-.279-.687v-4.877q0-.86-.043-1.354-.043-.494-.193-1.01-.13-.515-.473-.752-.344-.236-.88-.236-1.57 0-2.514.967-.946.967-.946 2.62v4.642q0 .386-.279.687-.28.28-.688.28-.408 0-.687-.28-.28-.28-.28-.687v-5.092q0-.71-.064-1.182-.043-.494-.193-.967-.15-.494-.494-.73-.323-.258-.838-.258zm15.297 12.826q-.28.28-.688.28-.408 0-.687-.28-.28-.28-.28-.687V16.283q0-.408.28-.687.279-.28.687-.28.408 0 .688.28.279.279.279.687v.28q1.461-1.247 3.309-1.247 2.17 0 3.695 1.655 1.547 1.633 1.547 3.91t-1.547 3.932q-1.525 1.632-3.695 1.632-1.848 0-3.309-1.246v4.19q0 .408-.28.687zm1.246-6.617q.967 1.053 2.342 1.053t2.341-1.053q.967-1.053.967-2.578 0-1.526-.967-2.578-.966-1.053-2.341-1.053-1.375 0-2.342 1.053-.967 1.052-.967 2.578 0 1.525.967 2.578zm19.443-2.9q0 .408-.28.687-.278.28-.687.28h-7.068q.215 1.288 1.139 2.148.924.838 2.148.838 1.225 0 1.762-.194.537-.193 1.074-.687.28-.236.623-.236.43 0 .688.279.279.28.279.687 0 .451-.322.73-1.569 1.354-4.104 1.354-2.191 0-3.738-1.632-1.547-1.655-1.547-3.932t1.547-3.91q1.547-1.655 3.738-1.655 2.235 0 3.48 1.569 1.268 1.568 1.268 3.674zm-7.885-.967h5.844q-.236-1.031-.988-1.676-.73-.666-1.719-.666-1.053 0-1.912.645-.86.644-1.225 1.697zm12.611-1.289q-1.009 1.052-1.009 2.578 0 1.525 1.01 2.578t2.385 1.053q1.375 0 2.363-1.053t.988-2.578q0-1.526-.988-2.578-.988-1.053-2.363-1.053t-2.385 1.053zm-1.396 6.51q-1.547-1.655-1.547-3.932t1.547-3.91q1.569-1.655 3.782-1.655 2.212 0 3.738 1.655 1.547 1.633 1.547 3.91t-1.547 3.932q-1.526 1.632-3.738 1.632-2.213 0-3.782-1.632zm19.164-4.083q0-.494-.021-.794 0-.323-.065-.774-.043-.473-.172-.773-.128-.301-.322-.602-.193-.3-.537-.43-.322-.15-.773-.15-1.569 0-2.707 1.096-1.14 1.095-1.14 2.535v4.598q0 .408-.278.687-.28.28-.688.28-.408 0-.687-.28-.28-.28-.28-.687v-9.153q0-.408.28-.687.279-.28.687-.28.408 0 .688.28.279.279.279.687v.43q1.633-1.44 3.846-1.44 1.998 0 2.9 1.418.924 1.397.924 4.147v4.598q0 .408-.28.687-.279.28-.687.28-.408 0-.687-.28-.28-.28-.28-.687zm14.373-.171q0 .408-.279.687-.28.28-.687.28h-7.069q.215 1.288 1.139 2.148.924.838 2.148.838 1.225 0 1.762-.194.537-.193 1.074-.687.28-.236.623-.236.43 0 .688.279.28.28.28.687 0 .451-.323.73-1.569 1.354-4.104 1.354-2.191 0-3.738-1.632-1.547-1.655-1.547-3.932t1.547-3.91q1.547-1.655 3.738-1.655 2.235 0 3.48 1.569 1.268 1.568 1.268 3.674zm-7.884-.967h5.843q-.236-1.031-.988-1.676-.73-.666-1.719-.666-1.052 0-1.912.645-.86.644-1.224 1.697zm14.093 6.853q-.666 0-1.675-.3-1.01-.301-1.891-.881-.86-.58-.86-1.225 0-.43.28-.687.3-.28.709-.28.344 0 .644.258.666.602 1.268.902.623.28 1.525.28 2.45 0 2.45-1.31 0-.323-.258-.58-.258-.28-.71-.452-.429-.172-.837-.28-.387-.128-.817-.214-.15-.022-.214-.043-1.612-.387-2.6-1.139-.967-.773-.967-2.213 0-1.482 1.225-2.213 1.224-.752 2.814-.752 1.139 0 2.578.602 1.461.602 1.461 1.46 0 .41-.279.688-.28.28-.666.28-.344 0-.559-.15-.085-.065-.3-.194-.215-.15-.301-.193-.065-.065-.258-.172-.172-.108-.28-.13-.085-.042-.279-.107-.171-.064-.322-.086-.15-.021-.365-.043-.193-.021-.43-.021-.709 0-1.418.258-.687.258-.687.773 0 .323.086.559.107.215.386.365.28.15.43.215.15.064.645.193.515.13.687.172 2.256.666 3.201 1.397.967.709.967 2.04 0 .903-.408 1.569-.408.666-1.096 1.01-.666.344-1.375.494-.709.15-1.504.15zm20.733-15.575q.28-.28.687-.28.408 0 .688.28.28.278.28.687v13.922q0 .408-.28.687-.28.28-.688.28-.408 0-.687-.28-.28-.28-.28-.687v-.28q-1.46 1.246-3.308 1.246-2.17 0-3.717-1.633-1.525-1.654-1.525-3.931t1.525-3.91q1.547-1.655 3.717-1.655 1.848 0 3.308 1.246v-5.005q0-.409.28-.688zm-1.246 7.433q-.967-1.053-2.342-1.053t-2.342 1.053q-.967 1.052-.967 2.578 0 1.525.967 2.578t2.342 1.053q1.375 0 2.342-1.053.966-1.053.966-2.578 0-1.526-.966-2.578zm15.404 2.256q0 .408-.28.687-.279.28-.687.28h-7.068q.215 1.288 1.138 2.148.924.838 2.149.838t1.762-.194q.537-.193 1.074-.687.28-.236.623-.236.43 0 .687.279.28.28.28.687 0 .451-.323.73-1.568 1.354-4.103 1.354-2.191 0-3.738-1.632-1.547-1.655-1.547-3.932t1.547-3.91q1.547-1.655 3.738-1.655 2.234 0 3.48 1.569 1.268 1.568 1.268 3.674zm-7.885-.967h5.844q-.236-1.031-.988-1.676-.73-.666-1.72-.666-1.052 0-1.911.645-.86.644-1.225 1.697zm24.063 5.092q0 .537-.43.816-1.375.945-3.072.945-2.278 0-3.889-1.632-1.59-1.633-1.59-3.932t1.59-3.932q1.611-1.633 3.889-1.633 1.697 0 3.072.946.43.279.43.816 0 .408-.28.688-.279.279-.687.279-.3 0-.537-.172-.903-.623-1.998-.623-1.461 0-2.514 1.074-1.031 1.053-1.031 2.557t1.031 2.578q1.053 1.053 2.514 1.053 1.095 0 1.998-.623.236-.172.537-.172.408 0 .687.28.28.278.28.687zm4.275-6.381q-1.01 1.052-1.01 2.578 0 1.525 1.01 2.578t2.385 1.053q1.375 0 2.363-1.053t.988-2.578q0-1.526-.988-2.578-.988-1.053-2.363-1.053t-2.385 1.053zm-1.396 6.51q-1.547-1.655-1.547-3.932t1.547-3.91q1.568-1.655 3.78-1.655 2.214 0 3.74 1.655 1.546 1.633 1.546 3.91t-1.547 3.932q-1.525 1.632-3.738 1.632t-3.781-1.632zm13.191 5.263q-.28.28-.687.28-.409 0-.688-.28-.28-.28-.28-.687V16.283q0-.408.28-.687.28-.28.688-.28.408 0 .687.28.28.279.28.687v.28q1.46-1.247 3.308-1.247 2.17 0 3.695 1.655 1.547 1.633 1.547 3.91t-1.547 3.932q-1.525 1.632-3.695 1.632-1.848 0-3.309-1.246v4.19q0 .408-.279.687zm1.246-6.617q.967 1.053 2.342 1.053t2.342-1.053q.967-1.053.967-2.578 0-1.526-.967-2.578-.967-1.053-2.342-1.053t-2.342 1.053q-.967 1.052-.967 2.578 0 1.525.967 2.578zm14.76-8.143q1.912 0 3.351 1.268v-.086q0-.408.258-.687.28-.28.688-.28.408 0 .687.28.301.279.301.687v8.766q0 .408-.3.687-.28.28-.688.28-.408 0-.688-.28-.258-.28-.258-.687v-.086q-1.439 1.267-3.351 1.267-2.213 0-3.781-1.633-1.547-1.654-1.547-3.931t1.547-3.91q1.568-1.655 3.78-1.655zm2.363 2.987q-.988-1.053-2.363-1.053t-2.385 1.053q-1.01 1.052-1.01 2.578 0 1.525 1.01 2.578t2.385 1.053q1.375 0 2.363-1.053t.988-2.578q0-1.526-.988-2.578zm9.152 8.142q-.666 0-1.675-.3-1.01-.301-1.89-.881-.86-.58-.86-1.225 0-.43.279-.687.3-.28.709-.28.344 0 .645.258.666.602 1.267.902.623.28 1.526.28 2.449 0 2.449-1.31 0-.323-.258-.58-.258-.28-.71-.452-.429-.172-.837-.28-.387-.128-.816-.214-.15-.022-.215-.043-1.612-.387-2.6-1.139-.967-.773-.967-2.213 0-1.482 1.225-2.213 1.225-.752 2.814-.752 1.14 0 2.579.602 1.46.602 1.46 1.46 0 .41-.279.688-.28.28-.666.28-.344 0-.558-.15-.086-.065-.301-.194-.215-.15-.301-.193-.064-.065-.258-.172-.172-.108-.28-.13-.085-.042-.278-.107-.172-.064-.323-.086-.15-.021-.365-.043-.193-.021-.43-.021-.709 0-1.418.258-.687.258-.687.773 0 .323.086.559.107.215.387.365.279.15.43.215.15.064.644.193.515.13.687.172 2.256.666 3.201 1.397.967.709.967 2.04 0 .903-.408 1.569-.408.666-1.096 1.01-.666.344-1.375.494-.709.15-1.504.15zm17.94-9.195q-1.547 0-2.514 1.053-.945 1.031-.945 2.578v4.598q0 .408-.28.687-.279.28-.687.28-.408 0-.687-.28-.28-.28-.28-.687v-9.153q0-.408.28-.687.279-.28.687-.28.408 0 .688.28.279.279.279.687v1.01q.516-.86 1.46-1.44.946-.58 1.999-.58 2.363 0 3.18 1.698 1.482-1.698 3.802-1.698 1.075 0 1.805.43.73.408 1.074 1.225.366.795.494 1.718.15.924.15 2.192v4.598q0 .408-.278.687-.28.28-.688.28-.408 0-.687-.28-.28-.28-.28-.687v-4.877q0-.86-.043-1.354-.043-.494-.193-1.01-.129-.515-.473-.752-.344-.236-.88-.236-1.569 0-2.514.967-.946.967-.946 2.62v4.642q0 .386-.279.687-.28.28-.687.28-.409 0-.688-.28-.28-.28-.28-.687v-5.092q0-.71-.064-1.182-.043-.494-.193-.967-.15-.494-.494-.73-.322-.258-.838-.258zm17.402 7.262q3.739 0 3.739-3.631v-4.598q0-.408.257-.687.28-.28.688-.28.408 0 .687.28.301.279.301.687v9.153q0 .408-.3.687-.28.28-.688.28-.408 0-.688-.28-.257-.28-.257-.687v-.43q-1.633 1.44-3.739 1.44-1.998 0-2.922-1.397-.902-1.418-.902-4.168v-4.598q0-.408.28-.687.3-.28.708-.28.409 0 .666.28.28.279.28.687v4.705q0 1.783.386 2.664.387.86 1.504.86zm16.371-3.782q0-.494-.021-.794 0-.323-.064-.774-.043-.473-.172-.773-.13-.301-.323-.602-.193-.3-.537-.43-.322-.15-.773-.15-1.569 0-2.707 1.096-1.139 1.095-1.139 2.535v4.598q0 .408-.28.687-.278.28-.687.28-.408 0-.687-.28-.28-.28-.28-.687v-9.153q0-.408.28-.687.28-.28.687-.28.409 0 .688.28.28.279.28.687v.43q1.632-1.44 3.845-1.44 1.998 0 2.9 1.418.924 1.397.924 4.147v4.598q0 .408-.28.687-.279.28-.687.28-.408 0-.687-.28-.28-.28-.28-.687zm13.213-9.86q.28-.28.688-.28.408 0 .687.28.28.278.28.687v13.922q0 .408-.28.687-.279.28-.687.28-.408 0-.688-.28-.279-.28-.279-.687v-.28q-1.46 1.246-3.309 1.246-2.17 0-3.716-1.633-1.526-1.654-1.526-3.931t1.526-3.91q1.546-1.655 3.716-1.655 1.848 0 3.309 1.246v-5.005q0-.409.28-.688zm-1.246 7.433q-.967-1.053-2.342-1.053t-2.341 1.053q-.967 1.052-.967 2.578 0 1.525.967 2.578.966 1.053 2.341 1.053 1.375 0 2.342-1.053.967-1.053.967-2.578 0-1.526-.967-2.578zm8.143-7.413q.408.409.408.989 0 .58-.408.988-.387.408-.967.408t-1.01-.408q-.408-.408-.408-.988 0-.58.408-.988.43-.409 1.01-.409.58 0 .967.409zm.043 5.48v9.044q0 .408-.301.688-.28.279-.688.279-.408 0-.687-.28-.258-.279-.258-.687V16.37q0-.408.258-.687.28-.28.687-.28.409 0 .688.28.3.279.3.687zm7.863-1.054q1.912 0 3.352 1.268v-.086q0-.408.257-.687.28-.28.688-.28.408 0 .687.28.301.279.301.687v8.766q0 .408-.3.687-.28.28-.688.28-.408 0-.688-.28-.257-.28-.257-.687v-.086q-1.44 1.267-3.352 1.267-2.213 0-3.781-1.633-1.547-1.654-1.547-3.931t1.547-3.91q1.568-1.655 3.781-1.655zm2.363 2.987q-.988-1.053-2.363-1.053t-2.385 1.053q-1.01 1.052-1.01 2.578 0 1.525 1.01 2.578t2.385 1.053q1.375 0 2.363-1.053.989-1.053.989-2.578 0-1.526-.989-2.578zm9.539 6.209q.409 0 .688.279.28.28.28.688 0 .408-.28.687-.28.28-.688.28-.945 0-1.632-.173-.666-.15-1.14-.537-.45-.408-.73-.88-.279-.495-.43-1.311-.128-.838-.171-1.654-.043-.817-.043-2.084v-8.25q0-.409.28-.688.278-.28.687-.28.408 0 .687.28.28.28.28.688V21.74q.02.537.085 1.203.086.645.194.86.107.193.386.43.28.214.623.257.344.022.924.022zm11.817-3.953q0 .408-.28.687-.279.28-.687.28h-7.068q.214 1.288 1.138 2.148.924.838 2.149.838 1.224 0 1.761-.194.538-.193 1.075-.687.279-.236.623-.236.43 0 .687.279.28.28.28.687 0 .451-.323.73-1.568 1.354-4.103 1.354-2.192 0-3.739-1.632-1.546-1.655-1.546-3.932t1.546-3.91q1.547-1.655 3.739-1.655 2.234 0 3.48 1.569 1.268 1.568 1.268 3.674zm-7.885-.967h5.844q-.237-1.031-.989-1.676-.73-.666-1.718-.666-1.053 0-1.912.645-.86.644-1.225 1.697zm14.094 6.853q-.666 0-1.676-.3-1.01-.301-1.89-.881-.86-.58-.86-1.225 0-.43.28-.687.3-.28.708-.28.344 0 .645.258.666.602 1.267.902.623.28 1.526.28 2.449 0 2.449-1.31 0-.323-.258-.58-.258-.28-.709-.452-.43-.172-.838-.28-.386-.128-.816-.214-.15-.022-.215-.043-1.611-.387-2.6-1.139-.966-.773-.966-2.213 0-1.482 1.224-2.213 1.225-.752 2.815-.752 1.138 0 2.578.602 1.46.602 1.46 1.46 0 .41-.279.688-.279.28-.666.28-.343 0-.558-.15-.086-.065-.3-.194-.216-.15-.302-.193-.064-.065-.258-.172-.171-.108-.279-.13-.086-.042-.28-.107-.171-.064-.321-.086-.15-.021-.366-.043-.193-.021-.43-.021-.708 0-1.417.258-.688.258-.688.773 0 .323.086.559.108.215.387.365.28.15.43.215.15.064.644.193l.688.172q2.255.666 3.2 1.397.968.709.968 2.04 0 .903-.409 1.569-.408.666-1.095 1.01-.666.344-1.375.494-.71.15-1.504.15zM423.41 10.87q.278-.28.687-.28.408 0 .687.28.28.278.28.687v13.922q0 .408-.28.687-.28.28-.687.28-.409 0-.688-.28-.28-.28-.28-.687v-.28q-1.46 1.246-3.308 1.246-2.17 0-3.717-1.633-1.525-1.654-1.525-3.931t1.525-3.91q1.547-1.655 3.717-1.655 1.848 0 3.309 1.246v-5.005q0-.409.28-.688zm-1.247 7.433q-.967-1.053-2.342-1.053t-2.342 1.053q-.966 1.052-.966 2.578 0 1.525.966 2.578.967 1.053 2.342 1.053t2.342-1.053q.967-1.053.967-2.578 0-1.526-.967-2.578zm15.404 2.256q0 .408-.279.687-.28.28-.687.28h-7.069q.215 1.288 1.139 2.148.924.838 2.148.838 1.225 0 1.762-.194.537-.193 1.074-.687.28-.236.623-.236.43 0 .688.279.28.28.28.687 0 .451-.323.73-1.569 1.354-4.104 1.354-2.191 0-3.738-1.632-1.547-1.655-1.547-3.932t1.547-3.91q1.547-1.655 3.738-1.655 2.235 0 3.48 1.569 1.268 1.568 1.268 3.674zm-7.884-.967h5.843q-.236-1.031-.988-1.676-.73-.666-1.719-.666-1.052 0-1.912.645-.86.644-1.224 1.697zm14.781-2.492q-.28-.28-.28-.688 0-.408.28-.687.28-.28.687-.28h1.246V14.05q0-1.44.924-2.406.946-.967 2.492-.967.817 0 1.569.344.773.343.773 1.03 0 .409-.279.688-.28.28-.688.28-.279 0-.558-.194-.3-.215-.817-.215-.687 0-1.095.387-.387.365-.387 1.053v1.396h2.148q.409 0 .688.28.28.279.28.687 0 .408-.28.688-.28.279-.688.279h-2.148v8.078q0 .408-.28.688-.279.279-.687.279-.408 0-.687-.28-.28-.279-.28-.687V17.38h-1.246q-.408 0-.687-.28zm16.715-6.79q0 .237-.13.473l-1.74 3.051q-.279.494-.837.494-.409 0-.688-.28-.28-.278-.28-.687 0-.279.13-.494l1.74-3.05q.28-.473.838-.473.408 0 .687.279.28.28.28.688zm-4.104 14.202q3.738 0 3.738-3.631v-4.598q0-.408.258-.687.28-.28.688-.28.408 0 .687.28.301.279.301.687v9.153q0 .408-.3.687-.28.28-.688.28-.408 0-.688-.28-.258-.28-.258-.687v-.43q-1.632 1.44-3.738 1.44-1.998 0-2.922-1.397-.902-1.418-.902-4.168v-4.598q0-.408.28-.687.3-.28.708-.28t.666.28q.28.279.28.687v4.705q0 1.783.386 2.664.387.86 1.504.86zm9.41-2.901v-4.146h-1.375q-.408 0-.687-.28-.28-.279-.28-.687 0-.408.28-.687.28-.28.687-.28h1.375v-2.427q0-.409.28-.688.279-.28.687-.28.408 0 .688.28.279.28.279.688v2.427h2.643q.408 0 .687.28.28.279.28.687 0 .408-.28.688-.28.279-.687.279h-2.643v4.146q0 1.955.494 2.428.494.473 2.578.473.408 0 .688.279.279.28.279.688 0 .408-.28.687-.279.28-.687.28-2.986 0-3.996-1.032-1.01-1.031-1.01-3.803zm7.821-10.741q.279-.28.687-.28.408 0 .688.28.279.278.279.687v5.005q1.46-1.246 3.309-1.246 2.17 0 3.695 1.655 1.547 1.633 1.547 3.91t-1.547 3.932q-1.526 1.632-3.695 1.632-1.848 0-3.309-1.246v.28q0 .408-.28.687-.279.28-.687.28-.408 0-.687-.28-.28-.28-.28-.687V11.557q0-.409.28-.688zm7.304 7.433q-.966-1.053-2.341-1.053-1.375 0-2.342 1.053-.967 1.052-.967 2.578 0 1.525.967 2.578t2.342 1.053q1.375 0 2.341-1.053.967-1.053.967-2.578 0-1.526-.967-2.578zm7.692 0q-1.01 1.052-1.01 2.578 0 1.525 1.01 2.578t2.385 1.053q1.375 0 2.363-1.053t.988-2.578q0-1.526-.988-2.578-.988-1.053-2.363-1.053t-2.385 1.053zm-1.397 6.51q-1.547-1.655-1.547-3.932t1.547-3.91q1.569-1.655 3.782-1.655 2.212 0 3.738 1.655 1.547 1.633 1.547 3.91t-1.547 3.932q-1.526 1.632-3.738 1.632-2.213 0-3.782-1.632zm15.684-.301q.408 0 .687.279.28.28.28.688 0 .408-.28.687-.279.28-.687.28-.945 0-1.633-.173-.666-.15-1.139-.537-.45-.408-.73-.88-.28-.495-.43-1.311-.129-.838-.172-1.654-.043-.817-.043-2.084v-8.25q0-.409.28-.688.279-.28.687-.28.408 0 .688.28.279.28.279.688V21.74q.021.537.086 1.203.086.645.193.86.108.193.387.43.28.214.623.257.344.022.924.022zM16.87 238.32q-.28-.3-.28-.709 0-.408.28-.666.278-.279.687-.279h13.879q.408 0 .687.28.28.279.28.665 0 .473-.366.774l-11.666 9.066h11.065q.408 0 .687.3.28.28.28.688 0 .409-.28.688-.28.258-.687.258h-13.88q-.408 0-.687-.28-.28-.279-.28-.666 0-.472.366-.773l11.666-9.066H17.557q-.409 0-.688-.28zm-.56-12.89q.237 0 .473.129l3.051 1.74q.494.28.494.838 0 .408-.28.687-.278.28-.687.28-.279 0-.494-.13l-3.05-1.74q-.473-.279-.473-.838 0-.408.279-.687.28-.28.688-.28zm14.202 4.103q0-3.738-3.631-3.738h-4.598q-.408 0-.687-.258-.28-.28-.28-.687 0-.409.28-.688.279-.3.687-.3h9.153q.408 0 .687.3.28.28.28.688 0 .408-.28.687-.28.258-.687.258h-.43q1.44 1.633 1.44 3.738 0 1.998-1.397 2.922-1.418.902-4.168.902h-4.598q-.408 0-.687-.279-.28-.3-.28-.709 0-.408.28-.666.279-.28.687-.28h4.705q1.783 0 2.664-.386.86-.387.86-1.504zm-7.262-14.137q0 1.547 1.053 2.514 1.031.945 2.578.945h4.598q.408 0 .687.28.28.28.28.687 0 .408-.28.688-.28.28-.687.28h-9.153q-.408 0-.687-.28-.28-.28-.28-.688 0-.408.28-.687.279-.28.687-.28h1.01q-.86-.515-1.44-1.46-.58-.946-.58-1.999 0-2.363 1.698-3.18-1.698-1.482-1.698-3.802 0-1.074.43-1.805.408-.73 1.225-1.074.795-.365 1.718-.494.924-.15 2.192-.15h4.598q.408 0 .687.279.28.28.28.687 0 .409-.28.688-.28.28-.687.28h-4.877q-.86 0-1.354.042-.494.043-1.01.194-.515.128-.752.472-.236.344-.236.881 0 1.568.967 2.514.967.945 2.62.945h4.642q.386 0 .687.28.28.279.28.687 0 .408-.28.687-.28.28-.687.28h-5.092q-.71 0-1.182.064-.494.043-.967.194-.494.15-.73.494-.258.322-.258.837zm3.309-22.988q.408 0 .687.28.28.279.28.687v7.068q1.288-.214 2.148-1.138.838-.924.838-2.149 0-1.224-.194-1.761-.193-.538-.687-1.075-.236-.279-.236-.623 0-.43.279-.687.28-.28.687-.28.451 0 .73.323 1.354 1.568 1.354 4.103 0 2.192-1.632 3.739-1.655 1.546-3.932 1.546t-3.91-1.546q-1.655-1.547-1.655-3.739 0-2.234 1.569-3.48 1.568-1.268 3.674-1.268zm-.967 7.885v-5.844q-1.031.237-1.676.988-.666.731-.666 1.72 0 1.052.645 1.911.644.86 1.697 1.225zm-4.319-15.92q0-.408.28-.687.279-.28.687-.28.408 0 .688.28.279.279.279.687 0 1.611 1.182 2.643 1.16 1.01 2.857 1.01h4.19q.408 0 .687.279.28.279.28.687 0 .408-.28.688-.28.279-.687.279h-9.153q-.408 0-.687-.28-.28-.279-.28-.687 0-.408.28-.687.279-.28.687-.28h.387q-1.397-1.525-1.397-3.652zm3.03-4.727q1.052 1.01 2.578 1.01 1.525 0 2.578-1.01t1.053-2.384q0-1.375-1.053-2.364-1.053-.988-2.578-.988-1.526 0-2.578.988-1.053.989-1.053 2.364t1.053 2.384zm6.51 1.397q-1.655 1.547-3.932 1.547t-3.91-1.547q-1.655-1.568-1.655-3.781t1.655-3.739q1.633-1.546 3.91-1.546t3.932 1.546q1.632 1.526 1.632 3.739t-1.632 3.781zM16.87 155.648q-.28-.279-.28-.687 0-.408.28-.688.278-.279.687-.279h13.922q.408 0 .687.28.28.279.28.687 0 .408-.28.687-.28.28-.687.28h-.28q1.246 1.46 1.246 3.308 0 2.17-1.632 3.717-1.655 1.526-3.932 1.526t-3.91-1.526q-1.655-1.547-1.655-3.717 0-1.847 1.247-3.308h-5.006q-.409 0-.688-.28zm7.433 1.247q-1.053.966-1.053 2.341 0 1.375 1.053 2.342 1.052.967 2.578.967 1.525 0 2.578-.967t1.053-2.342q0-1.375-1.053-2.341-1.053-.967-2.578-.967-1.526 0-2.578.967zm2.256-15.405q.408 0 .687.28.28.279.28.687v7.068q1.288-.214 2.148-1.138.838-.924.838-2.149 0-1.224-.194-1.761-.193-.538-.687-1.075-.236-.279-.236-.623 0-.43.279-.687.28-.28.687-.28.451 0 .73.323 1.354 1.568 1.354 4.103 0 2.192-1.632 3.739-1.655 1.546-3.932 1.546t-3.91-1.546q-1.655-1.547-1.655-3.739 0-2.234 1.569-3.48 1.568-1.268 3.674-1.268zm-.967 7.885v-5.844q-1.031.237-1.676.989-.666.73-.666 1.718 0 1.053.645 1.912.644.86 1.697 1.225zm-3.266-14.953q-.387 0-.666-.28-.3-.3-.3-.708 0-.602.558-.86l7.219-3.351-7.219-3.352q-.559-.258-.559-.86 0-.407.301-.687.28-.3.666-.3.236 0 .408.085l9.11 4.254q.558.258.558.86 0 .601-.558.859l-9.11 4.254q-.172.086-.408.086zm4.233-21.635q.408 0 .687.28.28.279.28.687v7.068q1.288-.215 2.148-1.138.838-.924.838-2.149 0-1.224-.194-1.762-.193-.537-.687-1.074-.236-.28-.236-.623 0-.43.279-.687.28-.28.687-.28.451 0 .73.323 1.354 1.568 1.354 4.103 0 2.192-1.632 3.738-1.655 1.547-3.932 1.547t-3.91-1.547q-1.655-1.546-1.655-3.738 0-2.234 1.569-3.48 1.568-1.268 3.674-1.268zm-.967 7.885v-5.844q-1.031.236-1.676.988-.666.73-.666 1.72 0 1.052.645 1.911.644.86 1.697 1.225zm5.092-18.391q.537 0 .816.43.945 1.375.945 3.072 0 2.278-1.632 3.889-1.633 1.59-3.932 1.59t-3.932-1.59q-1.633-1.611-1.633-3.889 0-1.697.946-3.072.279-.43.816-.43.408 0 .688.28.279.279.279.687 0 .3-.172.537-.623.903-.623 1.998 0 1.461 1.074 2.514 1.053 1.031 2.557 1.031t2.578-1.031q1.053-1.053 1.053-2.514 0-1.096-.623-1.998-.172-.236-.172-.537 0-.408.28-.687.278-.28.687-.28zm-4.125-11.343q.408 0 .687.279.28.28.28.687v7.069q1.288-.215 2.148-1.139.838-.924.838-2.148 0-1.225-.194-1.762-.193-.537-.687-1.074-.236-.28-.236-.623 0-.43.279-.688.28-.28.687-.28.451 0 .73.323 1.354 1.568 1.354 4.104 0 2.191-1.632 3.738-1.655 1.547-3.932 1.547t-3.91-1.547q-1.655-1.547-1.655-3.738 0-2.235 1.569-3.48 1.568-1.269 3.674-1.269zm-.967 7.884V92.98q-1.031.236-1.676.988-.666.73-.666 1.719 0 1.052.645 1.912.644.859 1.697 1.224zm6.853-14.093q0 .666-.3 1.675-.301 1.01-.881 1.89-.58.86-1.225.86-.43 0-.687-.279-.28-.3-.28-.709 0-.344.258-.645.602-.666.902-1.267.28-.623.28-1.525 0-2.45-1.31-2.45-.323 0-.58.258-.28.258-.452.71-.172.429-.28.837-.128.387-.214.816-.022.15-.043.215-.387 1.612-1.139 2.6-.773.967-2.213.967-1.482 0-2.213-1.225-.752-1.225-.752-2.814 0-1.14.602-2.579.602-1.46 1.46-1.46.41 0 .688.279.28.28.28.666 0 .344-.15.558-.065.086-.194.301-.15.215-.193.301-.065.064-.172.258-.108.172-.13.28-.042.085-.107.278-.064.172-.086.323-.021.15-.043.365-.021.193-.021.43 0 .709.258 1.418.258.687.773.687.323 0 .559-.086.215-.107.365-.387.15-.279.215-.43.064-.15.193-.644.13-.515.172-.687.666-2.256 1.397-3.202.709-.966 2.04-.966.903 0 1.569.408.666.408 1.01 1.096.344.666.494 1.375.15.709.15 1.504zM254.76 369.495q.257.3.257.644 0 .408-.28.688-.279.279-.687.279-.45 0-.709-.3-.322-.345-.494-.495-.172-.15-.601-.408-.43-.28-1.053-.387-.623-.107-1.461-.107-1.418 0-2.363.644-.924.623-.924 1.87 0 1.052.945 1.697.945.644 2.514.859 5.392.795 5.392 4.447 0 1.44-.88 2.492-.86 1.032-2.084 1.504-1.225.452-2.6.452-3.094 0-5.285-2.192-.28-.28-.28-.687 0-.409.28-.688.3-.28.687-.28.408 0 .688.28.58.58.924.86.343.257 1.117.515.795.258 1.869.258 1.418 0 2.514-.645 1.117-.666 1.117-1.869 0-.644-.344-1.117-.344-.494-1.01-.773-.666-.28-1.181-.409-.516-.128-1.268-.257-2.277-.366-3.674-1.44-1.375-1.096-1.375-3.008 0-2.105 1.526-3.265 1.546-1.182 3.695-1.182 3.137 0 5.027 2.02zm12.374 7.992q0 .408-.279.687-.28.28-.688.28H259.1q.215 1.289 1.139 2.148.924.838 2.148.838 1.225 0 1.762-.193.537-.194 1.074-.688.28-.236.623-.236.43 0 .688.28.279.278.279.687 0 .45-.322.73-1.569 1.354-4.104 1.354-2.191 0-3.738-1.633-1.547-1.655-1.547-3.932t1.547-3.91q1.547-1.654 3.738-1.654 2.235 0 3.48 1.568 1.268 1.568 1.268 3.674zm-7.884-.967h5.843q-.236-1.031-.988-1.676-.73-.666-1.719-.666-1.053 0-1.912.645-.86.644-1.224 1.697zm14.48 4.92q.408 0 .687.28.28.279.28.687 0 .408-.28.687-.279.28-.687.28-.945 0-1.633-.172-.666-.15-1.138-.537-.452-.409-.731-.881-.28-.494-.43-1.31-.129-.839-.172-1.655-.043-.817-.043-2.084v-8.25q0-.408.28-.688.28-.279.687-.279.408 0 .688.28.28.279.28.687v10.183q.02.538.085 1.204.086.644.193.859.108.193.387.43.28.214.623.257.344.022.924.022zm11.816-3.953q0 .408-.279.687-.28.28-.687.28h-7.069q.215 1.289 1.139 2.148.924.838 2.148.838 1.225 0 1.762-.193.537-.194 1.074-.688.28-.236.623-.236.43 0 .688.28.28.278.28.687 0 .45-.323.73-1.568 1.354-4.104 1.354-2.191 0-3.738-1.633-1.547-1.655-1.547-3.932t1.547-3.91q1.547-1.654 3.738-1.654 2.235 0 3.48 1.568 1.268 1.568 1.268 3.674zm-7.884-.967h5.843q-.236-1.031-.988-1.676-.73-.666-1.719-.666-1.052 0-1.912.645-.86.644-1.224 1.697zm18.39 5.092q0 .537-.43.816-1.374.946-3.072.946-2.277 0-3.888-1.633-1.59-1.633-1.59-3.932t1.59-3.932q1.611-1.632 3.888-1.632 1.698 0 3.073.945.43.28.43.816 0 .409-.28.688-.28.28-.688.28-.3 0-.537-.173-.902-.623-1.998-.623-1.46 0-2.513 1.074-1.032 1.053-1.032 2.557t1.032 2.578q1.052 1.053 2.513 1.053 1.096 0 1.998-.623.237-.172.537-.172.409 0 .688.28.28.279.28.687zm10.055 0q0 .537-.43.816-1.375.946-3.072.946-2.277 0-3.889-1.633-1.59-1.633-1.59-3.932t1.59-3.932q1.612-1.632 3.889-1.632 1.697 0 3.072.945.43.28.43.816 0 .409-.28.688-.279.28-.687.28-.3 0-.537-.173-.902-.623-1.998-.623-1.461 0-2.514 1.074-1.03 1.053-1.03 2.557t1.03 2.578q1.053 1.053 2.514 1.053 1.096 0 1.998-.623.236-.172.537-.172.408 0 .688.28.279.279.279.687zm4.297-13.793q.408.408.408.988 0 .58-.408.988-.387.409-.967.409t-1.01-.409q-.408-.408-.408-.988 0-.58.408-.988.43-.408 1.01-.408.58 0 .967.408zm.043 5.478v9.045q0 .408-.301.688-.28.28-.687.28-.409 0-.688-.28-.258-.28-.258-.688v-9.045q0-.408.258-.687.28-.28.688-.28.408 0 .687.28.3.28.3.687zm5.478 1.934q-1.01 1.053-1.01 2.578t1.01 2.578q1.01 1.053 2.385 1.053 1.375 0 2.363-1.053.989-1.053.989-2.578t-.989-2.578q-.988-1.053-2.363-1.053t-2.385 1.053zm-1.396 6.51q-1.547-1.655-1.547-3.932t1.547-3.91q1.568-1.654 3.781-1.654t3.738 1.654q1.547 1.633 1.547 3.91t-1.547 3.932q-1.525 1.633-3.738 1.633t-3.781-1.633zm19.164-4.082q0-.494-.022-.795 0-.322-.064-.774-.043-.472-.172-.773-.129-.3-.322-.602-.194-.3-.537-.43-.323-.15-.774-.15-1.568 0-2.707 1.096-1.139 1.096-1.139 2.535v4.598q0 .408-.279.687-.28.28-.687.28-.409 0-.688-.28-.28-.279-.28-.687v-9.153q0-.408.28-.687.28-.28.688-.28.408 0 .687.28.28.28.28.687v.43q1.632-1.44 3.845-1.44 1.998 0 2.9 1.419.924 1.396.924 4.146v4.598q0 .408-.279.687-.28.28-.687.28-.409 0-.688-.28-.28-.279-.28-.687zm14.373-.172q0 .408-.28.687-.279.28-.687.28h-7.068q.215 1.289 1.138 2.148.924.838 2.149.838 1.224 0 1.762-.193.537-.194 1.074-.688.28-.236.623-.236.43 0 .687.28.28.278.28.687 0 .45-.323.73-1.568 1.354-4.103 1.354-2.192 0-3.738-1.633-1.547-1.655-1.547-3.932t1.547-3.91q1.546-1.654 3.738-1.654 2.234 0 3.48 1.568 1.268 1.568 1.268 3.674zm-7.885-.967h5.844q-.236-1.031-.988-1.676-.73-.666-1.72-.666-1.052 0-1.911.645-.86.644-1.225 1.697zm14.094 6.854q-.666 0-1.676-.301-1.01-.301-1.89-.881-.86-.58-.86-1.225 0-.43.28-.687.3-.28.708-.28.344 0 .645.258.666.602 1.268.903.623.279 1.525.279 2.45 0 2.45-1.31 0-.323-.259-.58-.257-.28-.709-.452-.43-.172-.838-.28-.386-.128-.816-.214-.15-.021-.215-.043-1.611-.387-2.6-1.139-.966-.773-.966-2.213 0-1.482 1.224-2.212 1.225-.752 2.815-.752 1.139 0 2.578.601 1.46.602 1.46 1.461 0 .408-.278.688-.28.279-.666.279-.344 0-.559-.15-.086-.065-.3-.194-.216-.15-.302-.193-.064-.065-.257-.172-.172-.108-.28-.129-.086-.043-.279-.107-.172-.065-.322-.086-.15-.022-.365-.043-.194-.022-.43-.022-.71 0-1.418.258-.688.258-.688.773 0 .323.086.559.108.215.387.365.28.15.43.215.15.065.644.193l.688.172q2.256.666 3.2 1.397.968.709.968 2.04 0 .903-.409 1.57-.408.665-1.095 1.009-.666.344-1.375.494-.71.15-1.504.15zm-250.785-54.03l4.781 11.355q.07.21.07.299 0 .51-.491.72-.211.07-.3.07-.527 0-.738-.491l-1.265-3.024h-5.555l-1.265 3.024q-.211.492-.739.492-.088 0-.299-.07-.492-.211-.492-.721 0-.088.07-.299l4.782-11.355q.21-.493.72-.493t.721.493zm-.72 2.337l-2.11 5.01h4.219zm10.775 8.561q.334 0 .562.228.229.229.229.563 0 .334-.229.562-.228.229-.562.229-.774 0-1.336-.14-.545-.124-.932-.44-.369-.334-.597-.72-.229-.405-.352-1.073-.105-.686-.14-1.354-.036-.668-.036-1.705v-6.75q0-.334.229-.562.228-.229.562-.229.334 0 .563.229.228.228.228.562v8.333q.018.439.07.984.07.527.159.703.088.158.316.351.229.176.51.211.281.018.756.018zm9.668-3.234q0 .334-.229.562-.228.229-.562.229h-5.783q.175 1.054.931 1.757.756.686 1.758.686t1.442-.158q.439-.158.878-.563.229-.193.51-.193.352 0 .563.228.228.229.228.563 0 .369-.263.598-1.284 1.107-3.358 1.107-1.793 0-3.058-1.336-1.266-1.353-1.266-3.217 0-1.863 1.266-3.199 1.265-1.353 3.058-1.353 1.828 0 2.848 1.283 1.037 1.283 1.037 3.006zm-6.451-.791h4.781q-.193-.844-.809-1.372-.597-.544-1.406-.544-.861 0-1.564.527-.703.527-1.002 1.389zm12.867-1.917q-1.266 0-2.057.862-.773.844-.773 2.11v3.761q0 .334-.229.562-.228.229-.562.229-.334 0-.563-.229-.228-.228-.228-.562v-7.488q0-.334.228-.563.229-.228.563-.228.334 0 .562.228.229.229.229.563v.826q.422-.703 1.195-1.178.774-.474 1.635-.474 1.933 0 2.601 1.388 1.213-1.388 3.112-1.388.879 0 1.476.351.598.334.88 1.002.298.65.404 1.406.123.756.123 1.793v3.762q0 .334-.229.562-.228.229-.562.229-.334 0-.563-.229-.228-.228-.228-.562v-3.99q0-.703-.036-1.108-.035-.404-.158-.826-.105-.422-.387-.615-.28-.193-.72-.193-1.283 0-2.057.79-.773.792-.773 2.145v3.797q0 .316-.229.562-.228.229-.562.229-.334 0-.563-.229-.228-.228-.228-.562v-4.166q0-.58-.053-.967-.035-.404-.158-.79-.123-.405-.405-.599-.263-.21-.685-.21zm14.976-1.581q1.565 0 2.743 1.037v-.07q0-.335.21-.563.23-.229.563-.229.334 0 .563.229.246.228.246.562v7.172q0 .334-.246.563-.229.228-.563.228-.334 0-.562-.228-.211-.229-.211-.563v-.07q-1.178 1.037-2.743 1.037-1.81 0-3.093-1.336-1.266-1.353-1.266-3.217 0-1.863 1.266-3.199 1.283-1.353 3.093-1.353zm1.934 2.443q-.809-.861-1.934-.861t-1.95.86q-.827.862-.827 2.11 0 1.248.826 2.11.826.86 1.951.86t1.934-.86q.809-.862.809-2.11 0-1.248-.809-2.11zm10.652 1.986q0-.404-.017-.65 0-.264-.053-.633-.035-.387-.14-.633-.106-.246-.264-.492-.158-.246-.44-.352-.263-.123-.632-.123-1.284 0-2.215.897-.932.896-.932 2.074v3.762q0 .334-.228.562-.229.229-.563.229-.334 0-.562-.229-.229-.228-.229-.562v-7.488q0-.334.229-.563.228-.228.562-.228.334 0 .563.228.228.229.228.563v.351q1.336-1.178 3.147-1.178 1.634 0 2.373 1.16.755 1.143.755 3.393v3.762q0 .334-.228.562-.229.229-.563.229-.334 0-.562-.229-.229-.228-.229-.562zm5.819-8.051q.334.334.334.809 0 .475-.334.809-.317.334-.791.334-.475 0-.826-.334-.334-.334-.334-.809 0-.475.334-.809.351-.334.826-.334.474 0 .79.334zm.035 4.483v7.4q0 .334-.246.563-.229.228-.563.228-.334 0-.562-.228-.211-.229-.211-.563v-7.4q0-.334.21-.563.23-.228.563-.228.334 0 .563.228.246.229.246.563zm6.434-.861q1.564 0 2.742 1.037v-.07q0-.335.21-.563.23-.229.563-.229.334 0 .563.229.246.228.246.562v7.172q0 .334-.246.563-.229.228-.563.228-.334 0-.562-.228-.211-.229-.211-.563v-.07q-1.178 1.037-2.742 1.037-1.811 0-3.094-1.336-1.266-1.353-1.266-3.217 0-1.863 1.266-3.199 1.283-1.353 3.094-1.353zm1.933 2.443q-.808-.861-1.933-.861t-1.952.86q-.826.862-.826 2.11 0 1.248.826 2.11.827.86 1.952.86t1.933-.86q.809-.862.809-2.11 0-1.248-.809-2.11zm14.488-5.818l4.78 11.355q.071.21.071.299 0 .51-.492.72-.211.07-.3.07-.526 0-.737-.491l-1.266-3.024h-5.555l-1.265 3.024q-.211.492-.739.492-.087 0-.298-.07-.493-.211-.493-.721 0-.088.07-.299l4.782-11.355q.21-.493.72-.493t.721.493zm-.721 2.337l-2.11 5.01h4.22zm11.953 1.002q.334 0 .562.229.229.228.229.562 0 .334-.229.563-.228.228-.562.228-1.319 0-2.162.967-.826.95-.826 2.338v3.428q0 .334-.229.562-.228.229-.562.229-.334 0-.563-.229-.228-.228-.228-.562v-7.488q0-.334.228-.563.229-.228.563-.228.334 0 .562.228.229.229.229.563v.316q1.248-1.143 2.988-1.143zm10.142 7.26q0 .897-.07 1.565-.07.65-.316 1.37-.246.721-.668 1.16-.422.458-1.178.74-.756.298-1.793.298-1.283 0-2.144-.193-.844-.176-1.618-.791-.299-.247-.299-.616 0-.334.229-.562.229-.229.563-.229.263 0 .492.176.527.404 1.072.51.562.123 1.775.123 1.284 0 1.74-.563.475-.545.616-2.109-1.196 1.02-2.725 1.02-1.81 0-3.076-1.336-1.266-1.354-1.266-3.217t1.266-3.217q1.266-1.353 3.076-1.353 1.547 0 2.742 1.019 0-.334.229-.562.228-.247.562-.247.334 0 .563.229.228.228.228.562zm-6.275-.545q.826.862 1.951.862t1.934-.862q.808-.861.808-2.11 0-1.247-.808-2.109-.809-.878-1.934-.878t-1.951.878q-.809.862-.809 2.11 0 1.248.809 2.11zm16.471-2.39q0 .334-.229.562-.228.229-.562.229h-5.783q.175 1.054.931 1.757.756.686 1.758.686t1.441-.158q.44-.158.88-.563.228-.193.509-.193.352 0 .563.228.228.229.228.563 0 .369-.264.598-1.283 1.107-3.357 1.107-1.793 0-3.059-1.336-1.265-1.353-1.265-3.217 0-1.863 1.265-3.199 1.266-1.353 3.059-1.353 1.828 0 2.848 1.283 1.037 1.283 1.037 3.006zm-6.451-.791h4.78q-.193-.844-.808-1.372-.597-.544-1.406-.544-.861 0-1.564.527-.704.527-1.002 1.389zm14.695.931q0-.404-.018-.65 0-.264-.052-.633-.036-.387-.141-.633-.106-.246-.264-.492-.158-.246-.44-.352-.263-.123-.632-.123-1.283 0-2.215.897-.931.896-.931 2.074v3.762q0 .334-.229.562-.228.229-.562.229-.334 0-.563-.229-.228-.228-.228-.562v-7.488q0-.334.228-.563.229-.228.563-.228.334 0 .562.228.229.229.229.563v.351q1.335-1.178 3.146-1.178 1.635 0 2.373 1.16.756 1.143.756 3.393v3.762q0 .334-.229.562-.228.229-.562.229-.334 0-.563-.229-.228-.228-.228-.562zm4.658.721v-3.393h-1.125q-.334 0-.562-.228-.229-.229-.229-.563 0-.334.229-.562.228-.229.562-.229h1.125v-1.986q0-.334.229-.563.228-.228.562-.228.334 0 .563.228.228.229.228.563v1.986h2.162q.334 0 .563.229.228.228.228.562 0 .334-.228.563-.229.228-.563.228h-2.162v3.393q0 1.6.404 1.986.405.387 2.11.387.334 0 .562.228.229.229.229.563 0 .334-.229.562-.228.229-.562.229-2.444 0-3.27-.844-.826-.844-.826-3.111zm7.875-8.772q.334.334.334.809 0 .475-.334.809-.316.334-.791.334-.475 0-.826-.334-.334-.334-.334-.809 0-.475.334-.809.351-.334.826-.334t.791.334zm.035 4.483v7.4q0 .334-.246.563-.228.228-.562.228-.334 0-.563-.228-.21-.229-.21-.563v-7.4q0-.334.21-.563.229-.228.563-.228.334 0 .562.228.246.229.246.563zm8.86 3.568q0-.404-.018-.65 0-.264-.053-.633-.035-.387-.14-.633-.106-.246-.264-.492-.158-.246-.44-.352-.263-.123-.632-.123-1.283 0-2.215.897-.932.896-.932 2.074v3.762q0 .334-.228.562-.229.229-.563.229-.334 0-.562-.229-.229-.228-.229-.562v-7.488q0-.334.229-.563.228-.228.562-.228.334 0 .563.228.228.229.228.563v.351q1.336-1.178 3.147-1.178 1.635 0 2.373 1.16.756 1.143.756 3.393v3.762q0 .334-.229.562-.228.229-.562.229-.334 0-.563-.229-.228-.228-.228-.562zm7.928-4.429q1.564 0 2.742 1.037v-.07q0-.335.21-.563.229-.229.563-.229.334 0 .562.229.247.228.247.562v7.172q0 .334-.247.563-.228.228-.562.228-.334 0-.563-.228-.21-.229-.21-.563v-.07q-1.178 1.037-2.743 1.037-1.81 0-3.093-1.336-1.266-1.353-1.266-3.217 0-1.863 1.266-3.199 1.283-1.353 3.093-1.353zm1.933 2.443q-.809-.861-1.934-.861t-1.95.86q-.827.862-.827 2.11 0 1.248.826 2.11.826.86 1.951.86t1.934-.86q.809-.862.809-2.11 0-1.248-.81-2.11zm27.091-6.311h1.933q.334 0 .563.229.228.228.228.562 0 .334-.228.563-.229.228-.563.228h-.175v9.774h.175q.334 0 .563.228.228.229.228.563 0 .334-.228.562-.229.229-.563.229h-1.933q-.334 0-.563-.229-.228-.228-.228-.562 0-.334.228-.563.229-.228.563-.228h.176v-9.774h-.176q-.334 0-.563-.228-.228-.229-.228-.563 0-.334.228-.562.229-.229.563-.229zm5.431 9.018v-3.393H288.4q-.334 0-.562-.228-.229-.229-.229-.563 0-.334.229-.562.228-.229.562-.229h1.125v-1.986q0-.334.229-.563.228-.228.562-.228.334 0 .563.228.228.229.228.563v1.986h2.163q.334 0 .562.229.229.228.229.562 0 .334-.229.563-.228.228-.562.228h-2.163v3.393q0 1.6.405 1.986.404.387 2.11.387.333 0 .562.228.228.229.228.563 0 .334-.228.562-.229.229-.563.229-2.443 0-3.27-.844-.826-.844-.826-3.111zm9.827-5.15q1.564 0 2.742 1.037v-.07q0-.335.21-.563.23-.229.563-.229.334 0 .563.229.246.228.246.562v7.172q0 .334-.246.563-.229.228-.563.228-.334 0-.562-.228-.211-.229-.211-.563v-.07q-1.178 1.037-2.742 1.037-1.811 0-3.094-1.336-1.266-1.353-1.266-3.217 0-1.863 1.266-3.199 1.283-1.353 3.094-1.353zm1.933 2.443q-.808-.861-1.933-.861t-1.952.86q-.826.862-.826 2.11 0 1.248.826 2.11.827.86 1.952.86t1.933-.86q.809-.862.809-2.11 0-1.248-.809-2.11zm7.805 5.08q.334 0 .562.228.229.229.229.563 0 .334-.229.562-.228.229-.562.229-.774 0-1.336-.14-.545-.124-.932-.44-.369-.334-.597-.72-.229-.405-.352-1.073-.105-.686-.14-1.354-.036-.668-.036-1.705v-6.75q0-.334.229-.562.228-.229.562-.229.334 0 .563.229.228.228.228.562v8.333q.018.439.07.984.07.527.159.703.088.158.316.351.229.176.51.211.281.018.756.018zm3.814-11.145q.334.334.334.809 0 .475-.334.809-.316.334-.79.334-.475 0-.827-.334-.334-.334-.334-.809 0-.475.334-.809.352-.334.826-.334.475 0 .791.334zm.035 4.483v7.4q0 .334-.246.563-.228.228-.562.228-.334 0-.563-.228-.21-.229-.21-.563v-7.4q0-.334.21-.563.229-.228.563-.228.334 0 .562.228.246.229.246.563zm6.434-.861q1.564 0 2.742 1.037v-.07q0-.335.211-.563.229-.229.563-.229.334 0 .562.229.246.228.246.562v7.172q0 .334-.246.563-.228.228-.562.228-.334 0-.563-.228-.21-.229-.21-.563v-.07q-1.178 1.037-2.743 1.037-1.81 0-3.094-1.336-1.265-1.353-1.265-3.217 0-1.863 1.265-3.199 1.283-1.353 3.094-1.353zm1.934 2.443q-.809-.861-1.934-.861t-1.951.86q-.826.862-.826 2.11 0 1.248.826 2.11.826.86 1.951.86t1.934-.86q.808-.862.808-2.11 0-1.248-.808-2.11zm43.939-6.188h4.992q1.389 0 2.356.774.967.756.967 2.338 0 .843-.405 1.564-.404.703-1.125 1.072 2.198 1.002 2.198 3.217 0 1.688-1.055 2.707-1.055 1.02-2.76 1.02h-5.168q-.334 0-.562-.229-.229-.228-.229-.562v-11.11q0-.334.229-.562.228-.229.562-.229zm.791 1.582v3.586h3.744q.844 0 1.512-.44.686-.439.686-1.353 0-.914-.686-1.353-.668-.44-1.512-.44zm0 5.168v4.36h4.377q.879 0 1.547-.563.685-.562.685-1.582 0-.545-.175-.949-.176-.422-.457-.65-.264-.246-.668-.387-.405-.14-.791-.176-.387-.053-.862-.053zm15.065-3.041q.334 0 .562.229.229.228.229.562 0 .334-.229.563-.228.228-.562.228-1.319 0-2.163.967-.826.95-.826 2.338v3.428q0 .334-.228.562-.229.229-.563.229-.334 0-.562-.229-.229-.228-.229-.562v-7.488q0-.334.229-.563.228-.228.562-.228.334 0 .563.228.228.229.228.563v.316q1.248-1.143 2.989-1.143zm5.853.036q1.565 0 2.742 1.037v-.07q0-.335.211-.563.229-.229.563-.229.334 0 .562.229.246.228.246.562v7.172q0 .334-.246.563-.228.228-.562.228-.334 0-.563-.228-.21-.229-.21-.563v-.07q-1.178 1.037-2.743 1.037-1.81 0-3.094-1.336-1.265-1.353-1.265-3.217 0-1.863 1.265-3.199 1.284-1.353 3.094-1.353zm1.934 2.443q-.809-.861-1.934-.861t-1.951.86q-.826.862-.826 2.11 0 1.248.826 2.11.826.86 1.951.86t1.934-.86q.808-.862.808-2.11 0-1.248-.808-2.11zm7.488 6.662q-.545 0-1.371-.246t-1.547-.72q-.703-.475-.703-1.003 0-.351.228-.562.246-.229.58-.229.282 0 .528.211.545.492 1.037.738.51.229 1.248.229 2.004 0 2.004-1.072 0-.264-.211-.475-.211-.228-.58-.37-.352-.14-.686-.228-.316-.105-.668-.175-.123-.018-.175-.036-1.319-.316-2.127-.931-.791-.633-.791-1.81 0-1.214 1.002-1.811 1.001-.616 2.302-.616.932 0 2.11.493 1.195.492 1.195 1.195 0 .334-.229.562-.228.229-.544.229-.282 0-.458-.123-.07-.053-.246-.158-.175-.123-.246-.158-.052-.053-.21-.141-.141-.088-.23-.106-.07-.035-.228-.087-.14-.053-.263-.07-.123-.018-.3-.036-.157-.017-.35-.017-.58 0-1.16.21-.563.211-.563.633 0 .264.07.457.088.176.316.3.229.122.352.175.123.053.527.158.422.106.563.14 1.845.546 2.619 1.143.79.58.79 1.67 0 .739-.333 1.283-.334.545-.897.827-.545.28-1.125.404-.58.123-1.23.123zm7.33-12.727q.334.334.334.809 0 .475-.334.809-.316.334-.791.334-.475 0-.826-.334-.334-.334-.334-.809 0-.475.334-.809.351-.334.826-.334t.791.334zm.035 4.483v7.4q0 .334-.246.563-.228.228-.562.228-.334 0-.563-.228-.21-.229-.21-.563v-7.4q0-.334.21-.563.229-.228.563-.228.334 0 .562.228.246.229.246.563zm6.012 6.662q.334 0 .562.228.229.229.229.563 0 .334-.229.562-.228.229-.562.229-.774 0-1.336-.14-.545-.124-.932-.44-.369-.334-.597-.72-.229-.405-.352-1.073-.105-.686-.14-1.354-.036-.668-.036-1.705v-6.75q0-.334.229-.562.228-.229.562-.229.334 0 .563.229.228.228.228.562v8.333q.018.439.07.984.071.527.159.703.088.158.316.351.229.176.51.211.281.018.756.018zM437.6 329.08q.23-.229.563-.229.334 0 .563.229.228.228.228.562v7.032q0 1.476.932 2.53.931 1.038 2.496 1.038 1.564 0 2.496-1.037.932-1.055.932-2.531v-7.032q0-.334.228-.562.229-.229.563-.229.334 0 .562.229.229.228.229.562v7.032q0 2.056-1.407 3.603-1.406 1.547-3.603 1.547t-3.604-1.547q-1.406-1.547-1.406-3.603v-7.032q0-.334.229-.562zm17.034 3.603q.334 0 .562.229.229.228.229.562 0 .334-.229.563-.228.228-.562.228-1.319 0-2.162.967-.826.95-.826 2.338v3.428q0 .334-.229.562-.229.229-.563.229-.333 0-.562-.229-.229-.228-.229-.562v-7.488q0-.334.229-.563.229-.228.562-.228.334 0 .563.228.229.229.229.563v.316q1.248-1.143 2.988-1.143zm5.203 7.559q3.059 0 3.059-2.97v-3.762q0-.334.21-.563.229-.228.563-.228.334 0 .562.228.247.229.247.563v7.488q0 .334-.247.562-.228.229-.562.229-.334 0-.563-.229-.21-.228-.21-.562v-.352q-1.336 1.178-3.06 1.178-1.634 0-2.39-1.143-.738-1.16-.738-3.41v-3.761q0-.334.229-.563.246-.228.58-.228.334 0 .545.228.228.229.228.563v3.85q0 1.458.316 2.179.317.703 1.23.703zm15.293-.299q0 .897-.07 1.565-.07.65-.317 1.37-.246.721-.668 1.16-.422.458-1.178.74-.755.298-1.792.298-1.284 0-2.145-.193-.844-.176-1.617-.791-.299-.247-.299-.616 0-.334.228-.562.229-.229.563-.229.264 0 .492.176.527.404 1.072.51.563.123 1.776.123 1.283 0 1.74-.563.475-.545.615-2.109-1.195 1.02-2.724 1.02-1.81 0-3.077-1.336-1.265-1.354-1.265-3.217t1.265-3.217q1.266-1.353 3.077-1.353 1.547 0 2.742 1.019 0-.334.228-.562.229-.247.563-.247.334 0 .562.229.229.228.229.562zm-6.276-.545q.827.862 1.952.862t1.933-.862q.809-.861.809-2.11 0-1.247-.809-2.109-.808-.878-1.933-.878t-1.952.878q-.808.862-.808 2.11 0 1.248.808 2.11zm11.901.844q3.058 0 3.058-2.97v-3.762q0-.334.211-.563.229-.228.563-.228.334 0 .562.228.247.229.247.563v7.488q0 .334-.247.562-.228.229-.562.229-.334 0-.563-.229-.21-.228-.21-.562v-.352q-1.336 1.178-3.06 1.178-1.634 0-2.39-1.143-.738-1.16-.738-3.41v-3.761q0-.334.228-.563.247-.228.58-.228.335 0 .545.228.229.229.229.563v3.85q0 1.458.316 2.179.317.703 1.23.703zm10.969-7.523q1.564 0 2.742 1.037v-.07q0-.335.21-.563.23-.229.563-.229.334 0 .563.229.246.228.246.562v7.172q0 .334-.246.563-.229.228-.563.228-.334 0-.562-.228-.211-.229-.211-.563v-.07q-1.178 1.037-2.742 1.037-1.81 0-3.094-1.336-1.266-1.353-1.266-3.217 0-1.863 1.266-3.199 1.283-1.353 3.094-1.353zm1.933 2.443q-.808-.861-1.933-.861t-1.952.86q-.826.862-.826 2.11 0 1.248.826 2.11.827.86 1.952.86t1.933-.86q.809-.862.809-2.11 0-1.248-.809-2.11zm4.957-1.969l2.76 5.608 2.742-5.608q.211-.44.72-.44.352 0 .563.247.229.228.229.545 0 .175-.088.351l-5.238 10.67q-.211.44-.721.44-.352 0-.562-.246-.211-.229-.211-.545 0-.194.07-.334l1.617-3.287-3.287-6.698q-.088-.176-.088-.351 0-.334.229-.563.228-.228.562-.228.492 0 .703.44z"/><path d="M108 185.5h55v133h-55z" fill="#ff0084"/><path d="M192 229.5h55v89h-55z" fill="#e67e22"/><path d="M276 141.5h55v177h-55z" fill="#f1c40f"/><path d="M360 97.5h55v221h-55z" fill="#3498db"/><path d="M444 229.5h55v89h-55z" fill="#2ecc71"/><path d="M91.5 51v267.5H512" fill="none" stroke="#000" stroke-width="5"/><path d="M72.908 50.42q-3.006.704-4.166 3.042.95-.633 2.022-.633 2.004 0 3.287 1.248 1.3 1.23 1.3 3.059 0 1.828-1.318 3.058-1.318 1.23-3.34 1.23-2.039 0-3.357-1.37-1.3-1.389-1.3-3.235 0-1.986.491-3.498.51-1.511 1.424-2.46.914-.967 1.969-1.53 1.072-.58 2.443-.914.088-.018.264-.018.492 0 .791.3.316.298.316.72 0 .352-.228.633-.229.281-.598.369zm-2.215 8.825q1.178 0 1.899-.562.738-.563.738-1.547 0-1.108-.756-1.617-.756-.51-1.775-.51-1.037 0-1.793.633-.756.632-.756 1.494 0 .949.738 1.529.739.58 1.705.58zm4.553 41.291q0 2.268-1.547 3.533-1.547 1.248-4.078 1.248-.598 0-1.353-.175-.756-.194-1.442-.668-.685-.475-.685-1.143 0-.457.298-.773.3-.317.721-.317.352 0 .703.281.721.616 1.758.616 1.494 0 2.549-.633 1.072-.65 1.072-1.969 0-.896-.826-1.424-.809-.545-1.81-.545-.95 0-2.075.405-1.125.404-1.37.404-.423 0-.722-.299-.298-.316-.298-.773l.668-4.957q.07-.387.351-.633.281-.246.668-.246h5.484q.422 0 .721.316.299.317.299.774t-.299.773q-.299.316-.72.316h-4.536l-.386 2.057q1.23-.316 2.214-.316 1.97 0 3.305 1.16 1.336 1.16 1.336 2.988zm-3.428 47.841v-2.408h-5.132q-.44 0-.739-.3-.281-.298-.281-.755 0-.404.211-.668l6.187-7.418q.3-.387.862-.387.457 0 .773.317.317.299.317.738v6.293h.685q.44 0 .72.316.3.317.3.774t-.3.773q-.28.317-.72.317h-.685v2.408q0 .422-.317.72-.316.282-.773.282t-.791-.281q-.317-.3-.317-.721zm-2.882-4.588h2.882v-3.463zm-.053 39.149q-.229.087-.72.474-.475.37-.774.37-.422 0-.721-.3-.299-.316-.299-.79 0-.686.72-1.231.722-.545 1.618-.791.897-.264 1.652-.264 2.233 0 3.428.862 1.195.843 1.195 2.795 0 1.6-1.23 2.619.686.51 1.107 1.318.422.791.422 1.723 0 1.88-1.353 2.795-1.336.896-3.569.896-.808 0-1.757-.281-.932-.281-1.723-.914-.774-.633-.774-1.46 0-.474.3-.773.298-.316.72-.316.475 0 .861.51.387.492.633.632.774.422 1.74.422 2.9 0 2.9-1.546 0-1.073-.896-1.46-.879-.386-3.093-.386-.457 0-.791-.299-.317-.316-.317-.773 0-.458.317-.774.316-.334.79-.334 1.02 0 1.899-.088 1.74-.193 1.74-1.494 0-.51-.246-.826-.228-.334-.668-.457-.422-.14-.756-.176-.334-.035-.808-.035-.528 0-1.547.351zM75 228.251q0 .527-.193 1.02-.194.492-.457.843-.264.334-.721.721-.44.37-.791.598-.334.21-.879.545-.527.334-.773.51-.053.034-.405.28-.351.23-.44.3-.087.052-.386.28-.299.212-.422.317l-.334.334q-.228.211-.351.37-.123.157-.264.386-.14.21-.246.44h5.941q.422 0 .703.316.3.316.3.773t-.3.774q-.28.316-.703.316h-7.172q-.421 0-.72-.299-.282-.299-.282-.738 0-.791.229-1.512.228-.738.58-1.265.352-.528.879-1.055.545-.527 1.002-.861.475-.352 1.09-.739.017-.017.597-.369.58-.351.844-.527.281-.194.72-.528.458-.334.669-.615.21-.281.21-.51 0-.79-.65-1.23-.632-.457-1.582-.457-.755 0-1.511.387-.756.386-1.178 1.02-.387.597-.897.597-.457 0-.738-.334-.264-.352-.264-.756 0-1.23 1.582-2.162 1.583-.932 3.006-.932 1.916 0 3.112 1.09Q75 226.67 75 228.251zm-5.994 44.027q-.264.176-.51.176-.44 0-.738-.299-.281-.299-.281-.72 0-.58.457-.88 1.37-.931 3.005-1.88.317-.158.633-.158.492 0 .809.298.334.3.334.739v9.597h1.336q.422 0 .703.317.299.316.299.773t-.3.774q-.28.316-.702.316h-5.08q-.422 0-.721-.316-.281-.317-.281-.774t.281-.773q.299-.317.72-.317h1.407v-7.699q-1.178.703-1.371.826z"/></svg>