<svg width="178" height="248" xmlns="http://www.w3.org/2000/svg"><path d="M171.352 231.32c0 6.26-35.22 11.334-78.667 11.334-43.446 0-78.666-5.075-78.666-11.333 0-6.259 35.22-11.334 78.666-11.334 43.447 0 78.667 5.075 78.667 11.334" fill-opacity=".2"/><path d="M71.163 187.987l-2.622 5.206c-5.346 2.858-15.446 2.31-21.514 1.41-12.938-1.937-23.413-13.709-26.366-25.956-3.554-14.738 4.328-26.31 4.873-39.286 12.033-1.6 21.35-9.14 27.659-17.892 2.408 5.15 3.974 10.61 4.836 16.834 1.253 9.004.176 18.42-.275 27.386-.607 12.586.315 26.073 13.41 32.298" fill="#f1624c"/><path d="M25.535 129.361c.635-20.98-9.058-40.78-20.535-55.533 20.475 3.67 38.7 17.426 48.194 37.641-7.27 10.096-16.09 16.135-27.659 17.892z" fill="#fecadd"/><path d="M71.488 114.57c-9.404 15.396-14.618 32.122-15.812 48.68-.795 11.02 4.156 21.043 12.21 27.277l-2.126 36.114a6.734 6.734 0 007.392 5.49c3.526-.405 5.023-3.6 5.96-7.024l7.654-28.003c3.473.51 6.845.288 10.31-.215l7.834 30.73c.877 3.44 3.869 5.895 7.395 5.49a6.737 6.737 0 005.955-7.023l-1.955-40.451c8.285-11.641 7.815-26.93 5.025-39.26 5.992 7.457 8.146 14.03 8.742 18.848.52 4.2 4.73 6.893 8.8 5.724 3.03-.87 5.064-3.68 5.032-6.836-.361-36.475-30.291-44.573-31.021-44.765a77.783 77.783 0 00-1.6-3.172z" fill="#f1624c"/><path d="M95.951 124.003c11.354 0 21.261 17.909 20.374 43.674-.489 14.186-9.914 22.098-20.374 22.098-10.46 0-19.885-7.912-20.374-22.099-.888-25.764 9.02-43.673 20.374-43.673z" fill="#f7f1f5"/><path d="M56.829 153.698c1.956-11.528 6.282-24.8 14.66-39.128l39.795 1.604s13.175 23.196 10.963 50.21c-23.392 9.595-53.266 4.554-65.418-12.686z" fill="#6561d3"/><path d="M111.12 124.24c-9.329 2.932-18.756 3.523-28.37 1.744-.615-.113-.88.831-.26.946 9.781 1.809 19.402 1.239 28.89-1.744.526-.166.393-.911-.052-.967a.493.493 0 00-.209.021zm-28.013 4.362a.473.473 0 00-.209-.026c-.441.057-.572.796-.052.969 8.128 2.71 18.033 1.362 26.402.62.622-.056.63-1.035.001-.98-8.275.733-18.14 2.084-26.142-.583zM63.172 155.73c10.54 11.364 32.166 12.98 46.68 12.784.63-.008.63-.99-.001-.98-13.861.186-35.853-1.567-45.988-12.495a.434.434 0 00-.35-.152c-.355.02-.662.498-.341.843zm52.875 6.403c-8.025 4.059-21.182 2.035-29.598.459-.616-.116-.88.825-.262.941 9.103 1.706 21.749 3.796 30.356-.556.493-.249.175-.928-.29-.903a.531.531 0 00-.206.059z" fill="#511812"/><path d="M107.371 140.838s-13.948 2.936-18.842-.978l-26.181 30.095 1.224 3.425 62.393 2.447 31.81-33.52v-3.181s-1.064.245-2.542.553c-3.242.675-6.55 1-9.862 1.083-3.2.08-8.407.724-12.064 3.746 0 0-5.872-5.872-25.936-3.67z" fill="#f7f1f5"/><path d="M61.993 175.855l26.541-31.824 41.487 3.865h8.89l20.358-6.313-33.886 36.59-14.688.774H99.873z" fill="#e6be2e"/><path d="M138.912 147.896l-28.216 31.05H99.228l30.021-31.05z" fill="#da805d"/><path d="M67.207 43.25c-3.944-8.475-12.032-19.988-27.312-22.85 0 0-17.556 39.9 7.414 60.698-1.209 3.65-1.793 7.41-3.647 10.07 32.6 3.982 54.856-4.793 54.856-4.793 29.869 9.046 45.593 8.047 53.884 4.693 2.34-3.024 4.32-6.204 5.71-9.482 0 0-4.611 2.303-6.606.658 0 0 6.956-2.782 8.41-5.715 0 0-8.02 4.268-14.238-2.283 0 0-1.826-4.484-5.512-10.45C145.628 36.922 134.289 21.34 118.818 5c0 0-6.968 12.765-9.672 31.21-4.483-1.67-9.397-2.63-15.645-2.92-3.772-.175-15.198-.377-26.294 9.96zm3.234 75.98c-3.427-.125-6.65 2.105-7.652 5.608-2.86 10.005-4.4 28.26 13.211 45.896 2.23 2.233 5.657 2.752 8.404 1.198 3.683-2.084 4.708-6.974 2.075-10.29-4.241-5.339-9.8-16.665-8.69-34.36.21-3.338-1.831-6.41-4.967-7.575a7.625 7.625 0 00-2.38-.477z" fill="#f1624c"/><path d="M122.932 44.045c6.658 5.21 11.779 11.497 15.468 17 2.677-17.47-2.002-34.33-18.149-50.23-.77 9.317.681 21.733 2.68 33.23zm-83.8-17.838s-8.863 22.877 9.356 51.182c3.1-9.317 6.3-16.204 9.016-21.125-3.39-10.154-9.054-21.944-18.371-30.057z" fill="#e99ca6"/><path d="M42.484 92.594c-2.114 2.191-5.633 4.155-11.34 3.573 0 0 7.18 11.11 34.657 21.155" fill="none" stroke="#fff" stroke-width="2" stroke-linejoin="round" stroke-linecap="round"/><path d="M122.524 116.043c13.706-7.769 18.871-10.742 29.877-24.974-8.29 3.354-24.014 4.352-53.885-4.694 0 0-22.253 8.774-54.852 4.792-1.877 2.652-5.581 5.707-12.52 5 0 0 7.783 12.976 44.308 24.125 18.958 5.787 34.153 3.074 47.072-4.249z" fill="#fecadd"/><path d="M120.344 75.889c-2.29.268-3.796 3.486-3.364 7.187.433 3.703 2.64 6.488 4.93 6.22 2.29-.266 3.793-3.483 3.361-7.187-.43-3.701-2.636-6.488-4.927-6.22zm-50.33.586c-2.29.267-3.797 3.486-3.366 7.187.433 3.703 2.64 6.49 4.93 6.223 2.29-.267 3.797-3.486 3.363-7.19-.432-3.702-2.637-6.487-4.927-6.22zm20.002 12.648c-.187 2.299 2.674 4.403 6.388 4.703 3.717.3 6.881-1.316 7.067-3.615.185-2.297-2.668-4.568-6.907-4.723-3.764-.137-6.379 1.552-6.548 3.635zm-5.387 3.748c-.606-.015-1.241.494-1 1.248 2.629 8.22 9.75 6.918 9.822 6.904a.977.977 0 00.774-1.15.985.985 0 00-1.147-.771c-.243.045-5.425.908-7.584-5.579a.906.906 0 00-.865-.652zm-47.522 12.943c-.36.026-.668.5-.336.838 14.92 15.221 16.097 41.38 10.08 60.881-.186.603.757.86.942.26 6.132-19.872 4.877-46.32-10.328-61.832a.45.45 0 00-.358-.147zm-2.966 4.311c-.423-.086-.742.605-.307.934 5.348 4.036 6.515 17.124 6.95 22.959.483 6.505.193 13.03-.14 19.535-.03.63.947.628.979 0 .458-9.002.838-18.139-.746-27.059-.883-4.976-2.188-12.99-6.55-16.281a.461.461 0 00-.186-.088zm22.404 43.197c-.236-.066-.492.021-.535.332-1.642 11.84.718 31.13 12.744 37.3.559.287 1.053-.557.492-.845-11.584-5.942-13.863-24.872-12.293-36.195.043-.307-.172-.526-.408-.592z" fill="#511812"/><path d="M132.902 102.917c3.717.3 6.88-1.319 7.066-3.618.186-2.297-2.676-4.404-6.392-4.704-3.714-.3-6.878 1.318-7.064 3.616-.187 2.3 2.676 4.406 6.39 4.706zm-72.007-.306c3.706.4 6.91-1.134 7.157-3.427.247-2.292-2.557-4.473-6.264-4.873-3.705-.4-6.91 1.134-7.158 3.428-.247 2.292 2.558 4.472 6.265 4.872z" fill="#e99ca6"/></svg>