<svg width="50" height="92" xmlns="http://www.w3.org/2000/svg"><path d="M24.897 72.138c0 12.123 10.768.66 17.067 13.862" fill="none" stroke="#5a4449" stroke-width="2" stroke-linecap="round"/><path d="M25.001 5.5C11.471 5.5.5 16.72.5 30.56c0 13.841 10.97 35.26 24.501 35.26C38.531 65.819 49.5 44.4 49.5 30.56 49.5 16.72 38.53 5.5 25.001 5.5zm0 60.892c-1.3 0-4.259 5.245-3.61 6.397.65 1.15 6.567 1.15 7.218 0 .649-1.152-2.308-6.397-3.608-6.397z" fill="#8cbeb3" stroke="gray" paint-order="stroke fill markers"/><path d="M22.757 64.451a1.96 1.988 0 00-1.962 1.988 1.96 1.988 0 001.962 1.988h4.487a1.96 1.988 0 001.96-1.988 1.96 1.988 0 00-1.96-1.988z" fill="#669989" stroke="gray" paint-order="stroke fill markers"/><ellipse cx="21.807" cy="36.63" rx="5.523" ry="8.51" transform="matrix(.85029 -.52632 .50915 .86068 0 0)" fill="#d7e6e3"/></svg>