<svg width="1094" height="412" xmlns:xlink="http://www.w3.org/1999/xlink" xmlns="http://www.w3.org/2000/svg"><g id="a" transform="matrix(.98013 0 0 .9886 166.647 -436.683)" stroke-width="1.016" stroke-linecap="round"><path d="M-137.177 517.038c0 12.262 10.985.668 17.412 14.021" fill="none" stroke="#5a4449" stroke-width="2.032"/><path d="M-137.072 449.63c-13.805 0-24.997 11.35-24.997 25.35 0 14.001 11.192 35.665 24.997 35.665 13.806 0 24.996-21.664 24.996-35.665 0-14-11.191-25.35-24.996-25.35zm0 61.596c-1.325 0-4.345 5.305-3.682 6.47.662 1.163 6.7 1.163 7.363 0 .663-1.165-2.355-6.47-3.68-6.47z" fill="#8cbeb3" paint-order="stroke fill markers" stroke="gray"/><path d="M-139.36 509.262a2 2.01 0 00-2.003 2.01 2 2.01 0 002.002 2.011h4.578a2 2.01 0 002-2.01 2 2.01 0 00-2-2.01z" fill="#669989" stroke="gray" paint-order="stroke fill markers"/><ellipse cx="-344.985" cy="330.603" rx="5.622" ry="8.627" transform="matrix(.8523 -.52305 .5124 .85875 0 0)" fill="#d7e6e3"/></g><use xlink:href="#a" transform="translate(167.348 207.462)"/><use xlink:href="#a" transform="translate(149.17 1.27)"/><use xlink:href="#a" transform="translate(212.81 48.747)"/><use xlink:href="#a" transform="translate(272.915 45.717)"/><use xlink:href="#a" transform="translate(364.838 14.402)"/><use xlink:href="#a" transform="translate(430.498 45.717)"/><use xlink:href="#a" transform="translate(485.714 2.857)"/><use xlink:href="#a" transform="translate(536.429 19.286)"/><use xlink:href="#a" transform="translate(642.143 16.429)"/><use xlink:href="#a" transform="translate(580 66.429)"/><use xlink:href="#a" transform="translate(633.571 108.571)"/><use xlink:href="#a" transform="translate(712.143 67.143)"/><use xlink:href="#a" transform="translate(770 60)"/><use xlink:href="#a" transform="translate(855.714 30)"/><use xlink:href="#a" transform="translate(931.429 60)"/><use xlink:href="#a" transform="translate(1017.143 32.857)"/><use xlink:href="#a" transform="translate(121.429 81.429)"/><use xlink:href="#a" transform="translate(60 168.571)"/><use xlink:href="#a" transform="translate(31.429 301.429)"/><use xlink:href="#a" transform="translate(122.857 265.714)"/><use xlink:href="#a" transform="translate(410 151.429)"/><use xlink:href="#a" transform="translate(204.286 141.429)"/><use xlink:href="#a" transform="translate(228.571 292.857)"/><use xlink:href="#a" transform="translate(262.857 141.429)"/><use xlink:href="#a" transform="translate(318.571 168.571)"/><use xlink:href="#a" transform="translate(304.286 267.143)"/><use xlink:href="#a" transform="translate(467.143 185.714)"/><use xlink:href="#a" transform="translate(445.714 272.857)"/><use xlink:href="#a" transform="translate(494.286 111.429)"/><use xlink:href="#a" transform="translate(558.571 182.857)"/><use xlink:href="#a" transform="translate(532.857 311.429)"/><use xlink:href="#a" transform="translate(621.429 280)"/><use xlink:href="#a" transform="translate(667.143 221.429)"/><use xlink:href="#a" transform="translate(701.429 160)"/><use xlink:href="#a" transform="translate(801.429 281.429)"/><use xlink:href="#a" transform="translate(758.571 160)"/><use xlink:href="#a" transform="translate(815.714 187.143)"/><use xlink:href="#a" transform="translate(854.286 120)"/><use xlink:href="#a" transform="translate(908.571 162.857)"/><use xlink:href="#a" transform="translate(995.714 128.571)"/><use xlink:href="#a" transform="translate(967.143 194.286)"/><use xlink:href="#a" transform="translate(945.714 290)"/><use xlink:href="#a" transform="translate(341.569 89.69)"/><use xlink:href="#a" transform="translate(10.464 92.68)"/></svg>