<svg width="224" height="320" xmlns="http://www.w3.org/2000/svg"><path d="M164.243 270.62c0 5.443-21.63 9.853-48.31 9.853-26.68 0-48.308-4.41-48.308-9.852 0-5.441 21.629-9.852 48.308-9.852 26.68 0 48.31 4.411 48.31 9.852" fill-opacity=".2"/><path d="M132.478 260.508h-.343a3.099 3.099 0 01-3.09-3.09v-22.172c0-1.7 1.392-3.088 3.09-3.088h.343a3.098 3.098 0 013.09 3.088v22.172a3.1 3.1 0 01-3.09 3.09M99.732 260.508h-.341a3.1 3.1 0 01-3.091-3.09v-22.172c0-1.7 1.39-3.088 3.09-3.088h.342c1.7 0 3.09 1.388 3.09 3.088v22.172c0 1.7-1.39 3.09-3.09 3.09" fill="#efbb97"/><path d="M129.047 257.248v12.426s21.926 2.132 22.673 0c-.427-7.036-16.153-12.426-16.153-12.426zM102.82 257.248v12.426s-21.926 2.132-22.672 0c.426-7.036 16.153-12.426 16.153-12.426z" fill="#664b38"/><path d="M83.615 202.26s-2.469 27.623 1.243 31.248c3.71 3.622 58.69 2.13 61.39-.57 2.7-2.7-.402-30.678-.402-30.678z" fill="#e04b3f"/><path d="M70.368 182.905l-21.926 19.877s-6.152 2.277-5.949 3.114c.204.837 3.744-.123 3.744-.123s-5.37 3.297-4.557 3.99c.813.69 6.021-2.24 6.021-2.24s-4.516 3.216-3.865 4.518c.651 1.301 5.454-3.703 5.454-3.703s-3.175 4.883-2.036 5.982c1.14 1.099 5.046-6.35 5.046-6.35s.611 3.541 1.954 3.908 0-5.145 0-5.145l20.04-19.785zm85.062 0l21.927 19.877s6.152 2.277 5.948 3.114c-.204.837-3.744-.123-3.744-.123s5.371 3.297 4.557 3.99c-.813.69-6.023-2.24-6.023-2.24s4.518 3.216 3.867 4.518c-.651 1.301-5.454-3.703-5.454-3.703s3.176 4.883 2.036 5.982c-1.14 1.099-5.046-6.35-5.046-6.35s-.611 3.541-1.954 3.908 0-5.145 0-5.145l-20.039-19.785z" fill="#efbb97"/><path d="M162.164 179.647c-1.263-2.667-16.81-15.453-22.068-12.192l-.193-1.166-51.36.853s-.162.964-.422 2.56c-.236-.468-.527-.89-.952-1.198-5.066-3.696-20.983 9.379-22.263 12.08-1.278 2.7 9.38 13.969 13.786 10.798 2.193-1.577 5.557-6.337 7.76-11.177-1.343 8.677-2.836 19.013-2.836 22.056 0 5.525 62.82 3.571 62.23 0-.29-1.763-1.743-10.555-3.14-19.004 1.92 3.27 4.099 6.057 5.674 7.191 4.405 3.17 15.064-8.1 13.784-10.8" fill="#f48371"/><path d="M95.99 175.694c8.622 6.787 22.493 6.35 32.276 2.461 1.679-.667 1.687-3.639-.469-3.46-5.353.45-10.471 2.213-15.862 2.504-5.358.287-10.225-.832-15.17-2.835-.722-.29-1.387.849-.774 1.33m8.877 7.891c.673 1.05 2.426 1.158 3.547 1.422 1.703.399 3.405.67 5.14.863 1.76.195 1.835-2.75 0-2.802a142.273 142.273 0 01-4.545-.198c-1.199-.074-2.624-.467-3.793-.142-.35.097-.554.537-.349.857" fill="#e2675a"/><path d="M197.547 128.122c0 5.24-4.685 9.49-10.465 9.49-5.779 0-10.463-4.25-10.463-9.49s4.684-9.488 10.463-9.488c5.78 0 10.465 4.248 10.465 9.488" fill="#efbb97"/><path d="M182.485 124.575c2.762-1.52 6.16 0 6.662 3.224.508 3.256-3.857 3.307-4.269.513-.258-1.75-2.529-1.218-3.044 0-2.358 5.587 10.623 8.726 10.891.758.099-2.942-1.72-5.851-4.42-7.01-2.326-.995-5.427-.543-6.495 1.996-.167.393.358.693.675.519" fill="#d8a17c"/><path d="M23.14 128.122c0 5.24 4.685 9.49 10.464 9.49 5.78 0 10.465-4.25 10.465-9.49s-4.685-9.488-10.465-9.488c-5.779 0-10.463 4.248-10.463 9.488" fill="#efbb97"/><path d="M38.203 124.575c-2.764-1.52-6.16 0-6.663 3.224-.507 3.256 3.856 3.307 4.27.513.258-1.75 2.528-1.218 3.044 0 2.356 5.587-10.623 8.726-10.892.758-.098-2.942 1.721-5.851 4.42-7.01 2.325-.995 5.428-.543 6.494 1.996.167.393-.357.693-.673.519" fill="#d8a17c"/><path d="M156.488 53.272c.673-.597 23.818-12.833 40.278 3.564 16.462 16.394 4.195 31.957 7.325 41.314 3.132 9.355 12.047 18.925 12.047 18.925s-9.459 1.603-18.822-1.506c-9.364-3.107-23.594-9.528-35.159-25.878-11.566-16.348-5.669-36.42-5.669-36.42m-91.151.001c-.673-.597-23.818-12.833-40.279 3.564C8.597 73.23 20.864 88.793 17.734 98.15c-3.132 9.355-12.047 18.925-12.047 18.925s9.458 1.603 18.822-1.506c9.364-3.107 23.594-9.528 35.159-25.878 11.565-16.348 5.669-36.42 5.669-36.42" fill="#683310"/><path d="M184.574 106.32c0 36.888-32.98 66.79-73.661 66.79-40.683 0-73.662-29.902-73.662-66.79 0-36.89 32.98-66.792 73.662-66.792 40.681 0 73.66 29.903 73.66 66.791" fill="#efbb97"/><path d="M155.652 53.272c-12.404-8.615-27.909-13.745-44.74-13.745-40.681 0-73.66 29.904-73.66 66.793 0 6.845 1.14 13.447 3.249 19.665 35.022 8.138 69.559-6.804 92.696-33.43v.001c9.414 17.756 25.748 32.639 44.672 41.6 4.292-8.476 6.705-17.899 6.705-27.837 0-21.627-11.346-40.84-28.922-53.047" fill="#773d15"/><path d="M92.78 135.923a5.768 5.768 0 11-11.448-1.429 5.768 5.768 0 0111.448 1.43m50.639.506A5.768 5.768 0 11131.97 135a5.768 5.768 0 0111.448 1.43m-30.543 14.262c-1.898-.236-3.555-.934-4.935-2.076-4.316-3.574-4.335-10.38-4.334-10.668.003-.587.618-1.028 1.37-.991.75.037 1.366.548 1.365 1.134 0 .062.024 6.217 3.537 9.122 1.074.89 2.35 1.356 3.888 1.43 1.482.07 2.689-.266 3.689-1.032 2.881-2.201 3.253-7.422 3.153-9.248-.033-.588.552-1.055 1.305-1.042.753.006 1.393.499 1.426 1.087.016.306.36 7.511-3.906 10.77-1.522 1.164-3.428 1.699-5.66 1.592-.305-.015-.603-.04-.898-.078" fill="#1d1d1b"/><path d="M147.78 152.537c-.12 2.711-3.743 4.754-8.093 4.563-4.35-.19-7.78-2.544-7.663-5.255.12-2.71 3.743-4.754 8.095-4.563 4.35.19 7.78 2.543 7.66 5.255m-59.021-4.838c-4.35-.19-7.975 1.852-8.093 4.563-.12 2.712 3.311 5.065 7.662 5.255 4.35.191 7.973-1.852 8.092-4.563.12-2.712-3.31-5.064-7.661-5.255" fill="#f2a391"/><path d="M46.6 118.053c11.912 3.442 23.464.194 34.729-4.103 11.061-4.218 21.899-8.82 30.12-17.61 1.97-2.108-.62-5.925-3.213-4.165-17.174 11.656-39.731 24.832-61.194 22.604-1.913-.199-2.193 2.768-.443 3.274m96.236-24.214c3.33 9.458 12.86 18.153 20.858 23.786 2.334 1.642 5.304-2.149 3.075-3.986-3.934-3.242-7.939-6.414-11.609-9.962-3.632-3.51-6.824-7.623-10.805-10.722-.634-.494-1.855-.074-1.52.884" fill="#663412"/><path d="M53.095 109.583c12.488 1.821 25.32-5.028 35.136-12.079 2.802-2.013.223-6.665-2.752-4.71-10.547 6.93-19.846 11.73-32.384 13.94-1.39.246-1.43 2.64 0 2.85" fill="#663412"/><path d="M172.898 61.773c16.434-1.703 21.758 14.404 21.06 27.738-.185 3.546 4.648 3.59 5.74.718 5.6-14.724-10.334-40.437-27.52-31.146-1.205.651-.746 2.842.72 2.69M26.8 89.375c-2.7-11.867 1.172-22.701 11.38-29.484 3.14-2.085.31-7.127-2.953-5.116-11.96 7.37-16.955 22.831-10.51 35.454.598 1.172 2.36.362 2.083-.854" fill="#4f260b"/></svg>