<svg width="224" height="320" xmlns="http://www.w3.org/2000/svg"><path d="M164.194 270.62c0 5.441-21.63 9.853-48.31 9.853-26.679 0-48.308-4.412-48.308-9.852 0-5.441 21.63-9.853 48.308-9.853 26.68 0 48.31 4.412 48.31 9.853" fill-opacity=".2"/><path d="M130.703 257.247v12.426s21.927 2.132 22.673 0c-.426-7.034-16.153-12.426-16.153-12.426zm-29.636 0v12.426s-21.926 2.132-22.673 0c.427-7.034 16.153-12.426 16.153-12.426z" fill="#757473"/><path d="M88.713 215.743l5.833 41.504h6.522l7.32-31.84h17.906l4.409 31.84h6.521l4.816-41.504z" fill="#193451"/><path d="M71.88 182.414l-22.901 18.748s-6.259 1.961-6.097 2.808c.16.847 3.745.068 3.745.068s-5.53 3.02-4.754 3.752c.78.732 6.128-1.93 6.128-1.93s-4.672 2.982-4.088 4.315c.585 1.333 5.633-3.422 5.633-3.422s-3.416 4.715-2.334 5.87c1.083 1.156 5.359-6.085 5.359-6.085s.431 3.566 1.755 4c1.322.432.258-5.138.258-5.138l21.012-18.75z" fill="#efbb97"/><path d="M84.999 168.26l-32.246 27.872 6.848 7.887 26.21-21.79z" fill="#e08712"/><path d="M156.637 183.35l24.066 17.228s6.371 1.553 6.266 2.408c-.108.857-3.734.31-3.734.31s5.714 2.657 4.985 3.438c-.729.78-6.239-1.532-6.239-1.532s4.856 2.676 4.358 4.043c-.497 1.368-5.841-3.051-5.841-3.051s3.713 4.486 2.708 5.707c-1.007 1.224-5.741-5.727-5.741-5.727s-.2 3.588-1.492 4.107c-1.293.517-.591-5.112-.591-5.112l-22.179-17.352z" fill="#efbb97"/><path d="M143.948 166.555l32.246 27.871-6.849 7.888-26.21-21.791z" fill="#e08712"/><path d="M84.999 168.26l1.646 48.851H144.2v-50.46z" fill="#ef9818"/><path d="M94.174 176.618c3.133 4.13 8.793 4.344 13.625 5.039 7.448 1.074 15.07 1.595 22.586 1.095 2.745-.18 2.804-4.384 0-4.316-11.216.267-24.485 1.503-35.02-3.009-.684-.292-1.79.403-1.191 1.191m8.17 8.333c3.282 3.625 9.699 2.686 14.097 3.27 1.954.26 2.064-3.044 0-3.144-2.231-.106-4.457.028-6.688.01-2.392-.018-4.638-.505-6.986-.865-.42-.063-.733.386-.423.729" fill="#d88416"/><path d="M199.203 128.122c0 5.24-4.684 9.489-10.464 9.489-5.779 0-10.464-4.248-10.464-9.489 0-5.24 4.685-9.489 10.464-9.489 5.78 0 10.464 4.249 10.464 9.49" fill="#efbb97"/><path d="M184.14 124.575c2.764-1.52 6.16 0 6.663 3.223.508 3.255-3.857 3.308-4.269.514-.258-1.751-2.529-1.22-3.043 0-2.357 5.587 10.622 8.726 10.89.757.099-2.943-1.72-5.852-4.418-7.009-2.328-.997-5.43-.543-6.498 1.996-.166.393.36.692.676.519" fill="#d8a17c"/><path d="M24.797 128.122c0 5.24 4.684 9.489 10.464 9.489 5.779 0 10.464-4.248 10.464-9.489 0-5.24-4.685-9.489-10.464-9.489-5.78 0-10.464 4.249-10.464 9.49" fill="#efbb97"/><path d="M39.86 124.575c-2.764-1.52-6.16 0-6.663 3.223-.508 3.255 3.855 3.308 4.269.514.258-1.751 2.529-1.22 3.044 0 2.356 5.587-10.623 8.726-10.891.757-.1-2.943 1.72-5.852 4.42-7.009 2.325-.997 5.427-.543 6.494 1.996.166.393-.359.692-.674.519" fill="#d8a17c"/><path d="M186.23 106.318c0 36.889-32.98 66.791-73.662 66.791-40.681 0-73.66-29.902-73.66-66.79 0-36.89 32.979-66.792 73.66-66.792 40.683 0 73.662 29.903 73.662 66.791" fill="#efbb97"/><path d="M94.436 135.923a5.767 5.767 0 11-11.447-1.429 5.768 5.768 0 0111.447 1.429m50.64.507a5.77 5.77 0 01-11.449-1.428 5.768 5.768 0 0111.449 1.427m-30.543 14.263c-1.899-.236-3.557-.934-4.937-2.076-4.316-3.575-4.335-10.38-4.332-10.669.001-.586.616-1.029 1.369-.99.75.037 1.367.546 1.363 1.134 0 .062.025 6.215 3.538 9.12 1.076.89 2.35 1.358 3.89 1.43 1.481.072 2.686-.266 3.688-1.03 2.88-2.201 3.252-7.422 3.151-9.248-.032-.588.553-1.055 1.308-1.042.753.006 1.391.499 1.425 1.087.016.305.359 7.51-3.907 10.77-1.523 1.162-3.426 1.697-5.658 1.59-.307-.013-.604-.04-.898-.076" fill="#1d1d1b"/><path d="M149.436 152.536c-.118 2.712-3.74 4.754-8.092 4.564-4.35-.191-7.781-2.544-7.661-5.255.118-2.712 3.74-4.754 8.092-4.564 4.35.19 7.78 2.544 7.661 5.255m-59.021-4.837c-4.35-.19-7.975 1.852-8.093 4.563-.12 2.71 3.311 5.065 7.661 5.255 4.35.19 7.973-1.852 8.093-4.563.12-2.712-3.311-5.065-7.661-5.255" fill="#f2a391"/><path d="M38.908 106.318c0 2.763.205 5.481.565 8.156 8.015 6.331 17.792 9.212 27.571 3.78 10.232-6.821 5.116-22.17 13.643-27.285 10.233-5.116 8.526 11.936 17.053 13.641 8.917 0 9.636-15.94 15.3-15.75 5.662.19 5.71 13.242 6.822 15.002 1.11 1.758 2.86 3.073 4.876 3.583 6.819 1.725 10.24-11.494 15.358-8.893 5.402 2.745 4.721 10.645 8.606 14.128 2.052 1.84 4.862 2.65 7.613 2.852 5.048.374 24.29-.615 28.831 2.15a60.995 60.995 0 001.084-11.364c0-36.888-32.98-66.791-73.662-66.791-40.682 0-73.66 29.903-73.66 66.791z" fill="#191716"/><path d="M150.021 57.4c9.635 7.25 16.22 17.046 20.487 28.243 1.248 3.272 6.528 1.922 5.334-1.471-4.382-12.447-12.899-22.892-24.63-29.439-1.46-.815-2.483 1.694-1.19 2.667zm-87.73 8.518c-.631.014-1.279.264-1.855.836-9.404 9.333-18.96 25.455-15.63 39.275.337 1.397 2.3 1.265 2.702 0 2.033-6.406 2.458-12.921 5.332-19.138 2.822-6.103 6.83-11.43 11.668-16.067 2.09-2.006.038-4.958-2.217-4.906zM97.431 94.6c-.044.962 1.493 1.46 1.905.515 2.41-5.533 6.595-9.902 12.736-10.894 2.615-.422 1.75-4.784-.93-4.341-7.283 1.205-13.377 7.343-13.71 14.72zm-38.19-9.07c-.787-.038-1.585.282-2.122 1.132-3.38 5.352-5.425 11.052-5.92 17.367-.132 1.687 2.472 1.969 2.903.393 1.51-5.517 3.855-10.679 7.27-15.276 1.276-1.718-.401-3.534-2.132-3.617zm77.21 2.534c-.856.036-1.725.184-2.6.456-2.958.92-5.571 3.459-5.878 6.61-.113 1.148 1.348 1.457 2.066.856 3.413-2.859 6.489-4.5 10.563-1.607 2.254 1.6 5.196-2.15 2.984-3.865-2.115-1.641-4.566-2.555-7.135-2.45z" fill="#302d2b"/></svg>