<svg width="224" height="320" xmlns="http://www.w3.org/2000/svg"><path d="M117.588 286.695c-26.678 0-48.306-4.412-48.306-9.853 0-5.44 21.628-9.852 48.307-9.852 26.68 0 48.31 6.411 48.31 11.852-.001 5.441-21.631 7.853-48.311 7.853z" fill-opacity=".2"/><path d="M134.135 266.728h-.343c-1.7 0-3.09-1.39-3.09-3.09v-22.17c0-1.7 1.39-3.09 3.09-3.09h.343c1.7 0 3.09 1.39 3.09 3.09v22.17c0 1.7-1.39 3.09-3.09 3.09m-32.747 0h-.342a3.098 3.098 0 01-3.088-3.09v-22.17c0-1.7 1.39-3.09 3.088-3.09h.342c1.7 0 3.09 1.39 3.09 3.09v22.17c0 1.7-1.39 3.09-3.09 3.09" fill="#efbb97"/><path d="M130.702 263.468v12.427s21.927 2.131 22.673 0c-.425-7.034-16.15-12.427-16.15-12.427zm-26.224 0v12.427s-21.926 2.131-22.673 0c.425-7.034 16.153-12.427 16.153-12.427z" fill="#d13024"/><path d="M88.182 218.481l6.298 39.892h12.071l3.127-34.674 12.78-.238 4.556 34.912h12.338l2.207-40.928z" fill="#1bb3cc"/><path d="M72.267 186.903L48.8 204.938s-6.315 1.771-6.18 2.621c.135.852 3.742.183 3.742.183s-5.622 2.85-4.866 3.605c.755.756 6.183-1.744 6.183-1.744s-4.762 2.84-4.218 4.19c.543 1.351 5.735-3.25 5.735-3.25s-3.56 4.61-2.512 5.799c1.045 1.187 5.544-5.92 5.544-5.92s.32 3.58 1.629 4.053c1.309.474.417-5.127.417-5.127L75.85 191.25z" fill="#efbb97"/><path d="M88.182 175.58l-20.146 10.522 7.915 10.523 10.586-6.656z" fill="#1f90aa"/><path d="M157.018 186.738l23.227 18.342s6.293 1.852 6.146 2.702c-.147.85-3.744.133-3.744.133s5.583 2.923 4.818 3.668c-.766.746-6.161-1.823-6.161-1.823s4.725 2.9 4.164 4.243c-.56 1.345-5.691-3.324-5.691-3.324s3.498 4.657 2.437 5.83c-1.062 1.174-5.467-5.99-5.467-5.99s-.369 3.573-1.684 4.03c-1.314.458-.349-5.132-.349-5.132l-21.338-18.378z" fill="#efbb97"/><path d="M141.365 174.3l20.144 10.523-7.913 10.523-11.093-6.974z" fill="#1f90aa"/><path d="M88.854 170.833s-6.309 44.212-2.482 49.642c3.826 5.43 54.208 6.913 55.667 0 1.46-6.913 0-49.642 0-49.642s-15.429 5.099-28.125 5.116c-12.697.018-25.06-5.116-25.06-5.116" fill="#d13024"/><path d="M97.596 185.553c6.47 3.867 14.88 4.855 22.289 4.888 2.488.01 2.487-3.933 0-3.862-7.545.213-14.081-1.687-21.313-3.345-1.38-.317-2.24 1.562-.976 2.319m6.791 8.635c3.038 1.798 8.057 1.5 11.46 1.493 1.861-.006 1.84-2.993 0-2.878-2.006.124-4.001.15-6.011.11-1.752-.034-3.591-.34-5.294.098-.543.14-.624.899-.155 1.177" fill="#ba221e"/><path d="M199.203 134.344c0 5.24-4.683 9.489-10.465 9.489-5.779 0-10.462-4.249-10.462-9.49 0-5.24 4.683-9.488 10.462-9.488 5.782 0 10.465 4.248 10.465 9.489" fill="#efbb97"/><path d="M184.142 130.796c2.761-1.519 6.16 0 6.662 3.224.508 3.255-3.857 3.308-4.27.514-.258-1.752-2.53-1.22-3.044 0-2.356 5.586 10.624 8.726 10.892.756.098-2.942-1.721-5.851-4.42-7.008-2.327-.997-5.43-.543-6.496 1.996-.166.392.359.691.676.518" fill="#d8a17c"/><path d="M24.797 134.344c0 5.24 4.683 9.489 10.465 9.489 5.779 0 10.463-4.249 10.463-9.49 0-5.24-4.684-9.488-10.463-9.488-5.782 0-10.465 4.248-10.465 9.489" fill="#efbb97"/><path d="M39.858 130.796c-2.761-1.519-6.16 0-6.662 3.224-.508 3.255 3.857 3.308 4.27.514.258-1.752 2.53-1.22 3.044 0 2.357 5.586-10.624 8.726-10.892.756-.098-2.942 1.721-5.851 4.42-7.008 2.327-.997 5.43-.543 6.496 1.996.166.392-.359.691-.676.518" fill="#d8a17c"/><path d="M186.23 112.54c0 36.888-32.978 66.791-73.661 66.791s-73.662-29.903-73.662-66.791c0-36.889 32.98-66.791 73.662-66.791 40.683 0 73.66 29.902 73.66 66.79" fill="#efbb97"/><path d="M94.437 142.144a5.767 5.767 0 11-11.447-1.428 5.767 5.767 0 016.436-5.01 5.77 5.77 0 015.011 6.438m50.638.506a5.768 5.768 0 11-11.446-1.43 5.768 5.768 0 0111.446 1.43m-30.543 14.264c-1.899-.236-3.555-.934-4.937-2.076-4.314-3.575-4.334-10.38-4.332-10.669.003-.586.617-1.03 1.37-.99.75.037 1.366.546 1.364 1.134 0 .061.024 6.215 3.537 9.12 1.075.889 2.35 1.358 3.888 1.43 1.482.071 2.69-.266 3.69-1.03 2.88-2.202 3.252-7.423 3.15-9.249-.03-.588.555-1.055 1.31-1.042.75.007 1.39.5 1.423 1.088.016.305.36 7.51-3.906 10.77-1.522 1.162-3.427 1.697-5.659 1.59-.305-.013-.604-.04-.898-.076" fill="#1d1d1b"/><path d="M149.436 158.758c-.118 2.711-3.741 4.754-8.093 4.563-4.35-.19-7.78-2.543-7.661-5.255.12-2.711 3.742-4.754 8.092-4.563 4.35.19 7.781 2.543 7.662 5.255m-59.022-4.838c-4.35-.19-7.974 1.852-8.092 4.564-.12 2.71 3.311 5.064 7.661 5.255 4.352.19 7.975-1.852 8.093-4.564.12-2.711-3.311-5.064-7.662-5.255" fill="#f2a391"/><path d="M142.039 34.973a12.415 12.415 0 00-9.694 4.652c-2.138-3.77-6.181-6.32-10.826-6.32-4.194 0-7.897 2.082-10.15 5.262-2.255-3.18-5.957-5.262-10.15-5.262-5.67 0-10.446 3.795-11.947 8.98a12.393 12.393 0 00-8.576-3.44c-6.769 0-12.265 5.41-12.426 12.144a12.392 12.392 0 00-4.764-.949c-6.873 0-12.443 5.572-12.412 13.074-6.735.75-12.188 6.265-12.188 13.062 0 2.285.628 4.42 1.704 6.26-5.603 1.214-9.802 6.192-9.802 12.157 0 4.095 1.987 7.716 5.038 9.983-3.72 2.152-6.23 6.165-6.23 10.772 0 6.872 5.57 12.447 14.276 12.647 8.929.206 14.682-5.55 14.682-12.647 0-3.264-1.228-6.236-3.233-8.503 5.87-1 10.342-6.097 10.278-13.098 2.314-2.14 4.206-4.173 5.326-6.638 3.177 2.435 8.175 1.76 10.686-.51-.004 7.205 5.75 12.961 12.851 12.961 2.43 0 4.694-.687 6.631-1.858 2.125 4.175 6.45 7.04 11.456 7.04 6.687 0 12.174-5.104 12.793-11.63a12.785 12.785 0 008.6 3.323c6.627 0 12.08-5.016 12.779-11.455 2.598 1.958 6.472 1.955 8.957.559 1.676 3.514 4.94 6.12 8.873 6.876a12.35 12.35 0 00-1.682 6.226c0 6.615 5.163 12.008 11.677 12.405a12.414 12.414 0 00-.78 4.302c0 6.872 5.57 12.444 12.443 12.444 6.873 0 12.445-5.572 12.445-12.444 0-4.417-2.31-8.287-5.779-10.496 3.264-2.243 5.409-6 5.409-10.26 0-6.062-4.34-11.107-10.082-12.212a12.365 12.365 0 002.496-7.453c0-6.873-5.571-12.443-12.442-12.443-2.006 0-3.893.485-5.569 1.327a12.387 12.387 0 001.351-5.619c0-6.872-5.571-12.444-12.442-12.444-2.672 0-5.137.848-7.149 1.974.015-7.177-5.555-12.749-12.428-12.749z" fill="#472915"/><path d="M145.449 45.562c1.656 1.9 2.039 4.763 2.358 7.172.35 2.647 4.03 2.198 3.644-.492-.499-3.512-1.396-7.387-4.441-9.601-.98-.712-2.486-1.35-3.916-1.467-1.43-.117-3.431.632-3.36 1.92.116 2.072 4.147.673 5.715 2.468zm-15.984 11.311c2.215.905 4.187 2.24 5.996 3.807 3.676 3.19 5.712 7.066 5.79 11.978.046 2.84 4.018 2.703 4.32 0 .668-6.02-2.895-11.379-7.53-14.912-2.696-2.055-7.09-4.616-10.978-4.566-1.296.016-3.625.352-3.555 1.658.112 2.095 4.036 1.251 5.957 2.035zm3.471 9.418a6.146 6.146 0 011.61 3.955c.06 1.808 2.755 1.522 2.493-.336a8.293 8.293 0 00-2.574-4.892c-1.008-.932-3.59-2.78-4.386-1.46-.68 1.129 1.908 1.69 2.857 2.733zM52.029 78.74c-.71-2.553 1.27-4.092 3.123-5.422 1.382-.993.528-3.057-.73-3.123-.29-.015-.603.075-.914.31-2.406 1.824-4.793 3.989-4.44 7.296.27 2.523 3.03 7.333 5.231 5.898 1.524-.992-1.776-3.184-2.27-4.959zm44.069 13.756c-1.658-.433-3.191-1.117-4.543-2.185-2.977-2.35-3.702-5.697-3.721-9.295-.008-1.366-1.388-2.13-2.522-1.95-.68.108-1.27.554-1.421 1.414-.8 4.552 1.235 9.298 4.921 12.047 2 1.493 8.595 4.314 10.316 1.09-.805-.922-1.951-.838-3.03-1.121zm-.719-3.928c-.507-.536-.7-1.36-1.52-2.004-.734-.578-1.661.408-1.179 1.039.852 1.114 2.907 3.621 3.928 2.462.426-.485-.804-1.046-1.229-1.497zm97.082 21.077c-1.034 0-2.071.696-2.17 2.082-.16 2.252.209 4.892-1.36 6.752-1.95 2.308-4.873.831-7.077 2.18a.787.787 0 00-.159 1.22c2.21 2.246 7.568 1.43 9.758-.475 2.603-2.268 3.355-6.387 3.154-9.677-.084-1.392-1.113-2.084-2.146-2.082zm-154.424 9.949c-1.383-2.173-1.188-4.56-.226-6.838.584-1.386-.614-2.285-1.82-2.229-.725.034-1.452.412-1.798 1.235-1.283 3.04-.757 6.8 1.42 9.308 1.42 1.635 5.79 4.479 6.988 2.334.965-1.73-3.389-1.966-4.564-3.81zm146.347-6.352c-.395.743-.635 1.52-1.218 2.154-.414.45-1.21.97-.863 1.674.575 1.172 2.449-.381 2.92-.806.63-.568 1.163-1.256 1.414-2.075.25-.826-.434-1.474-1.143-1.54a1.093 1.093 0 00-1.11.593z" fill="#633516"/></svg>