<svg width="224" height="320" xmlns="http://www.w3.org/2000/svg"><path d="M164.194 270.62c0 5.442-21.627 9.853-48.308 9.853-26.68 0-48.31-4.411-48.31-9.852 0-5.441 21.63-9.853 48.31-9.853 26.68 0 48.308 4.412 48.308 9.853" fill-opacity=".2"/><path d="M130.703 257.247v12.426s21.927 2.132 22.673 0c-.426-7.034-16.153-12.426-16.153-12.426zm-29.636 0v12.426s-21.926 2.132-22.673 0c.427-7.034 16.153-12.426 16.153-12.426z" fill="#145fa3"/><path d="M88.713 215.742l5.833 41.505h6.522l7.32-31.842h17.906l4.409 31.842h6.522l4.815-41.505z" fill="#193451"/><path d="M71.88 182.414l-22.901 18.748s-6.259 1.961-6.097 2.808c.16.847 3.745.068 3.745.068s-5.53 3.02-4.754 3.752c.78.732 6.128-1.93 6.128-1.93s-4.672 2.98-4.088 4.315c.585 1.334 5.633-3.422 5.633-3.422s-3.416 4.715-2.334 5.87c1.083 1.154 5.359-6.085 5.359-6.085s.431 3.566 1.755 4c1.322.434.258-5.138.258-5.138l21.012-18.75z" fill="#efbb97"/><path d="M84.999 168.26l-15.717 13.584 9.112 6.55 7.417-6.166z" fill="#5c9bb7"/><path d="M153.417 178.276l21.715 20.109s6.127 2.343 5.916 3.177c-.214.835-3.743-.16-3.743-.16s5.336 3.351 4.515 4.035c-.822.681-5.998-2.302-5.998-2.302s4.482 3.261 3.817 4.557c-.665 1.295-5.414-3.76-5.414-3.76s3.122 4.916 1.972 6.003c-1.15 1.086-4.979-6.402-4.979-6.402s-.648 3.534-1.994 3.886c-1.346.353.053-5.143.053-5.143l-19.829-19.996z" fill="#efbb97"/><path d="M143.425 166.554l15.716 13.584-9.112 6.55-7.417-6.166z" fill="#5c9bb7"/><path d="M84.999 168.26l1.648 48.85H144.2v-50.46z" fill="#83b9d6"/><path d="M122.09 203.685c2.516 1.02 3.753-3.201 1.138-4.129-7.136-2.527-14.382-5.1-20.29-9.985-1.31-1.082-3.165.671-1.902 1.902 5.981 5.824 13.422 9.113 21.054 12.212zm-14.944-1.92c1.19.885 2.35 1.863 3.771 2.336 1.175.392 2.009-1.2 1.18-2.024-1.05-1.05-2.455-1.668-3.73-2.4a34.57 34.57 0 00-3.846-1.925c-.67-.282-1.084.69-.664 1.14 1.026 1.097 2.085 1.98 3.289 2.873z" fill="#6ba7c1"/><path d="M144.2 166.65l-15.257 15.764-9.374-9.358zm-59.201 1.61l15.257 14.154 9.374-9.358z" fill="#5c9bb7"/><path d="M199.203 128.122c0 5.24-4.684 9.487-10.464 9.487-5.779 0-10.464-4.248-10.464-9.487 0-5.24 4.685-9.489 10.464-9.489 5.78 0 10.464 4.249 10.464 9.49" fill="#efbb97"/><path d="M184.14 124.575c2.764-1.52 6.16 0 6.663 3.222.508 3.258-3.855 3.31-4.269.515-.258-1.751-2.529-1.218-3.044 0-2.356 5.587 10.623 8.726 10.891.757.1-2.941-1.72-5.852-4.42-7.009-2.325-.997-5.427-.543-6.494 1.996-.166.393.359.692.674.519" fill="#d8a17c"/><path d="M24.797 128.122c0 5.24 4.684 9.487 10.464 9.487 5.779 0 10.464-4.248 10.464-9.487 0-5.24-4.685-9.489-10.464-9.489-5.78 0-10.464 4.249-10.464 9.49" fill="#efbb97"/><path d="M39.86 124.575c-2.764-1.52-6.16 0-6.663 3.222-.508 3.258 3.855 3.31 4.269.515.258-1.751 2.529-1.218 3.044 0 2.356 5.587-10.623 8.726-10.891.757-.099-2.941 1.72-5.852 4.42-7.009 2.325-.997 5.427-.543 6.494 1.996.166.393-.359.692-.674.519" fill="#d8a17c"/><path d="M112.568 173.109c-40.681 0-73.66-29.902-73.66-66.79 0-36.89 32.979-66.792 73.66-66.792 40.683 0 73.662 29.903 73.662 66.791 0 36.889-32.98 66.791-73.662 66.791z" fill="#efbb97"/><path d="M38.908 106.318c0 .69.034 1.37.056 2.054 10.462 5.061 24.9 4.412 35.854 1.424 8.528-1.705 15.349-10.232 20.465-18.758 3.41 8.526 5.116 18.758 13.643 22.169 17.053 6.82 25.578-11.939 35.81-22.169 9.258 13.37 23.482 26.727 39.297 31.493a60.994 60.994 0 002.197-16.213c0-36.888-32.98-66.791-73.662-66.791-40.68 0-73.66 29.903-73.66 66.791z" fill="#6d350f"/><path d="M127.654 44.12c-1.432-.21-2.084 1.798-.615 2.228 11.108 3.242 28.827 10.419 33.248 22.373.78 2.108 4.62 2.037 4.277-.578-.883-6.747-7.832-11.276-13.142-14.838-7.24-4.855-15.154-7.92-23.768-9.186zm-2.466 38.679a6.23 6.23 0 00-1.946.441c-.74.294-.469 1.362.332 1.205 4.677-.91 6.066 4.484 7.424 7.7.712 1.692 3.38 1.107 2.85-.786-1.09-3.87-4.282-8.808-8.66-8.56zm-2.278 21.89c4.563-2.54 7.552-7.717 5.649-12.898-1.395-3.795-4.706-5.794-8.33-5.805a10.61 10.61 0 00-3.67.659c-1.655.602-1.021 3.075.734 2.664 6.197-1.45 10.095 5.234 5.924 10.02-2.19 2.51-6.505 3.914-9.746 3.269-6.807-1.35-8.626-8.824-10.766-14.3-.42-1.075-2.292-1.063-2.194.3.824 11.515 10.332 22.813 22.4 16.091zM88.78 88.14c-.424-.025-.883.122-1.313.507-6.29 5.646-12.93 10.111-21.213 12.186-7.847 1.965-14.732.8-22.621.147-.86-.071-1.139 1.193-.432 1.587 14.645 8.16 36.788.988 46.758-11.43 1.048-1.307.091-2.922-1.18-2.997zm64.257 2.65c2.751 4.591 7.505 8.508 11.645 11.834 3.612 2.903 7.54 5.293 12.297 5.318 3.019.016 2.86-4.259 0-4.582-9.463-1.065-16.247-9.514-22.633-14.366-.94-.714-1.778 1.013-1.309 1.796zm-78.453-1.025c-.438-.038-.894.106-1.29.515-5.456 5.65-13.387 5.748-20.74 5.75-.596 0-.776.994-.146 1.08 8.286 1.118 16.805 1.686 23.375-4.338 1.253-1.147.115-2.895-1.199-3.007zm90.355 1.455c-1.127.12-2.027 1.464-.949 2.437 2.597 2.341 5.543 4.01 8.922 4.93 2.05.558 2.924-2.62.877-3.178-2.797-.76-5.444-2.02-7.71-3.842a1.529 1.529 0 00-1.14-.347z" fill="#5b2e10"/><path d="M94.436 135.922a5.77 5.77 0 01-6.438 5.011 5.77 5.77 0 01-5.009-6.439 5.767 5.767 0 1111.447 1.428m50.639.508a5.77 5.77 0 01-6.438 5.01 5.772 5.772 0 01-5.009-6.44 5.767 5.767 0 1111.447 1.43m-30.543 14.262c-1.899-.236-3.555-.933-4.935-2.077-4.316-3.574-4.336-10.379-4.334-10.668.002-.585.617-1.028 1.37-.99.75.036 1.366.547 1.364 1.134 0 .06.024 6.216 3.537 9.121 1.075.888 2.35 1.356 3.888 1.43 1.482.07 2.688-.268 3.69-1.03 2.88-2.203 3.252-7.424 3.152-9.25-.032-.588.553-1.054 1.306-1.04.753.005 1.393.497 1.425 1.085.016.306.36 7.511-3.906 10.77-1.522 1.162-3.427 1.697-5.659 1.592-.305-.014-.604-.04-.898-.077" fill="#1d1d1b"/><path d="M149.436 152.536c-.12 2.712-3.742 4.753-8.092 4.562-4.35-.19-7.781-2.543-7.663-5.255.12-2.71 3.742-4.752 8.094-4.562 4.35.191 7.78 2.544 7.661 5.255m-59.021-4.838c-4.35-.19-7.975 1.852-8.093 4.563-.12 2.712 3.311 5.065 7.661 5.255 4.35.191 7.973-1.851 8.093-4.563.12-2.711-3.311-5.064-7.661-5.255" fill="#f2a391"/></svg>