<svg width="224" height="320" xmlns="http://www.w3.org/2000/svg"><path d="M148.185 272.202c0 5.442-21.629 9.854-48.308 9.854-26.68 0-48.31-4.412-48.31-9.854 0-5.44 21.63-9.852 48.31-9.852 26.68 0 48.309 4.411 48.309 9.852" fill-opacity=".2"/><path d="M118.978 258.924h-.341c-1.7 0-3.09-1.39-3.09-3.09v-22.172c0-1.7 1.39-3.09 3.09-3.09h.34c1.7 0 3.09 1.39 3.09 3.09v22.173c0 1.7-1.39 3.09-3.09 3.09M81.116 258.924h-.34c-1.7 0-3.09-1.39-3.09-3.09v-22.172c0-1.7 1.39-3.09 3.09-3.09h.34c1.7 0 3.09 1.39 3.09 3.09v22.173c0 1.7-1.39 3.09-3.09 3.09" fill="#efbb97"/><path d="M115.547 255.664v12.425s21.927 2.133 22.673 0c-.425-7.033-16.153-12.425-16.153-12.425zM84.206 255.664v12.425s-21.927 2.133-22.673 0c.427-7.033 16.153-12.425 16.153-12.425z" fill="#664b38"/><path d="M68.893 201.355l4.238 33.587h16.65V223.86h22.596v11.083h13.6l3.453-33.587z" fill="#38166d"/><path d="M54.737 181.32L32.81 201.2s-6.15 2.275-5.948 3.113c.203.837 3.744-.123 3.744-.123s-5.371 3.295-4.557 3.989c.813.691 6.023-2.24 6.023-2.24s-4.519 3.217-3.867 4.518c.65 1.302 5.453-3.704 5.453-3.704s-3.173 4.885-2.034 5.982c1.14 1.1 5.045-6.347 5.045-6.347s.61 3.539 1.954 3.907c1.342.366 0-5.145 0-5.145l20.039-19.785zm85.062 0l21.926 19.88s6.152 2.275 5.948 3.113c-.203.837-3.742-.123-3.742-.123s5.371 3.295 4.557 3.989c-.815.691-6.024-2.24-6.024-2.24s4.518 3.217 3.866 4.518c-.65 1.302-5.452-3.704-5.452-3.704s3.174 4.885 2.035 5.982c-1.14 1.1-5.047-6.347-5.047-6.347s-.609 3.539-1.952 3.907c-1.343.366 0-5.145 0-5.145l-20.04-19.785z" fill="#efbb97"/><path d="M146.534 178.063c-1.264-2.666-16.81-15.453-22.069-12.192l-.192-1.167-51.363.855s-.16.963-.42 2.56c-.236-.467-.527-.89-.952-1.2-5.067-3.695-20.984 9.38-22.262 12.08-1.28 2.7 9.379 13.97 13.785 10.8 2.193-1.578 5.556-6.339 7.76-11.177-1.345 8.678-2.836 19.012-2.836 22.054 0 5.525 62.82 3.572 62.23 0-.29-1.763-1.744-10.553-3.14-19.003 1.92 3.27 4.098 6.057 5.675 7.191 4.403 3.17 15.062-8.1 13.784-10.8" fill="#6443a3"/><path d="M115.845 185.607c3.343-.907 2.815-6.663-.845-6.25-6.09.688-11.99 1.714-18.152 1.344-5.905-.352-11.641-1.813-17.562-2.188 8.967 8.351 25.141 10.192 36.559 7.094zm-25.747 5.976c2.562 1.058 5.184 2.03 7.883 2.663 3.316.782 4.657-4.491 1.39-5.039-2.595-.434-5.186-.808-7.749-1.415-1.779-.424-5.098-1.737-5.765.066-.654 1.764 2.554 3.027 4.241 3.725z" fill="#50378c"/><path d="M181.915 126.54c0 5.238-4.684 9.487-10.464 9.487-5.779 0-10.464-4.249-10.464-9.487 0-5.24 4.685-9.49 10.464-9.49 5.78 0 10.464 4.25 10.464 9.49" fill="#efbb97"/><path d="M166.853 122.992c2.763-1.519 6.161-.001 6.662 3.222.508 3.256-3.855 3.31-4.27.516-.256-1.752-2.528-1.22-3.042 0-2.358 5.586 10.623 8.724 10.891.756.099-2.943-1.72-5.851-4.42-7.008-2.326-.997-5.429-.543-6.495 1.995-.167.393.359.692.674.52" fill="#d8a17c"/><path d="M7.51 126.54c0 5.238 4.684 9.487 10.464 9.487 5.779 0 10.463-4.249 10.463-9.487 0-5.24-4.684-9.49-10.463-9.49-5.78 0-10.465 4.25-10.465 9.49" fill="#efbb97"/><path d="M22.571 122.992c-2.762-1.519-6.16-.001-6.662 3.222-.508 3.256 3.857 3.31 4.269.516.258-1.752 2.529-1.22 3.044 0 2.358 5.586-10.623 8.724-10.891.756-.099-2.943 1.72-5.851 4.42-7.008 2.326-.997 5.427-.543 6.496 1.995.166.393-.36.692-.676.52" fill="#d8a17c"/><path d="M168.942 104.735c0 36.887-32.98 66.792-73.66 66.792-40.683 0-73.663-29.905-73.663-66.792 0-36.888 32.98-66.79 73.663-66.79 40.68 0 73.66 29.902 73.66 66.79" fill="#efbb97"/><path d="M142.822 57.452c.503-.745 19.87-18.362 39.896-6.585 20.028 11.777 12.026 29.906 17.389 38.186 5.365 8.282 16.384 15.326 16.384 15.326s-8.762 3.91-18.606 3.233c-9.843-.677-25.223-3.35-40.497-16.301-15.274-12.952-14.566-33.859-14.566-33.859" fill="#c68f14"/><path d="M95.281 37.944c-40.683 0-73.66 29.903-73.66 66.791a61.016 61.016 0 003.249 19.666c35.022 8.14 69.56-6.805 92.696-33.428 9.414 17.755 25.747 32.639 44.67 41.6 4.294-8.478 6.705-17.898 6.705-27.838 0-21.626-11.344-40.841-28.92-53.047-12.405-8.615-27.909-13.744-44.74-13.744z" fill="#d8a013"/><path d="M147.18 62.865c-1.382.074-2.451 1.89-1.315 3.317 10.06 12.628 11.668 28.228 10.11 43.797-.431 4.292 6.383 4.32 6.742 0 1.41-17.054-1.324-34.239-14.121-46.528-.46-.441-.956-.61-1.416-.586zm2.726 19.805c-.834-.023-1.67.424-1.836 1.351-.39 2.188.01 4.339.17 6.538.166 2.276.293 4.514.598 6.775.403 2.99 5.258 2.228 5.205-.703-.041-2.285-.387-4.501-.78-6.75-.377-2.162-.631-4.384-1.73-6.31-.33-.581-.978-.884-1.627-.901zm-45.556 4.182c-.965-.085-1.99.206-2.909 1.035-9.037 8.16-19.557 14.17-30.474 19.43-5.412 2.61-10.895 5.298-16.682 6.966-7.385 2.13-14.885 1.772-22.469 2.168-1.843.094-2.505 3.087-.462 3.42 26.495 4.321 56.502-8.014 75.55-26.521 2.693-2.615.34-6.245-2.554-6.498zm-23.64 2.367a2.9 2.9 0 00-1.194.406 1478.3 1478.3 0 00-16.971 10.2c-6.052 3.688-11.969 8.278-19.178 9.109-.9.105-1.271 1.47-.23 1.709 5.593 1.282 10.5-1.087 15.437-3.596 7.996-4.06 15.957-8.19 23.883-12.385 2.896-1.532.96-5.709-1.746-5.443z" fill="#cc9211"/><path d="M169.102 53.596c-1.044-.014-2.061.148-3.02.533-.81.325-1.383 1.46-.566 2.152 3.67 3.115 8.5 3.894 11.982 7.598 4.12 4.382 4.693 10.171 7.59 15.152 1.448 2.49 6.137 1.62 5.789-1.568-.702-6.443-4.384-13.39-9.215-17.746-3.01-2.713-8.038-6.062-12.56-6.121zm.066 10.275c1.045 1.162 1.854 2.455 2.723 3.748 1.024 1.525 3.992.586 3.185-1.342-1.343-3.208-7.222-6.537-8.659-5.676-1.177.705 1.776 2.186 2.751 3.27z" fill="#bc800a"/><path d="M70.71 139.349a5.768 5.768 0 111.43-11.448 5.768 5.768 0 01-1.43 11.448zm50.639.506a5.768 5.768 0 111.43-11.448 5.768 5.768 0 01-1.43 11.448zm-29.041 7.177c-4.315-3.574-4.333-10.379-4.332-10.668.002-.585.615-1.027 1.37-.989.75.037 1.365.546 1.364 1.133 0 .061.023 6.217 3.537 9.122 1.074.888 2.35 1.355 3.888 1.428 1.482.07 2.688-.265 3.69-1.03 2.881-2.2 3.25-7.423 3.15-9.249-.032-.588.553-1.052 1.308-1.042.753.01 1.393.498 1.425 1.086.017.307.36 7.512-3.908 10.772-1.52 1.162-3.43 1.776-6.106 1.552-2.357-.196-4.006-.972-5.386-2.115z" fill="#1d1d1b"/><path d="M124.055 155.515c-4.35-.19-7.779-2.543-7.66-5.255.118-2.71 3.74-4.752 8.092-4.561 4.35.19 7.78 2.541 7.661 5.253-.118 2.712-3.74 4.754-8.093 4.563zm-59.021-4.836c-.12 2.711 3.31 5.065 7.66 5.255 4.353.19 7.976-1.852 8.095-4.564.118-2.711-3.313-5.065-7.663-5.255-4.35-.19-7.972 1.852-8.092 4.564z" fill="#f2a391"/></svg>