<svg width="600" height="100" xmlns:xlink="http://www.w3.org/1999/xlink" xmlns="http://www.w3.org/2000/svg"><use xlink:href="#a" transform="translate(500)"/><use xlink:href="#a" transform="translate(400)"/><use xlink:href="#a" transform="translate(300)"/><use xlink:href="#a" transform="translate(200)"/><path d="M50 95C25.147 95 5 74.853 5 50S25.147 5 50 5s45 20.147 45 45-20.147 45-45 45z" id="a" fill="#f5c600" stroke="#000" stroke-width="4" stroke-opacity=".5" paint-order="stroke fill markers"/><use xlink:href="#a" transform="translate(100)"/><path id="b" d="M65.17 9.846a1.016 1.016 0 10.001 2.032 1.016 1.016 0 00-.001-2.032zm2.809 1.213a1.008 1.008 0 00-.583 1.89 44.273 44.273 0 0116.026 14.92 1.01 1.01 0 001.7-1.09 46.31 46.31 0 00-16.759-15.603 1.013 1.013 0 00-.384-.117zm18.16 18.607a1.01 1.01 0 00-.809 1.479 43.86 43.86 0 012.897 6.86 1.01 1.01 0 101.92-.622 45.95 45.95 0 00-3.03-7.18 1.01 1.01 0 00-.978-.537z" fill="#fff"/><path id="c" d="M25.863 42.867a5.277 5.277 0 000 10.553 5.277 5.277 0 000-10.553zm47.287 0a5.277 5.277 0 000 10.553 5.277 5.277 0 000-10.553z" fill="#1e1e1e"/><path d="M39.38 56.466c0 5.899 4.799 10.698 10.698 10.698s10.698-4.8 10.698-10.698c0-1.347 2.02-1.347 2.02 0 0 7.013-5.705 12.718-12.718 12.718s-12.72-5.704-12.719-12.718c0-1.347 2.021-1.347 2.021 0z" id="d" fill="#1e1e1e"/><path d="M350 45.438c6.638 0 12.018 5.38 12.018 12.018 0 6.637-5.38 12.017-12.018 12.017-6.637 0-12.018-5.38-12.018-12.017s5.38-12.018 12.018-12.018z" fill="#1e1e1e"/><path d="M423.592 56.7c-.9 0-1.35-1.088-.714-1.724l6.832-6.833-6.056-6.056c-.995-.952.476-2.423 1.428-1.428l6.77 6.77a1.01 1.01 0 010 1.428l-7.546 7.547c-.19.19-.446.296-.714.296" id="e" fill="#1e1e1e"/><path d="M437.97 55.456a1.01 1.01 0 00-1.011.993c-.007.414-.11 10.203 5.069 15.469 2.11 2.146 4.793 3.235 7.972 3.235 3.18 0 5.862-1.09 7.972-3.235 5.18-5.266 5.077-15.055 5.07-15.469a1.01 1.01 0 00-1.012-.993z" fill="#1e1e1e"/><path d="M450.001 60.254c-4.133 0-7.893 1.78-10.752 4.685 1.42 4.538 4.417 9.204 10.75 9.204 6.336 0 9.333-4.668 10.754-9.206-2.86-2.904-6.619-4.683-10.752-4.683z" fill="#ff2912"/><path d="M273.154 57.902c16.06 21.095 0 20.542 0 20.542s-16.06.553 0-20.542z" fill="#00a0e3"/><path d="M273.9 60.256c-.512.002-.509.77.003.768.512-.002.509-.77-.003-.768zm.713 1.033a.253.253 0 00-.187.043.25.25 0 00-.063.35c.67.952 1.274 1.87 1.783 2.732.175.296.612.033.434-.26a48.09 48.09 0 00-1.805-2.761.251.251 0 00-.162-.104zm2.168 4.229c.26.468.495.934.705 1.378.06.126.21.182.336.122a.254.254 0 00.12-.338 26.859 26.859 0 00-.717-1.407.257.257 0 00-.152-.119.25.25 0 00-.292.364z" fill="#fff"/><path d="M526.827 53.609c-2.745 0-5.081-2-5.501-4.713h-3.814a.858.858 0 010-1.714h14.046c.47 0 .85.385.848.942-.008 3.117-2.554 5.484-5.579 5.485z" id="f" fill="#1e1e1e"/><use xlink:href="#b" transform="translate(200.001)"/><use xlink:href="#c" transform="translate(200)"/><use xlink:href="#d" transform="rotate(180 150.04 62.32)"/><use xlink:href="#b" transform="translate(300)"/><use xlink:href="#c" transform="translate(300)"/><use xlink:href="#b" transform="translate(400.001)"/><use xlink:href="#e" transform="matrix(-1 0 0 1 899.065 0)"/><use xlink:href="#b" transform="translate(500)"/><use xlink:href="#d" transform="matrix(1 0 0 -1 499.762 124.64)"/><use xlink:href="#f" transform="translate(49.338)"/><use xlink:href="#b" transform="translate(100)"/><use xlink:href="#c" transform="translate(100.457)"/><path d="M138.49 62.32h23.02" fill="none" stroke="#1e1e1e" stroke-width="2" stroke-linecap="round"/></svg>