<svg width="251" height="165" xmlns:xlink="http://www.w3.org/1999/xlink" xmlns="http://www.w3.org/2000/svg"><g id="a" stroke-linecap="round" stroke-linejoin="round"><circle cx="22.5" cy="22.5" r="17.5" fill="#396bb4"/><circle cx="22.5" cy="22.5" r="14" fill="none" stroke="#094f9d" stroke-width="4"/><circle cx="18" cy="18" r="3" fill="#fffffd" stroke-width="4"/><circle cx="27" cy="18" r="3" fill="#fffffd" stroke-width="4"/><circle cx="18" cy="27" r="3" fill="#fffffd" stroke-width="4"/><circle cx="27" cy="27" r="3" fill="#fffffd" stroke-width="4"/></g><use xlink:href="#a" transform="translate(0 40)"/><use xlink:href="#a" transform="translate(0 80)"/><use xlink:href="#a" transform="translate(0 119)"/><use xlink:href="#a" transform="translate(41)"/><use xlink:href="#a" transform="translate(41 40)"/><use xlink:href="#a" transform="translate(41 80)"/><use xlink:href="#a" transform="translate(41 119)"/><use xlink:href="#a" transform="translate(82)"/><use xlink:href="#a" transform="translate(82 40)"/><use xlink:href="#a" transform="translate(82 80)"/><use xlink:href="#a" transform="translate(82 119)"/><use xlink:href="#a" transform="translate(123)"/><use xlink:href="#a" transform="translate(123 40)"/><use xlink:href="#a" transform="translate(123 80)"/><use xlink:href="#a" transform="translate(123 119)"/><use xlink:href="#a" transform="translate(164)"/><use xlink:href="#a" transform="translate(164 40)"/><use xlink:href="#a" transform="translate(164 80)"/><use xlink:href="#a" transform="translate(164 119)"/><use xlink:href="#a" transform="translate(205)"/><use xlink:href="#a" transform="translate(205 40)"/><use xlink:href="#a" transform="translate(205 80)"/><use xlink:href="#a" transform="translate(205 119)"/></svg>