<svg width="349" height="167" xmlns:xlink="http://www.w3.org/1999/xlink" xmlns="http://www.w3.org/2000/svg"><g id="a" transform="translate(32)" stroke-linecap="round" stroke-linejoin="round"><circle cx="22.5" cy="22.5" r="17.5" fill="#396bb4"/><circle cx="22.5" cy="22.5" r="14" fill="none" stroke="#094f9d" stroke-width="4"/><circle cx="18" cy="18" r="3" fill="#fffffd"/><circle cx="27" cy="18" r="3" fill="#fffffd"/><circle cx="18" cy="27" r="3" fill="#fffffd"/><circle cx="27" cy="27" r="3" fill="#fffffd"/></g><use xlink:href="#a" transform="translate(0 40)"/><use xlink:href="#a" transform="translate(0 80)"/><use xlink:href="#a" transform="translate(234)"/><use xlink:href="#a" transform="translate(39)"/><use xlink:href="#a" transform="translate(39 40)"/><use xlink:href="#a" transform="translate(39 80)"/><use xlink:href="#a" transform="translate(273)"/><use xlink:href="#a" transform="translate(78)"/><use xlink:href="#a" transform="translate(78 40)"/><use xlink:href="#a" transform="translate(78 80)"/><use xlink:href="#a" transform="translate(234 40)"/><use xlink:href="#a" transform="translate(117)"/><use xlink:href="#a" transform="translate(117 40)"/><use xlink:href="#a" transform="translate(117 80)"/><use xlink:href="#a" transform="translate(273 40)"/><use xlink:href="#a" transform="translate(156)"/><use xlink:href="#a" transform="translate(156 40)"/><use xlink:href="#a" transform="translate(156 80)"/><use xlink:href="#a" transform="translate(232 80)"/><use xlink:href="#a" transform="translate(195)"/><use xlink:href="#a" transform="translate(195 40)"/><use xlink:href="#a" transform="translate(195 80)"/><use xlink:href="#a" transform="translate(271 80)"/><path d="M37.5 128v15m305-15v15m.183-7.5H37.217M29 5.5H14m15 114H14m7.5.114V5.358" fill="none" stroke="#000"/><path d="M8.89 58.072q-.253.098-.8.528-.527.41-.86.41-.468 0-.8-.332-.332-.352-.332-.879 0-.762.8-1.367.801-.606 1.797-.88.996-.292 1.836-.292 2.48 0 3.809.957 1.328.937 1.328 3.105 0 1.778-1.367 2.91.761.567 1.23 1.465.469.88.469 1.914 0 2.09-1.504 3.106-1.484.996-3.965.996-.898 0-1.953-.312-1.035-.313-1.914-1.016-.86-.703-.86-1.621 0-.528.333-.86.332-.351.8-.351.528 0 .958.566.43.547.703.703.859.47 1.933.47 3.223 0 3.223-1.72 0-1.191-.996-1.62-.977-.43-3.438-.43-.508 0-.879-.332-.351-.352-.351-.86t.351-.86q.352-.37.88-.37 1.132 0 2.109-.098 1.933-.215 1.933-1.66 0-.566-.273-.918-.254-.371-.742-.508-.47-.156-.84-.195-.371-.04-.899-.04-.586 0-1.718.391zm177.74 84.041q1.328-1.113 3.32-1.113 1.992 0 3.32 1.113 1.328 1.113 1.328 3.028 0 1.738-1.152 2.89 1.602 1.27 1.602 3.164 0 1.934-1.543 3.086-1.543 1.153-3.555 1.153-2.012 0-3.555-1.153-1.543-1.152-1.543-3.086 0-1.894 1.602-3.164-1.133-1.133-1.133-2.89 0-1.915 1.309-3.028zm5.02 1.797q-.626-.488-1.7-.488-1.074 0-1.7.488-.624.469-.624 1.25 0 .82.644 1.27.645.449 1.68.449t1.68-.45q.664-.449.664-1.269 0-.781-.645-1.25zm.194 5.918q-.957-.469-1.894-.469-.938 0-1.895.469-.957.469-.957 1.348 0 .898.918 1.367.938.469 1.934.469t1.914-.47q.937-.468.937-1.366 0-.88-.957-1.348z"/></svg>