<svg width="239" height="199" xmlns:xlink="http://www.w3.org/1999/xlink" xmlns="http://www.w3.org/2000/svg"><g id="a" stroke-linecap="round" stroke-linejoin="round"><circle cx="22.5" cy="22.5" r="17.5" fill="#55b948"/><circle cx="22.5" cy="22.5" r="14" fill="none" stroke="#1b6432" stroke-width="4"/><circle cx="18" cy="18" r="3" fill="#fffffd"/><circle cx="27" cy="18" r="3" fill="#fffffd"/><circle cx="18" cy="27" r="3" fill="#fffffd"/><circle cx="27" cy="27" r="3" fill="#fffffd"/></g><use xlink:href="#a" transform="translate(0 38)"/><use xlink:href="#a" transform="translate(0 76)"/><use xlink:href="#a" transform="translate(0 115)"/><use xlink:href="#a" transform="translate(39)"/><use xlink:href="#a" transform="translate(39 38)"/><use xlink:href="#a" transform="translate(39 76)"/><use xlink:href="#a" transform="translate(39 115)"/><use xlink:href="#a" transform="translate(78)"/><use xlink:href="#a" transform="translate(78 38)"/><use xlink:href="#a" transform="translate(78 76)"/><use xlink:href="#a" transform="translate(78 115)"/><use xlink:href="#a" transform="translate(117)"/><use xlink:href="#a" transform="translate(117 38)"/><use xlink:href="#a" transform="translate(117 76)"/><use xlink:href="#a" transform="translate(117 115)"/><use xlink:href="#a" transform="translate(156)"/><use xlink:href="#a" transform="translate(156 38)"/><use xlink:href="#a" transform="translate(156 76)"/><use xlink:href="#a" transform="translate(156 115)"/><use xlink:href="#a" transform="translate(195)"/><use xlink:href="#a" transform="translate(195 38)"/><use xlink:href="#a" transform="translate(195 76)"/><use xlink:href="#a" transform="translate(195 115)"/><use xlink:href="#a" transform="translate(0 154)"/><use xlink:href="#a" transform="translate(39 154)"/><use xlink:href="#a" transform="translate(78 154)"/><use xlink:href="#a" transform="translate(117 154)"/><use xlink:href="#a" transform="translate(156 154)"/><use xlink:href="#a" transform="translate(195 154)"/></svg>