<svg width="406" height="166" xmlns:xlink="http://www.w3.org/1999/xlink" xmlns="http://www.w3.org/2000/svg"><g id="a" transform="translate(29 -1)" stroke-linecap="round" stroke-linejoin="round"><circle cx="22.5" cy="22.5" r="17.5" fill="#55b948"/><circle cx="22.5" cy="22.5" r="14" fill="none" stroke="#1b6432" stroke-width="4"/><circle cx="18" cy="18" r="3" fill="#fffffd"/><circle cx="27" cy="18" r="3" fill="#fffffd"/><circle cx="18" cy="27" r="3" fill="#fffffd"/><circle cx="27" cy="27" r="3" fill="#fffffd"/></g><use xlink:href="#a" transform="translate(0 36)"/><use xlink:href="#a" transform="translate(0 72)"/><use xlink:href="#a" transform="translate(222)"/><use xlink:href="#a" transform="translate(37)"/><use xlink:href="#a" transform="translate(37 36)"/><use xlink:href="#a" transform="translate(37 72)"/><use xlink:href="#a" transform="translate(259)"/><use xlink:href="#a" transform="translate(74)"/><use xlink:href="#a" transform="translate(74 36)"/><use xlink:href="#a" transform="translate(74 72)"/><use xlink:href="#a" transform="translate(296)"/><use xlink:href="#a" transform="translate(111)"/><use xlink:href="#a" transform="translate(111 36)"/><use xlink:href="#a" transform="translate(111 72)"/><use xlink:href="#a" transform="translate(333)"/><use xlink:href="#a" transform="translate(148)"/><use xlink:href="#a" transform="translate(148 36)"/><use xlink:href="#a" transform="translate(148 72)"/><use xlink:href="#a" transform="translate(222 72)"/><use xlink:href="#a" transform="translate(185)"/><use xlink:href="#a" transform="translate(185 36)"/><use xlink:href="#a" transform="translate(185 72)"/><use xlink:href="#a" transform="translate(259 72)"/><use xlink:href="#a" transform="translate(222 36)"/><use xlink:href="#a" transform="translate(259 36)"/><use xlink:href="#a" transform="translate(296 36)"/><use xlink:href="#a" transform="translate(333 36)"/><use xlink:href="#a" transform="translate(296 72)"/><use xlink:href="#a" transform="translate(333 72)"/><path d="M34.5 119v15m367-15v15m.165-7.5H34.2M28 4.5H13m15 106H13m7.5-.044V4.2" fill="none" stroke="#000"/><path d="M8.89 52.914q-.253.098-.8.527-.527.41-.86.41-.468 0-.8-.332-.332-.351-.332-.879 0-.761.8-1.367.801-.605 1.797-.879.996-.293 1.836-.293 2.48 0 3.809.957 1.328.938 1.328 3.106 0 1.777-1.367 2.91.761.566 1.23 1.465.469.879.469 1.914 0 2.09-1.504 3.105-1.484.997-3.965.997-.898 0-1.953-.313-1.035-.312-1.914-1.016-.86-.703-.86-1.62 0-.528.333-.86.332-.352.8-.352.528 0 .958.567.43.547.703.703.859.469 1.933.469 3.223 0 3.223-1.72 0-1.19-.996-1.62-.977-.43-3.438-.43-.508 0-.879-.332-.351-.351-.351-.86 0-.507.351-.859.352-.37.88-.37 1.132 0 2.109-.098 1.933-.215 1.933-1.66 0-.567-.273-.919-.254-.37-.742-.507-.47-.157-.84-.196-.371-.039-.899-.039-.586 0-1.718.39zM209.222 141.219q-.293.195-.567.195-.488 0-.82-.332-.312-.332-.312-.8 0-.645.507-.977 1.524-1.035 3.34-2.09.352-.176.703-.176.547 0 .899.332.37.332.37.82v10.664h1.485q.469 0 .781.352.332.352.332.86 0 .507-.332.859-.312.351-.78.351h-5.645q-.47 0-.801-.351-.313-.352-.313-.86 0-.507.313-.859.332-.352.8-.352h1.563v-8.554q-1.308.781-1.523.918zm11.386-3.555q1.075-.664 2.48-.664 1.407 0 2.462.664 1.074.645 1.66 1.738.586 1.075.86 2.305.273 1.211.273 2.54 0 1.327-.274 2.558-.273 1.21-.859 2.304-.586 1.075-1.66 1.739-1.055.644-2.461.644t-2.48-.644q-1.055-.664-1.641-1.739-.586-1.093-.86-2.304-.273-1.23-.273-2.559 0-1.328.273-2.539.274-1.23.86-2.305.586-1.093 1.64-1.738zm3.926 2.227q-.605-.47-1.445-.47-.84 0-1.465.47-.605.449-.937 1.21-.313.743-.47 1.544-.136.78-.136 1.601 0 .82.137 1.621.156.781.469 1.543.332.742.937 1.211.625.45 1.465.45.84 0 1.445-.45.625-.469.938-1.21.332-.763.468-1.544.157-.8.157-1.62 0-.821-.157-1.602-.136-.801-.468-1.543-.313-.762-.938-1.211z"/></svg>