<svg width="386" height="121" xmlns:xlink="http://www.w3.org/1999/xlink" xmlns="http://www.w3.org/2000/svg"><g id="a" transform="translate(37)" stroke-linecap="round" stroke-linejoin="round"><circle cx="22.5" cy="22.5" r="17.5" fill="#982820"/><circle cx="22.5" cy="22.5" r="14" fill="none" stroke="#771214" stroke-width="4"/><circle cx="18" cy="18" r="3" fill="#fffffd"/><circle cx="27" cy="18" r="3" fill="#fffffd"/><circle cx="18" cy="27" r="3" fill="#fffffd"/><circle cx="27" cy="27" r="3" fill="#fffffd"/></g><use xlink:href="#a" transform="translate(0 39)"/><use xlink:href="#a" transform="translate(229)"/><use xlink:href="#a" transform="translate(39)"/><use xlink:href="#a" transform="translate(39 39)"/><use xlink:href="#a" transform="translate(266)"/><use xlink:href="#a" transform="translate(76)"/><use xlink:href="#a" transform="translate(76 39)"/><use xlink:href="#a" transform="translate(305)"/><use xlink:href="#a" transform="translate(114)"/><use xlink:href="#a" transform="translate(114 39)"/><use xlink:href="#a" transform="translate(229 39)"/><use xlink:href="#a" transform="translate(151)"/><use xlink:href="#a" transform="translate(151 39)"/><use xlink:href="#a" transform="translate(266 39)"/><use xlink:href="#a" transform="translate(190)"/><use xlink:href="#a" transform="translate(190 39)"/><use xlink:href="#a" transform="translate(305 39)"/><path d="M42.5 87v15m339-15v15m.165-7.5H42.2M34 5.5H19m15 73H19m7.5.195V5.2" fill="none" stroke="#000"/><path d="M19.688 38.969q0 .586-.215 1.133-.215.546-.508.937-.293.371-.8.8-.49.411-.88.665-.37.234-.976.605-.586.372-.86.567-.058.039-.449.312-.39.254-.488.332-.098.059-.43.313-.332.234-.469.351l-.37.372q-.255.234-.391.41-.137.175-.293.43-.157.234-.274.488h6.602q.468 0 .781.351.332.352.332.86 0 .507-.332.859-.313.352-.781.352h-7.969q-.469 0-.8-.333-.313-.332-.313-.82 0-.879.254-1.68.253-.82.644-1.406.39-.586.977-1.172.605-.586 1.113-.957.527-.39 1.21-.82.02-.02.665-.41.645-.39.937-.586.313-.215.801-.586.508-.371.742-.684.235-.312.235-.566 0-.879-.723-1.367-.703-.508-1.758-.508-.84 0-1.68.43t-1.308 1.132q-.43.665-.996.665-.508 0-.82-.372-.293-.39-.293-.84 0-1.367 1.758-2.402 1.757-1.035 3.34-1.035 2.128 0 3.456 1.211 1.328 1.211 1.328 2.969zM209.472 111.246q3.34-.781 4.629-3.379-1.055.703-2.246.703-2.227 0-3.672-1.367-1.426-1.387-1.426-3.418t1.465-3.398q1.465-1.367 3.71-1.367 2.266 0 3.712 1.543 1.464 1.523 1.464 3.574 0 2.207-.566 3.886-.547 1.68-1.562 2.754-1.016 1.055-2.207 1.7-1.172.625-2.696.996-.098.02-.293.02-.547 0-.898-.333-.332-.332-.332-.8 0-.391.254-.704.254-.312.664-.41zm2.46-9.805q-1.308 0-2.128.625-.801.625-.801 1.72 0 1.23.84 1.796.84.566 1.972.566 1.153 0 1.993-.703.84-.703.84-1.66 0-1.055-.82-1.7-.821-.644-1.895-.644z"/></svg>