<svg width="445" height="127" xmlns:xlink="http://www.w3.org/1999/xlink" xmlns="http://www.w3.org/2000/svg"><g id="a" transform="translate(39)" stroke-linecap="round" stroke-linejoin="round"><circle cx="22.5" cy="22.5" r="17.5" fill="#7f2881"/><circle cx="22.5" cy="22.5" r="14" fill="none" stroke="#982f92" stroke-width="4"/><circle cx="18" cy="18" r="3" fill="#fffffd"/><circle cx="27" cy="18" r="3" fill="#fffffd"/><circle cx="18" cy="27" r="3" fill="#fffffd"/><circle cx="27" cy="27" r="3" fill="#fffffd"/></g><use xlink:href="#a" transform="translate(0 39)"/><use xlink:href="#a" transform="translate(199)"/><use xlink:href="#a" transform="translate(199 39)"/><use xlink:href="#a" transform="translate(40)"/><use xlink:href="#a" transform="translate(40 39)"/><use xlink:href="#a" transform="translate(241)"/><use xlink:href="#a" transform="translate(241 39)"/><use xlink:href="#a" transform="translate(81)"/><use xlink:href="#a" transform="translate(81 39)"/><use xlink:href="#a" transform="translate(282)"/><use xlink:href="#a" transform="translate(282 39)"/><use xlink:href="#a" transform="translate(121)"/><use xlink:href="#a" transform="translate(121 39)"/><use xlink:href="#a" transform="translate(322)"/><use xlink:href="#a" transform="translate(322 39)"/><use xlink:href="#a" transform="translate(160)"/><use xlink:href="#a" transform="translate(160 39)"/><use xlink:href="#a" transform="translate(361)"/><use xlink:href="#a" transform="translate(361 39)"/><path d="M44.5 87v15m395-15v15m.165-7.5H44.2M36 5.5H21m15 73H21m7.5.137V5.2" fill="none" stroke="#000"/><path d="M19.688 38.94q0 .586-.215 1.133t-.508.937q-.293.371-.8.8-.49.411-.88.665-.37.234-.976.605-.586.372-.86.567-.058.039-.449.312-.39.254-.488.332-.098.059-.43.313-.332.234-.469.351l-.37.372q-.255.234-.391.41-.137.175-.293.43-.157.234-.274.488h6.602q.468 0 .781.351.332.352.332.86 0 .507-.332.859-.313.352-.781.352h-7.969q-.469 0-.8-.332-.313-.333-.313-.82 0-.88.254-1.68.253-.82.644-1.407.39-.586.977-1.172.605-.586 1.113-.957.527-.39 1.21-.82.02-.02.665-.41.645-.39.937-.586.313-.215.801-.586.508-.371.742-.684.235-.312.235-.566 0-.879-.723-1.367-.703-.508-1.758-.508-.84 0-1.68.43t-1.308 1.133q-.43.664-.996.664-.508 0-.82-.372-.293-.39-.293-.84 0-1.367 1.758-2.402 1.757-1.035 3.34-1.035 2.128 0 3.456 1.211 1.328 1.211 1.328 2.969zM233.222 107.219q-.293.195-.567.195-.488 0-.82-.332-.312-.332-.312-.8 0-.645.507-.977 1.524-1.035 3.34-2.09.352-.176.703-.176.547 0 .899.332.37.332.37.82v10.664h1.485q.469 0 .781.352.332.352.332.86 0 .507-.332.859-.312.351-.78.351h-5.645q-.47 0-.801-.351-.313-.352-.313-.86 0-.507.313-.859.332-.352.8-.352h1.563v-8.554q-1.308.781-1.523.918zm11.386-3.555q1.075-.664 2.48-.664 1.407 0 2.462.664 1.074.645 1.66 1.738.586 1.075.86 2.305.273 1.211.273 2.54 0 1.327-.274 2.558-.273 1.21-.859 2.304-.586 1.075-1.66 1.739-1.055.644-2.461.644t-2.48-.644q-1.055-.664-1.641-1.739-.586-1.093-.86-2.304-.273-1.23-.273-2.559 0-1.328.273-2.539.274-1.23.86-2.305.586-1.093 1.64-1.738zm3.926 2.227q-.605-.47-1.445-.47-.84 0-1.465.47-.605.449-.937 1.21-.313.743-.47 1.544-.136.78-.136 1.601 0 .82.137 1.621.156.781.469 1.543.332.742.937 1.211.625.45 1.465.45.84 0 1.445-.45.625-.469.938-1.21.332-.763.468-1.544.157-.8.157-1.62 0-.821-.157-1.602-.136-.801-.468-1.543-.313-.762-.938-1.211z"/></svg>