<svg width="277" height="136" xmlns="http://www.w3.org/2000/svg"><path d="M131.837 50.239q-.468.312-.906.312-.781 0-1.312-.53-.5-.532-.5-1.282 0-1.031.812-1.563 2.438-1.656 5.344-3.343.562-.282 1.125-.282.875 0 1.437.532.594.53.594 1.312v17.063h2.375q.75 0 1.25.562.531.563.531 1.375 0 .813-.53 1.375-.5.563-1.25.563h-9.032q-.75 0-1.281-.563-.5-.562-.5-1.375 0-.812.5-1.375.531-.562 1.281-.562h2.5V48.77q-2.094 1.25-2.438 1.469zm16.875-4.938q2.125-1.78 5.313-1.78 3.187 0 5.312 1.78 2.125 1.782 2.125 4.844 0 2.781-1.843 4.625 2.562 2.031 2.562 5.063 0 3.093-2.469 4.937-2.468 1.844-5.687 1.844-3.219 0-5.688-1.844-2.468-1.844-2.468-4.937 0-3.032 2.562-5.063-1.812-1.812-1.812-4.625 0-3.062 2.093-4.844zm8.032 2.875q-1-.78-2.719-.78-1.719 0-2.719.78-1 .75-1 2 0 1.313 1.031 2.032 1.032.718 2.688.718 1.656 0 2.687-.718 1.063-.72 1.063-2.032 0-1.25-1.031-2zm.312 9.47q-1.531-.75-3.031-.75-1.5 0-3.031.75-1.532.75-1.532 2.155 0 1.438 1.47 2.188 1.5.75 3.093.75 1.594 0 3.062-.75 1.5-.75 1.5-2.188 0-1.406-1.53-2.156zm31.469-5.813q.812 0 1.375.562.562.563.562 1.375 0 .813-.562 1.375-.563.563-1.375.563h-13.188q-.812 0-1.375-.563-.562-.562-.562-1.375 0-.812.562-1.375.563-.562 1.375-.562zm0 6.593q.812 0 1.375.563.562.562.562 1.375 0 .812-.562 1.375-.563.562-1.375.562h-13.188q-.812 0-1.375-.562-.562-.563-.562-1.375 0-.813.562-1.375.563-.563 1.375-.563zm18.094-10.437q-.407.156-1.282.844-.843.656-1.375.656-.75 0-1.28-.531-.532-.563-.532-1.407 0-1.218 1.281-2.187 1.281-.969 2.875-1.406 1.594-.47 2.938-.47 3.968 0 6.093 1.532 2.125 1.5 2.125 4.969 0 2.844-2.187 4.656 1.219.906 1.969 2.344.75 1.406.75 3.062 0 3.344-2.407 4.97-2.375 1.593-6.343 1.593-1.438 0-3.125-.5-1.657-.5-3.063-1.625-1.375-1.125-1.375-2.594 0-.844.531-1.375.532-.562 1.282-.562.843 0 1.531.906.687.875 1.125 1.125 1.375.75 3.094.75 5.156 0 5.156-2.75 0-1.906-1.594-2.594-1.562-.687-5.5-.687-.812 0-1.406-.532-.563-.562-.563-1.375 0-.812.563-1.375.562-.593 1.406-.593 1.813 0 3.375-.157 3.094-.343 3.094-2.656 0-.906-.438-1.469-.406-.593-1.187-.812-.75-.25-1.344-.313-.594-.062-1.437-.062-.938 0-2.75.625zm25 1.375q.75 0 1.312.562l4.594 4.532 4.594-4.532q.562-.562 1.312-.562.813 0 1.344.562.562.563.562 1.344 0 .781-.562 1.344l-4.531 4.562 4.531 4.563q.562.562.562 1.344 0 .78-.562 1.343-.531.563-1.344.563-.75 0-1.312-.563l-4.594-4.53-4.594 4.53q-.562.563-1.312.563-.813 0-1.375-.563-.532-.562-.532-1.343 0-.782.563-1.344l4.531-4.563-4.531-4.562q-.563-.563-.563-1.344 0-.781.532-1.344.562-.562 1.375-.562zm37.531-2.313q-5.344 1.25-7.406 5.407 1.687-1.125 3.593-1.125 3.563 0 5.844 2.218 2.313 2.188 2.313 5.438 0 3.25-2.344 5.437-2.344 2.188-5.938 2.188-3.625 0-5.968-2.438-2.313-2.468-2.313-5.75 0-3.53.875-6.218.906-2.688 2.531-4.375 1.625-1.72 3.5-2.72 1.907-1.03 4.344-1.624.156-.031.469-.031.875 0 1.406.53.563.532.563 1.282 0 .625-.407 1.125-.406.5-1.062.656zm-3.938 15.688q2.094 0 3.375-1 1.313-1 1.313-2.75 0-1.969-1.344-2.875-1.344-.906-3.156-.906-1.844 0-3.188 1.125-1.343 1.125-1.343 2.656 0 1.687 1.312 2.719 1.313 1.03 3.031 1.03zM35.52 13.246q-.469.312-.907.312-.78 0-1.312-.531-.5-.531-.5-1.281 0-1.032.812-1.563 2.438-1.656 5.344-3.344.563-.28 1.125-.28.875 0 1.438.53.593.532.593 1.313v17.062h2.375q.75 0 1.25.563.532.562.532 1.375 0 .812-.532 1.375-.5.562-1.25.562h-9.03q-.75 0-1.282-.562-.5-.563-.5-1.375 0-.813.5-1.375.531-.563 1.281-.563h2.5V11.777q-2.094 1.25-2.437 1.469zm16.875-4.938q2.125-1.781 5.312-1.781 3.188 0 5.313 1.781 2.125 1.781 2.125 4.844 0 2.781-1.844 4.625 2.562 2.031 2.562 5.062 0 3.094-2.468 4.938-2.469 1.844-5.688 1.844t-5.687-1.844q-2.469-1.844-2.469-4.938 0-3.03 2.562-5.062-1.812-1.813-1.812-4.625 0-3.063 2.094-4.844zm8.031 2.875q-1-.781-2.719-.781-1.719 0-2.719.781-1 .75-1 2 0 1.313 1.032 2.031 1.031.72 2.687.72t2.688-.72q1.062-.718 1.062-2.03 0-1.25-1.031-2zm.312 9.469q-1.53-.75-3.03-.75-1.5 0-3.032.75-1.531.75-1.531 2.156 0 1.438 1.468 2.188 1.5.75 3.094.75 1.594 0 3.063-.75 1.5-.75 1.5-2.188 0-1.406-1.532-2.156zM6.938 107.624q-.407.157-1.282.844-.843.656-1.375.656-.75 0-1.281-.53-.531-.563-.531-1.407 0-1.219 1.281-2.188 1.281-.968 2.875-1.406 1.594-.469 2.938-.469 3.968 0 6.093 1.532 2.125 1.5 2.125 4.968 0 2.844-2.187 4.657 1.219.906 1.969 2.343.75 1.407.75 3.063 0 3.344-2.407 4.969-2.375 1.593-6.344 1.593-1.437 0-3.124-.5-1.657-.5-3.063-1.625Q2 123 2 121.531q0-.844.531-1.375.531-.563 1.281-.563.844 0 1.532.906.687.875 1.125 1.125 1.375.75 3.093.75 5.157 0 5.157-2.75 0-1.906-1.594-2.593-1.563-.688-5.5-.688-.813 0-1.406-.531-.563-.563-.563-1.375 0-.813.563-1.375.562-.594 1.406-.594 1.813 0 3.375-.156 3.094-.344 3.094-2.656 0-.907-.438-1.47-.406-.593-1.187-.812-.75-.25-1.344-.312-.594-.063-1.438-.063-.937 0-2.75.625zM45.215 109q.75 0 1.313.562l4.593 4.531 4.594-4.531q.563-.563 1.313-.563.812 0 1.343.563.563.562.563 1.344 0 .78-.563 1.343l-4.531 4.563 4.531 4.562q.563.563.563 1.344 0 .781-.563 1.344-.531.562-1.343.562-.75 0-1.313-.562l-4.594-4.531-4.593 4.53q-.563.563-1.313.563-.813 0-1.375-.562-.531-.563-.531-1.344 0-.781.562-1.344l4.532-4.562-4.532-4.563q-.562-.562-.562-1.343 0-.782.531-1.344.563-.563 1.375-.563zm50.809-2.313q-5.344 1.25-7.406 5.406 1.687-1.125 3.593-1.125 3.563 0 5.844 2.219 2.313 2.187 2.313 5.437 0 3.25-2.344 5.438-2.344 2.187-5.938 2.187-3.625 0-5.968-2.437-2.313-2.469-2.313-5.75 0-3.531.875-6.219.906-2.687 2.531-4.375 1.625-1.719 3.5-2.719 1.907-1.03 4.344-1.625.156-.03.469-.03.875 0 1.406.53.563.532.563 1.282 0 .625-.407 1.125-.406.5-1.062.656zm-3.938 15.687q2.094 0 3.375-1 1.313-1 1.313-2.75 0-1.968-1.344-2.875-1.344-.906-3.156-.906-1.844 0-3.188 1.125-1.343 1.125-1.343 2.656 0 1.688 1.312 2.72 1.313 1.03 3.031 1.03z"/><path d="M9.473 93.12l40.82-53.576 40.82 53.577" fill="none" stroke="#d21e26" stroke-width="3" stroke-linecap="round"/></svg>