<svg width="277" height="136" xmlns="http://www.w3.org/2000/svg"><path d="M131.619 47.989q-.407.156-1.282.844-.843.656-1.375.656-.75 0-1.28-.531-.532-.563-.532-1.407 0-1.218 1.281-2.187 1.281-.969 2.875-1.406 1.594-.47 2.938-.47 3.968 0 6.093 1.532 2.125 1.5 2.125 4.969 0 2.844-2.187 4.656 1.219.906 1.969 2.344.75 1.406.75 3.062 0 3.344-2.407 4.97-2.375 1.593-6.343 1.593-1.438 0-3.125-.5-1.657-.5-3.063-1.625-1.375-1.125-1.375-2.594 0-.844.531-1.375.532-.562 1.282-.562.843 0 1.531.906.687.875 1.125 1.125 1.375.75 3.094.75 5.156 0 5.156-2.75 0-1.906-1.594-2.594-1.562-.687-5.5-.687-.812 0-1.406-.532-.563-.562-.563-1.375 0-.812.563-1.375.562-.593 1.406-.593 1.813 0 3.375-.157 3.094-.343 3.094-2.656 0-.906-.438-1.469-.406-.593-1.187-.812-.75-.25-1.344-.313-.594-.062-1.437-.062-.938 0-2.75.625zm30.062 2.125q0 .937-.344 1.812-.343.875-.812 1.5-.469.594-1.281 1.282-.782.656-1.407 1.062-.593.375-1.562.969-.938.594-1.375.906-.094.063-.719.5-.625.406-.781.531-.156.094-.688.5-.53.375-.75.563l-.593.594q-.407.375-.625.656-.219.281-.469.687-.25.375-.438.782H160.4q.75 0 1.25.562.531.563.531 1.375 0 .813-.531 1.375-.5.563-1.25.563h-12.75q-.75 0-1.281-.532-.5-.53-.5-1.312 0-1.406.406-2.688.406-1.312 1.031-2.25.625-.937 1.563-1.875.968-.937 1.781-1.53.844-.626 1.937-1.313.032-.032 1.063-.657t1.5-.937q.5-.344 1.281-.938.813-.593 1.188-1.093t.375-.907q0-1.406-1.157-2.187-1.125-.813-2.812-.813-1.344 0-2.688.688-1.343.687-2.093 1.812-.688 1.063-1.594 1.063-.813 0-1.313-.594-.468-.625-.468-1.344 0-2.187 2.812-3.843 2.813-1.657 5.344-1.657 3.406 0 5.531 1.938 2.125 1.937 2.125 4.75zm26.844 1.719q.812 0 1.375.562.562.563.562 1.375 0 .813-.562 1.375-.563.563-1.375.563h-13.188q-.812 0-1.375-.563-.562-.562-.562-1.375 0-.812.562-1.375.563-.562 1.375-.562zm0 6.593q.812 0 1.375.563.562.562.562 1.375 0 .812-.562 1.375-.563.562-1.375.562h-13.188q-.812 0-1.375-.562-.562-.563-.562-1.375 0-.813.562-1.375.563-.563 1.375-.563zm23.312 6.344v-4.28h-9.125q-.78 0-1.312-.531-.5-.532-.5-1.344 0-.719.375-1.188l11-13.187q.531-.688 1.531-.688.813 0 1.375.563.563.531.563 1.312v11.188h1.218q.782 0 1.282.562.531.563.531 1.375 0 .813-.531 1.375-.5.563-1.282.563h-1.218v4.281q0 .75-.563 1.281-.562.5-1.375.5-.812 0-1.406-.5-.563-.53-.563-1.28zm-5.125-8.156h5.125v-6.156zm24.907-7.25q.75 0 1.312.562l4.594 4.532 4.594-4.532q.562-.562 1.312-.562.813 0 1.344.562.562.563.562 1.344 0 .781-.562 1.344l-4.531 4.562 4.531 4.563q.562.562.562 1.344 0 .78-.562 1.343-.531.563-1.344.563-.75 0-1.312-.563l-4.594-4.53-4.594 4.53q-.562.563-1.312.563-.813 0-1.375-.563-.532-.562-.532-1.343 0-.782.563-1.344l4.531-4.563-4.531-4.562q-.563-.563-.563-1.344 0-.781.532-1.344.562-.562 1.375-.562zm28.281-4.063q2.125-1.78 5.312-1.78 3.188 0 5.313 1.78 2.125 1.782 2.125 4.844 0 2.781-1.844 4.625 2.563 2.031 2.563 5.063 0 3.093-2.469 4.937-2.469 1.844-5.688 1.844-3.218 0-5.687-1.844-2.469-1.844-2.469-4.937 0-3.032 2.563-5.063-1.813-1.812-1.813-4.625 0-3.062 2.094-4.844zm8.031 2.875q-1-.78-2.719-.78-1.718 0-2.718.78-1 .75-1 2 0 1.313 1.031 2.032 1.031.718 2.687.718 1.657 0 2.688-.718 1.062-.72 1.062-2.032 0-1.25-1.03-2zm.313 9.47q-1.532-.75-3.032-.75t-3.03.75q-1.532.75-1.532 2.155 0 1.438 1.469 2.188 1.5.75 3.093.75 1.594 0 3.063-.75 1.5-.75 1.5-2.188 0-1.406-1.531-2.156zM35.301 10.996q-.406.156-1.281.843-.844.657-1.375.657-.75 0-1.282-.532-.53-.562-.53-1.406 0-1.219 1.28-2.187 1.282-.97 2.875-1.407 1.594-.468 2.938-.468 3.969 0 6.094 1.53 2.125 1.5 2.125 4.97 0 2.843-2.188 4.656 1.219.906 1.969 2.344.75 1.406.75 3.062 0 3.344-2.406 4.969-2.375 1.594-6.344 1.594-1.438 0-3.125-.5-1.656-.5-3.063-1.625-1.375-1.125-1.375-2.594 0-.844.532-1.375.531-.563 1.281-.563.844 0 1.531.907.688.875 1.125 1.125 1.375.75 3.094.75 5.156 0 5.156-2.75 0-1.907-1.594-2.594-1.562-.688-5.5-.688-.812 0-1.406-.53-.562-.563-.562-1.376 0-.812.562-1.375.563-.594 1.406-.594 1.813 0 3.375-.156 3.094-.344 3.094-2.656 0-.906-.437-1.469-.407-.594-1.188-.812-.75-.25-1.344-.313-.593-.062-1.437-.062-.938 0-2.75.625zm30.062 2.124q0 .938-.343 1.813-.344.875-.813 1.5-.469.594-1.281 1.281-.781.657-1.406 1.063-.594.375-1.563.969-.937.593-1.375.906-.094.062-.719.5-.625.406-.78.531-.157.094-.688.5-.532.375-.75.563l-.594.593q-.406.375-.625.657-.219.28-.469.687-.25.375-.437.781h10.562q.75 0 1.25.563.531.562.531 1.375 0 .812-.53 1.375-.5.562-1.25.562h-12.75q-.75 0-1.282-.53-.5-.532-.5-1.313 0-1.407.406-2.688.406-1.312 1.031-2.25.625-.937 1.563-1.875.969-.937 1.781-1.531.844-.625 1.938-1.313.031-.03 1.062-.656 1.031-.625 1.5-.937.5-.344 1.281-.938.813-.594 1.188-1.094.375-.5.375-.906 0-1.406-1.156-2.187-1.125-.813-2.813-.813-1.344 0-2.687.688-1.344.687-2.094 1.812-.688 1.063-1.594 1.063-.812 0-1.312-.594-.469-.625-.469-1.344 0-2.187 2.812-3.844 2.813-1.656 5.344-1.656 3.406 0 5.531 1.938 2.125 1.937 2.125 4.75zM12.156 124.406v-4.282H3.031q-.781 0-1.312-.53-.5-.532-.5-1.345 0-.718.375-1.187l11-13.188q.531-.687 1.531-.687.813 0 1.375.562.563.532.563 1.313v11.187h1.218q.782 0 1.282.563.53.562.53 1.375 0 .812-.53 1.375-.5.562-1.282.562h-1.218v4.282q0 .75-.563 1.28-.563.5-1.375.5-.813 0-1.406-.5-.563-.53-.563-1.28zm-5.125-8.157h5.125v-6.156zM45.215 109q.75 0 1.313.562l4.593 4.531 4.594-4.531q.563-.563 1.313-.563.812 0 1.343.563.563.562.563 1.344 0 .78-.563 1.343l-4.531 4.563 4.531 4.562q.563.563.563 1.344 0 .781-.563 1.344-.531.562-1.343.562-.75 0-1.313-.562l-4.594-4.531-4.593 4.53q-.563.563-1.313.563-.813 0-1.375-.562-.531-.563-.531-1.344 0-.781.562-1.344l4.532-4.562-4.532-4.563q-.562-.562-.562-1.343 0-.782.531-1.344.563-.563 1.375-.563zm41.559-4.063q2.125-1.781 5.312-1.781 3.188 0 5.313 1.78 2.125 1.782 2.125 4.845 0 2.78-1.844 4.625 2.563 2.03 2.563 5.062 0 3.094-2.47 4.938-2.468 1.843-5.687 1.843-3.218 0-5.687-1.843-2.469-1.844-2.469-4.938 0-3.031 2.563-5.062-1.813-1.813-1.813-4.625 0-3.063 2.094-4.844zm8.031 2.875q-1-.781-2.719-.781-1.718 0-2.718.78-1 .75-1 2 0 1.313 1.03 2.032 1.032.719 2.688.719 1.657 0 2.688-.719 1.062-.719 1.062-2.031 0-1.25-1.031-2zm.313 9.469q-1.532-.75-3.032-.75t-3.031.75q-1.531.75-1.531 2.156 0 1.437 1.469 2.187 1.5.75 3.093.75 1.594 0 3.063-.75 1.5-.75 1.5-2.187 0-1.406-1.531-2.156z"/><path d="M9.473 93.12l40.82-53.576 40.82 53.577" fill="none" stroke="#d21e26" stroke-width="3" stroke-linecap="round"/></svg>