<svg width="496.61" height="228.32" xmlns="http://www.w3.org/2000/svg"><path d="M436.723 122.097q5.343-1.25 7.406-5.406-1.688 1.125-3.594 1.125-3.562 0-5.875-2.187-2.281-2.219-2.281-5.469 0-3.25 2.344-5.438 2.343-2.187 5.937-2.187 3.625 0 5.938 2.469 2.343 2.437 2.343 5.718 0 3.532-.906 6.22-.875 2.687-2.5 4.405-1.625 1.688-3.531 2.72-1.875 1-4.313 1.593-.156.031-.468.031-.875 0-1.438-.531-.531-.531-.531-1.281 0-.625.406-1.125t1.063-.657zm3.937-15.687q-2.094 0-3.406 1-1.281 1-1.281 2.75 0 1.969 1.343 2.875 1.344.906 3.157.906 1.843 0 3.187-1.125 1.344-1.125 1.344-2.656 0-1.688-1.313-2.719-1.312-1.031-3.03-1.031zM39.52 12.719q-.469.312-.907.312-.78 0-1.312-.531-.5-.531-.5-1.281 0-1.031.812-1.563Q40.051 8 42.957 6.312q.563-.28 1.125-.28.875 0 1.438.53.593.532.593 1.313v17.063h2.375q.75 0 1.25.562.532.563.532 1.375 0 .813-.532 1.375-.5.563-1.25.563h-9.03q-.75 0-1.282-.563-.5-.563-.5-1.375 0-.813.5-1.375.531-.563 1.281-.563h2.5V11.25q-2.094 1.25-2.437 1.469zm16.875-4.938Q58.52 6 61.707 6q3.188 0 5.313 1.781 2.125 1.782 2.125 4.844 0 2.781-1.844 4.625 2.562 2.031 2.562 5.063 0 3.093-2.468 4.937-2.469 1.844-5.688 1.844T56.02 27.25q-2.469-1.844-2.469-4.938 0-3.03 2.562-5.062-1.812-1.813-1.812-4.625 0-3.063 2.094-4.844zm8.031 2.875q-1-.781-2.719-.781-1.719 0-2.719.781-1 .75-1 2 0 1.313 1.032 2.031 1.031.72 2.687.72t2.688-.72q1.062-.718 1.062-2.03 0-1.25-1.031-2zm.312 9.469q-1.53-.75-3.03-.75-1.5 0-3.032.75-1.531.75-1.531 2.156 0 1.438 1.468 2.188 1.5.75 3.094.75 1.594 0 3.063-.75 1.5-.75 1.5-2.188 0-1.406-1.532-2.156zM21.813 109.222q0 .938-.344 1.813t-.813 1.5q-.468.594-1.281 1.281-.781.656-1.406 1.063-.594.375-1.563.968-.937.594-1.375.907-.094.062-.719.5-.624.406-.78.531-.157.094-.688.5-.531.375-.75.562l-.594.594q-.406.375-.625.656-.219.282-.469.688-.25.375-.437.781H20.53q.75 0 1.25.563.532.562.532 1.375 0 .812-.532 1.375-.5.562-1.25.562H7.781q-.75 0-1.281-.531-.5-.531-.5-1.313 0-1.406.406-2.687.407-1.313 1.032-2.25.625-.938 1.562-1.875.969-.938 1.781-1.531.844-.625 1.938-1.313.031-.031 1.062-.656 1.031-.625 1.5-.938.5-.343 1.281-.937.813-.594 1.188-1.094.375-.5.375-.906 0-1.406-1.156-2.188-1.125-.812-2.813-.812-1.344 0-2.687.687-1.344.688-2.094 1.813-.688 1.062-1.594 1.062-.812 0-1.312-.593Q6 108.754 6 108.035q0-2.188 2.813-3.844 2.812-1.656 5.343-1.656 3.406 0 5.531 1.937 2.125 1.938 2.125 4.75zm27.402-.75q.75 0 1.313.563l4.593 4.531 4.594-4.531q.563-.563 1.313-.563.812 0 1.343.563.563.562.563 1.344 0 .781-.563 1.343l-4.531 4.563 4.531 4.562q.563.563.563 1.344 0 .781-.563 1.344-.531.562-1.343.562-.75 0-1.313-.562l-4.594-4.531-4.593 4.531q-.563.562-1.313.562-.813 0-1.375-.562-.531-.563-.531-1.344 0-.781.562-1.344l4.532-4.562-4.532-4.563q-.562-.562-.562-1.343 0-.782.531-1.344.563-.563 1.375-.563zm42.934 13.657q5.344-1.25 7.406-5.407-1.688 1.125-3.594 1.125-3.562 0-5.875-2.187-2.281-2.219-2.281-5.469 0-3.25 2.344-5.437 2.344-2.188 5.937-2.188 3.625 0 5.938 2.469 2.344 2.437 2.344 5.719 0 3.531-.907 6.218-.875 2.688-2.5 4.407-1.625 1.687-3.531 2.718-1.875 1-4.313 1.594-.156.031-.468.031-.875 0-1.438-.53-.531-.532-.531-1.282 0-.625.406-1.125.407-.5 1.063-.656zm3.937-15.688q-2.093 0-3.406 1-1.281 1-1.281 2.75 0 1.969 1.344 2.875 1.343.906 3.156.906 1.844 0 3.187-1.125 1.344-1.125 1.344-2.656 0-1.687-1.313-2.719-1.312-1.03-3.03-1.03z"/><path d="M13.473 92.594l40.82-53.576 40.82 53.576" fill="none" stroke="#d21e26" stroke-width="3" stroke-linecap="round"/><path d="M211.52 12.719q-.469.312-.907.312-.78 0-1.312-.531-.5-.531-.5-1.281 0-1.031.812-1.563 2.438-1.656 5.344-3.344.563-.28 1.125-.28.875 0 1.438.53.593.532.593 1.313v17.063h2.375q.75 0 1.25.562.532.563.532 1.375 0 .813-.532 1.375-.5.563-1.25.563h-9.03q-.75 0-1.282-.563-.5-.563-.5-1.375 0-.813.5-1.375.531-.563 1.281-.563h2.5V11.25q-2.094 1.25-2.437 1.469zm16.875-4.938Q230.52 6 233.707 6q3.188 0 5.313 1.781 2.125 1.782 2.125 4.844 0 2.781-1.844 4.625 2.562 2.031 2.562 5.063 0 3.093-2.468 4.937-2.469 1.844-5.688 1.844t-5.687-1.844q-2.469-1.844-2.469-4.938 0-3.03 2.562-5.062-1.812-1.813-1.812-4.625 0-3.063 2.094-4.844zm8.031 2.875q-1-.781-2.719-.781-1.719 0-2.719.781-1 .75-1 2 0 1.313 1.032 2.031 1.031.72 2.687.72t2.688-.72q1.062-.718 1.062-2.03 0-1.25-1.031-2zm.312 9.469q-1.53-.75-3.03-.75-1.5 0-3.032.75-1.531.75-1.531 2.156 0 1.438 1.468 2.188 1.5.75 3.094.75 1.594 0 3.063-.75 1.5-.75 1.5-2.188 0-1.406-1.532-2.156zM182.937 107.097q-.406.157-1.28.844-.845.656-1.376.656-.75 0-1.281-.53-.531-.563-.531-1.407 0-1.219 1.281-2.188 1.281-.968 2.875-1.406 1.594-.469 2.937-.469 3.97 0 6.094 1.532 2.125 1.5 2.125 4.968 0 2.844-2.187 4.657 1.218.906 1.968 2.343.75 1.407.75 3.063 0 3.344-2.406 4.969-2.375 1.593-6.344 1.593-1.437 0-3.125-.5-1.656-.5-3.062-1.625-1.375-1.125-1.375-2.593 0-.844.531-1.375.531-.563 1.281-.563.844 0 1.532.906.687.875 1.125 1.125 1.375.75 3.093.75 5.157 0 5.157-2.75 0-1.906-1.594-2.593-1.563-.688-5.5-.688-.813 0-1.406-.531-.563-.563-.563-1.375 0-.813.563-1.375.562-.594 1.406-.594 1.812 0 3.375-.156 3.094-.344 3.094-2.656 0-.907-.438-1.469-.406-.594-1.187-.813-.75-.25-1.344-.312-.594-.063-1.438-.063-.937 0-2.75.625zm38.278 1.375q.75 0 1.312.563l4.594 4.531 4.594-4.531q.562-.563 1.312-.563.813 0 1.344.563.563.562.563 1.344 0 .781-.563 1.343l-4.531 4.563 4.531 4.562q.563.563.563 1.344 0 .781-.563 1.344-.531.562-1.344.562-.75 0-1.312-.562l-4.594-4.531-4.594 4.531q-.562.562-1.312.562-.813 0-1.375-.562-.531-.563-.531-1.344 0-.781.562-1.344l4.531-4.562-4.53-4.563q-.563-.562-.563-1.343 0-.782.531-1.344.562-.563 1.375-.563zm50.809-2.312q-5.344 1.25-7.407 5.406 1.688-1.125 3.594-1.125 3.563 0 5.844 2.219 2.312 2.187 2.312 5.437 0 3.25-2.343 5.438-2.344 2.187-5.938 2.187-3.625 0-5.969-2.437-2.312-2.469-2.312-5.75 0-3.531.875-6.219.906-2.687 2.531-4.375 1.625-1.719 3.5-2.719 1.906-1.03 4.344-1.625.156-.03.469-.03.875 0 1.406.53.562.532.562 1.282 0 .625-.406 1.125t-1.062.656zm-3.938 15.687q2.094 0 3.375-1 1.313-1 1.313-2.75 0-1.968-1.344-2.875-1.344-.906-3.156-.906-1.844 0-3.188 1.125t-1.344 2.656q0 1.688 1.313 2.72 1.312 1.03 3.031 1.03z"/><path d="M185.473 92.594l40.82-53.576 40.82 53.576" fill="none" stroke="#d21e26" stroke-width="3" stroke-linecap="round"/><path d="M383.52 12.719q-.469.312-.907.312-.78 0-1.312-.531-.5-.531-.5-1.281 0-1.031.812-1.563 2.438-1.656 5.344-3.344.563-.28 1.125-.28.875 0 1.438.53.593.532.593 1.313v17.063h2.375q.75 0 1.25.562.532.563.532 1.375 0 .813-.532 1.375-.5.563-1.25.563h-9.03q-.75 0-1.282-.563-.5-.563-.5-1.375 0-.813.5-1.375.531-.563 1.281-.563h2.5V11.25q-2.094 1.25-2.437 1.469zm16.875-4.938Q402.52 6 405.707 6q3.188 0 5.313 1.781 2.125 1.782 2.125 4.844 0 2.781-1.844 4.625 2.562 2.031 2.562 5.063 0 3.093-2.468 4.937-2.469 1.844-5.688 1.844t-5.687-1.844q-2.469-1.844-2.469-4.938 0-3.03 2.562-5.062-1.812-1.813-1.812-4.625 0-3.063 2.094-4.844zm8.031 2.875q-1-.781-2.719-.781-1.719 0-2.719.781-1 .75-1 2 0 1.313 1.032 2.031 1.031.72 2.687.72t2.688-.72q1.062-.718 1.062-2.03 0-1.25-1.031-2zm.312 9.469q-1.53-.75-3.03-.75-1.5 0-3.032.75-1.531.75-1.531 2.156 0 1.438 1.468 2.188 1.5.75 3.094.75 1.594 0 3.063-.75 1.5-.75 1.5-2.188 0-1.406-1.532-2.156zM365.813 109.222q0 .938-.344 1.813t-.813 1.5q-.469.594-1.281 1.281-.781.656-1.406 1.063-.594.375-1.563.968-.937.594-1.375.907-.093.062-.719.5-.625.406-.78.531-.157.094-.688.5-.531.375-.75.562l-.594.594q-.406.375-.625.656-.219.282-.469.688-.25.375-.437.781h10.562q.75 0 1.25.563.531.562.531 1.375 0 .812-.53 1.375-.5.562-1.25.562h-12.75q-.75 0-1.282-.531-.5-.531-.5-1.313 0-1.406.406-2.687.406-1.313 1.031-2.25.625-.938 1.563-1.875.969-.938 1.781-1.531.844-.625 1.938-1.313.031-.031 1.062-.656 1.031-.625 1.5-.938.5-.343 1.281-.937.813-.594 1.188-1.094.375-.5.375-.906 0-1.406-1.156-2.188-1.125-.812-2.813-.812-1.344 0-2.687.687-1.344.688-2.094 1.813-.688 1.062-1.594 1.062-.812 0-1.312-.593-.469-.625-.469-1.344 0-2.188 2.813-3.844 2.812-1.656 5.343-1.656 3.406 0 5.531 1.937 2.125 1.938 2.125 4.75zm27.402-.75q.75 0 1.313.563l4.593 4.531 4.594-4.531q.563-.563 1.313-.563.812 0 1.343.563.563.562.563 1.344 0 .781-.563 1.343l-4.531 4.563 4.531 4.562q.563.563.563 1.344 0 .781-.563 1.344-.531.562-1.344.562-.75 0-1.312-.562l-4.594-4.531-4.594 4.531q-.562.562-1.312.562-.813 0-1.375-.562-.531-.563-.531-1.344 0-.781.562-1.344l4.531-4.562-4.53-4.563q-.563-.562-.563-1.343 0-.782.531-1.344.563-.563 1.375-.563z"/><path d="M357.473 92.594l40.82-53.576 40.82 53.576" fill="none" stroke="#d21e26" stroke-width="3" stroke-linecap="round"/><path d="M397.305 203.695q-.406.156-1.281.844-.844.656-1.375.656-.75 0-1.282-.531-.53-.563-.53-1.407 0-1.218 1.28-2.187 1.282-.969 2.875-1.406 1.594-.469 2.938-.469 3.969 0 6.094 1.531 2.125 1.5 2.125 4.969 0 2.844-2.188 4.656 1.219.906 1.969 2.344.75 1.406.75 3.062 0 3.344-2.406 4.97-2.375 1.593-6.344 1.593-1.438 0-3.125-.5-1.656-.5-3.063-1.625-1.375-1.125-1.375-2.594 0-.844.532-1.375.531-.562 1.281-.562.844 0 1.531.906.688.875 1.125 1.125 1.375.75 3.094.75 5.156 0 5.156-2.75 0-1.906-1.594-2.594-1.562-.687-5.5-.687-.812 0-1.406-.532-.562-.562-.562-1.375 0-.812.562-1.375.563-.593 1.406-.593 1.813 0 3.375-.157 3.094-.343 3.094-2.656 0-.906-.437-1.469-.407-.593-1.188-.812-.75-.25-1.344-.313-.593-.062-1.437-.062-.938 0-2.75.625zm38.277 1.375q.75 0 1.313.562l4.594 4.532 4.593-4.532q.563-.562 1.313-.562.812 0 1.344.562.562.563.562 1.344 0 .781-.562 1.344l-4.532 4.562 4.532 4.563q.562.562.562 1.344 0 .781-.562 1.343-.532.563-1.344.563-.75 0-1.313-.563l-4.593-4.53-4.594 4.53q-.563.563-1.313.563-.812 0-1.375-.563-.53-.562-.53-1.343 0-.782.562-1.344l4.531-4.563-4.531-4.562q-.563-.563-.563-1.344 0-.781.531-1.344.563-.562 1.375-.562zm43.653-1.375q-.406.156-1.281.844-.844.656-1.375.656-.75 0-1.282-.531-.53-.563-.53-1.407 0-1.218 1.28-2.187 1.282-.969 2.875-1.406 1.594-.469 2.938-.469 3.969 0 6.094 1.531 2.125 1.5 2.125 4.969 0 2.844-2.188 4.656 1.219.906 1.969 2.344.75 1.406.75 3.062 0 3.344-2.406 4.97-2.375 1.593-6.344 1.593-1.438 0-3.125-.5-1.656-.5-3.063-1.625-1.375-1.125-1.375-2.594 0-.844.532-1.375.531-.562 1.281-.562.844 0 1.531.906.688.875 1.125 1.125 1.375.75 3.094.75 5.156 0 5.156-2.75 0-1.906-1.594-2.594-1.562-.687-5.5-.687-.812 0-1.406-.532-.562-.562-.562-1.375 0-.812.562-1.375.563-.593 1.406-.593 1.813 0 3.375-.157 3.094-.343 3.094-2.656 0-.906-.437-1.469-.407-.593-1.188-.812-.75-.25-1.344-.313-.593-.062-1.437-.062-.938 0-2.75.625z"/><path d="M399.84 189.191l40.82-53.576 40.82 53.576" fill="none" stroke="#d21e26" stroke-width="3" stroke-linecap="round"/></svg>