<svg width="266.554" height="194.463" xmlns="http://www.w3.org/2000/svg"><path d="M127.37 76.763q.75 0 1.313.562l4.594 4.532 4.594-4.532q.562-.562 1.312-.562.813 0 1.344.562.562.563.562 1.344 0 .781-.562 1.344l-4.531 4.562 4.53 4.563q.563.562.563 1.344 0 .78-.562 1.343-.531.563-1.344.563-.75 0-1.312-.563l-4.594-4.531-4.594 4.531q-.562.563-1.312.563-.813 0-1.375-.563-.532-.562-.532-1.343 0-.782.563-1.344l4.531-4.563-4.531-4.562q-.563-.563-.563-1.344 0-.781.532-1.344.562-.562 1.375-.562z"/><path d="M72.457 65.575L133.277 12l60.82 53.576M11.5 157.65l60.82-53.576m61.093 53.576l60.82-53.576 60.82 53.577" fill="none" stroke="#d21e26" stroke-width="3" stroke-linecap="round"/><path d="M66.414 168.838q.75 0 1.312.563l4.594 4.53 4.594-4.53q.562-.563 1.312-.563.813 0 1.344.563.563.562.563 1.343 0 .782-.563 1.344l-4.531 4.563 4.531 4.562q.563.563.563 1.344 0 .781-.563 1.344-.531.562-1.344.562-.75 0-1.312-.562l-4.594-4.532-4.594 4.532q-.562.562-1.312.562-.813 0-1.375-.562-.531-.563-.531-1.344 0-.781.562-1.344l4.531-4.562-4.53-4.563q-.563-.562-.563-1.344 0-.78.53-1.343.563-.563 1.376-.563zm121.913 0q.75 0 1.313.563l4.594 4.53 4.593-4.53q.563-.563 1.313-.563.812 0 1.344.563.562.562.562 1.343 0 .782-.562 1.344l-4.532 4.563 4.532 4.562q.562.563.562 1.344 0 .781-.562 1.344-.532.562-1.344.562-.75 0-1.313-.562l-4.593-4.532-4.594 4.532q-.563.562-1.313.562-.812 0-1.375-.562-.531-.563-.531-1.344 0-.781.563-1.344l4.53-4.562-4.53-4.563q-.563-.562-.563-1.344 0-.78.531-1.343.563-.563 1.375-.563z"/></svg>