<svg xmlns="http://www.w3.org/2000/svg" xmlns:xlink="http://www.w3.org/1999/xlink" width="138" height="30"><defs><linearGradient id="a"><stop offset="0" stop-color="#8df7eb"/><stop offset="1" stop-color="#e6f8fe"/></linearGradient><linearGradient xlink:href="#a" id="b" x1="-9.707" y1="-41.885" x2="-9.707" y2="-12.885" gradientUnits="userSpaceOnUse" gradientTransform="translate(10.207 42.385)"/></defs><path fill="url(#b)" stroke="#3df8e3" stroke-linejoin="round" d="M.5.5h137v29H.5z"/><path d="M28.424 10.654q.254-.254.625-.254.37 0 .625.254.254.254.254.625v8.575q0 2.011-.82 3.125-.801 1.132-2.93 1.132-.371 0-.625-.254-.254-.253-.254-.625 0-.37.254-.625.254-.253.625-.253 1.21 0 1.601-.508.39-.489.39-1.992v-8.575q0-.37.255-.625zm1.387-4.336q.37.371.37.899 0 .527-.37.898-.352.371-.88.371-.527 0-.917-.37-.371-.372-.371-.9 0-.527.37-.898.391-.37.919-.37.527 0 .879.37zm7.168 4.043q1.738 0 3.046 1.153v-.078q0-.372.235-.625.254-.254.625-.254.37 0 .625.254.273.253.273.625v7.968q0 .371-.273.625-.254.254-.625.254t-.625-.254q-.235-.254-.235-.625v-.078q-1.308 1.153-3.046 1.153-2.012 0-3.438-1.485-1.406-1.504-1.406-3.574t1.406-3.555q1.426-1.504 3.438-1.504zm2.148 2.715q-.898-.957-2.148-.957t-2.168.957q-.918.957-.918 2.344t.918 2.344q.918.957 2.168.957t2.148-.957q.898-.957.898-2.344t-.898-2.344zM51.47 6.318q.255-.254.626-.254.37 0 .625.254.254.254.254.625V19.6q0 .37-.254.625-.254.254-.625.254t-.625-.254q-.254-.254-.254-.625v-.254q-1.328 1.133-3.008 1.133-1.973 0-3.379-1.485-1.387-1.504-1.387-3.574t1.387-3.555q1.406-1.504 3.379-1.504 1.68 0 3.008 1.133v-4.55q0-.372.254-.626zm-1.132 6.758q-.879-.957-2.129-.957t-2.129.957q-.879.957-.879 2.344t.88 2.344q.878.957 2.128.957t2.129-.957q.879-.957.879-2.344t-.88-2.344zm14.004 2.051q0 .371-.254.625t-.625.254h-6.426q.195 1.172 1.035 1.953.84.762 1.953.762 1.114 0 1.602-.176t.977-.625q.253-.215.566-.215.39 0 .625.254.254.254.254.625 0 .41-.293.664-1.426 1.23-3.73 1.23-1.993 0-3.399-1.484-1.406-1.504-1.406-3.574t1.406-3.555q1.406-1.504 3.398-1.504 2.032 0 3.164 1.426 1.153 1.426 1.153 3.34zm-7.168-.879h5.312q-.215-.937-.898-1.523-.664-.606-1.563-.606-.957 0-1.738.586t-1.113 1.543zm13.633-3.887q1.738 0 3.047 1.153v-.078q0-.372.234-.625.254-.254.625-.254t.625.254q.273.253.273.625v7.968q0 .371-.273.625-.254.254-.625.254t-.625-.254q-.234-.254-.234-.625v-.078q-1.31 1.153-3.047 1.153-2.012 0-3.438-1.485-1.406-1.504-1.406-3.574t1.406-3.555q1.426-1.504 3.438-1.504zm2.148 2.715q-.898-.957-2.148-.957t-2.168.957q-.918.957-.918 2.344t.918 2.344q.918.957 2.168.957t2.148-.957q.899-.957.899-2.344t-.899-2.344zm11.836 2.207q0-.449-.02-.722 0-.293-.058-.704-.04-.43-.156-.703-.118-.273-.293-.547-.176-.273-.489-.39-.293-.137-.703-.137-1.426 0-2.46.996-1.036.996-1.036 2.305v4.18q0 .37-.254.625-.254.253-.625.253-.37 0-.625-.253-.254-.254-.254-.625v-8.32q0-.372.254-.626t.625-.254q.371 0 .625.254t.254.625v.39q1.485-1.308 3.496-1.308 1.817 0 2.637 1.29.84 1.269.84 3.769v4.18q0 .37-.254.625-.254.253-.625.253t-.625-.253q-.254-.254-.254-.625zm12.012-8.965q.254-.254.625-.254.37 0 .625.254.254.254.254.625V19.6q0 .37-.254.625-.254.254-.625.254t-.625-.254q-.254-.254-.254-.625v-.254q-1.328 1.133-3.008 1.133-1.973 0-3.379-1.485-1.387-1.504-1.387-3.574t1.387-3.555q1.406-1.504 3.379-1.504 1.68 0 3.008 1.133v-4.55q0-.372.254-.626zm-1.133 6.758q-.879-.957-2.129-.957t-2.129.957q-.879.957-.879 2.344t.88 2.344q.878.957 2.128.957t2.129-.957q.879-.957.879-2.344t-.88-2.344zm7.578 0q-.918.957-.918 2.344t.918 2.344q.918.957 2.168.957t2.148-.957q.899-.957.899-2.344t-.899-2.344q-.898-.957-2.148-.957t-2.168.957zm-1.27 5.918q-1.406-1.504-1.406-3.574t1.407-3.555q1.425-1.504 3.437-1.504 2.012 0 3.398 1.504 1.407 1.485 1.407 3.555 0 2.07-1.407 3.574-1.386 1.485-3.398 1.485-2.012 0-3.437-1.485z"/></svg>