<svg xmlns="http://www.w3.org/2000/svg" xmlns:xlink="http://www.w3.org/1999/xlink" width="138" height="30"><defs><linearGradient id="a"><stop offset="0" stop-color="#8df7eb"/><stop offset="1" stop-color="#e6f8fe"/></linearGradient><linearGradient xlink:href="#a" id="b" x1="-9.707" y1="-41.885" x2="-9.707" y2="-12.885" gradientUnits="userSpaceOnUse" gradientTransform="translate(10.207 42.385)"/></defs><path fill="url(#b)" stroke="#3df8e3" stroke-linejoin="round" d="M.5.5h137v29H.5z"/><path d="M37.594 23.78q-.254.253-.625.253t-.625-.254q-.254-.254-.254-.625V11.24q0-.37.254-.625.254-.254.625-.254.37 0 .625.254.254.254.254.625v.254q1.328-1.133 3.007-1.133 1.973 0 3.36 1.504 1.406 1.485 1.406 3.555 0 2.07-1.406 3.574-1.387 1.485-3.36 1.485-1.68 0-3.007-1.133v3.808q0 .371-.254.625zm1.133-6.016q.878.957 2.128.957t2.13-.957q.878-.957.878-2.344t-.879-2.344q-.879-.957-2.129-.957t-2.128.957q-.88.957-.88 2.344t.88 2.344zm17.675-2.637q0 .371-.254.625-.253.254-.625.254h-6.425q.195 1.172 1.035 1.953.84.762 1.953.762t1.602-.176q.488-.176.976-.625.254-.215.566-.215.391 0 .625.254.254.254.254.625 0 .41-.293.664-1.425 1.23-3.73 1.23-1.992 0-3.398-1.484-1.407-1.504-1.407-3.574t1.407-3.555q1.406-1.504 3.398-1.504 2.031 0 3.164 1.426 1.152 1.426 1.152 3.34zm-7.168-.879h5.313q-.215-.937-.899-1.523-.664-.606-1.562-.606-.957 0-1.738.586-.782.586-1.114 1.543zm14.473-3.926q.371 0 .625.254t.254.625q0 .371-.254.625t-.625.254q-1.465 0-2.402 1.074-.918 1.055-.918 2.598v3.809q0 .37-.254.625-.254.253-.625.253t-.625-.253q-.254-.254-.254-.625v-8.32q0-.372.254-.626t.625-.254q.37 0 .625.254.254.254.254.625v.352q1.386-1.27 3.32-1.27zm9.551 8.555q0 .488-.39.742-1.25.86-2.794.86-2.07 0-3.535-1.485-1.445-1.484-1.445-3.574t1.445-3.574q1.465-1.485 3.535-1.485 1.543 0 2.793.86.39.254.39.742 0 .371-.253.625-.254.254-.625.254-.274 0-.488-.156-.82-.567-1.817-.567-1.328 0-2.285.977-.937.957-.937 2.324t.937 2.344q.957.957 2.285.957.996 0 1.817-.567.214-.156.488-.156.371 0 .625.254t.254.625zm3.906-12.539q.371.371.371.898 0 .528-.37.899-.353.37-.88.37t-.918-.37q-.37-.371-.37-.899 0-.527.37-.898.39-.371.918-.371t.88.37zm.04 4.98v8.223q0 .371-.274.625-.254.254-.625.254t-.625-.254q-.235-.254-.235-.625v-8.223q0-.37.235-.625.254-.254.625-.254.37 0 .625.254.273.254.273.625zm3.163-5q.254-.254.625-.254t.625.254q.254.254.254.625v4.551q1.328-1.133 3.008-1.133 1.973 0 3.36 1.504 1.406 1.485 1.406 3.555 0 2.07-1.407 3.574-1.386 1.485-3.36 1.485-1.679 0-3.007-1.133v.254q0 .37-.254.625-.254.254-.625.254-.37 0-.625-.254-.254-.254-.254-.625V6.943q0-.37.254-.625zm6.64 6.758q-.878-.957-2.128-.957t-2.129.957q-.879.957-.879 2.344t.879 2.344q.879.957 2.129.957t2.129-.957q.879-.957.879-2.344t-.88-2.344zm6.817-6.738q.371.371.371.898 0 .528-.37.899-.352.37-.88.37-.527 0-.918-.37-.37-.371-.37-.899 0-.527.37-.898.391-.371.918-.371.528 0 .88.37zm.04 4.98v8.223q0 .371-.274.625-.254.254-.625.254t-.625-.254q-.235-.254-.235-.625v-8.223q0-.37.235-.625.254-.254.625-.254.37 0 .625.254.273.254.273.625zm7.988-.996q.37 0 .625.254.253.254.253.625t-.253.625q-.254.254-.625.254-1.465 0-2.403 1.074-.918 1.055-.918 2.598v3.809q0 .37-.254.625-.254.253-.625.253-.37 0-.625-.253-.254-.254-.254-.625v-8.32q0-.372.254-.626t.625-.254q.371 0 .625.254t.254.625v.352q1.387-1.27 3.32-1.27z"/></svg>