<svg xmlns="http://www.w3.org/2000/svg" xmlns:xlink="http://www.w3.org/1999/xlink" width="138" height="30"><defs><linearGradient id="a"><stop offset="0" stop-color="#8df7eb"/><stop offset="1" stop-color="#e6f8fe"/></linearGradient><linearGradient xlink:href="#a" id="b" x1="-9.707" y1="-41.885" x2="-9.707" y2="-12.885" gradientUnits="userSpaceOnUse" gradientTransform="translate(10.207 42.385)"/></defs><path fill="url(#b)" stroke="#3df8e3" stroke-linejoin="round" d="M.5.5h137v29H.5z"/><path d="M40.943 6.436l5.313 7.48 5.351-7.48q.274-.372.704-.372.37 0 .625.254.273.254.273.625v12.618q0 .37-.273.625-.254.253-.625.253-.372 0-.625-.253-.235-.254-.235-.625V9.678l-4.453 6.25q-.273.37-.742.37-.43 0-.703-.37L41.1 9.678v9.883q0 .37-.274.625-.254.253-.625.253-.37 0-.625-.253-.234-.254-.234-.625V6.943q0-.37.234-.625.254-.254.625-.254.469 0 .742.372zm17.247-.098q.37.371.37.898 0 .528-.37.899-.352.37-.88.37-.527 0-.917-.37-.372-.371-.372-.899 0-.527.372-.898.39-.371.918-.371.527 0 .878.37zm.039 4.98v8.223q0 .371-.274.625-.254.254-.625.254t-.625-.254q-.234-.254-.234-.625v-8.223q0-.37.234-.625.254-.254.625-.254t.625.254q.274.254.274.625zm11.953 7.071q0 .996-.078 1.738-.079.723-.352 1.523-.273.801-.742 1.29-.469.507-1.309.82-.84.332-1.992.332-1.426 0-2.383-.215-.937-.195-1.797-.879-.332-.273-.332-.684 0-.37.254-.625.254-.253.625-.253.293 0 .547.195.586.45 1.191.566.625.137 1.973.137 1.426 0 1.934-.625.527-.605.683-2.344-1.328 1.133-3.027 1.133-2.012 0-3.418-1.484-1.406-1.504-1.406-3.575 0-2.07 1.406-3.574t3.418-1.504q1.719 0 3.047 1.133 0-.371.254-.625.254-.273.625-.273.37 0 .625.254.254.254.254.625zm-6.973-.606q.918.957 2.168.957t2.148-.957q.899-.957.899-2.344 0-1.386-.899-2.343-.898-.977-2.148-.977t-2.168.977q-.898.957-.898 2.343 0 1.387.898 2.344zm13.223.937q3.398 0 3.398-3.3v-4.18q0-.37.234-.625.254-.254.625-.254.372 0 .625.254.274.254.274.625v8.32q0 .372-.274.626-.253.253-.625.253-.37 0-.625-.253-.234-.254-.234-.625v-.391q-1.484 1.309-3.398 1.309-1.817 0-2.657-1.27-.82-1.29-.82-3.79V11.24q0-.37.254-.625.273-.254.645-.254.37 0 .605.254.254.254.254.625v4.278q0 1.62.351 2.421.352.782 1.368.782zm16.445-3.593q0 .371-.254.625t-.625.254h-6.426q.196 1.172 1.035 1.953.84.762 1.954.762 1.113 0 1.601-.176t.977-.625q.254-.215.566-.215.39 0 .625.254.254.254.254.625 0 .41-.293.664-1.426 1.23-3.73 1.23-1.993 0-3.399-1.484-1.406-1.504-1.406-3.574t1.406-3.555q1.406-1.504 3.399-1.504 2.03 0 3.164 1.426 1.152 1.426 1.152 3.34zm-7.168-.879h5.312q-.214-.937-.898-1.523-.664-.606-1.562-.606-.957 0-1.739.586-.781.586-1.113 1.543zm13.164 4.472q.371 0 .625.255.254.254.254.625 0 .37-.254.625-.254.254-.625.254-.86 0-1.484-.157-.606-.136-1.035-.488-.41-.371-.665-.8-.253-.45-.39-1.192-.117-.762-.156-1.504-.04-.742-.04-1.895v-7.5q0-.37.254-.625.254-.254.625-.254.372 0 .625.254.254.254.254.625v9.258q.02.488.078 1.094.079.586.176.781.098.176.352.39.254.196.566.235.313.02.84.02z"/></svg>