<svg width="138" height="30" xmlns:xlink="http://www.w3.org/1999/xlink" xmlns="http://www.w3.org/2000/svg"><defs><linearGradient id="a"><stop offset="0" stop-color="#8df7eb"/><stop offset="1" stop-color="#e6f8fe"/></linearGradient><linearGradient xlink:href="#a" id="b" x1="-9.707" y1="-41.885" x2="-9.707" y2="-12.885" gradientUnits="userSpaceOnUse" gradientTransform="translate(10.207 42.385)"/></defs><path fill="url(#b)" stroke="#3df8e3" stroke-linejoin="round" d="M.5.5h137v29H.5z"/><path d="M47.164 15.283c0-.3-.007-.54-.02-.722 0-.195-.02-.43-.058-.704a2.388 2.388 0 00-.156-.703 3.74 3.74 0 00-.293-.547.97.97 0 00-.489-.39 1.649 1.649 0 00-.703-.137c-.95 0-1.77.332-2.46.996-.69.664-1.036 1.432-1.036 2.305v4.18a.852.852 0 01-.254.625.851.851 0 01-.625.253.853.853 0 01-.625-.253.85.85 0 01-.254-.625v-8.32a.85.85 0 01.254-.626.85.85 0 01.625-.254.85.85 0 01.625.254.85.85 0 01.254.625v.39c.99-.872 2.155-1.308 3.496-1.308 1.211 0 2.09.43 2.637 1.29.56.846.84 2.102.84 3.769v4.18a.852.852 0 01-.254.625.851.851 0 01-.625.253.851.851 0 01-.625-.253.85.85 0 01-.254-.625zm8.809-4.922c1.159 0 2.174.384 3.047 1.153v-.078c0-.248.078-.456.234-.625a.85.85 0 01.625-.254.85.85 0 01.625.254.818.818 0 01.273.625v7.968a.82.82 0 01-.273.625.85.85 0 01-.625.254.85.85 0 01-.625-.254.888.888 0 01-.234-.625v-.078a4.47 4.47 0 01-3.047 1.153c-1.341 0-2.487-.495-3.438-1.485-.937-1.003-1.406-2.194-1.406-3.574s.469-2.565 1.406-3.555c.95-1.003 2.097-1.504 3.438-1.504zm2.148 2.715c-.599-.638-1.315-.957-2.148-.957-.833 0-1.556.319-2.168.957-.612.638-.918 1.42-.918 2.344 0 .925.306 1.706.918 2.344.612.638 1.335.957 2.168.957.833 0 1.55-.319 2.148-.957.6-.638.899-1.42.899-2.344 0-.925-.3-1.706-.899-2.344zm7.168-5.84c0 .352-.127.649-.371.899-.238.244-.528.37-.879.37s-.66-.12-.918-.37a1.206 1.206 0 01-.371-.899c0-.351.12-.654.371-.898a1.27 1.27 0 01.918-.371c.351 0 .641.126.879.37.244.251.371.548.371.899zm-.332 4.082v8.223a.82.82 0 01-.273.625.85.85 0 01-.625.254.847.847 0 01-.625-.254.886.886 0 01-.235-.625v-8.223c0-.247.078-.455.235-.625a.847.847 0 01.625-.254c.247 0 .455.085.625.254a.82.82 0 01.273.625zm4.414 12.462a.851.851 0 01-.625.253.85.85 0 01-.625-.254.85.85 0 01-.254-.625V11.24c0-.247.085-.455.254-.625a.85.85 0 01.625-.254.85.85 0 01.625.254.85.85 0 01.254.625v.254c.885-.755 1.888-1.133 3.008-1.133 1.315 0 2.435.501 3.36 1.504.937.99 1.405 2.175 1.405 3.555 0 1.38-.469 2.571-1.406 3.574-.925.99-2.045 1.485-3.36 1.485-1.12 0-2.122-.378-3.007-1.133v3.808a.85.85 0 01-.254.625zm1.133-6.016c.586.638 1.296.957 2.129.957s1.543-.319 2.129-.957c.586-.638.879-1.42.879-2.344 0-.925-.293-1.706-.88-2.344-.585-.638-1.295-.957-2.128-.957-.833 0-1.543.319-2.13.957-.585.638-.878 1.42-.878 2.344 0 .925.293 1.706.879 2.344zm17.676-2.637a.85.85 0 01-.254.625.85.85 0 01-.625.254h-6.426c.13.781.475 1.432 1.035 1.953.56.508 1.211.762 1.953.762.743 0 1.277-.059 1.602-.176.325-.117.65-.326.976-.625a.856.856 0 01.567-.215c.26 0 .468.085.625.254a.85.85 0 01.254.625.837.837 0 01-.293.664c-.95.82-2.194 1.23-3.73 1.23-1.329 0-2.462-.495-3.4-1.484-.937-1.003-1.405-2.194-1.405-3.574s.469-2.565 1.406-3.555c.937-1.003 2.07-1.504 3.398-1.504 1.355 0 2.41.475 3.164 1.426.769.95 1.153 2.064 1.153 3.34zm-7.168-.879h5.312c-.143-.625-.443-1.132-.898-1.523a2.243 2.243 0 00-1.563-.606c-.638 0-1.217.195-1.738.586-.52.39-.892.905-1.113 1.543zm12.812 6.231c-.403 0-.911-.091-1.523-.274a6.463 6.463 0 01-1.719-.8c-.52-.352-.781-.723-.781-1.114 0-.26.085-.468.254-.625a.914.914 0 01.644-.254c.209 0 .404.078.586.234.404.365.788.638 1.153.82.377.17.84.255 1.386.255 1.485 0 2.227-.397 2.227-1.192a.727.727 0 00-.235-.527 1.66 1.66 0 00-.644-.41 6.542 6.542 0 00-.762-.254 6.15 6.15 0 00-.742-.195 1.203 1.203 0 01-.195-.04c-.977-.234-1.765-.579-2.364-1.035-.586-.469-.879-1.139-.879-2.011 0-.899.371-1.57 1.114-2.012.742-.456 1.595-.684 2.558-.684.69 0 1.471.182 2.344.547.885.365 1.328.807 1.328 1.328a.85.85 0 01-.254.625.826.826 0 01-.605.254c-.287 0-1.038-.484-1.543-.761-.392-.215-.85-.2-1.269-.235-.43 0-.86.078-1.29.235-.417.156-.625.39-.625.703 0 .195.026.364.078.507.065.13.183.241.352.332.17.091.3.157.39.196.091.039.287.097.587.176l.625.156c1.367.403 2.337.827 2.91 1.27.586.43.879 1.048.879 1.855 0 .547-.124 1.022-.371 1.426-.248.403-.58.71-.997.918-.403.208-.82.358-1.25.449a6.56 6.56 0 01-1.367.137z"/></svg>