<svg xmlns="http://www.w3.org/2000/svg" xmlns:xlink="http://www.w3.org/1999/xlink" width="138" height="30"><defs><linearGradient id="a"><stop offset="0" stop-color="#8df7eb"/><stop offset="1" stop-color="#e6f8fe"/></linearGradient><linearGradient xlink:href="#a" id="b" x1="-9.707" y1="-41.885" x2="-9.707" y2="-12.885" gradientUnits="userSpaceOnUse" gradientTransform="translate(10.207 42.385)"/></defs><path fill="url(#b)" stroke="#3df8e3" stroke-linejoin="round" d="M.5.5h137v29H.5z"/><path d="M25.602 18.877q0 .488-.391.742-1.25.86-2.793.86-2.07 0-3.535-1.485-1.445-1.484-1.445-3.574t1.445-3.574q1.465-1.485 3.535-1.485 1.543 0 2.793.86.39.254.39.742 0 .371-.253.625-.254.254-.625.254-.274 0-.489-.156-.82-.567-1.816-.567-1.328 0-2.285.977-.938.957-.938 2.324t.938 2.344q.957.957 2.285.957.996 0 1.816-.567.215-.156.489-.156.37 0 .625.254.254.254.254.625zm6.171-8.516q1.739 0 3.047 1.153v-.078q0-.372.235-.625.254-.254.625-.254.37 0 .625.254.273.253.273.625v7.968q0 .371-.273.625-.254.254-.625.254t-.625-.254q-.235-.254-.235-.625v-.078q-1.308 1.153-3.047 1.153-2.011 0-3.437-1.485-1.406-1.504-1.406-3.574t1.406-3.555q1.426-1.504 3.437-1.504zm2.149 2.715q-.899-.957-2.149-.957t-2.168.957q-.918.957-.918 2.344t.918 2.344q.918.957 2.168.957t2.149-.957q.898-.957.898-2.344t-.898-2.344zm9.805-.956q-1.407 0-2.286.956-.859.938-.859 2.344v4.18q0 .37-.254.625-.254.254-.625.254t-.625-.254q-.254-.254-.254-.625v-8.32q0-.372.254-.626t.625-.254q.371 0 .625.254t.254.625v.918q.469-.781 1.328-1.308.86-.528 1.817-.528 2.148 0 2.89 1.543 1.348-1.543 3.457-1.543.977 0 1.64.391.665.371.977 1.113.332.723.45 1.563.136.84.136 1.992v4.18q0 .37-.254.625-.253.254-.625.254-.37 0-.625-.254-.253-.254-.253-.625v-4.434q0-.781-.04-1.23-.039-.45-.175-.918-.117-.47-.43-.684-.312-.215-.8-.215-1.427 0-2.286.879-.86.879-.86 2.383V19.6q0 .351-.253.625-.254.254-.625.254t-.625-.254q-.254-.254-.254-.625v-4.63q0-.644-.059-1.074-.039-.449-.175-.878-.137-.45-.45-.664-.293-.235-.761-.235zm14.296-5.782q.372.371.372.898 0 .528-.372.899-.351.37-.878.37-.528 0-.918-.37-.372-.371-.372-.899 0-.527.372-.898.39-.371.918-.371.527 0 .878.37zm.04 4.98v8.223q0 .371-.274.625-.254.254-.625.254t-.625-.254q-.234-.254-.234-.625v-8.223q0-.37.234-.625.254-.254.625-.254t.625.254q.273.254.273.625zm9.843 3.965q0-.449-.02-.722 0-.293-.058-.704-.039-.43-.156-.703-.117-.273-.293-.547-.176-.273-.488-.39-.293-.137-.703-.137-1.426 0-2.461.996-1.036.996-1.036 2.305v4.18q0 .37-.253.625-.254.253-.625.253-.372 0-.625-.253-.254-.254-.254-.625v-8.32q0-.372.254-.626.253-.254.625-.254.37 0 .625.254.253.254.253.625v.39q1.485-1.308 3.497-1.308 1.816 0 2.636 1.29.84 1.269.84 3.769v4.18q0 .37-.254.625-.254.253-.625.253-.37 0-.625-.253-.254-.254-.254-.625zm8.809-4.922q1.738 0 3.047 1.153v-.078q0-.372.234-.625.254-.254.625-.254t.625.254q.274.253.274.625v7.968q0 .371-.274.625-.254.254-.625.254t-.625-.254q-.234-.254-.234-.625v-.078q-1.309 1.153-3.047 1.153-2.012 0-3.438-1.485-1.406-1.504-1.406-3.574t1.406-3.555q1.426-1.504 3.438-1.504zm2.148 2.715q-.898-.957-2.148-.957t-2.168.957q-.918.957-.918 2.344t.918 2.344q.918.957 2.168.957t2.148-.957q.899-.957.899-2.344t-.899-2.344zm9.805-.956q-1.406 0-2.285.956-.86.938-.86 2.344v4.18q0 .37-.253.625-.254.254-.625.254-.372 0-.625-.254-.254-.254-.254-.625v-8.32q0-.372.254-.626.253-.254.625-.254.37 0 .625.254.253.254.253.625v.918q.47-.781 1.329-1.308.859-.528 1.816-.528 2.148 0 2.89 1.543 1.348-1.543 3.458-1.543.976 0 1.64.391.664.371.977 1.113.332.723.449 1.563.137.84.137 1.992v4.18q0 .37-.254.625-.254.254-.625.254t-.625-.254q-.254-.254-.254-.625v-4.434q0-.781-.04-1.23-.038-.45-.175-.918-.117-.47-.43-.684-.312-.215-.8-.215-1.426 0-2.286.879-.859.879-.859 2.383V19.6q0 .351-.254.625-.254.254-.625.254-.37 0-.625-.254-.254-.254-.254-.625v-4.63q0-.644-.058-1.074-.04-.449-.176-.878-.137-.45-.45-.664-.292-.235-.761-.235zm14.472.956q-.917.957-.917 2.344t.918 2.344q.918.957 2.168.957t2.148-.957q.898-.957.898-2.344t-.898-2.344q-.898-.957-2.148-.957t-2.168.957zm-1.269 5.918q-1.406-1.504-1.406-3.574t1.406-3.555q1.426-1.504 3.438-1.504 2.011 0 3.398 1.504 1.406 1.485 1.406 3.555 0 2.07-1.406 3.574-1.387 1.485-3.398 1.485-2.012 0-3.438-1.485zm13.906 1.485q-.605 0-1.523-.274-.918-.273-1.719-.8-.781-.528-.781-1.114 0-.39.254-.625.273-.254.644-.254.313 0 .586.234.606.547 1.153.82.566.255 1.386.255 2.227 0 2.227-1.192 0-.293-.234-.527-.235-.254-.645-.41-.39-.156-.762-.254-.351-.117-.742-.195-.137-.02-.195-.04-1.465-.351-2.364-1.035-.878-.703-.878-2.011 0-1.348 1.113-2.012 1.113-.684 2.558-.684 1.036 0 2.344.547 1.328.547 1.328 1.328 0 .371-.254.625-.253.254-.605.254-.313 0-.508-.136-.078-.06-.273-.176-.196-.137-.274-.176-.058-.059-.234-.156-.156-.098-.254-.117-.078-.04-.254-.098-.156-.059-.293-.078-.137-.02-.332-.04-.176-.019-.39-.019-.645 0-1.29.235-.625.234-.625.703 0 .293.079.507.097.196.351.332.254.137.39.196.137.058.587.176l.625.156q2.05.605 2.91 1.27.879.644.879 1.855 0 .82-.371 1.426-.371.605-.996.918-.606.312-1.25.449-.645.137-1.368.137z"/></svg>