<svg xmlns="http://www.w3.org/2000/svg" xmlns:xlink="http://www.w3.org/1999/xlink" width="138" height="30"><defs><linearGradient id="a"><stop offset="0" stop-color="#8df7eb"/><stop offset="1" stop-color="#e6f8fe"/></linearGradient><linearGradient xlink:href="#a" id="b" x1="-9.707" y1="-41.885" x2="-9.707" y2="-12.885" gradientUnits="userSpaceOnUse" gradientTransform="translate(10.207 42.385)"/></defs><path fill="url(#b)" stroke="#3df8e3" stroke-linejoin="round" d="M.5.5h137v29H.5z"/><path d="M32.027 23.78q-.254.253-.625.253-.37 0-.625-.254-.254-.254-.254-.625V11.24q0-.37.254-.625.254-.254.625-.254t.625.254q.254.254.254.625v.254q1.328-1.133 3.008-1.133 1.973 0 3.36 1.504 1.406 1.485 1.406 3.555 0 2.07-1.407 3.574-1.386 1.485-3.359 1.485-1.68 0-3.008-1.133v3.808q0 .371-.254.625zm1.133-6.016q.88.957 2.13.957t2.128-.957q.879-.957.879-2.344t-.879-2.344q-.879-.957-2.129-.957t-2.129.957q-.879.957-.879 2.344t.88 2.344zM44.234 6.338q.371.371.371.898 0 .528-.37.899-.352.37-.88.37-.527 0-.917-.37-.372-.371-.372-.899 0-.527.371-.898.391-.371.918-.371.528 0 .88.37zm.04 4.98v8.223q0 .371-.274.625-.254.254-.625.254t-.625-.254q-.234-.254-.234-.625v-8.223q0-.37.234-.625.254-.254.625-.254t.625.254q.273.254.273.625zm3.417-.781h5.996q.372 0 .626.254.253.254.253.625 0 .293-.175.527l-5.078 6.602h4.53q.372 0 .626.254t.254.625q0 .37-.254.625-.254.254-.625.254h-6.309q-.37 0-.625-.254-.254-.254-.254-.625 0-.293.176-.528l5.078-6.601h-4.219q-.37 0-.625-.254-.254-.254-.254-.625t.254-.625q.254-.254.625-.254zM58.043 23.78q-.254.253-.625.253t-.625-.254q-.254-.254-.254-.625V11.24q0-.37.254-.625.254-.254.625-.254t.625.254q.254.254.254.625v.254q1.328-1.133 3.008-1.133 1.972 0 3.36 1.504 1.405 1.485 1.405 3.555 0 2.07-1.406 3.574-1.387 1.485-3.36 1.485-1.679 0-3.007-1.133v3.808q0 .371-.254.625zm1.133-6.016q.879.957 2.129.957t2.129-.957q.879-.957.879-2.344t-.88-2.344q-.878-.957-2.128-.957t-2.13.957q-.878.957-.878 2.344t.879 2.344zM70.25 6.338q.371.371.371.898 0 .528-.371.899-.352.37-.879.37t-.918-.37q-.371-.371-.371-.899 0-.527.371-.898.39-.371.918-.371.527 0 .879.37zm.04 4.98v8.223q0 .371-.274.625-.254.254-.625.254t-.625-.254q-.235-.254-.235-.625v-8.223q0-.37.235-.625.254-.254.625-.254.37 0 .625.254.273.254.273.625zm7.987-.996q.371 0 .625.254t.254.625q0 .371-.254.625t-.625.254q-1.465 0-2.402 1.074-.918 1.055-.918 2.598v3.809q0 .37-.254.625-.254.253-.625.253t-.625-.253q-.254-.254-.254-.625v-8.32q0-.372.254-.626t.625-.254q.371 0 .625.254t.254.625v.352q1.387-1.27 3.32-1.27zM89 15.127q0 .371-.254.625t-.625.254h-6.426q.196 1.172 1.035 1.953.84.762 1.954.762 1.113 0 1.601-.176t.977-.625q.254-.215.566-.215.39 0 .625.254.254.254.254.625 0 .41-.293.664-1.426 1.23-3.73 1.23-1.993 0-3.399-1.484-1.406-1.504-1.406-3.574t1.406-3.555q1.406-1.504 3.399-1.504 2.03 0 3.164 1.426Q89 13.213 89 15.127zm-7.168-.879h5.313q-.215-.937-.899-1.523-.664-.606-1.562-.606-.957 0-1.739.586-.78.586-1.113 1.543zm9.981 1.836v-3.77h-1.25q-.372 0-.626-.253-.253-.254-.253-.625 0-.372.254-.625.253-.254.624-.254h1.25V8.35q0-.371.254-.625t.625-.254q.371 0 .625.254t.254.625v2.207h2.403q.37 0 .625.254.254.253.254.625 0 .37-.254.625-.254.253-.625.253H93.57v3.77q0 1.777.45 2.207.449.43 2.343.43.371 0 .625.254t.254.625q0 .37-.254.625-.254.254-.625.254-2.715 0-3.633-.938-.918-.937-.918-3.457zm10.917-5.723q1.739 0 3.047 1.153v-.078q0-.372.235-.625.254-.254.625-.254.37 0 .625.254.273.253.273.625v7.968q0 .371-.273.625-.254.254-.625.254t-.625-.254q-.235-.254-.235-.625v-.078q-1.308 1.153-3.047 1.153-2.011 0-3.437-1.485-1.406-1.504-1.406-3.574t1.406-3.555q1.426-1.504 3.437-1.504zm2.149 2.715q-.899-.957-2.149-.957t-2.168.957q-.917.957-.917 2.344t.918 2.344q.917.957 2.167.957 1.25 0 2.149-.957.898-.957.898-2.344t-.898-2.344z"/></svg>