<svg xmlns="http://www.w3.org/2000/svg" xmlns:xlink="http://www.w3.org/1999/xlink" width="138" height="30"><defs><linearGradient id="a"><stop offset="0" stop-color="#8df7eb"/><stop offset="1" stop-color="#e6f8fe"/></linearGradient><linearGradient xlink:href="#a" id="b" x1="-9.707" y1="-41.885" x2="-9.707" y2="-12.885" gradientUnits="userSpaceOnUse" gradientTransform="translate(10.207 42.385)"/></defs><path fill="url(#b)" stroke="#3df8e3" stroke-linejoin="round" d="M.5.5h137v29H.5z"/><path d="M26.168 12.12q-1.406 0-2.285.956-.86.938-.86 2.344v4.18q0 .37-.253.625-.254.254-.625.254-.372 0-.625-.254-.254-.254-.254-.625v-8.32q0-.372.254-.626.253-.254.625-.254.37 0 .625.254.253.254.253.625v.918q.47-.781 1.329-1.308.859-.528 1.816-.528 2.148 0 2.89 1.543 1.348-1.543 3.458-1.543.976 0 1.64.391.664.371.977 1.113.332.723.449 1.563.137.84.137 1.992v4.18q0 .37-.254.625-.254.254-.625.254t-.625-.254q-.254-.254-.254-.625v-4.434q0-.781-.04-1.23-.038-.45-.175-.918-.117-.47-.43-.684-.312-.215-.8-.215-1.426 0-2.286.879-.859.879-.859 2.383V19.6q0 .351-.254.625-.254.254-.625.254-.37 0-.625-.254-.254-.254-.254-.625v-4.63q0-.644-.058-1.074-.04-.449-.176-.878-.137-.45-.45-.664-.292-.235-.761-.235zm16.641-1.759q1.738 0 3.046 1.153v-.078q0-.372.235-.625.254-.254.625-.254.37 0 .625.254.273.253.273.625v7.968q0 .371-.273.625-.254.254-.625.254t-.625-.254q-.235-.254-.235-.625v-.078q-1.308 1.153-3.046 1.153-2.012 0-3.438-1.485-1.406-1.504-1.406-3.574t1.406-3.555q1.426-1.504 3.438-1.504zm2.148 2.715q-.898-.957-2.148-.957t-2.168.957q-.918.957-.918 2.344t.918 2.344q.918.957 2.168.957t2.148-.957q.898-.957.898-2.344t-.898-2.344zm11.836 2.207q0-.449-.02-.722 0-.293-.058-.704-.04-.43-.156-.703-.118-.273-.293-.547-.176-.273-.489-.39-.293-.137-.703-.137-1.426 0-2.46.996-1.036.996-1.036 2.305v4.18q0 .37-.254.625-.254.253-.625.253-.37 0-.625-.253-.254-.254-.254-.625v-8.32q0-.372.254-.626t.625-.254q.371 0 .625.254t.254.625v.39q1.485-1.308 3.496-1.308 1.817 0 2.637 1.29.84 1.269.84 3.769v4.18q0 .37-.254.625-.254.253-.625.253t-.625-.253q-.254-.254-.254-.625zm12.012-8.965q.254-.254.625-.254.37 0 .625.254.254.254.254.625V19.6q0 .37-.254.625-.254.254-.625.254t-.625-.254q-.254-.254-.254-.625v-.254q-1.328 1.133-3.008 1.133-1.973 0-3.379-1.485-1.387-1.504-1.387-3.574t1.387-3.555q1.406-1.504 3.379-1.504 1.68 0 3.008 1.133v-4.55q0-.372.254-.626zm-1.133 6.758q-.879-.957-2.129-.957t-2.129.957q-.879.957-.879 2.344t.88 2.344q.878.957 2.128.957t2.129-.957q.879-.957.879-2.344t-.88-2.344zm9.336-7.266q0 .215-.117.43l-1.582 2.774q-.254.449-.762.449-.371 0-.625-.254t-.254-.625q0-.254.117-.45l1.582-2.773q.254-.43.762-.43.371 0 .625.255.254.253.254.625zm-1.953 5.508v8.223q0 .371-.274.625-.254.254-.625.254-.37 0-.625-.254-.234-.254-.234-.625v-8.223q0-.37.234-.625.254-.254.625-.254t.625.254q.274.254.274.625zm3.652-5q.254-.254.625-.254t.625.254q.254.254.254.625v4.551q1.328-1.133 3.008-1.133 1.972 0 3.36 1.504 1.405 1.485 1.405 3.555 0 2.07-1.406 3.574-1.387 1.485-3.36 1.485-1.679 0-3.007-1.133v.254q0 .37-.254.625-.254.254-.625.254t-.625-.254q-.254-.254-.254-.625V6.943q0-.37.254-.625zm6.64 6.758q-.878-.957-2.128-.957t-2.13.957q-.878.957-.878 2.344t.879 2.344q.879.957 2.129.957t2.129-.957q.879-.957.879-2.344t-.88-2.344zm8.341 5.644q3.398 0 3.398-3.3v-4.18q0-.37.234-.625.254-.254.625-.254t.625.254q.274.254.274.625v8.32q0 .372-.274.626-.254.253-.625.253-.37 0-.625-.253-.234-.254-.234-.625v-.391q-1.484 1.309-3.398 1.309-1.817 0-2.657-1.27-.82-1.29-.82-3.79V11.24q0-.37.254-.625.273-.254.644-.254t.606.254q.254.254.254.625v4.278q0 1.62.351 2.421.352.782 1.368.782zm11.718 0q.371 0 .625.255.254.254.254.625 0 .37-.254.625-.254.254-.625.254-.86 0-1.484-.157-.606-.136-1.035-.488-.41-.371-.664-.8-.254-.45-.391-1.192-.117-.762-.156-1.504-.04-.742-.04-1.895v-7.5q0-.37.255-.625.253-.254.625-.254.37 0 .625.254.253.254.253.625v9.258q.02.488.079 1.094.078.586.175.781.098.176.352.39.254.196.566.235.313.02.84.02zm6.582-8.359q1.739 0 3.047 1.153v-.078q0-.372.235-.625.253-.254.625-.254.37 0 .625.254.273.253.273.625v7.968q0 .371-.273.625-.254.254-.625.254-.372 0-.625-.254-.235-.254-.235-.625v-.078q-1.308 1.153-3.047 1.153-2.011 0-3.437-1.485-1.406-1.504-1.406-3.574t1.406-3.555q1.426-1.504 3.437-1.504zm2.149 2.715q-.899-.957-2.149-.957t-2.168.957q-.918.957-.918 2.344t.918 2.344q.918.957 2.168.957t2.149-.957q.898-.957.898-2.344t-.898-2.344z"/></svg>