<svg xmlns="http://www.w3.org/2000/svg" xmlns:xlink="http://www.w3.org/1999/xlink" width="138" height="30"><defs><linearGradient id="a"><stop offset="0" stop-color="#8df7eb"/><stop offset="1" stop-color="#e6f8fe"/></linearGradient><linearGradient xlink:href="#a" id="b" x1="-9.707" y1="-41.885" x2="-9.707" y2="-12.885" gradientUnits="userSpaceOnUse" gradientTransform="translate(10.207 42.385)"/></defs><path fill="url(#b)" stroke="#3df8e3" stroke-linejoin="round" d="M.5.5h137v29H.5z"/><path d="M41.393 6.318q.253-.254.625-.254.37 0 .625.254.253.254.253.625v4.551q1.329-1.133 3.008-1.133 1.973 0 3.36 1.504 1.406 1.485 1.406 3.555 0 2.07-1.406 3.574-1.387 1.485-3.36 1.485-1.68 0-3.008-1.133v.254q0 .37-.253.625-.254.254-.625.254-.372 0-.625-.254-.254-.254-.254-.625V6.943q0-.37.254-.625zm6.64 6.758q-.879-.957-2.129-.957t-2.129.957q-.879.957-.879 2.344t.88 2.344q.878.957 2.128.957t2.13-.957q.878-.957.878-2.344t-.879-2.344zm6.992 0q-.918.957-.918 2.344t.918 2.344q.918.957 2.168.957t2.149-.957q.898-.957.898-2.344t-.898-2.344q-.899-.957-2.149-.957t-2.168.957zm-1.27 5.918Q52.35 17.49 52.35 15.42t1.406-3.555q1.426-1.504 3.437-1.504 2.012 0 3.399 1.504 1.406 1.485 1.406 3.555 0 2.07-1.406 3.574-1.387 1.485-3.399 1.485-2.011 0-3.437-1.485zm17.423-3.711q0-.449-.02-.722 0-.293-.058-.704-.04-.43-.157-.703-.117-.273-.293-.547-.175-.273-.488-.39-.293-.137-.703-.137-1.426 0-2.46.996-1.036.996-1.036 2.305v4.18q0 .37-.254.625-.254.253-.625.253t-.625-.253q-.254-.254-.254-.625v-8.32q0-.372.254-.626t.625-.254q.371 0 .625.254t.254.625v.39q1.484-1.308 3.496-1.308 1.816 0 2.637 1.29.84 1.269.84 3.769v4.18q0 .37-.254.625-.254.253-.625.253t-.625-.253q-.254-.254-.254-.625zm6.465-8.945q.37.371.37.898 0 .528-.37.899-.352.37-.88.37-.527 0-.917-.37-.371-.371-.371-.899 0-.527.37-.898.391-.371.919-.371.527 0 .879.37zm.039 4.98v8.223q0 .371-.274.625-.254.254-.625.254-.37 0-.625-.254-.234-.254-.234-.625v-8.223q0-.37.234-.625.254-.254.625-.254t.625.254q.274.254.274.625zm3.515 4.766v-3.77h-1.25q-.37 0-.625-.253-.254-.254-.254-.625 0-.372.254-.625.254-.254.625-.254h1.25V8.35q0-.371.254-.625t.625-.254q.371 0 .625.254t.254.625v2.207h2.402q.372 0 .625.254.254.253.254.625 0 .37-.254.625-.253.253-.625.253h-2.402v3.77q0 1.777.45 2.207.449.43 2.343.43.371 0 .625.254t.254.625q0 .37-.254.625-.254.254-.625.254-2.715 0-3.633-.938-.918-.937-.918-3.457zm10.918-5.723q1.739 0 3.047 1.153v-.078q0-.372.234-.625.254-.254.625-.254.372 0 .625.254.274.253.274.625v7.968q0 .371-.274.625-.253.254-.625.254-.37 0-.625-.254-.234-.254-.234-.625v-.078q-1.308 1.153-3.047 1.153-2.011 0-3.437-1.485-1.407-1.504-1.407-3.574t1.407-3.555q1.426-1.504 3.437-1.504zm2.149 2.715q-.899-.957-2.149-.957t-2.168.957q-.918.957-.918 2.344t.918 2.344q.918.957 2.168.957t2.149-.957q.898-.957.898-2.344t-.898-2.344z"/></svg>