<svg xmlns="http://www.w3.org/2000/svg" xmlns:xlink="http://www.w3.org/1999/xlink" width="138" height="30"><defs><linearGradient id="a"><stop offset="0" stop-color="#8df7eb"/><stop offset="1" stop-color="#e6f8fe"/></linearGradient><linearGradient xlink:href="#a" id="b" x1="-9.707" y1="-41.885" x2="-9.707" y2="-12.885" gradientUnits="userSpaceOnUse" gradientTransform="translate(10.207 42.385)"/></defs><path fill="url(#b)" stroke="#3df8e3" stroke-linejoin="round" d="M.5.5h137v29H.5z"/><path d="M42.71 23.78q-.253.253-.624.253t-.625-.254q-.254-.254-.254-.625V11.24q0-.37.254-.625.254-.254.625-.254t.625.254q.254.254.254.625v.254q1.328-1.133 3.008-1.133 1.972 0 3.359 1.504 1.406 1.485 1.406 3.555 0 2.07-1.406 3.574-1.387 1.485-3.36 1.485-1.679 0-3.007-1.133v3.808q0 .371-.254.625zm1.134-6.016q.879.957 2.129.957t2.129-.957q.878-.957.878-2.344t-.878-2.344q-.88-.957-2.13-.957t-2.128.957q-.88.957-.88 2.344t.88 2.344zM59.977 5.81q0 .215-.118.43l-1.582 2.774q-.254.449-.761.449-.371 0-.625-.254t-.254-.625q0-.254.117-.45l1.582-2.773q.254-.43.762-.43.37 0 .625.255.254.253.254.625zm-2.715 4.551q1.738 0 3.047 1.153v-.078q0-.372.234-.625.254-.254.625-.254t.625.254q.273.253.273.625v7.968q0 .371-.273.625-.254.254-.625.254t-.625-.254q-.234-.254-.234-.625v-.078Q59 20.48 57.262 20.48q-2.012 0-3.438-1.485-1.406-1.504-1.406-3.574t1.406-3.555q1.426-1.504 3.438-1.504zm2.148 2.715q-.898-.957-2.148-.957t-2.168.957q-.918.957-.918 2.344t.918 2.344q.918.957 2.168.957t2.148-.957q.899-.957.899-2.344t-.899-2.344zm5.488-2.422q.254-.254.625-.254.372 0 .625.254.254.254.254.625v8.575q0 2.011-.82 3.125-.8 1.132-2.93 1.132-.37 0-.625-.254-.254-.253-.254-.625 0-.37.254-.625.254-.253.625-.253 1.211 0 1.602-.508.39-.489.39-1.992v-8.575q0-.37.254-.625zm1.387-4.336q.371.371.371.899 0 .527-.37.898-.352.371-.88.371-.527 0-.918-.37-.37-.372-.37-.9 0-.527.37-.898.39-.37.918-.37t.88.37zm7.168 4.043q1.738 0 3.047 1.153v-.078q0-.372.234-.625.254-.254.625-.254t.625.254q.274.253.274.625v7.968q0 .371-.274.625-.254.254-.625.254-.37 0-.625-.254-.234-.254-.234-.625v-.078q-1.309 1.153-3.047 1.153-2.012 0-3.437-1.485-1.407-1.504-1.407-3.574t1.407-3.555q1.425-1.504 3.437-1.504zm2.149 2.715q-.899-.957-2.149-.957t-2.168.957q-.918.957-.918 2.344t.918 2.344q.918.957 2.168.957t2.149-.957q.898-.957.898-2.344t-.898-2.344zm9.98-2.754q.371 0 .625.254t.254.625q0 .371-.254.625t-.625.254q-1.465 0-2.402 1.074-.918 1.055-.918 2.598v3.809q0 .37-.254.625-.254.253-.625.253t-.625-.253q-.254-.254-.254-.625v-8.32q0-.372.254-.626t.625-.254q.37 0 .625.254.254.254.254.625v.352q1.386-1.27 3.32-1.27zm4.297 2.754q-.918.957-.918 2.344t.918 2.344q.918.957 2.168.957t2.148-.957q.899-.957.899-2.344t-.899-2.344q-.898-.957-2.148-.957t-2.168.957zm-1.27 5.918q-1.406-1.504-1.406-3.574t1.406-3.555q1.426-1.504 3.438-1.504 2.012 0 3.398 1.504 1.407 1.485 1.407 3.555 0 2.07-1.407 3.574-1.386 1.485-3.398 1.485-2.012 0-3.438-1.485z"/></svg>