<svg xmlns="http://www.w3.org/2000/svg" xmlns:xlink="http://www.w3.org/1999/xlink" width="138" height="30"><defs><linearGradient id="a"><stop offset="0" stop-color="#8df7eb"/><stop offset="1" stop-color="#e6f8fe"/></linearGradient><linearGradient xlink:href="#a" id="b" x1="-9.707" y1="-41.885" x2="-9.707" y2="-12.885" gradientUnits="userSpaceOnUse" gradientTransform="translate(10.207 42.385)"/></defs><path fill="url(#b)" stroke="#3df8e3" stroke-linejoin="round" d="M.5.5h137v29H.5z"/><path d="M46.832 23.78q-.254.253-.625.253t-.625-.254q-.254-.254-.254-.625V11.24q0-.37.254-.625.254-.254.625-.254t.625.254q.254.254.254.625v.254q1.328-1.133 3.008-1.133 1.972 0 3.36 1.504 1.405 1.485 1.405 3.555 0 2.07-1.406 3.574-1.387 1.485-3.36 1.485-1.679 0-3.007-1.133v3.808q0 .371-.254.625zm1.133-6.016q.879.957 2.129.957t2.129-.957q.879-.957.879-2.344t-.88-2.344q-.878-.957-2.128-.957t-2.13.957q-.878.957-.878 2.344t.879 2.344zM59.04 6.338q.37.371.37.898 0 .528-.37.899-.352.37-.88.37-.527 0-.918-.37-.37-.371-.37-.899 0-.527.37-.898.39-.371.918-.371t.88.37zm.038 4.98v8.223q0 .371-.273.625-.254.254-.625.254t-.625-.254q-.235-.254-.235-.625v-8.223q0-.37.235-.625.254-.254.625-.254.37 0 .625.254.273.254.273.625zm6.328 9.161q-.605 0-1.523-.274-.918-.273-1.719-.8-.781-.528-.781-1.114 0-.39.254-.625.273-.254.644-.254.313 0 .586.234.606.547 1.153.82.566.255 1.386.255 2.227 0 2.227-1.192 0-.293-.235-.527-.234-.254-.644-.41-.39-.156-.762-.254-.351-.117-.742-.195-.137-.02-.195-.04-1.465-.351-2.364-1.035-.879-.703-.879-2.011 0-1.348 1.114-2.012 1.113-.684 2.558-.684 1.036 0 2.344.547 1.328.547 1.328 1.328 0 .371-.254.625t-.605.254q-.313 0-.508-.136-.078-.06-.273-.176-.196-.137-.274-.176-.058-.059-.234-.156-.156-.098-.254-.117-.078-.04-.254-.098-.156-.059-.293-.078-.137-.02-.332-.04-.176-.019-.39-.019-.645 0-1.29.235-.625.234-.625.703 0 .293.078.507.098.196.352.332.254.137.39.196.137.058.587.176l.625.156q2.05.605 2.91 1.27.879.644.879 1.855 0 .82-.371 1.426-.372.605-.997.918-.605.312-1.25.449-.644.137-1.367.137zM73.55 6.338q.372.371.372.898 0 .528-.371.899-.352.37-.88.37-.526 0-.917-.37-.371-.371-.371-.899 0-.527.37-.898.392-.371.919-.371t.879.37zm.04 4.98v8.223q0 .371-.274.625-.254.254-.625.254-.37 0-.625-.254-.234-.254-.234-.625v-8.223q0-.37.234-.625.254-.254.625-.254t.625.254q.274.254.274.625zm3.515 4.766v-3.77h-1.25q-.37 0-.625-.253-.253-.254-.253-.625 0-.372.253-.625.254-.254.625-.254h1.25V8.35q0-.371.254-.625t.625-.254q.371 0 .625.254t.254.625v2.207h2.403q.37 0 .625.254.254.253.254.625 0 .37-.254.625-.254.253-.625.253h-2.403v3.77q0 1.777.45 2.207.449.43 2.343.43.371 0 .625.254t.254.625q0 .37-.254.625-.254.254-.625.254-2.715 0-3.633-.938-.918-.937-.918-3.457zm8.653-3.008q-.918.957-.918 2.344t.918 2.344q.918.957 2.168.957t2.148-.957q.899-.957.899-2.344t-.899-2.344q-.898-.957-2.148-.957t-2.168.957zm-1.27 5.918q-1.406-1.504-1.406-3.574t1.406-3.555q1.426-1.504 3.438-1.504 2.011 0 3.398 1.504 1.406 1.485 1.406 3.555 0 2.07-1.406 3.574-1.386 1.485-3.398 1.485-2.012 0-3.438-1.485z"/></svg>