<svg width="206" height="254" xmlns="http://www.w3.org/2000/svg"><path d="M84.63 247.807c43.446 0 78.666-5.075 78.666-11.333 0-6.259-35.22-11.334-78.666-11.334-43.447 0-78.667 5.075-78.667 11.334 0 6.258 35.22 11.333 78.667 11.333z" fill-opacity=".2"/><path d="M18.262 176.314v19.508h72.226c5.393 0 9.882-4.372 9.741-9.766-.146-5.564-4.79-9.742-9.741-9.742z" fill="#aea5c4"/><path d="M128.5 195.811c5.386 0 9.751-4.365 9.751-9.75 0-5.387-4.365-9.753-9.75-9.753H56.275c6.707 0 6.707 19.503 0 19.503z" fill="#aea5c4"/><path d="M18.262 179.341v13.453h41.336a6.702 6.702 0 006.738-6.738c0-3.78-3.018-6.715-6.738-6.715z" fill="#fecadd"/><path d="M18.262 214.251v19.508h72.226c5.393 0 9.882-4.372 9.741-9.765-.145-5.565-4.79-9.743-9.741-9.743z" fill="#00abac"/><path d="M128.5 233.749c5.386 0 9.751-4.366 9.751-9.751 0-5.387-4.365-9.752-9.75-9.752H56.275c6.707 0 6.707 19.503 0 19.503z" fill="#00abac"/><path d="M18.262 217.278v13.454h41.336c3.722 0 6.897-3.02 6.738-6.739-.164-3.839-3.178-6.715-6.738-6.715z" fill="#fecadd"/><path d="M138.252 194.525v19.506H66.027c-5.395 0-9.884-4.372-9.743-9.764.145-5.567 4.79-9.742 9.743-9.742z" fill="#e9521c"/><path d="M28.014 214.02c-5.386 0-9.751-4.365-9.751-9.75 0-5.387 4.365-9.752 9.75-9.752h72.226c-6.707 0-6.707 19.503 0 19.503z" fill="#e23000"/><path d="M138.252 197.552v13.452H96.916c-3.721 0-6.897-3.019-6.739-6.737.163-3.84 3.179-6.715 6.739-6.715z" fill="#fecadd"/><path d="M144.82 77.03c-2.271-4.962-6.583-7.655-11.103-8.356-3.788-.587-7.749.29-10.884 2.452-.996 5.685-2.817 11.2-5.586 16.3.663 2.31 1.832 4.464 4.567 7.228 4.546 4.596 8.345 7.898 14.078 11.248 26.341 15.387 48.468 5.007 40.021.304-9.53-5.306-16.912-10.54-24.485-19.24-4.51-5.181-5.577-7.684-6.608-9.936z" fill="#003374"/><path d="M121.207 95.463c4.152 4.228 9.413 7.118 13.846 9.94-.46-10.907 7.943-17.95 13.775-21.523-1.653-2.308-2.977-4.598-4.008-6.85-2.271-4.962-6.584-7.652-11.103-8.356-3.789-.584-7.749.29-10.884 2.452-4.037 3.666-6.647 8.912-5.586 16.3.338 2.353 1.21 5.237 3.96 8.038z" fill="#cd4f73"/><path d="M99.295 181.61c33.016 0 51.597-27.581 51.597-53.529 0-21.816-11.483-34.975-17.855-52.631-3.322-9.206-3.832-19.224-3.832-29.679 0-25.353-20.12-41.866-43.1-39.336-18.077 1.99-32.579 16.785-34.207 34.884-.267 3.037-.219 6 .17 8.892.947 6.996 1.466 14.245-3.085 29.066-2.97 9.672-4.283 10.797-5.125 12.062a58.324 58.324 0 00-9.67 32.212c.009 39.431 37.419 58.059 65.107 58.059z" fill="#003374"/><path d="M139.755 88.836c-3.73-5.612-5.624-9.572-7.057-13.725-1.288-3.741-2.335-7.653-2.87-11.758-.534-4.18-.952-8.26-.686-13.3.024-2.637.348-4.362.081-6.135-1.021-7.092-4.123-14.316-9.377-19.046-8.617-7.757-17.078-2.744-17.673 8.467-4.385-11.357-16.961-18.78-27.609-10.312-6.672 5.306-11.49 14.479-12.244 22.908a35.438 35.438 0 00.147 7.725c1.263 9.328.533 18.851-2.819 27.451a43.723 43.723 0 01-4.3 8.333c-5.528 8.303-8.34 18.06-8.453 28.034-.346 30.33 28.562 53.296 56.651 50.528 25.948-2.557 43.135-21.971 44.966-47.358.866-11.989-2.429-21.73-8.757-31.812z" fill="#f7f1f5"/><path d="M90.453 55.245c.164-2.532-3.02-4.797-7.113-5.061-4.092-.264-7.54 1.574-7.704 4.104-.163 2.53 3.021 4.798 7.114 5.061 4.09.263 7.54-1.575 7.703-4.104zm36.873-.807c.163-2.532-3.021-4.798-7.113-5.062-4.092-.264-7.543 1.575-7.706 4.104-.164 2.53 3.023 4.797 7.113 5.06 4.093.264 7.543-1.573 7.706-4.102z" fill="#e99ca6"/><path d="M86.753 33.368c-2.495-.46-5.12 2.436-5.863 6.468-.744 4.034.676 7.674 3.17 8.135 2.493.46 5.116-2.436 5.86-6.47.743-4.031-.673-7.673-3.167-8.133zm29.067 0c-2.496-.46-5.118 2.436-5.862 6.468-.744 4.034.674 7.674 3.169 8.135 2.493.46 5.117-2.436 5.861-6.47.744-4.031-.674-7.673-3.168-8.133z" fill="#511812"/><path d="M151.619 143.049c-.06-1.963-2.719-2.551-3.624-.81-.749 1.44-2.835 1.357-3.466-.136l-.8-1.893c-.657-1.555-2.86-1.56-3.526-.008l-1.414 3.296c-.587 1.369-2.44 1.575-3.313.37l-3.403-4.7c-.994-1.373-3.137-.874-3.44.794-1.402 7.725-3.016 23.633 6.292 28.17 4.54 2.213 9.98.158 12.632-4.14 2.437-3.95 4.334-12.042 4.062-20.943zm-60.434 25.748c2.437-3.951 4.333-12.044 4.061-20.944-.06-1.962-2.718-2.551-3.624-.809-.748 1.44-2.834 1.357-3.465-.136l-.8-1.893c-.658-1.557-2.862-1.56-3.527-.008l-1.413 3.296c-.587 1.369-2.441 1.575-3.314.369l-3.402-4.7c-.994-1.374-3.137-.873-3.44.795-1.402 7.725-3.016 23.633 6.292 28.17 4.538 2.212 9.981.157 12.632-4.14zm4.638-117.215c.249-4.093 2.504-7.285 5.036-7.131 2.53.154 6.349 3.22 6.099 7.314-.25 4.092-4.472 7.661-7.003 7.507-2.53-.154-4.381-3.596-4.132-7.69z" fill="#f1624c"/><path d="M105.114 51.805c.668-.189.954.849.287 1.037-3.117.879-6.303.446-9.068-1.244-.59-.36-.05-1.29.544-.928 2.528 1.542 5.385 1.941 8.237 1.135zM83.922 166.608a79.213 79.213 0 00.626-15.533c-.04-.692 1.036-.69 1.076 0 .288 4.987.084 9.925-.55 14.868 2.615-4.261 4.353-8.88 5.087-13.9.1-.683 1.136-.392 1.037.287-.87 5.956-3.072 11.425-6.55 16.328.206.556.386 1.12.597 1.674.248.648-.803.932-1.037.286-2.16-5.973-4.463-12.656-6.038-18.08-.194-.667.846-.952 1.038-.287 1.398 4.845 2.998 9.62 4.714 14.357zm54.072-4.196c1.596-5.57 2.68-11.214 3.204-16.995.062-.684 1.14-.69 1.076 0a93.389 93.389 0 01-2.99 16.347c3.991-2.751 5.127-9.283 6.614-13.524.228-.65 1.267-.37 1.037.286-1.682 4.795-2.942 12.27-8.052 14.722-.34 1.181-1.387.983-1.624.36-2.02-5.318-3.42-10.85-4.57-16.422-.14-.676.896-.965 1.037-.285a125.227 125.227 0 004.268 15.511z" fill="#511812"/><path d="M132.89 75.037c-32.542 6.202-47.937 7.9-73.242 6.074-3.49-.082-6.98-.195-10.468-.34-.205.566-.667 1.125-1.26 1.682-2.19 6.463-3.337 7.796-4.063 8.887a58.32 58.32 0 00-9.67 32.21c.001 3.51.312 6.845.872 10.026 39.349 9.842 88.516 7.05 115.177-14.21-2.725-17.236-12.376-30.961-17.345-44.329z" fill="#cd4f73"/><path d="M122.68 82.898a330.106 330.106 0 01-66.446 3.825c-.783-.034-.779 1.18 0 1.215 22.33.961 44.7-.333 66.77-3.868.772-.123.441-1.294-.324-1.172zm-5.998 5.498a319.765 319.765 0 01-57.135 2.524c-.782-.035-.778 1.18 0 1.215 19.19.861 38.42.002 57.457-2.569.772-.104.442-1.272-.322-1.17zm-67.983 43.17c31 2.4 62.101 1.5 91.028-11.002.63-.272-.352-1.69-.352-1.105 0 .083-.171.016-.26.055-28.695 12.403-59.7 13.218-90.416 10.839-.78-.061-.775 1.153 0 1.213zm61.276-6.236a338.731 338.731 0 01-60.604 1.928c-.783-.045-.778 1.17 0 1.215 20.218 1.17 40.5.528 60.604-1.926.767-.094.774-1.311 0-1.217z" fill="#511812"/><path d="M198.153 81.448V74.18s-33.373-1.345-37.68 10.496c0 0-2.153-9.42-40.37-9.15 0 0-18.034-1.885-24.491-4.575l-40.91 43.33-.538 7.267 66.208 6.997 46.561-19.377z" fill="#fecadd"/><path d="M96.15 76.872l54.442 12.946 14.994.78s33.644-9.42 34.451-9.688l-45.484 45.485-34.988 7.267-11.653.224-58.055-10.722z" fill="#aea5c4"/><path d="M165.587 90.599l-44.678 43.157-12.997.13 42.68-44.068z" fill="#9d91b7"/><path d="M73.762 77.03c-2.27-4.961-6.582-7.656-11.1-8.356-3.79-.588-7.88.112-10.885 2.452-5.11 3.979-7.604 10.472-5.587 16.3 2.696 7.79 10.756 13.83 18.645 18.476 26.287 15.482 48.469 5.007 40.022.304-9.53-5.306-16.913-10.539-24.486-19.24-4.51-5.18-5.578-7.683-6.609-9.936z" fill="#003374"/><path d="M59.785 68.48c-2.89.06-5.754.892-8.008 2.647-5.11 3.979-7.603 10.503-5.586 16.331 2.6 7.513 10.127 13.515 17.805 17.93-.452-10.898 7.946-17.936 13.775-21.507l.045-.035c-2.417-3.165-3.257-5.074-4.054-6.817-2.271-4.96-6.582-7.655-11.1-8.355a16.614 16.614 0 00-2.877-.194z" fill="#cd4f73"/></svg>