<svg width="391" height="366" xmlns="http://www.w3.org/2000/svg"><path d="M97.5 51h290.497M97.5 103h290.497M97.5 155h290.497M97.5 207h290.497M97.5 259h290.497" fill="none" stroke="#bcbcb5"/><path d="M113.5 207l84-52 42 78 42-26 84 106" fill="none" stroke="#34495e" stroke-width="4"/><path d="M96.307 6.998q-2.342 0-3.996 1.826-1.655 1.805-1.655 4.168 0 2.256 1.633 4.147 1.633 1.89 3.932 1.89 1.267 0 2.449-.258.408-.085.967-.408.558-.322.795-.322.408 0 .687.28.28.279.28.687 0 .43-.409.795-.408.343-.816.494-.387.15-1.031.344-1.096.322-2.922.322-3.03 0-5.264-2.363-2.234-2.385-2.234-5.608 0-3.137 2.17-5.521 2.191-2.407 5.414-2.407 1.353 0 2.363.215 1.01.194 2.191.817.537.279.537.88 0 .409-.3.688-.28.28-.666.28-.237 0-.838-.301-.602-.301-1.203-.452-.752-.193-2.084-.193zm9.259 5.822q-1.01 1.053-1.01 2.578 0 1.526 1.01 2.579 1.01 1.052 2.385 1.052 1.375 0 2.363-1.052.989-1.053.989-2.579 0-1.525-.989-2.578-.988-1.052-2.363-1.052t-2.385 1.052zm-1.396 6.51q-1.547-1.654-1.547-3.932 0-2.277 1.547-3.91 1.568-1.654 3.781-1.654t3.738 1.654q1.547 1.633 1.547 3.91 0 2.278-1.547 3.932-1.525 1.633-3.738 1.633t-3.781-1.633zm19.164-4.082q0-.494-.022-.795 0-.322-.064-.773-.043-.473-.172-.774-.129-.3-.322-.601t-.537-.43q-.322-.15-.774-.15-1.568 0-2.707 1.095-1.138 1.096-1.138 2.535v4.598q0 .408-.28.688-.279.279-.687.279-.408 0-.688-.28-.279-.279-.279-.687v-9.152q0-.408.28-.688.279-.279.687-.279.408 0 .687.28.28.279.28.687v.43q1.632-1.44 3.845-1.44 1.998 0 2.9 1.418.925 1.396.925 4.146v4.598q0 .408-.28.688-.279.279-.687.279-.408 0-.688-.28-.279-.279-.279-.687zm8.787 5.715q-.666 0-1.676-.3-1.01-.302-1.89-.882-.86-.58-.86-1.224 0-.43.28-.688.3-.28.709-.28.343 0 .644.259.666.601 1.268.902.623.28 1.525.28 2.45 0 2.45-1.311 0-.323-.258-.58-.258-.28-.71-.452-.43-.171-.837-.279-.387-.129-.817-.215-.15-.021-.215-.043-1.61-.386-2.6-1.138-.966-.774-.966-2.213 0-1.483 1.225-2.213 1.224-.752 2.814-.752 1.139 0 2.578.602 1.461.601 1.461 1.46 0 .409-.28.688-.279.28-.665.28-.344 0-.559-.151-.086-.065-.3-.193-.215-.15-.301-.194-.065-.064-.258-.172-.172-.107-.28-.129-.085-.043-.279-.107-.172-.064-.322-.086-.15-.021-.365-.043-.194-.021-.43-.021-.709 0-1.418.257-.687.258-.687.774 0 .322.085.558.108.215.387.366.28.15.43.214.15.065.644.194l.688.172q2.256.666 3.201 1.396.967.71.967 2.041 0 .903-.408 1.569-.409.666-1.096 1.01-.666.343-1.375.493-.709.15-1.504.15zm10.635-1.933q3.738 0 3.738-3.632v-4.597q0-.408.258-.688.28-.279.687-.279.409 0 .688.28.3.279.3.687v9.152q0 .408-.3.688-.28.279-.688.279-.408 0-.687-.28-.258-.279-.258-.687v-.43q-1.633 1.44-3.738 1.44-1.998 0-2.922-1.397-.902-1.418-.902-4.168v-4.597q0-.408.279-.688.3-.279.709-.279.408 0 .666.28.28.279.28.687v4.705q0 1.783.386 2.664.387.86 1.504.86zm14.137-7.262q-1.547 0-2.514 1.052-.945 1.032-.945 2.578v4.598q0 .408-.28.688-.279.279-.687.279-.408 0-.688-.28-.279-.279-.279-.687v-9.152q0-.408.28-.688.279-.279.687-.279.408 0 .687.28.28.279.28.687v1.01q.515-.86 1.46-1.44.946-.58 1.999-.58 2.363 0 3.18 1.697 1.482-1.697 3.802-1.697 1.074 0 1.805.43.73.408 1.074 1.224.365.795.494 1.719.15.924.15 2.191v4.598q0 .408-.279.688-.28.279-.687.279-.409 0-.688-.28-.28-.279-.28-.687V15.12q0-.86-.042-1.353-.043-.495-.194-1.01-.128-.516-.472-.752t-.881-.236q-1.568 0-2.514.966-.945.967-.945 2.621v4.641q0 .387-.28.688-.279.279-.687.279-.408 0-.687-.28-.28-.279-.28-.687v-5.092q0-.709-.064-1.181-.043-.494-.193-.967-.15-.494-.495-.73-.322-.258-.837-.258zm15.92 1.052q-1.01 1.053-1.01 2.578 0 1.526 1.01 2.579 1.01 1.052 2.384 1.052 1.375 0 2.364-1.052.988-1.053.988-2.579 0-1.525-.988-2.578-.989-1.052-2.364-1.052t-2.384 1.052zm-1.397 6.51q-1.547-1.654-1.547-3.932 0-2.277 1.547-3.91 1.568-1.654 3.781-1.654t3.739 1.654q1.546 1.633 1.546 3.91 0 2.278-1.546 3.932-1.526 1.633-3.739 1.633t-3.781-1.633zM196.81 5.387q.28-.28.688-.28.408 0 .688.28.279.279.279.687v13.922q0 .408-.28.688-.279.279-.687.279-.408 0-.687-.28-.28-.279-.28-.687v-.28q-1.46 1.247-3.308 1.247-2.17 0-3.717-1.633-1.526-1.654-1.526-3.932 0-2.277 1.526-3.91 1.547-1.654 3.717-1.654 1.847 0 3.308 1.246V6.074q0-.408.28-.687zm-1.246 7.433q-.966-1.052-2.341-1.052-1.375 0-2.342 1.052-.967 1.053-.967 2.578 0 1.526.967 2.579.967 1.052 2.342 1.052t2.341-1.052q.967-1.053.967-2.579 0-1.525-.967-2.578zm15.405 2.256q0 .408-.28.688-.279.279-.687.279h-7.068q.214 1.289 1.138 2.148.924.838 2.149.838 1.224 0 1.761-.193.538-.193 1.075-.688.279-.236.623-.236.43 0 .687.28.28.279.28.687 0 .451-.323.73-1.568 1.354-4.103 1.354-2.192 0-3.739-1.633-1.546-1.654-1.546-3.932 0-2.277 1.546-3.91 1.547-1.654 3.739-1.654 2.234 0 3.48 1.568 1.268 1.569 1.268 3.674zm-7.885-.967h5.844q-.237-1.03-.989-1.675-.73-.666-1.718-.666-1.053 0-1.912.644-.86.645-1.225 1.697zm25.953 4.555q0 1.096-.086 1.912-.086.795-.387 1.676-.3.88-.816 1.418-.516.559-1.44.902-.923.365-2.19.365-1.57 0-2.622-.236-1.031-.215-1.976-.967-.366-.3-.366-.752 0-.408.28-.687.279-.28.687-.28.322 0 .602.215.644.495 1.31.624.688.15 2.17.15 1.569 0 2.127-.688.58-.666.752-2.578-1.46 1.246-3.33 1.246-2.213 0-3.76-1.632-1.547-1.655-1.547-3.932t1.547-3.932q1.547-1.654 3.76-1.654 1.89 0 3.352 1.246 0-.408.279-.687.28-.301.687-.301.409 0 .688.28.28.278.28.687zm-7.67-.666q1.01 1.053 2.385 1.053 1.375 0 2.363-1.053.989-1.053.989-2.578t-.989-2.578q-.988-1.074-2.363-1.074t-2.385 1.074q-.988 1.053-.988 2.578t.988 2.578zm15.447-8.164q1.913 0 3.352 1.268v-.086q0-.409.258-.688.28-.28.687-.28.409 0 .688.28.3.28.3.688v8.765q0 .408-.3.688-.28.279-.688.279-.408 0-.687-.28-.258-.279-.258-.687v-.086q-1.44 1.268-3.352 1.268-2.212 0-3.78-1.633-1.548-1.654-1.548-3.932 0-2.277 1.547-3.91 1.569-1.654 3.781-1.654zm2.364 2.986q-.989-1.052-2.364-1.052t-2.384 1.052q-1.01 1.053-1.01 2.578 0 1.526 1.01 2.579 1.01 1.052 2.384 1.052 1.375 0 2.364-1.052.988-1.053.988-2.579 0-1.525-.988-2.578zm9.152 8.143q-.666 0-1.676-.3-1.01-.302-1.89-.882-.86-.58-.86-1.224 0-.43.28-.688.3-.28.709-.28.343 0 .644.259.666.601 1.268.902.623.28 1.525.28 2.45 0 2.45-1.311 0-.323-.259-.58-.257-.28-.708-.452-.43-.171-.838-.279-.387-.129-.817-.215-.15-.021-.215-.043-1.611-.386-2.6-1.138-.966-.774-.966-2.213 0-1.483 1.225-2.213 1.224-.752 2.814-.752 1.139 0 2.578.602 1.461.601 1.461 1.46 0 .409-.28.688-.279.28-.665.28-.344 0-.559-.151-.086-.065-.3-.193-.215-.15-.301-.194-.065-.064-.258-.172-.172-.107-.28-.129-.085-.043-.279-.107-.172-.064-.322-.086-.15-.021-.365-.043-.194-.021-.43-.021-.709 0-1.418.257-.687.258-.687.774 0 .322.085.558.108.215.387.366.28.15.43.214.15.065.644.194l.688.172q2.256.666 3.201 1.396.967.71.967 2.041 0 .903-.408 1.569-.409.666-1.096 1.01-.666.343-1.375.493-.709.15-1.504.15zm9.152-8.143q-1.01 1.053-1.01 2.578 0 1.526 1.01 2.579 1.01 1.052 2.385 1.052 1.375 0 2.363-1.052.989-1.053.989-2.579 0-1.525-.989-2.578-.988-1.052-2.363-1.052t-2.385 1.052zm-1.396 6.51q-1.547-1.654-1.547-3.932 0-2.277 1.547-3.91 1.568-1.654 3.781-1.654t3.738 1.654q1.547 1.633 1.547 3.91 0 2.278-1.547 3.932-1.525 1.633-3.738 1.633t-3.781-1.633zm15.684-.3q.408 0 .687.279.28.279.28.687 0 .408-.28.688-.28.279-.687.279-.946 0-1.633-.172-.666-.15-1.139-.537-.451-.408-.73-.881-.28-.494-.43-1.31-.129-.838-.172-1.655-.043-.816-.043-2.084v-8.25q0-.408.28-.687.279-.28.687-.28.408 0 .687.28.28.279.28.687v10.184q.021.537.086 1.203.085.644.193.86.107.193.387.429.279.215.623.258.343.021.923.021zm4.662-13.622q.408.408.408.988 0 .58-.408.989-.387.408-.967.408t-1.01-.408q-.408-.408-.408-.989 0-.58.408-.988.43-.408 1.01-.408.58 0 .967.408zm.043 5.479v9.045q0 .408-.301.687-.28.28-.688.28-.408 0-.687-.28-.258-.28-.258-.687v-9.045q0-.408.258-.688.28-.28.687-.28.409 0 .688.28.3.28.3.688zm10.828 4.361q0-.494-.022-.795 0-.322-.064-.773-.043-.473-.172-.774-.13-.3-.322-.601-.194-.301-.538-.43-.322-.15-.773-.15-1.568 0-2.707 1.095-1.139 1.096-1.139 2.535v4.598q0 .408-.279.688-.28.279-.687.279-.409 0-.688-.28-.28-.279-.28-.687v-9.152q0-.408.28-.688.28-.279.688-.279.408 0 .687.28.28.279.28.687v.43q1.632-1.44 3.845-1.44 1.998 0 2.9 1.418.924 1.396.924 4.146v4.598q0 .408-.279.688-.28.279-.688.279-.408 0-.687-.28-.28-.279-.28-.687zm9.689-5.414q1.912 0 3.352 1.268v-.086q0-.409.258-.688.279-.28.687-.28.408 0 .688.28.3.28.3.688v8.765q0 .408-.3.688-.28.279-.688.279-.408 0-.687-.28-.258-.279-.258-.687v-.086q-1.44 1.268-3.352 1.268-2.213 0-3.781-1.633-1.547-1.654-1.547-3.932 0-2.277 1.547-3.91 1.568-1.654 3.781-1.654zm2.363 2.986q-.988-1.052-2.363-1.052t-2.385 1.052q-1.01 1.053-1.01 2.578 0 1.526 1.01 2.579 1.01 1.052 2.385 1.052 1.375 0 2.363-1.052.989-1.053.989-2.579 0-1.525-.989-2.578zM10.451 245.162q-.28-.28-.28-.687 0-.409.28-.688.28-.28.688-.28h12.697v-7.003q0-.408.28-.688.279-.279.687-.279.408 0 .687.28.28.279.28.687v7.97q0 .409-.28.688-.28.28-.687.28H11.139q-.409 0-.688-.28zm-.043-13.492q.408-.408.988-.408.58 0 .989.408.408.387.408.967t-.408 1.01q-.408.408-.989.408-.58 0-.988-.409-.408-.43-.408-1.01 0-.58.408-.966zm5.479-.043h9.045q.408 0 .687.3.28.28.28.688 0 .408-.28.688-.28.258-.687.258h-9.045q-.408 0-.688-.258-.28-.28-.28-.688 0-.408.28-.687.28-.301.688-.301zm5.242-3.867h-4.147v1.375q0 .408-.279.687-.28.28-.687.28-.409 0-.688-.28-.28-.279-.28-.687v-1.375h-2.427q-.408 0-.687-.28-.28-.279-.28-.687 0-.408.28-.688.279-.279.687-.279h2.428v-2.642q0-.409.28-.688.278-.28.687-.28.408 0 .687.28.28.28.28.688v2.642h4.146q1.955 0 2.428-.494.472-.494.472-2.578 0-.408.28-.688.279-.279.687-.279.408 0 .688.28.279.279.279.687 0 2.986-1.031 3.996-1.032 1.01-3.803 1.01zm-6.338-12.934q0-.408.28-.687.279-.28.687-.28.408 0 .687.28.28.279.28.687 0 1.611 1.181 2.643 1.16 1.01 2.858 1.01h4.19q.407 0 .687.279.279.28.279.687 0 .409-.28.688-.279.28-.687.28h-9.152q-.408 0-.688-.28-.279-.28-.279-.688 0-.408.28-.687.279-.28.687-.28h.386q-1.396-1.525-1.396-3.652zm3.029-4.726q1.053 1.01 2.578 1.01 1.526 0 2.579-1.01 1.052-1.01 1.052-2.385 0-1.375-1.052-2.363-1.053-.989-2.579-.989-1.525 0-2.578.989-1.052.988-1.052 2.363t1.052 2.385zm6.51 1.396q-1.654 1.547-3.932 1.547-2.277 0-3.91-1.547-1.654-1.568-1.654-3.781t1.654-3.738q1.633-1.547 3.91-1.547 2.278 0 3.932 1.547 1.633 1.525 1.633 3.738t-1.633 3.781zm1.633-15.296q0 .665-.3 1.675-.302 1.01-.882 1.89-.58.86-1.224.86-.43 0-.688-.28-.28-.3-.28-.708 0-.344.259-.645.601-.666.902-1.267.28-.623.28-1.526 0-2.449-1.311-2.449-.323 0-.58.258-.28.258-.452.709-.171.43-.279.838-.129.386-.215.816-.021.15-.043.215-.386 1.611-1.138 2.6-.774.966-2.213.966-1.483 0-2.213-1.224-.752-1.225-.752-2.815 0-1.138.602-2.578.601-1.46 1.46-1.46.409 0 .688.279.28.279.28.666 0 .343-.151.558-.065.086-.193.3-.15.216-.194.302-.064.064-.172.258-.107.171-.129.279-.043.086-.107.28-.064.171-.086.321-.021.15-.043.366-.021.193-.021.43 0 .708.257 1.417.258.688.774.688.322 0 .558-.086.215-.108.366-.387.15-.28.214-.43.065-.15.194-.644l.172-.688q.666-2.255 1.396-3.2.71-.968 2.041-.968.903 0 1.569.409.666.408 1.01 1.095.343.666.493 1.375.15.71.15 1.504zm-15.576-20.733q-.28-.28-.28-.688 0-.408.28-.687.279-.28.687-.28h13.922q.408 0 .688.28.279.28.279.687 0 .409-.28.688-.279.28-.687.28h-.28q1.247 1.46 1.247 3.308 0 2.17-1.633 3.716-1.654 1.526-3.932 1.526-2.277 0-3.91-1.526-1.654-1.546-1.654-3.716 0-1.848 1.246-3.309h-5.006q-.408 0-.687-.28zm7.433 1.246q-1.052.967-1.052 2.342t1.052 2.341q1.053.967 2.578.967 1.526 0 2.579-.967 1.052-.966 1.052-2.341 0-1.375-1.052-2.342-1.053-.967-2.579-.967-1.525 0-2.578.967zm2.256-15.404q.408 0 .688.279.279.28.279.687v7.069q1.289-.215 2.148-1.139.838-.924.838-2.148 0-1.225-.193-1.762-.193-.537-.688-1.074-.236-.28-.236-.623 0-.43.28-.688.279-.28.687-.28.451 0 .73.323 1.354 1.568 1.354 4.104 0 2.191-1.633 3.738-1.654 1.547-3.932 1.547-2.277 0-3.91-1.547-1.654-1.547-1.654-3.738 0-2.235 1.568-3.48 1.569-1.268 3.674-1.268zm-.967 7.884v-5.843q-1.03.236-1.675.988-.666.73-.666 1.719 0 1.052.644 1.912.645.86 1.697 1.224zm4.555-25.953q1.096 0 1.912.086.795.086 1.676.387.88.3 1.418.816.559.516.902 1.44.365.924.365 2.191 0 1.568-.236 2.621-.215 1.031-.967 1.977-.3.365-.752.365-.408 0-.687-.28-.28-.279-.28-.687 0-.322.215-.601.495-.645.624-1.31.15-.688.15-2.17 0-1.57-.688-2.128-.666-.58-2.578-.752 1.246 1.461 1.246 3.33 0 2.213-1.632 3.76-1.655 1.547-3.932 1.547t-3.932-1.547q-1.654-1.547-1.654-3.76 0-1.89 1.246-3.351-.408 0-.687-.28-.301-.279-.301-.687 0-.408.28-.688.278-.279.687-.279zm-.666 7.67q1.053-1.01 1.053-2.385 0-1.375-1.053-2.363t-2.578-.988q-1.525 0-2.578.988-1.074.988-1.074 2.363t1.074 2.385q1.053.988 2.578.988t2.578-.988zm-8.164-15.447q0-1.912 1.268-3.352h-.086q-.409 0-.688-.257-.28-.28-.28-.688 0-.408.28-.687.28-.301.688-.301h8.765q.408 0 .688.3.279.28.279.688 0 .408-.28.688-.279.257-.687.257h-.086q1.268 1.44 1.268 3.352 0 2.213-1.633 3.781-1.654 1.547-3.932 1.547-2.277 0-3.91-1.547-1.654-1.568-1.654-3.781zm2.986-2.363q-1.052.988-1.052 2.363t1.052 2.385q1.053 1.01 2.578 1.01 1.526 0 2.579-1.01 1.052-1.01 1.052-2.385 0-1.375-1.052-2.363-1.053-.989-2.579-.989-1.525 0-2.578.989zm8.143-9.153q0 .666-.3 1.676-.302 1.01-.882 1.89-.58.86-1.224.86-.43 0-.688-.28-.28-.3-.28-.708 0-.344.259-.645.601-.666.902-1.267.28-.623.28-1.526 0-2.449-1.311-2.449-.323 0-.58.258-.28.258-.452.709-.171.43-.279.838-.129.386-.215.816-.021.15-.043.215-.386 1.611-1.138 2.6-.774.966-2.213.966-1.483 0-2.213-1.224-.752-1.225-.752-2.815 0-1.138.602-2.578.601-1.46 1.46-1.46.409 0 .688.279.28.279.28.666 0 .343-.151.558-.065.086-.193.301-.15.215-.194.3-.064.065-.172.259-.107.171-.129.279-.043.086-.107.28-.064.171-.086.321-.021.15-.043.366-.021.193-.021.43 0 .708.257 1.417.258.688.774.688.322 0 .558-.086.215-.108.366-.387.15-.28.214-.43.065-.15.194-.644l.172-.688q.666-2.255 1.396-3.2.71-.968 2.041-.968.903 0 1.569.409.666.408 1.01 1.095.343.666.493 1.375.15.71.15 1.504zm-8.143-9.152q1.053 1.01 2.578 1.01 1.526 0 2.579-1.01 1.052-1.01 1.052-2.385 0-1.375-1.052-2.363-1.053-.988-2.579-.988-1.525 0-2.578.988-1.052.988-1.052 2.363t1.052 2.385zm6.51 1.396q-1.654 1.547-3.932 1.547-2.277 0-3.91-1.547-1.654-1.568-1.654-3.78 0-2.214 1.654-3.74 1.633-1.546 3.91-1.546 2.278 0 3.932 1.547 1.633 1.525 1.633 3.738t-1.633 3.781zm-.3-15.683q0-.408.279-.688.279-.279.687-.279.408 0 .688.28.279.279.279.687 0 .945-.172 1.633-.15.666-.537 1.138-.408.451-.881.73-.494.28-1.31.43-.838.13-1.655.172-.816.043-2.084.043h-8.25q-.408 0-.687-.279-.28-.28-.28-.687 0-.409.28-.688.279-.28.687-.28h10.184q.537-.02 1.203-.085.644-.086.86-.194.193-.107.429-.386.215-.28.258-.623.021-.344.021-.924zm-13.622-4.662q.408-.409.988-.409.58 0 .989.409.408.386.408.966t-.408 1.01q-.408.408-.989.408-.58 0-.988-.408-.408-.43-.408-1.01 0-.58.408-.966zm5.479-.043h9.045q.408 0 .687.3.28.28.28.688 0 .408-.28.688-.28.257-.687.257h-9.045q-.408 0-.688-.257-.28-.28-.28-.688 0-.408.28-.687.28-.301.688-.301zm4.361-10.828q-.494 0-.795.021-.322 0-.773.065-.473.043-.774.171-.3.13-.601.323t-.43.537q-.15.322-.15.773 0 1.569 1.095 2.707 1.096 1.139 2.535 1.139h4.598q.408 0 .688.28.279.279.279.687 0 .408-.28.687-.279.28-.687.28h-9.152q-.408 0-.688-.28-.279-.28-.279-.687 0-.408.28-.688.279-.28.687-.28h.43q-1.44-1.632-1.44-3.845 0-1.998 1.418-2.9 1.396-.924 4.146-.924h4.598q.408 0 .688.28.279.279.279.687 0 .408-.28.687-.279.28-.687.28zm-5.414-9.69q0-1.912 1.268-3.351h-.086q-.409 0-.688-.258-.28-.28-.28-.688 0-.408.28-.687.28-.301.688-.301h8.765q.408 0 .688.3.279.28.279.688 0 .408-.28.688-.279.258-.687.258h-.086q1.268 1.439 1.268 3.351 0 2.213-1.633 3.781-1.654 1.547-3.932 1.547-2.277 0-3.91-1.547-1.654-1.568-1.654-3.78zm2.986-2.363q-1.052.988-1.052 2.363t1.052 2.385q1.053 1.01 2.578 1.01 1.526 0 2.579-1.01 1.052-1.01 1.052-2.385 0-1.375-1.052-2.363-1.053-.988-2.579-.988-1.525 0-2.578.988zm87.596 273.373h5.564q2.836 0 4.877 2.277 2.063 2.256 2.063 5.608 0 3.33-1.89 5.478-1.87 2.149-4.62 2.149h-5.994q-.408 0-.687-.28-.28-.279-.28-.687v-13.578q0-.408.28-.688.279-.28.687-.28zm.967 1.934v11.644h5.027q2.02 0 3.287-1.482 1.29-1.504 1.29-4.211 0-2.621-1.526-4.276-1.504-1.675-3.48-1.675zm18.562-2.364q0 .237-.129.473l-1.74 3.05q-.28.495-.838.495-.408 0-.687-.28-.28-.279-.28-.687 0-.28.13-.494l1.74-3.05q.279-.474.838-.474.408 0 .687.28.28.279.28.687zm-2.148 6.059v9.045q0 .408-.3.687-.28.28-.688.28-.409 0-.688-.28-.258-.28-.258-.687v-9.045q0-.408.258-.688.28-.279.688-.279.408 0 .687.28.3.279.3.687zm7.928-1.053q1.912 0 3.351 1.268v-.086q0-.408.258-.688.28-.279.687-.279.409 0 .688.28.3.279.3.687v8.765q0 .409-.3.688-.28.28-.688.28-.408 0-.687-.28-.258-.28-.258-.688v-.085q-1.44 1.267-3.351 1.267-2.213 0-3.782-1.633-1.547-1.654-1.547-3.931 0-2.278 1.547-3.91 1.569-1.655 3.782-1.655zm2.363 2.986q-.988-1.052-2.363-1.052t-2.385 1.052q-1.01 1.053-1.01 2.579 0 1.525 1.01 2.578 1.01 1.052 2.385 1.052 1.375 0 2.363-1.052.988-1.053.988-2.578 0-1.526-.988-2.579zM142.24 362q-.666 0-1.676-.3-1.01-.302-1.89-.882-.86-.58-.86-1.224 0-.43.28-.688.3-.279.709-.279.343 0 .644.258.666.601 1.268.902.623.28 1.525.28 2.45 0 2.45-1.311 0-.322-.258-.58-.258-.28-.71-.451-.429-.172-.837-.28-.387-.129-.817-.215-.15-.021-.214-.043-1.612-.386-2.6-1.138-.967-.774-.967-2.213 0-1.483 1.225-2.213 1.224-.752 2.814-.752 1.139 0 2.578.602 1.461.601 1.461 1.46 0 .409-.28.688-.278.28-.665.28-.344 0-.559-.151-.086-.065-.3-.193-.215-.15-.301-.194-.065-.064-.258-.172-.172-.107-.28-.129-.085-.043-.279-.107-.172-.064-.322-.086-.15-.021-.365-.043-.194-.021-.43-.021-.709 0-1.418.257-.687.258-.687.774 0 .322.086.558.107.215.386.366.28.15.43.215.15.064.645.193l.687.172q2.256.666 3.201 1.396.967.71.967 2.041 0 .903-.408 1.569-.408.666-1.096 1.01-.666.343-1.375.494-.709.15-1.504.15zm20.733-15.576q.279-.28.687-.28.408 0 .688.28.279.28.279.687v13.922q0 .408-.28.688-.279.279-.687.279-.408 0-.687-.28-.28-.279-.28-.687v-.28q-1.46 1.247-3.308 1.247-2.17 0-3.717-1.633-1.525-1.654-1.525-3.931 0-2.278 1.525-3.91 1.547-1.655 3.717-1.655 1.847 0 3.308 1.246v-5.006q0-.408.28-.687zm-1.246 7.433q-.967-1.052-2.342-1.052t-2.342 1.052q-.967 1.053-.967 2.579 0 1.525.967 2.578.967 1.052 2.342 1.052t2.342-1.052q.966-1.053.966-2.578 0-1.526-.966-2.579zm15.403 2.256q0 .408-.278.688-.28.28-.688.28h-7.068q.215 1.288 1.138 2.148.924.837 2.149.837 1.224 0 1.762-.193.537-.193 1.074-.687.279-.237.623-.237.43 0 .687.28.28.279.28.687 0 .451-.323.73-1.568 1.354-4.103 1.354-2.192 0-3.738-1.633-1.547-1.654-1.547-3.931 0-2.278 1.547-3.91 1.546-1.655 3.738-1.655 2.234 0 3.48 1.568 1.268 1.569 1.268 3.674zm-7.884-.967h5.844q-.236-1.03-.988-1.675-.73-.666-1.72-.666-1.052 0-1.911.644-.86.645-1.225 1.697zm20.152 4.92q.409 0 .688.28.28.279.28.687 0 .408-.28.688-.28.279-.688.279-.945 0-1.632-.172-.666-.15-1.14-.537-.45-.408-.73-.88-.279-.495-.43-1.311-.128-.838-.171-1.655-.043-.816-.043-2.084v-8.25q0-.408.28-.687.279-.28.687-.28.408 0 .687.28.28.28.28.687v10.184q.021.537.085 1.203.086.645.194.86.107.193.387.43.279.214.623.257.343.021.923.021zm7.241-9.195q1.912 0 3.351 1.268v-.086q0-.408.258-.688.28-.279.688-.279.408 0 .687.28.3.279.3.687v8.765q0 .409-.3.688-.28.28-.687.28-.409 0-.688-.28-.258-.28-.258-.688v-.085Q198.55 362 196.64 362q-2.213 0-3.782-1.633-1.546-1.654-1.546-3.931 0-2.278 1.546-3.91 1.569-1.655 3.782-1.655zm2.363 2.986q-.988-1.052-2.363-1.052t-2.385 1.052q-1.01 1.053-1.01 2.579 0 1.525 1.01 2.578 1.01 1.052 2.385 1.052 1.375 0 2.363-1.052.988-1.053.988-2.578 0-1.526-.988-2.579zM213.826 362q-.666 0-1.676-.3-1.01-.302-1.89-.882-.86-.58-.86-1.224 0-.43.28-.688.3-.279.709-.279.343 0 .644.258.666.601 1.268.902.623.28 1.525.28 2.45 0 2.45-1.311 0-.322-.258-.58-.258-.28-.71-.451-.43-.172-.837-.28-.387-.129-.817-.215-.15-.021-.215-.043-1.61-.386-2.6-1.138-.966-.774-.966-2.213 0-1.483 1.225-2.213 1.224-.752 2.814-.752 1.139 0 2.578.602 1.461.601 1.461 1.46 0 .409-.28.688-.278.28-.665.28-.344 0-.559-.151-.086-.065-.3-.193-.215-.15-.301-.194-.065-.064-.258-.172-.172-.107-.28-.129-.085-.043-.279-.107-.172-.064-.322-.086-.15-.021-.365-.043-.194-.021-.43-.021-.709 0-1.418.257-.687.258-.687.774 0 .322.086.558.107.215.386.366.28.15.43.215.15.064.644.193l.688.172q2.256.666 3.201 1.396.967.71.967 2.041 0 .903-.408 1.569-.408.666-1.096 1.01-.666.343-1.375.494-.709.15-1.504.15zm16.221-5.887q0 .408-.28.688-.279.28-.687.28h-7.068q.215 1.288 1.138 2.148.924.837 2.149.837 1.224 0 1.762-.193.537-.193 1.074-.687.28-.237.623-.237.43 0 .687.28.28.279.28.687 0 .451-.323.73Q227.834 362 225.3 362q-2.192 0-3.738-1.633-1.547-1.654-1.547-3.931 0-2.278 1.547-3.91 1.546-1.655 3.738-1.655 2.234 0 3.48 1.568 1.268 1.569 1.268 3.674zm-7.885-.967h5.844q-.236-1.03-.988-1.675-.73-.666-1.72-.666-1.052 0-1.911.644-.86.645-1.225 1.697zm15.727-2.341q-1.547 0-2.514 1.052-.945 1.032-.945 2.579v4.597q0 .408-.28.688-.279.279-.687.279-.408 0-.688-.28-.279-.279-.279-.687v-9.152q0-.408.28-.688.279-.279.687-.279.408 0 .687.28.28.279.28.687v1.01q.515-.86 1.46-1.44.946-.58 1.999-.58 2.363 0 3.18 1.697 1.482-1.697 3.802-1.697 1.074 0 1.805.43.73.408 1.074 1.224.365.795.494 1.72.15.923.15 2.19v4.598q0 .408-.279.688-.28.279-.687.279-.408 0-.688-.28-.28-.279-.28-.687v-4.877q0-.86-.042-1.353-.043-.494-.193-1.01-.13-.516-.473-.752-.344-.236-.88-.236-1.57 0-2.515.966-.945.967-.945 2.622v4.64q0 .387-.28.688-.279.279-.687.279-.408 0-.687-.28-.28-.279-.28-.687v-5.092q0-.709-.064-1.181-.043-.494-.193-.967-.15-.494-.495-.73-.322-.258-.837-.258zm18.304-1.934q1.912 0 3.352 1.268v-.086q0-.408.258-.688.279-.279.687-.279.408 0 .688.28.3.279.3.687v8.765q0 .409-.3.688-.28.28-.688.28-.408 0-.687-.28-.258-.28-.258-.688v-.085q-1.44 1.267-3.352 1.267-2.213 0-3.78-1.633-1.548-1.654-1.548-3.931 0-2.278 1.547-3.91 1.568-1.655 3.781-1.655zm2.364 2.986q-.989-1.052-2.364-1.052t-2.384 1.052q-1.01 1.053-1.01 2.579 0 1.525 1.01 2.578 1.01 1.052 2.384 1.052 1.375 0 2.364-1.052.988-1.053.988-2.578 0-1.526-.988-2.579zm13.019 2.428q0-.494-.021-.795 0-.322-.065-.773-.043-.473-.172-.774-.129-.3-.322-.601t-.537-.43q-.322-.15-.774-.15-1.568 0-2.707 1.095-1.138 1.096-1.138 2.536v4.597q0 .408-.28.688-.279.279-.687.279-.408 0-.688-.28-.279-.279-.279-.687v-9.152q0-.408.28-.688.279-.279.687-.279.408 0 .687.28.28.279.28.687v.43q1.633-1.44 3.845-1.44 1.999 0 2.9 1.418.925 1.397.925 4.147v4.597q0 .408-.28.688-.279.279-.687.279-.408 0-.688-.28-.279-.279-.279-.687zm9.69-5.414q1.912 0 3.351 1.268v-.086q0-.408.258-.688.28-.279.688-.279.408 0 .687.28.3.279.3.687v8.765q0 .409-.3.688-.28.28-.688.28-.408 0-.687-.28-.258-.28-.258-.688v-.085q-1.44 1.267-3.351 1.267-2.213 0-3.782-1.633-1.546-1.654-1.546-3.931 0-2.278 1.546-3.91 1.569-1.655 3.782-1.655zm2.363 2.986q-.988-1.052-2.363-1.052t-2.385 1.052q-1.01 1.053-1.01 2.579 0 1.525 1.01 2.578 1.01 1.052 2.385 1.052 1.375 0 2.363-1.052.988-1.053.988-2.578 0-1.526-.988-2.579zm-173.952-32.128q.228-.229.562-.229.334 0 .563.229.228.228.228.562v10.389h5.73q.335 0 .563.228.229.229.229.563 0 .334-.229.562-.228.229-.562.229h-6.522q-.334 0-.562-.229-.229-.228-.229-.562v-11.18q0-.334.229-.562zm41.024-.071l4.781 6.733 4.817-6.733q.246-.334.633-.334.334 0 .562.229.246.228.246.562v11.356q0 .334-.246.562-.228.229-.562.229-.334 0-.563-.229-.21-.228-.21-.562v-8.895l-4.009 5.625q-.246.334-.668.334-.386 0-.632-.334l-4.008-5.625v8.895q0 .334-.246.562-.229.229-.563.229-.334 0-.562-.229-.211-.228-.211-.562v-11.356q0-.334.21-.562.23-.229.563-.229.422 0 .668.334zm42.528-.334q.404 0 .632.317l3.639 4.834 3.639-4.834q.228-.317.632-.317.334 0 .563.229.228.228.228.562 0 .264-.158.475l-3.92 5.203 3.92 5.203q.159.211.159.475 0 .334-.229.562-.229.229-.563.229-.404 0-.632-.317l-3.639-4.834-3.639 4.834q-.228.317-.632.317-.334 0-.563-.229-.228-.228-.228-.562 0-.264.158-.475l3.92-5.203-3.92-5.203q-.159-.211-.159-.475 0-.334.229-.562.229-.229.563-.229zm49.374.018q.334 0 .562.228.229.229.229.563v7.787q0 1.723-1.16 3.04-1.143 1.302-2.76 1.302-.967 0-1.758-.317-.791-.334-1.23-.773-.423-.457-.651-.844-.229-.404-.229-.65 0-.317.211-.545.211-.246.58-.246.457 0 .686.404.44.809 1.002 1.107.58.282 1.389.282 1.002 0 1.67-.897.668-.896.668-1.863v-6.996h-2.514q-.334 0-.563-.229-.228-.228-.228-.562 0-.334.228-.563.229-.228.563-.228zm34.054-.035q.51 0 .72.474l4.114 9.668 4.131-9.668q.211-.474.72-.474.352 0 .563.246.229.228.229.545 0 .175-.053.316l-4.851 11.373q-.211.475-.739.475-.51 0-.72-.475l-4.852-11.373q-.053-.14-.053-.316 0-.317.211-.545.229-.246.58-.246z"/><path d="M97.5 45v268H388" fill="none" stroke="#000" stroke-width="5"/><path d="M49.498 48.275q-.264.176-.51.176-.44 0-.738-.299-.281-.298-.281-.72 0-.58.457-.88 1.37-.93 3.006-1.88.316-.158.632-.158.493 0 .809.298.334.3.334.739v9.597h1.336q.422 0 .703.317.299.316.299.773t-.299.774q-.281.316-.703.316h-5.08q-.422 0-.72-.316-.282-.317-.282-.774t.281-.773q.299-.317.72-.317h1.407V47.45q-1.178.703-1.371.826zm10.248-3.199q.967-.597 2.233-.597 1.265 0 2.214.597.967.58 1.495 1.565.527.966.773 2.074.246 1.09.246 2.285t-.246 2.303q-.246 1.09-.773 2.074-.528.967-1.495 1.564-.949.58-2.214.58-1.266 0-2.233-.58-.95-.597-1.476-1.564-.528-.984-.774-2.074-.246-1.108-.246-2.303 0-1.195.246-2.285.246-1.108.774-2.074.527-.985 1.476-1.565zm3.533 2.004q-.545-.422-1.3-.422-.756 0-1.319.422-.545.404-.844 1.09-.28.668-.421 1.389-.124.703-.124 1.441 0 .738.124 1.459.14.703.421 1.389.3.668.844 1.09.563.404 1.319.404.755 0 1.3-.404.563-.422.844-1.09.299-.686.422-1.389.14-.72.14-1.459 0-.738-.14-1.441-.123-.721-.422-1.39-.281-.685-.844-1.089zm7.261-2.004q.966-.597 2.231-.597 1.266 0 2.215.597.967.58 1.494 1.565.528.966.774 2.074.246 1.09.246 2.285t-.246 2.303q-.246 1.09-.774 2.074-.527.967-1.494 1.564-.949.58-2.215.58-1.265 0-2.232-.58-.95-.597-1.477-1.564-.527-.984-.773-2.074-.246-1.108-.246-2.303 0-1.195.246-2.285.246-1.108.773-2.074.528-.985 1.477-1.565zm3.532 2.004q-.545-.422-1.3-.422-.756 0-1.319.422-.545.404-.844 1.09-.28.668-.421 1.389-.124.703-.124 1.441 0 .738.124 1.459.14.703.421 1.389.3.668.844 1.09.563.404 1.318.404.756 0 1.301-.404.563-.422.844-1.09.299-.686.422-1.389.14-.72.14-1.459 0-.738-.14-1.441-.123-.721-.422-1.39-.281-.685-.844-1.089zM58.99 97.498q1.196-1.002 2.989-1.002 1.792 0 2.988 1.002 1.195 1.002 1.195 2.725 0 1.564-1.037 2.601 1.441 1.143 1.441 2.848 0 1.74-1.388 2.777-1.389 1.037-3.2 1.037-1.81 0-3.199-1.037-1.388-1.037-1.388-2.777 0-1.705 1.441-2.848-1.02-1.02-1.02-2.601 0-1.723 1.178-2.725zm4.518 1.617q-.563-.44-1.53-.44-.966 0-1.529.44-.562.422-.562 1.125 0 .739.58 1.143t1.512.404q.931 0 1.511-.404.598-.404.598-1.143 0-.703-.58-1.125zm.176 5.326q-.862-.421-1.705-.421-.844 0-1.706.421-.86.422-.86 1.213 0 .809.825 1.23.844.423 1.74.423.897 0 1.723-.422.844-.422.844-1.23 0-.792-.861-1.214zm6.856-7.365q.966-.597 2.231-.597 1.266 0 2.215.597.967.58 1.494 1.565.528.966.774 2.074.246 1.09.246 2.285t-.246 2.303q-.246 1.09-.774 2.074-.527.967-1.494 1.564-.949.58-2.215.58-1.265 0-2.232-.58-.95-.597-1.477-1.564-.527-.984-.773-2.074-.246-1.108-.246-2.303 0-1.195.246-2.285.246-1.108.773-2.074.528-.985 1.477-1.565zm3.532 2.004q-.545-.422-1.3-.422-.756 0-1.319.422-.545.404-.844 1.09-.28.668-.421 1.389-.124.703-.124 1.441 0 .738.124 1.459.14.703.421 1.389.3.668.844 1.09.563.404 1.318.404.756 0 1.301-.405.563-.421.844-1.09.299-.685.422-1.388.14-.72.14-1.459 0-.738-.14-1.441-.123-.721-.422-1.39-.281-.685-.844-1.089zm-9.879 51.411q-3.005.703-4.166 3.041.95-.633 2.022-.633 2.004 0 3.287 1.248 1.3 1.23 1.3 3.06 0 1.827-1.318 3.058-1.318 1.23-3.34 1.23-2.039 0-3.357-1.371-1.3-1.389-1.3-3.234 0-1.987.492-3.498.51-1.512 1.423-2.461.914-.967 1.97-1.53 1.071-.58 2.442-.914.088-.017.264-.017.492 0 .791.299.317.298.317.72 0 .352-.229.633-.228.281-.598.37zm-2.214 8.824q1.177 0 1.898-.562.738-.563.738-1.547 0-1.107-.756-1.617-.755-.51-1.775-.51-1.037 0-1.793.633t-.756 1.494q0 .95.738 1.53.739.58 1.706.58zm8.561-10.23q.966-.598 2.231-.598 1.266 0 2.215.598.967.58 1.494 1.564.528.967.774 2.075.246 1.09.246 2.285t-.246 2.303q-.246 1.09-.774 2.074-.527.967-1.494 1.564-.949.58-2.215.58-1.265 0-2.232-.58-.95-.597-1.477-1.564-.527-.985-.773-2.074-.246-1.108-.246-2.303 0-1.196.246-2.285.246-1.108.773-2.075.528-.984 1.477-1.564zm3.532 2.004q-.545-.422-1.3-.422-.756 0-1.319.422-.545.404-.844 1.09-.28.668-.421 1.388-.124.704-.124 1.442t.124 1.459q.14.703.421 1.388.3.668.844 1.09.563.405 1.318.405.756 0 1.301-.405.563-.422.844-1.09.299-.685.422-1.388.14-.72.14-1.46 0-.737-.14-1.44-.123-.721-.422-1.39-.281-.685-.844-1.09zM63.104 212.45v-2.409H57.97q-.44 0-.739-.299-.28-.299-.28-.756 0-.404.21-.668l6.188-7.418q.298-.386.86-.386.458 0 .774.316.317.299.317.738v6.293h.685q.44 0 .721.317.299.316.299.773t-.299.774q-.281.316-.72.316H65.3v2.408q0 .422-.317.72-.316.282-.773.282t-.791-.281q-.316-.299-.316-.72zm-2.883-4.589h2.883v-3.463zm10.319-6.785q.966-.597 2.231-.597 1.266 0 2.215.597.967.58 1.494 1.565.528.966.774 2.074.246 1.09.246 2.285t-.246 2.303q-.246 1.09-.774 2.074-.527.967-1.494 1.564-.949.58-2.215.58-1.265 0-2.232-.58-.95-.597-1.477-1.564-.527-.984-.773-2.074-.246-1.108-.246-2.303 0-1.195.246-2.285.246-1.108.773-2.074.528-.985 1.477-1.565zm3.532 2.004q-.545-.422-1.3-.422-.756 0-1.319.422-.545.404-.844 1.09-.28.668-.421 1.389-.124.703-.124 1.441 0 .738.124 1.459.14.703.421 1.389.3.668.844 1.09.563.404 1.318.404.756 0 1.301-.405.563-.421.844-1.09.299-.685.422-1.388.14-.72.14-1.459 0-.738-.14-1.441-.123-.721-.422-1.39-.281-.685-.844-1.089zm-7.787 53.143q0 .527-.193 1.02-.194.491-.457.843-.264.334-.72.72-.44.37-.792.598-.334.211-.879.545-.527.334-.773.51-.053.035-.405.281-.351.229-.439.3-.088.052-.387.28-.299.211-.422.317l-.334.334q-.228.21-.351.369-.123.158-.264.387-.14.21-.246.439h5.941q.422 0 .704.316.298.317.298.774t-.298.773q-.282.317-.704.317h-7.171q-.422 0-.721-.3-.281-.298-.281-.737 0-.791.228-1.512.229-.738.58-1.266.352-.527.88-1.054.544-.528 1.001-.862.475-.351 1.09-.738.018-.018.598-.37.58-.35.843-.527.282-.193.721-.527.457-.334.668-.615.21-.281.21-.51 0-.79-.65-1.23-.632-.457-1.581-.457-.756 0-1.512.386-.756.387-1.178 1.02-.387.598-.896.598-.457 0-.739-.334-.263-.352-.263-.756 0-1.23 1.582-2.162 1.582-.932 3.006-.932 1.916 0 3.11 1.09 1.196 1.09 1.196 2.672zm4.255-3.129q.966-.598 2.231-.598 1.266 0 2.215.598.967.58 1.494 1.564.528.967.774 2.074.246 1.09.246 2.286 0 1.195-.246 2.302-.246 1.09-.774 2.075-.527.966-1.494 1.564-.949.58-2.215.58-1.265 0-2.232-.58-.95-.598-1.477-1.564-.527-.985-.773-2.075-.246-1.107-.246-2.302 0-1.196.246-2.286.246-1.107.773-2.074.528-.984 1.477-1.564zm3.532 2.004q-.545-.422-1.3-.422-.756 0-1.319.422-.545.404-.844 1.09-.28.667-.421 1.388-.124.703-.124 1.442 0 .738.124 1.459.14.703.421 1.388.3.668.844 1.09.563.404 1.318.404.756 0 1.301-.404.563-.422.844-1.09.299-.685.422-1.388.14-.721.14-1.46 0-.738-.14-1.44-.123-.722-.422-1.39-.281-.685-.844-1.09zm253.541 67.808q.211.246.211.528 0 .334-.228.562-.229.229-.563.229-.369 0-.58-.246-.264-.282-.404-.405-.14-.123-.492-.334-.352-.228-.862-.316t-1.195-.088q-1.16 0-1.934.527-.755.51-.755 1.53 0 .86.773 1.388.773.528 2.057.703 4.412.65 4.412 3.639 0 1.178-.721 2.04-.703.843-1.705 1.23-1.002.369-2.127.369-2.531 0-4.324-1.793-.229-.229-.229-.563 0-.334.229-.562.246-.229.562-.229.334 0 .563.229.474.474.756.703.28.21.914.422.65.21 1.529.21 1.16 0 2.057-.527.914-.545.914-1.529 0-.527-.282-.914-.28-.404-.826-.633-.545-.228-.967-.334-.421-.105-1.037-.21-1.863-.3-3.005-1.178-1.125-.897-1.125-2.461 0-1.723 1.248-2.672 1.265-.967 3.023-.967 2.566 0 4.113 1.652zm33.167-1.336h4.553q2.32 0 3.99 1.864 1.688 1.845 1.688 4.587 0 2.725-1.547 4.483-1.53 1.758-3.78 1.758h-4.904q-.334 0-.562-.229-.229-.228-.229-.562v-11.11q0-.334.229-.562.228-.229.562-.229zm.791 1.582v9.528h4.114q1.652 0 2.689-1.213 1.055-1.23 1.055-3.446 0-2.144-1.248-3.498-1.23-1.37-2.848-1.37z"/><path d="M163 181a7.5 7.5 0 01-7.5 7.5 7.5 7.5 0 01-7.5-7.5 7.5 7.5 0 017.5-7.5 7.5 7.5 0 017.5 7.5zm-42 26a7.5 7.5 0 01-7.5 7.5 7.5 7.5 0 01-7.5-7.5 7.5 7.5 0 017.5-7.5 7.5 7.5 0 017.5 7.5zm84-52a7.5 7.5 0 01-7.5 7.5 7.5 7.5 0 01-7.5-7.5 7.5 7.5 0 017.5-7.5 7.5 7.5 0 017.5 7.5zm42 78a7.5 7.5 0 01-7.5 7.5 7.5 7.5 0 01-7.5-7.5 7.5 7.5 0 017.5-7.5 7.5 7.5 0 017.5 7.5zm42-26a7.5 7.5 0 01-7.5 7.5 7.5 7.5 0 01-7.5-7.5 7.5 7.5 0 017.5-7.5 7.5 7.5 0 017.5 7.5zm42 52a7.5 7.5 0 01-7.5 7.5 7.5 7.5 0 01-7.5-7.5 7.5 7.5 0 017.5-7.5 7.5 7.5 0 017.5 7.5zm42 54a7.5 7.5 0 01-7.5 7.5 7.5 7.5 0 01-7.5-7.5 7.5 7.5 0 017.5-7.5 7.5 7.5 0 017.5 7.5z" fill="#27ae60"/></svg>