<svg height="36" width="36" xmlns="http://www.w3.org/2000/svg"><path d="M16.91 31.7l17.16-17.224a3.197 3.197 0 000-4.511L28 3.875A3.123 3.123 0 0026.293 3s-2.777.147-5.46.453c-.824.094-1.512.562-1.992 1.044L1.93 21.47a3.196 3.196 0 000 4.51l6.068 6.09c.597.6 1.393.93 2.24.93.066 0 4.096-.08 4.138-.082.203-.019.691-.075.691-.075h18.716c.731 0 .731-1.143 0-1.143zm-1.196-.606a1.904 1.904 0 01-2.696 0l-6.069-6.09a1.919 1.919 0 010-2.707l8.644-8.675 8.74 8.822zm7.477-26.73l1.715-.14-9.339 9.373-1.43-.145zM2.829 25.08a1.92 1.92 0 010-2.708l9.13-9.163 2.03.218-7.94 7.968a3.196 3.196 0 000 4.51l5.77 5.79-.265.005H9.991c-.417 0-.8-.237-1.094-.532z"/></svg>