<svg height="36" width="36" xmlns="http://www.w3.org/2000/svg"><path d="M2 34l1.896-9.986c.063-.333.248-.634.502-.889L24.92 2.586a2.003 2.003 0 012.833 0l5.661 5.663c.781.782.781 2.05 0 2.831L12.892 31.617c-.255.255-.556.44-.89.503zm5.115-2.994a11.12 11.12 0 00-2.104-2.104l-.539 2.643zm-1.106-6.994l-.785 3.83a12.082 12.082 0 012.95 2.95l3.83-.786a10.957 10.957 0 00-5.994-5.994zM27.043 4.696a1 1 0 00-1.414 0L6.98 23.342c.656.315 1.282.69 1.87 1.12l18.98-18.98zm1.493 1.493L9.64 25.082c.464.398.896.83 1.295 1.295L29.827 7.481zm2.753 2.753l-.754-.754-18.979 18.98c.415.576.791 1.178 1.101 1.824l18.632-18.634a1 1 0 000-1.416z"/></svg>