<svg height="36" width="36" xmlns="http://www.w3.org/2000/svg"><path d="M9.129 1c-.55 0-1.079.217-1.467.605L1.605 7.662a2.075 2.075 0 000 2.932l23.801 23.8c.404.405.935.606 1.465.606a2.07 2.07 0 001.467-.605l6.057-6.057A2.07 2.07 0 0035 26.87c0-.53-.202-1.06-.605-1.463L10.592 1.605A2.07 2.07 0 009.129 1zm0 1.38c.178 0 .354.066.488.2L33.42 26.385a.686.686 0 01.2.486c0 .183-.07.36-.2.49L27.36 33.42c-.13.13-.307.2-.49.2a.685.685 0 01-.486-.2l-1.356-1.356 2.356-2.357c.65-.651-.328-1.626-.979-.975l-2.353 2.356-1.178-1.178.934-.933c.65-.651-.326-1.628-.977-.977l-.934.934-1.177-1.178 2.355-2.356c.65-.65-.326-1.626-.976-.974l-2.356 2.353-1.178-1.175.936-.934c.65-.65-.326-1.627-.977-.977l-.933.934-1.178-1.178 2.356-2.355c.65-.65-.326-1.627-.977-.977l-2.355 2.356-1.178-1.176.933-.936c.651-.65-.324-1.625-.974-.974l-.936.933-1.176-1.177 2.356-2.356c.65-.65-.326-1.627-.977-.976l-2.355 2.355-1.178-1.178.934-.933c.65-.651-.326-1.628-.977-.977l-.933.934L7.8 14.836l2.353-2.356c.651-.65-.324-1.627-.974-.976l-2.356 2.355-4.256-4.255a.656.656 0 01-.187-.475c0-.183.07-.36.2-.49L8.64 2.58c.133-.133.31-.2.488-.2zm-1.4 3.391a1.957 1.957 0 100 3.915 1.957 1.957 0 000-3.915zm0 1.381a.577.577 0 11-.002 1.154.577.577 0 01.002-1.154z"/></svg>