<svg width="304" height="228" xmlns="http://www.w3.org/2000/svg"><defs><clipPath id="c"><path d="M0 0h34v25H0z"/></clipPath><clipPath id="d"><path d="M0 0h34v25H0z"/></clipPath><g id="a" clip-path="url(#c)" fill="#fff"><path d="M51.832 13.926H19.5V25h32.332zm-34 0H-14.5V25h32.332zM34 1.426H1.668V12.5H34zm0 0"/></g><g id="b" clip-path="url(#d)" fill="#fff"><path d="M51.832 13.926H19.5V25h32.332zm-34 0H-14.5V25h32.332zM34 1.426H1.668V12.5H34zm0 0"/></g></defs><path fill="#99daed" d="M0 0h304v228H0z"/><path fill="#43d2aa" d="M0 178h304v50H0z"/><ellipse cx="215.049" cy="206.983" rx="44" ry="6" fill-opacity=".2"/><ellipse cx="117.44" cy="209.214" rx="44" ry="6" fill-opacity=".2"/><path d="M86.823 93.1c-.59 8.008-7.51 36.662-6.99 43.008.52 6.347 32.497 2.005 39.19.164 6.688-1.84 9.569-38.566.8-47.043-6.202-5.996-32.44-3.711-33 3.871z" fill="#f06851"/><path d="M134.286 145.733s-2.669 4.399-1.226 4.743c1.442.347 2.996-.924 2.996-.924s.367 5.677 2.012 6.018c1.65.341 1.043-4.327 1.043-4.327s.796 4.353 2.117 4.193c1.318-.158.512-4.714.512-4.714s1.711 4.212 2.796 3.35c1.085-.862-.724-6.09-.724-6.09l-6.094-21.478c-3.99-.974-8.17-1.295-12.382-1.21 3.643 6.522 6.193 13.518 8.95 20.439z" fill="#f8bfb8"/><path d="M120.052 115.155c1.292 2.324 3.396 6.409 5.284 10.139 4.213-.085 8.389.236 12.382 1.21a3056.09 3056.09 0 01-1.702-6.003c-1.603-5.333-3.35-9.503-5.074-12.758-3.281 4.77-8.123 5.412-10.89 7.412z" fill="#eb9994"/><path d="M124.186 200.548c6.907 1.272 14.115-4.107 14.115-4.107.121-2.606-1.881-10.572-3.386-16.138-4.34 3.865-9.972 6.648-15.627 8.379z" fill="#f8bfb8"/><path d="M115.83 180.306l3.458 8.376c5.655-1.731 11.287-4.514 15.627-8.379a332.28 332.28 0 00-1.61-5.75zm0 0" fill="#eb9994"/><path d="M149.824 198.031c-6.175 4.88-23.215 9.563-23.215 9.563.292.545.495.857.495.857s2.367-.254 7.412-1.275 10.582-3.69 13.404-5.457c2.796-1.75 1.92-3.652 1.904-3.688z" fill="#382e8f"/><path d="M142.009 203.698c-.154-2.481.2-5.005 1.14-7.487 2.744.033 5.803.41 6.675 1.82.839 1.357-2.872 3.658-7.815 5.667z" fill="#382e8f"/><path d="M138.301 196.441s2.288-.262 4.848-.23a17.862 17.862 0 00-1.14 7.487c-5.01 2.033-11.277 3.76-15.368 3.892 0 0-2.206-3.855-2.455-7.042 0 0 7.156.695 14.115-4.107z" fill="#f06851"/><path d="M139.42 191.668c-.12 0-.253.022-.4.066-1.872.563-.187 4.389.236 5.487.146.373.687.23.687-.1 1.287-.64 3.552-2.304 2.272-3.781-.41-.476-1.21-.128-1.541.262-.1.117-.193.241-.28.369.069-1.217-.107-2.304-.974-2.303zm-.14.555c.603-.093.505 2.289.47 2.533-.059.413-.14.82-.225 1.224-.125-.342-.24-.69-.341-1.04-.164-.562-.692-1.984-.207-2.512.117-.128.216-.192.302-.205zm2.23 1.533c.293.009.483.334.385.705-.253.946-1.09 1.62-1.903 2.174.11-.624.348-1.263.551-1.768.134-.333.345-.799.646-1.006a.543.543 0 01.32-.105z" fill="#382e8f"/><path d="M86.669 202.007c6.002 3.652 14.652 1.193 14.652 1.193 1.036-2.396 2.007-10.549 2.58-16.288-5.428 2.068-11.683 2.661-17.586 2.265z" fill="#f8bfb8"/><path d="M86.022 178.116l.293 11.06c5.903.397 12.158-.196 17.59-2.264.337-3.397.54-5.944.54-5.944z" fill="#eb9994"/><path d="M89.984 207.58c-3.292.075-1.333 2.7-3.562 1.879.078.611.154.973.154.973s2.304.607 7.381 1.449c5.079.843 11.203.322 14.47-.324 3.266-.646 3.096-2.772 3.096-2.772s-14.533-1.227-21.539-1.205z" fill="#382e8f"/><path d="M102.2 211.3a17.805 17.805 0 013.73-6.589c2.554 1.007 5.278 2.45 5.593 4.075.298 1.567-3.99 2.396-9.323 2.514z" fill="#382e8f"/><path d="M101.321 203.2s2.233.567 4.61 1.511a17.851 17.851 0 00-3.731 6.59c-5.406.114-11.876-.502-15.748-1.84 0 0-.685-4.386.217-7.454 0 0 6.44 3.2 14.652 1.193z" fill="#f06851"/><path d="M101.934 204.266c.004.403.566.463.681.15 1.43-.138 4.137-.889 3.465-2.725-.213-.59-1.083-.546-1.53-.3-.136.075-.269.158-.396.248.567-1.27.78-2.547-.534-2.588-1.894-.06-1.69 4.057-1.686 5.215zm1.734-4.666c.737-.026-.268 2.316-.393 2.54a18.95 18.95 0 01-.646 1.063c.007-.365.022-.73.05-1.094.047-.584.062-2.102.702-2.42a.727.727 0 01.287-.09zm1.457 2.199c.394.02.519.466.258.828-.572.794-1.594 1.126-2.551 1.353.33-.545.77-1.056 1.14-1.453.248-.264.607-.626.967-.71a.652.652 0 01.186-.018z" fill="#382e8f"/><path d="M147.886 49.286l-.013.137s.007-.055.013-.137m-92.939-7.54c-1.626.09-2.62 10.726 1.075 25.628 1.023 4.127 2.501 8.457 4.229 12.683 5.107 1.57 10.345 2.324 15.607 2.373-2.81-4.36-7.524-12.398-9.576-20.081-1.714-6.415-1.698-7.573-1.698-7.573s4.101-6.615 2.128-8.12c-1.967-1.5-2.492 2.125-2.492 2.125s-.213-8.16-2.068-8.074c-1.855.085-.928 7.058-.928 7.058s-1.154-7.445-3.012-7.127c-1.721.295-.872 6.897-.735 7.894-.13-.941-1.035-6.868-2.53-6.786z" fill="#f8bfb8"/><path d="M75.562 105.445l2.521-19.714s-.904-1.246-2.225-3.3c-5.262-.05-10.5-.804-15.607-2.374 3.063 9.344 8.308 18.874 15.311 25.388z" fill="#eb9994"/><path d="M77.231 66.42l-.016-5.628c-3.993-2.128-9.045-1.875-12.785.76.607 3.976 4.753 7.845 12.801 4.868z" fill="#f8bfb8"/><path d="M64.43 61.552c3.74-2.635 8.792-2.888 12.785-.76l-.007-3.878s-5.225-4.045-10.434-1.016c-1.888 1.094-2.688 3.392-2.344 5.654z" fill="#eb9994"/><path d="M74.912 60.95c-.805-.991-2.06-1.278-3.355-1.255-1.144.021-2.32.284-3.246.516-.085.02-.066.15.02.15 2.205.003 4.864-1.015 6.474 1.09.32.419.519.907.644 1.428-.933-1.16-2.338-1.798-3.715-.703-.167.13.046.352.213.273.891-.41 1.654-.525 2.45.131.52.43.97.813 1.232 1.56.05.715.037 1.434.058 2.077.01.3.458.3.465 0 .015-.648.03-1.32-.073-2.18-.15-1.251-.488-2.252-1.167-3.088z" fill="#8c4c4c"/><path d="M135.23 66.289l-.01-5.628c3.986-2.148 9.034-1.918 12.79.701-.586 3.98-4.716 7.864-12.78 4.927z" fill="#f8bfb8"/><path d="M148.01 61.362c-3.756-2.62-8.804-2.849-12.793-.701l-.007-3.878s5.209-4.068 10.43-1.07c1.895 1.093 2.702 3.384 2.37 5.649z" fill="#eb9994"/><path d="M136.31 66.078c.009.302.458.302.467 0 .021-.703.018-1.42.08-2.123.227-.65.637-.956 1.041-1.377.777-.81 1.652-.714 2.6-.285.167.075.38-.144.213-.275-1.344-1.06-2.707-.478-3.635.625.122-.461.297-.91.557-1.334 1.343-2.193 4.442-1.103 6.47-1.12.087 0 .105-.131.02-.152-1.041-.254-2.184-.491-3.291-.478-1.107.012-2.178.274-3.074 1.01-.902.74-1.273 1.954-1.405 3.348-.083.866-.06 1.56-.042 2.161z" fill="#8c4c4c"/><path d="M100.233 92.218s4.652 5.4 14.84 1.046c0 0-.16-2.406.069-5.278-4.888.322-9.65 1.184-14.381 2.774a5.708 5.708 0 01-.528 1.458z" fill="#f8bfb8"/><path d="M100.217 83.715s1.245 3.96.544 7.045c4.727-1.59 9.493-2.452 14.38-2.774.152-1.855.46-3.9 1.086-5.628z" fill="#eb9994"/><path d="M78.723 71.245c2.641 5.403 11.463 11.413 23.215 12.467 11.748 1.053 27.352-2.842 30.886-11.352 3.533-8.51 4.91-14.384 3.809-23.038s-1.574-12.517-9.618-16.361c-8.048-3.846-51.833-23.284-50.646 21.953 0 0-.286 10.93 2.354 16.331z" fill="#f8bfb8"/><path d="M91.799 60.978c-.96.002-1.741-.93-1.744-2.081-.003-1.154.773-2.089 1.734-2.091.96-.002 1.74.927 1.744 2.081.004 1.15-.774 2.09-1.734 2.091zm28.519-.066c-.964.001-1.745-.93-1.747-2.08-.001-1.155.773-2.09 1.734-2.092.96-.002 1.74.928 1.744 2.082.003 1.153-.774 2.089-1.731 2.09z" fill="#0f0f0f"/><path d="M104.472 57.651c-.137.61-.397 1.616-.017 2.19.289.436.607.76 1.154.74.253-.01.5-.198.898-.456.31-.2.839-.521 1.082-.243.43.49.266 1.518-.675 1.837-.338.114-.187.662.147.535.817-.312 1.344-.935 1.377-1.823.023-.61-.701-1.25-1.301-1.147-.426.074-.73.295-1.075.55-1.554 1.151-1.247-1.56-1.148-2.058.163-.826.748-2.105.292-2.908-.046-.082-.164-.062-.19.023-.272.87-.343 1.862-.544 2.76z" fill="#8c4c4c"/><path d="M102.033 68.504c2.34 1.06 4.89 2.217 7.06 3.807 1.535-.928 1.928-2.81 1.928-3.842 0-1.623-.898-1.357-1.144-1.056-1.518 1.852-4.418 2.062-5.453-.647-.103-.27-1.734-1.129-2.129.018a5.025 5.025 0 00-.262 1.72z" fill="#0f0f0f"/><path d="M109.094 72.311c-2.17-1.59-4.72-2.75-7.061-3.806.013 1.613.728 3.5 3.157 4.11 1.773.443 3.025.227 3.904-.304z" fill="#f0668f"/><path d="M90.173 47.348c.285-.06.2-.47-.066-.485-2.032-.121-5.046 1.875-5.454 3.934-.03.154.155.228.245.101 1.385-1.952 2.921-3.05 5.275-3.55zm34.626 1.468c.311.319.76-.15.482-.481-1.253-1.497-4.003-2.535-5.93-2.144-.16.032-.154.277 0 .315 1.989.486 3.943.77 5.448 2.31z" fill="#8c4c4c"/><path d="M90.596 74.894c-3.183.009-5.763-2.413-5.77-5.4-.006-2.985 2.564-5.414 5.743-5.421 3.18-.007 5.761 2.406 5.77 5.396.009 2.99-2.564 5.417-5.743 5.425zm31.489-.072c-3.18.008-5.762-2.41-5.77-5.4-.008-2.986 2.567-5.415 5.743-5.421 3.183-.007 5.766 2.406 5.773 5.396.007 2.986-2.567 5.417-5.746 5.425z" fill="#eb9994"/><path d="M127.788 34.35c-.93-1.855-3.717-2.776-3.72-5.555.01 4.635-2.757 11.132-7.399 9.29-2.786-1.85-4.651-5.553-7.438-8.33-2.74 17.626-21.317 5.615-29.673.997-3.068 7.723-2.94 16.718-7.067 24.34 2.724.527 4.717 1.822 4.717 1.822 6.245-1.25 5.14-22.616 5.14-22.616s13.624 8.936 20.576 9.536c6.96.603 8.028-6.199 8.028-6.199s2.79 4.63 7.89 5.081c5.105.453 4.78-5.11 4.78-5.11 6.202 7.867 9.13 2.914 9.13 2.914s.032 14.374 4.92 14.899c4.894.524 4.943-4.416 4.943-4.416.505.177.977.151 1.416.023-4.474-3.39-6.113-10.883-6.969-17.626-1.842 4.642-6.487 2.796-9.274.95z" fill="#572835"/><path d="M145.113 39.567c.443-8.815-7.284-8.484-7.284-8.484-2.708-12.67-20.422-8.92-20.422-8.92s2.301-6.035-10.064-6.468c-12.368-.436-26.23 9.635-26.23 9.635s2.146-7.733-1.718-8.032c-3.865-.301-1.617 9.12-1.617 9.12s-4.736-7.09-7.04-2.757c-2.302 4.334 5.103 8.487 5.103 8.487-3 1.396-2.275-.81-5.117 1.403-5.124 4.802-1.232 11.906-1.232 11.906-4.682 4.648.02 9.44.02 9.44.997-.071 2-.008 2.979.19 4.18-7.585 4.775-16.095 7.067-24.339 8.4 4.73 27.173 17.232 29.673-.993 2.787 2.777 4.45 6.83 7.438 8.33 4.492 2.253 7.67-4.27 7.399-9.29.007 2.78 2.252 4.09 3.724 5.556 2.366 2.356 7.425 3.75 9.27-.892.856 6.743 1.833 14.178 6.97 17.567 1.48-.442 2.494-2.19 2.494-2.19 4.235-7.506-1.413-9.269-1.413-9.269z" fill="#63333f"/><path d="M101.56 20.107c1.823 1.475 2.596 3.931 3.094 6.137.55 2.436.074 5.71-3.379 5.045-1.71-.329-3.274-1.776-4.166-3.195-.2-.315-.633-.04-.492.289.686 1.573 1.045 3.313.774 5.023-.3 1.892-2.471 1.514-3.694.889-1.665-.853-2.774-2.724-3.426-4.399-.094-.249-.482-.155-.41.116.55 1.962 4.467 7.526 7.15 5.129.946-.844 1.052-2.023 1.032-3.229-.012-.709-.168-1.418-.336-2.107 1.841 1.831 6.58 3.788 7.535.209.866-3.245-.355-8.42-3.347-10.439-.322-.072-.584.331-.334.532zM128.98 30.69c.73 2.77 1.818 7.77 5.308 8.084 2.804.252 3.847-4.629 3.861-6.609 0-.38-.497-.4-.62-.086-.769 1.947-.58 6.613-3.848 5.928-2.786-.584-3.284-5.414-4.39-7.516-.097-.183-.356.035-.311.2zm-51.8 11.405c-.133.036-.238.158-.181.328.623 1.813.912 3.786.748 5.693-.105 1.23-.646 2.465-2.006 2.61-1.485.16-2.984-1.84-3.83-2.842-.232-.272-.621.123-.392.392 1.43 1.695 4.425 4.655 6.244 1.754 1.3-2.075.507-5.612-.227-7.756-.059-.169-.221-.216-.355-.18z" fill="#8c4c4c"/><path d="M124.458 138.278s-14.535 6.996-33.794.27c0 0-.858 3.566-1.829 8.086 11.462 8.479 26.87 9.883 41.484 10.087z" fill="#191919"/><path d="M83.246 178.575s11.985 6.425 24.09 2.633l.627-16.787s1.963-.158 3.442-.462l1.291 16.065s14.742 1.636 22.947-6.543l-5.368-16.804c-14.613-.204-29.127-2.586-41.44-10.043-2.295 10.668-3.572 21.065-5.589 31.941z" fill="#282828"/><path d="M87.57 142.937c14.073 6.53 39.258-2.97 39.258-2.97.033-.26.046-.672.036-1.197-13.719-3.737-26.703-11.011-38.147-18.823z" fill="#e6e3f3"/><path d="M115.073 93.267c-7.926 3.803-14.84-1.049-14.84-1.049l-7.536 1.089-14.41-8.589c-.66 6.523-5.12 20.334-5.12 20.334 2.927 3.147 15.845 8.965 15.845 8.965l-.295 5.93c11.444 7.812 24.432 15.083 38.147 18.823-.052-3.884-1.154-14.473-2.367-24.26l8.372-4.016c-2.93-9.064-9.24-14.883-11.63-15.646-1.816-1.404-6.166-1.581-6.166-1.581z" fill="#fff"/><path d="M91.71 93.418s1.367 8.969.456 14.319c-.908 5.35-4.632 17.43-4.632 17.43s-1.537 7.057-1.511 10.863c6.979-7.019 12.03-11.969 14.315-25.772 1.088-6.58.138-14.9-.406-18.613-1.925-.433-5.006.15-8.222 1.773z" fill="#f89926"/><path d="M99.932 91.645c.547 3.714 1.498 12.033.406 18.613-2.285 13.803-7.333 18.753-14.319 25.772.007.937.109 1.678.348 2.065 0 0 10.624-7.612 14.325-20.295 3.701-12.686 1.718-22.176 1.18-24.552-.193-.836-.898-1.367-1.94-1.603z" fill="#f06851"/><path d="M125.258 92.96s-1.482 8.948-.643 14.311c.84 5.36 1.59 16.954 1.59 16.954s1.443 7.078 1.367 10.883c-6.89-7.106-9.054-11.59-11.158-25.424-1.003-6.592.055-14.899.649-18.604 1.927-.409 5.002.217 8.195 1.88z" fill="#f89926"/><path d="M117.062 91.081c-.593 3.704-1.651 12.01-.648 18.603 2.104 13.833 4.268 18.318 11.158 25.424-.016.935-.128 1.679-.37 2.059 0 0-7.704-7.215-11.24-19.947-3.535-12.729-1.43-22.196-.86-24.566.2-.832.915-1.35 1.96-1.573z" fill="#f06851"/><path d="M113.719 164.336c2.226-.689 3.983-2.115 5.89-3.374.309-.2-.01-.629-.317-.458-6.258 3.497-12.545 4.077-19.59 5.074-.462.065-.416.75.056.724 4.632-.255 9.51-.59 13.961-1.966z" fill="#191919"/><path d="M157.77 57.56s-3.783 47.341 16.262 63.722c20.049 16.38 58.562 20.678 61.837 3.55 0 0 8.307.718 7.802-13.112 0 0 5.792-1.243 6.799-9.3 1.006-8.058-16.745-14.62-20.58-25.94-3.839-11.319-6.635-29.063-6.635-29.063" fill="#663342"/><path d="M176.002 99.122c.928 9.713.112 31.78 5.307 39.848 2.167 3.363 28.562.554 35.466-1.524 6.9-2.075 7.077-8.5 6.31-15.083-.77-6.589-2.898-22.199-5.219-29.256-1.485-4.52-12.476-6.897-26.752-5.298 0 0-16.036 1.603-15.112 11.313z" fill="#f07db0"/><path d="M177.766 99.033c.927 9.713.108 31.781 5.307 39.848 2.167 3.364 28.562.554 35.462-1.524 6.903-2.078 7.08-8.497 6.31-15.085-.77-6.583-2.898-22.196-5.215-29.254-1.489-4.52-12.477-6.894-26.752-5.298 0 0-16.04 1.604-15.112 11.313z" fill="#f0668f"/><path d="M200.656 162.834l-18.396.777 1.167 8.323c5.304 4.3 10.994 8.025 17.138 10.575zm0 0" fill="#eb9994"/><path d="M187.384 200.168c8.745 2.085 13.099-.688 13.099-.688l.082-16.97c-6.144-2.551-11.834-6.275-17.138-10.576z" fill="#f8bfb8"/><path d="M178.143 204.893s-.208 1.888 2.687 2.543c2.894.663 8.343 1.28 12.897.662 4.55-.623 6.619-1.102 6.619-1.102s.077-.322.162-.867z" fill="#f0668f"/><path d="M186.393 207.37a15.98 15.98 0 00-3.16-5.973c-2.304.833-4.77 2.049-5.09 3.495-.308 1.386 3.494 2.235 8.25 2.478z" fill="#f0668f"/><path d="M187.384 200.168s-2.007.45-4.15 1.23a15.98 15.98 0 013.16 5.972c4.815.24 10.604-.144 14.092-1.24 0 0 .721-3.894 0-6.65 0 0-5.828 2.688-13.102.688z" fill="#f07db0"/><path d="M185.396 196.412c-1.131.05-.972 1.146-.498 2.293a3.715 3.715 0 00-.35-.232c-.392-.233-1.166-.292-1.372.226-.645 1.62 1.748 2.36 3.02 2.52.097.281.602.242.61-.117.037-1.045.33-4.765-1.41-4.69zm-.046.486a.57.57 0 01.287.086c.564.302.533 1.656.562 2.174.018.327.023.653.018.979-.191-.316-.375-.636-.547-.965-.104-.199-.915-2.243-.32-2.274zm-.317 2.6c.411.416.71.913.987 1.33-.85-.228-1.757-.551-2.247-1.277-.222-.33-.093-.774.338-.72.406.05.697.44.922.667z" fill="#f0668f"/><path d="M224.327 153.856c-1.79-4.245-15.413 4.923-15.767 9.513-.256 3.33 2.57 8.13 6.27 12.895 6.963 1.544 14.283 1.603 21.39.689-3.71-6.36-8.513-15.096-11.893-23.097z" fill="#eb9994"/><path d="M230.611 192.976c8.674-2.367 11.159-6.894 11.159-6.894s-2.377-3.697-5.55-9.13c-7.107.915-14.427.856-21.393-.688 6.524 8.405 15.784 16.712 15.784 16.712z" fill="#f8bfb8"/><path d="M224.77 201.557v.002s.725 1.756 3.584.94c2.858-.81 7.932-2.88 11.626-5.608 3.694-2.73 5.278-4.15 5.278-4.15s-.086-.326-.276-.85c0 0-14.107 5.897-20.212 9.666z" fill="#f0668f"/><path d="M233.198 199.768a15.94 15.94 0 00-5.642-3.72c-1.62 1.838-3.2 4.087-2.786 5.51.396 1.364 4.143.282 8.428-1.79z" fill="#f0668f"/><path d="M230.608 192.976s-1.544 1.357-3.052 3.071a15.94 15.94 0 015.642 3.721c4.34-2.098 9.234-5.215 11.768-7.85 0 0-1.236-3.764-3.196-5.836 0 0-3.82 5.157-11.162 6.894z" fill="#f07db0"/><path d="M227.55 190.484a.98.98 0 00-.488.15c-.969.587-.302 1.476.665 2.255a3.876 3.876 0 00-.42-.037c-.456-.016-1.162.304-1.094.859.212 1.733 2.673 1.227 3.863.758.22.198.64-.073.477-.395-.42-.832-1.68-3.625-3.002-3.59zm0 .537c.64-.004 1.263 1.198 1.538 1.641.171.276.33.56.482.848a18.044 18.044 0 01-.941-.58c-.214-.143-2.318-1.9-1.078-1.909zm.675 2.497c.525.154 1.02.417 1.502.693-.853.208-1.8.358-2.577-.041-.406-.209-.463-.755.118-.836.375-.052.709.11.957.184z" fill="#f0668f"/><path d="M237.469 47.427c-1.672-.274-2.662 6.392-2.662 6.392s.793-6.244-.869-6.313c-1.662-.07-1.809 7.24-1.809 7.24s-.488-3.244-2.242-1.887c-1.757 1.354 1.947 7.257 1.947 7.257s.02 1.036-1.482 6.79c-1.232 4.72-3.58 9.584-5.74 13.45 4.518 1.038 8.845.127 12.85-1.964.823-2.374 1.548-4.74 2.105-7.038 3.225-13.365 2.28-22.882.83-22.953-1.341-.066-2.118 5.244-2.233 6.087.118-.895.846-6.808-.695-7.061z" fill="#f8bfb8"/><path d="M219.908 87.901l2.357 17.643c4.022-3.63 9.526-12.795 13.506-22.622a97.186 97.186 0 001.691-4.53c-4.005 2.09-8.332 3.002-12.85 1.963-2.475 4.432-4.704 7.546-4.704 7.546z" fill="#eb9994"/><path d="M169.741 163.611s3.793 4.9 12.135 5.084c8.343.184 12.706-.567 20.76 1.489 8.058 2.052 22.658-2.99 26.854-7.35a52.559 52.559 0 003.629-4.212c-19.72-2.527-38.317-13.21-52.354-28.198l.159 2.19z" fill="#191919"/><path d="M219.938 128.746c.046-.017.092-.03.138-.046l-.938-1.459-.397-15.895s6.35-3.82 8.795-9.743c1.085-2.625-6.267-15.616-7.628-16.806 0 0-2.438 4.163-10.847 8.666-14.515-2.113-14.35-1.268-20.701 1.21-8.865 3.46-10.017 2.515-13.879 9.255 12.155 12.925 28.673 19.753 45.457 24.818" fill="#fff"/><path d="M171.085 115.024s2.59 2.045 8.008 2.442c.204.016.413.026.63.036l-.086 3.576 1.128 9.346c.79.843 1.597 1.672 2.416 2.488 12.398.22 25.47-.256 36.757-4.166-16.784-5.065-33.302-11.893-45.457-24.822-3.51 6.261-3.396 11.1-3.396 11.1z" fill="#e6e3f3"/><path d="M233.119 158.622c2.049-2.642 3.252-4.665 3.252-4.665L220.079 128.7c-11.32 3.953-24.451 4.435-36.898 4.212 12.73 14.088 29.704 24.004 49.938 25.71z" fill="#282828"/><path d="M213.555 89.246s1.302 11.692 2.652 16.675c1.348 4.979 5.986 16.078 5.986 16.078s2.098 6.543 2.426 10.15c-7.254-6.006-12.49-10.235-15.915-23.095-1.636-6.13-1.498-14.092-1.321-17.658 1.78-.587 2.98-3.39 6.172-2.15z" fill="#f07db0"/><path d="M207.383 91.396c-.177 3.566-.315 11.528 1.321 17.658 3.426 12.86 8.66 17.089 15.915 23.094.079.885.052 1.597-.141 1.987 0 0-10.752-6.235-15.42-17.905-4.668-11.673-3.662-20.842-3.367-23.136.102-.813.725-1.377 1.692-1.698z" fill="#f0668f"/><path d="M171.701 74.677l-.816-4.969c-3.835-1.308-8.264-.364-11.191 2.502 1.104 3.428 5.32 6.25 12.007 2.467z" fill="#f8bfb8"/><path d="M159.694 72.209c2.927-2.865 7.356-3.809 11.191-2.501l-.564-3.422s-5.195-2.83-9.365.59c-1.511 1.239-1.888 3.386-1.262 5.333z" fill="#eb9994"/><path d="M168.744 70.082c-.675-.438-1.407-.602-2.156-.594-1.248.015-2.538.504-3.662.987-.075.032-.016.136.052.125 1.928-.33 4.052-1.538 5.803-.03.385.332.654.771.854 1.258-.987-.898-2.306-1.306-3.381-.135-.116.127.037.354.193.25.74-.492 1.357-.718 2.176-.265.54.298.936.525 1.342 1.222.147.635.237 1.281.346 1.842.056.27.44.15.404-.11-.074-.522-.15-1.12-.348-1.867-.31-1.175-.785-2.14-1.623-2.683z" fill="#8c4c4c"/><path d="M222.934 66.259l-.82-4.97c3.216-2.464 7.71-2.989 11.405-1.212.049 3.6-3.042 7.625-10.585 6.182z" fill="#f8bfb8"/><path d="M233.519 60.077c-3.695-1.777-8.189-1.252-11.404 1.213l-.561-3.426s2.79-3.265 7.835-1.36c1.829.692 4.1 1.528 4.13 3.573z" fill="#eb9994"/><path d="M223.857 65.945c.045.23.441.177.41-.056-.081-.626-.19-1.266-.238-1.905.081-.758.487-1.12.9-1.605.573-.67 1.318-.612 2.098-.397.17.047.28-.2.123-.289-1.315-.741-2.456-.027-3.117 1.073.045-.446.145-.887.336-1.313.927-2.065 4.007-1.757 5.537-1.855.081-.006.054-.127-.02-.133a17.63 17.63 0 00-1.534-.069c-1.57.01-3.172.324-4.147 1.635-.577.777-.708 1.81-.628 2.98.053.78.176 1.395.28 1.934z" fill="#8c4c4c"/><path d="M192.494 93.071s5.841 6.189 13.28.967c0 0-.138-2.154.075-4.727-4.38.278-8.644 1.042-12.883 2.455a5.072 5.072 0 01-.472 1.305z" fill="#f8bfb8"/><path d="M192.494 85.462s1.108 3.544.472 6.304c4.235-1.413 8.503-2.177 12.883-2.455.134-1.659.42-3.863.98-5.407z" fill="#eb9994"/><path d="M173.714 78.729c3.107 4.398 11.758 8.444 22.29 7.694 10.536-.75 23.763-6.429 25.668-14.453 1.905-8.025 2.28-13.414.069-20.904-2.21-7.487-3.18-10.833-10.84-13.08-7.661-2.247-49.132-13.155-41.61 26.65 0 0 1.315 9.695 4.423 14.093z" fill="#f8bfb8"/><path d="M183.794 67.784c-.846.137-1.672-.57-1.839-1.59-.167-1.02.387-1.958 1.236-2.098.846-.14 1.67.574 1.836 1.593.166 1.02-.384 1.957-1.233 2.095zm25.189-4.14c-.85.14-1.672-.57-1.84-1.59-.167-1.017.384-1.956 1.233-2.095.85-.14 1.672.57 1.84 1.59.166 1.02-.384 1.956-1.233 2.095z" fill="#0f0f0f"/><path d="M194.523 62.896c-.038.597-.147 1.603.315 2.095.334.354.713.642 1.187.436.405-.176.654-.654 1.016-.816.798-.357.938.33.865.914-.046.367-.35.595-.672.76-.285.146-.027.589.253.43.693-.394 1.074-1.095.904-1.891-.12-.558-.913-.94-1.422-.685-.301.151-.518.367-.751.606-1.128 1.154-1.31-1.02-1.298-1.554.018-.783.393-2.072-.158-2.73-.042-.05-.146-.027-.157.042-.12.76-.032 1.616-.082 2.393zm3.839 10.477c1.475-.183 2.488-1.44 2.258-2.918-.052-.334-.59-.249-.58.079.036 1.213-.525 2.09-1.75 2.288-1.277.206-1.996-.51-2.675-1.354-.037-.046-.13-.026-.141.04-.228 1.419 1.852 1.993 2.888 1.865zm-17.99-17.384c.213-.085.21-.458-.06-.436-1.828.152-4.229 2.387-4.29 4.272-.004.114.17.167.223.059.937-1.918 2.137-3.101 4.127-3.895zm30.866-3.658c.28.207.634-.257.37-.482-1.333-1.14-3.895-1.71-5.563-1.085a.148.148 0 00.04.289c1.836.145 3.596.127 5.153 1.278z" fill="#8c4c4c"/><path d="M184.722 80.25c-2.81.462-5.437-1.304-5.871-3.943-.434-2.636 1.491-5.15 4.3-5.612 2.81-.463 5.438 1.304 5.872 3.943.435 2.64-1.492 5.15-4.301 5.612zm27.814-4.573c-2.807.462-5.438-1.301-5.871-3.94-.433-2.639 1.492-5.154 4.3-5.615 2.81-.461 5.438 1.304 5.872 3.943.434 2.64-1.493 5.15-4.301 5.612z" fill="#eb9994"/><path d="M181.962 74.697c-.263.043-.511-.164-.56-.455-.05-.296.12-.57.383-.613.262-.042.51.16.56.455.049.295-.124.57-.383.613zm3.769 2.547c-.262.045-.51-.164-.56-.459-.05-.295.124-.568.383-.61.263-.043.511.158.56.456.05.295-.124.569-.383.613zm-3.635 2.734c-.259.041-.511-.163-.56-.456-.05-.294.124-.57.386-.613.26-.042.513.16.56.456.048.295-.124.571-.386.613zm5.337-6.975c-.263.041-.512-.165-.56-.453-.05-.295.124-.57.386-.613.259-.043.507.16.557.456.05.291-.124.57-.383.61zm3.602 4.464c-.262.043-.51-.164-.56-.456-.05-.295.12-.569.383-.613.262-.044.51.16.56.456.051.295-.124.57-.383.613zm15.181-6.756c-.262.043-.513-.16-.56-.456-.048-.298.12-.568.386-.613.26-.043.508.161.557.456.05.298-.121.57-.383.613zm2.77 4.849c-.261.043-.507-.165-.557-.456-.052-.3.12-.57.38-.613.262-.043.51.16.56.459.05.291-.123.567-.383.61zm3.18-5.527c-.256.042-.506-.161-.554-.456-.048-.292.12-.568.38-.61.262-.043.51.16.56.456.05.295-.12.567-.386.61zm3.494 3.386c-.262.041-.51-.16-.56-.456-.05-.295.124-.568.386-.613.26-.044.504.164.554.459.05.292-.121.57-.38.61zm-3.983.108c-.259.041-.51-.164-.557-.456-.048-.295.12-.569.383-.613.26-.044.508.16.558.46.048.291-.125.567-.384.609z" fill="#8c4c4c"/><path d="M200.935 62.362c-.758-4.612 2.38-8.985 6.995-9.743 4.613-.757 8.986 2.38 9.743 6.993.757 4.615-2.38 8.988-6.992 9.745-4.613.757-8.987-2.38-9.746-6.995zm-25.644 4.215c-.758-4.615 2.383-8.987 6.995-9.745 4.616-.759 8.984 2.38 9.743 6.995.759 4.612-2.377 8.984-6.993 9.743-4.615.759-8.986-2.377-9.745-6.993zm6.841-10.686c-5.137.843-8.625 5.707-7.779 10.84.846 5.134 5.704 8.626 10.84 7.783 4.83-.793 8.2-5.147 7.881-9.93.41-.557 2.344-2.671 7.205-.881 1.341 4.47 5.832 7.37 10.556 6.595 5.136-.843 8.626-5.707 7.782-10.844-.844-5.133-5.707-8.625-10.844-7.779-5.133.845-8.621 5.707-7.776 10.84 0 0-5.317-.556-7.09.853-.56-4.143-5.743-8.302-10.775-7.477z" fill="#f0668f"/><path d="M157.458 54.996c4.865 2.944 10.72 4.461 16.574 4.488a42.465 42.465 0 002.075-3.773c-5.933-2.967-11.155-7.222-15.817-12.096-2.513 3.16-3.158 7.7-2.832 11.381z" fill="#8c4c4c"/><path d="M194.857 54.786c5.23-1.26 2.62-6.218 1.81-7.546 1.006 1.54 5.52 7.963 10.224 7.51-3.438-10.794-9.32-20.77-18.144-27.716-9.5 2.233-16.18 6.812-16.18 6.812s.718-8.946-1.98-7.831c-2.698 1.114-.508 9.024-.508 9.024s-3.282-6.28-4.527-4.733c-1.246 1.547 2.766 6.923 2.766 6.923s-4.77 1.92-8.028 6.386c4.662 4.874 9.887 9.129 15.817 12.096 1.203-2.492 2.062-5.065 1.993-7.242 0 0 6.294 4.571 11.959 6.045 1.72.447 3.386.612 4.798.272z" fill="#663342"/><path d="M188.747 27.034c8.825 6.946 14.706 16.922 18.14 27.716 1.525-.21 3.213-1.09 3.951-2.285-.6-9.286-3.13-18.337-7.995-26.04-4.887-.915-9.63-.434-14.096.609z" fill="#8c4c4c"/><path d="M202.843 26.425c4.861 7.703 7.395 16.754 7.995 26.04 1.272-2.124.42-4.861.42-4.861s5.176 10.64 11.715 9.07c6.543-1.573-.911-15.652-3.678-19.78-2.166-3.235-7.913-8.759-16.452-10.469zM160.07 67.898s3.76-4.376 9.422-1.983c0 0 2.31-2.796 4.54-6.431-5.855-.03-11.71-1.541-16.574-4.491 1.23 11.79 2.613 12.905 2.613 12.905" fill="#663342"/><path d="M179.978 95.202s2.111 8.368 1.738 13.515c-.374 5.15-2.803 16.928-2.803 16.928s-.806 6.825-.436 10.424c5.97-7.28 10.3-12.434 11.204-25.71.43-6.33-1.226-14.118-2.084-17.587-1.86-.232-4.724.6-7.619 2.43z" fill="#f07db0"/><path d="M187.597 92.773c.855 3.468 2.514 11.256 2.084 17.586-.904 13.28-5.231 18.43-11.204 25.71.092.885.25 1.58.515 1.924 0 0 9.365-8.175 11.712-20.527 2.347-12.348-.396-21.153-1.124-23.353-.256-.777-.974-1.213-1.983-1.34z" fill="#f0668f"/><path d="M180.365 120.584l-.642-3.525s-4.403-.54-8.104-2.13c0 0-1.722 4.21-3.202 9.106 6.189 3.357 4.835 3.6 4.835 3.6 3.012-1.813 7.113-7.051 7.113-7.051z" fill="#eb9994"/><path d="M168.416 124.035c4.869 2.639 5.069 3.354 4.93 3.537 3.105-1.983 12.018-13 12.018-13s-.38-.928-.282-2.603c.092-1.626 1.26-.387 2.046.239.728-.938 3.13-3.891 4.399-3.157 1.108.643-.344 3.226-.344 3.226s1.82-2.416 2.642-1.846c.83.567-.36 3.055-.36 3.055s1.914-2.809 2.687-1.435c.777 1.373-2.761 7.066-2.761 7.066-4.8 7.66-11.1 18.6-19.513 21.394-4.151 1.378-7.831-3.311-7.622-7.776.086-1.81 1.05-5.251 2.16-8.7z" fill="#f8bfb8"/></svg>