<svg xmlns="http://www.w3.org/2000/svg" height="228" width="304"><path d="M0 174.07h304V.01H0z" fill="#dfdde2"/><path d="M111.44 170.628H0v3.441h304v-3.441H111.44" fill="#df8035"/><path d="M0 174.068v53.942h304v-53.942z" fill="#f9b277"/><path d="M233.41 22.496H70.59l7.434 6.403h147.95z" fill="#f28a6f"/><path d="M225.974 123.735l7.437 6.402V22.496l-7.437 6.403z" fill="#f17d63"/><path d="M70.59 130.137h162.82l-7.436-6.402H78.024z" fill="#ce6a53"/><path d="M70.59 130.137V22.496l7.434 6.403v94.836z" fill="#f39e8c"/><path d="M78.024 123.735h147.95V28.898H78.024z" fill="#3d774c"/><path d="M130.869 111.735c-7.82 0-15.41-1.02-22.256-2.046-8.257-1.238-15.048-3.797-21.625-8.916-2.503-1.948-3.784-4.563-3.783-7.219l.017-44.096c.003-6.811-.851-15.602 9.067-15.602h101.619c30.433 0 16.454 41.329-13.508 64.794-11.651 9.125-31.085 13.086-49.531 13.085" fill="#4f825a"/><path d="M220.671 143.251H83.329c-.933 0-7.505 3.416-7.505 3.416h152.349s-6.57-3.416-7.502-3.416z" fill="#d7634d"/><path d="M85.403 195.813h2.857v-17.099h-2.857zm130.337 0h2.856v-17.099h-2.855z" fill="#823a2b"/><path d="M230.181 148.675c0-1.11-.898-2.008-2.008-2.008H75.824a2.006 2.006 0 00-2.005 2.008v3.849H230.18z" fill="#f17d63"/><path d="M78.288 181.87v-29.346H225.71v29.347zm0 23.634v-23.633h3.39v23.633z" fill="#a94d3b"/><path d="M222.32 205.504v-23.633h3.391v23.633z" fill="#a94d3b"/><path d="M225.974 123.735V28.898v94.837" fill="#9e5545"/><path d="M78.024 123.735v-3.357c6.5.371 44.79.624 52.141.624 27.492 0 58.157-3.537 71.176-17.637 26.131-28.297 18.632-74.467 18.632-74.467h6v94.837z" fill="#2b5236"/></svg>