<svg width="304" height="228" xmlns:xlink="http://www.w3.org/1999/xlink" xmlns="http://www.w3.org/2000/svg"><defs><linearGradient id="a"><stop offset="0" stop-color="#9ecbeb"/><stop offset="1" stop-color="#d2effb"/></linearGradient><linearGradient xlink:href="#a" id="b" x1="0" y1="-500" x2="0" y2="-329" gradientUnits="userSpaceOnUse" gradientTransform="matrix(1.33333 0 0 .95321 0 476.609)"/></defs><path fill="url(#b)" d="M0 .002h304v163H0z"/><path fill="#74ac34" d="M0 163.002h304v65H0z"/><ellipse cx="243.173" cy="187.668" rx="39.276" ry="8.657" fill-opacity=".2"/><ellipse cx="95.261" cy="180.078" rx="60.564" ry="13.349" fill-opacity=".2"/><path d="M55.444 114.687a24.373 24.373 0 00-9.743 5.075c-2.764 2.344-4.964 5.312-6.34 8.558-1.4 3.234-2.02 6.646-2.261 9.987-.24 3.355-.107 6.672.112 9.97.267-3.294.627-6.582 1.333-9.758.706-3.167 1.774-6.23 3.418-8.86a19.524 19.524 0 016.356-6.377c2.529-1.579 5.37-2.56 8.194-2.846z" fill="#abaaba"/><path d="M119.302 178.696h3.854a2.89 2.89 0 002.89-2.89v-5.5h-9.634v5.5a2.89 2.89 0 002.89 2.89" fill="#363636"/><path d="M81.364 152.747l-1.543 17.56h-11.07l-3.723-17.56zm46.077 9.468l-1.404 8.093h-9.624l.37-17.562 15.271-13.48c-.685 3.077-4.337 19.724-4.612 22.949" fill="#abaaba"/><path d="M74.826 101.212H101.2c12.993 0 20.693-11.55 20.693-11.55l21.659 31.764-19.596 30.568c-2.942 4.589-6.875 18.313-6.875 18.313h-9.627l.418-13.12a1.701 1.701 0 00-1.963-1.739c-6.373 1.007-26.203 3.776-36.91 1.215a2.28 2.28 0 00-2.79 1.912l-1.586 11.732h-11.07l-2.846-8.46a67.253 67.253 0 01-2.72-10.987 136.213 136.213 0 01-1.654-21.157c0-15.736 12.756-28.49 28.493-28.49" fill="#bab8c9"/><path d="M90.724 139.266c1.884-.964 4.333-.692 5.96.664 1.602 1.338 2.328 3.494 3.877 4.894 2.064 1.868 5.273 2.014 7.867 1.006 2.594-1.01 4.688-2.984 6.57-5.036.699-.76 1.43-1.574 2.416-1.878 2.28-.704 4.496 1.915 4.28 4.291-.213 2.377-1.986 4.297-3.8 5.852-1.809 1.553-3.825 3.03-4.849 5.184-.796 1.673-.907 3.583-1.428 5.36-.68 2.32-2.125 4.387-4.01 5.897l.265-8.314a1.7 1.7 0 00-1.963-1.736c-3.436.54-10.783 1.596-18.503 2.05 1.607-1.11 2.84-2.538 3-4.442.251-3.007-2.413-5.56-2.626-8.57-.15-2.112 1.06-4.257 2.944-5.222M53.808 123.15c.007 1.735-.427 3.477-.147 5.19.447 2.722 2.636 4.865 5.052 6.197 2.018 1.112 4.26 1.808 6.16 3.109 1.897 1.301 3.467 3.473 3.133 5.752-.336 2.299-2.447 3.907-4.555 4.883-2.107.976-4.44 1.622-6.163 3.18-2.899 2.62-3.29 7.057-5.605 10.208a8.681 8.681 0 01-.743.866l-.233-.69a67.253 67.253 0 01-2.72-10.987 136.37 136.37 0 01-1.654-21.156 28.347 28.347 0 013.716-14.06c2.227 1.879 3.747 4.579 3.76 7.508m21.017-21.939H101.2c6.47 0 11.626-2.864 15.173-5.738l4.735 7.061c-3.878-.419-7.916 1.045-10.623 3.853-2.553 2.654-4.268 6.598-7.84 7.492-3.007.754-6.337-1.036-9.208.135-2.903 1.183-3.875 4.693-4.933 7.64-1.062 2.948-3.456 6.215-6.527 5.596-2.128-.43-3.443-2.624-3.915-4.741-.472-2.118-.376-4.347-1.02-6.419-1.56-5.01-7.174-8.332-7.608-13.559a7.419 7.419 0 01-.017-.8 28.507 28.507 0 015.408-.52" fill="#3d3d3d"/><path d="M145.362 82.346s10.718-5.16 11.23-16.936c.04-.919 1.234-1.233 1.653-.416 2.568 5.018 6.2 15.77-1.632 27.273zm-14.24 0s-10.717-5.16-11.23-16.936c-.04-.919-1.234-1.233-1.652-.416-2.568 5.018-6.2 15.77 1.633 27.273z" fill="#d88729"/><path d="M178.18 103.642c-11.604 5.142-22.6-.856-24.556-13.4 11.605-5.14 22.6.86 24.557 13.4" fill="#e0705f"/><path d="M153.624 90.243c11.605-5.141 22.6.857 24.557 13.4-4.8-7.33-15.795-13.33-24.557-13.4" fill="#bab8c9"/><path d="M98.304 103.642c11.605 5.142 22.6-.856 24.557-13.4-11.605-5.14-22.6.86-24.557 13.4" fill="#e0705f"/><path d="M122.861 90.243c-11.605-5.141-22.6.857-24.557 13.4 4.8-7.33 15.794-13.33 24.557-13.4" fill="#bab8c9"/><path d="M112.2 112.672v-9.894c0-11.894 9.64-21.534 21.533-21.534h8.305c11.894 0 21.534 9.64 21.534 21.534v8.757c0 1.525.406 3.036 1.249 4.307 1.83 2.761 2.865 5.848 2.865 9.114 0 11.74-13.182 21.256-29.444 21.256-16.261 0-29.444-9.516-29.444-21.256 0-2.86.791-5.585 2.216-8.074.739-1.29 1.187-2.723 1.187-4.21" fill="#cdcadc"/><path d="M137.896 93.83c1.513-2.527 3.613-5.192 2.964-8.064-.402-1.77-1.83-3.167-3.452-3.982a10.76 10.76 0 00-1.31-.54h5.94c11.894 0 21.534 9.64 21.534 21.534v8.757c0 .061.012.121.013.183-1.673-.315-3.413-.256-5.048.245-1.817.557-3.453 1.58-5.201 2.325-4.388 1.867-9.827 1.787-13.595-1.138-2.796-2.17-4.384-5.688-4.579-9.222-.194-3.534.914-7.064 2.734-10.098" fill="#3d3d3d"/><path d="M112.925 135.807c1.27-9.36 12.119-16.675 25.317-16.675 13.2 0 24.05 7.314 25.318 16.675-5.134 6.23-14.547 10.405-25.318 10.405-10.768 0-20.184-4.176-25.317-10.405" fill="#e0705f"/><path d="M146.761 105.483a2.465 2.465 0 104.93 0 2.465 2.465 0 00-4.93 0m-21.967 0a2.465 2.465 0 104.93 0 2.465 2.465 0 00-4.93 0m22.416 23.71a3.479 3.479 0 106.958 0 3.479 3.479 0 00-6.958 0m-24.893 0a3.48 3.48 0 106.959 0 3.48 3.48 0 00-6.96 0" fill="#322a28"/><path d="M114.853 113.54c0 1.954 3.005 3.536 6.713 3.536 3.707 0 6.714-1.582 6.714-3.536 0-1.953-3.006-3.536-6.714-3.536-3.708 0-6.714 1.583-6.714 3.536m33.353 0c0 1.954 3.007 3.536 6.713 3.536 3.707 0 6.715-1.582 6.715-3.536 0-1.953-3.007-3.536-6.715-3.536-3.706 0-6.713 1.583-6.713 3.536" fill="#e0705f"/><path d="M71.516 178.696h5.413a2.89 2.89 0 002.892-2.89v-5.5H68.624v5.5a2.89 2.89 0 002.892 2.89" fill="#363636"/><path d="M110.306 178.696h3.852a2.89 2.89 0 002.891-2.89v-5.5h-9.635v5.5a2.89 2.89 0 002.892 2.89m-53.967 0h5.414a2.89 2.89 0 002.892-2.89v-5.5H53.448v5.5a2.89 2.89 0 002.89 2.89m-18.86-37.91a10.599 10.599 0 01-.53 14.98 10.599 10.599 0 01.53-14.98" fill="#3d3d3d"/><path d="M260.986 152.882s11.659 2.658 18.783-1.614c.69-.413 1.4.516.802 1.056-2.453 2.216-7.073 4.736-15.76 6.28-18.23 3.24-3.825-5.722-3.825-5.722" fill="#6b4024"/><path d="M249.585 172.552l.737 12.898a1.573 1.573 0 001.57 1.482h3.042a1.573 1.573 0 001.557-1.357l1.798-13.023zm-18.872 0l-8.138-7.182c.366 1.64 2.311 10.509 2.458 12.228l.632 7.888a1.572 1.572 0 001.568 1.446h2.082a1.573 1.573 0 001.572-1.594z" fill="#bc722e"/><path d="M253.069 151.406h-14.054c-6.924 0-11.026-6.155-11.026-6.155l-11.54 10.613 10.44 16.287c1.256 1.959 2.85 10.259 3.434 13.49a1.573 1.573 0 001.547 1.291h2.21c.88 0 1.589-.722 1.573-1.601l-.194-10.413a.907.907 0 011.047-.926c3.395.536 13.961 2.012 19.667.648a1.215 1.215 0 011.486 1.018l.736 9.818a1.573 1.573 0 001.57 1.456h3.096c.773 0 1.432-.561 1.553-1.325l1.307-8.205a35.75 35.75 0 001.448-5.855c.586-3.728.88-3.9.88-7.676 0-8.384-6.796-12.467-15.18-12.467" fill="#dd8c3a"/><path d="M219.393 135.246s-3.122-7.628-10.106-6.292c-6.984 1.337-11.293 12.037-7.578 13.226 3.714 1.188 8.506-2.186 9.51-7.728l3.418 5.499zm6.006 0s3.12-7.628 10.104-6.292c6.984 1.337 11.294 12.037 7.58 13.226-3.716 1.188-8.508-2.186-9.512-7.728l-3.417 5.499z" fill="#6b4024"/><path d="M235.117 148.715c0 9.512-5.695 12.525-12.722 12.525-7.026 0-12.722-3.013-12.722-12.525 0-9.513 5.696-17.224 12.722-17.224 7.027 0 12.722 7.71 12.722 17.224" fill="#f3a243"/><path d="M209.674 148.714c0 .126.005.246.007.37 2.268 1.582 5.45 1.739 7.859.378 2.434-1.378 3.95-4.236 3.721-7.026-.12-1.458-.672-2.854-1.396-4.126a15.89 15.89 0 00-3.85-4.494c-3.79 2.982-6.34 8.535-6.34 14.898" fill="#6b4024"/><path d="M218.518 146.635c0 .764-1.177 1.384-2.63 1.384-1.451 0-2.627-.62-2.627-1.384 0-.764 1.176-1.384 2.626-1.384 1.454 0 2.631.62 2.631 1.384m13.013 0c0 .764-1.177 1.384-2.629 1.384s-2.628-.62-2.628-1.384c0-.764 1.176-1.384 2.627-1.384 1.453 0 2.63.62 2.63 1.384" fill="#e0705f"/><path d="M218.942 142.418a1.247 1.247 0 11-2.493 0 1.247 1.247 0 012.493 0m9.4 0a1.247 1.247 0 11-2.493 0 1.247 1.247 0 012.493 0m-3.112 7.564a10.072 10.072 0 00-5.67 0 2.072 2.072 0 00-1.327 2.793 4.517 4.517 0 008.324 0 2.072 2.072 0 00-1.327-2.793" fill="#322a28"/><path d="M240.966 151.406c-.703.445-1.319.988-1.741 1.709-1.022 1.744-.486 4.23 1.165 5.399 1.22.862 2.835 1.009 4.061 1.862 1.658 1.152 2.472 3.49 4.422 4.019.564.153 1.164.127 1.737.017.773-.15 1.552-.474 2.03-1.098.454-.587.582-1.352.686-2.086.239-1.666.423-3.342.553-5.022.072-.934.128-1.876-.026-2.8a5.908 5.908 0 00-.731-2h-.053zm1.397 17.59c-1.136-.186-2.322-.096-3.413-.464-1.199-.405-2.144-1.318-3.059-2.193-.913-.875-1.888-1.768-3.105-2.113-1.217-.346-2.74.046-3.275 1.193-.48 1.03-.026 2.243.515 3.24.577 1.061 1.303 2.104 2.365 2.676 1.707.916 3.635 1.008 5.267 2.177a7.013 7.013 0 01.904.784 102.192 102.192 0 007.968.799c.052-.115.099-.23.136-.34.433-1.293.067-2.781-.795-3.837-.861-1.058-2.162-1.702-3.508-1.922" fill="#6b4024"/></svg>