<svg height="50" width="50" xmlns="http://www.w3.org/2000/svg"><path d="M24.57 21.039c-10.687 0-19.353 4.617-19.353 10.31 0 5.693 8.666 10.31 19.353 10.31 10.686 0 19.352-4.617 19.352-10.31 0-5.693-8.666-10.31-19.352-10.31" fill-opacity=".2"/><path d="M44.737 24.312l-5.249-3.067-.917 1.118 5.467 3.165.699-1.216m-4.326 2.298l-5.248-3.068-.917 1.118 5.467 3.165.698-1.216" fill="#494a4a"/><path d="M49.748 21.813l-7.86-4.54-.021.9 7.881 4.55v-.91" fill="#c6c5c3"/><path d="M49.535 21.94l-7.86-4.54-.021.9 7.88 4.55v-.91" fill="#606162"/><path d="M49.535 21.94l.215-.124v.912l-.215.123v-.91" fill="#818283"/><path d="M10.461 30.726l7.983 4.726-.04 1.256-7.979-4.743.036-1.24" fill="#982125"/><path d="M10.44 30.73l7.983 4.727L47.77 18.568l-7.982-4.726L10.44 30.73" fill="#b71e24"/><path d="M18.415 35.46L47.77 18.568l-.028.78-4.32 2.967-25.018 14.392.011-1.247" fill="#982125"/><path d="M25.242 31.791l2.112 1.206 7.069-4.015-1.903-1.24-7.278 4.05" fill="#b71e24"/><path d="M27.354 32.997l7.069-4.015-.017 2.738-7.052 4.006v-2.73" fill="#982125"/><path d="M27.353 32.997l-2.24-1.28.017 2.739 2.225 1.276-.002-2.735" fill="#762225"/><path d="M28.917 32.677l-1.347.76v1.78l1.347-.76v-1.78" fill="#b71e24"/><path d="M27.594 33.45v1.727l1.3-.734v-1.726zm-.047 1.807v-1.834l.012-.006 1.382-.78v1.834l-.013.006-1.381.78" fill="#762225"/><path d="M32.16 30.857l-3.006 1.681v1.78l3.007-1.681v-1.78" fill="#b71e24"/><path d="M29.178 32.552v1.726l2.96-1.655v-1.726zm-.047 1.806v-1.833l.012-.007 3.041-1.7v1.833l-.012.006-3.04 1.701" fill="#762225"/><path d="M33.783 29.947l-1.347.76v1.78l1.347-.76v-1.78" fill="#b71e24"/><path d="M32.46 30.72v1.727l1.3-.734v-1.726zm-.048 1.807v-1.834l.012-.007 1.382-.779v1.833l-.012.007-1.382.78" fill="#762225"/><path d="M44.015 5.502C47.32 7.498 50 11.81 50 15.13c0 1.369-.456 2.355-1.222 2.903l-.007.005a2.515 2.515 0 01-.398.231L24.266 32.241l-9.06-13.41 24.25-13.964h.001c1.098-.631 2.732-.467 4.558.635" fill="#fad720"/><path d="M19.701 19.583c3.305 1.995 5.986 6.306 5.986 9.627 0 3.32-2.68 4.395-5.986 2.4-3.305-1.995-5.985-6.306-5.985-9.627 0-3.32 2.68-4.395 5.985-2.4" fill="#dc9d15"/><path d="M4.633 32.062c-.924.374-2.509.945-4.218 2.253l1.652.944 2.566-3.197" fill="#cdccca"/><path d="M2.055 35.237v3.955l-1.64-.939v-3.955l1.64.939" fill="#4f5050"/><path d="M2.157 36.044v2.594c0 .05-.024.093-.068.118a.133.133 0 01-.136.001l-1.052-.602a.268.268 0 01-.138-.238v-2.594c0-.05.024-.093.068-.119a.133.133 0 01.136 0l1.052.602c.088.05.138.137.138.238" fill="#fff"/><path d="M2.157 36.044v2.594l-.008.047-.028-.013-1.052-.602a.269.269 0 01-.138-.238v-2.594l.008-.047.028.013 1.052.602c.088.05.138.137.138.238" fill="url(#a)"/><path d="M2.157 37.504v1.134l-.008.047-.028-.013-1.052-.602a.269.269 0 01-.138-.238v-1.134l.008-.047.028.012 1.052.602c.088.05.138.137.138.239" fill="url(#b)"/><path d="M.804 39.117v1.39L.2 39.801l.158-.603.447-.081" fill="#4f5050"/><path d="M21.239 39.368c.168-.11.215-.333.177-.635l-1.086-.595-4.454 2.44-.179.55 1.207.592c.144.07.3.07.44-.01l3.895-2.342" fill="#606162"/><path d="M21.197 38.32l-.855-.446-4.466 2.447-.179.568 1.191.583c.145.071.3.07.44-.01l3.887-2.337a.45.45 0 00.228-.408.45.45 0 00-.246-.397" fill="#c6c5c3"/><path d="M15.936 41.232l-5.797-2.759.885-1.44 5.753 1.846-.84 2.353" fill="#352d2a"/><path d="M13.495 39.057c-1.97-.216-3.528 3.914-2.316 4.816l1.387.808 2.67-4.645-1.74-.979" fill="#363635"/><path d="M12.812 44.79c.86.267 2.025-.623 2.604-1.987.579-1.364.351-2.686-.508-2.952-.859-.267-2.025.623-2.603 1.987-.579 1.363-.352 2.685.507 2.952" fill="#595a5b"/><path d="M14.348 40.476c.655-.142 1.103.54.72 1.763-.384 1.223-1.091 1.853-1.678 2.045-.587.192-.985-.563-.737-1.574.248-1.01 1.04-2.093 1.695-2.234" fill="#ecebeb"/><path d="M14.256 40.564c.567-.123.955.467.623 1.525-.332 1.058-.944 1.603-1.452 1.77-.508.166-.852-.488-.637-1.362.215-.874.9-1.81 1.466-1.933" fill="#c6c5c3"/><path d="M14.073 40.824c.493-.107.83.405.541 1.324-.288.92-.82 1.393-1.26 1.537-.442.145-.74-.423-.554-1.182.187-.76.78-1.573 1.273-1.68" fill="#ecebeb"/><path d="M14.47 42.364c-.275.71-.715 1.084-1.086 1.205-.254.084-.457-.09-.53-.404.53.404 1.034.197 1.616-.801" fill="#818283"/><path d="M14.045 40.943c.256-.055.465.072.551.345a.48.48 0 00-.454-.117c-.497.108-1.097.93-1.286 1.696a2.09 2.09 0 00-.026.123 1.635 1.635 0 01.047-.508c.172-.696.717-1.441 1.168-1.539" fill="#fff"/><path d="M13.907 41.943c.143-.03.24.118.157.385-.084.267-.238.405-.367.447-.128.042-.215-.123-.16-.344.054-.22.226-.457.37-.488" fill="#c6c5c3"/><path d="M14.349 41.189c.065-.014.11.053.071.174-.038.121-.108.184-.166.203-.058.02-.097-.056-.073-.156.025-.1.103-.207.168-.221m-1.035 1.945c.065-.014.11.054.072.175-.038.121-.108.183-.167.202-.058.02-.097-.055-.073-.156.025-.1.103-.207.168-.22m.42-1.806c.065-.015.11.053.071.174-.038.121-.108.184-.166.203-.058.019-.098-.056-.073-.156.025-.1.103-.207.168-.221m.26 1.551c.064-.014.109.053.071.174-.038.122-.108.184-.166.203-.058.02-.098-.056-.073-.156.024-.1.103-.207.168-.221m.449-.839c.065-.013.11.054.072.175-.038.121-.108.184-.167.203-.058.019-.097-.056-.072-.156.024-.1.103-.207.167-.222m-1.311.179c.065-.014.11.053.071.174-.038.122-.108.184-.166.203-.058.019-.097-.056-.073-.156.025-.1.103-.207.168-.221" fill="#363635"/><path d="M13.874 41.98c.095-.021.16.078.104.255-.056.177-.158.268-.243.296-.085.028-.143-.082-.107-.228.036-.146.15-.303.246-.324" fill="#818283"/><path d="M4.065 29.583l-.496-.267c-.165-.088-.39-.01-.383.137l.084 1.952c.006.148.148.294.299.427l.375.33c.1.087.42-.024.42-.17v-1.983c0-.146-.134-.338-.299-.426" fill="#787c8a"/><path d="M3.944 29.646l-.496-.266c-.165-.088-.299-.04-.299.106v1.983c0 .147.134.339.299.427l.496.266c.164.088.299.04.299-.106v-1.983c0-.146-.135-.338-.299-.427" fill="#363635"/><path d="M6.615 25.225l-2.728 7.41c.958.987 2.149 1.864 3.506 2.638 1.556.888 3.33 1.642 5.224 2.272.905-2.49 1.675-4.906 2.58-7.397-2.934-.98-5.927-2.712-7.804-4.242a12.967 12.967 0 01-.778-.681z" fill="#2b59ab"/><path d="M20.712 25.036l-6.913-3.894a2.186 2.186 0 00-2.104-.007l-1.051.669c-1.837 1.168-3.46 2.302-4.03 3.42a26.363 26.363 0 008.936 5.127l4.85-2.658c.528-1.244.788-2.262.312-2.657M1.89 34.927c1.299 3.496 5.207 3.613 5.878 3.364l5.526-2.54c-3.624-1.397-6.577-3.114-8.761-4.79L1.89 34.926" fill="#cdccca"/><path d="M1.89 34.927c.438 1.178.78 2.632 1.935 3.305 1.136-2.075 2.236-3.443 3.744-4.771-1.225-.71-2.26-1.522-3.205-2.247L1.89 34.927" fill="url(#c)"/><path d="M7.768 38.291v5.28L1.89 40.204v-5.278l5.878 3.364" fill="#4f5050"/><path d="M7.212 38.857v3.365a.118.118 0 01-.06.104c-.037.022-.267.118-.305.097L2.363 39.67a.24.24 0 01-.121-.208l-.112-3.365c-.003-.063.229-.14.29-.105l4.671 2.655c.077.044.12.12.12.209" fill="#818283"/><path d="M11.493 32.118c.18-.404.806-.453 1.49-.154v.257c-.52-.227-.996-.19-1.134.118-.164.366.21.976.837 1.364.1.061.199.113.297.156v.257a3.112 3.112 0 01-.39-.205c-.681-.421-1.136-1.044-1.15-1.518v-.041a.6.6 0 01.05-.234m1.49-.154c.129.056.26.124.39.205.686.425 1.143 1.054 1.15 1.53v.024a.603.603 0 01-.05.239c-.181.404-.806.452-1.49.154v-.257c.52.227.996.19 1.134-.117.164-.367-.211-.977-.837-1.365a2.363 2.363 0 00-.297-.156v-.257" fill="#3573c2"/><path d="M13.798 33.682L7.497 30.67a1.76 1.76 0 00-1.199-.133l-1.545.354v.001c2.467 1.765 5.524 3.415 8.463 4.404l.001-.001.58-1.612" fill="#3573c2"/><path d="M6.771 25.664c.196.2.404.391.622.578.663.568 1.425 1.08 2.287 1.563l-.01.87c0 .066-.05.152-.133.223l-3.555 2.543c-.118.004-.887-.44-.878-.552z" fill="#fff" fill-opacity=".5"/><path d="M20.991 25.925c-.002-.518-.074-.828-.378-.945.243.137-.082.38-.228.472-1.736 1.096-4.08 3.08-4.862 4.135-.188.254-.49.864-.64 1.298l-1.626 4.851-5.489 2.555-.034 6.204 3.78-.877c-.034-4.235 4.216-6.196 4.418-2.439l.004.053 5.055-2.985V25.925" fill="#959595"/><path d="M14.667 38.677c.827 0 1.457.646 1.69 1.73l2.814-1.62V28.253l-3.402 1.957a.856.856 0 00-.402.494l-1.816 5.479.033 2.829c.37-.223.735-.335 1.083-.335zm1.658 1.804l-.006-.032c-.224-1.08-.841-1.725-1.652-1.725-.35 0-.719.117-1.094.349l-.035.022v-.042l-.034-2.877 1.819-5.487a.9.9 0 01.423-.52l3.472-1.997v10.642l-.012.007-2.88 1.66" fill="#5e6061"/><path d="M15.932 30.428l2.598-1.53c.057-.034.107-.048.148-.041.04.007.061.032.061.074v3.893c0 .065-.051.15-.133.222l-4.254 3.185c-.144.108-.28.187-.397.191-.119.005-.18-.057-.17-.171l1.73-5.29a.96.96 0 01.417-.533" fill="#9cb7cd"/><path d="M15.932 30.428l2.598-1.53.006-.004v3.834c0 .066-.051.151-.133.223l-4.254 3.185c-.128.097-.25.17-.36.187a.212.212 0 01-.005-.072l1.732-5.29a.96.96 0 01.416-.533" fill="#2b59ab"/><path d="M18.798 34.015c-.14-.072-.592.237-.757.448-.165.211-.024.52.16.582.185.063.527-.184.65-.39.123-.206.088-.568-.053-.64" fill="#5e6061"/><path d="M17.77 34.7c.344-.127.87-.444 1.124-.672.099.065.086.196-.037.394-.19.213-.532.473-1.024.666-.173-.106-.194-.235-.064-.389" fill="#363635"/><path d="M17.915 34.686c.265-.098.67-.34.865-.517.165.11-.73.64-.893.703-.132-.081-.097-.147.028-.186" fill="url(#d)"/><path d="M12.596 36.497L8.13 38.7l1.819 1.04c2.024-1.225 2.906-2.306 2.646-3.244" fill="#cdccca"/><path d="M9.981 39.726l.001 3.95-1.819-1.04v-3.95l1.818 1.04" fill="#4f5050"/><path d="M10.36 39.612c.196-.102.385-.211.564-.329l.111.053c-.016.425-.11.887-.11 1.304-.161.095-.283.271-.454.358l-.111-.053v-1.333" fill="#a53822"/><path d="M10.47 39.665c.197-.102.386-.212.565-.33v1.357c-.18.108-.37.21-.564.306v-1.333" fill="#ee6d17"/><path d="M10.521 39.755a5.52 5.52 0 00.464-.27v1.114a6.829 6.829 0 01-.464.251v-1.095" fill="url(#e)"/><path d="M9.571 45.194l-.394.223c-.437.247-1.589-.11-2.092-.4l-6.78-3.903s-.258-.162-.233-.347V39.41c3.018 1.143 5.427 2.916 8.278 4.54.262.15.475.108.742-.032.123-.064.246-.13.368-.198l.111.063v1.41" fill="#989997"/><path d="M.804 39.117l-.226.248 7.048 4.012c.794.452 1.216.291 1.483.151l.006-.003.456.259-.394.224c-.474.269-1.518-.066-2.021-.356L.305 39.705s-.447-.282-.106-.526l.304-.217.301.155" fill="#fff"/><path d="M.804 39.117l-.226.248 7.048 4.012c.794.452 1.216.291 1.483.151l.006-.003.456.259-.394.224a.817.817 0 01-.321.092 4.075 4.075 0 01-1.469-.476L.073 39.41c-.01-.074.019-.154.126-.23l.304-.218.301.155" fill="#dcdbd9"/><path d="M.697 39.234l-.119.13 7.048 4.013c.549.312.92.332 1.185.268.168.01.308-.014.426-.051l.334.19-.394.224a.817.817 0 01-.321.092 4.075 4.075 0 01-1.469-.476L.073 39.41c-.01-.074.019-.154.126-.23l.178-.128.32.182" fill="#dcdbd9"/><path d="M9.625 40.19v2.593c0 .05-.025.094-.068.119a.132.132 0 01-.136 0L8.369 42.3a.268.268 0 01-.138-.238V39.47c0-.05.024-.094.067-.119a.133.133 0 01.137 0l1.052.601a.27.27 0 01.138.239" fill="#fff"/><path d="M9.625 40.19v2.593l-.008.047-.028-.012-1.052-.602a.268.268 0 01-.138-.238v-2.594l.008-.047.028.012 1.052.602a.27.27 0 01.138.239" fill="url(#f)"/><path d="M9.625 41.65v1.133l-.008.047-.028-.012-1.052-.602a.268.268 0 01-.138-.238v-1.135l.008-.047.028.013 1.052.602a.27.27 0 01.138.238" fill="url(#g)"/><path d="M7.465 44.187c-.012.221-.014.44-.005.655l-.102.07c-.356-.231-.703-.548-1.06-.76 0-.188-.089-.382-.076-.575l.102-.07 1.141.68" fill="#a53822"/><path d="M7.364 44.256c-.013.222-.015.44-.006.656l-1.162-.691c0-.212.01-.427.026-.644l1.142.679" fill="#ee6d17"/><path d="M7.26 44.253c-.01.183-.011.363-.004.54l-.954-.569c0-.173.007-.35.021-.529l.938.558" fill="url(#h)"/><path d="M1.269 40.553c-.012.221-.015.44-.006.655l-.101.07c-.356-.231-.703-.549-1.06-.76 0-.188-.09-.382-.076-.575l.102-.07 1.141.68" fill="#a53822"/><path d="M1.167 40.622a6.54 6.54 0 00-.005.656L0 40.586c0-.21.01-.426.026-.643l1.141.679" fill="#ee6d17"/><path d="M1.064 40.62c-.01.182-.012.362-.004.538l-.955-.568c0-.173.008-.35.022-.528l.937.557" fill="url(#i)"/><path d="M15.259 34.792l-.639-.162c-.21-.053-.5.072-.491.218l.107 1.935c.009.146.191.262.384.363l.483.251c.127.066.54-.112.54-.259v-1.982c0-.147-.173-.31-.384-.364" fill="#6e6e70"/><path d="M14.081 36.155c-.152.046-.122.032-.274.077-.277.093-.177.687.005.591l.418-.228-.15-.44" fill="#363635"/><path d="M15.103 34.881l-.638-.161c-.211-.054-.384.023-.384.17v1.982c0 .146.173.31.384.363l.638.162c.211.054.384-.022.384-.169v-1.983c0-.146-.173-.31-.384-.364" fill="#363635"/><path d="M7.179 25.19c2.169 1.908 4.459 3.39 7.464 4.459.864-1.623 3.366-2.985 4.897-3.952.647-.408-.115-.732-.425-.86-4.383-1.815-7.374-1.668-11.936.354" fill="url(#j)"/><path d="M17.615 25.99l.348-1.395c.048-.193-.064-.381-.236-.48l-5.602-3.202a.263.263 0 00-.255-.007l-.017.01-.001-.001-.771.448.564.322-.111.827 6.081 3.478" fill="#ee6d17"/><path d="M16.995 26.518l.2-1.48a.47.47 0 00-.237-.479l-5.602-3.202a.263.263 0 00-.255-.007.265.265 0 00-.149.208l-.187 1.397 6.23 3.563" fill="#d44320"/><path d="M17.96 24.404l-.768.484-.197 1.63 1.317-.92-.351-1.194" fill="#c12e23"/><path d="M16.68 26.338l.166-1.236a.428.428 0 00-.214-.435l-5.096-2.913a.24.24 0 00-.232-.007.242.242 0 00-.135.19l-.156 1.16 5.666 3.24" fill="#efa210"/><path d="M15.843 25.86l.15-1.111a.428.428 0 00-.215-.436l-3.536-2.022a.24.24 0 00-.232-.007.242.242 0 00-.135.19l-.14 1.036 4.108 2.35" fill="#d44320"/><path d="M17.544 24.394c-.194.106-.356.243-.363.307-.006.064.145.03.339-.076.193-.105.355-.243.362-.307.007-.064-.145-.03-.338.076" fill="#fff"/><path d="M12.36 22.897c.188.069.316.3.284.513l-.083.558-.002.004-.662-.378.064-.434c.032-.213.211-.331.4-.263m.775.445c.187.068.315.3.284.512l-.083.558-.003.004-.662-.379.064-.433c.032-.213.212-.331.4-.262m.774.444c.189.068.316.3.285.512l-.083.558-.002.003-.662-.379.064-.431c.031-.214.211-.332.399-.263m.777.444c.188.07.316.3.285.514l-.083.557-.003.004-.662-.379.064-.432c.032-.214.212-.332.4-.263m.775.444c.188.069.315.3.284.512l-.083.558-.002.003L15 25.37l.065-.432c.031-.214.21-.332.399-.263" fill="#c12e23"/><path d="M6.96 38.902v3.406a.11.11 0 01-.057.099.111.111 0 01-.114 0l-4.6-2.606a.224.224 0 01-.116-.199v-3.405c0-.042.02-.078.057-.1a.112.112 0 01.114 0l4.6 2.606a.224.224 0 01.116.2" fill="#4f5050"/><path d="M6.759 38.931v3.125a.103.103 0 01-.052.091.102.102 0 01-.105.001L2.38 39.756a.205.205 0 01-.106-.183v-3.125a.1.1 0 01.052-.09.102.102 0 01.104-.001l4.223 2.392a.205.205 0 01.105.182" fill="#2e2d2d"/><path d="M6.759 41.9l-4.071-2.306a.204.204 0 01-.106-.182v-2.97l4.07 2.307a.204.204 0 01.107.182v2.97" fill="#5e6061"/><path d="M4.49 39.702l-.162-.09c-.766-.429-1.459-.886-2.045-1.387a.13.13 0 00-.183.016.13.13 0 00.016.183c.599.511 1.305.978 2.086 1.415.095.053.191.106.288.158zm0-.536l-.162-.09c-.766-.428-1.459-.886-2.045-1.386a.129.129 0 00-.183.015.13.13 0 00.016.184c.599.51 1.305.978 2.086 1.415l.288.158zm0-.535l-.16-.089c-.767-.428-1.46-.886-2.046-1.386a.13.13 0 00-.183.015.13.13 0 00.016.183c.599.511 1.305.978 2.087 1.415.094.053.19.105.286.157zm0-.535v.295a19.763 19.763 0 01-.287-.157c-.781-.437-1.487-.905-2.086-1.415a.13.13 0 01-.016-.184.13.13 0 01.183-.015c.587.5 1.279.958 2.045 1.387l.161.089zm-2.374.863a.13.13 0 01-.016-.183.129.129 0 01.183-.015c.586.5 1.279.958 2.045 1.386l.162.09v.295a19.494 19.494 0 01-.288-.157c-.781-.437-1.487-.905-2.086-1.416zm2.374-.568v-.295c.725.396 1.514.768 2.342 1.126a.13.13 0 01.068.17.13.13 0 01-.17.07 29.35 29.35 0 01-2.24-1.07zm0 .535v-.295c.725.396 1.514.768 2.342 1.126a.13.13 0 01.068.171.13.13 0 01-.17.068 29.14 29.14 0 01-2.24-1.07zm0 .536c.7.376 1.453.73 2.239 1.069a.13.13 0 00.103-.24 28.411 28.411 0 01-2.342-1.125zm0 .535c.7.377 1.454.73 2.239 1.07a.13.13 0 00.17-.07.13.13 0 00-.068-.17 28.378 28.378 0 01-2.34-1.125zm0 .24c.724.396 1.514.768 2.341 1.125a.13.13 0 01.068.171.13.13 0 01-.17.069 29.227 29.227 0 01-2.239-1.07v-.295"/><path d="M4.504 39.655l-.162-.09c-.767-.429-1.46-.887-2.046-1.387a.129.129 0 00-.182.016.13.13 0 00.015.183c.6.51 1.306.978 2.087 1.415.095.053.19.106.288.158zm0-.536l-.162-.09c-.767-.428-1.46-.886-2.046-1.386a.129.129 0 00-.182.015.13.13 0 00.015.184c.6.51 1.306.978 2.087 1.415l.288.158zm0-.535l-.161-.09c-.767-.428-1.459-.886-2.046-1.386a.13.13 0 00-.182.016.13.13 0 00.015.183c.6.51 1.306.978 2.087 1.415l.287.157zm0-.535v.295a17.41 17.41 0 01-.287-.157c-.782-.437-1.488-.905-2.087-1.415a.13.13 0 01-.015-.184.13.13 0 01.182-.015c.587.5 1.28.958 2.046 1.387l.16.089zm-2.375.863a.13.13 0 01-.015-.183.129.129 0 01.182-.015c.587.5 1.28.958 2.046 1.386l.162.09v.295a20.102 20.102 0 01-.288-.158c-.781-.436-1.488-.904-2.087-1.415zm2.375-.568v-.295c.724.396 1.513.768 2.342 1.126a.13.13 0 01-.103.24 29.358 29.358 0 01-2.24-1.07zm0 .535v-.295c.724.396 1.513.768 2.342 1.126a.13.13 0 01.068.17.13.13 0 01-.17.07 29.251 29.251 0 01-2.24-1.07zm0 .536c.7.376 1.453.73 2.238 1.069a.13.13 0 00.17-.068.131.131 0 00-.067-.172 28.475 28.475 0 01-2.341-1.125zm0 .535c.7.376 1.453.73 2.238 1.07a.13.13 0 00.103-.24 28.443 28.443 0 01-2.341-1.125zm0 .24c.724.395 1.513.767 2.34 1.125a.131.131 0 01.069.171.13.13 0 01-.171.069 29.409 29.409 0 01-2.238-1.07v-.295" fill="#818283"/><path d="M5.13 30.804l.232-.725c-.053.23-.092.463-.116.698l-.115.027m.53-1.663l1.111-3.476c.029.174.297.46.738.812-.834.827-1.462 1.721-1.848 2.664" fill="url(#k)"/><path d="M5.246 30.777c.024-.235.063-.467.116-.698l.3-.938c.386-.943 1.014-1.837 1.848-2.664.519.414 1.278.918 2.169 1.437l-.008.762c-.001.065-.052.152-.134.223-.89.666-1.6 1.193-2.145 1.59v.134-.134l-.121.088a1.715 1.715 0 00-.55-.09 1.88 1.88 0 00-.423.049l-1.052.241" fill="url(#l)"/><path d="M11.352 32.513L7.497 30.67a2.122 2.122 0 00-.105-.046v-.134c.545-.397 1.255-.924 2.145-1.59.082-.071.133-.158.134-.223l.008-.762c1.376.8 3.068 1.634 4.684 2.22-.547.743-1.124 1.301-1.713 1.71a1.812 1.812 0 00-.482-.072c-.322 0-.571.115-.675.346a.6.6 0 00-.05.234v.04c0 .028.003.057.006.086a7.618 7.618 0 01-.097.035m.517-.214c.078-.132.227-.206.416-.221a5.558 5.558 0 01-.416.221m-6.883-1.462c-.009-.026-.009-.046 0-.06l1.786-5.112-1.11 3.476-.3.938-.231.725-.145.033m2.406-.214a1.895 1.895 0 00-.121-.046l.121-.088v.134" fill="url(#m)"/><path d="M11.45 32.478a.843.843 0 01-.008-.085v-.041a.6.6 0 01.05-.234c.105-.231.354-.346.676-.346.147 0 .31.024.482.072a5.816 5.816 0 01-.365.234c-.19.015-.338.089-.416.221-.14.067-.28.126-.42.179" fill="url(#n)"/><path d="M9.596 32.81c-2.44 0-4.481-1.593-4.61-1.973l.145-.033.115-.027 1.052-.241a1.715 1.715 0 011.094.087c.035.014.07.03.105.046l3.855 1.844a5.24 5.24 0 01-1.756.297" fill="url(#o)"/><path d="M34.323 8.55c.203-1.03 1.776-1.761 3.513-1.632 1.737.13 2.981 1.07 2.779 2.1-.203 1.03-1.776 1.76-3.513 1.631-1.737-.129-2.981-1.07-2.779-2.1" fill="#fad720"/><path d="M40.636 8.823l.022.89c.008.068.01.137.005.206v.001a1.08 1.08 0 01-.019.142c-.202 1.03-1.775 1.76-3.512 1.631-1.594-.118-2.772-.92-2.8-1.846l-.027-.995c.067.906 1.232 1.681 2.797 1.797 1.737.13 3.31-.6 3.513-1.631.013-.065.02-.13.021-.195zm-.003-.109v.007z" fill="#daab13"/><path d="M34.663 8.575c.181-.919 1.584-1.57 3.133-1.455 1.55.115 2.66.954 2.479 1.873-.18.919-1.584 1.57-3.133 1.455-1.55-.116-2.66-.954-2.479-1.873" fill="#dcae12"/><path d="M34.663 8.359c.181-.919 1.584-1.57 3.133-1.455 1.55.115 2.66.954 2.479 1.873-.18.919-1.584 1.57-3.133 1.455-1.55-.115-2.66-.954-2.479-1.873" fill="#fad720"/><path d="M24.798 25.521l24.334-14.036c.551 1.242.868 2.502.868 3.644 0 1.369-.456 2.355-1.222 2.903l-.007.005a2.515 2.515 0 01-.398.231L24.266 32.241c.886-.514 1.42-1.548 1.42-3.031 0-1.157-.325-2.432-.888-3.689" fill="#daab13"/><path d="M44.004 21.595c-1.97-.216-3.529 3.914-2.317 4.816l1.387.808 2.67-4.645-1.74-.979" fill="#363635"/><path d="M43.32 27.328c.86.267 2.025-.623 2.604-1.987.579-1.364.351-2.686-.507-2.952-.86-.267-2.025.623-2.604 1.987-.579 1.363-.351 2.686.508 2.952" fill="#595a5b"/><path d="M44.856 23.014c.655-.142 1.103.54.72 1.763-.384 1.223-1.09 1.853-1.678 2.045-.587.192-.985-.563-.737-1.574.248-1.01 1.04-2.093 1.695-2.234" fill="#ecebeb"/><path d="M44.764 23.102c.567-.123.955.467.623 1.525-.332 1.058-.943 1.603-1.451 1.77-.509.166-.853-.488-.638-1.362.215-.874.9-1.81 1.466-1.933" fill="#c6c5c3"/><path d="M44.581 23.362c.493-.107.83.405.541 1.324-.288.92-.82 1.393-1.26 1.537-.441.145-.74-.423-.554-1.183.187-.759.781-1.572 1.273-1.678" fill="#ecebeb"/><path d="M44.978 24.902c-.275.71-.715 1.084-1.086 1.205-.254.084-.456-.09-.53-.404.53.404 1.034.197 1.616-.801" fill="#818283"/><path d="M44.553 23.481c.256-.055.466.072.551.345a.48.48 0 00-.454-.117c-.497.108-1.097.93-1.286 1.696-.01.042-.018.083-.026.123-.011-.15.002-.323.048-.508.17-.696.716-1.441 1.167-1.539" fill="#fff"/><path d="M44.415 24.481c.143-.03.24.118.157.385-.084.267-.238.405-.366.447-.129.042-.216-.123-.161-.344.054-.22.227-.457.37-.488" fill="#c6c5c3"/><path d="M44.857 23.727c.065-.014.11.053.071.174-.038.122-.108.184-.166.203-.058.019-.097-.056-.073-.156.025-.1.103-.207.168-.221m-1.034 1.945c.065-.014.109.054.07.175-.037.121-.107.183-.165.203-.059.019-.098-.056-.073-.156.024-.1.103-.208.168-.222m.419-1.805c.065-.014.11.053.071.174-.038.121-.108.184-.166.203-.058.019-.097-.056-.073-.156.025-.1.103-.207.168-.221m.26 1.551c.065-.014.11.053.071.174-.038.122-.108.184-.166.203-.058.02-.098-.056-.073-.156.024-.1.103-.207.168-.221m.45-.838c.064-.014.109.053.07.174-.037.121-.107.184-.165.203-.058.019-.098-.056-.073-.156.024-.1.103-.207.168-.221m-1.312.178c.065-.014.11.053.072.175-.039.12-.109.183-.167.202-.058.02-.097-.056-.073-.156.025-.1.103-.207.168-.221" fill="#363635"/><path d="M44.382 24.517c.095-.02.16.079.104.256-.055.177-.158.268-.243.296-.085.028-.143-.082-.107-.228.036-.146.15-.303.246-.324" fill="#818283"/><path d="M39.812 23.962c-1.97-.216-3.528 3.913-2.316 4.816l1.386.808 2.67-4.645-1.74-.98" fill="#363635"/><path d="M39.129 29.695c.859.266 2.025-.624 2.603-1.987.58-1.364.352-2.686-.507-2.953-.859-.266-2.025.623-2.604 1.987-.579 1.364-.351 2.686.508 2.953" fill="#595a5b"/><path d="M40.664 25.38c.655-.141 1.104.54.72 1.763-.383 1.223-1.09 1.853-1.678 2.046-.587.192-.985-.564-.737-1.574.249-1.01 1.04-2.093 1.695-2.235" fill="#ecebeb"/><path d="M40.573 25.468c.567-.122.954.467.623 1.526-.332 1.058-.944 1.603-1.452 1.77-.508.166-.852-.488-.638-1.363.215-.874.9-1.81 1.467-1.933" fill="#c6c5c3"/><path d="M40.39 25.728c.492-.106.83.406.54 1.325-.287.919-.819 1.392-1.26 1.537-.441.144-.74-.423-.553-1.183.186-.76.78-1.573 1.273-1.679" fill="#ecebeb"/><path d="M40.787 27.268c-.275.71-.715 1.085-1.086 1.206-.254.083-.457-.09-.53-.404.53.404 1.033.197 1.616-.802" fill="#818283"/><path d="M40.362 25.848c.255-.056.465.071.55.345a.48.48 0 00-.453-.117c-.497.107-1.098.93-1.286 1.696a1.95 1.95 0 00-.027.123 1.628 1.628 0 01.048-.508c.171-.696.716-1.442 1.168-1.54" fill="#fff"/><path d="M40.223 26.848c.143-.031.241.118.158.385-.084.267-.239.404-.367.447-.128.041-.215-.124-.161-.344.054-.22.227-.457.37-.488" fill="#c6c5c3"/><path d="M40.665 26.093c.065-.014.11.054.072.175-.038.121-.108.184-.166.203-.058.019-.098-.056-.073-.156.024-.1.103-.208.167-.222m-1.034 1.946c.065-.014.11.053.071.174-.038.122-.108.184-.166.203-.058.019-.098-.056-.073-.156.025-.1.103-.207.168-.221m.419-1.806c.065-.014.11.053.072.175-.038.12-.108.183-.166.202-.059.02-.098-.056-.073-.156.024-.1.102-.207.167-.22m.26 1.55c.065-.014.11.054.072.175-.038.121-.108.184-.167.203-.058.019-.097-.056-.073-.156.025-.1.103-.208.168-.222m.45-.838c.065-.014.11.054.071.175-.038.121-.108.183-.166.203-.058.019-.097-.056-.073-.156.025-.1.103-.208.168-.222m-1.311.178c.064-.014.109.054.07.175-.037.121-.107.184-.165.203-.058.019-.098-.056-.073-.156.024-.1.103-.208.168-.222" fill="#363635"/><path d="M40.19 26.884c.095-.02.16.078.105.255-.056.178-.158.269-.243.297-.086.027-.143-.082-.107-.228.036-.147.15-.304.245-.324" fill="#818283"/><path d="M49.66 16.927L25.342 31.014c.222-.495.344-1.099.344-1.804 0-.853-.177-1.77-.496-2.698l24.33-14.033c.308.91.479 1.812.479 2.65 0 .703-.12 1.305-.34 1.798" fill="#b71e24"/><path d="M23.134 15.04c.202-1.03 1.775-1.76 3.512-1.63 1.737.129 2.982 1.069 2.779 2.099-.203 1.03-1.776 1.76-3.513 1.631-1.737-.129-2.981-1.07-2.778-2.1" fill="#fad720"/><path d="M29.446 15.314l.022.89c.008.067.01.136.005.206v.001c-.003.047-.01.094-.019.142-.202 1.03-1.775 1.76-3.512 1.631-1.593-.118-2.772-.92-2.8-1.846l-.027-.995c.068.906 1.232 1.68 2.797 1.797 1.737.13 3.31-.601 3.513-1.63.013-.066.02-.131.021-.195zm-.003-.109v.007z" fill="#daab13"/><path d="M23.474 15.066c.18-.919 1.583-1.57 3.132-1.455 1.55.115 2.66.954 2.479 1.873-.18.919-1.584 1.57-3.133 1.455-1.55-.116-2.66-.954-2.478-1.873" fill="#dcae12"/><path d="M23.474 14.85c.18-.919 1.583-1.57 3.132-1.455 1.55.115 2.66.954 2.479 1.873-.18.919-1.584 1.57-3.133 1.455-1.55-.115-2.66-.954-2.478-1.873" fill="#fad720"/><path d="M22.81 22.047L46.721 8.254c.273.323.533.66.777 1.005L23.59 23.049c-.246-.345-.507-.68-.782-1.002" fill="url(#p)"/></svg>