<svg height="450" width="994" xmlns="http://www.w3.org/2000/svg"><path d="M956.569 187.759c-10.812-8.63-27.104-9.169-37.639.172-19.34 12.233-39.799 30.447-40.08 55.13.501 19.819 11.252 38.953 26.461 51.27 15.62 10.808 36.467 6.285 50.55-4.865 31.772-23.563 33.476-78.228.708-101.707z" fill="#e8aca6"/><path d="M851.407 300.833c10.147-13.746 11.846-33.258 3.316-48.208-3.937-7.551-10.157-13.57-16.309-19.254-7.637-4.618-17.023-3.658-25.583-3.953-11.997-.247-24.032 6.294-29.205 17.334-8.403 16.868-5.814 36.993.423 54.123 4.151 11.206 13.028 22.638 26.38 23.358 16.907.13 31.68-10.511 40.978-23.4z" fill="#ffe67d"/><path d="M663.788 366.845c12.908 3.97 27.392-.31 37.649-8.661 9.26-7.345 13.502-20.191 10.322-31.589-1.496-6.506-5.174-12.18-8.686-17.722-4.994-5.493-12.703-6.938-19.45-9.23-9.095-2.94-20.03-1.279-26.546 6.14-9.17 9.926-10.97 24.428-9.677 37.378 1.033 9.959 6.16 20.535 16.388 23.684z" fill="#c7e598"/><path d="M932.25 185.018c-7.664-.088-15.366 1.588-22.611 5.367-10.162 5.297-18.296 13.75-24.522 23.261-6.385 9.761-12.536 21.434-12.123 33.409.24 6.94 2.308 13.707 4.922 20.091 2.25 5.505 5.007 10.84 8.732 15.502 4.107 5.147 9.303 8.505 14.743 12.067 5.992 3.92 12.785 9.663 11.732 17.625-2.035.493-3.243 2.346-3.074 4.459.15 1.902 1.257 3.624 2.693 4.922-.953 2.951-1.82 7.214 1.772 8.558 1.13.424 2.39.472 3.652.403 1.32 1.606 1.884 3.204 2.727 5.064.358.785.667 1.462 1.402 1.945 1.323.875 3.271.842 5.101.674-.001.02-.02.026-.021.047l-1.264 39.203c-.176 5.446-.593 11.134 1.178 16.383.302.892.707 1.79 1.188 2.65-1.172 4.142-1.136 9.31-1.358 12.497-1.002 14.392-1.709 28.88-5.793 42.806-.313 1.058 1.34 1.508 1.647.453 2.546-8.682 3.84-17.627 4.642-26.623.422-4.644.716-9.298 1.03-13.95.298-4.396.358-8.962 1.082-13.323 1.487 1.875 3.463 3.306 5.914 3.556 7.422.757 9.271-10.029 1.861-11.654-4.38-.96-6.818.997-8.225 4.057-1.215-2.89-1.534-6.251-1.6-9.264-.102-4.577.194-9.175.343-13.75.353-11.014.71-22.028 1.064-33.04.003-.089-.062-.124-.08-.198.389-.045.799-.095 1.139-.123 1.84-.153 4.865-.022 6.289-1.416 1.877-1.837 1.773-6.023 1.556-8.604 1.605-.556 3.039-1.375 4.026-2.648 1.486-1.916 1.489-4.714-.18-6.36.555-.557.99-1.211 1.223-1.992.649-2.179-.838-4.098-2.797-4.857a8.086 8.086 0 00-.862-.272.802.802 0 00-.021-.414c-2.444-7.617 5.518-12.167 11.066-15.18 4.648-2.528 9.126-5.337 13.29-8.61 8.788-6.908 15.813-15.696 19.646-26.266 4.038-11.143 5.957-24.655 3.04-36.282-2.665-10.612-10.092-19.831-18.454-26.63-10.274-8.356-22.942-13.398-35.715-13.543zm.564 1.539c10.686.261 21.088 4.156 29.86 10.166 9.148 6.268 17.612 15.362 21.24 26.01 3.987 11.73 2.124 25.808-1.846 37.316-4.283 12.43-13.06 22.272-23.82 29.596-4.927 3.354-10.64 5.632-15.34 9.28-3.904 3.032-6.667 7.734-5.256 12.721-1.982-.182-4.151.058-6.2.301a.807.807 0 00.257-.584c.45-14.148.923-28.569 5.6-42.074a63.595 63.595 0 013.34-7.883c1.976-.188 3.947-.717 5.751-1.424 2.512-.983 6.693-3.733 5.913-7.013-.992-4.15-6.75-1.693-8.624.318-1.703 1.83-3.109 4.071-4.318 6.451-2.047.027-4.087-.377-5.728-1.492 1.809-1.543 2.904-3.876 2.476-6.879-.49-3.472-3.6-3.6-5.76-1.28-2.26 2.435-1.372 5.731.6 8-2.32 1.165-5.256.936-7.496-.605a8.027 8.027 0 01-.826-.666c2.066-1.868 3.55-4.556 2.363-7.355-.928-2.202-4.46-2.933-5.838-.729-1.474 2.353-.557 5.592.977 7.793-.49.341-.963.64-1.348.829-1.429.696-3.218 1.161-5.102 1.33-.159-.405-.312-.811-.48-1.211-1.487-3.527-4.175-8.019-8.453-8.354-3.452-.27-5.377 2.645-3.942 5.809 1.322 2.922 5.662 4.678 8.573 5.236 1.043.2 2.108.296 3.174.295.58 1.662 1.069 3.36 1.548 5.01 4.403 15.176 5.338 31.054 6.266 46.744a.826.826 0 00.285.594c-1.974.083-3.943.065-5.867-.205 1.274-10.298-8.182-16.53-15.762-21.432-10.366-6.702-16.563-16.31-20.75-27.777-2.272-6.228-3.91-12.83-3.552-19.506.346-6.46 2.76-12.566 5.591-18.307 5.115-10.376 11.792-20.242 20.86-27.572 8.97-7.255 19.998-11.737 31.634-11.451zm-189.748 2.773c-10.588-.18-21.278 2.577-30.638 8.004-19.195 11.128-30.167 32.866-29.77 54.816.226 12.45 3.797 25.49 13.578 33.813 4.498 3.827 9.854 6.586 15.506 8.262 5.04 1.494 20.086 1.848 17.166 10.527a.776.776 0 00-.572.576c-1.363 4.873-1.352 10.256.658 14.969.847 1.987 2.606 2.9 4.623 3.328a.729.729 0 00-.19.78c.872 2.8 1.407 6.236 2.833 8.806.734 1.323 1.93 1.845 3.263 1.943-2.448 7.653-4.828 15.37-5.994 23.338-.756 5.169-1.445 11.346-.234 16.742-4.288 4.306-6.037 11.255-6.668 17.05-.866 7.948 2.664 15.968-1.022 23.458a27.01 27.01 0 01-1.613 2.801c-2.307-2.38-5.15-4.3-8.24-3.945-4.482.514-6.485 5.508-3.076 8.66 3.774 3.49 8.551 1.247 11.453-2.098 3.465 4.22 5.12 9.86 6.508 15.055 1.426 5.339 1.669 10.461 1.67 15.963 0 1.1 1.709 1.101 1.709 0-.001-4.42.01-8.8-.926-13.139-1.156-5.355-2.435-11.495-5.565-16.078a37.914 37.914 0 00-2.369-3.125c3.488-4.88 4.482-10.272 3.578-16.205-1.206-7.928-.673-16.428 3.188-23.631a16.276 16.276 0 011.912-2.807c.188.565.37 1.134.611 1.672 1.763 3.921 6.073 6.94 10.457 5.272 4.187-1.594 4.515-6.914 1.764-9.994-3.095-3.466-8.292-2.739-11.795-.27-.62-3.906-.45-8.044-.06-11.937.919-9.203 3.72-18.1 6.533-26.87.03-.004.06-.006.092-.011 5.562-.914 5.939-6.901 6.49-11.576 1.436-.48 2.643-1.317 3.312-2.754 2.137-4.593 1.655-10.803.606-15.586-.115-.525-.57-.684-.975-.584.033-2.576 1.869-4.908 4.19-6.207 3.095-1.734 6.884-1.783 10.298-2.356a28.091 28.091 0 004.864-1.285 45.178 45.178 0 003.15 8.086c2.803 5.53 6.726 10.54 11.498 14.506 2.229 1.852 4.785 3.325 6.89 5.32 3.07 2.907 2.965 6.345 2.858 10.28-.093 3.406-.412 6.86-.387 10.261.016 2.076.882 3.61 2.489 4.916 1.37 1.114 3.044 1.765 4.845 2.172.56 1.978.423 4.443 1.786 6.09 1.257 1.52 3.271 1.454 5.087 1.496-2.24 8.262-3.37 16.788-3.21 25.353.163 8.835 1.98 17.18 4.13 25.706 1.85 7.327 3.02 15.067 2.637 22.644-.35 6.92-1.854 13.783-2.773 20.64-.146 1.087 1.565 1.077 1.709 0 .89-6.645 2.314-13.28 2.734-19.98.43-6.861-.435-13.956-1.912-20.652-1.98-8.974-4.439-17.514-4.775-26.78-.33-9.065.785-18.089 3.191-26.83 1.776.147 3.81.313 5.248-.574 2.124-1.31 2.287-4.516 2.598-6.695 2.806-.125 5.374-.847 6.177-4.137.673-2.751.127-5.899-.078-8.683-.035-.476-.136-1.112-.22-1.698a.957.957 0 00-.092-.697c-.484-3.282-1.063-7.452 1.63-9.023 2.156-1.256 4.774-1.793 7.044-2.856a43.259 43.259 0 007.54-4.545 47.326 47.326 0 0010.891-11.466c12.312-18.29 11.546-45.255-3.215-61.99-13.05-14.797-34.844-15.41-51.767-7.17-.398-5.388-1.533-10.705-3.697-15.839-3.994-9.47-10.748-17.703-19.137-23.623-8.95-6.316-19.436-9.43-30.024-9.609zm.34 1.672c8.299.177 16.54 2.222 23.96 6.352 9.198 5.12 16.838 13.005 21.657 22.365 3.203 6.219 4.783 12.792 5.22 19.502a49.993 49.993 0 00-7.169 4.615c-14.95 11.599-21.64 31.264-17.258 49.21a29.246 29.246 0 01-5.416 1.374c-3.2.495-6.554.7-9.525 2.11-3.635 1.723-6.595 5.707-5.557 9.751-1.013.526-3.365.456-4.369.563-.066.007-.133.012-.199.02l3.379-34.59c.121-1.248.197-2.534.314-3.815.22-.007.441-.012.657-.025 2.912-.183 6.39-.816 8.035-3.522 1.191-1.961 1.111-4.668-.875-6.06-2.24-1.571-5.414-.542-7.07 1.386-1.49 1.736-2.071 4.14-2.362 6.602-2.035-.152-3.985-.574-5.367-1.045a13.425 13.425 0 01-2.727-1.28c3.42-3.007 6.023-7.987 2.24-11.421-1.887-1.713-4.825-1.29-6.53.474-1.956 2.024-1.894 5.217-.837 7.649a10.061 10.061 0 002.336 3.303c-1.766.945-3.774 1.44-5.775 1.603-.61.05-1.233.071-1.857.08-.091-.265-.178-.53-.27-.795-1.038-2.99-2.069-6.478-4.695-8.496-4.983-3.826-11.602 1.1-7.948 6.738 1.693 2.612 4.927 3.476 7.825 3.881a39.42 39.42 0 003.875.356c.16.502.326 1.01.488 1.504a193.341 193.341 0 018.324 37.496c.006.05.03.087.043.133a25.638 25.638 0 01-5.687-1.252.88.88 0 00.218-.336c1.59-4.33-1.601-8.322-5.498-9.924-4.825-1.982-10.314-1.958-15.26-3.74-11.676-4.208-20.078-13.09-23.33-25.092-5.937-21.915 1.217-47.145 18.569-61.988 10.62-9.086 24.61-13.98 38.441-13.686zm75.985 43.63c8.324.132 16.439 2.642 23.037 8.175 16.446 13.79 19.357 39.544 10.27 58.214-5.43 11.152-14.628 18.738-26.096 23.045-1.743.655-3.614 1.51-4.434 3.307-.231.507-.357 1.055-.43 1.621a69.024 69.024 0 00-5.072-.996c-.001-.008.003-.015.002-.023-.881-5.578-2.087-11.094-3.555-16.54.357-1.048.71-2.098 1.07-3.146 2.257-6.57 5.094-13.046 6.725-19.809.822-3.404 2.424-9.784-1.994-11.539-4.33-1.72-6.773 2.525-7.969 6.112-1.734-2.809-4.003-6.17-7.668-4.621-4.131 1.745-1.046 8.014.108 10.713 3.135 7.33 5.795 14.764 7.914 22.363-1.777 5.234-3.557 10.467-5.463 15.656-3.207.01-6.42.247-9.63.705-.463-3.125-1.895-5.487-4.77-7.765-3.87-3.065-7.74-5.754-10.942-9.579-4.133-4.938-6.958-10.575-8.598-16.482a29.683 29.683 0 007.397-4.611c9.324-7.898 13.228-20.047 15.355-31.678 1.063-5.806 1.63-11.678 1.383-17.483 7.218-3.677 15.378-5.764 23.36-5.638zm-25.055 6.54c.16 4.979-.275 10.021-1.143 15.043-2.283 13.218-6.918 27.76-19.226 34.928-.828.482-1.675.895-2.533 1.271-3.411-14.366.303-30.144 10.625-41.613 3.412-3.792 7.625-7.04 12.277-9.63zm127.226 8.201c.322-.036.706.077 1.155.404 2.217 1.616.66 3.992-1.268 5.711-.733-1.014-1.24-2.19-1.25-3.367-.013-1.172.4-2.64 1.364-2.748zm11.768 1.207c.396.04.77.22 1.035.6.73 1.05-.297 3.769-.861 4.634-.33.508-.718.943-1.143 1.32a7.151 7.151 0 01-.662-.84c-1.054-1.586-1.52-3.336-.13-5 .38-.454 1.101-.78 1.761-.714zm-29.117.193c.732-.032 1.561.25 2.367.678 1.56.831 2.78 2.39 3.662 3.87.65 1.081 1.194 2.234 1.674 3.421-3.615-.043-7.276-1.209-9.205-3.969-.632-.905-.779-1.803-.283-2.793.418-.827 1.053-1.174 1.785-1.207zm44.422 1.579c.218.003.439.03.664.08 3.788.85-1.537 5.045-2.016 5.312-1.287.72-2.82 1.174-4.244 1.527-.46.114-.936.207-1.418.284l.03-.057c1.26-2.267 3.715-7.204 6.984-7.146zm-210.881 1.367c.765-.078 1.562.255 2.262 1.209 1.87 2.55.381 5.836-1.662 7.847-.291.287-.598.548-.917.793a8.646 8.646 0 01-1.505-1.638c-.798-1.154-1.345-2.57-1.362-3.983-.023-1.9 1.501-4.057 3.184-4.228zm-18.66 3.29c2.236.127 4.736 2.72 5.576 4.391.76 1.513 1.335 3.134 1.871 4.768a28.66 28.66 0 01-4.654-.584c-2.746-.59-7.543-3.305-5.5-6.9.727-1.28 1.69-1.732 2.707-1.674zm202.199.87c3.008 2.864 7.59 3.14 10.885 1.387.027.021.05.049.078.07 1.87 1.417 4.041 2.037 6.275 2.13-1.195 2.618-2.178 5.333-3.027 7.84-4.58 13.515-5.052 27.928-5.502 42.057-.011.351.162.578.394.705-.773.09-1.527.171-2.228.213-2.05.124-4.15.332-6.254.461a.735.735 0 00.17-.53c-.73-12.37-1.475-24.792-3.867-36.976-.977-4.986-2.164-10.061-3.897-14.879 2.48-.265 4.895-1.083 6.973-2.478zm-167.643 1.924c1.985.013 3.017 2.664 2.01 4.246-1.322 2.078-4.126 2.804-7.033 2.846.118-.892.262-1.775.492-2.627.38-1.414 1.028-2.918 2.303-3.772.564-.378 1.51-.698 2.228-.693zm-16.355 5.822c2.654 1.845 6.099 2.688 9.373 2.828-.117 1.536-.173 3.045-.303 4.373l-3.34 34.197a50.433 50.433 0 01-3.109.163c-.78.014-1.552.002-2.32-.038.016-.081.033-.161.021-.261-1.103-9.257-2.807-18.42-5.232-27.424a203.443 203.443 0 00-3.5-11.56c2.21-.052 4.405-.38 6.441-1.196.634-.254 1.302-.63 1.969-1.082zm80.725 12.807c2.915.583 2.1 5.375 1.69 7.533-.916 4.844-2.73 9.454-4.419 14.066-1.037 2.83-1.994 5.688-2.97 8.54-.811-2.789-1.672-5.56-2.645-8.3-1.539-4.331-3.413-8.499-5.137-12.753-.729-1.799-3.449-8.557 1.172-7.57 2.436.52 3.531 3.681 4.744 5.54.384.589 1.38.544 1.56-.205.6-2.491 1.483-6.26 4.514-6.824.581-.108 1.074-.11 1.49-.027zm-129.563 21.312c-15.85.122-31.596 9.593-38.986 23.625-4.498 8.542-5.086 18.14-1.34 27.059 1.914 4.557 4.416 8.93 7.95 12.431 3.84 3.806 8.555 5.884 13.544 7.735 2.99 1.214 4.05 2.816 4.719 5.898.336 1.546.821 2.98 2 4.028-.832 1.35-.875 3.02.539 4.195.027.023.056.043.084.064-.982 1.442-1.724 3.232-.295 4.69.737.752 1.812 1.13 2.988 1.306a.85.85 0 00.022.288c.471 1.7.929 3.403 1.414 5.1.165.581.294 1.506.806 1.925.974.795 2.828.814 4.522.701-1.856 17.84 3.554 35.536 1.701 53.389-.113 1.093 1.597 1.084 1.709 0 1.858-17.898-3.586-35.636-1.69-53.522.272-.027.589-.06.81-.078 1.285-.1 4.143.02 5.005-1.137 1.255-1.684 1.015-5.997 1.08-7.968.002-.048-.017-.082-.021-.125 2.083-.897 3.086-2.421 1.168-5.057.101-.095.2-.194.29-.3 1.063-1.252 1.083-2.865.01-3.886.304-.35.564-.752.705-1.279.386-1.434-.064-2.892.67-4.28.545-1.028 1.447-1.813 2.403-2.446 1.653-1.095 3.566-1.725 5.408-2.418 14.868-5.592 24.208-21.652 22.127-37.387-2.164-16.361-16.647-29.336-32.567-32.018a38.974 38.974 0 00-6.775-.533zm.455 1.692a37.2 37.2 0 013.283.154c15.571 1.434 30.294 13.192 33.551 28.752 3.152 15.061-5.491 31.877-19.933 37.472-2.909 1.127-6.165 2.048-8.358 4.405a6.841 6.841 0 00-1.764 3.564c-.21 1.272.08 3.045-1.332 3.807-.864.467-2.33.324-3.279.383-.177.01-.354.009-.531.02-1.25-12.422 4.475-24.313 3.361-36.753-.061-.689-.915-1.187-1.459-.603-.841.903-2.647 3.8-4.111 3.004-.446-.242-.956-1.4-1.248-1.829l-1.871-2.744c-.392-.574-1.379-.553-1.56.205a25.85 25.85 0 01-2.054 5.59 63.153 63.153 0 00-5.914-4.668c-.67-.466-1.377.301-1.255.965a372.638 372.638 0 008.79 37.104c-.33.005-.66.034-.992.037-1.086.008-2.29.075-3.338-.266-1.937-.632-2.518-2.224-2.908-3.998-.83-3.78-2.27-5.61-5.912-7.09-4.567-1.694-8.897-3.557-12.469-6.978-3.098-2.968-5.407-6.666-7.187-10.547-3.57-7.787-4.155-16.036-.934-24.06 6.167-15.364 22.97-25.984 39.424-25.926zm186.979 4.578c-6.19-.178-12.47 1.462-17.922 4.746-10.39 6.257-18.62 18.519-19.604 30.722-1.034 12.826 8.605 28.306 21.883 30.276.803 2.546 1.316 5.104 1.3 7.785a.893.893 0 00.024.193l.006.035c.07.257.157.496.258.721a.77.77 0 00-.012.557c.771 2.342.452 4.038 1.727 5.422-.096 2.519 1.064 4.665 2.96 6.306 1.923 1.663 4.867 3.55 7.448 3.856a5.75 5.75 0 001.982-.12c1.278 8.97 2.555 17.937 3.827 26.907 1.36 9.544 2.711 19.096 2.666 28.758 0 1.1 1.709 1.101 1.709 0 .045-9.445-1.242-18.792-2.569-28.123-1.336-9.382-2.672-18.762-4.002-28.145 3.37-1.724 5.993-6.03 6.508-9.244a.883.883 0 00-.066-.514c.988-1.816.736-4.07.36-6.105a.88.88 0 00.077-.34c.081-2.523.206-5.045.258-7.568 12.254-2.728 22.065-12.55 24.184-25.034 2.318-13.686-5.065-26.632-15.637-34.93-5.081-3.988-11.177-5.984-17.365-6.161zM729.6 307.34c3.818 1.36 7.785 1.712 11.823 1.504 2.02-.104 4.03-.331 6.035-.588.921-.118 2.028-.083 2.84-.547.097.017.19.019.287.008.17 1.13.277 2.263.316 3.398-7.332 1.596-14.44 1.606-21.777.033.05-1.274.21-2.547.477-3.808zm145.51.336c5.17-.02 10.314 1.306 14.825 4.215 10.11 6.515 18.118 18.598 17.697 30.853-.467 13.696-10.47 25.061-23.77 27.844a.686.686 0 00-.539.473.79.79 0 00-.314.646c-.037 2.16-.134 4.318-.215 6.477a5.992 5.992 0 00-.412-.243c-2.562-1.378-6.089-1.865-9.176-1.986a5019.217 5019.217 0 00-2.144-25.789c-.004-.046-.014-.087-.024-.129 3.093-.094 6.177-.312 9.26-.644 1.749-.19 5.308.08 6.658-1.41 1.926-2.124-.612-5.572-3.19-5.555-.077-5.066-5.826-8.006-9.802-4.776-1.351-3.148-4.965-5.096-8.41-4.111-3.492.998-5.351 4.473-5.325 7.889-2.96-.48-4.833 3.179-3.718 6.08 2.04 5.309 8.495 3.773 12.842 2.64v.016c.739 8.582 1.453 17.166 2.148 25.752-1.945-.003-6.05.034-8.346 1.389-.19-2.049-.641-4.052-1.27-6.036a.81.81 0 00-.607-.572c-.116-.283-.312-.533-.685-.582-11.748-1.523-20.287-14.989-20.584-26.137-.304-11.427 7.284-23.533 16.324-30.09 5.441-3.946 12.13-6.19 18.777-6.214zm-124.2 5.174c-.031 1.15-.134 2.3-.313 3.447-6.737 2.961-14.043 2.094-20.983.264a20.504 20.504 0 01-.488-3.678c7.314 1.507 14.473 1.497 21.783-.033zm186.839.55c.618.015 1.205.1 1.69.319 4.169 1.886 1.218 4.345-.48 5.306-4.334 2.457-10.144 2.89-14.985 3.368-2.586.255-5.206.646-7.666-.413-2.21-.949-7.434-6.682-2.99-7.931a.865.865 0 00.232.078c4.46.794 9.035.2 13.523-.07 2.558-.155 5.115-.314 7.672-.463.862-.05 1.975-.218 3.004-.194zm-229.81.877c-.799-.065-1.355 1.123-.51 1.586 6.396 3.508 10.715 9.58 11.914 16.776.18 1.082 1.828.622 1.648-.455-1.266-7.602-5.954-14.096-12.699-17.795a.884.884 0 00-.354-.112zm104.152.162a149.116 149.116 0 012.806 13.305 68.209 68.209 0 00-7.257-.56c1.545-4.227 3.006-8.483 4.45-12.745zm-61.895 3.854c-.576 2.165-1.654 3.44-4.12 3.764-2 .261-4.05.303-6.063.261-2.129-.045-4.262-.216-6.362-.57-2.054-.347-2.918-1.59-3.506-3.297 6.683 1.659 13.554 2.285 20.051-.158zm190.262 1.842c1.127.938 1.17 2.668.443 3.918-.848 1.454-2.768 2.127-4.277 2.547-3.03.841-6.288 1.185-9.398 1.537-2.831.32-5.674.562-8.522.742-.564.036-1.133.088-1.703.072-1.527-.04-1.628-.095-2.55-1.512-.93-1.43-.894-1.806-.587-3.375.083-.425.192-.84.315-1.252.193.124.387.242.584.35 3.332 1.826 7.127 1.176 10.732.785 3.942-.426 7.895-.994 11.649-2.314 1.063-.373 2.261-.844 3.314-1.498zm-205.441 3.71c1.71.192 3.49.151 4.996.182 1.756.036 4.052.182 6.15-.138-.423 3.742-.972 9.528-5.64 9.574-3.84.037-4.553-6.637-5.448-9.512-.013-.043-.041-.067-.058-.105zm201.302 4.708c.183 2.346.192 5.203-1.523 6.7-1.698 1.484-5.405 1.232-7.678 1.311-.803.029-1.925.184-2.734.024-1.931-.384-1.812-1.464-2.393-2.871a15.244 15.244 0 00-1.812-3.207c.402-.042.807-.085 1.191-.115 2.882-.225 5.76-.505 8.625-.893 1.858-.252 4.157-.436 6.324-.95zm-130.623.299a66.735 66.735 0 0116.008 1.886c.076 1.486.357 3.003.475 4.326a272.852 272.852 0 01-25.88-1.224c.022-1.014.063-2.027.083-3.04.008-.431-.01-.836-.026-1.241a66.318 66.318 0 019.34-.707zm61.457 6.136c2.65-.148 5.068 1.853 5.588 4.475.12.603 1.028.86 1.428.377 2.96-3.567 8.674-1.386 7.86 3.428-.12.708.564 1.361 1.253.964 2.512.589 3.086 1.55 1.719 2.883-.849.123-1.69.231-2.545.324a184.87 184.87 0 01-4.318.467c-2.883.277-5.772.45-8.672.487-.044 0-.074.02-.113.025-.04.005-.073-.005-.114.006-1.988.52-3.997.911-6.05 1.045-1.377.09-2.71.204-3.934-.844l-.83-1.057c-1.369-2.161-.594-3.55 2.326-4.164.695.391 1.379-.25 1.256-.965-.504-2.936.95-6.346 4.002-7.252a5.01 5.01 0 011.144-.199zm-70.9.551a272.89 272.89 0 0026.092 1.225c.139 1.36.272 2.722.361 4.103-8.773.227-17.541.019-26.295-.633a.848.848 0 00-.287.028l.002-.024c.07-1.563.088-3.132.127-4.699zm-181.522 6.262c-6.376.005-12.802 1.586-17.757 4.453-5.321 3.079-8.806 8.396-11.532 13.762-2.85 5.612-4.77 11.826-4.609 18.171.154 6.057 2.358 11.965 6.172 16.668 4.799 5.919 13.149 8.53 13.633 17.202a.891.891 0 00.093.355c-.982.651-1.537 1.602-.55 2.842.135.17.29.322.455.459-1.712 1.181-2.363 3.124.076 4.103-.832 1.35-.064 2.756 1.344 3.524-1.042 1.314-.77 3.506.74 4.459 1.434.905 3.226.717 4.826.681 1.851-.04 3.701-.114 5.55-.197-.285 3.531.41 6.683 1.647 10.072 1.865 5.11-.304 9.1-3.052 13.391-.596.93.884 1.787 1.476.863 2.212-3.452 4.668-7.335 4.086-11.632-.267-1.973-1.206-3.758-1.78-5.645-.713-2.35-.888-4.718-.667-7.127l1.662-.076c2.956-.134 6.018.017 8.955-.283 1.208-.123 2.753-.301 3.678-1.147 1.458-1.335.782-3.63-.662-4.681 1.076-1.248.887-2.885-.69-3.93.342-1.189-.525-2.464-1.594-3.39.253-.3.437-.647.512-1.055.31-1.687-1.266-2.886-2.717-3.266a9.272 9.272 0 00-1.045-.203c-.465-1.375-1.129-3.035-.945-4.477.271-2.111 2.595-3.517 4.037-4.802 2.657-2.367 5.24-4.823 7.623-7.467 3.953-4.385 7.458-9.36 9.201-15.057 3.459-11.3-1.143-24.626-10.714-31.562-4.75-3.443-11.075-5.013-17.452-5.008zm181.315.035a.89.89 0 00.365.107 262.572 262.572 0 0026.379.621 22.78 22.78 0 01-.074 2.39c-.39 4.35-4.004 4.083-7.344 4.01-2.939-.041-5.886.08-8.822-.056-2.72-.125-6.094-.233-8.418-1.88-2.03-1.439-2.172-3.186-2.086-5.192zm-111.23 1.664c.681 1.002 1.362 2.005 2.048 3.004.422.615.841 1.516 1.635 1.728 1.225.328 2.691-1.306 3.828-2.732.312 11.642-4.68 22.858-3.48 34.555-1.287.065-2.575.109-3.864.144a372.677 372.677 0 01-8.457-35.304 60.049 60.049 0 014.735 3.943c.393.363 1.066.326 1.342-.172a27.465 27.465 0 002.212-5.166zm-68.878.219c4.828.084 9.718 1.041 13.829 3.529 11.284 6.83 15.596 22.416 10.134 34.191-2.868 6.183-7.586 11.318-12.507 15.938-2.06 1.933-5.413 3.893-6.653 6.498-.9 1.893-.232 4.215.408 6.174-2.112-.01-4.378.357-6.435.597.014-3.926.119-7.85.346-11.771.176-3.043.181-6.33.712-9.404a19.581 19.581 0 004.014-.29c3.116-.557 4.542-3.4 2.33-6.085-3.412-4.145-6.698 1.138-7.646 4.48-.749-.055-1.487-.162-2.182-.383a7.735 7.735 0 01-.46-.164c1.327-2.147 2.058-5.9-.956-6.638-3.745-.92-5.105 2.674-3.334 5.43a6.46 6.46 0 001.56 1.656c-1.21.947-2.732 1.504-4.261 1.664-1.074-3.166-2.835-7.286-6.242-6.68-1.33.237-2.598 1.556-2.897 2.865-.478 2.089 1.625 3.627 3.256 4.445 1.458.732 3.11 1.11 4.768 1.127 2.41 6.44 3.728 13.494 4.396 20.22-1.952.134-3.9.317-5.803.665-.334-4.517-2.625-8.462-6.177-11.27-2.327-1.838-4.774-3.342-6.8-5.554a26.034 26.034 0 01-5.071-8.166c-4.52-11.714.529-26.238 8.74-35.18 4.644-5.058 11.494-7.11 18.154-7.713a44.579 44.579 0 014.777-.181zm187.473 6.877c4.03.516 8.49.028 11.961.078.31.007.622-.006.936-.002-.233 1.917-.35 4.11-2.166 5.031-1.67.845-3.516.5-5.356.43-2.029-.076-4.093.006-4.766-2.38-.292-1.035-.392-2.107-.609-3.157zm-62.129 22.873c4.215.183 8.243 6.508 3.383 8.927-4.785 2.382-8.317-2.6-9.422-6.626 1.67-1.446 3.695-2.402 6.04-2.301zm129.983 4.166c.124-.002.25 0 .375 0 .047.588.097 1.175.144 1.763.088 1.089 1.797 1.098 1.71 0a5019.217 5019.217 0 00-.141-1.695c1.476.11 2.953.342 4.392.621 1.202.233 2.962.434 3.965 1.188 1.937 1.457-.747 2.367-2.086 2.783-2.324.724-4.784.907-7.209.744-2.481-.167-8.073-.636-9.115-3.496.79-1.866 6.405-1.883 7.965-1.908zm-176.428 3.562c.036 1.934-.778 2.842-2.451 2.721a48.134 48.134 0 01-2.143.186 56.392 56.392 0 01-3.762.11 73.07 73.07 0 01-3.763-.107c-.573-.03-6.66-.15-4.957-2.677 3.343 1.505 8.34.524 11.662.347 1.558-.082 3.734.019 5.414-.58zm-85.248.787c.136.006.287.02.451.047 2.128.353 1.165 2.802.242 4.178-.503-.352-.952-.769-1.27-1.252-.528-.805-1.469-3.054.577-2.973zm254.44.793c1.323.741 2.956 1.103 4.454 1.422 3.388.722 6.978.866 10.368.078 1.262-.293 2.993-.64 4.119-1.45.01 1.915-.639 3.594-3.082 4.24-1.994.526-4.479.502-6.522.492-2.198-.012-4.38-.258-6.441-1.053-2.038-.786-2.523-2.155-2.897-3.729zm-244.352.53c.576-.001 1.12.46 1.533 1.672.9 2.637-2.453 2.647-3.992 2.65l-1.057.002c.013-.05.022-.101.035-.15.314-1.161 2.007-4.173 3.48-4.174zm-20.334 1.047c.296-.012.598.035.875.152.877.37 1.585 1.87 1.957 2.672.3.647.584 1.306.86 1.97-1.766-.141-3.947-.71-4.946-2.002-1.216-1.574-.028-2.742 1.254-2.792zm95.385.843c.409.647.772 1.903.103 2.475-.394.337-1.835.343-2.361.432-1.937.324-3.879.633-5.834.816-1.471.138-2.95.216-4.426.19-.86-.016-2.068.135-2.84-.245-1.405-.692-1.672-2.115-.808-3.402.65.13 1.335.158 2.005.213 2.323.191 4.66.277 6.99.24 1.976-.032 4.996.17 7.17-.719zm170.648 2.528c3.055 1.44 6.544 1.656 9.87 1.5 2.02-.096 4.651-.049 6.61-1.02-1.347 3.417-4.635 7.403-8.228 6.637-3.335-.712-7.497-3.615-8.252-7.117zm-254.713.68c1.065.48 2.254.774 3.467.93-1.087 7.028-1.12 14.387-1.127 21.478-1.054.071-2.12.131-3.188.195-.676-6.686-2.055-13.262-4.236-19.623-.058-.17-.13-.395-.193-.592 1.953-.271 3.82-1.063 5.277-2.389zm82.664 1.493c-.017 1.707.129 4.203-.594 5.54l-.203 1.017a15.917 15.917 0 00-1.738.2c-.945.114-1.87.233-2.822.279-.123.005-.255.015-.381.023a.877.877 0 00-.287.018c-1.384.091-2.886.19-3.912-.682-1.225-1.04-1.579-3.73-1.993-5.385 1.307.02 2.597-.098 3.579-.154 1.764-.101 5.476-.144 8.351-.856zm242.807 2.038c1.124.076 2.225.45 3.094 1.117 1.999 1.534 1.845 4.55.062 6.21-2.261 2.098-5.536.91-7.484-.964-.632-.61-1.141-1.305-1.596-2.033.47-1.494 1.263-2.885 2.69-3.66.962-.525 2.11-.747 3.234-.67zm-314.987 20.011c1.166-.038 4.767.224 2.834 2.254-.396.417-1.43.52-1.964.65-3.163.768-6.574.9-9.811.913-1.905.007-3.775-.147-5.668-.342-.653-.068-1.307-.117-1.957-.21-.005 0-3.978-1.027-2.402-1.667 4.24-.861 8.75-.88 13.058-1.176 1.965-.134 3.942-.357 5.91-.422zm3.64 3.78c1.17.91 1.646 2.262-.14 2.73-.826.217-1.698.247-2.546.297-1.944.114-3.902.152-5.848.203-2.78.072-5.565.049-8.344-.078a89.989 89.989 0 01-4.213-.277 9.321 9.321 0 01-2.252-.332c-.145-.922.179-1.452.97-1.594.045-.02.084-.046.122-.07 1.006.258 2.094.334 2.994.43 5.745.607 12.282.99 17.895-.788.426-.135.902-.305 1.361-.521zm91.335.718c1.253-.052 2.57.243 3.467.77 1.303.766 2.398 1.712 3.402 2.732-1.198 1.481-2.649 2.717-4.457 3.21-2.173.592-5.384-.525-5.889-3.01-.519-2.56 1.39-3.615 3.477-3.702zm-89.346 2.993l.016.011c.303 1.421-.084 2.177-1.156 2.268a12.958 12.958 0 01-1.897.26c-.709.057-1.426.066-2.136.082-2.172.048-4.344-.016-6.514.1-2.144.113-4.27.31-6.418.275a65.944 65.944 0 01-2.25-.08c-.221-.012-5.687-.385-3.877-2.057 1.923.323 4.063.236 5.896.31 3.097.127 6.193.119 9.29.01 2.604-.091 6.772.44 9.046-1.18zm.239 3.667a.92.92 0 00.156.094c1.55.741.637 2.254-.432 2.711-.966.412-2.473.24-3.498.262-2.048.044-4.096.13-6.142.223-.823.037-1.646.07-2.47.109a.99.99 0 00-.87.039c-.926.042-1.851.09-2.778.125a206.904 206.904 0 01-4.486.125c-1.621.354-2.48-.564-2.578-2.756a.92.92 0 00.121-.068c3.865.737 8.217-.016 12.045-.147 3.192-.108 7.842.734 10.932-.717z"/></svg>