<svg width="250" height="233" xmlns="http://www.w3.org/2000/svg"><path d="M168.106 207.775c0 4.491-17.846 8.13-39.86 8.13-22.015 0-39.86-3.639-39.86-8.13 0-4.489 17.845-8.129 39.86-8.129 22.013 0 39.86 3.64 39.86 8.13" fill-opacity=".2"/><path d="M141.897 199.43h-.283a2.557 2.557 0 01-2.55-2.548v-18.295a2.556 2.556 0 012.55-2.548h.283a2.556 2.556 0 012.55 2.548v18.295a2.557 2.557 0 01-2.55 2.549M114.877 199.43h-.281a2.557 2.557 0 01-2.55-2.548v-18.295a2.556 2.556 0 012.55-2.548h.281a2.555 2.555 0 012.55 2.548v18.295a2.556 2.556 0 01-2.55 2.549" fill="#efbb97"/><path d="M139.065 196.74v10.254s18.092 1.759 18.708 0c-.352-5.805-13.328-10.253-13.328-10.253zM117.426 196.74v10.254s-18.092 1.759-18.708 0c.352-5.805 13.328-10.253 13.328-10.253z" fill="#664b38"/><path d="M101.58 151.37s-2.038 22.792 1.024 25.782c3.062 2.99 48.427 1.76 50.655-.469 2.228-2.228-.332-25.313-.332-25.313z" fill="#e04b3f"/><path d="M90.649 135.399L72.557 151.8s-5.076 1.879-4.908 2.57c.168.69 3.09-.102 3.09-.102s-4.433 2.72-3.76 3.292c.67.57 4.967-1.848 4.967-1.848s-3.727 2.654-3.19 3.728c.538 1.074 4.5-3.056 4.5-3.056s-2.62 4.03-1.68 4.936c.94.907 4.165-5.238 4.165-5.238s.504 2.92 1.612 3.224c1.108.302 0-4.246 0-4.246l16.534-16.325zm70.186 0l18.092 16.401s5.076 1.879 4.908 2.57c-.168.69-3.09-.102-3.09-.102s4.433 2.72 3.76 3.292c-.67.57-4.969-1.848-4.969-1.848s3.728 2.654 3.191 3.728c-.537 1.074-4.5-3.056-4.5-3.056s2.62 4.03 1.68 4.936c-.941.907-4.164-5.238-4.164-5.238s-.504 2.92-1.612 3.224c-1.108.302 0-4.246 0-4.246l-16.535-16.325z" fill="#efbb97"/><path d="M166.392 132.711c-1.043-2.2-13.871-12.75-18.21-10.06l-.158-.962-42.38.704s-.132.796-.347 2.112c-.195-.386-.435-.734-.785-.988-4.18-3.05-17.314 7.738-18.37 9.966-1.054 2.228 7.74 11.527 11.375 8.911 1.81-1.301 4.585-5.23 6.403-9.223-1.108 7.16-2.34 15.688-2.34 18.2 0 4.558 51.834 2.946 51.348 0l-2.592-15.68c1.585 2.696 3.382 4.996 4.682 5.932 3.635 2.615 12.43-6.684 11.374-8.912" fill="#f48371"/><path d="M111.79 129.45c7.114 5.6 18.56 5.238 26.631 2.03 1.386-.55 1.392-3.002-.386-2.854-4.418.37-8.64 1.825-13.088 2.065-4.422.237-8.438-.687-12.518-2.339-.596-.24-1.144.7-.638 1.098m7.325 6.51c.554.867 2 .956 2.926 1.173 1.406.33 2.81.554 4.242.712 1.452.162 1.513-2.269 0-2.312-1.25-.037-2.503-.085-3.751-.162-.99-.062-2.165-.386-3.13-.118-.289.08-.457.443-.287.707" fill="#e2675a"/><path d="M195.586 90.197c0 4.324-3.865 7.83-8.634 7.83-4.768 0-8.634-3.506-8.634-7.83s3.866-7.83 8.634-7.83c4.769 0 8.634 3.506 8.634 7.83" fill="#efbb97"/><path d="M183.158 87.27c2.28-1.253 5.083 0 5.498 2.66.418 2.687-3.183 2.73-3.523.424-.213-1.444-2.087-1.005-2.512 0-1.945 4.61 8.765 7.2 8.987.625.081-2.428-1.42-4.828-3.647-5.784-1.92-.821-4.479-.448-5.36 1.647-.137.324.296.572.557.428" fill="#d8a17c"/><path d="M51.68 90.197c0 4.324 3.866 7.83 8.634 7.83 4.77 0 8.635-3.506 8.635-7.83s-3.866-7.83-8.635-7.83c-4.768 0-8.633 3.506-8.633 7.83" fill="#efbb97"/><path d="M64.108 87.27c-2.28-1.253-5.082 0-5.497 2.66-.419 2.687 3.181 2.73 3.523.424.213-1.444 2.086-1.005 2.512 0 1.944 4.61-8.766 7.2-8.987.625-.081-2.428 1.42-4.828 3.647-5.784 1.918-.821 4.478-.448 5.358 1.647.138.324-.294.572-.556.428" fill="#d8a17c"/><path d="M165.806 35.153c.234-.704 11.725-18.996 30.252-14.07 18.526 4.924 16.181 21.105 22.278 26.5 6.098 5.393 16.416 8.553 16.416 8.553s-6.097 5.048-14.07 6.69c-7.974 1.642-20.791 2.925-35.8-3.987-15.01-6.91-19.076-23.686-19.076-23.686m-81.612 0c-.234-.704-11.725-18.996-30.252-14.07-18.526 4.924-16.181 21.105-22.278 26.5-6.098 5.393-16.416 8.553-16.416 8.553s6.097 5.048 14.07 6.69c7.974 1.642 20.791 2.925 35.8-3.987 15.01-6.91 19.076-23.686 19.076-23.686" fill="#683310"/><path d="M184.882 72.207c0 30.437-27.212 55.11-60.779 55.11-33.568 0-60.78-24.673-60.78-55.11s27.212-55.11 60.78-55.11c33.567 0 60.779 24.673 60.779 55.11" fill="#efbb97"/><path d="M161.018 28.437c-10.235-7.108-23.028-11.342-36.916-11.342-33.567 0-60.779 24.675-60.779 55.112 0 5.648.942 11.096 2.682 16.227 28.897 6.715 57.394-5.615 76.485-27.584v.001c7.768 14.651 21.245 26.931 36.86 34.324 3.541-6.993 5.532-14.768 5.532-22.968 0-17.845-9.361-33.698-23.864-43.77" fill="#773d15"/><path d="M109.142 96.634a4.76 4.76 0 11-9.446-1.18 4.76 4.76 0 019.446 1.18m41.782.418a4.76 4.76 0 11-9.446-1.18 4.76 4.76 0 019.446 1.18m-25.202 11.768c-1.566-.195-2.933-.77-4.072-1.713-3.561-2.95-3.577-8.564-3.576-8.803.003-.484.51-.848 1.131-.817.619.03 1.127.452 1.125.936 0 .05.02 5.13 2.919 7.526.887.734 1.939 1.12 3.208 1.18 1.223.058 2.219-.22 3.044-.852 2.377-1.816 2.684-6.124 2.601-7.63-.026-.486.456-.87 1.078-.86.621.005 1.149.412 1.176.897.013.252.297 6.197-3.223 8.887-1.256.96-2.828 1.401-4.67 1.313a9.516 9.516 0 01-.74-.064" fill="#1d1d1b"/><path d="M154.522 110.342c-.098 2.237-3.088 3.922-6.677 3.765-3.59-.157-6.42-2.099-6.323-4.336.1-2.236 3.088-3.923 6.68-3.765 3.588.157 6.42 2.098 6.32 4.336m-48.699-3.992c-3.59-.157-6.58 1.528-6.678 3.765-.098 2.238 2.732 4.18 6.322 4.336 3.589.158 6.578-1.528 6.677-3.765.099-2.237-2.732-4.179-6.321-4.336" fill="#f2a391"/><path d="M71.402 79.188c-1.579-.165-1.81 2.283-.365 2.7 9.83 2.84 19.361.162 28.656-3.384 9.126-3.48 18.07-7.278 24.852-14.531 1.321-1.414-.267-4.936-2.06-3.621-13.755 10.079-32.603 21.24-51.083 18.836zm4.994-6.637c-1.147.202-1.18 2.177 0 2.35C86.7 76.402 97.29 70.75 105.39 64.933c1.95-1.403.305-5.502-1.716-4.08-9.477 6.668-16.932 9.873-27.277 11.697zm91.256 8.984c1.925 1.355 4.376-1.772 2.537-3.289-3.246-2.674-6.55-5.292-9.578-8.22-2.998-2.896-7.125-9.36-9.543-8.481-3.182 1.157 9.984 15.342 16.584 19.99z" fill="#663412"/><path d="M181.04 34.458c11.04-7.997 21.489 1.316 26.491 11.132 1.331 2.61 4.803.648 4.398-1.854-2.072-12.832-24.067-24.632-32.514-10.903-.593.963.64 2.339 1.624 1.625M41.763 45.053c2.965-9.594 10.202-15.738 20.296-16.373 3.104-.195 3.161-4.965 0-4.875-11.587.334-21.535 9.32-22.138 20.999-.056 1.084 1.538 1.232 1.842.25" fill="#4f260b"/></svg>