<svg width="250" height="233" xmlns="http://www.w3.org/2000/svg"><path d="M168.066 207.775c0 4.49-17.845 8.13-39.86 8.13s-39.861-3.64-39.861-8.13 17.846-8.13 39.861-8.13c22.015 0 39.86 3.64 39.86 8.13" fill-opacity=".2"/><path d="M140.432 196.74v10.253s18.092 1.759 18.708 0c-.352-5.804-13.328-10.253-13.328-10.253zm-24.452 0v10.253s-18.093 1.759-18.709 0c.352-5.804 13.328-10.253 13.328-10.253z" fill="#145fa3"/><path d="M105.785 162.494l4.814 34.247h5.38l6.04-26.274h14.776l3.637 26.274h5.381l3.974-34.247z" fill="#193451"/><path d="M91.896 134.994L73 150.464s-5.164 1.618-5.03 2.317c.131.698 3.09.056 3.09.056s-4.564 2.492-3.923 3.096c.643.604 5.056-1.594 5.056-1.594s-3.854 2.46-3.373 3.562c.483 1.1 4.648-2.824 4.648-2.824s-2.819 3.89-1.925 4.844c.893.952 4.42-5.022 4.42-5.022s.357 2.943 1.449 3.3c1.09.359.213-4.238.213-4.238l17.338-15.471z" fill="#efbb97"/><path d="M102.72 123.316l-12.967 11.208 7.518 5.405 6.12-5.088z" fill="#5c9bb7"/><path d="M159.174 131.58l17.917 16.592s5.056 1.933 4.882 2.621c-.176.69-3.088-.132-3.088-.132s4.402 2.766 3.725 3.33c-.679.562-4.95-1.9-4.95-1.9s3.7 2.692 3.15 3.76c-.548 1.069-4.467-3.102-4.467-3.102s2.576 4.056 1.627 4.954c-.95.896-4.108-5.283-4.108-5.283s-.535 2.916-1.645 3.207c-1.111.29.044-4.244.044-4.244l-16.362-16.5z" fill="#efbb97"/><path d="M150.93 121.908l12.967 11.208-7.519 5.405-6.12-5.088z" fill="#5c9bb7"/><path d="M102.72 123.316l1.36 40.306h47.489v-41.634z" fill="#83b9d6"/><path d="M115.954 142.47c4.934 4.805 11.074 7.518 17.372 10.075 2.076.842 3.096-2.641.938-3.406-5.888-2.086-11.866-4.208-16.74-8.24-1.082-.892-2.613.554-1.57 1.57m2.327 6.121c.847.906 1.72 1.635 2.714 2.37.982.732 1.938 1.538 3.112 1.929.969.323 1.657-.99.973-1.67-.867-.866-2.025-1.377-3.077-1.98a28.526 28.526 0 00-3.174-1.589c-.553-.233-.894.57-.548.94" fill="#6ba7c1"/><path d="M151.57 121.987l-12.59 13.007-7.735-7.721zm-48.85 1.329l12.59 11.678 7.735-7.721z" fill="#5c9bb7"/><path d="M196.953 90.197c0 4.323-3.865 7.828-8.635 7.828-4.768 0-8.633-3.505-8.633-7.828 0-4.324 3.865-7.83 8.633-7.83 4.77 0 8.635 3.506 8.635 7.83" fill="#efbb97"/><path d="M184.525 87.27c2.28-1.253 5.082 0 5.497 2.659.419 2.688-3.181 2.73-3.523.425-.213-1.445-2.086-1.005-2.512 0-1.944 4.61 8.766 7.2 8.987.624.083-2.427-1.419-4.828-3.647-5.783-1.918-.822-4.478-.448-5.358 1.647-.138.324.296.57.556.428" fill="#d8a17c"/><path d="M53.047 90.197c0 4.323 3.865 7.828 8.635 7.828 4.768 0 8.633-3.505 8.633-7.828 0-4.324-3.865-7.83-8.633-7.83-4.77 0-8.635 3.506-8.635 7.83" fill="#efbb97"/><path d="M65.475 87.27c-2.28-1.253-5.082 0-5.497 2.659-.419 2.688 3.181 2.73 3.523.425.213-1.445 2.086-1.005 2.512 0 1.944 4.61-8.766 7.2-8.987.624-.081-2.427 1.419-4.828 3.647-5.783 1.918-.822 4.478-.448 5.358 1.647.138.324-.296.57-.556.428" fill="#d8a17c"/><path d="M186.249 72.206c0 30.437-27.212 55.11-60.78 55.11-33.567 0-60.779-24.673-60.779-55.11s27.212-55.11 60.779-55.11c33.568 0 60.78 24.673 60.78 55.11" fill="#efbb97"/><path d="M125.469 17.095c-33.567 0-60.779 24.674-60.779 55.111 0 .57.028 1.13.047 1.695 8.632 4.176 20.545 3.64 29.584 1.174 7.036-1.406 12.664-8.442 16.885-15.477 2.815 7.035 4.221 15.477 11.257 18.292 14.071 5.627 21.106-9.85 29.548-18.292 7.64 11.032 19.375 22.053 32.424 25.985a50.328 50.328 0 001.814-13.377c0-30.437-27.212-55.11-60.78-55.11" fill="#6d350f"/><path d="M68.234 69.111c12.084 6.733 30.353.815 38.58-9.43 1.153-1.44-.636-3.33-2.056-2.057-5.19 4.66-10.668 8.344-17.504 10.056-6.475 1.622-12.156.66-18.666.12-.709-.058-.938.986-.354 1.311" fill="#5b2e10"/><path d="M75.83 64.607c6.837.923 13.866 1.392 19.287-3.578 1.38-1.263-.75-3.406-2.054-2.056-4.503 4.662-11.047 4.742-17.114 4.745-.492 0-.64.819-.12.89m39.691-7.024c.68 9.501 8.525 18.825 18.481 13.278 3.766-2.096 6.232-6.368 4.662-10.642-1.534-4.175-5.88-5.716-9.902-4.247-1.365.497-.842 2.537.606 2.199 5.113-1.196 8.33 4.318 4.888 8.266-1.807 2.071-5.367 3.23-8.042 2.698-5.616-1.114-7.117-7.28-8.882-11.798-.347-.888-1.892-.878-1.81.246m19.029-3.424c3.86-.753 5.006 3.698 6.126 6.351.588 1.396 2.79.914 2.35-.648-1.026-3.65-4.32-8.449-8.75-6.698-.61.242-.387 1.124.275.994m24.309 5.235c2.27 3.788 6.192 7.02 9.608 9.764 2.98 2.396 6.221 4.368 10.147 4.388 2.49.013 2.36-3.515 0-3.782-7.808-.878-12.218-7.784-18.343-11.782-.877-.57-1.928.55-1.412 1.412m9.038 2.364c2.142 1.932 4.574 3.31 7.362 4.068 1.691.46 2.412-2.162.723-2.621-2.308-.628-4.492-1.668-6.363-3.17-1.194-.962-2.909.653-1.722 1.723M137.41 22.723c9.165 2.675 23.785 8.597 27.433 18.461.642 1.74 3.812 1.68 3.53-.477-.729-5.567-6.464-9.304-10.845-12.243-5.973-4.006-12.504-6.534-19.612-7.58-1.181-.173-1.719 1.484-.507 1.84" fill="#5b2e10"/><path d="M110.508 96.633a4.76 4.76 0 01-5.312 4.135 4.762 4.762 0 01-4.133-5.313 4.759 4.759 0 119.445 1.178m41.783.418a4.762 4.762 0 01-5.312 4.135 4.762 4.762 0 01-4.133-5.313 4.759 4.759 0 119.445 1.178M127.09 108.82c-1.567-.195-2.934-.77-4.073-1.714-3.561-2.95-3.577-8.564-3.576-8.803.002-.482.51-.848 1.13-.816.62.03 1.128.451 1.126.935 0 .05.02 5.13 2.919 7.527.887.732 1.939 1.118 3.208 1.18 1.223.057 2.217-.222 3.044-.85 2.377-1.818 2.684-6.126 2.601-7.633-.026-.485.456-.87 1.078-.859.62.004 1.149.411 1.176.896.013.252.297 6.198-3.223 8.887-1.256.959-2.828 1.4-4.67 1.313a9.516 9.516 0 01-.74-.064" fill="#1d1d1b"/><path d="M155.89 110.342c-.1 2.237-3.089 3.92-6.678 3.764-3.59-.158-6.42-2.1-6.323-4.336.099-2.236 3.088-3.922 6.679-3.764 3.59.157 6.42 2.098 6.321 4.336m-48.699-3.992c-3.59-.158-6.58 1.527-6.678 3.765-.099 2.237 2.732 4.178 6.321 4.336 3.59.157 6.58-1.528 6.678-3.766.098-2.237-2.732-4.178-6.322-4.336" fill="#f2a391"/></svg>