<svg width="250" height="233" xmlns="http://www.w3.org/2000/svg"><path d="M169.121 209.08c0 4.49-17.846 8.13-39.86 8.13s-39.86-3.64-39.86-8.13 17.846-8.13 39.86-8.13 39.86 3.64 39.86 8.13" fill-opacity=".2"/><path d="M145.022 198.124h-.282a2.556 2.556 0 01-2.55-2.55V177.28a2.556 2.556 0 012.55-2.55h.282a2.556 2.556 0 012.549 2.55v18.295a2.556 2.556 0 01-2.55 2.55M113.781 198.124h-.281a2.556 2.556 0 01-2.55-2.55V177.28a2.556 2.556 0 012.55-2.55h.281a2.556 2.556 0 012.55 2.55v18.295a2.556 2.556 0 01-2.55 2.55" fill="#efbb97"/><path d="M103.695 150.623l3.498 27.713h13.738v-9.145h18.644v9.145h11.222l2.849-27.713z" fill="#38166d"/><path d="M92.015 134.092l-18.092 16.402s-5.075 1.878-4.908 2.57c.168.69 3.09-.102 3.09-.102s-4.433 2.719-3.76 3.291c.67.57 4.969-1.848 4.969-1.848s-3.728 2.655-3.19 3.728c.536 1.075 4.5-3.056 4.5-3.056s-2.62 4.03-1.68 4.936c.94.907 4.163-5.237 4.163-5.237s.504 2.92 1.612 3.224c1.108.301 0-4.246 0-4.246l16.535-16.325zm70.186 0l18.092 16.402s5.076 1.878 4.908 2.57c-.168.69-3.088-.102-3.088-.102s4.432 2.719 3.76 3.291c-.672.57-4.97-1.848-4.97-1.848s3.728 2.655 3.19 3.728c-.537 1.075-4.498-3.056-4.498-3.056s2.618 4.03 1.678 4.936c-.94.907-4.164-5.237-4.164-5.237s-.502 2.92-1.61 3.224c-1.108.301 0-4.246 0-4.246l-16.536-16.325z" fill="#efbb97"/><path d="M167.759 131.404c-1.043-2.2-13.871-12.75-18.21-10.06l-.158-.962-42.38.705s-.132.795-.347 2.112c-.195-.385-.435-.735-.785-.99-4.182-3.049-17.315 7.74-18.37 9.967-1.056 2.228 7.739 11.527 11.375 8.912 1.81-1.302 4.584-5.23 6.403-9.222-1.11 7.16-2.34 15.686-2.34 18.197 0 4.559 51.834 2.947 51.346 0-.238-1.455-1.438-8.708-2.59-15.68 1.584 2.699 3.38 4.997 4.682 5.933 3.634 2.616 12.428-6.684 11.374-8.912" fill="#6443a3"/><path d="M112.227 131.882c7.443 6.784 20.788 8.303 30.21 5.747 2.758-.748 2.322-5.498-.698-5.158-5.025.568-9.893 1.415-14.977 1.11-4.872-.29-9.605-1.496-14.447-1.912-.106-.01-.165.142-.088.213m5.351 7.887c.45 1.574 2.223 2.214 3.615 2.79 2.113.874 4.277 1.675 6.504 2.198 2.736.645 3.842-3.706 1.146-4.158-2.14-.358-4.278-.666-6.393-1.168-1.468-.349-3.244-1.049-4.643-.228a.513.513 0 00-.229.566" fill="#50378c"/><path d="M196.953 88.891c0 4.323-3.866 7.828-8.635 7.828-4.768 0-8.633-3.505-8.633-7.828 0-4.324 3.865-7.83 8.633-7.83 4.77 0 8.635 3.506 8.635 7.83" fill="#efbb97"/><path d="M184.524 85.964c2.28-1.253 5.084-.001 5.497 2.659.42 2.686-3.18 2.73-3.522.425-.212-1.445-2.087-1.007-2.51 0-1.946 4.61 8.764 7.199 8.986.624.081-2.428-1.42-4.828-3.647-5.783-1.92-.822-4.48-.448-5.36 1.647-.137.324.296.57.556.428" fill="#d8a17c"/><path d="M53.047 88.891c0 4.323 3.865 7.828 8.635 7.828 4.768 0 8.633-3.505 8.633-7.828 0-4.324-3.865-7.83-8.633-7.83-4.77 0-8.635 3.506-8.635 7.83" fill="#efbb97"/><path d="M65.475 85.964c-2.279-1.253-5.083-.001-5.498 2.659-.418 2.686 3.183 2.73 3.523.425.213-1.445 2.087-1.007 2.512 0 1.945 4.61-8.765 7.199-8.987.624-.081-2.428 1.42-4.828 3.647-5.783 1.92-.822 4.479-.448 5.36 1.647.137.324-.296.57-.557.428" fill="#d8a17c"/><path d="M186.248 70.9c0 30.436-27.212 55.11-60.779 55.11-33.568 0-60.78-24.674-60.78-55.11 0-30.437 27.212-55.11 60.78-55.11 33.567 0 60.78 24.673 60.78 55.11" fill="#efbb97"/><path d="M164.696 31.886c.415-.615 16.395-15.15 32.919-5.433 16.525 9.717 9.922 24.676 14.348 31.508 4.426 6.833 13.518 12.645 13.518 12.645s-7.229 3.227-15.352 2.668c-8.121-.559-20.812-2.764-33.414-13.45-12.603-10.687-12.019-27.938-12.019-27.938" fill="#c68f14"/><path d="M162.385 27.13c-10.236-7.109-23.028-11.34-36.916-11.34C91.9 15.79 64.69 40.462 64.69 70.9c0 5.648.94 11.096 2.681 16.227 28.898 6.716 57.395-5.615 76.486-27.583v.001c7.768 14.65 21.244 26.931 36.858 34.324 3.543-6.994 5.532-14.768 5.532-22.969 0-17.844-9.36-33.699-23.862-43.77" fill="#d8a013"/><path d="M72.72 83.39c21.862 3.565 46.622-6.614 62.34-21.884 2.96-2.876-1.478-7.244-4.509-4.508-7.456 6.733-16.137 11.692-25.145 16.032-4.465 2.153-8.988 4.373-13.763 5.75-6.093 1.756-12.282 1.46-18.54 1.787-1.52.077-2.068 2.548-.382 2.823" fill="#cc9211"/><path d="M82.443 75.775c4.615 1.058 8.666-.897 12.74-2.968a1311.463 1311.463 0 0019.706-10.218c2.73-1.446.252-5.74-2.428-4.156a1219.758 1219.758 0 00-14.004 8.414c-4.994 3.044-9.875 6.83-15.823 7.516-.743.087-1.05 1.216-.19 1.412m84.762-36.686c8.302 10.42 9.628 23.29 8.343 36.137-.356 3.542 5.267 3.564 5.563 0 1.162-14.072-1.094-28.25-11.652-38.39-1.516-1.456-3.503.684-2.254 2.253" fill="#cc9211"/><path d="M169.027 53.81c-.323 1.804.01 3.578.14 5.392.137 1.878.24 3.726.492 5.591.332 2.467 4.34 1.839 4.296-.58-.034-1.885-.32-3.715-.644-5.57-.312-1.785-.522-3.617-1.428-5.207-.624-1.095-2.614-.987-2.856.373" fill="#cc9211"/><path d="M183.42 30.92c3.028 2.57 7.015 3.212 9.888 6.27 3.399 3.614 3.873 8.391 6.263 12.502 1.196 2.053 5.062 1.334 4.776-1.295-.58-5.317-3.616-11.048-7.603-14.643-3.056-2.754-8.637-6.304-12.855-4.61-.668.268-1.144 1.204-.469 1.776" fill="#bc800a"/><path d="M183.803 34.665c.87.83 1.826 1.624 2.63 2.518.863.959 1.532 2.026 2.248 3.092.846 1.259 3.294.484 2.628-1.106-1.182-2.824-4.209-5.22-7.374-4.824-.15.017-.262.196-.132.32" fill="#bc800a"/><path d="M110.508 95.327a4.76 4.76 0 11-9.446-1.18 4.76 4.76 0 019.446 1.18m41.783.418a4.76 4.76 0 11-9.446-1.18 4.76 4.76 0 019.446 1.18m-25.201 11.769c-1.567-.195-2.935-.771-4.074-1.714-3.56-2.95-3.576-8.564-3.575-8.802.002-.483.508-.848 1.13-.816.62.029 1.128.45 1.126.934 0 .05.02 5.13 2.919 7.527.887.732 1.939 1.119 3.208 1.179 1.223.058 2.217-.22 3.044-.851 2.377-1.816 2.683-6.124 2.6-7.63-.027-.486.456-.871 1.079-.86.62.005 1.149.41 1.176.895.013.254.297 6.199-3.224 8.888-1.255.959-2.827 1.4-4.668 1.314a11.025 11.025 0 01-.742-.064" fill="#1d1d1b"/><path d="M155.889 109.034c-.098 2.238-3.087 3.923-6.678 3.766-3.589-.158-6.42-2.099-6.321-4.336.097-2.236 3.087-3.922 6.677-3.764 3.59.157 6.42 2.097 6.322 4.334m-48.7-3.991c-3.59-.157-6.579 1.528-6.678 3.766-.098 2.237 2.732 4.178 6.322 4.336 3.59.157 6.58-1.528 6.678-3.766.098-2.237-2.733-4.178-6.322-4.336" fill="#f2a391"/><path d="M110.951 195.434s-12.976 4.449-13.328 10.252c.616 1.76 18.707 0 18.707 0v-10.252h-5.379zm31.238 0v10.252s18.093 1.76 18.71 0c-.35-5.803-13.329-10.252-13.329-10.252h-5.38z" fill="#664b38"/></svg>