<svg width="250" height="233" xmlns="http://www.w3.org/2000/svg"><path d="M168.066 207.775c0 4.49-17.845 8.13-39.86 8.13s-39.861-3.64-39.861-8.13 17.846-8.13 39.861-8.13c22.015 0 39.86 3.64 39.86 8.13" fill-opacity=".2"/><path d="M140.432 196.74v10.253s18.092 1.759 18.708 0c-.352-5.804-13.328-10.253-13.328-10.253zm-24.452 0v10.253s-18.093 1.759-18.709 0c.352-5.804 13.328-10.253 13.328-10.253z" fill="#145fa3"/><path d="M105.785 162.494l4.814 34.247h5.38l6.04-26.274h14.776l3.637 26.274h5.381l3.974-34.247z" fill="#193451"/><path d="M91.896 134.994L73 150.464s-5.164 1.618-5.03 2.317c.131.698 3.09.056 3.09.056s-4.564 2.492-3.923 3.096c.643.604 5.056-1.594 5.056-1.594s-3.854 2.46-3.373 3.562c.483 1.1 4.648-2.824 4.648-2.824s-2.819 3.89-1.925 4.844c.893.952 4.42-5.022 4.42-5.022s.357 2.943 1.449 3.3c1.09.359.213-4.238.213-4.238l17.338-15.471z" fill="#efbb97"/><path d="M102.72 123.316l-12.967 11.208 7.518 5.405 6.12-5.088z" fill="#5c9bb7"/><path d="M159.174 131.58l17.917 16.592s5.056 1.933 4.882 2.621c-.176.69-3.088-.132-3.088-.132s4.402 2.766 3.725 3.33c-.679.562-4.95-1.9-4.95-1.9s3.7 2.692 3.15 3.76c-.548 1.069-4.467-3.102-4.467-3.102s2.576 4.056 1.627 4.954c-.95.896-4.108-5.283-4.108-5.283s-.535 2.916-1.645 3.207c-1.111.29.044-4.244.044-4.244l-16.362-16.5z" fill="#efbb97"/><path d="M150.93 121.908l12.967 11.208-7.519 5.405-6.12-5.088z" fill="#5c9bb7"/><path d="M102.72 123.316l1.36 40.306h47.489v-41.634z" fill="#83b9d6"/><path d="M133.326 152.545c2.076.843 3.096-2.641.938-3.406-5.888-2.086-11.865-4.21-16.74-8.24-1.08-.894-2.613.554-1.57 1.57 4.934 4.806 11.074 7.52 17.372 10.076zm-9.219.344c.966.332 1.715-1.053.973-1.67-1.891-1.572-4.15-2.673-6.251-3.569-.552-.235-.92.597-.548.94 1.783 1.641 3.693 3.566 5.826 4.299z" fill="#6ba7c1"/><path d="M151.57 121.987l-12.59 13.007-7.735-8.076zm-48.85 1.329l12.59 11.678 7.735-8.076z" fill="#5c9bb7"/><path d="M188.318 98.025c-4.768 0-8.633-3.505-8.633-7.828 0-4.324 3.865-7.83 8.633-7.83 4.77 0 8.635 3.506 8.635 7.83 0 4.323-3.865 7.828-8.635 7.828z" fill="#efbb97"/><path d="M190.022 89.929c.42 2.688-3.182 2.73-3.523.425-.214-1.445-2.088-1.006-2.512 0-1.946 4.61 8.765 7.2 8.987.624.082-2.427-1.419-4.828-3.647-5.783-1.918-.822-4.477-.447-5.358 1.647-.137.325.296.57.556.428 2.28-1.252 5.082 0 5.497 2.659z" fill="#d8a17c"/><path d="M61.682 98.025c4.768 0 8.633-3.505 8.633-7.828 0-4.324-3.865-7.83-8.633-7.83-4.77 0-8.635 3.506-8.635 7.83 0 4.323 3.865 7.828 8.635 7.828z" fill="#efbb97"/><path d="M59.978 89.929c-.42 2.688 3.182 2.73 3.523.425.214-1.445 2.088-1.006 2.512 0 1.946 4.61-8.766 7.2-8.987.624-.081-2.427 1.419-4.828 3.647-5.783 1.918-.822 4.477-.447 5.358 1.647.137.325-.296.57-.556.428-2.28-1.252-5.082 0-5.497 2.659z" fill="#d8a17c"/><path d="M125.469 127.316c-33.567 0-60.779-24.673-60.779-55.11s27.212-55.11 60.779-55.11c33.568 0 60.78 24.673 60.78 55.11s-27.212 55.11-60.78 55.11z" fill="#efbb97"/><path d="M64.69 72.206c0 .57.028 1.13.047 1.695 8.632 4.176 20.545 3.64 29.584 1.174 7.036-1.406 12.664-8.442 16.885-15.477 2.815 7.035 4.221 15.477 11.257 18.292 14.071 5.627 21.106-9.85 29.548-18.292 7.64 11.032 19.375 22.053 32.424 25.985a50.328 50.328 0 001.814-13.377c0-30.437-27.212-55.11-60.78-55.11-33.567-.001-60.779 24.673-60.779 55.11z" fill="#6d350f"/><path d="M137.916 20.885c-1.181-.173-1.72 1.484-.508 1.84l.002-.002c9.165 2.675 23.786 8.597 27.434 18.46.642 1.74 3.811 1.681 3.53-.476-.73-5.567-6.466-9.303-10.847-12.242-5.973-4.006-12.503-6.534-19.611-7.58zM135.881 52.8a5.14 5.14 0 00-1.606.363c-.61.242-.386 1.124.276.994v.002c3.86-.753 5.005 3.699 6.125 6.352.588 1.396 2.79.913 2.35-.649-.898-3.193-3.533-7.267-7.145-7.062zm-4.092 2.629a8.75 8.75 0 00-3.027.543c-1.365.497-.843 2.537.605 2.199 5.113-1.196 8.33 4.318 4.889 8.266-1.807 2.07-5.368 3.23-8.043 2.699-5.616-1.114-7.118-7.281-8.883-11.8-.347-.887-1.89-.877-1.809.247h-.001c.68 9.501 8.526 18.824 18.482 13.277 3.766-2.096 6.23-6.366 4.66-10.64-1.15-3.132-3.882-4.782-6.873-4.791zm-25.95 1.775c-.349-.02-.726.1-1.081.418-5.19 4.66-10.668 8.345-17.504 10.057-6.475 1.622-12.156.66-18.666.12-.71-.057-.938.986-.354 1.311 12.084 6.733 30.353.816 38.58-9.43.865-1.08.074-2.414-.974-2.476zm53.77.637c-.641.115-1.137.906-.75 1.553 2.27 3.788 6.194 7.02 9.61 9.763 2.98 2.396 6.22 4.369 10.146 4.389 2.49.013 2.36-3.516 0-3.783-7.808-.878-12.219-7.784-18.344-11.782a.9.9 0 00-.662-.14zm-65.48.705c-.362-.03-.74.088-1.067.426-4.502 4.662-11.046 4.743-17.113 4.746-.492 0-.64.817-.12.888h.001c6.837.923 13.866 1.392 19.287-3.578 1.035-.947.096-2.39-.988-2.482zm74.55 1.201c-.93.099-1.67 1.207-.78 2.01 2.141 1.932 4.573 3.31 7.36 4.068 1.692.46 2.412-2.162.723-2.62-2.308-.629-4.492-1.669-6.363-3.17a1.264 1.264 0 00-.94-.288z" fill="#5b2e10"/><path d="M105.196 100.768a4.761 4.761 0 01-4.133-5.313c.785-6.297 10.23-5.119 9.445 1.178a4.76 4.76 0 01-5.312 4.135zm41.783.418a4.76 4.76 0 01-4.133-5.313c.785-6.297 10.23-5.119 9.445 1.178a4.76 4.76 0 01-5.312 4.135zm-23.962 5.92c-3.56-2.95-3.577-8.564-3.576-8.803.002-.482.51-.847 1.13-.816.62.031 1.128.451 1.126.935 0 .05.02 5.13 2.919 7.527.886.733 1.939 1.12 3.208 1.18 1.223.058 2.219-.22 3.044-.85 2.379-1.816 2.683-6.126 2.601-7.633-.026-.485.456-.867 1.078-.859.62.008 1.15.411 1.176.896.014.252.297 6.198-3.223 8.887-1.256.96-2.832 1.465-5.04 1.282-1.943-.162-3.304-.802-4.443-1.746z" fill="#1d1d1b"/><path d="M149.212 114.106c-3.59-.157-6.421-2.1-6.323-4.336.098-2.236 3.088-3.922 6.679-3.764 3.59.157 6.42 2.098 6.321 4.336-.099 2.237-3.088 3.921-6.677 3.764zm-48.7-3.991c-.099 2.237 2.732 4.179 6.321 4.336 3.59.158 6.58-1.528 6.678-3.766.098-2.237-2.732-4.178-6.322-4.336-3.589-.157-6.578 1.528-6.677 3.766z" fill="#f2a391"/></svg>