<svg width="250" height="233" xmlns="http://www.w3.org/2000/svg"><path d="M169.474 212.909c0 4.49-17.847 8.13-39.862 8.13-22.013 0-39.86-3.64-39.86-8.13s17.847-8.13 39.86-8.13c22.015 0 39.86 3.64 39.86 8.13" fill-opacity=".2"/><path d="M143.264 204.564h-.283a2.556 2.556 0 01-2.55-2.55v-18.293a2.556 2.556 0 012.55-2.55h.283a2.556 2.556 0 012.549 2.55v18.293a2.556 2.556 0 01-2.55 2.55M116.244 204.564h-.282a2.556 2.556 0 01-2.548-2.55v-18.293a2.556 2.556 0 012.548-2.55h.282a2.556 2.556 0 012.55 2.55v18.293a2.556 2.556 0 01-2.55 2.55" fill="#efbb97"/><path d="M140.432 201.874v10.253s18.092 1.759 18.708 0c-.351-5.804-13.327-10.253-13.327-10.253zM118.794 201.874v10.253s-18.092 1.759-18.708 0c.35-5.804 13.328-10.253 13.328-10.253z" fill="#d13024"/><path d="M105.347 164.754l5.197 32.916h9.96l2.58-28.61 10.544-.197 3.76 28.807h10.18l1.822-33.77z" fill="#1bb3cc"/><path d="M92.216 138.698l-19.363 14.881s-5.21 1.461-5.1 2.163c.112.702 3.088.15 3.088.15s-4.639 2.352-4.015 2.975c.623.624 5.102-1.439 5.102-1.439s-3.93 2.343-3.48 3.458c.448 1.114 4.732-2.682 4.732-2.682s-2.938 3.804-2.074 4.784c.863.98 4.575-4.884 4.575-4.884s.264 2.954 1.344 3.344c1.08.391.344-4.23.344-4.23l17.804-14.932z" fill="#efbb97"/><path d="M105.347 129.355l-16.623 8.682 6.531 8.683 8.735-5.492z" fill="#1f90aa"/><path d="M162.145 138.562l19.165 15.134s5.192 1.528 5.071 2.23c-.121.701-3.09.11-3.09.11s4.607 2.411 3.977 3.026c-.632.616-5.084-1.504-5.084-1.504s3.898 2.393 3.436 3.501c-.463 1.11-4.696-2.743-4.696-2.743s2.886 3.843 2.01 4.811c-.876.968-4.51-4.943-4.51-4.943s-.304 2.948-1.39 3.326c-1.084.377-.288-4.235-.288-4.235l-17.606-15.164z" fill="#efbb97"/><path d="M149.23 128.3l16.621 8.682-6.53 8.683-9.153-5.755z" fill="#1f90aa"/><path d="M105.902 125.439s-5.206 36.48-2.048 40.96c3.157 4.48 44.728 5.704 45.932 0 1.204-5.704 0-40.96 0-40.96s-12.731 4.206-23.207 4.221c-10.476.015-20.677-4.221-20.677-4.221" fill="#d13024"/><path d="M113.115 137.584c5.339 3.19 12.278 4.007 18.39 4.033 2.054.01 2.053-3.245 0-3.186-6.224.176-11.618-1.392-17.584-2.76-1.14-.262-1.848 1.289-.806 1.913m5.603 7.125c2.507 1.484 6.648 1.239 9.456 1.232 1.536-.004 1.519-2.47 0-2.375a60.321 60.321 0 01-4.96.09c-1.445-.027-2.963-.28-4.368.082-.448.115-.515.742-.128.97" fill="#ba221e"/><path d="M196.952 95.33c0 4.325-3.864 7.83-8.634 7.83-4.768 0-8.632-3.505-8.632-7.83 0-4.323 3.864-7.829 8.632-7.829 4.77 0 8.634 3.506 8.634 7.83" fill="#efbb97"/><path d="M184.525 92.404c2.28-1.254 5.083 0 5.498 2.66.418 2.685-3.183 2.729-3.523.424-.213-1.446-2.088-1.007-2.512 0-1.944 4.609 8.765 7.2 8.987.624.081-2.428-1.42-4.828-3.647-5.783-1.92-.823-4.48-.448-5.36 1.647-.137.324.296.57.557.428" fill="#d8a17c"/><path d="M53.048 95.33c0 4.325 3.864 7.83 8.634 7.83 4.768 0 8.634-3.505 8.634-7.83 0-4.323-3.866-7.829-8.634-7.829-4.77 0-8.634 3.506-8.634 7.83" fill="#efbb97"/><path d="M65.475 92.404c-2.28-1.254-5.083 0-5.498 2.66-.418 2.685 3.183 2.729 3.524.424.212-1.446 2.087-1.007 2.51 0 1.946 4.609-8.764 7.2-8.986.624-.081-2.428 1.42-4.828 3.647-5.783 1.92-.823 4.48-.448 5.36 1.647.137.324-.296.57-.557.428" fill="#d8a17c"/><path d="M186.248 77.34c0 30.437-27.21 55.11-60.779 55.11-33.568 0-60.78-24.673-60.78-55.11 0-30.438 27.212-55.11 60.78-55.11s60.78 24.672 60.78 55.11" fill="#efbb97"/><path d="M110.508 101.767a4.759 4.759 0 11-9.445-1.179 4.758 4.758 0 119.445 1.179m41.783.418a4.76 4.76 0 11-9.445-1.18 4.76 4.76 0 019.445 1.18m-25.201 11.769c-1.568-.195-2.934-.771-4.074-1.714-3.56-2.949-3.576-8.564-3.575-8.802.003-.484.51-.85 1.13-.818.62.031 1.127.451 1.126.936 0 .051.02 5.128 2.919 7.526.886.733 1.938 1.12 3.208 1.18 1.222.058 2.218-.22 3.044-.851 2.377-1.816 2.684-6.124 2.6-7.63-.026-.486.457-.871 1.08-.86.62.005 1.148.411 1.174.897.014.252.298 6.197-3.222 8.886-1.256.959-2.828 1.4-4.67 1.312a9.52 9.52 0 01-.74-.062" fill="#1d1d1b"/><path d="M155.889 115.475c-.098 2.237-3.087 3.923-6.678 3.765-3.589-.157-6.418-2.098-6.32-4.336.098-2.237 3.087-3.922 6.676-3.765 3.59.157 6.42 2.099 6.322 4.336m-48.699-3.991c-3.59-.158-6.58 1.528-6.678 3.765-.099 2.236 2.732 4.179 6.321 4.336 3.591.157 6.58-1.528 6.678-3.765.098-2.238-2.732-4.179-6.322-4.336" fill="#f2a391"/><path d="M191.748 70.997a10.254 10.254 0 004.463-8.466c0-5.002-3.582-9.165-8.319-10.077a10.203 10.203 0 002.06-6.15c0-5.67-4.597-10.266-10.267-10.266-1.654 0-3.212.4-4.594 1.095a10.221 10.221 0 001.114-4.636c0-5.671-4.597-10.268-10.266-10.268-2.204 0-4.239.7-5.91 1.88.007-.168.024-.334.024-.503 0-5.67-4.597-10.268-10.268-10.268-3.233 0-6.117 1.5-7.998 3.839-1.764-3.111-5.1-5.215-8.932-5.215-3.462 0-6.516 1.717-8.376 4.341-1.86-2.624-4.915-4.341-8.375-4.341-4.679 0-8.619 3.13-9.857 7.41a10.225 10.225 0 00-7.076-2.84c-5.586 0-10.12 4.465-10.254 10.02a10.225 10.225 0 00-3.93-.782c-5.67 0-10.267 4.597-10.267 10.268 0 .35.017.697.052 1.04-5.584.099-10.083 4.65-10.083 10.257a10.2 10.2 0 001.406 5.166c-4.623 1-8.088 5.109-8.088 10.03 0 3.379 1.64 6.367 4.157 8.238-3.07 1.776-5.141 5.086-5.141 8.888 0 5.67 4.596 10.268 10.266 10.268.12 0 .236-.014.355-.018a10.58 10.58 0 002.672.352c5.855 0 10.601-4.746 10.601-10.602a10.55 10.55 0 00-2.668-7.016c4.844-.826 8.534-5.031 8.534-10.11 0-.474-.043-.938-.106-1.396a10.286 10.286 0 004.447-4.778 6.655 6.655 0 002.061 1.125c2.466.801 5.038.072 6.76-1.632 0 .057-.006.115-.006.172 0 5.859 4.748 10.608 10.606 10.608a10.54 10.54 0 005.472-1.533c1.754 3.445 5.322 5.809 9.452 5.809 5.518 0 10.046-4.212 10.556-9.596a10.55 10.55 0 007.096 2.741c5.468 0 9.967-4.138 10.544-9.452a6.555 6.555 0 001.97 1.064c1.885.612 3.833.322 5.421-.602a10.274 10.274 0 007.321 5.673 10.19 10.19 0 00-1.388 5.137c0 5.459 4.26 9.908 9.635 10.236a10.243 10.243 0 00-.643 3.55c0 5.67 4.596 10.268 10.267 10.268 5.67 0 10.268-4.598 10.268-10.268 0-3.644-1.905-6.838-4.768-8.66" fill="#472915"/><path d="M150.656 18.453c-1.18-.096-2.297.24-2.855 1.377-.073.148-.025.38.168.414 1.784.31 3.338.35 4.63 1.83 1.368 1.567 1.682 3.931 1.946 5.92.288 2.183 3.325 1.814 3.008-.406-.412-2.897-1.154-6.098-3.666-7.924-.81-.587-2.05-1.115-3.23-1.21zm-13.228 9.908c-1.07.014-2.091.267-3 .854-.404.26-.34.886.135 1.027 1.62.48 3.261.52 4.847 1.166 1.828.746 3.455 1.847 4.947 3.14 3.033 2.633 4.715 5.833 4.78 9.886.038 2.343 3.314 2.23 3.562 0 .552-4.968-2.389-9.39-6.213-12.305-2.225-1.697-5.85-3.808-9.058-3.768zm2.836 8.19a2.33 2.33 0 00-.512.068c-.272.068-.426.486-.18.68.884.695 1.918 1.02 2.701 1.88a5.071 5.071 0 011.33 3.262c.049 1.492 2.273 1.256 2.057-.277a6.843 6.843 0 00-2.125-4.035c-.831-.77-2.068-1.608-3.271-1.578zM77.49 42.4c-.24-.013-.497.061-.754.255-1.985 1.504-3.954 3.29-3.664 6.02.223 2.08 2.113 4.482 4.125 5.058.224.064.457-.156.385-.384-.452-1.424-1.656-2.434-2.064-3.899-.585-2.107 1.048-3.374 2.578-4.472 1.139-.821.433-2.524-.606-2.579zm25.489 7.318c-.562.089-1.048.46-1.172 1.17-.658 3.756 1.018 7.671 4.06 9.94 1.65 1.231 7.09 3.558 8.522.974a.131.131 0 00-.02-.153c-.654-.685-1.598-.613-2.49-.847-1.368-.357-2.632-.923-3.748-1.805-2.456-1.938-3.054-4.7-3.07-7.67-.007-1.127-1.147-1.758-2.082-1.61zm6.837 6.021c-.515-.08-1.155.505-.757 1.026.702.918 1.9 2.21 3.18 2.134.097-.007.184-.117.12-.21-.285-.424-.723-.757-1.074-1.13a6.172 6.172 0 01-1.039-1.49.57.57 0 00-.43-.33zm81.575 19.211c-.853.001-1.71.575-1.791 1.719-.132 1.859.172 4.034-1.123 5.568-1.608 1.905-4.02.688-5.838 1.801a.65.65 0 00-.131 1.006c1.824 1.853 6.243 1.18 8.049-.39 2.149-1.872 2.77-5.27 2.605-7.985-.07-1.148-.918-1.72-1.771-1.719zm-129.108.727c-.597.028-1.197.34-1.482 1.02-1.06 2.507-.625 5.612 1.17 7.68 1.173 1.35 3.945 3.296 5.746 2.087.11-.075.134-.22.04-.32-1.123-1.223-2.815-1.464-3.784-2.985-1.142-1.794-.98-3.762-.188-5.642.483-1.144-.506-1.887-1.502-1.84zm123.358 1.752a.902.902 0 00-.914.49c-.327.613-.524 1.253-1.006 1.777-.34.371-1 .8-.713 1.381.475.966 2.02-.315 2.408-.666.522-.47.959-1.036 1.166-1.71.206-.684-.356-1.217-.941-1.272z" fill="#633516"/></svg>