<svg xmlns="http://www.w3.org/2000/svg" width="250" height="250"><defs><filter id="a" x="0" width="1" height="1.5" color-interpolation-filters="sRGB"><feFlood flood-opacity=".8"/><feComposite in2="SourceGraphic" operator="in"/><feOffset dx="2" dy="2" result="result1"/><feComposite in="SourceGraphic" in2="result1"/></filter></defs><path d="M169.744 87.925l9.827-2.085-11.168 37.671q-6.7 22.483-12.656 51.816-3.276 15.932-3.276 20.548 0 4.616 3.723 4.616 2.382 0 7.594-3.127 9.231-5.51 17.718-13.699l4.765 5.807q-16.974 15.486-21.739 18.761-9.53 6.552-18.165 9.679-5.658 2.084-11.019 2.084-3.871 0-5.807-1.786-1.935-1.787-1.935-5.212 0-2.233 1.19-6.105l5.957-20.25q-12.805 15.337-30.524 26.355-10.87 6.85-19.952 6.85-8.636 0-13.252-6.105-6.254-8.19-6.254-21.442 0-15.783 8.338-35.14 8.488-19.356 22.633-35.139 14.145-15.783 29.78-23.228 12.06-5.658 30.97-5.658 4.764 0 9.678.596zm-18.464 22.78q-8.04-1.637-13.55-1.637-13.4 0-23.376 7.445-9.976 7.296-18.612 26.504-8.487 19.058-8.487 38.117 0 10.125 3.424 14.592 3.425 4.467 8.934 4.467 10.274 0 22.037-11.018 11.763-11.168 17.272-32.013zm9.38-81.595h28.291l-50.476 43.18h-8.785z" fill="#6eaca4" filter="url(#a)"/></svg>