<svg xmlns="http://www.w3.org/2000/svg" width="66" height="377"><defs><filter id="a" x="0" width="1.121" height="1.5" color-interpolation-filters="sRGB" y="-.1"><feFlood flood-opacity=".8"/><feComposite in2="SourceGraphic" operator="in"/><feOffset dx="2" dy="2" result="result1"/><feComposite in="SourceGraphic" in2="result1"/></filter></defs><path d="M-278.703 254.942l3.477-.738-3.95 13.327q-2.37 7.954-4.478 18.332-1.16 5.636-1.16 7.269t1.318 1.633q.843 0 2.686-1.106 3.266-1.95 6.27-4.847l1.684 2.055q-6.005 5.478-7.69 6.637-3.372 2.318-6.427 3.424-2.002.737-3.898.737-1.37 0-2.054-.632-.685-.632-.685-1.843 0-.79.421-2.16l2.107-7.164q-4.53 5.426-10.798 9.324-3.846 2.423-7.059 2.423-3.055 0-4.688-2.16-2.213-2.897-2.213-7.585 0-5.584 2.95-12.432 3.003-6.848 8.007-12.431 5.004-5.584 10.535-8.218 4.267-2.002 10.957-2.002 1.686 0 3.424.21zm-6.532 8.06q-2.844-.58-4.793-.58-4.74 0-8.27 2.633-3.53 2.582-6.585 9.377-3.002 6.742-3.002 13.485 0 3.582 1.211 5.162 1.212 1.58 3.16 1.58 3.635 0 7.797-3.897 4.161-3.951 6.11-11.326zm3.32-28.867h10.007l-17.857 15.276h-3.108z" fill="#f36f6f" filter="url(#a)" transform="matrix(.9054 0 0 .85987 297.16 -191.325)"/><path d="M-194.315 286.916l1.738 2.318q-12.906 12.273-22.124 12.273-3.74 0-5.742-2.528-1.949-2.528-1.949-8.112 0-11.273 6.848-22.44 7.69-12.695 18.384-12.695 3.74 0 5.69 1.896 2 1.844 2 5.11 0 3.424-2.37 6.742-2.37 3.319-8.48 6.9-3.056 1.74-13.064 6.27-.474 2.844-.474 5.425 0 3.74 1.16 5.215 1.21 1.475 3.475 1.475 2.16 0 4.741-1.212 3.477-1.633 10.167-6.637zm-18.437-7.638q8.48-3.793 12.748-8.165 2.897-3.055 2.897-6.058 0-2.265-1.212-3.581-1.159-1.37-3.055-1.37-1.949 0-3.793 1.475-2.475 1.949-4.16 5.9-2.424 5.794-3.425 11.8zm19.227-45.143h10.008l-17.856 15.276h-3.108z" fill="#fdfb5e" filter="url(#a)" transform="matrix(.9054 0 0 .85987 215.383 -117.307)"/><path d="M-136.16 268.058l-2.319-1.791q5.268-5.794 9.588-8.217 4.372-2.476 7.427-2.476 1.686 0 2.581.737.896.738.896 2.002 0 1.528-3.424 12.958-5.584 18.7-5.584 22.546 0 .737.37 1.264.367.474.79.474.526 0 1.684-.737 2.95-1.95 5.215-4.215 1.054-1 1.74-1.58l2.106 2.002q-6.427 5.847-7.796 6.848-3.003 2.212-5.584 3.213-1.317.527-2.58.527-1.898 0-3.004-1.16-1.053-1.105-1.053-3.212 0-3.793 2.107-11.8 3.634-14.17 5.741-20.386.422-1.264.422-2.16 0-1.053-.948-1.053-1.054 0-2.423.843-1.317.843-5.953 5.373zm21.333-33.923h10.01l-17.859 15.276h-3.107z" fill="#aaf9f6" filter="url(#a)" transform="matrix(.9054 0 0 .85987 146.455 -43.266)"/><path d="M-38.446 255.837q5.162 0 8.586 4.109 3.424 4.109 3.424 11.43 0 11.695-8.218 21.018-8.217 9.27-17.383 9.27-5.636 0-9.113-3.686-3.424-3.687-3.424-10.061 0-11.062 6.321-20.438 7.955-11.642 19.807-11.642zm-4.478 3.95q-4.477 0-8.69 6.427-4.163 6.374-4.163 17.647 0 6.848 2.581 10.799 1.897 2.897 5.057 2.897 4.425 0 8.06-5.48 4.635-7.11 4.635-17.645 0-7.902-2.16-11.273-2.107-3.371-5.32-3.371zm10.01-25.652h10.007l-17.856 15.276h-3.108z" fill="#f7ce4f" filter="url(#a)" transform="matrix(.9054 0 0 .85987 71.102 30.77)"/><path d="M61.586 257.259h7.48l-4.952 18.384q-4.372 16.014-4.372 18.226 0 1 .474 1.528.474.527 1.054.527.895 0 2.107-.79 1.738-1.212 6.584-6.11l1.74 1.948q-10.589 11.01-15.594 11.01-1.686 0-2.898-1.316-1.159-1.265-1.159-3.635 0-2.74 1.16-7.322-4.689 5.373-11.59 9.429-4.582 2.687-7.954 2.687-1.843 0-2.897-1.212-1.052-1.213-1.052-3.846 0-2.055.474-4.425.685-3.32 3.476-13.327 3.53-12.695 3.53-15.224 0-1.475-1.054-1.475-.948 0-2.58 1-1.634.949-5.585 4.689l-2.317-1.843q7.058-6.321 10.746-8.27 3.74-2.002 6.005-2.002 1.264 0 2.054.948.79.895.79 2.845 0 3.634-3.792 17.857-3.372 12.8-3.372 14.59 0 1.107.685 1.897.738.79 1.58.79 2.95 0 8.376-4.846 5.426-4.9 7.111-11.114zm-.738-23.124h10.01L53 249.41h-3.108z" fill="#8ce283" filter="url(#a)" transform="matrix(.9054 0 0 .85987 -13.597 104.83)"/></svg>