<svg xmlns="http://www.w3.org/2000/svg" width="250" height="250"><defs><filter id="a" x="0" width="1" height="1.5" color-interpolation-filters="sRGB"><feFlood flood-opacity=".8"/><feComposite in2="SourceGraphic" operator="in"/><feOffset dx="2" dy="2" result="result1"/><feComposite in="SourceGraphic" in2="result1"/></filter></defs><path d="M158.427 178.305l4.914 6.552q-36.48 34.693-62.537 34.693-10.571 0-16.23-7.147-5.509-7.148-5.509-22.93 0-31.865 19.357-63.43 21.739-35.885 51.965-35.885 10.572 0 16.08 5.36 5.659 5.212 5.659 14.443 0 9.679-6.7 19.06-6.7 9.38-23.973 19.505-8.636 4.913-36.926 17.718-1.34 8.04-1.34 15.337 0 10.572 3.275 14.74 3.425 4.17 9.828 4.17 6.104 0 13.4-3.425 9.827-4.616 28.737-18.76zm-52.114-21.59q23.973-10.72 36.033-23.079 8.19-8.636 8.19-17.123 0-6.403-3.425-10.125-3.276-3.871-8.636-3.871-5.509 0-10.72 4.169-6.999 5.509-11.763 16.676-6.85 16.379-9.679 33.353zM160.661 29.11h28.29l-50.476 43.18h-8.785z" fill="#a66496" filter="url(#a)"/></svg>