<svg xmlns="http://www.w3.org/2000/svg" width="250" height="250"><defs><filter id="a" x="0" width="1" height="1.5" color-interpolation-filters="sRGB"><feFlood flood-opacity=".8"/><feComposite in2="SourceGraphic" operator="in"/><feOffset dx="2" dy="2" result="result1"/><feComposite in="SourceGraphic" in2="result1"/></filter></defs><path d="M100.432 125l-6.551-5.063q14.89-16.378 27.099-23.227 12.358-6.999 20.994-6.999 4.765 0 7.296 2.085 2.531 2.085 2.531 5.658 0 4.318-9.678 36.629-15.783 52.858-15.783 63.728 0 2.084 1.042 3.573 1.043 1.34 2.234 1.34 1.489 0 4.765-2.084 8.338-5.51 14.74-11.912 2.978-2.83 4.914-4.467l5.956 5.658q-18.166 16.528-22.037 19.357-8.487 6.253-15.783 9.082-3.722 1.49-7.296 1.49-5.36 0-8.487-3.276-2.978-3.127-2.978-9.083 0-10.72 5.956-33.353 10.274-40.053 16.23-57.623 1.19-3.574 1.19-6.105 0-2.978-2.68-2.978-2.977 0-6.849 2.382-3.722 2.383-16.825 15.188zm60.303-95.89h28.29L138.55 72.29h-8.785z" fill="#8d549e" filter="url(#a)"/></svg>