<svg xmlns="http://www.w3.org/2000/svg" width="250" height="250"><defs><filter id="a" x="0" width="1" height="1.5" color-interpolation-filters="sRGB"><feFlood flood-opacity=".8"/><feComposite in2="SourceGraphic" operator="in"/><feOffset dx="2" dy="2" result="result1"/><feComposite in="SourceGraphic" in2="result1"/></filter></defs><path d="M145.101 90.456q14.592 0 24.27 11.614 9.679 11.614 9.679 32.31 0 33.056-23.228 59.41-23.228 26.206-49.136 26.206-15.932 0-25.76-10.423-9.678-10.422-9.678-28.439 0-31.268 17.868-57.772 22.483-32.906 55.985-32.906zm-12.656 11.167q-12.656 0-24.568 18.166-11.763 18.016-11.763 49.88 0 19.357 7.296 30.524 5.36 8.19 14.294 8.19 12.507 0 22.781-15.486 13.103-20.101 13.103-49.88 0-22.335-6.105-31.864-5.955-9.53-15.038-9.53zm28.29-72.513h28.29L138.55 72.29h-8.785z" fill="#653d91" filter="url(#a)"/></svg>