<svg width="306" height="350" xmlns="http://www.w3.org/2000/svg"><ellipse cx="131.791" cy="334.769" rx="90" ry="15" fill-opacity=".2"/><path d="M111.998 315.904c-.256-10.597 4.289-21.226 15.472-27.17 2.791-2.435 6.704-1.965 9.18 1.195-10.084 5.975-13.136 20.207-11.67 25.985 7.6 2.918 12.221 11.985 2.876 15.375-18.25 6.62-35.57 6.448-65.849 4.836-1.765-.094-3.646-2.02-2.19-4.985 5.431-11.05 12.28-17.86 29.879-20.899 7.881-1.36 15.226-2.058 22.302 5.663z" fill="#e1f300" stroke="#0e1617" stroke-width="2" stroke-linejoin="round"/><path d="M253.228 155.95s22.744 13.741 18.54 48.766c-3.814 31.782-27.684 39.368-27.684 39.368z" fill="#e1f300" stroke="#0d1516" stroke-width="2"/><path d="M151.719 100.785c-21.904-.121-43.537 13.539-51.367 34.26-10.722 25.204-9.068 53.722-3.528 79.967 5.27 21.208 14.274 43.344 32.522 56.606 17.334 12.132 41.667 13.77 60.441 4.004 18.773-10.015 28.454-30.903 30.985-51.237 3.428-28.342 1.402-58.219-10.733-84.396-7.568-17.24-22.005-31.955-40.5-36.94-5.78-1.653-11.815-2.352-17.82-2.264z" fill="#f6ff80"/><path d="M55 190.075q0-28.96 13.456-52.253 13.457-23.503 37.636-36.724 24.39-13.22 55.298-13.22 44.784 0 71.697 26.441Q260 140.76 260 184.829q0 52.043-35.113 82.68Q193.56 295 149.826 295q-42.052 0-68.544-28.12Q55 238.55 55 190.075zm39.528-14.9q0 43.23 17.662 74.078 17.872 30.638 51.302 30.638 25.441 0 41-19.306 15.77-19.307 15.77-58.549 0-31.687-9.252-54.77-9.251-23.294-24.39-33.786-15.138-10.703-33.85-10.703-16.611 0-30.067 8.394-13.247 8.394-19.554 22.454-8.62 19.097-8.62 41.55zM130.272 71.51h-14.298l62.236-59.388q7.78-7.555 11.144-9.233 3.364-1.89 7.57-1.89 6.097 0 9.881 3.778 3.995 3.568 3.995 9.024 0 5.036-4.205 9.863-3.995 4.616-19.764 14.06z" fill="#7cc3d8"/><path d="M55.136 163.793c1.972-3.895 2.499-7.812 11.585-7.992 8.695-.173 33.477 7.03 52.083 21.821 5.885 4.679 6.692 16.034-6.555 17.062-15.235 1.182-19.055-4.673-28.556-7.902 4.065 5.302 10.53 9.71 11.135 16.702 1.016 11.758-4.503 16.58-12.213 13.11-6.482-2.916-9.092-6.238-13.47-9.338 7.144 8.147 11.768 18.953 8.62 27.119-3.649 9.47-12.145 13.446-19.037 5.029-2.973-3.633-5.066-8.807-3.412-12.033-10.498-.513-28.217-11.91-28.556-28.916-.316-15.861 17.326-42.257 28.376-34.662z" fill="#e1f300"/><path d="M83.693 186.782c-5.024-5.115-10.095-10.406-14.189-12.033m-14.368-10.956c-2.644 5.228-3.482 12.262-3.502 20.115-2.207 2.615-3.069 6.037-4.13 9.34m7.632-29.455c1.972-3.895 2.499-7.812 11.585-7.992 8.695-.173 33.477 7.03 52.083 21.821 5.885 4.679 6.692 16.034-6.555 17.062-15.235 1.182-19.055-4.673-28.556-7.902 4.065 5.302 10.53 9.71 11.135 16.702 1.016 11.758-4.503 16.58-12.213 13.11-6.482-2.916-9.092-6.238-13.47-9.338 7.144 8.147 11.768 18.953 8.62 27.119-3.649 9.47-12.145 13.446-19.037 5.029-2.973-3.633-5.066-8.807-3.412-12.033-10.498-.513-28.217-11.91-28.556-28.916-.316-15.861 17.326-42.257 28.376-34.662zM128.5 209.5c-34.203-21.655-16.552 22.71 1 15.875" fill="none" stroke="#0e1616" stroke-width="2" stroke-linecap="round"/><ellipse cx="198.522" cy="109.242" rx="21.507" ry="31.007" transform="rotate(9.93)" fill="#fff" stroke="#0e1616" stroke-width="2"/><circle cx="172.882" cy="131.223" r="6" fill="#0d1516"/><circle cx="175.421" cy="129.401" r="2" fill="#fff"/><ellipse cx="160.729" cy="84.708" rx="20.458" ry="27.846" transform="matrix(.95919 .28277 -.32136 .94696 0 0)" fill="#fff" stroke="#0e1616" stroke-width="2"/><circle cx="126.756" cy="114.411" fill="#0d1516" r="5.5"/><circle cx="128.883" cy="113.218" fill="#fff" r="1.9"/><path d="M176.875 320.5c-.256-10.596-.838-21.225 2.125-31.5 2.792-2.436 4.583-1.966 8.563-.75-5.52 8.79-4.947 22.778-4.688 26.25 9.278-.264 28.22 17.985 18.875 21.375-18.25 6.62-54.22 7.862-84.5 6.25-1.766-.094-3.444-3.492-3.25-5.25 1.466-13.304 8.1-22.395 28.375-25.75 11.39-1.884 24.508 2.804 34.5 9.375z" fill="#e1f300" stroke="#0e1617" stroke-width="2" stroke-linejoin="round"/></svg>