<svg width="306" height="350" xmlns="http://www.w3.org/2000/svg"><ellipse cx="131.791" cy="334.769" rx="90" ry="15" fill-opacity=".2"/><path d="M111.998 315.904c-.256-10.597 4.289-21.226 15.472-27.17 2.791-2.435 6.704-1.965 9.18 1.195-10.084 5.975-13.136 20.207-11.67 25.985 7.6 2.918 12.221 11.985 2.876 15.375-18.25 6.62-35.57 6.448-65.849 4.836-1.765-.094-3.646-2.02-2.19-4.985 5.431-11.05 12.28-17.86 29.879-20.899 7.881-1.36 15.226-2.058 22.302 5.663z" fill="#e1f300" stroke="#0e1617" stroke-width="2" stroke-linejoin="round"/><path d="M151.719 100.785c-21.904-.121-43.537 13.539-51.367 34.26-10.722 25.204-9.068 53.722-3.528 79.967 5.27 21.208 14.274 43.344 32.522 56.606 17.334 12.132 41.667 13.77 60.441 4.004 18.773-10.015 28.454-30.903 30.985-51.237 3.428-28.342 1.402-58.219-10.733-84.396-7.568-17.24-22.005-31.955-40.5-36.94-5.78-1.653-11.815-2.352-17.82-2.264z" fill="#f6ff80"/><path d="M55 190.075c0-19.307 4.485-36.724 13.456-52.253 8.971-15.669 21.517-27.91 37.636-36.724 16.26-8.813 34.693-13.22 55.298-13.22 29.856 0 53.755 8.814 71.697 26.441S260 155.449 260 184.829c0 34.695-11.704 62.255-35.113 82.68C204.002 285.836 178.982 295 149.826 295c-28.035 0-50.883-9.373-68.544-28.12C63.761 247.993 55 222.392 55 190.075zm57.19 59.178c11.832 20.473 29.015 30.638 51.302 30.638 16.96 0 30.585-6.47 41-19.306 10.471-12.906 15.77-32.388 15.77-58.549 0-21.125-3.108-39.372-9.252-54.77-6.192-15.52-14.33-26.744-24.39-33.786-10.125-7.088-21.375-10.703-33.85-10.703-11.074 0-21.116 2.767-30.067 8.394-8.851 5.565-15.337 13.086-19.554 22.454-5.734 12.737-8.62 26.581-8.62 41.55-.001 28.82 5.803 53.56 17.661 74.078zM130.272 71.51h-14.298l62.236-59.388c5.187-5.037 8.901-8.114 11.144-9.233 2.243-1.26 4.766-1.89 7.57-1.89 4.065 0 7.358 1.26 9.881 3.778 2.663 2.379 3.995 5.387 3.995 9.024 0 3.357-1.402 6.645-4.205 9.863-2.663 3.077-9.251 7.764-19.764 14.06z" fill="#7cc3d8"/><path d="M69.636 141.293l3.085 10.258c-14.628-.546-21.773 7.637-24.417 21.071 34.731-10.368 26.547 27.065 12.31 25.473-.67 8.47 2.3 17.801-5.469 25.41-4.89 4.79-11.85 3.97-18.88-2.88-6.34 7.52-13.584-2.125-20.537-6.221-4.04-5.77-11.178-11.117-7.162-20.783C21.676 162.066 33 167.384 44.01 162.705c-5.602-16.209 14.482-15.7 25.626-21.412z" fill="#e1f300"/><path d="M176.875 320.5c-.256-10.596-.838-21.225 2.125-31.5 2.792-2.436 4.583-1.966 8.563-.75-5.52 8.79-4.947 22.778-4.688 26.25 9.278-.264 28.22 17.985 18.875 21.375-18.25 6.62-54.22 7.862-84.5 6.25-1.766-.094-3.444-3.492-3.25-5.25 1.466-13.304 8.1-22.395 28.375-25.75 11.39-1.884 24.508 2.804 34.5 9.375z" fill="#e1f300" stroke="#0e1617" stroke-width="2" stroke-linejoin="round"/><ellipse cx="198.522" cy="109.242" rx="21.507" ry="31.007" transform="rotate(9.93)" fill="#fff" stroke="#0e1616" stroke-width="2"/><circle cx="176.785" cy="136.526" r="6" fill="#0d1516"/><circle cx="179.324" cy="134.704" r="2" fill="#fff"/><ellipse cx="160.729" cy="84.708" rx="20.458" ry="27.846" transform="matrix(.95919 .28277 -.32136 .94696 0 0)" fill="#fff" stroke="#0e1616" stroke-width="2"/><circle cx="132.781" cy="125.371" fill="#0d1516" r="5.5"/><circle cx="134.908" cy="124.178" fill="#fff" r="1.9"/><path d="M130.508 96.697c-1.672.19-3.338.458-5.008.676 9.889 14.247 14.684 22.725 22.191 37.729.97-3.82 2.237-7.591 2.59-11.537.514-5.116-.025-10.413-2.073-15.16-1.329-3.092-3.344-5.915-5.99-8.014a17.195 17.195 0 00-7.429-3.407c-1.411-.27-2.847-.331-4.281-.287zM169.806 111.801c-4.267 2.43-7.686 6.141-10.296 10.263-2.15 3.353-3.606 7.079-4.917 10.823l-1.163 3.18c2.648-2.096 5.295-4.192 7.884-6.36 5.713-4.539 12.791-7.6 20.158-7.7 4.878-.117 9.696 1.094 14.157 3.007l4.035 1.593c-1.337-2.492-2.53-5.068-3.964-7.505-1.775-2.951-4.181-5.549-7.11-7.381-2.737-1.692-5.938-2.698-9.329-2.641-3.429.058-6.64 1.078-9.455 2.721z" fill="#e1f300" stroke="#0d1516" stroke-width="2" stroke-linejoin="round"/><path d="M186.176 233.985c1.426 7.483 3.151 14.517 7.364 17.82m-74.009-37.972c4.957-5.57 9.145-9.332 14.809-8.61 3.765.48 4.368 7.29 8.095 8.01 6.327 1.22 11.402-8.174 17.812-7.514 5.294.546 7.988 7.733 13.138 9.073 4.488 1.167 9.748-3.488 13.85-1.324 7.077 3.733 5.598 13.254 11.608 21.013" fill="none" stroke="#0e1616" stroke-width="2" stroke-linecap="round" stroke-linejoin="round"/><path d="M247.663 163.478c12.684 8.048 26.042 13.548 26.042 19.266 0 9.268-7.844 12.838-11.708 21.936-3.603 8.485 10.992-.56 16.088 17.622 3.617 12.904-7.592 38.43-12.815 42.185-4.242 3.05-14.003 5.703-11.62-8.152-1.959 4.765-22.607 9.727-15.284-7.603-5.288 3.169-13.592 11.465-20.619 1.394-4.904-7.03 8.144-24.522 15.398-28.269-26.863-19.898 4.314-31.87 13.349-16.88 0 0 12.545-11.636 10.988-17.574-1.606-6.122-12.18-11.868-16.849-16.536" fill="#e1f300" stroke="#0d1516" stroke-width="2" stroke-linecap="round" stroke-linejoin="round"/><path d="M53.898 195.603c-5.052 3.768-4.743 8.697-5.48 14.054m12.197-11.562c-2.5-.13-4.565-1.17-5.973-2.352-3.334-2.798-3.766-5.087-4.103-7.564m22.182-36.628c-14.628-.546-21.773 7.637-24.417 21.071 34.731-10.368 26.547 27.065 12.31 25.473-.67 8.47 2.3 17.801-5.469 25.41-4.89 4.79-11.85 3.97-18.88-2.88-6.34 7.52-13.584-2.125-20.537-6.221-4.04-5.77-11.178-11.117-7.162-20.783C21.676 162.066 33 167.384 44.01 162.705c-5.602-16.209 14.482-15.7 25.626-21.412m-33.37 79.332c-7.673-5.784-8.607-12.962-2.609-21.574m-17.929 15.353c-.065-10.34 4.202-17.516 10.24-23.397" fill="none" stroke="#000" stroke-width="2" stroke-linecap="round" stroke-linejoin="round"/></svg>