<svg width="306" height="350" xmlns="http://www.w3.org/2000/svg"><ellipse cx="129.791" cy="334.769" rx="90" ry="15" fill-opacity=".2"/><path d="M109.998 315.904c-.256-10.597 4.289-21.226 15.472-27.17 2.791-2.435 6.704-1.965 9.18 1.195-10.084 5.975-13.136 20.207-11.67 25.985 7.6 2.918 12.221 11.985 2.876 15.375-18.25 6.62-35.57 6.448-65.849 4.836-1.765-.094-3.646-2.02-2.19-4.985 5.431-11.05 12.28-17.86 29.879-20.899 7.881-1.36 15.226-2.058 22.302 5.663z" fill="#e1f300" stroke="#0e1617" stroke-width="2" stroke-linejoin="round"/><path d="M149.719 100.785c-21.904-.121-43.537 13.539-51.367 34.26-10.722 25.204-9.068 53.722-3.528 79.967 5.27 21.208 14.274 43.344 32.522 56.606 17.334 12.132 41.667 13.77 60.441 4.004 18.773-10.015 28.454-30.903 30.985-51.237 3.428-28.342 1.402-58.219-10.733-84.396-7.568-17.24-22.005-31.955-40.5-36.94-5.78-1.653-11.815-2.352-17.82-2.264z" fill="#f6ff80"/><path d="M53 190.075q0-28.96 13.456-52.253 13.457-23.503 37.636-36.724 24.39-13.22 55.298-13.22 44.784 0 71.697 26.441Q258 140.76 258 184.829q0 52.043-35.113 82.68Q191.56 295 147.826 295q-42.052 0-68.544-28.12Q53 238.55 53 190.075zm39.528-14.9q0 43.23 17.662 74.078 17.872 30.638 51.302 30.638 25.441 0 41-19.306 15.77-19.307 15.77-58.549 0-31.687-9.252-54.77-9.251-23.294-24.39-33.786-15.138-10.703-33.85-10.703-16.611 0-30.067 8.394-13.247 8.394-19.554 22.454-8.62 19.097-8.62 41.55zM128.272 71.51h-14.298l62.236-59.388q7.78-7.555 11.144-9.233 3.364-1.89 7.57-1.89 6.097 0 9.881 3.778 3.995 3.568 3.995 9.024 0 5.036-4.205 9.863-3.995 4.616-19.764 14.06z" fill="#7cc3d8"/><path d="M48.433 128.968c-3.096 11.48-6.593 25.526-4.856 43.45.797 8.219 11.792 14.335 21.678 14.75-2.133 5.452-2.947 10.903-1.783 16.355-5.593 5.395-9.851-.556-14.59-2.422-1.103 9.561-.247 20.971-13.084 20.414-4.8-.208-9.731.085-14.368-1.178-7.397-2.014-9.483-10.1-3.577-16.368-7.806-3.295-7.731-8.712-3.304-15.3-11.285-5.837 3.32-37.567 16.74-18.928-1.928-13.391-1.504-29.836.612-37.93 4.968-19.006 20.404-17.198 16.532-2.843z" fill="#e1f300"/><path d="M139.77 228.618c3.446 7.246 13.395 17.26 22.896 14.017" fill="none" stroke="#0e1616" stroke-width="2" stroke-linecap="round"/><path d="M174.875 320.5c-.256-10.596-.838-21.225 2.125-31.5 2.792-2.436 4.583-1.966 8.563-.75-5.52 8.79-4.947 22.778-4.688 26.25 9.278-.264 28.22 17.985 18.875 21.375-18.25 6.62-54.22 7.862-84.5 6.25-1.766-.094-3.444-3.492-3.25-5.25 1.466-13.304 8.1-22.395 28.375-25.75 11.39-1.884 24.508 2.804 34.5 9.375z" fill="#e1f300" stroke="#0e1617" stroke-width="2" stroke-linejoin="round"/><ellipse cx="198.522" cy="109.242" rx="21.507" ry="31.007" transform="rotate(9.93)" fill="#fff" stroke="#0e1616" stroke-width="2"/><circle cx="180.882" cy="137.223" r="6" fill="#0d1516"/><circle cx="183.421" cy="135.401" r="2" fill="#fff"/><ellipse cx="160.729" cy="84.708" rx="20.458" ry="27.846" transform="matrix(.95919 .28277 -.32136 .94696 0 0)" fill="#fff" stroke="#0e1616" stroke-width="2"/><circle cx="136.756" cy="124.411" fill="#0d1516" r="5.5"/><circle cx="138.883" cy="123.218" fill="#fff" r="1.9"/><path d="M242.989 194.133s34.588-12.244 38.34 28.967c16.073 9.745 19.412 27.587 19.952 29.542 1.977 7.158 4.233 28.544-12.559 24.217-3.45 2.51-14.008 3.986-17.872-2.146-14.69 4.452-22.007-10.923-11.549-12.511 24.442-3.711 19.39-20.511 8.71-27.057-28.046 52.627-32.328-22.56 6.288-5.013-.295-18.763-18.416-26.02-22.6-19.636z" fill="#e1f300"/><path d="M212.666 190.76c-6.668-8.752-13.005-16.775-18.02-21.892 12.47 9.658-20.816 62.092-76.521 41.257m-54.653-6.602c-5.593 5.395-9.851-.556-14.59-2.422-1.103 9.561-.247 20.971-13.084 20.414-4.8-.208-9.731.085-14.368-1.178-7.397-2.014-9.483-10.1-3.577-16.368-7.806-3.295-7.731-8.712-3.304-15.3-11.285-5.837 3.32-37.567 16.74-18.928-1.928-13.391-1.504-29.836.612-37.93 4.968-19.006 20.404-17.198 16.532-2.843-3.096 11.48-6.593 25.526-4.856 43.45.797 8.219 11.792 14.335 21.678 14.75m-50.706 1.5c28.29 20.427 34.754-10.832 16.047-12.19-2.365-2.511-4.84-4.072-6.378-.762m-6.953 28.914c11.626 4.998 25.882 3.04 21.45-11.236m-2.961 28.12c3.81-2.378 8.514-9.87 1.016-16.276m206.219-11.105s34.588-12.244 38.34 28.967c16.073 9.745 19.412 27.587 19.952 29.542 1.977 7.158 4.233 28.544-12.559 24.217-3.45 2.51-14.008 3.986-17.872-2.146-14.69 4.452-22.007-10.923-11.549-12.511 24.442-3.711 19.39-20.511 8.71-27.057-28.046 52.627-32.328-22.56 6.288-5.013-.295-18.763-18.416-26.02-22.6-19.636m37.023 66.363c7.447-4.05 5.403-16.09 4.197-27.427m-22.069 25.28c15.209-2.985 14.062-19.745 13.23-26.164" fill="none" stroke="#0d1516" stroke-width="2" stroke-linejoin="round" stroke-linecap="round"/></svg>