<svg xmlns="http://www.w3.org/2000/svg" width="250" height="250"><defs><filter id="a" x="0" width="1" height="1.5" color-interpolation-filters="sRGB"><feFlood flood-opacity=".8"/><feComposite in2="SourceGraphic" operator="in"/><feOffset dx="2" dy="2" result="result1"/><feComposite in="SourceGraphic" in2="result1"/></filter></defs><path d="M162.745 94.476h21.144l-13.997 51.965q-12.358 45.265-12.358 51.519 0 2.829 1.34 4.318 1.34 1.488 2.978 1.488 2.531 0 5.956-2.233 4.913-3.425 18.612-17.272l4.914 5.51q-29.929 31.119-44.074 31.119-4.765 0-8.19-3.723-3.275-3.573-3.275-10.274 0-7.742 3.276-20.696-13.252 15.187-32.758 26.652-12.954 7.594-22.483 7.594-5.211 0-8.19-3.425-2.977-3.424-2.977-10.87 0-5.806 1.34-12.507 1.935-9.38 9.827-37.67 9.976-35.885 9.976-43.032 0-4.169-2.978-4.169-2.68 0-7.296 2.83-4.616 2.68-15.783 13.251l-6.551-5.211q19.952-17.868 30.375-23.377 10.571-5.658 16.974-5.658 3.573 0 5.807 2.68 2.233 2.531 2.233 8.04 0 10.274-10.72 50.476-9.53 36.182-9.53 41.245 0 3.127 1.936 5.36 2.085 2.234 4.467 2.234 8.338 0 23.675-13.699 15.336-13.847 20.1-31.417zm-2.084-65.366h28.29l-50.476 43.18h-8.785z" fill="#a7667e" filter="url(#a)"/></svg>