<svg xmlns="http://www.w3.org/2000/svg" height="40" width="40"><path d="M19.023 18.14h3.522V5.72h-3.522z" fill="#7a8386"/><path d="M19.023 18.14h1.618V5.72h-1.618z" fill="#4b5254"/><path d="M20.727 8.088l-.086-.001v-.38l.1.002a2.34 2.34 0 001.804-.848v.491c-.452.48-1.137.736-1.818.736" fill="#575d60"/><path d="M20.64 8.087c-.608-.02-1.204-.246-1.617-.702v-.427c.407.44.98.722 1.618.748v.38" fill="#35393b"/><path d="M20.64 14.647h1.905v-.388h-1.904z" fill="#575d60"/><path d="M19.023 14.647h1.618v-.388h-1.618z" fill="#35393b"/><path d="M21.63 5.29c0 1.153.653 1.218 2.444 1.478l6.362.61c1.368 0 2.477-.935 2.477-2.088 0-1.154-1.11-2.088-2.477-2.088l-6.295.783c-1.548.232-2.511.151-2.511 1.305m6.824-1.842l.4-.05-.4.05" fill="#afb0ae"/><path d="M29.366 7.275l-.59-.057c-.864-.998-1.039-2.648-.322-3.77l.4-.05a3.028 3.028 0 00-.476 1.635c0 .888.381 1.687.988 2.242m-6.209-.646a7.886 7.886 0 01-.395-.076c.207-.35.326-.76.326-1.197 0-.43-.116-.834-.317-1.18.104-.02.213-.036.328-.052.345.8.416 1.713.058 2.505" fill="#7a7c7c"/><path d="M28.378 5.033A3.028 3.028 0 0031.4 8.065a3.028 3.028 0 003.024-3.032A3.028 3.028 0 0031.4 2a3.028 3.028 0 00-3.023 3.033" fill="#afb0ae"/><path d="M33.235 6.996c.4-.47.641-1.08.641-1.745a2.691 2.691 0 00-2.687-2.696c-.712 0-1.358.28-1.84.734a2.677 2.677 0 012.046-.95 2.691 2.691 0 012.688 2.696 2.69 2.69 0 01-.848 1.961" fill="#cfcfcd"/><path d="M19.921 5.29c0 1.153-.653 1.218-2.444 1.478l-6.362.61c-1.368 0-2.477-.935-2.477-2.088 0-1.154 1.11-2.088 2.477-2.088l6.295.783c1.548.232 2.511.151 2.511 1.305m-6.824-1.842l-.4-.05.4.05" fill="#afb0ae"/><path d="M12.185 7.275a3.028 3.028 0 00.988-2.242c0-.602-.175-1.163-.476-1.635l.4.05c.717 1.122.543 2.772-.323 3.77l-.59.057m6.21-.646c-.358-.792-.287-1.704.058-2.505.092.013.18.026.265.04a2.36 2.36 0 00.012 2.402 8.723 8.723 0 01-.335.063" fill="#7a7c7c"/><path d="M13.173 5.033a3.028 3.028 0 01-3.023 3.032 3.028 3.028 0 01-3.024-3.032A3.028 3.028 0 0110.15 2a3.028 3.028 0 013.023 3.033m5.222.323a2.35 2.35 0 002.347 2.353 2.35 2.35 0 002.346-2.353 2.35 2.35 0 00-2.346-2.353 2.35 2.35 0 00-2.347 2.353" fill="#afb0ae"/><path d="M22.204 6.931c.314-.37.503-.847.503-1.37A2.112 2.112 0 0020.6 3.448c-.56 0-1.067.22-1.444.576a2.1 2.1 0 011.605-.746 2.112 2.112 0 011.444 3.654m-10.162.064c.4-.47.642-1.08.642-1.745a2.691 2.691 0 00-2.687-2.696 2.67 2.67 0 00-1.84.734 2.676 2.676 0 012.045-.95 2.692 2.692 0 012.688 2.696c0 .774-.327 1.47-.848 1.961" fill="#cfcfcd"/><path d="M15.204 18.14c0 1.93 1.632 3.494 3.644 3.494h4.018c2.013 0 3.644-1.564 3.644-3.494 0-1.93-1.631-3.493-3.644-3.493h-4.018c-2.012 0-3.644 1.564-3.644 3.493" fill="#969296"/><path d="M9.49 32.016v4.528H.962v-4.528c0-5.173 1.978-8.17 3.637-9.773 3.215-3.104 7.306-3.148 8.4-3.1h25.712v8.927H12.887l-.342-.014c-.005-.005-1.385-.003-2.163.749-.738.712-.893 2.14-.893 3.211" fill="#afb0ae"/><path d="M9.49 32.016v4.528H.962v-4.528c0-5.173 1.978-8.17 3.637-9.773 3.215-3.104 7.306-3.148 8.4-3.1h25.712v8.927H12.887l-.342-.014c-.005-.005-1.385-.003-2.163.749-.738.712-.893 2.14-.893 3.211" fill="#afb0ae"/><path d="M9.49 35.64H7.431l.08-5.305c.024-2.573 2.077-3.808 4.572-4.358v2.113c-.473.062-1.209.238-1.702.715-.738.712-.893 2.14-.893 3.211v3.623m27.864-7.569H29.43v-2.264l7.923-.121v2.385m-24.808-.014" fill="#919190"/><path d="M7.419 36.544H.963v-.905h6.47l-.014.905" fill="#919190"/><path d="M9.49 36.544H7.418l.013-.905H9.49v.905" fill="#757777"/><path d="M37.353 25.685v-6.542h1.36v6.521l-1.36.02" fill="#919190"/><path d="M38.712 28.07h-1.359v-2.385l1.36-.021v2.406" fill="#757777"/><path d="M12.084 25.977v-6.832a11.522 11.522 0 01.915-.002h.173a6.313 6.313 0 00-.686 2.879v3.873c-.135.026-.27.053-.402.082" fill="#878989"/><path d="M12.084 28.09v-2.113c.133-.03.267-.056.402-.082v.202c0 .69.109 1.352.31 1.97l-.251-.011-.024-.001a3.6 3.6 0 00-.437.035" fill="#6e7071"/><path d="M29.074 25.811v-3.79c0-1.04-.248-2.02-.686-2.878h1.042v6.663l-.356.006" fill="#878989"/><path d="M29.43 28.07h-.666c.201-.619.31-1.283.31-1.973v-.286l.356-.005v2.264" fill="#6e7071"/><path d="M18.324 15.908h4.912c3.225 0 5.838 2.738 5.838 6.114v4.075c0 3.376-2.613 6.113-5.838 6.113h-4.912c-3.224 0-5.838-2.737-5.838-6.113v-4.075c0-3.376 2.614-6.114 5.838-6.114" fill="#b3b3b2"/><path d="M27.933 28.008c.18-.55.282-1.136.282-1.749v-3.623c0-3-2.427-5.328-5.288-5.66-.834-.097-5.231-.356-3.759-.356h4.275c2.806 0 5.081 2.39 5.081 5.337v3.558c0 .901-.215 1.749-.59 2.493" fill="#d1d1cf"/><path d="M22.947 31.841H18.37c-3.004 0-5.44-2.4-5.44-5.36V22.91c0-.097.004-.14.01-.14.056 0 .32 3.03.32 3.03 0 3.014 2.499 5.458 5.581 5.458h4.695c1.28 0 2.456-.426 3.398-1.135a5.46 5.46 0 01-3.986 1.72" fill="#949293"/><path d="M38.635 28.733c.478 0 .865-.405.865-.905v-8.345c0-.5-.387-.906-.865-.906-.477 0-.865.405-.865.906v8.345c0 .5.388.905.865.905" fill="#7a8386"/><path d="M.5 37.094c0 .5.387.906.865.906h7.97c.477 0 .865-.405.865-.906 0-.5-.388-.905-.865-.905h-7.97c-.478 0-.865.405-.865.905" fill="#afb0ae"/></svg>