<svg width="404" height="275" version="1.2" xmlns:xlink="http://www.w3.org/1999/xlink" xmlns="http://www.w3.org/2000/svg"><defs><clipPath id="d"><path d="M.508.348h128.394v154.078H.508zm0 0"/></clipPath><clipPath id="c"><path d="M0 0h129v155H0z"/></clipPath><clipPath id="f"><path d="M0 .348h100.797v154.078H0zm0 0"/></clipPath><clipPath id="e"><path d="M0 0h101v155H0z"/></clipPath><filter id="a" filterUnits="objectBoundingBox" x="0" y="0" width="1" height="1"><feColorMatrix in="SourceGraphic" values="0 0 0 0 1 0 0 0 0 1 0 0 0 0 1 0 0 0 1 0"/></filter><filter id="b" filterUnits="objectBoundingBox" x="0" y="0" width="1" height="1"><feColorMatrix in="SourceGraphic" values="0 0 0 0 1 0 0 0 0 1 0 0 0 0 1 0 0 0 1 0"/></filter><mask id="h"><g filter="url(#a)"><path fill-opacity=".05" d="M0 0h500v500H0z"/></g></mask><mask id="j"><g filter="url(#b)"><path fill-opacity=".05" d="M0 0h500v500H0z"/></g></mask><g clip-path="url(#d)" id="g"><path d="M80.887 154.426H.507L48.524.348h80.38zm0 0" fill="#fff"/></g><g clip-path="url(#f)" id="i"><path d="M52.781 154.426H0L48.016.348h52.78zm0 0" fill="#fff"/></g></defs><path d="M217.833 258.12h-32.646v-36.323h32.646zm0 0" fill="#352128"/><path d="M338.698 257.188H64.328v6.973h274.37zm54.322-26.958H10V10h383.02zm0 0" fill="#4a2e38"/><path d="M385.63 222.833H17.39V17.396h368.24zm0 0" fill="#96d2fa"/><path d="M194.98 142.01l-25.043 30.63-21.114-2.452s0 34.729 18.094 34.406c10.927-.193 36.224-60.058 36.224-60.058zm0 0" fill="#ff8c68"/><path d="M203.896 134.48c-.573.176-3.453.739-3.526.754 0 0 3.448-4.968 1.61-5.552-.813-.26-6.444 6.88-7.24 8.115-.495.77.24 4.219.24 4.219l8.16 2.52s8.261-3.796 8.844-4.307c.782-.687 5.24-6.344 4.683-6.86-.552-.515-4.464 2.433-4.464 2.433s5.547-5.406 4.307-6.708c-.448-.464-5.343 2.823-5.343 2.823s5.406-4.506 4.276-5.651c-.64-.646-6.453 5.083-6.453 5.083s4.026-4.73 3.156-5.26c-.875-.532-6.818 7.947-8.25 8.39M67.365 160.64s-3.266 34.016-1.542 42.423c1.156 5.64 10.11 5.26 10.11 5.26l10.614-48.125zm0 0" fill="#ff8c68"/><path d="M110.25 105.427l-25.755 8.563-4.375 108.843h74.203l-3-108.843-25.63-8.563zm0 0" fill="#b0d9c7"/><path d="M108.005 148.026h17.76v22.344l-16.176.344zm0 0" fill="#fff0a6"/><path d="M117.396 150.12l-.51-5.271 2.91-.307-.093 5.578zm0 0" fill="#333d51"/><path d="M126.568 103.86l.967 4.29s4.908 3.099 4.694 9.932c-.182 5.665-10.277 21.065-13.76 26.223-1.291-1.833-14.094-20.167-14.094-26.664 0-9.365 4.744-10.551 4.744-10.551l.828-2.97c-7.49 1.52-7.187 9.245-7.135 14.745.047 5.5 14.403 27.285 14.403 27.285h2.213s14.358-21.785 14.404-27.285c.052-5.5-1.81-12.88-7.264-15.006z" fill="#333d51"/><path d="M98.255 84.73c2.203 5.296 12.766 6.29 20.276 6.353 15.99.13 19.26 0 21.906-15.39.532-3.089.985-12.667 1.037-15.808.047-2.963-9.625-11.864-15.438-13.416a39.603 39.603 0 00-12.38-1.287c-2.567.14-5.156.542-7.5 1.693-3.854 1.89-6.672 5.604-9.317 9.214-2.344 3.187-1.323 8.171-1.178 12.026.193 4.958 2.089 15.395 2.594 16.614" fill="#471700"/><path d="M101.62 72.12s-7.537-2.719-8.401 1.234c-.87 3.959 2.224 7.912 8.4 7.042zm0 0" fill="#eb7f61"/><path d="M99.276 73.589s-3.932-1.73-4.531.333c-.6 2.068 1.88 3.312 1.88 3.312s1.516-1.046 1.781-.578c.271.464.068 1.865.068 1.865s1.734 1.5 2.266-.318c.53-1.818.312-4.057-1.464-4.614" fill="#de7a5c"/><path d="M133.36 72.12s7.536-2.719 8.4 1.234c.865 3.959-2.224 7.912-8.4 7.042zm0 0" fill="#eb7f61"/><path d="M135.703 73.589s3.927-1.73 4.526.333c.604 2.068-1.88 3.312-1.88 3.312s-1.516-1.046-1.781-.578c-.266.464-.063 1.865-.063 1.865s-1.734 1.5-2.265-.318c-.537-1.818-.318-4.057 1.463-4.614" fill="#de7a5c"/><path d="M110.453 92.75l-.64 16.599s7.541 8.693 8.213 8.536c1.734-.395 5.844-4.864 8.214-8.536l-.49-16.599zm0 0" fill="#eb7f61"/><path d="M104.297 92.76c-5.469-14.244-5.49-31.557-4-34.395 4.338-8.282 26.234-11.365 33.307-.901 3.578 5.296 1.88 29.057-2.536 37.192-8.344 10.287-23.49 6.651-26.771-1.896z" fill="#ff8c68"/><path d="M113.401 67.02c-.255-.577-1.406-1.025-2.464-.89-1.213.156-2.432.313-3.64.464-1.057.135-1.755.703-1.485 1.317.26.579 1.407 1.026 2.47.891 1.213-.156 2.426-.307 3.64-.463 1.057-.136 1.75-.704 1.479-1.318" fill="#471700"/><path d="M113.266 72.99c.005 1.067-.464 1.932-1.047 1.937-.578 0-1.052-.864-1.058-1.927 0-1.068.47-1.932 1.047-1.938.584 0 1.058.865 1.058 1.928" fill="#0c0000"/><path d="M123.422 67.02c.255-.577 1.406-1.025 2.463-.89 1.214.156 2.427.313 3.641.464 1.057.135 1.755.703 1.484 1.317-.26.579-1.406 1.026-2.468.891-1.214-.156-2.427-.307-3.641-.463-1.057-.136-1.75-.704-1.48-1.318" fill="#471700"/><path d="M123.552 72.99c0 1.067.469 1.932 1.052 1.937.578 0 1.052-.864 1.057-1.927 0-1.068-.468-1.932-1.046-1.938-.584 0-1.058.865-1.063 1.928" fill="#0c0000"/><path d="M102.031 78.313c-.073-1.443 7.255-1.62 7.313 0 .062 1.614-7.193 2.24-7.313 0m31.989 0c.079-1.443-7.254-1.62-7.312 0-.057 1.614 7.198 2.24 7.313 0" fill="#f07857"/><path d="M141.896 55.12c-.209 7.094-1.214 13.969-6.094 13.958-7-.016-4.745-10.463-7.776-11.516-6.682-2.322-12.089 12.782-28.568 7.089-7.265-3.203-8.828-12.417-7.422-13.354 1.308-.87 5.136-.656 6.933-.125-2.542-1.531-3.49-5.63-3.224-8.995a9.852 9.852 0 01.213-1.531c.016-.13.052-.255.078-.386 1.297.641 2.589 1.266 3.88 1.896-.822-1.317-.687-3.448-.255-5.078.053-.203.11-.4.167-.583.235.078.453.15.682.224a68.09 68.09 0 0022.641 3.552c3.234-.042 6.656-.281 9.49 1.312 2.12 1.193 3.583 3.88 3.26 6.172a3.802 3.802 0 01-.963 2.13c.593-.291 1.312-.427 2.057-.427 1.906.01 3.969.948 4.562 2.568.365.984.365 2.047.339 3.094" fill="#471700"/><path d="M109.812 109.344l.375-9.693s-7.343 2.766-9.062 4.583c-1.797 1.896.99 17.573.99 17.573l7.697-5.817 8.214 1.895zm16.438 0l-.297-9.693s7.26 2.766 8.984 4.583c1.792 1.896-.994 17.573-.994 17.573l-7.693-5.817-8.214 1.895zm0 0" fill="#fff"/><path d="M84.495 113.99s-10 3.604-13.745 7.041c-3.75 3.433-5.938 51.438-5.938 51.438l22.178-2.281zm66.828 0s9.995 3.604 13.745 7.041c3.75 3.433 4.87 51.604 4.87 51.604l-21.115-2.447zm0 0" fill="#b0d9c7"/><path d="M119.031 81.026s-3.77-.969-4.146.672c-.578 2.505 4.532 3.276 4.532 3.276m-37.542 85.74l1.589-39.76m69.104 39.76l-1.537-39.76m-37.765-39.397s5.958 1.766 8.463-.161" fill="none" stroke="#0c0000" stroke-width=".667"/><path d="M118.937 95.839c.032-.547-3.083-.214-2.87.255.22.463 2.829.39 2.87-.255" fill="#eb7f61"/><path d="M112.797 159.302s2.776-1.385 3.906-1.635c1.136-.245 5.505.786 5.505.786s-.53 3.276-9.411.85" fill="#ff8c68"/><path d="M115.77 157.495s1.454 28.344 3.261 28.344c1.808 0 3.219-28.172 3.219-28.172zm0 0" fill="#2b2e35"/><path d="M109.02 150.885h10.011v7.146h-9.62zm0 0" fill="#fdfdfd"/><path d="M129.042 150.885h-10.01v7.146h9.614zm0 0" fill="#d4d4d4"/><path d="M123.156 160.401s-7.067-1.167-8.953-1.495c-1.885-.333-7.073 5.313-7.073 5.313l4.656 6.088s8.188-.604 10.313-.604c2.12 0 .469-3.323.469-3.323s2.24-1.177 1.65-2.083a3.404 3.404 0 00-1.41-1.24s1.89-2.406.348-2.656" fill="#ff8c68"/><path d="M119.031 141.318c-3.161 0-5.005 2.942-5.005 4.307 0 3.755 1.745 5.26 1.745 5.26h6.52s1.745-1.724 1.745-5.26c0-1.365-1.843-4.307-5.005-4.307" fill="#2b2e35"/><path d="M107.13 164.219l4.656 6.088s-23.52 38.922-36.546 38.01c-12.401-.87-8.079-13.046-4.318-16.515 3.76-3.474 36.208-27.583 36.208-27.583" fill="#ff8c68"/><path d="M81.276 183.64l-6.708 5.178m95.369-16.178l-5.328 4.126" fill="none" stroke="#0c0000" stroke-width=".667"/><use xlink:href="#g" transform="translate(73.51 16.932) scale(1.33333)" mask="url(#h)"/><path d="M148.417 154.458s-.167 12.76-.615 14.14c-.443 1.381-5.64 5.006-7.437 4.688-1.803-.317-6.579-4.01-6.875-5-.297-.99-.6-13.828-.6-13.828z" fill="#9cccb5"/><path d="M132.974 157.63h15.38m-66.479 7.735l-16.792 1.875m86.714-4.042l17.948 3.104" fill="none" stroke="#0c0000" stroke-width=".667"/><use xlink:href="#i" transform="translate(208.177 16.932) scale(1.33333)" mask="url(#j)"/></svg>