<svg height="940" width="1376" xmlns="http://www.w3.org/2000/svg"><path fill="#f7d76d" d="M.13 0H1376v668.001H.131z"/><path d="M279.478 672.378c28.336-13.79 54.942-32.075 84.864-41.819 27.973 14.038 49.8-4.04 74.128-18.012 29.43 21.402 61.373 45.645 100.318 47.862 101.604 14.678 204.485 3.878 306.537 1.344 61.204-2.177 127.313-5.978 177.887-45.765 22.53-9.995 40.405-8.318 60.52-24.925 35.113-15.97 53.97 26.091 83.716 35.007 39.156 17.51 45.903 76.928 12.744 104.174-49.232 42.87-117.61 48.91-179.657 50.673-141.488 1.078-281.095-33.788-422.825-26.294-83.984 1.405-174.37 3.41-249.532-40.566z" fill="#d8bc55"/><path d="M61.364 66.756C39.854 79.959 19.696 59.834.132 52.924v116.768l662.682-.001c-3.25-13.518-11.925-25.42-23.258-32.995-27.668-19.813-59.3 1.621-88.753 2.251-49.728-1.378-72.852-59.119-119.425-68.912-34.655-5.962-57.93 26.04-84.856 41.985-20.57 14.637-45.62 7.335-68.005 2.888-22.035-6.488-38.848 17.307-60.646 11.264-44.409-10.022-50.596-73-99.996-84.671-24.618-5.816-41.101 15.563-56.51 25.255zm1064.158 345.508c-18.024-5.305-34.31 7.88-46.874 19.465-14.214 7.91-25.768 20.518-34.811 34.174-6.664 8.09-11.055 27.368 4.316 27.455 109.269.2 218.54.03 327.812.086V449.68c-1.072-5.839-12.144 8.148-18.185 7.807-19.958 8.124-41.62-10.506-60.745 2.059-15.59 10.29-35.074.122-45.255-13.332-12.901-16.02-23.169-39.651-46.937-42.511-16.125-1.94-26.335 13.592-38.924 19.395-14.633 6.833-27.258-6.594-40.397-10.834z" fill="#f5efa8"/><path d="M103.058 481.012c-28.487-.513-48.813 23.924-50.052 48.147 6.328 19.967-17.877 8.553-28.802 16.79-9.29 3.272-17.405 8.796-24.072 15.773V745.59c28.045 2.86 56.601-5.511 84.762-4.898 39.155-1.66 68.753 31.462 107.053 33.62 61.06 3.614 109.106-45.392 168.365-51.265 13.313-4.663 35.944 6.37 42.52-8.848-4.063-24.512-10.439-53.389-33.006-66.967-28.62-2.199-13.965-31.721-25.827-47.642-15.209-22.138-44.187-14.355-59.475 3.078-13.08 13.812-34.533 5.126-38.242-12.64-6.445-21.904-19.952-45.444-43.43-50.608-16.872-3.434-44.219 17.032-49.213-10.48-2.109-21.51-16.897-43.753-44.777-47.485a50.61 50.61 0 00-5.804-.444zm1253.946 70.182c-21.515.298-41.376 14.401-61.11 22.428-16.483 7.13-30.995-5.435-44.34-13.414-20.553-11.114-39.052 10.965-45.29 29.125-8.129 31.075-45.674 3.687-65.977 19.297-30.276 10.802-38.64 44.693-49.24 71.848-4.236 15.357-22.165 40.66-35.435 18.326-6.42-24.341-37.937-7.268-44.299-30.81-4.795-21.65-24.082-11.29-37.813-12.42-15.862-21.195-44.987-10.226-60.658 5.304-18.929 16.82-26.349-26.812-49.633-13.479-20.165 11.549-19.627 38.234-9.624 55.588l74.516 55.84a3135.38 3135.38 0 00281.964-.869c55.348-3.432 111.06-5.295 165.935-13.539V554.991a41.83 41.83 0 00-3.815-1.553 47.36 47.36 0 00-15.18-2.244z" fill="#8ab64c"/><path d="M101.18 522.929c-.499-.074-1.13.053-1.922.427-.788 14.85 2.412 29.639 6.187 43.91-1.544 1.313-8.666-7.184-11.475-10.722-3.884-2.51-5.725-15.207-10.38-10.51 4.126 10.226 11.722 18.873 20.174 25.693 7.351 5.025 6.374 16.169 9.975 23.94 8.251 26.09 10.555 53.655 10.195 80.945-10.796-12.204-25.806-19.167-40.634-24.734-7.71-11.936-9.973-26.367-15.684-39.244-.856-3.047-6.636-14.078-7.788-6.727 8.72 13.381 10.502 29.929 17.975 43.926-17.3-6.454-36.033-13.48-47.318-29.3-4.19-2.707-4.165-15.843-9.682-12.009 4.337 16.907 18.691 28.896 33.747 35.778 8.641 4.354 18.085 7.114 26.77 11.125 9.7 3.156 19.352 7.639 28.023 13.328 6.363 5.193 16.675 10.55 14.4 20.355.992 3.94-3.285 13.075 3.327 11.397.81-29.488 1.45-59.511-5.313-88.406-2.752-9.264-3.296-19.161-1.343-28.76 3.797-16.678 5.963-33.678 7.373-50.729-4.057-5.728-4.41 6.005-4.51 8.983-1.442 16.565-4.612 32.882-7.309 49.252-5.24-17.657-10.99-35.359-12.719-53.829-1.485-3.287 1.426-13.576-2.069-14.09zm116.811 61.691c-3.87-.018-5.93 14.21-7.602 21.703-5.386 24.15-4.3 53.138-.585 73.953-6.387-5.92-14.355-9.867-19.892-16.835-6.147-7.738-10.804-16.595-13.943-25.979-6.057-2.27-1.489 6.73-.34 9.457a75.302 75.302 0 009.082 15.87c-5.485-1.969-10.58-4.913-15.537-7.946-5.549 1.866 2.257 6.048 4.74 7.123 4.844 2.595 9.942 4.784 15.23 6.209 4.31 5.198 9.818 9.024 15.398 12.625 4.595 3.1 7.906 7.306 8.006 13.13.49 2.198 1.001 4.39 1.533 6.577 2.65.243 5.036.284 2.999-3.238-1.79-7.574-3.354-15.209-4.582-22.9 7.976-8.923 14.519-19.834 16.6-31.727.776-4.441-3.813-1.36-4.342 1.882-1.536 9.403-7.12 17.617-12.977 25.026-3.282-23.124-2.755-48.331 4.163-71.46 1.3-4.345 5.507-13.453 2.05-13.47zm1010.328 9.79c-.507.05-1.151.367-1.975 1.013-1.785 21.666 11.861 40.18 15.46 60.894 1.963 8.603 3.003 16.793 4.567 25.319 3.09 5.224-2.1 19.818 6.131 18.871-1.18-10.098-2.493-20.186-4.22-30.203 3.803-15.535 2.501-31.662 3.214-47.504-.897-3.718 4.346-18.342-2.301-14.319-2.631 17.2-.474 34.719-2.786 51.946-2.969-17.484-9.777-33.848-15.165-50.592-2.682-3.134.622-15.778-2.925-15.426zm105.373.6c-.917.065-2.086 1.084-3.182 3.643-6.807 10.441-12.044 22.053-17.091 33.29-2.616 9.29-5.806 18.824-6.784 28.636.857 7.212-2.474 9.717-7.798 3.98-11.613-12.051-12.725-30.252-14.204-46.226-5.73-5.626-2.978 7.827-2.689 11.055 2.01 14.826 4.945 32.428 18.52 40.8 9.272 1.188 3.51 12.565 4.63 19.292.905 3.385-4.08 12.919 2.658 11.027a141.37 144.82 0 00.815-9.523c10.866-14.452 26.234-24.6 36.74-39.372 2.228-3.044 11.11-16.282 3.247-13.191-7.253 17.677-23.164 28.867-35.839 42.152-5.954 9.594-3.465-4.39-3.006-8.812-.31-11.527 2.555-23.223 6.087-34.22 2.601-6.008 11.878-6.07 15.9-11.92 3.73-4.919 12.383-10.125 11.13-16.392-8.174 4.774-13.568 17.612-24.248 20.733 3.847-9.661 8.663-18.897 14.063-27.734 3.869-2.876 3.069-7.358 1.05-7.217zm-152.423 33.358c-.532-.011-1.156.215-1.891.738 3.931 20.283 10.842 40.278 10.993 61.212-5.38-6.551-11.772-12.114-18.006-17.78-9.625-4.3-7.22-13.964-8.109-22.601-1.463-4.511.216-19.178-5.982-15.928 1.092 7.356 2.551 14.754 2.768 22.248 2.08 11.74-7.063-3.096-9.802-6.762-4.785-3.123-3.969-18.4-10.021-15 2.074 11.728 9.47 21.735 17.442 30.113 2.64 5.803 12.964 9.33 13.493 14.39-16.578 7.898-35.604 1.8-50.156-7.794-6.189-4.733-5.03 4.199.519 4.686 15.762 9.944 36.654 14.852 53.664 5.22a88.544 90.704 0 0112.402 13.731c1.579 4.105 4.178 6.712 8.86 5.666a77.578 79.47 0 00-3.468-5.445c.658-17.612-3.568-34.853-7.699-51.801-2.012-3.08-1.28-14.811-5.007-14.893z" fill="#6c9241"/><path d="M.13 939.621H1376V700.507H.131z" fill="#b3d576"/><path d="M157.881 691.587c-1.312 0-2.587 1.338-1.638 2.732 1.28 1.88 2.006 3.978 2.039 6.188.01.736-.056 1.47-.193 2.191-.27 1.422.903 2.356 1.977 2.356.712 0 1.38-.413 1.56-1.358.203-1.067.298-2.132.292-3.189a14.487 14.487 0 00-2.506-8.084c-.402-.589-.97-.836-1.53-.836zM47.993 694.41c-1.399 0-2.647 1.885-1.37 3.22.782.817 1.164 1.784 1.115 3.087-.046 1.224.89 2.086 1.828 2.086 1.055 0 1.795-.86 1.842-2.086.087-2.277-.777-4.269-2.193-5.746-.377-.394-.806-.56-1.222-.56zm169.552.639c-.555 0-1.108.266-1.478.902a10.443 10.443 0 00-1.39 4.557c-.058.88-.019 1.763.111 2.635.126.843 1.02 1.368 1.818 1.37.148 0 .296-.02.44-.06 1.048-.295 1.429-1.3 1.28-2.31a5.9 5.9 0 01-.012-1.635 7.161 7.161 0 01.92-2.658c.842-1.444-.43-2.801-1.689-2.801zm8.62 8.098a7.498 7.498 0 01.858-2.64 7.93 7.93 0 01.616-.942c.605-.803.117-2.104-.66-2.57a1.699 1.699 0 00-.883-.257c-.63 0-1.21.378-1.626.932a9.583 9.583 0 00-1.47 2.838 9.748 9.748 0 00-.374 1.64c-.139 1.004.216 2.142 1.499 2.34 1.003.154 1.927-.49 2.04-1.341zm422.66 6.222c-1.282.198-1.667 1.336-1.504 2.34l.914 5.604c.137.84 1.024 1.497 2.036 1.341 1.283-.196 1.668-1.335 1.504-2.34l-.915-5.605c-.137-.84-1.022-1.495-2.034-1.34zm12.169 2.819c-.916 0-1.833.604-1.833 1.814v4.67c0 1.211.917 1.816 1.836 1.815.915-.001 1.833-.603 1.833-1.813v-4.67c0-1.21-.919-1.816-1.836-1.816zm-380.46 6.36c-.91 0-1.942.864-1.836 1.878.18 1.724.363 3.448.543 5.168.106 1.01.771 1.879 1.838 1.879.909 0 1.94-.864 1.832-1.879l-.543-5.168c-.106-1.008-.768-1.879-1.834-1.879zm1042.807.185c-1.116 0-2.225.906-1.773 2.296l1.649 5.075c.294.904 1.032 1.297 1.766 1.297 1.115 0 2.225-.908 1.773-2.297l-1.651-5.075c-.295-.904-1.031-1.296-1.764-1.296zm-1031.274 1.521c-.468 0-.924.167-1.22.547-1.385 1.773-2.358 3.764-2.692 6.023-.149 1.003.223 2.145 1.5 2.342 1.006.156 1.913-.494 2.038-1.342.236-1.59.756-3.1 1.747-4.367.62-.792.756-1.883 0-2.656-.336-.344-.86-.547-1.373-.547zM72.638 721.9c-.31 0-.614.09-.884.248-.789.462-1.248 1.758-.658 2.57 1.053 1.45 1.611 3.149 1.304 4.967-.24 1.422.942 2.354 2.013 2.355.707.001 1.363-.405 1.524-1.355.47-2.775-.015-5.573-1.672-7.864-.408-.562-.998-.923-1.627-.921zm1045.574.164c-1.097 0-2.233.919-1.855 2.328l1.52 5.672c.248.93.957 1.33 1.683 1.33 1.098 0 2.232-.92 1.855-2.328l-1.52-5.674c-.248-.928-.958-1.328-1.683-1.328zm-649.533.004c-.918 0-1.832.603-1.832 1.816v4.59c0 1.209.916 1.814 1.834 1.814.917 0 1.834-.603 1.834-1.814v-4.59c0-1.21-.92-1.816-1.836-1.816zm366.633 3.611l1.737 8.424c.194.942.872 1.35 1.588 1.35 1.343 0 2.241-.928 1.948-2.348l-1.736-8.426c-.194-.941-.857-1.352-1.589-1.352-1.081 0-2.241.93-1.948 2.352zm-358.856-1.451c-.633-.001-1.23.36-1.619.926l-2.77 4.043c-.57.83-.145 2.09.66 2.57.292.174.594.254.89.254.632 0 1.23-.36 1.619-.926l2.768-4.043c.57-.831.147-2.086-.658-2.57a1.735 1.735 0 00-.89-.254zm-13.745 4.855l-1.157-3.427c-.272-.805-.983-1.501-2.02-1.348-1.172.173-1.844 1.383-1.519 2.346l1.16 3.431c.27.802.98 1.498 2.016 1.345 1.172-.173 1.846-1.382 1.52-2.347zm-377.552-4.28c-.545 0-1.072.28-1.392.962l-2.715 5.783c-.7 1.492.576 2.86 1.775 2.86.545 0 1.074-.281 1.394-.963l2.713-5.784c.7-1.493-.576-2.859-1.775-2.859zm1178.716 23.792c-.718 0-1.398.409-1.6 1.35-.635 2.966-.81 5.938-.434 8.953.148 1.185 1.147 1.787 2.067 1.787.916 0 1.752-.593 1.603-1.787-.334-2.676-.263-5.315.303-7.953.305-1.42-.857-2.35-1.939-2.35zm-5.005 9.273l-1.87-5.752c-.294-.905-1.03-1.296-1.763-1.296-1.116 0-2.23.907-1.777 2.296l1.874 5.75c.295.905 1.03 1.298 1.763 1.298 1.399 0 2.225-.907 1.773-2.296zM248.149 786.31c-1.073 0-2.244.931-1.983 2.353l2.212 12.059c.174.95.842 1.357 1.552 1.357 1.073 0 2.248-.931 1.987-2.355l-2.214-12.059c-.174-.948-.841-1.355-1.554-1.355zm-125.789 4.578c-.31 0-.614.089-.88.25-.783.472-1.252 1.752-.657 2.574 1.024 1.416 1.783 3.017 2.008 4.785.128 1.005.75 1.881 1.834 1.881.891 0 1.965-.869 1.836-1.88-.31-2.439-1.072-4.694-2.51-6.684-.403-.556-1.001-.927-1.63-.926zm12.81 2.9c-.726 0-1.44.401-1.7 1.325l-1.133 4.015c-.395 1.402.735 2.32 1.836 2.32.729 0 1.444-.399 1.703-1.32l1.13-4.017c.396-1.404-.734-2.323-1.835-2.323zm344.353 1.127c-1.098 0-2.231.918-1.855 2.328.464 1.741.644 3.544.402 5.34-.137 1.013.241 2.007 1.281 2.313.142.042.29.059.437.058.795-.002 1.707-.53 1.82-1.373.336-2.49.248-4.9-.402-7.336-.247-.926-.96-1.33-1.683-1.33zm13.2 3.993c-.65 0-1.32.304-1.587.916l-2.759 6.332c-.406.931-.261 2.015.658 2.572.279.169.6.244.925.242.649-.003 1.318-.307 1.584-.918.92-2.11 1.839-4.222 2.76-6.332.408-.931.26-2.011-.657-2.572a1.781 1.781 0 00-.925-.24zm-164.507 6.927c-1.077 0-2.243.93-1.96 2.35.577 2.905 2.573 7.012 4.482 7.99 2.485 1.273 3.205-1.587 1.987-2.955-1.536-1.723-2.482-3.754-2.933-6.031-.187-.945-.862-1.354-1.576-1.354zm596.883 2.473c-1.087 0-2.24.926-1.918 2.344l1.152 5.064c.213.937.906 1.342 1.624 1.342 1.087 0 2.237-.924 1.914-2.344l-1.151-5.062c-.213-.938-.902-1.344-1.62-1.344zm7.45.646c-1.124 0-2.232.904-1.74 2.28a18.217 18.217 0 011.072 5.703c.029 1.207.961 1.812 1.878 1.812.918 0 1.82-.602 1.792-1.812-.053-2.295-.44-4.543-1.203-6.7-.317-.894-1.062-1.283-1.8-1.283zm10.247 2.364l-2.581 7.388c-.482 1.38-.204 2.285 1.748 2.285.787 0 1.477-.387 1.79-1.283l2.584-7.392c.481-1.378-.624-2.281-1.748-2.281-.736 0-1.48.386-1.793 1.283zm-242.218-.098c-.749.767-.643 1.883 0 2.658.45.545.53 1.252.358 1.922-.362 1.41.777 2.332 1.874 2.332.723 0 1.427-.402 1.665-1.334.519-2.03.007-3.992-1.302-5.578-.31-.375-.773-.545-1.241-.545-.501 0-1.012.195-1.354.545zm101.392 19.078c-.55 0-1.087.277-1.422.947-1.465 2.92-2.196 6.063-2.092 9.352.042 1.206.981 1.813 1.899 1.813.917 0 1.812-.604 1.773-1.813-.087-2.627.412-5.111 1.588-7.455.74-1.48-.53-2.844-1.746-2.844zm-201.919.934c-1.096 0-2.23.92-1.858 2.33l1.727 6.562c.244.929.953 1.33 1.678 1.33 1.095.002 2.232-.916 1.86-2.326l-1.729-6.566c-.244-.928-.952-1.33-1.678-1.33zm14.235 1.373l-.947 4.664c-.202.992.26 2.15 1.51 2.34 1.013.156 1.858-.504 2.028-1.344l.944-4.662c.201-.993-.256-2.152-1.506-2.342-1.017-.154-1.859.507-2.029 1.344zm174.972-.326c-1.09 0-2.232.922-1.88 2.336.7 2.777 1.396 5.557 2.092 8.334.234.932.935 1.336 1.657 1.336 1.094 0 2.235-.922 1.882-2.334l-2.092-8.336c-.234-.931-.935-1.336-1.659-1.336zm286.78 7.554c-.545 0-1.075.28-1.407.953a18.443 18.443 0 00-1.893 7.721c-.028 1.21.872 1.813 1.788 1.815.919.002 1.856-.602 1.88-1.815.041-2.022.513-4.01 1.394-5.82.724-1.487-.551-2.854-1.761-2.854zm-11.887 11.594l-2.162-5.656c-.303-.792-.975-1.498-2.016-1.346-1.144.168-1.887 1.396-1.523 2.348l2.162 5.652c.303.793.97 1.5 2.015 1.347 1.142-.167 1.886-1.397 1.524-2.345zm-667.026 13.531c-1.067 0-2.251.934-2.014 2.36.542 3.253.709 6.52.572 9.818-.05 1.208.841 1.809 1.76 1.809.968 0 1.858-.603 1.908-1.809.152-3.64-.102-7.228-.701-10.818-.159-.95-.817-1.36-1.525-1.36zm-98.21 2.9c-1.218 0-2.488 1.363-1.743 2.843l4.597 9.123c.337.669.875.945 1.424.945 1.217 0 2.488-1.36 1.743-2.84l-4.597-9.125c-.337-.668-.875-.945-1.424-.945zm109.907 1.79c-.74 0-1.498.38-1.84 1.258l-2.89 7.423c-.53 1.36.563 2.256 1.698 2.256.741 0 1.499-.38 1.84-1.257l2.89-7.424c.53-1.36-.562-2.256-1.698-2.256zm286.905 8.264a1.884 1.884 0 00-1.353.544c-.755.76-.643 1.884 0 2.659.452.545.53 1.251.358 1.922-.362 1.41.78 2.332 1.874 2.332.723 0 1.426-.403 1.665-1.334.52-2.03.01-3.993-1.3-5.579-.311-.375-.775-.542-1.244-.544zm199.448 2.044c-1.085 0-2.239.928-1.926 2.348l1.117 5.068c.208.941.893 1.348 1.61 1.348 1.084 0 2.24-.925 1.927-2.346l-1.115-5.07c-.207-.94-.894-1.348-1.613-1.348zm9.903 2.274c-.73 0-1.45.399-1.722 1.314-.558 1.878-1.114 3.756-1.67 5.633-.415 1.4.707 2.315 1.813 2.315.731 0 1.451-.397 1.724-1.317l1.668-5.63c.414-1.4-.707-2.315-1.813-2.315zm-109.312 15.307c-.55 0-1.087.276-1.423.947-1.464 2.92-2.196 6.063-2.09 9.351.04 1.206.98 1.813 1.898 1.813.917 0 1.813-.603 1.773-1.813-.088-2.629.414-5.111 1.59-7.455.741-1.477-.532-2.843-1.748-2.843zm-201.919.933c-1.096 0-2.23.92-1.859 2.33l1.728 6.565c.244.927.956 1.327 1.68 1.328 1.095.002 2.23-.918 1.858-2.328l-1.729-6.563c-.245-.928-.952-1.332-1.678-1.332zm16.266.03c-1.017-.154-1.86.506-2.03 1.345l-.947 4.662c-.2.992.258 2.15 1.509 2.34 1.014.154 1.86-.503 2.03-1.342l.944-4.664c.2-.992-.259-2.153-1.506-2.342zm-102.159.351c-1.102 0-2.23.917-1.836 2.32.863 3.073 2.242 5.928 4.143 8.465.37.495.94.785 1.55.785 1.628 0 2.637-1.332 1.62-2.685-1.723-2.29-2.995-4.782-3.774-7.563-.259-.922-.976-1.322-1.703-1.322zm275.1.666c-1.092 0-2.231.924-1.878 2.336l2.088 8.334c.233.932.939 1.336 1.66 1.336 1.094 0 2.235-.924 1.88-2.336l-2.09-8.334c-.235-.933-.937-1.336-1.66-1.336z" fill="#e3f0a7"/><path d="M33.358 745.86c-11.597.072-23.12 2.878-33.226 8.442v185.32h338.836c-7.66-14.041-20.639-25.03-36.445-28.208-15.891-2.642-41.702-2.337-42.485-24.74 1.487-16.685 1.504-34.81-8.912-48.84-18.81-29.216-57.383-35.826-88.46-26.964-15.197 4.95-35.743 14.045-47.293-2.753-11.389-16.835-20.32-36.426-37.928-47.723-12.55-9.732-28.378-14.624-44.087-14.531zm1287.201 25.587c-20.636-.61-37.765 17.433-51.795 31.474-16.828 18.61-33.947-17.08-55.21-8.44-28.957 1.552-49.367 32.01-45.442 60.42-1.107 26.846-38.107 19.52-49.727 40.909-17.35 18.92-42.716 23.919-66.402 28.97-10.254 2.006-21.508 7.244-30.136 14.843H1376V812.599c-19.914-5.687-26.73-32.477-46.379-39.68a36.323 37.21 0 00-9.062-1.47z" fill="#8a9c43"/><path d="M38.88 798.724a7.518 7.518 0 00-1.64.35c-1.668 8.883-1.152 18.13.322 27.021 7.272 39.134 35.607 69.04 48.823 105.764.999 5.35 2.612 9.434 8.492 7.762-2.641-9.742-6.098-19.246-10.223-28.43 6.917-17.475 10.295-36.42 17.655-53.82.842-6.26 12.815-18.663 3.066-20.15-11.847 20.533-16.414 44.432-24.088 66.786-13.686-27.695-35.219-52.619-38.857-84.504-2.521-5.556 3.713-21.398-3.55-20.78zm1262.413 10.865c-1.014-.169-2.317.374-3.947 1.985-2.438 12.673.218 25.877 4.025 38.027 7.604 23.741 21.747 44.809 28.834 68.672 1.882 6.354 3.86 13.27 4.175 20.227.561 2.424 5.07.517 7.291 1.12-.494-7.158-2.003-14.211-4.103-21.048a522.283 535.024 0 006.83-55.873c2.354-4.83-.936-14.84-6.489-8.495-1.665 16.733-2.726 33.648-5.458 50.295-5.708-13.798-12.744-26.966-18.536-40.726 2.012-7.97 3.989-15.953 5.988-23.928 2.19-4.735 4.57-17.71-4.234-12.527-2.485 8.033-4.163 16.348-6.33 24.492-3.404-10.005-5.676-20.53-5.583-31.168 1.033-3.64.58-10.546-2.463-11.053zm-87.52 27.1c-1.3-.022-2.543.968-3.35 3.531 2.076 9.247 4.638 18.424 7.894 27.322 4.399 13.204 12.831 24.442 22.855 33.702 5.407 3.71-.977 2.568-4.224 2.554-17.318-.31-35.77-5.257-47.517-19.14-4.365-7.797-11.374 3.026-4.288 6.324 13.238 14.948 33.56 20.038 52.59 20.357 4.143-.352 8.69 1.022 12.655-.472 7.821 7.639 13.354 18.256 17.238 28.754h7.788c-2.193-6.49-4.921-12.806-8.33-18.725a312.122 319.737 0 008.187-62.318c3.038-5.821-6.185-10.639-7.233-3.569a302.346 309.721 0 01-6.61 57.389c-7.086-9.113-16.272-16.195-23.618-25.063 1.786-13.025 1.865-26.298.128-39.332 1.833-5.95-5.862-12.272-7.983-4.658 1.778 11.547 2.582 23.312 1.53 34.985-5.896-10.121-9.272-21.495-12.232-32.81.536-3.843-2.617-8.783-5.48-8.831zM172.9 870.447c-.66.093-1.486.427-2.51 1.06-8.041 19.738-13.132 40.543-20.156 60.655-2.826 5.337-3.549 9.023 3.258 7.459h.002c6.704-18.263 11.656-37.139 18.256-55.44 2.142-3.246 5.762-14.39 1.15-13.734zm49.812 40.685c-9.67 7.016-17.735 16.076-25.99 24.727-6.908 4.859-.063 3.72 4.083 3.762 4.356-4.589 8.74-9.157 13.321-13.512 2.844-4.065 18.167-11.379 8.586-14.977zm-221.9 4.086c-.996.12-.871 3.108-.682 6.3 3.152 7.28 11.445 12.345 17.144 18.103h9.611c-8.307-6.14-15.757-13.393-22.843-20.948-1.631-2.567-2.632-3.527-3.23-3.455z" fill="#6c7d39"/><ellipse cx="903.164" cy="748.88" rx="153.542" ry="11.534" fill-opacity=".2"/><ellipse cx="534.304" cy="748.88" rx="153.542" ry="11.534" fill-opacity=".2"/><path d="M902.511 190.558c-.844-3.323-55.31-22.427-58.811-20.765-3.501 1.66-.653 47.761 0 51.914.652 4.155 89.47 86.472 89.47 86.472l18.75-15.034s-48.563-99.263-49.409-102.587z" fill="#cb9422"/><path d="M860.453 173.74c3.426 4.232 6.61 8.663 9.027 13.543 1.203 2.43 5.713 12.207 4.057 15.092-.64 1.116-1.56 1.563-2.627 1.563-3.828 0-9.557-5.762-11.172-7.096A521.322 521.322 0 00842 182.818a203.887 203.887 0 00-.01 3.166 506.164 506.164 0 0113.55 10.686c2.713 2.217 10.637 11.64 16.173 11.64.814 0 1.576-.203 2.262-.664 5.137-3.448.69-14.848-1.002-18.853-2.079-4.92-4.977-9.41-8.207-13.664a354.156 354.156 0 00-4.313-1.389zm17.592 5.973a66.538 66.538 0 016.295 12.303c5.344 13.806 6.758 28.753 11.719 42.68 7.552 21.21 22.955 37.59 39.388 52.464a507.12 507.12 0 005.246 4.678c.658-.538 1.394-1.137 1.993-1.625-9.233-8.1-18.293-16.445-26.188-25.87-11.085-13.236-17.967-27.792-22.039-44.52-3.213-13.202-5.671-26.764-12.459-38.657a500.052 500.052 0 00-3.955-1.453zm19.713 7.873c3.662 13.421 6.004 27.201 13.06 39.56 6.26 10.964 14.549 20.514 23.328 29.56l-3.714-7.642c-7.168-7.845-13.736-16.198-18.74-25.603-5.75-10.81-8.072-22.708-11.067-34.41a41.621 41.621 0 00-2.867-1.465zM842.264 198.5c.037 1.058.081 2.11.125 3.148 19.82 15.406 35.066 36.349 51.19 56.373 11.896 14.779 24.274 29.06 39.312 40.239.667-.555 1.335-1.106 2.005-1.662-12.748-9.33-23.573-20.849-33.785-33.037-18.948-22.617-35.782-47.537-58.847-65.061z" fill="#9d7723"/><path d="M995.149 360.431c-1.456 2.473-8.446 10.796-11.064 9.256-2.622-1.542-50.958-51.917-50.376-54.537.583-2.621 18.637-12.521 23.295-11.647 0 0 39.6 54.457 38.145 56.928z" fill="#cb9422"/><path d="M969.209 307.627c-4.837-.114-11.232 2.285-12.451 3.602-.16.173-.318.351-.477.527-3.912-1.183-8.398-1.046-12.21 1.082-9.01 5.029-8.705 20.554-10.18 22.031-1.478 1.476-105.948 113.65-105.948 113.65l39.118 38.376s111.6-121.52 111.084-128.633c-.053-.72-.245-1.457-.504-2.194 2.924.493 6.025-.583 8.722-1.957 1.747-.889 3.47-1.94 4.67-3.49 1.2-1.546 1.795-3.686 1.08-5.51-.64-1.639-2.165-2.725-3.42-3.957-.3-.297-.6-.629-.69-1.04-.134-.639.265-1.252.604-1.807 3.286-5.384 1.699-13.187-3.43-16.86-1.831-1.309-4.252-2.118-6.341-1.283.954-4.87-1.986-10.212-6.61-12.012-.867-.338-1.9-.499-3.017-.525z" fill="#825929"/><path d="M955.864 311.648a17.483 17.483 0 00-.854-.217 19.99 19.99 0 00-1.133-.205l-.135-.022c-.517.592-.492 1.62.471 1.77 6.651 1.03 11.588 7.608 8.297 14.29-.878 1.782-2.513 2.595-4.289 3.788-1.259.845-2.01 2.022-2.328 3.245-.155.594 1.064 2.884 1.064 2.88.763 2.95.228 6.187-1.15 8.895-.658 1.29 1.284 2.428 1.941 1.137 1.046-2.054 1.827-3.98 1.92-6.324.064-1.625-1.61-5.076-1.3-6.186.078-.282.276-.552.517-.82 1.212 1.268 2.809 1.89 4.51 2.01.407 4.068 2.574 6.614 5.576 7.984-1.89 5.38 3.465 12.233 9.146 14.219l-.002-.01a6.855 6.855 0 00-.117-.735c-.018-.088-.033-.176-.055-.265-.023-.097-.06-.194-.086-.291-.068-.24-.132-.482-.216-.723v-.004c.665.106 1.34.138 2.011.098-4.631-1.198-9.614-5.902-8.521-11.54 5.664 1.45 13.036-.282 17.506-3.53-.014-.014-.024-.03-.037-.043a3.71 3.71 0 01-.27-.303c-.023-.03-.049-.057-.07-.088a1.458 1.458 0 01-.256-.545 1.317 1.317 0 01-.01-.473v-.002c.023-.149.068-.296.127-.441l.008-.02.008-.017c.125-.294.304-.58.47-.854.003-.003.003-.007.005-.01-5.565 4.715-19.977 6.674-22.979-2.504 1.016-.18 2-.51 2.92-.978 5.155-2.773 8.406-9.215 12.31-14.944-.689-.025-1.374.033-2.027.293h-.002l.002-.01c.083-.423.1-.851.125-1.279a81.167 81.167 0 01-6.486 9.602c-2.47 2.933-8.44 7.786-11.87 4.002.83-.565 1.674-1.105 2.132-1.627a12.596 12.596 0 002.482-4.248c2.361-6.931-2.016-13.382-8.486-15.346l-.446.5c-.143-.043-.285-.071-.423-.11z" fill="#46191a"/><path d="M865.066 319.049c.678-2.448 1.02-3.748-.632-5.424-6.23-6.323-13.422-11.62-21.24-15.822 10.574 3.786 21.586 11.324 31.346 16.162 4.577 2.269 8.842-8.248 8.013-13.065-.613-3.572-3.474-6.302-6.38-8.468-9.883-7.366-22.284-11.155-34.593-10.952-5.595.093-11.17 1.01-16.482 2.791l-69.87 46.948c-8.725 10.963-17.234 26.6-20.176 59.446-2.942 32.847-.162 37.38 4.536 42.622 4.959 5.532 15.307 11.37 20.54 6.533 2.394-2.21 1.823-6.29 2.488-9.57-.395 5.664 2.226 12.655 6.405 15.033 7.523 4.281 16.611-2.019 25.258-2.383-5.38-6.452-7.853-15.238-6.627-23.55 1.424 8.119 3.709 17.425 11.157 20.955 3.24 1.536 6.963 1.662 10.543 1.443a61.446 61.446 0 0017.234-3.572l-.115-35.598c-.047-14.768-4.516-23.785-3.248-27.957 1.268-4.17 1.8-8.563 3.408-12.615 3.139-7.896 26.884-5.95 26.834-14.447-.028-4.928-2.566-9.465-5.272-13.584a124.449 124.449 0 00-17.793-21.407 97.486 97.486 0 0119.563 12.692c2.759 2.302 7.036 5.36 10.804 1.294 1.765-1.905 3.36-4.113 4.3-7.505z" fill="#393b79"/><path d="M874.479 403.78c-5.21-11.79-16.138-20.83-28.651-23.926-9.736-2.409-15.905 2.06-20.901 9.364" fill="#cc807d"/><path d="M884.315 366.794c.846 3.008-1.504 6.192-4.427 7.291-2.926 1.1-6.193.61-9.229-.12-9.497-2.282-18.34-6.765-26.54-12.067" fill="#fff"/><path d="M774.515 392.166c4.588-7.506 15.667-11.238 19.046-8.527 3.38 2.714 7.495 12.35 12.198 10.436 4.703-1.915 13.457-10.717 11.738-12.772-1.72-2.053-23.185-21.561-22.017-21.13 1.169.434 15.6 14.548 19.632 12.986 4.031-1.561 9.669-6.38 9.03-9.672-.64-3.293-21.448-29.599-21.448-29.599s12.65-20.581 24.293-28.944c14.153 9.99 20.49 23.064 26.41 39.094 2.198 5.946 4.507 6.843 6.845 5.66a57.1 57.1 0 0019.693 8.99c2.499 3.052 10.71 6.608 8.855 9.223-1.945 2.734-51.554.03-52.524 9.1-.97 9.073 45.683 22.186 46.764 24.873 1.078 2.683-4.133 26.787-7.118 27.675-2.985.887-28.601-2.76-28.601-2.76l4.673 35.076-34.489-2.85s.657-38.565-2.824-40.426c-1.497-.799-3.338.092-5.686.984-3.114 1.187-7.122 2.37-12.382-.411-9.219-4.877-26.676-19.501-22.088-27.006" fill="#9d6931"/><path d="M879.933 358.689c-7.147-1.292-13.806-4.487-19.69-8.99 4.436-2.248 8.86-11.857 12.97-8.948 6.424 4.547 3.65 12.726 6.72 17.938z" fill="#cc807d"/><path d="M763.045 690.325c4.08-4.757 46.927-39.508 46.927-39.508s-10.951-10.22-11.29-13.28c-.338-3.06 20.8-22.01 22.162-29.148 1.36-7.139 4.08-32.638 4.08-32.638l86.042-3.095c1.12 0 21.349 5.42 44.501 11.196-2.923 9.146-8.039 25.586-11.398 38.727-2.696 10.544-4.256 18.953-2.616 19.697-6.118 2.38-39.352-3.967-39.352-3.967s-95.197 73.437-96.896 78.196c-1.7 4.761 9.858 29.034 6.458 30.837-3.4 1.803-31.617 2.823-35.698-1.597-4.079-4.42-16.999-50.659-12.919-55.419" fill="#a51c59"/><path d="M1000.368 619.269c2.589-8.206 6.923-15.717 11.853-22.804 2.59.412 4.874.712 6.79.884-5.958 12.276-11.727 24.848-15.104 37.922a902.49 902.49 0 01-5.95-1.237c.048-4.99.911-10.013 2.41-14.765" fill="#6764b1"/><path d="M1041.955 571.555c-13.528-.065-10.409 21.383-16.84 25.474-.824.525-2.965.598-6.103.32-5.96 12.277-11.729 24.848-15.106 37.922 13.812 2.823 27.294 5.204 35.483 5.704 4.003.244 6.758.044 7.638-.784 4.408-4.148 12.967-38.252 8.354-56.642-1.44-5.731-4.14-9.95-8.662-11.24-1.785-.51-3.364-.748-4.764-.754z" fill="#393b79"/><path d="M1055.38 583.549c-1.747-1.523-4.09-2.238-6.497-2.238-2.51 0-5.089.777-7.131 2.226-.535.38-1.113.725-2.572 2.406-2.181 2.512-3.023 4.108-4.175 6.967-.927 2.301-1.223 3.455-1.526 4.6-.208.775-.426 1.55-.838 3.589-.689 3.404-1.01 5.583-1.222 9.037-.278 4.514-.159 7.78.375 12.317.239 2.03.39 2.749.52 3.47.249 1.36.477 2.769 1.416 5.473 1.575 4.535 3.345 7.398 5.659 9.579a48.42 48.42 0 002.875.095c2.44 0 4.113-.267 4.763-.879.793-.746 1.782-2.446 3.133-6.109 1.232-3.34 1.849-5.528 2.701-8.969 1.095-4.415 1.739-7.626 2.436-12.108.557-3.578.835-5.949 1.113-9.57.232-3.01.303-4.75.282-7.728-.022-3.164-.135-5.054-.57-8.216-.3-2.186-.524-3.065-.743-3.942z" fill="#30305f"/><path d="M1055.939 586.201l-15.701-1.434a17.18 17.18 0 00-2.114 2.354c6.061.551 12.123 1.106 18.186 1.66a45.569 45.569 0 00-.371-2.58zm.744 8.232a264.374 264.374 0 01-21.203-2.727c-.35.789-.668 1.595-.959 2.41a268.9 268.9 0 0022.18 2.867c.01-.86-.01-1.793-.018-2.55zm-.179 7.742a833.905 833.905 0 00-23.608-2.327c-.19.83-.363 1.665-.52 2.502a840.94 840.94 0 0123.936 2.348c.074-.84.138-1.681.192-2.523zm-1.016 9.579l-23.991-2.881c-.07.84-.125 1.682-.164 2.525l23.77 2.856c.136-.832.264-1.666.385-2.5zm-2.319 12.121a584.485 584.485 0 01-21.543-2.723c.09.868.2 1.736.327 2.601 6.85.987 13.715 1.854 20.596 2.6a115.6 115.6 0 00.62-2.478zm-2.565 8.995a461.432 461.432 0 01-17.336-2.845c.268.926.572 1.844.916 2.742 5.162.93 10.337 1.771 15.528 2.526a55.12 55.12 0 00.892-2.423z" fill="#555692"/><path d="M1012.22 596.465c-4.93 7.087-9.263 14.598-11.854 22.804-1.498 4.752-2.36 9.775-2.41 14.765-21.795-4.61-42.562-9.779-42.562-9.779l-11.325-1.676c3.36-13.141 8.475-29.58 11.398-38.727 20.31 5.069 42.867 10.41 56.753 12.613z" fill="#9d6931"/><path d="M944.07 622.58l11.324 1.677s-7.594 15.55-13.94 18.02c-1.641-.745-.08-9.154 2.615-19.698" fill="#a51c59"/><path d="M941.453 642.276c6.347-2.47 13.94-18.02 13.94-18.02l-11.324-1.677c-1.938 7.579-3.288 14.052-3.286 17.372 0 1.299.211 2.114.67 2.325" fill="#821c47"/><path d="M773.757 680.731l32.642 34.291c-.676.7-1.096 1.211-1.194 1.483-1.7 4.761 9.858 29.034 6.458 30.837-3.4 1.803-31.617 2.823-35.698-1.597-4.079-4.42-16.999-50.659-12.919-55.419 1.14-1.329 5.303-4.999 10.712-9.595" fill="#393b79"/><path d="M781.96 673.835c13.075-10.905 28.012-23.018 28.012-23.018s13.883 13.632 37.439 30.248c-13.204 10.472-25.775 20.6-33.714 27.377-9.257-8.985-22.878-22.827-31.736-34.609" fill="#9d6931"/><path d="M798.684 637.536c-.34-3.058 20.799-22.008 22.16-29.147 1.36-7.139 4.08-32.638 4.08-32.638l86.042-3.095c1.12 0 21.349 5.42 44.501 11.196-2.923 9.146-8.039 25.586-11.398 38.727-2.696 10.544-4.256 18.953-2.616 19.697-6.118 2.38-39.352-3.967-39.352-3.967s-28.572 22.042-54.69 42.756c-23.555-16.617-37.44-30.248-37.44-30.248s-10.95-10.22-11.289-13.28" fill="#a51c59"/><path d="M813.697 708.442c-3.376 2.88-5.905 5.147-7.297 6.582l-32.642-34.293c2.724-2.312 5.458-4.61 8.202-6.897 8.86 11.781 22.48 25.624 31.737 34.608z" fill="#6764b1"/><path d="M812.293 745.594c-.009-5.551-7.226-22.013-7.262-27.832-.008-1.288.628-1.978 1.367-2.74 1.393-1.438 3.93-3.709 7.3-6.583 5.862-5 14.24-11.825 23.54-19.27 0 0 35.325-28.062 64.78-50.796l.01-.01a.108.108 0 01.015-.01c.003 0 .003-.006.006-.006a.055.055 0 01.018-.012l.023-.02s.004 0 .004-.003l.006-.004v-.002s-44.17-3.72-59.004-12.28c-10.945 29.985-14.93 35.654-22.254 42.225-7.14 6.318-16.265 15.146-23.81 23.242a216.27 216.27 0 00-6.313 7.055c-4.85 5.7-8.107 10.37-8.107 12.498 0 3.537 7.02 23.304 12.353 37.818 7.671.014 15.063-.654 16.7-1.524.441-.235.63-.848.629-1.747z" fill-opacity=".3"/><path d="M836.33 445.517c7.124 13.07 8.975 29.55 3.936 43.708-5.884 16.533-16.587 26.077-33.807 22.998-.656-11.428-1.086-19.423-1.086-19.423s-35.756-5.694-55.75 19.934c-10.926 14.004-13.33 28.01-15.588 38.576 5.733 8.172 2.923 18.566-10.1 17.233-.463 13.901-13.948 13.901-19.014 3.307-8.279-.36-11.275-1.542-13.888-12.65-4.555-19.361 2.717-62.414 32.33-87.47 29.255-24.753 72.396-42.258 112.967-26.213z" fill="#9d6931"/><path d="M888.657 493.18c-11.653-23.01-19.849-27.454-27.044-32.791-8.246-6.118-16.758-11.611-25.283-14.871 7.427 13.849 8.81 29.408 3.936 43.707-6.061 17.777-17.545 26.186-33.807 22.998 1.944 26.365 2.546 41.77 5.836 79.101 1.795 3.417 109.82-13.1 111.29-15.588.504-.85-2.274-8.636-10.202-27.493-7.753-18.44-11.774-29.487-24.726-55.063z" fill="#fff"/><path d="M836.33 445.518c.41.75.799 1.513 1.17 2.285a56.47 56.47 0 015.05 16.619 778.677 778.677 0 0019.063-4.033c-7.577-5.96-15.795-10.96-23.781-14.287-.501-.207-1.002-.386-1.502-.584zm44.01 33.453l-37.809 1.045c-.465 3.136-1.204 6.225-2.265 9.209-5.884 16.533-16.587 26.076-33.807 22.998.246 3.342.433 6.188.645 9.246l89.53-11.717a1726.266 1726.266 0 00-7.671-16.951c-2.137-4.631-5.09-9.298-8.623-13.83zm-72.149 58.46a2414.357 2414.357 0 002.723 37.268l105.969-18.146a1123.607 1123.607 0 00-7-16.62z" fill="#ea7452"/><path d="M826.893 333.053c-3.736 2.216-5.1 6.851-4.86 10.974.4 6.77 4.026 13.238 9.406 17.323 3.4 2.545 7.994 4.198 12.166 2.665 3.808-1.365 5.95-5.377 6.23-9.241.544-6.876-2.697-13.709-7.665-18.35-3.366-3.087-8.062-5.418-12.72-4.401a8.91 8.91 0 00-2.557 1.03z" fill="#fff"/><path d="M848.437 359.674a123.68 123.68 0 01-18.076-27.814c5.48-.721 12.105 3.15 16.197 9.982 3.757 6.275 4.31 13.256 1.879 17.832zm-24.727-44.219c2.826-.64 5.845.209 8.269 1.8.613.403 1.262 1.175.837 1.774-.255.36-.757.41-1.195.421-1.87.045-3.78-.019-5.559.553-1.93.62-3.565 1.95-4.919 3.461a20.455 20.455 0 00-4.723 9.173l-.965.409c-.41-3.534-.414-7.207.838-10.534 1.251-3.328 3.947-6.27 7.417-7.057z" fill="#393b79"/><path d="M805.008 268.109c-28.255-2.931-125.818-12.839-128.844-9.857v.002h-.002c-.202.202-.217.852-.088 1.867l88.576 62.092c-18.848 24.704-66.801 92.063-67.418 95.797-2.219 7.837 26.263 19.16 33.02 21.549 6.755 2.387 134.705-182.866 133.74-187.88-1.174-6.1-24.207-15.64-32.33-15.46-2.168.048-12.56 13.407-26.654 31.89z" fill="#fff"/><path d="M722.53 260.278l-4 5.886c-.806 1.185.294 2.312 1.42 2.312.483 0 .973-.208 1.316-.713l4.878-7.182zm10.05.86l-6.302 9.29c-.803 1.184.295 2.312 1.421 2.312.483 0 .973-.207 1.316-.713l7.17-10.573zm1.445 13.554c-.803 1.184.295 2.312 1.42 2.312.483 0 .974-.208 1.316-.713l9.437-13.932-3.593-.327zm18.576-11.74l-10.827 16.004c-.802 1.185.294 2.313 1.418 2.313.485 0 .977-.208 1.318-.713l11.678-17.269zm-3.08 20.268c-.801 1.185.294 2.313 1.42 2.313.485 0 .974-.208 1.316-.713l13.901-20.58-3.578-.344zm7.749 4.264c-.8 1.186.292 2.31 1.417 2.31.485 0 .978-.205 1.319-.71l16.104-23.878-3.57-.347zm25.21-21.648l-17.464 25.912c-.8 1.187.295 2.31 1.42 2.31.485 0 .976-.207 1.316-.713l18.293-27.154zM764.704 322.121l-88.63-61.998 42.06 126.561z" fill="#c0c3ca"/><path d="M692.922 281.49l-6.37 10.164 15.97 48.05 24.453-29.313-34.053-28.9zm38.58 32.008c-.485 0-.977.198-1.334.676l-25.01 33.463 1.211 3.642 26.535-35.504c.862-1.153-.248-2.277-1.402-2.277zm7.34 5.135c-.483 0-.955.224-1.301.734l-28.045 41.324 1.229 3.696 29.552-43.42c.803-1.18-.326-2.334-1.435-2.334z" fill="#9399a0"/><path d="M966.379 271.998c-1.917 0-59.427 46.64-59.106 49.517.319 2.88 6.71 11.185 11.821 11.185 5.112 0 55.683-37.06 58.513-42.491 1.237-2.376-9.31-18.211-11.228-18.211z" fill="#cb9422"/><path d="M969.506 275.008c-9.87 2.841-14.921 12.438-17.488 22.248-1.7 6.487-3.405 12.572-5.596 18.273 1.516-1.09 3.025-2.19 4.53-3.297 3.677-13.32 4.966-31.941 20.163-35.072a54.903 54.903 0 00-1.61-2.152zm4.674 6.826c-4.858 1.146-8.76 5.208-10.496 10.291-1.132 3.315-1.868 7.617-1.371 11.537.826-.644 1.634-1.276 2.42-1.896-.059-2.55.38-5.167.894-7.217 1.278-5.1 4.922-9.662 9.89-10.397a62.144 62.144 0 00-1.337-2.318zm2.96 5.674c-2.57.654-4.98 1.848-6.714 3.953-1.744 2.116-2.47 4.771-2.006 7.348.795-.65 1.552-1.276 2.267-1.875.096-3.407 3.554-5.798 6.987-6.872.026-.1.037-.215.039-.343 0-.53-.208-1.294-.572-2.211zm-47.203 13.215a818.741 818.741 0 00-7.357 6.222 57.273 57.273 0 00-1.51 2.975c-3.021 6.416-4.31 14.04-6.404 21.142a11.15 11.15 0 002.145 1.168c.813-2.734 1.508-5.541 2.212-8.335 2.197-8.71 5.796-16.505 10.914-23.172zm8.012 9.613c-.046 4.022-.824 8.476-2.064 12.59l2.996-2.06c1.793-7.835 3.573-19.528-1.758-19.528-.267 0-.553.032-.855.092-4.165.83-6.779 10.794-8.198 14.045-2.58 5.908-5.142 11.75-8.572 17.19.82-.185 2.225-.85 4.072-1.888 3.23-5.793 5.761-11.963 8.465-18.025 1.241-2.783 1.957-7.733 4.8-7.217 1.617.293 1.133 3.205 1.114 4.8z" fill="#9d7723"/><path d="M854.877 267.55c-4.728.19-9.44.73-14.09 1.617-1.445.275-2.976.634-4 1.693-.876.908-1.234 2.187-1.538 3.412-2.359 9.503-3.443 19.193-4.039 28.959 9.541-14.062 17.815-26.523 23.667-35.68zm-48.797-.871l-2.374 3.115 19.81.665c1.998.067 1.96-3.1-.042-3.17zm-7.767 10.236l-2.366 3.136 27.57.796c1.997.057 1.96-3.11-.043-3.171zm-7.746 10.307l-2.362 3.16 35.313.853c1.996.048 1.959-3.12-.044-3.171zm-7.742 10.383l-2.364 3.181 43.057.836c1.996.04 1.959-3.128-.044-3.17zm-7.748 10.454l-2.09 2.83c.244.218.577.348 1.012.355l49.519.766c1.996.03 1.959-3.137-.044-3.17zm43.18 14.116l2.122-3.082-46.366-.631c-2.031-.028-2.04 3.145-.014 3.17zm-7.01 10.144l2.149-3.1-39.383-.369c-2.031-.019-2.04 3.154-.014 3.17zm-7.099 10.2l2.176-3.12-32.31-.16c-2.032-.01-2.042 3.161-.015 3.169zm-7.192 10.26l2.205-3.136-25.148-.017c-2.031 0-2.04 3.17-.014 3.169zm-60.113 7.698l-2.242 3.12 19.978.668c1.998.066 1.959-3.102-.044-3.172zm-7.348 10.244l-2.242 3.14 27.326.792c1.998.058 1.959-3.11-.044-3.171zm-7.344 10.31l-2.236 3.16 34.664.849c1.998.049 1.96-3.118-.044-3.17zm-7.485 10.376l-2.223 3.177 42.136.843c1.999.04 1.96-3.126-.044-3.169zm-7.165 10.44l-2.184 3.197 49.262.772c1.999.03 1.96-3.136-.044-3.17zm45.847 11.133l-48.271-.712c-2.032-.03-2.041 3.143-.015 3.17l45.95.613zm-10.22 13.17l2.451-3.088-40.502-.406c-2.032-.02-2.041 3.152-.015 3.17zm-5.842 7.054l-22.727-.244 7.002 3.177 12.925.171z" fill="#c0c3ca"/><path d="M645.867 663.023c4.464 3.343 7.478 5.412 8.369 5.622 4.005.944 15.954-6.376 23.72-7.943-8.055 22.973-24.286 46.73-29.4 53.908-4.81-2.753-12.544-7.33-21.79-12.859z" fill="#a51c59"/><path d="M485.266 677.729s-21.986 24.124-35.5 40.135l-37.355-28.528c8.933-12.138 20.937-28.4 32.105-43.996z" fill="#9d6931"/><path d="M653.658 717.373c-.604-.238-2.396-1.215-5.103-2.763 5.115-7.179 21.346-30.935 29.401-53.908 3.446-.694 6.072-.261 6.812 2.53 2.41 9.088-25.33 56.425-31.11 54.141z" fill="#6764b1"/><path d="M617.125 640.451l-24.666 40.531 34.309 20.77 19.1-38.729z" fill="#9d6931"/><path d="M550.241 587.937c2.081 0 37.819 29.232 66.884 52.514-1.2 2.551-23.03 42.434-29.14 44.921-28.315-17.148-61.509-40.032-61.509-40.032s-31.509 40.087-33.802 39.695c-17.788-14.958-33.485-26.924-48.158-39.695 14.106-19.698 26.847-38.286 30.258-45.987z" fill="#6764b1"/><path d="M415.058 736.967c-1.534-1.894-2.203-4.324-2.834-6.678l-8-29.784c2.22-3.055 5.007-6.847 8.188-11.17l37.355 28.529-11.724 13.9c-.423.514 5.471 7.14 6.254 12.28-7.418 2.593-16.216.385-23.528-3.1-2.114-1.008-4.24-2.157-5.711-3.977z" fill="#a51c59"/><path d="M398.773 708.284c.454-.832 2.427-3.62 5.45-7.779l8 29.784c.632 2.354 1.301 4.784 2.834 6.678 1.472 1.818 3.6 2.969 5.712 3.976 7.312 3.486 16.11 5.694 23.528 3.101.23 1.508.042 2.892-.902 3.95-4.162 4.663-28.147 5.162-32.915 0-4.77-5.162-14.595-34.378-11.707-39.71" fill="#6764b1"/><path d="M431.873 558.16c-9.738 13.468-1.864 38.534-1.864 38.534s15.565 4.715 15.355 13.22c-.21 8.506-10.238 8.338-9.488 11.727 0 0 4.731 10.9-.466 13.86-4.031 2.297-11.437 4.118-14.014-.952 0 0-15.285 7.376-21.847-1.071-6.56-8.447-16.2-79.757-3.11-99.053 13.09-19.297 118.484-64.554 114.349-8.997-.933 12.534-69.179 19.263-78.915 32.731z" fill="#9d6931"/><path d="M432.957 605.488a.897.897 0 00-.39.069c-2.906 1.151-5.575 3.303-6.796 6.04-4.506.153-8.626-1.144-12.253-3.822-.976-.72-1.912.911-.95 1.623 3.706 2.737 8.037 4.11 12.614 4.077-.214 1.22-.137 2.522.27 3.976-1.229.649-2.188 1.314-3.028 2.229-2.742-2.858-6.766-2.611-10.072-.623a.897.897 0 00-.336.363 5.534 5.534 0 00-2.362-1.772c-2.332-.909-5.597-.692-7.535.981-2.47 2.131-2.338 5.571-1.744 8.475.242 1.185 2.052.682 1.81-.498-.659-3.227-.2-7.307 4.014-7.551 2.295-.134 4 .664 5.012 2.857 1.362 2.945.661 7.977-.645 10.725-.516 1.086 1.105 2.039 1.623.947 1.482-3.114 2.418-8.97.665-12.775a.883.883 0 00.445-.127c3.125-1.88 6.863-1.773 8.785 1.677 1.729 3.101.555 6.76-1.07 9.616-.6 1.054 1.023 2 1.62.949 2.04-3.584 3.111-8.077.93-11.733.753-.948 1.698-1.51 2.8-2.035 2.074 3.018 6.14 3.617 9.501 2.186-.029-.98.915-1.67 2.207-2.404-.222-.444-.72-.71-1.224-.329-3.358 2.537-8.653 2.214-9.748-2.488-.96-4.12 2.482-7.37 5.966-8.752.974-.386.723-1.826-.109-1.88z" fill="#46191a"/><path d="M423.123 491.308a67.492 67.492 0 00-10.134 21.284c-.725 2.632-1.266 5.539-.12 8.016 1.576 3.401 5.74 4.74 9.486 4.91 5.353.249 11.375-1.644 13.739-6.454 1.212-2.467 1.28-5.32 1.325-8.07l.517-31.576c11.272 4.165 19.702 5.715 19.702 5.715l24.668-23.528-10.712-111.268s-10.721-3.085-24.835-3.24c-23.524-.256-56.473 7.626-64.928 51.494-6.508 33.763 10.796 55.044 30.5 68.066-5.039 1.612-10.08 3.319-14.602 6.045-4.915 2.96-9.24 7.273-11.08 12.706-1.842 5.435-.766 12.043 3.52 15.859 4.913 4.375 12.689 4.059 18.524 1.022 5.835-3.038 10.176-8.253 14.356-13.332l10.018-11.442c-2.708 4.905-6.629 9.156-9.944 13.793z" fill="#393b79"/><path d="M410.611 355.16a54.232 54.232 0 00-4.85 3.016c-2.78 4.382.369 10.106 5.558 10.105a6.58 6.58 0 10-.708-13.121zm18.383 6.542a6.581 6.581 0 1013.163 0 6.581 6.581 0 00-13.163 0zm-29.803 16.95a6.58 6.58 0 100 13.161 6.58 6.58 0 000-13.161zm17.674 6.58a6.58 6.58 0 1013.162.001 6.58 6.58 0 00-13.161-.002zm30.838-6.58a6.58 6.58 0 10-.003 13.161 6.58 6.58 0 00.003-13.161zm-66.757 25.41a74.617 74.617 0 00-.358 3.762 6.572 6.572 0 006.455 5.301c3.635-.01 6.567-2.98 6.548-6.615-.018-3.636-2.98-6.575-6.615-6.548a6.571 6.571 0 00-6.03 4.1zm30.373-4.081c-5.862.002-8.795 7.09-4.65 11.233 4.145 4.144 11.232 1.21 11.232-4.653a6.58 6.58 0 00-6.582-6.58zm24.256 0c-3.679 0-6.695 2.9-6.695 6.579s3.016 6.579 6.695 6.579c3.679 0 6.695-2.9 6.695-6.579s-3.016-6.579-6.695-6.579zm-36.384 24.74a6.58 6.58 0 100 13.16 6.58 6.58 0 000-13.16zm17.675 6.579a6.58 6.58 0 1013.16.002 6.58 6.58 0 00-13.16-.002zm-10.196 30.972c4.145 4.143 11.232 1.207 11.231-4.655a6.58 6.58 0 00-6.582-6.58c-5.862.003-8.795 7.09-4.65 11.235zm28.905-11.234c-3.679 0-6.695 2.9-6.695 6.579s3.016 6.579 6.695 6.579c3.679 0 6.695-2.9 6.695-6.579s-3.016-6.579-6.695-6.579z" fill="#4f4aa5"/><path d="M472.382 338.888s1.276-13.405 13.19-10.213c11.916 3.19 7.873 9.707 7.873 9.707s3.616-5.188 8.086 0c4.468 5.186 0 10.197 0 10.197s16.596-5.862 20 4.352c3.403 10.212-10.213 12.338-10.213 12.338s24.468 14.044 3.83 35.107l-42.33 70.767s2.362 5.054-6.138 15.032c-8.5 9.977-19.583 0-19.583 0s-4.806 5.542-12.936-.371c-8.13-5.911 2.523-20.324 2.523-20.324s-1.747-108.165 28.538-116.901c0 0-1.353-12.67 7.16-9.691z" fill="#ea7452"/><path d="M528.793 409.396c.784.026 8.47-5.315 13.104-1.43 2.326 1.95 1.838 13.325 2.1 19.458-6.76-5.124-14.305-11.837-17.524-18.424.752.236 1.532.37 2.32.396z" fill="#cc807d"/><path d="M439.073 440.471c10.665-8.784 18.507 10.667 23.214 11.295 4.706.627 15.372-21.959 4.706-32.625 0 0 17.727-5.962 15.295-16.629-2.433-10.664-8.393-15.055-8.393-15.055s14.428-.023 21.033-19.45c0 0 11.592 4.704 19.749 17.88 7.357 11.883 5.553 21.157 11.796 23.113 4.814 7.535 9.873 12.478 17.522 18.424 1.395 4.815 2.932 41.504-3.594 48.184-6.589 5.333-45.473 2.195-45.473 2.195l5.632 22.903-30.313 10.08s-3.22-39.857-6.077-40.198c-2.859-.34-5.02 3.45-12.234 1.256-7.217-2.198-23.528-22.59-12.864-31.373" fill="#9d6931"/><path d="M504.072 401.355c-5.18 1.595-7.266 9.107-4.767 16.434 2.499 7.329 8.687 11.864 13.812 10.1 6.48-2.23 6.581-12.103 4.764-16.434-2.68-6.384-7.541-12.029-13.809-10.1z" fill="#fff"/><path d="M506.854 400.98c2.014 8.524 5.287 16.997 9.476 24.688 3.224-3.823 2.996-10.769 1.55-14.213-2.267-5.405-6.1-10.277-11.026-10.475zm-7.416-23.615a4.193 4.193 0 00-1.499.313c-1.28.528-2.179 1.68-2.949 2.83a34.483 34.483 0 00-4.726 10.644c-.23.895.877 1.463 1.507.787a13.663 13.663 0 013.8-2.84c3.564-1.8 7.625-2.282 11.572-2.892.499-.078 1.028-.173 1.386-.525.8-.788.2-2.142-.506-3.016a18.366 18.366 0 00-4.16-3.775c-1.314-.867-2.898-1.569-4.425-1.526zm35.34 77.664L521 448.133a9.6 9.6 0 00.443-1.068c.252-.716-.36-1.172-.955-1.14a.931.931 0 00-.855.64c-.41 1.155-1.09 2.124-1.996 2.947-.897.815.436 2.14 1.33 1.328a9.113 9.113 0 001.015-1.12l13.847 6.93c1.08.541 2.03-1.079.948-1.62z" fill="#46191a"/><path d="M466.015 493.012c-22.806 8.073 6.07 81.072 8.76 106.341 0 0 84.672-4.493 85.234-10.67.56-6.177-15.83-58.877-47.063-77.704 0 0-24.124-26.04-46.931-17.967z" fill="#a51c59"/><path d="M497.952 498.92c5.208 7.665 7.91 17.063 7.005 26.3-.234 2.375-.705 4.792-1.956 6.825-1.76 2.852-4.854 4.62-8.006 5.771-9.55 3.489-20.747 2.088-29.147-3.646-2.812-1.92-8.573-7.956-9.338-13.326-1.387-9.733.3-24.662 9.505-27.92 11.37-4.026 23.063.516 31.937 5.996z" fill="#fff"/><path d="M557.534 509.065c15.217-6.683 23.203-39.358 23.203-39.358s-13.12-4.875-8.632-12.104c4.488-7.228 13.051-2.007 14.121-5.31 0 0 3.923-14.503 9.904-14.424 4.64.06 9.463 4.95 9.118 10.627 0 0 16.917 1.377 18.299 11.986 1.378 10.606-26.416 76.983-47.474 86.993-21.059 10.013-134.861-4.325-103.165-50.142 7.399-10.695 69.412 18.416 84.626 11.732z" fill="#9d6931"/><path d="M443.965 747.139v.002h.002c.44-.906.502-1.966.33-3.096l-.13-.67c-1.106-4.844-6.139-10.674-6.136-11.572.19-.257 5.155-6.142 11.735-13.938h.002v-.002c12.955-15.348 33.206-37.614 34.896-39.47a930.61 930.61 0 018.01 6.642c2.293.392 33.803-39.695 33.803-39.695s33.192 22.883 61.507 40.031c2.023-.975 4.388-4.265 4.485-4.387l34.299 20.768c9.245 5.53 16.979 10.104 21.789 12.857 2.706 1.548 4.457 2.698 5.322 2.803 1.764.215 4.42-2.46 7.521-6.394a2929.351 2929.351 0 00-7.26-4.573 8872.197 8872.197 0 00-22.687-14.197c-16.737-10.45-32.029-19.953-32.648-20.338a327.564 327.564 0 005.775-9.287l-66.518-32.242s6.958-6.765 3.768-6.7c-3.424.071-13.787 4.28-13.787 4.28l-54.522 41.344c2.5 2.022 5.05 4.098 7.616 6.193-1.9 2.044-22.196 23.917-35.307 39.361-5.888 6.937-10.24 12.481-10.666 14.178-.76 3.03 3.213 9.885 7.072 15.6a151.83 151.83 0 001.729 2.502zM829.347 518.56a156.058 156.058 0 00-.733-11.064c-.443-4.394-.907-7.27-.907-7.27l-22.337-7.424 3.634 61.192a28.279 28.279 0 0011.451-3.262c3.944-2.098 6.254-6.931 7.537-12.814 1.298-5.957 1.541-12.988 1.355-19.357z" fill-opacity=".3"/><path d="M927.42 302.836a1166.74 1166.74 0 0113.273-10.998 507.536 507.536 0 01-5.246-4.678c-11.722-7.396-23.122-15.348-38.102-26.369-20.349-14.97-36.705-27.539-53.648-39.093.553 3.52 64.042 62.827 83.723 81.138z" fill-opacity=".2"/></svg>