<svg width="218" height="388" version="1.2" xmlns="http://www.w3.org/2000/svg"><ellipse cx="83.793" cy="369.496" rx="75" ry="10" fill-opacity=".2" paint-order="stroke markers fill"/><path d="M188.89 145.342c.448-.514.695-1.177.622-2.037-.134-1.615-1.264-2.564-2.395-3.333-1.181-.803-4.155-1.046-4.155-1.046-2.2.1-4.568-.19-6.445.662-2.035-.396-2.617-.218-2.853-.299-.64-.22-1.19-.311-1.668-.297-2.579.077-3 3.24-3.484 5.856.262 2.199-.192 4.922-1.672 6.586.707 1.12 1.234 2.444 1.633 3.523.48 1.296 1.09 3.176 1.156 4.86.28.141.492.39.785.519.329.147.698.179 1.047.09l5.664-.559c.156.09.313.18.488.242.245.085.566.511 1.291.16.802 1.13 2.456 1.04 3.756.905 2.481-.25 4.14-2.135 4.016-4.522l.033-1.066c1.31-.702 2.091-1.968 1.482-3.834l-.392-1.031c.99-1.028 1.425-2.458 1.03-3.99zm-73.804 127.346l-18.016 3.617c-.016 0-.023-.004-.039-.004 1.434 12.27 1.558 24.823 1.617 37.152a532.476 532.476 0 01-1.218 39.012c-.093 1.36-.2 2.719-.301 4.078 4.442 2.247 8.863 4.188 13.762 5.254 2.465.535 5.187 1.057 7.66.277 3.297-1.039 4.27-3.605 3.562-6.687-4.142-1.465-9.272-2.915-14.156-4.391.666-4.628 1.523-9.45 2.234-14.719a530.969 530.969 0 002.485-21.816c1.234-13.27 1.954-27.921 2.41-41.774zM57.32 274.35c.605 13.579-.1 27.906.637 42.521.564 11.242 1.185 24.35 2.176 37.035a181.557 181.557 0 00-13.664 3.364c.773 2.086 1.535 3.742 3.633 4.949 2.429 1.39 5.331 1.347 8.011.867 4.99-.89 9.414-3.257 14.184-4.754.147-12.797.557-26.643.873-40.426.307-13.394.743-27.462 1.674-41.847z" fill="#f8bf85"/><path d="M122.883 355.665c.926.34 1.851.687 2.77 1.054 3.195 1.29 6.308 2.79 9.253 4.582 2.934 1.79 8.262 4.559 6.09 8.567-1.797-.426-3.781-.286-5.61-.356-6.486-.25-12.96-.77-19.402-1.559a235.712 235.712 0 01-13.527-2.07c-1.988-.363-3.988-.843-5.992-1.281.039-.484.078-.969.121-1.45.164-1.816.316-3.636.457-5.452 5.297 3.218 12.293 5.703 18.441 5.8 2.575.043 5.41-.714 6.961-2.93.954-1.359 1.395-3.479.438-4.905z" fill="#a32b3d"/><path d="M176.621 149.231c.524.848 1.117 1.594 1.852 2.016a2661.029 2661.029 0 00-3.907 13.152c-1.152 3.926-2.378 7.855-3.566 11.805a10.72 10.72 0 01-3.012-2.239c1.239-3.562 2.457-7.129 3.707-10.668 1.653-4.683 3.297-9.37 4.926-14.066" fill="#fff"/><path d="M63.981 362.832c2.722-.87 5.761-1.789 8.304-3.207-.008 1.102-.023 2.204-.023 3.305-5.863 2.684-12.457 3.625-18.805 4.426-4.226.535-8.473.965-12.726 1.27-3.801.277-7.805.05-11.563.656-1.941-3.512 1.578-5.918 4.477-7.235 3.355-1.52 6.812-2.84 10.312-4 .582-.191 1.168-.36 1.75-.543-.59 4.262 5.332 7.004 8.762 7.145 3.238.133 6.46-.844 9.512-1.817z" fill="#a32b3d"/><path d="M75.988 229.231c3.032 1.46 6.063 2.91 9.11 4.344.16.078.304-.164.14-.243-3.047-1.431-6.1-2.849-9.16-4.253-.105-.047-.195.105-.09.152m19.836 4.926c-5.789-2.528-11.496-5.2-17.117-8.094-.129-.066-.238.121-.113.195 5.492 3.137 11.21 5.903 17.105 8.196.172.066.293-.227.125-.297m-42.77-23.387c4.398 2.269 7.172-22.736 31-20.299 23.302.572 29.774 26.072 33.876 24.068-.07 5.895.426 11.817.465 17.715a309.668 309.668 0 01-.38 17.766c-.355 7.023-1.034 13.992-1.84 20.953-5.468 1.828-11.437 2.223-17.132 2.68-7.14.574-14.312.82-21.473.59-7.289-.235-14.558-.996-21.699-2.477-.535-.105-1.062-.23-1.59-.352-.214-2.042-.425-4.085-.57-6.12a428.658 428.658 0 01-.91-18.063 457.536 457.536 0 01-.145-18.086c.063-6.11.582-12.266.399-18.375" fill="#2b4757"/><path d="M57.32 274.348c5.888.666 11.493 2.056 17.528 1.711-.39 4.547-.586 9.117-.754 13.688a99.343 99.343 0 01-16.625-2.024c.031-4.46.062-8.93-.149-13.375zm40.703 13.617c-.23-3.902-.539-7.8-.972-11.662 5.987-1.437 12.243-2.123 18.035-3.615-.344 3.582-.46 7.207-.55 10.828-5.803 1.793-11.308 3.575-16.513 4.449z" fill="#d78a5e"/><path d="M80.852 119.266c-2.442.55-4.957.52-7.434.207-.137-.015-.156.207-.031.242 2.555.696 5.008.528 7.531-.203.16-.047.094-.281-.066-.246m4.539 7.883a50.644 50.644 0 01-1.602 11.14c-.844 3.243-2.34 6.227-3.32 9.399-.879-1.246-1.836-2.414-2.586-3.758-.809-1.45-1.484-2.965-2.148-4.48a216.648 216.648 0 01-4.34-10.703c-1.399-3.735-2.723-7.465-3.59-11.282 2.57 1.02 5.523 1.367 8.238 1.344 2.797-.023 6.18-.371 8.656-1.852a51.26 51.26 0 01.692 10.192" fill="#2b4757"/><path d="M40.738 79.067c1.446-2.04 4.524-.77 4.086 1.7-.285 1.585-1.933 2.687-3.511 2.218-1.606-.477-2.438-2.207-1.848-3.766.363-.965 1.18-1.55 2.098-1.75-.5.285-.895.774-1.067 1.496-.035.153.16.223.242.102" fill="#e83f54"/><path d="M95.863 24.895c1.809 3.563 3.375 7.27 4.844 10.98a167.842 167.842 0 0110.594 41.516c1.531 12.582 2.87 29.496-10.028 36.711l-54.398 2.563c-2.961-.934-5.89-1.579-8.738-2.895a40.236 40.236 0 01-7.598-4.578c-4.184-3.207-7.71-7.215-10.305-11.79 2.602 1.68 5.536 2.805 8.66 3.016.344.336 1.106.004 1.016-.62-1.617-11.192-3-22.407-3.746-33.696-1.113-16.809-3.456-39.748 12.567-50.648 6.704-4.56 10.976-5.954 23.05-5.954 9.37 0 26.782 6.571 26.862 7.822 3.614 1.577 5.626 4.432 7.22 7.573z" fill="#f8dc63"/><path d="M79.539 103.298l-11.016.577c-2.705 1.095-4.816 3.094-6.152 5.504-2.676 1.528-5.937 1.485-8.762 2.696-2.515 1.078-4.746 2.726-6.734 4.59-2.96-.934-5.89-1.579-8.738-2.895a40.236 40.236 0 01-7.598-4.578c-4.183-3.207-7.71-7.215-10.305-11.79 2.602 1.68 5.536 2.805 8.66 3.016.344.336 1.106.004 1.016-.62-1.617-11.192-3-22.407-3.746-33.696-.656-9.89-1.73-21.898.754-32.332.035.676.125 1.344.293 2 1.102 4.363 4.547 6.34 8.766 7.082 5.55.977 12.605-1.055 17.582-3.437 5.058-2.422 9.191-6.258 13.968-9.125-.48 1.878-1.308 3.625-2.18 5.375-.262.48.264 1.005.743.742 6.254-3.239 8.574-10.653 14.543-14.102.164 1.844-.145 3.68.16 5.527.063.372.512.461.797.325 2.789-1.352 4.285-3.762 4.672-6.688 1.672 1.43 2.945 3.29 5.031 4.188.379.16.793-.024.816-.47.086-1.933-.07-3.839-.277-5.745 1.723 1.426 2.977 3.37 4.031 5.453 1.809 3.562 3.375 7.27 4.844 10.98a167.842 167.842 0 0110.594 41.516c1.531 12.582 2.87 29.496-10.027 36.711a31.904 31.904 0 00-5.801-2.836c-2.082-.766-4.727-1.723-7.02-1.465-1.847-2.73-4.726-6.008-8.248-6.269z" fill="#de943a"/><path d="M82.68 84.344c.34-.148.086-.66-.246-.578-2.989.719-5.903.95-8.91.18-2.883-.735-5.106-2.258-7.426-4.04-.375-.292-.703.298-.465.602 3.754 4.754 11.637 6.215 17.047 3.836m6.565-32.113c.356.297.82-.16.512-.512-1.692-1.918-3.984-3.918-6.734-3.637-1.731.176-3.243 1.301-3.336 3.102-.02.305.445.434.582.16 2.199-4.379 6.43-1.265 8.976.887m-4.35 8.87c.507 1.082 1.421 2.648 2.808 2.656 1.235.004 1.957-1.14 2.121-2.23.149-.992-.164-2.75-.867-4.09.969-.563 1.707-1.742 1.703-2.738-.004-.422-.574-.461-.703-.094-.23.644-.496 1.203-1.031 1.652a2.7 2.7 0 01-.516.336 2.973 2.973 0 00-.738-.672 2.112 2.112 0 00-.523-.312c-1.114-.438-2.27.25-2.739 1.281-.601 1.324-.097 2.973.485 4.211m5.425 6.195c1.075.57 2.266 1.043 3.422 1.414.153.051.25-.183.11-.257-1.075-.57-2.239-1.098-3.399-1.473-.187-.063-.304.227-.133.316m-13.855-1.815c-.129-.172-.39-.074-.348.148.492 2.442 2.711 4.067 5.016 4.711-1.047 1.996-2.555 3.305-4.383 4.688-.258.2-.121.7.242.574 2.477-.836 4.25-3.012 5.274-5.344.113-.265.047-.648-.293-.718-2.559-.512-4.004-2.059-5.508-4.059m-14.824-7.492a2.222 2.222 0 00-.524-.309c-.91-.355-1.84.043-2.41.762a2.286 2.286 0 01-.219-.11c-.543-.324-1-.812-1.55-1.105-.157-.082-.368.055-.309.238.191.625.789 1.172 1.289 1.559.094.074.215.168.348.266-.395 1.261.062 2.742.597 3.882.508 1.082 1.422 2.649 2.813 2.653 1.23.004 1.957-1.137 2.117-2.227.219-1.476-.566-4.637-2.152-5.61m1.894-4.292c-1.707-1.676-3.922-2.735-6.293-3.059-1.656-.222-4.027.055-3.87 2.227.026.383.55.465.671.09 1.117-3.54 7.5.222 9.016 1.355.363.277.78-.312.476-.613m-9.312 14.975c1.113.575 2.488.852 3.687 1.2.34.097.469-.407.145-.52-1.156-.41-2.414-.98-3.633-1.16-.27-.04-.484.332-.2.48m-11.702-2.27c-1.313-1.609-3.77-3.16-5.602-1.452-.125.113.004.34.168.285 5.086-1.695 6.3 5.523 7.613 8.726.102.246.516.243.504-.07-.125-2.613-1.015-5.437-2.683-7.488m25.968 40.969a.684.684 0 00.38-.301c.179-.168.32-.367.363-.625a.292.292 0 00-.06-.211.641.641 0 01.02-.082c.653-1.504.313-3.82-.125-5.3-.21-.708-.5-1.333-.878-1.86a.248.248 0 00-.067-.336c-.219-.164-.453-.317-.683-.469a4.153 4.153 0 00-.805-.496c-1.766-1.027-3.707-1.832-5.457-2.84-2.313-1.328-4.535-2.828-6.535-4.598-1.868-1.648-3.551-3.523-4.891-5.625-1.16-1.812-1.844-3.789-2.785-5.703.266-.293.453-.636.605-1.02.102-.25-.316-.417-.43-.179-.3.617-.913 1.082-1.57 1.262-.004.004-.011.004-.02.004-.027-.07-.054-.149-.093-.219a2.988 2.988 0 00-1.332-1.289.238.238 0 00-.117-.172c-1.688-1.035-3.781-.687-4.906.742-2.028-1.043-3.797-2.324-4.805-4.445-1.227-2.578-1.191-5.684-.688-8.434.508-2.773 2.102-5.25 5.235-5.125 2.453.098 4.176 1.778 5.437 3.7.27 1.507.668 2.98 1.309 4.3.086.176.383.094.367-.097-.258-3.465-1.172-6.809-1.273-10.309-.102-3.422.43-6.71.68-10.094 7.324.614 15.007-.101 21.722-2.972 5.492-2.348 11.367-7.008 13.29-12.985.237 1.653.577 3.297.702 4.957.188 2.47.184 4.938.074 7.41-.02.395.5.583.766.317 2.828-2.817 5.691-6.14 6.715-9.973.207.313.43.621.676.89.039.044.082.063.125.09 2.855 6.227 5.183 12.497 6.758 19.204 1.625 6.933 2.648 13.984 3.671 21.027.516 3.563 1.047 7.29.32 10.867-.8 3.922-3.28 6.903-6.616 8.996-6.375 3.997-14.028 4.907-21.31 3.528-.155-.031-.222.195-.065.238.57.164 1.148.305 1.73.43.352.703 1.355 1.066 2.02 1.402.828.418 1.66.75 2.57.887-.012.176-.004.355-.008.531-1.656-.363-3.117-1.148-4.48-2.18-.133-.101-.25.102-.165.211 1.145 1.442 2.844 2.215 4.64 2.383.028 1.27.24 2.567.708 3.617-.008.02-.02.04-.02.059.082.7.887 1.031 1.461 1.289.532.238 1.145.465 1.746.469.844 2.633 1.684 5.238 2.192 7.988.02.102.031.203.047.3-2.77.395-5.39 1.223-8.246 1.262-3.086.04-5.883-.68-8.813-1.43-.543-2.671-.844-5.39-.77-8.183.493-.09.958-.332 1.376-.605.101-.067.207-.133.308-.203" fill="#f8bf85"/><path d="M82.125 45.719c-2.832 1.922-5.97 3.213-9.363 3.719-4.2.627-9.282-.3-13.739 2.123-10.241 5.57-9.855 19.478-5.902 28.33 4.29 9.594 12.652 15.809 22.242 19.453l3.148 2.523c-.074 1.495.286 3.218.686 4.588.205.704.877 1.061 1.451 1.319.532.234 1.145.465 1.746.469l.375 1.18c-.906.874-2.203 1.492-3.68 2.003-4 1.387-8.5 1.766-12.187.031a32.613 32.613 0 01-.097-3.277c.492-.309 1.145-.184 1.881-1.314 1.187-1.824.821-4.534.38-6.014-.211-.708-1.03-1.553-2.186-2.731-2.543-1.677-3.954-2.261-5.704-3.269-2.313-1.328-4.54-2.828-6.54-4.598-1.863-1.648-3.546-3.523-4.886-5.625-1.16-1.812-1.844-3.789-2.785-5.703.266-.293.453-.636.605-1.015.102-.25-.316-.422-.43-.184-.3.617-.913 1.082-1.58 1.264-2.821-2.647-4.684-1.938-6.462-.936-2.024-1.043-3.793-2.324-4.801-4.445-1.227-2.578-1.195-5.684-.688-8.434.508-2.773 2.102-5.25 5.235-5.125 2.453.098 4.172 1.778 5.441 3.7.266 1.507.668 2.98 1.305 4.3.086.176.383.094.367-.097-.258-3.461-1.172-6.809-1.273-10.309-.102-3.422.43-6.71.68-10.094 7.32.614 15.007-.101 21.722-2.972 5.492-2.348 11.367-7.008 13.29-12.985.237 1.653.577 3.297.702 4.957.188 2.47.184 4.938.074 7.41-.02.395.5.583.766.317 2.961-2.95 5.957-6.926 6.9-10.835 1.387 2.977 2.61 6.318 3.721 9.233-.723-1.031-2.543-3.191-2.543-3.191-1.154 0-5.152 4.391-7.871 6.234z" fill="#d78a5e"/><path d="M180.539 144.391a22.436 22.436 0 00-1.492-2.168c9.559-27.789 18.586-55.793 26.367-84.117a34.6 34.6 0 012.777.941c-2.699 7.746-5.37 15.5-7.988 23.274-6.09 18.113-11.82 36.347-17.406 54.62-.758 2.481-1.508 4.97-2.258 7.45" fill="#fff"/><path d="M129.489 169.75c-1.238-.656-2.363-1.52-3.437-2.418a74.67 74.67 0 01-5.844-5.492 84.61 84.61 0 01-5.504-6.324c-1.531-1.95-2.828-4.586-4.664-6.258l-1.123.161c-.01.57-.023 1.14-.037 1.71-.164 6.395-.563 12.774-.227 19.172.305 5.719 1.36 11.367 2.88 16.887 2.56 9.155 5.6 17.196 6.605 25.937-4.168 2.057-8.988 3.556-13.176 4.188-4.955.748-9.317.86-13.82.137a116.52 116.52 0 00-1.989-8.399c-1.67-5.582-3.188-10.248-5.336-15.027-.175 4.147-.25 8.55-.476 12.14-.234 3.532-.777 7.055-1.117 10.583-5.2-.008-10.741-.788-15.352-1.915a67.353 67.353 0 01-15.078-5.687c.59-2.035 1.055-4.117 1.531-6.129.836-3.512 2.02-7.445 1.918-11.101l1.41-20.043c-.183-5.328-1.406-10.79-2.57-15.953-1.223-5.418-2.808-10.743-4.098-16.141l-1.004-.237c-.985 1.201-1.916 2.45-2.831 3.643a126.626 126.626 0 00-9.637 14.504c-1.334 2.343-3.008 4.879-3.817 7.504l.309 1.43c2.734 1.78 4.968 4.173 7.332 6.668 1.531 1.617 3.3 3.37 5.305 4.601-2.844 2.664-4.32 7.899-3.918 11.785-3.14-1.398-6.184-2.972-9.067-4.93-2.148-1.46-4.18-3.081-8.31-6.929-4.307-4.941-7.112-7.414-7.471-11.148-.383-3.989 2.102-7.614 4.05-10.875 3.888-6.516 7.794-13.024 12.013-19.337 4.148-6.199 8.523-12.519 13.77-17.851 2.538-2.582 5.464-4.91 8.96-6.024 2-.632 4.164-.82 5.996-1.765l1.84-1.343c1.262-2.25 2.902-3.696 5.02-4.919.12.72-.002 1.244-.207 1.876-.479.36-1.005.68-1.477.972.008-.188.012-.375.027-.567.02-.27-.422-.328-.476-.062-1.61 7.629 1.492 15.547 4.094 22.598a193.36 193.36 0 004.437 10.972c1.273 2.89 2.711 6.492 5.383 8.375 2.442-2.947 3.865-7.783 4.621-10.793a49.91 49.91 0 001.453-10.777c.184-7.055-.91-15.133-4.457-21.352-.082-.144-.316-.047-.27.114.165.527.329 1.046.497 1.57-.426-.184-.872-.332-1.27-.543-.293-.152-.574-.367-.879-.504-.097-.832-.297-1.656-.402-2.488a.32.32 0 00.12.105c2.72 1.098 4.852 2.281 6.727 4.606l2.704 2.215c1.945.625 4.093.851 6.003 1.554 2.715 1 5.266 2.399 7.59 4.11 13.04 11.169 22.38 27.333 31.641 39.8.417.372.789.758 1.363.762 1.79-.637 3.563-1.332 5.45-1.734 2.87-.617 5.785-.965 8.695-1.332 5.261-.66 10.554-1.36 15.289-3.875.023.55.254.949.562 1.48a.325.325 0 00.18.324c.598 1.059 1.129 2.121 1.547 3.274.406 1.12.707 2.289.887 3.469.164 1.078.039 2.171.445 3.191.016.043.047.066.074.098-1.332.535-2.656 1.078-4.38 1.775-4.522 1.815-8.659 3.385-13.007 4.49a82.58 82.58 0 01-8.933 1.75c-3.188.442-6.57.285-9.72 1.016-1.081-.512-2.272-.699-3.347-1.274z" fill="#e83f54"/><path d="M79.598 103.945c.105.832.304 1.657.402 2.489.64.532 1.337.99 2.148 1.046-.168-.524-.332-1.043-.496-1.57-.046-.16.188-.257.27-.113 2.793 4.899 4.062 10.945 4.387 16.742 2.822-.595 5.655-1.296 7.816-2.329 2.74-1.31 4.431-3.116 5.752-5.534a29.638 29.638 0 00-4.72-2.25c-1.913-.709-4.069-.93-7.36-2.662-2.358-2.653-5.058-5.11-8.2-5.819zm-23.934 8.637c-1.586.504-3.047 1.27-4.418 2.184 1.996 2.113 4.352 3.77 7.422 5.289 3.324 1.516 6.387 2.343 9.508 2.843-1.715-5.25-2.918-10.758-1.785-16.125.058-.266.492-.207.476.063-.015.192-.02.38-.027.57.538-.313 1.003-.647 1.476-.98.317-.604.466-1.303.207-1.871-2.118 1.223-3.757 2.664-5.939 5.588-2.756 1.618-4.92 1.807-6.92 2.439zm-3.422 24.145a49.465 49.465 0 01-2.254 3.05c2.427 10.1 5.947 20.841 6.664 32.094l-1.41 20.043c.081 5.406-2.253 11.508-3.449 17.23a68.02 68.02 0 0015.078 5.692 69.254 69.254 0 0010.395 1.715c1.652.14 3.305.175 4.957.195.18-1.856.409-3.71.629-5.566-4.282-.535-8.403-1.93-11.707-4.575-4.692-3.754-5.284-9.002-3.106-13.417 2.597-5.264 8.278-8.598 14.727-9.06l5.507-.554c3.476-.387 7.461-1.075 9.504-3.883-10.42-.41-21.472-2.266-29.875-8.828-10.359-8.094-10.046-23.14-15.66-34.136zm57.403 4.457c.263 2.683.394 5.378.394 8.074 1.836 1.668 3.133 4.308 4.664 6.258a83.781 83.781 0 005.504 6.32c1.852 1.93 3.794 3.782 5.844 5.496 1.074.898 2.2 1.758 3.437 2.418 1.075.575 2.266.761 3.348 1.273 3.152-.73 6.53-.573 9.719-1.015a82.59 82.59 0 008.933-1.75c4.348-1.105 8.485-2.674 13.006-4.488 1.725-.699 3.049-1.243 4.381-1.778-.027-.032-.06-.055-.074-.098-.406-1.02-.282-2.109-.446-3.19-.18-1.18-.48-2.35-.886-3.47-.418-1.153-.946-2.216-1.637-3.435-.394-.695-.63-1.093-.652-1.643-.13.07-.262.126-.395.192-.498 1.098-1.118 2.137-2.166 3.504-2.654 3.238-5.775 5.594-8.568 7.5-4.65 3.168-10.844 6.449-16.664 5.613-1.992-.285-3.93-.965-5.897-2.002-4.304-2.272-8.01-5.807-11.056-8.936-4.2-4.309-8.152-9.34-10.79-14.843zM17.21 163.207c-.305 1.12-.449 2.274-.336 3.461.359 3.739 3.164 6.206 5.285 9.049 1.547 1.3 2.89 2.885 4.38 4.217a58.198 58.198 0 006.12 4.812c2.88 1.958 5.922 3.532 9.059 4.93-.398-3.886 1.078-9.121 3.922-11.785-.172-.105-.332-.23-.5-.344-2.918 1.059-6.3.284-9.153-.688-4.609-1.57-8.836-4.278-12.597-7.332a40.138 40.138 0 01-2.108-1.845 34.196 34.196 0 01-1.412-1.387 33.191 33.191 0 01-2.66-3.088zm98.062 36.506c-4.939 5.954-16.418 10.848-25.535 11.627.516 2.028.997 4.062 1.407 6.11 1.16.186 2.324.354 3.492.421 3.451.19 6.913.002 10.324-.558a49.763 49.763 0 009.219-2.461c1.363-.504 2.672-1.097 3.957-1.727a66.202 66.202 0 00-1.637-8.96 142.617 142.617 0 00-1.227-4.452z" fill="#a32b3d"/><path d="M43.578 183.871c.617-2.011 1.723-3.714 2.563-5.62.008-.02.008-.04.011-.06 1.121.626 2.317 1.079 3.582 1.247a9.9 9.9 0 00-.156 1.394c-1.191 1.875-2.039 4.028-2.754 6.11-.508 1.48-.968 2.96-.914 4.492a117.33 117.33 0 01-3.304-1.367.295.295 0 00.035-.098c.222-2.074.312-4.086.937-6.098" fill="#a32b3d"/><path d="M36.918 64.95c1.836-1.707 4.29-.157 5.602 1.457 1.668 2.047 2.558 4.87 2.683 7.484.016.313-.402.316-.504.07-1.312-3.203-2.527-10.422-7.613-8.726-.164.054-.293-.172-.168-.285m36.5 54.523c2.477.313 4.988.344 7.434-.207.16-.035.226.2.066.246-2.523.73-4.977.899-7.531.203-.125-.035-.106-.258.031-.242m10.988 41.68c1.29.324 1.88-.953 1.606-2.004-.2-.746-.738-1.606-1.457-2.016-.016.012-.031.028-.047.035-.953.36-1.902.516-1.879 1.817.016.984.836 1.926 1.777 2.168m-2.699-2.528c.102-.875.922-1.984 1.836-2.156a.245.245 0 01.184-.09c1.582-.117 2.98 1.512 3.214 2.973.243 1.516-.859 3.02-2.484 2.766-1.605-.246-2.941-1.856-2.75-3.492m4.363 16.527c.489.199 1.106.273 1.575-.028.609-.39.464-1.175.234-1.785-.324-.855-.797-1.53-1.531-2.011-.461.293-.992.472-1.29 1.043-.538 1.02-.05 2.351 1.012 2.78m-2.152-2.237c.133-1.079 1.563-3.079 2.832-2.274.078.05.09.133.078.211 1.168.543 1.938 1.898 2.168 3.129.3 1.64-1.23 2.531-2.71 2.23a2.98 2.98 0 01-2.368-3.296m-.148 11.074c.164 1 1.27 1.972 2.289 1.941 1.425-.043 1.652-1.52 1.113-2.574a3.25 3.25 0 00-1.367-1.375c-.883.457-2.254.676-2.035 2.008m1.129-2.688c.054-.12.171-.226.335-.203.149.027.293.09.438.09h.066c.09 0 .168.059.23.113 1.227.434 2.192 1.406 2.427 2.766.261 1.504-.782 2.847-2.336 2.879-1.528.03-3.012-1.274-3.285-2.754-.262-1.403.824-2.582 2.125-2.89m14.75 7.691c2.554 1.066 4.847 2.808 7.148 4.324 2.238 1.48 5.031 2.855 6.844 4.848.09.097.004.289-.14.242-2.556-.871-4.9-2.86-7.15-4.325-2.316-1.507-4.85-2.917-6.847-4.843-.098-.098.004-.305.145-.246m-38.25 8.339c3.664-2.906 7.093-5.769 10.414-9.07.152-.152.441.051.308.238-2.586 3.692-6.37 7.192-10.398 9.258-.254.13-.578-.226-.324-.426m-42.071-30.66c.52-.922 1.278-1.695 2.055-2.41.18-.168.52.055.36.278-.634.867-1.321 1.722-2.192 2.359-.14.097-.297-.094-.223-.227m1.106 1.782c.379-.723.992-1.32 1.527-1.926.105-.117.293.031.215.164-.418.695-.805 1.457-1.383 2.039-.187.187-.477-.05-.36-.277m110.926-3.649c.016-.168.27-.172.27 0-.012 1-.004 2.024-.16 3.012-.016.125-.195.086-.203-.028-.075-.988.027-1.996.093-2.984m-1.582-.129c.016-.176.27-.183.274 0 .015.84.039 1.672-.125 2.496-.031.145-.219.094-.235-.03-.093-.821 0-1.645.086-2.466"/><path d="M16.875 166.668c.36 3.735 3.164 6.207 5.277 9.032.012.011.004.023.012.035 1.543 1.281 2.887 2.867 4.375 4.199 1.938 1.73 3.969 3.352 6.117 4.812 2.883 1.958 5.922 3.532 9.067 4.93-.403-3.887 1.074-9.12 3.918-11.785-2.004-1.23-3.774-2.984-5.305-4.602-3.531-3.726-6.773-7.226-11.824-8.796-.239-.075-.207-.461.058-.45 1.489.067 2.856.496 4.125 1.145.809-2.621 2.485-5.156 3.817-7.5a126.933 126.933 0 019.637-14.504c1.921-2.504 3.91-5.25 6.324-7.3.12-.102.32.027.226.175-.808 1.293-1.75 2.512-2.715 3.719 1.29 5.398 2.875 10.722 4.098 16.14 1.164 5.164 2.387 10.625 2.57 15.953 2.012-.004 4.082.118 6.028.22 1.617.085 3.84.195 5.176 1.284.953.551 1.675 1.649 1.742 2.684.14 2.219-3.438 2.266-4.995 2.069a53.683 53.683 0 00-2.982-.05c3.738.387 7.395 1.383 7.543 3.817.363.707.356 1.48-.527 2.023-.492.305-1.149.371-1.79.36.391.277.704.656.887 1.175.278.805-.093 2-.875 2.332-.796.852-2.605.575-3.699.528a96.781 96.781 0 00-1.117-.04c1.238.465 2.43 1.215 3.145 2.044.671.78.757 2.379-.317 2.582-.515.539-1.37.476-2.265.347-2.399-.34-5-.652-7.364-1.332.102 3.657-1.082 7.59-1.918 11.102-.476 2.012-.941 4.094-1.535 6.129a68.194 68.194 0 0015.082 5.691 69.26 69.26 0 0010.395 1.715c1.652.14 3.304.176 4.957.195.34-3.527.883-7.05 1.117-10.582.223-3.39.297-6.785.402-10.18l.074-1.96.653 1.453c1.914 4.386 3.414 8.988 4.683 13.574.766 2.773 1.43 5.578 1.993 8.398 1.16.188 2.324.356 3.492.418a47.33 47.33 0 0010.324-.554 50.064 50.064 0 009.219-2.457c1.367-.508 2.672-1.102 3.957-1.73a66.052 66.052 0 00-1.637-8.962c-1.457-5.718-3.398-11.293-4.969-16.976-1.52-5.516-2.578-11.168-2.879-16.887-.336-6.398.063-12.777.227-19.172.086-3.422.113-6.871-.184-10.285-.328-3.766-1.308-7.277-2.285-10.906-.05-.188.23-.32.324-.137 2.559 5.086 3.09 11.453 3.27 17.066.023.797.035 1.594.035 2.391 1.832 1.672 3.133 4.309 4.664 6.258a85.516 85.516 0 005.504 6.324c1.856 1.926 3.79 3.773 5.844 5.492 1.074.899 2.195 1.762 3.437 2.422 1.075.57 2.266.758 3.328 1.277.012-.004.024-.011.04-.015 3.128-.719 6.511-.567 9.703-1.008a82.694 82.694 0 008.93-1.75c4.347-1.105 8.484-2.672 12.609-4.332-.18-2.227-.367-4.422-.88-6.61-.433-1.855-1.276-3.66-1.515-5.542-.02-.149.184-.157.254-.067 1.285 1.676 1.777 4.059 2.219 6.086.41 1.895.687 3.867.715 5.813 1.328-.535 2.652-1.078 3.984-1.614-.027-.03-.058-.054-.074-.097-.402-1.016-.281-2.114-.445-3.192-.18-1.18-.48-2.347-.887-3.472-.418-1.149-.95-2.211-1.547-3.27a.331.331 0 01-.18-.324c-.308-.531-.539-.93-.558-1.48-4.739 2.515-10.032 3.214-15.293 3.874-2.91.368-5.824.715-8.696 1.332-1.886.403-3.66 1.098-5.449 1.735-.09.191-.351.297-.574.203-.766.262-1.535.512-2.324.719-.266.066-.504-.285-.281-.48.542-.477 1.16-.864 1.816-1.204-6.91-9.262-13.25-18.937-20.379-28.035-3.34-4.266-6.871-8.531-11.262-11.766a30.763 30.763 0 00-7.59-4.109c-1.91-.703-4.058-.93-6.003-1.555 2.57 4.004 4.714 8.27 7.171 12.332.094.153.051.328-.054.453-1.504 1.739-3.063 3.73-4.895 5.149.754.758 1.492 1.531 2.235 2.297.968 1.004 2.09 1.984 2.89 3.125 1.457 2.07.528 4.765-.39 6.883-2.114 4.875-6.91 9.183-12.38 9.5-.32.02-.347-.434-.074-.528 5.02-1.758 9.282-4.297 11.493-9.379.476-1.097.933-2.308 1.043-3.511.18-2.016-.946-2.957-2.164-4.313-1.739-1.937-3.52-3.875-5.094-5.95-.121-.16.129-.323.265-.202.602.54 1.19 1.096 1.762 1.668.649-.953 1.461-1.77 2.246-2.614.856-.918 2.364-1.855 1.907-3.148-.41-1.152-1.5-2.371-2.137-3.437-.754-1.266-1.492-2.536-2.242-3.805-1.344-2.281-2.554-4.72-4.286-6.735-1.968-2.29-4.622-3.745-6.847-4.715.105.837.304 1.66.402 2.493.305.137.586.351.879.504.398.21.848.36 1.27.543-.168-.524-.332-1.043-.497-1.57-.046-.16.188-.258.27-.114 3.547 6.219 4.64 14.297 4.457 21.352a49.94 49.94 0 01-1.453 10.777c-.852 3.414-1.961 7.414-4.098 10.277.2.313-.215.735-.52.516-2.675-1.883-4.113-5.488-5.386-8.375a190.41 190.41 0 01-4.437-10.973c-2.602-7.05-5.704-14.968-4.094-22.597.054-.266.496-.211.476.062-.011.192-.015.38-.027.567.3-.192.61-.372.906-.567.203-.137.383-.281.57-.406.063-.16.181-.432.217-.66.062-.4-.015-.873-.009-1.215-2.118 1.223-3.758 2.668-5.02 4.918-1.496 2.66-2.262 5.64-3.332 8.48-.398 1.043-.824 2.078-1.352 3.063-.23.426-.863 1.097-.8 1.562.07.528 1.125 1.094 1.539 1.414 2.047 1.567 4.46 2.637 6.488 4.192.57-.461 1.14-.922 1.719-1.383.168-.133.492.047.332.254-1.707 2.23-3.938 4.031-6.313 5.516-1.12.703-1.523.91-1.008 2.316.196.527.579 1.047.872 1.516a26.584 26.584 0 002.695 3.632c3.887 4.407 8.941 7.176 14.476 8.97.278.085.157.46-.117.421-6.238-.906-11.926-4.688-15.86-9.531a27.745 27.745 0 01-2.405-3.457c-.434-.735-1.508-2.14-1.266-3.086.293-1.164 2.352-1.832 3.242-2.43 1.09-.73 2.121-1.531 3.145-2.348-3.23-.812-6.305-3.421-8.7-5.57a.49.49 0 01-.074-.582c2.278-3.617 3.13-7.766 4.88-11.605-1.837.945-4 1.132-6 1.77-3.493 1.109-6.419 3.437-8.958 6.019-5.246 5.332-9.62 11.652-13.77 17.851-4.218 6.313-8.124 12.82-12.011 19.336-1.945 3.262-4.434 6.887-4.05 10.875m29.948 20.274c.715-2.082 1.563-4.235 2.75-6.11.028-.441.07-.922.16-1.394-1.265-.164-2.46-.621-3.582-1.246-.004.02-.004.039-.011.058-.84 1.906-1.946 3.61-2.567 5.621-.62 2.012-.71 4.028-.95 6.147 1.072.521 2.177.974 3.286 1.416-.054-1.531.407-3.012.914-4.492zm7.559-15.004c.445-.028.906-.035 1.367-.043-1.062-5.453-1.633-10.989-2.86-16.422-.62-2.758-1.335-5.492-2.085-8.219-.61-2.223-1.278-4.558-1.293-6.887-.75.938-1.508 1.872-2.215 2.829-1.854 2.5-3.63 5.057-5.324 7.668a143.835 143.835 0 00-4.653 7.699c-1.285 2.293-2.324 4.894-3.843 7.058 1.945 1.164 3.656 2.817 5.195 4.442 1.574 1.66 3.063 3.406 4.762 4.945 1.968 1.79 4.015 2.926 6.437 3.867.23-.785.617-1.484 1.301-1.836-.816-.715-1.043-1.883-.61-2.941.614-1.484 2.348-2.063 3.821-2.16zm12.129 13.289c-.5-.61-1.387-.918-2.191-1.207-.427-.172-.778-.29-1.122-.426a249.59 249.59 0 00-4.566-.484c-1.77-.164-3.684-.047-5.371-.614-.18-.058-.2-.332 0-.386 1.82-.485 3.902-.106 5.746.12 1.48.18 2.93.45 4.375.786.82.117 1.648.207 2.465.254.441.023 1 .117 1.437.011.793-.19 1.04-.585 1.02-1.027-1.125-2.308-3.906-2.61-6.313-2.953-2.64-.383-5.316-.496-7.965-.797-.375-.043-.394-.586 0-.601.215-.004.512-.016.86-.024 1.984-.605 4.203-.566 6.262-.625 1.789-.05 3.718-.176 5.503.164 1.032-.281 2.016-.719 1.985-1.418-.043-.949-.79-1.574-1.567-2.074-.855-.176-1.707-.465-2.578-.57-1.543-.192-3.093-.13-4.648-.114-1.387.016-2.762-.058-4.149-.12-.773-.032-1.59-.071-2.355.12-1.594.399-3.094 2.168-1.578 3.61.066.012.11.062.113.129.074.125-.012.285-.137.336-.425.875-.914 1.617-1.113 2.632-.27 1.352-.27 2.81-.312 4.184-.082 2.566.058 5.148-.188 7.711-.058.578-.898.598-.918 0-.098-3.008.207-6.035.313-9.047-.871 2.074-1.778 4.137-2.348 6.332-.578 2.223-.484 4.031 1.184 5.79 1.28 1.351 2.644 2.062 4.433 2.163.219-.058.438-.105.656-.148.344-1.77.743-3.52 1.356-5.16-.145-.043-.29-.082-.434-.133-.398-.133-.355-.785.106-.77 1.242.051 8.312 1.938 10 1.38 1.324-1.395-3.54-3.356-4.848-4.087-2.07-.125-4.18-.386-5.953-1.113-.203-.086-.18-.367.055-.39 2.093-.184 4.304.3 6.402.445 1.168.082 3.904.56 5.702.123.924-.48 1.349-1.19.681-2.002zm-12.801 80.07c.145 2.031.356 4.07.57 6.117 7.812 1.616 16.357 2.596 23.29 2.828 7.16.24 14.331-.011 21.472-.59 5.695-.456 11.66-.847 17.133-2.675.805-6.965 1.484-13.938 1.84-20.957.297-5.918.422-11.84.383-17.766-.043-5.898-.54-11.816-.47-17.715-4.1 2.004-8.698 3.254-12.976 3.934-3.305.53-6.656.72-10 .566a70.206 70.206 0 01-3.539-.238l-1.058-.129-.266-1.398a120.84 120.84 0 00-1.86-7.97c-1.035-3.82-2.32-7.526-3.69-11.21.03 2.816-.071 5.633-.24 8.445-.194 3.34-.358 6.844-.89 10.223l-.195 1.117-1.09.043c-5.121.13-10.457-.781-15.223-1.953a63.53 63.53 0 01-13.847-5.195c.183 6.105-.336 12.261-.399 18.375-.058 6.027-.035 12.054.145 18.082.176 6.027.48 12.05.91 18.066zm3.75 30.016c.075 7.188.24 14.374.496 21.558.258 7.184.606 14.364 1.043 21.54.297 4.84.738 9.683 1.07 14.527l.063.965-1.324.28c-4.153.876-8.274 1.864-12.34 3.09.77 2.083 1.535 3.743 3.637 4.946 2.425 1.39 5.328 1.348 8.007.867 4.989-.89 9.414-3.258 14.184-4.754.074-7.3.313-14.605.457-21.863.25-12.988.574-25.977 1.059-38.953.27-7.149.425-14.328 1.035-21.457-2.938.445-6.192-.11-9.117-.445-2.82-.325-5.625-.754-8.414-1.266.335 6.965.066 13.996.144 20.965m-23.816 66.738c-2.9 1.312-6.418 3.723-4.473 7.227 3.758-.598 7.758-.375 11.559-.653 4.254-.308 8.5-.734 12.73-1.27 6.344-.8 12.938-1.745 18.8-4.425 0-1.102.016-2.203.024-3.305-2.543 1.418-5.582 2.336-8.304 3.207-3.051.977-6.27 1.95-9.512 1.817-3.43-.137-9.352-2.88-8.758-7.14-4.135 1.28-8.575 2.962-12.066 4.542zm65.004-48.601c.07 13.016-.337 26.03-1.22 39.015-.093 1.36-.198 2.719-.3 4.074 4.441 2.25 8.863 4.192 13.766 5.258 2.46.535 5.183 1.059 7.66.278 3.293-1.04 4.265-3.606 3.558-6.688-5.085-1.764-9.546-3.033-14.16-4.391l.121-.808c.692-4.64 1.489-9.27 2.117-13.914a530.047 530.047 0 002.485-21.813 518.083 518.083 0 001.555-21.304c.359-6.79.207-13.7.855-20.469-2.875 1.168-6.102 1.523-9.145 2.086-2.933.543-5.902 1.223-8.875 1.531-.011 0-.019-.004-.035-.004 1.434 12.27 1.559 24.824 1.617 37.149m-2.183 51.152c2.004.437 4.004.918 5.992 1.281 4.488.82 9 1.516 13.527 2.07a230.018 230.018 0 0019.402 1.559c1.829.07 3.813-.07 5.61.356 2.168-4.008-3.156-6.778-6.09-8.567-2.945-1.793-6.058-3.293-9.254-4.578a91.649 91.649 0 00-2.77-1.059c.958 1.426.516 3.547-.437 4.907-1.55 2.215-4.382 2.972-6.96 2.93-6.149-.098-13.145-2.583-18.442-5.801-.19 2.497-.394 4.651-.578 6.902zm73.949-204.262c.313.137.703.18 1.05.09 1.47-4.187 2.93-8.379 4.376-12.574-.535-.988-1.035-1.945-1.617-2.535-.121-.121.058-.29.183-.18 1.52 1.29 2.274 3.274 3.809 4.52 1.566 1.27 3.828.636 3.48-1.657-.18-1.18-1.058-2.136-1.707-3.093-1.699-2.223-3.808-4.758-6.324-5.625-4.094-1.407-4.574 2.46-5.152 5.562.262 2.2-.192 4.922-1.672 6.586.707 1.125 1.234 2.445 1.633 3.52.48 1.3 1.09 3.18 1.156 4.863.281.14.492.39.785.523zm-2.43 13.625c.88.918 1.872 1.676 3.016 2.235 1.188-3.942 2.414-7.875 3.566-11.801 1.29-4.387 2.594-8.77 3.907-13.152-.739-.426-1.328-1.168-1.852-2.016a2572.35 2572.35 0 01-4.93 14.066c-1.25 3.54-2.464 7.106-3.707 10.668m10.387-13.711c-.13-.332-.21-.68-.238-1.035-.098-1.21.09-2.91 1.273-3.379-.37-.326-.536-.72-.754-1.101-.511 1.707-1.02 3.418-1.527 5.125.38.275.838.312 1.246.39zm4.289.922c2.48-.254 4.14-2.136 4.016-4.523-1.031.488-2.238.672-3.332.648-1.13-.027-2.301-.281-3.242-.89-.813.832-1.055 1.972-.797 3.12.336 1.493 2.054 1.778 3.355 1.645zm5.531-9.425a5.581 5.581 0 01-.976.73c-1.945 1.133-5.918 1.547-7.469-.508-2.52 5.586 10.442 5.899 8.445-.223m-5.496-3.558c.394 2.222-.456 2.782-2.129 3.324.536.195 1.043.45 1.606.594a6.455 6.455 0 003.34-.047c2.469-.707 3.945-2.89 3.316-5.332-1.691 1.195-4.242 1.621-6.133 1.461zm.598-8.824c-.371 1.21-.738 2.421-1.105 3.632.503-.273 1.097-.449 1.601-.597 1.008-.297 2.047-.406 3.086-.246.14.023.113.226 0 .261-.945.301-1.906.532-2.844.864-.71.25-1.433.734-2.191.855l-.422 1.39c.379.5.719 1.079.965 1.673 2.453-.118 7.426-.383 7.133-3.895-.27-3.172-3.864-3.32-6.223-3.937zm24.898-80.321c-.91-.355-1.835-.66-2.777-.941-7.781 28.324-16.808 56.328-26.367 84.117a22.927 22.927 0 011.492 2.168c.75-2.484 1.496-4.965 2.258-7.45 5.586-18.273 11.316-36.507 17.406-54.62 2.617-7.774 5.29-15.528 7.988-23.274zm-31.625 80.614c.555.445 1.086.945 1.579 1.484.187-.547.375-1.098.566-1.649-.73.05-1.475.107-2.145.165zM67.809 117.466c.863 3.816 2.187 7.546 3.586 11.28a215.112 215.112 0 004.34 10.704c.664 1.515 1.34 3.03 2.148 4.48.75 1.344 1.707 2.512 2.586 3.758.976-3.172 2.476-6.156 3.32-9.399a50.644 50.644 0 001.602-11.14 51.14 51.14 0 00-.692-10.188c-2.476 1.477-5.86 1.825-8.656 1.848-2.715.02-5.664-.324-8.234-1.344M39.465 79.219c-.59 1.559.238 3.29 1.848 3.766 1.578.468 3.226-.633 3.507-2.219.442-2.469-2.636-3.738-4.082-1.7-.086.122-.277.052-.242-.1.172-.723.567-1.212 1.067-1.497-.918.2-1.735.785-2.098 1.75zm7.674-1.492c.114-.238.532-.07.43.18-.148.378-.34.726-.601 1.019.937 1.914 1.621 3.89 2.781 5.703 1.344 2.102 3.024 3.977 4.89 5.625 2 1.77 4.223 3.27 6.536 4.598 1.75 1.008 3.691 1.812 5.457 2.84.293.14.566.304.805.496.234.152.46.304.683.469.121.09.13.234.067.335.379.528.668 1.153.875 1.86.441 1.476.78 3.797.125 5.3-.004.028-.008.06-.016.083.046.06.067.135.059.21-.043.258-.415.642-.708.877-.498.402-1.226.768-1.718.858-.074 2.793.226 5.512.77 8.184 2.933.75 5.726 1.468 8.812 1.43 2.855-.04 5.476-.868 8.246-1.263-.02-.097-.027-.199-.047-.3-.508-2.75-1.348-5.356-2.191-7.989-.602-.004-1.215-.23-1.746-.468-.575-.258-1.38-.59-1.451-1.319-.46-1.084-.67-2.381-.694-3.642-1.8-.172-3.5-.946-4.645-2.387-.085-.11.032-.313.165-.21 1.363 1.03 2.824 1.815 4.484 2.179 0-.176-.008-.356.004-.528-.91-.14-1.742-.472-2.57-.89-.664-.336-1.668-.7-2.016-1.403a25.547 25.547 0 01-1.734-.43c-.157-.042-.09-.269.066-.238 7.281 1.38 14.934.47 21.305-3.527 3.34-2.094 5.82-5.074 6.62-8.996.727-3.574.196-7.305-.323-10.867-1.02-7.04-2.047-14.094-3.672-21.028-1.672-7.144-4.2-13.792-7.313-20.421-.215-.45.406-.832.676-.395 6.508 10.555 8.64 23.727 10.473 35.781.84 5.54 2.289 11.61 1.109 17.192-1.137 5.394-5.293 9.02-10.156 11.187-3.528 1.57-7.477 2.364-11.403 2.348 0 1.043-.093 2.074-.035 3.117.22.078.438.152.665.234 3.523.258 6.402 3.54 8.245 6.27 2.293-.258 4.942.7 7.024 1.469a31.634 31.634 0 015.8 2.832c12.9-7.215 11.56-24.129 10.028-36.711a168.065 168.065 0 00-10.593-41.52c-1.473-3.71-3.035-7.414-4.844-10.976-1.593-3.14-3.605-5.996-7.05-7.176-.13.04-.309-.012-.334-.186-.074-.132-.035-.262-.014-.396 0 0-.154-.261-.316-.32-8.73-3.12-17-6.418-26.368-7.008-7.996-.504-16.347 1.086-23.05 5.644-16.02 10.899-13.68 33.836-12.57 50.649.744 11.289 2.131 22.504 3.744 33.695.094.625-.668.957-1.011.621-3.125-.207-6.055-1.332-8.664-3.015 2.593 4.578 6.125 8.582 10.308 11.789a40.36 40.36 0 007.598 4.578c2.847 1.316 5.777 1.96 8.734 2.894 1.992-1.863 4.223-3.511 6.735-4.59 2.828-1.214 6.09-1.167 8.765-2.695 1.332-2.41 3.43-4.87 6.153-5.504 0-.308-.004-.62-.036-.925-.148-1.454-.609-2.946-1.503-4.114-2.313-.726-4.57-2.086-6.618-3.285-2.359-1.383-4.632-2.953-6.66-4.793-3.11-2.82-6.699-7.062-7.156-11.457-.24.166-.5.303-.774.406.383 2.063-1.25 4.184-3.41 4.371-2.496.215-4.543-2.195-3.949-4.613.098-.394.25-.742.438-1.058-2.704-.133-4.735-2.454-5.727-4.82-1.328-3.173-1.3-7.473-.031-10.673 1.043-2.636 3.457-4.156 6.305-3.703 1.988.317 3.593 1.547 4.671 3.16-.18-1.476-.261-2.964-.308-4.367-.113-3.43.047-7.203 1.172-10.488a63.618 63.618 0 01-3.387-.402c-.277-.043-.2-.473.062-.477 8.122-.05 16.208.445 23.95-2.531 3.527-1.356 6.793-3.34 9.465-6.028 2.363-2.375 3.832-5.085 5.16-8.066-.02-.266-.04-.527-.051-.793-.02-.46.598-.473.75-.101.855 2.156 1.004 4.765 1.187 7.062.172 2.211.18 4.426.047 6.637 3.715-3.711 7.094-8.024 6.395-13.617-.024-.168.258-.207.293-.043 1.25 6.074-2.863 11.113-6.89 15.12-.266.266-.786.079-.77-.316.113-2.472.117-4.941-.07-7.41-.126-1.66-.466-3.309-.7-4.957-1.926 5.977-7.8 10.637-13.293 12.984-6.715 2.872-14.398 3.582-21.723 2.973-.25 3.383-.78 6.672-.68 10.094.102 3.5 1.016 6.844 1.274 10.308.016.192-.281.274-.363.098-.645-1.32-1.043-2.793-1.313-4.3-1.261-1.923-2.98-3.602-5.437-3.7-3.133-.125-4.73 2.352-5.238 5.125-.5 2.75-.535 5.856.691 8.434 1.008 2.12 2.777 3.402 4.805 4.445 1.125-1.434 3.206-1.757 4.968-.656.615.384 1.092.815 1.387 1.375.04.07.067.148.105.217.665-.182 1.282-.647 1.578-1.264zm-31.326 85.824c.59-2.824 2.16-5.347 3.617-7.793a947.383 947.383 0 015.027-8.363c3.446-5.656 6.996-11.25 10.844-16.64 3.238-4.548 6.629-9.196 10.61-13.15-5.708-.788-11.551-4.089-15.993-7.491-5-3.825-9.008-8.73-11.863-14.336-.316-.621.406-1.121.922-.711 2.879 2.297 6.133 3.59 9.664 4.441a344.233 344.233 0 01-3.656-30.73c-.743-10.133-1.559-20.668-.149-30.774 1.168-8.394 4.477-16.71 11.227-22.152 6.187-4.988 14.293-7.248 22.156-7.344 10.414-.127 20.977 3.184 30.344 7.563.11-.078.254-.09.363.03.234.255.383.634.348.977 5.742.977 8.32 8.465 10.351 13.067a165.24 165.24 0 017.887 21.933 167.528 167.528 0 014.746 23.024c.996 7.453 1.93 15.262.73 22.742-1.082 6.742-4.511 13.617-10.718 16.899.086.058.183.113.27.175 4.558 3.149 8.222 7.356 11.644 11.664 7.457 9.391 14.36 19.38 21 29.371 1.445-.625 3.027-1.027 4.484-1.386 2.63-.645 5.313-1.02 7.992-1.364 5.95-.761 11.926-1.421 17.528-3.707.238-.093.41.172.355.375.219.188.422.403.617.633.383-.855.848-1.68 1.133-2.582.13-.402.238-.808.34-1.219.246-3.257-.098-8.632 4.504-8.777 1.234-.039 2.406.383 3.492 1.063 1.042-.566 2.374-.507 3.442-.555 6.238-18.383 12.152-36.867 17.96-55.387 2.622-8.363 5.243-16.73 7.872-25.09l.367-1.172.465.141c.964.313 1.91.68 2.82 1.082l.652.3-.336 1.017c-8.761 26.32-17.246 52.738-25.343 79.273 3.152-.379 7.289 1.527 7.078 5.156-.067 1.098-.582 1.965-1.348 2.637 1.23 1.57.574 3.602-.71 5.004.85 1.137.73 2.644-.095 3.824-.3.426-.675.77-1.093 1.05 1.28 3.641-2.782 6.446-6.164 6.009-1.122-.141-2-.625-2.528-1.422-.387.13-.803.148-1.199.05-.203-.05-.4-.125-.586-.222-.074.242-.148.484-.219.726a2630.683 2630.683 0 00-4.464 15.282l-.25.879-1.235-.422a10.41 10.41 0 01-3.14-2.008l-1.004-1.125.441-1.188c.866-2.32 1.715-4.647 2.547-6.98.555-1.57 1.105-3.145 1.656-4.715a1.54 1.54 0 01-.933.031 1.904 1.904 0 01-.684-.351 4.06 4.06 0 01-.242 1.047c.144.066.187.316.027.418-5.379 3.504-11.727 5.671-17.91 7.234-3 .758-6.035 1.336-9.102 1.746-3.039.402-6.472 1.008-9.515.438a.272.272 0 01-.16-.09c-2.082.582-4.598-1.196-6.13-2.39-2.28-1.778-4.378-3.852-6.402-5.911a89.97 89.97 0 01-6.218-7.031c-1.235-1.555-2.887-3.324-3.93-5.188-.098 5.153-.567 10.297-.637 15.45-.09 6.566.98 12.773 2.793 19.062 1.668 5.777 3.688 11.453 5.227 17.27.828 3.148 1.554 6.394 1.93 9.664l.12 1.226-.742.39c.86 5.696.864 11.602.942 17.352.085 6.175-.03 12.352-.344 18.52-.34 6.797-.867 13.644-1.707 20.441l-.113.934c-.51.193-1.052.393-1.551.578.55 6.977-.09 14.207-.457 21.184a522.788 522.788 0 01-3.973 42.613c-.656 4.883-1.273 9.828-2.14 14.707 7.187 1.676 14.32 3.754 20.992 6.926 3.523 1.675 7.144 3.648 10.097 6.222 1.707 1.485 3.91 5.502.979 6.895-1.307.621-8.547.144-12.401-.109a232.238 232.238 0 01-25.793-3.152c-3.015-.537-5.393-.916-8.152-1.513.323-3.898.802-7.988 1.031-11.371.422-6.363.739-12.734.957-19.109.446-12.879.43-25.773.012-38.652-.234-7.18-.785-14.352-.96-21.532-2.716.197-5.435.339-8.157.426-4.055.13-8.129.117-12.195-.058.039 12.875-.793 25.78-1.153 38.648-.36 12.98-.62 25.969-.793 38.957-.047 3.594-.046 6.737-.078 9.938l-1.484.824c-5.368 2.781-11.506 3.737-17.536 4.535-6.65.88-12.694 1.435-18.878 1.75-2.223.113-5.858.431-6.999-.097-2.439-1.132-1.592-4.565-.181-6.219 2.308-2.706 6.63-3.895 9.832-5.13 6.488-2.503 13.289-4.507 20.203-5.53-.414-4.645-.656-9.313-.945-13.946a856.031 856.031 0 01-1.078-21.926 821.913 821.913 0 01-.504-21.941c-.067-7.008-.297-14.145.254-21.145-.461-.16-.446-.718-.137-1.015-1.196-.234-2.166-.456-3.371-.73-.17-2.159-.314-4.472-.462-6.36a378.619 378.619 0 01-.96-18.832c-.164-6.153-.207-12.317-.047-18.469.152-6.008.152-12.195 1.078-18.14.008-.047.035-.063.059-.094-.352-.184-.703-.364-1.051-.551l-1.066-.606.222-.812c.543-1.945 1.137-3.879 1.602-5.824.398-1.668.691-3.414 1.02-5.153a6.178 6.178 0 01-.372.153c-2.281 1.754-6.312-2.934-6.832-4.875-.023-.098-.039-.196-.058-.293-5.004-1.363-9.758-3.84-14.028-6.746-2.058-1.395-4.043-2.922-5.883-4.598-1.785-1.625-3.867-3.473-5.007-5.644-3.692-2.774-6.317-7.348-5.328-12.028"/><path d="M78.707 226.063c5.621 2.894 11.324 5.562 17.117 8.094.168.07.047.363-.125.297-5.894-2.293-11.613-5.059-17.105-8.196-.125-.074-.016-.261.113-.195m-2.629 3.016c3.059 1.406 6.113 2.82 9.16 4.253.164.075.024.32-.14.243-3.043-1.435-6.08-2.883-9.11-4.344-.101-.047-.015-.2.09-.152m5.055-158.738c-2.305-.645-4.524-2.27-5.016-4.712-.043-.218.219-.316.352-.144 1.5 1.996 2.945 3.543 5.504 4.055.34.07.406.453.293.718-1.028 2.332-2.797 4.508-5.274 5.344-.363.125-.5-.375-.242-.574 1.828-1.38 3.336-2.692 4.383-4.688m-15.035 9.567c2.32 1.78 4.543 3.304 7.426 4.043 3.011.765 5.921.535 8.91-.184.332-.078.586.43.246.578-5.41 2.38-13.293.918-17.047-3.836-.238-.304.086-.894.465-.601m-2.563-26.211c.309.3-.11.89-.476.613-1.516-1.133-7.899-4.894-9.016-1.355-.117.375-.644.293-.672-.09-.156-2.172 2.215-2.45 3.871-2.227 2.371.324 4.586 1.383 6.293 3.059zm26.223-1.977c.308.352-.156.809-.512.512-2.547-2.152-6.777-5.266-8.976-.887-.137.274-.602.149-.586-.16.101-1.8 1.613-2.926 3.34-3.102 2.75-.28 5.042 1.72 6.734 3.637zm-32.82 5.508c.55.293 1.007.781 1.55 1.105.063.036.137.075.22.11.57-.719 1.5-1.117 2.41-.762.187.074.359.184.523.313 1.586.964 2.37 4.129 2.152 5.605-.16 1.09-.887 2.23-2.117 2.227-1.39-.004-2.305-1.57-2.813-2.653-.53-1.14-.992-2.62-.597-3.882a12.556 12.556 0 01-.348-.266c-.5-.387-1.098-.934-1.289-1.559-.059-.183.152-.32.309-.238m27.472-.336c.469-1.031 1.625-1.719 2.735-1.281.191.074.363.183.527.308.27.168.516.403.738.676a2.7 2.7 0 00.516-.336c.535-.453.8-1.011 1.031-1.652.133-.367.7-.328.703.094.008.996-.734 2.175-1.699 2.738.7 1.34 1.012 3.098.863 4.094-.164 1.086-.886 2.226-2.117 2.222-1.39-.004-2.305-1.57-2.812-2.652-.582-1.238-1.086-2.89-.485-4.211M58.055 69.352c.324.113.195.617-.145.52-1.199-.348-2.574-.625-3.687-1.204-.285-.144-.07-.515.199-.476 1.219.179 2.477.749 3.633 1.16zm35.797-.898c.136.074.043.304-.11.257-1.156-.375-2.347-.843-3.422-1.414-.175-.09-.054-.379.133-.316 1.156.375 2.324.902 3.399 1.473z"/><path d="M84.555 157.139c-.016.007-.032.021-.047.029-.953.36-1.902.516-1.88 1.816.017.984.837 1.927 1.778 2.164 1.29.33 1.879-.948 1.606-2-.195-.745-.735-1.604-1.457-2.01zm1.793 14.19c-.461.293-.992.475-1.29 1.038-.538 1.023-.05 2.355 1.012 2.785.493.2 1.105.274 1.575-.027.609-.391.464-1.175.234-1.781-.324-.86-.797-1.535-1.531-2.016zm-.543 10.651c-.883.457-2.253.676-2.035 2.008.169 1 1.269 1.973 2.289 1.942 1.425-.047 1.652-1.52 1.113-2.575a3.247 3.247 0 00-1.367-1.375zm-31.291-8.88c-.397.01-.791.047-1.174.142-1.594.4-3.094 2.169-1.578 3.61.064.01.111.064.113.128.074.13-.007.286-.137.336-.422.875-.913 1.617-1.113 2.633-.266 1.351-.267 2.81-.313 4.186-.085 2.566.063 5.147-.187 7.709-.055.578-.898.598-.918 0-.097-3.007.207-6.035.313-9.047-.872 2.075-1.778 4.137-2.352 6.332-.574 2.223-.48 4.032 1.184 5.789 1.285 1.352 2.648 2.063 4.441 2.164.216-.055.434-.105.652-.148.348-1.77.746-3.52 1.352-5.157-.141-.047-.289-.084-.426-.134-.402-.134-.363-.788.102-.772 1.242.05 8.312 1.938 10 1.379 1.324-1.394-3.539-3.355-4.848-4.086-2.07-.125-4.18-.386-5.953-1.113-.203-.086-.176-.367.05-.39 2.098-.184 4.313.3 6.407.448 1.168.082 3.926.618 5.656.266a.238.238 0 01.137-.172c.86-.395 1.258-1.164.59-1.976-.5-.61-1.386-.918-2.121-1.133a.222.222 0 01-.141-.149 9.985 9.985 0 01-1.047-.351c-1.524-.172-3.047-.345-4.574-.485-1.762-.164-3.68-.047-5.367-.613-.18-.059-.2-.332 0-.387 1.82-.485 3.902-.106 5.746.121a41.02 41.02 0 014.375.786 29.7 29.7 0 002.46.254c.45.023 1.005.116 1.442.011.797-.192 1.043-.585 1.02-1.027-1.125-2.308-3.906-2.61-6.313-2.953-2.64-.383-5.316-.496-7.965-.797-.375-.043-.394-.587 0-.602.22-.004.512-.015.86-.027 1.984-.601 4.201-.558 6.261-.621 1.79-.05 3.72-.176 5.504.164 1.032-.281 2.016-.718 1.985-1.418-.043-.949-.789-1.574-1.567-2.074-.859-.176-1.703-.466-2.574-.57-1.547-.192-3.097-.129-4.652-.114-1.387.016-2.763-.059-4.145-.12a17.828 17.828 0 00-1.185-.022z" fill="#f8bf85"/></svg>