<svg width="996" height="574" version="1.2" xmlns:xlink="http://www.w3.org/1999/xlink" xmlns="http://www.w3.org/2000/svg"><defs><linearGradient id="b"><stop offset="0" stop-color="#65abfe"/><stop offset="1" stop-color="#fff"/></linearGradient><linearGradient id="a"><stop offset="0" stop-color="#2ecc71"/><stop offset="1" stop-color="#27ae60"/></linearGradient><linearGradient xlink:href="#a" id="d" x1="0" y1="414" x2="0" y2="574" gradientUnits="userSpaceOnUse"/><linearGradient xlink:href="#b" id="c" x1="0" y1="0" x2="0" y2="550" gradientUnits="userSpaceOnUse"/></defs><path fill="url(#c)" d="M0 0h996v550H0z"/><path fill="url(#d)" d="M0 414h996v160H0z"/><ellipse cx="460.56" cy="489.88" rx="200.734" ry="22.554" fill-opacity=".2"/><path d="M393.766 283.299c-30.33-3.09-57.897-18.123-82.34-35.536-7.861-5.349-14.823-11.926-22.781-17.11-1.472-.778-3.049-1.522-4.745-1.564-6.499 1.356-3.208 9.854-1.947 14.224 3.637 11.048 9.61 21.178 17.165 29.993 13.573 16.638 30.218 30.88 49.136 41.101 2.426 3.728 8.73 1.69 12.85 2.544 12.004.085 25.339-.977 34.81-9.178 4.857-4.308 7.996-12.544 3.036-17.965z" fill="#5e4a6e"/><path d="M288.645 230.652c-1.472-.778-3.049-1.52-4.745-1.562-6.499 1.356-3.208 9.853-1.947 14.223 3.637 11.048 9.61 21.179 17.164 29.994.897 1.1 1.811 2.185 2.735 3.263-1.843-6.494-2.635-13.32-1.565-19.996.727-4.543 3.148-9.5 7.983-10.969-6.559-4.904-12.718-10.453-19.625-14.953z" fill="#fdfdfd"/><path d="M379.791 406.92c1.817 18.433 1.477 38.123 11.07 54.648 4.498 7.747 13.04 11.43 21.499 13.062 10.704 2.065 22.648 3.828 32.744-1.17 6.724-3.33 9.449-13.453 3.838-18.815-5.548-5.302-6.992-12.726-5.972-19.98-.173-15.467 3.083-32.767-6.093-46.28-8.409-12.382-26.889-14.001-39.771-7.988-12.429 5.802-14.212 15.243-17.315 26.523z" fill="#473551"/><path d="M582.027 386.357c-5.628 3.29-10.621 7.56-15.219 12.156-12.107 12.028-21.557 28.615-19.398 46.222 1.376 13.84 6.259 27.53 14.29 38.885 8.76 10.01 23.603 11.797 36.049 9.582 8.153-1.731 18.423-6.074 19.138-15.636-.324-12.863-14.9-20.923-13.179-34.239 1.079-10.701 5.684-20.614 8.147-31.015 2.921-9.632 6.272-19.175 5.397-27.853-11.777-6.873-25.691-3.832-35.225 1.898z" fill="#5e4a6e"/><path d="M588.062 447.164c-11.78.125-22.219 7.975-28.003 17.864-1.582 3.186-5.012 6.521-3.419 10.342 3.086 7.01 8.47 13.364 15.931 15.829 11.678 4.456 25.433 3.957 36.46-2.07 5.24-2.843 9.236-8.95 7.502-15.027-1.523-5.962-5.418-10.913-8.34-16.226-4.004-7.147-12.184-10.715-20.131-10.712z" fill="#ebebeb"/><path d="M603.332 469.909c2.818 4.011 4.582 9.261 5.262 14.034.059.413.188 3.095.27 5.272a13.156 13.156 0 002.448-1.604c-.268-2.614-.704-5.882-1.19-7.476-1.153-3.767-3.27-7.633-5.665-11.06-1.127-1.612-2.19-.683-1.125.834zm-15.234 3.753c2.493 3.643 3.74 7.909 4.326 12.192.243 1.774.332 5.344.246 8.115a44.36 44.36 0 002.383-.274c-.17-12.024-2.54-15.261-5.918-20.693-.894-1.438-1.664-.255-1.037.66z" fill="#543f61"/><path d="M545.63 287.057c-38.317.614-76.577-3.066-114.498-7.278-20.103-2.233-42.04-1.162-59.108 11.49-26.304 19.498-43.324 48.714-57.06 77.717-12.523 26.44-19.702 55.33-23.723 84.277-2.07 14.902 4.692 31.09 20.522 35.324 16.474 4.406 39.048 2.823 47.247-14.956 5.478-11.88-13.843-20.55-6.37-28.062 14.337-14.412 30.919-26.978 41.833-44.402 44.47 45.117 117.54 55.756 174.681 30.318 39.92-17.771 70.233-57.445 72.32-101.73.934-17.094 4.08-43.608-10.732-51.31-30.502 1.255-57.389 8.168-85.112 8.612z" fill="#664f75"/><path d="M307.106 387.847c-1.669 4.434-4.257 11.72-.694 4.247 17.207-30.316 35.56-61.996 65.06-81.983 18.474-12.517 42.226-16.337 63.638-10.007 20.414 6.035 41.212 11.506 62.686 11.596 29.824.126 61.812-6.677 84.197-27.523-47.017 5.74-94.82 3.502-141.556-3.404-9.118-1.347-18.21-1.07-27.415-1.535-20.985-1.06-41.115 8.837-55.248 23.991-22.574 24.206-38.887 53.833-50.668 84.618z" fill="#5e4a6e"/><path d="M316.604 443.033c-11.026 2.561-21.246 10.764-23.572 22.332-1.093 5.44.83 10.843 4.547 14.703 7.705 8.002 19.272 10.995 30.06 11.06 10.506.062 22.177-2.97 28.667-11.942 3.89-5.377 4.803-12.915 1.226-18.607-3.38-5.38-7.03-10.922-12.785-14.09-8.515-4.685-18.768-5.634-28.143-3.456z" fill="#fdfdfd"/><path d="M295.04 459.115a.05.05 0 00.012-.024.05.05 0 00.012-.024c-.006.018-.018.03-.024.048m300.575-133.454c-16.542 26.706-33.926 55.215-62.425 70.489-24.816 13.3-54.022 16.671-81.787 14.543-19.306-1.48-38.385-6.799-55.518-15.901-3.444 10.094 7.914 14.989 14.599 20.22 30.986 24.247 72.012 32.679 110.902 29.041 37.373-3.496 73.785-21.272 96.68-51.378 14.35-18.87 24.468-43.07 19.79-67.061-1.785-9.154-7.808-19.444-18.458-19.066-10.367.368-18.481 10.554-23.783 19.113z" fill="#fdfdfd"/><path d="M394.116 398.84c-6.918 12.86-14.757 21.334-24.177 30.253-6.573 6.223-11.069 9.756-15.323 13.635-.522.476.116.703.56.3 15.286-13.473 32.131-27.656 40.78-42.617 5.304-9.174 8.444-19.787 8.551-30.381.016-1.557-2.563-1.623-2.686-.066-.675 8.525-2.985 20.103-7.705 28.876zm-85.795 88.532c.7.296 2.031.847 2.757 1.07 1.66-6.275 3.114-12.753 3.005-19.281-.022-1.3.093-2.64-.217-3.901-.202-.82-1.566-.529-1.514.303.178 2.835.146 6.004-.325 8.953-.704 4.403-2.272 8.775-3.706 12.856zm28.61-2.637c.011 1.877-.106 3.751-.19 5.626 1.158-.18 2.31-.4 3.455-.655.211-4.973-.392-9.961-1.452-14.812-.837-3.831-1.524-7.771-3.22-11.307-.605-1.261-1.99-.404-1.682.676 1.943 6.818 3.053 14.352 3.089 20.472zm.627-158.315c-4.634 6.571-8.18 13.814-12.18 20.771-3.06 5.32-5.119 10.03-7.565 15.716-.157.365.084.772.285 1.114 2.294-2.911 4.473-7.813 5.934-10.419 9.117-16.258 18.319-32.851 31.378-46.303 6.481-6.676 13.99-12.85 22.274-17.377.467-.196.134-.926-.306-.71-16.094 8.866-29.299 22.29-39.82 37.208z" fill="#543f61"/><path d="M465.334 395.014c-2.815 24.08 1.027 48.324 5.229 72.015 2.607 12.32 6.398 26.059 17.72 33.221 13.904 8.621 31.925 7.639 46.619 1.602 6.735-2.565 11.882-9.305 11.062-16.702-.462-9.93-6.555-18.748-5.862-28.849.68-15.666 2.639-31.27 4.901-46.786 1.64-11.384 3.842-22.69 6.325-33.902-23.975-8.885-68.037 4.397-85.994 19.401z" fill="#664f75"/><path d="M514.641 451.887c-19.605.295-34.904 19.205-37.319 36.129 4.314 8.953 13.167 15.035 22.727 17.206 11.357 2.579 23.469 1.224 34.238-3.067 5.593-2.228 10.75-6.836 11.532-13.083.916-7.313-1.052-14.71-4.162-21.167-5.582-11.588-15.645-16.19-27.016-16.018z" fill="#fdfdfd"/><path d="M462.948 396.348c-2.208 14.88-.318 30.058 2.493 44.752.856 4.477 1.837 8.94 2.978 13.349 1.48 1.083.27-2.031-.18-4.24-2.833-13.926-4.073-28.226-3.374-42.437.214-4.346.884-8.648 1.423-12.968.098-.783.846-4.788-.821-4.96-2.313-.238-2.196 4.328-2.519 6.504zm76.62 63.102c-.066.61.48 1.07.633-.242 2.164-18.436 4.2-37.851 7.33-57.225 2.051-12.704 4.178-21.75 6.017-30.854.332-1.645-2.524-2.095-2.896-.456-6.623 29.154-8.407 59.078-11.084 88.777zm-32.756 39.846c-.474 3.094-1.156 5.043-1.923 6.94.94.13 1.882.228 2.83.27 1.248-5.054 1.515-10.336.94-15.504-.17-1.528-.237-2.85-.735-4.555-.313-1.071-1.515-.828-1.284.658.634 4.086.672 8.811.172 12.191zm21.823-9.674c1.13 4.681 1.237 9.55.926 14.336 1.101-.27 2.156-.695 3.209-1.111-.166-5.201-1.2-10.403-3.329-15.166-.677-1.515-1.39-3.02-2.22-4.458-.495-.858-1.26-.27-.863.418 1.074 1.86 1.817 4.074 2.277 5.981z" fill="#543f61"/><path d="M564.48 165.069c4.104.304 6.493 5.042 9.45 7.634 3.928 3.907 8.284 7.635 13.022 10.52 8.11 4.14 15.808 5.756 24.33 8.868 3.123-1.257 4.787 4.875 6.947 6.685 14.421 18.67 35.424 32.075 46.07 53.655 1.578 4.248 6.054 12.71.67 15.136-3.878-3.78-12.847-3.058-17.55-6.506-20.627-10.766-38.556-24.107-53.446-42.25-10.359-12.157-19.968-25.226-26.594-39.828-1.143-4.315-5.397-9.864-2.898-13.914z" fill="#382842"/><path d="M519.076 87.085c1.913 6.212-4.332 10.72-7.702 15.054-4.997 6.43-10.63 12.734-17.633 16.98-10.116 6.134-22.471 3.415-33.6 2.182-7.806-.865-16.753-.865-22.794-6.406-4.112-3.772-1.026-10.133 3.009-13.02 7.465-5.34 16.342-8.269 28.871-11.428 18.782-4.734 34.477-3.94 49.849-3.362z" fill="#473551"/><path d="M497.271 115.645c-4.627 15.747-14.411 29.166-21.902 43.58 1.596 3.39-4.405 2.206-6.323 2.287-16.148.68-32.79-.449-48.054-6.324-3.778-1.454-7.807-4.97-6.72-9.396 1.514-6.163 6.892-10.307 11.438-14.316 7.935-6.998 16.9-12.734 26.51-17.158 14.121-6.5 29.784-10.146 45.373-9 3.464 2.109-.145 7.146-.322 10.327z" fill="#664f75"/><path d="M482.051 136.155c2.452 3.588-5.655 10.753-7.366 13.542-1.29 2.104-4.102.903-6.045 1.402-9.282.063-18.722 1.095-27.877-.921-2.403-.338-5.645-2.512-4.23-5.272 1.861-3.121 5.751-4.183 15.133-5.812 14.098-2.448 22.278-2.495 30.385-2.939z" fill="#ffbaab"/><path d="M652.233 197.749c16.107-2.318 33.833-2.325 48.213 6.377 9.556 5.783 17.313 16.974 15.219 28.54-1.568 8.658-10.674 13.653-18.9 13.592-6.723-.05-13.401.459-20.02 1.625-13.077 2.305-26.45 4.02-39.692 2.011-16.246-1.982-32.328-6.534-46.646-14.579-5.093.16 2.585-6.294 3.134-7.606 15.139-16.606 36.645-26.787 58.692-29.96z" fill="#ff5e7d"/><path d="M661.4 201.102c9.838-.423 19.776.773 29.145 3.846-.318 1.636-4.329-1.001-5.917-.84-8.149-1.831-16.49-2.17-24.633-1.52-6.377.504-13.295 1.841-19.068 3.494a106.318 106.318 0 00-24.828 10.73c-1.83 1.098-6.457 4.141-9.124 6.282-4.282 3.218-8.039 7.054-11.582 11.04-4.14 1.248-3.203-3.558-.643-4.846 17.533-17.478 42.11-26.997 66.65-28.186z" fill="#e34c63"/><path d="M536.684 74.614c17.95-6.243 39.243-11.745 56.79-1.348 17.185 8.67 32.875 25.496 53.77 22.288 11.491-2.392 23.074 4.788 31.55 12 17.977 19.504 18.12 55.383-5.283 70.824-25.372 16.034-59.84 20.15-86.784 5.575-9.799-5.703-17.578-14.35-23.637-23.83 4.932 29.946 24.018 55.937 46.326 75.644 16.82 14.094 37.998 21.162 58.538 27.724 1.961 14.636-14.526 23.784-27.387 22.62-9.857-1.143-18.673-5.7-28.29-.583-34.048 8.585-71.2 15.428-105.025 2.408-28.137-10.156-42.315-40.703-45.362-68.712-2.644-35.115 2.322-72.2 20.578-102.847 12.55-19.628 32.632-33.649 54.216-41.763" fill="#664f75"/><path d="M472.284 221.377c4.28 25.666 18.206 51.329 42.077 63.47 12.573 6.356 26.623 9.112 40.567 10.284-19.56.739-39.727-2.24-57.086-11.555-21.183-12.621-32.024-37.07-35.5-60.64-3.036-25.025-.45-50.663 6.311-74.897 4.212-14.223 10.232-28.176 19.621-39.785-4.85 8.25-8.461 17.188-11.142 26.363-7.925 28.09-9.078 57.953-4.848 86.76z" fill="#5e4a6e"/><path d="M468.487 242.983c3.817 9.503 7.205 20.216 22.145 32.535 21.123 17.418 41.064 19.64 59.136 19.286 2.823-.055 4.1.698 2.387.808-20.534 1.323-42.403-1.86-59.44-14.115-16.224-11.67-25.23-30.927-28.787-50.314l.426-.264c1.848 3.409 2.567 8.165 4.133 12.064z" fill="#543f61"/><path d="M637.495 95.67c6.43 1.669 12.754-2.36 19.015-.125 10.792 2.846 21.674 8.7 27.31 18.708 10.182 16.356 11.356 39.126-.612 54.914-2.295 3.28-5.216 6.903-9.518 4.626-15.96-4.1-29.49-16.862-35.098-32.374-3.675-10.639-2.87-24.123-11.79-32.593-9.587-9.434-23.918-12.846-32.023-23.908-3.279-4.158-6.963-8.143-7.998-13.344.094-3.22 6.556 2.215 8.324 2.516 13.962 7.405 26.218 19.243 42.39 21.58z" fill="#fdfdfd"/><path d="M666.374 99.046c5.013 2.444 9.835 5.566 13.606 9.699 10.705 13.3 14.927 32.031 9.549 48.403a41.725 41.725 0 01-2.088 5.15c-10.774-7.855-40.035-40.141-21.517-63.464l.45.212" fill="#ffd9d1"/><path d="M561.035 155.736c4.185 4.539 7.543 10.007 12.061 14.353 5.59 5.719 11.94 10.78 19.036 14.503 3.733 2.01 10.535 4.624 15.811 5.608 14.05 2.957 28.506 1.573 42.33-1.71-2.328 2.314-8.35 2.274-12.108 3.357-19.703 3.48-41.535 1.096-57.762-11.464-5.054-3.774-9.702-8.107-13.742-12.954 12.375 42.831 46.85 78.441 89.398 91.99 3.029 1.343 10.583 2.4 11.539 4.488-32.69-5.894-62.374-24.841-82.71-50.938-9.373-12.08-16.736-25.72-22.185-39.986-1.824 6.278-7.61 13.224-14.76 11.582-4.189-.962-5.881-5.933-4.937-9.72 2.178-8.732 9.403-16.525 18.029-19.109zM644.795 285.233c3.232-.074 7.888-.9 6.386-.372-1.917.675-3.796.943-5.627 1.286-9.569 1.79-19.34-1.381-27.672-5.98-7.89-4.355-14.922-10.388-20.257-17.675-.714-.975.115-2.61 1.292-2.398 1.921.345 2.895 2.564 4.237 3.908 3.22 3.225 6.785 6.907 11.995 10.76 9.294 6.872 18.297 10.728 29.646 10.47zm-13.749 6.353c1.254 1.057-1.444 1.185-2.142 1.314-10.076 1.867-20.767-.106-29.619-5.2-2.883-1.659-5.676-3.655-7.757-6.269-1.117-1.403 1.124-3.128 2.333-1.867 3.803 3.965 8.418 7.184 14.375 9.618 3.904 1.595 7.115 2.436 13.18 2.89 5.093.38 7.388-.052 9.63-.486z" fill="#382842"/><path d="M550.915 84.406c2.216-3.228 6.298-5.676 10.283-4.644 2.96 1.099 2.75 4.917 1.778 7.348-1.703 5.827-6.998 9.864-8.21 15.895-.963 3.33-1.289 6.927-3.053 9.968-.966 1.793-3.741 2.538-5.026.672-1.535-2.577-1.88-5.757-1.523-10.148.618-7.608 2.254-13.915 5.75-19.09z" fill="#543f61"/><path d="M615.642 119.963c1.031 2.273-1.661 1.13-2.924.151-6.126-4.746-13.14-8.601-20.74-10.404-4.098-.972-9.12-.837-12.119 2.573-2.217 2.52-2.415 6.263-1.089 9.221 4.32 9.634 8.362 12.074 13.55 17.799.841 2.065-1.967 4.129-3.639 2.547-3.36-3.082-6.517-6.444-9.178-10.158-2.828-3.947-5.354-8.491-5.486-13.48-.15-5.692 4.364-10.694 9.887-11.48 6.719-.956 13.253 1.837 19.085 4.88 4.488 2.342 8.688 5.208 12.653 8.351zm58.848-37.345c5.625 3.375 8.85 9.531 10.782 15.596 1.611 5.49 2.317 11.822-.586 17.018-1.542 2.95-4.896 5.34-8.334 4.399-4.133-1.148-7.039-4.832-8.688-8.623-7.345 2.18-15.79-.37-20.84-6.087-3.354-3.756-3.705-9.519-1.367-13.883 2.097-4.186 5.767-7.466 9.988-9.424 6.003-2.859 13.401-2.57 19.046 1.004z" fill="#382842"/><path d="M659.712 84.803c1.119 1.006.919 2.758.275 3.972-.824 1.592-2.078 2.9-3.158 4.316-1.123 1.272-2.543 2.513-4.29 2.726-1.5.166-3.175-.874-3.29-2.462-.13-1.766.987-3.304 1.992-4.646 1.51-1.82 3.258-3.67 5.589-4.374.964-.266 2.101-.23 2.882.468z" fill="#fdfdfd"/><path d="M793.162 121.342c-11.458 3.08-21.414 9.953-30.79 16.988-9.996 7.614-19.139 16.252-28.652 24.442 8.367-3.22 16.805-6.261 25.005-9.894 10.719-4.516 21.544-8.866 31.62-14.733 5.956-3.487 12.207-6.834 16.987-11.906 1.444-1.456 2.372-4.37-.156-5.297-4.529-1.486-9.47-.632-14.014.4zm-50.956-16.324c-7.037 2.536-11.64 8.907-15.616 14.9-7.707 12.11-12.744 25.688-16.483 39.489-.125 1.015-1.79 4.74.075 2.424 5.932-5.929 11.338-12.36 17.2-18.36 6.442-6.565 12.013-13.931 17.174-21.529 2.572-4.1 5.414-8.31 6.248-13.165.142-1.172-.02-2.454-.844-3.36-2.117-1.898-5.286-1.083-7.754-.399zm68.441 60.656c-10.477 5.57-22.444 7.343-34.098 8.603-12.503 1.26-25.08 1.186-37.623 1.695 8.312-3.358 16.555-6.895 25.028-9.837 10.915-4.017 21.796-8.227 33.163-10.818 6.733-1.517 13.586-3.338 20.542-2.895 2.049.078 4.715 1.574 3.501 3.978-2.3 4.174-6.488 6.926-10.513 9.274zm-26.096 46.712c-6.873 2.95-14.586 1.436-21.583-.23-13.899-3.587-26.847-10.072-39-17.606-.785-.656-4.545-2.242-1.6-1.823 8.382.284 16.722 1.294 25.102 1.677 9.189.4 18.288 1.98 27.246 4.01 4.676 1.244 9.63 2.374 13.552 5.356.905.76 1.662 1.806 1.677 3.03-.252 2.833-3.123 4.4-5.394 5.586z" fill="#ff5e7d"/></svg>