<svg width="996" height="574" version="1.2" xmlns="http://www.w3.org/2000/svg"><path fill="#3498db" d="M0 0h996v574H0z"/><path d="M874.006 61.42c-10.34-.344-17.919 6.226-17.919 18.089 0 9.114 8.966 14.765 18.08 14.763l40.659-.008c11.065-.002 16.975-11.375 16.506-21.478-.549-11.818-13.555-18.976-23.017-17.502-3.17-5.987-10.74-10.487-17.305-9.699-7.69.923-15.91 7.617-17.004 15.835zM219.099 78.482c-24.882 0-32.556 19.064-31.446 31.753 1.394 15.935 15.736 25.908 31.737 25.906l71.355-.01c19.422-.003 28.971-19.945 28.971-37.698 0-20.32-23.789-33.345-40.39-30.726-5.574-10.505-16.747-17.918-30.38-17.02-16.396 1.08-27.923 13.373-29.847 27.795zM105.42 153.436H0v375.408h996V257.06c-36.507 37.261-78.763 51.747-127.335 51.892-93.2.278-175.907 36.64-230.176 90.931-60.881-54.545-145.623-90.319-230.179-90.931-54.664-.396-90.135-14.69-148.191-72.748-64.472-64.473-108.642-82.768-154.699-82.768z" fill="#fff" fill-opacity=".5"/><path d="M126.871 109.825c-5.416-3.575-24.138-12.367-32.536 6.78-15.355-18.406-30.13-4.322-30.13-4.322s22.69-2.303 30.12 12.367c6.987-10.997 19.717-17.113 32.546-14.825zm642.368 14.96c-8.036-4.876-35.81-16.849-48.275 9.244-22.778-25.091-44.696-5.893-44.696-5.893s33.667-3.138 44.686 16.855c10.37-14.987 29.252-23.323 48.285-20.206z" fill="#fff"/><path d="M996 574H0V474h996zm0 0" fill="#ffe88a"/><path d="M416.907 203.181c-24.715 3.432-37.68 27.979-33.681 50.351 1.32 7.397 4.43 14.78 11.184 19.406 7.785 5.333 19.18 5.784 27.993 2.636 8.366-2.99 14.832-8.914 19.008-15.495 1.843 4.695 7.473 7.07 12.609 6.658 4.94-.398 9.49-2.909 13.334-5.837 13.296-10.118 20.98-27.446 19.925-44.812-.159-2.558-.5-5.203-1.507-7.608-4.412-10.517-17.65-13.565-26.079-8.952-12.417 6.792-26.198 1.349-42.786 3.653" fill="#8f3017"/><path d="M538.739 145.471c-.298-7.382-7.834-8.481-7.834-8.481s-5.947-13.243-9.696-9.874c-4.036-6.542-7.862-12.465-9.158-13.641-3.144-2.842-2.971 1.766-2.784 2.664 1.503 7.257 9.504 26.625 19.224 34.031.384.293.782.504 1.186.682l10.377 54.638-35.601 38.169s.36 22.79 8.102 23.755c18.034 2.246 41.035-44.534 47.356-58.219a9.542 9.542 0 00.255-7.425z" fill="#ffca97"/><path d="M504.453 243.658s.36 22.794 8.103 23.755c6.454.806 13.55-4.675 20.283-12.671-6.22-10.224-14.841-17.334-19.444-20.67z" fill="#ffb197"/><path d="M487.797 323.299l9.14 71.375c-8.396 1.772-23.612 6.048-36.27 16.119-3.33 2.65-9.599 7.977-14.927 12.542-1.909-.728-3.976-1.483-5.572-1.839-5.875-1.31-10.32-.019-12.519 3.634-2.525 4.2-1.464 7.037-.432 9.792.768 2.054 1.423 4.177 1.205 7.291-.559 7.993-6.972 17.539-4.306 24.796 1.582 4.308 2.927 7.235 6.39 6.84 3.744-.427 3.364-3.532 3.157-5.654-.168-1.685-.336-3.422.456-4.598.524-.778 1.148-2.108 2.007-3.946 2.069-4.454 4.853-12.648 9.945-17.88 1.258-1.296 2.908-2.175 4.67-2.726 18.268-5.713 40.55-11.21 56.614-17.28 17.552-6.632 22.149-10.766 24.837-49.391 3.158-45.427-11.947-55.953-11.947-55.953z" fill="#ff9797"/><path d="M468.569 416.605s-6.816 9.11-10.752 20.357l27.206-8.016c1.152-8.352 2.755-18.85 2.352-20.558-.437-1.848-.994-6.955-1.455-10.752-6.47 2.122-13.943 5.3-20.99 10.051zm51.796-1.132c1.848-1.464 3.417-3.245 4.752-5.573-5.372.1-9.816.499-11.227.11 0 0 1.66 2.976 6.475 5.463zm-26.496-44.779c19.872-.83 31.684-3.384 38.697-6.163.447-17.184-1.915-28.574-4.69-35.942-13.11 3.377-25.736 9.323-37.641 13.766z" fill="#ff7878"/><path d="M452.201 483.555c-.741-1.805-.674-3.755.153-5.549a757.454 757.454 0 002.688-5.933c.492-1.098.82-2.246.984-3.432.588-4.228 2.1-14.927 2.703-18.388 2.718-15.59 10.492-27.542 15.215-33.629l-22.478-63.685c-3.134-11.957 0-24.59 8.765-33.148 2.112-2.06 4.195-3.538 6.01-3.816 7.18-1.119 11.97-1.704 17.423.446 9.71 3.816 16.248 7.262 16.66 36.556l2.77 62.568c.898 5.107-27.82 50.279-31.717 58.319a2.421 2.421 0 00-.072 1.963c.419 1.05 1.055 2.843.926 3.936-.328 2.786-.644 5.932-.12 8.414a3425.65 3425.65 0 004.483 20.832c.515 2.367-1.45 4.663-4.517 5.318-3.134.67-6.795.932-9.484.72-3.095-.243-5.014-2.6-7.81-3.35-2.318-.322-3.835-1.949-3.542-3.7.907-5.362 2.703-16.613 2.625-18.701-.056-1.517-.908-3.898-1.665-5.741z" fill="#ffca97"/><path d="M499.893 343.243c-12.326-2.956-40.896-5.248-49.593-.077a35.99 35.99 0 001.166 9.773l8.904 25.228c10.042-.048 25.992-.936 40.833-5.27-.715-9.739-.568-20.369-1.31-29.654zm1.607 77.442c1.129-2.515 1.734-4.334 1.595-5.145l-.053-1.162c-2.933 1.306-6.269 2.395-9.394 2.496 0 0 3.509 2.472 7.853 3.811m-33.403-135.992c3.322 6.192 2.703 14.035-1.627 20.674 0 0-1.234 2.568-4.013 5.918-9.374 11.304-10.147 21.777-10.147 21.777l74.438-2.05s-2.938-11.48-7.714-19.703c-3.149-5.414-4.411-14.112-2.563-20.582l5.832-13.531 3.576-8.443c2.486-5.875 1.171-12.12-3.336-15.845-11.556-12.696-23.05-21.66-36.532-20.86-9.234.547-18.946 7.69-25.704 11.995-6.302 4.013-7.78 11.596-4.733 17.28z" fill="#ffaba1"/><path d="M518.728 285.5l-29.414-12.614-20.059 14.515c1.474 4.387 1.229 9.326-.682 13.977 7.877 3.125 25.949 8.405 47.74 2.549-.935-4.387-.979-9.216.159-13.2zm-17.371 28.209c-.797 0-1.44-1.277-1.44-2.851s.643-2.851 1.44-2.851c.797 0 1.445 1.277 1.445 2.85 0 1.575-.648 2.852-1.445 2.852z" fill="#ff8a8a"/><path d="M522.544 252.908s-4.574-6.192-10.79-10.425c-8.962-6.106-9.427-11.515-25.742-10.435-9.23.61-18.946 7.69-25.704 11.995-6.302 4.008-7.78 11.596-4.733 17.28l12.523 23.37c2.136 3.984 2.63 8.655 1.57 13.243 9.614 2.338 27.177 5.204 46.012 1.34-.187-2.971.048-5.943.792-8.549l5.832-13.531 3.576-8.443c2.486-5.875 1.171-12.12-3.336-15.845" fill="#ffde57"/><path d="M505.278 224.344l-2.366 11.069c1.1.628 1.877 1.45 3.082 2.495 1.958 4.8 2.798 12.442-3.663 12.932-9.086.686-8.395-10.162-21.335-17.885 1.723-.134 4.69-26.63 4.69-26.63z" fill="#ff9797"/><path d="M521.617 278.794c-9.623 6.61-19.06 8.123-27.647 6.879-5.53-.801-10.208-4.518-12.302-9.701l-5.919-14.65-14.404-2.539s-1.085 2.415-2.707 6.063c-1.978-2.127-3.063-3.523-3.063-3.523l12.523 23.37c2.136 3.984 2.63 8.655 1.57 13.243 14.745 3.785 32.984 4.443 46.012 1.34-.182-2.971.048-5.943.792-8.554z" fill="#e1a821"/><path d="M460.947 243.663c-7.176 3.993-8.419 11.976-5.372 17.66l1.776 3.316s4.474 8.467 7.987 15.235c1.695 3.264 6.552 2.784 7.512-.758 5.491-20.3-5.577-33.403-5.577-33.403-1.296-2.131-3.336-3.713-6.327-2.05z" fill="#ff9797"/><path d="M468.957 244.508c-1.305-2.088-2.827-3-4.176-3.364-1.204.777-2.352 1.53-3.436 2.232.593-.274 1.256-.38 1.867-.38 1.728 0 3.057 1.07 4.056 2.717 0 0 11.068 13.104 5.577 33.403-.523 1.93-2.203 2.952-3.897 2.952a4.032 4.032 0 01-2.909-1.214l1.69 3.153c.398.077.801.13 1.219.13 2.803 0 5.17-1.8 5.894-4.483 5.482-20.261-4.641-33.61-5.885-35.146z" fill="#fff"/><path d="M520.955 314.971c9.883 11.3 11.434 33.624 11.63 42.072-7.094 3.024-18 6.053-31.857 5.025l.26 5.866c-9.433 2.506-25.757 5.856-42.557 4.747l-6.965-19.742c-1.636-6.25-3.259-18.077 5.727-33.979 17.01 10.493 61.026 8.194 63.762-3.989z" fill="#2e1e54"/><path d="M461.585 243.284c-12.816 4.34-23.544 45.1-23.544 45.1l-22.008-13.026c.885-1.688 1.745-3.456 2.607-5.18 1.041-2.083.963-4.525-.212-6.47-2.066-3.42-3.215-5.53-5.395-3.71l-3.302 2.755-9.317-5.592c-.979-.586-2.211-.565-4.33.75-2.118 1.316-2.697 2.677-2.404 3.968l1.57 7.037-4.152 7.214c-.706 1.23-.706 2.727.01 3.908l2.616 4.353a3.693 3.693 0 002.64 1.747l6.796.907a6.168 6.168 0 004.685-1.32c8.189 9.548 26.798 29.712 36.595 28.22 12.321-1.877 25.732-33.341 25.507-55.834-.068-6.638-2.036-16.972-8.362-14.827" fill="#ffca97"/><path d="M394.304 275.141c3.653-.595 7.94-.427 10.392.413.09.034.979.154 1.238-2.126.058-.475-.46-.82-.888-1.032-2.688-1.315-6.753-3.523-6.753-3.523a55.52 55.52 0 016.72 2.337c.379.164.97-.878 1.176-1.296.259-.532.273-1.593-.236-1.896-2.544-1.53-6.081-3.835-8.28-5.486 3.106 1.2 6.308 3.039 9.039 4.685.422.254 1.013.576 1.425-.106.399-.672 1.43-2.01 1.43-2.01s-.628 2.351-2.058 4.511c-1.037 1.555-.98 3.288.024 4.834.61.945 3.297 1.176 5.865 1.07-.02.38-3.705 1.853-6.345.25-.048 2.232-2.055 5.99-3.197 5.985a9.178 9.178 0 01-2.506-.37c-.777-.22-1.517-.431-2.179-.297-.48.1-.869.355-1.142.691-.403-.105.062-1.675.907-1.848.945-.192 1.857.067 2.736.317.725.206 1.411.403 2.054.331.712-.38 1.066-1.115 1.589-1.891a.912.912 0 00-.542-1.373c-2.54-.667-7.978-1.819-10.469-2.17z" fill="#ff9797"/><path d="M558.092 70.189c19.123-1.853 36.127 12.149 37.977 31.267 1.85 19.123-12.148 36.124-31.271 37.977-19.118 1.853-36.12-12.149-37.973-31.272-1.852-19.118 12.149-36.12 31.267-37.972z" fill="#fff"/><path d="M564.797 139.433c-19.116 1.848-36.12-12.149-37.972-31.272-.897-9.276 1.944-18.057 7.29-24.848 2.15 39.21 30.22 48.202 46.964 50.211a34.607 34.607 0 01-16.282 5.91z" fill="#dbf6ee"/><path d="M535.706 128.206a33.725 33.725 0 001.862 1.882c15.388-5.684 21.307-23.007 22.55-27.269.696.26 1.43.437 2.189.49 1.843.139 3.59.312 5.275.513-.826 4.891-5.127 23.87-22.757 31.545.912.5 1.853.95 2.808 1.368 17.184-8.615 21.494-27.585 22.344-32.591 6.048.873 10.996 2.16 15.028 3.638-.441 3.95-3.22 20.29-19.127 31.517a34.61 34.61 0 005.38-1.119c12.509-10.905 15.423-24.739 16.07-29.495 3.317 1.392 5.9 2.89 7.92 4.324.216-.878.399-1.761.543-2.659-6.072-4.027-16.32-8.217-33.312-9.456a5.474 5.474 0 01-4.257-2.61c-.964-1.6-1.753-3.3-2.352-5.07 4.243-.93 19.41-3.288 39.647 4.599a34.346 34.346 0 00-.734-2.928c-11.622-4.228-26.53-7.088-39.614-4.008-.667-2.669-1.066-5.851-.86-9.533 3.567-.427 16.671-1.555 34.604 2.136a34.408 34.408 0 00-2.578-2.961c-10.82-1.77-21.938-3.068-31.8-1.637.322-2.616.965-5.453 2.002-8.5-.922.129-1.824.302-2.717.498-4.483 14.367-.365 24.235 2.333 28.66a7.9 7.9 0 001.795 2.046c-.283 1.113-1.392 5.097-3.787 9.724-2.9-2.505-11.405-11.85-12.115-35.375a34.712 34.712 0 00-2.395 1.776c1.065 24.254 10.32 33.431 13.31 35.778-1.925 3.27-4.488 6.672-7.843 9.5-2.136-.98-10.954-6.394-16.31-30.216a34.716 34.716 0 00-1.354 4.651c4.959 18.787 12.106 25.137 15.542 27.182a26.78 26.78 0 01-7.29 3.6z" fill="#aeebd9"/><path d="M500.642 148.14c-4.904-3.052-10.52-4.66-15.864-4.829-5.186-.164-10.66.38-14.985 2.876-13.015 7.514-15.49 21.568-15.49 21.568-1.642.569-2.981 1.274-4.181 2.153-6.81 4.459-12.139 17.467 2.434 41.092l6.744-.576 5.74 4.018 5.266-5.741s10.69-16.238-.6-31.09c42.921-17.682 42.7 5.463 44.75 5.367l2.606 8.235c3.245-2.125 4.723-5.941 3.634-9.392l-4.382-13.838c-2.519-7.954-8.974-15.675-15.672-19.843z" fill="#ae3d1c"/><path d="M511.437 207.712c4.949 1.172 10.313-2.76 11.976-8.784 1.663-6.023-1-11.858-5.947-13.032-4.95-1.174-10.309 2.76-11.972 8.784-1.664 6.024.999 11.861 5.943 13.032z" fill="#ff7f7f"/><path d="M510.448 204.27c-.007-.08-.023-.16-.034-.239-.23-1.095-.273-2.021-.148-2.79.182-9.575 8.803-12.565 8.803-12.565-3.869 3.638-5.99 7.147-7.167 9.911 2.885-1.982 8.41-.513 8.41-.513-6.173-.11-8.534 1.737-9.418 3.441-.441 1.719-.446 2.756-.446 2.756" fill="#ff6363"/><path d="M500.133 232.101c21.787-1.056 24.227-18.66 17.992-37.836l-3.669-11.287c-2.05.096-1.829-23.05-44.75-5.371 11.29 14.856.6 31.094.6 31.094l-5.52 5.826c4.311 14.521 25.253 18.063 35.347 17.574z" fill="#ffca97"/><path d="M509.022 205.826c-1.368.432-3.097-1.19-3.868-3.629-.77-2.435-1.719-9.283-.356-9.715 1.368-.432 4.533 5.712 5.304 8.15.77 2.434.288 4.762-1.08 5.194zm2.28 4.843c.375-.16.552-.576.399-.931-.154-.356-.571-.52-.96-.36-.293.12-7.221 2.951-10.075-1.978a.73.73 0 00-.994-.254c-.353.2-.488.627-.293.964 2.49 4.309 7.72 3.941 10.881 2.943.38-.12.73-.25 1.042-.384z" fill="#ff7f7f"/><path d="M514.629 194.675c-.873.276-2.102-1.123-2.736-3.13-.633-2.005-.437-3.854.437-4.132.878-.279 2.102 1.123 2.736 3.13.633 2.001.437 3.856-.437 4.132zm-20.37 6.656c.873-.278 1.07-2.127.437-4.133-.634-2.006-1.859-3.41-2.736-3.13-.875.278-1.073 2.127-.437 4.133.635 2.008 1.857 3.41 2.736 3.13z" fill="#300030"/><path d="M505 183.472s-.37-5.966 4.8-5.241c5.17.725 6.235 6.456 6.235 6.456s-7.469-2.064-11.035-1.215zm-9.836 3.1s-2.66-5.449-8.07-.865c-5.404 4.58-3.666 10.368-3.666 10.368s7.238-7.45 11.736-9.504z" fill="#ae3d1c"/><path d="M492.885 211.053c-.393-.052-.678-.401-.614-.792l.83-5.088a.747.747 0 01.835-.61.693.693 0 01.615.792s-.735 4.756-.83 5.088c-.162.564-.459.66-.836.61zm-4.43 1.401a.689.689 0 01-.61-.792l.826-5.087c.062-.384.44-.656.84-.61a.694.694 0 01.61.797l-.826 5.083c-.094.578-.453.645-.84.609zm30.623-10.036l-3.6-3.687a.69.69 0 01.043-.998.756.756 0 011.037.02l3.6 3.68a.686.686 0 01-.043 1 .74.74 0 01-1.037-.015z" fill="#ff7f7f"/><path d="M471.06 220.59c-4.028 3.906-11.324 3.208-16.3-1.56-4.979-4.77-5.751-11.798-1.724-15.705 4.022-3.902 11.323-3.202 16.3 1.565 4.978 4.766 5.75 11.797 1.724 15.7z" fill="#ffca97"/><path d="M467.398 221.81a2.675 2.675 0 011.742-3.36 2.678 2.678 0 013.36 1.742c1.08 3.401-4.023 5.02-5.102 1.618z" fill="#fff"/><path d="M468.521 213.803c-5.633-8.939-15.437-6.936-15.437-6.936 5.717 1.263 9.71 3.384 12.389 5.343-3.855-.25-8.266 4.257-8.266 4.257 5.789-3.585 9.204-3.358 10.872-2.054 1.54 1.204 1.973 2.361 1.973 2.361a18.645 18.645 0 00-1.531-2.971z" fill="#ff7f7f"/><ellipse cx="474" cy="535.6" rx="58" ry="4.6" fill-opacity=".2"/></svg>