<svg height="574" width="996" xmlns="http://www.w3.org/2000/svg"><path fill="#ffbe76" d="M0 0h996v574H0z"/><path d="M374.682 498.624c44.348-25.605 59.45-90.883 82.758-104.34 23.31-13.458 35.366-7.321 66.046-25.035 36.308-20.962 42.824-77.644 17.095-122.208-25.729-44.563-78.075-67.262-114.383-46.3-30.68 17.714-31.394 31.223-54.704 44.68-23.307 13.458-87.39-6.102-131.739 19.503-18.392 10.618-87.61 67.59-27.512 171.683 60.098 104.093 144.047 72.635 162.439 62.017z" fill="#432f62"/><path d="M781.184 138.548a2.626 2.626 0 01.959-3.576 2.625 2.625 0 013.576.958l6.819 11.811a2.625 2.625 0 01-.958 3.576 2.626 2.626 0 01-3.576-.958l-6.82-11.811zm-22.63 13.065a2.625 2.625 0 01.96-3.576 2.626 2.626 0 013.575.958l6.82 11.811a2.626 2.626 0 01-.96 3.576 2.625 2.625 0 01-3.575-.958l-6.82-11.81zM720.19 85.162a2.625 2.625 0 01.958-3.577 2.626 2.626 0 013.576.959l6.82 11.811a2.626 2.626 0 01-.96 3.575 2.625 2.625 0 01-3.575-.957l-6.819-11.811zm21.586-12.463a2.625 2.625 0 01.958-3.576 2.625 2.625 0 013.577.958l6.819 11.811a2.625 2.625 0 01-.959 3.576 2.625 2.625 0 01-3.576-.958l-6.819-11.81z" fill="#6c6e70"/><path d="M374.232 493.034c44.35-25.605 59.454-90.883 82.761-104.34 23.308-13.456 35.367-7.32 66.047-25.034 36.305-20.96 42.823-77.645 17.094-122.209-25.729-44.563-78.077-67.26-114.383-46.3-30.68 17.714-31.396 31.224-54.704 44.68-23.307 13.458-87.392-6.101-131.74 19.504-18.393 10.618-87.611 67.59-27.513 171.683 60.099 104.094 144.047 72.634 162.438 62.016z" fill="#7b4eac"/><path d="M493.297 215.906c-24.2-15.562-59.518-14.944-79.837 6.826-11.94 16.317-28.928 32.118-50.486 31.982-35.955.968-75.018-5.568-107.532 13.872C222 288.047 207.68 329.5 212.295 366.605c5.765 58 52.136 112.698 111.475 119.3 31.662 4.067 63.273-11.984 81.405-37.694 17.283-21.498 25.914-48.667 44.042-69.459 12.415-11.709 29.699-15.045 45.933-17.449 28.918-7.347 46.063-38.116 44.225-66.744.476-20.007-10.978-37.739-21.962-53.54-7.422-8.907-15.293-17.572-24.116-25.113z" fill="#8d63b8"/><circle cx="420.662" cy="310.269" fill="#e8bf3b" r="51.4"/><circle cx="420.662" cy="310.269" fill="#583d86" r="40.868"/><circle cx="420.662" cy="310.269" fill="#812132" r="40.868"/><path d="M465.906 196.812c.92 2.471 3.05 4.78 4.422 6.561 1.015 1.313 2.03 2.625 2.844 4.024h-.002l.017.029c1.576 2.623 2.772 7.678.637 7.64-1.432-.025-2.252-.93-2.847-2.015-2.035-3.706-5.38-8.691-8.854-8.98-3.358-.28-6.776.402-10.325.875.05 2.547-.044 4.649.222 6.704.26 2.012.766 3.887 1.81 5.57 1.045 1.682 2.095 2.677 4.366 3.71 2.27 1.034 4.191 1.734 6.154 2.254 2.968.786 4.928 2.468 6.084 4.47 1.219 2.111 1.55 4.58 1.218 6.756-.296 1.936-1.556 2.75-3.043 1.48-2.338-1.997-3.04-4.554-4.312-6.816-2.043-3.634-5.075-6.367-9.56-6.873-4.952-.558-9.147-.71-13.573-1.54-.748 4.413-1.37 9.442.801 13.245 1.33 2.33 3.65 3.92 7.096 4.893 3.223.91 6.54 1.509 9.84 2.113 2.164.396 4.056 1.31 5.234 3.078.71 1.065.425 2.264-.77 3.021-1.294.821-3.12 1.624-2.697 2.866.375 1.1 2.268 1.074 3.442.552 3.973-2.972 7.341-8.842 9.407-14.101 2.969-7.557 3.672-16.566 3.887-24.045.126-5.289-.36-12.12-1.218-15.823-.548-2.365-1.43-4.472-2.28-6.628.554.198 1.238.888 1.725 1.853 2.625 5.205 2.656 8.492 3.943 20.11.106.757.566 1.466.862 2.197.645-.55 1.455-.997 3.423-4.331 2.28-3.862 2.2-4.613 4.212-6 1.287-.731 1.565-.156 1.53 1.11-.16.953-.642 1.34-1.393 2.542-3.207 4.44-7.122 8.558-8.825 12.624-1.38 3.4-2.411 7.496-1.63 11.181.345 1.632 2.58 2.373 4.405 1.23 3.854-2.326 6.791-6.125 10.184-8.409 1.56-1.114 3.977-2.358 4.875-1.533 1.716 1.578-1.718 4.693-3.485 6.33-3.04 2.817-7.351 3.492-11.316 5.149a17.072 17.072 0 00-4.865 3.091c-2.826 2.538-7.91 9.485-7.057 10.962.869 1.505 6.569-.254 8.858-.895 4.084-1.144 10.076-.979 12.406-1.272 2.33-.293 5.862-1.753 6.086-4.21.105-1.148-1.283-2.456-2.443-2.45-2.795.015-4.965 1.153-7.53 2.236-2.484.633-8.79 5.18-9.746 1.959-1.445-4.868 5.676-4.602 9.055-5.152 4.094-.667 8.527-3.004 11.253-6.336 3.668-4.485 4.804-10.494 4.577-15.687-.144-3.3-3.71-3.074-6.043-2.282-3.447 1.171-5.736 4.17-7.918 6.582-1.646 1.82-4.545 5.517-5.953 3.487-1.97-2.843 2.351-6.843 4.582-9.472 2.23-2.628 3.685-4.036 5-5.56 2.853-3.305 3.914-6.862 3.625-10.617-4.526-2.39-8.486-4.27-13.03-5.937-6.105-2.24-12.297-3.74-18.443-4.492-.598 2.965.026 6.149 1.076 8.972zm3.244 21.264c1.209 1.489 2.251 3.205 2.793 4.934-1.076-.523-2.136-1.232-3.197-1.938-2.661-1.77-6.198-3.62-7.092-6.467-.299-.952.305-2.084 1.292-1.645 2.742 1.22 4.583 3.156 6.204 5.116zm-11.58 12.07c3.493 1.12 6.14 3.51 7.854 6.458 1.078 1.855 1.67 3.937 2.008 5.875-1.55-2.396-4.087-3.677-6.485-4.668-3.344-1.383-5.317-2.189-5.752-5.465-.284-2.141.825-2.697 2.375-2.2zm20.54 19.99c-3.873-.448-8.465-.012-11.73 1.225-1.543.586-3.188 1.276-4.16 3.586 2.21-.447 4.035-.67 5.762-1.205 4.772-1.48 8.187.356 12.163 1.9 1.41.548 2.643.772 3.888.35 2.708-.917 6.14-2.942 5.253-5.255-1.335-3.484-9.589-.416-11.177-.6zm7.654 40.188c1.405-.304 2.983.427 3.97 1.221.947.76 1.36 2.004 1.912 2.977 1.41-3.372 1.933-6.89 1.124-10.37-.733-3.145-2.509-8.18-1.037-8.554 2.065-.526 3.184 7.31 2.933 10.547-.118 1.523-.254 2.918-.34 4.332 1.45.03 3.6.663 4.918-.318 1.49-1.109 1.985-3.524 1.938-5.223-.078-2.76-1.093-5.835-2.395-7.975-2.003-3.291-5.662-6.94-9.675-7.207-.538-.036-1.19.44-1.415.787-.903 1.404-1.64 2.92-2.601 4.28-1.314 1.856-2.417 3.731-2.844 7.1-.409 3.223.071 5.195 1.161 7.678.544 1.239.992 1.02 2.35.725zm-189.29-8.176c-1.24-.045-2.579.188-3.341.305-1.875.289-1.913.343-2.266 2.559-.353 2.215-1.327 3.614-3.265 4.031-.522.113-1.03.293-1.653.473 2.354 1.995 6.606 3.409 9.871 3.37 2.16-.024 4.323-.107 6.48-.044.724.022 1.437.417 2.155.64l-.123.54c-5.278 2.94-10.252.286-15.025-1.002-.35 1.406-.643 3.453.152 4.869.957 1.703 2.77 3.033 4.908 3.205 1.048.084 2.073.088 3.074.013 3.385-1.476 6.225-2.352 7.79-2.4.96-.55 1.89-1.192 2.789-1.922 1.424-1.156 2.764-3.353 2.453-5.263-.301-1.848-2.395-2.917-3.866-4.075-2.704-2.128-5.611-4.314-8.95-5.146a5.81 5.81 0 00-1.182-.153zm-66.63 30.256c-1.224.047-1.862.922-2.36 3.287-.704 3.345.154 5.965 2.27 9.282 1.57 2.46 2.713 3.768 3.684 5.49.534.949 1.038 2.29.373 2.89-.677.61-1.766.507-2.752-.822-1.987-2.675-3.846-5.36-5.971-7.826-3.283-3.808-6.716-6.333-11.303-6.262-5.007.078-9.005 2.268-11.033 5.914-1.047 1.882-.73 4.431.41 6.448 3.221 5.695 7.27 8.68 12.334 9.51 3.43.561 6.783.5 10.059.972 2.834.408 5.658 1.279 7.65 3.723.54.662.634 1.68.379 2.04-.4.568-1.459.961-2.783.798-3.252-.402-5.87-1.45-8.592-1.58-7.36-.352-10.08 5.972-13.742 10.955 5.141 4.606 12.086 9.452 18.379 6.632 3.912-1.753 7.14-4.74 11.191-5.056.053-1.32.365-2.62.918-3.817-5.344.005-9.48 2.31-14.46 1.631-.588-.08-1.616-.923-1.561-1.71.051-.742 1.121-1.185 1.777-1.321 3.621-.752 7.286-.856 10.937-.213 1.232.218 2.432.61 3.641.953a9.874 9.874 0 012.945-3.283c-7.851-10.187-18.005-18.389-28.802-23.57 9.915 2.433 17.213 9.084 24.464 13.927.115-.977.32-1.552.217-2.066-.99-4.103-2.158-8.454-2.875-12.252-.1-.53.186-1.64.842-1.805.615-.153 1.312.703 1.53 1.307a22.499 22.499 0 011.251 5.781c.483 5.874 1.58 11.58 4.239 16.88.161.325.333.643.51.958 3.605-1.924 7.197-4.403 10.792-6.162.04-2.425.123-4.837 1.118-8.092.476-1.56.923-2.077 1.41-2.955.302.524.704.857.949 1.78.841 3.167 1.162 5.842 1.033 8.453a10.025 10.025 0 016.652 3.025c1.087-5.133.035-10.207-2.48-14.307-2.158-3.517-4.654-7.68-8.16-9.306-.736-.341-2.15.401-3.914 3.119-3.03 4.668-1.763 9.354-1.38 13.685.225 2.537.817 6.427-1.597 6.516-3.418.126-4.062-5.467-4.324-8.371-.551-6.115.022-12.492-2.906-17.633-1.812-3.18-4.73-5.54-8.778-7.027-.8-.294-1.429-.548-2.181-.52zm46.459 30.59c-3.722-.018-5.573 1.518-6.791 3.838a86.075 86.075 0 00-1.518 3.043l3.445 5.965c1.23-1.171 2.86-2.796 3.893-1.506 1.392 1.74-.538 4.093-1.473 5.697l4.616 7.996c.735-.418 1.496-.797 2.185-1.285 5.882-4.16 7.284-9.687 7.153-16.18-.03-1.46.04-4.158-.764-4.962-1.99-1.99-5.915-2.582-10.746-2.606zm64.67 8.84c-5.058.026-10.515 1.25-12.075 6.05-.277.854-.549 1.783-.709 2.829-.441 2.9-.588 5.852-.798 9.07-.145 1.426-.46 2.466-1.037 3.422-.662 1.094-1.589 1.943-2.674 1.545-1.556-.57-1.964-2.635-3.575-2.865-.622-.09-1.184.807-1.154 1.22.112 1.539.98 2.225 2.041 3.196 2.576 2.356 6.696 4.276 10.463 5.35 5.036 1.434 10.967 1.337 15.656 1.296 3.533-.03 7.085-.219 11.639-.97 3.368-.557 5.653-1.152 8.35-2.055 2.696-.904 4.563-1.923 6.345-2.897-2.643 3.333-7.105 4.039-10.658 5.356-3.223 1.195-7.614.727-9.521 3.045-.435.528.993 1.095 1.54 1.357 1.611.77 3.333 1.31 4.946 2.076 1.126.536 2.176 1.25 2.826 1.815.65.564.975.992.795 1.244-.252.352-.884.472-1.223.37-.995-.302-1.987-.68-2.888-1.198-5.677-3.262-11.045-7.297-17.65-7.186a8.516 8.516 0 00-3.14.645c-1.853.763-2.43 2.071-1.324 3.922 1.193 1.51 2.324 2.584 3.508 3.633 2.284 2.021 4.835 3.716 6.408 6.443.293.52.449 1.3.143 1.83-.696 1.206-6.917-3.256-9.09-7.063-.816-1.678-1.354-2.918-2.049-4.125-1.453-2.526-3.355-4.385-6.779-6.289-2.424-1.347-3.818-1.99-5.654-2.377-1.014-.213-1.432.506-1.2 1.424.266 1.05.44 2.137 1.354 4.567 1.84 4.89 3.38 8.257 2.95 12.074-.107.938-.055 2.48-.995 2.738-.889.245-1.585-1.136-2.017-1.937-1.818-3.37-1.953-7.041-2.26-11.971-.344-5.519-1.113-8.885-3.412-11.977-.513-.69-1.315-1.213-2.483-1.54.304.903.797 1.737 1.041 2.519.233.745.394 1.423.543 2.172 1.238 6.224-.373 12.009-1.545 17.732-.657 3.214-.456 6.334 1.516 9.508 1.972 3.174 4.18 6.855 7.969 6.963 3.199.091 4.933-3.304 6.935-5.152 1.371-1.266 1.758-2.98 1.422-4.938-.417-2.454-1.404-4.632-3.535-8.38-1.665-2.93-2.395-4.208-2.994-5.544-.282-.628-.01-1.875.48-2.36.405-.398 1.599-.37 2.283-.04 1.932.93 2.08 3.617 3.37 7.922.615 1.82 1.035 2.733 1.529 3.588 1.394 2.414 3.377 4.356 5.834 5.49 2.457 1.134 4.253 1.586 6.074 1.814 2.375.298 4.794.213 7.23-.025 1.777-.173 2.224-.748 2.085-2.791-.043-.628-.132-1.297-.752-2.621-.682-1.453-1.209-2.034-1.729-2.59-1.376-1.469-3.117-2.559-4.851-3.67-1.346-.86-2.59-1.947-3.805-3.285-.57-.94-.09-1.675.99-1.858.6-.102 1.32-.128 1.969.165 1.945.879 3.78 1.718 5.476 2.77 1.714 1.062 3.289 2.347 5.02 3.548 1.731 1.2 2.683 1.699 3.639 2.064 3.83 1.466 7.695.84 11.603-1.312 1.398-.77 1.571-1.709.881-2.942-1.81-3.235-5.176-4.164-8.543-4.418-1.567-.117-3.14-.277-4.678-.585-.49-.099-1.49-.583-1.3-1.133.38-1.098 1.584-1.358 2.61-1.342 1.84.029 3.665.299 5.5.41 3.141.19 6.388.21 8.95-1.818 3.97-3.144 7.437-8.996 4.615-12.657-3.109-4.033-11.303-2.736-14.853-.421-4.522 2.947-7.915 8.443-11.188 9.191-3.48.796-3.72.073-3.873-.348-.152-.42.174-1.365.625-1.826.834-.852 1.946-1.424 2.875-2.195 2.314-1.921 5.2-3.816 4.51-9.17-.468-3.632-1.063-5.24-1.398-6.926-2.17.329-4.125.463-5.99.944-3.636.937-6.627 2.762-7.62 6.728a119.248 119.248 0 00-1.303 5.809c-.467 2.333-1.223 3.64-2.253 4.562-2.135 1.912-5.327 2.897-7.436 2.027-1.378-.568-1.096-1.548-.525-2.306.946-1.258 2.277-2.338 3.644-3.149 3.965-2.35 6.78-5.648 6.621-10.287-.148-4.347-.493-8.206-.136-11.85a35.452 35.452 0 00-2.131-.054zm-108.12 13.078c-2.545.107-4.962.751-6.845 2.053-4.323 2.988-8.775 9.395-13.266 10.004 2.657 3.684 6.273 7.577 9.764 9.31 2.27 1.128 4.634 1.192 6.933.469 6.257-1.968 10.716-6.517 15.819-9.662a5.16 5.16 0 011.248-.555l-1.846-3.193c-3.357 1.239-7.12 3.534-10.064 2.502-1.503-.527-2.365-1.053-2.576-2.43-.241-1.566 1.106-2.29 2.363-2.795 2.772-1.114 5.491-1.308 8.174-.924l-2.082-3.605c-2.401-.85-5.076-1.28-7.621-1.174zm102.155.334c.22-.012.445-.006.676.02 1.118.121.964 1.175.935 1.964-.059 1.63-.994 3.21-1.902 4.508-1.879 2.688-4.546 4.443-7.742 5.344 1.977-1.622 2.761-3.814 3.363-6.16.28-1.091.478-2.218 1.023-3.162.848-1.47 2.109-2.431 3.647-2.514zm76.701 21.461c1.743 2.245 5.568 8.012 3.511 9.39-1.44.966-3.139-1.481-4.16-3.126-1.585-2.556-3.148-5.452-6.81-5.558-3.663-.105-6.178.294-8.78.483.029 3.687-.108 7.721 1.679 10.866.888 1.563 2.248 2.813 4.257 3.59 1.663.642 3.347 1.255 5.067 1.71 2.6.688 4.317 2.162 5.33 3.917 1.076 1.863 1.359 4.045 1.064 5.94-.288 1.865-1.518 2.41-2.865 1.106-1.236-1.232-2.006-2.556-2.676-4.005-1.844-3.995-5.952-7.4-9.392-7.838-4.167-.532-8.038-.627-11.776-1.328-.656 4.154-1.18 9.229 1.123 12.197 3.376 4.35 9.463 4.607 14.415 5.543 1.72.325 3.319.869 4.462 2.517.765 1.102.505 2.177-.55 2.83-1.24.768-2.734 1.423-2.364 2.51.328.964 2.01 1.14 3.016.483 3.156-2.06 6.092-6.365 7.758-10.338 3.454-8.24 3.949-18.225 4.01-26.5-.237-3.052-.121-6.166-1.028-10.374-.651-3.024-1.543-4.332-2.158-5.878 1.51 1.05 2.85 3.103 3.445 4.772 1.628 4.569.999 11.833 1.522 14.47.447 2.254 1.148 2.157 2.42.457 1.07-1.432 1.66-3.176 2.668-4.652.707-1.036 1.303-2.252 2.357-2.93.326-.21.802-.498 1.127-.287.357.231.288.839.215 1.258-.18 1.027-.987 1.84-1.545 2.722-2.299 3.636-5.967 6.386-7.408 10.567-1.304 3.781-4.293 10.23.336 11.472 2.284.613 4.129-2.003 5.818-3.48 2.015-1.763 3.78-3.863 6.695-5.322 1.149-.574 2.579-1.246 2.776-.51.361 1.35-3.104 4.53-5.133 6.247-1.189 1.006-3.289 2.28-3.969 2.468-4.029 1.107-7.894 3.371-10.281 6.365-1.414 1.774-4.436 4.727-3.025 6.748 1.502 2.152 4.749.318 7.855-.545 3.107-.863 6.364-1.63 9.805-.799 1.199-2.048 2.342-4.065 3.474-6.033-2.422.334-4.67 1.197-6.916 2.144-1.65.697-3.329 1.349-4.978 2.04-1.387.58-2.95.786-3.631-.354-.856-1.435.31-2.859 1.682-3.379 1.424-.54 2.993-.567 5.412-.958 5.38-.87 9.085-2.819 11.58-6.747 2.466-3.883 3.726-9.392 3.072-13.473-.213-1.329-2.572-1.7-3.777-1.427-3.332.755-6.267 3.687-8.326 5.974-1.442 1.601-4.134 4.931-5.217 3.055-.854-1.48 1.981-5.939 3.71-8.065 1.532-1.882 3.218-3.404 4.686-5.105a14.31 14.31 0 001.957-2.885c1.8-3.554 2.358-7.41.399-10.186-.928-1.315-3.109-2.02-4.61-1.44-2.478.958-3.473 4.078-4.029 6.876-.41 2.416-.37 5.78-2.443 5.725-.98-.026-1.04-1.685-1.01-2.76.16-1.83.749-3.599 1.086-5.406.407-2.182.577-4.352.186-6.48-.557-3.038-2.59-5.117-4.353-6.266-2.895-1.887-4.209-2.085-5.493-2.332-.96-.185-2.635-.207-3.494.604-2.899 2.737-3.347 7.712-2.712 11.647.502 3.114 4.194 7.12 4.934 8.073zm-60.967-17.654c.262-.024.529.011.803.119.657.257.4 1.487.07 2.117-1.64 3.138-3.822 5.859-7.226 7.613.624-1.567 1.48-3.101 2.187-4.705.84-1.903 2.336-4.98 4.166-5.144zm62.375 35.017c-3.094-2.289-6.708-3.63-8.576-6.831-.972-1.667-.118-2.606.702-2.132 3.81 2.203 6.725 5.138 7.874 8.963zm-48.976-2.134a21.106 21.106 0 00-3.797.251c-2.417.374-2.408 1.65-2.408 3.434 0 2.31-2.226 4.526-4.727 5.065-.673.145-1.325.376-2.129.609 3.034 2.572 8.517 4.394 12.727 4.346 2.784-.032 5.573-.14 8.355-.057.933.029 1.852.537 2.777.826l-.158.696c-6.804 3.792-13.216.367-19.369-1.295-.45 1.813-1.998 4.41-.994 6.275 1.595 2.96 5.83 4.017 9.19 4.166 5.62.249 11.706-2.156 15.927-5.584 1.902-1.693 3.56-4.322 3.16-6.785-.387-2.383-3.54-3.664-4.978-5.258-3.808-4.222-8.284-6.545-13.576-6.69zm40.681 10.689a12.606 12.606 0 012.588 3.195c.982 1.732 1.43 3.378 1.762 5.149-1.263-2.029-3.755-3.33-5.682-4.09-1.65-.652-3.42-1.2-4.361-2.875-.882-1.57-.762-3.8.755-3.92 1.97.204 3.707 1.442 4.938 2.541zm12.533 14.98c-5.198-.126-13.84 1.639-12.748 4.288 3.834-.023 8.161-1.458 12.202-.903 2.833.39 5.384 1.958 8.07 2.916 0 0 2.39-4.203 3.55-6.261-3.163.658-7.383.05-11.074-.04z" fill="#583e7e"/><path d="M421.066 226.483c1.23-.998 1.885-1.916 2.72-2.866.28-.316.57-.646.876-.994a937.827 937.827 0 01-2.674-.317c.772-.28 1.168-.715 1.751-1.207l.653-1.523c-.07-.15-.31-.66-.707-1.516 1.677.902 3.105 1.498 4.49.219-.128.747-.255 1.52-.351 2.092 2.002-1.156 3.846-1.788 5.248-3.031.866-.769.523-2.676.037-3.932-.656-1.695-2.087-1.997-3.46-1.984-1.11.01-2.703 1.188-3.807 3.308-1.677-2.345-5.332-3.53-6.643-1.945-.762.921-1.19 2.423-1.13 3.63.048 1.009 1.026 1.97 1.587 2.94-1.604-.065-2.945.579-3.664 2.309-.464 1.116-.672 2.225-.132 3.305.61 1.223 1.81 2.228 3.408 2.323.88.053 1.164-.296 1.798-.81zm7.451-3.643a5.89 5.89 0 01-.63.53c-.187.13-.522.045-.79.06-.108.193-.22.388-.343.603l-.416.74c-.37-.455-.66-.807-1.213-1.49-.952 1.304-1.84 2.525-2.73 3.746-.287.705-.336 1.294-.208 1.81.217.859.932 1.51 1.88 2.151 1.783 1.205 3.195 1.16 5.259-.74 1.24-1.143.945-2.41.059-3.639.197-.212.37-.568.6-.61.799-.148 1.672-.04 2.415-.306.897-.322 1.66-.995 2.533-1.398 1.284-.594 1.644-1.36 1.121-2.764-.563-1.51-.992-2.053-2.445-1.998-.484.019-1.083.103-2.21.312-1.126.21-2.08.565-3.182.977.378.58.645.988.908 1.417-.21.211-.407.408-.608.599zM250.75 265.258c-1.213 1.43-3.084 1.85-4.63 2.513-1.953.84-2.573 2.521-1.602 4.244.971 1.722 2.959 3.258 4.174 4.36.78.708 2.16 1.865 3.155 3.289 1.55 2.216 2.662 4.738 3.987 7.18.698-2.717.757-5.472.246-8.272a31.726 31.726 0 01-.475-4.55c-.018-.482.442-.982.682-1.473.446.32 1.125.543 1.299.974a47.721 47.721 0 011.793 5.207c.325 1.173.4 2.415.611 3.78 2.982-3.787 3.34-10.96.707-15.194a11.659 11.659 0 00-3.242-3.367c-.978-.667-1.897-1-3.053-1.033-1.156-.033-2.382.844-3.652 2.342zm19.097-1.215c-.234.346-.19 1.09.041 1.469.146.236 1.05.32 1.278.111.269-.247.175-.887.238-1.357l-.172-.729c-.48.157-1.162.177-1.385.506zm-3.435 1.217c.144.964.059 1.61.34 1.9.254.264 1.16.344 1.332.137.274-.335.386-1.098.177-1.443-.194-.316-.904-.318-1.85-.594zm5.48 3.914c.114.12.272.2.504.27.29.088.666.176 1.092.332a12.24 12.24 0 01-.104-1.268c-.006-.213-.067-.433-.163-.566-.272-.381-.987-.272-1.487-.362.007.443-.088.942-.033 1.175.055.233.078.298.192.419zm-5.545 1.736c.295.217 1.051.193 1.319-.049.26-.233.36-1.102.16-1.285-.308-.28-.931-.211-1.758-.346.115.833.023 1.491.28 1.68zm4.074-.133c-.248 0-.577.093-.755.17-.442.192-.475 1.178-.332 1.256.426.236.989.221 1.85.36-.099-.56-.139-1.04-.174-1.359-.04-.356-.356-.427-.589-.427zm-2.31 4.03c-2.864 6.094-6.813 10.84-8.987 13.134-2.175 2.294-2.562 3.002-2.849 3.64-.235.522-.144 1.032.23 1.353.838.718 2.163-.439 2.83-1.33 2.112-2.822 4.14-5.71 6.046-8.67 1.678-2.607 2.789-5.478 3.236-9.041-.315.567-.425.734-.506.914zm-34.396 2.371c-.758 1.358-1.755 2.099-3.143 2.65-2.455.976-3.2 3.995-1.563 6.041.978 1.224 1.412 2.477 1.069 4.096-.434 2.053.284 3.952 1.803 5.307 1.527 1.36 3.41 1.194 5.214.361.814-.376 1.59-.845 2.432-1.143 1.669-.59 3.342-1.218 5.068-1.587 1.276-.273 2.637-.162 3.957-.221l.092-.408-7.54-2.682c1.838-2.008 3.995-1.278 6.183-1.557-1.864-1.364-3.73-2.726-5.596-4.09 4.43-1.23 7.174 1.38 9.858 4.135l.525-.312c-1.313-2.303-2.51-4.678-3.96-6.895-.903-1.383-1.919-2.601-2.942-3.57-1.99-1.884-4.837-2.374-6.856-2.403-1.416-.02-3.776.802-4.601 2.278zm101.01 6.623l-.286 1.702 5.25-3.03c.563-.994.508-2.623.044-3.905-.509-1.407-1.392-1.937-2.788-2-2.15-.099-3.513 1.623-4.486 3.298a5.617 5.617 0 00-.528-.626c-1.844-1.922-4.932-2.748-6.115-1.32-.764.923-1.191 2.424-1.133 3.633.05 1.007 1.028 1.969 1.588 2.94-1.602-.067-2.97.568-3.664 2.308-1.074 2.692-.361 4.067 2.926 5.608 0 0 .341.058.744-.087.674-.243 1.338-.515 1.826-.956.823-.742 1.464-1.663 2.3-2.613.277-.316.57-.646.874-.993l-2.676-.318s.905-.444 1.301-.75c.17-.131.333-.28.453-.459.309-.458.321-.75.653-1.523-.071-.149-.309-.66-.707-1.514 1.678.9 3.105 1.497 4.489.219zm-64.094-4.25a888.176 888.176 0 00-4.276 6.386c-.16.243-.264.525-.543 1.088 3.189-1.636 6.088-3.21 9.635-2.222l-5.04 3.244c2.2.857 4.384 1.028 5.995 2.957-5.461.693-10.872.82-15.826 3.629 6.157 3.06 8.314 5.62 8.396 9.992l-5.582-3.674c.547 2.954.677 5.41-1.275 7.559-.53-2.006-.472-4.177-1.232-6.01-.787-1.89-2.372-3.451-3.606-5.156l-.53.207c-.976 2.65-1.938 5.305-2.937 7.947-1.036 2.743-2.824 4.853-5.636 6.545-.97-3.85 1.504-6.306 2.912-9.125l-4.237 1.654c-.302-2.526 1.722-3.055 2.807-4.506l-2.854.356c1.33-2.724 4.22-3.872 6.565-5.27-2.371.045-4.602.21-6.877.565-3.823.595-7.413 2.625-10.049 5.166-1.764 1.7-1.955 3.884-.57 5.234 1.44 1.404 1.74 3.078 1.814 4.885.208 5.126 2.354 7.007 7.44 6.57.797-.068 1.719.016 2.418.361 1.477.729 2.729.539 3.97-.421 2.052-1.586 3.314-3.702 3.885-6.176.496-2.151.686-4.372 1.153-6.531.252-1.167.8-2.267 1.214-3.397l.563.068c.206.5.56.995.584 1.502.048 1.042-.076 2.091-.139 3.137-.147 2.408-.533 4.833-.357 7.215.095 1.294.852 3.252 1.814 3.633a20.983 20.983 0 008.4 1.412c2.638-.113 4.29-1.154 4.815-3.363.53-2.223 1.42-4.178 3.74-5.155.437-.184 1.037-1.067.918-1.31-.745-1.506-.292-2.947-.07-4.43.063-.424-.169-.932-.375-1.348-1.398-2.812-3.553-4.787-6.52-5.886-.66-.247-1.24-.713-2.06-1.196 1.942-1.003 3.507-.63 5.117-.238 2.554.619 5.114 1.355 7.713 1.604 3.136.301 4.761-1.851 3.809-4.858-.45-1.422-.345-2.565.244-3.906 1.154-2.624.436-6.46-1.42-7.723-2.462-1.673-5.128-3.047-8.575-3.239-2.333-.13-4.111.417-5.335 2.224zm67.383 5.43c-1.128.21-2.08.565-3.184.978.38.58.65.987.674 1.307-.103.607-.588.893-1.002 1.238-.186.13-.523.047-.791.06-.26.461-.523.928-.758 1.342-.371-.454-.657-.807-1.211-1.49-.951 1.305-1.944 2.457-2.732 3.746a2.142 2.142 0 00-.207 1.813c.327 1.022 1.03 1.559 1.878 2.148 1.769 1.228 3.18 1.145 5.26-.738.554-.502.695-1.03.73-1.784.033-.755-.318-1.301-.672-1.857.198-.21.37-.567.6-.61.8-.147 1.671-.036 2.416-.304.894-.397 1.685-.992 2.533-1.4.51-.245.93-.496 1.178-.954.343-.636.107-1.293-.059-1.806-.496-1.536-.99-2.057-1.959-2.02-.968.036-1.567.122-2.694.331zm202.533 6.119a17.971 17.971 0 00-3.838-.55c-3.725-.103-7.107 1.144-10.127 3.936-1.393 1.287-1.233 1.243-.239 2.868 1.093 1.785.354 4.593-.667 5.69-.364.391-.69.818-1.106 1.315 3.987-.144 7.084-.792 10.07-2.72 2.445-1.579 4.682-3.67 7.494-4.33l.2.515c-3.043 4.941-8.502 6.099-13.022 7.565.498 1.36.93 2.727 1.51 4.029.174.394.721.814 1.144.871 2.108.28 4.187.02 6.055-1.031 4.475-2.519 7.428-6.33 8.912-11.203.536-1.755 1.113-4.203-.907-5.734-1.824-1.382-3.865-.819-5.48-1.221zm-36.848 4.525c-1.623-.282-2.785-.796-3.916-1.902a4.038 4.038 0 00-3.068-1.168 4.136 4.136 0 00-3.45 2.25c-.764 1.473-1.79 2.429-3.502 2.793-2.172.461-3.703 1.972-4.36 4.023-.662 2.063.265 3.862 1.888 5.201 2.141 1.768 4.343 4.01 5.863 6.086.816 1.115 1.29 2.481 1.916 3.735l.432-.086c-.208-2.737-.415-5.475-.643-8.451 2.006.673 2.659 2.146 3.342 3.673.248.552.5 1.11.82 1.643l1.557-7.172c3.094 3.759 1.742 7.537.228 11.314l.53.374c1.665-2.26 3.414-4.463 4.972-6.793 1.697-2.537 2.94-5.278 2.662-8.465-.124-1.43-.71-2.91-1.495-4.168-.925-1.483-2.101-2.596-3.776-2.887zm16.322 9.854c-.698-.543-1.216-1.314-1.893-1.89-.745-.633-1.51-1.054-2.472-1.06-1.27-.008-2.209.719-2.867 1.955-.589 1.11-.858 2.39-1.299 3.582-.768 2.075-1.285 4.309-2.408 6.172-1.48 2.452-3.445 4.611-5.237 6.942h.002c2.927-.49 5.619-1.616 8.108-3.313a33.595 33.595 0 014.2-2.416c.458-.224 1.138.006 1.718.028-.118.569-.045 1.32-.387 1.675a50.636 50.636 0 01-4.267 3.971c-.994.819-2.165 1.424-3.395 2.215 4.947 1.258 12.039-1.476 15.006-5.842a12.345 12.345 0 001.865-4.584c.415-2.26-.13-3.926-1.64-4.861-1.63-1.011-3.483-1.37-5.034-2.574zm-184.107-2.66c-.936-.023-1.905.4-2.908 1.216-.568.461-1.389.654-2.125.848-.667.176-1.387.131-2.063.28-1.983.431-2.796 1.912-1.967 3.722.41.889 1.071 1.658 1.6 2.494.92 1.454 2.057 2.826 2.905 5.326.848 2.5 1.177 4.048 1.591 5.588 1.08-2.042 1.655-4.237 1.781-6.576.068-1.252.243-2.505.489-3.734.078-.39.377-1.046.828-1.051.45-.005.795.653.853 1.031.23 1.493.385 3.003.44 4.512.037 1.001-.14 2.01-.235 3.144 3.114-2.462 4.773-8.139 3.475-12.033a9.623 9.623 0 00-1.951-3.318c-.874-.962-1.777-1.427-2.713-1.45zm12.619 3.896c-.256.233-.364.837-.25 1.185.072.217.78.457 1.004.332.262-.145.308-.677.45-1.04l.001-.616c-.442-.084-.824.063-1.205.139zm-2.984.318c-.07.8-.262 1.3-.092 1.586.154.26.864.5 1.04.365.284-.214.52-.805.417-1.12-.095-.29-.66-.429-1.365-.83zm168.24 44.102c.477-.173 1.017-.169 1.601-.197 3.035-.145 6.075-1.724 6.86-4.676.785-2.954.481-6.732-.39-9.276-.77-2.244-1.986-4.25-4.602-4.62-3.242-.46-6.297-1.38-9.305-1.454 2.955 2.384 5.724 4.511 6.291 8.37-1.854-1.219-3.58-2.351-5.303-3.483.113 2.496.886 4.684-.289 7.07-2.592-5.526-5.195-10.628-10.306-13.756-.082 1.862-.236 3.454-.512 4.826-.765 3.802-2.292 5.882-5.553 7.592.374-2.254.732-4.403 1.158-6.98-2.624 1.798-4.944 2.978-7.86 2.011 1.712-1.375 3.84-2.25 5.286-3.775 1.492-1.573 2.32-3.773 3.438-5.7l-.426-.423c-2.975.19-5.945.507-9.573.575-2.55.048-4.351-.535-6.14-1.444-.693-.353-1.378-.798-1.992-1.203.599-.496 1.3-.854 1.998-1.12 2.668-1.015 5.415-.104 8.082.016l-3.42-3.387c2.315-1.377 3.696.354 5.566.78l-1.572-2.608c2.538.035 4.263 1.355 6.063 2.735a38.84 38.84 0 001.857 1.355v-.002l-.002-.002c-.309-.66-.62-1.31-.945-1.942-1.662-3.31-3.4-6.413-6.145-8.651-2.326-1.898-4.708-3.524-7.468-3.735-1.76-.134-2.953.699-3.567 2.112-.845 1.944-2.235 2.9-4.392 4.088-4.55 2.503-5.176 5.366-2.718 9.785.442.793.686 1.615.69 2.494.007 1.731.683 2.845 2.116 3.664 2.382 1.362 5.003 1.614 7.642 1.104 2.294-.444 4.527-1.214 6.817-1.69 1.236-.257 2.536-.198 3.808-.283l.174.574c-.397.413-.72.968-1.201 1.21-.987.493-2.057.826-3.096 1.214-2.391.892-4.903 1.558-7.133 2.752-1.21.648-2.783 2.221-2.738 3.316.13 3.13-.29 7.026 1.741 9.54 1.32 1.635 3.461 2.85 5.825 2.41 2.378-.442 4.649-.421 6.592 1.404.366.344 1.48.546 1.662.326 1.138-1.368 2.727-1.547 4.258-1.969.437-.12.83-.566 1.145-.945 2.12-2.56 3.105-5.492 2.896-8.834-.048-.746.153-1.51.268-2.508 1.804 1.447 2.118 3.121 2.433 4.848.497 2.737.884 5.53 1.758 8.152.59 1.77 1.717 2.796 3.044 2.888 2.206.153 3.704-1.87 5.58-2.548zM317.084 310.32c-.867.943-1.807 1.345-3.024 1.522-2.154.312-3.327 2.586-2.408 4.539.55 1.166.519 2.195.072 3.482-.86 2.48-.314 4.64 1.742 5.702 1.556.803 3.36-.031 4.957-.268 1.443-.214 2.913-.336 4.364-.3 1.076.024 2.142.373 3.213.577l.152-.308-2.817-1.83-2.71-1.76c.777-.574 1.797-.641 2.644-.576.86.065 1.703.415 2.606.513l-2.301-2.707-1.397-1.64c3.812-.043 5.583 2.248 7.102 5.199l.48-.15a147.74 147.74 0 00-1.907-6.371c-.71-2.156-1.818-4.218-3.917-5.553-1.067-.677-2.455-1.047-3.738-1.073-1.283-.025-2.462.295-3.113 1.002zm32.283-.412c-.093.42-.334.88-.23 1.244.079.28.592.44 1.212.85.08-.753.29-1.268.12-1.564-.166-.292-.72-.363-1.102-.53zm-4.856.238c-.066.687-.264 1.198-.095 1.399.194.23.806.354 1.066.213.253-.138.497-.812.373-.998-.193-.284-.708-.348-1.344-.614zm2.05 3.004c.294.272.748.368 1.411.643.04-.678.226-1.216.047-1.398-.163-.167-.53-.244-.931-.154-.402.09-.628.82-.528.91zm-1.48 1.854c-3.006 3.882-6.46 7.24-10.884 9.517-.703.362-1.285 1.025-1.803 1.649-.209.251-.256.918-.074 1.129.207.236.791.297 1.152.205a3.479 3.479 0 001.37-.729c2.19-1.902 4.406-3.779 6.5-5.787 1.84-1.765 3.28-3.852 4.318-6.619-.36.393-.478.506-.578.635zm1.11 4.281a688.625 688.625 0 00-4.644 4.295c-.177.164-.312.37-.645.768 2.868-.7 5.489-1.407 8.14.062l-4.654 1.635c1.597 1.107 3.314 1.663 4.233 3.516-4.506-.49-8.863-1.425-13.367-.123 4.344 3.628 5.582 6.093 4.812 9.609-1.218-1.295-2.376-2.53-3.77-4.01-.127 2.47-.49 4.46-2.466 5.809-.041-1.709.424-3.438.164-5.051-.267-1.664-1.236-3.216-1.899-4.816l-.464.064c-1.29 1.934-2.57 3.877-3.873 5.8-1.355 2-3.19 3.348-5.766 4.165-.04-3.27 2.41-4.762 4.076-6.75l-3.707.514c.241-2.08 1.963-2.118 3.107-3.07-.839-.094-1.492-.168-2.351-.262 1.625-2.069 3.982-2.167 6.267-2.965-3.44-.748-6.674-1.26-9.9-.62-1.655.33-3.285 1.102-4.752 1.971-1.736 1.029-2.311 2.736-1.459 4.082.884 1.4.806 2.799.518 4.26-.812 4.144.545 6.06 4.7 6.684.653.097 1.374.342 1.868.754 1.043.865 2.081.951 3.26.42 1.946-.878 3.363-2.33 4.293-4.202.81-1.628 1.386-3.369 2.172-5.01.424-.885 1.074-1.662 1.623-2.488l.44.162c.067.44.256.903.179 1.315-.162.844-.462 1.66-.713 2.486-.578 1.9-1.35 3.766-1.666 5.71-.17 1.053.06 2.767.758 3.257a17.277 17.277 0 006.455 2.736c2.134.415 3.658-.104 4.502-1.771.85-1.68 1.934-3.073 3.98-3.412.385-.064 1.035-.656.985-.873-.309-1.349.331-2.418.793-3.563.133-.327.041-.778-.043-1.152-.582-2.518-1.93-4.512-4.094-5.961-.483-.324-.859-.806-1.422-1.35 1.746-.432 2.926.165 4.143.786 1.926.985 3.837 2.064 5.87 2.761 2.453.843 4.166-.57 3.98-3.16-.088-1.226.213-2.12.943-3.082 1.425-1.88 1.584-5.088.34-6.455-1.652-1.811-3.542-3.36-5.919-4.139a8.152 8.152 0 00-2.176-.42c-.86-.05-1.903.217-2.85 1.084zm-49.86 10.649l5.247-3.03c.57-1.007.509-2.668.04-3.931-.283-.758-.711-1.374-1.237-1.617-.554-.258-1.67-.374-1.67-.374-1.663.02-3.26 1.194-4.364 3.315-1.676-2.346-5.331-3.529-6.642-1.945-.762.922-1.19 2.423-1.131 3.63.049 1.009 1.028 1.97 1.588 2.94-1.517-.062-2.783.528-3.306 1.582-.687 1.384-1.062 3.041-.345 4.245.466.782 1.423 1.464 2.91 2.089.586.246 1.215-.236 1.73-.535.282-.165.56-.34 1.068-.84.507-.5 1.238-1.33 2.074-2.28l.877-.994-2.676-.318a69.268 69.268 0 001.648-.963c.254-.6.532-1.244.757-1.767-.07-.15-.31-.661-.705-1.514.81.5 1.586.798 2.478.934.692.106 1.358-.117 2.01-.717-.124.747-.256 1.52-.352 2.09zm232.944-7.79c-.873.555-1.534.748-1.693 1.145-.146.36.165 1.273.44 1.35.44.122 1.229-.098 1.472-.45.223-.322-.08-1.01-.219-2.044zm-3.99 1.374c-.755.468-1.432.661-1.506.992-.083.377.267 1.101.615 1.256.338.152 1.22-.124 1.31-.397.14-.418-.194-.995-.42-1.851zm-10.442 5.452c3.049.01 4.973-.366 7.022-.984-.683-.062-.89-.096-1.098-.098-6.213-.015-12.661-1.258-18.222-3.691-1.763-.771-3.843-1.11-4.305.25-.355 1.045 1.377 1.885 2.504 2.166 2.586.646 5.222 1.078 7.874 1.59 2.231.43 4.57.761 6.225.767zm17.084-4.023c-.437-.077-1.135.284-1.402.67-.168.243.138 1.152.44 1.283.355.154.934-.211 1.416-.351l.63-.48c-.357-.398-.67-1.047-1.084-1.122zm-8.117 3.008c-.043.512.214 1.053.45 1.943.725-.486 1.417-.72 1.464-1.044.057-.396-.331-1.035-.858-1.273-.522.022-1.044.245-1.056.374zm4.055 1.072c-.224.301.016.946.078 1.903.832-.508 1.522-.693 1.693-1.098.169-.397-.192-1.018-.32-1.541-.5.232-1.16.347-1.451.736zm-227.959.385c-1.127.209-2.08.565-3.184.977.38.58.646.988.672 1.308-.102.608-.585.891-1.002 1.237-.185.13-.52.047-.789.061-.262.46-.526.93-.76 1.343l-1.21-1.49-2.733 3.746c-.286.706-.335 1.295-.207 1.81.217.858.933 1.51 1.879 2.15 1.784 1.206 3.196 1.163 5.26-.737 1.24-1.144.945-2.412.058-3.641.198-.212.37-.57.6-.611.8-.148 1.673-.037 2.418-.305.895-.322 1.657-.994 2.531-1.399 1.284-.593 1.643-1.36 1.121-2.763-.563-1.511-.992-2.054-2.445-1.998-.484.018-1.082.104-2.209.312zm31.057 89.326c-.853 1.643-1.999 2.71-3.91 3.116-2.425.515-4.135 2.203-4.87 4.492-.736 2.302.347 4.255 2.112 5.804.793.7 1.675 1.314 2.398 2.079 2.854 2.525 4.668 5.615 6.281 8.882l.485-.095c-.234-3.054-.466-6.112-.719-9.434 1.898.61 3.013 2.502 3.73 4.102.278.616.559 1.239.916 1.834l1.735-8.004c3.454 4.194 1.946 8.41.258 12.627l.59.416c1.858-2.522 3.809-4.98 5.548-7.58 1.893-2.83 3.282-5.89 2.975-9.448-.314-3.612-3.138-7.623-5.887-7.875-1.83-.167-3.11-.889-4.37-2.125a4.504 4.504 0 00-3.425-1.302 4.61 4.61 0 00-3.847 2.511zm20.859 25.74a37.688 37.688 0 014.686-2.697c.512-.25 1.27.007 1.918.032-.13.635-.05 1.475-.43 1.87a57.054 57.054 0 01-4.764 4.432c-1.11.912-2.415 1.59-3.789 2.473 4.344.536 8.093.07 11.392-1.917 3.495-2.105 6.58-5.321 7.44-9.72 1.041-5.321-2.855-5.493-4.745-6.578-1.89-1.085-2.307-1.411-2.706-1.72-.215-.168-1.094-1.186-1.75-1.646-1.002-.702-2.34-1.684-3.276-1.655-1.202.036-2.33.751-3.046 2.191-1.743 3.504-2.133 7.542-4.137 10.887-1.643 2.742-3.845 5.144-5.845 7.746 3.27-.549 6.274-1.803 9.052-3.697zm-33.512-10.513c-.671-.271-1.327-.485-2.287-.463-1.888.043-3.12.947-3.64 2.353-.827 2.23-2.49 3.357-4.407 4.303-5.435 2.682-6.439 5.901-3.527 11.184.113.207.337.68.43 1.044.18.703.224.644.242 2.163.018 1.52.823 2.781 2.455 3.664 2.696 1.454 5.586 1.803 8.531 1.232 2.56-.494 5.051-1.354 7.608-1.884 1.38-.285 2.832-.222 4.251-.317l.196.64c-.442.462-.804 1.082-1.344 1.352-1.1.55-2.294.922-3.453 1.354-2.67.996-5.474 1.738-7.965 3.072-1.35.724-3.104 2.48-3.053 3.703.074 1.762.358 3.515.705 5.264.342 1.72.746 3.438 1.075 5.158l.33.45c1.777 1.671 3.698 2.956 6.334 2.466 2.657-.494 5.191-.471 7.36 1.567.408.384 1.65.607 1.855.363 1.268-1.528 3.04-1.727 4.75-2.197.488-.137.927-.633 1.277-1.055 2.365-2.857 3.467-6.13 3.232-9.861-.051-.833.174-1.683.303-2.8 2.014 1.616 2.362 3.484 2.711 5.41.432 2.37.795 4.774 1.386 7.102.167.675.36 1.344 1.375 3.491 1.016 2.148 3.77 2.512 6.276.295 1.321-1.168 2.605-1.604 4.336-1.612 3.389-.012 7.187-2.624 7.66-5.234.628-3.46.747-6.968-.435-10.356-.874-2.499-2.236-4.635-5.137-5.154-2.98-.536-5.963-1.047-8.947-1.556-.34-.06-.695-.036-1.436-.069 3.297 2.662 6.385 5.037 7.02 9.344l-5.918-3.887c.126 2.785.989 5.226-.323 7.889-3.094-5.116-5.65-10.42-10.478-14.534a16.85 16.85 0 00-1.027-.818c-.354 8.117-2.087 11.676-6.768 13.86l1.125-6.792c.056-.327.11-.66.166-1-.35.24-1.761 1.215-2.74 1.627-1.176.494-2.423.92-3.697.986-.787.041-1.942-.236-2.335-.366 1.912-1.535 4.284-2.513 5.899-4.213 1.666-1.755 2.59-4.213 3.84-6.362l-.479-.474c-3.329.212-6.657.448-9.99.636-3.46.196-6.593-.722-9.77-2.949 3.694-2.894 7.531-1.4 11.25-1.23l-3.816-3.783c2.582-1.537 4.126.397 6.211.873-.625-1.04-1.112-1.847-1.75-2.91 3.774.052 5.936 2.65 8.834 4.56-1.654-3.53-3.368-6.788-6.196-10.099-.897-.968-1.28-1.375-2.009-1.97-1.99-1.62-4.063-2.641-6.096-3.46zm52.842 15.287c-.973.62-1.713.836-1.889 1.28-.162.401.185 1.418.49 1.503.491.136 1.372-.11 1.643-.502.25-.36-.09-1.127-.244-2.281zm-4.451 1.533c-.845.522-1.6.74-1.682 1.108-.095.423.297 1.228.684 1.402.378.167 1.364-.138 1.465-.443.155-.466-.218-1.11-.467-2.067zm-28.836.139c-.464-.018-1.27.505-1.352.898-.089.442.35 1.16.772 1.49a4.974 4.974 0 002.023.928c4.076.842 8.151 1.734 12.262 2.371 3.62.563 7.254.387 11.314-.84-.763-.066-.995-.104-1.228-.105-7.049-.05-13.886-1.06-20.34-4.121-1.025-.487-2.287-.574-3.451-.621zm36.248 1.459c-.487-.088-1.268.313-1.564.744-.188.273.153 1.29.49 1.437.395.172 1.042-.239 1.58-.394l.703-.537c-.4-.444-.747-1.168-1.209-1.25zm-86.549 4.494c-1.358-1.899-4.316-2.858-5.379-1.574-.617.745-.963 1.96-.916 2.94.041.813.834 1.593 1.287 2.378-1.298-.052-2.403.46-2.966 1.87-.869 2.178-.293 3.293 2.367 4.54a.774.774 0 00.57.033c.541-.284.983-.559 1.512-.876a5436.661 5436.661 0 012.57-2.92l-2.166-.258 1.279-.897c.228-.29.398-.686.667-1.312l-.573-1.229c1.36.73 2.516 1.211 3.637.177l-.055.314-.228 1.376 4.248-2.453c.46-.815.364-2.175.03-3.181a2.539 2.539 0 00-1-1.309c-.39-.249-.901-.401-1.353-.303-1.444.315-2.638.968-3.53 2.684zm77.49-1.14c-.049.573.238 1.176.5 2.171.81-.545 1.582-.8 1.635-1.166.066-.44-.332-1.241-.861-1.423-.445-.152-1.258.25-1.274.417zm6.511 2.06c.14-.477-.23-1.129-.366-1.684-.558.26-1.296.386-1.62.823-.249.335.017 1.058.089 2.123.569-.347 1.115-.523 1.587-.909.121-.099.28-.248.31-.353zm-82.347 6.072c-.151.107-.424.04-.64.05l-.614 1.087c-.3-.368-.533-.654-.98-1.207l-2.213 3.033c-.232.572-.271 1.05-.166 1.467.174.696.752 1.224 1.52 1.742 1.445.975 2.588.94 4.26-.6 1.004-.925.764-1.952.046-2.947.16-.172.298-.46.485-.494.648-.12 1.354-.03 1.957-.246.724-.261 1.342-.807 2.048-1.133 1.04-.48 1.332-1.1.909-2.236-.455-1.225-.803-1.664-1.979-1.62-.392.016-.986.2-1.887.21-.9.01-1.585.5-2.478.834.307.469.523.8.734 1.148-.298.337-.69.65-1.002.912z" fill="#e8bf3b"/><path d="M241.325 366.24c-2.736-4.74-1.097-10.857 3.643-13.594l6.178-3.566c4.74-2.737 10.856-1.098 13.593 3.641l39.342 68.143c2.736 4.74 1.097 10.857-3.642 13.593l-6.178 3.567c-4.74 2.737-10.857 1.097-13.593-3.642l-39.343-68.143z" fill="#6a2f2b"/><path d="M279.905 434.382l-40.552-70.237c-2.736-4.74-1.097-10.856 3.643-13.592l10.427-6.02c4.738-2.736 10.854-1.097 13.59 3.643l40.552 70.236c2.736 4.74 1.097 10.857-3.64 13.592l-10.427 6.02c-4.74 2.736-10.857 1.097-13.593-3.642" fill="#432f62"/><path d="M420.663 250.543c-2.49 0-4.826 2.801-6.848 7.713-3.224-4.22-6.206-6.324-8.61-5.68-2.405.645-3.936 3.957-4.619 9.225-4.206-3.243-7.63-4.501-9.787-3.256-2.156 1.245-2.779 4.84-2.074 10.103-4.901-2.044-8.535-2.373-10.295-.613-1.761 1.761-1.432 5.393.611 10.297-5.264-.705-8.858-.082-10.103 2.074-.921 1.596-.472 3.883 1.137 6.67.565.98 1.276 2.022 2.12 3.115-5.268.683-8.58 2.216-9.224 4.62-.283 1.054-.037 2.218.684 3.466.923 1.599 2.625 3.335 4.996 5.145-4.912 2.022-7.717 4.357-7.715 6.846v.004c-.002 2.488 2.803 4.823 7.715 6.845-2.371 1.81-4.073 3.546-4.996 5.145-.721 1.248-.967 2.412-.684 3.467.644 2.403 3.956 3.936 9.225 4.619-.845 1.093-1.556 2.135-2.121 3.115-1.61 2.787-2.058 5.075-1.137 6.67 1.245 2.156 4.839 2.779 10.103 2.074-2.043 4.904-2.372 8.536-.61 10.297 1.759 1.76 5.393 1.43 10.294-.613-.705 5.264-.082 8.858 2.074 10.103 2.157 1.245 5.58-.013 9.787-3.256.683 5.268 2.214 8.58 4.62 9.225 2.403.644 5.385-1.46 8.609-5.68 2.022 4.912 4.358 7.713 6.848 7.713s4.825-2.8 6.847-7.713c3.224 4.22 6.206 6.324 8.61 5.68 2.405-.645 3.937-3.957 4.619-9.225 4.206 3.243 7.63 4.501 9.787 3.256 2.156-1.245 2.779-4.839 2.074-10.103 4.901 2.044 8.536 2.373 10.295.613 1.761-1.761 1.432-5.393-.611-10.297 5.264.705 8.858.082 10.103-2.074.921-1.595.472-3.883-1.137-6.67-.565-.98-1.276-2.022-2.12-3.115 5.268-.683 8.58-2.216 9.224-4.62.283-1.054.037-2.218-.684-3.466-.923-1.599-2.625-3.335-4.996-5.145 4.912-2.022 7.717-4.357 7.715-6.845v-.004c.002-2.489-2.803-4.824-7.715-6.846 2.371-1.81 4.073-3.546 4.996-5.145.721-1.248.967-2.412.684-3.466-.644-2.404-3.956-3.937-9.225-4.62.845-1.093 1.556-2.135 2.121-3.115 1.61-2.787 2.058-5.074 1.137-6.67-1.245-2.156-4.839-2.779-10.103-2.074 2.043-4.904 2.372-8.536.611-10.297-1.76-1.76-5.394-1.43-10.295.613.705-5.264.082-8.858-2.074-10.103-2.156-1.245-5.58.013-9.787 3.256-.682-5.268-2.214-8.58-4.62-9.225-2.403-.644-5.385 1.46-8.609 5.68-2.022-4.912-4.358-7.713-6.847-7.713zm50 59.727c0 27.614-22.386 50-50 50-27.615 0-50-22.386-50-50 0-27.594 22.353-49.986 49.973-50 27.64-.015 50.027 22.385 50.027 50z" fill="#d8c5e6"/><path d="M508.007 260.504c2.14 3.707 11.406 4.574 14.737 10.343 2.578 4.466 2.97 9.042 1.848 12.913-.133.458-.045 1.22-.226 1.645a4.782 4.782 0 003.392-.637l188.985-117.512c2.32-1.42 5.708-5.091 4.346-7.446l-17.056-29.478c-1.362-2.355-4.435-3.223-6.827-1.928l-199.18 105.743c-.5.269-.023 1.41-.382 1.804 3.674 1.136 7.283 4.037 9.706 8.233 3.331 5.77-1.483 12.614.657 16.32" fill="#331616"/><path d="M507.785 257.542c2.14 3.706 11.406 4.573 14.736 10.342 2.883 4.992 3.339 10.522 1.623 14.558a4.79 4.79 0 003.392-.636l191.59-118.094c2.319-1.42 3.105-4.51 1.74-6.864l-17.053-29.48c-1.364-2.354-4.435-3.222-6.829-1.927L498.71 231.979a4.79 4.79 0 00-1.287 1.01c3.674 1.135 7.283 4.036 9.706 8.233 3.33 5.769-1.483 12.614.657 16.32" fill="#382a2c"/><path d="M678.389 135.451c-.516.262-1.028.53-1.535.807l22.787 39.465c.493-.301.982-.61 1.467-.924l-22.72-39.348zm-17.494 9.4c-.516.26-1.027.528-1.534.805l23.375 40.487c.436-.338 1.205-.603 1.416-1.006l-23.257-40.285zm-19.323 10.383c-.452.301-1.271.508-1.486.891l23.977 41.527c.431-.34 1.215-.602 1.418-1.01l-23.909-41.408zm-15.666 8.418c-.447.303-1.279.507-1.484.893l24.502 42.44c.427-.341 1.224-.602 1.416-1.012zm-17.755 9.541c-.444.305-1.289.506-1.485.895l25.1 43.473c.421-.343 1.236-.6 1.416-1.014zm-15.524 8.34c-.437.307-1.296.504-1.48.897l25.62 44.375c.418-.343 1.242-.597 1.413-1.014l-25.553-44.258zm-14.1 7.576c-.435.307-1.302.504-1.48.9l26.092 45.196c.415-.344 1.25-.598 1.414-1.018l-26.026-45.078zm-15.144 8.137c-.391.372-1.712.496-1.37 1.092l26.493 45.887c.37-.41 1.646-.612 1.303-1.207l-26.426-45.772zm-13.984 7.516c-.39.372-1.722.493-1.366 1.093l26.96 46.698c.366-.412 1.658-.61 1.298-1.211l-26.892-46.58zm-14.362 7.715c-.387.376-1.732.496-1.363 1.101l27.441 47.53c.363-.413 1.675-.61 1.297-1.217l-27.375-47.414zm-11.488 6.173c-.382.38-1.75.492-1.363 1.104l27.828 48.197c.358-.416 1.686-.61 1.295-1.222zm-12.012 6.455c-.379.38-1.759.491-1.36 1.108l28.23 48.892c.355-.416 1.695-.609 1.29-1.224l-28.16-48.776z" fill="#958988"/><path d="M719.423 163.791c2.32-1.42 3.103-4.509 1.741-6.864l-17.054-29.479c-1.364-2.354-4.437-3.222-6.828-1.927l-4.857 2.61 22.271 38.574 4.727-2.914" fill="#8b8c8c"/><path d="M697.348 128.356l19.594 33.939 5.28-3.048-19.594-33.939z" fill="#e8e8e7"/><path d="M450.207 300.423c6.001 10.208 6.877 23.124 2.591 34.13 9.827-12.254 11.657-30.419 3.843-44.153-7.086-13.251-22.226-21.353-37.151-20.467-16.175.623-31.394 11.554-37.014 26.755 9.824-12.822 27.472-19 43.116-14.823 10.265 2.568 19.367 9.348 24.615 18.558z" fill="#3f2e60"/><path d="M807.821 124.687c-1.436 6.288-14.436 12.932-35.991 23.13-21.556 10.199-28.264 13.49-34.836 10.542-6.57-2.947-11.134 1.356-16.3 4.338l-22.32-37.788c5.163-2.98 11.348-5.354 12.081-12.517.733-7.165 6.937-11.33 26.547-24.898 19.61-13.569 31.864-21.504 38.027-19.604 6.163 1.9 16.398 10.424 24.181 23.904 7.783 13.48 10.047 26.606 8.611 32.893z" fill="#7b4eac"/><path d="M720.608 107.577c-3.121 2.977-1.864 8.071-5.499 10.715-4.297 4.16-9.66 6.938-14.822 9.856 6.15 10.407 12.292 20.817 18.443 31.222 6.118-3.362 12.11-8.188 19.354-8.472 4.223 1.687 8.882 1.595 13.047-.34 11.483-4.734 22.65-10.23 33.719-15.86 4.82-2.86 10.618-5.279 13.44-10.412 1.71-6.953-.776-14.159-3.26-20.633-4.423-10.325-11.293-20.124-21.029-26.02-4.75-3.107-10.217.142-14.564 2.44-6.737 3.815-13.075 8.285-19.455 12.66-6.578 4.762-13.715 8.953-19.374 14.844z" fill="#8357b1"/><path d="M734.506 113.62a7.272 7.272 0 11-7.273-12.595 7.272 7.272 0 017.273 12.595m19.194 33.246a7.272 7.272 0 11-7.272-12.595 7.272 7.272 0 017.272 12.595m11.42-44.206a7.271 7.271 0 11-7.273-12.593 7.271 7.271 0 017.272 12.594m16.287 28.209a7.272 7.272 0 11-7.272-12.595 7.272 7.272 0 017.272 12.595" fill="#c4c3c1"/><path d="M721.216 76.41c2.79-1.612 6.393-.646 8.004 2.144 1.611 2.791.646 6.394-2.144 8.005l-4.587 2.648c-2.791 1.612-6.393.646-8.005-2.145-1.61-2.79-.646-6.393 2.145-8.004l4.587-2.648zm22.63-13.066c2.79-1.61 6.395-.646 8.005 2.144 1.612 2.791.645 6.394-2.146 8.006l-4.585 2.647c-2.79 1.611-6.393.646-8.004-2.145-1.611-2.79-.646-6.393 2.145-8.004l4.585-2.648zm24.921 95.427c2.791-1.611 6.393-.645 8.004 2.145 1.612 2.791.647 6.393-2.144 8.005l-4.587 2.648c-2.79 1.611-6.393.646-8.004-2.145-1.611-2.79-.646-6.393 2.144-8.004l4.587-2.649zm22.63-13.065c2.791-1.611 6.395-.647 8.006 2.144 1.611 2.79.645 6.394-2.146 8.005l-4.585 2.648c-2.791 1.61-6.393.645-8.005-2.146-1.61-2.79-.646-6.392 2.145-8.004l4.585-2.647z" fill="#969796"/><path d="M291.437 418.803l-32.826-56.856a2.589 2.589 0 01.946-3.526 2.588 2.588 0 013.525.945l32.826 56.856a2.589 2.589 0 01-.944 3.525 2.589 2.589 0 01-3.527-.944" fill="#fff"/><path d="M282.938 423.71l-32.826-56.856a2.589 2.589 0 01.944-3.525 2.588 2.588 0 013.525.945l32.826 56.856a2.589 2.589 0 01-.944 3.526 2.589 2.589 0 01-3.525-.946" fill="#2c213e"/><path d="M750.928 66.743c.245.337.581.822.795 1.55.233.688.286 1.771-.318 2.698-.286.458-.713.81-1.149 1.067-.417.248-.777.43-1.172.65a96.282 96.282 0 01-4.302 2.225c-1.19.58-2 .938-2 .938l-.275-.478s.714-.523 1.81-1.263a97.293 97.293 0 014.08-2.613l1.095-.677a2.37 2.37 0 00.692-.657c.322-.467.387-1.06.325-1.638a9.717 9.717 0 00-.292-1.438l-.17-.584.482-.264s.165.146.399.484zm-22.48 12.978c.246.337.582.822.796 1.55.233.688.286 1.772-.318 2.698-.288.46-.713.81-1.149 1.068-.417.247-.777.43-1.172.649a96.276 96.276 0 01-4.302 2.225c-1.19.58-2 .938-2 .938l-.275-.477s.714-.523 1.811-1.264a97.292 97.292 0 014.079-2.613l1.095-.677c.306-.187.526-.424.69-.656.324-.468.387-1.06.325-1.638a9.207 9.207 0 00-.292-1.438l-.17-.584.485-.265s.162.148.398.484zm70.105 69.51c.244.337.581.823.795 1.55.232.689.286 1.772-.319 2.699-.286.457-.713.81-1.148 1.067-.418.247-.778.43-1.172.649a96.367 96.367 0 01-4.302 2.226c-1.19.58-2 .937-2 .937l-.276-.478s.714-.523 1.811-1.263a97.442 97.442 0 014.08-2.613l1.095-.677a2.34 2.34 0 00.691-.657c.322-.467.387-1.06.326-1.637a9.724 9.724 0 00-.293-1.439l-.17-.583.483-.265s.165.147.399.485zm-22.48 12.979c.246.336.582.822.796 1.55.233.688.286 1.771-.318 2.698-.288.459-.714.81-1.149 1.067-.417.247-.777.43-1.172.649a96.365 96.365 0 01-4.302 2.226c-1.19.58-2 .937-2 .937l-.276-.477s.714-.523 1.811-1.264a97.452 97.452 0 014.08-2.613l1.095-.676c.306-.188.526-.424.69-.657.323-.468.387-1.06.325-1.637a9.212 9.212 0 00-.292-1.439l-.17-.583.484-.266s.163.148.399.485z" fill="#fff"/><path d="M629.376 193.842a2.834 2.834 0 01-2.835-4.91 2.836 2.836 0 112.835 4.91m-30.224 17.45a2.836 2.836 0 11-2.837-4.912 2.836 2.836 0 012.837 4.912m-42.315 24.43a2.834 2.834 0 11-2.834-4.91 2.834 2.834 0 012.834 4.91" fill="#b9aea8"/><path d="M768.243 99.178a5.815 5.815 0 01-7.944-2.13 5.816 5.816 0 1110.074-5.816 5.817 5.817 0 01-2.13 7.946m-30.613 10.958a5.816 5.816 0 112.128-7.945 5.815 5.815 0 01-2.127 7.945m19.195 33.247a5.816 5.816 0 11-5.819-10.074 5.816 5.816 0 015.819 10.074m27.704-15.995a5.815 5.815 0 01-7.945-2.13 5.816 5.816 0 1110.074-5.816 5.817 5.817 0 01-2.13 7.946" fill="#161c25"/><path d="M781.273 123.947a2.714 2.714 0 114.701-2.713 2.714 2.714 0 01-4.7 2.713zm-27.783 15.35a2.714 2.714 0 114.7-2.712 2.714 2.714 0 01-4.7 2.712zm-19.387-33.579a2.713 2.713 0 114.7-2.713 2.715 2.715 0 01-4.7 2.713zm31.628-10.127a2.714 2.714 0 114.702-2.713 2.714 2.714 0 01-4.702 2.713z" fill="#c19783"/><path d="M376.123 310.27c0 24.33 19.941 44.052 44.54 44.052 24.597 0 44.538-19.723 44.538-44.052 0-24.331-19.94-44.105-44.63-44.055-24.62.05-44.449 19.795-44.448 44.055zm44.54-36.686c20.528 0 37.17 16.425 37.169 36.686 0 20.26-16.642 36.683-37.17 36.683-20.528 0-37.17-16.423-37.17-36.683 0-20.261 16.641-36.686 37.17-36.686z" fill="#2f2b4a"/><path d="M761.312 90.102a1.098 1.098 0 00-.787.308l-45.277 43.63-8.674 4.968L277.69 384.666l-3.664 2.1-1.19-.182-10.87-1.674c-.248-.04-.5.01-.719.135l-.473.273-13.257 7.655a1.106 1.106 0 101.105 1.916l13.258-7.655.137-.08 12.054 1.858a1.109 1.109 0 00.719-.135l4.006-2.295L707.699 140.91l8.766-5.017.217-.165 45.379-43.724c.372-.359.443-.916.195-1.346a1.132 1.132 0 00-.944-.556zm-31.123 11.046a1.106 1.106 0 00-.72.448l-16.623 23.248-10.895 6.125-423.053 237.789-9.252 5.201-14.597-.857a1.1 1.1 0 00-.615.144l-.473.274-13.258 7.654a1.106 1.106 0 101.106 1.916l13.257-7.654.186-.108 14.59.858a1.12 1.12 0 00.607-.141l9.555-5.371L703.078 132.87l11.063-6.219.357-.32 16.77-23.451a1.104 1.104 0 00-1.079-1.733zm-6.83 42.846l55.114-17.738a1.107 1.107 0 00.619-1.608 1.107 1.107 0 00-1.295-.498l-55.227 17.774-.215.096-10.44 6.029-428.128 247.178-2.234 1.29a1.104 1.104 0 00-.399.395l-5.576 9.469-13.478 7.783a1.106 1.106 0 101.105 1.914l13.73-7.926c.168-.096.304-.232.4-.396l5.575-9.467 1.983-1.146 428.146-247.19zm4.366 10.147l1.146-.662.854-.327 25.398-9.74c.572-.22.859-.86.639-1.43a1.024 1.024 0 00-.073-.142 1.119 1.119 0 00-.964-.567c-.13 0-.263.023-.393.073l-26.334 10.1-.156.074-10.347 5.974L289.271 404.73l-2.234 1.289a1.1 1.1 0 00-.398.396l-5.577 9.467-13.478 7.783a1.106 1.106 0 101.105 1.914l13.73-7.928c.168-.096.304-.232.401-.396l5.574-9.465 1.985-1.146 428.24-247.245z" fill="#efb3d7"/></svg>