<svg xmlns="http://www.w3.org/2000/svg" height="420" width="600"><path d="M291.038 218.3c-.011 1.068.166 2.325-.588 2.65.409-1.277-.484-2.038.588-2.65M299.875 194.15c-1.812 2.117-.416 7.438-1.475 10.307-.345-2.834-.541-6.922 0-9.718.186-.796-1.794-1.82-.294-2.062.448.634 1.629.53 1.769 1.474M293.982 213.884c-.346 2.501-3.892 3.364-5.595 3.533 2.688-2.126 4.748-6.444 7.07-7.954-.833 1.137-1.725 3.77-2.065 4.42.331.029.462-.428.59 0M284.562 219.476c1.773-3.83 7.996-7.308 9.42-11.484-6.066 5.025-10.384 13.372-18.551 15.316 6.125-6.147 12.821-11.721 19.439-17.379-.6 1.074-.054 1.759.293 2.652-4.05 3.116-5.915 8.422-10.601 10.895M298.992 234.499c-.101-1.206.072-3.863 0-5.596.064-.228.005-.582.294-.59.092.398.417.562.293 1.179.203 1.183-.28 1.681-.293 2.65.054 2.323-.066 5.074-.294 2.357M292.219 198.275c.067 1.048-.427 1.538-1.477 1.47-.068-1.048.425-1.541 1.477-1.47zm-.59-2.063c-1.006 1.35-2.071 2.641-3.831 3.237.118-2.09 2.152-3.67 3.83-3.237zm-1.767-1.768c-.722 2.16-3.232 3.992-4.714 4.417 1.102-1.938 2.711-3.376 4.714-4.417zm-11.487 1.768c-.4-.093-.563-.419-1.177-.295-.051-.44.105-1.088-.296-1.178-.54 1.173-1.623 1.302-2.65.589.218 1.256-1.606 1.032-1.768.295-.256.429-.441.934-1.18.882-.14-.346-.313-.668-.585-.882-6.905-.766-16.33-1.47-20.324 3.534-.83.242-.761-.416-1.47-.296-3.338 2.263-7.258 2.944-11.78 4.124-1.34-1.282-2.54.744-3.83-.588-.568.118-.23 1.14-1.18.882-.772.086-.23-1.142-1.177-.882-.035.75-.43 1.14-1.175 1.178-.764-.378.227-1.762-.296-1.767-.561.124-.533.841-1.473.59.168-1.4-1.466-.1-1.471-1.767-.54.318-.735 1.625-1.475.88-.785-.556 1.139-1.692-.292-2.062-.792.39-.588 1.77-1.768 1.77-.817-.442.51-1.204-.296-1.472-1.117-.22-2.11 1.206-2.942.296 1.261-.8.742-3.375 2.352-3.828.258 1.434-.398 1.956-.587 2.948 1.184-1.076 1.69-2.822 2.063-4.71 1.404.103 2.01-.976 2.061-2.933.937-.25 1.117.279 1.47.61.549-1.723 1.227-2.022 2.947-2.902.275.987-1.057 1.941-.293 2.44.123-1.055.783-1.443.587-2.776h1.178c.383 0-.653 1.885 0 2.187.442-1.227.836-2.67 1.767-3.408.697.442.295 1.24.588 1.473.368-.713.732-1.43.883-2.357 1.908.548.885.114 2.65-.294.134 1.507-.704 2.046-.88 3.238 1.402-.46.948-2.78 2.648-2.944.659.745-.642 1.314-.588 2.357 1.559-1.636 2.119-1.775 4.123-2.063.381.73-.863 1.223 0 1.475 1.687.21 1.26-1.685 2.945-1.475.384.73-.865 1.223 0 1.475.722-.359.787-1.375 1.767-1.475.753.375-.272 1.443.293 1.475.56-.068.651.33 1.182.292-.058-.643.24-.936.882-.883-.278 1.816 1.778 1.474 2.355.883.047.347-.05.837.295.883 5.564 1.112 9.117 4.233 16.197 3.83.8-.184.733-1.23 1.77-1.177.115.896-.777 1.499.294 1.767.592-.39.996-.967 1.176-1.767.948-.259.61.763 1.177.881.858-.614.863-2.081 2.359-2.06.38.73-.657 1.43 0 1.472.65-1.018 1.555-1.784 2.061-2.946.93-.142 1.042.532 2.062.297.262 2.035-2.066 3.032-1.77 4.123 1.164-1.687 2.474-3.224 3.536-5.007 1.162.38.903.473 2.062.587-1.142 2.689-2.658 5-5.007 6.48zm-58.312 1.179c-.192 1.672-.637 3.092-2.061 3.532.394-1.467.702-3.027 2.061-3.532zm73.919-5.007c-1.418-.341-.788 1.37-1.763 1.472-1.71-.64.828-1.721 0-2.356-1.79-.02-1.457 2.079-2.947 2.356-1.184-1.168 1.467-2.125.59-2.945-2.671 2.534-3.646 6.764-7.363 8.246 1.168-3.3 5.768-6.145 5.299-9.13-1.528 1.709-1.78 4.698-4.124 5.596-.763-2.284 2.576-4.46 2.652-5.892-2.799 2.504-4.175 6.425-7.067 8.837.325-4.303 4.343-6.435 5.007-9.424-19.704-3.2-48.552-6.661-65.087 1.767-1.677 2.346-3.747 4.304-3.237 8.834.958.078.621-1.144 1.468-1.177.945 1.559-1.57 1.872-.88 4.123.528.037.62-.36 1.176-.294.737.203-.546.784-.296 1.472 1.758.286 3.905 1.727 6.776 1.768.534.696-.483 2.048.59 2.65 17.318-8.632 45.192-10.122 69.206-7.067-.463-2.333.949-6.923 0-8.836M301.052 190.91c.195 1.367-.266 4.442-.296 1.474-.226-.203-.765-1.755.296-1.473M377.328 213.587c-.233-.651-1.382-.383-1.472-1.176.495-.723 1.956.986 1.472 1.176M300.462 195.328c.452.428-.496 2.473.294 3.24-1.068.07-.661-2.85-.294-3.24M298.4 184.43c.354 2.2 1.53 3.578 3.538 4.126-1.575 1.292-4.467-2.01-3.538-4.125M300.17 201.512c-.351 3.235 1.418 5.63 0 8.247.336-2.728-.891-6.912 0-8.247M298.644 206.225v4.123c0 .03-1.333-4.201 0-4.123M214.76 205.341c-1.052-.765-.158-2.305.884-2.65-.066.557.335.649.298 1.178-.347.539-.77.998-1.182 1.472M211.523 200.63c.092-2.109 2.808-4.597 3.533-4.125-.994 1.562-2.648 2.459-3.533 4.126M217.116 204.752c-.294.781-.484 1.676-1.472 1.767.084-.996.355-1.806 1.472-1.767M211.816 201.22c1.695-.37 1.602-2.523 3.24-2.945-.433 1.378-2.354 3.928-3.24 2.945" fill="#fff"/><path d="M223.008 206.519c-1.389 2.146-4.21 4.425-5.892 5.3 2.184-1.544 3.462-3.998 5.892-5.3M219.476 206.225c-1.16.404-1.79 2.607-2.946 2.062-.079-1.546 1.844-3.58 2.946-2.062M212.992 203.575c-.542-1.248 1.196-2.456 2.064-3.24-.06 1.706-.996 2.536-2.064 3.24M301.938 204.457c-2.144-1.773-.068-6.385 0-8.834 1.709 2.453-.63 5.546 0 8.834M245.096 194.444c-.094-.397-.421-.561-.293-1.179.396-.093.563-.417 1.176-.293.057.843.039 1.607-.883 1.472zm-1.118 1.473c-1.334 1.614-3.963.538-5.002 1.767-.693.008-.564-.508-1.468-.293-.405-.183.034-1.136-.513-1.18-1.024 1.01-2.35.362-3.684 1.18v-2.063c1.333 1.477 1.19-1.59 2.499 0 .297-.392.121-1.096.729-1.177.312.274.076 1.084.864.882-.24-.832.383-.761.263-1.472 1.08.219 1.569-.724 2.29 0-.02-.513-.065-.916.163-1.177 1.765-.096 3.859.393 3.859.881v2.652zm4.064 1.474c2.714-1.58 6.617-2.756 10.897-3.535-5.499-3.193-17.61-5.955-23.857-1.472-4.031.092-5.327 2.919-7.952 4.417-.148 1.344.512 1.668 0 2.648.83-.05.369-1.398 1.476-1.174.828.296-.083 1.249 0 1.766.898-.378.784-1.766 2.06-1.766 1.345.485-.246 1.493-.59 2.06 1.07.76 1.443-1.688 2.356-2.06.964.09.626 1.86 0 2.06.762.454 1.283-1.85 2.354-2.06.838-.05.577.994 1.77.586.028.915-.134 1.636-.588 2.062 1.632 1.037 1.328-2.392 2.944-2.355 1.128.668-.125 1.139 0 2.355 2.443.088 2.638-2.074 4.123-2.946 1.068.27.179.87.293 1.768.994-1.017 2.963-4.042 4.714-2.354M328.734 226.545c-1.983-.666-4.015-1.282-4.119-3.828-.685.094-1.133-.048-1.475-.294-4.138-4.99-8.83-9.43-13.842-13.547-.235-1.968-3.123-4.281-2.944-4.712 6.428 7.217 15.432 11.859 20.028 20.91.09-.4.417-.563.293-1.178.993.576 1.765 1.373 2.059 2.65M319.902 241.565c1.52-.244 1.294 1.255 2.061 1.767.004-.693-.51-.865-.295-1.767 2.484 1.738 3.326 5.119 4.415 8.247-1.605.33-1.016-1.533-2.057-1.768-2.006.743-3.167-4.235-4.124-6.479zm7.656 9.13c-1.103-1.744-2.134-3.558-2.651-5.89 1.759.728 3.757 4.244 2.65 5.89zm-8.246-13.548c-2.933 8.937 5.9 17.384 14.136 12.372-1.085-1.371-1.136-3.776-2.652-4.714-.832 1.472 1.756 3.199.588 5.007-1.161-.9-.994-3.125-2.058-4.123-1.487.735 1.937 3.732.293 4.714-1.483-3.527-4.19-5.827-5.3-9.72-1.376 1.582-1.887-.984-2.65-1.767-.627-.633.698 1.04.294 2.06-2.112-.05-1.753-2.564-2.65-3.83M323.435 224.19c-5.685-1.786-7.972-6.153-11.485-10.014-1.115-1.225-2.272-2.281-3.242-3.533-.82-1.06-1.594-3.15-3.24-2.946 1.372 1.955 2.934 4.162 4.712 6.187 1.548 1.759 4.474 3.92 4.126 5.592-4.17-2.999-6.231-8.103-9.718-11.779 1.158.08.084-2.074.88-2.356 5.494 6.779 12.811 11.732 17.967 18.848M340.515 235.087c.13-.655-.908-1.598-.293-1.768.053.83 1.397.368 1.174 1.473-.401-.012-.642.139-.881.295" fill="#fff"/><path d="M317.248 238.916c.386-4.344 3.372-8.439 7.367-8.247 7.13.342 12.744 4.88 12.955 11.78.194 6.33-5.482 11.892-12.663 9.72-4.35-1.318-8.207-7.064-7.659-13.253zm-6.184.292c.182 1.867-.26 3.841 0 5.304.971 5.397 5.37 7.797 8.25 11.19 1.308.358 3.018.32 4.713.293.435-.838.535-2.015 1.176-2.648 9.081.21 17.077-2.48 16.201-10.603-1.17-10.888-14.61-13.523-21.486-18.555-.799.578.193 2.93-.575 3.535-1.74-1.148.635-5.23-2.032-4.712v3.533c-1.333-.568-.187-3.966-1.503-4.71-1.193-.116-.357 1.833-.62 2.649-1.45-.021.318-3.261-1.178-3.239.013 2.048.694 3.428.592 5.596-1.898-.953-.568-5.13-2.064-6.48-.28 2.775.605 5.82.293 7.658-1.508-1.828-.788-5.886-1.473-8.543-1.408 1.813-.088 4.308-.294 6.48-.132 1.41-1.042 2.716-1.176 4.125-.27 2.839.868 5.958 1.176 9.127M382.04 204.752c-1.522-.147-1.478-1.859-1.765-3.24.064-.23.244-.343.588-.292.276 1.292 1.243 1.896 1.177 3.532zm-2.058-.295c-.727-.646-1.994-.757-2.947-1.178.379.388.379 1.085 0 1.473-1.297.117-.77-1.585-1.767-1.767-.065.23-.246.342-.59.294.201.66.884 1.476.296 2.062-1.216.232-.555-1.41-1.767-1.177.49.585-.027.373 0 1.177-.807.215-.593-.586-1.18-.59.023.514-.065.917-.297 1.178-1.096.314-.464-1.104-1.468-.882.401.376.401 1.39 0 1.768-1.196.114-.906-1.255-1.766-1.474.048.739-.453.922-.885 1.178-.504-.28-.595-.978-1.18-1.178-.255.43-.439.934-1.176.884-1.601-.77-3.797-1.284-6.481-1.178-2.311-2.054-5.962-2.072-7.656-4.124-.342.248-.796.389-1.478.297-.29-1.735-2.253-2.827-3.832-2.359-3.289-3.972-11.164-1.741-16.497-2.356v.886c-1.333-.412-1.076-1.118-2.35-.296-.622-.262-.505-1.254-1.466-1.178-.392 1.598-1.496-.47-2.06-.59.332 1.314-.901 1.06-1.472 1.474-1.832-1.901-3.593-3.868-4.419-6.773.942-.357.874-.039 1.768-.59 1.568 1.67 2.327 4.149 4.123 5.595-.899-1.358-1.859-2.657-2.357-4.417.945-.33 1.038-.072 2.062-.588.718 1.147 1.25 2.477 2.355 3.237.121-.71-.536-.638-.296-1.47 1.775-.106 1.35 1.989 2.652 2.356-.053-.643.24-.94.883-.886.546.635.353 2.004 1.769 1.768.215-.9-.51-.865-.295-1.768 1.198-.118.908 1.255 1.766 1.474 6.041.56 10.876-2.15 16.497-2.944.012-.378.373-.408.29-.884.922.617.947.428 2.358.294-.039-.737-.563-.924.292-1.177.224.757.943 1.024 2.063.883-.246-.343-.388-.79-.295-1.474 1.55-.272.947 1.606 2.357 1.474.119-.711-.538-.64-.294-1.474 1.738-.072 1.381 1.956 3.238 1.768.12-.71-.538-.64-.293-1.474 2.101.188 2.412.58 4.123 2.064-.246-.738-.808-1.158-.883-2.064 1.559-.682 1.572 2.482 2.943 2.946-.198-.961-1.65-2.862-.292-3.533.65 1.319.62.915 2.058.587.092.988.306 1.858.883 2.357-.136-.921.256-1.315 1.181-1.177.207 1.264.478 2.465 1.178 3.24-.08-.97-.74-2.218.586-2.356.604.769.287 2.46 1.18 2.944-.037-.51-.958-2.411.295-2.355.765.315.412 1.747 1.177 2.06.052-.343.466-.319.886-.293-.21 1.652.281.777 1.472.882.129 1.442-.032 3.175 1.766 2.944.331 1.828.914 3.41 1.766 4.714-.247-.734-.384-1.58-.292-2.65 1.269.602 1.9 3.392 1.768 4.416zm-64.794-5.596c-1.262-.222-5.008-3.306-4.124-4.71 1.487 1.46 3.318 2.572 4.124 4.71zm-2.65.296c-1.782-.574-2.958-1.753-3.532-3.534 1.91.446 3.244 1.464 3.532 3.534zm-3.24.292c-.83-.053-1.256-.51-1.178-1.472 1.091-.17 1.823.796 1.178 1.472zm74.806-.588c-.717-1.541-2.081-2.434-2.653-4.122-15.245-8.84-43.745-7.832-65.381-5.302 2.185 2.626 3.958 5.666 5.301 9.13-1.864.8-1.81-1.714-2.353-2.65-1.163-1.992-3.26-3.905-4.124-6.186-.972 1.15 2.866 3.932 2.061 5.892-2.747-.495-2.06-4.42-4.124-5.595-1.255 1.147 2.143 1.973 1.475 4.416.992 1.753 3.234 2.264 3.533 4.713-3.441-1.081-4.565-5.68-6.775-8.541-1.56.568 1.196 1.421.591 2.945-1.784.116-1.372-1.966-2.65-2.356-1.467.158.411 1.1 0 2.06-1.091.878-1.071-1.33-2.063-1.47-1.671 1.509.148 6.128-.883 8.836 25.913-1.287 51.915 1.678 68.915 11.188.604-.474.685-1.474.588-2.648 2.888.236 4.466-.832 6.774-1.18.544-.52-.128-.858-.296-1.472.686-.78.791.782 1.474 0 .734-1.687-.931-1.767-.883-3.534.488-.845 1.19.547 1.176 1.179.683-1.184.103-3.63.297-5.303" fill="#fff"/><path d="M321.078 202.985c-.439-.54-1.23-.734-1.472-1.473 1.274-.468 1.85 1.264 1.472 1.473M366.727 200.63c-.619-1.56-2.448-.38-3.535-1.473-.032 1.147-1.28 1.076-2.354 1.178-.188-1.738-1.002-.136-2.063-.294-.616-1.22-1.97-.904-2.944-1.766-.121-3.252 1.73-3.254 4.416-3.242.2 1.284 1.424 1.29 2.357 1.179.408.475.248 1.517.883 1.765-.052-.641.241-.936.883-.882.04.548.193.984.59 1.18.119-.372.379-.604.882-.591.192 1.467.461.935 1.473.59.361.834.241 1.947-.588 2.357zm-12.075-3.829v-1.473h.884c.574.57.307 1.804-.884 1.473zm18.555 3.534c-2.36-1.86-3.892-4.551-7.659-5.007-5.781-4.828-17.293-2.45-24.152-.295 2.71 1.459 6.626 1.768 8.248 3.535 1.123-1.068 1.575.685 2.36.881.3.08.524-.58.883-.588 1.947-.042 2.343 1.98 4.12 3.24-.245-.341-.388-.79-.293-1.47 2.349.2 1.72 3.386 4.713 2.944-.25-.638-.764-1.006-.59-2.063 2.373-.408 1.315 2.612 3.24 2.652-.098-.69-.353-1.217-.59-1.767.208-.774 1.383-.584 1.768-1.177 1.244.52 1.665 1.865 2.356 2.944.55-.381-.675-1.464-.296-2.652 1.947-.276.992 2.344 2.65 2.357.007-.994-1.546-1.312-.587-2.357.952.225 1.54.816 1.766 1.767.91-.391-.549-1.308.295-1.767 1.215-.23.553 1.41 1.768 1.179-.725-.72.217-1.278 0-2.356M225.363 210.348c-1.413.55-1.852 2.075-3.533 2.356.788-.937 2.728-3.34 3.533-2.356M306.942 220.361c-.374-.52-.046-3 .296-2.652-.184.8.374 2.339-.296 2.652M328.44 236.559c2.883.4 3.552 8.138 0 7.953-2.101-.11-2.993-3.472-2.945-6.481 1.457-.764 2.024-1.6 2.945-1.472M308.414 218.005c.68 2.208-1.047 3.538 0 0M323.14 232.143c.734.042.912-.464 1.475-.591-.021 2.08 1.315 2.81 1.468 4.712-1.367-.985-1.98-2.728-2.943-4.121M324.026 237.737c-.328-1.754-3.219-3.686-1.771-5.301.021 2.063 3.427 3.481 1.77 5.301M303.704 192.384c.01 3.82 1.043 9.136-.592 12.073.358-3.754.008-9.49.592-12.073M311.064 217.71c-1.966-.682-3.537-1.762-5.3-2.65-.272-1.813-.346-1.976.59-1.767-.746-1.553-3.806-2.97-1.766-4.712 1.944 3.256 4.171 6.232 6.476 9.128M333.152 238.325c-1.826-2.001-4.848-2.806-5.594-5.89 1.124.153 2.205.345 2.65 1.178-.689.974 1.467 2.93 2.356 2.358-.297 1.102 1.22 1.892.588 2.354M332.268 243.037c.883 1.574 1.083 3.828 2.652 4.714-.757.029-.418 1.15-1.18 1.177.187-2.448-2.232-3.847-1.472-5.89M332.268 240.092c.727 2.252 3.692 4.967 2.652 7.07-.445-2.431-2.948-5.85-2.652-7.07M334.624 240.976c.287 1.097 2.079 2.232 1.18 3.536-.184-1.085-2.288-3.092-1.18-3.536M325.79 231.552c.746 1.217 1.39 2.537 2.061 3.828-1.275-.496-2.243-2.85-2.061-3.828M298.992 211.819c-.197 1.969.386 4.71-.297 6.186-.239-1.597-.823-5.077.297-6.186M226.543 210.936c-.695 1.076-1.04 2.497-2.65 2.65.314-1.449 1.763-1.767 2.65-2.65M228.308 211.819c.276 1.065-1.48 2.376-2.649 2.945.679-1.184 1.257-2.47 2.65-2.945M258.346 232.143c-.596.182-.08 1.486-1.174 1.176-.833-.546.992-1.726 1.174-1.176M272.484 224.19c.915-.655 1.278-1.865 1.472-3.24 6.123-4.973 12.707-11.05 18.851-15.02-5.53 6.157-12.157 11.211-18.555 16.493-.236.552-.493 1.077-.59 1.766-1.131.347-2.712 1.795-3.826 1.178.738-.831 1.39-1.75 2.355-2.355.048.441-.105 1.087.293 1.177M278.964 202.397c.407-.374.128-1.444.884-1.474.001.389.515.272.588.589-.388.224-2.118 1.499-1.472.885M260.999 230.963c-.447.069-1.948.29-2.357 0 .308-.311 2.104-.607 2.357 0" fill="#fff"/><path d="M247.451 203.87c-.03-.94 1.53-1.982 1.768-.885-.621.263-.872.896-1.768.884zm8.836 19.438c.205-1.168.455-2.296 1.472-2.652-.336 1.037-.644 2.1-1.472 2.652zm15.608-6.483c-1.739 3.854-3.535 7.656-6.185 10.604-.015-.377-.378-.408-.292-.884 2.106-3.102 3.785-8.176 6.477-9.72zm-45.943-7.95c2.783 3.109 8.424 3.358 13.843 3.829-3.004 8.228 7.49 7.468 12.957 9.13.272 1.353-.736 1.422-.589 2.65.533 1.627 2.232 2.088 3.83 2.652 1.255-3.26 2.875-6.157 5.006-8.543-.225 2.95-4.236 6.138-4.124 9.426 3.733-4.024 5.147-10.363 8.835-14.432-1.078 5.106-4.914 10.005-7.068 15.02 4.444-5.076 6.89-12.154 11.488-17.08-1.88 5.68-7.25 11.99-9.424 17.376 1.702-.195 2.225-2.364 2.945-3.536 2.232-3.638 4.475-8.124 7.36-11.483-1.312 5.077-5.57 9.733-7.656 15.019 1.53.093 3.233-2.026 5.3-2.358 1.93-7.578 7.987-9.841 12.96-14.726-2.401 3.002-7.188 6.164-9.72 10.016 4.992-5.023 11.239-8.788 16.199-13.843.284-1.068-1.324-.248-1.179-1.177 1.123-1.92 3.216-2.872 5.01-4.124-2.494.062-4.251 3.405-7.073 4.124-.477.209-.477-1.39 0-1.178-.654-.637-1.328 1.204-2.65.882-.198-2.202 3.37-3.076 5.009-4.418-2.836-.278-4.596 3.059-7.068 4.124-1.688-2.205 2.648-3.15 3.825-4.417-2.976-1.34-4.509 3.688-7.358 4.417-.792.01-.792-1.481 0-1.473-.632-.516-1.32 1.417-2.948.885.348-2.6 3.513-2.378 4.122-4.714-2.444 1.089-3.677 3.389-6.773 3.829.432-2.025 2.473-2.437 3.83-3.532-3.009-.75-3.509 3.555-6.774 3.532.273-2.276 2.821-2.283 3.535-4.121-3.295.042-3.374 3.3-6.48 3.533.04-2.021 2.198-1.924 2.653-3.533-1.903 1.04-3.013 2.878-5.304 3.533-.063-1.83 1.465-2.07 2.359-2.944-2.543-1.063-3.062 2.43-5.304 2.65-1.174-1.197 1.796-2.309 1.18-2.947-2.443.113-3.038 2.069-5.008 2.652-.79-.936.513-1.667 1.177-2.063-2.761-1.384-3.448 1.85-5.3 2.357-.897-.92 1.077-1.461 1.177-2.357-10.134 1.25-19.572 3.204-26.8 7.364M266.006 239.208c-1.406 2.032-2.168 4.707-3.831 6.481-.048-1.285 1.055-2.63 1.77-3.828.654-1.098 1.462-3.258 2.06-2.653M251.87 226.841c.773 1.366-3.819 2.426-1.767 4.122 1.432-.56 2.875-4.375 4.419-2.06-1.479.582-2.644 1.477-3.24 2.945.296-.003.35.237.588.295 1.493-.866 2.45-2.263 4.122-2.947.291 1.628-2.726 2.33-3.534 3.83-1.479-.88-3.634-1.078-4.122-2.945 1.524-.734 2.068-2.45 3.534-3.24M255.11 245.099c.497 1.449-.684 3.058-1.18 4.42-.146-2.011.284-3.45 1.18-4.42M255.404 253.641c-.138-1.336-1.201-1.746-1.177-3.238 1.728.157.605-2.536 1.765-2.947.068 1.904-.469 4.888-.588 6.185M261.588 243.037c.282-1.485.778-2.754 2.063-3.238-.468 1.297-1.04 2.496-2.063 3.238" fill="#fff"/><path d="M260.116 241.565c.239-7.346 8.459-12.336 14.432-11.484 4.084.583 6.063 5.175 6.182 8.539.201 5.62-3.46 11.37-8.246 12.664-7.066 1.91-12.558-3.855-12.368-9.719zm-3.829-.256c-1.092 8.554 7.972 11.03 15.904 11.524.415.763.407 1.392.881 2.726h4.126c.654 0-.728.937-1.474.806 13.07 5.788 17.559-6.802 18.851-16.566.313-2.396.275-4.886-1.183-7.068-.75.857 1.263 3.96-.293 4.712-1.219-2.608-1.017-6.638-1.768-9.72-1.096 3.734 1.341 9.266 1.476 14.433-2.168-2.057-1.74-6.705-2.652-10.013-1.967 2.972 2.684 9.5.883 13.252-1.123-2.51-1.299-5.967-1.766-9.131-2.061 2.885 2.208 8.027.883 12.076-1.852-1.39-1.027-5.452-2.061-7.657-1.002 3.865 2.124 7.672.885 11.78-1.547-1.3-.584-5.111-1.473-7.068-1.631 1.2 1.594 4.996 0 7.952-1.13-1.227-.823-3.891-1.18-5.891-1.607 1.403.782 3.86 0 7.07-1.05-.817-1.062-2.67-1.178-4.42-.954.223-1.278 1.077-1.18 2.357-1.672-.582-3.225 2.962-5.888 3.238 1.982-3.222 6.879-6.077 8.54-10.602-.61-6.922 3.635-12.591.886-18.847.209-2.341.932-4.173.881-6.776-2.075 1.559-.715 6.548-2.355 8.543-.705-2.282.584-5.106.588-7.658-1.898 1.046-.456 5.432-2.354 6.48-.596-1.486.849-3.465.586-5.596-1.349-.073-.021 2.53-.884 2.944-.933-.144.498-2.656-.882-2.354-1.088.874-.603 3.324-1.179 4.71-1.245-.505.176-2.27-.292-3.828-.865-.077-.905.667-1.767.59.648 1.012.19 3.013 0 4.122-1.65-.312-.424-2.185-.589-3.533-7.147 3.935-21.667 7.167-22.972 17.413M237.731 214.764c-2.303-.175-1.356 1.09-2.059-1.177 1.102-.022 2.034.125 2.651.589-.66.128-.121 1.452-.296 2.063-2.01.448-3.49 2.984-5.008 2.944 1.385-1.66 3.687-2.4 4.712-4.42M250.691 225.075c-.003 1.764-1.185 2.352-2.355 2.944-.032-.36-.089-.7-.592-.59.463-1.306 1.651-1.885 2.947-2.354M227.13 215.65c1.34-1.117 1.718-3.193 4.418-2.946-.584 1.87-3.042 1.864-3.24 4.121 2.65-.049 3.596-4.441 5.595-3.238-1.443 1.108-3.423 1.682-4.12 3.534 1.49.522 2.459-1.796 4.12-2.061.427.117-2.79 1.467-2.945 2.945 1.022.235 1.246-.326 1.769-.588-.99 3.062-5.044.087-5.597-1.768M238.323 217.121c-1.17 2.072-3.324 3.158-5.008 4.714 1.075-2.167 3.067-3.415 5.008-4.714M243.328 221.245c1.91 1.034 4.643 1.248 7.658 1.178.16 1.533-1.252 1.497-2.65 1.473-2.38 1.056-3.757 3.117-6.186 4.123-.495-2.308 3.496-2.56 4.125-4.711-3.15-.517-4.093 3.504-7.07 4.121.777-2.758 4.055-3.01 5.3-5.3-2.983-.386-5.283 3.898-7.069 4.712-.628-2.177 3.75-4.252 5.892-5.596" fill="#fff"/><path d="M239.5 219.183c.23.065.343.248.295.589-1.477 1.177-4.6 2.268-3.827 4.712 1.899-.923 3.628-4.905 5.887-3.535-1.96 1.404-5.573 2.638-5.299 5.303-1.458-.408-1.882-1.853-2.653-2.944 1.987-1.09 3.199-4.424 5.597-4.125M265.122 262.181c-.283.71.38 1.658-.883 1.767 1.419-3.488 2.363-7.455 4.712-10.013-1.072 2.769-2.747 5.524-3.83 8.246M341.692 222.13c-.11 1.013 1.48 1.834.591 2.649-.204-.632-1.879-2.432-.59-2.65zm9.131-17.378c1.099-.116 1.73.236 1.768 1.177-1.083.1-1.51-.45-1.768-1.177zm-23.559 12.665c1.898.887 2.327 3.23 3.239 5.006.89 1.736 2.347 3.494 2.65 5.596-.062.329-.326.458-.589.588-1.857-3.64-3.976-7.02-5.3-11.19zm15.607 11.486c1.51-.555 3.061-1.066 3.83-2.358.191-1.173-.782-1.182-.59-2.356 4.641-2.557 16.13.272 13.548-8.54 5.092-.602 10.91-.477 14.135-2.945-6.675-5.01-16.127-7.236-25.916-9.13-1.359.22 1.021 1.165.884 2.063-1.964.34-2.174-3.485-5.595-2.652.397.782 1.552.803 1.473 2.062-1.876.44-2.746-2.514-5.008-2.65-1.297.462 1.594 1.439 1.178 2.944-2.694-.057-2.438-3.057-5.006-3.24-1.24.662 2.006 1.646 1.766 3.24-2.362-.384-3.136-2.36-4.712-3.533-1.202.713 2.06 1.792 2.062 3.239-2.55.585-3.186-3.29-5.889-3.535-1.04 1.104 2.908 2.15 2.943 4.125-2.952.468-3.295-4.146-6.775-4.125.861 1.597 3.261 1.65 3.535 3.83-2.588.329-3.843-3.22-6.479-3.83.944 1.908 3.183 2.513 4.127 4.417-.503 1.243-2.279-.168-2.651-.882-.75.233.824 1.032 0 1.472-3.71-.512-3.724-4.723-7.661-5.007 1.221 1.825 3.894 2.195 4.42 4.713-3.007.228-4.139-3.89-7.366-4.417 1.219 1.924 4.16 2.124 4.715 4.71-1.005.987-1.619-.918-2.65-.88.325.923.14.777-.295 1.469-2.518-1.406-3.916-3.935-6.774-5.006 1.435 1.612 3.695 2.392 4.711 4.418-.012 1.182-1.401.778-1.176 1.473 4.717 5.096 10.556 9.079 15.02 14.43-1.863-3.833-6.424-7.515-9.72-10.894 4.892 4.727 11.339 7.9 12.96 15.901 2.14.355 3.55 2.874 5.3 2.652-2.137-5.228-4.98-9.746-7.068-15.021 2.196 1.201 3.315 4.535 4.71 7.363.705 1.42 1.61 2.729 2.358 4.122.715 1.326.788 3.347 2.355 3.828.634-1.445-.979-2.654-1.766-4.121-2.286-4.268-4.658-9.205-6.478-13.841 4.44 4.982 6.268 12.577 10.6 17.67-2.352-5.012-4.568-10.157-6.774-15.317 4.519 3.34 4.422 11.287 8.836 14.728-.845-3.672-2.98-6.052-4.124-9.424 2.591 2.02 3.382 5.847 5.007 8.835M342.871 246.865c.015 1.37 1.205 3.106.296 4.419.068-1.335-1.848-3.528-.296-4.419M346.7 234.201c0-.294.242-.348.295-.588-.47-1.59-2.03-2.09-2.943-3.24 1.938-1.437 2.682 2.07 4.419 2.652.065-.42.479-.496.584-.882-.812-1.154-1.913-2.014-2.648-3.24 1.71.745 2.63 2.274 3.532 3.828-.97 1.088-2.433 1.689-4.123 2.06-1.254-1.198-2.768-2.142-3.533-3.828 2.039.514 2.607 2.498 4.417 3.238M341.692 249.221c.391 1.183.111 3.035 1.475 3.242-.812.757-.71 2.428-2.064 2.65 1.884-1.534-.988-4.197.59-5.892M335.804 253.05c.404.015.647-.137.884-.293.172 2.519 3.379 5.77.882 7.363-.04-2.903-1.323-4.568-1.766-7.07M331.974 265.127c-1.154-3.56-2.531-6.891-3.827-10.308 2.04 2.476 3.304 7.296 3.827 10.308M339.339 251.579c-.317 2.128 1.712 4.565.293 5.89-.737-1.716-1.324-3.585-2.062-5.3.614-.17.84-.732 1.769-.59M331.68 259.53c-.372-1.786-1.277-3.042-1.765-4.711.947.064 1.241-.522 2.353-.294.484 3.295 3.675 6.862 2.652 9.718-1.224-3.095-1.568-7.072-3.829-9.13-.936 1.342 1.313 3.318.59 4.418M326.675 255.993c-1.005-.332-.7-.434-.592-1.768h1.181c.344 4 2.18 6.363 2.944 9.72-.957-.025-1.812-.15-2.357-.588 2.484-1.773-2.936-5.382-1.176-7.364M325.199 257.373c.439 2.412 1.853 3.519 2.359 6.186h-1.475c1.235-2.667-2.208-4.898-.884-6.186M334.92 253.935c.636 2.505.974 5.309 2.65 6.774-.756.028-.419 1.15-1.175 1.176-1.132-2.405-2.033-5.036-2.947-7.657.711.121.642-.535 1.472-.293M347.878 227.43c1.237-.537 2.396 1.257 3.241 2.062-.505-.016-.755.225-.885.59-1.146-.525-2.168-1.17-2.356-2.653M383.22 208.581c.188.522 1.452 1.462.587 2.062-.23-.678-2.013-1.496-.587-2.062M377.328 210.348c1.283 1.861 4.175 3.677 4.415 5.595-1.033-1.934-5.063-3.928-4.415-5.595M380.275 209.759c1.737-.943 3.53 1.83 2.356 2.945-.432-1.337-1.717-1.819-2.356-2.945M263.355 247.456c-.972-1.557 1.745-3.74 2.355-5.595-.247 2.4-1.616 3.683-2.355 5.595M385.574 202.397c.558 1.279 2.353 2.66 2.357 3.532-.567-.033-2.956-2.33-2.357-3.532M385.282 204.457c.402 1.159 2.241 2.15 1.765 3.24-1.156-.322-2.468-2.038-1.765-3.24" fill="#fff"/><path d="M368.2 220.95c-.158-1.418-2.86-1.843-2.358-2.945.924.915 2.288 2.728 3.536 2.356-.614-2.041-2.947-2.354-3.83-4.122 2.544.597 2.912 3.372 5.302 4.122.017-2.473-2.499-2.41-2.946-4.418 2.588-.134 3.047 1.864 4.123 3.24-1.016 3.348-6.328 2.976-6.185.885.721.339 1.428 1.664 2.358.881M377.623 216.239c-1.544-.42-2.552-1.375-3.239-2.652 1.36.605 2.228 1.7 3.239 2.652M361.311 216.53c0 .185 2.248-.37 2.56.295-1.901.198 1.307 2.418.252 1.768-.728-.173-1.588-1.748-2.38-.884.61 2.24 4.297 3.044 4.201 5.008-1.394-1.356-3.3-2.838-4.633-3.534v-2.652M360.838 220.068c1.722 1.223 4.676 2.78 4.417 5.007-.93-2.212-3.316-2.971-4.417-5.007M347.878 224.484c3.11.065 6.186.1 8.245-.884 1.805 2.027 4.225 3.435 5.89 5.596.662-3.147-3.669-3.77-4.713-6.184 2.392-.13 3.43 3.372 5.596 4.417.962-2.868-2.958-3.29-3.532-5.594 2.516-.224 3.818 3.225 5.596 4.71-1.36 1.292-2.152 3.152-4.713 3.24-.612-2.828-3.413-5.026-5.888-5.006 1.501 1.932 4.237 2.637 5.005 5.302-2.912-.388-4.025-5.517-6.773-4.125 1.197 1.65 3.323 2.372 4.123 4.417-2.715-.998-4.42-3.272-6.775-4.417-.87-.423-2.335.337-2.061-1.472M373.207 214.47c.8.867 2.024 1.314 2.355 2.651-1.447-.032-2.611-1.893-2.355-2.65M373.207 218.3c-.723-1.047-1.788-1.745-2.357-2.945 1.461.118 2.798 1.904 2.357 2.945M384.691 206.815a11.18 11.18 0 011.179 2.06c-.587.004-.375.804-1.179.588.016-.896-.621-1.144-.884-1.766.557-.033.207-.972.884-.882M258.642 250.107c.078.414.645.334.884.589-.763 1.79-1.135 3.968-2.651 5.005.092-1.25.399-4.66 1.767-5.594M261.294 251.559c-.564 2.666-1.792 4.492-2.355 7.069-1.819-2.03 1.153-4.403 1.472-7.07h.883M264.83 236.559c.434-.25.63-.743.588-1.472 1.952-.116 2.906-1.764 2.944-2.944.866.058 1.95-1.167 2.649-.295-1.313 2.121-4.143 4.293-6.181 4.71M267.184 253.641c-.585 1.48-1.605 4.08-2.354 4.418-.011-1.302 2.584-3.312.588-3.831-1.739 2.581-2.586 6.055-4.124 8.836-.142-3.401 2.71-6.305 3.536-9.717.945-.067 1.244.518 2.354.294M272.484 237.443c.019 2.908-1.284 6.353-3.533 6.184-4.765-.358-.385-12.478 3.533-6.184M262.471 252.463c.195.396.63.549 1.18.588-1.287 2.445-1.844 5.62-3.83 7.364.046-.732-.465-.912-.591-1.474 2.126-1.114 1.934-4.546 3.241-6.478M276.61 232.143c.128 1.657-1.86 3.596-2.948 5.004-.466-2.088 1.718-3.671 2.948-5.004" fill="#fff"/><path d="M269.244 249.812c-.016-1.927 1.59-4.661 3.24-5.89-.009 1.897-1.348 4.9-3.24 5.89zm2.06-.884c1.139-3.084 2.404-6.039 4.712-7.952.347.781-.561 1.735 0 1.768.424-.759.691-1.667 1.768-1.768-.728 2.73-2.421 7.228-4.712 6.48-.364.692-.972 2.12-1.768 1.472zm-4.713-5.301c-1.141 1.213-1.343 3.366-2.647 4.417 7.394 5.913 17.199-1.977 15.02-11.19-1.241.822-.842 3.28-2.649 3.535-.641.048-.136-1.045-.299-1.473.322-1.121-1.412 3.263-2.06 1.176-1.892 3.312-4.533 5.875-6.181 9.427-1.308-1.044.612-3.346 1.176-4.42-1.903-.914-1.496 3.016-2.945 3.534-1.278-1.88 2.084-3.77.585-5.006M270.424 234.792c-.4-1.19 1.752-2.096 1.767-3.83.347.049.837-.049.881.295-1.233.827-1.164 2.959-2.648 3.535M273.662 230.963c.906-.22.566.808 1.473.589-.69 1.664-2.027 2.688-2.944 4.124-.58-1.395 2.052-3.319 1.47-4.713M317.544 261.003c.647-.62.063-1.308-.296-1.768 1.574 0 .786 2.356 2.358 2.356.173-1.151-.252-1.71-.588-2.356 2.134-.172 1.058 2.868 2.65 3.24 0-.296.236-.35.295-.59-.197-1.176-.733-2.017-1.18-2.944 2.672-.314.895 3.815 3.243 3.83.242-2.015-.815-2.722-.886-4.418 1.492.96 1.444 3.462 2.355 5.006-4.67-.634-8.924-1.678-12.075-3.828 1.572.013 2.523-.135 3.243-.296-.013.896-.172 1.938.881 1.768M262.766 263.653c-.26 1.043.757 1.518-.295 1.768-.501-.476-.272-1.518.295-1.768M301.347 228.019c1 .614.556 3.802-.59 4.124.062-1.512-.26-3.403.59-4.124M385.574 200.041c.66 1.699 3.552 2.724 2.653 5.006.096-2.452-3.516-2.763-2.653-5.006M303.112 220.068c-.36 1.995.743 5.453-.588 6.477.204-.977-.636-5.54.588-6.477M300.462 216.825c.013.972-.12 2.086.885 2.064.69-1.112-.665-3.422.295-4.713.408 1.164.425 2.715.586 4.124-1.92 1.613-.23 6.835-1.472 9.13-.88-2.525-.99-8.4-.294-10.605M303.995 218.005c1.941 4.08.76 11.683-1.175 14.726 1.252-4.34 1.739-10.218 1.175-14.726M304.882 236.853c1.732-2.29 1.165-6.885 2.649-9.424.067.228.008.58.295.59-.067.228-.007.58-.295.588.472 3.206-2.972 9.44-2.063 12.958 1.871-2.548 1.199-7.638 3.538-9.717-.33 4.513-3.626 9.095-2.359 13.25 1.292-2.731 1.308-6.742 2.65-9.422.843 4.063-3.198 8.697-1.766 12.368 1.485-1.755 1.061-5.417 2.357-7.361.258 4.384-2.66 7.156-1.474 11.486.996-1.754.988-4.512 1.474-6.774.728-.115 1.292 1.417.884 1.47-1.105-.208-2.085 5.036-.884 6.186.896-1.555.667-4.242 1.47-5.89 1.406 1.96-1.706 4.315-.294 7.067.883-.983.594-3.137 1.474-4.121.877.3.257 2.098.882 2.65.391-.004.271-.517.59-.588 1.512 2.608 4.522 3.722 7.361 5.007-4.559-.168-8.528 1.341-11.779-.59-3.112-1.85-5.602-9.366-6.185-13.842-.621-4.779-.263-8.235 1.768-10.601-.015 1.465-1.172 3.33-.293 4.71M297.516 236.559c.144.349.316.666.59.884.774.088.233-1.143 1.18-.884-.266 1.028.961.504 1.176.294.202 1.478-.708 1.844-1.767 2.063-.467-.45-1.89-2.637-1.179-2.357M270.424 262.77c-.429-.162-1.522.345-1.473-.294 1.101-1.847 1.819-4.075 3.24-5.597-.337 2.133-2.452 3.677-1.767 5.892M270.719 254.225c1.38 2.667-3.875 5.648-2.064 8.984-1.01-.13-1.65.19-2.357.367.845-3.476 3.021-5.35 3.538-9.35h.883M273.662 257.764c.148 1.616-2.158 3.26-.59 4.417 1.412-.75.646-3.676 2.652-3.828-.058 1.327-1.548 2.424-.589 3.828-1.496-.21-2.885 1.228-4.124.295 1.17-1.283 1.14-3.77 2.65-4.712M296.044 230.963c-.168-.73-1.065-2.25-.294-2.944.768.132.868 2.448.294 2.944M277.492 258.647c.142 1.08-1.526 2.468.292 2.65.239-.853.982-2.736 1.77-2.062-.578-.142-.95 1.352-.295 1.474.607-.178 1.116-.456.884-1.474.992.186 2.735-.378 3.239.296-2.048 1.097-5.276 2.574-7.951 2.06 1.076-.59.513-2.824 2.061-2.944M297.311 218.005c0 3.403.543 10.08.588 12.664-1.199-3.653-.588-10.561-.588-13.252v.588" fill="#fff"/><path d="M211.156 196.735c.512-2.488 2.052-3.58 3.899-3.754 2.4-2.216 5.877-3.498 8.799-4.53 3.153-1.111 6.42-1.722 9.718-2.192.063-.01.128-.005.191-.014 2.077-.465 4.168-.797 6.255-.868 19.17-2.57 39.744.235 57.39 6.799 1.095.108 2.295.29 3.555.556 1.532-.293 3.144-.368 4.723-.263.086-.056.152-.122.25-.172 3.424-1.716 7.768-3.058 12.208-3.597 3.399-.745 6.918-1.09 10.22-1.37l1.042-.087c4.981-.935 10.224-1.024 15.053-.158.041-.004.083-.008.123-.01 6.296-.54 12.706-.418 18.712 1.497 2.35-.805 5.541.287 7.685 1.032.857.297 1.843.668 2.879 1.105 5.021.92 10.406 2.328 13.518 5.914.96 1.106 1.05 2.444.455 3.437 1.055 1.42 1.425 3.107.416 4.987a4.982 4.982 0 01-.508.776c-1.296 3.52-4.08 7.312-5.645 8.997-.918.987-2.174 1.013-3.115.468-.003.005-.005.013-.009.019-.15.402-.31.796-.507 1.164-.993 1.881-2.996 1.657-4.041.478-.459.49-.91.983-1.35 1.482a2.6 2.6 0 01-.55.625c-1.148 1.312-2.293 2.641-3.579 3.95-1.092 1.111-2.63.96-3.55.097.194.812.169 1.586-.038 2.316.182 1.718-.862 3.094-2.252 4.248-.628.521-1.474.51-2.206.213-1.307.572-2.735.904-4.092.915-1.215.494-2.556.497-3.932.274-.374.542-.984.898-1.87.848-.249-.014-.494-.046-.74-.068-.016.024-.034.046-.052.07.623 1.534-.172 3.252-2.1 3.498-2.465.315-4.866.066-7.208-.533.139.259.266.517.376.77a35.821 35.821 0 011.698 4.9c1.389 2.215 2.31 4.709 1.908 6.751 1.94 6.019-6.358 10.38-8.03 16.183-.665 2.305-2.97 2.895-4.844 1.587-.664-.463-1.385-.803-2.128-1.092-4.013 2.744-11.034-.858-14.604-2.755-.285-.15-.549-.325-.818-.493a2.566 2.566 0 01-2.062-.182c-.52.199-1.101.136-1.56-.396-1.252-1.448-2.218-3.056-2.984-4.765a2.583 2.583 0 01-.568-.54c-2.948-3.832-4.372-9.581-4.584-14.792-1.141.216-2.266.281-3.184.216-1.582-.113-2.945-.685-3.922-1.607-.152 1.114-.311 2.122-.512 2.867-1.235 4.559-2.807 9.57-5.75 13.339-5.145 6.588-14.806 10.113-23.313 9.417-1.424 1.42-3.99 1.777-5.424-.412-3.203-4.883-6.74-10.193-8.285-15.879-1.492-5.486.988-8.68 2.929-12.713-3.225-.445-6.363-1.561-7.82-4.46-.805-1.601-8.005-.43-10.432-1.693-4.345-2.26-2.504-7.715-6.643-9.54-3.612-1.594-6.718-4.246-9.562-7.158-1.127.344-2.455.04-3.39-1.228-1.394-1.896-2.066-3.904-3.118-5.994a3.034 3.034 0 01-.246-.727c-2.156-2.003-3.492-4.757-2.874-7.753" fill="#f5a020"/><path d="M342.699 196.197c1.035-.28 2.048-.581 3.027-.864 10.552-3.046 20.901-2.644 28.91 4.667-1.741.13-3.494.488-4.854.632-6.234.655-12.58-.639-18.632-2.14-2.855-.708-5.66-1.512-8.451-2.295zm-27.039-2.237c2.555-.527 5.048-.65 7.5-.495 3.403 1.255 6.678 2.866 10.336 3.588 1.427.283 2.898.278 4.37.118 5.697 2.188 11.332 4.8 17.129 6.32 8.355 2.193 15.56 1.185 23.977 1.429 1.898.056 2.4-2.39 1.254-3.537-.514-.515-1.139-.852-1.83-1.075-5.848-7.515-14.257-11.723-24.052-10.805-6.224.582-12.148 3.262-18.349 3.546-6.17.284-12.252-1.865-18.25-1.472-.226.015-.265.368-.031.403.936.137 1.84.356 2.733.605-1.66.079-3.337.256-5.043.572-.53.098-.274.914.256.803M229.467 196.33c7.704-4.3 17.047-6.253 25.528-4.11-1.82.617-3.644 1.313-5.533 1.89-6.666 2.034-13.252 2.47-19.995 2.22zm-6.921 4.26c8.214.54 16.273.818 24.344-1.087 5.129-1.212 10.11-3.302 15.114-5.14 5.079 1.55 10.358 2.632 15.154 0 1.086-.597.048-2.167-1.027-1.608-3.5 1.824-7.09 1.501-10.707.408.143-.048.287-.1.431-.147 1.016-.33.939-1.832-.108-2.053-2.144-.452-4.17-.372-6.144-.008-3.745-1.579-7.48-3.201-11.133-3.361-9.843-.43-19.628 2.39-27.324 8.634-1.907 1.547-1.034 4.204 1.4 4.363" fill="#004f7f"/><path d="M340.988 230.819c3.787.346 7.284-.58 7.792-4.496.152-1.176 1.422-2.263 2.606-2.238 3.336.071 6.096-1.85 9.17-2.918-.068-.607-.204-1.256-.337-1.875-.527-2.43 1.564-4.24 3.89-3.33 4.326 1.691 4.675-.875 8.178-1.58 1.483-.298 4.808-.323 5.39-1.485 2.62-5.226 8.82-4.528 8.569-11.961-.038-1.11 1.518-1.143 1.685-.088.428 2.717.995 6.07-1.01 8.39-1.234 1.429-2.631 2.677-3.977 3.998-1.017.999-.625 2.287-1.564 3.184-3.013 2.885-7.376 3.127-11.08 4.921a7.717 7.717 0 01-3.557.786c.396 1.944.365 3.868-1.13 5.526-2.403 2.67-6.222 2.259-9.315 1.318-.102-.031-.194-.075-.29-.114-.704.27-1.43.499-2.196.648-1.842 5.659-7.806 7.366-13.957 6.794-3.599-.336-2.41-5.803 1.133-5.48M316.23 259.327c1.834-1.25 4.196-1.644 6.608-1.56.368-1.376 1.488-2.662 3.608-3.544a8.095 8.095 0 013.093-.634c.244-.238.513-.45.819-.61 4.094-2.132 9.645-.046 11.436-5.864.338-1.096 2.262-1.162 2.164.165-.223 3.01-.943 5.232-2.823 7.61-.3.38-1.44.983-2.801 1.497-.012.149-.012.296-.05.453-.446 1.95-1.953 3.828-3.712 4.796-.597 1.067-1.628 1.59-2.933 1.539-.727 1.205-2.207 2.065-3.877 1.478-3.87-1.454-8.416-.118-11.74-2.798-.831-.671-.61-1.972.208-2.528M252.832 246.824c.619-1.828 3.474-3.085 4.612-.85.74 1.453 1.024 2.994 1.567 4.53.756 2.139 1.076.045 3.136.47 1.39.286 2.243 1.137 2.776 2.263.319.08.632.166.908.282.353-.172.73-.276 1.101-.266 4.794.144 7.963 4.427 12.835 5.174 1.103.168 1.265 2 .117 2.233-.374.076-.749.15-1.124.219.05 1.486-.968 3.036-2.844 3.316-2.177.324-5.814.866-8.133-.092-.204.054-.41.106-.61.12a3.283 3.283 0 01-1.302-.152c-1.156 2.097-4.807 2.849-5.344-.034-.048-.256-.09-.478-.132-.478h-.417v-.527c0-.959-.076-1.835-.123-2.875-.003-.498.099-.997.097-1.496-.182-.454-.225-.825-.265-1.148-.86.064-1.695-.057-2.377-.453-3.107-1.796-5.694-6.647-4.478-10.236M213.412 194.832c.8-1.35 2.992-1.07 3.076.641.128 2.606.295 8.246 3.766 8.72 1.738.238 3.252.742 3.948 2.444 1.213 2.975 2.866 5.978 6.826 5.916 1.954-.03 3.404-.096 5.2.518a8.748 8.748 0 011.815-.263c1.85-.073 3.55 1.685 3.072 3.576-.19.744-.25 2.496.15 3.96 1.495.377 3.222.428 4.557.464a3.22 3.22 0 011.796.587c.349-.112.701-.216 1.062-.286 1.358-.257 2.632.263 3.25 1.283.53.33.96.81 1.122 1.439.603 2.326 1.554 6.013 4.371 6.198.208-.018.419.196.645.196h.576v-.205c0 .01.079-.079.282-.063 2.213.17 2.128 3.676.08 4.188-1.767.443-3.4.267-4.771-.29-.423.133-.937.148-1.459.026-3.653-.841-5.934-3.492-5.997-6.502-1.223.385-2.443.758-3.63.854-6.497 1.186-11.302-5.237-11.04-10.161-2.187-.253-4.346.27-6.714-.91-3.353-1.674-4.967-4.037-6.29-7.043-2.522-.663-4.435-1.386-5.615-4.348-1.487-3.74-2.196-7.366-.078-10.94" fill="#004f7f"/><path d="M298.555 192.856c.057-.89.13-1.783.233-2.681.246-2.118 3.734-1.86 3.744.229 1.15.119 2.184 1.23 2.238 2.359a74.86 74.86 0 01-.779 14.948c-.261 1.69-1.748 2.138-2.992 1.7.053 1.048.127 2.096.223 3.144.985.162 1.841.876 1.876 2.208.169 6.504 2.217 14.392-1.596 20.225-1.098 1.676-3.86 1.912-4.524-.352-1.336-4.556-.175-8.676.52-13.077-1.262-6.931-4.447-22.08 1.057-28.703M305.195 218.687c.093-3.138 4.98-3.428 4.899-.256-.267 10.48-2.264 21.3.881 31.476.408 1.316-1.463 1.849-1.995.637-2.074-4.728-2.984-9.297-3.086-14.44-.058-2.885.264-5.756.202-8.644-.062-2.983-.992-5.764-.901-8.773M287.798 242.11c.912-1.795.23-4.563.048-6.46-.464-4.814.685-9.894 1.532-14.618.153-.857 1.277-.983 1.737-.32 1.479 2.13 1.232 4.767 1.192 7.272-.056 3.47.059 6.67.487 10.124.526 4.228-.827 9.623-5.351 10.91-1.181.335-2.084-.63-1.965-1.77.232-2.213 1.314-3.161 2.32-5.139M311.312 205.368c5.439.493 10.84-1.892 16.235-2.33 7.923-.64 16.43 1.086 24.228 2.226.73.107.62 1.237-.097 1.268-8.466.36-17.38-1.465-25.702.621-5.134 1.287-10.285 3.838-15.69 3.174-3.282-.404-2.156-5.247 1.026-4.96M252.908 199.581c5.84-1.05 11.982.479 17.779 1.363 6.6 1.005 13.541 2.053 19.51 5.177 1.026.538.806 2.388-.487 2.336-5.887-.232-11.716-1.596-17.524-2.538-6.542-1.062-13.752-.962-19.795-3.854-1.304-.622-.676-2.27.517-2.484M235.071 194.076c1.136-1.45 3.815-1.392 5.495-1.872 2.022-.577 3.91-.928 5.941-.26.933.305 1.035 1.48.099 1.87-2.628 1.097-9.495 5.143-11.656 1.734-.306-.483-.218-1.039.121-1.472M358.688 195.917c1.212-.91 2.808-.178 4.022.372a15.845 15.845 0 014.104 2.674c.928.832.128 2.404-1.09 2.153-1.474-.304-2.801-.847-4.166-1.473-1.263-.58-2.846-.958-3.348-2.4-.18-.514.069-1.018.478-1.326M325.238 242.652c-.068-1.512-.288-3.204.233-4.605.293-.79 1.253-1.298 2.045-1.34 1.131-.06 2.059.658 2.443 1.688.265.706.15 1.532.13 2.269l-.054 2.103c-.001.065-.019.126-.024.19-.03.826-.47 1.61-1.223 2.026-.066.04-.141.065-.214.098-.068.03-.128.068-.202.092-.012.004-.024.003-.034.007-.151.047-.31.074-.474.09-.014 0-.029-.174-.044-.172-.172.012-.35-.206-.533-.206h-.005c-.043 0-.081.176-.123.167-.13-.027-.254.01-.376-.04-.009-.003-.018.039-.026.036-.103-.044-.198-.076-.295-.135-.09-.052-.179-.094-.264-.157l-.02-.012a2.292 2.292 0 01-.847-1.239 2.138 2.138 0 01-.093-.86M268.259 238.364c.412-.71 1.14-1.13 1.961-1.027.24-.17.54-.285.951-.308.497-.026 1.036.224 1.29.664.293.499.293.93.1 1.46-.031.087-.294.567-.237.35-.009.037-.032.058-.042.093-.092.336-.2.67-.31.999-.129.393-.346.86-.458 1.308-.02.277-.05.554-.088.83-.004.042-.005.083-.014.124-.003.022-.003.044-.007.066-.003-.001-.007-.001-.009-.003-.165.776-.834 1.39-1.658 1.434-1.068.056-1.718-.738-1.89-1.701-.232-1.295-.264-3.124.411-4.29" fill="#a56f55"/><path d="M322.728 237.039c.555-2.09 1.519-2.986 2.714-3.335-.147.873.926 1.664 1.85 1.201 6.526-3.261 12.727 15.51 1.7 12.45-4.432-1.228-7.488-5.692-6.264-10.316zm7.387 15.804c14.133 1.03 10.57-15.268 3.813-20.318a2.202 2.202 0 00-.142-1.576c-1.854-3.702-7.695-3.725-10.963-2.193-2.952 1.387-5.01 4.52-5.488 7.717-1.221 8.17 4.372 15.756 12.78 16.37M267.327 239.44c.012-2.19 1.055-3.968 2.69-5.41 2.17-1.909 2.506-.823 4.434.557.599.429 1.252.577 1.847.5 2.848 2.874 4.326 7.85.778 10.333-4.865 3.404-9.78-.341-9.749-5.98zm9.345 12.435c6.926-3.143 10.123-10.65 5.406-17.28-1.091-1.532-2.534-3.08-4.232-4.11-1.299-3.054-5.428-4.116-8.574-2.746-3.286 1.429-6.888 5.226-7.438 8.904-1.171 7.825 5.461 19.486 14.838 15.232M227.463 196.327c4.103-.92 8.336-.642 12.505-1.07 5.295-.544 9.747-2.704 14.658-4.466 1.024-.368 2.102 1.105 1.212 1.874-6.762 5.846-20.187 8.323-28.459 4.758-.461-.198-.423-.983.084-1.096M353.479 197.748c3.077.333 6.05 1.344 9.153 1.697 3.603.408 7.254.236 10.867.544 1.083.092.856 1.734-.14 1.823-6.112.556-15.445 1.397-20.603-2.639-.709-.554-.02-1.506.723-1.425M321.807 196.023c2.033-.711 4.3.014 6.36.409a46.53 46.53 0 017.772 2.207c.708.268.283 1.382-.428 1.229-2.568-.555-5.176-.97-7.775-1.364-2.117-.321-4.349-.261-6.134-1.528-.368-.259-.158-.827.205-.953M315.28 195.616c.687-.015.887.973.216 1.19-1.296.418-2.561.915-3.862 1.325-.719.226-2.22.664-2.555-.392-.723-2.272 5.124-2.098 6.201-2.123M282.484 194.95c.136-.438.422-.915.918-1.018 2.537-.532 6.206-.18 8.193 1.608.72.65.07 1.696-.805 1.588-1.059-.13-2.123-.221-3.184-.348-1.35-.161-2.74.064-4.067-.224-.468-.103-.881-.45-1.019-.917-.07-.238-.112-.447-.036-.688M272.667 195.072c.805-.485 1.657-.379 2.575-.347 1.234.042 2.472.158 3.705.24.744.051.847 1.134.061 1.187l-3.22.216c-1.001.068-2.178.241-3.069-.292-.361-.216-.455-.763-.052-1.004M318.259 217.576c4.23-.53 7.601 2.115 11.128 4.095 2.56 1.437 5.16 2.529 8.155 2.457 2.329-.056 4.34-.396 6.65.057 1.179.23 1.059 2.083-.158 2.102-5.011.077-8.642 2.578-13.744.74-4.587-1.652-9.747-4.01-12.808-7.938-.491-.63.113-1.43.777-1.513M306.683 214.764c1.217-.772 2.51.936 3.456 1.473.355.202.175.744-.235.674-.572-.1-1.137-.28-1.694-.446-.56-.168-1.411-.402-1.694-.945-.136-.264-.102-.585.167-.756M265.89 223.879c2.265-3.087 7.098-3.731 10.504-5.162 4.157-1.746 7.5-4.948 12.197-4.854 1.223.024 1.421 1.529.367 2.012-4.048 1.849-7.175 5.028-11.29 6.84-3.353 1.476-7.524 3.958-11.229 2.838-.777-.234-1.024-1.028-.55-1.674" fill="#a53e0c"/><path d="M237.436 197.39c-.406-.182.106-1.135-.441-1.178-1.024 1.01-2.35.361-3.684 1.179v-2.063c1.333 1.477 1.196-1.59 2.507 0 .297-.392.202-1.096.81-1.177.314.274.055 1.084.844.882-.241-.832.399-.761.278-1.472 1.081.219 1.628-.724 2.349 0-.023-.513-.204-.916.024-1.177 1.767-.096 3.855.393 3.855.881v2.652c-1.334 1.614-3.999.538-5.038 1.767-.693.008-.601-.508-1.504-.293M245.096 194.444c-.094-.397-.421-.561-.293-1.179.396-.093.563-.417 1.176-.293.057.843.039 1.607-.883 1.472M311.064 194.15c1.487 1.46 3.318 2.573 4.124 4.711-1.262-.222-5.008-3.306-4.124-4.71M285.148 198.861c1.102-1.938 2.711-3.376 4.714-4.417-.722 2.16-3.232 3.992-4.714 4.417M366.727 200.63c-.619-1.56-2.448-.38-3.535-1.473-.032 1.147-1.28 1.076-2.354 1.178-.188-1.738-1.002-.136-2.063-.294-.616-1.22-1.97-.904-2.944-1.766-.121-3.252 1.73-3.254 4.416-3.242.2 1.284 1.424 1.29 2.357 1.179.408.475.248 1.517.883 1.765-.052-.641.241-.936.883-.882.04.548.193.984.59 1.18.119-.372.379-.604.882-.591.192 1.467.461.935 1.473.59.361.834.241 1.947-.588 2.357" fill="#381400"/><path d="M354.652 196.801v-1.473h.884c.574.57.307 1.804-.884 1.473M312.538 199.157c-1.782-.574-2.958-1.753-3.532-3.534 1.91.446 3.244 1.464 3.532 3.534M287.798 199.45c.118-2.09 2.152-3.671 3.83-3.238-1.005 1.35-2.07 2.641-3.83 3.237M218.002 200.923c.394-1.467.702-3.027 2.061-3.532-.192 1.672-.637 3.092-2.061 3.532M309.298 199.45c-.83-.054-1.256-.51-1.178-1.473 1.091-.17 1.823.796 1.178 1.472M290.742 199.745c-.068-1.048.425-1.541 1.477-1.47.067 1.048-.427 1.538-1.477 1.47M380.275 201.512c.064-.23.244-.343.588-.292.276 1.292 1.243 1.896 1.177 3.532-1.522-.147-1.478-1.859-1.765-3.24M249.219 202.985c-.621.263-.872.896-1.768.884-.03-.94 1.53-1.981 1.768-.884M352.591 205.93c-1.083.1-1.51-.451-1.768-1.178 1.099-.116 1.73.236 1.768 1.177M265.71 227.43c-.015-.378-.378-.409-.292-.885 2.106-3.102 3.785-8.176 6.477-9.72-1.739 3.854-3.535 7.656-6.185 10.604M330.503 222.423c.89 1.736 2.347 3.494 2.65 5.596-.062.329-.326.458-.589.588-1.857-3.64-3.976-7.02-5.3-11.19 1.898.887 2.327 3.23 3.239 5.006M257.759 220.656c-.336 1.037-.644 2.1-1.472 2.652.205-1.168.455-2.296 1.472-2.652M341.692 222.13c-.11 1.013 1.48 1.834.591 2.649-.204-.632-1.879-2.432-.59-2.65M272.484 243.921c-.009 1.898-1.348 4.902-3.24 5.89-.016-1.926 1.59-4.66 3.24-5.89M327.558 250.696c-1.103-1.745-2.134-3.559-2.651-5.89 1.759.727 3.757 4.243 2.65 5.89M258.939 193.856c-4.28.779-8.183 1.956-10.897 3.535-1.751-1.688-3.72 1.337-4.714 2.354-.114-.897.775-1.498-.293-1.768-1.485.872-1.68 3.034-4.123 2.946-.125-1.216 1.128-1.687 0-2.355-1.616-.037-1.312 3.392-2.944 2.355.454-.426.616-1.147.588-2.062-1.193.408-.932-.636-1.77-.586-1.071.21-1.592 2.514-2.354 2.06.626-.2.964-1.97 0-2.06-.913.372-1.286 2.82-2.356 2.06.344-.567 1.935-1.575.59-2.06-1.276 0-1.162 1.388-2.06 1.766-.083-.517.828-1.47 0-1.766-1.107-.224-.646 1.124-1.476 1.174.512-.98-.148-1.304 0-2.648 2.625-1.498 3.921-4.325 7.952-4.417 6.248-4.483 18.358-1.721 23.857 1.472zm19.436 2.356c2.35-1.481 3.865-3.792 5.007-6.481-1.159-.114-.9-.207-2.062-.587-1.062 1.783-2.372 3.32-3.536 5.007-.296-1.091 2.032-2.088 1.77-4.123-1.02.235-1.132-.439-2.062-.297-.506 1.162-1.41 1.928-2.061 2.946-.657-.042.38-.741 0-1.472-1.496-.021-1.501 1.446-2.359 2.06-.566-.118-.229-1.14-1.177-.881-.18.8-.584 1.377-1.176 1.767-1.07-.268-.179-.871-.295-1.767-1.036-.053-.969.993-1.769 1.177-7.08.403-10.633-2.718-16.197-3.83-.346-.046-.248-.536-.295-.883-.577.59-2.633.933-2.355-.883-.642-.053-.94.24-.882.883-.531.039-.622-.36-1.182-.292-.565-.032.46-1.1-.293-1.475-.98.1-1.045 1.116-1.767 1.475-.865-.252.384-.744 0-1.475-1.685-.21-1.258 1.686-2.945 1.475-.863-.25.381-.743 0-1.473-2.004.286-2.564.426-4.123 2.062-.054-1.042 1.247-1.61.588-2.356-1.7.166-1.246 2.487-2.648 2.947.176-1.192 1.014-1.725.88-3.233-1.765.409-.742.852-2.65.305-.151.925-.515 1.665-.883 2.379-.293-.234.11-.99-.588-1.432-.93.738-1.325 2.097-1.767 3.324-.653-.302.383-2.187 0-2.187h-1.178c.196 1.333-.464 1.721-.587 2.776-.764-.499.568-1.537.293-2.524-1.72.88-2.398 1.22-2.946 2.944-.354-.332-.534-.839-1.471-.588-.05 1.957-.657 3.045-2.061 2.944-.372 1.887-.879 3.637-2.063 4.713.19-.992.845-1.51.587-2.945-1.61.453-1.091 3.03-2.352 3.83.832.91 1.825-.514 2.942-.297.806.268-.521 1.032.296 1.475 1.18 0 .976-1.381 1.768-1.77 1.431.369-.493 1.505.292 2.062.74.744.935-.563 1.475-.881.005 1.666 1.639.366 1.47 1.766.94.252.913-.465 1.474-.59.523.006-.468 1.39.296 1.768.745-.038 1.14-.428 1.175-1.178.946-.26.405.968 1.177.882.95.258.612-.764 1.18-.882 1.29 1.332 2.49-.694 3.83.588 4.522-1.18 8.442-1.861 11.78-4.124.709-.12.64.538 1.47.296 3.993-5.004 13.419-4.3 20.324-3.534.272.214.445.536.585.882.739.052.924-.453 1.18-.882.162.737 1.986.96 1.768-.295 1.027.713 2.11.584 2.65-.59.401.091.245.74.296 1.18.614-.125.777.2 1.177.294" fill="#381400"/><path d="M373.207 202.69c-1.215.233-.553-1.409-1.768-1.178-.844.459.615 1.376-.295 1.767-.226-.951-.814-1.542-1.766-1.767-.959 1.045.594 1.363.586 2.357-1.657-.013-.702-2.633-2.649-2.357-.379 1.188.845 2.27.296 2.652-.69-1.079-1.112-2.424-2.356-2.944-.385.593-1.56.403-1.768 1.177.237.55.492 1.078.59 1.767-1.925-.04-.867-3.06-3.24-2.652-.174 1.057.34 1.425.59 2.063-2.993.442-2.364-2.744-4.713-2.944-.095.68.048 1.129.293 1.47-1.777-1.26-2.173-3.282-4.12-3.24-.359.008-.583.668-.883.588-.785-.196-1.237-1.95-2.36-.881-1.622-1.767-5.538-2.076-8.248-3.535 6.859-2.156 18.371-4.533 24.152.295 3.767.456 5.299 3.147 7.659 5.007.217 1.078-.725 1.637 0 2.356zm6.775 1.767c.132-1.024-.499-3.814-1.768-4.416-.092 1.07.045 1.916.292 2.65-.852-1.304-1.435-2.886-1.766-4.714-1.798.23-1.637-1.502-1.766-2.944-1.191-.105-1.682.77-1.472-.882-.42-.026-.834-.05-.886.293-.765-.313-.412-1.745-1.177-2.06-1.253-.056-.332 1.845-.295 2.355-.893-.484-.576-2.175-1.18-2.944-1.326.138-.666 1.386-.586 2.356-.7-.775-.971-1.976-1.178-3.24-.925-.138-1.317.256-1.181 1.177-.577-.499-.79-1.37-.883-2.357-1.438.328-1.408.732-2.058-.587-1.358.67.094 2.572.292 3.533-1.371-.464-1.384-3.628-2.943-2.946.075.906.637 1.326.883 2.064-1.711-1.484-2.022-1.876-4.123-2.064-.245.834.413.765.293 1.474-1.857.188-1.5-1.84-3.238-1.768-.244.834.413.763.294 1.474-1.41.132-.808-1.746-2.357-1.474-.093.684.05 1.13.295 1.474-1.12.14-1.839-.126-2.063-.883-.855.253-.33.44-.292 1.177-1.41.134-1.436.323-2.357-.294.082.476-.279.506-.291.884-5.621.794-10.456 3.505-16.497 2.944-.858-.22-.568-1.592-1.766-1.474-.216.903.51.868.295 1.768-1.416.236-1.223-1.133-1.77-1.768-.642-.053-.935.243-.882.886-1.303-.367-.877-2.462-2.652-2.356-.24.832.417.76.296 1.47-1.105-.76-1.637-2.09-2.355-3.237-1.024.516-1.117.257-2.062.588.498 1.76 1.458 3.059 2.357 4.417-1.796-1.446-2.555-3.925-4.123-5.596-.894.552-.826.234-1.768.59.826 2.906 2.586 4.873 4.418 6.774.57-.413 1.804-.16 1.472-1.473.564.119 1.665 2.187 2.057.59.961-.077.848.915 1.47 1.177 1.274-.822 1.017-.116 2.35.296v-.886c5.333.615 13.208-1.616 16.497 2.356 1.579-.468 3.546.624 3.836 2.359.682.092 1.134-.05 1.475-.297 1.695 2.052 5.345 2.07 7.656 4.124 2.684-.106 4.879.409 6.48 1.178.737.05.921-.453 1.176-.884.585.2.676.898 1.18 1.178.432-.256.933-.44.885-1.178.86.219.57 1.588 1.766 1.474.401-.378.401-1.392 0-1.768 1.004-.222.372 1.196 1.468.882.232-.261.32-.664.297-1.177.587.003.373.804 1.18.59-.027-.805.49-.593 0-1.178 1.212-.232.55 1.41 1.767 1.177.588-.586-.095-1.401-.296-2.062.344.048.525-.064.59-.294.996.182.47 1.884 1.767 1.767.379-.388.379-1.085 0-1.473.953.42 2.22.532 2.947 1.178" fill="#381400"/><path d="M227.13 215.65c1.34-1.117 1.718-3.193 4.418-2.946-.584 1.87-3.042 1.864-3.24 4.121 2.65-.049 3.596-4.441 5.595-3.238-1.443 1.108-3.423 1.682-4.12 3.534 1.49.522 2.459-1.796 4.12-2.061.427.117-2.79 1.467-2.945 2.945 1.022.235 1.246-.326 1.769-.588-.99 3.062-5.044.087-5.597-1.768zm5.889 3.533c1.385-1.66 3.687-2.4 4.712-4.42-2.303-.174-1.356 1.09-2.059-1.176 1.102-.022 2.034.125 2.651.589-.66.128-.121 1.452-.296 2.063-2.01.448-3.49 2.984-5.008 2.944zm.296 2.652c1.075-2.167 3.067-3.415 5.008-4.714-1.17 2.072-3.324 3.158-5.008 4.714zm.588 1.473c1.987-1.09 3.199-4.424 5.597-4.125.23.065.343.248.295.589-1.477 1.177-4.6 2.268-3.827 4.712 1.899-.923 3.628-4.905 5.887-3.535-1.96 1.404-5.573 2.638-5.299 5.303-1.458-.408-1.882-1.853-2.653-2.944zm9.425-2.063c1.91 1.034 4.643 1.248 7.658 1.178.16 1.533-1.252 1.497-2.65 1.473-2.38 1.056-3.757 3.117-6.186 4.123-.495-2.308 3.496-2.56 4.125-4.711-3.15-.517-4.093 3.504-7.07 4.121.777-2.758 4.055-3.01 5.3-5.3-2.983-.386-5.283 3.898-7.069 4.712-.628-2.177 3.75-4.252 5.892-5.596zm4.416 6.184c.463-1.306 1.651-1.885 2.947-2.354-.003 1.764-1.185 2.352-2.355 2.944-.032-.36-.089-.7-.592-.59zm.592 2.652c1.524-.734 2.068-2.45 3.534-3.24.773 1.366-3.819 2.426-1.767 4.122 1.432-.56 2.875-4.375 4.419-2.06-1.479.582-2.644 1.477-3.24 2.945.296-.003.35.237.588.295 1.493-.866 2.45-2.263 4.122-2.947.291 1.628-2.726 2.33-3.534 3.83-1.479-.88-3.634-1.078-4.122-2.945zm7.656 17.375c.068 1.904-.469 4.888-.588 6.185-.138-1.336-1.201-1.746-1.177-3.238 1.728.157.605-2.536 1.765-2.947zm-2.062 2.063c-.146-2.011.284-3.45 1.18-4.42.497 1.449-.684 3.058-1.18 4.42zm2.357-8.21c1.305-10.246 15.825-13.478 22.972-17.413.165 1.348-1.061 3.221.59 3.533.189-1.11.647-3.11 0-4.121.86.076.9-.668 1.766-.59.468 1.557-.953 3.322.292 3.827.576-1.386.09-3.836 1.179-4.71 1.38-.302-.051 2.21.882 2.354.863-.414-.465-3.017.884-2.944.263 2.13-1.182 4.11-.586 5.596 1.898-1.048.456-5.434 2.354-6.48-.004 2.552-1.293 5.376-.588 7.658 1.64-1.995.28-6.984 2.355-8.543.05 2.603-.672 4.435-.881 6.776 2.749 6.256-1.496 11.925-.886 18.847-1.661 4.525-6.558 7.38-8.54 10.602 2.663-.276 4.216-3.82 5.888-3.238-.098-1.28.226-2.134 1.18-2.356.116 1.749.128 3.602 1.178 4.418.782-3.21-1.607-5.666 0-7.07.357 2 .05 4.665 1.18 5.892 1.594-2.956-1.631-6.751 0-7.952.889 1.957-.074 5.768 1.473 7.068 1.239-4.108-1.887-7.915-.885-11.78 1.034 2.205.209 6.268 2.061 7.657 1.325-4.05-2.944-9.19-.883-12.076.467 3.164.643 6.623 1.766 9.13 1.801-3.749-2.85-10.278-.883-13.251.912 3.309.484 7.958 2.652 10.016-.135-5.167-2.572-10.698-1.476-14.431.75 3.081.55 7.116 1.768 9.724 1.556-.753-.457-3.844.293-4.703 1.458 2.183 1.496 4.69 1.183 7.087-1.292 9.764-5.781 22.317-18.85 16.53.745.13 2.127-.807 1.473-.807h-4.126c-.474-1.334-.466-1.963-.881-2.726-7.932-.494-16.996-2.97-15.904-11.524zm.588 14.392c.092-1.25.399-4.66 1.767-5.594.078.414.645.334.884.589-.763 1.79-1.135 3.968-2.651 5.005zm3.536-4.142h.883c-.564 2.666-1.792 4.492-2.355 7.069-1.819-2.03 1.153-4.403 1.472-7.07zm-1.181 7.382c2.126-1.114 1.934-4.546 3.241-6.478.195.396.63.549 1.18.588-1.287 2.445-1.844 5.62-3.83 7.364.046-.732-.465-.912-.591-1.474zm2.064 4.123c-.142-3.401 2.71-6.305 3.536-9.717.945-.067 1.244.518 2.354.294-.585 1.48-1.605 4.08-2.354 4.418-.011-1.302 2.584-3.312.588-3.831-1.739 2.581-2.586 6.055-4.124 8.836zm1.472.59c-.26 1.042.757 1.517-.295 1.767-.501-.476-.272-1.518.295-1.768zm1.473.294c1.419-3.488 2.363-7.455 4.712-10.013-1.072 2.769-2.747 5.524-3.83 8.246-.282.71.38 1.658-.882 1.767zm2.059-.372c.845-3.476 3.021-5.35 3.538-9.35h.883c1.38 2.666-3.875 5.647-2.064 8.983-1.01-.13-1.65.19-2.357.367zm2.653-1.1c1.101-1.847 1.819-4.075 3.24-5.597-.337 2.133-2.452 3.677-1.767 5.892-.429-.163-1.522.344-1.473-.295zm2.06 0c1.17-1.283 1.14-3.77 2.65-4.712.149 1.616-2.157 3.26-.589 4.417 1.412-.75.646-3.676 2.652-3.828-.058 1.327-1.548 2.424-.589 3.828-1.496-.21-2.885 1.228-4.124.295zm4.42-.885c1.076-.59.513-2.824 2.061-2.944.142 1.08-1.526 2.468.292 2.65.239-.853.982-2.736 1.77-2.062-.578-.142-.95 1.352-.295 1.474.607-.178 1.116-.456.884-1.474.992.186 2.735-.378 3.239.296-2.048 1.097-5.276 2.574-7.951 2.06zm20.319-33.572c.768.132.868 2.448.294 2.944-.168-.73-1.065-2.25-.294-2.944zm1.561-10.602v.588c0 3.403.543 10.08.588 12.664-1.199-3.653-.588-10.561-.588-13.252zm.205 19.142c.144.349.316.666.59.884.774.088.233-1.143 1.18-.884-.266 1.028.961.504 1.176.294.202 1.478-.708 1.844-1.767 2.063-.467-.45-1.89-2.637-1.179-2.357zm2.946-19.734c.013.972-.12 2.086.885 2.064.69-1.112-.665-3.422.295-4.713.408 1.164.425 2.715.586 4.124-1.92 1.613-.23 6.835-1.472 9.13-.88-2.525-.99-8.4-.294-10.605zm.885 11.194c1 .614.556 3.802-.59 4.124.062-1.512-.26-3.403.59-4.124zm1.765-7.951c-.36 1.995.743 5.453-.588 6.477.204-.977-.636-5.54.588-6.477zm-.292 12.663c1.252-4.34 1.739-10.218 1.175-14.726 1.941 4.08.76 11.683-1.175 14.726zm2.355-.588c-.015 1.465-1.172 3.33-.293 4.71 1.732-2.29 1.165-6.885 2.649-9.424.067.228.008.58.295.59-.067.228-.007.58-.295.588.472 3.206-2.972 9.44-2.063 12.958 1.871-2.548 1.199-7.638 3.538-9.717-.33 4.513-3.626 9.095-2.359 13.25 1.292-2.731 1.308-6.742 2.65-9.422.843 4.063-3.198 8.697-1.766 12.368 1.485-1.755 1.061-5.417 2.357-7.361.258 4.384-2.66 7.156-1.474 11.486.996-1.754.988-4.512 1.474-6.774.728-.115 1.292 1.417.884 1.47-1.105-.208-2.085 5.036-.884 6.186.896-1.555.667-4.242 1.47-5.89 1.406 1.96-1.706 4.315-.294 7.067.883-.983.594-3.137 1.474-4.121.877.3.257 2.098.882 2.65.391-.004.271-.517.59-.588 1.512 2.608 4.522 3.722 7.361 5.007-4.559-.168-8.528 1.341-11.779-.59-3.112-1.85-5.602-9.366-6.185-13.842-.621-4.779-.263-8.235 1.768-10.601zm8.245 27.388c1.572.013 2.523-.135 3.243-.296-.013.896-.172 1.938.881 1.768.647-.62.063-1.308-.296-1.768 1.574 0 .786 2.356 2.358 2.356.173-1.151-.252-1.71-.588-2.356 2.134-.172 1.058 2.868 2.65 3.24 0-.296.236-.35.295-.59-.197-1.176-.733-2.017-1.18-2.944 2.672-.314.895 3.815 3.243 3.83.242-2.015-.815-2.722-.886-4.418 1.492.96 1.444 3.462 2.355 5.006-4.67-.634-8.924-1.678-12.075-3.828zm12.663 4.028c1.235-2.667-2.208-4.898-.884-6.186.439 2.412 1.853 3.519 2.359 6.186h-1.475zm1.768-.202c2.484-1.773-2.936-5.382-1.176-7.364-1.005-.332-.7-.434-.592-1.768h1.181c.344 4 2.18 6.363 2.944 9.72-.957-.025-1.812-.15-2.357-.588zm.296-8.538c2.04 2.476 3.304 7.296 3.827 10.308-1.154-3.56-2.531-6.891-3.827-10.308zm2.944.294c-.936 1.342 1.313 3.318.59 4.418-.373-1.787-1.278-3.043-1.766-4.712.947.064 1.241-.522 2.353-.294.484 3.295 3.675 6.862 2.652 9.718-1.224-3.095-1.568-7.072-3.829-9.13zm2.357-.885c.711.121.642-.535 1.472-.293.636 2.505.974 5.309 2.65 6.774-.756.028-.419 1.15-1.175 1.176-1.132-2.405-2.033-5.036-2.947-7.657zm4.122 5.892c-.04-2.903-1.323-4.568-1.766-7.07.404.015.647-.137.884-.293.172 2.519 3.379 5.77.882 7.363zm2.062-2.65c-.737-1.717-1.324-3.586-2.062-5.3.614-.171.84-.733 1.769-.591-.317 2.128 1.712 4.565.293 5.89zm1.471-2.357c1.884-1.534-.988-4.197.59-5.892.39 1.183.11 3.035 1.474 3.242-.812.757-.71 2.428-2.064 2.65zm2.064-3.83c.068-1.334-1.848-3.527-.296-4.418.015 1.37 1.205 3.106.296 4.419zm-5.303-31.215c1.144 3.372 3.279 5.752 4.124 9.424-4.414-3.441-4.317-11.388-8.836-14.728 2.206 5.16 4.422 10.305 6.774 15.317-4.332-5.093-6.16-12.688-10.6-17.67 1.82 4.636 4.192 9.573 6.478 13.84.787 1.468 2.4 2.677 1.766 4.122-1.567-.481-1.64-2.502-2.355-3.828-.748-1.393-1.653-2.702-2.357-4.122-1.396-2.828-2.515-6.162-4.711-7.363 2.088 5.275 4.93 9.793 7.068 15.021-1.75.222-3.16-2.297-5.3-2.652-1.621-8.001-8.068-11.174-12.96-15.901 3.296 3.379 7.857 7.061 9.72 10.895-4.464-5.352-10.303-9.335-15.02-14.431-.225-.695 1.164-.29 1.176-1.473-1.016-2.026-3.276-2.806-4.71-4.418 2.857 1.07 4.255 3.6 6.773 5.006.434-.692.62-.546.294-1.47 1.032-.037 1.646 1.868 2.651.882-.555-2.587-3.496-2.787-4.715-4.711 3.227.527 4.359 4.645 7.366 4.417-.526-2.518-3.199-2.888-4.42-4.713 3.937.284 3.95 4.495 7.661 5.007.824-.44-.75-1.24 0-1.472.372.714 2.148 2.125 2.65.882-.943-1.904-3.182-2.51-4.126-4.417 2.636.61 3.89 4.159 6.479 3.83-.274-2.18-2.674-2.233-3.535-3.83 3.48-.021 3.823 4.593 6.775 4.125-.035-1.974-3.983-3.021-2.943-4.125 2.703.245 3.339 4.12 5.89 3.535-.004-1.447-3.265-2.526-2.063-3.24 1.576 1.174 2.35 3.15 4.712 3.534.24-1.594-3.006-2.578-1.766-3.24 2.568.183 2.312 3.183 5.006 3.24.416-1.505-2.475-2.482-1.178-2.944 2.262.136 3.132 3.09 5.008 2.65.079-1.26-1.076-1.28-1.473-2.062 3.421-.833 3.63 2.992 5.595 2.652.137-.898-2.243-1.842-.884-2.062 9.789 1.893 19.241 4.118 25.916 9.129-3.226 2.468-9.043 2.343-14.135 2.945 2.583 8.812-8.907 5.983-13.548 8.54-.192 1.174.781 1.183.59 2.356-.769 1.292-2.32 1.803-3.83 2.358-1.625-2.988-2.416-6.815-5.007-8.835zm4.419 10.895c2.039.514 2.607 2.498 4.417 3.238 0-.294.242-.348.295-.588-.47-1.59-2.03-2.09-2.943-3.24 1.938-1.437 2.682 2.07 4.419 2.652.065-.42.479-.496.584-.882-.812-1.154-1.913-2.014-2.648-3.24 1.71.745 2.63 2.274 3.532 3.828-.97 1.088-2.433 1.689-4.123 2.06-1.254-1.198-2.768-2.142-3.533-3.828zm7.95-.882c-1.145-.524-2.167-1.17-2.355-2.652 1.237-.536 2.396 1.258 3.241 2.063-.505-.016-.755.225-.885.59zm-.294-4.125c-.87-.423-2.335.337-2.061-1.472 3.11.065 6.186.1 8.245-.884 1.805 2.027 4.225 3.435 5.89 5.596.662-3.147-3.669-3.77-4.713-6.184 2.392-.13 3.43 3.372 5.596 4.417.962-2.868-2.958-3.29-3.532-5.594 2.516-.224 3.818 3.225 5.596 4.71-1.36 1.292-2.152 3.152-4.713 3.24-.612-2.828-3.413-5.026-5.888-5.006 1.501 1.932 4.237 2.637 5.005 5.302-2.912-.388-4.025-5.517-6.773-4.125 1.197 1.65 3.323 2.372 4.123 4.417-2.715-.998-4.42-3.272-6.775-4.417zm15.316-.881c-.93-2.212-3.316-2.971-4.417-5.007 1.722 1.223 4.676 2.78 4.417 5.007zm-3.944-5.892v-2.652c0 .184 2.259-.371 2.572.294-1.901.198 1.272 2.418.217 1.768-.729-.173-1.541-1.748-2.333-.884.61 2.24 4.263 3.044 4.167 5.008-1.396-1.356-3.29-2.838-4.623-3.534zm4.53.885c.722.339 1.429 1.664 2.36.881-.16-1.417-2.86-1.842-2.36-2.944.925.915 2.289 2.728 3.537 2.356-.614-2.041-2.947-2.354-3.83-4.122 2.544.597 2.912 3.372 5.302 4.122.017-2.473-2.499-2.41-2.946-4.418 2.588-.134 3.047 1.864 4.123 3.24-1.016 3.348-6.328 2.976-6.185.885zm7.366-1.768c-.723-1.047-1.788-1.745-2.357-2.945 1.461.118 2.798 1.904 2.357 2.945zm0-3.83c.8.867 2.024 1.314 2.355 2.651-1.447-.032-2.611-1.893-2.355-2.65zm1.177-.883c1.36.605 2.228 1.7 3.239 2.652-1.544-.42-2.552-1.375-3.239-2.652zm2.944-3.24c1.283 1.862 4.175 3.678 4.415 5.596-1.033-1.934-5.063-3.928-4.415-5.595zm2.947-.588c1.737-.943 3.53 1.83 2.356 2.945-.432-1.337-1.717-1.819-2.356-2.945zm2.945-1.178c.188.522 1.452 1.462.587 2.062-.23-.678-2.013-1.496-.587-2.062zm.587-.884c.557-.033.207-.972.884-.882a11.18 11.18 0 011.179 2.06c-.587.004-.375.804-1.179.588.016-.896-.621-1.144-.884-1.766zm3.24 0c-1.156-.322-2.468-2.038-1.765-3.24.402 1.159 2.241 2.15 1.765 3.24zm.884-1.768c-.567-.033-2.956-2.33-2.357-3.532.558 1.279 2.353 2.66 2.357 3.532zm.296-.882c.096-2.452-3.516-2.763-2.653-5.006.66 1.699 3.552 2.724 2.653 5.006zm-10.899 8.54c-.233-.651-1.382-.383-1.472-1.176.495-.723 1.956.986 1.472 1.176zm-56.25-10.602c-.439-.54-1.23-.734-1.472-1.473 1.274-.468 1.85 1.264 1.472 1.473zm62.729 1.179c.015-.632-.688-2.024-1.176-1.179-.048 1.767 1.617 1.847.883 3.534-.683.782-.788-.78-1.474 0 .168.614.84.953.296 1.473-2.308.347-3.886 1.415-6.774 1.179.097 1.174.016 2.174-.588 2.648-17-9.51-43.002-12.475-68.915-11.188 1.03-2.708-.788-7.327.883-8.836.992.14.972 2.348 2.064 1.47.41-.96-1.468-1.902 0-2.06 1.277.39.865 2.472 2.649 2.356.605-1.524-2.15-2.377-.59-2.945 2.209 2.861 3.333 7.46 6.774 8.541-.299-2.45-2.541-2.96-3.533-4.713.668-2.443-2.73-3.27-1.475-4.416 2.064 1.175 1.377 5.1 4.124 5.595.805-1.96-3.033-4.742-2.061-5.892.864 2.28 2.961 4.194 4.124 6.186.544.936.489 3.45 2.353 2.65-1.343-3.464-3.116-6.504-5.301-9.13 21.636-2.53 50.136-3.538 65.381 5.302.572 1.688 1.936 2.58 2.653 4.122-.194 1.674.386 4.119-.297 5.303zm-78.339 1.177c5.494 6.779 12.811 11.732 17.967 18.848-5.685-1.785-7.972-6.152-11.485-10.013-1.115-1.225-2.272-2.281-3.242-3.533-.82-1.06-1.594-3.15-3.24-2.946 1.372 1.955 2.934 4.162 4.712 6.187 1.548 1.759 4.474 3.92 4.126 5.592-4.17-2.999-6.231-8.103-9.718-11.779 1.158.08.084-2.074.88-2.356zm21.207 18.555c.993.576 1.765 1.373 2.059 2.65-1.983-.667-4.015-1.283-4.119-3.829-.685.094-1.133-.048-1.475-.294-4.138-4.99-8.83-9.43-13.842-13.547-.235-1.968-3.123-4.281-2.944-4.712 6.428 7.217 15.432 11.859 20.028 20.91.09-.4.417-.563.293-1.178zm14.721 10.896c-.401-.012-.642.139-.881.295.13-.655-.908-1.598-.293-1.768.053.83 1.397.368 1.174 1.473zm-30.332 4.416c-.308-3.17-1.446-6.288-1.176-9.127.134-1.41 1.044-2.714 1.176-4.125.206-2.172-1.114-4.667.294-6.48.685 2.657-.034 6.715 1.474 8.543.312-1.838-.573-4.883-.292-7.658 1.495 1.35.168 5.527 2.066 6.48.102-2.168-.575-3.548-.588-5.596 1.494-.022-.264 3.218 1.186 3.239.263-.816-.589-2.765.604-2.65 1.316.745.17 4.143 1.503 4.711v-3.533c2.667-.519.292 3.564 2.032 4.712.768-.605-.239-2.957.559-3.535 6.877 5.032 20.325 7.667 21.494 18.555.876 8.123-7.114 10.813-16.197 10.603-.64.633-.739 1.81-1.173 2.648-1.695.028-3.406.065-4.714-.294-2.88-3.392-7.277-5.792-8.248-11.19-.26-1.462.182-3.436 0-5.303zm-2.65-21.203c.68 2.208-1.047 3.538 0 0zm-1.472 2.356c-.374-.52-.046-3 .296-2.652-.184.8.374 2.339-.296 2.652zm-2.354-11.78c1.944 3.256 4.171 6.232 6.476 9.128-1.966-.681-3.537-1.761-5.3-2.65-.272-1.812-.346-1.975.59-1.766-.746-1.553-3.806-2.97-1.766-4.712zm-1.476-4.124c.358-3.754.008-9.49.592-12.073.01 3.82 1.043 9.136-.592 12.073zm-1.174 0c-2.144-1.773-.068-6.385 0-8.834 1.709 2.453-.63 5.546 0 8.834zm0-15.901c-1.575 1.292-4.467-2.01-3.538-4.125.354 2.2 1.53 3.577 3.538 4.125zm-1.182 3.828c-.226-.203-.765-1.755.296-1.473.195 1.366-.266 4.44-.296 1.473zm0 6.184c-1.068.07-.661-2.85-.294-3.24.452.428-.496 2.473.294 3.24zm-.586 2.944c-.351 3.235 1.418 5.63 0 8.247.336-2.728-.891-6.912 0-8.247zm-1.526 4.713v4.123c0 .03-1.333-4.201 0-4.123zm.051 11.78c-.239-1.597-.823-5.077.297-6.186-.197 1.969.386 4.71-.297 6.186zm.59 14.138c.055 2.322-.065 5.073-.293 2.356-.101-1.206.072-3.863 0-5.596.064-.228.005-.582.294-.59.092.398.417.562.293 1.179.203 1.183-.28 1.681-.293 2.65zm-1.18-39.466c.449.634 1.63.53 1.77 1.474-1.812 2.116-.416 7.437-1.475 10.306-.345-2.834-.541-6.922 0-9.718.186-.796-1.794-1.82-.294-2.062zm-7.067 25.623c-.011 1.068.166 2.325-.588 2.65.409-1.277-.484-2.038.588-2.65zm4.42-8.837c-.834 1.137-1.726 3.77-2.066 4.42.331.029.462-.428.59 0-.346 2.502-3.892 3.365-5.595 3.534 2.688-2.126 4.748-6.444 7.07-7.954zm-.295-.882c-4.05 3.116-5.915 8.422-10.601 10.895 1.773-3.83 7.996-7.308 9.42-11.484-6.066 5.025-10.384 13.372-18.551 15.316 6.125-6.147 12.821-11.721 19.439-17.379-.6 1.074-.054 1.759.293 2.652zm-1.181-7.361c-24.014-3.055-51.888-1.565-69.206 7.067-1.073-.602-.056-1.954-.59-2.65-2.871-.041-5.018-1.482-6.776-1.768-.25-.688 1.033-1.27.296-1.472-.556-.066-.648.33-1.176.294-.69-2.251 1.825-2.564.88-4.123-.847.033-.51 1.255-1.468 1.177-.51-4.53 1.56-6.488 3.237-8.834 16.535-8.428 45.383-4.967 65.087-1.767-.664 2.99-4.682 5.121-5.007 9.424 2.892-2.412 4.268-6.333 7.067-8.837-.076 1.433-3.415 3.608-2.652 5.892 2.344-.898 2.596-3.887 4.124-5.595.469 2.984-4.131 5.83-5.299 9.13 3.717-1.483 4.692-5.713 7.363-8.247.877.82-1.774 1.777-.59 2.945 1.49-.277 1.158-2.376 2.947-2.356.828.635-1.71 1.716 0 2.356.975-.103.345-1.813 1.763-1.472.949 1.913-.463 6.503 0 8.836zm-78.338 1.47c-.066.558.335.65.298 1.18-.347.538-.77.997-1.182 1.471-1.052-.765-.158-2.305.884-2.65zm-.588-2.355c-.06 1.706-.996 2.536-2.064 3.24-.542-1.248 1.196-2.456 2.064-3.24zm0-2.06c-.433 1.378-2.354 3.928-3.24 2.945 1.695-.37 1.602-2.523 3.24-2.945zm0-1.77c-.994 1.562-2.648 2.459-3.533 4.126.092-2.11 2.808-4.598 3.533-4.126zm.588 10.014c.084-.996.355-1.806 1.472-1.767-.294.781-.484 1.676-1.472 1.767zm.886 1.768c-.079-1.546 1.844-3.58 2.946-2.062-1.16.404-1.79 2.607-2.946 2.062zm.586 3.532c2.184-1.544 3.462-3.998 5.892-5.3-1.389 2.146-4.21 4.425-5.892 5.3zm4.714.885c.788-.937 2.728-3.34 3.533-2.356-1.413.55-1.852 2.075-3.533 2.356zm2.064.883c.313-1.45 1.762-1.768 2.649-2.651-.695 1.076-1.04 2.497-2.65 2.65zm55.07-11.19c.407-.374.128-1.444.884-1.474.001.389.515.272.588.589-.388.224-2.118 1.499-1.472.885zm-6.773 20.615c.048.441-.105 1.087.293 1.177.915-.654 1.278-1.864 1.472-3.24 6.123-4.972 12.707-11.05 18.851-15.02-5.53 6.158-12.157 11.212-18.555 16.494-.236.552-.493 1.077-.59 1.766-1.131.347-2.712 1.795-3.826 1.178.738-.831 1.39-1.75 2.355-2.355zm-11.192 7.95c-.447.07-1.948.291-2.357 0 .308-.31 2.104-.606 2.357 0zm-2.653 1.18c-.596.183-.08 1.487-1.174 1.177-.833-.546.992-1.726 1.174-1.176zm-18.551-19.438c-5.419-.47-11.06-.72-13.843-3.828 7.228-4.16 16.666-6.113 26.8-7.364-.1.896-2.074 1.437-1.177 2.357 1.852-.508 2.539-3.741 5.3-2.357-.664.396-1.967 1.127-1.177 2.063 1.97-.583 2.565-2.54 5.008-2.652.616.638-2.354 1.75-1.18 2.946 2.242-.218 2.761-3.712 5.304-2.65-.894.874-2.422 1.116-2.359 2.945 2.29-.655 3.401-2.492 5.304-3.533-.455 1.609-2.613 1.512-2.653 3.533 3.106-.232 3.185-3.49 6.48-3.533-.714 1.838-3.262 1.845-3.535 4.12 3.265.024 3.765-4.28 6.775-3.531-1.358 1.095-3.399 1.507-3.831 3.532 3.096-.44 4.33-2.74 6.773-3.83-.609 2.337-3.774 2.115-4.122 4.715 1.628.532 2.316-1.401 2.948-.885-.792-.008-.792 1.483 0 1.473 2.849-.73 4.382-5.757 7.358-4.417-1.177 1.268-5.513 2.212-3.825 4.417 2.472-1.065 4.232-4.402 7.068-4.124-1.639 1.342-5.207 2.216-5.01 4.418 1.323.322 1.997-1.52 2.651-.882-.477-.212-.477 1.387 0 1.178 2.822-.72 4.579-4.062 7.072-4.124-1.793 1.252-3.886 2.205-5.009 4.124-.145.929 1.463.109 1.179 1.177-4.96 5.055-11.207 8.82-16.199 13.843 2.532-3.852 7.319-7.014 9.72-10.016-4.973 4.885-11.03 7.148-12.96 14.726-2.067.332-3.77 2.45-5.3 2.358 2.085-5.286 6.344-9.942 7.656-15.02-2.885 3.36-5.128 7.846-7.36 11.484-.72 1.172-1.243 3.34-2.945 3.536 2.174-5.386 7.544-11.695 9.424-17.375-4.598 4.925-7.044 12.003-11.488 17.079 2.154-5.015 5.99-9.914 7.068-15.02-3.688 4.069-5.102 10.408-8.835 14.432-.112-3.288 3.899-6.475 4.124-9.426-2.13 2.386-3.75 5.283-5.007 8.543-1.597-.564-3.296-1.025-3.829-2.652-.147-1.228.861-1.297.59-2.65-5.467-1.662-15.962-.902-12.958-9.13zm-14.136 2.06c.679-1.184 1.257-2.47 2.65-2.945.275 1.065-1.48 2.376-2.65 2.945zm5.595 6.185c.524 7.038 6.852 9.838 14.43 8.836 1.342 3.775 5.671 6.094 10.308 5.595-2.148 3.825-4.417 6.85-4.417 11.781 0 7.548 6.4 12.315 8.541 17.67.388 1.284.022 3.314 1.178 3.83 2.088-.172 2.862-2.257 4.416-2.946 2.178-.963 4.497-.583 6.774-.883 14.218-1.872 22.578-9.23 24.444-24.74.955-.25 3.216.933 4.124-.587.835 10.939 5.402 20.63 15.315 24.148 4.763 1.694 10.04.968 14.136 2.946 1.635.786 5.393 6.552 5.595.293 2.766-6.341 10.641-11.132 9.718-20.615-.374-3.848-2.325-5.88-3.828-9.13 4.363.39 9.619-.752 10.308-5.004 7.895 1.297 14.638-1.056 15.315-7.954 4.793-.298 6.556-6.21 11.19-5.89 2.518.174 3.122 2.662 5.89 2.062-.123-2.586-.93-5.001 0-7.657 1.037-2.953 4.87-5.157 5.596-7.952-.31-9.153-8.784-12.135-18.26-15.315-18.07-6.066-49.735-3.77-66.852.884-1.31-1.881.615-4.354.59-6.772.442-1.03 2.027-.918 2.355-2.062.128-1.012-.117-1.652-.294-2.356 4.52-4.432 8.409-10.391 11.486-17.083 1.463-3.184 3.614-7.461 1.471-11.19-3.445-.415-3.288 5.835-2.061 7.36-1.782 8.623-6.216 14.589-11.484 19.73-3.468-.804-8.139-2.959-11.194-.005-6.01-5.272-6.096-17.564-5.006-26.813-.103-.386-.516-.904-.588-.904h-.588c-2.094 1.333-1.786 4.766-1.768 6.794.06 8.07 2.873 17.782 7.069 21.816-.248.735-.384 1.578-.293 2.65.31.57 1.356.41 1.765.884-.155 2.706.041 5.06 1.47 6.186-1.043.72-2.177 1.355-2.942 2.355-19.361-7.164-64.29-11.484-80.99.884-1.598 1.183-4.165 4.587-4.418 6.48-.509 3.784 3.748 6.115 5.005 10.012.908 2.804-.377 5.603 0 8.244 2.854-.121 3.222-1.963 5.598-2.06 4.676-.19 6.14 6.045 10.896 6.479" fill="#381400"/><path d="M276.016 240.976c.347.781-.561 1.735 0 1.768.424-.759.691-1.667 1.768-1.768-.728 2.73-2.421 7.228-4.712 6.48-.364.692-.972 2.12-1.768 1.472 1.139-3.084 2.404-6.039 4.712-7.952M321.963 243.332c.004-.693-.51-.865-.295-1.767 2.484 1.738 3.326 5.119 4.415 8.247-1.605.33-1.016-1.533-2.057-1.768-2.006.743-3.167-4.235-4.124-6.479 1.52-.244 1.294 1.255 2.061 1.767" fill="#381400"/><path d="M263.651 239.799c-.468 1.297-1.04 2.496-2.063 3.238.282-1.485.778-2.754 2.063-3.238zm-1.476 5.89c-.048-1.285 1.055-2.63 1.77-3.828.654-1.098 1.462-3.258 2.06-2.653-1.405 2.032-2.167 4.707-3.83 6.481zm3.535-3.828c-.247 2.4-1.616 3.683-2.355 5.595-.972-1.557 1.745-3.74 2.355-5.595zm-1.766 6.183c1.304-1.05 1.506-3.204 2.647-4.417 1.499 1.237-1.863 3.126-.585 5.006 1.449-.518 1.042-4.448 2.945-3.534-.564 1.074-2.484 3.376-1.176 4.42 1.648-3.552 4.29-6.115 6.181-9.427.648 2.087 2.382-2.297 2.06-1.176.163.428-.342 1.521.299 1.473 1.807-.256 1.408-2.713 2.65-3.536 2.178 9.214-7.627 17.104-15.02 11.19zm12.666-15.901c.128 1.657-1.86 3.596-2.948 5.004-.466-2.088 1.718-3.671 2.948-5.004zm-1.475-.591c-.69 1.664-2.027 2.688-2.944 4.124-.58-1.395 2.052-3.319 1.47-4.713.907-.22.567.808 1.474.589zm-2.063-.295c-1.233.827-1.164 2.959-2.648 3.535-.4-1.19 1.752-2.096 1.767-3.83.347.049.837-.049.881.295zm-.588 6.186c.019 2.908-1.284 6.353-3.533 6.184-4.765-.358-.385-12.478 3.533-6.184zm-1.473-5.595c-1.313 2.121-4.143 4.293-6.181 4.71.434-.249.63-.742.588-1.471 1.952-.116 2.906-1.764 2.944-2.944.866.058 1.95-1.167 2.649-.295zm-10.895 9.717c-.19 5.864 5.302 11.63 12.368 9.719 4.786-1.293 8.447-7.044 8.246-12.664-.119-3.364-2.098-7.956-6.182-8.539-5.973-.852-14.193 4.138-14.432 11.484M319.312 237.147c.898 1.265.539 3.78 2.651 3.829.404-1.02-.921-2.693-.295-2.06.764.783 1.275 3.35 2.651 1.767 1.11 3.893 3.817 6.193 5.3 9.72 1.644-.982-1.78-3.98-.293-4.714 1.064.998.897 3.223 2.058 4.123 1.168-1.808-1.42-3.535-.588-5.007 1.516.938 1.567 3.343 2.652 4.714-8.236 5.012-17.069-3.435-14.136-12.372zm14.428 11.78c.187-2.447-2.232-3.846-1.472-5.89.883 1.574 1.083 3.828 2.652 4.714-.757.029-.418 1.15-1.18 1.177zm1.18-1.766c-.445-2.43-2.948-5.85-2.652-7.07.727 2.253 3.692 4.968 2.652 7.07zm.884-2.65c-.184-1.084-2.288-3.091-1.18-3.535.287 1.097 2.079 2.232 1.18 3.536zm-2.652-6.186c-1.826-2.001-4.848-2.806-5.594-5.89 1.124.153 2.205.345 2.65 1.178-.689.974 1.467 2.93 2.356 2.358-.297 1.102 1.22 1.892.588 2.354zm-7.362-6.773c.746 1.217 1.39 2.537 2.061 3.828-1.275-.496-2.243-2.85-2.061-3.828zm2.65 5.007c2.883.4 3.552 8.138 0 7.953-2.101-.11-2.993-3.472-2.945-6.481 1.457-.764 2.024-1.6 2.945-1.472zm-3.825-5.007c-.021 2.08 1.315 2.81 1.468 4.712-1.367-.985-1.98-2.728-2.943-4.121.734.042.912-.464 1.475-.591zm-2.36.884c.021 2.063 3.427 3.481 1.77 5.301-.327-1.754-3.218-3.686-1.77-5.301zm-5.007 6.48c-.548 6.19 3.308 11.935 7.659 13.253 7.181 2.172 12.857-3.39 12.663-9.72-.211-6.9-5.824-11.438-12.955-11.78-3.995-.192-6.981 3.903-7.367 8.247" fill="#381400"/></svg>