<svg xmlns="http://www.w3.org/2000/svg" xmlns:xlink="http://www.w3.org/1999/xlink" height="420" width="600"><g id="a" stroke-width=".133"><path d="M74.24 80.172c-.28-4.823.835-.63.307.927-.05-.364.055-.876-.307-.927M75.781 70.915c-.05-1.079.084-1.976.617-2.47.446.538.133 2.184-.617 2.47M77.325 138.496c-.192 3.69.727 6.267.615 9.873-1.005-2.106-1.122-8.301-.615-9.873M71.77 73.692c.65 3.775 2.095 8.396 3.394 10.49-2.086-2.335-4.195-6.291-3.393-10.49M77.325 126.461c-.627-.81-1.197-6.401.308-7.714-.547 2.124-.224 5.124-.308 7.714M66.526 154.543c.693 1.368 2.36 3.39 2.159 4.629-.828-1.083-2.727-4.19-2.159-4.63M71.77 134.793c-.054 1.496.246 2.634.618 3.703-1.328.187-1.078-4.116-.617-3.703M74.857 139.421c.185-2.492-.386-7.374.307-8.332-.185 2.494.383 7.376-.307 8.332M110.036 144.668c.537.532.342 1.908-.31 2.16.183-.64-.38-2.027.31-2.16M93.68 145.903c-.42-4.108-1.06-9.638-.31-13.887-.23 4.963.492 8.972.31 13.887M96.766 68.139c-.058.798.987 2.065.31 2.468-.253-.494-1.172-1.883-.31-2.468M98.307 145.285c-.971 4.07-2.547 7.534-4.627 10.492 1.682-3.36 1.278-8.802 4.627-10.492M98.925 83.875c2.18-2.563 1.648-8.387 3.088-10.799.099 4.73-.781 8.477-3.088 10.799M98.307 77.396c-.099.743.266 3.528-.307 2.776.102-.743-.263-3.527.307-2.776M99.234 80.481c.125-.918-.3-3.981.31-3.394-.127.92.297 3.982-.31 3.394M76.708 78.321h.925c-.281.543-.107 1.539-.617 1.851.224-.943-.532-.907-.308-1.85M97.075 78.013c-.005.818.17 1.816-.617 1.851.206-1.152-.856-1.81.617-1.85M93.063 109.181c-.998 1.058-3.938.176-5.245.924 1.044 4.508 1.364 9.744 2.468 14.195-1.614 5.59.18 16.227-.927 21.293-.187-.737.388-2.238-.307-2.469-.307 1.541-.536 6.415-1.234 3.087-.386.953-.482 2.193-.617 3.393.252.733-.435 1.423-.31.31 1.58-12.59 1.234-29.862-.925-40.425 1.776-.49 5.089-1.077 7.097-.308M93.99 105.168c.778-.56.765-1.91 1.541-2.468.013 1.159-1.067 2.821-1.541 2.468M98.925 116.895c-.753-2.028-2.68-4.514-3.086-5.864 1.273 1.509 3.169 4.029 3.086 5.864" fill="#df8f62" transform="translate(-6.765 203.917)"/><path d="M92.445 101.156c-1.101-.192-1.692-.896-2.159-.924-.18-.435-.567-3.27.308-4.323 1.643-.204 2.7.18 3.086 1.235-1.102.599.724 3.161-1.235 4.012M90.286 91.899c-.91-.839-1.601-1.896-1.544-3.702.544-1.137 2.396-1.594 3.396-.617-.174 1.884-.075 4.039-1.852 4.319" fill="#fff" transform="translate(-6.765 203.917)"/><path d="M91.52 156.703c.68-2.096 1.22-4.336 2.16-6.172-.545 2.233-1.102 4.452-2.16 6.172M86.89 98.07c.084-.66-.239-3.29.31-2.469-.085.662.24 3.294-.31 2.47M89.052 82.64c.096.725.487 1.16.307 2.163-1.026.378-.755-2.088-.307-2.163" fill="#df8f62" transform="translate(-6.765 203.917)"/><path d="M97.075 128.93c.336-2.946-.994-7.393-.31-8.64.011 2.767 1.19 6.005.31 8.64zm2.47 12.035c.846-3.616 1.325-11.126-.62-13.886.104-5.967-1.058-10.67-3.394-14.196-.716-.098-1.185.049-1.541.31-.396-1.15-.987-2.101-1.235-3.396-.526-.114-.583.24-.617.618 1.466 4.474 3.107 8.797 3.393 15.121-.89-1.99-.638-5.123-1.851-6.79-.269 4.694 2.518 9.002 2.159 14.813.497-2.207 2.476-1.167 2.778-3.704.685 3.328.534 7.49.927 11.11" fill="#fff" transform="translate(-6.765 203.917)"/><path d="M112.195 130.165c-.023-.433.07-1.181.31-.618 1.125 3.553 1.646 5.508-.31.618M115.898 98.07c-.257.978-.9 1.569-1.544 2.162.224-.701.276-1.579.62-2.161h.924M116.516 91.899c.224-.842-.615-.62-.618-1.235.782-.553.98-1.695 1.545-2.467-.282 1.262-.308 2.78-.927 3.702M87.508 157.319c-.445 1.65-.68 4.036-2.162 4.012 1.662-2.763 1.693-7.152 2.78-10.492.955 1.98.017 4.133-.618 6.48M84.422 150.53c.096.418.44.59.31 1.235-.407 3.624-.698 4.084-.617-.617.067-.24.007-.61.307-.617M85.966 126.152c.068 1.052.682 4.703-.161 3.703-.19.018-.472.046-.472.31v9.566c0 .448 1.334 1.594 0 1.542v-4.012c0-8.382-.108-16.417-1.535-24.686 1.906 2.794 1.89 9.246 2.168 13.577" fill="#df8f62" transform="translate(-6.765 203.917)"/><path d="M84.422 157.63c.463-3.858.706-7.935 1.851-11.11.563 3.341-1.598 5.595-.617 8.33.675-1.073.38-3.114 1.235-4.011.034 2.2-1.532 4.428-.925 6.173-.047-.767.16-1.281.617-1.543-.45 2.226-.94 4.408-2.468 5.555-.287-1.417.77-1.493.617-2.777-.73.156-1.43-.644-.617-1.544.046.362-.052.876.307.926M92.138 119.055c-.016-3.074-1.578-6.239-1.544-8.331.729 2.359 2.414 5.4 1.544 8.33M90.667 141.89v-7.406c0-.743 0-3.527 1.333-2.777v4.012c0 9.634.583 17.31-2.708 23.761 1.5.472 1.041-.896 2.039-.927-.136 1.41-2.19 1.231-3.111 1.854.805-6.128 5.113-10.878 2.447-18.518M89.36 111.03c.137 2.234 1.62 4.754.926 6.79.277-2.552-2.033-5.419-.927-6.79M80.102 156.703c-.045.886.859 2.405 0 3.085-.222-.681-.38-3.337 0-3.085M82.57 149.915c.565 2.165.1 5.814-.617 7.714.503-2.5-1.586-6.501.617-7.714M83.805 142.816c-.438 1.99.789 3.933 0 5.247-.308-1.115-.63-5.22 0-5.247M83.805 96.528c.039-.515-1-1.963.31-1.852-.18.543.372 1.813-.31 1.852M81.646 118.13c-.156 3.269.862 6.362-.31 8.949.19-2.696-.385-7.791.31-8.95M79.794 151.148c-.367-10.343-1.638-24.084-.307-34.563-.638 11.859 1.234 24.47.307 34.563M81.646 128.004c-.182 2.088.375 6.541-.31 7.097.18-2.086-.375-6.541.31-7.097M84.115 88.815c.885.042 2.406-.859 3.086 0-.67.172-2.53.736-3.086 0" fill="#df8f62" transform="translate(-6.765 203.917)"/><path d="M80.904 127.947c.101-1.228.428-2.508.865-3.791.137.087.279.163.429.225a23.932 23.932 0 01-.719 3.104 2.72 2.72 0 00-.575.462zm2.077 16.642c-.033-.016-.062-.041-.095-.058a30.352 30.352 0 01.085-5.724c.14 1.888.086 3.836.01 5.782zM71.844 140.9c.27.741.77 1.272 1.362 1.603.182.721.38 1.445.633 2.177.265.772.697 1.292 1.202 1.617 1.028 4.152 2.463 8 4.384 10.731.199.561.594 1.023 1.09 1.364 2.244 2.456 5.058 3.468 8.538 2.05 1.644-.3 3.234-1.22 4.587-2.947.094-.07.201-.122.287-.204 3.341-3.219 6.24-6.882 6.456-11.65.031-.698-.312-1.308-.818-1.752.67-1.376 1.409-2.714 2.34-3.952 1.336-1.777.314-4.302-2.04-4.274-3.04.036-4.69-.558-7.089-2.402a2.534 2.534 0 00-.625-.338c-1.566-6.975-1.42-14.242-2.893-21.262 1.065-.117 2.146-.114 3.161.199 1.382.427 1.935-1.632.794-2.284-1.847-1.052-4.109-1.312-6.195-1.124-.037.004-.074.015-.11.021-.027-.054-.062-.102-.092-.154-.048-2.296-.048-4.574.12-6.852 1.09-.31 1.96-1.234 1.856-2.724-.11-1.571-.223-2.295-.748-3.264a6.466 6.466 0 01.036-.956c.023-3.291-4.564-3.244-5.366-.475a2.863 2.863 0 00-.598 1.156c-1.388 5.76-1.077 11.51-1.022 17.393.001.091.02.172.03.259-.706.2-1.35.641-1.764 1.379-1.442 2.573-2.54 5.248-3.457 7.978-1.317-.112-2.607.568-2.81 2.296-.12 1.11-.237 2.198-.348 3.278-1.01.392-1.84 1.338-1.931 2.813-.223 3.588-.21 6.903 1.03 10.3" fill="#a83c00" transform="translate(-6.765 203.917)"/><path d="M84.321 87.807c1.477-.574 2.848.693 2.927 2.128.055 1.006-1.326 1.836-2.084.994l-.08-.088-.081-.021c-.035.004-.064.01-.129.01-1.81.063-2.175-2.393-.553-3.023M70.766 73.527c.805-2.735 5.192-1.767 4.31.892-.955 2.869 2.72 5.144 2.016 8.06-.301 1.25-2.153 1.789-2.85.525-1.616-2.928-4.548-5.844-3.476-9.477M96.8 75.852c.606-.836 1.54-.925 2.336-.587.22-1.692.182-3.542 1.692-4.277.495-.241.95-.155 1.296.285.903 1.151.754 3.407.754 4.798.002 1.965-.708 3.812-2.169 5.146-.063.059-.136.098-.204.148-.031.044-.052.086-.087.128-.621.752-1.302 1.143-2.181 1.531-1.4.619-2.77-.717-2.92-2.019-.225-1.986.325-3.557 1.483-5.153M96.766 120.29c.01 2.767 1.19 6.005.31 8.64.335-2.946-.995-7.393-.31-8.64" fill="#df8f62" transform="translate(-6.765 203.917)"/><path d="M112.195 130.165c-.023-.433.07-1.181.31-.618 1.125 3.553 1.646 5.508-.31.618zm2.16-29.933c.223-.701.275-1.579.619-2.161h.924c-.257.977-.9 1.568-1.544 2.161zm1.543-9.568c.782-.553.98-1.695 1.545-2.467-.282 1.262-.308 2.78-.927 3.702.224-.842-.615-.62-.618-1.235zm-16.354 50.301c-.393-3.62-.242-7.782-.927-11.11-.302 2.537-2.281 1.497-2.778 3.704.359-5.811-2.428-10.119-2.16-14.812 1.214 1.666.962 4.798 1.852 6.789-.286-6.324-1.927-10.647-3.393-15.121.034-.378.091-.732.617-.618.248 1.295.839 2.246 1.235 3.396.356-.261.825-.408 1.541-.31 2.336 3.526 3.498 8.229 3.394 14.196 1.945 2.76 1.466 10.27.62 13.886zm-.62-24.07c-.752-2.028-2.68-4.514-3.085-5.864 1.273 1.509 3.169 4.029 3.086 5.864zm-4.934-11.727c.778-.56.765-1.91 1.541-2.468.013 1.159-1.067 2.821-1.541 2.468zm-.31-8.024c-1.102.599.724 3.161-1.235 4.012-1.101-.192-1.692-.896-2.159-.924-.18-.435-.567-3.27.308-4.323 1.643-.204 2.7.18 3.086 1.235zm-1.542-9.564c-.174 1.884-.075 4.039-1.852 4.319-.91-.839-1.601-1.896-1.544-3.702.544-1.137 2.396-1.594 3.396-.617zm-2.779-2.777c-1.026.378-.755-2.088-.307-2.163.096.725.487 1.16.307 2.163zm3.704 24.378c-.998 1.058-3.938.176-5.245.924 1.044 4.508 1.364 9.744 2.468 14.195-1.614 5.59.18 16.227-.927 21.293-.187-.737.388-2.238-.307-2.469-.307 1.541-.536 6.415-1.234 3.087-.386.953-.482 2.193-.617 3.393.252.733-.435 1.423-.31.31 1.58-12.59 1.234-29.862-.925-40.425 1.776-.49 5.089-1.077 7.097-.308zm-6.172-11.11c.083-.662-.24-3.291.31-2.47-.086.662.24 3.294-.31 2.47zm.31-9.256c-.67.172-2.53.736-3.086 0 .885.042 2.406-.859 3.086 0zm-3.086 5.861c-.18.543.372 1.813-.31 1.852.039-.515-1-1.963.31-1.852zm-.31 48.14c-.438 1.99.789 3.933 0 5.247-.308-1.115-.63-5.22 0-5.247zm-1.852 14.813c.503-2.5-1.586-6.501.617-7.714.565 2.165.1 5.814-.617 7.714zm-.617-30.55c.19-2.696-.385-7.791.31-8.95-.156 3.27.862 6.363-.31 8.95zm-1.234 32.709c-.222-.681-.38-3.337 0-3.085-.045.886.859 2.405 0 3.085zm-.308-8.64c-.367-10.343-1.638-24.084-.307-34.563-.638 11.859 1.234 24.47.307 34.563zm1.852-23.144c-.182 2.088.375 6.541-.31 7.097.18-2.086-.375-6.541.31-7.097zm2.469 23.144c.067-.24.007-.61.307-.617.096.417.44.589.31 1.234-.407 3.624-.698 4.084-.617-.617zm-.357-38.573c1.906 2.794 1.849 9.246 2.127 13.577.068 1.052.763 4.703-.08 3.703-.19.018-.472.046-.472.31v9.566c0 .448 1.334 1.594 0 1.542v-4.012c0-8.382-.148-16.417-1.575-24.686zm.357 44.128c.046.362-.052.876.307.926.463-3.857.706-7.934 1.851-11.109.563 3.341-1.598 5.595-.617 8.33.675-1.073.38-3.114 1.235-4.011.034 2.2-1.532 4.428-.925 6.173-.047-.767.16-1.281.617-1.543-.45 2.226-.94 4.408-2.468 5.555-.287-1.417.77-1.493.617-2.777-.73.156-1.43-.644-.617-1.544zm1.231 4.628c1.662-2.763 1.693-7.152 2.78-10.492.955 1.98.017 4.133-.618 6.48-.445 1.65-.68 4.036-2.162 4.012zm4.013-50.3c.138 2.233 1.62 4.753.927 6.789.277-2.552-2.033-5.419-.927-6.79zm-1.2 49.376c.806-6.128 5.174-10.878 2.508-18.518v-7.405c0-.743 0-3.527 1.333-2.777v4.012c0 9.634.583 17.31-2.708 23.761 1.5.472.922-.896 1.919-.927-.136 1.41-2.13 1.231-3.051 1.854zm3.979-41.352c-.016-3.074-1.578-6.239-1.544-8.331.729 2.359 2.414 5.4 1.544 8.33zm-.617 37.648c.68-2.096 1.219-4.336 2.159-6.172-.545 2.233-1.102 4.452-2.16 6.172zm2.159-10.8c-.42-4.108-1.06-9.638-.31-13.887-.23 4.963.492 8.972.31 13.887zm0 9.874c1.682-3.36 1.278-8.802 4.627-10.492-.971 4.07-2.547 7.534-4.627 10.492zm3.395-77.764c-.005.818.17 1.816-.617 1.851.206-1.152-.856-1.81.617-1.85zm0-7.406c-.252-.494-1.171-1.883-.31-2.468-.057.798.988 2.065.31 2.468zm1.232 6.789c-.099.743.266 3.528-.307 2.776.102-.743-.263-3.527.307-2.776zm.618 6.479c2.18-2.563 1.648-8.387 3.088-10.799.099 4.73-.781 8.477-3.088 10.799zm.31-3.394c.124-.918-.3-3.981.31-3.394-.128.92.296 3.982-.31 3.394zm-21.602-2.16c-.281.543-.107 1.539-.617 1.851.224-.943-.532-.907-.308-1.85h.925zm-1.852-7.406c-.05-1.079.084-1.976.617-2.47.446.538.133 2.184-.617 2.47zm-.617 13.268c-2.086-2.336-4.195-6.292-3.393-10.491.648 3.775 2.094 8.396 3.393 10.49zm-.617-3.084c-.05-.364.055-.876-.307-.927-.28-4.823.835-.63.307.927zm3.393 67.27c-1.005-2.106-1.122-8.301-.615-9.873-.192 3.69.727 6.267.615 9.873zm-.307-29.622c-.547 2.124-.224 5.124-.308 7.714-.627-.81-1.197-6.401.308-7.714zm-2.776 20.674c.185-2.492-.386-7.374.307-8.332-.185 2.494.383 7.376-.307 8.332zm-2.469-.925c-1.328.187-1.078-4.116-.617-3.703-.055 1.496.245 2.634.617 3.703zm-5.862 16.047c.693 1.368 2.36 3.39 2.159 4.629-.828-1.083-2.727-4.19-2.159-4.63zm43.51-9.875c.537.532.342 1.908-.31 2.16.183-.64-.38-2.027.31-2.16zm21.91 4.936c-.665-5.059-6.704-2.847-10.493-2.159-4.26-6.436-5.424-15.972-9.568-22.526-2.158 0-3.796-.524-6.169-.31-.555-.68-.432-2.037-2.161-1.542-.211-1.95-.901-3.419-1.542-4.938.034-.592 1.031.363 1.849 0 .427-.397.307-1.341.31-2.16 1.903.792 4.9.23 5.864-.926 1.865-4.992 3.915-12.284 7.407-16.664.14-1.482-1.492-1.184-1.854-2.159 3.226-2.021 1.94-8.552 4.013-11.727-.31-1.226-1.365 1.356-1.235-.31-2.161 3.898-7.101 8.888-3.703 12.345-4.589 2.819-5.294 9.519-6.789 15.43-3.2.402-6.854-.203-7.716 1.85-1.193-.92-.901-1.643-1.852-2.777-.419-.503-3.565-2.131-3.7-3.084-.112-.775 2.557-3.224 2.776-4.631.687-4.388-2.034-6.327-4.32-9.564.661-.78.612-2.27 2.161-2.163-.149-.969.437-1.205.615-1.849 4.84-3.933 8.635-9.895 7.716-19.75-.636-6.818-4.714-11.405-8.641-15.12-2.237-.027-2.625-1.902-4.937-1.854 2.463 2.477 4.836 5.039 6.789 8.024.416 4.223-.894 6.717-4.32 7.099 1.275 2.836 4.88 3.348 4.012 8.33-1.174.767-2.888-1.64-4.32-.617 1.167 3.359 3.333 5.72 3.086 10.493-1.67-.286-2.992-.917-4.63-1.234-.094-3.815-1.269-6.55-4.628-7.098.912 1.992 2.175 3.768 1.235 6.79-3.842.42-1.253-5.718-3.086-6.482-1.886 1.2-1.922 4.251-2.162 7.098-.297.938-1.797.67-2.466 1.233-1.227-4.336 1.177-7.647 1.849-11.108-1.846-.199-2.48.815-3.703 1.235-2.258-3.68 1.62-6.344 2.776-8.64-8.943-1.719-2.969-12.572 1.237-15.123-1.753-1.023-2.266 1.844-4.32 1.544-5.399 4.973-8.912 11.7-7.41 21.292 1.277 8.124 7.386 12.617 11.42 17.281-4.984 1.588-6.888 10.743-2.776 14.503-1.37 2.128-3.063 3.935-4.938 5.557-2.705-.077-5.028-1.824-7.716-.928-.086-5.774-1.13-10.596-3.086-14.502-1.028-.924-2.596-1.311-2.776-3.087-3.044 1.483-4.125-2.635-7.406-2.777.073 1.778 2.362 1.341 2.776 2.777-2.516-1.29-6.193-1.419-8.64-2.779 1.294 2.386 5.275 7.083 10.184 4.939.64.079.084 1.356.617 1.541.985.266.954-.486 1.542-.617 1.5 4.364 2.737 8.985 3.703 13.883.36.258.828.401 1.545.304-1.688.17-1.857 2.768-1.545 4.001 3.74 1.047 7.672-.028 9.875 2.445-.26 1.692-1.281 2.94-1.541 4.274H68v2.869c-1.333-.527-.63-1.55-1.353-1.85-2.494.04-4.052-.503-6.296 0-3.521 6.453-7.117 12.84-9.257 20.673-3.266.041-5.841-.58-8.026 1.544.497 2.332-1.727 3.502-.315 4.936.78.745.887-.919.915-1.851.545.279.49 1.137 1.213 1.235 1.638-.215 1.446-2.222 3.05-2.47 1.081.706-1.251 1.602-.08 2.47 1.542 0 2.096-.831 2-2.47 1.207.179 2.149-.265 2.149-.616v-1.544c4-5.757 7.197-11.636 10.194-17.898 1.544.96 4.689.786 5.564-.616-.354.364-.35 1.09-.31 1.85 4.127-.084.497 8.822 2.779 12.036-3.274.326-3.982 3.215-6.79 4.011-.01 8.14 2.308 13.947 6.79 17.59-5.63 2.082-11.732 3.695-14.813 8.333 1.958 3.289 1.688 8.802 6.172 9.565-.542-3.573-3.505-4.721-3.393-8.95 3.062.02.64 5.533 4.01 5.246 1.068-2.373-1.174-3.913-.924-6.48 2.586-1.939 5.755-3.295 7.716-5.863 1.325-.86 1.263 1.912 2.776 1.851 1.107-1.256 2.333-2.397 2.776-4.319-.498-.53-1.29-.766-2.469-.618-1.638-3.71-2.841-7.858-4.32-11.727.695-1.499.588-2.704-.31-4.01 1.643-.098.974 2.113 1.854 2.775 1.242.319 1.37-.478 1.852-.924 3.919 6.18 4.255 17.243 14.812 16.047 8.99-1.019 14.091-10.104 16.354-18.516 2.196.868 3.526-1.05 4.32.927-1.908 5.497-1.176 13.634-2.778 19.44.448.38.469 1.18.927 1.545 4.026-.119 6.886.932 9.875 1.853.156 2.871-2.544 4.399-1.544 7.1 2.911-.278 2.469-3.905 4.013-5.548 2.052 4.882-3.44 6.378-2.779 9.888 4.242-1.313 4.365-6.721 7.716-8.924-1.65-5.654-9.53-4.59-13.27-8.59h-2.16c1.72-5.334 3.54-11.706 5.245-17.61-.567-1.696-3.005-1.057-3.086-3.724h-1.848c-.954 0 .653-1.402-.23-1.881-1.234.103-1.632-.581-3.005-.339.563-2.626.859-5.68.777-8.948.26-.801.84.592 2.174-.31v-2.16c1.333-.276 2.136 3.16 3.691 1.544 2.74 6.722 4.124 14.48 9.55 18.514-.385 2.547.683 3.639 2.162 4.32 1.711-1.653 4.808.978 6.48-1.234.195-1.43-1.685-.78-2.777-.924 1.282-2.25 4.339.657 6.172-.311" fill="#381400" transform="translate(-6.765 203.917)"/></g><use xlink:href="#a" transform="translate(77.983 -13.637)" width="100%" height="100%"/><use xlink:href="#a" transform="translate(431.03 -220.347)" width="100%" height="100%"/><use xlink:href="#a" transform="translate(352.748 -189.42)" width="100%" height="100%"/></svg>