<svg xmlns="http://www.w3.org/2000/svg" xmlns:xlink="http://www.w3.org/1999/xlink" height="420" width="600"><g id="b"><g id="a" stroke-width=".605"><path d="M523.41 258.18c-.049.804 1.749-.236 1.702.568-.77.364-.817 1.453-1.703 1.703.371-.966-.633-1.982 0-2.271M524.544 255.908c.897-.045 1.713-.01 1.988.567-1.039-.186-1.09.614-1.988.568v-1.135M522.457 277.772c-.984.72-2.457.879-3.79 1.42v-1.136c1.333.305 1.797-.525 2.321-1.136.092.664 1.288.275 1.47.852M511.483 267.833c-.248-2.804-2.56-6.496-1.704-8.518.613 1.281 1.412 2.376 1.988 3.69-2.102.471 1.014 3.399-.284 4.828M521.137 272.377c.339.994 1.594 2.559 1.135 3.407-.676-.657-1.575-2.577-1.135-3.407M527.383 275.784c.505 3.944-1.187 1.175 0 0M512.903 255.339c.536.065.625-.319 1.134-.283-.089.659.047 1.09.284 1.419-.862.412-1.45.049-1.418-1.136M511.767 257.043c-.005-.372-.788-.362-.852 0-.466 1.15 1.502 1.308.568 1.988-.439-.98-1.504-1.336-2.272-1.988 1.094-.039 1.313-.959 2.556-.851-.112.49.421.728 0 .85M518.297 263.859c.543 1.256 2.091 1.505 2.556 2.838-1.268-.346-2.549-2.173-2.556-2.838M509.495 268.97c.269 1.514 1.628 2.194 2.84 1.987 1.878 2.38 2.653 5.864 3.408 9.37-4.143.126-9.574-.808-13.346-1.988 1.319-4.17 2.163-8.815 7.098-9.37M520.284 283.45c-.144-1.086-.256-2.202-1.419-2.271-1.236.004-.592 2.056-.852 2.272-.361-.776-1.14-1.132-1.704-1.704 1.668-.32 2.716-1.26 4.544-1.42-.066 1.164-.14 2.322-.569 3.124M515.175 257.328c.966 1.304 1.464 3.08 3.406 3.407.087-1.89-2.414-2.69-1.988-3.975.659.667.931 1.72 2.272 1.704.491-1.083-1.62-1.87-.284-1.99 1.288-.151.759 1.515 1.988 1.422 1.312-.025-.345-1.695.851-1.421.364.016.393.365.852.285-.357 1.69.87 3.283 0 4.543-.02-.832-.103-1.602-1.135-1.419.168 2.576 1.611 5.388 1.988 6.813-3.373-.793-1.498-6.829-4.544-7.949.236 1.472 1.875 3.039 1.135 4.543-1.057-2.122-5.344-3.855-4.541-5.963M516.593 254.488c1.562.141 3.72-.313 4.827.284-1.353.632-3.937.781-4.827-.284M531.641 280.327c-2.257-.487-.473-5.015-1.986-6.246 2.482.108 2.413 4.166 1.986 6.246" fill="#fff" transform="matrix(.2205 0 0 .2205 -94.383 343.172)"/><path d="M482.805 237.167c.251 2.146 2.447 7.004 0 8.234-.653-.294.134-2.028-.569-2.27-.104 1.125.26 2.72-.284 3.406-1.33-.573-1.91-.929-3.692-.284-.775-2.481-.985-6.809.57-8.518 1.245.322.931-.001 1.986-.283.99 1.092.652 3.515 1.42 4.827.255-1.564-1.304-4.615.57-5.112zm-5.68 7.661c-1.705-.065-1.225-4.828-.852-4.828h.852c.458 0 .458 3.777 0 4.828zm5.68 16.19c.5 2.275.315 6.647.283 8.52-2.487-.6-1.623-7.343-.283-8.52zm1.419-23.685h.852c.225 2.667 1.295 5.107 0 6.531-1.467-.848-.892-5.197-.852-6.53zm1.136 24.822c.152 2.362 1.14 7.929-.568 9.37-.892-2.306-1.007-7.748.568-9.37zm-1.136-7.488h1.136c-.343 0-.908-.912-.284-1.51.872.075 1.277.811 1.988 1.047-.165-.723-1.139-1.385-.57-1.988 1.071-.475 1.294 1.32 1.705.567-.57-.472-1.32-.764-1.419-1.706.932-.013.679-1.216 1.703-1.137 1.073.061 1.378.885 2.27 1.128.028-.445-.037-.996.568-.863 1.688.963 2.06 3.218 4.26 3.667-.413 1.487-.413 1.019 0 2.505-1.34.515-1.21 2.224-2.272 3.595-4.037-.083-9.67.028-9.085-5.305zm16.185-4.154c1.675-.352 1.266 1.384 2.271 1.704-.183-1.072-1.701-1.922-1.136-2.84 1.493-.438 1.581 2 2.272 1.42-.332-.71-.99-1.092-.85-2.272 1.467.182.42-.588.566-1.42 2.613 1.172 3.03 4.543 4.26 7.099-1.38.892-2.939 1.604-4.26 2.556-1.207-1.917-2.575-3.672-3.123-6.247zm5.962-1.704c1.822-.42 3.613 2.936 3.124 4.827-1.627-1.024-1.742-3.56-3.124-4.827zm-22.715-16.753c-8.993-2.17-18.27 2.333-16.184 12.21-.05 1.123.436-.09.85.567.097 1.422-.663 1.987-.567 3.408.694-.252.308-1.585 1.421-1.42.364 1.65-.952 5.127 0 7.383.893-1.093.576-3.397 1.703-4.259 1.973 1.186-1.21 5.404 0 7.667 1.189-1.083.188-4.356 1.988-4.828.973 1.65-1.54 7.01.568 9.087.649-2.284-.046-5.914 1.42-7.383 1.576 2.312-1.098 8.345 1.134 10.505.822-2.205-.453-6.509 1.42-7.665 1.339 2.15-1.189 9.141 1.988 10.223-.6-2.606-1.076-7.21.284-9.371 1.342 1.97-.093 6.716 1.135 8.801-.247.415-.225 1.1-1.135.852 2 2.166 4.736 3.594 7.383 5.111-.215-1.65-.63-6.35.568-8.233.6 2.466.117 7.078.567 8.802.869-.208.834.49 1.704.283-.835-2.54-.506-6.327.284-8.803 1.448 2.24-.995 8.842 1.42 9.939.35-2.185-.363-5.932.568-8.235 1.857 2.118-1.359 9.31 2.838 9.087-1.194-1.673-1.276-7.07-.282-9.087.572 2.742.086 6.538.85 9.087.68.172 1.296.41 2.272.284-.074-.873-.616-1.277-.852-1.987.091-12.214 7.423-17.186 16.186-20.729-3.912-8.496-17.815-18.468-29.531-21.296M499.841 234.896c.047.33.45.308.852.284.223 1.17-.437 1.457-.284 2.555-1.269.309-1.01-2.378-.568-2.839M497.285 232.624c-.129 1.463 1.627 2.527.568 3.976-1.148-.187-1.097-3.056-.568-3.976M502.68 234.612c.965 1.46.683 2.553.568 4.827-2.29.146-1.508-4.071-.568-4.827M495.299 232.34c.078.961.452 1.632.282 2.84-.537.064-.625-.32-1.136-.284-.19-1.327.458-1.815.854-2.556" fill="#fff" transform="matrix(.2205 0 0 .2205 -94.383 343.172)"/><path d="M498.988 273.796c-.143-2.51.253-4.48 1.137-5.963-.426 1.94-.138 4.595-1.137 5.963M501.83 291.116c.58-2.447.326-5.728 1.702-7.381-.06 2.969-.817 5.24-1.703 7.381M485.643 274.364c-.594 1.21-1.942 3.163-2.555 3.408.717-1.176.635-3.152 1.704-3.976.073.399.623.324.85.568M534.481 253.636c-1.237.277-2.044.984-3.121 1.42-.29-1.623 1.976-2.177 3.121-1.42M543.853 261.303c-.084 1.229 1.151 2.618.284 3.69.207-1.353-1.041-2.73-.284-3.69M562.876 268.97h1.988c-.104.842-.492 1.4-1.136 1.702.247-1.097-.695-1.01-.852-1.703M516.593 222.97c.535.658 1.175 1.209.568 2.273-.961.184-1.154-1.85-.568-2.272M531.075 272.66c-2.892-.337-3.74 1.372-5.395 2.272-.244-2.408-1.564-5.247-1.42-7.099 1.116 1.724 1.497 4.182 2.84 5.68 1.203-3.841-3.239-6.734-3.69-10.79 1.875-1.342 2.254-4.18 5.11-4.543 3.501 2.547 3.25 9.245 2.555 14.48M526.815 250.23c-3.96.782-5.518-2.855-7.382-5.68 1.391-.523 2.018 1.18 2.555.567-.68-.361-1.156-.925-1.135-1.986 1.118-.283 1.635-.412 2.84-1.136 2.415 1.424 5.116 4.958 3.122 8.234zm-6.531-17.89c-1.175 2.327-1.963 5.041-4.541 5.964-.59-.455-.351-1.733-.854-2.273-.56.481-.442 1.64-1.702 1.421-2.708-1.62-.764-6.69.85-8.235.779.358 1.631.642 1.99 1.42-.007 1.047-1.686 1.895-1.138 2.556.978-.916 1.45-2.337 3.124-2.556.78.659-.496 1.612.284 2.271.735-.417 1.056-1.047 1.987-.568zm8.236 23.284c2.136-16.939-10.433-29.75-25.84-32.37-8.11-1.378-20.604-.36-21.864 6.815 1.535.588.347-1.548 1.136-1.704 1.297-.349-.027 1.919.853 1.988 1.48.251.791-1.669 1.419-2.272 1.333.086-.301 3.14 1.419 2.84.174-1.057-.536-2.998.852-2.84.634.787.033 2.807.853 3.408 1.307-.018-.055-2.704 1.135-2.841 1.572.417-.695 4.672 1.989 3.976-.21-1.345.319-1.952.281-3.123 2.467-.289-.003 4.359 1.99 4.543.822-1.212-.022-3.19-.568-3.975-.026-.794 1.728-.794 1.702 0 .704-.274-.39-1.09 0-1.988 1.203.32 1.799-1.508 2.84-.284.386-.088.236-.71.284-1.136.986-.226 1.091.423 1.987.284-.12-.593.196-.75.284-1.136 3.608 1.315 3.685 6.16 5.68 9.087-.041 1.933-1.195 4.86 0 6.247 1.023-1.438-.008-4.93 1.987-5.395.597 1.756-1.506 6.117.284 7.383.786-1.676.206-4.716 1.704-5.679.714 2.09-1.547 6.605.852 7.95.854-1.418-.463-5.006 1.42-5.395 1.117 2.444-.938 6.433.852 7.95.738-1.628.268-4.462 1.702-5.394 1.33 1.39-1.645 7.41 1.136 8.518-.052-2.136.128-4.037.57-5.68 1.106 1.234.884 4.092.568 5.963.485.652.269-1.792.85-1.987 1.471-.12.818 2.438.284 2.84 4.279.643 8.867.976 11.359 3.407" fill="#fff" transform="matrix(.2205 0 0 .2205 -94.383 343.172)"/><path d="M467.085 237.817c.479-2.093 1.614-3.702 3.05-5.232 1.188-1.266 3.165-1.368 4.56-2.12.421.29.857.566 1.308.856 1.154.746 2.781.464 3.726-.48.672-.672 1.116-1.849.842-2.813 3.128-4.132 11.536-5.64 16.348-5.945 6.098-.388 17.458 2.2 21.754 8.117.262.1.511.225.738.383 3.797 2.632 7.557 7.254 8.74 11.753.193.735.23 1.47.138 2.17.792 2.037 1.126 4.287.671 6.995-.037.22-.092.42-.159.607.871.953.559 2.61-.505 3.29a3.535 3.535 0 01-1.57.54c-5.747-3.83-14.549-2.351-20.093 1.18-5.756 3.665-8.174 11.366-7.881 17.951-.47.575-1.15.978-1.943 1.015-2.148.101-4.234-.516-6.217-1.48a2.841 2.841 0 01-1.219-.244c-3.557-1.596-6.522-3.527-9-6.05-1.009.462-2.265.433-3.357-.426-4.572-3.595-8.483-9.736-8.145-15.692-1.646-4.677-2.991-9.087-1.786-14.375" fill="#df641f" transform="matrix(.2205 0 0 .2205 -94.383 343.172)"/><path d="M499.387 267.848l-.254-.56c-.566-1.247.24-2.663 1.396-3.297-.038-.108-.094-.207-.129-.316-1.065-3.334 2.299-5.087 5.067-4.932.497.026 1.046.105 1.617.204.333-.358.748-.66 1.125-.922.328-.228.683-.41 1.052-.553.828-.759 1.76-1.3 2.776-1.595.248-.169.498-.337.776-.478 1.916-1.038 4.532-1.308 6.407-1.344 3.196-.062 9.092.422 10.243 4.225l.012.05c.056.06.117.107.17.174 2.28 2.89 3.154 7.023 2.166 10.49.946 1.889.258 4.002-1.896 4.638-.531.156-1.086.208-1.642.23-.196.126-.385.26-.597.375-2.657 1.431-5.815 4.675-8.704 5.384a14.15 14.15 0 01-1.89.322c-.398.486-.99.846-1.833.904-3.776.257-9.954.974-13.014-1.996-.13-.126-.242-.252-.36-.379a2.184 2.184 0 01-.331-.263c-3.399-3.448-3.46-6.517-2.157-10.361" fill="#a56f55" transform="matrix(.2205 0 0 .2205 -94.383 343.172)"/><path d="M516.47 237.112c1.253-1.39 3.145-.973 4.214.347 1.692 2.092 3.287 4.984 1.895 7.661-.612 1.177-2.548 1.47-3.239.17-.827-1.554-1.593-3.217-2.673-4.427-.964-1.08-1.246-2.586-.196-3.751M496.257 239.613c2.772.008 5.116 2.546 6.815 4.498 1.792 2.062 4.283 5.642 2.177 8.282-.548.686-1.777.954-2.537.48-1.541-.958-2.555-2.817-3.799-4.145-.772-.823-1.63-1.564-2.521-2.253-.384-.298-.167-.124-.719-.484-.46-.299-.962-.523-1.344-.931-1.718-1.833-1.03-5.453 1.928-5.447M527.081 261.788c1.102.748 1.314 2.025 1.442 3.272.121 1.183-1.47 1.277-1.891.345-.393-.87-1.127-1.516-1.25-2.506-.1-.811.977-1.603 1.7-1.111M530.364 278.89c.001 0 .001-.002.003-.002.001-.003.003-.001.004-.003l-.007.005" fill="#fff" transform="matrix(.2205 0 0 .2205 -94.383 343.172)"/><path d="M529.984 278.536l.003-.001c-.036-.088-.047-.184.027-.279.068-.089.169-.424.249-.569.068-.121.279-.165.353-.019.111.223.1.416.023.606a.247.247 0 010 .261l.015.016c-.093.112-.187.223-.283.335a.01.01 0 000-.003c-.004 0-.002.003-.004.005-.218.246-.592-.095-.382-.352" fill="#fff" transform="matrix(.2205 0 0 .2205 -94.383 343.172)"/><path d="M515.743 238.304c-.59-.455-.351-1.733-.854-2.273-.56.481-.442 1.64-1.702 1.421-2.708-1.62-.764-6.69.85-8.235.779.358 1.631.642 1.99 1.42-.007 1.047-1.686 1.895-1.138 2.556.978-.916 1.45-2.337 3.124-2.556.78.659-.496 1.612.284 2.271.735-.417 1.056-1.047 1.987-.568-1.175 2.327-1.963 5.041-4.541 5.964M482.805 245.401c-.653-.294.134-2.028-.569-2.27-.104 1.125.26 2.72-.284 3.406-1.33-.573-1.91-.929-3.692-.284-.775-2.481-.985-6.809.57-8.518 1.245.322.931-.001 1.986-.283.99 1.092.652 3.515 1.42 4.827.255-1.564-1.304-4.615.57-5.112.25 2.146 2.446 7.004 0 8.234" fill="#381400" transform="matrix(.2205 0 0 .2205 -94.383 343.172)"/><path d="M485.076 237.333c.225 2.667 1.295 5.107 0 6.531-1.467-.848-.892-5.197-.852-6.53h.852M476.273 240h.852c.458 0 .458 3.777 0 4.828-1.705-.065-1.225-4.828-.852-4.828M519.433 244.55c1.391-.523 2.018 1.18 2.555.567-.68-.361-1.156-.925-1.135-1.986 1.118-.283 1.635-.412 2.84-1.136 2.415 1.424 5.116 4.958 3.122 8.234-3.96.783-5.518-2.854-7.382-5.678M509.495 253.636c-1.627-1.024-1.742-3.56-3.124-4.827 1.822-.42 3.613 2.936 3.124 4.827M483.088 269.537c-2.487-.6-1.623-7.342-.283-8.518.5 2.274.315 6.646.283 8.518M484.792 271.525c-.892-2.306-1.007-7.748.568-9.37.152 2.362 1.14 7.929-.568 9.37M484.224 254.667h1.136c-.343 0-.908-.912-.284-1.51.872.075 1.277.714 1.988.95-.165-.723-1.139-1.336-.57-1.939 1.071-.475 1.294 1.345 1.705.592-.57-.472-1.32-.75-1.419-1.692.932-.012.679-1.207 1.703-1.128 1.073.061 1.378.895 2.27 1.137.028-.445-.037-.982.568-.849 1.688.963 2.06 3.243 4.26 3.692-.413 1.487-.413 1.068 0 2.555-1.34.513-1.21 2.126-2.272 3.497-4.037-.083-9.67.028-9.085-5.305" fill="#381400" transform="matrix(.2205 0 0 .2205 -94.383 343.172)"/><path d="M563.728 270.672c.247-1.097-.695-1.01-.852-1.703h1.988c-.104.843-.492 1.402-1.136 1.703zm-19.59-5.679c.206-1.353-1.042-2.73-.285-3.69-.084 1.229 1.151 2.618.284 3.69zm-9.657-11.357c-1.237.277-2.044.984-3.121 1.42-.29-1.623 1.976-2.177 3.121-1.42zm-3.406 19.024c-2.892-.337-3.74 1.372-5.395 2.272-.244-2.408-1.564-5.247-1.42-7.099 1.116 1.724 1.497 4.182 2.84 5.68 1.203-3.841-3.239-6.734-3.69-10.79 1.875-1.342 2.254-4.18 5.11-4.543 3.501 2.547 3.25 9.245 2.555 14.48zm-2.555-17.036c-2.492-2.43-7.08-2.764-11.359-3.407.534-.402 1.187-2.96-.284-2.84-.581.195-.365 2.639-.85 1.987.316-1.87.538-4.73-.568-5.963-.442 1.643-.622 3.544-.57 5.68-2.781-1.108.194-7.128-1.136-8.518-1.434.932-.964 3.766-1.702 5.394-1.79-1.517.265-5.506-.852-7.95-1.883.389-.566 3.977-1.42 5.394-2.399-1.344-.138-5.86-.852-7.949-1.498.963-.918 4.003-1.704 5.679-1.79-1.266.313-5.627-.284-7.383-1.995.465-.964 3.957-1.987 5.395-1.195-1.387-.041-4.314 0-6.247-1.995-2.927-2.072-7.772-5.68-9.087-.088.386-.404.543-.284 1.136-.896.139-1.001-.51-1.987-.284-.048.426.102 1.048-.284 1.136-1.041-1.224-1.637.604-2.84.284-.39.898.704 1.714 0 1.988.026-.794-1.728-.794-1.702 0 .546.786 1.39 2.763.568 3.975-1.992-.184.477-4.832-1.99-4.543.038 1.171-.492 1.778-.281 3.123-2.684.696-.417-3.559-1.99-3.976-1.189.137.173 2.823-1.134 2.841-.82-.601-.219-2.621-.853-3.408-1.388-.158-.678 1.783-.852 2.84-1.72.3-.086-2.754-1.419-2.84-.628.603.061 2.523-1.419 2.272-.88-.069.444-2.337-.853-1.988-.79.156.399 2.292-1.136 1.704 1.26-7.174 13.753-8.193 21.864-6.814 15.407 2.618 27.976 15.43 25.84 32.369zm-3.692-23.568c-1.061-.303-.808.705-1.703.568.227-2.043-5.476-3.899-5.396-5.395-.005.092.91-1.096 1.419-1.136 1.54-.117 4.55 4.53 5.68 5.963zm-7.667-6.813c-.961.184-1.154-1.85-.568-2.272.535.657 1.175 1.208.568 2.272zm-21.58 9.937c-.537.064-.625-.32-1.136-.284-.19-1.327.458-1.815.854-2.556.078.961.452 1.632.282 2.84zm2.272 1.42c-1.148-.187-1.097-3.056-.568-3.976-.129 1.463 1.627 2.527.568 3.976zm2.556 1.135c-1.269.309-1.01-2.378-.568-2.839.047.33.45.308.852.284.223 1.17-.437 1.457-.284 2.555zm2.839 1.704c-2.29.146-1.508-4.071-.568-4.827.965 1.46.683 2.553.568 4.827zm-19.592-7.383c11.716 2.828 25.619 12.8 29.53 21.296-8.762 3.543-16.094 8.515-16.185 20.73.236.709.778 1.113.852 1.986-.976.125-1.592-.112-2.272-.284-.764-2.55-.278-6.345-.85-9.087-.994 2.016-.912 7.414.282 9.087-4.197.223-.981-6.97-2.838-9.087-.931 2.303-.218 6.05-.568 8.235-2.415-1.097.028-7.699-1.42-9.939-.79 2.476-1.119 6.263-.284 8.803-.87.207-.835-.49-1.704-.283-.45-1.724.033-6.336-.567-8.802-1.199 1.882-.783 6.582-.568 8.233-2.647-1.517-5.383-2.945-7.383-5.11.91.247.888-.438 1.135-.853-1.228-2.085.207-6.83-1.135-8.801-1.36 2.161-.884 6.765-.284 9.37-3.177-1.08-.649-8.071-1.988-10.222-1.873 1.156-.598 5.46-1.42 7.665-2.232-2.16.442-8.193-1.134-10.505-1.466 1.47-.771 5.099-1.42 7.383-2.108-2.076.405-7.438-.568-9.087-1.8.472-.799 3.745-1.988 4.828-1.21-2.263 1.973-6.481 0-7.667-1.127.862-.81 3.166-1.703 4.259-.952-2.256.364-5.733 0-7.383-1.113-.165-.727 1.168-1.421 1.42-.096-1.421.664-1.986.568-3.408-.415-.657-.9.556-.851-.566-2.085-9.878 7.19-14.38 16.184-12.211zm-.568 45.716c.717-1.176.635-3.152 1.704-3.976.073.399.623.324.85.568-.593 1.21-1.94 3.163-2.554 3.408zm17.037-9.939c-.426 1.94-.138 4.595-1.137 5.963-.143-2.51.253-4.48 1.137-5.963zm1.704 23.283c.582-2.447.327-5.728 1.703-7.381-.06 2.969-.817 5.24-1.703 7.381zm9.654-23.283c-.248-2.804-2.56-6.496-1.704-8.518.613 1.281 1.412 2.376 1.988 3.69-2.102.471 1.014 3.399-.284 4.828zm.284-10.79c-.005-.372-.788-.362-.852 0-.466 1.15 1.502 1.308.568 1.988-.439-.98-1.504-1.336-2.272-1.988 1.094-.039 1.313-.959 2.556-.851-.112.49.421.728 0 .85zm2.554-.568c-.862.412-1.45.049-1.418-1.136.536.065.625-.319 1.134-.283-.089.659.047 1.09.284 1.419zm-11.924 21.864c1.319-4.17 2.163-8.815 7.098-9.37.269 1.515 1.628 2.195 2.84 1.988 1.878 2.38 2.653 5.864 3.408 9.37-4.143.126-9.574-.808-13.346-1.988zm14.196-23.851c1.562.141 3.72-.313 4.827.284-1.353.632-3.937.781-4.827-.284zm-1.418 2.84c.966 1.304 1.464 3.08 3.406 3.407.087-1.89-2.414-2.69-1.988-3.975.659.667.931 1.72 2.272 1.704.491-1.083-1.62-1.87-.284-1.99 1.288-.151.759 1.515 1.988 1.422 1.312-.025-.345-1.695.851-1.421.364.016.393.365.852.285-.357 1.69.87 3.283 0 4.543-.02-.832-.103-1.602-1.135-1.419.168 2.576 1.611 5.388 1.988 6.813-3.373-.793-1.498-6.829-4.544-7.949.236 1.472 1.875 3.039 1.135 4.543-1.057-2.122-5.344-3.855-4.541-5.963zm1.134 24.419c1.668-.32 2.716-1.26 4.544-1.42-.066 1.164-.14 2.322-.569 3.124-.144-1.087-.256-2.203-1.419-2.272-1.236.004-.592 2.056-.852 2.272-.361-.776-1.14-1.132-1.704-1.704zm1.988-17.888c.543 1.256 2.091 1.505 2.556 2.838-1.268-.346-2.549-2.173-2.556-2.838zm3.975 11.925c-.676-.657-1.575-2.577-1.135-3.407.339.994 1.594 2.559 1.135 3.407zm.136 1.988c-.984.72-2.408.879-3.741 1.42v-1.136c1.333.305 1.846-.525 2.37-1.136.092.664 1.19.275 1.371.852zm2.136-20.73v-1.134c.897-.045 1.713-.01 1.988.567-1.039-.186-1.09.614-1.988.568zm-1.135 1.138c-.048.804 1.75-.236 1.703.568-.77.364-.817 1.453-1.703 1.703.371-.966-.633-1.982 0-2.271zm3.974 17.604c.505 3.944-1.187 1.175 0 0zm2.272-1.703c2.482.108 2.413 4.166 1.986 6.246-2.257-.487-.473-5.015-1.986-6.246zm35.493-1.421c.26-.77.528.757 1.42.284 1.055-1.139.9-3.255.285-4.827-4.712-2.032-15.769 1.491-17.889-2.27-1.084-.043-1.368.714-2.272.85-.805-5.725-1.21-11.852-3.692-15.9-1.057-.301-.916.598-1.419.851-.541-.12-.714-.61-1.42-.567-.472-3.444-6.912-2.352-9.369-1.42-.723-4.957-2.385-8.973-4.544-12.494 1.53-.267 4.197.601 4.827-.567.13-2.079-3.736-1.488-5.111-1.136-.207-.868.49-.836.284-1.704.553-.653 1.83.545 2.556-.284.37-1.695-.896-1.753-.853-3.123-2.962-1.049-3.978-4.369-6.814-6.814-2.541-2.19-5.802-4.814-8.234-3.124-.02 1.912.79 2.996 1.134 4.544-10.297-5.558-32.192-6.76-36.344 5.11-17.977-1.553-13.204 25.052-6.246 32.37-4.08 2.734-11.138 2.493-16.752 3.69-.406.379-.406 1.61 0 1.988-2.451.484-3.838 2.032-3.976 4.827 1.458 1.33 5.901 3.428 7.666 1.704-.765-1.884-3.713-1.587-5.68-2.27-.125-1.263.77-1.503 1.138-2.273 2.417.636 4.893 2.643 7.949 1.704.257-1.962-1.6-1.806-2.555-2.556.948-1.192 1.83-.178 2.84-.284 3.906-.41 8.795-3.117 12.492-2.272 2.706.619 5.336 5.292 8.236 6.247-.305 5.765-7.574 9.615-4.545 15.05 1.767-.129 2.333-1.454 3.124-2.557-.127-.913-.432-1.648-1.703-1.418 3.47-2.02 5.015-5.964 7.667-8.803 3.465 1.172 6.29 2.985 11.357 2.556 1.204.688 1.782 2.004 3.124 2.555-.536 5.174-4.816 11.206-2.557 18.173-.045 1.277-1.755.892-1.703 2.272-.126 1.261.77 1.501 1.136 2.27 1.084.202 1.368.19 2.271-.285 4.541 2.748 7.904 6.675 15.617 6.248.17 4.332-1.866 13.387 3.408 14.196.53.703-.02 2.484 1.136 2.554 1.882-.007 2.103-1.68 3.407-2.268.095-1.422-1.547-1.102-1.419-2.558-.708-.236-1.522-.368-2.556-.282-1.49-3.21-.764-10.926-2.272-15.048-1.557-.235-1.209 1.441-2.27 1.704-2.63-.307-5.038-.834-7.384-1.42 1.512-.58 7.192 1.084 8.234-.854-.461-1.448-2.188-.722-3.124-.852-4.316-.586-8.357-1.753-11.356-3.69.03.702-.256 1.653-1.421.853 1.217-1.323 1.475-2.061 1.704-4.544-.373-.364-1.045-.364-1.42 0 1.288-3.05 3.277-7.22 3.692-11.359.181-1.809-.293-3.425 1.419-3.974 2.02.348 4.142.592 6.248.852 1.461 4.028 6.392 4.586 10.79 5.678.051 1.088-.233.103-.853.284.044.903.644 1.25.57 2.272.625-.036.12-1.205.283-1.704.638.876.542 2.487.851 3.691-.265-.208-.43-.516-.567-.85-.116 3.929-.41 7.703-1.705 11.071.599.503.839.642 1.705.286-.092 1.321-.092 2.55.851 2.84 3.03-2.839 1.717-14.083.568-18.174 2.255-2.192 6.875-2.02 8.519-4.826 8.317.557 15.293-.23 18.173-5.111-4.24 2.261-12.841 2.565-17.039.852.43-3.175-.973-4.515-2.554-5.68 1.677-5.59.853-12.943-2.272-16.184 3.336.155 5.789-2.877 9.653-3.124 2.528 3.72 1.188 11.308 4.545 14.197 1.354-.06 1.259-.722 2.555-.282.772.978-1.363.948-.852 2.554 2.192 2.352 4.623-.244 7.383-.568 3.758-.441 6.364 1.219 9.937 1.704-.599.844-1.157 3.887.284 4.259 1.241-.275 1.16-1.868 1.704-2.84" fill="#381400" transform="matrix(.2205 0 0 .2205 -94.383 343.172)"/><path d="M502.68 252.217c-.183-1.072-1.701-1.922-1.136-2.84 1.493-.438 1.581 2 2.272 1.42-.332-.71-.99-1.092-.85-2.272 1.467.182.42-.588.566-1.42 2.613 1.172 3.03 4.543 4.26 7.099-1.38.892-2.939 1.604-4.26 2.556-1.207-1.917-2.575-3.672-3.123-6.247 1.675-.352 1.266 1.384 2.271 1.704" fill="#381400" transform="matrix(.2205 0 0 .2205 -94.383 343.172)"/></g><use xlink:href="#a" transform="translate(25.716)" width="100%" height="100%"/><use xlink:href="#a" transform="translate(51.433)" width="100%" height="100%"/><use xlink:href="#a" transform="translate(77.149)" width="100%" height="100%"/><use xlink:href="#a" transform="translate(102.865)" width="100%" height="100%"/><use xlink:href="#a" transform="translate(128.581)" width="100%" height="100%"/><use xlink:href="#a" transform="translate(154.298)" width="100%" height="100%"/><use xlink:href="#a" width="100%" height="100%" transform="translate(0 -23.346)"/><use xlink:href="#a" transform="translate(25.716 -23.346)" width="100%" height="100%"/><use xlink:href="#a" transform="translate(51.433 -23.346)" width="100%" height="100%"/><use xlink:href="#a" transform="translate(77.149 -23.346)" width="100%" height="100%"/><use xlink:href="#a" transform="translate(102.865 -23.346)" width="100%" height="100%"/><use xlink:href="#a" transform="translate(128.581 -23.346)" width="100%" height="100%"/><use xlink:href="#a" transform="translate(154.298 -23.346)" width="100%" height="100%"/><use xlink:href="#a" transform="translate(0 -46.692)" width="100%" height="100%"/><use xlink:href="#a" transform="translate(25.716 -46.692)" width="100%" height="100%"/><use xlink:href="#a" transform="translate(51.433 -46.692)" width="100%" height="100%"/><use xlink:href="#a" transform="translate(77.149 -46.692)" width="100%" height="100%"/><use xlink:href="#a" transform="translate(102.865 -46.692)" width="100%" height="100%"/><use xlink:href="#a" transform="translate(128.581 -46.692)" width="100%" height="100%"/><use xlink:href="#a" transform="translate(154.298 -46.692)" width="100%" height="100%"/><use xlink:href="#a" transform="translate(0 -70.039)" width="100%" height="100%"/><use xlink:href="#a" transform="translate(25.716 -70.039)" width="100%" height="100%"/><use xlink:href="#a" transform="translate(51.433 -70.039)" width="100%" height="100%"/><use xlink:href="#a" transform="translate(77.149 -70.039)" width="100%" height="100%"/><use xlink:href="#a" transform="translate(102.865 -70.039)" width="100%" height="100%"/><use xlink:href="#a" transform="translate(128.581 -70.039)" width="100%" height="100%"/><use xlink:href="#a" transform="translate(154.298 -70.039)" width="100%" height="100%"/><use xlink:href="#a" transform="translate(0 -93.385)" width="100%" height="100%"/><use xlink:href="#a" transform="translate(25.716 -93.385)" width="100%" height="100%"/><use xlink:href="#a" transform="translate(51.433 -93.385)" width="100%" height="100%"/><use xlink:href="#a" transform="translate(77.149 -93.385)" width="100%" height="100%"/><use xlink:href="#a" transform="translate(102.865 -93.385)" width="100%" height="100%"/><use xlink:href="#a" transform="translate(128.581 -93.385)" width="100%" height="100%"/><use xlink:href="#a" transform="translate(154.298 -93.385)" width="100%" height="100%"/><use xlink:href="#a" transform="translate(0 -116.731)" width="100%" height="100%"/><use xlink:href="#a" transform="translate(25.716 -116.731)" width="100%" height="100%"/><use xlink:href="#a" transform="translate(51.433 -116.731)" width="100%" height="100%"/><use xlink:href="#a" transform="translate(77.149 -116.731)" width="100%" height="100%"/><use xlink:href="#a" transform="translate(102.865 -116.731)" width="100%" height="100%"/><use xlink:href="#a" transform="translate(128.581 -116.731)" width="100%" height="100%"/><use xlink:href="#a" transform="translate(154.298 -116.731)" width="100%" height="100%"/><use xlink:href="#a" transform="translate(0 -140.077)" width="100%" height="100%"/><use xlink:href="#a" transform="translate(25.716 -140.077)" width="100%" height="100%"/><use xlink:href="#a" transform="translate(51.433 -140.077)" width="100%" height="100%"/><use xlink:href="#a" transform="translate(77.149 -140.077)" width="100%" height="100%"/><use xlink:href="#a" transform="translate(102.865 -140.077)" width="100%" height="100%"/><use xlink:href="#a" transform="translate(128.581 -140.077)" width="100%" height="100%"/><use xlink:href="#a" transform="translate(154.298 -140.077)" width="100%" height="100%"/></g><use xlink:href="#a" transform="matrix(.85556 0 0 .85556 20.722 -145.056)" width="100%" height="100%" stroke-width="1.169"/><use xlink:href="#a" transform="matrix(.85556 0 0 .85556 42.722 -145.056)" width="100%" height="100%" stroke-width="1.169"/><use xlink:href="#a" transform="matrix(.85556 0 0 .85556 64.722 -145.056)" width="100%" height="100%" stroke-width="1.169"/><use xlink:href="#a" transform="matrix(.85556 0 0 .85556 86.722 -145.056)" width="100%" height="100%" stroke-width="1.169"/><use xlink:href="#a" transform="matrix(.85556 0 0 .85556 108.722 -145.056)" width="100%" height="100%" stroke-width="1.169"/><use xlink:href="#a" transform="matrix(.85556 0 0 .85556 130.722 -145.056)" width="100%" height="100%" stroke-width="1.169"/><use xlink:href="#a" transform="matrix(.85556 0 0 .85556 152.722 -145.056)" width="100%" height="100%" stroke-width="1.169"/><use xlink:href="#a" transform="matrix(.85556 0 0 .85556 174.722 -145.056)" width="100%" height="100%" stroke-width="1.169"/><use xlink:href="#a" transform="matrix(.85556 0 0 .85556 196.722 -145.056)" width="100%" height="100%" stroke-width="1.169"/><use xlink:href="#a" transform="matrix(.85556 0 0 .85556 218.722 -145.056)" width="100%" height="100%" stroke-width="1.169"/><use xlink:href="#a" transform="matrix(.85556 0 0 .85556 240.722 -145.056)" width="100%" height="100%" stroke-width="1.169"/><use xlink:href="#a" transform="matrix(.85556 0 0 .85556 262.722 -145.056)" width="100%" height="100%" stroke-width="1.169"/><use xlink:href="#a" transform="matrix(.85556 0 0 .85556 284.722 -145.056)" width="100%" height="100%" stroke-width="1.169"/><use xlink:href="#a" transform="matrix(.85556 0 0 .85556 306.722 -145.056)" width="100%" height="100%" stroke-width="1.169"/><use xlink:href="#a" transform="matrix(.85556 0 0 .85556 328.722 -145.056)" width="100%" height="100%" stroke-width="1.169"/><use xlink:href="#a" transform="matrix(.85556 0 0 .85556 350.722 -145.056)" width="100%" height="100%" stroke-width="1.169"/><use xlink:href="#a" transform="matrix(.85556 0 0 .85556 372.722 -145.056)" width="100%" height="100%" stroke-width="1.169"/><use xlink:href="#a" transform="matrix(.85556 0 0 .85556 394.722 -145.056)" width="100%" height="100%" stroke-width="1.169"/><use xlink:href="#a" transform="matrix(.85556 0 0 .85556 416.722 -145.056)" width="100%" height="100%" stroke-width="1.169"/><use xlink:href="#a" transform="matrix(.85556 0 0 .85556 438.722 -145.056)" width="100%" height="100%" stroke-width="1.169"/><use xlink:href="#a" transform="matrix(.85556 0 0 .85556 460.722 -145.056)" width="100%" height="100%" stroke-width="1.169"/><use xlink:href="#a" transform="matrix(.85556 0 0 .85556 482.722 -145.056)" width="100%" height="100%" stroke-width="1.169"/><use xlink:href="#a" transform="matrix(.85556 0 0 .85556 504.722 -145.056)" width="100%" height="100%" stroke-width="1.169"/><use xlink:href="#a" transform="matrix(.85556 0 0 .85556 31.722 -125.082)" width="100%" height="100%" stroke-width="1.169"/><use xlink:href="#a" transform="matrix(.85556 0 0 .85556 53.722 -125.082)" width="100%" height="100%" stroke-width="1.169"/><use xlink:href="#a" transform="matrix(.85556 0 0 .85556 75.722 -125.082)" width="100%" height="100%" stroke-width="1.169"/><use xlink:href="#a" transform="matrix(.85556 0 0 .85556 97.722 -125.082)" width="100%" height="100%" stroke-width="1.169"/><use xlink:href="#a" transform="matrix(.85556 0 0 .85556 119.722 -125.082)" width="100%" height="100%" stroke-width="1.169"/><use xlink:href="#a" transform="matrix(.85556 0 0 .85556 141.722 -125.082)" width="100%" height="100%" stroke-width="1.169"/><use xlink:href="#a" transform="matrix(.85556 0 0 .85556 163.722 -125.082)" width="100%" height="100%" stroke-width="1.169"/><use xlink:href="#a" transform="matrix(.85556 0 0 .85556 185.722 -125.082)" width="100%" height="100%" stroke-width="1.169"/><use xlink:href="#a" transform="matrix(.85556 0 0 .85556 207.722 -125.082)" width="100%" height="100%" stroke-width="1.169"/><use xlink:href="#a" transform="matrix(.85556 0 0 .85556 229.722 -125.082)" width="100%" height="100%" stroke-width="1.169"/><use xlink:href="#a" transform="matrix(.85556 0 0 .85556 251.722 -125.082)" width="100%" height="100%" stroke-width="1.169"/><use xlink:href="#a" transform="matrix(.85556 0 0 .85556 273.722 -125.082)" width="100%" height="100%" stroke-width="1.169"/><use xlink:href="#a" transform="matrix(.85556 0 0 .85556 295.722 -125.082)" width="100%" height="100%" stroke-width="1.169"/><use xlink:href="#a" transform="matrix(.85556 0 0 .85556 317.722 -125.082)" width="100%" height="100%" stroke-width="1.169"/><use xlink:href="#a" transform="matrix(.85556 0 0 .85556 339.722 -125.082)" width="100%" height="100%" stroke-width="1.169"/><use xlink:href="#a" transform="matrix(.85556 0 0 .85556 361.722 -125.082)" width="100%" height="100%" stroke-width="1.169"/><use xlink:href="#a" transform="matrix(.85556 0 0 .85556 383.722 -125.082)" width="100%" height="100%" stroke-width="1.169"/><use xlink:href="#a" transform="matrix(.85556 0 0 .85556 405.722 -125.082)" width="100%" height="100%" stroke-width="1.169"/><use xlink:href="#a" transform="matrix(.85556 0 0 .85556 427.722 -125.082)" width="100%" height="100%" stroke-width="1.169"/><use xlink:href="#a" transform="matrix(.85556 0 0 .85556 449.722 -125.082)" width="100%" height="100%" stroke-width="1.169"/><use xlink:href="#a" transform="matrix(.85556 0 0 .85556 471.722 -125.082)" width="100%" height="100%" stroke-width="1.169"/><use xlink:href="#a" transform="matrix(.85556 0 0 .85556 493.722 -125.082)" width="100%" height="100%" stroke-width="1.169"/><use xlink:href="#a" transform="matrix(.85556 0 0 .85556 515.722 -125.082)" width="100%" height="100%" stroke-width="1.169"/><use xlink:href="#a" transform="matrix(.85556 0 0 .85556 537.722 -125.082)" width="100%" height="100%" stroke-width="1.169"/><use xlink:href="#a" transform="matrix(.85556 0 0 .85556 526.722 -145.056)" width="100%" height="100%" stroke-width="1.169"/><use xlink:href="#a" transform="matrix(.85556 0 0 .85556 548.722 -145.056)" width="100%" height="100%" stroke-width="1.169"/><use xlink:href="#b" transform="translate(0 -246.577)" width="100%" height="100%"/><use xlink:href="#b" transform="translate(204.994)" width="100%" height="100%"/><use xlink:href="#b" transform="translate(204.994 -246.577)" width="100%" height="100%"/><use xlink:href="#b" transform="translate(409.988)" width="100%" height="100%"/><use xlink:href="#b" transform="translate(409.988 -246.577)" width="100%" height="100%"/></svg>