<svg xmlns="http://www.w3.org/2000/svg" xmlns:xlink="http://www.w3.org/1999/xlink" height="420" width="600"><g id="a" stroke-width=".317"><path d="M375.441 82.452c0 .961-1.258 2.273-.316 3.136.424-.535 1.128-2.403.316-3.136M377.636 80.57c.325 1.286-.97 2.565 0 3.45.928-.192 1.75-3.437 0-3.45M381.396 69.91c-.827 1.031-4.616 1.254-.627 1.254-.089-.552 1.479-.97.627-1.255M374.643 95.075c.552.23 2.372.657 1.433 1.43-.13-.825-1.232-.677-1.433-1.43M376.647 93.07c-.396-.843-1.322-1.158-1.718-2.003 1.491-.428 2.467 1.144 1.718 2.004M372.068 85.907c1.157.56 1.09 2.093 1.717 3.426h-3.434c.136-1.333-.568-2.858-.86-4.285 2.168.027 1.309 3.081 2.577 4.008.652-.833-.72-2.384 0-3.15M338.29 100.513a594.38 594.38 0 006.297-8.014c3.572.149 4.114 4.012 8.589 1.717-.197.77.59.553.857.859-.83 2.605-2.77 4.098-4.58 5.725 3.636.009 3.86-3.392 6.012-4.867 2.144 2.246 5.676 3.103 7.443 5.726-.941 2.421-5.932 2.244-6.299 4.293 3.719-.241 6.13-3.159 8.016-4.293-.836-.592-.357-1.678 0-2.578 4.118-.349 6.239 3.651 9.16 5.44-5.466 4.604-20.522 9.586-28.338 3.722-.415-2.134.945-2.491.858-4.295-4.828-.483-16.4 4.716-20.894-.572 6.494-2.76 10.44-8.07 17.173-10.59-.453 2.22-5.144 4.202-4.293 7.727" fill="#fff" transform="matrix(.41998 0 0 .41998 -121.474 345.538)"/><path d="M355.75 90.495c-.049 1.584 2.634 1.938 2.291 2.864-2.957-1.599-5.876.458-9.16.284-.677-2.886-5.34-2.764-8.014-1.718-5.292 2.074-11.198 8.842-16.028 10.306-.48-5.468 3.777-8.003 8.013-10.591 7.021-4.292 15.145-3.553 22.899-1.145M359.187 75.896c-2.471-.105-4.084-1.07-4.867-2.861 1.553.312 1.904-.579 3.15-.574 1.07 1.41 3.98.982 3.72 3.722-1.8.737-1.56-2.05-2.29-1.431.424.053.263.692.287 1.144" fill="#fff" transform="matrix(.41998 0 0 .41998 -121.474 345.538)"/><path d="M352.603 72.748c.953 1.421 1.974 2.957 3.721 3.721 1.285.562 3.397-.202 3.721 1.718-.23-1.58.439-.92 1.431-.859.69 1.601 1.032 3.547 1.432 5.439-4.203 3.121-11.99 2.426-18.035 2.289-6.17-3.944-15.456-4.77-20.896-9.447 10.328.123 18.895-6.881 28.626-2.861" fill="#fff" transform="matrix(.41998 0 0 .41998 -121.474 345.538)"/><path d="M336.287 66.737c-2.895-1.668-5.943-2.601-8.874-4.008-.564-.674-.564-1.916-.858-2.862-1.107-1.375-3.203-1.758-5.152-2.29 2.326.314 5.424-.494 7.729.287 1.143.385 2.063 1.785 3.148 2.29 2.743 1.273 6.15 1.267 8.873 2.575 1.163.559 2.215 1.954 3.434 2.863 2.816 2.099 5.276 3.123 6.298 5.724-3.617-2.1-8.368-.607-11.736-2.29-1.072-.535-1.862-1.713-2.862-2.289M354.033 93.643c.906-.044 1.728-.01 2.004.573-.694.595-1.876.715-2.004-.573M375.503 105.952c-.53.043-.176.97-.574 1.145-.428-.049-1.056.102-1.144-.286.539-.152 1.324-1.508 1.718-.859M327.7 63.875c4.939 1.956 9.979 5.54 14.599 7.441-4.774.053-10.167 2.467-14.599 3.148-6.763 1.041-9.183-3.261-12.31-7.155 4.554-.02 9.183-4.674 12.31-3.434M370.637 81.621c1.687.03 1.464 1.971 1.718 3.435-1.528-.19-1.351-2.084-1.718-3.435" fill="#fff" transform="matrix(.41998 0 0 .41998 -121.474 345.538)"/><path d="M314.817 59.295c-1.268.46-3.34-.1-4.006 1.43 3.368.856 5.969-1.452 8.301-2.576 2.944 1.159 7.48.726 7.156 5.152-4.49.566-7.887 2.227-12.021 3.15-1.794-2.5-7.142-9.392-2.579-11.164-.217 2.132 4.863 1.434 7.157 2.004-1.488.062-2.528 1.465-4.008 2.004M374.93 89.35c-.215-.522-1.563-2.407-.287-2.577.026.711 1.537 2.435.286 2.576M363.48 82.667c.31-2.667-1.924-4.194-.572-5.247.643.501 1.61.728 2.29 1.192-.29 1.527-.135 2.721.571 4.055h-2.289" fill="#fff" transform="matrix(.41998 0 0 .41998 -121.474 345.538)"/><path d="M354.607 71.89c-5.007-2.92-9.196-8.56-14.599-10.593-2.212-.83-4.82-.922-7.156-2.002-1.573-.728-2.487-2.239-4.293-2.576-5.231-.978-11.422.19-16.031-1.432 23.457-2.18 39.2 5.837 51.237 16.029.62 1.385.54 3.47 1.147 4.867-3.501-1.224-5.464-6.223-10.305-4.294M368.919 75.896c-.408 1.47.788 2.82 0 3.721-2.002-1.053-1.36-4.745-2.863-6.297-.003 1.632 1.212 3.55.573 4.867-1.324-1.352-1.91-4.956-2.004-6.584 2.422 2.921 7.267 3.418 6.87 9.16-2.202-.278-1.283-3.679-2.576-4.867M367.775 97.937c.92.063 1.209-.506 2.289-.286 1.347 2.298 6.113 2.638 5.439 6.01-3.05-1.434-5.447-3.522-7.728-5.724M373.212 82.767c.833.502 1.353 1.318 1.145 2.862-1.162.007-1.432-2.37-1.145-2.862M367.487 94.788c1.788-.261 2.38.673 3.15 1.432-1.272.553-2.168-.841-3.15-1.432M366.63 91.64c2.555-.361 3.74.648 4.578 2.003-2.473.281-3.64-.747-4.579-2.003M367.201 93.643c-2.477.092-3.517-1.252-4.865-2.29 2.676-.29 3.681 1.09 4.865 2.29M375.79 100.8c-1.562-1.493-3.647-2.461-5.153-4.008 1.604.15 5.056 2.356 5.152 4.008M356.324 95.075c3.872-2.083 6.397 1.429 8.873 2.576-.216 1.216-2.001.862-1.717 2.576-2.555-1.547-5.375-2.83-7.156-5.152M362.048 75.324c.259.504 1.055.473 1.147 1.145-.843.243-1.862-.776-1.147-1.145M367.775 89.35c-8.41-.466-16.462-1.287-23.472-3.147 6.516-.075 13.949.845 18.605-2.292.959.092.288 1.81 1.144 2.004.392-.848-.167-1.246 0-2.576 3.839-.594 2.612 3.876 3.723 6.01M373.212 93.643c-1.095-.431-1.867-1.184-2.575-2.003 1.468.057 1.8 1.252 2.575 2.003M376.076 93.93c-1.784-.091-3.221-1.849-3.15-2.863 1.707.298 2.36 1.649 3.15 2.862M370.637 94.788c2.967-.008 5.762 1.677 5.152 4.293-1.402-1.745-3.602-2.693-5.152-4.293M368.919 80.19c.764.771 1.63 2.94 1.145 4.007-.988-.418-2.412-3.214-1.145-4.006M369.777 89.333h-1.43c.181-2.666-1.427-4.102-.86-5.724 1.653 1.019 1.717 3.058 2.29 5.724M363.48 93.643c-3.31.257-4.408-1.698-6.297-2.862 2.933.12 4.576 1.531 6.297 2.862M363.195 94.788c2.881-.304 3.913 1.239 5.438 2.29-2.574 1-3.956-1.285-5.438-2.29M366.916 79.045c.528.815 1.359 2.828.859 3.722-.95-.283-2.236-2.991-.859-3.722M372.355 77.9c1.272.73 1.433 2.573 1.717 4.293-1.912.094-2.116-3.029-1.717-4.293M375.79 81.05c.443.429 1.46 1.76.571 2.575-.137-.737-1.154-2.068-.572-2.576M399.833 100.513c.118-2.073-1.993-4.814-.86-6.01.771 1.185 1.242 5.566.86 6.01M400.405 101.659c-.068 1.213.264 2.026.572 2.862-1.781.374-.792-3.024-.572-2.862M401.264 91.067c.435.805.272 2.209.573 3.149-2.278.561-1.48-1.955-2.577-2.576-.91.436.603 1.963-.572 1.719-1.26-.078-.973-1.7-1.432-2.578 1.45-.02 2.372.492 4.008.286M400.405 95.075c2.559.022 1.9 3.358 2.29 5.438.429 2.287.584 5.047 2.29 5.726-.597-3.791-1.57-7.207-2.004-11.164 2.552.012 2.144 3.576 2.578 5.725.478 2.385.508 5.452 2.289 6.297-.656-4.114-1.715-7.825-2.29-12.022 2.889-.255 2.163 3.381 2.577 5.438.473 2.362.937 4.98 2.289 6.011-.03-3.407-1.844-6.55-1.432-9.445 1.244 3.432 1.977 7.373 4.295 9.732.048-.428-.102-1.058.286-1.144.526 1.572.355 3.841 2.29 4.006-1.031-4.597-4.226-7.033-4.58-12.309 1.01.041 1.28.819 2.29.86.552 3.836 1.322 7.533 2.862 10.383-.079-3.928-1.284-7.274-2.004-9.94h2.004c.838 2.666.952 5.918 2.862 7.442-.568-2.485-1.35-4.776-1.717-7.442h2.004c1.005 2.666 1.036 5.564 2.863 7.078-.524-2.625-1.426-4.912-2.004-7.482 2.104-1.48 4.526.493 6.584.838 1.341 2.858 4.038 4.348 3.434 9.151.935.972 1.243 2.57 3.148 2.57-.153-1.182-1.822-1.703-2.289-3.15-.29-.895.148-1.972 0-2.864-.432-2.599-3.11-4.052-2.576-5.439 1.593-.701 1.815.578 3.148.858 8.23.357 12.148 5.026 17.747 8.016-.53-2.251-3.226-3.55-5.152-4.582-3.648-1.952-6.938-4.454-12.308-4.293-.9-.245-1.207-1.081-2.291-1.144-4.1.559-5.833-2.416-9.732-1.145-.75-1.73-.432-4.688-2.004-5.598-.009 2.158 1.424 4.519.86 5.852h-1.432c-.864-1.333-1.044-3.95-1.432-6.138 16.128-2.064 29.792 4.722 35.495 15.822-4.354 2.922-10.842 5.419-18.034 4.334-4.104-.619-7.8-4.45-11.162-3.128.296 1.898 2.065 2.334 1.717 4.876-9.88 2.85-17.905-3.955-22.9-8.298 1.376-2.646-.639-6.774-.859-9.726M434.755 77.041c.918.902-1.219 2.275-.572 2.863.781-1.317 1.997-3.587 4.008-2.004-.164.259-1.182 1.055-.574 1.145.194-.664.952-.766 1.144-1.43 7.255-.763 14.331-1.7 20.039-4.008-4.772 6.2-12.325 9.621-20.896 12.022-2.372-1.35-5.27-2.173-8.301-2.862 2.244-1.383 2.317-4.935 5.152-5.726M378.079 85.343c.093-.69-.244-3.272.285-2.576-.092.689.245 3.27-.285 2.576M419.012 81.333h.572c-.39 2.667-1.985 2.739-2.29 4.724 1.957-.621 2.078-4.202 4.58-3.364-.569 1.538-2.774 2.983-2.577 4.331 1.82-.948 2.268-3.248 4.58-3.704-.026 1.319-2.137 2.059-1.43 3.159 1.297-.826 1.516-2.488 3.148-2.858 1.242-.282 1.62.694 2.862.86-.026-.004.492-.554.859-.572 2.4-.109 5.347 1.388 6.87 2.292-7.349 1.471-15.298 3.262-23.186 3.291 1.739-2.937 3.619-5.492 6.012-8.159" fill="#fff" transform="matrix(.41998 0 0 .41998 -121.474 345.538)"/><path d="M414.145 97.688c-.084-2.207-.705-4.355-.858-5.688h2.004c.014 1.333.885 3.724.857 6.136-.992.23-1.099-.588-2.003-.448M388 81.908v4.007c0 .872 1.68-.612 1.479.573-.242.617-1.28.461-1.742.859.188-1.722.263-4.195.263-5.439M379.14 76.755c-.968 2.848.86-2.558.86-3.148v2.576c0-.016-.735.221-.86.572M389.528 85.056c.864-3.9-1.304-7.504.287-10.877-.062 4.488 2.208 7.638-.287 10.877M386.667 69.313c.462-.397.702-1.013 1.716-.858 1.374 2.218.044 5.438-.858 7.154-1.077-1.857 1.004-6.336-.858-6.296M444.2 69.885c-2.487 2.092-2.8 6.36-7.156 6.584 1.97-2.421 2.97-7.336 7.156-6.584M382.372 65.305c-.617-1.47.373-3.568 2.29-3.434.98 1.041-.093 3.793-2.29 3.434" fill="#fff" transform="matrix(.41998 0 0 .41998 -121.474 345.538)"/><path d="M387.525 78.187c-1.617 1.834-.716 7.334-1.432 9.16-1.99-2.927.66-7.38-.286-10.592-.195-.66-.804-.786-.858-1.431-.17-2.028.456-3.932 1.43-5.152-.83 2.844-.026 6.247 1.146 8.015M383.517 68.455c.432-.35 1.894.009 2.29.572-.61.525-1.823-.082-2.29-.572M436.187 72.461c-1.32.311-1.558 3.206-2.864 2.576.693-.934 1.817-2.944 2.864-2.576M404.985 93.93c.018-1.066-.289-1.811-.572-2.577 1.043-.088 1.863.046 2.576.287-.088 1.043.044 1.863.287 2.576-1.063.203-1.23-.49-2.29-.287M407.561 91.64c1.804.087 3.39-.045 4.867-.287-.059 2.062.63 3.378.572 5.439-2.708.323-1.71-3.06-3.148-4.007.059.896-.193 2.102.287 2.576-1.882-.22-2.287-1.912-2.578-3.721M411.856 81.908c-1.533 1.523-4.05 3.579-4.295 5.439 2.199-1.619 3.491-4.144 5.726-5.726-1.224 2.594-3.858 3.778-4.58 6.871-1.882.015-3.835-2.117-5.152-.86 1.312.887 4.305 2.808 6.01 1.432-.004-.473-.794-.16-.858-.572 2.786-1.699 3.529-5.44 6.869-6.584-.25 2.137-4.273 4.5-4.293 6.87 1.425-.109 1.922-2.649 2.862-2.29-.778.843-1.541 1.703-1.717 3.148-4.29.48-10.107.247-14.025-.572 6.604-.05 6.521-9.276 13.453-7.156M444.773 69.599c5.255-2.188 13.738-2.674 18.892-4.007-1.276 2.54-2.486 5.145-4.006 7.443-5.84 1.793-12.704 2.561-19.464 3.434.652-2.021 3.472-4.35 4.578-6.87M402.41 92h1.43c.013 0 .484 1.101.287 2.252-.69-.116-.623.685-1.432.45.202-1.251-.487-2.702-.286-2.702M376.361 87.347c.095.669.344 1.181.572 1.717-.734.139-1.553-1.961-.572-1.717M410.139 79.904c1.466-.44 3.461-.355 5.152-.573.086 1.764-4.451 1.449-5.152.573M429.03 70.457c-2.958 1.908-3.891 7.367-7.727 7.443.948-1.437 2.389-2.38 2.861-4.293-1.39.404-.687.702-1.145-.287-2.362 1.265-2.872 4.38-5.439 5.439-.803.122.719-1.067-.285-1.144-1.003-.05-.903 1.006-1.432 1.43-.739-.597-2.774.103-3.435-.573 6.833-1.181 9.003-8.552 16.601-8.015M434.755 71.03c-2.242 1.766-3.248 4.766-6.298 5.725 1.031-2.215 3.884-4.128 4.008-6.298-3.114 1.944-4.224 7.416-8.301 7.443 2.08-2.5 4.063-5.099 5.724-8.015 2.163-.158 3.916.094 4.867 1.146M439.908 70.743c-1.372 1.702-2.768 6.046-5.153 4.866 1.678-1.66 2.374-4.304 5.153-4.866M421.587 81.621c.352-1.557 1.486-2.33 3.149-2.576-.69 1.196-1.285 3.44-3.15 2.576M390.96 86.203c1.881-3.522 1.604-6.671.287-10.594 1.548.215.75-1.918 2.002-2.002.027 2.221-.762 3.626-.858 5.724 2.38.933.762 4.745-.286 6.872.99.225 1.208-.32 1.716-.574-.314.83-.353 1.935-1.43 2.003.202-1.157-.275-1.635-1.431-1.43M421.587 79.617c-.583.371-.52 1.388-1.718 1.146-.834-.678.916-2.16 1.718-1.146M432.75 76.47c-.883 2.454-2.734 3.943-3.72 6.297-1.105-.04-2.513.222-2.862-.574 2.193-1.909 3.021-5.184 6.583-5.724M424.45 82.481c-.231-1.708 2.493-4.344 4.007-4.294-1.58 1.186-2.23 3.304-4.006 4.294M391.247 73.607c.105-.771-.264-3.486.285-2.864-.107.77.263 3.485-.285 2.864M392.39 113.68c-.557-2.973-.167-7.396.86-9.732.817 2.308 1.283 8.548-.86 9.732zm.574-14.884c-.57-2.075-2.101-6.89-.287-8.588.378 2.159 2.148 6.996.287 8.588zm-1.147 6.537c-.628 2.667 1.442 8.883-1.43 9.732-.778-2.072-.208-7.065.573-9.732h.857zm-.857-5.318c-1.067-1.936-.936-5.348-.573-8.015h.86c-.287 2.667 1.468 6.675-.287 8.015zm-2.004.498c-.624-1.306-.845-6.87.572-8.014.02 2.081 1.225 6.901-.572 8.014zm-2.29 0c-.79-1.561-1.369-7.59.573-8.301.17 2.096 1.094 7.121-.572 8.301zm-2.577.859c-.312-2.317-.213-6.699 1.146-8.301.208 2.313 1.156 7.57-1.146 8.301zm-.572 4.007c1.01 2.436.496 7.293-.286 9.733-2.203-1.41-1.112-8.235.286-9.733zm-1.145-4.007c-.967-1.825-.973-7.132.859-8.013.084 1.937.676 6.749-.859 8.013zm-1.43-.287c-.92.252-.594-.741-1.146-.858.167.93-.195 1.332-.285 2.004-2.564-1.404-.42-6.511 0-8.588 1.24.785.658-.755 2.002-.572-.274 2.588.615 6.338-.572 8.014zm1.717 20.898c2.06.844 1.17 8.02 0 9.158-1.278-2.138-.384-6.8 0-9.158zm2.576-15.316h.858c-.229 2.666.546 6.272-.572 8.014-2.422-1.06-.3-6.681-.286-8.014zm0 24.685c-1-2.319-.631-8.685.572-10.019h.572c-.171 2.667 1.048 8.246-1.144 10.019zm1.432 4.37c-.478 2.767.368 6.857-2.006 7.729-.076-2.211-.101-6.756 2.006-7.73zm2.002-30.055c.775 2.278 1.295 8.29-.86 9.445-.698-2.023-.64-7.765.86-9.445zm-1.144 24.33c.27-3.164-.188-7.058 1.431-8.874 1.445.81-.232 3.609.572 4.58.472-1.627.267-3.932 1.719-4.58.613 3.218-.828 6.785-1.432 9.732-1.448-.178-1.082-.868-2.29-.858zm7.728-32.346c-1.144-2.291-.278-6.592-2.289-8.015-3.763.443-8.09 2.039-12.023.572-1.952 2.792-4.524 9.868-1.718 13.74-.512.037-.603-.35-1.144-.287-.219 2.702.37 4.592.285 7.156-.22.914.35 2.175.287.574.018-2.462.889-4.071 2.29-5.152 1.731 1.209.7 6.442.572 8.588-1.549-.564-1.492 1.978-2.29.857-1.079 3.563.964 6.477.86 10.019.644.532-.203-2.86 1.145-2.576 1.187.854 1.095 6.964-.573 7.728.63 2.424-.271 6.378 1.717 7.442.1-1.046.03-2.26 1.145-2.289.706 4.224-.28 8.413.859 12.023 1.728-1.231 1.948-3.97 2.863-6.012-2.002-1.13.468-4.746.858-6.298.755-.085.939.396.859 1.146 2.71-4.656 1.61-9.628 3.435-15.172 2.381-1.435 1.994-5.638 2.862-8.587-.568.004-.364.78-1.145.572-.647-3.063 1.11-6.117 1.145-9.445.896-.134.807.718 1.146 1.144.852-1.152-.098-2.944-.574-3.72 1.527-.834.734-4.284.574-6.011-.607.441.064 2.163-1.146 2.003M394.967 71.603c.342 2.521 1.429 5.818.572 8.588-1.126-1.564-.255-6.147-.572-8.588M392.964 59.867c.875-.364.841-1.639 1.717-2.003-.218.843-1.194 2.415-1.717 2.003M389.815 68.74h2.002c-.245.708-.856 1.05-1.717 1.145.023-.498-.064-.89-.285-1.145M404.985 69.313c-.614 1.87-2.481 4.003-3.434 4.58 1.277-1.394 1.654-3.688 3.434-4.58M391.532 66.45c.128.826 1.232.678 1.432 1.431-1.068-.176-4.133.27-3.436 0 .91-.233 1.455-.834 2.004-1.43M390.673 62.443c.366-.016.398-.367.859-.286.504 1.118 1.405 1.839 1.432 3.435-1.37-.444-2.072-1.555-2.29-3.15M401.55 73.035c-1.766 1.668-2.418 4.45-4.294 6.01.147-3.1 3.084-4.929 4.295-6.01M451.072 67.023c.399-5.331 8.033-11.892 14.31-7.728.254 2.733-.435 4.524-1.717 5.724-3.3.424-8.262 1.66-12.593 2.004" fill="#fff" transform="matrix(.41998 0 0 .41998 -121.474 345.538)"/><path d="M394.681 88.205c1.458-.641 1.903-2.293 2.291-4.008 1.93-2.076 5.528-2.484 9.159-2.861-1.016 4.773-6.99 7.424-11.45 6.87M441.912 68.455c-.755.581-1.69.984-2.577 1.43.008-1.148 1.872-1.929 1.144-2.862-1.771 3.805-4.095 2.51-7.728 2.004-3.42-.478-6.418.794-9.446 1.145-5.69 5.664-14.245 9.99-23.472 11.164 18.174-8.543 33.223-21.737 57.535-23.187-7.441 1.146-4.848 12.326-15.456 10.306" fill="#fff" transform="matrix(.41998 0 0 .41998 -121.474 345.538)"/><path d="M377.188 111.777c-.596-3.825-.663-7.833-.161-11.596-.179-5.194.576-10.36 3.1-14.118.308-.46.685-.822 1.092-1.111-.894-1.123-1.556-2.428-1.852-3.616-.728-2.928-.436-6.17 1.013-8.77.468-2.614 1.81-4.538 4.527-4.65a5.148 5.148 0 012.412.475c.098-.066.184-.143.285-.206 1.173-.74 2.855-.677 3.876.32 4.588 4.468 5.364 12.072.761 16.846-.014.014-.03.024-.045.038a13.971 13.971 0 01-.644 1.616c.375.122.719.33.997.656a17.897 17.897 0 013.815 7.724c3.54 5.464 1.765 12.892.307 18.787-2.567 10.37-6.763 20.312-8.32 30.943-.576 3.921-6.1 3.044-6.544-.498-.308-2.472-.172-4.953.088-7.434-.014-.018-.031-.032-.044-.05-4.692-6.06-5.683-16.316-4.663-25.356" fill="#ffd745" transform="matrix(.41998 0 0 .41998 -121.474 345.538)"/><path d="M404.717 82.456a251.253 251.253 0 015.699-1.484c.124-.25.29-.49.523-.704 3.028-2.787 7.036-4.656 10.761-6.33 3.877-1.743 8.312-3.607 12.645-2.905 3.402.552 2.487 5.038-.422 5.543-2.116.368-4.071.985-5.954 1.725 7.115-.652 15.083-2.716 21.158-6.044 3.204-1.757 6.306 2.99 3.08 4.819-13.811 7.833-30.368 7.961-45.37 12.024-4.268 1.443-6.461-5.467-2.12-6.644M409.027 98.073c8.49 1.663 18.654-.208 25.958 5.179 2.584 1.904-.384 6.027-3.129 4.588-7.815-4.095-16.87-.804-24.7-4.379-3.021-1.38-1.281-6.005 1.87-5.388M333.987 64.915c5.89 2.749 11.952 4.616 18.11 6.77 3.768 1.32 9.264 2.864 11.53 6.547 1.234-1.073 3.006-1.232 4.62-.6 1.474.579 2.91 1.73 4.002 2.868.69.719 1.388 1.667 1.694 2.63.201.634.246 1.375.034 2.009.32-.959-.054.621-.124.892-.4 1.537-2.266 2.793-3.804 1.844-.064-.042-.132-.076-.196-.114a3.622 3.622 0 01-.957-.31c-.49-.327-.999-.612-1.516-.894-1.296-.704-2.592-1.208-3.792-2.096-.956-.708-1.384-1.942-1.36-3.144a1.723 1.723 0 01-.625-.358c-3.539-3.168-8.2-4.562-12.595-6.152-5.51-1.992-10.63-5.831-15.44-9.055-.49-.328-.144-1.1.419-.837M347.857 93.553c1.138-.338 2.152-1.186 3.366-1.094 2.058.156 5.094 1.022 7.037.101 3.405-1.615 8.337-.86 12.061-1.539 3.043-.553 6.92 2.308 4.864 5.686-1.026 1.686-1.676 2.817-3.614 3.432-.576.181-1.363.113-1.899-.254a26.765 26.765 0 00-.263-.153c-.073-.041-.132-.09-.2-.133-2.641.358-5.32.134-7.888-.782-1.358-.486-5.162-2.449-6.284-2.617-2.728-.408-4.562-.987-7.132-1.741-.428-.126-.529-.762-.048-.906" fill="#c4f5ff" transform="matrix(.41998 0 0 .41998 -121.474 345.538)"/><path d="M377.164 101.032c-.192-5.49 1.328-11.56 7.156-12.065 3.107-.27 3.195 4.257.248 4.733-3.345.541.312 9.373.353 11.445.026 1.21-.525 2.176-1.328 2.826l-.009.189c.048 3.733-.15 7.533.111 10.979.575 7.58 2.157 15.556 1.15 23.128l-.04-.003c-.262 1.148-1.958 1.484-2.505.136-2.862-7.052-3.849-15.4-4.818-22.936-.72-5.606-1.899-12.687-.318-18.432M379.43 71.715c1.334-2.942 5.462-2.882 7.149-.376 1.477 2.196.71 5.058 1.49 7.409.263.79.928 1.07 1.674 1.204 1.213.22 2.154.337 3.272.907 1.044.532.838 1.958-.183 2.357-3.37 1.315-6.677 2.44-9.892-.033-3.135-2.411-5.205-7.735-3.51-11.468" fill="#ffc266" transform="matrix(.41998 0 0 .41998 -121.474 345.538)"/><path d="M389.957 91.148c3.663-.42 5.563 4.25 6.666 6.928 1.132 2.752 2.026 6.65-.428 9.016-2.063 1.99-5.184 2.41-7.428.39-1.42-1.28-2.091-3.589-1.551-5.498-.009-.108-.012-.217-.02-.324a17.896 17.896 0 00-.179-1.41c-.053-.262-.026-.523-.085-.783-.132-.596-.265-1.191-.265-1.792v.002c0-.244-.187-.485-.246-.726-.665-2.73.494-5.456 3.536-5.803M388.028 72.536c.004-.048.05-.753.03-.255.022-.528.173-.929.347-1.412.482-1.342 2.239-1.312 3.176-.601 1.327 1.008 1.571 3.05.844 4.463-.73 1.418-3.016 1.729-3.85.202-.43-.782-.659-1.501-.547-2.397" fill="#fff" transform="matrix(.41998 0 0 .41998 -121.474 345.538)"/><path d="M392.677 90.208c.378 2.159 2.148 6.996.287 8.588-.57-2.075-2.101-6.89-.287-8.588M390.96 100.015c-1.067-1.936-.936-5.348-.573-8.015h.86c-.287 2.667 1.468 6.675-.287 8.015M386.667 100.513c-.791-1.561-1.37-7.59.572-8.301.17 2.096 1.094 7.121-.572 8.301" fill="#381400" transform="matrix(.41998 0 0 .41998 -121.474 345.538)"/><path d="M388.956 100.513c-.624-1.306-.845-6.87.572-8.014.02 2.081 1.225 6.901-.572 8.014M384.09 101.372c-.313-2.317-.214-6.699 1.145-8.301.208 2.313 1.156 7.57-1.146 8.301M380.941 101.085c-.918.252-.593-.741-1.145-.858.167.93-.195 1.332-.285 2.004-2.564-1.404-.42-6.511 0-8.588 1.24.785.658-.755 2.002-.572-.274 2.588.615 6.338-.572 8.014" fill="#381400" transform="matrix(.41998 0 0 .41998 -121.474 345.538)"/><path d="M383.23 93.359c.085 1.937.677 6.749-.858 8.013-.967-1.825-.973-7.132.859-8.013M392.39 113.68c-.557-2.973-.167-7.396.86-9.732.817 2.308 1.283 8.548-.86 9.732" fill="#381400" transform="matrix(.41998 0 0 .41998 -121.474 345.538)"/><path d="M390.387 115.065c-.778-2.072-.208-7.065.573-9.732h.857c-.628 2.667 1.442 8.883-1.43 9.732M383.23 115.112c-2.202-1.41-1.111-8.235.287-9.733 1.01 2.436.496 7.293-.286 9.733M387.81 115.112c-.7-2.023-.64-7.765.86-9.445.774 2.278 1.294 8.29-.86 9.445" fill="#381400" transform="matrix(.41998 0 0 .41998 -121.474 345.538)"/><path d="M386.093 106.667c-.229 2.666.546 6.272-.572 8.014-2.422-1.06-.3-6.681-.286-8.014h.858M385.235 131.352c-1-2.319-.631-8.685.572-10.019h.572c-.171 2.667 1.048 8.246-1.144 10.019M389.528 125.703c.472-1.627.267-3.932 1.719-4.58.613 3.218-.828 6.785-1.432 9.732-1.448-.178-1.082-.868-2.29-.858.27-3.164-.188-7.058 1.431-8.874 1.445.81-.232 3.609.572 4.58M382.659 131.141c-1.278-2.138-.384-6.8 0-9.158 2.06.844 1.17 8.02 0 9.158M406.417 125.416c-1.668.237-1.288-1.575-1.718-2.576 1.622-.19 1.682 1.18 1.718 2.576M386.667 135.721c-.478 2.768.368 6.858-2.006 7.73-.076-2.211-.101-6.756 2.006-7.73M409.565 89.064c-1.705 1.376-4.698-.545-6.01-1.432 1.317-1.257 3.27.875 5.152.86.064.412.854.099.858.572" fill="#381400" transform="matrix(.41998 0 0 .41998 -121.474 345.538)"/><path d="M463.665 65.019c-3.3.424-8.262 1.66-12.593 2.004.399-5.331 8.033-11.892 14.31-7.728.254 2.733-.435 4.524-1.717 5.724zm-6.297-6.87c-7.441 1.146-4.848 12.326-15.456 10.306-.755.581-1.69.984-2.577 1.43.008-1.148 1.872-1.929 1.144-2.862-1.771 3.805-4.095 2.51-7.728 2.004-3.42-.478-6.418.794-9.446 1.145-5.69 5.664-14.245 9.99-23.472 11.164 18.174-8.543 33.223-21.737 57.535-23.187zm-51.237 23.187c-1.016 4.773-6.99 7.424-11.45 6.87 1.458-.642 1.903-2.294 2.291-4.009 1.93-2.076 5.528-2.484 9.159-2.861zm-8.875-2.29c.147-3.1 3.084-4.93 4.295-6.011-1.767 1.668-2.419 4.45-4.295 6.01zm4.295-5.153c1.277-1.394 1.654-3.688 3.434-4.58-.614 1.87-2.481 4.003-3.434 4.58zm-6.012 6.298c-1.126-1.564-.255-6.147-.572-8.588.342 2.521 1.429 5.818.572 8.588zm-.286 17.46c1.21.16.539-1.562 1.146-2.003.16 1.727.953 5.177-.574 6.01.476.777 1.426 2.569.574 3.72-.339-.425-.25-1.277-1.146-1.143-.034 3.328-1.792 6.382-1.145 9.445.781.208.577-.568 1.145-.572-.868 2.95-.481 7.152-2.862 8.587-1.824 5.544-.724 10.516-3.435 15.172.08-.75-.104-1.231-.859-1.146-.39 1.552-2.86 5.168-.858 6.298-.915 2.042-1.135 4.781-2.863 6.012-1.139-3.61-.153-7.799-.859-12.023-1.114.03-1.045 1.243-1.145 2.29-1.988-1.065-1.087-5.02-1.717-7.443 1.668-.764 1.76-6.874.573-7.728-1.348-.284-.501 3.108-1.145 2.576.104-3.542-1.939-6.456-.86-10.019.798 1.121.741-1.421 2.29-.857.128-2.146 1.159-7.379-.572-8.588-1.401 1.081-2.272 2.69-2.29 5.152.062 1.601-.507.34-.287-.574.085-2.564-.504-4.454-.285-7.156.541-.064.632.324 1.144.287-2.806-3.872-.234-10.948 1.718-13.74 3.934 1.467 8.26-.13 12.023-.572 2.01 1.423 1.145 5.724 2.29 8.015zm-2.289-37.784c.875-.364.841-1.639 1.717-2.003-.218.843-1.194 2.415-1.717 2.003zm-1.432 2.29c.504 1.118 1.405 1.839 1.432 3.435-1.37-.444-2.072-1.555-2.29-3.15.365-.015.397-.366.858-.285zm-2.004 5.724c.91-.233 1.455-.834 2.004-1.43.128.825 1.232.677 1.432 1.43-1.068-.176-4.133.27-3.436 0zm.572 2.004c.023-.498-.064-.89-.285-1.145h2.002c-.245.708-.856 1.05-1.717 1.145zm1.147 3.722c.105-.771-.264-3.486.285-2.864-.107.77.263 3.485-.285 2.864zm-.287 12.596c1.881-3.522 1.604-6.671.287-10.594 1.548.215.75-1.918 2.002-2.002.027 2.221-.762 3.626-.858 5.724 2.38.933.762 4.745-.286 6.872.99.225 1.208-.32 1.716-.574-.314.83-.353 1.935-1.43 2.003.202-1.157-.275-1.635-1.431-1.43zm-1.145-12.024c-.062 4.488 2.208 7.638-.287 10.877.864-3.9-1.304-7.504.287-10.877zM388 81.908v4.007c0 .872 1.656-.612 1.455.573-.242.617-1.231.461-1.694.859.188-1.722.239-4.195.239-5.439zm-.475-6.299c-1.077-1.857 1.004-6.336-.858-6.296.462-.397.702-1.013 1.716-.858 1.374 2.218.044 5.438-.858 7.154zm-1.146-5.437c-.83 2.844-.026 6.247 1.146 8.015-1.617 1.834-.716 7.334-1.432 9.16-1.99-2.927.66-7.38-.286-10.592-.195-.66-.804-.786-.858-1.431-.17-2.028.456-3.932 1.43-5.152zm-.572-1.145c-.61.525-1.823-.082-2.29-.572.432-.35 1.894.009 2.29.572zm-3.435-3.722c-.617-1.47.373-3.568 2.29-3.434.98 1.041-.093 3.793-2.29 3.434zM380 76.183c0-.016-.735.221-.86.572-.968 2.848.86-2.558.86-3.148v2.576zm-1.921 9.16c.093-.69-.244-3.272.285-2.576-.092.689.245 3.27-.285 2.576zm19.177 5.438c1.45-.02 2.372.492 4.008.286.435.805.272 2.209.573 3.149-2.278.561-1.48-1.955-2.577-2.576-.91.436.603 1.963-.572 1.719-1.26-.078-.973-1.7-1.432-2.578zm1.717 3.722c.771 1.185 1.242 5.566.86 6.01.118-2.073-1.993-4.814-.86-6.01zm1.432 7.156c-.068 1.213.264 2.026.572 2.862-1.781.374-.792-3.024-.572-2.862zm.859 3.148c1.376-2.647-.639-6.78-.859-9.732 2.559.022 1.9 3.358 2.29 5.438.429 2.287.584 5.047 2.29 5.726-.597-3.791-1.57-7.207-2.004-11.164 2.552.012 2.144 3.576 2.578 5.725.478 2.385.508 5.452 2.289 6.297-.656-4.114-1.715-7.825-2.29-12.022 2.889-.255 2.163 3.381 2.577 5.438.473 2.362.937 4.98 2.289 6.012-.03-3.408-1.844-6.549-1.432-9.445 1.244 3.432 1.977 7.375 4.295 9.735.048-.43-.102-1.056.286-1.143.526 1.57.355 3.847 2.29 4.01-1.031-4.597-4.226-7.022-4.58-12.298 1.01.04 1.28.839 2.29.879.552 3.836 1.322 7.494 2.862 10.344-.079-3.928-1.284-7.274-2.004-9.94h2.004c.838 2.666.952 5.918 2.862 7.442-.568-2.485-1.35-4.776-1.717-7.442h2.004c1.005 2.666 1.036 5.564 2.863 7.077-.524-2.625-1.426-4.95-2.004-7.52 2.104-1.481 4.526.512 6.584.857 1.341 2.858 4.038 4.359 3.434 9.162.935.972 1.243 2.573 3.148 2.574-.153-1.182-1.822-1.701-2.289-3.148-.29-.894.148-1.972 0-2.864-.432-2.598-3.11-4.052-2.576-5.438 1.593-.7 1.815.577 3.148.857 8.23.357 12.148 5.024 17.747 8.013-.53-2.25-3.226-3.554-5.152-4.585-3.648-1.952-6.938-4.467-12.308-4.304-.9-.245-1.207-1.101-2.291-1.165-4.1.56-5.833-2.454-9.732-1.183-.75-1.73-.432-4.61-2.004-5.519-.009 2.158 1.424 4.519.86 5.852h-1.432c-.864-1.333-1.044-3.95-1.432-6.138 16.128-2.064 29.792 4.802 35.495 15.902-4.354 2.92-10.842 5.378-18.034 4.294-4.104-.619-7.8-4.47-11.162-3.148.296 1.897 2.065 2.324 1.717 4.865-9.88 2.852-17.905-3.959-22.9-8.301zM415.291 92c.014 1.333.885 3.724.857 6.136-.992.23-1.099-.588-2.003-.448-.084-2.207-.705-4.355-.858-5.688h2.004zM413 89.492c1.739-2.937 3.619-5.492 6.012-8.159h.572c-.39 2.667-1.985 2.739-2.29 4.724 1.957-.621 2.078-4.13 4.58-3.29-.569 1.536-2.774 2.945-2.577 4.293 1.82-.948 2.268-3.267 4.58-3.721-.026 1.317-2.137 2.049-1.43 3.149 1.297-.827 1.516-2.493 3.148-2.863 1.242-.282 1.62.691 2.862.859-.026-.004.492-.556.859-.573 2.4-.11 5.347 1.386 6.87 2.292-7.349 1.469-15.298 3.26-23.186 3.289zm24.904-3.863c-2.372-1.35-5.27-2.173-8.301-2.862 2.244-1.383 2.317-4.935 5.152-5.726.918.902-1.219 2.275-.572 2.863.781-1.317 1.997-3.587 4.008-2.004-.164.259-1.182 1.055-.574 1.145.194-.664.952-.766 1.144-1.43 7.255-.763 14.331-1.7 20.039-4.008-4.772 6.2-12.325 9.621-20.896 12.022zm6.296-15.744c-2.487 2.092-2.8 6.36-7.156 6.584 1.97-2.421 2.97-7.336 7.156-6.584zm-4.292.858c-1.372 1.702-2.768 6.046-5.153 4.866 1.678-1.66 2.374-4.304 5.153-4.866zm-3.721 1.718c-1.32.311-1.558 3.206-2.864 2.576.693-.934 1.817-2.944 2.864-2.576zm-6.299-2.576c2.163-.158 3.916.094 4.867 1.146-2.242 1.765-3.248 4.765-6.298 5.724 1.031-2.215 3.884-4.128 4.008-6.298-3.114 1.944-4.224 7.416-8.301 7.443 2.08-2.5 4.063-5.099 5.724-8.015zm-8.301 11.736c.352-1.557 1.486-2.33 3.149-2.576-.69 1.196-1.285 3.44-3.15 2.576zm11.164-5.152c-.884 2.455-2.735 3.944-3.722 6.298-1.104-.04-2.512.222-2.861-.574 2.193-1.909 3.021-5.184 6.583-5.724zm-8.3 6.012c-.232-1.708 2.492-4.344 4.006-4.294-1.58 1.186-2.23 3.304-4.006 4.294zm-2.864-2.864c-.583.371-.52 1.388-1.718 1.146-.834-.678.916-2.16 1.718-1.146zm-9.159-1.145c6.833-1.181 9.003-8.552 16.601-8.015-2.957 1.908-3.89 7.367-7.726 7.443.948-1.437 2.389-2.38 2.861-4.293-1.39.404-.687.702-1.145-.287-2.362 1.265-2.872 4.38-5.439 5.439-.803.122.719-1.067-.285-1.144-1.003-.05-.903 1.006-1.432 1.43-.739-.597-2.774.103-3.435-.573zm-2.29 1.432c1.467-.44 3.462-.355 5.153-.573.086 1.764-4.451 1.449-5.152.573zm0 15.457c-1.88-.22-2.286-1.912-2.577-3.721 1.804.087 3.39-.045 4.867-.287-.059 2.062.63 3.378.572 5.439-2.708.323-1.71-3.06-3.148-4.007.059.896-.193 2.102.287 2.576zm-2.862-1.145c-1.063.203-1.23-.49-2.29-.287.017-1.065-.29-1.81-.573-2.576 1.043-.088 1.863.046 2.576.287-.088 1.043.044 1.863.287 2.576zm-8.873-5.152c6.604-.05 6.521-9.276 13.453-7.156-1.533 1.523-4.05 3.579-4.295 5.439 2.199-1.619 3.491-4.144 5.726-5.726-1.224 2.594-3.858 3.778-4.58 6.871 2.786-1.699 3.529-5.44 6.869-6.584-.25 2.137-4.273 4.5-4.293 6.87 1.425-.109 1.922-2.649 2.862-2.29-.778.843-1.541 1.703-1.717 3.148-4.29.48-10.107.247-14.025-.572zM402.409 92h1.431c.013 0 .484 1.264.287 2.415-.69-.118-.623.361-1.432.124.202-1.25-.487-2.539-.286-2.539zm57.25-18.965c-5.84 1.793-12.704 2.561-19.464 3.434.652-2.021 3.472-4.35 4.578-6.87 5.255-2.188 13.738-2.674 18.892-4.007-1.276 2.54-2.486 5.145-4.006 7.443zm-82.726 16.029c-.734.139-1.553-1.961-.572-1.717.095.669.344 1.181.572 1.717zm-.572-5.439c-.137-.737-1.154-2.068-.572-2.576.444.43 1.462 1.76.572 2.576zm.286 9.446c-.396-.844-1.322-1.159-1.718-2.004 1.491-.428 2.467 1.144 1.718 2.004zm-1.718-3.722c-.214-.521-1.562-2.406-.286-2.576.026.711 1.537 2.435.286 2.576zm-.572-3.72c-1.162.007-1.432-2.37-1.145-2.862.833.502 1.353 1.318 1.145 2.862zm-.285-3.436c-1.912.094-2.116-3.029-1.717-4.293 1.272.73 1.433 2.573 1.717 4.293zm-1.717 2.863c-1.528-.19-1.351-2.084-1.718-3.435 1.687.03 1.464 1.971 1.718 3.435zm-.86-4.293c-2.202-.278-1.283-3.679-2.576-4.867-.408 1.47.788 2.82 0 3.721-2.002-1.053-1.36-4.745-2.863-6.297-.003 1.632 1.212 3.55.573 4.867-1.324-1.352-1.91-4.956-2.004-6.584 2.422 2.921 7.267 3.418 6.87 9.16zm-7.73-9.447c.62 1.385.54 3.47 1.147 4.867-3.501-1.224-5.464-6.223-10.305-4.294-5.007-2.918-9.196-8.558-14.599-10.592-2.212-.83-4.82-.922-7.156-2.002-1.573-.728-2.487-2.239-4.293-2.576-5.231-.978-11.422.19-16.031-1.432 23.457-2.18 39.2 5.837 51.237 16.029zm-44.94-14.025c-1.488.062-2.528 1.465-4.008 2.004-1.268.46-3.34-.1-4.006 1.43 3.368.856 5.969-1.452 8.301-2.576 2.944 1.159 7.48.726 7.156 5.152-4.49.566-7.887 2.227-12.021 3.15-1.794-2.5-7.142-9.392-2.579-11.164-.217 2.132 4.863 1.434 7.157 2.004zm-3.434 10.018c4.553-.02 9.182-4.674 12.309-3.434 4.939 1.956 9.979 5.54 14.599 7.441-4.774.053-10.167 2.467-14.599 3.148-6.763 1.041-9.183-3.261-12.31-7.155zm23.758 1.718c-1.072-.536-1.862-1.714-2.862-2.29-2.895-1.668-5.943-2.601-8.874-4.008-.564-.674-.564-1.916-.858-2.862-1.107-1.375-3.203-1.758-5.152-2.29 2.326.314 5.424-.494 7.729.287 1.143.385 2.063 1.785 3.148 2.29 2.743 1.273 6.15 1.267 8.873 2.575 1.163.559 2.215 1.954 3.434 2.863 2.816 2.099 5.276 3.123 6.298 5.724-3.617-2.1-8.368-.607-11.736-2.29zm19.751 5.725c.424.053.263.692.287 1.144-2.471-.105-4.084-1.07-4.867-2.861 1.553.312 1.904-.579 3.15-.574 1.07 1.41 3.98.982 3.72 3.722-1.8.737-1.56-2.05-2.29-1.431zm-34.923.857c10.328.123 18.895-6.881 28.626-2.861.953 1.421 1.974 2.957 3.721 3.721 1.285.562 3.397-.202 3.721 1.718-.23-1.58.439-.92 1.431-.859.69 1.601 1.032 3.547 1.432 5.439-4.203 3.121-11.99 2.426-18.035 2.289-6.17-3.944-15.456-4.77-20.896-9.447zm31.774 14.886c-.05 1.584 2.633 1.938 2.29 2.864-2.957-1.599-5.876.458-9.16.284-.677-2.886-5.34-2.764-8.014-1.718-5.292 2.074-11.198 8.842-16.028 10.306-.48-5.468 3.777-8.003 8.013-10.591 7.021-4.292 15.145-3.553 22.899-1.145zm-1.718 3.148c.906-.044 1.728-.01 2.004.573-.694.595-1.876.715-2.004-.573zm-28.622 9.733c6.494-2.76 10.44-8.07 17.173-10.59-.453 2.22-5.144 4.202-4.293 7.727a594.38 594.38 0 006.296-8.014c3.572.149 4.114 4.012 8.589 1.717-.197.77.59.553.857.859-.83 2.605-2.77 4.098-4.58 5.725 3.636.009 3.86-3.392 6.012-4.867 2.144 2.246 5.676 3.103 7.443 5.726-.941 2.421-5.932 2.244-6.299 4.293 3.719-.241 6.13-3.159 8.016-4.293-.836-.592-.357-1.678 0-2.578 4.118-.349 6.239 3.651 9.16 5.44-5.466 4.604-20.522 9.586-28.338 3.722-.415-2.134.945-2.491.858-4.295-4.828-.483-16.4 4.716-20.894-.572zm48.374 3.435c.539-.152 1.324-1.508 1.718-.859-.53.043-.176.97-.574 1.145-.428-.049-1.056.102-1.144-.286zm1.718-3.15c-3.05-1.434-5.447-3.522-7.728-5.724.92.063 1.209-.506 2.289-.286 1.347 2.298 6.113 2.638 5.439 6.01zm.286-2.861c-1.561-1.493-3.646-2.461-5.152-4.008 1.604.15 5.056 2.356 5.152 4.008zm0-1.719c-1.402-1.745-3.602-2.693-5.152-4.293 2.967-.008 5.762 1.677 5.152 4.293zm.287-5.152c-1.784-.09-3.221-1.848-3.15-2.862 1.707.298 2.36 1.649 3.15 2.862zm-6.012-9.732c-.988-.418-2.412-3.214-1.145-4.006.764.77 1.63 2.94 1.145 4.006zm-2.29-1.43c-.949-.283-2.235-2.991-.858-3.722.528.815 1.359 2.828.859 3.722zm2.003 6.566h-1.43c.181-2.666-1.427-4.102-.86-5.724 1.653 1.019 1.717 3.058 2.29 5.724zm-12.594 1.448c2.933.12 4.576 1.531 6.297 2.862-3.31.257-4.408-1.698-6.297-2.862zm11.45 6.298c-2.574 1-3.956-1.286-5.438-2.291 2.881-.304 3.913 1.239 5.438 2.29zm2.004-.859c-1.272.553-2.168-.841-3.15-1.432 1.788-.261 2.38.673 3.15 1.432zm-3.436-2.577c-2.477.092-3.517-1.252-4.865-2.29 2.676-.29 3.681 1.09 4.865 2.29zm3.436-2.003c1.468.057 1.8 1.252 2.575 2.003-1.095-.431-1.867-1.184-2.575-2.003zm.571 2.003c-2.473.281-3.64-.747-4.579-2.003 2.556-.361 3.74.648 4.579 2.003zm-7.728 6.584c-2.555-1.547-5.375-2.83-7.156-5.152 3.872-2.083 6.397 1.429 8.873 2.576-.216 1.216-2.001.862-1.717 2.576zm4.295-10.878c-8.41-.465-16.462-1.286-23.472-3.146 6.516-.075 13.949.845 18.605-2.292.959.092.288 1.81 1.144 2.004.392-.848-.167-1.246 0-2.576 3.839-.594 2.612 3.876 3.723 6.01zm-5.727-14.025c.259.504 1.055.473 1.147 1.145-.843.243-1.862-.776-1.147-1.145zm3.721 7.343h-2.289c.31-2.667-1.924-4.146-.572-5.2.643.502 1.61.634 2.29 1.098-.29 1.527-.135 2.768.571 4.102zm6.299 3.24c1.157.56 1.09 2.093 1.717 3.426h-3.434c.136-1.333-.568-2.858-.86-4.285 2.168.027 1.309 3.088 2.577 4.016.652-.833-.72-2.392 0-3.157zm4.008 10.598c-.13-.825-1.232-.677-1.433-1.43.552.23 2.372.657 1.433 1.43zm88.45-28.909c1.711-3.55 4.97-9.965-1.147-11.164-2.434-.477-6.122-.423-9.159 0-9.748 1.359-19.705 4.568-29.484 10.019-4.29 2.392-8.8 4.732-12.88 6.869-4.59 2.401-10.079 4.272-12.883 6.87-.773.718-1.36 1.05-1.43 2.577-.652-1.478 1.234-2.839 2.004-3.722 2.672-3.066 5.46-6.605 7.442-10.59-.17-1.072-.345-2.138-1.43-2.291 1.116-3.56.017-9.345-.287-12.595-1.797 1.528-.91 7.647-.859 12.023-1.344 4.285-4.597 6.663-7.157 9.732-.479-2.573-.91-5.195-2.575-6.584 1.362-1.725 1.204-6.352-.573-7.443 2.047-2.348 3.913-7.997 3.435-12.594-.123-1.178-.256-3.564-2.004-3.72 2.086 6.812-1.8 11.44-4.579 15.17-2.708.035-5.885-.852-8.016.287-3.53-3.356-2.084-11.113-2.003-16.03-1.132 1.487-2.18 4.571-2.577 7.442-.488 3.53-.073 7.953 2.004 9.445-1.96 1.788-.824 5.059 1.145 6.012-1.045 2.294-2.238 4.44-3.434 6.584-4.567-4.305-9.87-10.614-8.302-19.178-1.797.298-1.11-1.443-3.148-1.431-1.05.813-.629 3.187.572 3.435-.306 4.504 2.18 6.216 1.718 10.877 3.181 2.828 5.656 6.365 8.588 9.445-.532.615-.195 2.098-.287 3.15-16.857-14.06-32.795-29.035-66.123-26.622-.864.76-1.98 1.264-2.576 2.291-.51 6.043 3.155 7.913 4.579 12.021 4.281 2.871 7.012 7.415 11.45 10.306 4.951 3.222 11.293 4.23 17.175 6.869.092.77.059 1.379 1.146 1.717-6.712.755-14.726 4.5-18.32 9.16-1.566 2.028-2.712 6.903-.287 9.446 4.22 4.421 12.77 1.542 19.179.573.173 11.927 24.396 5.772 29.482 1.43.232-.053.287-.286.574-.285-2.85 2.971-2.922 8.719-5.152 12.308-.202 1.062 1.224.495 1.43 1.146-.04.473-1.193-.299-2.002 0-.424 1.58-1.74 2.269-1.719 4.294 2.405-.742 2.57-3.726 5.152-4.292.35-1.59-1.312-1.165-2.004-1.714 4.187-1.252 4.425-6.447 6.585-9.727-.14 8.477 1.767 16.577 2.575 24.63.701 6.973 1.227 14.377 6.87 16.627 3.451-5.724 5.766-12.558 7.73-19.7a207.113 207.113 0 004.865-22.514c1.382 5.016 3.986 9.178 4.866 14.512h2.004c.565 0-.07-1.796.573-1.918.023-1.07-1.124-1.176-2.004-1.344.835-5.046-2.684-8.181-3.435-12.594 3.248 2.176 11.211 8.174 17.747 9.16 3.017.454 7.11-.059 8.301-2.004-.016-1.32.127-2.798-.286-3.722 4.161 1.746 7.657 3.432 13.74 2.863 5.322-.499 13.112-2.575 13.74-5.725.509-2.552-2.57-6.036-4.008-7.443-5.087-4.97-13.559-8.064-21.468-10.017 15.785-2.856 30.345-8.694 36.926-22.327" fill="#381400" transform="matrix(.41998 0 0 .41998 -121.474 345.538)"/></g><use xlink:href="#a" transform="translate(431.313 -358.022)" width="100%" height="100%"/><use xlink:href="#a" transform="translate(2.05 -39.636)" width="100%" height="100%"/><use xlink:href="#a" transform="translate(51.253 2.05)" width="100%" height="100%"/><use xlink:href="#a" transform="translate(48.457 -33.568)" width="100%" height="100%"/><use xlink:href="#a" transform="translate(32.436 -65.335)" width="100%" height="100%"/><use xlink:href="#a" transform="translate(90.888 -2.733)" width="100%" height="100%"/><use xlink:href="#a" transform="translate(88.155 -43.052)" width="100%" height="100%"/><use xlink:href="#a" transform="translate(192.027 -6.834)" width="100%" height="100%"/><use xlink:href="#a" transform="translate(242.114 -4.017)" width="100%" height="100%"/><use xlink:href="#a" transform="translate(292.683 -.152)" width="100%" height="100%"/><use xlink:href="#a" transform="translate(337.585 -4.1)" width="100%" height="100%"/><use xlink:href="#a" transform="translate(209.63 -38.2)" width="100%" height="100%"/><use xlink:href="#a" transform="translate(257.7 -38)" width="100%" height="100%"/><use xlink:href="#a" transform="translate(305.052 -38.483)" width="100%" height="100%"/><use xlink:href="#a" transform="translate(353.303 -35.535)" width="100%" height="100%"/><use xlink:href="#a" transform="translate(520.729 -5.467)" width="100%" height="100%"/><use xlink:href="#a" transform="translate(485.877 -6.654)" width="100%" height="100%"/><use xlink:href="#a" transform="translate(445.558 -4.1)" width="100%" height="100%"/><use xlink:href="#a" transform="translate(439.408 -45.786)" width="100%" height="100%"/><use xlink:href="#a" transform="translate(522.096 -38.952)" width="100%" height="100%"/><use xlink:href="#a" transform="translate(521.412 -77.904)" width="100%" height="100%"/><use xlink:href="#a" transform="translate(482.577 -54.85)" width="100%" height="100%"/><use xlink:href="#a" transform="translate(451.708 -82.005)" width="100%" height="100%"/><use xlink:href="#a" transform="translate(2.05 -349.886)" width="100%" height="100%"/><use xlink:href="#a" transform="translate(53.303 -349.203)" width="100%" height="100%"/><use xlink:href="#a" transform="translate(105.24 -347.836)" width="100%" height="100%"/><use xlink:href="#a" transform="translate(27.335 -318.803)" width="100%" height="100%"/><use xlink:href="#a" transform="translate(75.17 -316.753)" width="100%" height="100%"/><use xlink:href="#a" transform="translate(-1.367 -290.619)" width="100%" height="100%"/><use xlink:href="#a" transform="translate(44.42 -287.885)" width="100%" height="100%"/><use xlink:href="#a" transform="translate(101.822 -290.619)" width="100%" height="100%"/><use xlink:href="#a" transform="translate(199.544 -352.62)" width="100%" height="100%"/><use xlink:href="#a" transform="translate(228.93 -320.887)" width="100%" height="100%"/><use xlink:href="#a" transform="translate(258.998 -343.052)" width="100%" height="100%"/><use xlink:href="#a" transform="translate(297.267 -356.036)" width="100%" height="100%"/><use xlink:href="#a" transform="translate(282.232 -313.37)" width="100%" height="100%"/><use xlink:href="#a" transform="translate(211.845 -292.186)" width="100%" height="100%"/><use xlink:href="#a" transform="translate(248.747 -294.92)" width="100%" height="100%"/><use xlink:href="#a" transform="translate(295.216 -288.769)" width="100%" height="100%"/><use xlink:href="#a" transform="translate(515.945 -353.303)" width="100%" height="100%"/><use xlink:href="#a" transform="translate(464.692 -343.736)" width="100%" height="100%"/><use xlink:href="#a" transform="translate(419.507 -321.805)" width="100%" height="100%"/><use xlink:href="#a" transform="translate(511.162 -312.3)" width="100%" height="100%"/><use xlink:href="#a" transform="translate(464.692 -302.05)" width="100%" height="100%"/><use xlink:href="#a" transform="translate(515.945 -275.399)" width="100%" height="100%"/><use xlink:href="#a" transform="translate(429.84 -273.349)" width="100%" height="100%"/><use xlink:href="#a" transform="translate(43.736 -211.162)" width="100%" height="100%"/><use xlink:href="#a" transform="translate(73.804 -183.827)" width="100%" height="100%"/><use xlink:href="#a" transform="translate(41.002 -157.859)" width="100%" height="100%"/><use xlink:href="#a" transform="translate(124.374 -205.011)" width="100%" height="100%"/><use xlink:href="#a" transform="translate(84.738 -155.125)" width="100%" height="100%"/><use xlink:href="#a" transform="translate(125.74 -152.392)" width="100%" height="100%"/><use xlink:href="#a" transform="translate(169.476 -189.294)" width="100%" height="100%"/><use xlink:href="#a" transform="translate(168.793 -159.909)" width="100%" height="100%"/><use xlink:href="#a" transform="translate(445.558 -196.81)" width="100%" height="100%"/><use xlink:href="#a" transform="translate(410.706 -170.843)" width="100%" height="100%"/><use xlink:href="#a" transform="translate(392.255 -207.062)" width="100%" height="100%"/><use xlink:href="#a" transform="translate(366.97 -155.809)" width="100%" height="100%"/><use xlink:href="#a" transform="translate(354.67 -185.194)" width="100%" height="100%"/><use xlink:href="#a" transform="translate(302.05 -149.658)" width="100%" height="100%"/><use xlink:href="#a" transform="translate(331.435 -220.046)" width="100%" height="100%"/><use xlink:href="#a" transform="translate(300 -183.827)" width="100%" height="100%"/></svg>