<svg xmlns="http://www.w3.org/2000/svg" xmlns:xlink="http://www.w3.org/1999/xlink" height="420" width="600"><g id="a" stroke-width=".245"><path d="M265.796 349.356c1.724-4.499 1.708-11.075 1.852-15.759.872 4.351 1.259 9.132 1.328 14.203-.628.995-2.204.945-3.18 1.556M264.967 358.62c-1.318.728-3.183 2.761-4.268 2.536 3.105-3.221 4.084-10.739 8.841-10.915-1.325 2.62-5.335 5.831-4.573 8.379M262.081 374.327c.471-.922 2.303-4.571 1.86-2.662-.597 2.602-1.828 5.451-3.864 8.075.295-1.876 1.184-3.79 2.004-5.413" fill="#fff" transform="matrix(.54462 0 0 .54462 -81.165 183.5)"/><path d="M258.305 354.137c2.882-6.017 3.151-14.929 7.879-18.893-1.092 6.061-4.979 10.959-5.672 16.252 3.259-3.537 4.028-9.836 6.597-14.135-.584 8.199-3.47 13.846-8.804 16.776M249.821 358.177c1.41-1.954 2.224-4.561 3.779-6.354-.75 2.441-1.796 6.484-3.779 6.354M251.4 361.017c.905-3.238 3.16-4.978 4.537-7.693-.72-.035-1.392 1.807-1.776.943 1.89-4.087 3.235-8.778 6.456-11.384-2.529 6.65-3.533 14.989-9.217 18.134M248.13 403.935c5.49 1.389 11.183 2.593 17.409 3.32.842-1.242 6.056-1.214 6.169.666-8.559 1.379-16.779-1.174-23.977-2.972-.358-.517-.324-.858.4-1.014M244.381 363.41c2.136-1.389 3.303-5.785 5.152-6.282-1.604 1.981-2.949 6.179-5.152 6.281M229.903 389.89c5.47 3.26 12.068 5.509 18.186 8.183-7.073-1.813-14.317-3.481-18.91-7.532.06-.418.146-.809.724-.652M269.772 405.41c-3.121-.36-6.052-.885-8.521-1.825 3.084.387 7.456-.385 8.521 1.824M258.65 387.25c9.077 3.178 18.249 6.275 29.607 7.398-7.337 6.392-22.628-1.91-31.901-3.04.617-1.617 1.827-2.577 2.293-4.359" fill="#fff" transform="matrix(.54462 0 0 .54462 -81.165 183.5)"/><path d="M254.897 399.805c3.456.167 7.472 1.564 10.636.9-3.388-2.189-10.477-1.042-13.245-3.792 5.008-1.053 12.981 4.18 19.196 2.036-5.29-1.897-12.427-2.126-17.352-4.353.745-2.313 2.888-1.113 4.523-.797 7.158 1.37 13.732 4.078 21.498 4.222-4.601 4.67-17.432 4.079-25.256 1.784M230.999 375.47c1.372.177 2.728.382 3.381 1.207-1.021.603-3.237.014-3.381-1.208M247.281 373.903c2.982-3.48 3.666-11.448 7.556-12.706-2.732 3.758-4.028 11.042-7.556 12.706M266.353 345.25c-.39.913-.952 3.529-1.537 3.02.68-.822.387-2.723 1.537-3.02M243.701 376.472c1.976-4.439 3.888-8.885 6.468-11.727-2.18 3.883-3.562 8.648-6.468 11.727M247.91 361.868c.725-.645 1.206-1.565 2.166-1.953-.09.842-.136 1.654.237 2.078-.952-.409-2.389.448-2.404-.125M259.543 363.508c-1.126.827-2.222 3.583-3.275 3.277 1.308-.618 1.195-4.726 3.275-3.277M247.041 365.273c-4.724 2.512-7.281 7.434-11.902 10.066-1.407-1.135-4.611-.651-5.03-2.676 1.406-.738 1.64.425 2.715.833 1.024-.805 2.644-.948 4.199-1.163.109-.646-.35-.78-.272-1.393 3.305-1.788 6.528-5.599 10.29-5.667M261.619 356.723c.853-1.607 1.62-5.226 3.342-4.651-1.505 1.113-1.804 3.573-3.342 4.65M235.744 383.645c4.797-4.852 13.693.2 19.179 2.376-.93 1.271-1.622 2.804-2.295 4.362-6.125-1.8-11.32-4.439-16.884-6.738M232.573 378.307c-.202.988-.805 1.528-1.806 1.629.036-.687.072-1.375.106-2.061.987-.236.864.532 1.7.432M245.144 401.713c-1.464-.32-2.847-.712-3.712-1.573 1.163.593 3.63.01 3.712 1.573M256.496 382.31c-3.801-1.49-8.765-1.934-11.855-4.062 3.6-3.777 7.93.341 12.34 1.33.091 1.19-.236 1.92-.485 2.733M255.701 384.337c-4.552-1.469-9.61-2.48-13.196-4.824 4.226 1.766 10.167 1.983 13.196 4.824M259.773 385.583c5.516-.127 12.223 3.017 19.435 4.114 4.23.644 8.924 1.366 12.737.319-11.118-1.512-21.409-3.259-30.706-6.081.345-.83.409-1.966 1.481-1.99 8.657 3.666 21.78 3.308 30.673 6.767-.496 2.723-2.408 3.877-4.069 5.304-7.203-.76-13.087-1.927-18.764-3.733-3.947-1.259-7.996-2.36-10.787-4.7M184.299 372.001c.405-2.941-.258-7.074 1.153-8.904 5.417.004 1.199 8.514-1.153 8.904M196.507 362.643c-.931.422-1.382 1.377-2.499 1.593.225-.981 1.612-2.552 2.499-1.593M227.468 370.456a4.862 4.862 0 00-1.81 1.63c-8.731-1.647-18.329-5.966-26.58-5.865 7.143 3.392 16.52 4.772 23.343 8.455-.725 2.924-3.422.603-4.832.092-7.589-2.753-15.254-5.335-23.432-6.737 1.7-1.624 3.591-3.042 5.406-4.542 9.872 1.81 19.329 3.992 27.905 6.967M217.903 382.027c.007 2.905-3.603 4.642-6.17 5.882 1.336-2.765 3.442-4.672 6.17-5.882M225.217 393.78c-.16 1.52-.513 2.821-1.878 3.007-.036-1.374.884-1.687.85-3.06.339.018.687.034 1.028.053M222.867 399.176c-1.212 3.36-3.567 8.204-6.307 8.632 2.597-2.33 3.25-6.817 6.307-8.632M223.528 379.904c1.263-1.145 2.013-2.855 3.635-3.601-.524 1.55-3.771 3.717-3.635 3.601M227.695 385.981c-.278 1.27-.018 3.134-1.212 3.383-.584-.79.044-3.33 1.212-3.383M224.959 385.495c-.074.401.01.978-.395 1.012-.227-2.304 2.157-4.627-.037-5.862 1.225-.333 1.36-1.884 2.529-2.281-.296 2.943-.741 5.727-1.788 7.836-.064-.27.028-.677-.31-.705M202.38 382.25c-.664.791-.72 2.254-.83 2.717-.063-.275-.267-.416-.671-.38.441-.844.285-2.35 1.501-2.336M220.875 391.141c-.594-.228-2.042.314-2.044-.45 1.074-.382 1.868-1.078 2.838-1.575.11 1.087-.556 1.319-.794 2.025M212.73 382.099c-.942-1.199-2.414-2.204-4.327-2.982-1.631-.662-5.119-.257-4.671-3 4.487.871 7.975 2.643 12.216 3.736-1.197 1.703-2.845 2.906-4.684 3.895-2.793-1.307-7.261-1.105-8.416-3.887 2.425-1.185 7.237 2.556 9.881 2.238M227.21 395.263c6.373 2.012 11.33 5.3 16.815 8.114-5.664-.697-11.668-3.896-17.644-5.4-.152-1.378.98-1.336.83-2.714M215.103 389.463c2.024-.588 4.662-4.214 5.042-4.219-1.134 1.772-3.15 4.499-5.042 4.219M202.935 371.592c5.38 2.143 11.164 3.924 16.934 5.71-.522 1.233-1.672 1.778-2.872 2.262-3.496-2.965-9.146-3.99-14.188-5.563.53-1.062-.744-2.12.126-2.409M220.459 392.497c-.21 1.103-.756 1.831-.85 3.062-1.576-.764-3.564-1.159-4.702-2.316 1.116-.911 3.96-1.536 5.552-.746M221.295 396.335c.177-1.375.384-2.728 1.209-3.386-.181 1.376-.381 2.73-1.21 3.386M258.543 356.217c.498-.576 2.744-2.724 3.202-1.901-5.712 3.359-5.865 12.885-10.554 17.376 2.666-4.217 4.281-11.937 7.352-15.475M248.943 401.567c2.482-.036 3.91.374 4.453.573 2.021.75-4.275.472-4.453-.573M188.45 374.317a2.978 2.978 0 00-.215.174c.029-.072.05-.139.081-.211.045.019.088.021.133.037M274.716 350.167c-.519 2.632-.95 4.216-1.697 6.116.137-.348-1 3-.759 1.34.243-1.688 1.023-4.07 2.456-7.456M253.385 415.584c-.114 1.696.096 3.745-1.573 3.71.795-.709 1.153-3.794 1.573-3.71M197.712 385.8c-3.25 3.299-6.57 6.524-9.821 9.83-1.456.649.158-.445.4-1.011 3.332-2.726 5.756-6.467 9.421-8.819M227.475 383.557c.496-2.254.6-4.238.34-6.532.345.016.688.035 1.032.055-.442 2.176.541 5.935-1.372 6.477M231.312 389.272c-.265-.527-1.079-.556-1.683-.777.808-1.895 2.64-2.647 4.322-3.567 6.221 1.933 11.269 4.92 17.574 6.775.036 1.01-.833 1.016-.796 2.028-3.429-.612-6.817-2.027-10.169-3.288-3.05-1.15-7.353-3.667-9.555-1.878.37.104.798.612.307.707M193.945 378.71c.811-.738 1.72.11 2.39.467.013.863-.584 1.05-1.106 1.32-.19-.808-1.09-.977-1.284-1.788M192.405 375.181c1.304-.365 3.978-2.277 5.192-.417-1.352.97-3.454 1.744-5.192.417M197.203 382.324c.104-.759 1.118-2.355 1.793-1.285-.812.192-.979 1.098-1.793 1.285" fill="#fff" transform="matrix(.54462 0 0 .54462 -81.165 183.5)"/><path d="M191.281 370.297c2.8-.312 6.186-.134 8.939.464-1.765.951-3.9 1.492-6.624 1.38-1.197 1.367-2.844 3.019-5.147 2.176.506-.373 1.134-.61 1.967-.62-.21-1.685 1.073-1.714.865-3.4M240.796 392.524c2.987 1.099 6.79 1.344 8.777 3.56-6.261-.377-11.378-4.592-17.246-6.415 2.741-.032 5.432 1.74 8.469 2.855" fill="#fff" transform="matrix(.54462 0 0 .54462 -81.165 183.5)"/><path d="M243.815 372.796c.574-1.024 1.385-2.047 2.306-3.028a30.895 30.895 0 00-1.596 2.27c-.186.297-.29.582-.36.862-.117-.035-.232-.072-.35-.104zm5.585 2.333c3.724-3.485 6.405-7.536 10.024-11.033.5-.45 1-.901 1.499-1.353.31-.267.606-.539.934-.794 1.464-1.142 2.863-2.286 4.171-3.504-1.121 2.182-2.261 4.362-3.4 6.612-2.317 4.575-3.816 9.331-4.1 14.41-.976-.214-1.957-.415-2.94-.62a226.84 226.84 0 00-3.56-1.563 2.776 2.776 0 00-.39-.483 14.105 14.105 0 00-2.238-1.672zm-60.872 23.186c2.83-1.72 4.539-4.464 6.924-6.663 1.695-1.563 3.493-2.843 4.767-4.656 1.994.975 4.1 1.717 5.986 1.799 2.14 1.382 4.551 2.377 7.08 3.128.09.621.384 1.202.939 1.629 2.024 1.556 4.179 2.699 6.412 3.61-1.157 3.38-2.139 6.791-4.072 9.898-.69 1.107.977 2.09 1.816 1.239 2.648-2.694 4.833-6.134 6.125-9.786 2.454.744 4.962 1.344 7.47 1.991 2.609.85 5.221 1.683 7.86 2.44.509.145.977.125 1.405.005.505.161 1.01.32 1.51.496 2.73.956 5.442 1.877 8.217 2.58a30.11 30.11 0 003.737.796c5.007 1.89 10.2 3.052 15.776 2.881 2.293-.069 3.517-3.218 1.675-4.714-1.359-1.104-2.656-2.23-4.003-3.298.025-.008.072-.016.097-.024 5.767-.169 12.264-.838 17.059-3.902 1.955.232 4.076-.959 5.519-2.378 1.568-1.54 3.968-4.065 3.99-6.381.016-1.597-2.817-2.384-2.817-1.613v-.005c-1.333.009-.35.022-.36.03-.009.007-.348.018-.359.026-.4-.286-.88-.479-1.408-.519-1.173-.088-2.341-.197-3.51-.301-2.71-2.584-7.068-2.176-10.983-2.164-.263-.855-.901-1.582-1.943-1.775-4.062-.761-8.086-1.675-12.116-2.59 1.448-6.02 4.195-11.691 7.454-16.931 2.598-4.18 3.964-8.47 6.121-12.826 1.15-2.32-1.92-4.292-3.673-2.504-.343.35-.715.658-1.074.987-.062-.052-.122-.107-.188-.152-.04-1.017-.086-2.03-.152-3.045.298-.496.606-.984.878-1.5.818-1.558.007-3.011-1.27-3.616-.157-1.771-.321-3.542-.482-5.315-.164-1.815-2.506-3.539-4.176-2.148-4.235 3.53-6.09 9.07-8.167 14.468-2.133 2.267-4.085 4.67-5.976 7.13-2.79 1.714-6.248 3.433-7.355 6.322-.421 1.1-.156 2.108.426 2.855-3.715 2.326-7.715 4.185-11.107 6.754-.736-.149-1.475-.301-2.212-.454-4.095-2.71-9.172-3.202-14.008-3.48-.196-.012-.393-.03-.588-.043-1.467-.663-2.85-1.197-3.86-1.612-5.67-2.324-11.903-5.043-17.755-1.9-.856.46-1.429 1.603-1.402 2.657-.207.288-.443.616-.55.96-.978 1.132-1.538 2.778-1.538 5.095v.01c-1.334 1.56-.914 3.283.34 4.973-.7 1.872.052 4.145 2.422 5.953a47.255 47.255 0 004.332 2.93c-1.821 1.027-3.76 1.869-5.368 3.237-2.146 1.824-3.808 4.236-6.254 5.677-2.47 1.452-.052 5.224 2.389 3.739M252.055 413.676c.625-.421 1.304-.237 1.872.155.849.586.737 1.732.706 2.626-.026.711 0 1.416-.232 2.095-.226.67-.674 1.19-1.43 1.23a1.567 1.567 0 01-1.554-1.074c-.232-.685-.245-1.352-.272-2.07-.038-1.102-.134-2.262.91-2.962" fill="#c6e036" transform="matrix(.54462 0 0 .54462 -81.165 183.5)"/><path d="M264.655 383.804c7.546 3.036 16.04 2.321 23.441 5.561 1.561.684 1.005 3.199-.675 3.224-8.396.131-17.526-.497-25.409-3.502-3.545-1.352-.876-6.699 2.643-5.283M246.303 378.413c1.613-.08 3.329.811 4.817 1.338 1.268.446 3.176 1.116 3.797 2.436.194.408.295 1.005-.112 1.349-1.177 1.003-2.825.944-4.288.861-1.584-.09-3.873-.038-5.282-.868-2.259-1.324-1.768-4.977 1.068-5.116M197.472 362.51a3.547 3.547 0 012.421.224c-.007-.011-.012-.023-.018-.037 4.202 1.635 8.457 2.784 12.834 3.848 3.823.93 8.195 1.806 11.022 4.718 1.12 1.154.222 2.634-1 2.71l.02.06c-4.248.1-8.62-1.317-12.799-2.034-4.43-.759-8.87-1.603-12.939-3.584-2.405-1.171-2.325-5.227.459-5.904M250.423 354.655c.522-1.571 1.284-2.042 2.602-3.076a78.869 78.869 0 005.195-4.47c3.052-2.861 5.303-6.137 7.763-9.48.714-.97 2.429-.073 2.101 1.063-1.115 3.85-3.864 7.105-6.612 9.933-1.568 1.614-3.285 3.075-5.003 4.527-1.51 1.276-2.818 2.767-4.853 2.892-.68.041-1.43-.673-1.193-1.39M246.343 370.95c.902-1.577 2.241-2.42 3.664-3.538 2.008-1.58 3.826-3.407 5.722-5.117 2.27-2.05 4.758-4.635 8.024-4.526.503.019.668.71.163.886-1.759.605-2.773 2.276-4.124 3.41-1.619 1.358-3.01 3.024-4.53 4.494-2.229 2.157-4.885 5.268-8.106 5.633-.628.07-1.127-.697-.813-1.243" fill="#eaff75" transform="matrix(.54462 0 0 .54462 -81.165 183.5)"/><path d="M184.299 372.001c.405-2.941-.258-7.074 1.153-8.904 5.417.004 1.199 8.514-1.153 8.904zm9.709-7.765c.225-.981 1.612-2.552 2.499-1.593-.931.422-1.382 1.377-2.499 1.593zm.15 3.795c1.7-1.624 3.59-3.042 5.405-4.542 9.872 1.81 19.329 3.992 27.905 6.967a4.862 4.862 0 00-1.81 1.63c-8.731-1.647-18.329-5.966-26.58-5.865 7.143 3.392 16.52 4.772 23.343 8.455-.725 2.924-3.422.603-4.832.092-7.589-2.753-15.254-5.335-23.432-6.737zm6.72 16.556c.442-.844.286-2.35 1.502-2.336-.664.79-.72 2.253-.83 2.716-.063-.275-.267-.416-.671-.38zm2.057-12.995c5.38 2.143 11.164 3.924 16.934 5.71-.522 1.233-1.672 1.778-2.872 2.262-3.496-2.965-9.146-3.99-14.188-5.563.53-1.062-.744-2.12.126-2.409zm-.087 8.27c2.425-1.186 7.237 2.555 9.881 2.237-.941-1.199-2.413-2.204-4.326-2.982-1.631-.662-5.119-.257-4.671-3 4.487.871 7.975 2.643 12.216 3.736-1.197 1.703-2.845 2.906-4.684 3.895-2.793-1.307-7.261-1.105-8.416-3.887zm8.885 8.047c1.336-2.765 3.442-4.672 6.17-5.882.007 2.905-3.603 4.642-6.17 5.882zm3.174 5.334c1.116-.911 3.96-1.536 5.552-.746-.21 1.103-.756 1.831-.85 3.062-1.576-.764-3.564-1.159-4.702-2.316zm7.597-.294c-.181 1.376-.381 2.73-1.21 3.386.178-1.375.385-2.728 1.21-3.386zm-7.401-3.486c2.024-.588 4.662-4.214 5.042-4.219-1.134 1.772-3.15 4.499-5.042 4.219zm6.566-.347c.11 1.087-.556 1.319-.794 2.025-.594-.228-2.042.314-2.044-.45 1.074-.382 1.868-1.078 2.838-1.575zm1.198 10.06c-1.212 3.36-3.567 8.204-6.307 8.632 2.597-2.33 3.25-6.817 6.307-8.632zm.472-2.39c-.036-1.373.884-1.686.85-3.06.339.02.687.035 1.028.054-.16 1.52-.513 2.821-1.878 3.007zm.189-16.882c1.263-1.145 2.013-2.855 3.635-3.601-.524 1.55-3.771 3.717-3.635 3.601zm1.43 5.59c-.073.402.011.98-.394 1.013-.227-2.304 2.157-4.627-.037-5.862 1.225-.333 1.36-1.884 2.529-2.281-.296 2.943-.741 5.727-1.788 7.836-.064-.27.028-.677-.31-.705zm2.737.487c-.278 1.27-.018 3.134-1.212 3.383-.584-.79.044-3.33 1.212-3.383zm-.484 9.282c6.372 2.012 11.329 5.3 16.814 8.114-5.664-.697-11.668-3.896-17.644-5.4-.152-1.378.98-1.336.83-2.714zm17.933 6.45c-1.464-.32-2.847-.712-3.712-1.573 1.163.593 3.63.01 3.712 1.573zm-15.965-11.172c.06-.418.146-.809.724-.652 5.47 3.26 12.068 5.51 18.186 8.184-7.073-1.813-14.317-3.481-18.91-7.532zm18.952 13.394c5.489 1.389 11.182 2.593 17.408 3.32.842-1.242 6.056-1.214 6.169.666-8.559 1.379-16.779-1.174-23.977-2.972-.358-.517-.324-.858.4-1.014zm21.641 1.474c-3.121-.358-6.052-.884-8.521-1.824 3.084.387 7.456-.385 8.521 1.824zm-14.875-5.604c3.456.167 7.472 1.564 10.636.9-3.388-2.189-10.477-1.042-13.245-3.792 5.008-1.053 12.981 4.18 19.196 2.036-5.29-1.897-12.427-2.126-17.352-4.353.745-2.313 2.888-1.113 4.523-.797 7.158 1.37 13.732 4.078 21.498 4.222-4.601 4.67-17.432 4.079-25.256 1.784zm1.459-8.197c.617-1.617 1.827-2.577 2.293-4.359 9.078 3.179 18.25 6.276 29.608 7.399-7.337 6.392-22.628-1.91-31.901-3.04zm32.968 2.408c-7.203-.76-13.087-1.927-18.764-3.733-3.947-1.259-7.996-2.36-10.787-4.7 5.516-.127 12.223 3.017 19.435 4.114 4.23.644 8.924 1.366 12.737.319-11.118-1.512-21.409-3.259-30.706-6.081.345-.83.409-1.966 1.481-1.99 8.657 3.666 21.78 3.308 30.673 6.767-.496 2.723-2.408 3.877-4.069 5.304zm-29.247-14.276c.295-1.876 1.184-3.79 2.004-5.413.471-.922 2.303-4.571 1.86-2.662-.597 2.602-1.828 5.451-3.864 8.075zm5.146-19.38c-2.171 6.437-4.851 12.31-7.502 18.223-2.828-1.164-6.052-1.975-8.433-3.542 7.613-2.344 9.668-10.85 15.935-14.681zm4.317-10.119c-1.325 2.62-5.335 5.831-4.573 8.379-1.318.728-3.183 2.761-4.268 2.536 3.105-3.221 4.084-10.739 8.841-10.915zm-.564-2.441c-.628.995-2.204.945-3.18 1.556 1.724-4.499 1.708-11.075 1.852-15.759.872 4.351 1.259 9.132 1.328 14.203zm-1.867-10.439c-.584 8.199-3.47 13.846-8.804 16.776 2.882-6.017 3.151-14.929 7.879-18.893-1.092 6.061-4.979 10.959-5.672 16.252 3.259-3.537 4.028-9.836 6.597-14.135zm-6.492 5.522c-2.529 6.65-3.533 14.989-9.217 18.134.905-3.238 3.16-4.978 4.537-7.693-.72-.035-1.392 1.807-1.776.943 1.89-4.087 3.235-8.778 6.456-11.384zm-7.017 8.94c-.75 2.441-1.796 6.484-3.779 6.354 1.41-1.954 2.224-4.561 3.779-6.354zm-4.067 5.305c-1.604 1.981-2.949 6.179-5.152 6.281 2.136-1.388 3.303-5.784 5.152-6.281zm-12.51 15.205c.109-.646-.35-.78-.272-1.393 3.305-1.788 6.528-5.599 10.29-5.667-4.724 2.512-7.281 7.434-11.902 10.066-1.407-1.135-4.611-.651-5.03-2.676 1.406-.738 1.64.425 2.715.833 1.024-.805 2.644-.948 4.199-1.163zm-4.45 5.974c-.202.988-.805 1.528-1.806 1.629.036-.687.072-1.375.106-2.061.987-.236.864.532 1.7.432zM231 375.469c1.372.178 2.728.383 3.381 1.208-1.021.603-3.237.014-3.381-1.208zm23.924 10.552c-.93 1.271-1.622 2.804-2.295 4.362-6.125-1.8-11.32-4.439-16.884-6.738 4.797-4.852 13.693.2 19.179 2.376zm.778-1.684c-4.552-1.469-9.61-2.48-13.196-4.824 4.226 1.766 10.167 1.983 13.196 4.824zm1.28-4.758c.091 1.189-.236 1.92-.485 2.732-3.801-1.491-8.765-1.935-11.855-4.063 3.6-3.777 7.93.341 12.34 1.33zm-6.812-14.834c-2.18 3.883-3.562 8.648-6.468 11.727 1.976-4.439 3.888-8.885 6.468-11.727zm.144-2.752c-.952-.409-2.389.448-2.404-.125.726-.645 1.207-1.565 2.167-1.953-.09.842-.136 1.654.237 2.078zm-3.032 11.91c2.982-3.48 3.666-11.448 7.556-12.706-2.732 3.758-4.028 11.042-7.556 12.706zm17.535-25.632c.68-.823.387-2.724 1.537-3.022-.39.914-.952 3.53-1.537 3.022zm.145 3.801c-1.505 1.113-1.804 3.573-3.342 4.65.853-1.606 1.62-5.225 3.342-4.65zm-5.418 11.436c-1.126.827-2.222 3.583-3.275 3.277 1.308-.618 1.195-4.726 3.275-3.277zm-8.352 8.184c2.666-4.217 4.281-11.937 7.352-15.475.498-.576 2.744-2.724 3.202-1.901-5.712 3.359-5.865 12.885-10.554 17.376zm2.205 30.448c2.021.75-4.275.472-4.453-.573 2.482-.036 3.91.374 4.453.573zm-21.07-12.47c2.742-.033 5.433 1.74 8.47 2.854 2.987 1.099 6.79 1.344 8.777 3.56-6.261-.377-11.378-4.592-17.246-6.415zm-1.32-1.105c.369.104.797.612.306.707-.265-.527-1.079-.556-1.683-.777.808-1.895 2.64-2.647 4.322-3.567 6.221 1.933 11.269 4.92 17.574 6.775.036 1.01-.833 1.016-.796 2.028-3.429-.612-6.817-2.027-10.169-3.288-3.05-1.15-7.353-3.667-9.555-1.878zm-2.16-11.485c-.44 2.176.542 5.935-1.371 6.477.496-2.254.6-4.238.34-6.532.345.016.688.035 1.032.055zm-29.85 3.959c-.812.192-.979 1.098-1.793 1.285.104-.759 1.118-2.355 1.793-1.285zm-1.399-6.275c-1.352.97-3.454 1.744-5.192.417 1.304-.365 3.978-2.277 5.192-.417zm-2.368 5.733c-.19-.808-1.09-.977-1.284-1.788.811-.737 1.72.111 2.39.468.013.863-.584 1.05-1.106 1.32zm2.483 5.303c-3.25 3.299-6.57 6.524-9.821 9.83-1.456.649.158-.445.4-1.011 3.332-2.726 5.756-6.467 9.421-8.819zm54.1 33.495c.795-.71 1.153-3.795 1.573-3.711-.114 1.696.096 3.745-1.573 3.71zm20.448-61.672c.243-1.688 1.023-4.07 2.456-7.456-.519 2.632-.95 4.216-1.697 6.116.137-.348-1 3-.759 1.34zm-113.057-13.471c3.92 9.25 11.864 14.872 19.97 20.344-.334 5.541.696 9.856 1.671 14.219-3.976 3.584-14.836-1.959-16.045 3.646-.395 1.844.396 2.184 1.194 3.51 2.336-.84 2.682-.291 4.85-.436.796-.958.445-3.067-.146-3.799 2.039.019 2.771 1.217 4.396 1.608 2.084-2.124 5.059-3.693 9.1-2.63 2.178-1.12 2.263-4.56 4.042-6.123.029-.072.05-.139.081-.211.045.019.088.021.133.037.506-.373 1.134-.61 1.967-.62-.21-1.685 1.073-1.714.865-3.4 2.8-.312 6.186-.134 8.939.464-1.765.951-3.9 1.492-6.624 1.38-1.197 1.367-2.844 3.019-5.147 2.176a2.978 2.978 0 00-.214.174c-1.968 4.746.317 8.33 5.136 8.668-3.239 4.534-7.766 10.777-12.496 14.865.206-4.685-7.227-7.077-10.155-3.632-1.125 1.33-2.467 5.737.693 6.585.784-1.002-.436-3.156.578-4.449.896.828.736 2.61 2.624 2.548 1.301-.941.206-3.379-.455-4.505 2.73-.166 4.105.888 5.047 2.332-.924 1.274-1.687 2.726-2.294 4.361 3.852 4.057 6.218 1.327 9.751-1.907 4.02-3.676 9.137-9.238 13.04-12.076 2.657 1.539 6.028 2.43 6.59 5.859 4.63 1.499 8.275 2.792 12.847 4.805-.618 2.822-1.377 5.503-2.473 7.8-6.55-10.628-18.919 6.77-8.048 8.89 1.204-1.406-.896-2.099-1.213-3.167.713.265 1.48.99 2.044.45-.415-1.589-1.664-2.433-1.124-4.883.696.794-.107 2.934 1.214 3.166 3.088.583 1.368-5.92 4.03-4.618.49 2.217-2.223 8.112 3.392 7.76 2.952-4.238 6.125-8.23 8.277-13.358 5.27 2.024 11.055 3.587 16.252 5.674-.57.066-2.775-.086-3.492.853-1.381 6.67 6.805 2.748 10.083 5.005-.267 2.619-2.058 3.535-2.388 6.08 3.14.332 3.677-2.222 3.724-5.32 3.954 1.448-.306 5.696-1.08 7.527.686.919 1.5.685 2.406.125.326.231-.248 1.843.924 2.116 2.588.204 3.12-1.869 3.978-3.584.83.454.305 2.127 1.974 1.826-.237-6.24-5.738-10.55-12.474-12.026 2.316-2.393 6.746.004 10.642.899 5.666 1.305 13.73 2.308 18.976-.39.086-2.806-2.69-3.031-3.53-5.01 9.292-3.008 21.25-5.273 23.91-15.647-8.23-4.812-23.212-3.548-32.353-7.545 4.713-11.808 15.013-20.648 13.637-36.861-3.346-.322-2.757 3.725-5.716 3.837-.636-5.215.024-11.596-1.945-15.613-6.247-2.111-9.575 7.894-12.35 12.113-6.577 10.001-16.045 18.132-24.773 25.596-10.953-3.564-22.446-6.643-34.326-9.37-1.719-.334-2.398.494-3.492.855 1.028-5.968-3.156-8.933-7.82-8.684-1.242-2.956-4.059-4.689-5.812-7.54-2.47-4.009-2.507-9.59-6.234-12.736 2.015 7.908 4.836 15.087 8.174 21.799-.842 2.099-2.388 3.408-2.728 6.063-7.486-1.85-11.62-6.31-15.606-11.499-1.18-1.537-2.449-3.78-4.598-4.376" fill="#381400" transform="matrix(.54462 0 0 .54462 -81.165 183.5)"/></g><use xlink:href="#a" transform="translate(173.9 -316.088)" width="100%" height="100%"/><use xlink:href="#a" transform="translate(59.436 1.45)" width="100%" height="100%"/><use xlink:href="#a" transform="matrix(.77644 0 0 .77644 11.87 18.233)" width="100%" height="100%" stroke-width="1.288"/><use xlink:href="#a" transform="matrix(.77644 0 0 .77644 45.26 -8.66)" width="100%" height="100%" stroke-width="1.288"/><use xlink:href="#a" transform="matrix(.77644 0 0 .77644 65.146 23.458)" width="100%" height="100%" stroke-width="1.288"/><use xlink:href="#a" transform="matrix(.89354 0 0 .89354 118.495 -.85)" width="100%" height="100%" stroke-width="1.119"/><use xlink:href="#a" transform="matrix(.89354 0 0 .89354 142.67 27.036)" width="100%" height="100%" stroke-width="1.119"/><use xlink:href="#a" transform="matrix(.89354 0 0 .89354 158.47 -25.923)" width="100%" height="100%" stroke-width="1.119"/><use xlink:href="#a" transform="translate(455.809 -51.253)" width="100%" height="100%"/><use xlink:href="#a" transform="translate(481.777 -79.954)" width="100%" height="100%"/><use xlink:href="#a" transform="matrix(.70925 0 0 .70925 516.132 -7.604)" width="100%" height="100%" stroke-width="1.41"/><use xlink:href="#a" transform="matrix(.70925 0 0 .70925 494.321 -35.59)" width="100%" height="100%" stroke-width="1.41"/><use xlink:href="#a" transform="matrix(.70925 0 0 .70925 535.543 -28.954)" width="100%" height="100%" stroke-width="1.41"/><use xlink:href="#a" transform="matrix(.7505 0 0 .7505 410.383 -45.825)" width="100%" height="100%" stroke-width="1.332"/><use xlink:href="#a" transform="matrix(.7505 0 0 .7505 396.37 -4.12)" width="100%" height="100%" stroke-width="1.332"/><use xlink:href="#a" transform="matrix(.7505 0 0 .7505 438.078 -17.617)" width="100%" height="100%" stroke-width="1.332"/><use xlink:href="#a" transform="translate(505.695 -38.269)" width="100%" height="100%"/><use xlink:href="#a" transform="translate(146.241 -351.253)" width="100%" height="100%"/><use xlink:href="#a" transform="translate(203.645 -353.986)" width="100%" height="100%"/><use x="0" y="0" xlink:href="#a" id="b" transform="translate(30.068 -32.802)" width="100%" height="100%"/><use xlink:href="#b" transform="matrix(.78429 0 0 .78429 286.75 -215.764)" width="100%" height="100%" stroke-width="1.275"/><use xlink:href="#b" transform="matrix(.78429 0 0 .78429 237.977 -193.254)" width="100%" height="100%" stroke-width="1.275"/><use xlink:href="#b" transform="matrix(.78429 0 0 .78429 280.854 -190.574)" width="100%" height="100%" stroke-width="1.275"/><use xlink:href="#b" transform="matrix(.7183 0 0 .7183 126.56 -144.48)" width="100%" height="100%" stroke-width="1.392"/><use xlink:href="#b" transform="matrix(.7183 0 0 .7183 80.418 -124.846)" width="100%" height="100%" stroke-width="1.392"/><use xlink:href="#b" transform="matrix(.7183 0 0 .7183 121.42 -112.988)" width="100%" height="100%" stroke-width="1.392"/></svg>