<svg xmlns="http://www.w3.org/2000/svg" xmlns:xlink="http://www.w3.org/1999/xlink" height="420" width="600"><g id="a" stroke-width=".27"><path d="M84.676 332.422c-.359 1.097.258 1.668-.323 2.888-1.08-.24-.713-2.816.323-2.888zm.156 4.928c.708-3.795.436-7.057 1.054-10.801-2.928-1.08-6.52-1.634-8.713-2.604-.295.997.053 1.645-.244 2.64 2.105.194 4.855.288 6.868 1.509-1.797.533-4.497-.599-6.77-.937-.042 3.362-.111 6.74.635 9.677 2.594.548 4.576-.032 7.17.516M73.773 330.794c1.048.893.83 2.476.703 4.007-.963-.942-.716-2.536-.703-4.007zm.493-2.565c-1.097-1.006-.097-3.147-.228-4.676-3.185-.486-5.722.228-8.536.434.195 2.888 1.304 5.282 2.302 7.734 1.87.444 4.028-.447 5.524.566-1.432.695-3.35.499-5.25.33-.218.744.394 1.044.3 1.718.696-.132 1.392-.254 2.212-.153.278.41-1.22.807-1.862.8.236 1.125.566 2.2 1.57 2.908 1.74-.519 3.591-.827 5.823-.43-.057-.525-.145-1.034-.05-1.64-2.105.357-4.094.927-6.646.455 1.44-1.458 4.084-.688 6.22-.856.157-3.17-.116-7.382-.088-10.598.005-.607 1.06-2.847-.252-2.788-.939.753-.176 4.104-1.039 6.196M84.982 339.565c-.816-.256-.74-.994-.549-1.792 1.076.114.617 1.058.55 1.792M62.116 320.803c.485-.281 1.544-.477 1.17.623-.604-.097-1.232.212-1.17-.623M74.654 319.669c.75.357 1.014-.186 1.82.272-.126.414-.249.832-.374 1.245-1.19-.121-1.468-.74-1.446-1.517M64.978 323.017c.115-.34.047-.582-.025-.822 2.639-.344 7.065-1.25 9.208.039-2.959.45-6.156.456-9.183.783M86.257 325.303c-1.91.478-6.644-2.03-9.256-1.68.407-.708.016-.982.195-1.568 2.956 1.314 7.54.91 9.061 3.248M83.665 339.44c-1.899-.03-3.96-.371-6.025-.711.197-.455-.118-.634.048-1.071 2.07.973 6.098-1.115 5.977 1.783" fill="#fff" transform="matrix(.4931 0 0 .4931 26.452 222.4)"/><path d="M66.39 336.451a60.467 60.467 0 00-6.492 2.67c1.555-1.76 4.472-3.051 6.492-2.67zm-3.162-1.213c-.708.82-1.302 1.95-2.81 2.144.25-.552-.634-.492-.522-.972.948-.265 3.456-1.47 3.332-1.172zm-.17-15.777c-4.212.576-6.984 3.817-10.246 6.158 1.126 5.308 4.617 9.34 6.937 14 2.52-1.26 5.53-1.616 7.961-3.046-.724-1.114-2.12-1.386-1.996-3.304.467-.307.902 1.172 1.122 1.69-.298-3.948-2.936-8.433-3.127-13.134-2.37 1.028.84 3.644.505 5.574-1.169-.413-1.04-1.526-1.472-2.337-2.098.625-3.585 2.38-5.569 3.215.616-1.955 3.83-2.446 5.293-4.112-.489-.223-.294-.815-.448-1.22-2.43.526-3.92 2.79-6.042 3.889.701-2.475 4.124-3.164 5.666-5.356-3.013.73-5.009 3.355-7.48 5.088 1.412-3.699 5.754-5.323 8.896-7.105M71.373 340.653c-.613-.575-.603-1.484-.972-2.19 2.184.179 4.125-.092 5.895-.68-.078 2.06-3.03.436-4.727 1.3-.264 1.575 2.264.69 3.236.967-.816.808-2.092.761-3.432.603M60.872 341.313c2.682-.191 4.862-1.312 7.34-1.876-1.135 1.672-4.528 2.414-7.066 2.77.05-.373-.284-.542-.274-.894M69.628 319.254c1.502-.016 4.42-.748 4.482 1.337-3.22.099-6.52.039-9.432.708.036-.504-.349-.785-.126-1.393 1.23-.355 3.133-.632 5.076-.652" fill="#fff" transform="matrix(.4931 0 0 .4931 26.452 222.4)"/><path d="M64.28 319.01c-.094.259-.379.101-.178-.321 3.482-.914 8.707-2.68 12.916.33-3.908-.784-9.378-1.484-12.738-.009M60.348 340.342c2.724-.756 5.041-2.265 7.885-2.797-1.25 1.709-5.692 2.844-7.885 2.797M78.165 339.697c2.243 1.054 4.49.076 6.124 1.285-2.061-.077-3.899.26-6.172-.215.195-.453-.116-.633.048-1.07M71.922 342.442c.08-.323-.216-.44-.025-.823.73.05 2.183.199 3.284-.102-.679 1.062-2.105.744-3.259.925M62.814 342.977c2.563-.282 4.594-1.554 6.916-2.276-1.82 1.405-4.96 2.413-6.916 2.276M9.804 335.28c.85.1 1.105.518 1.668.771 3.304.988-.012.456-1.568-.197-.178-.113-.227-.295-.1-.573M5.67 331.878c.964.116 2.38 1.061 3.06.643-.5-.774-2.374-.806-3.413-1.29-.732-1.624.485-4.296-1.076-5.474-.224.4.179.748-.221.745.012-.84-.932-1.165-1.048-1.936 1.486-.47 3.814.621 5.174-.081-1.885-1.042-4.99-.124-5.716-.89.004-.003.012.005.016 0 .891-1.33 4.126.172 6.146-.602-2.592-1.378-5.418.244-6.87-1.512 2.226-.263 4.598-.251 7.592.909.614 3.43 1.096 6.925-.458 11.524-.95.043-2.003-.101-3.135-.395.01-.562-.407-.896-.052-1.641M5.745 334.34c1.019.337 1.69.033 2.813.567-.225 1.036-3.433.392-2.813-.566M10.97 333.19c-.51-1.675.323-5.181.612-6.595.422.4.292 1.095.626 1.542.39-.05.322-.947.794-.847 1.344 1.084 3.283 1.844 4.855 2.805-.513 1.88-1.37 3.13-2.159 4.508-1.242-.37-2.488-.745-3.733-1.116-.407-1.032.379-2.71-.279-3.608-.833 1.104-.284 1.898-.717 3.31M4.23 335.787c-.349-1.136-1.373-1.904-1.82-2.985 1.664.29 2.652 2.041 1.82 2.985" fill="#fff" transform="matrix(.4931 0 0 .4931 26.452 222.4)"/><path d="M2.273 323.273a.561.561 0 00.157.322c-.077.044-.304-.256-.157-.322M56.192 338.829c-.83.424-.766-.814-1.596-1.018-.972.908-2.523 2.794-3.456 2.494 1.22-1.103 3.366-2.086 3.581-3.812 1.13.433 1.387 1.337 1.47 2.336zm-2.214 2.866c-1.284.843-2.258 2.255-3.776 2.666.742-1.596 2.66-3.052 3.776-2.666zm4.131-2.022c-1.83-4.231-5.016-7.732-6.064-12.386-2.263 1.618 1.947 4.478 2.027 6.84-1.095-.178-1.959-2.278-2.495-3.454-2.55 1.333-4.224 4.292-6.812 5.558 1.872-2.593 4.299-4.157 6.46-6.202-.488-.363-.361-1.058-.621-1.546-2.744 2.267-5.383 4.726-8.079 7.078 1.74 3.654 4.405 6.81 7.703 9.62 2.333-1.863 4.404-4.21 7.06-5.482-.296.747-.878.959-1.268 1.519-.754.903 1.73-.8 2.09-1.545M14.508 335.873c-.82-.363-2.07-1.236-2.988-.892.072-.248.148-.498.221-.746.759.634 2.75.603 2.767 1.638M41.481 336.337c-1.787 2.874-4.599 3.853-6.363 6.776-.829-.176-1.108-.654-.945-1.368.445-.724 1.496-.326 1.939-1.048 1.1-1.607 4.462-3.026 4.298-4.412-.04.14-.284.225-.246-.071.477.112.418-.775.97-.527-.064.312-.102.612.347.65M49.608 328.189c-2.186 1.496-4.552 4.712-6.487 5.382 2.037-1.766 4.464-4.872 6.487-5.382M35.841 342.514c1.785-.816 2.948-2.79 4.65-3.764-.049 2.173-2.994 5.136-5.245 5.753.08-.321-.217-.437-.025-.818.735.2 1.095-.295 1.541-.623-.36-.155-.945-.187-.92-.548M16.612 347.887c.597.05 2.093-.212 2.316.423-.718-.272-1.943.488-2.316-.423M32.26 343.614c.085-.488.444-.467.545-.92 1.145.181.456 1.596-.545.92M4.857 340.04c1.497-.12 2.77 2.446 2.888 3.033-.608-1.203-2.133-1.91-2.888-3.032M-6.147 337.84c-.797-1.307-2.235-2.271-2.343-3.953.927.308 2.666 2.983 2.343 3.954zm-3.783-2.757c.438 1.782 1.647 3.147 2.048 4.95-1.258-1.203-2.669-3.428-2.048-4.95zM3.09 338.7c.476-.277 1.338.162 2.064.348.22-1.201-.545-1.248-1.345-.946-.95-1.924-1.679-3.964-2.57-5.92-5.951-1.226-10.42.297-14.205 3.08.964 2.069 2.208 5.05 4.212 5.866.307.323.122.91.127 1.394 1.667-.395 2.81-1.754 4.452-2.195-.352-.996-1.005.687-1.892-.02-.367-.46.916-1.119 1.44-1.2 2.12 1.244 3.723-.5 5.824-.432-.248-1.012-1.519.336-1.741-.519.117-.556.44-.728.97-.521-.769-1.605-2.22-2.839-2.373-4.776 1.244.724 1.815 3.612 3.765 4.65-.55-1.79-2.164-3.01-2.62-4.85 1.743.94 3.507 3.673 3.892 6.041M43.4 358.055c-1.192.37-1.81 1.802-3.055 2.07.903-.647 2.185-2.634 3.055-2.07M45.39 355.94c-.173.97-.864.974-1.444 1.197.402-.548.652-1.37 1.444-1.196" fill="#fff" transform="matrix(.4931 0 0 .4931 26.452 222.4)"/><path d="M43.817 353.029c2.125-1.218 3.72-3.42 5.243-5.755-2.328 1.1-3.726 3.924-5.74 5.607-.008-.552-1.118-.512-1.022-1.118 1.778-1.35 3.367-3.045 4.77-5.085.481-.01 1.374.739 1.57.199-.33-.53-1.368-1.752-2.34-1.242-.25.554.635.492.522.97-1.756 1.389-3.54 2.725-4.772 5.084-2.395-2.05-4.547-4.226-6.13-6.711 2.366-.52 3.348-3.593 5.443-4.612.52 1.39 1.219 2.684 3.065 3.357-1.289-2.028-2.774-4.066-3.068-6.066 3.35 2.162 4.787 7.149 9.098 9.489-2.115 1.892-4.114 6.045-6.639 5.883M10.934 324.233c.686.254.932.749.624 1.54-.794-.198-.665-.894-.624-1.54M41.688 361.069c.91-1.018 1.837-2.008 3.132-2.32-.81 1.2-1.864 1.964-3.132 2.32M78.262 319.389c.076-.246.148-.495.224-.746.791.41 2.408.37 2.666 1.068-.898.016-2.076-.492-2.89-.322M48.196 353.795c1.593-.66 2.36-2.85 3.826-3.737-1.08 1.348-2.512 4.101-3.826 3.737M47.68 355.54c2.812-.718 4.206-4.06 6.558-5.635-1.408 2.546-3.446 3.925-5.066 6.08-.612-.563-1.467.3-1.492-.446M38.501 359.033c1.463-.378 2.347-1.84 3.703-2.42-.983 1.148-1.934 2.35-3.28 2.817-.178-.113-.49-.155-.423-.397M28.304 345.957c-.156.165-.214.426-.23.72-.108-.256-.166-.768.23-.72M33.405 364.29c1.792-.747 3.268-2.83 5.2-1.97-.547 1.38-1.303.245-2.29.398-.145.497.586.519.2 1.144-2.482.307-4.91 2.759-7.513 1.553 1.455-.486 2.971-.53 4.403-1.125M33.582 367.327c2.746-.977 5.267-2.368 7.86-3.621-2.192 1.744-5.453 3.56-7.86 3.621M33.881 366.33c-.628.023-1.667 1.27-2.215.15.852.397 1.9-.833 2.215-.15M25.29 359.698c1.706-.317 3.123-1.168 4.622-1.873-.114-.703-.562-1.227-1.119-1.691-1.2.92-4.472 1.967-5.4.827 1.719-.468 5.05.136 5.196-1.972 1.339.81 2.196 1.876 2.568 3.208-2.181-.172-3.965 2.44-5.868 1.5zm8.083-1.653c-2.273-2.252-3.763-4.927-5.657-7.383-.376.21-.547.796-.695 1.419-1.644-1.158-3.459.498-5.252.332.936-1.36 2.903-.816 4.228-1.452.544-.851-.405-.894-.05-1.64-1.515.032-2.371 1.28-4.08.95.905-1.292 3.035-.31 3.63-2.17l.993.296c.35.808-.066 2.35 1.299 2.016-.097-1.48-1.167-2.435-1.273-3.907-.758-.235-1.127.236-1.719.303.048.669.905-.347 1.567.196-.916.749-2.08 1.042-3.332 1.174-.607-.428.484-.853.796-.85.003-.795-.546.47-1.07-.046-3.112 5.947-.632 11.41 2.83 14.132.042.03-.004.092-.07.142 2.431-.194 5.518-2.11 7.855-3.512" fill="#fff" transform="matrix(.4931 0 0 .4931 26.452 222.4)"/><path d="M37.152 355.378c1.062.024 2.22-1.8 2.833-1.323-.93.219-2.055 2.104-2.833 1.323zm1.214-3.163c-1.198-.744-1.792-1.817-2.392-2.885 1.031.835 2.311 1.539 2.392 2.885zm-2.008 6.723c.194.521.62.917 1.272 1.192-.844-2.42 3.396-2.533 3.478-4.384-1.632-.188-2.207 1.581-3.556 1.92.676-1.456 2.242-1.259 2.784-2.963.968-.194 1.761 1.018 2.462-.078-2.676-3.08-5.85-5.89-8.422-9.023-.946.827 1.188 1.507 1.146 2.512-1.048.483-1.722-1.008-2.264-1.49-1.522.015-2.544.96-3.905 1.273-.52-2.067 3.299-1.271 3.032-2.891-1.535.38-2.893 1.09-4.304 1.697-.003-.007-.004-.017-.007-.025-.07 1.308 1.033 3.633 1.808 4.9 1.65 2.708 4.439 5.416 6.476 7.36M25.264 361.587c.082-.003.172-.024.254-.03-.088.066-.216.113-.254.03M46.554 353.846c.854-.664-1.326.193-.994-.296 2.268-1.344 3.621-4.38 5.988-5.53-.607 2.129-3.592 5.169-4.994 5.826M78.64 341.737c2.596.81 4.525.388 6.67.365-1.525 1.427-4.38.4-6.645.456.113-.339.047-.583-.025-.821M79.114 343.778c.955.2 2.776 0 3.312.716-1.277-.396-3.22.905-3.312-.716M86.802 342.549c.416.122.83.246 1.244.37-.916 1.192 1.268.707 1.196 1.442-.577.086-1.136.214-1.716.3-.144-.755-.766-1.255-.724-2.112M90.061 341.622c-1.295-.463-2.728.439-3.46-.219.675-.572 2.932-.23 3.46.219M86.784 326.274c.06-1.093 1.09-1.41.668-2.243-2.68-1.717-8.2-1.992-9.883-3.22.048-.166.099-.333.15-.498 3.733.276 8.355 2.814 10.702 3.196-.493 1.02-.721 2.53-1.637 2.765M88.037 334.782c.081-.323-.217-.441-.024-.821.923-.127 3.421.446 3.656 1.365-1.301-.356-2.328-.192-3.632-.544zm3.937 4.972c-1.668-.635-3.789-.072-5.052-1.237 1.3-1.206 4.115.404 5.75-.183-.378-1.244-4.172-.325-5.404-1.883 2.258-.112 6.344.492 8.113 1.879.201-1.29.339-2.547.296-3.71-1.885.82-3.42-1.303-2.145-2.806-1.603-.285-4.39-1.639-6-2.605 2.053-.984 5.064 2.752 7.045 1.832-1.808-1.388-4.927-2.071-6.201-3.75 1.99-.237 3.441 1.619 5.328 2.134-.586-2.071-4.79-2.998-4.51-4.874-2.596 5.15-3.374 11.112-2.469 15.534.823-.368 6.148-.075 5.25-.331M77.821 344.475c-.033.506.35.786.13 1.392-.363-.15-.946-.186-.926-.542.624.377.176-1.23.796-.85M51.622 345.055c-.326-.092-.525.598-.225.75 2.785-.798 5.147-4.367 7.585-4.515-1.473 2.676-6 3.416-6.14 6.03-.97-1.042-1.608-.965-2.366-2.063.418.202 1.121-.942 1.146-.202M62.521 346.685c-.239.318.79.898.028.82.059-.834-1.424.632-1.32-.122.507-.097.683-.793 1.292-.698M72.696 343.486c1.544.145 3.565-.865 4.677-.23-1.579-.211-3.512.966-4.677.23M56.677 349.006c1.523-1.43 3.15-2.672 4.897-3.688-.712 1.439-3.272 2.668-4.897 3.688M57.52 347.089c-3.848 2.52 1.374-1.95 2.634-2.468-1.16 1.085-1.58 1.778-2.634 2.468M63.188 344.445c2.446-.055 5.553-2.775 7.442-1.304-2.385.128-5.852 2.273-7.442 1.304M53.741 347.045c1.837-1.234 3.348-3.072 5.467-3.791-1.007 1.713-4.47 4.728-5.467 3.79M69.288 344.909c1.33-.412-3.78 1.417-4.578.804 1.603-.123 2.87-.874 4.578-.804M12.853 325.077c1.27 1.4 4.215 1.896 4.88 3.626-1.23-.456-6.143-1.83-4.88-3.626M2.476 327.127c-.834.908-1.919 1.343-2.634 2.468-1.749-.993-4.048-.154-6.098-.464-.176-.116-.226-.296-.099-.572 1.61-.293 4.192-.673 5.845.39.988-.623 1.487-2.143 2.986-1.822zm.748.227c-1.826-2.303-3.335-6.252-6.704-6.612-2.774-.299-4.704 3.079-6.836 4.739 2.394-1.755 4.366-4.29 7.76-4.194-2.368 2.466-6.375 5.198-8.848 8.747 3.83-1.283 5.874-5.875 9.72-7.13-3.202 2.833-6.77 4.987-9.244 9.17-.339.043-.206-.68.026-.944-2.453.347-3.758 3.107-5.295 5.877 4.151-4.293 8.798-7.677 16.166-6.018.507-2.276 2.255-2.271 3.255-3.635M-14.936 332.775c.916-2.298 1.9-4.474 3.353-5.778-1.175 1.822-2.06 4.177-3.353 5.778" fill="#fff" transform="matrix(.4931 0 0 .4931 26.452 222.4)"/><path d="M-10.632 331.077c-.096.007-.178.04-.27.053.084-.093.18-.132.27-.053M-11.456 328.39c.864-1.919 3.814-3.96 4.225-4.16a86.592 86.592 0 01-4.623 4.587c.114-.18.152-.491.398-.427M-14.706 337.454c-.31 2.413 2.898 3.977 2.647 5.67-1.043-.833-3.406-3.866-2.647-5.67M-13.188 336.007c-.031 2.33 3.058 4.032 2.57 5.92-1.178-.73-4.54-4.172-2.57-5.92M-11.387 343.595c1.09.022 1.003 1.13.375 1.468-.843-.37-.9-.842-.375-1.468M3.524 329.07c-.359-.024-.582.212-1.07-.048.144-.637.616-.67 1.046-.776-.114.34-.047.584.024.824M11.853 322.066c2.067 1.721 4.848 3.257 5.828 4.993-2.073-1.596-6.136-2.113-5.828-4.993M.453 320.287c1.707.03 4.539-.934 6.417.292-1.296-.848-4.168.87-6.417-.292M10.01 320.971c1.495.238.983 1.558 1.146 2.514-.915-.55-.854-1.626-1.147-2.514M4.2 332.253c-.55-.328-1.03-.698-1.918-.842.406-.67.822-1.314 1.515-1.45.13.77.276 1.528.403 2.292M.365 330.567c.732-.197.908-1.414 1.939-1.05.402.708-.456.79-.519 1.745-.395-.275-1.552-.137-1.42-.695M-9.496 343.618c-.636-.147-.667-.617-.772-1.045.553-.32 1.325-.363 1.493.448-.37-.043-.447.46-.721.597" fill="#fff" transform="matrix(.4931 0 0 .4931 26.452 222.4)"/><path d="M7.868 320.875c-.41-.125.066-.732-.272-.894-4.26-1.702-6.688-.008-9.855.31 2.528-1.632 5.756-1.966 9.752-.881.213.317 1.485 1.76.375 1.465M-9.367 347.722c2.393 1.701 5.36 3.092 7.15 5.116-2.798-1.48-5.574-2.973-7.15-5.116zm1.839-1.616c1.356 1.353 3.456 2.305 4.558 3.8-2.117-.945-4-2.016-4.558-3.8zm-4.647 3.761c2.916 1.15 5.872 5.17 9.639 5.859-2.306-2.65-6.906-4.065-8.444-7.128 3.133 1.785 5.265 4.115 8.565 5.81.49-2.151 3.317-1.827 2.805-4.857.476-.793 1.011-1.477 1.84-1.618.431.952-1.148 1.462-1.489 2.266 1.544-.756 3.737-3.644 6.112-4.138-.856-1.06-1.943.768-2.933.75.046-.817.65-.604.697-1.42-2.377-1.013-3.444-2.733-5.31-4.024 2.647.027 4.158 4.252 6.453 3.823-.743-1.967-2.91-3.159-4.584-4.621 2.761.108 3.584 3.073 6.125 3.997-.168-2.345-3.02-3.24-4.51-4.87-6.827.885-12.61 3.71-16.01 10.945 3.559 2.322 6.259 5.109 10.66 6.976-2.965-2.712-8.064-4.274-9.616-7.75M34.52 360.555c.801-.574 1.105.17 1.992.598-.3 1.366-2.382.605-1.992-.598" fill="#fff" transform="matrix(.4931 0 0 .4931 26.452 222.4)"/><path d="M30.414 360.687c1.263-.61 3.212-3.068 4.08-.95-.922.405-.94.48-2.14-.1-.144.494.586.522.2 1.146-1.858.938-4.2.979-5.672 2.647 2.61-.07 4.34-1.767 6.844-2.027.062.384.394.624.847.796-1.924 1.464-4.32 2.055-6.739 2.595-.796-.824-1.857-1.503-2.217-2.56 1.436-.34 3.12-.739 4.797-1.547M-2.654 362.47c-1.097-.521-2.002-1.145-2.69-1.885.9.628 2.34.962 2.69 1.885M-.562 363.638c3.311 1.632 9.14 2.507 11.551 3.993-3.792-.53-8.579-2.328-11.55-3.993M-4.974 359.335c.98.38 1.935.77 2.271 1.49-.875-.43-1.83-.82-2.27-1.49M-11.496 355.765c1.762 1.69 4.202 3.017 5.904 4.744-2.12-1.36-5.61-3.094-5.904-4.744M29.404 367.705c-2.179.12-6.163.916-7.39.233 2.895.828 5.331-1.905 7.39-.233M12.43 366.433c-1.154-.074-.945-.882-1.196-1.442.971.172.978.864 1.196 1.442M12.133 367.429c.495-.27 1.841.066 1.345.945-.468-.307-1.848-.119-1.345-.945M17.632 367.174c-1.234-.35-1.978.204-3.21-.147.586-.605 2.734-.333 3.21.147M-15.036 350.369c-.194-.8-.563-1.506-.65-2.364.764-.39.752.82 1.915.845-.448.457-.53 1.595-1.265 1.519M10.441 365.838c-3.753-.585-8.724-2.221-11.873-3.817.07-.247.146-.498.221-.747 3.51 2.087 9.257 2.259 11.652 4.564M-15.491 346.438c-.42-.93-1.465-.227-1.194-1.443.467.318 1.629 1.33 1.194 1.443M-13.442 351.386c3.063 2.87 7.006 5.265 10.683 7.803-4.143-2.288-8.75-4.323-10.683-7.803M1.394 355.273c1.704.106 4.584 1.057 5.575 2.209-2.113-.599-4.127-1.248-5.575-2.21zm-2.706 5.429c3.136.135 7.47 2.49 10.606 2.625-1.953-2.08-7.9-1.997-9.91-4.045 3.29.443 8.28 2.333 10.852 2.7.04-.65.17-1.344-.624-1.541-.214.077-.439.484-.148.498-1.644-.082-6.6-2.4-9.71-2.9 2.544-.445 6.403 1.546 9.26 1.68.212-1.438-.758-2.237-.205-3.857 1.732.665.357 3.01 1.2 4.153.287-1.962.248-3.753.961-5.95-.453-.57-1.236-1.883-.202-3.854-1.507-.58-3.107-1.105-4.008-2.01 1.31-.456 3.762 2.124 4.804 1.162.7-1.492-2.62-.813-2.368-2.064.596-.44 1.93.478 2.813.57.303-.511-.37-.494-.275-.892.844-.5 2.776 1.016 3.635.54-6.93-4.074-14.699 2.66-15.59 8.63-1.625.748-.737 3.16-1.091 4.555" fill="#fff" transform="matrix(.4931 0 0 .4931 26.452 222.4)"/><path d="M14.14 360.707c1.722.092 4.132-.59 5.425-.007-1.688-.028-4.055.73-5.425.007zm-1.323-2.834c1.575.328 3.693-.374 4.953.665-1.494-.187-3.702.35-4.953-.665zm7.565.088c-1.125-.578-1.722-2.54-.85-3.507-.148 1.401 1.518 1.823.85 3.507zm-7.954 5.76c4.218.466 7.984.094 11.745-.288.108-.202-.028-.266-.175-.326-2.32-1.432-7.405 1.264-11.198-.633 2.878-.208 5.866-.216 8.608-.683.33-.873-.475-1.133-.228-1.962.51-.464 1.122.768 1.274 1.19-.962-2.75-2.94-6.764-2.728-10.845-.042 1.073-.409 1.839-1.068 2.663-.688-.255.044-1.275-.946-1.366-.894.278-2.126-.068-3.21-.145.76-1.301 3.048.23 4.006-.703.133-1.185-2.567-.841-3.014-1.712-.416.232-.593.823-.372 1.244-3.952 2.216-4.358 10.55-2.694 13.567M13.852 348.962c-.556-.259-.996-.573-1.02-1.12.394.276 1.552.137 1.416.699-.208-.005-.348.12-.396.42M-14.695 345.59c-.583-.939-2.436-2.299-1.745-3.233.021 1.246 2.046 2.509 1.745 3.233M12.086 350.331c.164-.724.376-1.366 1.12-1.02-.22.627-.429 1.267-1.12 1.02M14.52 364.887c3.29.528 7.922-.573 9.705.187-3.236.468-7.4 1.225-10.675.335.072-.246.148-.496.224-.746l.746.224M9.79 363.474c.074-.25.147-.496.223-.745.67.124 1.043.41.773 1.044-.332-.102-.665-.198-.997-.3M11.69 350.757c1.038.206-.189 1.633-.172 2.389-.912-.419-.31-1.779.171-2.39M25.67 366.589c-1.326.184-4.642.6-4.928.156 1.663.238 3.518-1.212 4.928-.156M-15.575 338.549c-.284 2.589 2.323 3.616 2.248 6.094-2.29-.805-1.832-4.132-3.515-4.576.245-.838.738-1.213 1.267-1.518" fill="#fff" transform="matrix(.4931 0 0 .4931 26.452 222.4)"/><path d="M86.981 320.911c1.259.922 2.252 2.074 2.823 3.37 5.105 2.036 8.456 5.689 5.55 11.725.22.457.396.95.51 1.493 1.108 5.354-5.563 7.287-9.447 7.507-1.507.087-3.007.047-4.501-.048-3.135.563-6.264.988-9.399 1.148-4.215.588-8.42 1.235-12.616 1.943-2.117 1.805-4.516 3.377-6.443 5.346-2.994 3.056-5.81 6.698-9.984 7.99-1.788 2.346-4.262 4.446-5.74 5.485-1.636 1.15-4.077 1.916-6.394 2.023-.954.338-1.77.569-2.352.662a6.311 6.311 0 01-3.527-.45c-.088.004-.176.017-.264.02-4.601 1.248-10.119.95-14.85-.715-1.96-.433-3.88-1-5.72-1.681a1.98 1.98 0 01-.563-.128c-5.142-.883-9.015-3.187-12.275-6.464-.45-.4-1.095-.814-1.492-1.25-5.863-3.917-7.805-11.382-7.805-18.273v-.035c0-1.233.08-2.484.065-3.773-.016-1.277.79-2.025 1.661-2.29.255-1.226.678-2.45 1.136-3.667.01-.043.046-.084.055-.128.004.003.024.004.03.007.077-.198.143-.398.225-.596.285-.696.776-1.083 1.332-1.235.537-.89 1.301-1.727 2.114-2.51.111-.227.244-.451.426-.663 2.148-2.506 8.924-8.202 13.238-7.096 1.528-.324 3.087-.263 4.496.377.36.163.682.357.984.567 4.626-.707 10.163 2.75 10.038 7.776-.055 2.126-.676 3.892-1.647 5.237a8.09 8.09 0 01-.667 1.913c-2.056 4.16-6.9 4.226-11.218 2.914 1.813 1.69 3.505 3.492 5.161 5.336a528.102 528.102 0 014.253 4.026c3.806-.124 7.615-.06 11.422-.133.8-.336 1.585-.696 2.35-1.09 1.94-2.863 5.434-5.242 7.678-6.938a96.702 96.702 0 015.63-3.923c.203-.39.512-.742.948-1.022l.15-.168c.45-.526.957-.788 1.464-.868.393-.255.792-.508 1.174-.774a48.286 48.286 0 015.358-4.373c2.558-3.257 5.974-5.94 9.802-7.281a23.217 23.217 0 013.283-.858c6.444-4.122 17.912-2.568 23.548 1.566" fill="#deff7f" transform="matrix(.4931 0 0 .4931 26.452 222.4)"/><path d="M74.354 320.653c8.832-.238 17.352 2.6 19.83 11.889.314 1.18-1.16 1.67-1.842.81-2.48-3.113-5.316-5.12-8.36-6.27-.012-.003-.02-.001-.03-.004a32.813 32.813 0 00-7.638-1.216c-6.848.173-14.13 3.248-20.617 7.152-6.865 6.345-11.544 14.464-19.495 19.724-4.085 2.703-9.225 3.7-14.366 3.276-3.027.67-5.812.313-7.935-1.799-6.41-2.434-11.859-7.102-13.903-13.377-.389-1.19 1.3-2.32 2.166-1.313 3.966 4.6 8.872 8.026 14.486 9.773 1.944-.135 3.915-.001 5.878-.525 3.97-1.058 7.53-4.31 10.62-6.85 7.31-6.01 14.01-12.412 22.505-16.62 2.939-2.036 6.216-3.557 10.087-4.346 2.862-.584 5.804-.723 8.614-.304" fill="#b8db53" transform="matrix(.4931 0 0 .4931 26.452 222.4)"/><path d="M17.63 324.3c3.432 2.598-1.226 7.45-4.613 4.842-7.548-5.81-16.817-1.543-21.363 5.519-4.502 6.996-4.524 16.12-.056 23.045.34.524-.4 1.112-.844.681-8.026-7.78-8.96-19.514-3.213-28.914 6.353-10.388 20.679-12.3 30.09-5.174" fill="#b8db53" transform="matrix(.4931 0 0 .4931 26.452 222.4)"/><path d="M88.71 339.13c-5.436-2.732-9.725-5.884-16.136-5.633-5.709.22-9.912 4.292-13.45 8.297-6.828 7.732-14.314 14.873-23.31 20.017-8.25 4.716-16.582 6.124-25.602 3.039-5.97-2.04-14.17-5.839-16.942-11.903-.473-1.037 1.006-2.001 1.547-.946 4.356 8.488 20.737 12.229 29.095 10.088 10.69-2.742 19.573-11.426 26.746-19.314 5.512-6.06 9.884-12.09 17.804-15.036 8.782-3.266 16.052 1.567 23.648 5.238 4.08 1.97.651 8.19-3.4 6.153" fill="#eeffbd" transform="matrix(.4931 0 0 .4931 26.452 222.4)"/><path d="M-9.93 335.083c.438 1.782 1.647 3.147 2.048 4.95-1.258-1.203-2.669-3.428-2.048-4.95M-6.256 329.131c-.176-.116-.226-.296-.099-.572 1.61-.293 4.192-.673 5.845.39.988-.623 1.487-2.143 2.986-1.822-.834.908-1.919 1.343-2.634 2.468-1.749-.993-4.048-.154-6.098-.464M-2.218 352.838c-2.797-1.48-5.573-2.973-7.149-5.116 2.393 1.701 5.36 3.092 7.15 5.116M-2.97 349.906c-2.117-.945-4-2.016-4.558-3.8 1.356 1.353 3.456 2.305 4.558 3.8M6.97 357.482c-2.114-.599-4.128-1.248-5.576-2.21 1.704.107 4.584 1.058 5.575 2.21M17.77 358.538c-1.494-.187-3.702.35-4.953-.665 1.575.328 3.693-.374 4.953.665M19.532 354.454c-.148 1.401 1.518 1.823.85 3.507-1.125-.578-1.722-2.54-.85-3.507M28.793 356.134c-1.2.92-4.472 1.967-5.4.827 1.719-.468 5.05.136 5.196-1.972 1.339.81 2.196 1.876 2.568 3.208-2.181-.172-3.965 2.44-5.868 1.5 1.707-.316 3.124-1.167 4.623-1.872-.114-.703-.562-1.227-1.119-1.691M38.366 352.215c-1.198-.744-1.792-1.817-2.392-2.885 1.031.835 2.311 1.539 2.392 2.885M50.202 344.36c.742-1.595 2.66-3.051 3.776-2.665-1.284.843-2.258 2.255-3.776 2.666M66.39 336.451a60.467 60.467 0 00-6.492 2.67c1.555-1.76 4.472-3.051 6.492-2.67M74.476 334.8c-.963-.94-.716-2.535-.703-4.006 1.048.893.83 2.476.703 4.007M84.676 332.422c-.359 1.097.258 1.668-.323 2.888-1.08-.24-.713-2.816.323-2.888M88.013 333.96c.923-.126 3.421.447 3.656 1.366-1.301-.356-2.328-.192-3.632-.544.081-.323-.217-.441-.024-.821" fill="#381400" transform="matrix(.4931 0 0 .4931 26.452 222.4)"/><path d="M-16.842 340.067c.245-.838.738-1.213 1.267-1.518-.284 2.589 2.323 3.616 2.248 6.094-2.29-.805-1.832-4.132-3.515-4.576zm.402 2.29c.021 1.246 2.046 2.509 1.745 3.233-.583-.939-2.436-2.299-1.745-3.233zm-.245 2.638c.467.318 1.629 1.33 1.194 1.443-.42-.93-1.465-.227-1.194-1.443zm2.914 3.855c-.448.457-.53 1.595-1.265 1.519-.194-.8-.563-1.506-.65-2.364.764-.39.752.82 1.915.845zm.33 2.536c3.062 2.87 7.005 5.265 10.682 7.803-4.143-2.288-8.75-4.323-10.683-7.803zm12.129 9.316c.354-1.395-.534-3.807 1.09-4.555.892-5.97 8.66-12.704 15.591-8.63-.859.476-2.79-1.04-3.635-.54-.094.398.578.38.275.893-.884-.093-2.217-1.01-2.813-.57-.252 1.25 3.068.571 2.368 2.063-1.042.962-3.494-1.618-4.804-1.162.901.905 2.501 1.43 4.008 2.01-1.034 1.97-.25 3.284.202 3.855-.713 2.196-.674 3.987-.96 5.95-.844-1.145.531-3.489-1.2-4.154-.554 1.62.416 2.419.204 3.857-2.857-.134-6.716-2.125-9.26-1.68 3.11.5 8.066 2.818 9.71 2.9-.29-.014-.066-.421.148-.498.794.197.664.892.624 1.54-2.572-.366-7.562-2.256-10.852-2.7 2.01 2.049 7.957 1.966 9.91 4.046-3.136-.134-7.47-2.49-10.606-2.625zm.101.572c3.51 2.087 9.257 2.259 11.652 4.564-3.753-.585-8.724-2.221-11.873-3.817.07-.247.146-.498.221-.747zm-1.492-.448c-.875-.43-1.83-.821-2.27-1.49.978.38 1.934.769 2.27 1.49zm-8.793-5.061c1.762 1.69 4.202 3.017 5.904 4.744-2.12-1.36-5.61-3.094-5.904-4.744zm6.152 4.82c.9.628 2.34.962 2.69 1.885-1.097-.521-2.002-1.145-2.69-1.885zm4.782 3.053c3.311 1.632 9.14 2.507 11.551 3.993-3.792-.53-8.579-2.328-11.55-3.993zm12.695 3.79c.495-.269 1.841.067 1.345.946-.468-.307-1.848-.119-1.345-.945zm-.899-2.437c.971.172.978.864 1.196 1.442-1.154-.074-.945-.882-1.196-1.442zm3.188 2.036c.586-.605 2.734-.333 3.21.147-1.234-.35-1.978.204-3.21-.147zm7.591.91c2.896.829 5.332-1.904 7.39-.232-2.178.12-6.162.916-7.39.233zm3.657-1.348c-1.326.184-4.642.6-4.928.156 1.663.238 3.518-1.212 4.928-.156zm-14.884-2.816c-.332-.102-.665-.198-.997-.3l.224-.744c.67.124 1.043.41.773 1.044zm2.988.89l.746.224c3.29.528 7.922-.573 9.705.187-3.236.468-7.4 1.225-10.675.335.072-.246.148-.496.224-.746zm-2.256-11.517c-.912-.419-.31-1.779.171-2.39 1.039.207-.188 1.634-.17 2.39zm.568-2.815c.164-.724.376-1.366 1.12-1.02-.22.627-.429 1.267-1.12 1.02zm2.162-1.79c-.208-.005-.348.12-.396.42-.556-.258-.996-.572-1.02-1.12.394.277 1.552.138 1.416.7zm9.925 14.892c-3.761.382-7.527.754-11.745.289-1.664-3.016-1.258-11.35 2.694-13.567-.22-.421-.044-1.012.372-1.244.447.87 3.147.527 3.014 1.712-.958.934-3.246-.598-4.006.703 1.084.077 2.316.423 3.21.145.99.091.258 1.11.946 1.366.66-.824 1.026-1.59 1.068-2.663-.212 4.081 1.766 8.096 2.728 10.845-.152-.422-.764-1.654-1.274-1.19-.247.829.557 1.089.228 1.962-2.742.467-5.73.475-8.608.683 3.793 1.897 8.877-.799 11.198.633.147.06.283.124.175.326zm3.661 1.36c-.796-.823-1.857-1.502-2.217-2.56 1.436-.34 3.12-.738 4.797-1.546 1.263-.61 3.212-3.068 4.08-.95-.922.405-.94.48-2.14-.1-.144.494.586.522.2 1.146-1.858.938-4.2.979-5.672 2.647 2.61-.07 4.34-1.767 6.844-2.027.062.384.394.624.847.796-1.924 1.464-4.32 2.055-6.739 2.595zm8.678-3.64c-.3 1.366-2.382.605-1.992-.598.801-.574 1.105.17 1.992.598zm-7.51 4.262c1.455-.486 2.971-.53 4.403-1.125 1.792-.747 3.268-2.83 5.2-1.97-.547 1.38-1.303.245-2.29.398-.145.497.586.519.2 1.144-2.482.307-4.91 2.759-7.513 1.553zm2.664 1.066c.852.396 1.9-.834 2.215-.151-.628.023-1.667 1.27-2.215.15zm1.916.846c2.746-.977 5.267-2.368 7.86-3.621-2.192 1.744-5.453 3.56-7.86 3.621zm-.209-9.282c-2.337 1.402-5.424 3.318-7.855 3.512-.088.066-.216.113-.254.03.082-.003.172-.024.254-.03.066-.05.112-.111.07-.142-3.462-2.721-5.942-8.185-2.83-14.132.524.516 1.072-.75 1.07.047-.312-.004-1.403.421-.796.85 1.252-.133 2.416-.426 3.332-1.175-.662-.543-1.519.473-1.567-.196.592-.067.961-.538 1.719-.303.106 1.472 1.176 2.428 1.273 3.907-1.365.334-.95-1.208-1.299-2.016l-.993-.296c-.595 1.86-2.725.878-3.63 2.17 1.709.33 2.565-.918 4.08-.95-.355.746.594.789.05 1.64-1.325.636-3.292.092-4.228 1.452 1.793.166 3.608-1.49 5.252-.332.148-.623.319-1.21.695-1.419 1.894 2.456 3.384 5.13 5.657 7.383zm2.985.893c-2.037-1.944-4.826-4.652-6.476-7.36-.774-1.267-1.878-3.592-1.808-4.9-.108-.257-.166-.77.23-.721-.156.165-.214.426-.23.72.003.009.004.02.007.026 1.411-.608 2.77-1.317 4.304-1.697.267 1.62-3.552.824-3.032 2.89 1.362-.313 2.383-1.257 3.906-1.273.541.483 1.216 1.974 2.264 1.49.041-1.004-2.092-1.684-1.147-2.511 2.572 3.133 5.747 5.944 8.423 9.023-.702 1.096-1.495-.116-2.463.078-.541 1.704-2.108 1.507-2.784 2.963 1.35-.339 1.924-2.108 3.556-1.92-.081 1.85-4.321 1.964-3.477 4.384-.654-.275-1.079-.67-1.272-1.192zm2.143.095c1.463-.378 2.347-1.84 3.703-2.419-.983 1.147-1.934 2.35-3.28 2.816-.178-.113-.49-.155-.423-.397zm1.844 1.093c.903-.648 2.185-2.635 3.055-2.07-1.192.369-1.81 1.8-3.055 2.07zm1.343.943c.91-1.018 1.837-2.008 3.132-2.319-.81 1.2-1.864 1.963-3.132 2.319zm2.258-3.932c.402-.548.652-1.37 1.444-1.196-.173.969-.864.973-1.444 1.196zm3.734-1.598c2.812-.717 4.206-4.06 6.558-5.634-1.408 2.546-3.446 3.925-5.066 6.08-.612-.563-1.467.301-1.492-.446zm4.342-5.481c-1.08 1.348-2.512 4.101-3.826 3.737 1.593-.66 2.36-2.85 3.826-3.737zm-.474-2.039c-.607 2.13-3.592 5.17-4.994 5.827.854-.664-1.326.193-.994-.296 2.268-1.344 3.621-4.38 5.988-5.53zm-1.092-.873c-2.115 1.892-4.114 6.045-6.639 5.883 2.125-1.218 3.72-3.419 5.243-5.755-2.328 1.1-3.726 3.924-5.74 5.607-.008-.552-1.118-.512-1.022-1.118 1.778-1.35 3.367-3.045 4.77-5.085.481-.01 1.374.739 1.57.199-.33-.53-1.368-1.752-2.34-1.242-.25.554.635.492.522.971-1.756 1.388-3.54 2.724-4.772 5.083-2.395-2.05-4.547-4.226-6.13-6.711 2.366-.52 3.348-3.593 5.443-4.612.52 1.39 1.219 2.684 3.065 3.357-1.289-2.028-2.774-4.066-3.068-6.066 3.35 2.162 4.787 7.149 9.098 9.489zm2.386.173c-.97-1.041-1.608-.964-2.366-2.062.418.202 1.121-.942 1.146-.202-.326-.092-.525.598-.225.75 2.785-.798 5.147-4.367 7.585-4.515-1.473 2.676-6 3.416-6.14 6.03zm3.835 1.687c1.523-1.43 3.15-2.672 4.897-3.688-.712 1.439-3.272 2.668-4.897 3.688zm4.552-1.623c.507-.097.683-.793 1.292-.698-.239.318.79.898.028.821.059-.835-1.424.63-1.32-.123zm-1.075-2.762c-1.16 1.085-1.58 1.778-2.634 2.468-3.848 2.52 1.374-1.95 2.634-2.468zm-6.413 2.424c1.837-1.234 3.348-3.072 5.467-3.791-1.007 1.713-4.47 4.728-5.467 3.79zm10.97-1.332c1.602-.123 2.869-.874 4.577-.804 1.33-.412-3.78 1.417-4.578.804zm-1.523-1.268c2.446-.055 5.553-2.775 7.442-1.304-2.385.128-5.852 2.273-7.442 1.304zm9.508-.959c1.544.145 3.565-.865 4.677-.23-1.579-.211-3.512.966-4.677.23zm4.33 1.839c.623.377.175-1.23.795-.85-.033.506.35.786.13 1.392-.363-.15-.946-.186-.926-.542zm2.088-1.547c.955.2 2.776 0 3.312.716-1.277-.396-3.22.905-3.312-.716zm-.449-1.22c.113-.339.047-.583-.025-.821 2.596.81 4.525.388 6.67.365-1.525 1.427-4.38.4-6.645.456zm8.861 2.104c-.144-.756-.766-1.256-.724-2.113.416.122.83.246 1.244.37-.916 1.192 1.268.707 1.196 1.442-.577.086-1.136.214-1.716.301zm-.925-3.259c.675-.572 2.932-.23 3.46.219-1.295-.463-2.728.439-3.46-.219zm.124-1.318c-.905-4.422-.127-10.384 2.47-15.534-.28 1.876 3.923 2.803 4.509 4.874-1.887-.515-3.338-2.371-5.328-2.134 1.274 1.679 4.393 2.362 6.201 3.75-1.981.92-4.992-2.816-7.045-1.832 1.61.966 4.397 2.32 6 2.605-1.275 1.503.26 3.627 2.145 2.807.043 1.162-.095 2.42-.296 3.709-1.77-1.387-5.855-1.99-8.113-1.879 1.232 1.558 5.026.639 5.404 1.883-1.635.587-4.45-1.023-5.75.183 1.263 1.165 3.384.602 5.052 1.237.9.256-4.426-.037-5.249.33zm1.696-16.576c-.493 1.021-.721 2.53-1.637 2.765.06-1.093 1.09-1.41.668-2.243-2.68-1.717-8.2-1.992-9.883-3.22.048-.166.099-.333.15-.498 3.733.276 8.355 2.814 10.702 3.196zm-7.27-3.798c-.897.016-2.075-.492-2.889-.322.076-.246.148-.495.224-.746.791.41 2.408.371 2.666 1.068zm-4.133-.692c-3.908-.784-9.378-1.484-12.738-.009-.094.259-.379.102-.178-.321 3.482-.913 8.707-2.68 12.916.33zm-12.466.887c1.23-.355 3.133-.632 5.076-.652 1.502-.016 4.42-.748 4.482 1.337-3.22.099-6.52.039-9.432.708.036-.504-.349-.785-.126-1.393zm-1.494-.445c-3.142 1.782-7.484 3.406-8.897 7.105 2.472-1.733 4.468-4.357 7.481-5.088-1.542 2.192-4.965 2.881-5.666 5.356 2.121-1.099 3.612-3.363 6.042-3.888.154.404-.04.996.448 1.219-1.464 1.666-4.677 2.157-5.293 4.112 1.984-.835 3.47-2.59 5.57-3.215.43.81.302 1.924 1.471 2.337.335-1.93-2.874-4.546-.505-5.574.19 4.701 2.83 9.186 3.127 13.134-.22-.518-.655-1.997-1.122-1.69-.124 1.918 1.272 2.19 1.996 3.304-2.432 1.43-5.44 1.786-7.96 3.046-2.32-4.66-5.812-8.692-6.938-14 3.262-2.341 6.034-5.582 10.246-6.158zm-1.912 22.746c.05-.373-.284-.542-.274-.894 2.682-.191 4.862-1.312 7.34-1.876-1.135 1.672-4.528 2.414-7.066 2.77zm1.668.77c2.563-.282 4.594-1.554 6.916-2.276-1.82 1.405-4.96 2.413-6.916 2.276zm12.367-1.46c-.679 1.062-2.105.744-3.259.925.08-.323-.216-.44-.025-.823.73.051 2.183.199 3.284-.102zm-14.833-1.175c2.724-.756 5.041-2.265 7.885-2.797-1.25 1.709-5.692 2.844-7.885 2.797zm23.941.64c-2.061-.077-3.899.26-6.172-.215.195-.453-.116-.633.048-1.07 2.243 1.054 4.49.076 6.124 1.285zm-.624-1.541c-1.899-.031-3.96-.372-6.025-.712.197-.455-.118-.634.048-1.071 2.07.973 6.098-1.115 5.977 1.783zm1.317.124c-.816-.256-.74-.994-.549-1.792 1.076.114.617 1.058.55 1.792zm.904-13.016c-.618 3.744-.346 7.006-1.054 10.801-2.594-.548-4.576.032-7.17-.516-.746-2.936-.677-6.315-.634-9.677 2.272.338 4.972 1.47 6.77.937-2.014-1.221-4.764-1.315-6.869-1.508.297-.996-.05-1.644.244-2.641 2.192.97 5.785 1.525 8.713 2.604zm-11.62 1.68c.863-2.092.1-5.443 1.04-6.196 1.311-.06.256 2.181.251 2.788-.028 3.216.245 7.429.088 10.598-2.136.168-4.78-.602-6.22.856 2.552.472 4.541-.098 6.645-.456-.094.607-.007 1.116.051 1.642-2.232-.398-4.084-.09-5.823.429-1.004-.708-1.334-1.783-1.57-2.908.641.007 2.14-.39 1.862-.8-.82-.101-1.516.021-2.212.153.094-.674-.518-.974-.3-1.717 1.9.168 3.818.364 5.25-.33-1.496-1.014-3.654-.123-5.524-.567-.998-2.452-2.107-4.846-2.302-7.734 2.814-.206 5.351-.92 8.536-.434.131 1.529-.869 3.67.228 4.676zm-10.98-6.803c-.604-.097-1.232.212-1.17-.623.485-.281 1.544-.477 1.17.623zm10.875.808c-2.959.45-6.156.456-9.183.783.115-.34.047-.582-.025-.822 2.639-.344 7.065-1.25 9.208.039zm.493-2.565c.75.357 1.014-.186 1.82.272-.126.414-.249.832-.374 1.245-1.19-.121-1.468-.74-1.446-1.517zm11.603 5.634c-1.91.478-6.644-2.029-9.256-1.68.407-.708.016-.982.195-1.568 2.956 1.314 7.54.911 9.061 3.248zM74.805 340.05c-.816.808-2.092.761-3.432.603-.613-.575-.603-1.484-.972-2.19 2.184.179 4.125-.092 5.895-.68-.078 2.06-3.03.436-4.727 1.3-.264 1.575 2.264.691 3.236.967zm-22.76-12.763c1.048 4.654 4.235 8.155 6.064 12.386-.36.745-2.843 2.448-2.09 1.545.391-.56.973-.772 1.269-1.519-2.656 1.272-4.727 3.619-7.06 5.483-3.298-2.81-5.963-5.967-7.703-9.621 2.696-2.352 5.335-4.811 8.079-7.078.26.488.133 1.183.621 1.546-2.161 2.045-4.588 3.609-6.46 6.202 2.588-1.266 4.263-4.225 6.812-5.558.536 1.176 1.4 3.276 2.495 3.454-.08-2.362-4.29-5.222-2.027-6.84zm-2.437.902c-2.186 1.496-4.552 4.712-6.487 5.382 2.037-1.766 4.464-4.872 6.487-5.382zm-8.475 7.498c-.063.312-.101.612.348.65-1.787 2.874-4.599 3.853-6.363 6.776-.829-.176-1.108-.654-.945-1.368.445-.724 1.496-.326 1.939-1.048 1.1-1.607 4.462-3.026 4.298-4.412-.04.141-.284.225-.246-.071.477.112.418-.775.97-.527zm-4.37 7.375c-.36-.155-.946-.187-.922-.548 1.785-.816 2.948-2.79 4.65-3.764-.049 2.173-2.994 5.136-5.245 5.753.08-.321-.217-.437-.025-.818.735.2 1.095-.295 1.541-.623zm-4.503.552c.085-.488.444-.467.545-.92 1.145.181.456 1.596-.545.92zm-13.332 4.696c-.718-.272-1.943.488-2.316-.423.597.05 2.093-.212 2.316.423zm-11.183-5.237c-.608-1.203-2.133-1.91-2.888-3.032 1.497-.12 2.77 2.445 2.888 3.032zm-2.59-4.026c-.727-.186-1.589-.625-2.065-.348-.385-2.368-2.149-5.101-3.892-6.041.456 1.84 2.07 3.06 2.62 4.85-1.95-1.038-2.52-3.926-3.765-4.65.153 1.937 1.604 3.17 2.372 4.776-.53-.207-.852-.035-.97.521.223.855 1.494-.493 1.742.519-2.101-.068-3.704 1.676-5.824.432-.524.081-1.807.74-1.44 1.2.887.707 1.54-.976 1.892.02-1.643.441-2.785 1.8-4.452 2.195-.005-.483.18-1.071-.127-1.394-2.004-.816-3.248-3.797-4.212-5.865 3.786-2.784 8.254-4.307 14.204-3.081.892 1.956 1.62 3.996 2.571 5.92.8-.302 1.564-.255 1.345.946zm-.926-3.26c-.348-1.136-1.372-1.904-1.82-2.985 1.665.29 2.653 2.041 1.82 2.985zm1.516-1.446c1.019.336 1.69.032 2.813.566-.225 1.036-3.433.392-2.813-.566zm4.159 1.513c-.178-.113-.227-.295-.1-.573.85.1 1.105.517 1.668.77 3.304.988-.012.456-1.568-.197zm-1.048-1.94c-.95.043-2.003-.101-3.135-.395.01-.562-.407-.896-.052-1.641.965.116 2.381 1.061 3.06.643-.5-.774-2.373-.806-3.412-1.29-.732-1.624.485-4.296-1.076-5.474-.224.4.179.748-.221.745.012-.84-.932-1.165-1.048-1.936 1.486-.47 3.814.621 5.174-.081-1.885-1.042-4.99-.124-5.716-.89-.077.044-.304-.256-.157-.322a.561.561 0 00.157.322c.004-.003.012.005.016 0 .891-1.33 4.126.172 6.146-.602-2.592-1.378-5.418.244-6.87-1.512 2.226-.263 4.598-.251 7.592.909.614 3.43 1.096 6.925-.458 11.524zm2.664 1.067c.072-.248.148-.498.221-.746.759.634 2.75.603 2.767 1.638-.82-.363-2.07-1.236-2.988-.892zm.166-5.102c-.833 1.104-.284 1.898-.717 3.31-.51-1.674.324-5.18.613-6.594.422.4.292 1.095.626 1.542.39-.05.322-.947.794-.847 1.344 1.084 3.283 1.844 4.855 2.805-.513 1.88-1.37 3.13-2.159 4.508-1.242-.37-2.488-.745-3.733-1.116-.407-1.032.379-2.71-.279-3.608zm-.752-5.646c.686.254.932.749.624 1.54-.794-.198-.665-.894-.624-1.54zm1.92.844c1.268 1.4 4.214 1.896 4.88 3.626-1.232-.456-6.144-1.83-4.88-3.626zm-1.698-1.592c-.915-.55-.854-1.626-1.147-2.514 1.496.238.984 1.558 1.147 2.514zm.697-1.42c2.067 1.722 4.848 3.258 5.828 4.994-2.073-1.596-6.136-2.113-5.828-4.993zM6.87 320.58c-1.296-.848-4.168.87-6.417-.292 1.707.031 4.539-.934 6.417.292zm.623-1.17c.213.318 1.485 1.76.375 1.466-.41-.125.066-.732-.272-.894-4.26-1.702-6.688-.008-9.855.31 2.528-1.632 5.756-1.966 9.752-.881zM3.5 328.247c-.114.34-.047.584.024.824-.359-.024-.582.212-1.07-.048.144-.637.616-.67 1.046-.776zm.297 1.716c.13.77.276 1.527.403 2.29-.55-.327-1.03-.697-1.918-.84.406-.67.822-1.315 1.515-1.45zm-2.012 1.3c-.395-.275-1.552-.137-1.42-.695.732-.197.908-1.414 1.939-1.05.402.708-.456.79-.519 1.745zm1.439-3.908c-1 1.364-2.748 1.359-3.255 3.635-7.368-1.66-12.015 1.725-16.166 6.018 1.537-2.77 2.842-5.53 5.295-5.877.084-.093.18-.132.27-.053-.096.007-.178.04-.27.053-.232.264-.365.987-.026.944 2.473-4.183 6.042-6.337 9.244-9.17-3.846 1.255-5.891 5.847-9.72 7.13 2.473-3.55 6.48-6.281 8.848-8.747-3.394-.096-5.366 2.439-7.76 4.194 2.132-1.66 4.062-5.038 6.836-4.74 3.369.36 4.878 4.31 6.704 6.613zm-14.68 1.036c.864-1.919 3.814-3.96 4.225-4.16a86.592 86.592 0 01-4.623 4.587c.114-.18.152-.491.398-.427zm-.127-1.393c-1.175 1.822-2.06 4.177-3.353 5.778.916-2.298 1.9-4.474 3.353-5.778zm-.476 16.128c-1.043-.834-3.406-3.867-2.647-5.671-.31 2.413 2.898 3.977 2.647 5.67zm.672.47c1.09.022 1.003 1.13.375 1.468-.843-.37-.9-.842-.375-1.468zm.77-1.668c-1.18-.73-4.54-4.172-2.571-5.92-.031 2.33 3.058 4.032 2.57 5.92zm1.842 1.094c-.37-.043-.447.46-.721.597-.636-.147-.667-.617-.772-1.045.553-.32 1.325-.363 1.493.448zm6.216 14.596c-4.401-1.867-7.101-4.654-10.66-6.976 3.4-7.235 9.183-10.06 16.01-10.946 1.49 1.63 4.342 2.526 4.51 4.87-2.541-.923-3.364-3.888-6.125-3.996 1.673 1.462 3.841 2.654 4.584 4.62-2.295.43-3.806-3.795-6.452-3.822 1.865 1.29 2.932 3.01 5.31 4.024-.049.816-.652.603-.698 1.42.99.018 2.077-1.81 2.933-.75-2.375.494-4.568 3.382-6.112 4.138.341-.804 1.92-1.314 1.488-2.266-.828.14-1.363.825-1.839 1.618.512 3.03-2.316 2.706-2.805 4.856-3.3-1.694-5.432-4.024-8.565-5.81 1.538 3.064 6.138 4.48 8.444 7.129-3.767-.688-6.723-4.708-9.639-5.859 1.552 3.476 6.65 5.038 9.616 7.75zm-15.728-19.066c-1.437 7.328 2.355 16.734 7.392 20.647 1.617 1.255 3.452 1.847 4.857 2.803 1.287.876 2.402 2.238 3.962 3.08 3.621 1.97 8.745 3.392 12.297 4.216 8.536 1.982 17.503 1.76 24.485-.28 7.187-2.102 12.312-7.048 17.774-12.316 4.825-4.65 11.44-8.974 18.602-9.628 3.882-.358 7.491.782 10.948.558 5.107-.334 10.155-1.388 13.63-5.693 2.328.57 4.918 1.633 5.998-.108-.66-1.532-3.425-.645-4.58-1.91.051-2.322.566-4.898.188-6.993 1.311-1.308 4.438.742 5.474-1.076-1.504-1.026-4.504-1.698-5.874-1.212-4.164-7.124-12.104-13.142-22.664-14.901-9.405-1.567-17.4 3.912-23.628 9.216-2.692 2.29-5.614 4.195-7.93 6.577-6.884 7.084-13.996 14.315-23.694 14.886-6.23.366-10.769-4.771-12.43-8.32 9.046 4.185 15.628-7.706 11.978-13.775-.738-1.227-4.092-4.127-6.328-5.145-15.576-7.084-27.678 5.2-30.457 19.374" fill="#381400" transform="matrix(.4931 0 0 .4931 26.452 222.4)"/><path d="M-6.147 337.84c-.797-1.307-2.235-2.271-2.343-3.953.927.308 2.666 2.983 2.343 3.954M14.14 360.707c1.722.092 4.132-.59 5.425-.007-1.688-.028-4.055.73-5.425.007M39.985 354.055c-.93.219-2.055 2.104-2.833 1.323 1.062.024 2.22-1.8 2.833-1.323M54.596 337.811c-.972.908-2.523 2.794-3.456 2.494 1.22-1.103 3.366-2.086 3.581-3.812 1.13.433 1.387 1.337 1.47 2.336-.83.424-.765-.814-1.595-1.018M60.418 337.382c.25-.552-.634-.492-.522-.972.948-.265 3.456-1.47 3.332-1.172-.708.82-1.302 1.95-2.81 2.144" fill="#381400" transform="matrix(.4931 0 0 .4931 26.452 222.4)"/></g><use xlink:href="#a" transform="translate(47.484 2.72)" width="100%" height="100%"/><use xlink:href="#a" transform="translate(2.05 -30.068)" width="100%" height="100%"/><use xlink:href="#a" transform="translate(43.736 -23.235)" width="100%" height="100%"/><use xlink:href="#a" transform="translate(89.522 4.1)" width="100%" height="100%"/><use xlink:href="#a" transform="translate(88.155 -21.185)" width="100%" height="100%"/><use xlink:href="#a" transform="translate(5.467 -50.57)" width="100%" height="100%"/><use xlink:href="#a" transform="translate(51.253 -48.52)" width="100%" height="100%"/><use xlink:href="#a" transform="translate(94.989 -47.153)" width="100%" height="100%"/><use xlink:href="#a" transform="translate(.683 -150.342)" width="100%" height="100%"/><use xlink:href="#a" transform="translate(45.103 -152.392)" width="100%" height="100%"/><use xlink:href="#a" transform="translate(22.551 -173.576)" width="100%" height="100%"/><use xlink:href="#a" transform="translate(94.989 -155.809)" width="100%" height="100%"/><use xlink:href="#a" transform="translate(73.12 -178.36)" width="100%" height="100%"/><use xlink:href="#a" transform="translate(45.103 -199.544)" width="100%" height="100%"/><use xlink:href="#a" transform="translate(-4.1 -197.494)" width="100%" height="100%"/><use xlink:href="#a" transform="translate(96.355 -205.695)" width="100%" height="100%"/><use xlink:href="#a" transform="translate(126.424 -184.51)" width="100%" height="100%"/><use xlink:href="#a" transform="translate(-4.784 -365.604)" width="100%" height="100%"/><use xlink:href="#a" transform="translate(-4.784 -332.802)" width="100%" height="100%"/><use xlink:href="#a" transform="translate(40.319 -350.57)" width="100%" height="100%"/><use xlink:href="#a" transform="translate(65.604 -366.97)" width="100%" height="100%"/><use xlink:href="#a" transform="translate(9.567 -302.05)" width="100%" height="100%"/><use xlink:href="#a" transform="translate(36.902 -323.235)" width="100%" height="100%"/><use xlink:href="#a" transform="translate(62.187 -291.116)" width="100%" height="100%"/><use xlink:href="#a" transform="translate(80.638 -316.4)" width="100%" height="100%"/><use xlink:href="#a" transform="translate(99.772 -344.42)" width="100%" height="100%"/><use xlink:href="#a" transform="translate(513.212 1.367)" width="100%" height="100%"/><use xlink:href="#a" transform="translate(513.895 -25.285)" width="100%" height="100%"/><use xlink:href="#a" transform="translate(513.895 -53.986)" width="100%" height="100%"/><use xlink:href="#a" transform="translate(513.212 -84.738)" width="100%" height="100%"/><use xlink:href="#a" transform="translate(459.226 -10.25)" width="100%" height="100%"/><use xlink:href="#a" transform="translate(459.226 -37.585)" width="100%" height="100%"/><use xlink:href="#a" transform="translate(458.542 -64.237)" width="100%" height="100%"/><use xlink:href="#a" transform="translate(453.759 -92.255)" width="100%" height="100%"/><use xlink:href="#a" transform="translate(513.212 -115.49)" width="100%" height="100%"/><use xlink:href="#a" transform="translate(197.494)" width="100%" height="100%"/><use xlink:href="#a" transform="translate(242.597 -.683)" width="100%" height="100%"/><use xlink:href="#a" transform="translate(288.383 -1.367)" width="100%" height="100%"/><use xlink:href="#a" transform="translate(338.269 -4.1)" width="100%" height="100%"/><use xlink:href="#a" transform="translate(213.212 -21.868)" width="100%" height="100%"/><use xlink:href="#a" transform="translate(265.148 -25.968)" width="100%" height="100%"/><use xlink:href="#a" transform="translate(317.768 -25.968)" width="100%" height="100%"/><use xlink:href="#a" transform="translate(235.763 -50.57)" width="100%" height="100%"/><use xlink:href="#a" transform="translate(291.116 -53.303)" width="100%" height="100%"/><use xlink:href="#a" transform="translate(184.51 -368.337)" width="100%" height="100%"/><use xlink:href="#a" transform="translate(235.763 -371.07)" width="100%" height="100%"/><use xlink:href="#a" transform="translate(285.65 -366.97)" width="100%" height="100%"/><use xlink:href="#a" transform="translate(333.485 -364.237)" width="100%" height="100%"/><use xlink:href="#a" transform="translate(213.895 -349.886)" width="100%" height="100%"/><use xlink:href="#a" transform="translate(271.982 -348.52)" width="100%" height="100%"/><use xlink:href="#a" transform="translate(330.068 -342.369)" width="100%" height="100%"/><use xlink:href="#a" transform="translate(251.48 -328.018)" width="100%" height="100%"/><use xlink:href="#a" transform="translate(311.617 -316.4)" width="100%" height="100%"/><use xlink:href="#a" transform="translate(219.362 -230.296)" width="100%" height="100%"/><use xlink:href="#a" transform="translate(254.898 -211.845)" width="100%" height="100%"/><use xlink:href="#a" transform="translate(290.433 -192.027)" width="100%" height="100%"/><use xlink:href="#a" transform="translate(324.601 -169.476)" width="100%" height="100%"/><use xlink:href="#a" transform="translate(317.768 -227.563)" width="100%" height="100%"/><use xlink:href="#a" transform="translate(213.895 -184.51)" width="100%" height="100%"/><use xlink:href="#a" transform="translate(246.697 -166.06)" width="100%" height="100%"/><use xlink:href="#a" transform="translate(228.246 -136.674)" width="100%" height="100%"/><use xlink:href="#a" transform="translate(289.75 -142.825)" width="100%" height="100%"/><use xlink:href="#a" transform="translate(513.895 -365.604)" width="100%" height="100%"/><use xlink:href="#a" transform="translate(451.708 -366.97)" width="100%" height="100%"/><use xlink:href="#a" transform="translate(425.74 -346.47)" width="100%" height="100%"/><use xlink:href="#a" transform="translate(483.144 -344.42)" width="100%" height="100%"/><use xlink:href="#a" transform="translate(416.173 -325.285)" width="100%" height="100%"/><use xlink:href="#a" transform="translate(514.579 -331.435)" width="100%" height="100%"/><use xlink:href="#a" transform="translate(459.909 -323.235)" width="100%" height="100%"/><use xlink:href="#a" transform="translate(421.64 -308.884)" width="100%" height="100%"/><use xlink:href="#a" transform="translate(513.895 -308.884)" width="100%" height="100%"/><use xlink:href="#a" transform="translate(458.542 -304.784)" width="100%" height="100%"/><use xlink:href="#a" transform="translate(513.895 -261.048)" width="100%" height="100%"/><use xlink:href="#a" transform="translate(504.328 -237.13)" width="100%" height="100%"/><use xlink:href="#a" transform="translate(496.81 -214.579)" width="100%" height="100%"/><use xlink:href="#a" transform="translate(493.394 -192.71)" width="100%" height="100%"/><use xlink:href="#a" transform="translate(485.877 -169.476)" width="100%" height="100%"/><use xlink:href="#a" transform="translate(456.492 -252.164)" width="100%" height="100%"/><use xlink:href="#a" transform="translate(451.025 -227.563)" width="100%" height="100%"/><use xlink:href="#a" transform="translate(442.141 -204.328)" width="100%" height="100%"/><use xlink:href="#a" transform="translate(439.408 -179.043)" width="100%" height="100%"/></svg>