<svg xmlns="http://www.w3.org/2000/svg" xmlns:xlink="http://www.w3.org/1999/xlink" height="420" width="600"><g id="a" stroke-width=".297"><path d="M72.16 530.075c.539 1.073.037 1.964-.664 2.66-.627-.723-.13-2.34.664-2.66M95.46 532.07c1.08 1.945 4.39 5.1 4.659 5.657-1.466-1.755-4.839-3.367-4.66-5.656M96.79 517.432c.118.792 1.607 1.915.664 2.661-.312-.596-1.669-1.848-.663-2.661M95.793 536.063c.982.909 3.117 2.416 2.994 3.325-.884-1.67-3.851-3.019-3.661-4.655.003.66.906.422.667 1.33" fill="#fff" transform="matrix(.44955 0 0 .44955 -2.383 156.893)"/><path d="M97.12 514.772c-.603-1.027-.863-2.283 0-3.327-.251 1.162 1.01 2.512 0 3.327zm.667-35.93c-1.044 20.8-1.929 43.535-6.99 59.215 2.548-6.767 5.121-13.512 5.327-22.62 3.04 3.061 2.942 9.258 4.658 13.639-2.268-15.321-2.185-37.096-1-53.559-1.801-.034-.424 3.12-1.995 3.326M93.796 536.728c1.284.827 3.213 2.765 3.325 3.66-.972-1.205-4.03-1.86-3.325-3.66M75.488 537.061c.425.864.732 1.003.333 1.996-1.226.03-1.146-1.668-.333-1.996M76.488 541.717c.031 1.032-.153 1.847-.667 2.33-1.052-.767-.153-1.69.667-2.33M141.056 552.695c1.815 1.61 5.688 1.053 7.987 1.333-.664 1.886-3.875 1.225-6.323 1.33-.57-.562-2.943-2.42-1.664-2.663M122.085 534.733c-.034-2.68.5-7.114 1.667-9.65.692 3.245-.394 7.292-1.667 9.65zm1.33-.666c.482-.736.813.418 1-.332-.713-1.282-.318-4.302.665-4.991 1.257 3.561-.657 6.636-1.328 9.98-.977-1.314-.456-2.812-.337-4.657zm1.665 4.657c-.003 1.664 2.247 3.879.666 4.99-.875-1.257-1.797-3.567-.666-4.99zm1 .664c-1.89-2.33.29-6.85.997-9.647 1.513 2.862.24 6.824-.997 9.647zm1.995-7.983c-.269-1.877-1.829-4.425 0-5.654.478 1.782 1.083 4.022 0 5.654zm-1.662-5.322c-.654-1.004-1.224-4.13 0-4.99.575 1.415 1.062 3.702 0 4.99zm-.667 3.658c-.649-1.017-.76-2.566-.666-4.324 1.567.546 1.395 3.102.666 4.324zm-1.994 13.973c1.762.675 3.244 1.637 4.99 2.329-1.36-3.936-1.988-7.276-.334-11.31 1.539 2.02 1.76 4.664 2.663 5.987 1.295 1.899-.48-2.156-.666-4.325-.391-.054-.279-.605-.334-.998-.676-.099-.885-.666-1.33-.999-.057-1.612.44-2.665.667-3.99.89 1.436 1.354 3.301 1.997 4.99.425-1.983-1.672-4.314-1.664-6.988 3.25 4.404 4.228 11.205 7.452 15.637-1.04-5.84-2.526-13.151-6.526-17.964v-2.997c2.666 2.722 3.742 6.333 5.86 9.317-.227-5.32-6.464-7.576-5.722-14.971-1.045 1.397-.91 4.004-1.033 6.321-2.487-.022-.72-4.972-1.349-7.319-.528 1.137-.481 2.854-.675 4.326-1.895-.879-1.13-3.396-.998-5.656-1.156.068-.61 1.835-1.003 2.661-.312-.244-.505-.605-.666-.997.594 1.904-.055 6.004-.664 8.65-1.274-1.297-.408-4.082-.335-5.99-1.305-.307-.242 1.755-.997 1.996-.617-.05-.206-1.126-.667-1.33 1.11 5.792-2.411 12.427-.333 18.63 1.718-.959 1.44 4.473 1.667 4.99M104.777 534.733c-.245-1.64-.695-3.077-.997-4.658.078-2.096 1.507 4.028.997 4.658M109.106 545.044c1.877 3.342 6.958 7.039 10.98 4.325a8.097 8.097 0 01-1.33-1.33c-.03-4.295-4.448-8.774-2.33-11.976 1.83 3.605 1.143 9.725 4.328 11.976-.235-1.95-.101-2.546.664-3.992.112 1.608 1.06 2.24 0 3.326.57 1.087 1.31-1.3 1.334.332-5.888 8.936-16.946-2.629-16.31-8.317 1.942.883 1.599 3.763 2.664 5.656M145.717 545.376c-.62-1.439-2.128-5.33-1.666-5.655.494 1.563 2.13 5.332 1.666 5.655" fill="#fff" transform="matrix(.44955 0 0 .44955 -2.383 156.893)"/><path d="M131.071 550.034c-.624-1.762-1.328-3.705-1-5.654 1.177 1.375 1.274 3.828 2.665 4.99.104-1.007-.37-2.589.664-2.662.276 1.068 1.47 2.948.667 3.99-.206-.726-1.79-1.523-1.998-.33 1.006.887 2.956 2.58 4.328 1.995-.63-.772-1.368-1.404-.333-2.329 1.265 1.612 3.852 1.76 3.995 3.66-1.194.065-2.112-1.86-3.331-.665.637 1.47 2.71 1.505 3.664 2.662-5.67-1.657-10.969-5.447-13.646-8.983 2.281.984 2.5 2.277 4.325 3.326M98.787 532.403c-.033-1.31-2.484-1.934-1.666-2.993.396.949 2.404 2.017 1.666 2.993M92.463 540.055c.612 1.605 3.044 1.393 4.328 2.328-1.016-.016-1.696.303-1.998.998 4.081 2.147 6.11-2.796 7.987-4.99-.573-.2.028-1.577-.664-1.663-.07.372-.37.517-.667.665.93-1.217-1.174-2.877-.33-2.66.184.477.517.81.997.996.146-.628-.453-2.005.664-1.662.479 1.406.771 3 1 4.657-1.5 4.998-9.672 7.95-12.649 2.328.675-1.552 1.063-5.138 1.665-5.655-.67 2.287.708 2.913-.333 4.658M118.09 487.16c-.86-1.136-1.803-2.19-2.661-3.327 1.385.398 2.695 2.62 2.661 3.327M69.83 529.741c-.47-1.025-.401-2.608 1-2.66-.04 1.179.24 2.679-1 2.66M73.491 533.07c.172.916 1.482 2.783 0 3.325-.627-.7-1.11-2.755 0-3.326M71.496 526.416c-.742-2.15 1.346-4.144 1.995-5.99-.916 1.745-.302 5.02-1.995 5.99" fill="#fff" transform="matrix(.44955 0 0 .44955 -2.383 156.893)"/><path d="M77.816 507.785c.065-1.488.365-2.742 1.333-3.326-.015 1.536-.241 2.862-1.333 3.326zm1.667.334c-.901 3.254 2.21 6.593-.334 8.315-.007-2.642-1.763-6.587.334-8.315zm1.331 9.313c.2 1.203.552 2.22-.333 2.995-.568-.668-.485-2.696.333-2.995zm.333-4.99c-.453-1.969-.383-4.028.667-5.322.085 1.884.934 4.428-.667 5.323zm1.331 1.331c-.143 1.076.437 2.878-.664 2.995.143-1.077-.44-2.877.664-2.995zm0-13.638c-.172-2.17.505-3.488 1.33-4.659.136 2.132-.237 3.756-1.33 4.659zm1.33 0c-.09 1.79.345 4.113-.666 4.989-.69-1.602-.094-3.836.666-4.99zm.334 9.314c.326.858.705 2.635-.667 2.66-.02-1.132-.101-2.321.667-2.66zm.666 3.991c-.05 1.284.261 2.921-.666 3.328-.677-.92-.25-2.961.666-3.328zm.334-7.319c.076-2.362.906-3.972 1.664-5.653-.063 2.376-.075 4.804-1.664 5.653zm1.664.334c.019 2.236.125 4.561-1 5.654-.127-2.344.265-4.17 1-5.654zm.334 7.982c-.084 1.363.323 3.208-.667 3.661.08-1.36-.326-3.209.667-3.66zm-2.332-14.634c.084-4.505-.104-7.574 1.998-10.315.13 4.234.133 8.343-1.998 10.315zm-3.327 1.329c-.034 1.963.213 4.207-1.334 4.659-.15-2.15.638-3.358 1.334-4.66zm2.66 41.25c-.377 1.843-.755 3.682-1.996 4.658.387-1.83.828-3.61 1.997-4.657zm-9.32-8.98c1.412-2.694 2.211-5.997 3.332-8.983.145-.495.424.13.996 0 .237-1.233-.567-1.427-.333-2.663 2.868 4.832-4.4 10.823-2.328 15.97 1.544-5.554 3.675-10.52 4.993-16.302.872-.098.262 1.292 1.33.998-2.214 5.994-3.825 12.59-6.323 18.298 2.732-4.008 5.308-12.3 7.32-17.965.493-1.383.821-3.59 2.332-3.992-1.652 8.894-7.31 18.408-8.987 27.28 1.62-2.264 1.388-6.375 3.661-7.986 1.24 3.116-4.591 8.31-.667 9.982.195-3.687 2.206-5.559 2.995-8.651 1.271 2.376-1.394 6.29-2.661 8.317 4.57 1.6 7.692-4.014 6.659-6.985-1.443 1.664-1.105 5.11-2.998 6.32.24-2.459 2.078-6.101 2.998-8.983.387.055.278.607.33 1 3.39-6.26 4-15.297 5.326-23.62-3.076 8.127-4.128 18.275-7.988 25.615 1.47-9.954 5.607-20.12 7.988-30.273-1.578-2.436 1.648-7.588 1.663-11.643-4.862 13.17-6.53 27.495-12.645 39.255 2.528-13.108 9.135-26.794 11.315-40.252-2.495 4.158-3.243 10.064-4.66 15.301-.996-7.093 3.456-11.625 3.66-18.628-1.862 3.015-2.737 7.02-3.993 10.645-1.16-5.057 3.467-8.936 2.995-13.308-1.411 1.918-2.278 4.38-2.995 6.987-1.328-4.214 3.293-6.76 1.998-10.979-1.115.994-1.362 2.853-1.998 4.324-.427-3.822-.57-7.416-.33-10.644-2.808.968-2.396 5.15-4.664 6.652 1.205.088 2.606-2.49 3.33-3.992 1.188 5.184-3.752 7.117-3.994 11.976-.618-.049-.203-1.125-.664-1.33-1.503 3.269-2.86 6.68-4.328 9.981-.45-.103-.277-.833-.333-1.33-1.323 2.253-2.44 5.314-3.993 8.649-1.89 4.053-5.83 8.51-2.33 11.642 1.106-4.214 2.89-7.754 4.325-11.642 1.177 2.957-1.334 5.093-1.664 7.65 1.046-1.172 1.456-2.98 2.33-4.325.014 5.441-3.45 8.542-2.994 13.642 1.64-2.685 2.557-6.093 3.994-8.983 2.412 4.618-4.786 8.973-2 12.975M108.44 505.124c.955 3.925 2.637 8.895 2.66 12.641-.56-1.72-1.109-4.558-1.664-6.986-.417-1.83-1.546-6.262-.997-5.655M61.842 533.07c-1.14-.19-1.755-2.11-.667-2.662.366 1.033 1.245 1.55.667 2.661" fill="#fff" transform="matrix(.44955 0 0 .44955 -2.383 156.893)"/><path d="M74.821 505.124c2.578-4.917 3.834-11.087 8.32-13.307-5.473 8.83-10.21 18.403-14.976 27.944.243-5.106 4.167-9.89 6.656-14.637M132.07 450.899c-1.533-1.591-.074-5.196.666-6.654-.628 1.812.078 4.959-.667 6.654M68.502 526.748c-.844-1.238-.813-3.192 0-3.993.734 1.017 1.671 3.281 0 3.993M141.72 486.161c-1.79-1.316-6.036-1.944-6.323-3.66 1.356 1.752 6.216 1.77 6.323 3.66M56.85 512.776c-4.036 7.45-6.593 17.026-12.648 23.287 4.05-7.707 7.78-17.507 12.649-23.287M64.504 503.793c2.763-3.226 5.578-8.174 8.656-9.981-2.794 3.69-4.93 8.084-8.656 9.981M70.496 505.692c-1.294 5.741-5.93 10.55-8.32 16.292.351 2.459-.698 3.743-1.997 4.55-.41-1.709 1.437-3.867 1.996-5.2h-1c2.553-5.334 6.224-11.862 9.321-15.642M67.168 525.75c.669.785.878 2.226.334 3.326-1.873-.139-1.353-2.659-.334-3.325M75.488 501.132c-2.924 6.725-6.828 12.47-10.318 18.63 3.293-6.14 6.259-14.371 10.318-18.63M65.504 532.403c-.985-1.264-1.14-2.746.333-3.66.019 1.092.945 1.274.665 2.662-.628.036-.23 1.1-.998.998M66.835 523.42c-.362-.917-.662-2.87.333-3.327.79.831.745 2.683-.333 3.327M65.837 522.755c1.073 1.1.47 2.696-.667 3.328-.257-1.074-.695-1.967-1.333-2.663 1-.953.023-2.59 1-2.993.693.79-.286 1.924-.333 2.993.427.017.46.428 1 .333.052-.392-.057-.945.333-.998M62.175 526.748c.685-.647.646-2.015 1.332-2.663.622.71.544 2.12 1.33 2.663-.245.973-.802 1.633-1.33 2.328-.31-.91-1.021-1.417-1.332-2.328M137.064 545.044c1.161 1.278 1.904 2.976 2.328 4.99-1.33-.618-2.107-.506-3.328-.665-1.79-2.761-3.139-7.729-3.661-10.645 2.462 2.637 2.557 7.643 4.992 10.31.41-1.64-1.196-2.994-.331-3.99M142.387 551.365c-3.12-1.004-3.036-5.61-3.992-8.649-1.036-3.29-2.696-6.44-2.998-8.981 3.071 5.136 4.852 11.565 6.99 17.63M70.83 501.798c1.778-4.433 4.135-8.288 7.323-11.313-2.047 3.736-5.352 9.72-7.323 11.313M111.1 545.044c-1.26-3.301-3.857-8.76-3.328-11.642.094 4.675 3.956 7.355 3.329 11.642M107.108 518.098c2.24 10.955 3.948 22.446 9.317 30.273.017-4.136-4.21-8.638-3.658-13.306 2.08 4.24 3.658 8.983 4.992 13.97-2.546.328-3.271-1.166-4.662-1.995-1.666-9.532-5.26-17.14-6.989-26.613.31-.8.607-1.61 1-2.329M119.754 543.988c-.482-1.735-1.208-3.988-1.329-5.321h.998c-.195 1.333 2.435 4.609.33 5.321M117.425 531.073c-.015-2.761-1.869-5.448-1.33-7.653.48 1.517 1.143 2.85 1.995 3.995.471-1.529.128-3.868 1.664-4.329-.3 1.297-.605 2.842.666 3.33.415-1.363-.161-3.713 1.332-3.994-.488 2.122-.715 5.323-.665 6.988-.695-.994-.585 1.605-1.333 1.663-.325-2.124 1.136-4.166-.664-4.99-1.588 5.956 2.713 10.468 3.662 15.97-3.225-2.214-1.827-9.046-5.327-10.98M98.454 474.185c2.014.018 4.19.198 5.326-.665-.096 1.54-4.539 2.002-5.326.665M96.124 469.861c-.053-1.292 1.051-1.728 1.33-3.328.44-2.502-1.296-6.145.333-6.652.626 2.818 2.1 9.035-1.663 9.98M129.408 509.781c2.055 4.714 6.096 9.207 6.656 14.304-1.604-5.16-6.19-9.113-6.656-14.304M115.095 490.819c-1.018-.315-1.042-1.619-2.328-1.663-.133.572.492.853 0 .997-2.328-3.996-6.992-7.426-8.32-11.31 3.487 3.617 8.628 9.102 10.648 11.976M143.053 520.76c-1.713-2.062-4.732-4.583-4.658-7.32 1.189 2.584 4.01 5.305 4.658 7.32M96.457 472.19h-1.331c.136-.974 1.138-1.08 1.665-1.663.138.801-.607.722-.334 1.662" fill="#fff" transform="matrix(.44955 0 0 .44955 -2.383 156.893)"/><path d="M152.704 551.032c-.505-5.653-1.856-12.032-4.659-14.304-3.349-7.075-6.237-14.614-11.648-19.628-.016.457.156.73.331.998-2.33-3.103-4.703-7.938-5.657-11.312 2.26 3.175 3.854 7.017 6.324 9.982-3.227-9.083-10.079-16.319-14.643-22.956 5.968 6.674 12.236 13.053 15.31 22.622 4.043 5.603 7.913 11.385 9.983 18.963 1.662.013 1.448 3.642 2.662 2.994.209-2.32-1.914-4.067-1.331-5.656 2.456 6.012 8.985 21.314-.664 22.956.808-2.214 2.037-3.076 3.992-4.66M105.888 499.468c-.075-.565.779-.823.779 0v.335c2.666 10.606 3.541 21.392 5.877 32.6.107.407-.498 2.056-.777.999-.823-4.17-2.013-7.97-2.661-12.31-.805-.799 1.03-.882.553-2.33-1.904-5.857-2.427-12.876-3.771-19.294M87.806 481.504c.442-1.008 1.682-2.959 2.328-2.661-1.097.569-.815 2.512-2.328 2.661M91.796 491.484c.005-.883-.182-1.957.667-1.996-.006.883.184 1.959-.667 1.996M82.145 480.173c-2.305.69-4.037 1.954-6.324 2.662 1.177-1.6 4.576-2.742 6.324-2.662M97.787 474.85c-.835-.382-2.283-.157-2.328-1.33.772.448 2.488-.045 2.328 1.33M90.798 488.49c.19-2.09-1.784-4.169 0-4.988.07 1.408 1.617 4.006 0 4.987M74.158 499.468c3.195-4.233 5.398-11.237 9.65-13.307-3.674 3.758-6.143 10.491-9.65 13.307M71.827 493.148c3.307-3.248 7.455-9.17 10.318-10.646-3.672 3.093-6.834 8.47-10.318 10.646M91.796 481.17c.195.826 1.208 2.54.333 3.327-.13-1.024-1.854-2.695-.333-3.326M93.463 459.881c3.63.392 2.897 6.947 1.33 8.98-.612-2.824-.002-6.872-1.33-8.98M94.46 482.502c-.183 1.212 1.096 2.867-.334 3.327.31-1.081-1.291-3.062.333-3.327M95.46 486.495c.013 1.094.56 1.656.333 2.993-1.268-.367-.927-2.223-.334-2.993M93.13 474.85c-.457-.423-.514-1.629.333-1.662.452.422.512 1.628-.334 1.663M93.13 478.179c.134.665.822 2.465 0 2.992-.553-.987-.77-2.042 0-2.992M93.463 488.824c-.123-.683-1.112-2.181-.334-2.663-.063.864 1.063 2.23.334 2.663" fill="#fff" transform="matrix(.44955 0 0 .44955 -2.383 156.893)"/><path d="M138.395 528.744c-.26-1.084-1.768-2.653-1-3.66.297 1.05 1.398 3.02 1 3.66M140.392 528.744c-.812-3.295-3.607-6.373-3.664-9.316 1.257 2.848 3.47 6.51 3.664 9.316M144.05 549.703c.978-.135.269-1.952 1-2.33.454 1.766 1.602 2.835 1.665 4.99-1.79.235-2.727-.38-3.995-.665.23-4.667-2.787-7.857-2.661-11.31 2.008 2.427 3.716 5.156 3.992 9.315M145.717 541.052c-.518-1.181 1.128-.2.998-.997-1.716-5.614-5.643-12.534-6.656-16.635 4.536 7.888 9.562 17.052 9.648 28.278-2.066-2.612-1.307-9.754-3.99-10.646M64.173 532.07c.152.825 1.672 1.978.33 2.328.189-.883-1.367-1.693-.33-2.327M112.1 523.42c.568 3.095 1.579 5.741 1.997 8.983-1.884-1.364-2.075-7.866-1.996-8.983M71.496 538.39c.193.693.698 1.075.997 1.665H70.83c-.05-.826-.063-1.616.666-1.664M112.767 518.432c-.386-.439-.875-4.039-.333-2.33 1.731 5.591 3.731 12.68 4.325 18.296-2.257-3.954-2.7-9.718-4.658-13.971-.162-1.048 1.02-.754.666-1.995M59.514 534.733c.279.718.86 1.132.665 2.328-1.188.16-1.902-2.065-.665-2.328M119.423 503.46c-.435-1.57-2.281-3.48-1.998-4.656.597 1.403 2.806 2.95 1.998 4.656M129.741 507.785c-7.505-11.794-15.435-23.161-25.96-31.937 2.54 4.559 8.32 7.652 9.981 11.977-2.776-4.662-8.904-7.722-10.315-12.641 2.909.33 4.422 3.42 6.325 5.323 6.18 6.178 11.026 13.954 16.974 19.961.256 2.96 3.052 5.15 2.995 7.317M63.173 534.067c-.12 1.15 1.784 2.184.334 2.661-.553-.728-1.565-1.97-.334-2.661M65.17 538.057c.138.563 1.571 1.498.667 1.998-.138-.562-1.568-1.496-.667-1.998M69.83 536.063c.55.517.143 1.553-.332 1.994-.457-.425-.58-1.986.332-1.994M69.165 529.741c.221.755.86 2.79-.333 2.994-.589-1.008-1.016-2.43.333-2.994M61.175 538.057c1.082.252 1.449 1.218 1.334 2.663-1.08-.25-1.448-1.216-1.334-2.663M70.83 533.402c.546.515.14 1.551-.334 1.995-.567-.536-.304-1.714.334-1.995M65.837 535.73c1.073-.165 1.792 1.727.998 2.327-.149-.959-1.177-1.038-.998-2.328M67.835 532.735c.674.793.888 2.241 0 2.994-.727-.697-1.607-2.552 0-2.994M103.447 520.093c.031-2.177.708-4.125.667-6.653.733 6.476 2.56 13.63 2.994 19.295-1.307-4.127-1.589-9.28-2.994-13.307-.44.004-.306.586-.667.665M103.447 494.144c.721 7.87 4.213 15.97 2.995 23.621-1.449-7.202-3.782-15.293-2.995-23.621M61.842 544.047c-1.133-.102-1.81-2.386-.997-3.327.208 1.375 1.735 1.95.997 3.327M121.087 510.445c.503 2.163 2.31 4.784 1.998 6.655-.651-1.837-2.498-5.867-1.998-6.655M118.09 511.777c-.435-3.116-2.524-6.345-2.661-8.649 1.039 2.845 3.77 5.765 3.661 8.65-.088-.52-.73-.231-1 0M110.103 492.15c-1.45-2.32-3.07-6.24-3.328-8.648.989 2.514 3.036 5.813 3.328 8.647M110.77 494.144c-.029.105.023.23 0 .335 2.055 5.264 4.677 11.736 5.655 16.966-1.604-4.001-6.554-14.133-5.656-17.301M44.202 546.043c1.302-3.827 3.74-7.83 3.662-11.976 6.26-9.158 10.526-22.082 17.973-28.943-3.279 4.596-6.466 9.285-8.32 15.303-6.24 6.958-9.17 17.229-12.648 26.946-1.722-.498-2.425-2.012-2.662-3.992 2.135-.58.529 2.578 1.995 2.662M116.095 491.817c3.696 5.51 9.24 10.944 11.315 16.967-3.406-5.801-8.833-11.353-11.315-16.967" fill="#fff" transform="matrix(.44955 0 0 .44955 -2.383 156.893)"/><path d="M70.163 502.796c0-.187.27-.379.333 0-2.783 5.284-8.836 10.677-10.649 17.63-.111.426.401 1.24.332 1.665-.514 3.04-3.032 6.29-4.328 8.982-1.535 3.188-3.582 6.39-4.326 9.315-.617 2.422-.362 7.055-2.995 7.983-.505-3.171 3.302-6.675 2.33-10.314-2.382 2.279-2.49 6.828-4.328 9.648 5.165-17.902 14.024-32.114 22.966-46.24.073.588-.335 1.667.665 1.33M58.514 537.061c.14.835 1.818 1.832.333 2.327.105-.8-1.452-1.61-.333-2.327" fill="#fff" transform="matrix(.44955 0 0 .44955 -2.383 156.893)"/><path d="M58.514 532.07c.105-.766-.96-.368-.997-.997.628-.038.23-1.101.997-.998-.094.582.938 1.66 0 1.996M57.184 535.73c-1.92 4.07-3.352 8.625-5.659 12.309 1.177-4.548 2.026-10.27 4.992-13.972-.248 1.024.914.638.667 1.662M59.514 527.08c.469.727 1.021 1.79 0 2.33-.312-.282-.713-2.122 0-2.33M57.184 541.717c-1.615 1.214-.089 4.066-2.995 4.326.69-1.75 1.146-3.734 2.328-4.99.07.374.37.518.667.664M56.517 533.07c.687-.094.313-1.242 1-1.331.336.596 1.274 2.041 0 2.328-.036-.63-1.102-.231-1-.998M105.775 496.143c-1.305-4.019-3.17-9.25-2.995-13.641.778 4.545 3.424 8.996 2.995 13.64M102.449 476.848c1.964 6.795 6.542 12.752 6.657 20.29-2.108-4.61-3.576-10.854-5.326-15.634-.6-1.633-2.021-3.248-1.331-4.656M71.827 536.063c1.234.15 2.091 2.092 1 2.661-.424-.797-1.217-1.226-1-2.661M113.097 481.837c-.046.442 1.12 1.238.334 1.33-1.617-1.96-5.08-5.53-5.659-6.32 1.177.594 8.084 6.663 5.325 4.99M100.782 489.82c.97 3.71 1.966 10.876 1.334 13.973.377-5.261-2.235-9.297-1.334-13.973M100.782 500.135c-.075 5.732 1.938 11.149 1.667 15.966-1.47-3.997-2.963-11.405-1.667-15.966M105.444 468.861c.657-1.147-.25-6.053 0-7.65 1.343 1.278 2.341 6.656 0 7.65" fill="#fff" transform="matrix(.44955 0 0 .44955 -2.383 156.893)"/><path d="M41.409 539.141c.073-1.288.445-2.698 1.198-4.22a23.484 23.484 0 012.395-3.818c.112-.27.229-.535.347-.8 2.065-6.63 6.53-12.3 10.678-17.814 3.507-4.66 7.843-11.116 12.805-15.626 2.98-5.07 6.137-9.898 11.095-13.083 1.993-2.483 4.02-4.765 6.62-6.405a41.824 41.824 0 013.11-3.57c.327-.996 1.213-1.84 2.288-2.15.413-.355.826-.712 1.258-1.054.955-.753 1.984-.618 2.781-.052.798-2.833 1.07-5.596.243-7.992-.71-2.054 1.645-4.138 3.584-3.068 2.535 1.4 3.097 3.216 3.11 6.048.013 2.65 2.183 3.78 1.393 6.348.026.001.058.001.084.004 1.742.193 2.573 1.94 2.344 3.495 1.94.681 3.797 1.595 5.486 2.771 2.63 1.83 4.38 4.448 5.966 7.215 3.11 2.423 5.843 5.165 7.504 8.654 4.828 2.357 7.802 7.746 10.38 12.258 3.033 5.305 6.74 10.478 8.286 16.397.023.017.052.028.072.048 2.313 2.17 4.772 6.066 6.399 10.285 1.512 3.006 2.772 7.048 3.074 10.75 1.127 2.004 1.231 4.952.963 6.937-.317 2.348-1.284 3.824-2.672 4.659-.1 1.354-1.244 2.664-2.719 2.824-2.932.317-5.556-.304-8.068-1.308-4.486-.607-10.103-4.163-12.195-5.881a2.38 2.38 0 01-.81-1.34 3.648 3.648 0 01-1.048-.548c-1.215-.94-2.535-1.875-3.877-2.833-1.098 4.09-5.437 6.658-10.704 4.624-3.901-1.508-6.618-5.633-8.548-10.176l-.24.128c-.324 1.875-1.605 3.605-4.222 4.43-5.205 1.642-8.25-.027-9.782-3.088-.29.376-.617.67-.973.876-.86 1.787-1.96 3.453-3.49 4.909-1.49 1.418-3.407 1.143-4.52-.292-.71.347-1.529.525-2.477.448-3.868-.317-4.605-4.493-4.724-7.833-.041-.224-.085-.444-.117-.68a37.55 37.55 0 01-.05-.41c-3.197 4.019-7.55 7.112-11.65 7.973-.433.09-.87.138-1.306.183-.47.412-.983.782-1.537 1.112-.87.631-1.735 1.122-2.527 1.422-1.318.498-2.577.632-3.749.478-5.052.398-10.296-1.532-11.627-6.09-.565-1.928-.439-3.647.169-5.144" fill="#b4a8e3" transform="matrix(.44955 0 0 .44955 -2.383 156.893)"/><path d="M92.297 528.09c1.588-6.237 1.673-12.706 4.418-18.62.023-.053.064-.09.095-.134.476-10.345-.333-21.076 1.221-31.29.16-1.053 1.591-.79 1.731.131 1.806 11.915.733 24.798.63 36.833-.05 5.943 2.077 12.931 1.853 19.26.096.22.18.455.232.728.093.504.172.971.237 1.44.534.829.66 1.9.01 3.038-2.583 4.527-11.477 7.221-12.181-.262-.36-3.805.824-7.475 1.754-11.125M58.759 530.217c.1.16.178.297.263.436a7.052 7.052 0 01-.226-1.312c-.184-2.49-.721-4.893-.76-7.4-.03-2.124 2.496-4.074 4.399-3.041.024-.719.075-1.441.18-2.173.359-2.495 3.793-3.127 5.256-1.302.206-1.341.565-2.68 1.155-4.022.555-1.262 1.91-1.508 2.982-1.042.096-3.87.43-7.733.2-11.634-.073-1.247 1.922-1.675 2.196-.402 1.202 5.584.527 11.187 1.043 16.838.566 6.212 2.074 12.32 2.776 18.522.236 2.094-2.794 2.459-3.476.635-.29-.777-.54-1.564-.766-2.356a21.941 21.941 0 01-.195 1.97c-.424 2.82-3.921 2.857-5.391.994-.172-.218-.322-.442-.473-.664-.904.359-2 .313-2.925-.21-.338 1.795-1.132 3.349-2.728 4.368-4.58 2.934-8.242-2.708-8.084-6.736.091-2.35 3.17-3.734 4.574-1.469M108.285 499.647c.44-1.62 2.857-1.951 3.382-.178.955 3.231 1.397 6.595 1.763 9.962 1.601-1.124 4.11-.756 4.579 1.613.05.253.086.956.13.956h.01s0-.144.003-.123c.316 1.874.467 3.682.53 5.598.06-.37.13-.782.216-1.134.643-2.622 3.81-3.065 5.358-1.013 4.789 6.352.802 14.079 1.316 20.988 1.07-3.839.845-8.776 2.228-11.964.841-1.938 3.396-1.33 4.085.313.798 1.904.134 10.123 1.466 10.856 1.495.822.743 3.263-.995 2.87a3.492 3.492 0 01-1.81-1.03c-.494 2.772-1.474 5.354-3.781 7.418-1.335 1.194-3.422 1.317-4.479-.367-.892-1.424-1.378-2.94-1.624-4.51-.208.263-.408.529-.644.783-1.638 1.758-4.264 1.001-5.111-1.101-.938-2.325-1.431-4.692-1.696-7.084-.542-.244-1.023-.605-1.325-1.085-2.404-3.815-2.807-8.11-3.358-12.495-.808-6.427-1.974-12.903-.242-19.273" fill="#796bb0" transform="matrix(.44955 0 0 .44955 -2.383 156.893)"/><path d="M103.058 477.437c6.679 1.516 11.632 7.542 16.006 12.444 5.526 6.195 10.35 13.041 14.713 20.09 4.683 7.56 8.494 15.52 12.426 23.474 2.346 4.747 5.642 9.715 3.513 15.083-.675 1.703-2.956.83-3.164-.663-.861-6.168-5.264-11.767-8.173-17.17a348.653 348.653 0 00-11.284-19.424c-3.642-5.84-7.849-11.4-12.338-16.606-4.27-4.95-10.162-8.82-13.725-14.286-.906-1.393.387-3.314 2.026-2.942M84 524.481c.675-4.328.922-8.71 1.583-13.04.828-5.413 1.723-10.804 2.76-16.182.732-3.778.917-7.43 3.558-10.368.929-1.034 2.456-.107 2.288 1.157-1.246 9.366-1.646 18.98-2.716 28.403-.57 5.005.51 15.914-4.476 18.793-1.38.797-2.75.133-3.378-1.22-1.148-2.479-.024-4.947.381-7.543" fill="#d1cce3" transform="matrix(.44955 0 0 .44955 -2.383 156.893)"/><path d="M78.097 524h-.007c1.112-6.667.888-14.983 4.316-21.285.842-1.548 2.749-.634 2.839.704.02-.007.042.024.063.017-.023 7.153-.357 14.797-1.622 21.859-.676 3.774-6.33 2.705-5.589-1.295M96.781 470.644c.193-.934 1.021-1.305 1.887-1.237.67.05 1.274.31 1.902.534.185.067.388.134.682.242.099.036.766.282.374.173.636.177 1.121.661 1.156 1.347.032.59-.376 1.345-1.009 1.46-1.394.254-2.877-.174-4.143-.767-.646-.304-.99-1.064-.849-1.752" fill="#d1cce3" transform="matrix(.44955 0 0 .44955 -2.383 156.893)"/><path d="M86.806 489.488c.13 4.234.133 8.343-1.998 10.315.084-4.505-.104-7.574 1.998-10.315M83.808 495.476c.136 2.132-.237 3.756-1.33 4.659-.172-2.17.505-3.488 1.33-4.659M83.142 505.124c-.69-1.602-.094-3.836.666-4.99-.09 1.791.345 4.114-.666 4.99M85.142 506.121c.076-2.362.906-3.972 1.664-5.653-.063 2.376-.075 4.804-1.664 5.653M80.147 505.79c-.15-2.15.638-3.357 1.334-4.658-.034 1.963.213 4.207-1.334 4.659M79.15 504.459c-.016 1.536-.242 2.862-1.334 3.326.065-1.488.365-2.742 1.333-3.326M85.806 512.11c-.127-2.345.265-4.171 1-5.655.019 2.236.125 4.561-1 5.654M81.814 507.12c.085 1.884.934 4.428-.667 5.323-.453-1.97-.383-4.03.667-5.323M79.483 508.119c-.901 3.254 2.21 6.593-.334 8.315-.007-2.642-1.763-6.587.334-8.315M84.142 509.45c.326.857.705 2.634-.667 2.66-.02-1.133-.101-2.322.667-2.66M97.12 514.772c-.603-1.027-.863-2.283 0-3.327-.251 1.162 1.01 2.512 0 3.327M84.808 513.44c-.05 1.284.261 2.921-.666 3.328-.677-.92-.25-2.961.666-3.328M82.478 513.773c-.143 1.076.437 2.878-.664 2.995.143-1.077-.44-2.877.664-2.995M87.14 514.437c-.084 1.363.323 3.208-.667 3.661.08-1.36-.326-3.209.667-3.66M80.814 517.432c.2 1.203.552 2.22-.333 2.995-.568-.668-.485-2.696.333-2.995M126.413 521.092c.575 1.416 1.062 3.703 0 4.99-.654-1.003-1.224-4.129 0-4.99M123.752 525.084c.692 3.244-.394 7.29-1.667 9.65-.034-2.682.5-7.115 1.667-9.65M125.746 529.741c-.649-1.017-.76-2.566-.666-4.324 1.567.546 1.395 3.102.666 4.324M128.075 525.75c.478 1.783 1.083 4.023 0 5.655-.269-1.877-1.829-4.425 0-5.654M124.415 533.735c-.713-1.282-.318-4.302.665-4.991 1.257 3.561-.657 6.636-1.328 9.98-.977-1.314-.456-2.812-.337-4.657.482-.736.813.418 1-.332M127.077 529.741c1.513 2.862.24 6.824-.997 9.647-1.89-2.33.29-6.85.997-9.647M125.746 543.714c-.875-1.257-1.797-3.567-.666-4.99-.003 1.664 2.247 3.879.666 4.99M82.145 547.04c.387-1.83.828-3.61 1.997-4.657-.378 1.842-.756 3.681-1.997 4.657" fill="#381400" transform="matrix(.44955 0 0 .44955 -2.383 156.893)"/><path d="M42.207 543.381c2.135-.58.529 2.578 1.995 2.662 1.302-3.827 3.74-7.83 3.662-11.976 6.26-9.158 10.526-22.082 17.973-28.943-3.279 4.596-6.466 9.285-8.32 15.303-6.24 6.958-9.17 17.229-12.648 26.946-1.722-.498-2.425-2.012-2.662-3.992zm4.325 4.324c5.165-17.902 14.024-32.114 22.966-46.24.073.588-.335 1.667.665 1.33 0-.186.27-.378.333 0-2.783 5.285-8.836 10.678-10.649 17.632-.111.425.401 1.24.332 1.664-.514 3.04-3.032 6.29-4.328 8.982-1.535 3.188-3.582 6.39-4.326 9.315-.617 2.422-.362 7.055-2.995 7.983-.505-3.171 3.302-6.675 2.33-10.314-2.382 2.279-2.49 6.828-4.328 9.648zm4.993.334c1.177-4.548 2.026-10.27 4.992-13.972-.248 1.024.914.638.667 1.662-1.92 4.071-3.352 8.626-5.659 12.31zm2.664-1.996c.69-1.75 1.146-3.734 2.328-4.99.07.374.37.518.667.664-1.615 1.214-.089 4.066-2.995 4.326zm2.328-12.974c.687-.093.313-1.24 1-1.33.336.596 1.274 2.041 0 2.328-.036-.63-1.102-.231-1-.998zm1.997 3.992c.14.835 1.818 1.832.333 2.327.105-.8-1.452-1.61-.333-2.327zm0-4.99c.105-.767-.96-.37-.997-.998.628-.038.23-1.101.997-.998-.094.582.938 1.66 0 1.996zm1-2.66c-.312-.283-.713-2.123 0-2.33.469.726 1.021 1.79 0 2.33zm.665 7.65c-1.188.16-1.902-2.065-.665-2.328.279.718.86 1.132.665 2.328zm.666 3.659c.208 1.375 1.735 1.95.997 3.327-1.133-.102-1.81-2.386-.997-3.327zm1.664 0c-1.08-.25-1.448-1.216-1.334-2.663 1.082.252 1.449 1.218 1.334 2.663zm.664-6.653c-.12 1.15 1.784 2.184.334 2.661-.553-.728-1.565-1.97-.334-2.661zm1.33.331c.189-.883-1.367-1.693-.33-2.327.152.824 1.672 1.977.33 2.327zm.667 3.66c.138.562 1.571 1.497.667 1.997-.138-.562-1.568-1.496-.667-1.998zm1.665 0c-.149-.96-1.177-1.04-.998-2.329 1.073-.164 1.792 1.728.998 2.328zm1-2.329c-.727-.697-1.607-2.552 0-2.994.674.793.888 2.241 0 2.994zm.997-2.994c-.589-1.008-1.016-2.43.333-2.994.221.755.86 2.79-.333 2.994zm.998 3.328c.55.517.143 1.553-.332 1.994-.457-.425-.58-1.986.332-1.994zm1-2.661c.546.515.14 1.551-.334 1.995-.567-.536-.304-1.714.334-1.995zm.666 4.989c.193.692.698 1.074.997 1.664H70.83c-.05-.826-.063-1.616.666-1.664zm.33-2.328c1.235.15 2.092 2.092 1 2.661-.423-.797-1.216-1.226-1-2.661zm1.665.332c-.627-.7-1.11-2.755 0-3.326.172.917 1.482 2.784 0 3.326zm-1.995-9.979c-.742-2.15 1.346-4.144 1.995-5.99-.916 1.745-.302 5.02-1.995 5.99zm0 6.319c-.627-.723-.13-2.34.664-2.66.539 1.073.037 1.964-.664 2.66zm-1.666-2.994c-.47-1.025-.401-2.608 1-2.66-.04 1.179.24 2.679-1 2.66zm4.991 3.66c-2.786-4.001 4.412-8.356 2-12.974-1.437 2.89-2.353 6.298-3.994 8.983-.456-5.1 3.008-8.2 2.994-13.642-.874 1.346-1.284 3.153-2.33 4.325.33-2.557 2.84-4.693 1.664-7.65-1.435 3.888-3.219 7.428-4.325 11.642-3.5-3.133.44-7.59 2.33-11.642 1.553-3.335 2.67-6.396 3.993-8.65.056.498-.118 1.228.333 1.331 1.468-3.302 2.825-6.712 4.328-9.981.461.205.046 1.281.664 1.33.242-4.86 5.182-6.792 3.995-11.976-.725 1.501-2.126 4.08-3.331 3.992 2.268-1.503 1.856-5.684 4.664-6.652-.24 3.228-.097 6.822.33 10.644.636-1.47.883-3.33 1.998-4.324 1.295 4.219-3.326 6.765-1.998 10.979.717-2.608 1.584-5.07 2.995-6.987.472 4.372-4.156 8.251-2.995 13.308 1.256-3.625 2.131-7.63 3.993-10.645-.204 7.003-4.656 11.535-3.66 18.628 1.417-5.237 2.165-11.143 4.66-15.301-2.18 13.458-8.787 27.144-11.315 40.252 6.115-11.76 7.783-26.084 12.645-39.255-.015 4.055-3.241 9.207-1.663 11.643-2.38 10.153-6.519 20.32-7.988 30.273 3.86-7.34 4.912-17.488 7.988-25.615-1.326 8.323-1.936 17.36-5.326 23.62-.052-.393.057-.945-.33-1-.92 2.882-2.759 6.524-2.998 8.983 1.893-1.21 1.555-4.656 2.998-6.32 1.033 2.97-2.089 8.584-6.66 6.985 1.268-2.026 3.933-5.941 2.662-8.317-.79 3.092-2.8 4.964-2.995 8.65-3.924-1.671 1.906-6.865.667-9.98-2.273 1.61-2.042 5.72-3.661 7.985 1.677-8.872 7.335-18.386 8.987-27.28-1.51.402-1.839 2.609-2.332 3.992-2.012 5.665-4.588 13.957-7.32 17.965 2.498-5.708 4.11-12.304 6.323-18.298-1.068.294-.458-1.095-1.33-.998-1.318 5.783-3.449 10.748-4.993 16.303-2.073-5.148 5.196-11.139 2.328-15.971-.234 1.236.57 1.43.333 2.663-.572.13-.851-.495-.996 0-1.12 2.986-1.92 6.289-3.332 8.983zm.667 3.66c.425.864.732 1.003.333 1.996-1.226.03-1.146-1.668-.333-1.996zm1 4.656c.031 1.032-.153 1.847-.667 2.33-1.052-.767-.153-1.69.667-2.33zm14.31-3.66c5.06-15.68 5.945-38.414 6.99-59.214 1.57-.206.193-3.36 1.994-3.326-1.185 16.463-1.268 38.238 1 53.559-1.716-4.381-1.619-10.578-4.658-13.639-.206 9.108-2.779 15.853-5.326 22.62zm6.323 2.331c-.972-1.205-4.03-1.86-3.325-3.66 1.284.827 3.213 2.765 3.325 3.66zm-1.995-5.655c.003.66.906.422.667 1.33.982.909 3.117 2.416 2.994 3.325-.884-1.67-3.851-3.019-3.661-4.655zm4.993 2.994c-1.466-1.755-4.839-3.367-4.66-5.656 1.082 1.944 4.392 5.1 4.66 5.656zm-2.665-17.634c-.312-.596-1.669-1.848-.663-2.661.117.792 1.606 1.915.663 2.661zm1.333 12.31c-.033-1.31-2.484-1.934-1.666-2.993.396.949 2.404 2.017 1.666 2.993zm-7.656 8.65c.675-1.553 1.063-5.14 1.665-5.656-.67 2.287.708 2.913-.333 4.658.612 1.605 3.044 1.393 4.328 2.328-1.016-.016-1.696.303-1.998.998 4.081 2.147 6.11-2.796 7.987-4.99-.573-.2.028-1.577-.664-1.663-.07.372-.37.517-.667.665.93-1.217-1.174-2.877-.33-2.66.184.477.517.81.997.996.146-.628-.453-2.005.664-1.662.479 1.406.771 3 1 4.657-1.5 4.998-9.672 7.95-12.649 2.328zm12.65-10.978c.077-2.096 1.506 4.028.996 4.658-.245-1.64-.695-3.077-.997-4.658zm2.66 9.313c1.943.883 1.6 3.763 2.665 5.656 1.877 3.342 6.958 7.039 10.98 4.325a8.097 8.097 0 01-1.33-1.33c-.03-4.295-4.448-8.774-2.33-11.976 1.83 3.605 1.143 9.725 4.328 11.976-.235-1.95-.101-2.546.664-3.992.112 1.608 1.06 2.24 0 3.326.57 1.087 1.31-1.3 1.334.332-5.888 8.936-16.946-2.629-16.31-8.317zm15.644-.664c-2.078-6.203 1.442-12.838.333-18.63.461.204.05 1.28.667 1.33.755-.241-.308-2.303.997-1.996-.073 1.908-.939 4.693.335 5.99.609-2.646 1.258-6.746.664-8.65.161.392.354.753.666.997.394-.826-.153-2.593 1.003-2.66-.133 2.259-.897 4.776.998 5.655.194-1.472.147-3.19.675-4.326.628 2.347-1.138 7.297 1.35 7.32.122-2.318-.013-4.925 1.032-6.322-.742 7.395 5.495 9.652 5.722 14.97-2.118-2.983-3.194-6.594-5.86-9.316v2.997c4 4.813 5.486 12.125 6.526 17.964-3.224-4.432-4.202-11.233-7.452-15.637-.008 2.674 2.089 5.005 1.664 6.987-.643-1.688-1.107-3.553-1.997-4.99-.227 1.326-.724 2.38-.667 3.991.445.333.654.9 1.33 1 .055.392-.057.943.334.997.185 2.169 1.96 6.224.666 4.325-.903-1.323-1.124-3.968-2.663-5.987-1.654 4.034-1.027 7.374.333 11.31-1.745-.692-3.227-1.654-4.99-2.33-.226-.516.052-5.948-1.666-4.989zm4.661 7.984c2.281.984 2.5 2.277 4.325 3.326-.624-1.762-1.328-3.705-1-5.654 1.177 1.375 1.274 3.828 2.665 4.99.104-1.007-.37-2.589.664-2.662.276 1.068 1.47 2.948.667 3.99-.206-.726-1.79-1.523-1.998-.33 1.006.887 2.956 2.58 4.328 1.995-.63-.772-1.368-1.404-.333-2.329 1.265 1.612 3.852 1.76 3.995 3.66-1.194.065-2.112-1.86-3.331-.665.637 1.47 2.71 1.505 3.664 2.662-5.67-1.657-10.969-5.447-13.646-8.983zm14.31 5.987c1.815 1.61 5.688 1.053 7.987 1.333-.664 1.886-3.875 1.225-6.323 1.33-.57-.562-2.943-2.42-1.664-2.663zm2.995-12.974c.494 1.563 2.13 5.332 1.666 5.655-.62-1.439-2.128-5.33-1.666-5.655zm-6.656-14.637c.297 1.05 1.398 3.02 1 3.66-.26-1.084-1.768-2.653-1-3.66zm-.667-5.656c1.257 2.848 3.47 6.51 3.664 9.316-.812-3.295-3.607-6.373-3.664-9.316zm12.315 20.293c.032.434-.742-2.245 0-.333.75 3.247 2.761 7 2 10.646-.635-2.889-1.802-7.613-2-10.313zm.664 11.977c-2.066-2.612-1.307-9.754-3.99-10.646-.518-1.181 1.128-.2.998-.997-1.716-5.614-5.643-12.534-6.656-16.635 4.536 7.888 9.562 17.052 9.648 28.278zm-9.648-11.31c2.008 2.427 3.716 5.156 3.992 9.315.977-.135.268-1.952 1-2.33.453 1.766 1.601 2.835 1.664 4.99-1.79.235-2.727-.38-3.995-.665.23-4.667-2.787-7.857-2.661-11.31zm-1.664 2.328c-1.036-3.29-2.696-6.44-2.998-8.981 3.071 5.136 4.852 11.565 6.99 17.63-3.12-1.004-3.036-5.61-3.992-8.649zm-1.331 2.328c1.161 1.278 1.904 2.976 2.328 4.99-1.33-.618-2.107-.506-3.328-.665-1.79-2.761-3.139-7.729-3.661-10.645 2.462 2.637 2.557 7.643 4.992 10.31.41-1.64-1.196-2.994-.331-3.99zm11.648 10.647c.808-2.214 2.037-3.076 3.992-4.66-.505-5.652-1.856-12.031-4.659-14.303-3.349-7.075-6.237-14.614-11.648-19.628-.016.457.156.73.331.998-2.33-3.103-4.703-7.938-5.657-11.312 2.26 3.175 3.854 7.017 6.324 9.982-3.227-9.083-10.079-16.319-14.643-22.956 5.968 6.674 12.236 13.053 15.31 22.622 4.043 5.603 7.913 11.385 9.983 18.963 1.662.013 1.448 3.642 2.662 2.994.209-2.32-1.914-4.067-1.331-5.656 2.456 6.012 8.985 21.314-.664 22.956zm-5.659-34.931c-1.713-2.062-4.732-4.583-4.658-7.32 1.189 2.584 4.01 5.305 4.658 7.32zm-6.989 3.325c-1.604-5.16-6.19-9.113-6.656-14.304 2.055 4.714 6.096 9.207 6.656 14.304zm-9.318-23.617c.256 2.96 3.052 5.15 2.995 7.317-7.505-11.794-15.435-23.161-25.96-31.937 2.54 4.559 8.32 7.652 9.981 11.977-2.776-4.662-8.904-7.722-10.315-12.641 2.909.33 4.422 3.42 6.325 5.323 6.18 6.178 11.026 13.954 16.974 19.961zm-8.656-13.308c-.86-1.136-1.803-2.19-2.661-3.327 1.385.398 2.695 2.62 2.661 3.327zm-4.993-5.323c-.046.442 1.12 1.238.334 1.33-1.617-1.96-5.08-5.53-5.659-6.32 1.177.594 8.084 6.663 5.325 4.99zm-7.653-12.976c.657-1.147-.25-6.053 0-7.65 1.343 1.278 2.341 6.656 0 7.65zm-2.995 47.24c-1.47-3.997-2.963-11.405-1.667-15.966-.075 5.732 1.938 11.149 1.667 15.966zm-1.667-26.281c.97 3.71 1.966 10.876 1.334 13.973.377-5.261-2.235-9.297-1.334-13.973zm1.667-12.972c1.964 6.795 6.542 12.752 6.657 20.29-2.108-4.61-3.576-10.854-5.326-15.634-.6-1.633-2.021-3.248-1.331-4.656zm.331 5.654c.778 4.545 3.424 8.996 2.995 13.64-1.305-4.018-3.17-9.25-2.995-13.64zm.667 11.642c.721 7.87 4.213 15.97 2.995 23.621-1.449-7.202-3.782-15.293-2.995-23.621zm3.661 38.59c-1.307-4.126-1.589-9.28-2.994-13.306-.44.004-.306.586-.667.665.031-2.177.708-4.125.667-6.653.733 6.476 2.56 13.63 2.994 19.295zm6.99-.331c-1.885-1.364-2.076-7.866-1.997-8.983.567 3.095 1.578 5.741 1.996 8.983zm2.66 1.995c-2.256-3.954-2.7-9.718-4.657-13.971-.162-1.048 1.02-.754.666-1.995-.386-.439-.875-4.039-.333-2.33 1.731 5.591 3.731 12.68 4.325 18.296zm6.327-17.298c-.651-1.837-2.498-5.867-1.998-6.655.503 2.163 2.31 4.784 1.998 6.655zm-6.99-25.283c3.696 5.51 9.24 10.944 11.315 16.967-3.406-5.801-8.833-11.353-11.315-16.967zm1.33 6.987c.597 1.403 2.806 2.95 1.998 4.656-.435-1.57-2.281-3.48-1.998-4.656zm-1.996 4.324c1.039 2.845 3.77 5.765 3.661 8.65-.088-.52-.73-.231-1 0-.435-3.117-2.524-6.346-2.661-8.65zm.996 8.317c-1.604-4.001-6.554-14.133-5.656-17.301-.028.105.024.23 0 .335 2.056 5.264 4.678 11.736 5.656 16.966zm-6.322-19.296c-1.45-2.32-3.07-6.24-3.328-8.647.989 2.514 3.036 5.813 3.328 8.647zm-5.656-13.306c3.487 3.617 8.628 9.102 10.648 11.976-1.018-.315-1.042-1.619-2.328-1.663-.133.572.492.853 0 .997-2.328-3.996-6.992-7.426-8.32-11.31zm3.992 26.281c.956 3.925 2.638 8.895 2.662 12.641-.56-1.72-1.11-4.558-1.665-6.986-.417-1.83-1.546-6.262-.997-5.655zm1.22 13.639c-1.904-5.858-2.427-12.877-3.771-19.295-.075-.565.779-.823.779 0v.335c2.666 10.606 3.541 21.392 5.877 32.6.107.407-.498 2.056-.777.999-.823-4.17-2.013-7.97-2.661-12.31-.805-.799 1.03-.882.553-2.33zm7.766 12.31c-.015-2.761-1.869-5.448-1.33-7.653.48 1.517 1.143 2.85 1.995 3.995.471-1.529.128-3.868 1.664-4.329-.3 1.297-.605 2.842.666 3.33.415-1.363-.161-3.713 1.332-3.994-.488 2.122-.715 5.323-.665 6.988-.695-.994-.585 1.605-1.333 1.663-.325-2.124 1.136-4.166-.664-4.99-1.588 5.956 2.713 10.468 3.662 15.97-3.225-2.214-1.827-9.046-5.327-10.98zm2.329 12.915c-.482-1.735-1.208-3.988-1.329-5.321h.998c-.195 1.333 2.435 4.609.33 5.321zm-11.982-10.586c.094 4.675 3.956 7.355 3.329 11.642-1.26-3.301-3.858-8.76-3.329-11.642zm-1.664-12.975c.31-.8.607-1.61 1-2.329 2.24 10.955 3.948 22.446 9.317 30.273.017-4.136-4.21-8.638-3.658-13.306 2.08 4.24 3.658 8.983 4.992 13.97-2.546.328-3.271-1.166-4.662-1.995-1.666-9.532-5.26-17.14-6.989-26.613zm-2.328-46.907c-.096 1.54-4.539 2.002-5.326.665 2.014.018 4.19.198 5.326-.665zm-7.656-3.659c-.053-1.292 1.051-1.728 1.33-3.328.44-2.502-1.296-6.145.333-6.652.626 2.818 2.1 9.035-1.663 9.98zm.667.666c.138.801-.607.722-.334 1.662h-1.331c.136-.973 1.138-1.08 1.665-1.662zm-1.332 2.993c.772.448 2.488-.045 2.328 1.33-.835-.382-2.283-.157-2.328-1.33zm.334 15.968c-1.268-.367-.927-2.223-.334-2.993.014 1.094.56 1.656.334 2.993zm-1-20.627c-.612-2.824-.002-6.872-1.33-8.98 3.63.392 2.897 6.947 1.33 8.98zm-.334 13.64c-.182 1.213 1.097 2.868-.333 3.328.31-1.081-1.291-3.062.333-3.327zm-.996-9.313c.452.422.512 1.628-.334 1.663-.456-.424-.513-1.63.334-1.663zm-.334 12.973c-.063.864 1.063 2.23.334 2.663-.123-.683-1.112-2.181-.334-2.663zm0-7.982c.135.665.823 2.465 0 2.992-.552-.987-.769-2.042 0-2.992zm-1.333 13.305c.005-.883-.182-1.957.667-1.996-.006.883.184 1.959-.667 1.996zm.333-6.987c-.13-1.024-1.854-2.695-.333-3.326.195.825 1.208 2.54.333 3.326zm-1.331 3.992c.19-2.089-1.784-4.168 0-4.987.07 1.408 1.617 4.006 0 4.987zm-.664-9.646c-1.097.569-.815 2.512-2.328 2.661.442-1.008 1.682-2.959 2.328-2.661zm-6.326 7.318c-3.674 3.758-6.143 10.491-9.65 13.307 3.195-4.233 5.398-11.237 9.65-13.307zm-1.663-3.66c-3.672 3.094-6.834 8.47-10.318 10.647 3.307-3.248 7.455-9.17 10.318-10.646zm0-2.328c-2.305.69-4.037 1.954-6.324 2.662 1.177-1.6 4.576-2.742 6.324-2.662zm-18.638 48.903c-.31-.91-1.021-1.417-1.332-2.328.685-.647.646-2.015 1.332-2.663.622.71.544 2.12 1.33 2.663-.245.973-.802 1.633-1.33 2.328zm2.995 2.33c-.628.035-.23 1.1-.998.997-.985-1.264-1.14-2.746.333-3.66.019 1.092.945 1.274.665 2.662zm1-2.33c-1.873-.139-1.353-2.659-.334-3.325.669.784.878 2.225.334 3.325zm-.334-8.983c.79.831.745 2.683-.333 3.327-.362-.917-.662-2.87.333-3.327zm-2.664 3.327c.427.017.46.428 1 .333.052-.392-.057-.945.333-.998 1.073 1.1.47 2.696-.667 3.328-.257-1.074-.695-1.967-1.333-2.663 1-.953.023-2.59 1-2.993.693.79-.286 1.924-.333 2.993zm6.326-21.622c1.778-4.433 4.135-8.288 7.323-11.313-2.047 3.736-5.352 9.72-7.323 11.313zm-5.66 17.963c3.293-6.138 6.259-14.37 10.318-18.63-2.924 6.726-6.828 12.472-10.318 18.63zm2.995 0c.243-5.106 4.167-9.89 6.656-14.637 2.578-4.917 3.834-11.087 8.32-13.307-5.473 8.83-10.21 18.403-14.976 27.944zm.337 6.987c-.844-1.238-.813-3.192 0-3.993.734 1.017 1.671 3.281 0 3.993zm-7.327 3.66c.366 1.033 1.245 1.55.667 2.661-1.14-.189-1.755-2.11-.667-2.661zm1-9.075h-1c2.553-5.333 6.224-11.861 9.321-15.64-1.294 5.74-5.93 10.55-8.32 16.29.351 2.46-.698 3.744-1.997 4.55-.41-1.708 1.437-3.866 1.996-5.2zm10.985-27.521c-2.794 3.69-4.93 8.084-8.656 9.981 2.763-3.226 5.578-8.174 8.656-9.981zm-16.31 18.964c-4.036 7.45-6.593 17.026-12.648 23.287 4.05-7.707 7.78-17.507 12.649-23.287zm78.547-30.274c1.356 1.751 6.216 1.769 6.323 3.66-1.79-1.317-6.036-1.945-6.323-3.66zm-2.661-38.257c-.628 1.812.078 4.959-.667 6.654-1.532-1.591-.073-5.196.667-6.654zm-91.862 89.49c-2.305 7.081-.594 16.408 6.323 18.628 10.039 3.22 20.427-3.535 24.63-9.647 2.481 2.29 4.23 5.31 6.99 7.318 6.687.586 9.549-2.654 11.317-6.986 3.211 5.345 12.531 3.186 13.98-2.328 1.944 4.328 4.742 11.348 10.648 12.31 4.273.694 8.661-.489 9.984-4.326 5.59 4.14 14.277 12.448 24.297 9.648 4.724-1.323 8.333-5.988 6.656-13.308-5.55-24.27-25.156-45.363-37.274-61.21 2.834-.605 6.165-.713 7.655-2.663 1.177.274 2.184 2.46 3.328 1.664 1.202.314.463-1.31.663-1.996 3.75 3.686 9.941 7.808 18.308 7.985-.17 2.94-.172 5.713 2.994 5.32.847-1.4-.525-1.681-.997-2.66.928-1.863 2.743-1.25 3.328-2.995-8.465-3.501-18.156-7.222-25.296-10.977-2.17 3.77-10.248 1.877-12.98 3.327-2.744-1.694-5.042-3.832-7.322-5.988 2.752.798 6.73.37 8.653 1.997 2.438-.45 2.209-3.562 4.993-3.66 1.421-7.475 11.9-9.925 12.648-18.299.237-2.646-.852-5.322-.667-7.982.296-4.246 2.198-8.603 2.995-11.312-5.37 2.905-8.305 11.814-5.99 19.294-.005 1.104-1.88.34-2.33 1-.347 1.566.767 1.672 1.333 2.328-3.601 5.604-8.3 10.114-13.316 14.307-.588-.302-.97-.807-1.663-1-1.138-.14-1 .997-1.665 1.33-2.455-.317-4.228-1.318-6.655-1.662 3.687-1.57 3.64-9.17 1.33-12.31.455-2.743 2.513-7.306 1.47-10.494-.009-4.725-1.027-9.543-2.89-13.365-.112-.232-.519-.128-.494.133.35 3.748 1.693 7.323 1.983 11.104.28 3.663-.029 7.165-.688 10.73-.124.413-.25.82-.378 1.227-5.243-.585-6.63 2.688-5.993 7.983.69 1.972 2.704 2.624 2.998 4.992-3.833-1.228-5.737-6.767-3.661-10.979.03-1.241 1.3-.021 1.33-.665.31-3.303-.359-5.63-1.33-7.652-1.582.75.054 4.713-1 5.988-1.65-.901-1.65-3.453-2.662-4.99-1.638.79-.115 3.777-.333 5.323-1.103-.532-3.107.115-4.587-.12a.76.76 0 00-.072-.446c-.219-.432-.39-.874-.542-1.32.317-.382.228-1.108-.125-1.442-.096-.02-.173-.012-.255-.01a14.561 14.561 0 01-.228-3.351c1.321-5.341 2.89-10.439 4.61-15.383.394-.57.811-1.134 1.283-1.681.102-.117-.052-.27-.169-.17-.258.226-.484.478-.723.72.049-.138.094-.278.143-.417-.15.238-.301.482-.452.726-2.847 3.09-4.253 7.4-5.188 11.413-.92 3.947-1.537 7.932.297 11.704a.7.7 0 00.256.288c-1.537 3.405-1.782 8.944.76 11.465-1.675.656-4.508.152-5.99 1-1.208.317-.282-1.497-1.334-1.332-1.221-.112-1.705.51-1.994 1.331-2.43-4.89-5.12-9.523-9.32-12.643.21-1.241 1.474-1.632.666-2.994-1.575-.243-2.19.474-2.997.998-2.974-5.788.617-18.136-7.988-18.297 1.534 2.017 3.902 3.199 4.66 5.99-1.177.15-1.087 1.574-.998 2.994-.958.53-2.151-3.05-3.995-1.664-.732 1.321.833 1.64 1.331 2.659.579 4.08 2.104 7.216 4.992 8.986-.226 1.435-1.96 1.364-1.663 3.326.82.044 1.604.052 2-.331 3.877 3.884 7.273 8.256 11.314 11.98-.192.697-.825.957-.667 2.004.946.497 1.509 1.392 2.332 2.012 1.944-.828 3.95-1.56 6.655-1.63-1.72 4.711-11.9 3.913-15.31 8.043-.35 1.118 1.188 2.342-.666 2.12-.937-.138.115-3.412-1.33-3.412h-2.328c-1.337 5.334-10.62 1.782-15.646 3.079-.47 1.802 1.125 1.29 1.666 2.083-.599.621-1.98.465-1.666 1.994 2.625.002 8.768 1.159 11.317-.664 1.036-.849 1.883-1.886 2.995-2.661 2.268 2.653 5.862.199 9.32 0-8.117 9.95-20.177 22.177-28.291 34.93-2.743 4.309-5.894 9.254-7.323 13.64" fill="#381400" transform="matrix(.44955 0 0 .44955 -2.383 156.893)"/><path d="M49.194 485.496c.539-.793 1.55-1.115 2.666-1.33.79 1.389.076 3.74-.335 4.99-1.698.477-1.422-1.017-2.331-1.33-2.513 1.922-8.323.549-10.318 2.993.612 2.242.91 6.54-2.33 5.988-1.165-.386-.05-3.052-1.328-3.327-1.493-.377-1.487 1.745-2.665.664-.424-8.593 9.633-11.65 16.64-8.648" fill="#381400" transform="matrix(.44955 0 0 .44955 -2.383 156.893)"/></g><use xlink:href="#a" transform="translate(43.49 -30.926)" width="100%" height="100%"/><use xlink:href="#a" transform="translate(.966 -71.516)" width="100%" height="100%"/><use xlink:href="#a" transform="translate(455.19 -61.852)" width="100%" height="100%"/><use xlink:href="#a" transform="translate(81.18 -77.315)" width="100%" height="100%"/><use xlink:href="#a" transform="translate(7.731 -343.084)" width="100%" height="100%"/><use xlink:href="#a" transform="translate(38.657 -286.064)" width="100%" height="100%"/><use xlink:href="#a" transform="translate(72.482 -338.252)" width="100%" height="100%"/><use xlink:href="#a" transform="translate(97.61 -281.232)" width="100%" height="100%"/><use xlink:href="#a" transform="translate(132.401 -337.285)" width="100%" height="100%"/><use xlink:href="#a" transform="translate(519.94 -344.05)" width="100%" height="100%"/><use xlink:href="#a" transform="translate(476.451 -314.09)" width="100%" height="100%"/><use xlink:href="#a" transform="translate(518.008 -274.467)" width="100%" height="100%"/><use xlink:href="#a" transform="translate(472.586 -250.306)" width="100%" height="100%"/><use xlink:href="#a" transform="translate(513.176 -211.649)" width="100%" height="100%"/><use xlink:href="#a" transform="translate(316.024 -129.502)" width="100%" height="100%"/><use xlink:href="#a" transform="translate(244.508 -131.435)" width="100%" height="100%"/><use xlink:href="#a" transform="translate(280.266 -175.89)" width="100%" height="100%"/><use xlink:href="#a" transform="translate(318.923 -201.984)" width="100%" height="100%"/><use xlink:href="#a" transform="translate(226.145 -205.85)" width="100%" height="100%"/><use xlink:href="#a" transform="translate(518.008 -3.866)" width="100%" height="100%"/><use xlink:href="#a" transform="translate(459.056 -5.799)" width="100%" height="100%"/><use xlink:href="#a" transform="translate(517.042 -69.583)" width="100%" height="100%"/><use xlink:href="#a" transform="translate(396.238 -5.799)" width="100%" height="100%"/><use xlink:href="#a"/></svg>