<svg xmlns="http://www.w3.org/2000/svg" xmlns:xlink="http://www.w3.org/1999/xlink" height="420" width="600"><g id="b" transform="translate(0 16)"><g id="a" stroke-width=".133"><path d="M-72.935 388.448c.13-.032.427-.22.415.051-.076.07-.411.107-.415-.051zm1.246-.104c.004-.26-.304-.36-.727-.416.096.183-.04.171-.104.312-.221.004-.363.087-.623.052-.014-.17.061-.25.208-.26-1.504.215 1.233 1.273 1.246.312M-74.649 388.655c.262.016.513.04.675.156-.162-.115-.616.063-.675-.156" fill="#fff" transform="translate(91.328 -144.945)"/><path d="M-71.69 388.811v.208H-72c-.002-.175.24-.106.31-.208M-71.637 389.746v.208c-.091-.048-.26-.018-.312-.104.164.025.203-.074.312-.104M-85.607 388.551c.016.415.046.847.104 1.143-.289-.127-.427-.404-.467-.779.138-.225.307-.42.467-.623.132.006.182.095.26.156-.165-.008-.314-.002-.364.104M-74.13 390.058c-.041-.236-.391-.163-.467-.364.216.01.256-.16.467-.156-.002.151.125.329 0 .52M-83.997 397.952c-.026-.632.152-1.06.311-1.507.4.224.97.277 1.403.468-.573.312-1.2.84-1.714 1.039M-79.843 396.81c.04.21.04.305-.051.414-.77.923-2.168 2.243-3.584 2.233-.175-.395-.398-.744-.467-1.246.677-.5 1.392-.962 2.129-1.402.486.31 1.468.242 1.973 0M-81.245 382.216c-.548-.221-1.075.012-1.61-.104-.213-.046-.392-.24-.623-.312-.388-.122-.835-.078-1.142-.311.132-.266.013-.784.311-.883.542.026.935.583 1.506.83.544.237 1.223.285 1.558.78M-75.74 389.487c.187-.074.617-.178.831-.053-.183.056-.772.213-.83.053" fill="#fff" transform="translate(91.328 -144.945)"/><path d="M-80.57 384.76c.116.318.418.449.572.727-.451-.016-.483-.451-.78-.623-.051 0-.061-.042-.103-.051-.605.157-1.01.513-1.766.519-.065-.022-.106-.067-.104-.156.888.072 1.425-.694 2.181-.416zm3.843 1.195c-.005.082.007.18-.103.156-.619.171-1.794.254-2.337-.104.668.076 1.71.271 2.44-.052zm.468 1.35c-.695-.05-1.185-.58-1.87-.467.222.072.548.04.676.207-.948.013-1.477-.393-2.234-.57 1.421-.21 2.876-.004 3.428.83zm-2.39-.364c.185-.027.269.045.313.156-.116-.04-.282-.03-.312-.156zm-1.869-.467c.65.025 1.018.333 1.61.416-.148.234.055.228-.052.467-.608-.07-1.08-.53-1.558-.883zm-1.549 2.337v.156c-.224.101-1.075.077-1.402-.052.143-.413 1.178-.155 1.402-.104zm2.038.294c-.29-.026-.547-.11-.593-.242.297-.204 1.124-.101 1.506-.052-.015.165-.237.256-.507.288.272.015.515.068.611.18-.31.133-1.386.236-1.61-.052.118-.059.344-.104.593-.122zm-3.492-.657c.188-.313 1.23-.128 1.454-.104v.155c-.224.013-1.272.22-1.454-.051zm4.596 1.039v.207c-.225 0-.289-.02-.356.052.03.106.165.102.06.208-.298.074-.9.092-1.195 0-.055-.194.107-.168.154-.26-.158.002-.347.03-.317-.156.35-.21 1.205-.093 1.654-.051zm-.242.726c-.323.089-1.33.32-1.455-.051.295-.118 1.251-.24 1.455.051zm.207.416c-.381.11-1.389.342-1.713 0 .388-.103 1.422-.31 1.713 0zm.026.256c.066.273-.325.068-.39.211.213-.005.399-.01.623.052v.142h-1.765c.083-.224.083-.156 0-.408.394-.091 1.136-.075 1.532.003zm-3.35-6.748c-.595-.06-1.015-.41-1.661-.52.752 1.205 1.429 2.484 2.96 2.91.517.503 1.207.835 1.922 1.142-.012.19-.072.199 0 .363-.087.087-.306.042-.468.052.069.071.623.103.571.468-.309.164-1.072.13-1.454.051-.014-.135.02-.223.156-.207-.089-.102-.364-.017-.415-.156.006-.166.117-.229.311-.208-.044-.34-.127-.552-.104-.883-.402-.157-.91-.288-1.454-.155-.16.097.3.006.312.103-.016.31-.469.23-.312.572-.124.031-.237.074-.415.052-.12.123.467-.02.519.103-.099.528-1.142.377-1.61.364.05-.371-.03-.725.312-.883-.523-.003-1.145.344-1.662.519.266.224-.116.582.156.674.015.137-.072.17-.208.155.292.075.363.193.415.413.008.145-.127.144-.26.15.048.108.294.008.312.145.081.185-.176.134-.156.134h-.623c.09.224.397.041.572.073.634.234-.01.366-.52.282.762.242 1.164.845 2.077.935-.046-.152-.046-.16 0-.312-.189.034-.276-.035-.363-.104.174-.364-.167-.736.104-.935-.005-.134-.223-.054-.156-.26.305-.164 1.328-.198 1.558.053-.033.174-.249.166-.467.156-.143.113.386-.01.415.104.024.162-.11.165-.26.155.048.109.294.018.312.156.024.162-.11.166-.26.156.014.107.228.014.26.104.01.113-.043.165-.156.155.065.075.179.099.312.104.045.167-.08.163-.156.208.074.151.53-.08.467.208-.25.127-.716.025-.986 0 .118.073.617.212.883.311.017.104-.01.163-.104.156.387.253 1.173.44 1.662.156.618.11 1.347-.008 1.87-.156-.528.408-1.009.862-1.61 1.195-.002.137.019.296-.053.363-.146.114-.347.172-.519.26.801.306 2.128.087 2.752.571.814.083 1.418-1.262 1.662-1.921.145-.39-.08-.51-.26-.728-.528.683-1.3 1.124-2.544 1.091.127-.583 1.492-.377 1.87-.883-.247.1-1.003.14-1.299.364.532-.472 1.46-.548 2.026-.987-.713.067-1.225.334-1.766.572-.015-.078-.07-.092-.156-.207.394-.247 1.063-.217 1.454-.466-.512-.2-.92.155-1.454.106-.018-.312.355-.228.571-.306.077-.146-.451.129-.571-.042-.027-.252.281-.238.416-.238H-76.623h-1.194c-.133-.45.037-.729.059-1.034-.013-.108-.221-.061-.253-.15-.02-.245.315-.15.326-.364-.01-.198-.296-.092-.336-.26.6-.336 1.564-.068 2.237.156v.363c.224-.197.819.01 1.035-.207-.216-.131-.946.27-1.095-.104.259-.088.628-.065.78-.26-.178-.132-.475.022-.728 0-.556-.048-1.161-.403-1.765-.363.198-.097.01-.19-.208-.156-.072-.066-.032-.245-.104-.312.576-.302.997.227 1.61.208.178-.022.156.155.26.208.188-.09.424-.13.727-.104-.299-.637-.516-1.354-1.299-1.506-.348-.414-.724-.8-1.194-1.09-.916-.087-1.484.017-2.285-.105-.587-.09-.824-.695-1.247-.779-.356-.07-.675.084-.986.052" fill="#fff" transform="translate(91.328 -144.945)"/><path d="M-79.635 397.172c-.073-.619.424-1.002.831-1.454.583-.646 1.26-1.207 1.662-1.921.665-.183.97-.796 1.298-1.402.174-.321.199-.81.52-.987.077.01.047.125.052.208-.23.854-.521 1.786-1.04 2.596-.937 1.467-2.082 2.845-3.375 3.895-.93.756-2.116 2.095-3.48 1.506 1.714-.277 2.604-1.378 3.532-2.44M-75.48 390.889c.127-.102.436-.053.519.051-.158-.032-.447.067-.52-.051M-71.377 390.058c-.013.213-.026.424-.104.57-.086-.096.065-.604.104-.57M-75.682 390.058c.146-.08.347-.05.571-.104v.155c-.224-.032-.482.067-.57-.051" fill="#fff" transform="translate(91.328 -144.945)"/><path d="M-75.8 390.525c.72.001 1.138-.188 1.811-.312v.26c-.224.069-.527.072-.72.156.112.11.02.283-.103.311.046-.513-.906-.028-.987-.415M-73.195 390.841h-.208c-.045-.449.863-.446 1.143-.262a3.843 3.843 0 01-.831.053c-.145.077.11.21-.104.21M-72.157 391.252c-.403.245-1.265.013-1.298-.26.223.355.916.19 1.298.26M-72.105 390.577c.795.37-.545.685-.882.363.388-.027.59-.24.882-.363M-79.427 393.277c.477.056 1.013.271 1.61.156.12.123.177.308.364.364-.357.318-.518.832-.883 1.142-.294-.138-.705.108-1.143.052-.389-.05-.787-.33-1.194-.26-.148-.504-1.457-.503-1.61 0 .545-.167 1.379-.37 1.661.156.705.106 1.515.374 2.182.208-.527.426-.873 1.032-1.35 1.506-1.254.553-2.804.048-3.896-.363.716-1.414 1.848-2.41 3.272-3.116.218.349.65.117.987.155M-78.908 383.566c.309.09.548.248.675.52-.323-.075-.57-.226-.675-.52zm-.26-1.246c-1.229-.76-2.729-1.794-4.673-1.87.426.186.714.604 1.09.779.564.263.9.211 1.35.571.307.246.529.648.935.935.378.267.949.23 1.247.623-.537-.19-1.505-.4-1.818-.986-.583-.079-1.227.123-1.818 0-.426-.09-1.06-.58-1.713-.572.118.54.352.963.467 1.506.314.267.677.287 1.194.416.282.07.51.246.727.26.286.017.519-.112.676-.104.726.035.712.617 1.298.779.817.225 1.575-.062 2.44.155.006-.264-.229-.29-.207-.571.413-.014.426.37.52.675.445.195.699.582.934.987.75.167 1.079.756 1.298 1.454.132-.042.133-.214.208-.312-.592-.976-1.427-2.195-2.233-3.012-.627-.635-1.067-1.185-1.921-1.713M-74.545 389.27h.467c-.105 0-.525.095-.571.052.04-.011.102-.052.104-.052" fill="#fff" transform="translate(91.328 -144.945)"/><path d="M-81.249 386.701c1.386-.576 4.323.103 4.99.691.135.12.182.331.127.504a.511.511 0 01.006.1c.353-.143.777-.125 1.197.027.352.128.586.339.726.588.292.278.45.648.373.998.125.237.17.515.096.806a.304.304 0 01-.353.233 1.416 1.416 0 01-.24-.067c-.317.454-.996.34-1.56.06a1.703 1.703 0 01-.51.247 2.04 2.04 0 01-.138.19c-.53.643-1.922 1.037-2.717.595-.492.037-.968-.047-1.441-.188a6.658 6.658 0 01-1.858-.372.658.658 0 01-.096-.003c-.78-.09-1.667-.252-2.12-.896-.515-.126-.956-.357-1.05-.777a.938.938 0 01-.109-.226c-.174-.547.116-.96.573-1.23.401-.41 1.055-.634 1.725-.753.745-.365 1.666-.756 2.38-.527" fill="#ffb626" transform="translate(91.328 -144.945)"/><path d="M-78.328 387.39c.076.294.118.548.016.84-.072.207-.375.076-.345-.119.031-.204-.025-.396-.086-.589-.085-.269.345-.404.415-.132M-80.454 387.244c.086.286.238.688.093.972-.07.138-.204.184-.35.17-.227-.023-.372-.213-.492-.413-.14.02-.28.034-.42.04-.704.027-.757-1.085-.057-1.086.237 0 .47-.041.708-.042.23 0 .449.129.518.359M-83.026 387.357a.37.37 0 01.112.056l.008-.005c.157-.115.337.115.216.255l-.053.059a.31.31 0 01-.162.291c-.09.052-.187.092-.289.125a2.755 2.755 0 01-.561.32c-.456.196-.89.418-1.34.623a.26.26 0 01-.152.024l-.102.088c-.083.072-.246.075-.277-.06-.123-.551.316-1.018.749-1.29.456-.288 1.306-.639 1.85-.485" fill="#d99b20" transform="translate(91.328 -144.945)"/><path d="M-78.746 391.288a.413.413 0 01-.073-.01c-.024-.006-.03-.044-.002-.05.027-.008.052-.01.08-.012.052-.004.05.077-.005.072M-77.782 390.842c-.241.15-.824.335-1.017.024-.032-.051-.02-.128.036-.16.111-.063.225-.047.35-.046a.818.818 0 00.438-.12c.196-.12.389.18.193.302M-77.945 390.368c-.16.021-.321.031-.483.035-.136.003-.268.007-.372-.092-.034-.032-.044-.095-.007-.13.105-.1.223-.101.362-.103.162-.003.323-.014.483-.036.21-.027.224.299.017.326M-78.972 389.768c.226 0 .246.352.018.352-.124 0-.255.011-.377-.015-.151-.032-.185-.283-.016-.319.124-.026.249-.018.375-.018M-78.524 388.97c.155.001.22.155.181.266.058 0 .113.004.158.004.23.005.464.058.674.155.158.074.069.323-.1.286-.228-.05-.46-.024-.692-.014-.145.007-.473-.006-.425-.24a.212.212 0 01.032-.076 8.273 8.273 0 00-.352.015c-.184.012-.357.055-.532-.02-.075-.033-.092-.14-.038-.198.248-.263.766-.183 1.094-.18M-80.376 390.408c.163.039.388.107.444.284a.122.122 0 01-.079.152c-.138.044-.308-.014-.45-.03-.193-.02-.401.004-.59-.053-.233-.07-.222-.407.034-.43.21-.02.437.028.641.077M-80.285 389.577c.327.002.357.507.026.51a7.157 7.157 0 01-.79-.03c-.142-.015-.23-.18-.203-.308.03-.148.167-.219.308-.202.219.026.438.028.659.03M-80.286 388.936c.335.003.364.522.028.52-.224-.002-.448-.019-.671-.03-.16-.009-.417-.054-.428-.26-.01-.199.247-.267.4-.26.224.01.447.028.671.03" fill="#ffce6e" transform="translate(91.328 -144.945)"/><path d="M-83.712 389.533c.11.036.192.116.303.145.118.03.249.01.366-.018.226-.053.372.175.325.34.28.068.531.27.826.233.261-.032.344.405.083.457-.375.075-.8-.062-1.125-.253-.069-.04-.138-.116-.133-.203a.647.647 0 01.006-.052c-.347.047-.822.018-.915-.356-.037-.149.088-.351.264-.293M-80.506 390.523a2.422 2.422 0 01-.532.061c-.17.004-.331.002-.472-.104-.053-.039-.048-.121-.01-.167.207-.24.606-.13.883-.2.268-.07.402.343.131.41M-80.784 389.457c.037.119-.029.283-.16.31-.184.04-.477.107-.624-.042-.078-.079-.099-.21-.016-.296.133-.137.318-.09.489-.133.13-.03.268.026.31.16M-77.624 390.568c-.205.078-.426.09-.643.093-.299.005-.322-.465-.024-.462.18.002.36.004.531-.057.274-.096.404.323.136.426M-77.155 389.69c-.232.064-.455.156-.698.169-.278.015-.3-.416-.022-.431.221-.012.44-.043.66-.061.188-.016.242.273.06.323M-75.229 389.877c-.036.336-.517.37-.77.322-.243-.046-.291-.45-.026-.504.11-.022.212-.032.323-.037.033 0 .065-.003.098-.006a.149.149 0 01.016-.005l.019-.007c.005 0 .006 0 .01-.002.157-.093.35.048.33.239M-74.437 390.318c-.165.357-.679.638-1.036.387-.111-.078-.084-.277.028-.339.191-.107.447-.047.557-.274.142-.294.588-.068.451.226" fill="#ffde9e" transform="translate(91.328 -144.945)"/><path d="M-75.919 392.38c-1.189.904-1.047 2.715-2.315 3.588-1.129.776-2.14 2.048-3.561 2.245-.247.034-.262-.347-.02-.383 1.451-.218 2.971-1.826 3.53-3.064.563-1.246.59-2.461 1.738-3.37.585-.464 1.228.529.628.984M-77.972 392.638c-.177.25-.399.452-.635.644-.216.176-.437.38-.724.413-.072.008-.152-.075-.127-.149.085-.252.289-.381.49-.54.25-.195.479-.409.66-.67.164-.24.502.066.336.302M-80.308 394.604c-.245.216-.496.425-.747.633-.232.193-.495.46-.816.418-.057-.007-.118-.072-.114-.132.023-.305.256-.436.489-.6.305-.215.63-.399.928-.625.18-.137.43.155.26.306M-83.211 381.199c.92.241 1.94.712 2.766 1.182.881.5 1.78.9 2.613 1.488.657.464 1.32 1.018 1.721 1.726.266.468.45 1.051.768 1.48a.25.25 0 01.014.254l-.02.03c-.076.124-.199.2-.349.17-.432-.087-.7-.44-.952-.775-.455-.609-.79-1.118-1.405-1.601-.364-.286-.776-.509-1.14-.793-.435-.34-.806-.844-1.257-1.145-.956-.64-1.876-1.08-2.928-1.528-.272-.116-.115-.563.169-.488" fill="#cff6ff" transform="translate(91.328 -144.945)"/><path d="M-81.437 384.383c1.252.47 2.86.514 3.898 1.473.06.056.042.136-.015.183-.51.42-1.3.053-1.85-.123-.806-.258-1.609-.482-2.396-.809-.488-.202-.116-.904.363-.724M-82.842 383.753c.103.032.15.087.223.162.065.067.139.127.214.183.17.129-.053.377-.222.247-.146-.113-.354-.265-.367-.461-.005-.076.074-.156.152-.131" fill="#cff6ff" transform="translate(91.328 -144.945)"/><path d="M-79.597 383.654c.438.32.854.71 1.315 1.012.15.014.303.022.438.057.316.082.557.292.733.556.226.337-.097.793-.488.71-.737-.159-1.334-.603-1.92-1.054a5.39 5.39 0 00-.233-.168 4.025 4.025 0 01-1.97-.563c-.253-.155-.046-.57.207-.414.277.171.569.27.866.343-.152-.142-.292-.339-.248-.554.128-.624 1.052-.105 1.3.075" fill="#cff6ff" transform="translate(91.328 -144.945)"/><path d="M-78.878 396.561c.064.236-.177.456-.313.623a2.298 2.298 0 01-.655.566c-.187.103-.353-.154-.179-.28.212-.152.37-.357.53-.56.123-.157.258-.44.488-.438.056 0 .114.031.13.09" fill="#baf2ff" transform="translate(91.328 -144.945)"/><path d="M-75.804 391.802c.546.64-.14 1.709-.514 2.304-.474.757-1.233 1.664-2.09 1.994-.08.03-.17-.069-.123-.144.44-.693.879-1.347 1.269-2.073.209-.39.4-.8.535-1.222.119-.37.085-.651.418-.9.134-.1.393-.091.505.04M-77.821 384.006c.13.154.171.448.39.522a.837.837 0 01.403.256c.64.784 1.528 1.57 1.838 2.558.055.175-.173.34-.311.201a89.597 89.597 0 01-2.013-2.086c-.278-.3-.229-.697-.52-.986-.252-.249-.527-.376-.6-.735-.016-.077.025-.161.113-.164.355-.012.479.17.7.434M-79.177 383.115c.114.077.036.246-.096.193-.705-.28-1.31-.75-1.996-1.076-.561-.266-1.307-.257-1.763-.704-.074-.072-.01-.183.087-.172 1.406.166 2.63.986 3.768 1.76M-83.685 380.92c.196.037.421.172.543.33.05.065-.011.146-.08.154-.203.026-.432-.121-.585-.241-.115-.09-.008-.266.122-.243" fill="#9eedff" transform="translate(91.328 -144.945)"/><path d="M-71.066 387.617a.586.586 0 01-.364-.572c.059-.01.082-.057.104-.104.46.06.882.157.987.572-.225.188-.29-.133-.52-.104-.105.033-.014.262-.207.208M-72.52 388.5c-.076.07-.411.106-.415-.052.13-.032.427-.22.415.051M-76.259 387.305c-.695-.05-1.185-.58-1.87-.467.222.072.548.04.676.207-.948.013-1.477-.393-2.234-.57 1.421-.21 2.876-.004 3.428.83M-76.83 386.11c-.619.172-1.794.255-2.337-.103.668.076 1.71.271 2.44-.052-.005.082.007.18-.103.156M-78.233 384.085c-.323-.074-.57-.225-.675-.519.309.09.548.248.675.52M-78.648 386.942c.184-.028.268.044.312.155-.116-.04-.282-.03-.312-.155M-79.324 391.096c.213-.005.399-.01.623.052v.142h-1.765c.083-.224.083-.156 0-.408.394-.091 1.136-.075 1.532.003.066.273-.325.068-.39.21M-78.925 389.694c-.225 0-.288-.02-.355.052.029.106.16.102.056.208-.298.074-.896.092-1.192 0-.055-.194.11-.168.157-.26-.158.002-.35.03-.32-.156.35-.21 1.205-.093 1.654-.051v.207M-78.96 387.357c-.608-.07-1.08-.53-1.558-.883.65.025 1.018.333 1.61.416-.148.234.055.228-.052.467" fill="#381400" transform="translate(91.328 -144.945)"/><path d="M-80.673 390.629c.388-.103 1.422-.31 1.713 0-.381.11-1.389.342-1.713 0M-79.623 389.1c.272.014.515.067.611.179-.31.133-1.386.236-1.61-.052.118-.059.344-.104.593-.122.135.011.275.01.406-.005M-80.622 388.863c.297-.204 1.124-.101 1.506-.052-.015.165-.237.256-.507.288a3.24 3.24 0 00-.406.005c-.29-.025-.547-.109-.593-.241" fill="#381400" transform="translate(91.328 -144.945)"/><path d="M-79.623 389.1c-.13.015-.271.016-.406.004a3.13 3.13 0 01.406-.005M-79.167 390.213c-.323.089-1.33.32-1.455-.051.295-.118 1.251-.24 1.455.051M-80.57 384.76c.116.318.418.449.572.727-.451-.016-.483-.451-.78-.623-.051 0-.061-.042-.103-.051-.605.157-1.01.513-1.766.519-.065-.022-.106-.067-.104-.156.888.072 1.425-.694 2.181-.416M-82.067 388.967c-.224.101-1.075.077-1.402-.052.143-.413 1.178-.155 1.402-.104v.156M-83.521 388.448c.188-.313 1.23-.128 1.454-.104v.155c-.224.013-1.272.22-1.454-.051" fill="#381400" transform="translate(91.328 -144.945)"/><path d="M-83.841 380.45c1.944.076 3.444 1.11 4.674 1.87.854.528 1.294 1.078 1.921 1.713.806.817 1.64 2.036 2.233 3.012-.075.098-.076.27-.208.312-.22-.698-.547-1.287-1.298-1.454-.235-.405-.49-.792-.934-.987-.094-.305-.107-.69-.52-.675-.022.281.213.307.208.571-.866-.217-1.624.07-2.441-.155-.586-.162-.572-.744-1.298-.78-.157-.007-.39.122-.676.105-.217-.014-.445-.19-.727-.26-.517-.13-.88-.149-1.194-.416-.115-.543-.349-.967-.467-1.506.654-.008 1.287.482 1.713.572.591.123 1.235-.079 1.818 0 .313.587 1.281.796 1.818.986-.298-.392-.869-.356-1.247-.623-.406-.287-.628-.69-.935-.935-.45-.36-.786-.308-1.35-.571-.376-.175-.664-.593-1.09-.78zm-.468.156c.542.026.935.583 1.506.83.544.237 1.223.285 1.558.78-.548-.221-1.075.012-1.61-.104-.213-.046-.392-.24-.623-.312-.388-.122-.835-.078-1.142-.311.132-.266.013-.784.311-.883zm.364 3.012c.646.11 1.066.458 1.662.52.31.031.63-.124.986-.053.423.084.66.69 1.247.78.801.121 1.369.017 2.285.103.47.292.846.677 1.194 1.09.783.153 1 .87 1.299 1.507-.303-.026-.54.015-.727.104-.104-.053-.082-.23-.26-.208-.613.019-1.033-.51-1.61-.208.073.067.033.246.106.312.217-.035.407.059.209.156.604-.04 1.213.315 1.77.363.252.022.556-.132.734 0-.152.195-.507.172-.766.26.149.373.851-.027 1.067.104-.216.216-.81.01-1.035.207v-.363c-.673-.224-1.636-.486-2.237-.15.04.168.298.068.308.265-.01.215-.331.13-.312.376.031.09.246.02.26.127-.022.305-.185.585-.052 1.034h.883-.623c-.135 0-.443-.014-.416.238.12.17.648-.115.571.031-.216.078-.589 0-.571.312.534.049.942-.304 1.454-.104-.391.25-1.06.22-1.454.468.086.114.14.13.156.207.541-.237 1.053-.505 1.766-.571-.566.438-1.494.515-2.026.987.296-.225 1.052-.264 1.298-.364-.377.506-1.742.3-1.87.883 1.245.033 2.017-.408 2.545-1.09.18.217.405.337.26.727-.244.659-.848 2.004-1.662 1.921-.624-.484-1.95-.265-2.752-.571.172-.088.373-.146.52-.26.07-.067.05-.226.051-.363.602-.333 1.083-.787 1.61-1.195-.522.148-1.25.267-1.87.156-.488.285-1.274.097-1.661-.156.093.007.121-.052.104-.156-.266-.099-.765-.238-.883-.311.27.025.737.127.986 0 .063-.287-.393-.057-.467-.208.076-.045.201-.041.156-.208-.133-.005-.247-.03-.312-.104.113.01.166-.042.156-.155-.032-.09-.246.004-.26-.104.15.01.284.007.26-.156-.018-.138-.264-.047-.312-.156.15.01.284.007.26-.155-.029-.114-.558.009-.415-.105.218.01.434.019.467-.156-.23-.25-1.253-.216-1.558-.052-.067.205.151.126.156.26-.271.198.07.57-.104.934.087.069.174.136.363.102-.046.152-.046.157 0 .31-.913-.09-1.315-.699-2.077-.941.51.084 1.154-.037.52-.27-.175-.033-.483.15-.572-.074h.623c-.02 0 .237.05.156-.134-.018-.138-.264-.026-.311-.134.132-.006.267-.01.26-.156-.053-.22-.124-.34-.416-.416.136.015.223-.019.208-.156-.272-.092.11-.45-.156-.675.517-.175 1.139-.522 1.662-.519-.342.159-.263.512-.312.883.468.013 1.511.164 1.61-.364-.052-.123-.64.02-.52-.103.18.022.292-.02.416-.053-.157-.34.296-.26.312-.57-.011-.098-.472-.008-.312-.104.545-.133 1.052-.001 1.454.155-.023.33.06.543.104.883-.194-.02-.305.041-.311.208.05.14.326.054.415.156-.137-.016-.17.072-.156.207.382.08 1.145.113 1.454-.052.052-.364-.502-.396-.57-.467.161-.01.38.035.467-.052-.072-.164-.012-.173 0-.364-.715-.306-1.405-.638-1.922-1.142-1.531-.425-2.208-1.704-2.96-2.908zm-1.558 4.674c.132.006.182.095.26.156-.165-.008-.314-.002-.364.104.016.414.046.846.104 1.142-.289-.127-.427-.404-.467-.779.138-.225.307-.42.467-.623zm5.09 4.83c.217.349.649.117.986.155.477.056 1.013.271 1.61.156.12.123.177.308.364.364-.357.318-.518.832-.883 1.142-.294-.138-.705.108-1.143.052-.389-.05-.787-.33-1.194-.26-.148-.504-1.457-.503-1.61 0 .545-.167 1.379-.37 1.661.156.705.106 1.515.374 2.182.208-.527.426-.873 1.032-1.35 1.506-1.254.553-2.804.048-3.896-.363.716-1.414 1.848-2.41 3.272-3.116zm-3.273 3.323c.4.224.97.277 1.403.468-.573.312-1.2.84-1.714 1.039-.026-.632.152-1.06.311-1.507zm-.26 1.766c.678-.5 1.393-.962 2.13-1.402.486.31 1.468.242 1.973 0 .04.212.04.306-.051.415-.77.923-2.168 2.243-3.584 2.233-.175-.395-.398-.744-.467-1.246zm.78 1.402c1.713-.277 2.603-1.378 3.531-2.44-.073-.62.424-1.003.831-1.455.583-.646 1.26-1.207 1.662-1.921.665-.183.97-.796 1.298-1.402.174-.321.199-.81.52-.987.077.01.047.125.052.208-.23.854-.521 1.786-1.04 2.596-.937 1.467-2.082 2.845-3.375 3.895-.93.756-2.116 2.095-3.48 1.506zm9.711-8.62c.223.354.916.189 1.298.259-.403.245-1.265.013-1.298-.26zm.468-.053c.388-.027.59-.24.882-.363.795.37-.545.685-.882.363zm-.104-.308c-.145.077.11.21-.104.21h-.208c-.045-.45.863-.447 1.143-.263a3.843 3.843 0 01-.831.053zm-2.39.256c.128-.1.437-.052.52.052-.158-.032-.447.067-.52-.052zm-.318-.363c.719.001 1.137-.188 1.81-.312v.26c-.224.069-.527.072-.72.156.112.11-.025.283-.148.311.046-.513-.861-.028-.942-.415zm4.318.104c-.086-.097.065-.606.104-.571-.013.213-.026.424-.104.57zm-.156-.675c-.091-.048-.26-.018-.312-.104.164.025.203-.074.312-.104v.208zm-4.045.104c.146-.08.347-.05.571-.104v.155c-.224-.032-.482.067-.57-.051zm1.552 0c-.041-.236-.391-.163-.467-.364.216.01.256-.16.467-.156-.002.151.125.329 0 .52zm-.779-.624c-.183.056-.772.213-.83.053.186-.074.616-.178.83-.053zm.26-.112c.04-.011.102-.052.104-.052h.467c-.105 0-.525.095-.571.052zm2.648-.303c-.001-.175.24-.106.312-.208v.208h-.312zm-2.648-.364c.262.016.513.04.675.156-.162-.115-.616.062-.675-.156zm1.714-.623c-.147.01-.222.09-.208.26.26.035.402-.048.623-.052.065-.141.2-.13.104-.312.423.057.73.156.727.416-.013.96-2.75-.097-1.246-.312zm-8.673-7.374c-.879-.32-2.452-.938-3.168-.104-.491 2.655 1.38 4.806 2.908 6.024-1.308.335-2.94.632-3.843 1.402-.556.475-.897 1.126-.312 1.818.48.566 1.695.986 2.701 1.298 1.295.402 2.166.813 3.531.883.13.184-.305.247-.207.571-1.82.893-4.13 2.396-4.31 5.038-.08 1.154.534 2.618 1.87 2.493 1.029-.097 1.834-.87 2.595-1.455 1.557-1.195 2.766-2.675 3.792-4.31.545-.871.782-1.882 1.142-2.908-.143.876.37 1.55.571 2.077.217.055.352-.11.468 0 .084.139-.199.354-.104.675.186.143.33.327.571.416.203-.192.162-.382.468-.52-.321-1.012-1.861-.804-1.662-2.337.427.093.987 1.394 1.662 1.403.205.003.326-.24.52-.312.324-.12.837.004 1.038-.312.434.336 1.344-.069.935-.57-.254.057-.257.366-.623.31-.086-.09.32-.344.105-.57-.577.527-1.276.786-2.18.882-.171-.189-.375-.51-.568-.779-.156-.217-.54-.528-.252-.727.382.707 2.51 1.056 2.767-.156.591.2 1.692.35 2.365.052v-.155c-.224-.093-.342.072-.6.051-.107-.178.428-.131.336-.467-.411-.082-.737.44-1.195.416-.318-.017-.455-.278-.779-.364.103-.646.044-1.375-.052-1.973.628-.333 1.314.03 1.766.311.114-.11.01-.23-.052-.311.207-.02.337.208.52.051-.36-.9-1.47-.209-2.338-.467-.226-.067-.35-.44-.623-.52-.763-.222-1.508.201-1.921.676-.15-.503.753-.788.883-1.35.344.32.877.468 1.35.415.042-.395-.459-.306-.727-.416-.247-.1-.395-.327-.623-.311-.643.045-.937 1.13-1.558 1.246a.244.244 0 00-.156-.051c-.241-.895.217-1.861 1.298-1.766.359-.351.847-.573 1.039-1.091-.257-.222-.45.194-.675-.104-.08.076-.046.266-.052.416-.282.497-1.154.404-1.558.779-.074.272-.21.482-.312.727-.997-1.355-2.077-3.203-3.583-4.259-.945-.662-1.906-1.307-3.168-1.765" fill="#381400" transform="translate(91.328 -144.945)"/></g><use xlink:href="#a" width="100%" height="100%"/><use xlink:href="#a" transform="translate(0 19.952)" width="100%" height="100%"/><use xlink:href="#a" transform="translate(0 39.904)" width="100%" height="100%"/><use xlink:href="#a" transform="translate(0 59.857)" width="100%" height="100%"/><use xlink:href="#a" transform="translate(0 79.809)" width="100%" height="100%"/><use xlink:href="#a" transform="translate(0 99.761)" width="100%" height="100%"/><use xlink:href="#a" transform="translate(0 119.713)" width="100%" height="100%"/><use xlink:href="#a" transform="translate(0 139.665)" width="100%" height="100%"/><use xlink:href="#a" transform="translate(17.5)" width="100%" height="100%"/><use xlink:href="#a" transform="translate(17.5 19.952)" width="100%" height="100%"/><use xlink:href="#a" transform="translate(17.5 39.904)" width="100%" height="100%"/><use xlink:href="#a" transform="translate(17.5 59.857)" width="100%" height="100%"/><use xlink:href="#a" transform="translate(17.5 79.809)" width="100%" height="100%"/><use xlink:href="#a" transform="translate(17.5 99.761)" width="100%" height="100%"/><use xlink:href="#a" transform="translate(17.5 119.713)" width="100%" height="100%"/><use xlink:href="#a" transform="translate(17.5 139.665)" width="100%" height="100%"/><use xlink:href="#a" transform="translate(35)" width="100%" height="100%"/><use xlink:href="#a" transform="translate(35 19.952)" width="100%" height="100%"/><use xlink:href="#a" transform="translate(35 39.904)" width="100%" height="100%"/><use xlink:href="#a" transform="translate(35 59.857)" width="100%" height="100%"/><use xlink:href="#a" transform="translate(35 79.809)" width="100%" height="100%"/><use xlink:href="#a" transform="translate(35 99.761)" width="100%" height="100%"/><use xlink:href="#a" transform="translate(35 119.713)" width="100%" height="100%"/><use xlink:href="#a" transform="translate(35 139.665)" width="100%" height="100%"/><use xlink:href="#a" transform="translate(52.5)" width="100%" height="100%"/><use xlink:href="#a" transform="translate(52.5 19.952)" width="100%" height="100%"/><use xlink:href="#a" transform="translate(52.5 39.904)" width="100%" height="100%"/><use xlink:href="#a" transform="translate(52.5 59.857)" width="100%" height="100%"/><use xlink:href="#a" transform="translate(52.5 79.809)" width="100%" height="100%"/><use xlink:href="#a" transform="translate(52.5 99.761)" width="100%" height="100%"/><use xlink:href="#a" transform="translate(52.5 119.713)" width="100%" height="100%"/><use xlink:href="#a" transform="translate(52.5 139.665)" width="100%" height="100%"/><use xlink:href="#a" transform="translate(70)" width="100%" height="100%"/><use xlink:href="#a" transform="translate(70 19.952)" width="100%" height="100%"/><use xlink:href="#a" transform="translate(70 39.904)" width="100%" height="100%"/><use xlink:href="#a" transform="translate(70 59.857)" width="100%" height="100%"/><use xlink:href="#a" transform="translate(70 79.809)" width="100%" height="100%"/><use xlink:href="#a" transform="translate(70 99.761)" width="100%" height="100%"/><use xlink:href="#a" transform="translate(70 119.713)" width="100%" height="100%"/><use xlink:href="#a" transform="translate(70 139.665)" width="100%" height="100%"/><use xlink:href="#a" transform="translate(87.5)" width="100%" height="100%"/><use xlink:href="#a" transform="translate(87.5 19.952)" width="100%" height="100%"/><use xlink:href="#a" transform="translate(87.5 39.904)" width="100%" height="100%"/><use xlink:href="#a" transform="translate(87.5 59.857)" width="100%" height="100%"/><use xlink:href="#a" transform="translate(87.5 79.809)" width="100%" height="100%"/><use xlink:href="#a" transform="translate(87.5 99.761)" width="100%" height="100%"/><use xlink:href="#a" transform="translate(87.5 119.713)" width="100%" height="100%"/><use xlink:href="#a" transform="translate(87.5 139.665)" width="100%" height="100%"/><use xlink:href="#a" transform="translate(105)" width="100%" height="100%"/><use xlink:href="#a" transform="translate(105 19.952)" width="100%" height="100%"/><use xlink:href="#a" transform="translate(105 39.904)" width="100%" height="100%"/><use xlink:href="#a" transform="translate(105 59.857)" width="100%" height="100%"/><use xlink:href="#a" transform="translate(105 79.809)" width="100%" height="100%"/><use xlink:href="#a" transform="translate(105 99.761)" width="100%" height="100%"/><use xlink:href="#a" transform="translate(105 119.713)" width="100%" height="100%"/><use xlink:href="#a" transform="translate(105 139.665)" width="100%" height="100%"/><use xlink:href="#a" transform="translate(122.5)" width="100%" height="100%"/><use xlink:href="#a" transform="translate(122.5 19.952)" width="100%" height="100%"/><use xlink:href="#a" transform="translate(122.5 39.904)" width="100%" height="100%"/><use xlink:href="#a" transform="translate(122.5 59.857)" width="100%" height="100%"/><use xlink:href="#a" transform="translate(122.5 79.809)" width="100%" height="100%"/><use xlink:href="#a" transform="translate(122.5 99.761)" width="100%" height="100%"/><use xlink:href="#a" transform="translate(122.5 119.713)" width="100%" height="100%"/><use xlink:href="#a" transform="translate(122.5 139.665)" width="100%" height="100%"/></g><use xlink:href="#b" width="100%" height="100%" transform="translate(0 -210)"/><use xlink:href="#b" transform="translate(150 -32)" width="100%" height="100%"/><use xlink:href="#b" transform="translate(150 -242)" width="100%" height="100%"/><use xlink:href="#b" transform="translate(300)" width="100%" height="100%"/><use xlink:href="#b" transform="translate(300 -210)" width="100%" height="100%"/><use xlink:href="#b" transform="translate(450 -242)" width="100%" height="100%"/><use xlink:href="#b" transform="translate(450 -32)" width="100%" height="100%"/></svg>