<svg xmlns="http://www.w3.org/2000/svg" xmlns:xlink="http://www.w3.org/1999/xlink" height="420" width="600"><g id="a" stroke-width=".311"><path d="M82.785 322.181c-.304-2.02.181-4.866 2.913-4.896-2.214 1.116-2.68 2.956-2.913 4.896zm1.768 7.283c1.372 2.036 1.646 5.275 1.877 7.543-.55-2.483-2.408-5.511-1.877-7.543zM74.085 360.88c-1.083.333-2.425 1.283-3.27 1.039-.278-.99.32-1.614 1.302-2.074.223 1.384 1.386.511 1.968 1.035zm9.287-64.199c1.43-1.014 4.12-2.321 5.175-.898-1.691-.126-3.753.244-5.175.898zm2.589 4.788c.263-.109.526-.218.789-.329.563 4.092 2.115 8.592 2.403 12.565-1.57-4.17-1.345-8.668-3.192-12.236zm4.867 26.026c-.24-1.118-.552-2.267-.403-3.223.284 1.137.842 2.387.403 3.223zm2.017 21.346c1.143 3.388 1.762 6.554 2.107 9.606-1.33-3.463-2.46-6.842-2.107-9.606zm-4.297-47.821c-.333.952.512 2.395.512 3.487.463 2.272-1.773-4.046-.512-3.487zm7.1 58.372c.256.436.7.413 1.272.09.055 1.262.175 2.549-.388 3.551-.326-1.228-.93-2.569-.884-3.64zm-6.311-58.7c.405.252.92.239 1.378.359-1.067 2.464 1.438 7.577.838 9.509-.571-3.217-1.373-6.533-2.216-9.868zm7.255 42.292c-.25.708.022 2.763-.447 2.652.013-.805-.741-3.059.447-2.652zm2.651 26.633c-.467-3.48.782-8.533.636-10.425.174 3.633.056 7.15-.636 10.425zm-7.273-64.772c-.381-1.106-.756-2.206-.665-3.113.525 1.161.9 2.264.665 3.113zm7.812 34.671c.078-1.139-.884-3.852.28-3.812-.38 1.01.284 3.601-.28 3.812zm22.094 14.001c1.059-.288 1.65-.769 1.891-1.394.625.421 1.265.801 1.658 1.78-1.338.241-2.556.198-3.549-.386zm-86.885-60.626c3.444 4.526.242 10.28 2.757 16.421 2.247 5.481 5.995 7.717 11.203 9.25.058.46-.736.566-.092 1.267 4.237 2.748 8.792 4.734 13.447 6.478-.138.738-.138 1.54.45 2.585.74-.03 1.395.143 2.324-.341 2.911 3.138 7.672 1.837 12.486.401.991 1.815 3.19.723 4.774 1.116.819 4.924 3.852 10.77 5.346 15.97-5.038 4.609-15.545 8.787-18.466 15-1.252-.025-2.51 1.083-3.208 1.934-.248.552.325 1.447.608 2.217-1.323 6.356-2.05 12.966-2.711 19.599-.498.13-2.562-.12-2.416 1.613-3.294-1.596-7.803 1.294-6.878 4.986-1.567.62-2.19-1.03-3.657-.65.8 2.298 3.055 2.508 4.2 1.966 1.946-.92.996-4.136 2.911-4.894.884.1.146 2.018 1.24 2.26 3.16.487 3.056-2.525 5.794-2.382-.387-1.908.98-3.084 2.229-4.312.763-5.642 2.715-10.795 1.89-17.1 2.033.473 1.858-1.223 2.353-2.512 5.22-1.596 7.028-5.242 9.805-8.351 2.17-2.425 4.462-4.06 6.863-6.521 1.817 2.373 3.886 7.573 5.036 11.476 1.882 6.384 1.763 13.593 6.43 18.605 1.848-1.841 1.69-5.112 1.828-7.53.438-7.634.598-16.094.494-24.226.232-.865 1.38.488 2.168.03.769-.553 1.078-1.297.931-2.23 3.124 1.87 6.25 3.497 9.528 5.93 3.451 2.562 6.009 5.17 10.255 4.71.691.648.262.988.868 2.104.564.041.972.461 1.799-.123.934 5.971 3.193 9.964 5.825 16.39 1.731.889 3.147 2.029 3.426 3.826 2.208-.954 2.98 1.952 5.67 1.052 1.186-.45.472-1.693.818-2.494 2.041-.535 2.105 3.676 3.798 3.984 1.763-.023 4.467-.867 3.67-3.056-1.148.468-1.131 1.421-2.678 1.721-1.169-3.115-3.85-6.235-8.181-3.408-.684-.799-1.252-1.884-2.76-.713-.787-5.284-5.643-13.339-6.954-18.387-.277-1.05.41-1.805-.188-2.696-.701-1.045-2.295-1.197-3.239-1.13-5.746-6.102-14.032-6.113-20.574-10.311-.834.086-.53.648-1.208.801-.574-1.763-1.606-2.43-3.036-2.136-.086-5.199-.102-10.37.104-15.445 1.406-.944 4.863-1.031 4.046-2.899 3.878-.664 10.54-1.424 11.261-5.563.857-.3 2.193-.18 2.634-1.084.228-.541-.324-1.885-.868-2.106a109.243 109.243 0 009.929-11.791c-.122-.935-.75-.644-1.07-1.101 6.066-4.652 8.412-11.23 5.204-18.778-.853-2.002-2.677-3.786-3.13-6.102-.239-1.219.69-2.783.17-4.074-4.13 3.692 1.15 8.482 1.767 12.516.96 6.28-5.4 10.6-5.172 16.608-6.788 1.128-5.904 7.07-9.68 10.15.043.657-.878 1.384.122 1.794-1.022.362-1.456-.692-2.54-.182.107 4.966-8.126 3.037-9.867 7.452-.952-.512-2.249-.19-3.44-.123.125-3.444-2.408-5.837-4.77-6.352-.325-1.007.766-1.424-.188-2.695 4.417-2.378 5.65-6.082 9.325-8.769-.767-5.396-5.147-6.441-8.383-7.64 2.147-1.067.102-3.881 1.905-5.096.94-.86.603 1.347 1.332.993 1.54-.794-.502-2.681-1.347-2.526-2.925 1.762-5.227 3.95-4.43 6.445.988 3.097 6.652 4.59 8.165 7.108-2.971 2.619-7.934 4.407-7.266 8.54-.688.639-1.557.337-1.889 1.393-.333-3.714 1.323-11.154-3.828-12.284.999-1.257 2.33-2.376 1.224-4.509l2.633-1.085c-1.546-16.184-4.233-38.567-1.29-53.988.38-2.01.928-4.356 1.84-5.996.629-1.131 2.353-3.91 3.13-4.37 2.96-1.752 6.44.098 6.863 3.95-.913.273-1.483-.28-2.587.449-.342 1.023-.58 2.087.247 3.595.767.254 2.004-.619 3.006-.931-.078-2.392 1.18-4.139-.28-6.661-1.069-1.847-5.041-3.558-7.9-1.983-2.067 1.139-4.45 5.303-5.267 7.408-2.963 7.605-2.24 17.79-2.786 27.637-.579 10.474-.435 20.57 1.677 29.498-3.262 1.938-6.344 1.45-9.495 2.37-3.92-13.84-11.655-30.206-18.844-42.756-3.745-6.532-8.727-11.401-14.21-13.553-5.95 1.013-7.997 5.988-4.01 11.2.96.143 1.948.213 3.067-.03.54-.795-.304-2.163-.775-3.378-.822-.224-1.805-.059-2.477.713-2.282-3.684.68-6.204 3.95-6.862 6.738 2.16 11.362 10.22 15.586 19.145 5.662 11.963 12.091 26.097 14.507 37.46 1.124.264 2.245.539 3.545.385.636 1.622 1.473 2.747 2.573 3.254-3.528 2.76-1.075 10.053 1.784 14.05-.073.883-.99.75-2.154 1.502-.541-.396-.114-3.366-2.292-1.826-1.127-3.593-5.145-4.278-7.731-6.058-.7-4.151 7.393-8.86 1.763-13.663-1.07-.045-1.571.115-2.478.713-.439-.865 1.065-1.493-.233-2.06-1.73.515-1.482 1.854-.76 3.391 1.68.652 2.705.028 4.09 1.705-1.857 2.499-5.801 4.128-6.644 7.05.672 1.226.78 2.216.296 2.96 3.566 2.608 7.296 4.833 10.195 9.048.263.757 1.013.35 1.486.618-.546 2.1-.557 4.422-.248 6.878.055.388-2.33.474-2.524 1.346-3.295-2.744-9.684 1.95-12.348-2.305-1-.068-1.097.621-1.997 1.132-2.69-2.85-7.127-5.896-11.078-7.453-1.016.522-1.655.133-2.741.822-2.913-5.998-10.05-7.082-11.933-13.26-1.197-3.933 1.914-9.738-3.454-12.13" fill="#381400" transform="matrix(.42819 0 0 .42819 16.592 228.113)"/><path d="M96.92 359.483c.055 1.261.175 2.548-.388 3.55-.326-1.228-.93-2.569-.884-3.641.256.436.7.413 1.272.09M99.243 369.617c-.467-3.48.782-8.533.636-10.425.174 3.633.056 7.15-.636 10.425M90.715 301.05c-1.067 2.465 1.438 7.578.838 9.51-.571-3.217-1.373-6.533-2.216-9.868.405.252.92.239 1.378.359M96.592 342.984c-.25.708.022 2.763-.447 2.652.013-.805-.741-3.059.447-2.652M123.767 352.123c.625.421 1.265.801 1.658 1.78-1.338.241-2.556.198-3.549-.386 1.059-.288 1.65-.769 1.891-1.394M100.063 335.704c-.38 1.01.283 3.601-.28 3.812.077-1.139-.885-3.852.28-3.812M91.305 301.732c.525 1.161.9 2.264.665 3.113-.381-1.106-.756-2.206-.665-3.113M70.815 361.919c-.278-.99.32-1.614 1.302-2.074.223 1.384 1.386.511 1.968 1.035-1.083.333-2.425 1.283-3.27 1.039M85.698 317.285c-2.214 1.116-2.68 2.956-2.913 4.896-.304-2.02.181-4.866 2.913-4.896M88.547 295.783c-1.691-.126-3.753.244-5.175.898 1.43-1.014 4.12-2.321 5.175-.898M86.43 337.007c-.55-2.483-2.408-5.511-1.877-7.543 1.372 2.036 1.646 5.275 1.877 7.543M90.425 324.272c.284 1.137.842 2.387.403 3.223-.24-1.118-.552-2.267-.403-3.223M94.952 358.447c-1.33-3.463-2.46-6.842-2.107-9.606 1.143 3.388 1.762 6.554 2.107 9.606M89.153 313.705c-1.57-4.17-1.345-8.668-3.192-12.236.263-.109.526-.218.789-.329.563 4.092 2.115 8.592 2.403 12.565M88.548 301.02c-.333.952.512 2.395.512 3.487.463 2.272-1.773-4.046-.512-3.487" fill="#fff" transform="matrix(.42819 0 0 .42819 16.592 228.113)"/><path d="M94.138 319.095c.38.566.381 1.577-.415 1.837-8.187 2.688-.817 12.285.988 17.397 1.203 3.402 2.068 7.794 2.207 11.322.186 4.74 1.942 9.276 1.816 13.95-.014.484-.66.528-.864.155-1.186-2.176-1.475-4.005-1.922-6.493-.879-4.886-3.69-9.572-5.6-14.068-2.173-5.115-4.857-10.175-6.506-15.483-1.75-5.632 5.76-15.353 10.296-8.617M85.635 304.193c.223-.814 1.416-1.221 2.073-.668.948.79 1.223 2.232 1.593 3.358.447 1.366 1.359 3.137.555 4.493-.53.892-1.708.915-2.505.45-1.118-.654-1.18-2.738-1.37-3.894-.19-1.15-.662-2.587-.346-3.739M85.017 296.196c1.084-.195 1.965.879 1.621 1.905a3.393 3.393 0 00-.047.139c-.305.907-1.772 1.33-2.355.424l-.076-.119c-.568-.881-.315-2.138.857-2.349" fill="#782b00" transform="matrix(.42819 0 0 .42819 16.592 228.113)"/><path d="M98.345 320.91c.223.615.315 1.222.33 1.874.005.187-.271.179-.31.016-.137-.579-.274-1.113-.558-1.639-.183-.341.408-.61.538-.252M97.79 332.42c-.242-2.55-.457-5.097-1-7.605-.182-.826 1.026-.996 1.258-.227.749 2.477 1.155 4.963 1.415 7.533.201 2.008.836 4.178.24 6.132-.084.274-.499.363-.67.122-1.203-1.702-1.052-3.928-1.244-5.955M90.36 306.359c.049-1.167 1.596-1.06 1.888-.095.156.513.234 1.045.4 1.553.177.527.3 1.116.098 1.651a.68.68 0 01-.688.447c-1.576-.158-1.75-2.335-1.699-3.556M54.616 319.937c.967-.429 2.093.436 2.902.928 1.228.748 2.32 1.635 3.373 2.61.363.336-.184.857-.566.616-1.06-.672-2.126-1.346-3.217-1.967-.812-.464-2.283-.83-2.645-1.77-.06-.158-.01-.343.153-.417M42.748 312.821a.953.953 0 01.245-.349c.2-.175.532-.247.782-.141.696.293 1.259.88 1.83 1.372.608.524 1.111 1.176 1.632 1.784.408.476-.249 1.218-.754.82-.582-.456-1.236-.804-1.816-1.256-.587-.456-1.327-.855-1.777-1.448-.158-.208-.26-.527-.142-.782M122.009 305.459c.41-.679.826-1.354 1.227-2.038.544-.928 1.873.028 1.36.944-.351.631-.715 1.252-1.075 1.875-.356.616-.696 1.304-1.492 1.328-.193.007-.354-.15-.44-.307-.34-.614.105-1.282.42-1.802" fill="#9fffda" transform="matrix(.42819 0 0 .42819 16.592 228.113)"/></g><use xlink:href="#a" transform="translate(389.243 -61.207)" width="100%" height="100%"/><use xlink:href="#a" transform="translate(.596 -68.862)" width="100%" height="100%"/><use xlink:href="#a" transform="translate(38.176 -68.25)" width="100%" height="100%"/><use xlink:href="#a" transform="translate(444.677 -9.953)" width="100%" height="100%"/><use xlink:href="#a" transform="translate(73.12 -71.754)" width="100%" height="100%"/><use xlink:href="#a" transform="translate(-2.05 -245.33)" width="100%" height="100%"/><use xlink:href="#a" transform="translate(8.2 -308.2)" width="100%" height="100%"/><use xlink:href="#a" transform="translate(30.752 -226.196)" width="100%" height="100%"/><use xlink:href="#a" transform="translate(41.686 -271.982)" width="100%" height="100%"/><use xlink:href="#a" transform="translate(65.604 -313.667)" width="100%" height="100%"/><use xlink:href="#a" transform="translate(72.437 -245.33)" width="100%" height="100%"/><use xlink:href="#a" transform="translate(189.977 2.05)" width="100%" height="100%"/><use xlink:href="#a" transform="translate(222.096 -18.451)" width="100%" height="100%"/><use xlink:href="#a" transform="translate(192.027 -61.503)" width="100%" height="100%"/><use xlink:href="#a" transform="translate(230.98 -75.854)" width="100%" height="100%"/><use xlink:href="#a" transform="translate(256.948 -36.219)" width="100%" height="100%"/><use xlink:href="#a" transform="translate(246.014)" width="100%" height="100%"/><use xlink:href="#a" transform="translate(496.128 -8.884)" width="100%" height="100%"/><use x="0" y="0" xlink:href="#a" id="b" transform="translate(80.638 -5.467)" width="100%" height="100%"/><use xlink:href="#b" transform="translate(319.818 -3.417)" width="100%" height="100%"/><use x="0" y="0" xlink:href="#b" id="c" transform="translate(156.492 -213.212)" width="100%" height="100%"/><use xlink:href="#c" transform="translate(252.847 157.175)" width="100%" height="100%"/><use xlink:href="#c" transform="translate(203.645 154.442)" width="100%" height="100%"/><use xlink:href="#a" transform="translate(196.128 -312.3)" width="100%" height="100%"/><use xlink:href="#a" transform="translate(200.228 -261.048)" width="100%" height="100%"/><use xlink:href="#a" transform="translate(202.961 -209.795)" width="100%" height="100%"/><use xlink:href="#a" transform="translate(416.856 -276.765)" width="100%" height="100%"/><use xlink:href="#a" transform="translate(239.18 -305.467)" width="100%" height="100%"/><use xlink:href="#a" transform="translate(239.863 -257.631)" width="100%" height="100%"/><use xlink:href="#a" transform="translate(498.178 -310.25)" width="100%" height="100%"/><use xlink:href="#a" transform="translate(468.793 -259.681)" width="100%" height="100%"/><use xlink:href="#a" transform="translate(423.007 -226.88)" width="100%" height="100%"/><use xlink:href="#a" transform="translate(450.342 -302.05)" width="100%" height="100%"/><use x="0" y="0" xlink:href="#a" id="d" transform="translate(43.736 -2.05)" width="100%" height="100%"/><use xlink:href="#d" transform="translate(450.342 -224.83)" width="100%" height="100%"/></svg>