<svg xmlns="http://www.w3.org/2000/svg" xmlns:xlink="http://www.w3.org/1999/xlink" height="420" width="600"><g id="b" transform="translate(1.192 -.146)"><g id="a" stroke-width=".479"><path d="M522.857 495.541c-1.865 6.674-5.19 11.886-6.482 19.132-.066-.345-.342-.478-.618-.616-.32-4.466 1.382-7.126 2.779-10.492 1.207-2.905 1.448-6.87 4.321-8.024zm-17.898 3.395c.366 7.796 1.986 16.632 4.629 23.145 1.532-2.042-1.247-4.154-1.853-6.789-1.035-4.512-1.696-13.89.309-17.899 1.216 2.256-.18 6.383.308 9.875.815.492-.31-3.592.927-3.703 1.002 1.228.078 2.503.617 4.012 1.057-3.468.58-8.472 3.393-10.184-1.365 5.371-4.349 16.246-1.541 22.217 1.176-1.531-1.193-4.457-.617-7.405 3.58-3.146 1.273-14.462 6.172-17.281-.5 3.225-2.672 7.395-2.776 12.036 1.822-3.423 2.124-8.367 4.934-10.801-.078-.64-1.354-.085-1.542-.618.461-1.36 1.818.008 3.086-.308-2.568 5.56-6.666 12.18-5.248 19.75.975.59 1.667-1.292 2.779-1.543.792-7.642 3.532-13.339 7.097-18.207.812-.094 1.012.428.927 1.235.97.148.697-.948 1.852-.617.903.261-.185.993 0 1.542 1.403.378 1.21-.846 2.468-.617.099 2.29 3.888 2.664 5.863 4.012-1.44 2.573-5.079 4.587-5.555 7.097 3.233-1.087 3.115-5.526 7.099-5.863-.55 3.051-4.039 3.164-4.631 6.173 2.544-1.185 4.644-7.197 8.024-3.704-.396 1.562-3.448 2.098-3.087 3.394 2.287.125 2.227-2.093 4.014-2.469 1.469-.441.765 1.29 2.158.927-6.604-12.723-34.762-16.702-47.522-6.79.077.335.614.21.617.618-1.803.357-2.327 1.994-4.628 1.851-3.17 4.88-12.245 10.637-11.417 19.131.324 3.323 3.213 7.798 4.937 10.803 1.93 3.368 4.464 6.23 6.48 8.948.859-.583-.787-1.247-.31-2.468-4.615-4.332-8.34-9.557-9.565-17.283 2.162 3.702 3.4 8.327 5.864 11.727.318-1.856-2.64-4.43-1.544-7.096-2.07-2.661-3.778-5.686-3.704-10.492 1.18 3.141 1.91 6.73 3.704 9.257.498-2.033-2.466-4.602-1.541-7.097 1.408.853 1.38 3.144 2.159 4.63 1.014-2.197-2.006-4.517-.618-7.1 1.347 2.46 1.81 5.803 3.396 8.025 1.346-3.931-3.768-7.505-2.469-12.346 1.56 3.686 2.628 7.864 4.628 11.11 1.91-4.44-2.497-7.466-2.159-12.344 2.362 5.25 4.268 10.954 7.096 15.74.844-6.288-6.513-12.39-5.554-20.676 3.112 10.466 7.07 21.73 14.505 26.846.424-2.2-2.081-2.425-3.087-3.393-2.541-2.442-4.033-6.934-5.557-10.803-1.564-3.978-4.124-8.15-3.392-12.341 1.317 1.355.919 4.43 2.159 5.861.842.803-2.576-6.3-.615-7.713 2.87 9.985 5.336 20.377 12.341 26.23-.797-3.64-4.185-5.21-5.862-8.333-1.068-6.765-6.151-12.754-4.32-20.366 1.208 6.506 2.562 12.869 5.246 17.897-.452-5-3.869-11.352-2.778-17.897-.075-.336-.612-.208-.616-.618 2.78-2.68 8.238-4.293 12.65-4.32-3.51 1.427-7.953 1.922-11.106 3.704.528 9.96 2.574 18.406 6.169 25.304-2.016-6.22-5.45-16.966-3.393-25.613M510.667 531.03v3.703c1.333.128.185 1.691 1.158 1.542.199-1.344-.288-3.489.424-4.319 1.062 1.473 2.251 3.085 3.762 4.319 3.273 2.677 8.462 3.752 9.904 7.097-4.756-1.932-9.286-5.717-12.947-7.713 2.416 2.944 6.293 5.448 9.575 7.096 1.078.543 3.213.461 3.396 2.162-5.138-1.141-9.914-5.308-14.503-8.025 3.13 4.999 10.981 6.917 14.815 10.184-5.355-.715-8.839-4.941-13.27-5.555 2.962 2.01 6.21 4.688 10.183 5.863 1.581.468 3.697.02 4.937 1.544-5.492-.773-11.877-2.243-15.12-6.173.087.9-.072 1.061-.617.617-1.687-1.436-1.81-5.283-1.776-8.639.019-1.586.079-4.135.079-3.704" fill="#fff" transform="translate(-108.236 255.057) scale(.27841)"/><path d="M500.639 532.264c1.238 1.95 5.317 2.703 5.554 4.628-1.698-1.492-5.24-2.782-5.554-4.628M520.388 548.619c-1.916-.762-4.536-1.205-4.937-2.778 2.882 2.464 7.874 2.823 11.416 4.63-2.258.066-4.536-1.08-6.479-1.852M530.263 550.779c-1.099.069-1.848-.208-2.162-.926 1.099-.07 1.85.208 2.162.926M518.536 551.396c1.784.273 3.492.623 4.936 1.235-1.907-.148-3.941-.175-4.936-1.235M499.096 526.09c1.625 3.213 5.685 5.629 7.097 8.025-2.936-1.9-6.557-4.754-7.097-8.024M494.776 537.51c.185-.637-.5-2.145.615-1.851 3.166 3.622 8.01 5.566 11.729 8.64-4.683-1.698-8.063-4.695-12.344-6.789M495.7 531.956c-.101 1.042 1.855 1.621.928 2.468-.183-.763-1.836-1.64-.928-2.468M527.484 541.521c-1.867-.361-.557-2.023-1.541-3.085 2.598 3.262 4.484 8.884 6.789 11.417-2.11-2.26-5.579-4.644-5.248-8.332M496.317 531.337c-.489-.554-1.077-2.604-.309-3.393-.128 1.07 1.763 1.712.927 2.468-.534-1.176.024 1.202-.618.925M495.084 520.845c.556 1.91 1.61 3.326 2.468 4.939-.99-.27-.637.8-1.235.925-.789-.55.207-2.88-.617-3.394-.635.083-.072 1.366-.924 1.234-.243-.833-.844-3.382.308-3.704M536.743 513.75c-1.36 2.136-1.006 5.99-2.47 8.022.888-2.612-.041-7.037 2.47-8.023M537.67 552h-1.853c-.122-1.333 1.664-1.333 1.852 0M552.173 532.264c1.714-.48 2.394 3.022 2.159 2.47-.565-.98-1.399-1.687-2.159-2.47M540.755 519.61c1.888-.475 2.329-2.402 4.321-2.775-.1 1.546-1.99 1.301-1.852 3.084-.74-.186-2.24.388-2.47-.309M543.224 515.6c-.599 1.102-2.32 3.607-4.323 4.319 1.143-1.572 2.06-4.882 4.323-4.319M494.467 540.286c1.377.378 2.77 2.363 2.776 3.086-1.159-.792-1.959-1.95-2.776-3.086M536.125 520.845c.294-2.484.946-4.608 1.851-6.48 1.164-.236 1.477.378 2.47.308-1.686 1.812-1.522 5.475-4.32 6.172M549.393 539.67c-.262 2.115.768 2.938 1.238 4.32-1.503.165-1.446-1.23-2.47-1.542.394-.944.096-2.577 1.232-2.777M539.521 546.15c-1.125.66-5.286-.845-7.406-1.233-1.115-1.156-2.282-3.886-2.162-5.246 3.094 2.105 9.183 6.746 13.888 4.318-3.221-.141-6.19-1.23-8.641-2.468-2.265-1.146-5.695-2.338-5.864-5.553 3 1.552 7.552 7.43 12.344 6.17-4.05-2.32-13.975-5.6-11.417-11.726 1.932 4.343 5.07 9.123 9.876 9.567-3.999-2.998-7.762-6.231-9.259-11.727.656-.781 1.087-1.793 1.852-2.468.276 6.819 3.307 10.888 8.023 13.268-3.236-3.966-6.87-7.53-7.099-14.503.865-.08 1.743-1.734 2.47-.926-.602 5.541.978 11.57 4.629 13.887-1.184-2.971-3.552-8.15-3.703-12.035-.036-.936-.276-3.347 1.235-3.394.182 3.876-.41 11.07 2.776 12.96-.251-1.734-1.052-4.245-1.235-6.789-.15-2.12-.615-5.913.927-6.48-.211 2.992-.531 8.96.925 12.033-2.096 6.405 2.07 10.822 6.172 12.962-5.079-.487-12.336-3.084-16.355-4.628 1.43 2.58 4.79 3.234 8.024 4.012M550.63 539.361c1.65-.202 2.735 1.778 1.85 3.087-.03-.787-1.15-.73-1.541-.31-.26-.77-.404-1.654-.308-2.777M543.53 549.853c-2.043.712-4.905.115-6.17-.925 1.973.39 4.299.433 6.17.925M497.243 540.595c1.172 1.195 2.681 2.05 4.322 2.777-.461.703-4.672-1.656-4.322-2.777M449.105 534.115c1.534-1.324 4.563.08 4.014 2.777-.347.067-.482.344-.62.618-2.304.043-3.7-.826-3.394-3.395zm23.76 14.194c1.71.864 2.607 2.538 2.779 4.939-1.7-.872-1.845-3.296-2.779-4.939zM441.39 537.51c.916 3.92 5.61 4.06 6.172 8.331.342-1.05 1.711-1.085 1.852.31.583-.035.216-1.022.927-.926 1.653.94 1.216 3.732 2.468 4.319.816-1.239-1.17-2.317-.927-4.012.703-.085 1.162.075 1.238.619.544-.007-.492-1.456.306-1.853 1.983 1.105 2.032 4.14 3.394 5.865.82-1.408-1.836-3.416-.618-5.246 1.438.207 1.131 2.162 1.852 3.085.714.48-.536-1.753-.306-2.777 3.006 1.311 2.278 6.36 4.937 8.023.353-2.075-3.401-5.759-1.545-8.33 1.042 1.837 1.562 4.194 2.472 6.168.508-1.489-1.855-4.249-.62-6.48 1.872 2.963 2.37 7.302 4.32 10.185.646-2.422-2.724-6.102-2.468-10.184 3.049 2.405 2.237 8.666 5.864 10.491-.719-2.262-2.258-3.709-2.468-6.48 2.577 1.02 2.218 4.98 4.32 6.48 1.065-1.529-2.074-4.065-2.162-6.482 2.344.54 3.23 4.172 3.396 5.86.771.552 2.479-.599 3.394-.93-.579-2.405-2.396-3.58-2.47-6.49 2.71.788 1.542 5.433 4.63 5.845-.855-2.13-2.304-3.701-2.468-6.52 2.384 1.416 1.186 6.343 5.244 6.09-1.282-2.007-2.97-3.771-3.394-6.635 1.907 1.485 3.078 3.497 3.7 6.164h1.855c-1.49-1.333-2.95-3.732-3.396-6.783 1.803 1.902 2.863 4.863 4.01 7.414.73.007.909-.533 1.854-.31-1.236-1.954-2.687-3.69-3.395-6.17 2.578 1.02 2.562 4.637 4.938 5.863-2.964-8.15-11.752-13.138-13.27-23.762-6.878 6.697-16.909.496-24.996-.308-3.661 2.408-6.236 5.9-8.64 9.566M504.033 549.853c1.787.579 3.719 1.012 5.246 1.851-2.154-.212-3.771-.959-5.246-1.85M491.38 531.337c.67.377.987 2.695.31 3.396-.54-.428-1.797-2.95-.31-3.396M488.604 527.325c.424 1.228 2.383 2.543 1.235 4.32-.091-1.561-1.922-3.006-1.235-4.32M491.997 526.71c.162.485 1.191 1.651.31 2.158-.32-.583-1.61-1.775-.31-2.159M490.453 526.09c-.286-1.263-2.098-2.618-1.232-4.009.232 1.319 2.224 2.495 1.232 4.01M493.232 533.498c.727.42.956 2.935.31 3.704-.791-.611-1.509-2.935-.31-3.704M492.615 522.697c.47.538 1.213 2.742 0 3.087-.475-.539-1.216-2.743 0-3.087M493.85 529.486c-.233.95.845.594.617 1.543-.964.098-1.65-1.428-.618-1.543" fill="#fff" transform="translate(-108.236 255.057) scale(.27841)"/><path d="M488.295 539.67c-2.831-3.553-4.292-7.454-6.48-9.567.89 4.561 3.497 7.405 5.554 10.801 1.498 2.163-1.454-1.935-1.853-2.468-1.164-1.57-3.021-3.196-3.701-4.63-1.984-4.169-1.072-10.95-4.936-12.653 1.793 4.204 1.353 8.776 2.774 12.652 1.803 4.915 6.55 8.336 9.568 11.727-.076.76-2.016-.922-2.778-1.543-6.191-5.046-11.095-15.328-9.874-25.303 4.259 2.426 4.986 7.89 7.098 12.035 2.19 4.3 5.5 7.603 7.713 11.418 2.055 1.357 3.68 2.612 5.863 4.012 1.59 1.018 6.284 3.516 2.468 1.85-3.738-1.632-8.068-4.13-11.416-8.33M487.677 547.384c1.206 1.057 2.93 1.596 4.014 2.779-1.1.033-1.123 1.141-2.47.923-.005-1.547-2.245-2.474-1.544-3.702M551.247 535.968c.546-.277.9-.747 1.544-.928.16.457.457.779.617 1.235-.641-.184-2.028.38-2.161-.307M542.607 521.333h2.158c-.413 2.667-1.364 3.476-1.541 5.774-.183 2.34 1.185 5.217-.927 5.444.143-4.114-.753-7.218.31-11.218M521.93 514.057c-.733.194.049 1.9-.618 2.16-.615 1.019-1.317-.765-1.541 0-1.23 6.455 3.445 12.13 5.862 16.974-4.232-3.895-8.164-8.09-8.641-15.739 1.199-1.376 3.221-3.564 4.937-3.395M532.732 499.861c-.336 1.331-2.055 2.396-3.087 4.012-1.049 1.644-1.241 4.191-3.085 4.937 1.795-3.054 3.576-7.72 6.172-8.949M526.25 509.12c-.969-.148-1.206.44-1.851.617 1.62-4.039 3.396-7.92 6.172-10.801-.36 3.067-5.024 6.05-4.32 10.184M529.028 508.195c.467-2.419 3.56-6.518 5.863-7.1-2.639 1.684-3.735 4.91-5.863 7.1M551.247 531.956c-.202-.416-.659-.576-1.234-.619-.017-.53.238-.79.618-.925-.29.839 1.902.723.616 1.544M547.852 531.03c.148-1.813 2.033-4.55 4.01-5.555.098.727 1.074.573.929 1.544-2.976.008-2.944 3.02-4.939 4.01M550.321 533.498c-1.004.23-.938 1.53-1.542 2.16-.096-1.125.049-2.007.306-2.778 1.812-.287 3.424 1.948 1.236.618M547.852 523.315c-1.86 1.125-3.193 4.416-2.776 6.788 2.396-1.306 1.508-5.896 4.937-6.171.034 1.953-4.357 3.601-2.778 7.097-1.371-.137-2.251.22-3.087.616.505-3.145.61-10.754 3.704-8.33M547.235 537.864c-.378-1.935-.708-3.197-.311-5.864h.928c-1.065 2.667.648 5.115-.617 5.864M546.31 540.595c-.807-1.786-2.714-5.926-.617-7.715-.662 3.236 1.154 5.63.616 7.715M526.25 497.084c-1.542 3.397-3.531 7.988-5.245 10.184 1.967-3.177 2.506-7.78 5.246-10.184" fill="#fff" transform="translate(-108.236 255.057) scale(.27841)"/><path d="M545.693 519.919c.966 1.064 2.143-1.395 3.086-.309-.544.076-.703.531-.618 1.235 2.058-.102 3.226.683 4.012 1.852-2.79.228-5.102-2.441-8.332-2.778 1.126-1.752 4.042-1.716 4.938-3.702-.26-.665-1.97.115-2.162-.617.784-.03.784-1.205 0-1.235-.904-.08-.948.698-1.852.618-.716-.21-.45-1.402-1.234-1.543-3.02.843-5.036-1.385-8.331-1.235-1.656 2.46-2.057 6.171-1.85 10.492-.829.203-1.175.884-1.853 1.235-.421-3.485.194-7.285.618-10.801.765.046 1.497.058 1.541-.616-1.328.197-.968-1.295-2.159-1.235-.416.203-.576.659-.617 1.235-2.093-.195-3.915.594-4.57-.62-.853 1.203-.977 2.607-3.643 2.778v-2.158c10.666-6.084 27.141-.734 30.492 9.257-2.219-1.762-4.638-6.59-7.466-1.853M525.943 531.645c-1.719-4.46-5.704-8.568-5.236-14.193.393-.018.626-.396.626-.31v.927c1.334 2.286 1.638 4.803 2.46 7.098.834 2.324 2.832 4.676 2.15 6.478M544.148 509.427c-.179-1.105.915-.938 1.852-.924.028.954-.932.918-1.852.924zm3.396 1.234c-.721.096-1.276.604-1.85 0-.09-.805.111-1.326.923-1.234.08-.902-.698-.948-.617-1.85-1.325.319-2.688.604-3.703 1.233 1.479 1.71 4.244 2.134 5.555 4.012.96-.587-.483-1.34-.308-2.16M528.719 498.628c-1.818 3.336-5.175 6.74-4.628 11.417-1.955.411-2.674 2.06-4.63 2.47.282-.543.107-1.54.62-1.854-.188.804.122 1.112.924.927.583-2.284 2.151-4.893 3.394-7.407.97-1.961 2.284-6.714 4.32-5.553" fill="#fff" transform="translate(-108.236 255.057) scale(.27841)"/><path d="M529.028 527.019c-1.265-3.776-2.004-8.076-2.161-12.962.756-.688 2.204-.677 3.704-.617-1.756 4.337 1.298 11.421-1.543 13.579M513.599 514.057c.229 1.214 1.789 2.767 0 3.395.412-1.356-.924-2.55 0-3.395M525.633 535.659c.455-.357.779-.357 1.234 0-.182.638.384 2.026-.307 2.158-.896-.648-1.237-1.848-2.779-1.849-1.773-2.03-3.469-4.087-4.937-6.482-1.537-2.51-2.177-5.383-4.01-7.714-.162.456-.457.777-.618 1.235.672.195.981-.875.924.308.839 6.98 6.461 10.821 9.259 14.812-4.686-3.337-8.339-7.71-11.418-12.652 1.019 5.37 5.267 8.969 8.642 11.727 1.072.878 3.448 1.574 3.085 3.393-5.187-3.351-11.085-5.99-13.27-12.343.098.379-.05 1.907-.307.927.905-4.34 2.408-8.086 4.937-10.803-.279 8.03 5.877 12.203 9.565 17.283M523.015 515.908c.828-.405 2.318-.828 2.318-1.235v.927c0 3.252.704 5.87 1.384 8.332.527 1.899 2.014 3.877.618 5.247-2.602-3.262-3.47-8.26-4.32-13.271M494.159 528.252c-.187-.679-.776-2.3.308-2.468.416.45.629 2.444-.308 2.468" fill="#fff" transform="translate(-108.236 255.057) scale(.27841)"/><path d="M440.87 535.398c.805-3.203 2.851-4.638 5.42-5.143 1.195-2.003 2.789-2.866 4.587-2.948.658-.254 1.422-.292 2.232.032 4.45 1.866 9.26 1.847 13.751 2.99a2.898 2.898 0 011.65-.634c.97-.063 2.265-.154 3.54-.066 1.697-1.858 5.363-1.604 5.389 1.547.02 2.313 2.758 6.027 3.252 8.992 1.612 1.248 2.965 2.72 3.816 4.485 1.337.79 2.8 1.34 4.321 1.53 3.51.44 2.793 5.602-.45 5.913-2.18.21-6.5-.405-9.4.264-5.275 6.19-14.757 3.697-19.423-2.07-2.71.258-5.348.106-7.746-1.325-1.528-.4-2.793-1.053-3.489-2.079-1.55-.922-2.636-2.127-2.867-3.613a13.456 13.456 0 01-1.073-1.201c-2.324-1.587-4.205-3.91-3.51-6.674" fill="#ffd5a3" transform="translate(-108.236 255.057) scale(.27841)"/><path d="M444.888 535.235c1.383 1.4 1.599 1.738 2.373 3.53 2.003 4.637 5.519 4.608 9.599 4.282 4.224-.34 7.459 1.581 10.51 4.262 6.3 5.539 15.14-5.021 22.291 1.386.959.858-.138 2.552-1.29 1.893-3.899-2.225-10.635 3.496-14.548 4.692-4.072 1.245-7.7-.685-10.695-3.258-4.27-3.669-9.743-1.29-13.995-4.5-3.813-2.878-5.661-6.577-6.46-11.231-.197-1.148 1.448-1.834 2.215-1.056" fill="#e3ab68" transform="translate(-108.236 255.057) scale(.27841)"/><path d="M453.817 526.588c3.195 1.54 6.238 2.561 9.756 3.008 3.583.456 7.207.119 10.775.76 3.228.58 2.699 5.3-.424 5.563-7.677.648-16.055.03-22.853-3.84-3.427-1.95-.834-7.216 2.746-5.491" fill="#ffe8cc" transform="translate(-108.236 255.057) scale(.27841)"/><path d="M475.455 521.397c.814 3.756 1.813 7.263 3.237 10.464a4.004 4.004 0 00-.307 2.412c.576 3.046 2.275 5.575 4.83 7.178 2.736 4.85 6.594 8.504 12.942 8.905.515.032 1-.127 1.426-.407 4.341 2.08 9.462 4.324 12.352 1.034 10.001 1.663 19.35 5.146 29.33 1.417 5.102-1.908 15.1-5.521 14.203-12.547a3.018 3.018 0 00-.57-1.388c1.08-4.11 1.485-7.958.942-11.873.223-.441.327-.98.236-1.636a17.01 17.01 0 00-.264-1.425c-.26-1.28-.617-2.447-1.29-3.445a11.207 11.207 0 00-1.053-1.53c-.308-.534-.625-1.063-.89-1.619a2.79 2.79 0 00-.748-.91c-.04-.072-.083-.14-.123-.212a2.899 2.899 0 00-.303-.43c-1-6.921-5.473-12.75-11.252-16.599-3.65-2.43-10.393-5.869-15.565-4.923-3.076-.453-6.195-.586-9.275-.31-7.688.686-15.188 3.186-21.326 8.01-2.155 1.693-4.494 3.388-5.691 5.944-1.217 2.6-1.944 7.033-4.639 8.538-.817.46-1.232 1.206-1.346 2.018-2.146-1.622-5.575.022-4.856 3.334" fill="#ab7a42" transform="translate(-108.236 255.057) scale(.27841)"/><path d="M482.117 518.279c4.28-11.393 13.234-19.487 25.148-22.126 9.606-2.125 25.243-1.681 32.358 6.166.657.725-.24 1.758-1.026 1.138-7.562-5.977-23.545-3.393-31.904-1.035-9.298 2.625-14.649 10.737-17.7 19.3-1.654 4.64-8.609 1.169-6.876-3.443" fill="#db9c55" transform="translate(-108.236 255.057) scale(.27841)"/><path d="M481.168 521.13c2.25 9.062 6.681 17.38 13.637 23.753.978.896-.149 2.678-1.344 1.972-8.816-5.219-15.368-13.933-17.742-23.986-.84-3.554 4.556-5.338 5.449-1.738M516.928 518.322c8.252-7.79 25.939-10.034 33.337-.333.582.762-.604 1.746-1.274 1.083-6.98-6.901-20.535-2.02-26.998 3.812-3.63 3.277-4.894 8.761-4.869 13.425.02 3.788 2.515 6.92 2.56 10.538a.811.811 0 01-.755.837c-5.949.553-8.637-6.186-9.206-10.987-.787-6.626 2.472-13.904 7.205-18.375" fill="#db9c55" transform="translate(-108.236 255.057) scale(.27841)"/><path d="M532.221 528.43c3.248-4.235 16.155-11.147 16.979-1.56.019.22-.252.423-.45.298-4.434-2.782-9.449 2.281-11.851 5.47a10.873 10.873 0 00-2.135 7.272c.239 3.211 3.776 4.675 3.884 7.986.03.89-.515 1.725-1.379 1.995-5.018 1.566-8.558-4.743-9.118-8.918-.623-4.657 1.29-8.918 4.07-12.544" fill="#db9c55" transform="translate(-108.236 255.057) scale(.27841)"/><path d="M543.69 536.875c.47-1.511 1.48-2.732 3.069-3.089 1.464-.327 2.07 1.61.704 2.203-1.839.799-.48 3.87-1.31 5.262-.532.894-1.857 1.104-2.458.13-.766-1.24-.419-3.184-.005-4.506" fill="#db9c55" transform="translate(-108.236 255.057) scale(.27841)"/><path d="M522.857 495.541c-1.865 6.674-5.19 11.886-6.482 19.132-.066-.345-.342-.478-.618-.616-.32-4.466 1.382-7.126 2.779-10.492 1.207-2.905 1.448-6.87 4.321-8.024M546 508.503c.028.954-.932.918-1.852.924-.179-1.105.915-.938 1.852-.924M453.119 536.892c-.347.067-.482.344-.62.618-2.304.043-3.7-.826-3.394-3.395 1.534-1.324 4.563.08 4.014 2.777M475.644 553.248c-1.7-.872-1.845-3.296-2.779-4.939 1.71.864 2.607 2.538 2.779 4.939" fill="#381400" transform="translate(-108.236 255.057) scale(.27841)"/><path d="M450.03 527.939c8.086.804 18.117 7 24.995.304 1.518 10.622 10.306 15.602 13.27 23.75-2.376-1.225-2.36-4.86-4.938-5.881.708 2.479 2.159 4.177 3.395 6.13-.945-.22-1.124.237-1.853.23-1.148-2.55-2.208-5.353-4.011-7.255.445 3.05 1.907 5.45 3.396 6.783h-1.855c-.622-2.667-1.793-4.679-3.7-6.164.424 2.864 2.112 4.785 3.394 6.795-4.058.25-2.86-4.755-5.244-6.171.164 2.819 1.613 4.35 2.468 6.48-3.088-.412-1.92-5.077-4.63-5.864.074 2.91 1.891 4.076 2.47 6.48-.915.332-2.623 1.476-3.394.925-.166-1.688-1.052-5.322-3.396-5.862.088 2.417 3.227 4.952 2.162 6.48-2.102-1.499-1.743-5.46-4.32-6.48.21 2.77 1.749 4.217 2.468 6.48-3.627-1.826-2.815-8.087-5.864-10.492-.256 4.082 3.114 7.762 2.468 10.184-1.95-2.883-2.448-7.222-4.32-10.184-1.235 2.23 1.128 4.99.62 6.48-.91-1.975-1.43-4.332-2.472-6.17-1.856 2.572 1.898 6.256 1.545 8.33-2.659-1.662-1.93-6.711-4.937-8.022-.23 1.024 1.02 3.258.306 2.777-.721-.923-.414-2.878-1.852-3.085-1.218 1.83 1.438 3.838.618 5.246-1.362-1.726-1.411-4.76-3.394-5.865-.798.397.238 1.846-.306 1.853-.076-.544-.535-.704-1.238-.62-.242 1.696 1.743 2.774.927 4.013-1.252-.587-.815-3.379-2.468-4.319-.71-.096-.344.891-.927.926-.141-1.395-1.51-1.36-1.852-.31-.562-4.272-5.256-4.412-6.172-8.33 2.404-3.667 4.979-7.164 8.64-9.572zm39.191 23.147c-.005-1.547-2.245-2.474-1.544-3.702 1.206 1.057 2.93 1.596 4.014 2.779-1.1.033-1.123 1.141-2.47.923zm-.926-11.415c-2.831-3.554-4.292-7.455-6.48-9.568.89 4.561 3.497 7.405 5.554 10.801 1.498 2.163-1.454-1.935-1.853-2.468-1.164-1.57-3.021-3.196-3.701-4.63-1.984-4.169-1.072-10.95-4.936-12.653 1.793 4.204 1.353 8.776 2.774 12.652 1.803 4.915 6.55 8.336 9.568 11.727-.076.76-2.016-.922-2.778-1.543-6.191-5.046-11.095-15.328-9.874-25.303 4.259 2.426 4.986 7.89 7.098 12.035 2.19 4.3 5.5 7.603 7.713 11.418 2.055 1.357 3.68 2.612 5.863 4.012 1.59 1.018 6.284 3.516 2.468 1.85-3.738-1.632-8.068-4.13-11.416-8.33zm8.948.924c1.172 1.195 2.681 2.05 4.322 2.777-.461.703-4.672-1.656-4.322-2.777zm6.79 9.258c1.787.579 3.719 1.012 5.246 1.851-2.154-.212-3.771-.959-5.246-1.85zm-11.418-27.156c.47.538 1.213 2.742 0 3.087-.475-.539-1.216-2.743 0-3.087zm-.618 4.012c.162.486 1.191 1.652.31 2.16-.32-.584-1.61-1.776-.31-2.16zm-.617 4.628c.67.377.987 2.695.31 3.396-.54-.428-1.797-2.95-.31-3.396zm-1.541.308c-.091-1.561-1.922-3.006-1.235-4.32.424 1.228 2.383 2.543 1.235 4.32zm-.618-9.564c.232 1.319 2.224 2.495 1.232 4.01-.286-1.264-2.098-2.62-1.232-4.01zm4.32 15.12c-.79-.61-1.508-2.934-.309-3.703.727.42.956 2.935.31 3.704zm.926-6.172c-.964.098-1.65-1.428-.618-1.543-.232.95.846.594.618 1.543zm2.776 12.343c-1.159-.792-1.959-1.95-2.776-3.086 1.377.378 2.77 2.363 2.776 3.086zm-.926-12.035c-.489-.554-1.077-2.604-.309-3.393-.128 1.07 1.763 1.712.927 2.468-.534-1.176.024 1.202-.618.925zm.311 3.087c-.183-.763-1.836-1.64-.928-2.468-.101 1.042 1.855 1.621.928 2.468zm-2.161-8.64c.416.45.629 2.444-.308 2.468-.187-.679-.776-2.3.308-2.468zm.617-4.939c.556 1.91 1.61 3.326 2.468 4.939-.99-.27-.637.8-1.235.925-.789-.55.207-2.88-.617-3.394-.635.083-.072 1.366-.924 1.234-.243-.833-.844-3.382.308-3.704zm12.036 23.453c-4.683-1.697-8.063-4.694-12.344-6.788.185-.637-.5-2.145.615-1.851 3.166 3.622 8.01 5.566 11.729 8.64zm-8.024-18.207c1.625 3.212 5.685 5.628 7.097 8.024-2.936-1.9-6.557-4.754-7.097-8.024zm7.097 10.801c-1.698-1.492-5.24-2.782-5.554-4.628 1.238 1.95 5.317 2.703 5.554 4.628zm3.395-14.81c-2.643-6.514-4.263-15.35-4.63-23.146-2.057 8.647 1.378 19.393 3.394 25.613-3.595-6.898-5.641-15.344-6.17-25.304 3.154-1.782 7.597-2.277 11.107-3.704-4.412.027-9.87 1.64-12.65 4.32.004.41.541.282.616.618-1.091 6.545 2.326 12.897 2.778 17.897-2.684-5.028-4.038-11.39-5.246-17.897-1.831 7.612 3.252 13.601 4.32 20.366 1.677 3.123 5.065 4.692 5.862 8.334-7.005-5.854-9.472-16.246-12.341-26.231-1.961 1.413 1.457 8.516.615 7.713-1.24-1.43-.842-4.506-2.159-5.861-.732 4.19 1.828 8.363 3.392 12.341 1.524 3.87 3.016 8.36 5.557 10.803 1.006.968 3.511 1.193 3.087 3.393-7.435-5.116-11.393-16.38-14.505-26.846-.959 8.286 6.398 14.388 5.554 20.676-2.828-4.786-4.734-10.49-7.096-15.74-.338 4.878 4.07 7.905 2.159 12.345-2-3.247-3.068-7.425-4.628-11.11-1.299 4.84 3.815 8.414 2.47 12.345-1.587-2.222-2.05-5.564-3.397-8.024-1.388 2.582 1.632 4.902.618 7.098-.779-1.485-.751-3.776-2.159-4.629-.925 2.495 2.039 5.064 1.541 7.097-1.794-2.527-2.524-6.116-3.704-9.257-.074 4.806 1.634 7.83 3.704 10.492-1.096 2.667 1.862 5.24 1.544 7.096-2.464-3.4-3.702-8.025-5.864-11.727 1.224 7.726 4.95 12.951 9.564 17.283-.476 1.221 1.17 1.885.311 2.468-2.016-2.718-4.55-5.58-6.48-8.948-1.724-3.005-4.613-7.48-4.937-10.803-.828-8.494 8.248-14.251 11.417-19.13 2.301.142 2.825-1.495 4.628-1.852-.003-.408-.54-.283-.617-.618 12.76-9.912 40.918-5.933 47.522 6.79-1.393.364-.689-1.368-2.158-.927-1.787.376-1.727 2.594-4.014 2.47-.361-1.297 2.691-1.833 3.087-3.395-3.38-3.493-5.48 2.52-8.024 3.704.592-3.009 4.081-3.122 4.63-6.173-3.983.337-3.865 4.776-7.098 5.863.476-2.51 4.115-4.524 5.555-7.097-1.975-1.348-5.764-1.721-5.863-4.012-1.257-.23-1.065.995-2.468.617-.185-.55.903-1.281 0-1.542-1.155-.331-.881.765-1.852.617.085-.807-.115-1.33-.927-1.235-3.565 4.868-6.305 10.565-7.097 18.207-1.112.25-1.804 2.133-2.779 1.543-1.418-7.57 2.68-14.19 5.248-19.75-1.268.316-2.625-1.052-3.086.308.188.534 1.464-.022 1.542.618-2.81 2.434-3.112 7.378-4.934 10.8.104-4.64 2.276-8.81 2.776-12.035-4.899 2.819-2.592 14.135-6.172 17.281-.576 2.948 1.793 5.874.617 7.405-2.808-5.971.176-16.846 1.541-22.217-2.813 1.712-2.336 6.716-3.393 10.184-.539-1.509.385-2.784-.617-4.012-1.238.111-.112 4.195-.927 3.703-.488-3.492.908-7.619-.308-9.875-2.005 4.009-1.344 13.387-.31 17.9.607 2.634 3.386 4.746 1.854 6.788zm1 12.651c.019-1.586.079-4.135.079-3.704v3.704c1.333.128.185 1.691 1.158 1.542.199-1.344-.172-3.489.539-4.319 1.063 1.473 2.193 3.085 3.704 4.319 3.273 2.677 8.435 3.752 9.875 7.097-4.755-1.932-9.3-5.717-12.962-7.713 2.418 2.944 6.287 5.448 9.568 7.096 1.079.543 3.211.461 3.394 2.162-5.138-1.141-9.916-5.308-14.506-8.025 3.131 4.999 10.98 6.917 14.814 10.184-5.355-.715-8.839-4.941-13.27-5.555 2.962 2.01 6.21 4.688 10.183 5.863 1.581.468 3.697.02 4.937 1.544-5.492-.773-11.877-2.243-15.12-6.173.087.9-.072 1.061-.617.617-1.687-1.436-1.81-5.283-1.776-8.639zm4.863 11.108c2.882 2.464 7.874 2.823 11.416 4.63-2.258.067-4.536-1.08-6.479-1.852-1.916-.762-4.536-1.205-4.937-2.778zm3.085 5.555c1.784.273 3.492.623 4.936 1.235-1.907-.148-3.941-.175-4.936-1.235zm9.565-1.543c1.099-.07 1.85.208 2.162.926-1.099.069-1.848-.208-2.162-.926zm-.617-8.332c-1.867-.361-.557-2.023-1.541-3.085 2.598 3.262 4.484 8.884 6.789 11.417-2.11-2.26-5.579-4.644-5.248-8.332zM535.817 552c-.122-1.333 1.664-1.333 1.852 0h-1.852zm1.543-3.072c1.973.39 4.299.433 6.17.925-2.043.712-4.905.115-6.17-.925zm10.492-2.161c-5.079-.487-12.336-3.084-16.355-4.628 1.43 2.58 4.79 3.234 8.024 4.012-1.125.66-5.286-.846-7.406-1.234-1.115-1.156-2.282-3.886-2.162-5.246 3.094 2.105 9.183 6.746 13.888 4.318-3.221-.141-6.19-1.23-8.641-2.468-2.265-1.146-5.695-2.338-5.864-5.553 3 1.552 7.552 7.43 12.344 6.17-4.05-2.32-13.975-5.6-11.417-11.726 1.932 4.343 5.07 9.123 9.876 9.567-3.999-2.998-7.762-6.231-9.259-11.727.656-.781 1.087-1.793 1.852-2.468.276 6.819 3.307 10.888 8.023 13.268-3.236-3.966-6.87-7.53-7.099-14.503.865-.08 1.743-1.734 2.47-.926-.602 5.541.978 11.57 4.629 13.887-1.184-2.971-3.552-8.15-3.703-12.035-.036-.936-.276-3.347 1.235-3.394.182 3.876-.41 11.07 2.776 12.96-.251-1.734-1.052-4.245-1.235-6.789-.15-2.12-.615-5.913.927-6.48-.211 2.992-.531 8.96.925 12.033-2.096 6.405 2.07 10.822 6.172 12.962zm.31-4.32c.393-.943.095-2.576 1.231-2.776-.262 2.114.768 2.937 1.238 4.318-1.503.166-1.446-1.23-2.47-1.541zm2.777-.308c-.26-.77-.404-1.655-.308-2.778 1.649-.202 2.734 1.778 1.849 3.087-.03-.787-1.15-.73-1.541-.31zm.308-6.17c.546-.278.9-.748 1.544-.929.16.457.457.779.617 1.235-.641-.184-2.028.38-2.161-.307zm3.085-1.236c-.565-.978-1.399-1.686-2.159-2.469 1.714-.48 2.394 3.022 2.159 2.47zm-20.059-12.961c.888-2.612-.041-7.037 2.47-8.023-1.36 2.137-1.006 5.991-2.47 8.023zm1.852-.927c.294-2.484.946-4.608 1.851-6.48 1.164-.236 1.477.378 2.47.308-1.686 1.812-1.522 5.475-4.32 6.172zm2.776-.926c1.143-1.572 2.06-4.882 4.323-4.319-.599 1.102-2.32 3.607-4.323 4.319zm1.854-.309c1.888-.475 2.329-2.402 4.321-2.775-.1 1.546-1.99 1.301-1.852 3.084-.74-.186-2.24.388-2.47-.309zm7.097 11.42c.148-1.813 2.033-4.55 4.01-5.555.098.727 1.074.573.929 1.544-2.976.008-2.944 3.02-4.939 4.01zm2.47 2.468c-1.005.23-.94 1.53-1.543 2.16-.096-1.125.049-2.007.306-2.778 1.812-.287 3.424 1.948 1.236.618zm.925-1.542c-.202-.416-.659-.576-1.234-.619-.017-.53.238-.79.618-.925-.29.839 1.902.723.616 1.544zm-4.012 5.908c-.378-1.935-.708-3.197-.311-5.864h.928c-1.065 2.667.648 5.115-.617 5.864zm-3.087-6.219c.505-3.145.61-10.754 3.704-8.33-1.86 1.125-3.193 4.416-2.776 6.788 2.396-1.306 1.508-5.896 4.937-6.171.034 1.953-4.357 3.601-2.778 7.097-1.371-.137-2.251.22-3.087.616zm2.161 8.95c-.806-1.786-2.713-5.926-.616-7.715-.662 3.236 1.154 5.63.616 7.715zm-3.702-19.262h2.158c-.413 2.667-1.364 3.365-1.541 5.663-.183 2.343 1.185 5.438-.927 5.665.143-4.114-.753-7.328.31-11.328zm-7.716-20.237c-2.639 1.683-3.735 4.908-5.863 7.099.467-2.419 3.56-6.518 5.863-7.1zm-2.159-1.235c-.336 1.331-2.055 2.396-3.087 4.012-1.049 1.644-1.241 4.191-3.085 4.937 1.795-3.054 3.576-7.72 6.172-8.949zm-2.161-.925c-.36 3.067-5.024 6.05-4.32 10.184-.97-.148-1.207.44-1.852.617 1.62-4.039 3.396-7.92 6.172-10.801zm-13.579 18.516c1.199-1.376 3.221-3.564 4.937-3.395-.732.194.05 1.9-.617 2.16-.615 1.019-1.317-.765-1.541 0-1.23 6.455 3.445 12.13 5.862 16.974-4.232-3.895-8.164-8.09-8.641-15.739zm6.727 7.715c.833 2.324 2.757 4.676 2.076 6.478-1.719-4.46-5.556-8.568-5.088-14.193.393-.018.626-.396.626-.31v.927c1.334 2.286 1.563 4.803 2.386 7.098zm3.616 4.012c-2.602-3.262-3.47-8.26-4.32-13.271.828-.405 2.318-.828 2.318-1.235v.927c0 3.252.704 5.87 1.384 8.332.527 1.899 2.014 3.877.618 5.247zm1.693-2.16c-1.265-3.776-2.004-8.076-2.161-12.962.756-.688 2.204-.677 3.704-.617-1.756 4.337 1.298 11.421-1.543 13.579zm-12.96-8.643c-.279 8.03 5.877 12.203 9.565 17.283.455-.357.779-.357 1.234 0-.182.638.384 2.026-.307 2.158-.896-.648-1.237-1.848-2.779-1.849-1.773-2.03-3.469-4.087-4.937-6.482-1.537-2.51-2.177-5.383-4.01-7.714-.162.456-.457.777-.618 1.235.672.195.981-.875.924.308.839 6.98 6.461 10.821 9.259 14.812-4.686-3.337-8.339-7.71-11.418-12.652 1.019 5.37 5.267 8.969 8.642 11.727 1.072.878 3.448 1.574 3.085 3.393-5.187-3.351-11.085-5.99-13.27-12.343.098.379-.05 1.907-.307.927.905-4.34 2.408-8.086 4.937-10.803zm-2.47-4.319c.23 1.214 1.79 2.767 0 3.395.413-1.356-.923-2.55 0-3.395zm7.407-6.79c1.967-3.176 2.506-7.779 5.246-10.183-1.543 3.397-3.532 7.988-5.246 10.184zm7.714-8.639c-1.818 3.336-5.175 6.74-4.628 11.417-1.955.411-2.674 2.06-4.63 2.47.282-.543.107-1.54.62-1.854-.188.804.122 1.112.924.927.583-2.284 2.151-4.893 3.394-7.407.97-1.961 2.284-6.714 4.32-5.553zm24.44 23.144c-2.219-1.762-4.638-6.59-7.466-1.853.966 1.064 2.143-1.395 3.086-.309-.544.076-.703.531-.618 1.235 2.058-.102 3.226.683 4.012 1.852-2.79.228-5.102-2.441-8.332-2.778 1.126-1.752 4.042-1.716 4.938-3.702-.26-.665-1.97.115-2.162-.617.784-.03.784-1.205 0-1.235-.904-.08-.948.698-1.852.618-.716-.21-.45-1.402-1.234-1.543-3.02.843-5.038-1.385-8.332-1.235-1.656 2.46-2.06 6.171-1.854 10.492-.828.203-1.178.884-1.856 1.235-.421-3.485.186-7.285.61-10.801.765.046 1.482.058 1.526-.616-1.328.197-1-1.295-2.19-1.235-.416.203-.636.659-.679 1.235-2.093-.195-3.79.594-4.445-.62-.854 1.203-.978 2.607-3.644 2.778v-2.158c10.666-6.084 27.141-.734 30.492 9.257zm-5.307-8.95c-1.31-1.878-4.076-2.302-5.555-4.012 1.015-.629 2.378-.914 3.703-1.233-.081.902.697.948.617 1.85-.812-.092-1.013.429-.924 1.234.575.604 1.13.096 1.851 0-.175.822 1.268 1.574.308 2.161zm-127.444-3.085c.817 1.103 3.176 1.195 4.32.308 9.487 3.472 14.721 11.2 20.367 18.515-1.479 3.33-6.018 5.412-6.175 9.257-.132 3.288 3.737 4.31 5.248 6.172 1.839 2.268 2.252 5.347 4.937 6.79 1.956 1.052 6.047.75 8.948 1.852 1.912.726 2.691 2.272 4.32 3.085 2.98 1.487 6.874 1.97 10.492 1.543 2.822-.33 4.706-2.288 7.406-2.778 4.989-.9 9.956.039 13.27-3.702 4.631 1.933 13.987 4.78 18.823.925 5.787 6.057 22.379 5.579 28.699.617 3.697.016 6.317-1.778 8.95-4.32 1.499-1.448 4.046-3.44 4.627-4.63.965-1.96 1.323-6.194 1.547-8.638.73-8.09-1.115-17.309-6.174-20.368-4.393-23.165-39.904-28.036-57.398-14.504-1.172.906-2.208 2.536-3.394 3.704-3.742 3.682-8.3 8.114-9.26 14.504-1.39.055-1.912-1.544-3.7-1.234-3.286.57-2.205 6.15-1.544 9.256-6.718 7.476-17.396-.764-24.994-.307-3.367-8.465-7.506-16.574-13.886-22.528-1.846-1.719-4.401-4.384-7.409-4.01-1.177 2.34 1.664 3.809 3.396 2.468 7.5 6.078 12.75 14.403 16.357 24.377a6.26 6.26 0 01-1.854 1.853c-5.894-9.124-13.872-17.81-24.686-20.984-1.296.043-1.26 1.412-1.233 2.777" fill="#381400" transform="translate(-108.236 255.057) scale(.27841)"/></g><use xlink:href="#a" transform="translate(37.85 -.431)" width="100%" height="100%"/><use xlink:href="#a" transform="translate(75.699 -.725)" width="100%" height="100%"/><use xlink:href="#a" transform="translate(113.548 -.725)" width="100%" height="100%"/><use xlink:href="#a" transform="translate(151.398 -1.45)" width="100%" height="100%"/><use xlink:href="#a" transform="translate(0 -24)" width="100%" height="100%"/><use xlink:href="#a" transform="translate(37.85 -24)" width="100%" height="100%"/><use xlink:href="#a" transform="translate(75.699 -24)" width="100%" height="100%"/><use xlink:href="#a" transform="translate(113.548 -24)" width="100%" height="100%"/><use xlink:href="#a" transform="translate(151.398 -24)" width="100%" height="100%"/><use xlink:href="#a" transform="translate(0 -48)" width="100%" height="100%"/><use xlink:href="#a" transform="translate(37.85 -48)" width="100%" height="100%"/><use xlink:href="#a" transform="translate(75.699 -48)" width="100%" height="100%"/><use xlink:href="#a" transform="translate(113.548 -48)" width="100%" height="100%"/><use xlink:href="#a" transform="translate(151.398 -48)" width="100%" height="100%"/><use xlink:href="#a" transform="translate(0 -72)" width="100%" height="100%"/><use xlink:href="#a" transform="translate(37.85 -72)" width="100%" height="100%"/><use xlink:href="#a" transform="translate(75.699 -72)" width="100%" height="100%"/><use xlink:href="#a" transform="translate(113.548 -72)" width="100%" height="100%"/><use xlink:href="#a" transform="translate(151.398 -72)" width="100%" height="100%"/><use xlink:href="#a" transform="translate(0 -96)" width="100%" height="100%"/><use xlink:href="#a" transform="translate(37.85 -96)" width="100%" height="100%"/><use xlink:href="#a" transform="translate(75.699 -96)" width="100%" height="100%"/><use xlink:href="#a" transform="translate(113.548 -96)" width="100%" height="100%"/><use xlink:href="#a" transform="translate(151.398 -96)" width="100%" height="100%"/></g><use xlink:href="#b" transform="translate(390.755)" width="100%" height="100%"/><use xlink:href="#b" transform="translate(0 -286)" width="100%" height="100%"/><use xlink:href="#b" transform="translate(390.755 -286)" width="100%" height="100%"/><use xlink:href="#b" transform="translate(195.377 -143.05)" width="100%" height="100%"/></svg>