<svg xmlns="http://www.w3.org/2000/svg" xmlns:xlink="http://www.w3.org/1999/xlink" height="420" width="600"><g id="a" stroke-width=".156"><path d="M256.767 117.181c1.116 1.238 2.46 2.247 3.224 3.838-1.504-.27-2.715-3.006-3.224-3.838M256.543 116.943c.041-.031.118.066.224.238-.072-.081-.152-.156-.224-.238M266.264 131.993c.336 2.274 1.183 4.04.937 6.898.224 1.464-.534 1.464-.313 0-.305-2.519-1.71-5.599-1.567-7.524.083.44.688.356.943.626M239.297 95.621c7.95 5.847 14.411 13.182 20.694 20.695.728-.1 1.204.05 1.566.313 2.228 3.834 4.554 7.572 6.274 11.915-7.048-13.437-17.96-23.012-28.534-32.923M239.924 91.23c.592 1.291 1.203 2.562 1.57 4.078-1.283-.261-1.733-4.433-1.57-4.077M258.423 112.239c2.897.766 4.694 4.293 5.328 6.272-1.167-2.696-4.083-3.647-5.328-6.272" fill="#fff" transform="matrix(.85674 0 0 .85674 -94.645 -15.672)"/><path d="M247.448 104.715c-3.307-2.142-7.939-6.26-9.72-7.839 2.867 1.836 5.368 4.041 8.467 5.643-1.904.576 2.381 2.46 1.253 2.196M259.05 127.987c-1.138-.382-2.474.628-2.823 0 .761-.391 1.524-.776 2.51-.94-.014.432.148.688.314.94M260.305 123.91c.432.014.687-.147.94-.313.795 1.427.167 3.21.628 4.39-.65-.187-2.06.388-2.196-.314 1.174-.29.407-2.517.628-3.762" fill="#fff" transform="matrix(.85674 0 0 .85674 -94.645 -15.672)"/><path d="M293.541 126.036c1.56 1.41 3.859 6.597 1.88 8.465-.608-2.841-1.597-5.301-1.88-8.465zm-1.568.627c1.239 1.518 3.116 6.569 1.254 8.152-.89-2.072-1.372-6.104-1.254-8.152zm-3.762 8.628c-1.086-1.214-.756-4.624-.943-5.958h.943c.165 1.334 1.758 5.324 0 5.958zm-3.763-29.01c2.064 1.186 2.21 2.831 3.135 4.704-3.571-.94-7.199-4.494-10.034-7.212 2.278.134 3.803 2.672 5.331 2.508-1.6-1.534-4.297-1.973-5.017-4.389.714-.43 1.178.808 1.254 0-.8-.873-2.277-1.065-2.508-2.508 4.142 2.132 8.358 4.185 10.659 8.152-1.45.288-2.153-1.797-2.82-1.255zm-9.092 2.51c-1.439-.46-2.052.569-2.51 1.881-1.498-.141-1.322-.141-2.82 0-.807-1.912-2.395-3.041-3.138-5.017 1.643-.403.279-.931.313-2.195.78-.407 1.523.7 1.57 0-.928-.55.182-1.67 0-2.508 2.414.201 2.924 2.303 4.39 3.45-.445-1.751-2.246-2.143-2.508-4.078 2.342.296 4.91 3.27 3.448 5.33.588.977 1.879 1.854 1.255 3.137zm-8.155-13.483c-.182 1.333-1.241.607-.625 2.195-.416.768-1.167-.344-1.255.313.802.035.624 1.05.627 1.881-.885.26-.812-.441-1.567-.313-1.244-2.623-5.616-2.119-6.272-5.33 1.847-.023-.068-.114.314-1.254.716-.89 2.192 1.176 2.822.313-.826.095-1.029-.434-.94-1.254 2.75.701 4.795 2.104 6.896 3.449zm-7.21 3.135c-1.111-1.084-3.463-.927-3.448-3.135 3.752.95 6.573 2.833 8.468 5.644-1.935 1.119-3.492-2.299-4.706-1.881.926.746 2.242 1.1 2.508 2.509.095.721-.904.348-.94.939.592.453 1.391.701 1.255 1.882-3.22-.962-5.965-2.398-7.213-5.33 2.057-.171 3.277 2.149 4.39 1.881-1.314-1.51-4.116-1.53-4.702-3.764 1.501-.976 3.436 1.71 4.388 1.255zm-14.736-2.822c-.878.395-1.891-2.448-2.507-4.076-.795-2.092-1.436-4.477-1.884-6.27 2.39 2.522 2.765 7.06 4.39 10.346zm10.348 5.959c2.238.203 7.802 2.672 6.582 5.33 1.336.757 2.79 1.39 3.136 3.135-3.172-1.112-5.613-2.958-7.524-5.33.416-.77.947.564 1.254-.314-1.416-.673-2.999-1.182-3.448-2.821zm15.05 12.855c2.634-.296 5.376 1.909 5.643 5.016-2.195-1.362-3.947-3.162-5.643-5.016zm3.134-1.568c2.221.218 5.285 2.214 5.957 5.016-2.297-1.358-4.605-2.71-5.957-5.016zm.942-2.195c-.02-.539.24-.804.627-.941 2.288 1.912 6.584 3.424 6.584 6.585-2.993-1.295-4.432-4.137-7.21-5.644zm2.507-2.195c2.91 1.27 6.07 2.291 6.899 5.643-2.367-1.625-6.172-3.413-6.899-5.643zm5.959 21.007c1.12.359 2.322 4.89.313 5.33-.11-1.543-1.536-4.467-.313-5.33zm-5.018-22.575c3.583 1.224 6.76 2.856 8.467 5.958-2.892-.724-6.488-3.291-8.467-5.958zm6.583 22.575c.401-.017.436-.401.941-.312.836.847 2.371 4.905.316 5.643-1.114-1.082-.55-3.838-1.257-5.331zm17.247-5.016c-1.624-2.452-2.331-5.823-3.138-9.093 3.595 2.885 4.674 8.286 5.02 14.422 2.784-15.966-7.68-24.081-17.245-29.786-.779.229 1.032.944 0 1.569-3.441-1.053-5.263-3.73-8.467-5.019 1.686 2.498 6.935 4.143 9.091 7.212-4.641-.697-7.843-5.525-12.539-7.212.136-.385.4-.642.94-.626-1.742-.943-8.594-3.983-4.39-.94-1.432.38-4.282-.523-4.391-2.51-1.592.1-3.3-.172-2.507-1.566-12.81-3.596-24.209-8.612-38.88-10.348-.316 1.473 1.207 3.805 1.254 5.957.45-1.417 1.108-.645 1.566.315.491-1.128-1.638-2.324-1.566-4.078 2.578 1.08 2.48 4.839 4.704 6.272-.534-2.081-1.794-3.432-2.196-5.644 1.197-.257 1.213.667 1.569 1.255.919-.267-.41-.79 0-1.568 3.77 1.347 2.628 7.613 5.957 9.405-.745-2.834-3.03-5.713-2.822-8.465 2.454 2.77 3.008 7.443 5.33 10.347.18-2.799-2.272-5.67-2.824-8.779 1.752.743 1.986 3.233 2.51 4.076 1.052 1.684-.195-1.183-.626-2.821 1.951 1.394 3.06 6.342 4.391 9.405 7.393 5.355 14.412 11.087 20.38 17.872 1.11-.136 1.784-.481 2.507.315-.074-2.438-4.29-3.44-5.644-5.644 1.814-1.067 4.421 2.181 6.585 2.821.888 2.875 3.852 3.675 4.39 6.899-1.937.508-3.59-1.795-5.331-2.508 3.212 4.521 6.965 11.221 9.094 17.87.959-.225.92.543 1.88.316-.224-1.72-2.573-.601-2.196-3.45 2.782-.307 3.427 1.996 3.764 3.762.568-1.881-1.398-3.657 0-4.389 2.107.53.674 4.356 1.883 5.016 1.628-.832-.128-3.321.312-5.016 1.927-.039 2.023 3.403 1.568 4.703 1.605 1.052 6.085.754 8.15.313.813-2.027-1.402-4.948-.311-7.212 1.453 1.579 1.738 4.323 1.88 7.212 2.305.005 4.202-.396 5.957-.939-.981-3.512-1.799-7.189-3.135-10.348 2.567 1.615 4.012 6.02 3.448 9.72.42.795 1.394-.46 2.198-.313-.774-3.932-2.424-6.984-3.135-10.975 2.267 2.272 3.673 6.922 3.76 10.347 1.676-.768.335-4.219-.315-6.27-.765-2.431-2.19-4.694-2.508-6.585 2.88 2.451 3.792 6.868 4.706 11.287 1.5-2.61-.126-6.23-.628-8.779-.844.37 0 1.635 0 2.195M231.145 130.112c-1.088-1.315-3-1.81-3.764-3.45.471-.053 1.158.114 1.255-.313-2.087-1.789 1.108-5.252-.627-7.838.228-.714 1.788-.094 1.57-1.255-2.454-3.04-7.212-6.927-5.334-12.23 4.84 5.395 10.836 14.93 6.9 25.086M225.188 92.8c-.115.841.287 3.816-.313 3.135.114-.843-.288-3.818.313-3.135" fill="#fff" transform="matrix(.85674 0 0 .85674 -94.645 -15.672)"/><path d="M244.63 132.305c-.551-.289-.695-.982-.629-1.884 2.255.043 1.831 2.763 3.138 3.759-.199-1.563-1.91-2.999-1.258-4.399 2.536 1.331 2.66 5.059 4.391 7.195-.795-3.18-2.413-5.563-3.133-8.812 2.845.6 2.39 4.436 4.073 6.203-.716-2.874-1.93-5.302-1.568-7.66 3.603 2.461 4.89 7.96 5.959 11.96h-1.256c.052 0 .009-1.624-.627-1.926.035.78.588 1.24 0 1.836-1.35.41-.992-.889-1.568-1.253.565 1.881-1.28 1.352-1.568 1.567.91.437-.087 1.548-.312 1.882-.95-.097-1.123-.97-2.51-.628-.242-.802-.311-1.777-.938-2.194.059.897.037 1.71-.943 1.568-.965-2.484-1.882-5.015-2.822-7.526.654-1.049 1.18 1.207 1.572.312zm-1.571-9.405c-2.155-2.236-6.012-4.437-7.212-6.584 2.38 2.217 5.984 3.215 7.212 6.584zm-9.092-4.703c2.22.487 5.809 2.636 4.704 4.39-1.263-1.767-3.823-2.239-4.704-4.39zm.316 3.448c1.196-.577 3.818 1.538 3.134 2.823-1.026-.961-2.616-1.356-3.134-2.823zm8.776 14.111c1.474-.239 2.5 2.307 1.254 2.821-.472-.886-1.266-1.449-1.254-2.821zm12.544-.941c-1.894-.755-2.374-5.546-3.764-7.839 2.254 1.612 2.689 5.045 3.764 7.839zm-16.62-31.67c-4.126-2.562-8.403-4.973-12.228-7.837 4.426 2.056 10.01 4.619 12.228 7.837zm-15.05-2.506c5.863 5.006 14.134 7.604 17.244 15.364-3.641-2.318-8.714-5.918-12.856-8.78 3.003 5.046 11.52 7.293 15.05 12.854-3.871-1.874-8.084-6.125-12.226-8.778.71 3.332 2.416 5.554 2.822 9.093.918 8.005-3.722 13.656-2.822 21.636 2.555 3.217 10.392 4.057 15.679 2.507 1.01.281.439-1.023.937-1.255 4.016-.583 6.69-2.508 10.662-3.135-.302-1.868.582-2.554 1.254-3.449.851.195 2.488-.397 2.823.313.764-6.157-2.893-12.842-5.957-17.872-6.719-11.022-15.158-17.712-25.711-24.77-1.79-1.198-3.359-3.315-5.644-3.448-.408 1.674 1.573 3.073.94 5.957 4.39 3.133 10.081 4.968 14.107 8.465-.644.626-2.024-.674-2.818-.94-.274 1.014 2.904 1.267 2.818 3.135-4.711-1.348-9.115-5.721-14.42-7.525 4.345 3.597 10.713 5.173 14.109 9.72-5.18-1.716-10.6-5.911-15.365-9.092-.056-.887 1.178-.731.316-1.568-.636.2-.208 1.465-.942 1.568M213.9 118.824c-1.705 2.537 1.459 5.86-.627 7.839.47.053 1.156-.112 1.254.313-1.188 1.217-2.623 2.185-4.078 3.136-2.916-9.653 1.342-18.743 6.271-23.516 1.876 5.204-2.34 7.823-4.388 10.975.075.866 1.768.112 1.568 1.253M214.21 106.596c-1.713-.73-4.977 2.904-5.33 2.508 2.199-1.88 4.513-3.643 7.213-5.017-.381 1.082-1.034 1.89-1.882 2.509" fill="#fff" transform="matrix(.85674 0 0 .85674 -94.645 -15.672)"/><path d="M202.612 102.833c3.664-3.024 7.825-5.552 12.541-7.525-3.89 2.588-8.472 6.16-12.541 7.525zm-3.764 29.159c-1.153 2.4-1.563 5.544-3.135 7.525-.986.151-.236-1.44-.94-1.57-.3.954-.369 2.134-1.253 2.504-.595-1.067-1.101.528-1.881.305-.476-.444-.992-1.54-.316-2.212-1.164 1.072-1.56-.56-1.88-1.288.145.983-.274 1.332-1.256 1.187-.871-.468.546-1.416-.312-1.702-.1.735-.498 1.926-.312 1.926h-1.258c1.068-4 2.36-9.499 5.958-11.96.63 2.253-1.438 5.414-1.252 7.794 1.121-2.222 1.112-5.578 3.762-6.27-.492 3.168-2.929 6.057-2.82 8.778 1.18-2.578 1.73-5.793 4.075-7.212.901 1.334-1.67 3.26-.941 4.392.758-1.437.769-3.622 2.824-3.764.182 1.126-.367 1.518-.628 2.195.726-.136.84-1.385 1.565-.628zm-8.779-5.016c-1.241 2.627-1.933 5.799-3.449 8.152.053-2.595 1.408-6.512 3.45-8.152zm8.779 8.78c-.11 1.352-.648 2.279-1.565 2.821-.591-.976.049-2.952 1.565-2.821zm0-12.856c1.283-3.11 5.17-5.28 7.524-6.27-2.619 1.98-5.043 4.154-7.524 6.27zm4.076-.313c-.175-2.108 2.643-3.802 5.019-4.39-1.038 2.098-3.366 2.906-5.019 4.39zm1.255 1.881c.269-1.688 2.073-3.264 3.45-2.823-.641 1.451-2.09 2.094-3.45 2.823zm11.601-24.457c-5.024 2.289-9.15 5.48-14.11 7.838.067-2.022 1.857-2.324 3.135-3.134-.693-.571-2.021.89-3.134.94 3.514-4.326 10.57-5.108 14.109-9.407.028-1.91-1.763-1.999-1.253-4.39-11.606 7.65-21.607 14.885-29.162 27.28-3.065 5.034-6.121 10.613-6.27 17.871.521-.524 1.84-.249 2.822-.313 1.075.599 1.791 1.553 1.568 3.45 3.822.671 6.622 2.366 10.346 3.134.866-.135.297 1.17.942 1.255 5.422 1.508 13.334.766 15.992-2.507 1.008-7.273-3.64-13.572-2.822-21.323.369-3.522 1.712-5.949 3.136-9.406-4.564 2.649-8.175 6.25-12.546 9.093 3.53-5.879 10.94-7.873 15.367-12.856-4.157 1.907-9.105 5.735-13.17 8.78 2.362-7.152 9.346-9.677 14.74-13.797-4.334 1.418-8.506 5.71-13.486 7.526.975-2.828 4.27-3.909 6.585-5.33 2.526-1.551 5.243-2.767 7.211-4.704M155.115 100.56a.585.585 0 01.466-.236c-.156.075-.312.16-.466.236M201.041 85.275c-1.073 3.733-2.386 8.897-4.388 10.66 1.472-3.547 2.023-8.012 4.388-10.66zm-14.736 16.305c-.401 1.79-2.464 1.923-3.449 3.135.857.028.633-.523 1.256 0-1.915 2.372-4.35 4.218-7.525 5.33.265-1.932 2.17-2.22 3.134-3.449-1.006-2.255 4.4-4.924 6.584-5.016zm0-4.392c-.537 2.388-3.756 2.096-4.701 4.077 1.476-.72 2.287-2.101 4.388-2.194-1.245 2.932-3.992 4.368-7.21 5.33-.234-1.382 1.015-1.285 1.255-2.194-.688.056-1-.258-.942-.942.476-1.196 1.936-1.409 2.509-2.509-1.565.59-2.73 3.043-4.703 2.196 1.892-2.81 4.714-4.693 8.464-5.644.091 2.39-2.734 1.863-3.448 3.448 1.328-.528 2.852-2.265 4.388-1.568zm-2.506-3.135c-.288 3.062-5.024 2.66-6.271 5.331-.757-.128-.684.573-1.567.313-.538-1.193.928-1.957.312-2.194-1.272.574-.605-1.518-1.569-2.195 2.104-1.345 4.153-2.748 6.9-3.45.333 1.169-.661 1.013-.943 1.569 1.078-.051 2.028-1.266 2.824-.627-1.096 1.564.316 1.237.314 1.253zm-9.095 9.407c.039 1.264-1.33 1.792.315 2.195-.742 1.976-2.328 3.105-3.136 5.017-1.499-.141-1.322-.141-2.823 0-.455-1.312-1.07-2.341-2.507-1.881-.741-1.459.979-2.08 1.252-3.45-1.413-1.784 1.223-4.8 3.451-5.017-.04 1.845-2.712 2.715-2.196 4.077.997-1.513 1.867-3.153 4.077-3.449.387.932.124 2.507.314 2.821.058-.464.758-.286 1.253-.313zm-9.404-4.076c-.177 1.601-2.05 1.501-2.508 2.823.424-.1.599-.447 1.253-.315-.665 2.577-3.776 2.707-5.017 4.704 1.812-.596 3.424-3.052 5.332-2.51-3.177 2.273-6.419 6.111-10.036 6.9.792-2.055 1.412-3.409 3.135-5.017-.987.471-1.342 1.586-2.82 1.567 2.304-3.967 6.522-6.02 10.661-8.152zm-11.603 29.95h.942c-.334 1.333.433 5.24-1.255 5.957-1.088-1.078.019-4.624.313-5.958zm3.135-.162c.064 1.192.21 4.955-1.25 5.643-1.32-1.304-.589-5.46 1.25-5.643zm2.196.312c.272 1.207.001 4.321-.941 5.33-1.374-1.047-.69-5.218.941-5.33zm-3.761-16.617c1.705-3.102 4.88-4.734 8.465-5.958-1.977 2.667-5.576 5.234-8.465 5.958zm2.508 1.253c.826-3.352 3.984-4.373 6.894-5.643-.722 2.23-4.529 4.018-6.894 5.643zm2.194 2.196c.136-2.935 4.635-5.775 7.211-6.27-2.079 2.414-4.356 4.63-7.21 6.27zm2.194 1.567c.673-2.802 3.737-4.798 5.96-5.016-1.356 2.306-3.66 3.658-5.96 5.016zm3.449 1.568c.139-2.967 3.444-5.862 5.644-4.703-2.05 1.4-3.379 3.519-5.644 4.703zm-16.619 15.216h-.937c-.396-2.667.35-6.463 1.88-8.152.33 2.158-.724 5.485-.943 8.152zm-.625-8.631c-.657 3.003-.696 6.621-2.508 8.465-.457-2.897.645-6.85 2.508-8.465zm62.081-36.999c2.22-2.17 3.122-5.66 5.331-7.838-14.264.47-25.64 6.549-38.252 9.72-.03.854.52.63 0 1.253-.752.19-1.43.452-2.51.313-.231 2.174-2.473 2.335-4.387 2.823-.559-1.517 2.337-1.193 1.565-1.881-1.964.753-3.847 1.586-5.956 2.194 2.197.764-3.005 3.278-5.017 4.703-2.496 1.77-4.638 3.31-6.272 3.763 1.068-3.132 6.232-4.836 9.094-7.211-2.966.172-5.353 3.633-8.464 4.704-.582-.023-.734-.663-.466-1.02-9.524 4.71-19.414 13.139-17.41 29.237.886-5.594 1.676-11.285 5.02-14.422.268 2.885-1.708 6.234-2.51 9.093-.775-.303.43-1.205 0-2.195-1.208 2.166-1.89 5.714-1.254 8.779 1.387-3.941 2.107-8.555 4.702-11.287.426 1.731-1.452 3.98-2.194 6.271-.736 2.272-1.578 5.408-.626 6.584.578-2.99 1.786-7.741 3.762-10.347.168 3.515-2.284 7.122-2.822 10.975.888.052 1.306.575 2.193.625-.747-3.909 1.021-7.949 3.137-10.032-.438 2.699-2.088 6.896-2.821 10.348 1.756.543 3.653.944 5.959.939-.027-2.952.694-5.155 1.564-7.212 2.02 1.87-1.51 5.735.316 7.527 2.629-.087 5.676.244 7.838-.315-.518-1.455-.284-4.6 1.254-5.016 1.228 1.12-1.219 4.287.626 5.016 1.106-.713-.007-4.03 1.568-5.016 2.035.361-.34 2.495.315 4.39.335-1.767.98-4.07 3.761-3.763.338 2.621-1.688 1.98-2.193 3.134.385.954 1.076-.338 1.88 0 2.484-6.502 4.937-13.04 9.407-17.557-1.606-.241-3.262 2.17-5.331 2.508.853-4.705 6.007-9.444 10.661-10.347-1.18 2.686-4.684 3.051-5.956 5.643.563.397 1.651-.636 2.82 0 5.951-6.799 12.984-12.516 20.38-17.872 1.376-3.328 2.235-7.173 4.394-9.72.27 1.427-2.202 4.636-.631 3.45.387-1.809 1.115-3.273 2.197-4.39.136 2.755-2.36 5.585-2.822 8.779 2.672-2.552 3.237-7.212 5.33-10.347 1.066 2.308-1.966 5.703-2.508 8.465 3.182-1.834 2.374-7.658 5.644-9.405.92.264-.19 1.008 0 1.568.882-.057.391-1.492 1.567-1.255.507 1.768-1.581 3.642-1.883 5.644" fill="#fff" transform="matrix(.85674 0 0 .85674 -94.645 -15.672)"/><path d="M174.08 128.544c1.719-4.343 4.041-8.081 6.27-11.915.4-.436 1.48-.192 1.882-.626 6.15-7.438 12.55-14.622 20.38-20.382-10.575 9.911-21.483 19.486-28.532 32.923M202.299 90.919c-.851 1.237-.344 3.836-1.882 4.389.498-1.595.944-3.239 1.882-4.39M177.841 118.197c1.74-1.816 2.86-5.916 5.644-5.644-1.698 1.856-4.256 4.522-5.644 5.644M220.484 97.188c-.172 1.716.368 5.796-.313 5.957.174-1.713-.367-5.793.313-5.957M220.797 114.748c-.494-.532-.338-2.183.627-2.195-.119.818-.16 1.72-.627 2.195M219.23 95.935c.015.432-.147.688-.313.941.407 4.323-1.316-.25.314-.941M222.364 95.621c.024 1.067.097 2.188-.625 2.508-.023-1.066-.099-2.188.625-2.508M263.128 138.89c1.447-.19-.187 2.695 1.567 2.197 1.064-1.404-.504-4.206.316-5.331.418 2.07.425 4.07.624 5.644 1.293-.648 2.014.081 2.824-.941.262-10.611-5.8-14.896-8.782-22.262-.546.024-.974-.07-1.254-.314-1.814-3.111-6.151-6.998-6.896-9.092 6.161 6.17 12.128 12.536 15.361 21.634.739.407.703-.16 1.256.627.255 1.641.888 3.912 1.252 5.957.204 1.139-.807 3.632 1.257 3.45.628-6.002-2.909-9.952-2.194-14.11.12.636.916 2.186 1.252 1.567-.226-3.745-3.463-6.148-3.763-8.779 3.377 5.312 7.612 13.066 6.584 20.695-.525-3.97-1.305-9.352-3.448-10.66.77 3.935 2.495 6.912 2.195 11.915-2.508.942-5.638 1.26-8.779 1.566.901-.864-.443-3.856.628-3.762" fill="#fff" transform="matrix(.85674 0 0 .85674 -94.645 -15.672)"/><path d="M195.713 102.207c3.454-.834 5.867-4.376 8.466-5.019-3.234 2.11-7.546 6.443-9.719 7.527.53-.947 2.685-1.382 1.253-2.508M224.245 102.519c2.555 2.44 5.519 3.73 7.214 5.017.84.64 2.696 2.1.626.941-.554-.309-3.842-2.802-4.704-1.881-.506-1.05-2.242-3.184-3.136-1.881-.294-.266-.669-1.999 0-2.196M180.975 123.597c1.358.527-.052 3.816 1.257 4.39-.65-.187-2.06.388-2.195-.314.554-.798-.4-3.342.938-4.076" fill="#fff" transform="matrix(.85674 0 0 .85674 -94.645 -15.672)"/><path d="M176.273 119.45c-1.489 2.797-3.721 4.85-4.077 8.78.832-.317.85-1.449 1.57-1.88.069 4.471-3.406 8.625-2.195 14.109 1.764-2.103 1.004-6.73 2.196-9.407.433-.95.888.08 1.252-.94 3.494-8.527 9.413-16.297 15.676-21.008-3.278 2.784-4.939 7.185-8.778 9.407-2.752 7.49-8.938 11.549-8.466 22.262 1.268.072 1.87.822 3.136.314-.391-1.622-.078-3.914.626-5.331.11 1.587-1.121 4.413.315 5.33 1.361.109-.275-2.782 1.567-2.195.313.345-.514 3.336.626 3.762-3.302-.25-6.492-.613-9.09-1.566-.347-5.156 1.58-8.034 2.193-12.228-2.573 2.337-2.519 7.304-3.764 10.973-.167-7.91 3.408-16.445 7.213-20.381" fill="#fff" transform="matrix(.85674 0 0 .85674 -94.645 -15.672)"/><path d="M174.704 138.89c-.139-2.96.472-5.173 1.257-7.21.431.013.687-.148.94-.313.015.43-.146.688-.314.94-.532 2.288-1.216 4.429-1.568 6.898.152 1.476-.564.758-.315-.314M185.365 128.3c-.136-.905-2.368.28-2.509-.627.235-1.265 3.168.142 2.51.627M181.917 121.019c.912-1.495 2.716-3.759 3.763-4.076-1.639.976-1.672 3.554-3.763 4.076" fill="#fff" transform="matrix(.85674 0 0 .85674 -94.645 -15.672)"/><path d="M137.852 119.87c.681-6.791 4.975-13.66 11.048-15.763 1.939-1.915 4.108-3.586 7.01-5.059 6.366-3.236 12.28-5.857 19.225-7.672 7.73-2.02 15.437-4.537 23.07-6.912 5.922-1.84 11.243-4.257 17.555-3.379 1.359.19 2.173 1.231 2.41 2.415.38.32.72.688.973 1.115 1.022-.268 2.166-.219 3.386.092.054-.032.126-.048.182-.079-.636-2.544 1.502-5.415 4.793-5.12 1.656.148 4.221.78 6.83 1.807 6.83 1.51 13.507 3.481 20.16 5.709 5.858 1.959 11.967 3.47 17.433 6.361l.922.324c.808-.242 1.723-.254 2.69.104a82.58 82.58 0 017.63 3.286c2.839 1.148 5.758 2.344 8.51 3.717 2.824 2.137 5.561 4.336 7.981 7.072 2.2 2.485 3.393 5.613 5.203 8.333.076.688.116 1.398.109 2.139a5.835 5.835 0 01-.285 1.687c.204.916.341 1.85.409 2.81.112 1.612-.297 3.068-1.024 4.372-.135 1.464-.661 2.812-1.576 3.859-.456 1.639-1.599 2.972-4.488 4.072-6.45 2.457-15.97-.727-22.604-.675-.337.003-1.79 4.491-2.29 5.047-1.771 1.967-4.754 3.075-7.294 3.45-2.44.362-17.38-1.175-18.772 1.211-.676 1.159-1.857 2.172-3.288 2.151-2.875-.044-6.003-.087-8.668-1.277a4.768 4.768 0 01-1.565-.344c-2.791-1.12-3.77-4.1-3.339-6.899.168-1.095.445-2.155.75-3.21-.013-.135-.02-.269-.037-.405-.16-1.35.278-2.361 1.011-3.037-2.324.15-4.736-1.17-4.756-3.841-.024-3.259 1.16-7.292.259-10.395-.786-2.695-3.13-5.653-4.588-8.081-.764-1.272-1.759-2.471-2.646-3.723-.15 1.63-.212 3.265-.83 4.837-.982 2.488-3.667 4.482-4.419 6.898-.684 2.198.183 5.565.532 8.117.07.325.119.659.11 1.005-.078 3.004-2.525 4.574-4.837 4.544.92 3.863 2.907 7.614.131 11.518-4.05 5.693-11.865 4.448-17.477 2.333-7.195-2.71-16.695 2.836-23.075-2.767-2.332-2.048-3.215-4.412-3.253-6.888-.287.103-.574.204-.866.296-3.342 1.054-7.133 1.151-10.596 1.195-3.46.043-7.033-.793-10.288-1.881-6.976-2.332-11.53-8.068-7.461-14.47" fill="#d6681c" transform="matrix(.85674 0 0 .85674 -94.645 -15.672)"/><path d="M259.733 101.41c-.281-.5-.549-1.013-.789-1.555-.723-1.638.384-4.074 2.072-4.751 2.339-3.648 9.063-2.217 12.448-.968 5.373 1.984 11.78 6.361 12.813 12.353.223 1.291-.449 2.258-1.41 2.851.217.488.406.985.55 1.499.691 2.476-1.532 5.873-4.414 4.902-.256-.086-.507-.193-.76-.288-.427.459-.966.811-1.568 1.035-1.082 1.827-3.555 2.812-5.714 1.81-.156-.074-.304-.16-.457-.235-1.352.814-3.1 1.068-4.52.409-2.119-.985-3.476-2.883-5.452-3.985-1.848-1.032-2.435-3.056-2.079-4.832a12.441 12.441 0 01-.657-.807c-1.292-1.744-1.093-3.399-.159-4.612-.393-.968-.312-1.959.096-2.827M159.485 107.952c-.528 2.61 1.115 5.444 4.296 5.241.908-.057 1.85-.221 2.808-.464-.08.186-.169.364-.241.554-1.23 3.208 1.275 6.814 4.893 5.72 5.3-1.604 9.88-6.871 12.791-12.3.39-.391.764-.783 1.096-1.176.753-.892.948-1.942.775-2.919.253-.67.486-1.335.677-1.975.481-1.628-.447-3.485-1.865-4.418-.09-1.634-.951-3.214-2.506-3.815-1.113-1.799-3.424-2.828-5.889-1.405-6.35 3.669-16.74 2.802-19.939 10.86-1.124 2.83.472 5.62 3.104 6.097M228.453 96.65c6.835 3.031 12.538 8.54 14.702 15.838.45 1.517-.059 3.095-1.052 4.19.128 2.038-.336 4.035-1.751 5.862-1.699 2.19-5.028 1.02-5.876-1.264-.976-2.637-.724-5.16-2.144-7.732-1.279-2.317-3.103-4.355-4.799-6.368-1.45-1.723-.893-3.71.452-5.027-.737-.901-1.46-1.778-2.12-2.624-1.3-1.672.919-3.614 2.588-2.874M206.013 105.057c1.244-1.497 6.136-8.196 8.644-5.417 2.103 2.33.02 5.776-1.044 8.19-1.582 3.594-4.242 7.378-4.045 11.458.35 7.301-10.73 6.75-10.15-.772.389-5.008 3.463-9.693 6.595-13.459M243.63 130.13c1.542-1.36 3.923-2.023 5.842-2.045 3.27-.037 6.781 1.94 6.979 5.527.08 1.496-.674 3.03-1.963 3.82-.87.532-1.6.772-2.605.888a5.844 5.844 0 01-.592.052c1.441-.088.274.021-.52.096-.307.275-.61.556-.932.812-1.45 1.152-3.83 1.07-5.4.284-1.788-.897-2.855-2.648-3.018-4.61a7.19 7.19 0 00-.013-.174c-.15-1.796.787-3.595 2.223-4.65M193.615 138.041c-.076.023-.151.022-.227.042.439-.086.527-.102.227-.042" fill="#ffd745" transform="matrix(.85674 0 0 .85674 -94.645 -15.672)"/><path d="M184.836 131.776c.49-2.372 3.163-4.479 5.656-3.716 2.832.868 6.305 2.568 6.135 6.087-.106 2.169-1.342 3.633-3.482 3.98-.568.113-1.142.146-1.725.029-.29-.06-.583-.09-.87-.17-.267-.082-.526-.186-.79-.282a8.797 8.797 0 00-1.207-.27c-2.577-.425-4.226-3.183-3.717-5.658" fill="#ffd745" transform="matrix(.85674 0 0 .85674 -94.645 -15.672)"/><path d="M193.019 138.153c.045-.007.082-.02.126-.026.082-.016.162-.024.243-.044-.107.02-.219.04-.37.07" fill="#ffd745" transform="matrix(.85674 0 0 .85674 -94.645 -15.672)"/><path d="M274.753 129.425c5.303-.242 10.524-.818 15.791-1.438 3.619-.427 6.501-.979 8.527-3.067-.515-.01-.474-1.372.328-.808.15-1.036.789-1.88 1.608-2.343.11-.285.217-.577.316-.89.44-1.407 2.429-1.014 2.244.465-.012.1-.028.199-.04.297.45.219.878.578 1.238 1.112 3.198 4.74-1.232 10.14-5.689 11.815-3.98 1.495-10.52 2.124-14.18-.37-3.445.311-6.877.397-9.87.377-3.302-.022-3.62-4.996-.273-5.15" fill="#802b9e" transform="matrix(.85674 0 0 .85674 -94.645 -15.672)"/><path d="M235.44 93.121c6.419 2.707 11.97 8.048 17.207 12.532 3.064 2.626 5.937 5.348 8.468 8.355 2.493.883 4.226 4.035 5.628 6.027 2.39 3.394 4.817 7.454 5.438 11.63 1.26 8.462-6.136 12.986-13.921 10.779-.907-.257-.933-1.39-.092-1.75.456-.197.933-.36 1.423-.513.013-.018.012-.04.028-.058.774-.955 1.614-2.298 2.708-2.923 3.85-2.199 1.55-5.81.553-8.276-2.008-4.97-3.884-9.427-6.924-13.877-5.845-8.558-14.207-13.58-21.336-20.723-.596-.597.052-1.527.82-1.203M172.305 124.263c3.95-6.82 9.87-12.135 15.362-17.674 5.704-5.75 13.26-8.588 19.121-13.969.57-.524 1.652.057 1.201.82-1.816 3.077-4.469 5.063-7.268 7.221-4.724 3.644-8.192 8.827-12.085 13.312-1.241 1.43-7.29 8.584-10.79 14.48.4.492.627 1.14.545 1.916-.252 2.326-1.24 4.806.626 6.675 1.651 1.652 4.499 2.267 6.447 3.588 1.099.747.696 2.813-.833 2.4-2.424-.653-4.798-.961-6.974-1.925-.081.074-.141.16-.234.229-3.71 2.805-7.874 1.13-9.067-3.357-1.195-4.492 1.792-9.994 3.95-13.716M135.424 126.328c.264-2.345 1.123-4.636 2.248-6.88.005-3.421 2.765-7.283 4.59-9.7.446-.59 1.02-.779 1.574-.705.316-.562.62-1.123.896-1.678.484-.977 1.857-.405 1.727.599-.136 1.041-.362 2.057-.624 3.065l.421.46c.896.58 1.527 1.719.921 2.767-.52.897-1.297 1.596-1.956 2.356.108 1.643-.565 3.528-.626 5.017-.456 11 13.198 7.704 20.074 9.73 1.031.302 1.23 1.777.112 2.142-5.708 1.874-13.864 3.348-19.781.75-4.572.634-10.143-2.868-9.576-7.923M267.09 102.807c-.253-1.714 1.654-3.14 3.233-2.775.485.112.956.272 1.417.452.663-.559 1.667-.741 2.339-.027.74.79 1.39 1.672 1.877 2.639.055.11.068.216.092.323.62.648 1.183 1.348 1.659 2.096.922 1.445.248 2.868-.91 3.501a2.82 2.82 0 01-.685 1.552c-.93 1.032-2.167 1.064-3.384.64-1.804-.628-2.79-1.728-3.893-3.201-.487-.651-.54-1.322-.328-1.904-.674-.943-1.22-1.974-1.416-3.296M167.035 106.183c.197-.382.43-.748.677-1.108a5.748 5.748 0 01-.305-.6c-.983-2.335.686-4.606 2.352-6.018 1.52-1.286 3.992-1.857 5.912-1.385 1.209.297 2.342 1.508 2.225 2.819.119.164.215.362.3.578.373.262.737.56 1.084.926 1.367 1.444 1.204 3.409-.38 4.612a9.698 9.698 0 01-3.001 1.514 2.979 2.979 0 01-.538.679c-1.069 1.01-2.45 1.381-3.834.815-.452.286-.923.545-1.412.766-2.102.947-4.019-1.772-3.08-3.598M226.441 99.01c.42-.807 1.348-.874 2.028-.382.618.447.908 1.124 1.403 1.676.619.69 1.319 1.435 1.664 2.293.62 1.539-1.207 2.758-2.53 2.164-.974-.436-1.805-1.544-2.255-2.494-.496-1.05-.886-2.15-.31-3.256M213.028 98.59c.703-.823 2.237-.331 2.23.791-.004 1.058-.435 2.458-1.338 3.083-.876.608-1.91-.112-2.035-1.047-.125-.925.558-2.14 1.143-2.826M227.059 84.557c1.494-.201 3.182.383 4.569.91 1.58.6 3.575 1.245 4.712 2.552.644.74.388 1.966-.723 2.041-1.405.093-2.716-.533-4.032-.95-1.569-.497-3.232-.717-4.78-1.222-1.818-.595-1.709-3.07.254-3.33M202.27 89.34c.893-1.397 2.64-2.172 4.157-2.739 1.368-.51 2.773-.829 4.169-.26 1.152.47.937 2.276-.203 2.598-2.276.641-4.024 2.722-6.353 3.106-1.33.22-2.49-1.576-1.77-2.705" fill="#802b9e" transform="matrix(.85674 0 0 .85674 -94.645 -15.672)"/><path d="M266.576 97.503c-.416.768-1.167-.344-1.255.313.802.035.624 1.05.627 1.881-.885.26-.812-.441-1.567-.313-1.244-2.623-5.616-2.119-6.272-5.33 1.847-.023-.068-.114.314-1.254.716-.89 2.192 1.176 2.822.313-.826.095-1.029-.434-.94-1.254 2.75.701 4.795 2.104 6.896 3.449-.182 1.333-1.241.607-.625 2.195M177.528 99.384c-.757-.128-.684.573-1.567.313-.538-1.193.928-1.957.312-2.194-1.272.574-.605-1.518-1.569-2.195 2.104-1.345 4.153-2.748 6.9-3.45.333 1.169-.661 1.013-.943 1.569 1.078-.051 2.028-1.266 2.824-.627-1.096 1.564.316 1.237.314 1.253-.288 3.062-5.024 2.66-6.271 5.331M262.185 106.91c1.336.757 2.79 1.39 3.136 3.135-3.172-1.112-5.613-2.958-7.524-5.33.416-.77.947.564 1.254-.314-1.416-.673-2.999-1.182-3.448-2.821 2.238.203 7.802 2.672 6.582 5.33M182.856 104.715c.857.028.633-.523 1.256 0-1.915 2.372-4.35 4.218-7.525 5.33.265-1.932 2.17-2.22 3.134-3.449-1.006-2.255 4.4-4.924 6.584-5.016-.401 1.79-2.464 1.923-3.449 3.135M278.177 106.91c3.583 1.223 6.76 2.855 8.467 5.957-2.892-.724-6.488-3.291-8.467-5.958M163.732 106.91c-1.977 2.666-5.576 5.233-8.465 5.957 1.705-3.102 4.88-4.734 8.465-5.958" fill="#381400" transform="matrix(.85674 0 0 .85674 -94.645 -15.672)"/><path d="M277.236 108.477c2.91 1.27 6.07 2.291 6.899 5.643-2.367-1.625-6.172-3.413-6.899-5.643M164.67 108.477c-.723 2.23-4.53 4.018-6.895 5.643.826-3.352 3.984-4.373 6.894-5.643M275.356 109.73c2.288 1.913 6.584 3.425 6.584 6.586-2.993-1.295-4.432-4.137-7.21-5.644-.02-.539.24-.804.626-.941M167.18 110.045c-2.079 2.415-4.356 4.631-7.21 6.271.135-2.935 4.634-5.775 7.21-6.27M273.787 112.867c2.221.218 5.285 2.214 5.957 5.016-2.297-1.358-4.605-2.71-5.957-5.016M168.123 112.867c-1.356 2.306-3.66 3.658-5.96 5.016.673-2.802 3.737-4.798 5.96-5.016M276.296 119.45c-2.195-1.36-3.947-3.16-5.643-5.015 2.634-.296 5.376 1.909 5.643 5.016M171.256 114.748c-2.05 1.4-3.379 3.519-5.644 4.703.139-2.967 3.444-5.862 5.644-4.703M238.67 122.587c-1.262-1.767-3.822-2.239-4.703-4.39 2.22.487 5.809 2.636 4.704 4.39M207.943 118.197c-1.038 2.098-3.366 2.906-5.019 4.39-.175-2.108 2.643-3.802 5.019-4.39M237.417 124.468c-1.026-.961-2.616-1.356-3.134-2.823 1.196-.577 3.818 1.538 3.134 2.823M207.63 121.645c-.642 1.451-2.091 2.094-3.451 2.823.269-1.688 2.073-3.264 3.45-2.823M295.421 134.501c-.608-2.841-1.597-5.301-1.88-8.465 1.56 1.41 3.859 6.597 1.88 8.465M148.368 126.036c-.657 3.003-.696 6.621-2.508 8.465-.457-2.897.645-6.85 2.508-8.465M293.227 134.815c-.89-2.072-1.372-6.104-1.254-8.152 1.239 1.518 3.116 6.569 1.254 8.152M148.056 134.667c-.396-2.667.35-6.463 1.88-8.152.33 2.158-.724 5.485-.943 8.152h-.937M251.839 126.976c2.254 1.612 2.689 5.045 3.764 7.839-1.894-.755-2.374-5.546-3.764-7.839M190.07 126.976c-1.242 2.627-1.934 5.799-3.45 8.152.053-2.595 1.408-6.512 3.45-8.152M288.21 135.29c-1.085-1.213-.755-4.623-.942-5.957h.943c.165 1.334 1.758 5.324 0 5.958M153.384 135.29c-1.088-1.077.019-4.623.313-5.957h.942c-.334 1.334.433 5.242-1.255 5.958" fill="#381400" transform="matrix(.85674 0 0 .85674 -94.645 -15.672)"/><path d="M286.017 134.815c-1.114-1.082-.55-3.838-1.257-5.331.401-.017.436-.401.941-.312.836.847 2.371 4.905.316 5.643M156.832 129.172c.064 1.192.21 4.955-1.25 5.643-1.32-1.304-.589-5.46 1.25-5.643M283.508 134.815c-.11-1.544-1.536-4.468-.313-5.331 1.12.359 2.322 4.89.313 5.33M159.028 129.484c.272 1.207.001 4.321-.941 5.33-1.374-1.047-.69-5.218.941-5.33M244.313 123.91c-.472-.886-1.266-1.449-1.254-2.82 1.474-.24 2.5 2.306 1.254 2.82M198.848 121.09c-.11 1.35-.648 2.278-1.565 2.82-.591-.975.049-2.951 1.565-2.82M242.748 91.545c-.795-2.092-1.436-4.477-1.884-6.27 2.39 2.522 2.765 7.06 4.39 10.346-.877.395-1.89-2.448-2.506-4.076M201.041 85.275c-1.073 3.733-2.386 8.897-4.388 10.66 1.472-3.547 2.023-8.012 4.388-10.66M238.983 103.145c-4.126-2.562-8.403-4.973-12.228-7.837 4.426 2.056 10.01 4.619 12.228 7.837M202.612 102.833c3.664-3.024 7.825-5.552 12.541-7.525-3.89 2.588-8.472 6.16-12.541 7.525M256.543 95.308c3.752.95 6.573 2.833 8.468 5.644-1.935 1.119-3.492-2.299-4.706-1.881.926.746 2.242 1.1 2.508 2.509.095.721-.904.348-.94.939.592.453 1.391.701 1.255 1.882-3.22-.962-5.965-2.398-7.213-5.33 2.057-.171 3.277 2.149 4.39 1.881-1.314-1.51-4.116-1.53-4.702-3.764 1.501-.976 3.436 1.71 4.388 1.255-1.111-1.084-3.463-.927-3.448-3.135M181.604 101.265c1.476-.72 2.287-2.101 4.388-2.194-1.245 2.932-3.992 4.368-7.21 5.33-.234-1.382 1.015-1.285 1.255-2.194-.688.056-1-.258-.942-.942.476-1.196 1.936-1.409 2.509-2.509-1.565.59-2.73 3.043-4.703 2.196 1.892-2.81 4.714-4.693 8.464-5.644.091 2.39-2.734 1.863-3.448 3.448 1.328-.528 2.852-2.265 4.388-1.568-.537 2.388-3.756 2.096-4.701 4.077M235.847 116.316c2.38 2.217 5.984 3.215 7.212 6.584-2.155-2.236-6.012-4.437-7.212-6.584M206.372 116.63c-2.619 1.98-5.043 4.154-7.524 6.27 1.283-3.11 5.17-5.28 7.524-6.27M244.63 132.307c-.551-.288-.695-.98-.629-1.882 2.255.043 1.831 2.768 3.138 3.764-.199-1.562-1.91-2.992-1.258-4.392 2.536 1.332 2.66 5.076 4.391 7.212-.795-3.178-2.413-5.529-3.133-8.778 2.845.6 2.39 4.504 4.073 6.27-.716-2.873-1.93-5.436-1.568-7.794 3.603 2.461 4.89 7.96 5.959 11.96h-1.256c.052 0 .009-1.624-.627-1.926.035.78.588 1.106 0 1.702-1.35.409-.992-.822-1.568-1.187.565 1.883-1.28 1.385-1.568 1.601.91.438-.087 1.564-.312 1.899-.95-.096-1.123-.961-2.51-.619-.242-.804-.311-1.773-.938-2.19.059.897.037 1.713-.943 1.57-.965-2.485-1.882-5.014-2.822-7.525.654-1.05 1.18 1.21 1.572.315M195.713 139.519c-.986.152-.236-1.438-.94-1.568-.3.954-.369 2.138-1.253 2.508-.595-1.067-1.101.537-1.881.314-.476-.444-.992-1.524-.316-2.196-1.164 1.072-1.56-.526-1.88-1.253.145.981-.274 1.399-1.256 1.253-.871-.468.546-1.55-.312-1.836-.1.735-.498 1.926-.312 1.926h-1.258c1.068-4 2.36-9.499 5.958-11.96.63 2.253-1.438 5.28-1.252 7.66 1.121-2.223 1.112-5.511 3.762-6.203-.492 3.167-2.929 6.09-2.82 8.812 1.18-2.58 1.73-5.777 4.075-7.195.901 1.332-1.67 3.267-.941 4.399.758-1.437.769-3.617 2.824-3.759.182 1.126-.367 1.519-.628 2.198.726-.138.84-1.384 1.565-.627-1.153 2.4-1.563 5.545-3.135 7.527" fill="#381400" transform="matrix(.85674 0 0 .85674 -94.645 -15.672)"/><path d="M302.007 124.468c0-.56-.844-1.825 0-2.195.502 2.548 2.128 6.17.628 8.779-.914-4.419-1.826-8.836-4.706-11.287.318 1.891 1.743 4.154 2.508 6.584.65 2.052 1.991 5.503.315 6.271-.087-3.425-1.493-8.075-3.76-10.347.71 3.991 2.361 7.043 3.135 10.975-.804-.147-1.778 1.108-2.198.313.564-3.7-.881-8.105-3.448-9.72 1.336 3.159 2.154 6.836 3.135 10.348-1.755.543-3.652.944-5.957.939-.142-2.89-.427-5.633-1.88-7.212-1.091 2.264 1.124 5.185.312 7.212-2.066.441-6.546.739-8.151-.313.455-1.3.359-4.742-1.568-4.703-.44 1.695 1.316 4.184-.312 5.016-1.21-.66.224-4.485-1.883-5.016-1.398.732.568 2.508 0 4.39-.337-1.767-.982-4.07-3.764-3.763-.377 2.849 1.972 1.73 2.196 3.45-.96.227-.921-.541-1.88-.316-2.129-6.649-5.882-13.349-9.094-17.87 1.741.713 3.394 3.016 5.33 2.508-.537-3.224-3.501-4.024-4.389-6.899-2.164-.64-4.77-3.888-6.585-2.821 1.354 2.204 5.57 3.206 5.644 5.644-.723-.796-1.398-.451-2.507-.315-5.968-6.785-12.987-12.517-20.38-17.872-1.33-3.063-2.44-8.01-4.39-9.405.43 1.638 1.677 4.505.625 2.821-.524-.843-.758-3.333-2.51-4.076.552 3.11 3.004 5.98 2.824 8.779-2.322-2.904-2.876-7.576-5.33-10.347-.208 2.752 2.077 5.63 2.822 8.465-3.329-1.792-2.186-8.058-5.957-9.405-.41.779.919 1.301 0 1.568-.356-.588-.372-1.512-1.57-1.255.403 2.212 1.663 3.563 2.197 5.644-2.224-1.433-2.126-5.192-4.704-6.272-.072 1.754 2.057 2.95 1.566 4.078-.458-.96-1.116-1.732-1.566-.315-.047-2.152-1.57-4.484-1.254-5.957 14.671 1.736 26.07 6.752 38.88 10.348-.793 1.394.915 1.666 2.507 1.566.11 1.987 2.959 2.89 4.39 2.51-4.203-3.043 2.649-.003 4.391.94-.54-.016-.804.241-.94.626 4.696 1.687 7.898 6.515 12.539 7.212-2.156-3.069-7.405-4.714-9.09-7.212 3.203 1.288 5.025 3.966 8.466 5.019 1.032-.625-.779-1.34 0-1.57 9.565 5.706 20.03 13.82 17.245 29.787-.346-6.136-1.425-11.537-5.02-14.422.807 3.27 1.514 6.641 3.138 9.093zm-77.132-38.88c-.424-.535-1.128-2.403-.316-3.136 0 .961 1.258 2.273.316 3.136zm.313 7.212c-.115.841.287 3.816-.313 3.135.114-.843-.288-3.818.313-3.135zm-.313 6.27c.862.838-.372.682-.316 1.569 4.765 3.181 10.185 7.376 15.365 9.092-3.396-4.547-9.764-6.123-14.11-9.72 5.306 1.804 9.71 6.177 14.42 7.525.087-1.868-3.091-2.121-2.817-3.135.794.266 2.174 1.566 2.818.94-4.026-3.497-9.716-5.332-14.107-8.465.633-2.884-1.348-4.283-.94-5.957 2.285.133 3.853 2.25 5.644 3.448 10.553 7.058 18.992 13.748 25.71 24.77 3.065 5.03 6.722 11.715 5.958 17.872-.335-.71-1.972-.118-2.823-.313-.672.895-1.556 1.581-1.254 3.45-3.972.626-6.646 2.551-10.662 3.134-.498.232.074 1.536-.937 1.255-5.287 1.55-13.124.71-15.679-2.507-.9-7.98 3.74-13.63 2.822-21.636-.406-3.539-2.112-5.761-2.822-9.093 4.142 2.653 8.355 6.904 12.226 8.778-3.53-5.561-12.047-7.808-15.05-12.854 4.142 2.862 9.215 6.462 12.856 8.78-3.11-7.76-11.381-10.358-17.244-15.364.734-.103.306-1.368.942-1.568zm-.63 3.449c2.555 2.44 5.519 3.73 7.214 5.017.84.64 2.696 2.1.626.941-.554-.309-3.842-2.802-4.704-1.881-.506-1.05-2.242-3.184-3.136-1.881-.294-.266-.669-1.999 0-2.196zm0 2.508c4.84 5.394 10.836 14.929 6.9 25.085-1.088-1.315-3-1.81-3.764-3.45.471-.053 1.158.114 1.255-.313-2.087-1.789 1.108-5.252-.627-7.838.228-.714 1.788-.094 1.57-1.255-2.454-3.04-7.212-6.927-5.334-12.23zm31.982 37.626c.761-.39 1.524-.776 2.51-.94-.014.432.148.688.314.94-1.139-.381-2.475.627-2.824 0zm3.45-.313c1.174-.29.407-2.517.628-3.763.432.014.687-.148.94-.313.795 1.427.167 3.21.628 4.39-.65-.187-2.06.387-2.196-.314zm7.211-3.45c-.305-2.518-1.71-5.598-1.567-7.523.083.44.688.356.943.626.336 2.274 1.183 4.04.937 6.898.224 1.464-.534 1.464-.313 0zm-10.121-21.709c1.116 1.238 2.46 2.247 3.224 3.838-1.504-.27-2.715-3.006-3.224-3.838-.072-.08-.152-.156-.224-.238.041-.031.118.066.224.238zm-9.319-12.466c-3.307-2.142-7.939-6.26-9.72-7.839 2.867 1.836 5.368 4.041 8.467 5.643-1.904.576 2.381 2.46 1.253 2.196zm-7.524-13.484c.592 1.29 1.203 2.561 1.57 4.077-1.283-.261-1.733-4.433-1.57-4.077zm18.499 21.008c2.897.766 4.694 4.293 5.328 6.272-1.167-2.696-4.083-3.647-5.328-6.272zm9.408 16.305c-7.048-13.437-17.96-23.012-28.534-32.923 7.95 5.847 14.411 13.182 20.694 20.695.728-.1 1.204.05 1.566.313 2.228 3.834 4.554 7.572 6.274 11.915zm-5.331 14.11c.901-.865-.443-3.857.628-3.763 1.447-.191-.187 2.694 1.567 2.196 1.064-1.404-.504-4.206.316-5.331.418 2.07.425 4.07.624 5.644 1.293-.648 2.014.081 2.824-.941.262-10.611-5.8-14.896-8.782-22.262-.546.024-.974-.07-1.254-.314-1.814-3.111-6.151-6.998-6.896-9.092 6.161 6.17 12.128 12.536 15.361 21.634.739.407.703-.16 1.256.627.255 1.641.888 3.912 1.252 5.957.204 1.139-.807 3.632 1.257 3.45.628-6.002-2.909-9.952-2.194-14.11.12.636.916 2.186 1.252 1.567-.226-3.745-3.463-6.148-3.763-8.779 3.377 5.312 7.612 13.066 6.584 20.695-.525-3.97-1.305-9.352-3.448-10.66.77 3.935 2.495 6.912 2.195 11.915-2.508.942-5.638 1.26-8.779 1.566zM222.364 84.02c-.928-.192-1.75-3.437 0-3.45-.325 1.286.97 2.565 0 3.45zm-.94 28.533c-.119.818-.16 1.72-.627 2.195-.494-.532-.338-2.183.627-2.195zm-2.193-41.389c.089-.552-1.479-.97-.627-1.255.827 1.032 4.616 1.255.627 1.255zm0 24.77c.014.433-.148.689-.314.942.407 4.323-1.316-.25.314-.941zm1.253 1.254c-.172 1.716.368 5.796-.313 5.957.174-1.713-.367-5.793.313-5.957zm1.88-1.567c.024 1.067.097 2.188-.625 2.508-.023-1.066-.099-2.188.625-2.508zm-10.032 21.95c.075.866 1.768.112 1.568 1.253-1.705 2.537 1.459 5.86-.627 7.839.47.053 1.156-.112 1.254.313-1.188 1.217-2.623 2.185-4.078 3.136-2.916-9.653 1.342-18.743 6.271-23.516 1.876 5.204-2.34 7.823-4.388 10.975zm3.761-13.484c-.381 1.082-1.034 1.89-1.882 2.509-1.714-.73-4.978 2.904-5.331 2.508 2.199-1.88 4.513-3.643 7.213-5.017zm-14.422 3.762c4.958-2.358 9.085-5.549 14.109-7.838-1.968 1.937-4.685 3.153-7.21 4.704-2.315 1.421-5.611 2.502-6.586 5.33 4.98-1.816 9.152-6.108 13.485-7.526-5.393 4.12-12.377 6.645-14.738 13.797 4.064-3.045 9.012-6.873 13.169-8.78-4.427 4.983-11.837 6.977-15.367 12.856 4.371-2.843 7.982-6.444 12.546-9.093-1.424 3.457-2.767 5.884-3.136 9.406-.818 7.751 3.83 14.05 2.822 21.323-2.658 3.273-10.57 4.015-15.992 2.507-.645-.086-.076-1.39-.942-1.255-3.724-.768-6.524-2.463-10.346-3.135.223-1.896-.493-2.85-1.568-3.449-.982.064-2.301-.21-2.822.313.149-7.258 3.205-12.837 6.27-17.872 7.555-12.394 17.556-19.629 29.162-27.278-.51 2.39 1.281 2.48 1.253 4.389-3.539 4.299-10.595 5.081-14.11 9.407 1.114-.05 2.442-1.511 3.135-.94-1.278.81-3.068 1.112-3.134 3.134zM215.78 81.2c-2.21 2.178-3.11 5.668-5.33 7.838.3-2.002 2.389-3.876 1.882-5.644-1.176-.237-.685 1.198-1.567 1.255-.19-.56.92-1.304 0-1.568-3.27 1.747-2.462 7.57-5.644 9.405.542-2.762 3.574-6.157 2.508-8.465-2.093 3.135-2.658 7.795-5.33 10.347.462-3.194 2.958-6.024 2.822-8.779-1.082 1.117-1.81 2.581-2.197 4.39-1.57 1.186.901-2.023.63-3.45-2.158 2.547-3.017 6.392-4.393 9.72-7.396 5.356-14.429 11.073-20.38 17.872-1.169-.636-2.257.397-2.82 0 1.272-2.592 4.776-2.957 5.956-5.643-4.654.903-9.808 5.642-10.661 10.347 2.07-.337 3.725-2.75 5.33-2.508-4.469 4.517-6.922 11.055-9.406 17.557-.804-.338-1.495.954-1.88 0 .505-1.154 2.53-.513 2.193-3.134-2.781-.307-3.426 1.996-3.761 3.762-.655-1.894 1.72-4.028-.315-4.389-1.574.987-.462 4.303-1.568 5.016-1.845-.73.602-3.896-.626-5.016-1.538.416-1.772 3.561-1.254 5.016-2.162.559-5.209.228-7.838.315-1.826-1.792 1.704-5.658-.316-7.527-.87 2.057-1.591 4.26-1.564 7.212-2.306.005-4.203-.396-5.959-.939.733-3.452 2.383-7.649 2.821-10.348-2.116 2.083-3.884 6.123-3.137 10.032-.887-.05-1.305-.573-2.193-.625.538-3.853 2.99-7.46 2.822-10.975-1.976 2.606-3.184 7.356-3.762 10.347-.952-1.176-.11-4.312.626-6.584.742-2.29 2.62-4.54 2.194-6.27-2.595 2.731-3.315 7.345-4.702 11.286-.636-3.065.046-6.613 1.254-8.779.43.99-.775 1.892 0 2.195.802-2.859 2.778-6.208 2.51-9.093-3.344 3.137-4.134 8.828-5.02 14.422-2.004-16.098 7.886-24.528 17.41-29.237a.585.585 0 01.466-.236c-.156.075-.312.16-.466.236-.268.357-.116.997.466 1.02 3.111-1.07 5.498-4.532 8.464-4.704-2.862 2.375-8.026 4.079-9.094 7.21 1.634-.453 3.776-1.993 6.272-3.762 2.012-1.425 7.214-3.939 5.017-4.703 2.11-.608 3.992-1.441 5.956-2.194.772.688-2.124.364-1.565 1.881 1.914-.488 4.156-.65 4.388-2.823 1.078.139 1.757-.124 2.509-.313.52-.623-.03-.399 0-1.253 12.612-3.171 23.988-9.25 38.252-9.72zm-37.939 36.998c1.74-1.816 2.86-5.916 5.644-5.644-1.698 1.856-4.256 4.522-5.644 5.644zm22.576-22.889c.498-1.595.944-3.239 1.882-4.39-.851 1.238-.344 3.837-1.882 4.39zm-26.337 33.236c1.719-4.343 4.041-8.081 6.27-11.915.4-.436 1.48-.192 1.882-.626 6.15-7.438 12.55-14.622 20.38-20.382-10.575 9.911-21.483 19.486-28.532 32.923zm21.633-26.337c3.454-.834 5.867-4.376 8.466-5.019-3.234 2.11-7.546 6.443-9.719 7.527.53-.947 2.685-1.382 1.253-2.508zm-10.033 14.736c-1.639.976-1.672 3.554-3.763 4.076.912-1.495 2.716-3.759 3.763-4.076zm-10.661 22.262c.152 1.476-.564.758-.315-.314-.139-2.962.472-5.174 1.257-7.211.431.013.687-.148.94-.313.015.43-.146.688-.314.94-.532 2.288-1.216 4.429-1.568 6.898zm-2.195-10.346c-2.573 2.337-2.519 7.304-3.764 10.973-.167-7.91 3.408-16.445 7.213-20.381-1.489 2.796-3.721 4.849-4.077 8.78.832-.318.85-1.45 1.57-1.882.069 4.472-3.406 8.626-2.195 14.11 1.764-2.103 1.004-6.73 2.196-9.407.433-.95.888.08 1.252-.94 3.494-8.527 9.413-16.297 15.676-21.008-3.278 2.784-4.939 7.185-8.778 9.407-2.752 7.49-8.938 11.549-8.466 22.262 1.268.072 1.87.822 3.136.314-.391-1.622-.078-3.914.626-5.331.11 1.587-1.121 4.413.315 5.33 1.361.109-.275-2.782 1.567-2.195.313.345-.514 3.336.626 3.762-3.302-.25-6.492-.613-9.09-1.566-.347-5.156 1.58-8.034 2.193-12.228zm7.213 13.481c.554-.799-.4-3.341.938-4.076 1.358.527-.052 3.816 1.257 4.39-.65-.187-2.06.387-2.195-.314zm2.819 0c.235-1.265 3.168.141 2.51.628-.137-.907-2.369.279-2.51-.628zm122.912-20.38c-.761-6.885-5.572-13.905-10.347-18.187-7.484-6.706-20.456-11.132-32.293-15.049-12.899-4.27-25.47-8.264-37.627-9.721 2.114-1.544 5.003-2.311 7.526-3.45 4.772 2.29 13.597 4.226 18.185.628-.153-1.91 1.343-3.553.627-5.017-.684-.057-.996.257-.94.941-.76-.18.145-2.029-.94-1.881-1.73.361-.627 3.553-.943 5.33-8.43 2.815-17.323-4.454-24.457 1.254-.778-1.004 1.032-2.092.629-3.761-.601-.447-.9-1.192-1.881-1.256 1.209-1.776 3.262-6.811.938-9.092 7.81-5.626 27.66-2.364 24.459-16.932-1.961.473-.812 1.446-3.136.628.028 1.853 1.539 2.225 1.88 3.761-3.141 8.983-18.713 5.535-24.77 11.603-1.862-.631-3.96-.127-5.015.94-2.483-7.968-14.19-6.716-21.322-10.035.254-1.115 2.038-2.336 1.57-3.133-.5-1.966-1.654 1.285-2.511 0-.685-.172 1.25-1.96-.313-2.195-3 1.124-.954 5.339 0 6.27 3.301 3.229 13.31 1.807 18.186 5.33 1.822 1.315 2.071 2.439 3.447 4.39-1.595 2.65-1.185 7.793 1.57 8.78-1.082.903-1.973 2-1.57 4.389-7.201-5.091-15.09 1.521-23.83-.627-.229-1.863.562-4.741-.627-5.644-1.122-.183-.952.928-.94 1.881-.603-.128-.247-1.216-1.254-.941-.718 1.464.78 3.107.626 5.017 4.44 3.486 13.346 1.838 17.874-.628 2.878.782 5.163 2.154 7.839 3.136-11.812 1.934-24.792 5.786-37.627 10.035-11.953 3.956-24.817 8.35-32.296 15.05-4.705 4.215-9.494 11.143-10.346 17.871-2.108 16.668 16.445 16.475 30.414 13.798-.805 11.294 15.216 8.377 26.024 9.092 4.268 3.654 16.263 2.865 19.126-1.255 2.544-3.656-.166-8.212-.938-12.541 1.636-.924 2.048.828 3.762 1.254 3.557-2.829.08-7.504.313-11.288.181-2.948 2.004-4.666 2.508-7.21 1.652 2.529 1.295 7.065 1.883 10.66 2.554-2.986 2.988-8.09 3.133-13.483 1.653 1.948 4.37 5.636 4.705 9.72.315 3.873-3.278 8.827.312 11.601 1.886-.512 1.636-1.776 3.764-1.568-3.178 7.936-2.434 15.107 6.272 16.304 4.01.554 9.456.216 11.599-2.194 10.557-.956 27.29 2.648 26.025-9.092 13.611 2.396 32.604 3.418 30.727-13.483" fill="#381400" transform="matrix(.85674 0 0 .85674 -94.645 -15.672)"/><path d="M287.583 110.985c-3.571-.94-7.199-4.494-10.034-7.212 2.278.134 3.803 2.672 5.331 2.508-1.6-1.534-4.297-1.973-5.017-4.389.714-.43 1.178.808 1.254 0-.8-.873-2.277-1.065-2.508-2.508 4.142 2.132 8.358 4.185 10.659 8.152-1.45.288-2.153-1.797-2.82-1.255 2.064 1.186 2.21 2.831 3.135 4.704M162.792 102.207c.424-.1.599-.447 1.253-.315-.665 2.577-3.776 2.707-5.017 4.704 1.812-.596 3.424-3.052 5.332-2.51-3.177 2.273-6.419 6.111-10.036 6.9.792-2.055 1.412-3.409 3.135-5.017-.987.471-1.342 1.586-2.82 1.567 2.304-3.967 6.522-6.02 10.661-8.152-.177 1.601-2.05 1.501-2.508 2.823M272.847 110.672c-1.499-.141-1.323-.141-2.822 0-.806-1.912-2.394-3.041-3.137-5.017 1.643-.403.279-.931.313-2.195.78-.407 1.523.7 1.57 0-.928-.55.182-1.67 0-2.508 2.414.201 2.924 2.303 4.39 3.45-.445-1.751-2.246-2.143-2.508-4.078 2.342.296 4.91 3.27 3.448 5.33.588.977 1.879 1.854 1.255 3.137-1.439-.46-2.052.569-2.51 1.881M175.019 105.655c-.742 1.976-2.328 3.105-3.136 5.017-1.499-.141-1.322-.141-2.823 0-.455-1.312-1.07-2.341-2.507-1.881-.741-1.459.979-2.08 1.252-3.45-1.413-1.784 1.223-4.8 3.451-5.017-.04 1.845-2.712 2.715-2.196 4.077.997-1.513 1.867-3.153 4.077-3.449.387.932.124 2.507.314 2.821.058-.464.758-.286 1.253-.313.039 1.264-1.33 1.792.315 2.195" fill="#381400" transform="matrix(.85674 0 0 .85674 -94.645 -15.672)"/></g><use xlink:href="#a" transform="translate(157.529 -3.866)" width="100%" height="100%"/><use xlink:href="#a" transform="translate(76.348 58.952)" width="100%" height="100%"/><use xlink:href="#a" transform="translate(64.64 218.166)" width="100%" height="100%"/><use xlink:href="#a" transform="translate(377.875 75.382)" width="100%" height="100%"/><use xlink:href="#a" transform="translate(421.365 160.428)" width="100%" height="100%"/><use xlink:href="#a" transform="translate(145.931 272.534)" width="100%" height="100%"/><use xlink:href="#a" transform="translate(0 283.165)" width="100%" height="100%"/><use xlink:href="#a" transform="translate(289.93 130.468)" width="100%" height="100%"/></svg>