<svg xmlns="http://www.w3.org/2000/svg" xmlns:xlink="http://www.w3.org/1999/xlink" height="420" width="600"><g id="b"><g id="a" stroke-width=".659"><path d="M385.432 213.115c.416.929.52 3.666 0 4.58.261-1.492-1.445-3.779 0-4.58M385.432 218.839c2.043.041.55-3.456 1.432-4.58.873.845.945 2.489.859 4.294-1.364-1.249-1.582 1.831-2.291.286M388.01 213.687c1.446-.008 2.891 1.486 2.003 2.864-.378-1.246-1.322-1.923-2.004-2.864M387.436 221.13c1.003 2.243 3.237 4.775 3.148 7.155-1.904-1.816-3.052-4.389-4.579-6.584.376-.29 1.055-.28 1.431-.572M385.719 221.988c-.471 3.528 4.356 5.756 4.294 8.873-2.541-2.708-5.354-5.141-6.585-9.16.685.175 2.077-.358 2.29.287M388.296 215.69c.265.977.801 1.68.57 3.149-.531-.274-.954.857-1.143 0 1.49-.352-.324-2.575.573-3.148M390.87 225.423c-.545-1.84-1.683-3.086-2.574-4.58 1.975.222 2.74 3.169 2.575 4.58M397.17 254.048c-.842-1.736-1.13-4.025-2.578-5.153-.421.532-.235 1.672-1.144 1.717-.15 2.623 1.99 5.93.285 7.443-.532-1.384.095-1.588.288-2.862-1.214-1.236-2.586-3.322-1.718-5.021-4.292-2.292-6.156-7.505-9.732-10.172h2.29c1.611 4 5.266 7.099 8.587 8.168-1.977-3.27-6.187-4.232-7.443-8.224 2.7-.16 2.778 4.401 6.011 4.619.559-1.434-1.505-1.698-.859-2.271 2.768.305 3.403 6.436 6.012 6.879-1.489-4.522-5.17-6.846-7.729-10.299 1.019-.413 1.703-1.157 2.29-2.003.933.223 2.257 1.548 2.003 2.006-.324-1.079-2.681-2.288-2.862-.286 2.825 3.187 5.874 6.15 7.157 10.879-.708.093-.137 7.412-.859 4.58M390.584 219.697c.925 1.656 2.896 3.78 2.29 6.012-.538-2.04-2.323-4.35-2.29-6.012M383.715 236.3c-.187-.856-.612.273-1.144 0 .064-.541-.323-.632-.287-1.145.541.065.632-.322 1.144-.286-.244.667 1.001 1.234.287 1.431M379.993 257.483c-.049 2.244.751 3.64 1.146 5.438-1.739-.744-2.76-3.725-2.29-5.725.054.424.691.263 1.144.287M381.139 232.865c-.176-1.173-2.111-2.944-.859-3.721.224 1.121 1.467 2.721.859 3.721M377.417 248.323c.344 1.76.448 5.27.287 6.584-.173-1.85-1.741-4.971-.287-6.584M379.708 248.895c-.39 2.506-.499 6.832-.572.858.472-.004.16-.793.572-.858M381.139 240.593c-.674.687-2.156 4.428-1.718 4.867-.881-.881.852-5.163 1.718-4.867M383.428 244.888c.441.967 2.565 3.061 2.004 3.148-.379-.736-1.52-2.23-2.29-.859.174-.684-.358-2.076.286-2.289M376.559 263.207c.048.334.453.31.858.286-.049.428.103 1.058-.285 1.146.015-.526-1.468-.97-.573-1.432M382.856 250.327c-.483 3.409-.19 7.784 1.144 11.162v1.718c-1.333-.035-.407-1.214-.572-1.718-1.579-.264-.839-2.057-1.144-4.006-.485-3.09-2.49-6.327.572-7.156M379.421 238.304c-.989-.25-1.982-.499-2.576-1.144.882.212.551-.787 1.431-.573.179.774 1.196.712 1.145 1.717M379.421 225.71c-.026.902.767 1.707-.572 1.717-.058-.823.072-1.455.572-1.718M381.139 214.545c.137.738 1.154 2.068.572 2.578-.162-.714-1.431-1.791-.572-2.578M378.85 219.697c1.191.526 2.526.908 3.147 2.004-.394-.012-.629.135-.858.287-.452-1.073-1.583-1.47-2.29-2.29M374.556 256.052c1.324 2.695-.66 2.193 0 0M377.704 240.308c-.859 1.908-1.801 3.732-1.717 6.584-2.399 1.752.938 7.563-1.431 8.301-.447-2.665-.847-5.02-.573-7.729.028-.553 1.117.495 1.146-.572.639-2.225 1.288-5.96 2.575-6.584M373.696 260.059c-2.661-2.874-4.825-9.844-2.861-14.599.128 3.08-1.431 8.144 1.43 9.16-.568 2.672 1.5 4.219 1.431 5.439M375.7 238.876c-.299 2.305-1.763 5.85-3.435 7.73.499-3.223 1.539-5.906 3.435-7.73M384.288 248.895c.261.893 1.907 1.894.857 3.149-.032-.35-.084-.679-.57-.572-.515.413-.19 5.235-.574 2.29.187-1.531-.376-3.811.287-4.867M384.575 257.77c.201 1.133.02 2.65 1.144 2.86 1.252-.529.218-2.593.286-3.72 1.162.365.412 2.64 1.144 3.435-1.68 1.086-.324 5.21-2.288 6.011.643-3.241-.66-7.001-.286-8.587M422.072 270.936c-4.044-10.172-11.728-18.233-18.605-24.617 8.184 6.032 15.348 14.612 18.605 24.617M342.667 278.667v-2.006c1.333-.62 4.05-.661 3.837 2.006h-3.837M426.667 275.801v1.532h-4.595c-.213-2.666 1.928-2.15 4.595-1.532M346.217 271.795c4.148-10.164 10.74-19.412 19.179-24.331-8.33 6.172-14.319 14.685-19.179 24.33M397.17 243.743c.64.988 2.326 2.434 1.429 4.008.046-1.675-1.666-3.098-1.43-4.008M391.444 255.479c.344.896.572 1.909.859 2.861-.128 1.373-1.402-3.564-.859-2.861M387.436 252.044c.857 3.723 1.803 7.357 2.29 11.45-.678.753-1.137 1.725-2.29 2.003.196-2.061.657-2.72 1.717-3.434-.388-3.16-2.12-7.97-1.717-10.019M418.35 223.419c-1.58 1.381-3.229 4.21-5.153 4.294 1.902-1.06 3.652-3.789 5.154-4.294M411.48 227.427c-.664.193-.765.952-1.43 1.144v-1.144c.71.373 1.187-.84 1.43 0M350.51 223.992c1.09 1.87 4.078 3.361 4.58 4.867-1.698-1.262-4.194-3.246-4.58-4.867M358.24 229.43c-.195-.665-.95-.766-1.145-1.431.689-.116.621.522 1.43.286-.049.428.103 1.056-.285 1.146" fill="#fff" transform="matrix(.20225 0 0 .20225 -59.811 352.113)"/><path d="M422.161 276.221l.024-.069c.176-.54.623-1.147 1.28-1.099.468.034.839.104 1.183.454.057.061.09.098.128.141.072.033.14.073.21.103.249.108.513.178.765.276.286.108.42.342.681.442.585.223.317 1.083-.235 1.124-.13.01-.516.254-.752.311-.306.075-.629.117-.942.159-.099.013-.199.02-.3.022-.102.005-.728-.046-.364-.02-.482-.034-.85-.117-1.223-.46-.348-.32-.61-.906-.455-1.384M341.877 276.841c.268-1.301 1.555-1.689 2.675-1.296.952.334 2.168 1.446 1.523 2.576-.606 1.062-1.65 1.128-2.742.935-1.006-.176-1.657-1.237-1.456-2.215M345.203 271.435c2.321-4.986 5.585-9.271 8.69-13.779 2.98-4.328 6.214-8.58 10.971-11.033.283-.146.543.238.27.421-8.254 5.581-14.322 16.2-18.337 25.188-.47 1.05-2.078.241-1.594-.797M372.15 241.55c.103-.126.229-.233.357-.337.98-4.298 5.432-6.362 9.826-6.876 2.212-.258 3.444 1.911 3.268 3.804-.446 4.815 1.035 9.599 2.214 14.239.556 2.19 1.042 3.35 2.505 3.335.735-.499 1.492-.81 2.49-1.063.318-.08.626-.104.925-.087 1.498-.826 3.062-2.052 3.678-3.358.319-.679 1.39-.299 1.228.426-.278 1.27-1.236 2.88-2.542 4.4.545.936.565 2.155-.342 3.183-3.43 3.895-5.533 8.408-11.445 8.081a9.436 9.436 0 01-3.79-1.014c-.353.466-.97.728-1.617.405-1.044-.521-1.9-1.117-2.701-1.972-.817-.872-1.728-1.968-1.779-3.21 0-.031.01-.057.011-.086-1.847-1.948-3.003-4.26-3.603-6.785-1.898-4.266-2.004-9.086 1.316-13.084M378.105 221.547c.004-.036.005-.072.01-.11.307-2.882 4.557-2.773 5.362-.281.096.292.19.585.284.877l.041.126c.138.426.175.826.135 1.193.26.692.436 1.399.535 2.001.089.555.014 1.035-.174 1.434.979-.462 1.984-.938 3.074-.894 2.116.088 3.377 2.344 1.942 4.075-.653.79-1.558 1.301-2.544 1.553-1.83.972-3.885 1.851-5.756 1.562-3.041-.472-4.744-3.327-4.784-6.214-.028-1.906.52-3.986 1.875-5.322M379.555 216.304c-.068-1.29 1.034-2.787 2.44-2.71 1.956.109 4.652 1.042 4.757 3.394.05 1.072-.835 2.243-1.988 2.208a7.323 7.323 0 01-.665-.045c-.628-.22-.719-.251-.27-.091-.205-.06-.417-.095-.625-.155-.127-.037-.261-.052-.393-.072-.258-.013-1.474-.14-.547-.089-1.403-.077-2.63-.924-2.71-2.44" fill="#a56f55" transform="matrix(.20225 0 0 .20225 -59.811 352.113)"/><path d="M372.137 247.419c.59-3.471 6.407-3.12 6.212.472-.153 2.806 1.011 6.152 2.307 8.62.868 1.65 2.41 3.045 3.939 4.07.948.636 1.978 1.235 1.753 2.566l-.024.137c-.17 1.012-1.065 1.615-2.019 1.733-3.906.488-7.605-3.07-9.186-6.358-1.6-3.326-3.626-7.455-2.982-11.24M379.163 222.819c1.453-.076 2.841 1.097 2.873 2.586.003.17.012.336.023.503.013-.093.12.405.14.465.025.07.037.108.05.148.023.035.058.091.124.214.132.241.287.47.44.698.596.892 1.252 1.8 1.4 2.884.106.771-.533 1.69-1.289 1.866-1.572.366-3.092-.558-4.112-1.714-1.12-1.273-2.345-2.988-2.235-4.777.091-1.487.972-2.79 2.586-2.873M380.256 216.945c.263-.521.94-.92 1.532-.742 1.164.352 1.763 1.398 1.453 2.589-.452 1.733-3.096 1.243-2.842-.417-.294-.422-.39-.936-.143-1.43" fill="#805642" transform="matrix(.20225 0 0 .20225 -59.811 352.113)"/><path d="M390.87 238.59c2.826 3.185 5.875 6.146 7.158 10.875-.708.094-.137 7.41-.859 4.578-.841-1.736-1.129-4.03-2.577-5.158-.421.532-.235 1.663-1.144 1.708-.15 2.623 1.99 5.91.285 7.423-.532-1.383.095-1.627.288-2.9-1.214-1.235-2.586-3.245-1.718-4.944-4.292-2.292-6.156-7.505-9.732-10.172h2.29c1.611 4 5.266 7.099 8.587 8.168-1.977-3.27-6.187-4.156-7.443-8.147 2.7-.16 2.778 4.363 6.011 4.58.559-1.433-1.505-1.716-.859-2.29 2.768.305 3.403 6.428 6.012 6.87-1.489-4.522-5.17-6.852-7.729-10.305 1.019-.413 1.703-1.159 2.29-2.004.933.223 2.257 1.547 2.003 2.004-.324-1.079-2.681-2.29-2.862-.287zm2.005-12.88c-.539-2.04-2.324-4.351-2.291-6.013.925 1.656 2.896 3.78 2.29 6.012zm-2.862-9.16c-.378-1.245-1.322-1.922-2.004-2.863 1.447-.008 2.892 1.486 2.004 2.864zm-2.29 2.003c-1.364-1.249-1.582 1.831-2.291.286 2.043.041.55-3.456 1.432-4.58.873.845.945 2.489.859 4.294zm-2.291-.858c.261-1.492-1.445-3.779 0-4.58.416.929.52 3.666 0 4.58zm5.152 10.59c-1.904-1.816-3.052-4.389-4.579-6.584.376-.29 1.055-.28 1.431-.572 1.003 2.244 3.237 4.776 3.148 7.156zm.287-2.862c-.546-1.84-1.684-3.086-2.575-4.58 1.975.222 2.74 3.169 2.575 4.58zm-2.575-9.732c.265.976.801 1.678.57 3.148-.531-.274-.954.857-1.143 0 1.49-.352-.324-2.575.573-3.148zm-2.577 6.297c-.471 3.528 4.356 5.756 4.294 8.873-2.541-2.708-5.354-5.141-6.585-9.16.685.175 2.077-.358 2.29.287zm-2.291 12.881c-.244.667 1.001 1.234.287 1.431-.187-.856-.612.273-1.144 0 .064-.541-.323-.632-.287-1.145.541.065.632-.322 1.144-.286zm-1.43-13.168c-.395-.012-.63.135-.86.287-.451-1.073-1.582-1.47-2.289-2.29 1.192.525 2.527.907 3.148 2.003zm-.287-4.578c-.162-.714-1.431-1.791-.572-2.578.137.738 1.154 2.068.572 2.578zm-2.29 8.586c-.026.903.767 1.708-.572 1.718-.058-.823.072-1.455.572-1.718zm0 12.595c-.989-.25-1.982-.499-2.576-1.144.882.212.551-.787 1.431-.573.179.774 1.196.712 1.145 1.717zm-1.717 2.004c-.859 1.908-1.801 3.732-1.717 6.584-2.399 1.752.938 7.563-1.431 8.301-.447-2.665-.847-5.02-.573-7.729.028-.553 1.117.495 1.146-.572.639-2.225 1.288-5.96 2.575-6.584zm-2.004-1.432c-.299 2.305-1.763 5.85-3.435 7.73.499-3.223 1.539-5.906 3.435-7.73zm-3.435 15.744c-.568 2.672 1.5 4.219 1.431 5.439-2.661-2.874-4.825-9.844-2.861-14.599.128 3.08-1.431 8.144 1.43 9.16zm2.291 1.432c1.324 2.695-.66 2.193 0 0zm2.003 7.155c.048.334.453.31.858.286-.049.428.103 1.058-.285 1.146.015-.526-1.468-.97-.573-1.432zm1.145-8.3c-.173-1.85-1.741-4.971-.287-6.584.344 1.76.448 5.27.287 6.584zm1.145 2.289c.054.424.691.263 1.144.287-.049 2.244.751 3.64 1.146 5.438-1.739-.744-2.76-3.725-2.29-5.725zm1.431-28.052c.224 1.121 1.467 2.721.859 3.721-.176-1.173-2.111-2.944-.859-3.721zm-.572 19.75c-.39 2.507-.499 6.833-.572.86.472-.005.16-.794.572-.86zm1.43-8.3c-.673.686-2.155 4.427-1.717 4.866-.881-.881.852-5.163 1.718-4.867zm1.146 16.889c-.485-3.09-2.49-6.327.572-7.156-.483 3.409-.19 7.784 1.144 11.162v1.718c-1.333-.035-.407-1.214-.572-1.718-1.579-.264-.839-2.057-1.144-4.006zm.859-10.306c.173-.684-.359-2.076.285-2.289.441.967 2.565 3.061 2.004 3.148-.379-.736-1.52-2.23-2.29-.859zm1.145 1.718c.261.893 1.907 1.894.857 3.149-.032-.35-.084-.679-.57-.572-.515.413-.19 5.235-.574 2.29.187-1.531-.376-3.811.287-4.867zm.287 8.874c.201 1.134.02 2.651 1.144 2.862 1.252-.53.218-2.594.286-3.72 1.162.364.412 2.638 1.144 3.434-1.68 1.086-.324 5.21-2.288 6.011.643-3.241-.66-7.001-.286-8.587zm4.578 4.294c-.388-3.16-2.12-7.97-1.717-10.019.857 3.723 1.803 7.357 2.29 11.45-.678.753-1.137 1.725-2.29 2.003.196-2.061.657-2.72 1.717-3.434zm2.291-6.584c.344.896.572 1.909.859 2.861-.128 1.373-1.402-3.564-.859-2.861zm7.155-7.728c.046-1.675-1.666-3.098-1.43-4.008.64.988 2.327 2.434 1.43 4.008zm11.45-20.324c.711.373 1.188-.84 1.431 0-.664.193-.765.952-1.43 1.144v-1.144zm3.148.286c1.902-1.06 3.652-3.789 5.154-4.294-1.58 1.381-3.23 4.21-5.154 4.294zm-54.672.572c-.049.428.103 1.056-.285 1.146-.195-.666-.95-.767-1.145-1.432.689-.116.621.522 1.43.286zm-3.434.574c-1.699-1.262-4.195-3.246-4.58-4.867 1.089 1.87 4.077 3.361 4.58 4.867zm10.305 18.605c-8.33 6.172-14.319 14.685-19.179 24.33 4.148-10.163 10.74-19.411 19.179-24.33zm-18.892 31.203h-3.837v-2.006c1.333-.62 4.05-.661 3.837 2.006zm56.963-32.348c8.184 6.032 15.348 14.612 18.605 24.617-4.044-10.172-11.728-18.233-18.605-24.617zm18.605 31.014c-.213-2.666 1.928-2.15 4.595-1.532v1.532h-4.595zm-3.721-35.594c-.482-.407.364-1.552-.572-2.003-9.606.672-16.604-3.321-23.758-6.012.071-.976.723-1.376.571-2.576 4.085.781 10.456-.724 12.881 1.717 1.479-.62 2.791-1.408 3.722-2.577 9.513-2.89 11.44-13.367 20.037-17.173-.543-2.007.672-2.598-.287-3.722 2.722-7.078 6.228-16.221 6.87-25.189.105-1.464.476-4.16-.858-5.152-.328 12.076-4.665 20.143-8.589 28.624-.223.825-1.384.713-2.003 1.145-.206.874.292 1.043.286 1.718-5.419 5.838-10.362 12.154-17.746 16.029-.689.692-.758-.695-2.004-.287-2.093 2.943-7.474.886-12.022 1.432-.694-2.698 1.697-2.31 1.43-4.581 5.36-3.8 10.459-7.86 14.314-13.165 2.538.346 4.325-2.027 5.438-4.008.328-1.187-.602-1.116-.573-2.004 2.71-6.832 4.177-14.906 6.87-21.755 1.603-.688 2.269-2.312 2.29-4.58-.492-.748-1.016-1.464-2.004-1.717-2.787-10.188-8.061-17.892-15.743-23.186 4.976 7.14 11.131 13.104 13.454 22.899-.892 1.207-.24 3.959-1.432 4.867.01.942 1.414.493 1.145 1.717-3.027 6.42-6.224 12.667-7.441 20.896-.947-.008-.702-1.208-1.432-1.43-1.544.369-3.675 2.21-2.29 3.72-4.852 4.213-7.414 10.715-14.026 13.167-.291.951-1.584.896-1.431 2.29-3.792-.976.579-7.17-3.435-8.302 4.168-.813 3.407-9.505-.86-8.586-.817 1.098.691 1.849.86 2.862-1.38 2.723-4.424 3.784-8.874 3.435-2.199-1.144-1.586-4.585-2.29-6.584-2.754 1.603-3.27 5.345-2.29 8.301.646 1.948.226 3.015.573 5.439-.667 1.337-2.141 1.867-2.576 3.435-.415-.35-.435-1.092-.86-1.431-6.653-2.316-8.904-9.032-14.025-12.881 1.316-1.786-.567-3.554-2.291-4.007-.57.288-.653 1.063-1.144 1.43-1.825-7.62-4.31-14.58-7.728-20.609-.216-1.169.61-1.297 1.144-1.717-1.025-1.073-.519-3.68-1.43-4.867 2.163-10.048 8.465-15.961 13.453-23.185-7.672 5.208-12.788 12.975-15.744 22.9-.588.747-1.632 1.039-2.004 2.003.165 2.029.354 4.036 2.29 4.294 2.344 7.102 4.363 14.53 6.584 21.755.827.86-.682.999-.286 2.29 1.193 1.602 2.441 4.575 5.152 3.72 4.041 5.213 8.786 9.726 14.598 13.167.446 2.172.387 2.838-.286 4.866-4.048-.359-8.503 1.309-10.304-1.431-2.635.847-8.166-3.367-10.306-5.439-3.569-3.456-6.534-7.637-9.446-10.017-.139-.904.516-1.012.286-2.004-.64-.313-1.434-.475-2.002-.859-3.735-8.766-8.32-16.681-8.588-28.91-1.335.902-.94 3.521-.859 4.865.552 9.024 4.025 18.263 6.87 25.19-.867 1.48.174 1.823-.286 4.007 6.276 2.587 9.47 9.92 14.312 14.312 2.555 2.318 6.51 2.891 9.16 5.439 2.26-1.844 6.744-1.461 10.877-1.43.596.453.096 2.002.572 2.575-5.553 3.451-12.91 6.18-21.468 5.724-.58.552-.665 1.154-.286 2.006-12.816.886-20.822-3.034-30.055-5.727 7.525 5.547 16.539 9.605 30.628 8.588 1.25-.39.61 1.108 1.717.859.947-.867 2.671-.954 2.29-3.15 5.752-.448 10.544-1.86 14.884-3.721-.395 1.036-1.259 1.605-1.431 2.863-2.007.093-2.617 1.58-3.435 2.864-6.665 2.168-11.234 8.832-15.17 14.312-3.091 4.301-5.538 9.472-7.156 14.597-.399.46-1.414.305-1.718.86.171 1.505-.213 2.459-.286 3.72.385.665 1.024 1.076 1.717 1.432-.303 7.032.364 15.33.573 20.037 6.587 2.522 10.996 7.604 17.747 9.159-.983-2.459-4.408-3.243-6.87-4.867-2.487-1.638-4.187-4.069-6.298-5.724-.064-1.272-.435-2.236-1.717-2.289.421-5.21.558-10.701 1.145-15.744-.225-1.18 1.37-.537 1.145-1.717.334-2.339-.961-3.048-1.432-4.58 4.77-11.071 11.802-19.876 20.611-26.907.135 8.59 3.988 15.04 8.587 19.464 1.828 1.76 5.362 4.015 8.014 3.721 3.41-.376 7.131-5.234 9.732-8.014 3.964-4.232 8.278-8.103 7.443-14.026 1.79-1.014 3.103.678 4.295 1.718 6.58 5.74 12.313 14.354 16.314 22.898-.31 1.528-1.593 2.604-1.43 4.58.074.91.822.854 1.145 1.718 1.592 4.278-.104 10.75 1.144 15.744-.781.554-1.728.942-1.717 2.289-1.896 1.956-3.772 4.347-6.298 6.012-2.461 1.624-5.886 2.405-6.87 4.867 6.752-1.556 11.16-6.638 17.748-9.162.192-4.634.882-12.801.573-19.75.268-.878 1.463-.827 1.717-1.718-.074-1.261-.457-2.213-.286-3.721-.51-.253-.728-.799-1.718-.572-2.212-8.14-6.932-15.17-12.022-21.181-2.912-3.44-5.255-6.592-10.019-8.016-.985-.54-1.299-1.754-2.003-2.576-.76.005-1.685-.158-1.718.572-1.178-1.78-2.727-3.188-4.292-4.579 4.806 1.395 10.646 4.237 17.458 4.579.19 1.625 1.383 2.246 2.291 3.149 1.267.408.75-.968 1.717-.859 4.08-.022 7.539.068 11.163-.286 8.581-.838 13.568-4.654 19.752-8.015-8.761 1.83-17.119 6.543-29.77 5.439" fill="#381400" transform="matrix(.20225 0 0 .20225 -59.811 352.113)"/></g><use xlink:href="#a" transform="translate(25.822)" width="100%" height="100%"/><use xlink:href="#a" transform="translate(51.643)" width="100%" height="100%"/><use xlink:href="#a" transform="translate(77.465)" width="100%" height="100%"/><use xlink:href="#a" transform="translate(103.286)" width="100%" height="100%"/><use xlink:href="#a" transform="translate(129.108)" width="100%" height="100%"/><use xlink:href="#a" transform="translate(0 -31.667)" width="100%" height="100%"/><use xlink:href="#a" transform="translate(25.822 -31.667)" width="100%" height="100%"/><use xlink:href="#a" transform="translate(51.643 -31.667)" width="100%" height="100%"/><use xlink:href="#a" transform="translate(77.465 -31.667)" width="100%" height="100%"/><use xlink:href="#a" transform="translate(103.286 -31.667)" width="100%" height="100%"/><use xlink:href="#a" transform="translate(129.108 -31.667)" width="100%" height="100%"/><use xlink:href="#a" transform="translate(0 -63.333)" width="100%" height="100%"/><use xlink:href="#a" transform="translate(25.822 -63.333)" width="100%" height="100%"/><use xlink:href="#a" transform="translate(51.643 -63.333)" width="100%" height="100%"/><use xlink:href="#a" transform="translate(77.465 -63.333)" width="100%" height="100%"/><use xlink:href="#a" transform="translate(103.286 -63.333)" width="100%" height="100%"/><use xlink:href="#a" transform="translate(129.108 -63.333)" width="100%" height="100%"/><use xlink:href="#a" transform="translate(0 -95)" width="100%" height="100%"/><use xlink:href="#a" transform="translate(25.822 -95)" width="100%" height="100%"/><use xlink:href="#a" transform="translate(51.643 -95)" width="100%" height="100%"/><use xlink:href="#a" transform="translate(77.465 -95)" width="100%" height="100%"/><use xlink:href="#a" transform="translate(103.286 -95)" width="100%" height="100%"/><use xlink:href="#a" transform="translate(129.108 -95)" width="100%" height="100%"/><use xlink:href="#a" transform="translate(0 -126.667)" width="100%" height="100%"/><use xlink:href="#a" transform="translate(25.822 -126.667)" width="100%" height="100%"/><use xlink:href="#a" transform="translate(51.643 -126.667)" width="100%" height="100%"/><use xlink:href="#a" transform="translate(77.465 -126.667)" width="100%" height="100%"/><use xlink:href="#a" transform="translate(103.286 -126.667)" width="100%" height="100%"/><use xlink:href="#a" transform="translate(129.108 -126.667)" width="100%" height="100%"/><use xlink:href="#a" transform="translate(0 -158.333)" width="100%" height="100%"/><use xlink:href="#a" transform="translate(25.822 -158.333)" width="100%" height="100%"/><use xlink:href="#a" transform="translate(51.643 -158.333)" width="100%" height="100%"/><use xlink:href="#a" transform="translate(77.465 -158.333)" width="100%" height="100%"/><use xlink:href="#a" transform="translate(103.286 -158.333)" width="100%" height="100%"/><use xlink:href="#a" transform="translate(129.108 -158.333)" width="100%" height="100%"/></g><use xlink:href="#b" transform="translate(0 -219.667)" width="100%" height="100%"/><use xlink:href="#b" transform="translate(217.536 -219.667)" width="100%" height="100%"/><use xlink:href="#b" transform="translate(217.536)" width="100%" height="100%"/><use xlink:href="#b" transform="translate(435.072 -219.667)" width="100%" height="100%"/><use xlink:href="#b" transform="translate(435.072)" width="100%" height="100%"/></svg>