<svg xmlns="http://www.w3.org/2000/svg" xmlns:xlink="http://www.w3.org/1999/xlink" height="420" width="600"><g id="a" stroke-width=".379"><path d="M360.464 396.219c-.845.288-1.317.946-2.161 1.234-.382-.648-.855-1.202-1.235-1.853 1.145.193 3.177-.5 3.396.619M387.31 383.873c.26.668.8 1.054.617 2.162-.804.089-1.79-2.248-.618-2.162M389.779 390.664c-1.31-1.159-3.575-1.363-4.938-2.47 1.852-.354 4.862 1.19 4.938 2.47M391.321 389.739c-1.092-.656-2.474-1.023-3.394-1.854 1.453.1 3.336 1.386 3.394 1.854M389.161 383.873c-1.588-.268-2.017-3.321-1.541-4.626.964 1.092.864 3.249 1.541 4.626M381.447 388.195c2.892.502 4.836 1.953 7.097 3.086-2.35-1.044-5.05-1.74-7.097-3.086M382.681 391.588c-3.554-.456-5.954-2.067-8.949-3.084 3.852.161 6.044 1.98 8.95 3.084M375.584 373.383c1.067.27 2.025.648 2.468 1.542h-2.159c.126-.742-.565-.67-.309-1.542M373.424 372.148c1.173-.03 2.043 1.848 1.235 2.777-.872-.464-.959-1.717-1.235-2.777M376.51 380.172c-2.237.276-2.127-3.42-1.851-4.63 1.401.76 1.272 3.049 1.852 4.63M384.532 392.823c2.653-.08 3.876 1.269 5.556 2.161-2.45-.123-3.733-1.408-5.556-2.161M379.904 375.988c1.497.56 1.981 1.345 2.16 4.012h-1.543c-.204-1.333-1.336-2.97-.617-4.012M383.299 396.835c2.8-.124 5.188.161 6.173 1.853-.163.455-.459.777-.617 1.233-2.154-.729-3.912-1.849-5.556-3.086M374.659 381.097c.638 1.42.65 3.463 1.541 4.63.563-1.796-1.647-3.767 0-4.63 1.696.156.508 3.315 2.161 3.512-.202-1.133-.6-1.942-.616-3.276h2.159c.37 1.334.484 2.552 1.235 3.24.329-1.437-.807-3.24 0-3.24h1.233c.27 1.334.8 3.455 1.235 5.282-10.235-.512-23.695 1.88-30.858-2.604 7.767-.287 14.332-3.454 21.91-2.914M388.237 400.847c-2.016-.15-5.37-1.623-7.098-3.086 2.984.41 5.249 1.54 7.098 3.086M377.435 395.91c-3.819-.707-6.907-2.146-9.875-3.703 3.785-.584 8.065 2.342 9.875 3.704M377.745 388.504c4.076-.17 5.783 2.03 8.64 3.084-3.312-.596-5.822-1.995-8.64-3.084M347.193 394.984c-.338-1.205 1.838-1.236 1.852-.308-.728-.008-.909.53-1.852.308M379.904 392.823c2.841-.384 5.695 1.368 7.716 2.777-2.97.404-5.313-1.673-7.716-2.777M356.143 400.23c-1.982-1.413-3.562-3.226-4.938-5.246 2.798.423 4.822 3.161 4.938 5.247M336.084 344.685c-3.595-1.96-8.201-2.908-12.652-4.013-.296-3.485.101-6.276 1.852-7.713 4.279 3.025 8.59 7.661 10.8 11.726" fill="#fff" transform="matrix(.35142 0 0 .35142 -100.861 234.296)"/><path d="M377.435 370.605c-.23 1.174 1.262 2.21.31 3.087-2.228-.757-2.838-3.13-3.704-5.247-.888.647.82 2.264 0 2.778-2.002-2.8-5.508-4.139-9.568-5.554-.869.055-.384 1.467-1.541 1.234-.64-.502-2.596-1.887-3.085-.618.984 1.551 4.101 2.083 5.554.618 1.207.952 2.792 1.526 4.319 2.16-.019 1.664.48 2.81.617 4.32-5.092-1.799-8.98-4.802-12.034-8.64.377-.036.73-.094.616-.618-3.292-2.657-5.044-6.284-7.714-9.566-2.689-3.308-7.41-5.443-11.109-8.331-5.348-4.179-8.205-10.599-13.577-14.504 1.101-.34 1.566-1.312 2.777-1.544 7.361 4.973 12.217 12.481 18.515 18.516 9.268 8.879 20.416 15.696 32.093 22.219.467 1.384.733 2.969 1.235 4.32-2.822.044-1.796-3.759-3.704-4.63M354.91 402.081c-2.866-1.249-4.645-3.585-6.173-6.17 2.914-.151 5.708 3.881 6.172 6.17M357.685 398.377c-1.308.483-2.158-1.874-3.086-2.777 1.934.023 2.586 1.325 3.086 2.777M384.224 386.343c.199-1.911-1.797-4.695-.617-5.554 1.286 1.388 2.593 2.754 2.778 5.246-.398.425-1.341.305-2.161.308M352.75 386.444c-.326-.017-.245-.292.307-.205 4.86 2.604 14.698 2.334 19.134 1.904 1.208 2.084 4.689 1.918 6.478 3.42-2.985.209-4.425-1.116-6.789-1.53-2.481 2.355-6.265-1.942-7.713-.61.437.898 1.826.85 2.776 1.238-.19 1.347-1.37.579-1.852 1.028.192.735 1.346.311.928 1.644h-6.79c-1.961-2.666-4.786-4.058-6.48-6.889M391.321 398.688c-.42-.393-.476-1.512.31-1.544.093.719.658 1.33-.31 1.544M383.607 377.393c.698.55 1.504 2.596.925 3.396-.18-1.066-1.543-2.554-.925-3.396" fill="#fff" transform="matrix(.35142 0 0 .35142 -100.861 234.296)"/><path d="M384.224 395.91c-3.792.698-8.579-2.378-12.033-4.011 4.989.356 8.614 2.08 12.033 4.012M380.521 397.144c-.534.539-1.908.341-2.16-.31.639.186 2.027-.38 2.16.31M391.939 394.365c-1.114.287-3.079-.954-4.012-1.849 1.83.123 3.018.89 4.012 1.85M389.779 397.761c-.306-.826-1.88-.382-1.852-1.542 1.061-.135 1.729.121 2.469.309-.041.573-.203 1.03-.617 1.233M351.205 376.47c2.486-3.893 11.388-1.367 15.738-3.395 1.068.681 2.637.86 3.702 1.542.144 1.811.838 3.072.928 4.938-4.238 1.572-9.854 1.541-15.122 2.16-2.188.256-4.404 1.509-6.479 1.234-4.335-.573-6.217-4.662-9.259-6.48 3.5.675 6.714-.102 10.492 0M357.995 393.75c-5.331.083-5.951-6.187-9.567-6.789 1.236 2.182 5.236 4.811 4.936 6.48-3.199-2.045-5.208-5.284-7.713-8.024 7.866-.974 8.76 5.024 12.344 8.334" fill="#fff" transform="matrix(.35142 0 0 .35142 -100.861 234.296)"/><path d="M351.515 366.285c1.613 1.475 3.889 3.926 5.553 4.32-.776-2.001-2.845-2.708-4.01-4.32 2.947-.476 3.614 2.964 4.937 3.086.232-1.108-2.315-2.2-.927-2.468 3.787.945 5.748 3.716 8.64 5.554-5.275.69-12.32-.388-15.12 2.778-4.499.233-7.713.226-11.11.308-2.683-3.487-5.874-6.47-8.331-10.183 8.094-1.08 13.361-1.263 20.368.925M341.948 386.652c.924 1.584 4.284 3.892 3.703 4.936-2.498-.28-2.563-2.992-4.938-3.393-.173 1.406 2.831 2.582 1.543 3.086-1.108.079-1.13-.926-2.16-.926-4.479 1.754-10.547-.115-14.812-.616-.26-.77-.404-1.655-.31-2.778 3.769-3.19 13.709-1.634 19.75-1.544 1.63 2.795 4.175 4.672 5.864 7.406-4.428-.508-4.87-5.004-8.64-6.171M379.596 380h-2.161c-.527-1.333-1.03-2.587-1.235-4.235 1.061.135 1.73-.164 2.47-.35.333 1.517.827 3.252.926 4.585M387.31 376.47c-.247 1.069.46 1.185.31 2.158-1.096-.325-2.052-3.799-1.235-4.01 1.906.665 2.607 2.534 3.087 4.629-1.639-.01-.865-2.43-2.163-2.778M391.013 377.085c-1.325.366-.338 1.436-.925 2.162.193-1.14-1.116-2.359-.31-3.087.443.6 3.086.597 1.853 1.852.016-.532-.238-.792-.618-.927M386.693 382.639c-.688-.964-1.752-3.174-1.234-4.319 1.036.619 1.777 3.15 1.234 4.319M389.472 379.863c.604 1.761.979 3.752 1.85 5.245-1.682-.484-2.327-3.632-1.85-5.245M373.424 375.235c.257 1.594.819 2.885.925 4.628-1.13.102-1.713-.342-2.469-.616-.041-2.3-1.715-5.846 1.544-4.012M382.99 373.692c-.157 1.2 1.155 2.525.617 3.085-1.995-.577-2.091-3.052-2.778-4.937 2.466 1.133 5.127 2.073 4.938 5.863-1.975-.286-.939-3.587-2.778-4.011M370.956 369.68c1.18.779 2.744 2.8 1.85 4.628-1.745-.064-3.2-3.505-1.85-4.628M337.628 349.93c-2.393-2.34-4.779-4.683-8.024-6.171 3.064 3.518 7.887 5.278 9.875 9.874-2.654-1.256-4.196-3.621-7.098-4.628 1.647 1.85 4.216 2.778 5.864 4.628-3.94-.689-5.117-4.141-8.949-4.937 1.455 1.94 4.115 2.673 5.555 4.628-2.952-.065-6.346-.301-8.642-.616-.488-4.141-2.404-6.852-2.777-11.11 5.71.974 11.101 2.27 14.504 5.554-.19.839.392 2.45-.308 2.777M342.872 394.057c-4.716 1.307-10.71 2.655-16.045 1.543-.627-1.224-1.144-2.557-1.235-4.319 2.067.143 4.224 1.04 7.099 1.235 3.701.247 8.465-1.159 10.181 1.541M345.033 394.676c1.094-.348 1.876 1.176 1.235 1.543-.208-.718-1.025-.827-1.235-1.543M343.183 392.823c1.054-.128 1.757.094 1.541 1.234-.904-.02-1.145-.704-1.541-1.234M356.45 405.476c.189-1.46-1.971-1.737-1.234-2.777 2.173-1.066 2.663 3.378 4.32 2.777-.04-2.276-3.304-2.795-2.468-4.939 1.915.455 3.404 4.002 5.864 4.939-1.017-2.788-3.967-3.647-4.937-6.48 3.046 1.477 4.036 5.015 6.789 6.788-1.013-3.41-4.043-4.803-5.555-7.715.41-.31 1.148-.29 1.235-.925 1.63-.088 1.632 1.453 2.777 1.852-.306-1.032-1.238-1.437-1.544-2.468 4.696-3.636 11.336-.847 16.048 1.233-.693.336-1.548.511-2.161.927-.979 4.513-5.25 4.565-8.332 6.48-2.323 1.441-3.093 4.12-5.555 4.628-6.897-.061-14.929 1.739-20.984-.31 5.015-1.155 8.668-3.675 12.651-5.862 1.45.197 1.461 1.832 3.087 1.852" fill="#fff" transform="matrix(.35142 0 0 .35142 -100.861 234.296)"/><path d="M377.128 398.996c3.91-1.507 7.292 1.923 10.492 3.085-.583.758-1.167 1.508-1.235 2.778-6.557 2.497-14.289 5.461-23.144 4.628 4.188-3.935 10.944-5.307 13.887-10.491M391.939 402.081c-1.287.47-3.158 1.976-4.319 1.543.868-1.748 4.337-7.839 4.319-1.543M345.65 397.453c1.429.227 2.334 2.592 3.395 2.159.052-1.285-3.102-2.312-1.542-3.084 1.413 2.495 3.901 3.916 5.246 6.48-5.42 2.37-14.664 9.976-19.133 2.468 5.75-.935 8.797-4.575 12.035-8.023" fill="#fff" transform="matrix(.35142 0 0 .35142 -100.861 234.296)"/><path d="M337.01 396.528c3.175-.49 7.233-3.157 8.331.307-3.569 3.322-6.63 7.152-12.96 7.714-2.105-2.317-4.108-4.737-5.245-8.021 3.255.741 6.304.548 9.875 0M338.553 354.867c2.051-.2 2.166 1.54 3.395 2.161 3.319 1.493 7.203 3.581 9.567 5.863.737.712 2.106 1.797 1.542 2.469-5.994-2.336-9.57-7.093-14.504-10.493M408.295 379.555c-.311 1.852-.092 4.229-1.852 4.629.724-1.437.428-3.892 1.852-4.63M459.828 342.216c-4.095 5.093-11.525 8.076-15.43 12.961-2.611 3.27-4.898 6.503-7.713 9.566.003.406.54.282.618.617-3.374 3.417-6.915 6.665-12.038 8.332.139-1.51.636-2.657.618-4.321 1.529-.632 3.113-1.207 4.32-2.16 1.436 1.437 4.958 1.06 5.554-.926-.901-.6-2.39.346-3.085.926-1.27.244-.58-1.476-1.852-1.235-3.996 1.53-7.219 2.999-9.565 5.555-.023-.976 1.248-2.43 0-2.778-.258 2.726-1.466 4.5-3.703 5.247-.383-1.325 1.2-2.272.31-3.085-1.167 1.205-1.175 5.197-3.395 4.32.624-1.124.749-2.748 1.233-4.012 6.26-2.618 11.615-6.731 16.972-10.492 5.29-3.712 10.899-7.57 15.43-12.035 6.153-6.064 10.998-13.517 18.515-18.207.846.492 1.523 1.151 2.468 1.543-3.446 3.196-6.538 6.803-9.257 10.184M404.59 389.43c1.113-.033 2.049-1.846 3.087-.926-1.201-.056-2.232 1.659-3.086.925M405.208 397.453c-.016-1.149 1.373-.89 2.47-.925-.123 1.11-1.529.94-2.16 1.541-.07-.238-.01-.608-.31-.616M410.763 388.812c-1.951.517-3.555 1.383-5.246 2.16 1.079-1.416 3.559-3.2 5.246-2.16M411.072 393.441c-2.135.031-3.52 2.439-5.555 1.543 1.947-.219 3.363-2.596 5.555-1.543M408.603 390.664c.994-.532 3.632-2.136 5.553-1.852-1.588.584-2.183.728-3.393 1.235-2.235.933-4.666 1.958-2.16.617M417.861 389.12c-3.189.313-5.71 2.928-8.641 2.468 3.155-.343 4.999-3.636 8.641-2.468M411.688 376.777c.328-.616 1.315-2.161.617-2.777-1.318.841-.649 3.67-2.468 4.012-.322-3.616 2.89-5.336 4.936-5.555-.65 1.616-1.192 4.971-3.085 4.32M459.21 344.685c3.449-4.061 6.586-8.434 11.11-11.418 1.752 1.437 2.15 4.229 1.852 7.714-4.53.822-9.564 2.778-12.961 3.704M460.753 353.324c1.531-1.456 4.806-2.801 5.247-4.319-3.415.804-5.221 4.856-8.64 4.628 1.773-1.316 4.94-2.874 5.555-4.321-2.551 1.256-4.272 3.341-6.79 4.63 1.718-4.56 7.398-6.63 9.399-9.875-3.047 1.685-5.524 4.09-8.19 6.173v-2.777c4-3.286 8.958-4.582 14.67-5.556-.37 4.257-2.205 6.966-2.695 11.109-2.209.124-6.124.968-8.556.308" fill="#fff" transform="matrix(.35142 0 0 .35142 -100.861 234.296)"/><path d="M457.67 346.535c-6.86 5.692-13.082 13.664-20.06 18.208 6.242-6.308 11.965-14.779 20.06-18.208M443.164 361.039c4.71-3.93 8.997-9.93 13.888-12.652-.476 4.208-4.028 5.909-6.79 8.333-2.36 2.072-4.651 4.356-7.098 4.319M437.61 365.976c3.118-.379 3.315-3.679 6.48-4.01-1.597 1.695-3.454 4.77-6.48 4.01M450.261 357.644c1.766-.913 3.45-3.54 4.938-3.701-.808 1.866-3.178 3.808-4.938 3.701" fill="#fff" transform="matrix(.35142 0 0 .35142 -100.861 234.296)"/><path d="M457.052 355.484c-2.503 1.703-4.747 3.41-7.099 5.247-2.213 1.729-4.218 4.62-7.713 4.938 1.93-3.521 7.023-6.552 11.725-8.333.584-.865 1.748-2.765 3.087-1.852M413.539 380c.209-1.333.654-3.667 2.469-4.012-.081 1.564-.527 2.679-.924 4.012h-1.545M411.38 386.652c-.82-.003-1.763.116-2.16-.31.25-2.325 1.676-5.107 3.395-4.935-.547 1.613-1.015 3.305-1.235 5.245M446.25 365.05c4.675-3.45 8.747-7.505 13.887-10.491-3.238 3.653-8.249 5.534-11.109 9.566 6.8-3.384 10.357-10.009 20.057-10.492-.4 4.536-2.284 7.59-4.01 10.802-7.124-.596-14.564-1.322-18.824.616M406.135 398.688c1.188-1.081 3.993-2.173 6.17-1.235-2.053.724-3.326 2.227-5.554 2.778-.132-.588-.666-.776-.616-1.543M442.857 384.492c-7.674 3.863-20.578 1.79-30.86 2.16.944-1.627.148-4.995 2.159-5.555 1.599.374-.541 2.547.617 3.359.192-1.148.736-1.79.927-3.123h2.161c.212 1.334-.944 2.776-.309 3.431 1.199-.653.177-3.508 2.16-3.376 1.117 1.24-1.193 3.321 0 4.639.312-1.643.772-3.134 1.235-4.626 3.79-1.494 6.996.81 10.49 1.546 4.179.878 8.702-.288 11.42 1.545M419.712 375.235c-.639-.184-2.027.381-2.16-.31.779-.453 1.377-1.089 2.47-1.233.254.872-.437.799-.31 1.543" fill="#fff" transform="matrix(.35142 0 0 .35142 -100.861 234.296)"/><path d="M419.404 375.68c-.205 1.647-.708 2.987-1.235 4.32h-2.161c.495-1.333-.016-5.523 3.396-4.32M421.255 375.852c-.474 1.788.285 4.81-2.16 4.628.658-1.604.322-4.204 2.16-4.628M422.18 372.457c-.33 1.11-.29 2.588-1.541 2.778-.079-1.52.273-2.607 1.541-2.778M417.861 395.91c3.256-.891 6.543-4.582 10.183-3.087-3.361.858-6.601 3.478-10.183 3.088M407.368 400.847c2.255-1.038 4.108-2.475 7.099-2.778-1.66 1.254-5.511 3.502-7.099 2.778M412.305 377.703c-.417 1.228-.612 2.678-1.542 3.394.314-1.332.221-3.07 1.542-3.394M415.7 393.441c-2.752.428-5.108 3.515-7.715 2.159 2.348-.745 5.271-3.475 7.715-2.159M407.677 386.343c-.008-1.139.138-2.124 1.235-2.159-.357.776-.147 2.116-1.235 2.159M421.872 389.12c-3.364.239-5.779 3.067-8.95 2.468 3.253-.35 5.505-3.337 8.95-2.468M405.208 399.304c.788 1.784 2.05 3.095 2.777 4.939-1.358-.39-2.546-.951-3.702-1.544.402-1.038-.207-3.088.925-3.395M399.653 471.204c-.093 1.039.412 2.676-.925 2.47.095-1.037-.413-2.676.925-2.47M398.728 463.49c.4 1.465 1.15 1.583.617 3.395-1.297.079-2.518-3.14-.617-3.396M397.803 458.667c-.219-1.334.948-1.334.616-2.667h.926c.714 0 .095 2.667 0 2.667h-1.542M399.345 390.972c3.371.69 3.174 8.881 1.235 11.11 1.001-4.303-.51-8.733-1.235-11.11M398.728 413.333h.925c.378 1.334 2.271 6.796-.308 7.715.119-2.896-.045-5.048-.617-7.715M397.185 436.952c.69.81 1.299 4.639-.309 4.937-.004-1.368-1.035-4.18.31-4.937M398.728 440.839c.11-2.272-.08-3.506-.31-6.172h.927c.455 1.333 1.65 5.852-.617 6.172M397.185 432.323c-.289-2.212.342-4.908.308-5.863 1.195-.165 1.271.788 2.16.927-.22 1.732.724 4.633-1.234 4.628-.187-.739.388-2.239-.308-2.47-.144 1.091.504 2.975-.926 2.778M357.995 364.743c-2.378-.71-2.916-3.256-5.246-4.012-4.129-5.438-10.929-9.851-14.504-14.814 8.087 4.772 13.796 11.92 19.75 18.826M345.033 357.644c-1.782-.893-4.601-2.388-4.32-4.32 1.12 1.557 4.027 2.964 4.32 4.32M351.823 361.656c2.461.73 4.316 3.704 5.862 4.32-3.018-.17-5.185-2.835-5.862-4.32M346.576 363.816c-2.86-4.03-7.87-5.912-11.108-9.565 4.824 3.096 10.305 7.18 13.577 10.8-4.436-2.932-11.545-1.111-18.516-.926-1.529-3.1-4.146-6.756-3.702-10.801 9.466.615 13.012 7.15 19.749 10.492M395.025 407.019c.703.697-.21 1.357-.617 1.85.185-.634-.499-2.142.617-1.85" fill="#fff" transform="matrix(.35142 0 0 .35142 -100.861 234.296)"/><path d="M338.861 347.77c4.519 4.123 9.975 8.953 13.271 13.269-4.467-2.795-12.23-6.72-13.27-12.96-.171 0-.35-.251 0-.31M393.79 361.348c.91.055 2.031.71 1.235 1.543-.82-.107-1.042-.81-1.234-1.543M403.665 390.972c-.168.448.362 1.596-.308 1.544.228-.95-.846-.595-.617-1.544h.925M452.421 393.441c-.726.095-.573 1.071-1.542.924-.474-1.118 1.132-1.708 1.542-.924M452.73 394.057c4.02-2.562 12.8-.364 17.282-2.469-.09 1.764-.608 3.096-1.235 4.323-5.272.965-11.829.042-16.046-1.854" fill="#fff" transform="matrix(.35142 0 0 .35142 -100.861 234.296)"/><path d="M450.261 396.835c1.574-2.92 5.367-.484 8.643 0 3.61.534 6.841.714 9.565 0-1.284 3.242-3.002 6.049-5.554 8.024-6.071-.822-9.451-4.334-12.654-8.024M450.57 395.293c-.715.208-.825 1.024-1.542 1.235-.056-.801.865-2.188 1.543-1.235M438.844 382.024c-5.144-.559-10.573-.676-14.813-2.161.089-1.866.784-3.126.928-4.938 1.066-.681 2.634-.86 3.702-1.542 3.143 1.989 9.323-.075 13.268 1.542 1.202.492 1.794 1.598 2.779 1.852 3.523.912 6.773-.332 10.183.308-3.318 1.571-5.122 5.704-9.566 6.172-2.09.22-4.27-.994-6.481-1.233M441.93 393.75c.573-2.207 4.103-4.123 5.247-6.789-3.926 1.627-4.185 6.926-9.568 7.096 2.118-3.129 4.828-5.664 7.407-8.33 1.548.2 3.901-.406 4.937.308-2.934 2.31-4.372 6.118-8.024 7.716M455.199 390.664c-.712.317-.995 1.061-2.16.924-.57-.69 2.456-2.05 1.544-3.084-2.108.67-2.231 3.324-4.939 3.395.143-1.307 3.561-3.632 3.704-4.938-3.364 1.471-4.059 5.61-8.332 6.171 1.688-2.733 4.235-4.61 5.863-7.405 6.041-.091 15.982-1.647 19.749 1.542.096 1.124-.048 2.008-.308 2.778-4.35.561-10.525 2.329-15.121.617M407.677 393.132c-1.172.473-2.049 1.243-3.394 1.544.29-1.16 2.316-2.199 3.394-1.544M404.283 385.108c1.324-1.04.861-3.868 2.16-4.936-.198 1.967-.591 5.368-2.16 4.936" fill="#fff" transform="matrix(.35142 0 0 .35142 -100.861 234.296)"/><path d="M429.896 372.457c3.361-1.369 4.78-4.682 8.948-5.246.536.656-1.516 1.349-1.235 2.777 1.423-1.05 2.454-4.125 4.938-3.085-1.504 1.272-3.419 2.134-4.012 4.32 2.004-1.394 3.886-2.904 5.556-4.63 6.889-2.066 12.826-2.314 20.366-.617-2.896 3.276-5.476 6.87-8.64 9.876-3.226-.008-6.649-.163-11.109-.31-2.348-3.618-10.383-1.55-14.812-3.085M448.719 396.835c-.274 1.577-2.079 1.625-2.159 3.396 1.419-.536 1.888-2.022 3.393-2.47 3.24 3.447 6.284 7.09 12.035 8.023-4.47 7.51-13.713-.096-19.13-2.47 1.663-2.449 3.585-4.64 5.86-6.48M404.9 378.012c-.563 1.083.017 3.308-.927 4.012.432-1.217-.148-3.44.927-4.012M425.265 369.988c-.145 2.321-.509 4.428-2.776 4.63-.021-2.491.779-4.16 2.776-4.63" fill="#fff" transform="matrix(.35142 0 0 .35142 -100.861 234.296)"/><path d="M428.044 405.476c-3.404-2.016-7.359-2.724-8.332-6.788-.685-.24-1.673-.179-1.85-.927 5.11-1.48 11.734-4.932 16.045-.617-.556.677-1.204 1.265-1.543 2.16 1.145-.397 1.147-1.941 2.776-1.85.032.791 1.207.44 1.235 1.234-1.568 2.443-5.154 4.512-5.244 7.404 2.305-2.116 3.596-5.248 6.478-6.788-.745 2.755-4.588 4.048-4.628 6.48 2-1.01 4.095-5.121 5.554-4.628.656 1.895-2.666 2.472-2.467 4.936 1.973-.424 2.08-3.901 4.32-3.084.93.913-2.019 1.745-.927 2.776 1.296-.247 1.434-1.652 2.779-1.85 3.896 2.375 8.072 4.474 12.65 6.17-6.63 1.384-13.997.093-20.983 0-2.382-.681-3.56-3.264-5.863-4.628" fill="#fff" transform="matrix(.35142 0 0 .35142 -100.861 234.296)"/><path d="M418.787 399.304c2.461 5.664 9.958 6.293 13.577 10.8-9.423.063-16.456-2.263-23.144-4.936-.02-1.42-.876-2.004-1.235-3.087 3.755-.749 6.536-4.42 10.802-2.777M410.455 378.628c-.436 1.623-.483 3.633-1.852 4.321.329-1.728.204-3.91 1.852-4.321M398.728 392.823c1.07 1.4 1.241 3.697 1.235 6.173-1.34-.765-1.942-5.399-1.235-6.173M405.208 379.247c.532-1.428-.859-2.043.927-2.778-.151.892-.487 3.198-.927 2.778M401.505 380.79c-.841-.029-.621.513-1.234 0 .202-4.027-.81-6.834-.926-8.95 2.267-.728 2.215 3.697 3.395 1.235.039 5.593-1.065 10.044-3.395 13.268.522-2.048 1.518-3.624 2.16-5.554M411.38 395.91c3.705-1.231 7.527-3.994 12.035-3.394-3.92.917-7.746 4.86-12.035 3.395M407.985 378.937c-.256-.804.934-1.692 0-2.16-.633.612-.721 3.378-1.85 2.47.488-1.884 1.698-4.674 3.702-4.012-1.004.848-.31 3.392-1.852 3.702M400.27 360.113c.074.57 1 2.791-.307 2.778.533-1.178-1.144-2.646.308-2.778M421.255 380.172c.106-1.744.668-3.035.925-4.63.875-.05 1.287-.566 2.161-.617-.036 1.714-.657 2.84-.617 4.63-.755.273-1.339.718-2.47.617M401.813 362.273c-1.457-1.628-1.438-4.734-2.777-6.48 2.483.603 2.704 3.468 2.777 6.48M417.244 397.453c-.673.163-1.996.746-2.16-.309.637.183 2.025-.383 2.16.31M398.419 401.465c-.244 1.586-.759-4.597-.308-3.704.209 1.128.43 2.244.308 3.704M436.992 397.761c-.424-.706-1.537-.725-1.852-1.542.55-.395 2.881-.595 3.395 0-.812.214-.652 1.405-1.543 1.542M437.919 398.688c.336-1.317 1.613-3.315 3.086-2.47-1.2.533-1.741 3.08-3.086 2.47" fill="#fff" transform="matrix(.35142 0 0 .35142 -100.861 234.296)"/><path d="M423.415 390.355c-1.939.432-4.212 2.16-6.48 1.233 2.44-.85 5.13-1.45 6.789-3.084 3.541.847 14.857.296 19.44-1.239-2.115 2.514-4.667 4.735-6.79 7.402h-6.789c-.501-2.667 1.075-1.288.928-2.464-.878.386-1.568-.111-1.852-1.078.946-.493 2.696-.261 2.776-1.62-1.932-.328-5.325 2.898-8.022.85M448.412 394.676c.167 1.237-1.792.46-1.852 0 .393-.423 1.456-.423 1.852 0M440.695 402.39c.278-1.962 3.966-7.522 6.172-5.555-2.135 1.774-3.206 4.613-6.172 5.556M444.399 395.293c-1.375 2.019-2.956 3.832-4.938 5.244.118-2.082 2.14-4.822 4.938-5.244M396.876 356.101c-.045-.765-.057-1.497.617-1.542.004.408.54.282.618.618-.63.09-.606.835-1.235.924M403.048 362.89c1.348-.363 1.348 2.835 0 2.47.307-1.208-.681-1.792 0-2.47M389.779 363.199c-.539-1.444 1.73-1.655 1.852-.616-1.068-.246-1.303.341-1.852.616M396.876 416.276c.75.467 1.113 3.619 0 4.012.27-1.415-.407-3.483 0-4.012" fill="#fff" transform="matrix(.35142 0 0 .35142 -100.861 234.296)"/><path d="M327.055 338.69c.733-1.137 1.85-1.875 3.26-1.58 4.653.969 9.7 8.893 12.856 12.134 5.024 5.156 11.885 9.857 18.325 13.053 5.976 2.962 22.104 8.688 19.912 17.772-.341 1.412-2.292 1.516-2.777.146-1.77-4.995-8.852-7.347-13.234-9.27-5.684-2.496-10.668-4.982-15.862-8.414-6.915-4.567-12.48-9.886-18.27-15.766-1.57-1.596-6.006-5.296-4.21-8.076M437.195 361.895c9.662-4.003 18.797-13.49 22.913-22.84.545-1.167 2.124-1.118 2.81-.148 3.546 5.008-3.26 12.412-6.34 15.861-4.462 4.996-10.687 11.86-17.33 13.559-4.248 1.086-6.059-4.772-2.053-6.432M431.045 398.752c.763-1.468 2.296-2.14 3.896-1.888 3.866.608 7.935 2.283 11.856 1.35 2.442-.58 5.104-2.27 7.492-.793.84.52 1.05 1.298.734 2.203-1.028 2.939-5.604 4.653-8.414 5.157-4.385.787-8.764-.394-13.106-.962-1.227-.16-2.31-1.256-2.664-2.399-.316-1.019-.288-1.713.206-2.668" fill="#fcffbf" transform="matrix(.35142 0 0 .35142 -100.861 234.296)"/><path d="M349.748 400.69c2.535.683 5.256.49 7.853.397 1.586-.058 3.178-.218 4.751-.407a21.096 21.096 0 001.481-.24c.472-.487 1.336-.61 1.986-.14 3.385 2.44-1.778 5.25-4.119 5.884-4.164 1.13-9.793 1.641-13.925.187-3.255-1.147-1.311-6.567 1.973-5.682M359.725 373.588c3.508 3.53 9.976 7.307 14.884 8.324 1.883.39 3.752.797 5.62 1.255.786.192 1.6.378 2.354.681.214.085.346.15.449.201.259.795 1.483 1.119 1.89.191 1.48-3.37-1.997-4.99-4.862-5.992-2.064-.72-4.192-1.164-6.11-2.235-3.787-2.112-7.185-5.268-11.171-6.902-2.86-1.174-5.278 2.24-3.054 4.477M333.377 339.521c1.852 2.768 4.323 4.928 6.492 7.434 1.072 1.238 1.868 2.533 2.544 4.017.627 1.376-.288 2.535-.801 3.612-.093.197-.33.21-.488.092-1.161-.857-2.263-1.164-3.341-2.239a191.841 191.841 0 00-3.119-3.042c-2.181-2.066-4.741-4.058-6.264-6.692-1.899-3.284 2.85-6.364 4.977-3.182M458.637 351.735c1.958-1.647 3.498-3.818 4.796-6.087a.415.415 0 01-.116-.41c.104-.478.378-.994.89-1.075.012-.001.022.012.034.012.339-.644.664-1.287.972-1.924.511-1.054 1.518-6.475 3.188-6.395 3.462.165 2.326 6.133 1.742 8.107-1.343 4.537-4.138 9.134-7.627 12.348-3.233 2.978-7.25-1.742-3.879-4.576M414.475 376.227c2.8-.878 5.864-.444 8.588-1.52.936-.37 1.636 1.116.749 1.598-2.64 1.442-5.361 2.518-8.307 3.15-.725.156-1.537 0-1.942-.702-.156-.27-.25-.508-.264-.824a1.71 1.71 0 011.176-1.702M416.62 398.623l.57-.107c.071-.013.147-.008.22-.016-.004-.007-.01-.012-.015-.019.044.001.086.008.132.01a3.506 3.506 0 011.101.082c4.528.413 8.732 2.432 13.177 3.33 1 .2 1.403 1.727.415 2.247-4.65 2.452-9.555.704-14.504.48-3.213-.146-4.784-5.316-1.096-6.008" fill="#f8ff6e" transform="matrix(.35142 0 0 .35142 -100.861 234.296)"/><path d="M458.575 399.07c.128-.829.557-1.49 1.12-1.986a29.007 29.007 0 002.676-3.545c.513-.804 1.04-1.579 1.461-2.439.16-.325.31-.66.443-.999.009-.07.21-.701.313-.854.588-.88 1.465-1.508 2.585-1.254 3.448.788 2.376 4.986 1.522 7.276-.914 2.442-2.512 4.794-4.096 6.848-2.26 2.934-6.518.139-6.024-3.048M350.147 360.26c3.214 1.05 6.065 2.825 8.198 5.457.58.718-.44 1.811-1.209 1.344-2.552-1.549-5.175-2.929-7.959-4.004-1.574-.608-.633-3.321.97-2.797M457.337 352.145c1.231-.894 2.567-1.869 2.84-3.449.215-1.243 1.967-.801 1.867.387-.123 1.442-.867 2.713-1.76 3.817-.65.804-2.713 2.768-3.875 2.11-1.452-.822.122-2.278.928-2.865M413.456 378.607c1.327-.062 3.175.38 4.412-.271.632-.332 1.365.416.841.992-.888.977-1.63 1.487-2.972 1.681-.958.139-3.237.303-3.846-.648-.723-1.128.644-1.712 1.565-1.754M403.42 395.55c1.895-.389 3.607.406 5.404 1.011 2.028.683 4.041 1.388 6.099 1.976 1.553.446 1.093 2.85-.512 2.48-2.075-.478-4.123-1.048-6.176-1.608-1.795-.49-3.778-.678-5.242-1.872-.645-.525-.44-1.809.427-1.988M407.5 391.21c.38-.682 1.012-.931 1.761-.851 3.024.32 5.831 2.004 8.899 2.026 1.504.012 1.641 2.226.123 2.342-3.443.261-6.814-.154-10.066-1.363-.533-.197-.838-.823-.884-1.35-.028-.31.016-.531.167-.803M356.38 393.284c1.25-3.648 8.335-3.45 11.564-3.647 2.605-.16 7.91-.336 8.461 3.184.094.595-.397 1.107-.9 1.304-3.209 1.256-7.28 1.459-10.665 2.042-2.083.36-10.143 2.029-8.46-2.883M343.73 390.61c2.131.311 4.503.26 6.565.857 1.321.381 1.641 2.377.146 2.806-2.246.648-5.208.552-7.434-.172-2.16-.701-1.591-3.832.722-3.492" fill="#ffd66e" transform="matrix(.35142 0 0 .35142 -100.861 234.296)"/><path d="M324.975 386.961c3.768-3.19 13.708-1.634 19.749-1.544 1.63 2.795 4.175 4.672 5.864 7.406-4.428-.508-4.87-5.004-8.64-6.171.924 1.584 4.284 3.892 3.703 4.936-2.498-.28-2.563-2.992-4.938-3.393-.173 1.406 2.831 2.582 1.543 3.086-1.108.079-1.13-.926-2.16-.926-4.479 1.754-10.547-.115-14.812-.616-.26-.77-.404-1.655-.31-2.778zm.617 4.32c2.067.143 4.224 1.04 7.099 1.235 3.701.247 8.465-1.159 10.181 1.541-4.716 1.307-10.71 2.655-16.045 1.543-.627-1.224-1.144-2.557-1.235-4.319zm19.132 2.776c-.904-.02-1.145-.704-1.541-1.234 1.054-.128 1.757.094 1.541 1.234zm-17.588 2.471c3.255.741 6.304.548 9.875 0 3.174-.49 7.232-3.157 8.33.307-3.569 3.322-6.63 7.152-12.96 7.714-2.105-2.317-4.108-4.737-5.245-8.021zm19.132-.31c-.208-.717-1.025-.826-1.235-1.542 1.094-.348 1.876 1.176 1.235 1.543zm-12.652 9.258c5.75-.935 8.797-4.575 12.035-8.023 1.428.227 2.333 2.592 3.394 2.159.052-1.285-3.102-2.312-1.542-3.084 1.413 2.495 3.901 3.916 5.246 6.48-5.42 2.37-14.664 9.976-19.133 2.468zm7.097 4.01c5.015-1.155 8.668-3.675 12.651-5.862 1.45.197 1.461 1.832 3.087 1.852.188-1.46-1.972-1.737-1.235-2.777 2.173-1.066 2.663 3.378 4.32 2.777-.04-2.276-3.304-2.795-2.468-4.939 1.915.455 3.404 4.002 5.864 4.939-1.017-2.788-3.967-3.647-4.937-6.48 3.046 1.477 4.036 5.015 6.789 6.788-1.013-3.41-4.043-4.803-5.555-7.715.41-.31 1.148-.29 1.235-.925 1.63-.088 1.632 1.453 2.777 1.852-.306-1.032-1.238-1.437-1.544-2.468 4.696-3.636 11.336-.847 16.048 1.233-.693.336-1.548.511-2.161.927-.979 4.513-5.25 4.565-8.332 6.48-2.323 1.441-3.093 4.12-5.555 4.628-6.897-.061-14.929 1.739-20.984-.31zm22.528 0c4.188-3.934 10.944-5.306 13.887-10.49 3.91-1.507 7.292 1.923 10.492 3.085-.583.758-1.167 1.508-1.235 2.778-6.557 2.497-14.289 5.461-23.144 4.628zm24.379-5.862c.868-1.748 4.337-7.839 4.319-1.543-1.287.47-3.158 1.976-4.319 1.543zm4.01-25.612c.017-.532-.237-.792-.617-.927-1.325.366-.338 1.436-.925 2.162.193-1.14-1.116-2.359-.31-3.087.443.6 3.086.597 1.853 1.852zm-2.158 1.85c.604 1.762.979 3.753 1.85 5.246-1.682-.484-2.327-3.632-1.85-5.245zm0-.615c-1.639-.01-.865-2.43-2.163-2.778-.246 1.07.46 1.186.311 2.159-1.096-.325-2.052-3.799-1.235-4.01 1.906.665 2.607 2.534 3.087 4.629zm-2.779 3.392c-.688-.964-1.752-3.174-1.234-4.319 1.036.619 1.777 3.15 1.234 4.319zm-.926-4.936c-1.975-.286-.939-3.587-2.778-4.011-.156 1.2 1.156 2.525.618 3.085-1.995-.577-2.091-3.052-2.778-4.937 2.466 1.133 5.127 2.073 4.938 5.863zm-5.863-6.788c.467 1.384.733 2.969 1.235 4.32-2.822.044-1.796-3.759-3.704-4.63-.23 1.174 1.262 2.21.31 3.087-2.228-.757-2.838-3.13-3.704-5.247-.888.647.82 2.264 0 2.778-2.002-2.8-5.508-4.139-9.568-5.554-.869.055-.384 1.467-1.541 1.234-.64-.502-2.596-1.887-3.085-.618.984 1.551 4.101 2.083 5.554.618 1.207.952 2.792 1.526 4.319 2.16-.019 1.664.48 2.81.617 4.32-5.092-1.799-8.98-4.802-12.034-8.64.377-.036.73-.094.616-.618-3.292-2.657-5.044-6.284-7.714-9.566-2.689-3.308-7.41-5.443-11.109-8.331-5.348-4.179-8.205-10.599-13.577-14.504 1.101-.34 1.566-1.312 2.777-1.544 7.361 4.973 12.217 12.481 18.515 18.516 9.268 8.879 20.416 15.696 32.093 22.219zm-54.62-37.956c4.279 3.025 8.59 7.661 10.8 11.726-3.595-1.96-8.201-2.908-12.652-4.013-.296-3.485.101-6.276 1.852-7.713zm-1.852 8.638c5.71.975 11.101 2.271 14.504 5.555-.19.839.392 2.45-.308 2.777-2.393-2.338-4.779-4.682-8.024-6.17 3.064 3.518 7.887 5.278 9.875 9.874-2.654-1.256-4.196-3.621-7.098-4.628 1.647 1.85 4.216 2.778 5.864 4.628-3.94-.689-5.117-4.141-8.949-4.937 1.455 1.94 4.115 2.673 5.555 4.628-2.952-.065-6.346-.301-8.642-.616-.488-4.141-2.404-6.852-2.777-11.11zm3.395 11.727c9.466.615 13.012 7.15 19.749 10.492-2.86-4.03-7.87-5.912-11.108-9.565 4.824 3.096 10.305 7.18 13.577 10.8-4.436-2.932-11.545-1.111-18.516-.926-1.529-3.1-4.146-6.756-3.702-10.801zm11.418-7.407c8.087 4.772 13.796 11.92 19.75 18.826-2.378-.71-2.916-3.256-5.246-4.012-4.129-5.438-10.929-9.851-14.504-14.814zm.616 2.162c-.17 0-.349-.251 0-.31 4.519 4.124 9.975 8.954 13.271 13.27-4.467-2.795-12.23-6.72-13.27-12.96zm1.852 5.245c1.12 1.557 4.027 2.964 4.32 4.32-1.782-.893-4.601-2.388-4.32-4.32zm11.11 8.332c2.461.73 4.316 3.704 5.862 4.32-3.018-.17-5.185-2.835-5.862-4.32zm1.234 3.704c-5.994-2.336-9.57-7.093-14.504-10.493 2.051-.2 2.166 1.54 3.395 2.161 3.319 1.493 7.203 3.581 9.567 5.863.737.712 2.106 1.797 1.542 2.469zm-21.91 0c8.094-1.08 13.361-1.263 20.368.925 1.613 1.475 3.889 3.926 5.553 4.32-.776-2.001-2.845-2.708-4.01-4.32 2.947-.476 3.614 2.964 4.937 3.086.232-1.108-2.315-2.2-.927-2.468 3.787.945 5.748 3.716 8.64 5.554-5.275.69-12.32-.388-15.12 2.778-4.499.233-7.713.226-11.11.308-2.683-3.487-5.874-6.47-8.331-10.183zm9.566 11.11c3.5.674 6.714-.103 10.492 0 2.486-3.893 11.388-1.367 15.738-3.395 1.068.681 2.637.86 3.702 1.542.144 1.811.838 3.072.928 4.938-4.238 1.572-9.854 1.541-15.122 2.16-2.188.256-4.404 1.509-6.479 1.234-4.335-.573-6.217-4.662-9.259-6.48zm15.43 23.76c-1.982-1.413-3.562-3.226-4.938-5.246 2.798.423 4.822 3.161 4.938 5.247zm1.542-1.853c-1.308.483-2.158-1.874-3.086-2.777 1.934.023 2.586 1.325 3.086 2.777zm2.779-2.158c-.845.288-1.317.946-2.161 1.234-.382-.648-.855-1.202-1.235-1.853 1.145.193 3.177-.5 3.396.619zm16.97-.308c-3.818-.708-6.906-2.147-9.874-3.704 3.785-.584 8.065 2.342 9.875 3.704zm10.803 4.936c-2.016-.15-5.37-1.623-7.098-3.086 2.984.41 5.249 1.54 7.098 3.086zm1.235-2.159c-.163.455-.459.777-.617 1.233-2.154-.729-3.912-1.849-5.556-3.086 2.8-.124 5.188.161 6.173 1.853zm.924-2.16c-.041.573-.203 1.03-.617 1.233-.306-.826-1.88-.382-1.852-1.542 1.061-.135 1.729.121 2.469.309zm.925-6.79c-1.092-.655-2.474-1.022-3.394-1.853 1.453.1 3.336 1.386 3.394 1.854zm-3.701-10.491c.964 1.092.864 3.249 1.541 4.626-1.588-.268-2.017-3.321-1.541-4.626zm-.31 4.626c.26.668.8 1.054.617 2.162-.804.089-1.79-2.248-.618-2.162zm2.469 6.791c-1.31-1.159-3.575-1.363-4.938-2.47 1.852-.354 4.862 1.19 4.938 2.47zm-16.047-2.16c3.852.161 6.044 1.98 8.95 3.084-3.555-.456-5.955-2.067-8.95-3.084zm13.888 7.096c-2.97.404-5.313-1.673-7.716-2.777 2.841-.384 5.695 1.368 7.716 2.777zm2.468-.616c-2.45-.123-3.733-1.408-5.556-2.161 2.653-.08 3.876 1.269 5.556 2.161zm-8.641-6.79c2.892.503 4.836 1.954 7.097 3.087-2.35-1.044-5.05-1.74-7.097-3.086zm4.938 3.394c-3.312-.596-5.822-1.995-8.64-3.084 4.076-.17 5.783 2.03 8.64 3.084zm-7.716-16.173c.334 1.517.828 3.252.927 4.585h-2.161c-.527-1.333-1.03-2.587-1.235-4.235 1.061.135 1.73-.164 2.47-.35zm-3.085-2.032c1.067.27 2.025.648 2.468 1.542h-2.159c.126-.742-.565-.67-.309-1.542zm.927 6.789c-2.238.276-2.128-3.42-1.852-4.63 1.401.76 1.272 3.049 1.852 4.63zm-3.087-8.024c1.173-.03 2.043 1.848 1.235 2.777-.872-.464-.959-1.717-1.235-2.777zm-.617 2.16c-1.746-.064-3.2-3.505-1.851-4.628 1.18.779 2.744 2.8 1.85 4.628zm.617.927c.257 1.594.819 2.885.925 4.628-1.13.102-1.713-.342-2.469-.616-.041-2.3-1.715-5.846 1.544-4.012zm7.097 4.765c-.204-1.333-1.336-2.97-.617-4.012 1.497.56 1.981 1.345 2.16 4.012zm1.851 1.333c.27 1.334.8 3.455 1.235 5.282-10.235-.512-23.695 1.888-30.858-2.598 7.767-.285 14.332-3.445 21.91-2.905.638 1.419.65 3.477 1.541 4.644.563-1.795-1.647-3.737 0-4.6 1.696.156.508 3.256 2.161 3.453-.202-1.133-.6-1.942-.616-3.276h2.159c.37 1.334.484 2.552 1.235 3.24.329-1.437-.807-3.24 0-3.24zm2.16-.544c-.18-1.066-1.543-2.554-.925-3.396.698.55 1.504 2.596.925 3.396zm1.853 5.246c-.398.425-1.341.305-2.161.308.199-1.911-1.797-4.695-.617-5.554 1.286 1.388 2.593 2.754 2.778 5.246zm5.246 11.109c.093.719.658 1.33-.31 1.544-.42-.393-.476-1.512.31-1.544zm-3.704-4.628c1.83.123 3.018.89 4.012 1.85-1.114.286-3.079-.955-4.012-1.85zm-7.406 4.628c-.534.539-1.908.341-2.16-.31.639.186 2.027-.38 2.16.31zm-8.33-5.245c4.989.356 8.614 2.08 12.033 4.012-3.792.697-8.579-2.379-12.033-4.012zm-7.1-.208c.192.734 1.346.309.928 1.642h-6.79c-1.961-2.666-4.786-4.06-6.48-6.89-.325-.018-.244-.191.308-.104 4.86 2.604 14.698 2.28 19.134 1.85 1.208 2.083 4.689 1.886 6.478 3.387-2.985.21-4.425-1.143-6.789-1.555-2.481 2.354-6.265-1.976-7.713-.644.437.899 1.826.796 2.776 1.183-.19 1.348-1.37.681-1.852 1.13zm-17.898 3.293c-.338-1.205 1.838-1.236 1.852-.308-.728-.008-.909.53-1.852.308zm7.716 7.097c-2.865-1.249-4.644-3.585-6.172-6.17 2.914-.151 5.708 3.881 6.172 6.17zm3.086-8.33c-5.331.082-5.951-6.188-9.567-6.79 1.236 2.182 5.236 4.811 4.936 6.48-3.199-2.045-5.208-5.284-7.713-8.024 7.866-.974 8.76 5.024 12.344 8.334zm37.03 13.268c.703.697-.21 1.357-.617 1.85.185-.634-.499-2.142.617-1.85zm0-44.128c-.82-.107-1.042-.81-1.234-1.543.909.055 2.03.71 1.234 1.543zm2.16 74.061c.69.81 1.299 4.639-.309 4.937-.004-1.368-1.035-4.18.31-4.937zm1.543 26.537c.4 1.466 1.15 1.584.617 3.396-1.297.079-2.518-3.14-.617-3.396zm.925 7.715c-.093 1.039.412 2.676-.925 2.47.095-1.037-.413-2.676.925-2.47zm-.308-12.537h-1.542c-.219-1.334.948-1.334.616-2.667h.926c.714 0 .095 2.667 0 2.667zm-2.16-26.344c-.289-2.212.342-4.908.308-5.863 1.195-.165 1.271.788 2.16.927-.22 1.732.724 4.633-1.234 4.628-.187-.739.388-2.239-.308-2.47-.144 1.091.504 2.975-.926 2.778zm1.234 2.344h.926c.455 1.333 1.65 5.852-.617 6.172.11-2.272-.08-3.506-.31-6.172zm.926-13.619c.119-2.896-.045-5.048-.617-7.715h.207c.57 1.306.921 2.667.685 4.086-.325.486-.123 1.213.404 1.51.217.124.42.188.61.206-.118.902-.489 1.628-1.289 1.913zm1.235-18.967c1.001-4.302-.51-8.732-1.235-11.109 3.371.69 3.174 8.881 1.235 11.11zm2.16-11.109h.925c-.168.448.362 1.596-.308 1.544.228-.95-.846-.595-.617-1.544zm1.233-8.948c.432-1.217-.148-3.44.927-4.012-.563 1.083.017 3.308-.927 4.012zm.31 3.084c1.324-1.04.861-3.868 2.16-4.936-.198 1.967-.591 5.368-2.16 4.936zm0 9.568c.29-1.16 2.316-2.199 3.394-1.544-1.172.473-2.049 1.243-3.394 1.544zm0 8.023c.402-1.038-.207-3.088.925-3.395.788 1.784 2.05 3.095 2.777 4.939-1.358-.39-2.546-.951-3.702-1.544zm4.937 2.469c-.02-1.42-.876-2.004-1.235-3.087 3.755-.749 6.536-4.42 10.802-2.777 2.461 5.664 9.958 6.293 13.577 10.8-9.423.063-16.456-2.263-23.144-4.936zm24.687 4.936c-2.382-.681-3.56-3.264-5.863-4.628-3.404-2.016-7.359-2.724-8.332-6.788-.685-.24-1.673-.179-1.85-.927 5.11-1.48 11.734-4.932 16.045-.617-.556.677-1.204 1.265-1.543 2.16 1.145-.397 1.147-1.941 2.776-1.85.032.791 1.207.44 1.235 1.234-1.568 2.443-5.154 4.512-5.244 7.404 2.305-2.116 3.596-5.248 6.478-6.788-.745 2.755-4.588 4.048-4.628 6.48 2-1.01 4.095-5.121 5.554-4.628.656 1.895-2.666 2.472-2.467 4.936 1.973-.424 2.08-3.901 4.32-3.084.93.913-2.019 1.745-.927 2.776 1.296-.247 1.434-1.652 2.779-1.85 3.896 2.375 8.072 4.474 12.65 6.17-6.63 1.384-13.997.093-20.983 0zm8.95-6.79c1.664-2.449 3.586-4.64 5.862-6.48-.274 1.578-2.079 1.626-2.159 3.397 1.419-.536 1.888-2.022 3.393-2.47 3.24 3.447 6.284 7.09 12.035 8.023-4.47 7.51-13.713-.096-19.13-2.47zm20.058 1.545c-6.071-.822-9.451-4.334-12.654-8.024 1.574-2.92 5.367-.484 8.643 0 3.61.534 6.841.714 9.565 0-1.284 3.242-3.002 6.049-5.554 8.024zm5.862-8.948c-5.272.965-11.829.042-16.046-1.854 4.02-2.562 12.8-.364 17.281-2.469-.09 1.764-.608 3.096-1.235 4.323zm-16.356-2.47c-.726.095-.573 1.071-1.542.924-.474-1.118 1.132-1.708 1.542-.924zm-1.85 1.852c-.716.208-.826 1.024-1.543 1.235-.056-.801.865-2.188 1.543-1.235zm19.749-5.246c-4.35.561-10.525 2.329-15.121.617-.712.317-.995 1.061-2.16.924-.57-.69 2.456-2.05 1.544-3.084-2.108.67-2.231 3.324-4.939 3.395.143-1.307 3.561-3.632 3.704-4.938-3.364 1.471-4.059 5.61-8.332 6.171 1.688-2.733 4.235-4.61 5.863-7.405 6.041-.091 15.982-1.647 19.749 1.542.096 1.124-.048 2.008-.308 2.778zm-20.367-4.012c-2.934 2.31-4.372 6.118-8.024 7.716.574-2.208 4.104-4.124 5.248-6.79-3.926 1.627-4.185 6.926-9.568 7.096 2.118-3.129 4.828-5.664 7.407-8.33 1.548.2 3.901-.406 4.937.308zm-4.628-2.778c-2.09.22-4.27-.994-6.481-1.233-5.144-.559-10.573-.676-14.813-2.161.089-1.866.784-3.126.928-4.938 1.066-.681 2.634-.86 3.702-1.542 3.143 1.989 9.323-.075 13.268 1.542 1.202.492 1.794 1.598 2.779 1.852 3.523.912 6.773-.332 10.183.308-3.318 1.571-5.122 5.704-9.566 6.172zm10.492-7.405c-3.226-.008-6.649-.163-11.109-.31-2.348-3.618-10.383-1.55-14.812-3.085 3.361-1.369 4.78-4.682 8.948-5.246.536.656-1.516 1.349-1.235 2.777 1.423-1.05 2.454-4.125 4.938-3.085-1.504 1.272-3.419 2.134-4.012 4.32 2.004-1.394 3.886-2.904 5.556-4.63 6.889-2.066 12.826-2.314 20.366-.617-2.896 3.276-5.476 6.87-8.64 9.876zm9.258-11.417c-7.124-.596-14.564-1.322-18.824.616 4.674-3.451 8.746-7.506 13.886-10.492-3.238 3.653-8.249 5.534-11.109 9.566 6.8-3.384 10.357-10.009 20.057-10.492-.4 4.536-2.284 7.59-4.01 10.802zm4.232-11.419c-2.21.124-6.127.968-8.558.308 1.53-1.456 4.799-2.801 5.24-4.319-3.413.804-5.232 4.856-8.65 4.628 1.773-1.316 4.918-2.874 5.533-4.321-2.55 1.256-4.313 3.341-6.832 4.63 1.717-4.56 7.483-6.63 9.484-9.875-3.047 1.685-5.524 4.09-8.19 6.173v-2.777c4-3.286 8.958-4.582 14.67-5.556-.37 4.257-2.208 6.966-2.697 11.109zm2.865-12.035c-4.53.822-9.564 2.778-12.961 3.704 3.448-4.061 6.585-8.434 11.109-11.418 1.752 1.437 2.15 4.229 1.852 7.714zm-34.563 23.762c6.243-6.308 11.966-14.779 20.06-18.208-6.86 5.692-13.081 13.664-20.06 18.208zm0 1.233c3.119-.379 3.316-3.679 6.482-4.01-1.598 1.695-3.455 4.77-6.482 4.01zm19.443-10.492c-2.503 1.703-4.747 3.41-7.099 5.247-2.213 1.729-4.218 4.62-7.713 4.938 1.93-3.521 7.023-6.552 11.725-8.333.584-.865 1.748-2.765 3.087-1.852zm-1.853-1.541c-.808 1.866-3.178 3.808-4.938 3.701 1.766-.913 3.45-3.54 4.938-3.701zm-4.938 2.777c-2.358 2.072-4.65 4.356-7.097 4.319 4.71-3.93 8.997-9.93 13.888-12.652-.476 4.208-4.028 5.909-6.79 8.333zm18.824-24.688c-3.446 3.196-6.538 6.803-9.257 10.184-4.095 5.093-11.525 8.076-15.43 12.961-2.611 3.27-4.898 6.503-7.713 9.566.003.406.54.282.618.617-3.374 3.417-6.915 6.665-12.038 8.332.139-1.51.636-2.657.618-4.321 1.529-.632 3.113-1.207 4.32-2.16 1.436 1.437 4.958 1.06 5.554-.926-.901-.6-2.39.346-3.085.926-1.27.244-.58-1.476-1.852-1.235-3.996 1.53-7.219 2.999-9.565 5.555-.023-.976 1.248-2.43 0-2.778-.258 2.726-1.466 4.5-3.703 5.247-.383-1.325 1.2-2.272.31-3.085-1.167 1.205-1.175 5.197-3.395 4.32.624-1.124.749-2.748 1.233-4.012 6.26-2.618 11.615-6.731 16.972-10.492 5.29-3.712 10.899-7.57 15.43-12.035 6.153-6.064 10.998-13.517 18.515-18.207.846.492 1.523 1.151 2.468 1.543zm-54.312 40.425c-.65 1.616-1.192 4.971-3.085 4.32.328-.616 1.315-2.161.617-2.777-1.318.841-.649 3.67-2.468 4.012-.322-3.616 2.89-5.336 4.936-5.555zm-8.33 11.727c.724-1.437.428-3.892 1.852-4.63-.311 1.853-.092 4.23-1.852 4.63zm-1.852 5.245c1.112-.032 2.048-1.845 3.086-.925-1.201-.056-2.232 1.659-3.086.925zm.926 1.543c1.079-1.416 3.559-3.2 5.246-2.16-1.951.517-3.555 1.383-5.246 2.16zm3.086-.308c.994-.532 3.632-2.136 5.553-1.852-1.588.584-2.183.728-3.393 1.235-2.235.933-4.666 1.958-2.16.617zm.617.924c3.155-.343 4.999-3.636 8.641-2.468-3.189.313-5.71 2.928-8.641 2.468zm-3.703 3.396c1.947-.219 3.363-2.596 5.555-1.543-2.135.031-3.52 2.439-5.555 1.543zm0 3.085c-.069-.238-.009-.608-.309-.616-.016-1.149 1.373-.89 2.47-.925-.123 1.11-1.529.94-2.16 1.541zm1.234 2.162c-.132-.588-.666-.776-.616-1.543 1.188-1.081 3.993-2.173 6.17-1.235-2.053.724-3.326 2.227-5.554 2.778zm7.716-2.162c-1.66 1.254-5.511 3.502-7.099 2.778 2.255-1.038 4.108-2.475 7.099-2.778zm13.577-5.246c-3.361.858-6.601 3.478-10.183 3.088 3.256-.892 6.543-4.583 10.183-3.088zm-12.344.618c-2.752.428-5.108 3.515-7.715 2.159 2.348-.745 5.271-3.475 7.715-2.159zm-2.779-1.853c3.254-.35 5.506-3.337 8.951-2.468-3.364.239-5.779 3.067-8.95 2.468zm-4.009-7.404c-.357.776-.147 2.116-1.235 2.159-.008-1.139.138-2.124 1.235-2.159zm-.31-1.235c.33-1.728.205-3.91 1.853-4.321-.436 1.623-.483 3.633-1.852 4.321zm2.16-1.852c.315-1.332.222-3.07 1.543-3.394-.417 1.228-.612 2.678-1.542 3.394zm1.853.31c-.547 1.613-1.015 3.305-1.235 5.245-.82-.003-1.763.116-2.16-.31.25-2.325 1.676-5.107 3.395-4.935zm2.469-1.407h-1.545c.209-1.333.654-3.667 2.469-4.012-.081 1.564-.527 2.679-.924 4.012zm16.353 2.947c4.179.878 8.702-.294 11.42 1.54-7.674 3.862-20.578 1.785-30.86 2.156.944-1.627.148-5.004 2.159-5.563 1.599.372-.541 2.564.617 3.376.192-1.148.736-1.79.927-3.123h2.161c.212 1.334-.944 2.776-.309 3.431 1.199-.653.177-3.49 2.16-3.357 1.117 1.238-1.193 3.312 0 4.628.312-1.642.772-3.136 1.235-4.628 3.79-1.495 6.996.804 10.49 1.54zm-9.257-10.49c-.33 1.11-.29 2.588-1.541 2.778-.079-1.52.273-2.607 1.541-2.778zm-.925 3.395c-.474 1.788.285 4.81-2.16 4.628.658-1.604.322-4.204 2.16-4.628zm-1.851-.172c-.205 1.647-.708 2.987-1.235 4.32h-2.161c.495-1.333-.016-5.523 3.396-4.32zm-1.852-.755c.779-.453 1.377-1.089 2.47-1.233.254.872-.437.799-.31 1.543-.639-.184-2.027.381-2.16-.31zm4.937-.308c-.021-2.49.779-4.158 2.776-4.629-.145 2.321-.509 4.428-2.776 4.63zm1.852.308c-.036 1.714-.657 2.84-.617 4.63-.755.273-1.339.718-2.47.617.107-1.744.669-3.035.926-4.63.875-.05 1.287-.566 2.161-.617zm12.651 22.836c-.424-.706-1.537-.725-1.852-1.542.55-.395 2.881-.595 3.395 0-.812.214-.652 1.405-1.543 1.542zm.927.927c.336-1.317 1.613-3.315 3.086-2.47-1.2.533-1.741 3.08-3.086 2.47zm1.542 1.85c.118-2.083 2.14-4.823 4.938-5.245-1.375 2.019-2.956 3.832-4.938 5.244zm7.099-5.862c.393-.423 1.456-.423 1.852 0 .167 1.237-1.792.46-1.852 0zm.307 2.159c-2.135 1.774-3.206 4.613-6.172 5.556.278-1.963 3.966-7.523 6.172-5.556zm-15.43-7.386c-1.932-.329-5.325 2.991-8.022.943-1.939.432-4.212 2.199-6.48 1.272 2.44-.852 5.13-1.373 6.789-3.008 3.541.847 14.857.144 19.44-1.39-2.115 2.513-4.667 4.734-6.79 7.4h-6.789c-.501-2.666 1.075-1.287.928-2.463-.878.386-1.568-.263-1.852-1.231.946-.493 2.696-.165 2.776-1.523zm-14.193 8.004c-.673.163-1.996.746-2.16-.309.637.183 2.025-.383 2.16.31zm-5.864-1.542c3.705-1.232 7.527-3.995 12.035-3.395-3.92.917-7.746 4.86-12.035 3.395zm-1.543-20.676c-1.004.848-.31 3.392-1.852 3.702-.256-.804.934-1.692 0-2.16-.633.612-.721 3.378-1.85 2.47.488-1.884 1.698-4.674 3.702-4.012zm-3.702 1.234c-.151.892-.487 3.198-.927 2.778.532-1.428-.859-2.043.927-2.778zm-3.395-3.394c.039 5.593-1.065 10.044-3.395 13.268.522-2.048 1.518-3.624 2.16-5.554-.841-.028-.621.514-1.234 0 .202-4.026-.81-6.833-.926-8.949 2.267-.728 2.215 3.697 3.395 1.235zm-2.47-12.962c.074.57 1 2.791-.307 2.778.533-1.178-1.144-2.646.308-2.778zm1.543 2.16c-1.457-1.628-1.438-4.734-2.777-6.48 2.483.603 2.704 3.468 2.777 6.48zm-3.085 30.55c1.07 1.4 1.241 3.697 1.235 6.173-1.34-.765-1.942-5.399-1.235-6.173zm-.617 4.938c.209 1.128.43 2.244.308 3.704-.244 1.586-.759-4.597-.308-3.704zm0-42.584c-.63.09-.606.835-1.235.924-.045-.765-.057-1.497.617-1.542.004.408.54.282.618.618zm-1.235 61.099c.75.467 1.113 3.619 0 4.012.27-1.415-.407-3.483 0-4.012zm6.172-53.385c1.348-.364 1.348 2.834 0 2.469.307-1.208-.681-1.792 0-2.47zm-11.417-.308c-1.068-.246-1.303.341-1.852.616-.539-1.444 1.73-1.655 1.852-.616zm-68.199 23.452c-.67 8.848 3.803 15.086 7.715 20.368 6.648 7.352 20.686 6.108 34.561 5.245 10.653-.664 19.543-4.493 25.923-8.024.705 1.66.012 4.719.617 6.48.707.632 1.283 1.39 2.468 1.544-2.796 2.356-3.344 9.395-.617 12.343-2.054 2.142-2.659 10.232.926 11.109-2.22 1.903-3.316 8.192-.309 10.184-1.959 1.721-2.215 7.825-.308 9.875-2.007 2.686-.023 6.48 1.233 8.64-.182 1.057-1.172 1.905-1.233 3.086-.059 1.127 1.177 1.842 1.233 3.086.052 1.121-1.256 2.41-1.233 3.394.03 1.443 1.233 2.06 1.543 3.394.109.47-.372 1.414-.31 2.47.054.894.934 1.87.927 2.467-.013 1.256-.708 4.11-.927 4.63-.985 2.365-3.205 2.146-5.553 4.32 3.605 2.98 6.543-1.873 8.948-3.085 1.493 2.435 3.841 5.594 7.715 4.628-1.092-1.867-3.158-1.656-4.32-3.394-2.395-3.581-2.439-11.355-2.468-18.207-.007-1.583.753-2.845.617-4.321-.099-1.05-.907-2.115-.927-3.084-.053-2.674 2.814-5.322 0-7.408 2.298-2.094 3.442-7.112.618-9.566-.735.598.932 3.828-.618 4.32-.413-.061-.574-1.28-.617 0-1.403-.196-1.016-1.39-.925-2.469.082-.959.673-.143.925-.616.299-.559-.457-.944-.308-1.235.493-.952 1.701-1.556 2.16-2.777 1.223-3.255.768-6.375-.925-9.257 1.389-2.675 2.429-7.594-.31-9.567 1.006-2.363 2.538-4.2 2.778-7.328a7.07 7.07 0 00.326-1.433 7.912 7.912 0 00-1.062-4.851c.944-2.19 2.268-4.345 2.278-7.372 5.967 3.89 15.086 7.613 25.612 8.333 3.12.212 6.166-.194 9.259 0 10.143.63 20.361 1.127 25.613-5.246 3.912-5.282 8.384-11.519 7.715-20.368-4.063-4.524-15.237-2.344-22.836-2.47 6.883-6.238 18.07-14.121 21.292-26.845.38-1.5.015-2.879.31-4.32 1.085-5.305 4.593-9.97 3.086-16.664-.543-2.4-4.825-6.841-6.79-7.099-3.126-.409-7.554 4.351-9.258 6.172-3.945 4.224-7.415 8.868-11.725 12.962-11.986 11.376-26.71 19.652-41.351 28.081.153-2.325-.061-6.644-2.777-7.097 3.496-1.123 8.128-6.73 1.542-7.715 3.011-4.139 17.724-5.96 11.108-15.12-3.33.025-2.421 4.5-1.541 6.48-3.03 2.319-6.567 4.13-9.567 6.481-.034-3.382-2.968-6.202-7.406-6.173-1.595.977-1.23 3.913-1.234 6.48-3.153-1.579-7.501-4.635-9.876-8.023 2.291-.67 2.775-5.853 0-5.864-1.274-.004-2.446 2.642-2.468 3.703-.1 4.965 6.763 8.285 9.875 10.184-.712.727-2.907-.025-3.701.617-3.396 4.424 1.934 8.595 5.553 9.875-1.13 1.648-2.095 3.461-2.47 5.864-14.354-6.75-29.818-16.399-42.275-27.773-4.548-4.152-8.218-9.183-12.035-13.27-1.423-1.521-6.193-6.094-8.332-6.172-2.25-.08-3.295 2.116-5.247 2.162-.789 1.678-1.588 3.348-2.468 4.937-1.24 6.297 2.135 11.736 3.086 16.353.312 1.52-.055 3.186.308 4.631 3.158 12.559 13.14 19.632 21.601 26.847-7.707.166-18.995-2.104-23.144 2.468" fill="#381400" transform="matrix(.35142 0 0 .35142 -100.861 234.296)"/></g><use xlink:href="#a" transform="translate(214.386 -329.416)" width="100%" height="100%"/><use xlink:href="#a" transform="translate(.683 -41.002)" width="100%" height="100%"/><use xlink:href="#a" transform="translate(47.153 -37.585)" width="100%" height="100%"/><use xlink:href="#a" transform="translate(80.638 2.05)" width="100%" height="100%"/><use xlink:href="#a" transform="translate(86.788 -38.269)" width="100%" height="100%"/><use xlink:href="#a" transform="translate(33.485 -66.287)" width="100%" height="100%"/><use xlink:href="#a" transform="translate(1.367 -334.852)" width="100%" height="100%"/><use xlink:href="#a" transform="translate(45.786 -331.435)" width="100%" height="100%"/><use xlink:href="#a" transform="translate(6.834 -284.282)" width="100%" height="100%"/><use xlink:href="#a" transform="translate(95.672 -330.068)" width="100%" height="100%"/><use xlink:href="#a" transform="translate(33.485 -304.1)" width="100%" height="100%"/><use xlink:href="#a" transform="translate(88.155 -292.483)" width="100%" height="100%"/><use xlink:href="#a" transform="translate(62.87 -269.932)" width="100%" height="100%"/><use x="0" y="0" xlink:href="#a" id="b" transform="translate(47.836 1.367)" width="100%" height="100%"/><use xlink:href="#b" transform="translate(207.062 -331.435)" width="100%" height="100%"/><use xlink:href="#b" transform="translate(250.797 -330.068)" width="100%" height="100%"/><use xlink:href="#b" transform="translate(153.075 -286.333)" width="100%" height="100%"/><use xlink:href="#b" transform="translate(196.128 -289.066)" width="100%" height="100%"/><use xlink:href="#a" transform="translate(289.75 -289.066)" width="100%" height="100%"/><use xlink:href="#a" transform="translate(329.385 -290.433)" width="100%" height="100%"/><use xlink:href="#a" transform="translate(205.011 -2.733)" width="100%" height="100%"/><use xlink:href="#a" transform="translate(256.264 -4.1)" width="100%" height="100%"/><use xlink:href="#a" transform="translate(302.05 -5.467)" width="100%" height="100%"/><use xlink:href="#a" transform="translate(194.077 -40.319)" width="100%" height="100%"/><use xlink:href="#a" transform="translate(231.663 -36.902)" width="100%" height="100%"/><use xlink:href="#a" transform="translate(276.765 -38.952)" width="100%" height="100%"/><use xlink:href="#a" transform="translate(326.651 -47.836)" width="100%" height="100%"/><use xlink:href="#a" transform="translate(519.362 -2.05)" width="100%" height="100%"/><use xlink:href="#a" transform="translate(520.729 -49.203)" width="100%" height="100%"/><use xlink:href="#a" transform="translate(471.526 -44.42)" width="100%" height="100%"/><use xlink:href="#a" transform="translate(519.362 -88.838)" width="100%" height="100%"/><use xlink:href="#a" transform="translate(469.476 -92.938)" width="100%" height="100%"/><use xlink:href="#a" transform="translate(434.624 -2.733)" width="100%" height="100%"/><use xlink:href="#a" transform="translate(474.26 -5.467)" width="100%" height="100%"/><use xlink:href="#a" transform="translate(442.141 -341.686)" width="100%" height="100%"/><use xlink:href="#a" transform="translate(490.66 -338.952)" width="100%" height="100%"/><use xlink:href="#a" transform="translate(524.146 -338.952)" width="100%" height="100%"/><use xlink:href="#a" transform="translate(526.196 -295.9)" width="100%" height="100%"/><use xlink:href="#a" transform="translate(525.513 -252.164)" width="100%" height="100%"/><use xlink:href="#a" transform="translate(465.376 -308.884)" width="100%" height="100%"/><use xlink:href="#a" transform="translate(486.56 -276.765)" width="100%" height="100%"/><use xlink:href="#a" transform="translate(213.212 -195.444)" width="100%" height="100%"/><use xlink:href="#a" transform="translate(261.731 -203.645)" width="100%" height="100%"/><use xlink:href="#a" transform="translate(182.46 -163.326)" width="100%" height="100%"/><use xlink:href="#a" transform="translate(245.33 -158.542)" width="100%" height="100%"/><use xlink:href="#a" transform="translate(313.667 -189.977)" width="100%" height="100%"/><use xlink:href="#a" transform="translate(299.317 -155.809)" width="100%" height="100%"/><use xlink:href="#a" transform="translate(345.786 -166.743)" width="100%" height="100%"/></svg>