<svg xmlns="http://www.w3.org/2000/svg" xmlns:xlink="http://www.w3.org/1999/xlink" height="420" width="600"><use xlink:href="#a" transform="translate(460.592 -308.2)" width="100%" height="100%"/><use xlink:href="#a" transform="matrix(.73502 0 0 .73502 4.063 13.143)" width="100%" height="100%" stroke-width="1.361"/><use xlink:href="#a" transform="matrix(.73502 0 0 .73502 20.639 12.138)" width="100%" height="100%" stroke-width="1.361"/><use xlink:href="#a" transform="matrix(.73502 0 0 .73502 37.717 12.138)" width="100%" height="100%" stroke-width="1.361"/><use xlink:href="#a" transform="matrix(.73502 0 0 .73502 58.813 13.143)" width="100%" height="100%" stroke-width="1.361"/><g id="a" stroke-width=".247"><path d="M225.412 527.29c.592.86 1.655 1.1 2.112 2.14-1.444.6-2.528-2.585-2.112-2.14M230.528 531.447c-1.063 1.414-2.353 2.658-4.737 3.074 1.357-.94 3.848-3.524 4.737-3.074M223.961 534.464c-.468-.67-.933-1.345-1.216-2.261 1.283-.615 1.391 2.125 1.216 2.261M231.07 519.845c1.582.967 3.891 2.838 6.023 1.91-.726-.892-.914-.64.512-.676-.516-1.26-.129-.982.016-2.124-.358-.16-1.681-.783-1.057-1.071 1.199.407 2.88.445 3.643 2.233-.871 5.056-8.519 2.079-9.136-.272M190.435 526.6c-1.518.41-4.556-1.924-4.696-3.303 1.258 1.501 3.233 2.063 4.696 3.303M224.232 525.325c-.892-.574-2.59.514-2.516 1.559.25.488 1.41-.217 1.57.393-.906.203-1.251.83-1.962 1.178-.22-1.935-1.125-2.97-1.287-4.983 1.235-.486 2.026-1.305 3.748-1.419-.041 1.13.708 3.024.447 3.272M227.157 520.077c.796.599 2.972 1.226 2.707 2.055.15-.512-1.468-.29-1.19.163.174.398 1.805.614 1.054 1.068-.097-.338-.515-.258-.932-.175-.639 1.74-.025 3.69 1.244 4.684.028-1.476 1.063-3.362.285-4.588 1.759.384 4.906.796 5.13 2.028-.419-.872-.75.45-1.15.463-.058-.744-.142-1.453-.798-1.41-.29.494-.204 1.271-.691 1.614-.243-.503.121-1.799-.544-1.748-.572 1.008-.256.27-.932-.176-.784 1.094-.78 2.789-.923 4.373-3.106-.185-6.637-5.97-3.26-8.35M203.888 522.945c1.39-.301 2.305 1.15 3.859 1.598-.11.891-.239 1.774-.908 2.247-1.155-.138-4.002-.937-4.506.31 1.074.812 2.775.796 4.631.583.208 2.232-3.339-.588-3.75 1.42 2.889 1.276-.993-.293-.989 1.65 1.243.59 3.68-.394 4.628.586-1.105.69-4.176-.42-5.658.769.621.73-.056 1.161.84 1.707-.791.021-1.267.283-1.068 1.054.733.682 4.069-.222 3.989.364-.977.148-2.121.169-1.96 1.18-1.57-.045-2.967-.313-4.332-.622-.452-3.984 3.139-12.398 5.224-12.846M195.713 531.947c-.045-1.549.388-2.73 1.003-3.775-.212 1.348-.383 2.732-1.003 3.775" fill="#fff" transform="matrix(.5401 0 0 .5401 -78.979 115.65)"/><path d="M201.005 521.82c.511 2.395-2.473 5.04-2.977 7.08-.284-1.963 1.843-3.325 1.179-4.708-1.347.308-1.212 1.744-2.098 2.405-.092-1.322 1.223-2.67.406-3.692-.423.212-.692.543-1.111.755-.3 1.779-1.12 3.925-.91 2.248.097-.747 1.423-2.307.41-3.694-1.607 2.513-2.527 5.551-2.695 9.165-4.036-3.536 2.696-10.23 4.631-12.767 1.208 1.33 2.841 1.68 3.165 3.208M189.92 520.603c-.14-.87-.832-1.017-1.393-1.327-.388.239.112 1.15-.435 1.272-.317-.401-.573-.884-1.31-.73-.862.687.929 1.449.242 1.785-.187-.687-1.11-.41-1.096-1.366 3.712-1.718 4.004-6.033 8.419-7.212 1.173.794 1.554 2.636 1.841 4.6-1.343.126-.685-2.377-2.112-2.141-.325.11-.42.395-.515.68.412.979.74 2.07 1.3 2.855-1.316-.028-.866-2.372-2.409-2.1-1.413 1.403.495 3.495.096 5.144-.595-.975-.88-2.359-1.897-2.772-.84-.018-.128 1.146-.731 1.312M208.883 532.88c-.624-3.108-.903-9.705 4.089-7.837-.481 2.748 1.24 7.172.744 9.91-1.035-1.802-.213-6.043-2.127-6.69-1.61 2.702 1.975 7.44.963 9.274-1.68-1.537-.975-6.213-2.584-7.839-.812.72.29 2.891-1.085 3.182M240.707 508.219c-.246 1.857 1.597 2.8 1.125 3.79-1.157-.47-1.18-2.428-2.492-2.695-.976.233.964 1.193-.093 1.53-.615-1.534-1.547-2.65-1.586-4.939 1.48-1.102 4.099-2.757 6.688-2.126-.877 2.094-1.092 4.688-1.11 7.43-.952-.852-.964-2.944-2.532-2.99M210.101 535.139c-.068 1.26.666 1.468.664 2.64-2.124.957-2.584-3.748-2.058-3.965.028 1.24.994 2.613 1.394 1.325M228.58 530.5c-2.19 2.021-3.26 2.728-.813.716.218-.18.25-1.22.813-.716M249.573 510.955c-.401.494-.466 1.245-.312 2.162-1.554-.061-2.734-.614-3.816-1.298.039-1.128-.789-2.914-.19-3.614.432 2.24 2.882 1.828 4.318 2.75M238.448 516.11c-.723-.7-1.027-2.325-.787-3.533-.09 1.421 1.516 2.438.787 3.532M260.673 510.045c.875-1.405-.73-2.538-1.341-3.153-1.072.703-.584 3.994-1.256 4.116-.27-1.283.733-2.987-.232-3.912-.699.003-.212.904-.77 1.014-.113-.438-.046-1.114-.462-1.151-1.036-.23.03 2.48-.69 1.613-.727-2.321-1.051 1.126-1.283 1.692.214-1.227-.827-.79-1.615-.69.057 1.555-.59 2.574-.663 4.031.703 0 1.139-.2 1.448-.497.058.93-.929 1.07-1.624 1.435-3.136-3.871 2.238-7.322 4.104-9.964 4.576-.874 7.092.968 7.7 5.318-1.028-.052-2.714.762-3.316.148M256.775 521.5c.348.71.976 1.056 1.177 1.96-.856.165-1.607-1.6-1.177-1.96M258.737 526.993c2.291-.121 3.803 5.722 2.206 7.284-.847-2.281-.962-5.525-2.206-7.284zm2.354 10.6c1.773-.881 3.084-2.107 4.4-3.329-.111-3.019-.951-5.07-2.383-6.348-.561 1.227 1.125 3.552.393 5.101-1.662-.544-1.88-4.34-1.745-6.133-2.935-1.739-12.172-4.43-10.479 3.25 1.362-.175-.125-1.049.055-1.829.827-.46 1.084-.325 1.572.392.697-.536.616-1.666.864-2.545 1.316.028 1.564 1.457 1.896 2.776.792 1.005-.34-1.65.393-1.57 1.036-.257 2.759 6.92 1.772 1.883-.128-.648-.733-1.4-.622-2.343 3.073 1.582 2.266 8.07 3.884 10.695" fill="#fff" transform="matrix(.5401 0 0 .5401 -78.979 115.65)"/><path d="M257.532 542.627c-.56-3.863-2.581-8.988-6.403-9.138.748 1.483 2.982 2.862 2.991 4.144-1.501-1.001-3.081-3.605-4.952-2.964 1.25 2.219 4.632 3.5 5.021 5.683-1.921-1.332-3.241-3.461-5.457-4.412.028-1.58.51-2.819.963-4.075 4.829-1.279 14.826 8.83 7.837 10.762M251.388 506.46c-1.828-.405-2.692-2.079-3.804-3.425 2.193-.078 3.032 1.63 3.804 3.425zm5.887-3.536c-3.406-4.79-12.995-2.056-12.139 4.386 1.615.918 2.877 2.304 4.653 3.007-.656-1.948-2.596-2.202-3.542-3.764.461-1.16 1.51-.488 2.38-.324-.516-.958-1.806-.904-2.111-2.138 2.193.39 3.556 1.877 4.736 3.601 1.95-1.636 2.439-4.378 6.023-4.768M263.935 518.398c.55-2.445-1.968-3.351-3.331-4.4-.584 1.687-2.181-1.038-2.637.665.589.758 2.746 1.284 2.408 2.097-1.548-2.143-5.04-1.844-6.968.043-.04-1.17 3.173-3.1 5.505-4.091 6.397-2.71 9.772 1.01 8.244 7.068-1.223-.266-2.095-.994-3.221-1.382" fill="#fff" transform="matrix(.5401 0 0 .5401 -78.979 115.65)"/><path d="M263.5 526.343c.648-.858-1.525-3.096-.701-2.938.744.662.812 2.211 1.854 2.478.138-2.687-1.736-5.642-4.429-5.766-.497 1.568 2.01 3.84 1.628 5.24-1.257-2.097-2.107-4.72-4.387-5.469-.401 1.08-1.717.245-2.6.961.166.836.716 1.167.883 2.002-1.556.406-1.433-1.399-2.627-1.462-.889.584.903 1.958-.354 1.87-.454-1.323.265-1.756.23-2.763 3.59-3.679 14.694-.1 15.58 3.035.61 2.144-1.236 3.897-2.546 5.805-.527-1.412-1.503-2.236-2.531-2.993M218.71 524.865c-.147 1.047 1.19 1.911.367 2.682-.022-.79-.282-1.264-1.054-1.071-1.131 1.985.452 5.096.378 7.23-.926-1.009-.624-3.631-2.058-3.966-1.279 2.324 1.156 5.058 1.866 7.025-3.805-.382-2.526-7.445-3.668-11.33.935-.795 3.022-.608 4.17-.57M185.456 447.807c1.216.054 3.001 2.253 1.935 3.07-.575-1.12-1.71-1.496-1.935-3.07zm-9.043-1.803c1.291 2.283 3.212 3.739 4.726 5.728-.299-1.488-2.454-3.56-3.196-5.632 3.049.673 3.386 4.915 5.996 6.157-.972-1.354-2.886-3.144-2.775-4.778 1.885.678 2.54 2.984 3.925 4.321 1.158-1.2-2.814-2.861-2.137-4.564 1.072.121 2.69 2.547 3.587 4.061 1.133.06 1.209-.681 2.341-.62-.733-6.114-7.744-8.04-12.467-4.673M173.883 449.685c-.04.682 1.141 1.49.542 1.748-.113-.353-.357-.137-.598.08.1-.546-.598-1.702.056-1.828M174.79 447.439c1.493-1.16 2.905 2.418 3.127 2.91-.972-1.065-1.806-2.306-3.128-2.91M174.868 448.035c.279 1.698 2.98 3.714 2.656 3.885-1.481-.628-2.221-2.227-3.721-2.828.793-.02.076-1.187 1.065-1.057M183.045 485.747c-1.012.3-2.884-.058-2.898 1 .253.49 1.41-.215 1.573.393-.455.141-.117.682.12.893l-1.788.246c-.121-.894-.244-1.79-.363-2.682 1.227-.094 2.831-.682 3.356.15" fill="#fff" transform="matrix(.5401 0 0 .5401 -78.979 115.65)"/><path d="M193.372 485.855c-.227 1.429-.31 2.966-1.636 3.56-1.485-.039-1.581-1.901-3.005-2.017.892-.24 1.622.577 1.745-.54-2.932-1.76-6.227-3.048-10.692-2.79 4.705-2.343 10.036.3 13.588 1.787M188.148 492.028c1.904-.347 3.805 2.482 2.653 3.886-.99-1.16-1.94-2.362-2.653-3.886zm-8.744-1.842c-.17.937-.873 1.471-.527 2.802.54-1.452 1.982-.115 2.503.568.715-.307-.661-.719-.5-1.447 2.861.216 3.867 2.874 5.493 4.71.952-1.666-2.718-3.168-3.409-4.995 2.23-.321 6.8 1.61 6.768 5.145.919-.273.796.822 1.868.35-.123-2.405 1.55-3.447 1.313-5.942-4.137-.882-7.848-2.318-13.509-1.19M180.905 481.185c1.302-.178 3.976-.33 3.956.067-1.457.163-3.168.652-3.956-.067M192.899 506.85c.682 1.3-.392 2.18.27 4.21-1.21.337-2.592 2.744-3.41 1.68 1.825-1.033.8-2.377 1.042-3.481-3.714 1.537-5.937 4.21-8.84 6.36-.041-.88-.8-.823-.84-1.704 2.719-2.203 6.65-3.49 9.219-5.808-4.868.573-7.655 2.726-9.557 5.553.718-3.995 4.462-5.688 9.097-6.701-3.972-1.362-7.99 1.714-9.461 4.018-1.534-4.342 10.597-7.724 12.48-4.126M192.344 500.553c-.535 1.314-.556 1.679-.487 3.103-.737-.084-1.417-.242-2.425.027-.745-.89-.095-3.62-1.677-3.412-.603.165.108 1.327-.73 1.313-.036-1.127-.477-1.713-1.434-1.625.016 1.733.678 2.618.864 4.129-1.527-.336-.694-3.77-2.87-3.248-.056 1.827.784 2.48 1.124 3.79-2.372.31-1.253-3.966-3.29-4.102-1.002 1.698 1.758 4.148.652 4.767-1.142-.723-.77-3.44-2.059-3.967-.98-.055-.261 1.124-1.15.46.707-4.362 12.055-4.578 13.482-1.235M196.676 461.139c.675 1.757-.864 7-3.14 5.89.799.068 1.053-.268.772-1.018-1.077-.34-2.788.158-3.44-.743 1.164-.097 1.027-1.181 1.925-1.476-.194-.685-1.341-.112-1.612-.69.464-.093 1.039-.102.812-.718-1.972-1.455-10.769-.639-10.344 2.016 1.275-1.287 11.99-2.004 4.13-.867-.37.52-1.487.472-2.34.623-.666.475-1.75.63-2.26 1.217-.024-.789-.284-1.264-1.056-1.068-.154-4.444 15.185-6.732 16.553-3.166M185.656 469.315c.78.141 2.488-.929 2.467.269.24.821-1.212-.595-1.151.46.485 1.117.581 2.748 1.121 3.792-1.762-.255-1.309-3.427-2.437-4.521M183.156 455.4c-.047-.301-.573-.303-.596.08-.003 1.188 2.17 1.335 1.772 1.881-.98-.23-1.47-1.11-2.585-1.165-.087.495-1.546 1.283-1.704.841.202-1.05 3.397-3.517 3.113-1.637M180.756 477.868c1.857-2.17 9.24-1.428 10.372.407-2.376-.155-6.733-.74-10.372-.407zm.15-3.354c-.447 1.347-1.042 2.584-.92 4.371 4.006-1.38 8.546-.494 11.6.542.08.594.163 1.19.245 1.787.14.637-1.038.278-1.45.498.806.113.946 1.1 1.435 1.627 2.09.183 3.13-3.008 2.75-4.32-.971-3.339-10.862-4.517-13.66-4.505M182.15 472.522c-.015-1.62 1.506-3.477 3.253-2.87-1.143.887.582 2.339-.152 3.357-.338-1.078-.532-2.345-1.556-2.518-.356.44-.118 1.334-.012 2.126-.81.359-.83-.315-1.532-.095" fill="#fff" transform="matrix(.5401 0 0 .5401 -78.979 115.65)"/><path d="M188.364 464.697c-2.16.85-5.472.826-6.305 2.683.709.63.149 2.116-.395 1.568.612-.273.03-1.87-.284-2.087 1.475-1.192 4.759-2.425 6.984-2.164M236.43 512.441c-.074 1.154.56 1.375.622 2.343-4.088-.672-6.15-6.045-1.013-7.445.328 2.066 2.485 4.732.392 5.102M188.637 468.91c.695-.095 1.39-.191 2.083-.283.455 1.86.23 4.612 1.11 5.913 1.14-1.004-.233-3.913-.175-5.74 4.373-1.224 4.328 5.188 3.14 7.457-1.594-.359-2.718-1.34-4.454-1.512.239-1.833-.85-4.336-1.704-5.836M234.601 519.06c-1.718-1.015-3.316-2.192-5.25-2.923.078 1.778 2.812 1.908 2.53 2.99-1.028-.612-2.593-2.072-3.817-1.299-.099-1.23.365-2.036.825-2.842 1.54 1.611 4.999 2.55 5.712 4.074M235.333 517.75c-1.842-1.32-3.71-2.611-6.186-3.105-.328-.781.512-.677.436-1.268 1.917 1.221 4.836 2.992 5.75 4.372M187.16 453.64c.559.913 3.012 1.173 2.708 2.056-1.567-.632-2.921-1.543-5.048-1.433.132.76 1.219.265 1.353 1.03-1.082.016-1.738-.529-2.288-1.208 2.536-1.361 9.964-4.545 9.598 1.424-1.908.696-4.123-2.964-6.323-1.869M190.488 458.037c-.087-1.794 1.077-.046 2.345-.62.1-.676-.972-.834.176-.934.296.31.499.744.503 1.449-.827-.203-1.876-.11-3.024.105" fill="#fff" transform="matrix(.5401 0 0 .5401 -78.979 115.65)"/><path d="M175.063 445.856c.066-.072.14-.128.209-.196.943-1.125 2.361-1.876 3.787-2.2 1.06-.404 2.277-.453 3.413-.177.58.14 1.135.35 1.668.593 1.61.504 3.07 1.556 3.73 3.097a8.74 8.74 0 011.01 1.968c.239.662.312 1.303.23 1.906a5.99 5.99 0 011.234.162c1.116-.446 2.652.267 3.144 1.415a4.89 4.89 0 01.381 1.583c.466.99.719 2.157.723 3.425a2.36 2.36 0 01-.324 1.199c.56.43 1.072.909 1.483 1.434.341.334.605.76.756 1.278.29.698.38 1.428.206 2.157 0 .279-.045.563-.126.847-.23 1.505-.94 2.632-2.476 3.816-.071.054-.143.09-.215.137.328.304.641.647.917 1.072 1.064 1.64 1.275 3.41.846 4.992 1.096 1.136 1.861 2.49 1.941 4.039.117 2.226-1.26 3.605-3.093 4.404-.122 1.013-.528 1.993-1.144 2.882.533.97.768 2.075.521 3.27a5.727 5.727 0 01-1.281 2.637c.985 1.4 1.385 3.183.785 4.877a6.933 6.933 0 01-1.377 2.337c1.624 2.086 2.444 4.937 1.577 7.38a8.392 8.392 0 013.3 5.915 7.328 7.328 0 01-.01 1.574c1.15.656 1.77 1.773 1.987 3.093 2.427.479 3.52 2.961 3.167 5.467.075.125.144.253.204.382a4.634 4.634 0 011.92-.223 6.574 6.574 0 011.467.295c1.612.136 2.777.712 3.566 1.6a5.586 5.586 0 011.104.034c.371.048.711.132 1.042.222.293-.032.574-.037.845-.02.805-.789 1.985-1.06 3.63-.47.94-.364 1.898-.314 2.823.025.304-.186.635-.333.986-.445.432-.874 1.102-1.651 2.049-2.266 1.095-.71 2.17-.871 3.184-.682a4.435 4.435 0 011.81-1.58c.191-.362.42-.719.73-1.064.215-.24.443-.45.679-.635a5.35 5.35 0 01.452-2.6c.716-1.607 1.976-2.536 3.437-2.953.07-.13.156-.252.24-.376-.773-2.607.067-5.218 3.739-6.297a8.459 8.459 0 012.265-.323c1.347-.932 3.105-1.304 4.779-1.138.52.052.998.204 1.445.428.283.04.567.104.85.186 1.562-3.218 4.68-5.648 8.418-4.724.817.201 1.564.573 2.239 1.044 1.645.43 3.158 1.345 4.258 2.84.063.085.103.177.162.264 2.401.012 4.716 1.38 5.664 4.361.457 1.443.404 2.79-.005 3.977 2.036.983 3.493 2.747 2.998 5.087-.284 1.343-.876 2.416-1.664 3.233.935.996 1.455 2.264 1.298 3.818.548 1.226.63 2.633-.043 3.976-.6 1.199-1.627 1.752-2.795 1.94.762 1.559.816 3.376-.34 4.917-.113 1.433-.636 2.685-1.886 3.487-1.018.65-2.048.885-3.036.825.016.31.056.607.06.924.02 1.588-1.192 2.563-2.46 2.677-.732.487-1.703.603-2.731.184-3.857-1.57-11.384-8.147-5.245-12.076.125-.08.252-.126.377-.193-1.185-2.672-.956-5.517 2.184-6.944a5 5 0 01-.095-.57c-.74-1.023-.413-2.434.336-3.42-.21-.76-.142-1.627.135-2.517-1.787-.681-2.733-1.747-3.059-2.98-.42.086-.838.12-1.25.115-.064.009-.128.032-.195.037-.352 1.708-1.305 2.74-2.527 3.199-1.237 1.22-2.512 1.614-3.724 1.43.178 2.125-.561 4.006-3.088 3.873a4.983 4.983 0 01-2.285.966 2.87 2.87 0 01-.268.362c.003.361-.039.732-.133 1.112-.183.732-.656 1.485-1.328 1.894-.255.892-1.016 1.619-2.472 1.98-.03 3.13-2.768 5-5.987 5.136-.045.02-.096.028-.141.046-1.011.81-2.246 1.046-3.503.846a3.195 3.195 0 01-.937.244c-.488.839-1.332 1.526-2.66 1.947-1.462.465-2.751.066-3.815-.815a2.92 2.92 0 01-1.127.284c-.322.62-.69 1.2-1.11 1.712-1.3 1.587-3.503 1.022-4.62-.378-.163-.207-.323-.43-.48-.66-1.427 1.317-4.008.505-4.732-1.356a7.098 7.098 0 01-.208-.667 8.438 8.438 0 01-.995.69c-1.585.909-3.823.315-4.36-1.577-.236-.83-.353-1.87-.353-2.989-.352.276-.707.543-1.062.79-1.716 1.194-3.846.04-4.372-1.709-1.146-.408-1.913-1.364-1.901-3.005a2.76 2.76 0 01-1.05-.301c-1.502-.131-2.989-.955-3.995-2.277-1.044-1.373-.867-2.877-.04-4.17-.491-.644-.592-1.388-.414-2.093-4.478-1.249-6.566-7.604-3.85-11.303-1.02-.588-1.486-1.447-1.57-2.435-1.941-2.28-2.944-5.356-.11-7.344-.711-.825-1.172-1.932-1.236-3.358-.042-.935.156-1.728.518-2.404.058-.662.255-1.377.644-2.155.01-.017.019-.03.028-.048a4.08 4.08 0 01.028-1.952c-.445-1.238-.23-2.295.388-3.17-.297-1.164-.192-2.087.179-2.794-1.523-1.71-2.117-3.972-.241-6.053.272-.303.585-.543.917-.754a3.457 3.457 0 01-.172-2.001c.017-.084.048-.156.07-.236.02-.856.374-1.73.93-2.383-.108-.064-.219-.125-.324-.197-1.336-.915-1.787-2.179-1.653-3.463a3.52 3.52 0 01-.267-1.933c.221-1.463 1.115-2.93 2.357-4.217a7.175 7.175 0 01-1.134-.439c-1.166-.588-1.851-2.22-1.136-3.412.4-.667.885-1.301 1.413-1.908a8.188 8.188 0 01-5.304-1.788c-2.395-1.915-2.279-5.392-.328-7.532" fill="#d99c1a" transform="matrix(.5401 0 0 .5401 -78.979 115.65)"/><path d="M251.805 528.617c.44 1.383 1.802 1.951 3.134 1.687.028 0 .046 0 .093-.004.115-.008.23-.012.344-.019-.012.026.281.074.163-.009h.014c.095.042.192.086.287.133.032.013.141.074.235.124-.156.61.053 1.26.657 1.562.49.247 1.256.176 1.6-.3.103-.145.199-.292.296-.437 1.084-1.132 1.015-2.595.239-4.004-.887-1.612-2.998-2.297-4.743-2.088-1.633.198-2.848 1.693-2.319 3.356M254.096 519.721c1.116-.748 3.37-.723 4.383.146.625.537.936 1.685.457 2.418-.493.758-1.037 1.054-1.845 1.356-.474.179-1.119.423-1.614.387-1.064-.081-2.001-.526-2.349-1.625-.323-1.014.093-2.098.968-2.682M249.759 510.927c.078-.41.249-.752.432-1.117.437-.625.506-.734.212-.326.052-.117.116-.228.19-.33.684-1.044 1.706-1.766 2.976-1.18 1.464.68 1.71 2.65 1.07 4.091.016-.006.036-.018.053-.025 1.119-.38 2.22.484 2.32 1.604.127 1.419-1.075 2.828-2.327 3.342-.648.267-1.484.023-1.982-.426-.714-.643-.804-1.577-.459-2.425.05-.126.144-.242.22-.361-.47.08-.944.042-1.42-.195-.98-.493-1.487-1.586-1.285-2.652M245.844 508.464c.873-.755 2.437-.985 3.09.253.606 1.152.782 2.748.6 4.036-.155 1.123-1.27 1.967-2.354 2.023-1.225.065-2.093-.701-2.553-1.764-.571-1.316.164-3.64 1.217-4.548M252.139 531.336c1.269-.556 2.489.379 2.964 1.505.522 1.235-.79 2.198-1.878 2.084.195.04.182.054-.045.046a3.334 3.334 0 01-.681-.075c-.57-.103-1.011-.493-1.292-.98-.599-1.039-.114-2.121.932-2.58M232.063 519.377c.113-.112.308-.284.476-.426.144-.132.285-.267.424-.406.357-.36.685-.747 1.006-1.14.683-.84 1.628-2.061 2.739-2.276 1.228-.236 2.16.052 2.939 1.062 1.033 1.337.369 3.497-.458 4.776-.792 1.224-1.668 2.565-2.898 3.397-3.054 2.065-6.898-2.347-4.228-4.987M224.508 533.702c1.635 1.018 3.983.294 5.384-.826.73-.583 1.517-1.439 1.93-2.29.509-1.046 1.193-2.89-.102-3.78-.936-.645-1.825-.65-2.839-.142-.269.136-.517.301-.761.475-.032.041-.561.471-.743.62-.233.184-.47.365-.718.526-.075.048-.298.136-.39.179-.038-.001-.066-.004-.125-.003a4.247 4.247 0 00-1.245.213c-2.443.773-2.338 3.818-.391 5.027" fill="#a17313" transform="matrix(.5401 0 0 .5401 -78.979 115.65)"/><path d="M228.12 527.139c-.025.017-.05.03-.075.046.066-.046.082-.056.075-.046M209.456 531.735c.852-.363 1.759-.164 2.564.206-.736-.338-.22-.096.032-.05.009 0 .01.003.019.004.04-.003.077-.006.149-.006.25-.001.497-.036.745-.072.082-.012.867-.172.264-.03-.617.146 1.61-.314.73-.125.54-.115.909-.1 1.454-.053.826.072 1.403.683 1.684 1.412.166-.811 1.034-1.405 1.814-1.45.848-.046 1.58.16 2.197.754.613.59.79 1.699.123 2.339-.603.58-1.251.922-2.112.876-.772-.043-1.514-.407-1.868-1.057-.371 2.115-2.618 3.018-4.472 3.338-1.863.321-4.764-.235-5.226-2.403-.357-1.676.314-3.01 1.903-3.683M202.52 529.763c.427-.354.896-.59 1.41-.804.26-.082.52-.104.78-.1.02-.001.04-.004.087-.006.599-.03 1.048.182 1.507.527.288.217.492.604.61.934l.008.024c.114.266.198.54.216.836.012.285-.098 1.475-.026.51-.03.412-.052.757-.133 1.15a8.082 8.082 0 01-.575 1.711c-.456 1.003-1.142 1.619-2.16 2.055-1.86.798-4.085-.945-4.12-2.85-.036-1.765 1.146-2.949 2.396-3.988M192.297 528.327c.13-1.135 1.084-2.022 1.912-2.7.712-.586 1.44-.868 2.37-.964 1.481-.153 2.916 1.18 2.944 2.65.033 1.848-1.126 4.23-3.035 4.787-1.113.324-2.305.1-3.179-.684-.914-.825-1.146-1.916-1.012-3.09M186.205 521.361c.266-.53.639-.965 1.139-1.286.281-.18.584-.292.897-.375.02-.005.051-.016.114-.033.282-.083.565-.155.845-.247.832-.27 1.668-.558 2.465-.36.976.126 1.994 1.007 1.639 2.099-.007.018-.01.037-.017.056.018.357-.035.713-.228 1.048-.171.292-.331.59-.496.882-.491.877-1.016 1.616-1.84 2.216-.836.607-2.196.667-3.092.161a.656.656 0 01-.048-.027c-1.463-.826-2.156-2.578-1.378-4.134M181.232 513.243a3.62 3.62 0 01.92-.786l.1-.088c-.119.102-.115.09.037-.057.39-.385.822-.92 1.307-1.157 1.196-.583 2.272-.364 3.108.684.644.806.645 2.038.563 2.992-.104 1.197-.976 2.562-2.027 3.14-1.232.674-2.69.667-3.777-.314-1.275-1.147-1.362-3.137-.231-4.414M178.253 500.981c1.083-1.728 3.047-2.502 4.948-1.58 1.62.787 1.812 2.796.778 4.113-.295.374-.52.574-.924.91.837-.696-.198.232-.471.457-1.013.847-2.745.512-3.65-.3-.926-.834-1.383-2.474-.68-3.6M178.419 493.285c.288-1.397 1.792-2.506 3.23-2.124.448.12.907.158 1.356.259.22.05.443.075.667.092.21.035.408.11.604.19.021.003.047.006.096.017 1.235.267 2.072 1.748 1.412 2.912-.545.957-1.27 1.558-2.348 1.843-.968.257-1.915.243-2.895.042-1.458-.301-2.422-1.773-2.122-3.23M183.664 483.155c.815.152 1.621.237 2.43.43 1.531.368 3.094 1.736 2.309 3.448-.859 1.874-3.395 2.055-5.18 1.927-1.594-.115-2.992-1.033-3.084-2.777-.102-1.918 1.67-3.376 3.525-3.028M183.335 475.612c.922.227 1.833.667 2.73.988 1.07.383 2 .888 2.807 1.702.956.962.796 2.874-.7 3.25-2.063.52-4.705.224-6.668-.667-2.913-1.32-1.264-6.028 1.83-5.273M181.868 470.253c.259-1.255 1.659-2.341 2.972-1.95 1.415.42 2.865.76 4.205 1.383 1.69.787 1.396 3.29-.297 3.847-1.676.55-3.285.156-4.928-.309-1.317-.372-2.241-1.559-1.952-2.97" fill="#a17313" transform="matrix(.5401 0 0 .5401 -78.979 115.65)"/><path d="M183.225 462.423c1.275-.456 2.799-.27 4.083.02 1.732.389 4.344 2.33 2.667 4.25-.778.89-1.983.871-3.062.956-.473.039-.961.027-1.436.043-.118.003-.236.02-.354.032a2.136 2.136 0 00-.194.043c-3.473 1.013-5.11-4.12-1.704-5.344M181.31 455.045c.949-.952 3.1-1.296 4.31-.612.77.435 1.103 1.328.713 2.144-.781 1.64-3.56 2.083-4.893.948-.7-.598-.792-1.816-.13-2.48M176.148 449.596c1.124-.052 2.739.452 3.544 1.267.796.808.603 2.234-.56 2.598-1.05.328-2.741.111-3.696-.454-1.495-.886-1.185-3.323.712-3.411" fill="#a17313" transform="matrix(.5401 0 0 .5401 -78.979 115.65)"/><path d="M262.879 520.63c1.388-.48 2.644.092 3.718.97.962.784 1.683 2.172 1.308 3.417-.32 1.056-1.39 1.71-2.453 1.188-.532-.261-.964-.64-1.416-1.01l-.08-.047c-.052-.028-.08-.047-.104-.063l-.033-.008c-.442-.131-.848-.248-1.247-.483-1.61-.946-1.548-3.322.307-3.963M260.98 530.417c.23-1.097 1.337-1.833 2.437-1.6 2.29.483 3.091 3.908 1.126 5.27-.383.268-.994.311-1.403.075-1.276-.742-2.484-2.19-2.16-3.745M261.615 514.284c.193-.943.934-1.404 1.816-1.56 1.442-.255 2.686.779 3.169 2.066.457 1.215-.797 2.663-2.076 2.305-.219-.063-.444-.1-.664-.155-.12-.042-.241-.081-.363-.12-.172-.06-.342-.118-.513-.179-.503-.358-.613-.429-.328-.21-.765-.448-1.228-1.243-1.041-2.147M255.195 506.376c.373-.593.752-1.076 1.449-1.297.45-.143.979-.17 1.452-.243l.537-.095c.224-.008.447-.02.67-.037a4.624 4.624 0 011.268.057c1.068.208 1.712 1.48 1.188 2.453-.463.862-1.38 1.588-2.331 1.889-.377.12-.759.228-1.141.33-1.051.283-1.731.11-2.608-.508-.715-.504-.938-1.82-.484-2.55M247.541 503.77c.326-.84 1.103-1.36 1.8-1.886a8.994 8.994 0 011.876-1.098c.592-.254 1.2-.514 1.858-.547 1.136-.06 2.264.81 2.313 1.985.032.753-.225 1.288-.693 1.857-.124.15-.943.863-.488.47-.18.156-.359.317-.542.474-.457.392-.942.738-1.414 1.108.065-.044-.334.301-.359.326-.42.404-.81.621-1.355.812-.824.29-1.792.051-2.433-.523-.885-.799-.97-1.927-.563-2.979M237.693 506.379c.022-.034.068-.131.107-.206-.35-1.357 1.284-2.825 2.565-2.016 1.488.94 1.724 2.524 1.012 4.065-.47 1.02-1.785 1.413-2.765.92-.905-.451-1.547-1.83-.919-2.763M234.901 508.077c1.21-.925 2.874.183 2.98 1.532.103 1.31-.36 2.795-1.197 3.815-.656.801-1.89.98-2.79.53-1.018-.51-1.351-1.511-1.247-2.573.129-1.314 1.27-2.553 2.254-3.304M228.984 514.836c.216-.568.867-.876 1.428-.932l.168-.018c1.955-.194 2.325 2.63.595 3.262-.43.157-.851.156-1.292.059a1.413 1.413 0 01-1.112-1.295c-.024-.4.076-.71.213-1.076M228.016 520.57c.019-.009.037-.018.057-.025-.008.005-.017.01-.026.018.082-.024.162-.046.248-.06l-.154.013c.83-.272 1.852 0 2.074.992.3 1.345-.442 2.207-1.74 2.428-.926.156-1.762-.773-1.807-1.628-.048-.91.559-1.51 1.348-1.739" fill="#f5c560" transform="matrix(.5401 0 0 .5401 -78.979 115.65)"/><path d="M228.115 520.519l.026-.003c-.022.008-.045.02-.068.029l.042-.026M217.205 525.803c.634-.04 1.212.21 1.535.774.447.783.143 1.811-.759 2.098-.62.197-1.26-.078-1.594-.58-.835-.687-.318-2.224.818-2.292M210.79 524.873c1.22-.78 2.89-.41 3.67.808a2.67 2.67 0 01.363 1.97c-.208 1.013-.902 1.586-1.795 1.992-.835.38-1.932.03-2.584-.558-1.284-1.156-1.11-3.28.347-4.212M204.34 524.225c1.088 0 2.041.761 2.101 1.894.055 1.045-.802 2.1-1.893 2.1-1.088 0-2.041-.76-2.101-1.892-.055-1.046.802-2.102 1.893-2.102M198.275 520.081c1.501 0 2.813 1.05 2.896 2.607.076 1.44-1.106 2.896-2.607 2.896-1.5 0-2.813-1.05-2.896-2.608-.076-1.44 1.105-2.895 2.607-2.895M192.53 514.856c1.607-1.03 3.527.358 3.615 2.103.095 1.843-2.262 3.104-3.649 1.738-.385-.38-.707-.75-.875-1.28-.298-.934.075-2.029.908-2.561M190.652 507.345c1.05.23 2.121 1.343 1.723 2.5-.267.771-.778 1.372-1.654 1.419-.822.043-1.52-.48-1.793-1.239.241.67-.05-.065-.13-.281a3.577 3.577 0 01-.154-.675c-.172-1.074 1.037-1.934 2.008-1.724M187.541 500.625c-.072-1.134.958-1.848 1.998-1.715 1.413.178 2.093 1.704 1.582 2.933-.396.953-1.553 1.148-2.406.8a5.846 5.846 0 01-.123-.05c-.49-.2-.753-.648-.843-1.136a2.51 2.51 0 01-.208-.832M188.679 493.561c.494-.922 2.012-1.172 2.566-.134.279.52.422.965.239 1.548-.205.66-.675 1.168-1.404 1.206a1.527 1.527 0 01-1.524-1.052c-.179-.57-.163-1.036.123-1.568M188.735 485.432c.365-.63.793-1.017 1.484-1.268 1.218-.444 2.845.336 3.157 1.63.192.794.203 1.631-.175 2.383-.545 1.087-1.942 1.65-3.056 1.086-.414-.21-.753-.478-1.006-.874l-.227-.484c-.467-.741-.655-1.65-.177-2.473M193.143 477.305c1.216.517 1.744 2.058 1.12 3.223a1.568 1.568 0 01-2.422.457c-.498-.428-.958-.973-1.09-1.63-.296-1.458.949-2.662 2.392-2.05M192.217 471.17c-.165-.591-.248-.987.016-1.586.247-.562.918-.837 1.498-.725 1.605.31 2.048 3.01.496 3.657-.064.037-.131.067-.2.093-.012.003-.018.01-.03.014a.083.083 0 01.012-.008c-.685.25-1.552-.03-1.636-.845-.022-.06-.046-.117-.066-.179-.031-.097-.176-.73-.09-.42M193.828 460.75c.984-.334 1.896.342 2.347 1.195.676 1.28-.778 2.567-1.936 1.642.102.062.065.045-.114-.054a3.827 3.827 0 01-.489-.316c-.44-.308-.628-.71-.655-1.242a1.233 1.233 0 01.847-1.224M190.245 451.355c.779.22 1.426.686 1.791 1.421.397.799.364 1.427-.136 2.157-.316.462-1.13.451-1.5.079a14.973 14.973 0 00-1.387-1.223c-1.086-.86-.109-2.814 1.232-2.434M179.513 447.679c.566.646 1.464.776 2.276.569.114.059.534.239.598.276.141.079 1.137.69.594.305.202.156.416.292.636.419l.015.01c.008.009.02.011.03.018.02.012.034.027.054.036l-.021-.016c1.408 1.072 4.074.232 3.746-1.855-.25-1.608-1.05-2.757-2.434-3.617a8.775 8.775 0 00-3.116-1.181c-1.138-.194-2.56.298-3.016 1.461-.556 1.415-.34 2.453.638 3.575" fill="#f5c560" transform="matrix(.5401 0 0 .5401 -78.979 115.65)"/><path d="M187.39 450.877c-.574-1.12-1.709-1.496-1.934-3.07 1.216.054 3.001 2.253 1.935 3.07M191.128 478.275c-2.376-.155-6.733-.74-10.372-.407 1.857-2.17 9.24-1.428 10.372.407M190.801 495.914c-.99-1.16-1.94-2.362-2.653-3.886 1.904-.347 3.805 2.482 2.653 3.886M247.584 503.035c2.193-.078 3.032 1.63 3.804 3.425-1.828-.405-2.692-2.079-3.804-3.425M260.943 534.277c-.847-2.281-.962-5.525-2.206-7.284 2.291-.121 3.803 5.722 2.206 7.284" fill="#381400" transform="matrix(.5401 0 0 .5401 -78.979 115.65)"/><path d="M173.883 449.685c-.04.682 1.141 1.49.542 1.748-.113-.353-.357-.137-.598.08.1-.546-.598-1.702.056-1.828zm3.641 2.235c-1.481-.628-2.221-2.227-3.721-2.828.793-.02.076-1.187 1.065-1.057.279 1.698 2.98 3.714 2.656 3.885zm.393-1.57c-.972-1.066-1.806-2.307-3.128-2.911 1.494-1.16 2.906 2.418 3.128 2.91zm-1.504-4.346c4.723-3.367 11.734-1.441 12.467 4.673-1.132-.061-1.208.68-2.341.62-.898-1.514-2.515-3.94-3.587-4.061-.677 1.703 3.295 3.364 2.137 4.564-1.385-1.337-2.04-3.643-3.925-4.321-.11 1.634 1.803 3.424 2.775 4.778-2.61-1.242-2.947-5.484-5.996-6.157.742 2.072 2.897 4.144 3.196 5.632-1.514-1.99-3.435-3.445-4.726-5.728zm3.63 11.033c.202-1.05 3.397-3.517 3.113-1.637-.047-.301-.573-.303-.596.08-.003 1.188 2.17 1.335 1.772 1.881-.98-.23-1.47-1.11-2.585-1.165-.087.495-1.546 1.283-1.704.841zm.08 7.268c-.154-4.444 15.185-6.732 16.553-3.166.675 1.757-.864 7-3.14 5.89.799.068 1.053-.268.772-1.018-1.077-.34-2.788.158-3.44-.743 1.164-.097 1.027-1.181 1.925-1.476-.194-.685-1.341-.112-1.612-.69.464-.093 1.039-.102.812-.718-1.972-1.455-10.769-.639-10.344 2.016 1.275-1.287 11.99-2.004 4.13-.867-.37.52-1.487.472-2.34.623-.666.475-1.75.63-2.26 1.217-.024-.789-.284-1.264-1.056-1.068zm6.849 5.739c.485 1.117.581 2.748 1.121 3.792-1.762-.255-1.309-3.427-2.437-4.521.78.141 2.488-.929 2.467.269.24.821-1.212-.595-1.151.46zm-3.29 2.573c-.809.359-.829-.315-1.531-.095-.016-1.62 1.505-3.477 3.252-2.87-1.143.887.582 2.339-.152 3.357-.338-1.078-.532-2.345-1.556-2.518-.356.44-.118 1.334-.012 2.126zm-2.302-5.756c1.475-1.192 4.759-2.425 6.984-2.164-2.16.85-5.472.826-6.305 2.683.709.63.149 2.116-.395 1.568.612-.273.03-1.87-.284-2.087zm-.475 7.653c2.799-.012 12.69 1.166 13.66 4.506.38 1.31-.66 4.502-2.749 4.319-.49-.527-.63-1.514-1.435-1.627.412-.22 1.59.139 1.45-.498-.082-.598-.164-1.193-.244-1.787-3.055-1.036-7.595-1.922-11.6-.542-.123-1.787.472-3.024.918-4.371zm0 6.671c1.302-.178 3.976-.33 3.956.067-1.457.163-3.168.652-3.956-.067zm-1.121 2.883c4.705-2.343 10.036.3 13.588 1.787-.227 1.429-.31 2.966-1.636 3.56-1.485-.039-1.581-1.901-3.005-2.017.892-.24 1.622.577 1.745-.54-2.932-1.76-6.227-3.048-10.692-2.79zm-.095 1.53c1.227-.095 2.831-.683 3.356.149-1.012.3-2.884-.058-2.898 1 .253.49 1.41-.215 1.573.393-.455.141-.117.682.12.893l-1.788.246c-.121-.894-.244-1.79-.363-2.682zm-.285 4.588c5.661-1.127 9.372.309 13.51 1.191.235 2.495-1.437 3.537-1.314 5.943-1.072.47-.95-.624-1.868-.35.032-3.537-4.537-5.467-6.768-5.146.69 1.827 4.361 3.33 3.41 4.995-1.627-1.836-2.633-4.494-5.494-4.71-.161.728 1.215 1.14.5 1.447-.521-.683-1.963-2.02-2.503-.568-.346-1.33.356-1.865.527-2.802zm-.543 11.602c.708-4.363 12.056-4.578 13.483-1.235-.535 1.314-.556 1.679-.487 3.103-.737-.084-1.417-.242-2.425.027-.745-.89-.095-3.62-1.677-3.412-.603.165.108 1.327-.73 1.313-.036-1.127-.477-1.713-1.434-1.625.016 1.733.678 2.618.864 4.129-1.527-.336-.694-3.77-2.87-3.248-.056 1.827.784 2.48 1.124 3.79-2.372.31-1.253-3.966-3.29-4.102-1.002 1.698 1.758 4.148.652 4.767-1.142-.723-.77-3.44-2.059-3.967-.98-.055-.261 1.124-1.15.46zm14.038 5.063c.682 1.3-.392 2.178.27 4.209-1.21.337-2.592 2.744-3.41 1.68 1.825-1.033.8-2.377 1.042-3.481-3.714 1.537-5.937 4.21-8.84 6.36-.041-.88-.8-.823-.84-1.704 2.719-2.203 6.65-3.49 9.219-5.808-4.868.573-7.655 2.726-9.557 5.553.718-3.995 4.462-5.688 9.097-6.701-3.972-1.362-7.99 1.714-9.461 4.018-1.534-4.342 10.597-7.724 12.48-4.126zm-7.16 16.446c1.258 1.501 3.233 2.063 4.696 3.303-1.518.41-4.556-1.924-4.696-3.303zm4.912-4.006c-.84-.018-.128 1.146-.731 1.312-.14-.87-.832-1.017-1.393-1.327-.388.239.112 1.15-.435 1.272-.317-.401-.573-.884-1.31-.73-.862.687.929 1.449.242 1.785-.187-.687-1.11-.41-1.096-1.366 3.712-1.718 4.004-6.033 8.419-7.212 1.173.794 1.554 2.636 1.841 4.6-1.343.126-.685-2.377-2.112-2.141-.325.11-.42.395-.515.68.412.979.74 2.07 1.3 2.855-1.316-.028-.866-2.372-2.409-2.1-1.413 1.403.495 3.495.096 5.144-.595-.975-.88-2.359-1.897-2.772zm7.189-.679c1.208 1.33 2.841 1.68 3.165 3.208.511 2.395-2.473 5.04-2.977 7.08-.284-1.963 1.843-3.325 1.179-4.708-1.347.308-1.212 1.744-2.098 2.405-.092-1.322 1.223-2.67.406-3.692-.423.212-.692.543-1.111.755-.3 1.779-1.12 3.925-.91 2.248.097-.747 1.423-2.307.41-3.694-1.607 2.513-2.527 5.551-2.695 9.165-4.036-3.536 2.696-10.23 4.631-12.767zm-2.127 13.335c-.045-1.549.388-2.73 1.003-3.775-.212 1.348-.383 2.732-1.003 3.775zm8.175-9.002c1.39-.301 2.305 1.15 3.859 1.598-.11.891-.239 1.774-.908 2.247-1.155-.138-4.002-.937-4.506.31 1.074.812 2.775.796 4.631.583.208 2.232-3.339-.588-3.75 1.42 2.889 1.276-.993-.293-.989 1.65 1.243.59 3.68-.394 4.628.586-1.105.69-4.176-.42-5.658.769.621.73-.056 1.161.84 1.707-.791.021-1.267.283-1.068 1.054.733.682 4.069-.222 3.989.364-.977.148-2.121.169-1.96 1.18-1.57-.045-2.967-.313-4.332-.622-.452-3.984 3.139-12.398 5.224-12.846zm4.819 10.869c.028 1.24.994 2.613 1.394 1.325-.068 1.26.666 1.468.664 2.64-2.124.957-2.584-3.748-2.058-3.965zm1.261-4.116c-.812.72.29 2.891-1.085 3.182-.624-3.108-.903-9.705 4.089-7.837-.481 2.748 1.24 7.172.744 9.91-1.035-1.802-.213-6.043-2.127-6.69-1.61 2.702 1.975 7.44.963 9.274-1.68-1.537-.975-6.213-2.584-7.839zm4.573-4.264c.935-.794 3.022-.607 4.17-.569-.148 1.047 1.189 1.911.366 2.682-.022-.79-.282-1.264-1.054-1.071-1.131 1.985.452 5.096.378 7.23-.926-1.009-.624-3.631-2.058-3.966-1.279 2.324 1.156 5.058 1.866 7.025-3.805-.382-2.526-7.445-3.668-11.33zm5.496-1.962c1.235-.486 2.026-1.305 3.748-1.419-.041 1.13.708 3.024.447 3.272-.892-.574-2.59.514-2.516 1.559.25.488 1.41-.217 1.57.393-.906.203-1.251.83-1.962 1.178-.22-1.935-1.125-2.97-1.287-4.983zm2.708 8.73c1.283-.614 1.391 2.126 1.216 2.262-.468-.67-.933-1.345-1.216-2.261zm.879-11.34c-1.797-.88-2.593-4.173-.39-5.105.409 1.45 1.153 2.46 1.973 3.372-.838.34-.355 1.685-1.583 1.734zm1.788 6.428c.592.86 1.655 1.1 2.112 2.14-1.444.6-2.528-2.585-2.112-2.14zm.379 7.231c1.357-.94 3.848-3.524 4.737-3.074-1.063 1.414-2.353 2.658-4.737 3.074zm1.976-3.305c.218-.18.25-1.22.813-.716-2.19 2.021-3.26 2.728-.813.716zm3.573-7.161c-.784 1.094-.78 2.789-.923 4.373-3.106-.185-6.637-5.97-3.26-8.35.796.598 2.972 1.225 2.707 2.054.15-.512-1.468-.29-1.19.163.174.398 1.805.614 1.054 1.068-.097-.338-.515-.258-.932-.175-.639 1.74-.025 3.69 1.244 4.684.028-1.476 1.063-3.362.285-4.588 1.759.384 4.906.796 5.13 2.028-.419-.872-.75.45-1.15.463-.058-.744-.142-1.453-.798-1.41-.29.494-.204 1.271-.691 1.614-.243-.503.121-1.799-.544-1.748-.572 1.008-.256.27-.932-.176zm-.27-4.21c1.582.967 3.891 2.838 6.023 1.91-.726-.892-.914-.64.512-.676-.516-1.26-.129-.982.016-2.124-.358-.16-1.681-.783-1.057-1.071 1.199.407 2.88.445 3.643 2.233-.871 5.056-8.519 2.079-9.136-.272zm9.5 2.95c.769-1.373 1.083-3.092 3.845-2.951.437 2.005 1.265 3.493 2.436 4.521.701 0 .216-.904.772-1.013.488 2.03 2.349.407 3.317-.15.124 2.494-2.279 3.075-4.316 3.926-1.065-2.699-4.063-2.853-6.053-4.332zm9.125 9.07c4.829-1.279 14.826 8.83 7.837 10.762-.56-3.863-2.581-8.988-6.403-9.138.748 1.483 2.982 2.862 2.991 4.144-1.501-1.001-3.081-3.605-4.952-2.964 1.25 2.219 4.632 3.5 5.021 5.683-1.921-1.332-3.241-3.461-5.457-4.412.028-1.58.51-2.819.963-4.075zm7.512-4.967c-.111.942.494 1.695.622 2.343.987 5.038-.736-2.14-1.772-1.882-.733-.082.399 2.574-.393 1.57-.332-1.32-.58-2.749-1.896-2.777-.248.879-.167 2.01-.864 2.545-.488-.717-.745-.852-1.572-.392-.18.78 1.307 1.654-.055 1.83-1.693-7.68 7.544-4.99 10.479-3.251-.135 1.793.083 5.59 1.745 6.133.732-1.549-.954-3.874-.393-5.1 1.432 1.276 2.272 3.328 2.383 6.347-1.316 1.222-2.627 2.448-4.4 3.33-1.618-2.626-.811-9.114-3.884-10.696zm-.432-5.398c.348.71.976 1.056 1.177 1.96-.856.165-1.607-1.6-1.177-1.96zm6.725 4.843c.648-.858-1.525-3.096-.701-2.938.744.662.812 2.211 1.854 2.478.138-2.687-1.736-5.642-4.429-5.766-.497 1.568 2.01 3.84 1.628 5.24-1.257-2.097-2.107-4.72-4.387-5.469-.401 1.08-1.717.245-2.6.961.166.836.716 1.167.883 2.002-1.556.406-1.433-1.399-2.627-1.462-.889.584.903 1.958-.354 1.87-.454-1.323.265-1.756.23-2.763 3.59-3.679 14.694-.1 15.58 3.035.61 2.144-1.236 3.897-2.546 5.805-.527-1.412-1.503-2.236-2.531-2.993zm3.656-6.563c-1.223-.266-2.095-.994-3.221-1.382.55-2.445-1.968-3.351-3.331-4.4-.584 1.687-2.181-1.038-2.637.665.589.758 2.746 1.284 2.408 2.097-1.548-2.143-5.04-1.844-6.968.043-.04-1.17 3.173-3.1 5.505-4.091 6.397-2.71 9.772 1.01 8.244 7.068zm-3.167-9.883c-1.028-.052-2.714.762-3.316.148.875-1.405-.73-2.538-1.341-3.153-1.072.703-.584 3.994-1.256 4.116-.27-1.283.733-2.987-.232-3.912-.699.003-.212.904-.77 1.014-.113-.438-.046-1.114-.462-1.151-1.036-.23.03 2.48-.69 1.613-.727-2.321-1.051 1.126-1.283 1.692.214-1.227-.827-.79-1.615-.69.057 1.555-.59 2.574-.663 4.031.703 0 1.139-.2 1.448-.497.058.93-.929 1.07-1.624 1.435-3.136-3.871 2.238-7.322 4.104-9.964 4.576-.874 7.092.968 7.7 5.318zm-6.714-6.973c-3.584.39-4.074 3.132-6.023 4.768-1.18-1.724-2.543-3.212-4.736-3.601.305 1.234 1.595 1.18 2.11 2.138-.869-.164-1.918-.837-2.38.324.947 1.562 2.887 1.816 3.543 3.764-1.776-.703-3.038-2.089-4.653-3.007-.856-6.442 8.733-9.177 12.139-4.386zm-7.838 15.936c.279-1.305.502-2.648 1.342-3.521.464.326.469 1.252.582 2.041-.961.25-1.196 1.05-1.924 1.48zm2.126.009c.444 1.385-1.256 3.27-2.788 4.021 0-.71.318-1.181.014-2.125 1.51.537 1.786-1.25 2.774-1.896zm-6.308-10.664c.432 2.24 2.882 1.828 4.318 2.75-.401.494-.466 1.245-.312 2.162-1.554-.062-2.734-.615-3.816-1.299.039-1.128-.789-2.913-.19-3.613zm.285 8.756c.523 1.153 2.585 3.748 1.285 4.981-1.009-.893-.844-3.336-2.058-3.966.109-.45.365-.786.773-1.015zm-3.655-.106c.055.746.594.857.8 1.409-.34.43-1.048.53-1.49.2.037-.686.509-1.035.69-1.609zm-4.224-4.278c-.09 1.42 1.516 2.437.787 3.532-.723-.7-1.027-2.324-.787-3.532zm6.688-8.799c-.877 2.095-1.092 4.688-1.11 7.43-.952-.851-.964-2.943-2.532-2.99-.246 1.858 1.597 2.8 1.125 3.79-1.157-.47-1.18-2.427-2.492-2.695-.976.233.964 1.193-.093 1.53-.615-1.533-1.547-2.65-1.586-4.938 1.48-1.103 4.099-2.758 6.688-2.127zm-7.918 8.663c-.075 1.153.558 1.375.621 2.342-4.088-.671-6.15-6.045-1.013-7.445.328 2.067 2.485 4.732.392 5.103zm-1.098 5.308c-1.842-1.32-3.71-2.61-6.186-3.104-.328-.781.512-.677.436-1.268 1.917 1.22 4.836 2.992 5.75 4.372zm-6.444-2.763c1.54 1.61 4.999 2.55 5.712 4.073-1.718-1.014-3.316-2.191-5.25-2.922.078 1.777 2.812 1.908 2.53 2.99-1.028-.613-2.593-2.073-3.817-1.3-.099-1.23.365-2.035.825-2.841zm-34.094-38.73c-1.594-.358-2.718-1.34-4.454-1.511.239-1.833-.85-4.336-1.704-5.836.695-.095 1.39-.19 2.083-.283.455 1.86.23 4.612 1.11 5.914 1.14-1.004-.233-3.914-.175-5.74 4.373-1.224 4.328 5.188 3.14 7.457zm-1.283-18.324c-.827-.203-1.876-.11-3.024.105-.087-1.794 1.077-.046 2.345-.62.1-.676-.972-.834.176-.934.296.31.499.744.503 1.449zm-.03-2.423c-1.907.696-4.122-2.964-6.322-1.869.559.913 3.012 1.173 2.708 2.056-1.567-.632-2.921-1.543-5.048-1.433.132.76 1.219.265 1.353 1.03-1.082.016-1.738-.529-2.288-1.208 2.536-1.361 9.964-4.545 9.598 1.424zm-33.189-20.956c2.674 6.551 6.362 11.764 11.722 14.782-.56 4.625 3.048 6.741 6.713 6.972-.035 2.284-3.107 2.265-4.361 3.626-1.879.016-2.172-2.061-4.451-1.516.319 2.51 2.757 2.226 4.359 3.046 1.629-.63 2.825-1.591 4.222-2.395 1.299 4.232-.48 6.664-3.412 8.35-1.517-.46-2.001-2.28-3.938-2.191-.163 3.74 5.228 5.205 7.214 1.745.76 1.108 1.271 2.547 2.276 3.332-2.098 3.099-6.274.052-8.353 3.261 1.672 1.355 3.112-1.67 4.845-.056 1.654.012 2.262-.772 3.156-1.338.275 1.253-1.988 2.712-1.774 4.792-2.006-.778-4.224.209-6.254.852-.936-.525-.794-2.47-2.665-1.762-.27 1.312.887 2.782 1.717 3.711 2.731.001 4.295-1.91 6.811-1.233-.021 2.936.819 4.884-.26 7.01-3.664 1.12-4.256.06-7.01-.256.174 1.994 1.851 2.012 2.83 2.952.959-.784 2.797-.898 4.045-1.462 1.42 1.958-.502 3.476-.5 5.223-2.806 1.792-5.181.905-7.189.678-.101 3.387 4.527 3.085 6.836 1.19.427 1.666.175 4.218 1.028 5.322-2.368 2.085-1.277 5.221-3.912 6.904-1.783-.07-3.239-2.2-5.007-1.137.106 2.02 3.495 2.62 5.59 3.181 1.385-.284.962-1.939 2.097-2.41 2.839 2.405 2.799 8.442.61 11.138-1.789-.378-3.394-2.344-5.349-1.392 1.363 3.203 6.93 4.452 7.947.432 1.244 1.405 2.377 2.959 3.885 4.02-1.42 1.878-.09 5.497 1.49 6.472-.027 1.137-.832 1.681-1.167 2.585-1.15.066-1.868-1.765-3.1-.489 1.119 3.744 5.404 1.987 5.621-1.068 1.072.46 1.828 1.343 3.22 1.381-.084 1.823.49 3.747 2.096 4.263-.449 1.26-1.066 2.393-1.977 3.303-1.601.12-1.93-1.44-3.775-1.002-.294.4-.194 1.1-.054 1.828 1.497.022 2.393.831 3.777 1.001 2.124-.789 2.495-2.906 3.303-4.694.998.321 2.01.628 3.141.782-.012 3.41 2.528 3.462 4.779 3.9.064 1.202.757 1.58.701 2.937-1.688 1.322-2.21 3.297-4.695 3.37 1.851 4.342 4.355-1.576 6.388-2.084-.205-1.373-.265-2.93-.825-3.832 1.032-.988 2.799.054 4.464-.608.91 1.615 2.912 1.792 4.835 2.072-.499 1.479-6.504 4.307-1.354 5.644-.8-2.246 1.092-3.002 2.788-4.02.084-.74.244-1.416-.025-2.422 3.088-1.041 3.777-.636 6.89-.638.093.697.19 1.392.286 2.086-.679 1.353-2.915 1.525-2.199 3.938.44.244.968.368 1.318.73 1.088-1.262.272-2.966 2.53-3.678.026-1.557-.713-2.11-.786-3.536 1.793-1.129 4.325-1.696 6.648-2.423.746 1.009 1.482 2.029 1.976 3.374-.424.568-1.566.588-1.964 1.175.11.79.12 1.717.582 2.045 1.322-.51 1.667-1.76 3.371-1.976-.439-2.357-1.455-3.942-2.816-5.077 2.772-2.147 4.905-6.012 9.38-4.616.84.302.448 2.222 1.773 1.882.575-.932-.22-2.31-.446-3.277-1.067-.235-2.594.137-3.398-.445-.158-1.722.939-2.49.962-4.075 1.048-.092 1.896-.339 2.301-.92 1.105.772 2.34 1.368 3.345 2.273-.776.516-2.014 1.679-.828 2.843 1.503-.103 1.054-1.69 2.476-1.853.551.33.644 1.26 1.138 1.662 1.416.01 1.849-.728 2.9-.997 1.53 2.323-1.702 3.33-1.694 5.385-1.95-.482-4.365-.348-5.942-1.313-.043 3.216 3.217 2.09 5.469 2.288.353.67.223 2.92.607 4.467-2.939 3.024-6.716 6.809-5.982 11.736 2.987-2.358 3.615-6.506 7.362-8.283 1.184.081 1.525 1.273 2.369 1.797-.62 3.979-2.463 7.024-4.061 10.262 4.408-.669 6.453-5.407 7.84-9.258 1.785-.333 4.041-.309 5.318-1.03 1.686.358 1.039 3.785 2.436 4.521.747-3.47-1.333-5.676-.661-9.312.419-.661 1.641-.708 1.919-1.475 1.702.222 2.125 2.12 4.453 1.515.51 1.033-.273 2.433.368 2.682 1.299.585 1.005-1.986.744-3.437-1.356-.324-2.841-.48-3.819-1.302 2.316-2.481.052-9.362 5.16-8.894.799.121.083 2.235 1.178 1.964 1.538-.077.384-2.197.446-3.398-.74-.082-1.418-.24-2.424.028.742-2.138.512-5.16-1.705-5.835.384-.775.216-1.972.53-2.801.737-.063 1.44-.154 1.745-.542.549.328.644 1.26 1.134 1.666 1.567-.04 3.096.632 3.832-.826.003-1.406-1.73-.535-2.8-.528-1.102-.074-.552-2.317-1.558-2.519-1.228-.133-.778 1.012-2.003.88.199-2.405-1.816-4.522-3.492-5.592-.065-2.389-1.456-4.255-.516-5.993 1.295-.067 1.577 1.204 3.141.782-.1-2.092-1.982-1.839-3.344-2.275-.7.27-1.496.468-1.326 1.395-4.258-.948-6.35-4.752-10.759-5.51l-.324-2.38c.983-.03 1.761 1.368 2.761.23-.261-2.216-2.833-2.113-4.453-1.516-.244.884-.05 2.1.148 3.316-4.537-.42-6.652 6.286-10.301 2.316.142-.694 1.852-.199 1.328-1.394-.371-1.489-3.342-.486-3.915.228.02 1.612.859 2.151 1.599 2.815-1.959 1.272-3.64 2.75-5.848 3.83-1.499-.485-1.319-3.18-2.654-3.885-1.852.807.231 3.965.948 4.726.044.7-3.225 5.006-3.858 5.077-1.88.21-2.235-3.844-4.995-3.264-.524 2.516 2.412 3.333 4.183 3.979-.575 1.7-1.279 3.298-1.392 5.347-.698-1.545-1.28-3.234-1.884-4.9-2.26.68-2.914.465-5.02.986.053.984.548 1.385 1.394 1.33-.92 1.451-.582 3.867.69 5.063-.971.862-2.316 1.443-2.994 2.528-1.16-1.598.11-3.65-.134-5.441-1.174-.21-1.859-1.067-3.438-.741-.165 1.736 1.303 1.325 1.815 2.177-.276.95.007 2.321.187 3.616-.687.65-3.326.877-4.167.568a46.874 46.874 0 011.61-5.984c-1.22-1.208-2.397-2.468-4.317-2.747-.737 1.911 1.382 2.775 2.572 3.288-.433 1.63-1.293 2.932-1.138 5.01-.818.361-3.867.646-4.074-.965.331-1.527 1.482-2.431 1.894-3.896-.991-1.857-2.191-3.44-4.438-3.64.072 2.243 1.399 2.838 2.61 3.587-.396 1.12-1.212 1.924-1.379 3.22-1.064-.004-2-.18-3.317.147.038-.639-.312-.759-.46-1.15.529-1.771 2.433-3.793 1.652-5.683-1.718.385-1.904 1.933-2.275 3.342-1.735-.409-3.765-.43-4.021-2.788 1.016-1.897 4.525-1.9 5.89-3.532-1.21-1.554-5.7-.303-5.873 1.407-1.267-.328-1.89-1.498-3.005-2.017.2-.38.282-.851.092-1.528 2.312-.026 3.312-1.043 3.926-2.357 1.28-.165 1.215 1.447 2.843.826.372-1.324-1.657-2.17-2.79-2.652-1.574.314-1.737 1.704-3.031 2.23-.248-.022-.338-.255-.636-.216-.228-1.56-1.884-2.758-1.46-4.045 1.04-1.08 3.097-1.382 4.224-2.396 1.4.027 1.573 1.672 2.961 1.719.855-.687 1.95-1.188 1.761-2.667-1.832.532-2.626.079-4.373-.921-1.67.243-2.676.992-3.708 1.721-.857-2.016-2.024-2.973-.988-5.025 2.633 1.557 5.753-1.104 7.81 1.665 1.187-4.894-5.313-1.93-6.862-3.613 1.36-2.599-1.799-4.026.121-5.779 1.514.962 4.092 1.507 6.418.338.729.68.585 2.508 2.366 1.8-.312-1.46-.769-2.731-1.42-3.748-2.966 1.218-4.592.992-6.972.038-1.133-2.787.427-2.91.842-4.965 1.43.43 3.298 1.456 5.182.201 1.486-.196 1.102 2.065 2.666 1.762.698-2.444-2.562-4.964-4.618-2.708-3.97-.848-2.77-4.638-1.945-7.623 1.68.488 3.468-.557 4.683-1.243 1.438.564 1.961 2.334 3.938 2.193-.678-2.268-2.413-3.145-3.924-4.32-1.154.62-2.668 2.14-4.345 1.502-.672-.756-.585-2.508-1.597-2.813 1.194-1.674 2.625-3.167 2.542-5.81 1.902-1.758 5.676-2.092 6.323-4.801-2.308.733-4.879 1.272-5.968 2.935-.743-1.718-1.985-2.776-3.764-3.127-1.295-6.512 5.477-8.288 4.508-13.656-2.023 2.197-3.155 5.077-4.724 7.62-1.493-.496-2.593-1.505-4.453-1.517-.518-4.75-4.338-8.072-9.814-7.46-1.832-5.783-3.528-11.747-8.5-13.398 2.667 3.748 4.888 8.083 6.119 13.723-1.32 1.135-3.453 1.648-4.104 3.29-3.36-2.653-7.407-4.943-10.27-8.609-.85-1.085-1.045-3.582-3.169-3.208" fill="#381400" transform="matrix(.5401 0 0 .5401 -78.979 115.65)"/></g><use xlink:href="#a" transform="translate(17.547 -19.102)" width="100%" height="100%"/><use xlink:href="#a" transform="translate(59.453 -2.733)" width="100%" height="100%"/><use xlink:href="#a" transform="translate(43.052 -31.435)" width="100%" height="100%"/><use xlink:href="#a" transform="translate(126.135 56.167) scale(.85804)" width="100%" height="100%" stroke-width="1.165"/><use xlink:href="#a" transform="translate(133.172 22.159) scale(.85804)" width="100%" height="100%" stroke-width="1.165"/><use xlink:href="#a" transform="translate(148.417 47.372) scale(.85804)" width="100%" height="100%" stroke-width="1.165"/><use xlink:href="#a" transform="translate(167.767 25.677) scale(.85804)" width="100%" height="100%" stroke-width="1.165"/><use xlink:href="#a" transform="translate(109.408 43.36) scale(.65997)" width="100%" height="100%" stroke-width="1.515"/><use xlink:href="#a" transform="translate(108.506 10.887) scale(.65997)" width="100%" height="100%" stroke-width="1.515"/><use xlink:href="#a" transform="translate(122.938 26.672) scale(.65997)" width="100%" height="100%" stroke-width="1.515"/><use xlink:href="#a" transform="translate(142.331 42.007) scale(.65997)" width="100%" height="100%" stroke-width="1.515"/><use xlink:href="#a" transform="translate(1.367 -335.923)" width="100%" height="100%"/><use xlink:href="#a" transform="translate(54.67 -335.923)" width="100%" height="100%"/><use xlink:href="#a" transform="translate(108.656 -335.923)" width="100%" height="100%"/><use xlink:href="#a" transform="translate(159.909 -335.923)" width="100%" height="100%"/><use xlink:href="#a" transform="matrix(.7748 0 0 .7748 8.545 -194.036)" width="100%" height="100%" stroke-width="1.291"/><use xlink:href="#a" transform="matrix(.7748 0 0 .7748 44.993 -195.402)" width="100%" height="100%" stroke-width="1.291"/><use xlink:href="#a" transform="matrix(.7748 0 0 .7748 81.97 -194.72)" width="100%" height="100%" stroke-width="1.291"/><use xlink:href="#a" transform="matrix(.7748 0 0 .7748 113.702 -193.352)" width="100%" height="100%" stroke-width="1.291"/><use xlink:href="#a" transform="matrix(.54714 0 0 .54714 9.59 -61.237)" width="100%" height="100%" stroke-width="1.828"/><use xlink:href="#a" transform="matrix(.54714 0 0 .54714 31.985 -62.603)" width="100%" height="100%" stroke-width="1.828"/><use xlink:href="#a" transform="matrix(.54714 0 0 .54714 56.366 -61.237)" width="100%" height="100%" stroke-width="1.828"/><use xlink:href="#a" transform="matrix(.54714 0 0 .54714 81.494 -62.603)" width="100%" height="100%" stroke-width="1.828"/><use xlink:href="#a" transform="translate(520.729 -336.902)" width="100%" height="100%"/><use xlink:href="#a" transform="translate(473.576 -334.852)" width="100%" height="100%"/><use xlink:href="#a" transform="translate(499.544 -306.834)" width="100%" height="100%"/><use xlink:href="#a" transform="matrix(.66004 0 0 .66004 419.877 -218.749)" width="100%" height="100%" stroke-width="1.515"/><use xlink:href="#a" transform="matrix(.66004 0 0 .66004 418.072 -191.235)" width="100%" height="100%" stroke-width="1.515"/><use xlink:href="#a" transform="matrix(.66004 0 0 .66004 429.8 -164.172)" width="100%" height="100%" stroke-width="1.515"/><use xlink:href="#a" transform="matrix(.66004 0 0 .66004 444.685 -145.228)" width="100%" height="100%" stroke-width="1.515"/><use xlink:href="#a" transform="matrix(.69085 0 0 .69085 142.44 -100.241)" width="100%" height="100%" stroke-width="1.448"/><use xlink:href="#a" transform="matrix(.69085 0 0 .69085 160.43 -117.87)" width="100%" height="100%" stroke-width="1.448"/><use xlink:href="#a" transform="matrix(.69085 0 0 .69085 176.53 -133.922)" width="100%" height="100%" stroke-width="1.448"/><use xlink:href="#a" transform="matrix(.69085 0 0 .69085 191.737 -154.285)" width="100%" height="100%" stroke-width="1.448"/><use xlink:href="#a" transform="matrix(.58914 0 0 .58914 514.283 -62.273)" width="100%" height="100%" stroke-width="1.697"/><use xlink:href="#a" transform="matrix(.58914 0 0 .58914 548.102 -60.907)" width="100%" height="100%" stroke-width="1.697"/><use xlink:href="#a" transform="matrix(.58914 0 0 .58914 514.283 -95.81)" width="100%" height="100%" stroke-width="1.697"/><use xlink:href="#a" transform="matrix(.58914 0 0 .58914 548.102 -95.81)" width="100%" height="100%" stroke-width="1.697"/><use xlink:href="#a" transform="matrix(.82053 0 0 .82053 369.876 -231.93)" width="100%" height="100%" stroke-width="1.219"/><use xlink:href="#a" transform="matrix(.82053 0 0 .82053 342.577 -222.291)" width="100%" height="100%" stroke-width="1.219"/><use xlink:href="#a" transform="matrix(.82053 0 0 .82053 378.813 -186.737)" width="100%" height="100%" stroke-width="1.219"/><use xlink:href="#a" transform="matrix(.82053 0 0 .82053 354.666 -268.377)" width="100%" height="100%" stroke-width="1.219"/><use xlink:href="#a" transform="translate(507.745 -36.902)" width="100%" height="100%"/><use xlink:href="#a" transform="translate(520.729 -4.1)" width="100%" height="100%"/><use xlink:href="#a" transform="translate(489.977 -9.567)" width="100%" height="100%"/><use xlink:href="#a" transform="translate(527.563 -67.654)" width="100%" height="100%"/><use xlink:href="#a" transform="matrix(.75653 0 0 .75653 543.19 -36.043)" width="100%" height="100%" stroke-width="1.322"/><use xlink:href="#a" transform="matrix(.75653 0 0 .75653 515.789 -36.043)" width="100%" height="100%" stroke-width="1.322"/><use xlink:href="#a" transform="matrix(.75653 0 0 .75653 487.871 -36.043)" width="100%" height="100%" stroke-width="1.322"/><use xlink:href="#a" transform="matrix(.75653 0 0 .75653 462.539 -36.043)" width="100%" height="100%" stroke-width="1.322"/><use xlink:href="#a" transform="matrix(.89475 0 0 .89475 432.403 28.42)" width="100%" height="100%" stroke-width="1.118"/><use xlink:href="#a" transform="matrix(.89475 0 0 .89475 383.488 25.975)" width="100%" height="100%" stroke-width="1.118"/><use xlink:href="#a" transform="matrix(.89475 0 0 .89475 408.557 -3.375)" width="100%" height="100%" stroke-width="1.118"/><use xlink:href="#a" transform="matrix(.89475 0 0 .89475 407.334 38.204)" width="100%" height="100%" stroke-width="1.118"/><use xlink:href="#a" transform="translate(395.823 -25.213) scale(.69945)" width="100%" height="100%" stroke-width="1.43"/><use xlink:href="#a" transform="translate(365.755 4.82) scale(.69945)" width="100%" height="100%" stroke-width="1.43"/><use xlink:href="#a" transform="translate(378.137 -22.345) scale(.69945)" width="100%" height="100%" stroke-width="1.43"/><use xlink:href="#a" transform="translate(415.282 15.002) scale(.69945)" width="100%" height="100%" stroke-width="1.43"/></svg>