<svg xmlns="http://www.w3.org/2000/svg" xmlns:xlink="http://www.w3.org/1999/xlink" height="420" width="600"><g id="a" stroke-width=".201"><path d="M215.06 238.741c-.01 1.068.167 2.326-.588 2.65.41-1.276-.484-2.038.588-2.65M223.897 214.592c-1.812 2.116-.416 7.437-1.474 10.307-.346-2.835-.542-6.923 0-9.719.185-.796-1.795-1.819-.295-2.061.448.633 1.63.53 1.77 1.473M218.004 234.325c-.345 2.502-3.892 3.364-5.595 3.534 2.688-2.127 4.748-6.444 7.071-7.955-.833 1.137-1.725 3.77-2.065 4.421.33.028.461-.429.589 0M208.584 239.917c1.773-3.829 7.996-7.308 9.42-11.484-6.065 5.026-10.384 13.372-18.55 15.316 6.125-6.146 12.82-11.721 19.438-17.378-.6 1.073-.053 1.758.293 2.652-4.049 3.116-5.914 8.421-10.601 10.894M223.015 254.94c-.102-1.205.072-3.863 0-5.596.064-.228.005-.581.293-.59.092.398.417.562.293 1.18.203 1.182-.28 1.68-.293 2.65.055 2.323-.065 5.073-.293 2.356M216.241 218.716c.067 1.048-.426 1.539-1.477 1.47-.068-1.047.425-1.54 1.477-1.47zm-.59-2.063c-1.006 1.351-2.071 2.642-3.831 3.238.119-2.09 2.152-3.671 3.83-3.238zm-1.767-1.768c-.721 2.16-3.232 3.992-4.713 4.418 1.101-1.939 2.71-3.376 4.713-4.418zm-11.487 1.768c-.4-.093-.562-.418-1.177-.294-.05-.44.105-1.088-.296-1.179-.54 1.173-1.623 1.303-2.65.59.218 1.255-1.606 1.031-1.767.294-.256.43-.442.935-1.18.883-.14-.347-.314-.668-.586-.883-6.905-.765-16.33-1.47-20.324 3.535-.829.241-.761-.416-1.469-.296-3.339 2.262-7.259 2.944-11.781 4.124-1.34-1.283-2.54.744-3.83-.588-.568.117-.23 1.14-1.18.881-.772.087-.23-1.141-1.177-.881-.035.749-.43 1.14-1.175 1.177-.764-.377.227-1.761-.296-1.767-.561.124-.533.842-1.473.59.168-1.4-1.465-.1-1.47-1.767-.54.319-.735 1.625-1.475.881-.786-.557 1.138-1.693-.292-2.062-.792.389-.588 1.77-1.768 1.77-.818-.442.509-1.205-.296-1.473-1.118-.219-2.111 1.207-2.943.296 1.261-.8.743-3.375 2.352-3.828.259 1.435-.397 1.956-.587 2.948 1.184-1.076 1.691-2.821 2.063-4.71 1.404.103 2.01-.975 2.061-2.933.938-.25 1.118.279 1.471.611.548-1.724 1.227-2.023 2.947-2.903.274.987-1.058 1.942-.294 2.44.123-1.054.783-1.442.587-2.776h1.179c.382 0-.654 1.886 0 2.187.441-1.227.836-2.67 1.766-3.408.698.443.295 1.241.588 1.473.368-.713.732-1.43.883-2.357 1.908.548.885.115 2.65-.293.134 1.506-.703 2.045-.88 3.237 1.402-.46.949-2.779 2.649-2.944.658.745-.643 1.315-.588 2.357 1.558-1.636 2.118-1.774 4.122-2.062.382.73-.862 1.222 0 1.474 1.687.211 1.26-1.685 2.946-1.474.384.73-.866 1.222 0 1.474.721-.358.786-1.374 1.766-1.474.754.374-.272 1.442.294 1.474.56-.068.65.331 1.181.292-.057-.642.24-.936.883-.882-.279 1.816 1.777 1.473 2.354.882.047.347-.05.838.295.883 5.564 1.112 9.117 4.233 16.197 3.83.8-.183.734-1.23 1.77-1.177.116.896-.776 1.499.294 1.767.592-.39.996-.967 1.176-1.767.948-.258.611.763 1.178.882.857-.615.862-2.082 2.358-2.06.38.73-.657 1.429 0 1.472.651-1.019 1.555-1.784 2.062-2.947.929-.141 1.041.532 2.061.297.263 2.035-2.065 3.032-1.77 4.123 1.165-1.687 2.474-3.224 3.537-5.007 1.161.38.902.474 2.061.587-1.141 2.69-2.657 5-5.007 6.481zm-58.312 1.179c-.192 1.672-.637 3.092-2.061 3.532.395-1.467.703-3.027 2.061-3.532zm73.919-5.007c-1.417-.341-.788 1.37-1.763 1.472-1.709-.64.828-1.721 0-2.356-1.789-.02-1.457 2.079-2.946 2.356-1.184-1.168 1.466-2.125.589-2.945-2.67 2.535-3.645 6.764-7.363 8.247 1.168-3.3 5.768-6.146 5.299-9.13-1.528 1.708-1.78 4.698-4.124 5.595-.763-2.284 2.576-4.459 2.652-5.892-2.799 2.504-4.175 6.425-7.067 8.837.326-4.302 4.343-6.434 5.007-9.424-19.704-3.2-48.552-6.661-65.087 1.767-1.677 2.347-3.746 4.304-3.237 8.835.959.077.621-1.144 1.468-1.178.945 1.559-1.57 1.872-.88 4.123.528.037.62-.36 1.176-.293.737.202-.545.784-.296 1.472 1.759.285 3.905 1.726 6.776 1.768.535.696-.483 2.048.59 2.649 17.318-8.632 45.193-10.121 69.206-7.067-.463-2.333.95-6.922 0-8.836M225.075 211.352c.194 1.367-.267 4.441-.296 1.473-.227-.202-.766-1.754.296-1.473M301.35 234.028c-.233-.65-1.382-.383-1.471-1.176.494-.723 1.956.987 1.472 1.176M224.484 215.77c.452.427-.496 2.473.295 3.24-1.068.07-.662-2.851-.295-3.24M222.423 204.872c.353 2.2 1.529 3.577 3.537 4.125-1.575 1.292-4.467-2.01-3.537-4.125M224.192 221.953c-.35 3.235 1.419 5.63 0 8.247.336-2.728-.89-6.912 0-8.247M222.667 226.667v4.122c0 .031-1.334-4.201 0-4.122M138.783 225.783c-1.052-.766-.159-2.306.884-2.651-.067.557.334.65.297 1.179-.347.538-.77.997-1.181 1.472M141.139 225.193c-.295.782-.484 1.676-1.472 1.767.084-.996.354-1.805 1.472-1.767" fill="#fff" transform="matrix(.66282 0 0 .66282 -68.947 186.766)"/><path d="M147.03 226.96c-1.389 2.147-4.21 4.425-5.891 5.3 2.184-1.544 3.461-3.997 5.892-5.3M143.499 226.667c-1.16.404-1.791 2.606-2.947 2.061-.079-1.545 1.844-3.579 2.947-2.061M137.015 224.016c-.543-1.248 1.196-2.456 2.064-3.24-.06 1.707-.996 2.536-2.064 3.24M225.96 224.899c-2.144-1.774-.068-6.386 0-8.835 1.71 2.453-.63 5.547 0 8.835M169.119 214.885c-.095-.397-.422-.561-.294-1.178.396-.094.563-.418 1.176-.294.058.843.039 1.607-.882 1.472zM168 216.36c-1.333 1.613-3.963.537-5.001 1.766-.694.008-.564-.508-1.468-.293-.406-.183.033-1.136-.514-1.179-1.024 1.01-2.35.362-3.684 1.179v-2.063c1.334 1.478 1.19-1.589 2.499 0 .297-.392.121-1.096.73-1.177.311.275.075 1.084.863.883-.24-.832.383-.762.263-1.472 1.08.218 1.57-.724 2.29 0-.02-.514-.065-.916.163-1.178 1.766-.096 3.859.394 3.859.882v2.652zm4.064 1.473c2.715-1.579 6.617-2.756 10.897-3.535-5.498-3.193-17.609-5.954-23.857-1.472-4.03.092-5.327 2.919-7.952 4.418-.148 1.344.512 1.668 0 2.648.83-.051.37-1.399 1.476-1.175.828.296-.083 1.25 0 1.767.899-.379.784-1.767 2.06-1.767 1.345.485-.245 1.493-.59 2.06 1.07.761 1.443-1.688 2.357-2.06.964.09.625 1.86 0 2.06.761.455 1.282-1.85 2.353-2.06.839-.05.577.995 1.77.587.029.914-.134 1.636-.587 2.061 1.632 1.037 1.328-2.392 2.944-2.355 1.128.668-.126 1.139 0 2.355 2.442.088 2.637-2.073 4.122-2.945 1.068.269.179.87.294 1.768.993-1.018 2.962-4.043 4.713-2.355M252.756 246.987c-1.983-.667-4.015-1.283-4.119-3.828-.685.093-1.133-.048-1.474-.295-4.139-4.99-8.831-9.43-13.843-13.547-.235-1.968-3.123-4.281-2.944-4.712 6.428 7.218 15.432 11.859 20.028 20.911.09-.4.417-.564.293-1.179.994.576 1.766 1.374 2.059 2.65M243.924 262.007c1.52-.244 1.295 1.254 2.061 1.766.004-.693-.509-.865-.294-1.766 2.484 1.737 3.325 5.118 4.414 8.246-1.605.331-1.016-1.533-2.057-1.768-2.005.743-3.167-4.234-4.124-6.478zm7.656 9.13c-1.103-1.745-2.133-3.558-2.65-5.89 1.758.728 3.757 4.244 2.65 5.89zm-8.245-13.549c-2.934 8.937 5.9 17.384 14.136 12.372-1.086-1.37-1.136-3.776-2.652-4.713-.832 1.472 1.756 3.198.588 5.006-1.162-.9-.995-3.125-2.059-4.122-1.487.734 1.937 3.732.293 4.713-1.482-3.527-4.189-5.827-5.3-9.72-1.376 1.583-1.886-.984-2.65-1.767-.627-.633.698 1.04.294 2.06-2.112-.049-1.753-2.564-2.65-3.829M247.457 244.63c-5.685-1.785-7.972-6.151-11.485-10.013-1.115-1.225-2.272-2.281-3.241-3.533-.82-1.06-1.595-3.15-3.24-2.945 1.372 1.954 2.933 4.161 4.712 6.186 1.548 1.759 4.473 3.92 4.125 5.592-4.17-2.998-6.23-8.102-9.717-11.778 1.157.08.084-2.075.88-2.356 5.493 6.778 12.81 11.732 17.966 18.848M264.537 255.528c.131-.655-.908-1.597-.293-1.768.053.83 1.397.368 1.175 1.473-.402-.012-.643.139-.882.295" fill="#fff" transform="matrix(.66282 0 0 .66282 -68.947 186.766)"/><path d="M241.27 259.357c.386-4.344 3.373-8.438 7.367-8.246 7.131.341 12.744 4.88 12.955 11.78.195 6.33-5.481 11.892-12.663 9.72-4.35-1.319-8.206-7.064-7.658-13.254zm-6.183.292c.181 1.867-.26 3.842 0 5.304.97 5.398 5.369 7.798 8.249 11.19 1.308.358 3.019.321 4.713.293.435-.837.535-2.015 1.176-2.648 9.082.21 17.078-2.48 16.202-10.603-1.171-10.888-14.611-13.522-21.487-18.554-.799.577.193 2.929-.575 3.534-1.74-1.148.635-5.23-2.032-4.712v3.534c-1.333-.568-.186-3.967-1.502-4.711-1.194-.116-.358 1.833-.62 2.65-1.451-.022.317-3.262-1.179-3.24.013 2.049.695 3.429.592 5.597-1.897-.954-.568-5.131-2.064-6.48-.28 2.774.605 5.82.293 7.657-1.508-1.828-.788-5.885-1.473-8.543-1.408 1.814-.088 4.308-.293 6.48-.132 1.411-1.043 2.716-1.176 4.126-.271 2.838.868 5.957 1.176 9.126M306.063 225.193c-1.523-.146-1.479-1.858-1.766-3.24.064-.229.244-.342.588-.292.276 1.292 1.243 1.896 1.178 3.532zm-2.059-.294c-.727-.647-1.993-.758-2.947-1.179.379.388.379 1.085 0 1.473-1.297.118-.77-1.585-1.766-1.766-.066.229-.247.341-.591.293.201.661.884 1.476.296 2.063-1.216.232-.555-1.41-1.767-1.178.49.586-.026.374 0 1.178-.806.214-.593-.587-1.18-.59.023.514-.065.916-.297 1.178-1.096.313-.464-1.104-1.468-.883.401.376.401 1.39 0 1.768-1.196.115-.905-1.255-1.765-1.473.048.738-.454.921-.886 1.177-.504-.28-.594-.977-1.18-1.177-.254.43-.438.933-1.176.884-1.601-.77-3.797-1.284-6.481-1.179-2.31-2.053-5.961-2.072-7.656-4.124-.341.248-.796.39-1.477.297-.291-1.734-2.254-2.826-3.832-2.358-3.29-3.972-11.164-1.742-16.498-2.356v.885c-1.333-.412-1.076-1.117-2.349-.296-.623-.261-.505-1.253-1.467-1.177-.392 1.597-1.496-.471-2.06-.59.332 1.314-.901 1.06-1.472 1.474-1.832-1.902-3.593-3.868-4.418-6.774.941-.357.873-.038 1.768-.59 1.568 1.67 2.326 4.149 4.122 5.596-.898-1.359-1.858-2.658-2.357-4.418.945-.33 1.039-.072 2.063-.588.717 1.147 1.249 2.478 2.354 3.238.122-.71-.536-.639-.296-1.471 1.775-.105 1.35 1.99 2.652 2.356-.053-.643.24-.939.883-.885.547.634.353 2.004 1.77 1.768.214-.9-.511-.866-.295-1.768 1.197-.119.908 1.254 1.765 1.473 6.041.561 10.876-2.15 16.497-2.944.012-.377.374-.408.291-.884.921.617.947.428 2.357.295-.038-.738-.562-.924.292-1.178.224.758.943 1.024 2.063.883-.245-.343-.388-.79-.295-1.473 1.55-.272.947 1.605 2.358 1.473.118-.71-.539-.64-.295-1.473 1.739-.072 1.381 1.956 3.239 1.768.12-.71-.539-.64-.294-1.475 2.102.188 2.412.58 4.123 2.064-.245-.737-.808-1.157-.883-2.064 1.559-.681 1.572 2.483 2.943 2.947-.197-.962-1.65-2.863-.292-3.534.65 1.319.62.915 2.059.587.092.988.305 1.859.882 2.357-.136-.921.256-1.314 1.182-1.177.206 1.264.477 2.465 1.177 3.24-.08-.97-.74-2.217.587-2.356.604.77.286 2.46 1.18 2.944-.038-.51-.959-2.41.294-2.355.766.315.412 1.747 1.178 2.06.052-.342.465-.318.885-.293-.21 1.652.281.777 1.472.883.13 1.441-.032 3.174 1.767 2.944.33 1.828.913 3.409 1.765 4.713-.247-.733-.384-1.579-.292-2.65 1.27.602 1.9 3.393 1.768 4.417zm-64.793-5.596c-1.263-.223-5.008-3.307-4.124-4.711 1.486 1.46 3.317 2.572 4.124 4.71zm-2.651.296c-1.781-.575-2.957-1.754-3.532-3.535 1.91.447 3.244 1.464 3.532 3.535zm-3.24.292c-.83-.054-1.256-.51-1.177-1.472 1.09-.17 1.822.796 1.177 1.472zm74.807-.588c-.718-1.542-2.082-2.435-2.654-4.123-15.245-8.84-43.745-7.832-65.381-5.301 2.185 2.625 3.959 5.665 5.301 9.13-1.864.8-1.809-1.714-2.353-2.65-1.163-1.992-3.26-3.906-4.124-6.187-.972 1.15 2.867 3.932 2.061 5.892-2.746-.495-2.06-4.42-4.124-5.595-1.254 1.147 2.143 1.974 1.475 4.416.992 1.754 3.235 2.264 3.533 4.714-3.441-1.082-4.565-5.68-6.774-8.542-1.56.568 1.196 1.422.59 2.946-1.784.116-1.372-1.967-2.649-2.356-1.468.157.41 1.1 0 2.06-1.092.877-1.072-1.33-2.064-1.471-1.67 1.51.148 6.128-.883 8.836 25.914-1.287 51.915 1.679 68.915 11.188.604-.473.685-1.473.588-2.648 2.888.236 4.467-.832 6.775-1.179.544-.52-.128-.858-.296-1.473.685-.78.79.783 1.473 0 .735-1.687-.93-1.767-.883-3.533.488-.846 1.191.546 1.176 1.178.683-1.184.103-3.629.298-5.302" fill="#fff" transform="matrix(.66282 0 0 .66282 -68.947 186.766)"/><path d="M245.1 223.427c-.439-.54-1.23-.735-1.472-1.474 1.275-.468 1.85 1.264 1.472 1.474M290.75 221.072c-.62-1.561-2.449-.38-3.535-1.473-.032 1.146-1.28 1.076-2.355 1.177-.188-1.737-1.001-.136-2.063-.293-.616-1.22-1.97-.904-2.944-1.767-.121-3.252 1.731-3.253 4.416-3.241.2 1.284 1.424 1.29 2.358 1.178.408.475.248 1.518.882 1.766-.052-.642.242-.936.883-.883.04.548.193.984.59 1.18.12-.372.38-.604.882-.59.192 1.466.461.934 1.473.59.362.833.242 1.947-.588 2.356zm-12.075-3.83v-1.473h.884c.573.57.306 1.804-.884 1.474zm18.554 3.534c-2.36-1.86-3.892-4.55-7.658-5.007-5.782-4.828-17.294-2.45-24.152-.294 2.709 1.458 6.625 1.768 8.248 3.534 1.122-1.068 1.574.686 2.36.882.3.08.524-.58.882-.588 1.947-.043 2.343 1.98 4.12 3.24-.245-.342-.388-.79-.293-1.471 2.35.2 1.72 3.387 4.713 2.944-.249-.637-.764-1.005-.589-2.063 2.372-.408 1.315 2.612 3.24 2.652-.099-.689-.353-1.217-.59-1.766.207-.775 1.382-.584 1.767-1.178 1.244.52 1.666 1.866 2.356 2.944.55-.381-.674-1.464-.296-2.652 1.947-.276.992 2.344 2.65 2.358.008-.995-1.546-1.312-.587-2.358.952.226 1.54.816 1.767 1.767.909-.39-.55-1.308.294-1.767 1.215-.23.554 1.411 1.768 1.179-.725-.719.218-1.277 0-2.356M149.385 230.79c-1.413.55-1.852 2.074-3.533 2.355.788-.937 2.728-3.34 3.533-2.356M230.964 240.803c-.373-.52-.045-3 .296-2.652-.184.8.375 2.338-.296 2.652M252.463 257c2.882.4 3.552 8.139 0 7.953-2.102-.11-2.994-3.472-2.946-6.481 1.458-.764 2.024-1.6 2.946-1.472M232.436 238.447c.68 2.208-1.047 3.537 0 0M247.163 252.584c.733.043.912-.464 1.474-.59-.021 2.08 1.315 2.809 1.468 4.711-1.366-.985-1.98-2.728-2.942-4.121M248.048 258.179c-.328-1.755-3.219-3.687-1.77-5.302.02 2.063 3.426 3.482 1.77 5.302M227.727 212.825c.009 3.82 1.042 9.136-.592 12.074.357-3.755.008-9.491.592-12.074M235.087 238.15c-1.967-.68-3.538-1.76-5.3-2.649-.272-1.813-.347-1.976.589-1.766-.745-1.554-3.805-2.97-1.765-4.712 1.944 3.256 4.17 6.232 6.476 9.128M257.175 258.767c-1.827-2.002-4.848-2.807-5.595-5.89 1.124.152 2.205.344 2.65 1.178-.689.973 1.467 2.929 2.357 2.357-.298 1.103 1.22 1.892.588 2.355M256.29 263.479c.883 1.573 1.083 3.828 2.653 4.713-.758.03-.419 1.15-1.18 1.177.186-2.448-2.232-3.846-1.472-5.89M256.29 260.533c.727 2.252 3.693 4.967 2.653 7.07-.446-2.431-2.948-5.85-2.652-7.07M258.647 261.417c.286 1.098 2.078 2.232 1.18 3.536-.184-1.085-2.288-3.092-1.18-3.536M249.812 251.993c.747 1.218 1.39 2.538 2.061 3.828-1.274-.496-2.242-2.85-2.061-3.828M223.015 232.26c-.198 1.97.385 4.71-.298 6.187-.238-1.598-.822-5.078.298-6.187M150.565 231.377c-.694 1.076-1.04 2.498-2.649 2.651.313-1.45 1.763-1.768 2.65-2.65M152.33 232.26c.277 1.065-1.48 2.376-2.649 2.945.679-1.184 1.258-2.469 2.65-2.945M182.368 252.584c-.596.183-.08 1.487-1.173 1.176-.834-.545.992-1.725 1.173-1.176M196.507 244.63c.914-.654 1.277-1.863 1.472-3.24 6.122-4.971 12.706-11.049 18.85-15.02-5.529 6.158-12.157 11.213-18.554 16.494-.236.552-.494 1.077-.591 1.767-1.13.346-2.712 1.794-3.825 1.177.737-.83 1.389-1.75 2.354-2.355.048.442-.105 1.087.294 1.178M202.987 222.839c.406-.375.128-1.444.884-1.475 0 .39.514.272.588.59-.388.223-2.119 1.498-1.472.885M185.021 251.404c-.446.07-1.948.29-2.357 0 .308-.31 2.104-.607 2.357 0" fill="#fff" transform="matrix(.66282 0 0 .66282 -68.947 186.766)"/><path d="M171.473 224.31c-.029-.94 1.531-1.98 1.768-.883-.621.262-.872.896-1.768.884zm8.836 19.44c.206-1.169.455-2.297 1.472-2.653-.336 1.038-.644 2.1-1.472 2.652zm15.608-6.483c-1.738 3.853-3.534 7.656-6.185 10.604-.015-.378-.377-.408-.292-.884 2.107-3.103 3.785-8.176 6.477-9.72zm-45.942-7.95c2.782 3.108 8.424 3.358 13.842 3.828-3.004 8.228 7.491 7.468 12.958 9.131.272 1.352-.736 1.421-.59 2.65.534 1.626 2.232 2.087 3.83 2.651 1.256-3.26 2.876-6.157 5.006-8.542-.225 2.95-4.236 6.137-4.124 9.425 3.734-4.024 5.147-10.363 8.835-14.432-1.077 5.107-4.913 10.005-7.068 15.02 4.444-5.076 6.89-12.153 11.488-17.079-1.88 5.68-7.25 11.99-9.424 17.375 1.703-.195 2.225-2.364 2.945-3.536 2.232-3.637 4.475-8.124 7.36-11.483-1.312 5.078-5.57 9.734-7.656 15.019 1.53.093 3.234-2.025 5.3-2.357 1.931-7.579 7.987-9.842 12.96-14.727-2.401 3.003-7.188 6.164-9.72 10.016 4.992-5.023 11.239-8.788 16.199-13.843.284-1.068-1.324-.248-1.179-1.177 1.123-1.919 3.216-2.872 5.01-4.124-2.494.063-4.251 3.405-7.072 4.124-.478.21-.478-1.39 0-1.177-.655-.638-1.328 1.204-2.651.881-.197-2.201 3.37-3.076 5.01-4.417-2.837-.279-4.597 3.058-7.069 4.124-1.688-2.206 2.648-3.15 3.826-4.418-2.976-1.34-4.51 3.688-7.359 4.418-.792.009-.792-1.482 0-1.474-.632-.516-1.32 1.418-2.948.886.348-2.6 3.513-2.379 4.123-4.715-2.444 1.09-3.678 3.39-6.774 3.83.432-2.026 2.474-2.438 3.831-3.533-3.01-.749-3.51 3.555-6.775 3.532.274-2.276 2.822-2.282 3.535-4.121-3.295.043-3.373 3.301-6.48 3.533.04-2.021 2.199-1.924 2.653-3.533-1.902 1.041-3.013 2.879-5.304 3.533-.062-1.829 1.466-2.07 2.359-2.944-2.543-1.062-3.061 2.431-5.304 2.65-1.173-1.196 1.796-2.308 1.18-2.947-2.443.113-3.037 2.07-5.008 2.652-.79-.936.513-1.667 1.177-2.063-2.761-1.384-3.448 1.85-5.3 2.358-.897-.92 1.078-1.462 1.178-2.358-10.135 1.251-19.572 3.204-26.8 7.364M190.028 259.65c-1.405 2.031-2.168 4.706-3.83 6.48-.049-1.285 1.054-2.629 1.769-3.827.654-1.099 1.462-3.259 2.061-2.654M175.892 247.283c.773 1.365-3.819 2.425-1.767 4.121 1.432-.56 2.875-4.375 4.419-2.06-1.479.583-2.644 1.477-3.24 2.945.296-.003.35.238.588.295 1.493-.865 2.45-2.263 4.123-2.947.29 1.628-2.727 2.331-3.535 3.83-1.479-.879-3.633-1.078-4.121-2.944 1.524-.735 2.068-2.451 3.533-3.24M179.132 265.54c.497 1.45-.684 3.059-1.18 4.42-.145-2.01.284-3.45 1.18-4.42M179.427 274.083c-.139-1.336-1.202-1.747-1.178-3.239 1.728.157.606-2.536 1.766-2.947.068 1.904-.47 4.888-.588 6.186M185.61 263.479c.282-1.486.778-2.755 2.063-3.239-.468 1.297-1.04 2.496-2.062 3.239" fill="#fff" transform="matrix(.66282 0 0 .66282 -68.947 186.766)"/><path d="M184.139 262.007c.238-7.347 8.458-12.336 14.432-11.484 4.084.582 6.062 5.174 6.181 8.538.201 5.62-3.46 11.371-8.245 12.664-7.067 1.911-12.559-3.854-12.368-9.718zm-3.83-.256c-1.092 8.553 7.972 11.029 15.904 11.524.415.762.407 1.392.882 2.725h4.125c.655 0-.728.937-1.473.807 13.069 5.788 17.558-6.803 18.85-16.567.314-2.396.275-4.885-1.182-7.068-.751.857 1.262 3.96-.294 4.712-1.218-2.608-1.017-6.637-1.768-9.719-1.096 3.734 1.342 9.266 1.476 14.432-2.168-2.057-1.74-6.705-2.652-10.013-1.966 2.972 2.684 9.501.883 13.252-1.123-2.51-1.299-5.967-1.765-9.13-2.062 2.885 2.208 8.026.882 12.075-1.852-1.389-1.026-5.452-2.061-7.657-1.001 3.865 2.124 7.672.885 11.78-1.546-1.3-.584-5.11-1.473-7.068-1.63 1.201 1.595 4.996 0 7.952-1.13-1.227-.823-3.89-1.18-5.89-1.607 1.402.783 3.86 0 7.069-1.05-.816-1.061-2.67-1.177-4.419-.955.223-1.279 1.076-1.18 2.356-1.672-.581-3.226 2.963-5.888 3.239 1.981-3.223 6.878-6.078 8.54-10.603-.611-6.921 3.634-12.59.885-18.847.21-2.341.932-4.173.881-6.776-2.074 1.559-.714 6.548-2.354 8.543-.706-2.281.584-5.105.588-7.657-1.899 1.045-.456 5.432-2.355 6.48-.596-1.487.85-3.466.587-5.596-1.35-.074-.022 2.529-.884 2.944-.934-.144.497-2.656-.883-2.355-1.088.875-.603 3.324-1.179 4.71-1.245-.505.176-2.27-.292-3.827-.865-.078-.905.666-1.766.59.648 1.011.189 3.012 0 4.122-1.651-.312-.424-2.186-.59-3.534-7.146 3.935-21.666 7.167-22.972 17.414M161.753 235.205c-2.302-.174-1.356 1.09-2.058-1.177 1.101-.021 2.033.125 2.65.59-.66.127-.121 1.451-.296 2.062-2.009.448-3.49 2.984-5.008 2.944 1.386-1.659 3.687-2.4 4.712-4.419M174.713 245.516c-.003 1.764-1.185 2.352-2.354 2.944-.032-.36-.09-.699-.592-.59.462-1.306 1.65-1.885 2.946-2.354M151.152 236.09c1.34-1.115 1.719-3.191 4.419-2.945-.584 1.871-3.043 1.864-3.24 4.122 2.649-.05 3.596-4.442 5.594-3.239-1.442 1.108-3.422 1.683-4.12 3.535 1.491.521 2.459-1.796 4.12-2.062.427.118-2.79 1.467-2.945 2.946 1.023.234 1.247-.327 1.77-.588-.991 3.061-5.045.086-5.598-1.768M162.345 237.563c-1.17 2.072-3.324 3.157-5.008 4.713 1.075-2.167 3.067-3.415 5.008-4.713M167.35 241.687c1.91 1.033 4.643 1.248 7.658 1.177.16 1.533-1.252 1.497-2.65 1.473-2.38 1.056-3.757 3.118-6.186 4.123-.495-2.308 3.496-2.559 4.125-4.71-3.15-.518-4.093 3.503-7.07 4.12.777-2.758 4.056-3.01 5.301-5.3-2.984-.386-5.284 3.898-7.07 4.713-.627-2.178 3.75-4.252 5.893-5.596" fill="#fff" transform="matrix(.66282 0 0 .66282 -68.947 186.766)"/><path d="M163.523 239.624c.229.065.342.248.294.59-1.477 1.177-4.6 2.267-3.826 4.711 1.898-.922 3.628-4.905 5.886-3.534-1.96 1.404-5.573 2.637-5.298 5.302-1.459-.408-1.883-1.853-2.654-2.944 1.987-1.09 3.199-4.424 5.598-4.125M189.144 282.623c-.283.71.38 1.657-.883 1.766 1.419-3.488 2.363-7.454 4.712-10.013-1.072 2.77-2.746 5.524-3.829 8.247M265.715 242.57c-.111 1.014 1.48 1.835.59 2.65-.204-.632-1.878-2.432-.59-2.65zm9.13-17.377c1.099-.116 1.731.236 1.768 1.178-1.082.1-1.51-.451-1.768-1.178zm-23.558 12.666c1.897.886 2.326 3.23 3.238 5.005.891 1.736 2.347 3.495 2.65 5.596-.062.33-.326.459-.588.588-1.858-3.639-3.976-7.02-5.3-11.19zm15.606 11.485c1.51-.555 3.062-1.065 3.83-2.357.192-1.174-.782-1.183-.59-2.356 4.642-2.558 16.131.272 13.548-8.54 5.092-.603 10.91-.478 14.135-2.946-6.675-5.01-16.127-7.236-25.916-9.129-1.359.22 1.021 1.164.884 2.063-1.964.34-2.173-3.486-5.595-2.652.398.781 1.552.802 1.474 2.061-1.876.441-2.747-2.513-5.008-2.65-1.298.462 1.593 1.44 1.177 2.945-2.693-.058-2.437-3.058-5.005-3.24-1.24.661 2.005 1.645 1.765 3.24-2.361-.384-3.136-2.36-4.712-3.534-1.201.714 2.06 1.792 2.063 3.239-2.551.585-3.187-3.29-5.89-3.535-1.04 1.104 2.908 2.151 2.943 4.126-2.952.468-3.295-4.147-6.775-4.126.862 1.598 3.262 1.651 3.535 3.83-2.588.329-3.843-3.22-6.479-3.83.944 1.908 3.183 2.514 4.127 4.418-.503 1.242-2.279-.168-2.65-.883-.751.233.823 1.032 0 1.472-3.711-.512-3.725-4.723-7.662-5.007 1.221 1.826 3.895 2.195 4.42 4.714-3.007.228-4.139-3.891-7.365-4.418 1.218 1.924 4.16 2.124 4.714 4.711-1.005.987-1.618-.919-2.65-.881.325.924.14.777-.295 1.469-2.517-1.405-3.916-3.935-6.773-5.005 1.434 1.612 3.694 2.392 4.71 4.417-.012 1.183-1.401.779-1.176 1.473 4.718 5.096 10.556 9.079 15.02 14.431-1.862-3.833-6.424-7.516-9.72-10.895 4.892 4.727 11.339 7.9 12.96 15.902 2.14.354 3.55 2.873 5.3 2.652-2.137-5.228-4.98-9.747-7.068-15.022 2.196 1.202 3.315 4.535 4.711 7.363.704 1.42 1.61 2.73 2.357 4.123.715 1.325.788 3.346 2.355 3.828.635-1.446-.979-2.655-1.765-4.122-2.287-4.268-4.659-9.205-6.479-13.841 4.44 4.983 6.268 12.577 10.6 17.67-2.352-5.011-4.568-10.157-6.773-15.317 4.518 3.34 4.421 11.287 8.836 14.728-.846-3.672-2.98-6.052-4.124-9.424 2.59 2.02 3.381 5.847 5.006 8.835M266.893 267.307c.015 1.37 1.206 3.105.296 4.418.068-1.334-1.848-3.528-.296-4.418M270.723 254.643c0-.295.241-.348.294-.588-.47-1.591-2.03-2.09-2.942-3.24 1.937-1.438 2.681 2.07 4.418 2.652.066-.42.479-.496.584-.883-.812-1.153-1.913-2.013-2.648-3.24 1.71.745 2.631 2.275 3.532 3.828-.97 1.088-2.433 1.69-4.122 2.061-1.255-1.198-2.768-2.142-3.534-3.829 2.039.515 2.607 2.499 4.418 3.239M265.715 269.663c.39 1.182.11 3.034 1.474 3.241-.812.757-.71 2.428-2.064 2.65 1.884-1.534-.988-4.197.59-5.891M259.827 273.492c.404.015.646-.137.884-.293.172 2.518 3.378 5.769.881 7.362-.04-2.902-1.323-4.568-1.765-7.069M255.996 285.568c-1.153-3.559-2.53-6.89-3.827-10.308 2.04 2.476 3.304 7.296 3.827 10.308M263.361 272.02c-.317 2.128 1.712 4.565.294 5.89-.738-1.715-1.324-3.585-2.063-5.3.615-.17.84-.731 1.77-.59M255.703 279.972c-.372-1.787-1.278-3.043-1.766-4.712.947.064 1.242-.521 2.354-.293.484 3.294 3.674 6.861 2.652 9.717-1.224-3.095-1.568-7.072-3.83-9.13-.936 1.342 1.314 3.318.59 4.418M250.697 276.435c-1.005-.332-.7-.435-.592-1.768h1.182c.344 4 2.18 6.362 2.944 9.72-.958-.026-1.812-.151-2.358-.588 2.484-1.774-2.936-5.383-1.176-7.364M249.221 277.815c.439 2.412 1.854 3.518 2.359 6.185h-1.475c1.235-2.667-2.208-4.897-.884-6.185M258.943 274.376c.636 2.505.973 5.31 2.649 6.775-.756.028-.419 1.149-1.175 1.176-1.132-2.406-2.033-5.036-2.946-7.658.71.122.641-.534 1.472-.293M271.9 247.87c1.237-.535 2.396 1.258 3.241 2.063-.505-.016-.754.226-.885.59-1.145-.524-2.168-1.17-2.356-2.652M307.243 229.023c.188.521 1.452 1.461.586 2.061-.23-.677-2.013-1.496-.586-2.061M301.35 230.79c1.283 1.86 4.175 3.677 4.415 5.594-1.033-1.933-5.062-3.928-4.414-5.595M304.297 230.2c1.738-.943 3.53 1.83 2.356 2.945-.432-1.337-1.717-1.818-2.356-2.945M187.377 267.897c-.972-1.557 1.746-3.74 2.355-5.594-.247 2.4-1.616 3.682-2.355 5.594M309.596 222.839c.559 1.278 2.353 2.66 2.357 3.532-.566-.034-2.956-2.33-2.357-3.532M309.304 224.899c.403 1.158 2.241 2.149 1.765 3.24-1.156-.323-2.468-2.039-1.765-3.24" fill="#fff" transform="matrix(.66282 0 0 .66282 -68.947 186.766)"/><path d="M292.223 241.39c-.159-1.417-2.86-1.842-2.359-2.943.924.914 2.288 2.728 3.536 2.356-.613-2.042-2.947-2.355-3.83-4.123 2.545.597 2.913 3.372 5.302 4.123.017-2.474-2.499-2.41-2.945-4.419 2.588-.133 3.046 1.864 4.122 3.24-1.016 3.348-6.328 2.976-6.185.885.721.339 1.428 1.664 2.359.882M301.645 236.68c-1.544-.42-2.552-1.375-3.238-2.652 1.36.605 2.228 1.7 3.238 2.652M285.333 236.972c0 .184 2.248-.37 2.56.295-1.901.197 1.307 2.417.252 1.768-.728-.174-1.588-1.748-2.38-.884.611 2.24 4.298 3.044 4.202 5.008-1.395-1.356-3.3-2.839-4.634-3.535v-2.652M284.86 240.51c1.723 1.222 4.676 2.78 4.417 5.006-.93-2.212-3.316-2.97-4.417-5.007M271.9 244.925c3.11.066 6.187.1 8.245-.884 1.806 2.027 4.226 3.435 5.891 5.596.661-3.146-3.67-3.77-4.713-6.184 2.392-.13 3.429 3.372 5.596 4.418.961-2.868-2.959-3.291-3.532-5.595 2.516-.224 3.817 3.225 5.596 4.71-1.36 1.293-2.152 3.153-4.714 3.24-.612-2.827-3.413-5.026-5.888-5.006 1.502 1.932 4.238 2.637 5.006 5.303-2.912-.388-4.026-5.518-6.774-4.126 1.198 1.65 3.323 2.372 4.123 4.418-2.715-.999-4.42-3.272-6.775-4.418-.87-.422-2.334.338-2.061-1.472M297.23 234.912c.8.867 2.023 1.313 2.354 2.65-1.447-.031-2.61-1.893-2.355-2.65M297.23 238.741c-.723-1.046-1.789-1.745-2.358-2.945 1.461.119 2.799 1.904 2.357 2.945M308.713 227.256a11.18 11.18 0 011.179 2.061c-.587.003-.375.803-1.179.587.016-.896-.621-1.144-.884-1.765.558-.034.207-.972.884-.883M182.664 270.548c.079.415.645.335.884.59-.763 1.789-1.135 3.967-2.65 5.005.091-1.25.398-4.66 1.766-5.595M185.316 272c-.564 2.667-1.792 4.492-2.355 7.07-1.818-2.031 1.154-4.403 1.472-7.07h.883M188.852 257c.435-.25.63-.743.588-1.472 1.952-.116 2.907-1.764 2.944-2.944.867.059 1.95-1.167 2.65-.295-1.314 2.122-4.143 4.294-6.182 4.711M191.207 274.083c-.586 1.48-1.606 4.08-2.355 4.417-.01-1.301 2.584-3.312.588-3.83-1.739 2.58-2.585 6.054-4.124 8.835-.141-3.401 2.71-6.305 3.536-9.717.945-.067 1.244.519 2.355.295M196.507 257.884c.018 2.908-1.284 6.353-3.534 6.184-4.765-.357-.385-12.477 3.534-6.184M186.493 272.904c.195.396.631.55 1.18.588-1.286 2.445-1.844 5.621-3.829 7.364.045-.732-.465-.912-.592-1.473 2.127-1.115 1.935-4.547 3.241-6.479M200.632 252.584c.128 1.657-1.86 3.596-2.948 5.004-.465-2.088 1.719-3.67 2.948-5.004" fill="#fff" transform="matrix(.66282 0 0 .66282 -68.947 186.766)"/><path d="M193.267 270.253c-.016-1.926 1.589-4.661 3.24-5.89-.01 1.897-1.348 4.901-3.24 5.89zm2.06-.884c1.138-3.084 2.404-6.038 4.712-7.952.346.782-.562 1.735 0 1.768.424-.758.69-1.666 1.768-1.768-.728 2.73-2.422 7.228-4.712 6.48-.364.692-.972 2.12-1.768 1.472zm-4.714-5.301c-1.141 1.213-1.342 3.367-2.646 4.417 7.393 5.914 17.198-1.977 15.02-11.19-1.242.822-.843 3.28-2.65 3.536-.641.048-.136-1.046-.298-1.474.321-1.121-1.412 3.263-2.06 1.176-1.892 3.312-4.534 5.875-6.182 9.427-1.308-1.044.612-3.345 1.176-4.42-1.902-.913-1.496 3.016-2.945 3.535-1.277-1.88 2.084-3.77.585-5.007M194.447 255.233c-.4-1.189 1.752-2.096 1.766-3.829.347.048.838-.05.882.295-1.234.826-1.164 2.958-2.648 3.534M197.684 251.404c.907-.22.567.808 1.473.59-.689 1.663-2.026 2.687-2.944 4.123-.58-1.394 2.052-3.318 1.471-4.713M241.567 281.444c.646-.619.062-1.308-.296-1.768 1.573 0 .785 2.356 2.357 2.356.173-1.15-.252-1.71-.588-2.356 2.135-.172 1.059 2.868 2.65 3.241 0-.297.237-.35.295-.59-.197-1.176-.733-2.018-1.18-2.944 2.672-.315.895 3.814 3.243 3.829.243-2.015-.815-2.721-.885-4.417 1.492.96 1.444 3.461 2.354 5.005-4.669-.633-8.924-1.677-12.074-3.828 1.572.013 2.522-.135 3.242-.296-.013.896-.172 1.939.882 1.768M186.788 284.095c-.26 1.042.757 1.517-.295 1.768-.501-.476-.272-1.519.295-1.768M225.37 248.46c1 .615.555 3.803-.591 4.124.062-1.512-.259-3.403.59-4.124M309.596 220.483c.66 1.698 3.552 2.724 2.653 5.005.096-2.452-3.516-2.763-2.653-5.005M227.135 240.51c-.36 1.994.742 5.453-.588 6.477.204-.978-.636-5.54.588-6.478M224.484 237.267c.013.972-.12 2.085.885 2.064.691-1.112-.665-3.423.295-4.714.408 1.164.425 2.715.587 4.124-1.92 1.614-.231 6.835-1.472 9.13-.88-2.524-.991-8.399-.295-10.604M228.017 238.447c1.942 4.08.76 11.682-1.174 14.725 1.252-4.34 1.738-10.217 1.174-14.725M228.904 257.295c1.732-2.291 1.165-6.886 2.65-9.424.066.228.007.58.294.589-.067.228-.007.58-.295.588.472 3.207-2.972 9.44-2.062 12.959 1.87-2.548 1.198-7.639 3.537-9.718-.33 4.514-3.625 9.095-2.359 13.251 1.292-2.732 1.308-6.743 2.651-9.423.843 4.063-3.199 8.698-1.767 12.368 1.486-1.754 1.062-5.417 2.358-7.361.257 4.384-2.66 7.156-1.475 11.487.996-1.755.988-4.512 1.475-6.775.728-.115 1.292 1.417.884 1.47-1.106-.207-2.086 5.037-.884 6.186.896-1.555.666-4.241 1.469-5.89 1.407 1.96-1.705 4.315-.293 7.067.882-.982.593-3.137 1.473-4.121.877.3.257 2.099.883 2.65.39-.003.27-.517.589-.587 1.512 2.608 4.523 3.721 7.361 5.006-4.558-.168-8.528 1.342-11.778-.589-3.112-1.85-5.603-9.367-6.186-13.843-.621-4.778-.262-8.234 1.768-10.601-.014 1.465-1.172 3.33-.293 4.71M221.539 257c.144.35.316.667.589.884.775.088.233-1.143 1.18-.884-.265 1.028.961.504 1.176.295.203 1.477-.708 1.844-1.767 2.062-.466-.45-1.89-2.637-1.178-2.357M194.447 283.212c-.43-.163-1.523.344-1.474-.295 1.102-1.846 1.819-4.074 3.24-5.597-.337 2.133-2.452 3.677-1.766 5.892M194.741 274.667c1.38 2.666-3.874 5.648-2.064 8.984-1.01-.13-1.65.19-2.357.366.845-3.476 3.021-5.35 3.539-9.35h.882M197.684 278.205c.148 1.616-2.157 3.26-.59 4.418 1.413-.75.646-3.676 2.653-3.828-.059 1.326-1.548 2.424-.59 3.828-1.496-.21-2.885 1.228-4.124.294 1.171-1.282 1.14-3.77 2.651-4.712M220.067 251.404c-.168-.73-1.066-2.25-.295-2.944.768.132.868 2.448.295 2.944M201.515 279.088c.141 1.081-1.527 2.468.292 2.65.238-.853.981-2.735 1.769-2.062-.577-.141-.95 1.352-.295 1.475.607-.179 1.116-.456.884-1.475.992.187 2.735-.377 3.239.296-2.048 1.097-5.276 2.575-7.95 2.06 1.075-.59.513-2.824 2.06-2.944M221.333 238.447c0 3.402.543 10.08.588 12.664-1.198-3.654-.588-10.562-.588-13.252v.588" fill="#fff" transform="matrix(.66282 0 0 .66282 -68.947 186.766)"/><path d="M135.179 217.176c.512-2.488 2.052-3.58 3.898-3.753 2.4-2.216 5.878-3.499 8.799-4.53 3.153-1.112 6.42-1.722 9.719-2.193.062-.009.128-.005.19-.013 2.078-.466 4.168-.798 6.255-.868 19.17-2.571 39.744.234 57.39 6.798 1.095.108 2.295.291 3.555.556 1.532-.293 3.144-.368 4.723-.262.087-.056.152-.123.25-.172 3.425-1.716 7.769-3.059 12.209-3.598 3.398-.745 6.917-1.089 10.22-1.369.342-.03.692-.059 1.041-.088 4.981-.935 10.224-1.024 15.053-.157l.123-.011c6.296-.539 12.707-.417 18.712 1.497 2.35-.805 5.541.287 7.685 1.032.858.298 1.843.668 2.879 1.106 5.021.92 10.407 2.328 13.519 5.913.96 1.107 1.049 2.444.454 3.437 1.055 1.42 1.426 3.107.416 4.987a4.982 4.982 0 01-.508.776c-1.296 3.521-4.08 7.312-5.645 8.997-.917.987-2.173 1.014-3.115.468-.003.005-.005.014-.009.019-.149.403-.31.796-.506 1.164-.994 1.881-2.996 1.657-4.042.479-.458.489-.909.982-1.35 1.481a2.6 2.6 0 01-.55.625c-1.148 1.312-2.293 2.642-3.578 3.951-1.092 1.11-2.631.959-3.551.096.195.812.17 1.587-.037 2.316.181 1.719-.863 3.095-2.252 4.248-.628.521-1.475.51-2.207.213-1.307.572-2.735.904-4.092.915-1.215.495-2.556.497-3.932.275-.373.541-.984.897-1.87.848-.249-.015-.494-.047-.74-.068-.015.024-.034.045-.051.069.622 1.535-.172 3.252-2.1 3.499-2.466.314-4.867.065-7.208-.534.138.259.265.518.376.77a35.821 35.821 0 011.697 4.9c1.39 2.216 2.31 4.709 1.908 6.752 1.94 6.018-6.357 10.38-8.03 16.182-.665 2.306-2.97 2.895-4.843 1.587-.664-.463-1.386-.803-2.128-1.092-4.014 2.744-11.035-.857-14.604-2.755-.286-.15-.55-.325-.819-.493a2.566 2.566 0 01-2.061-.181c-.52.198-1.102.136-1.56-.396-1.252-1.448-2.219-3.056-2.984-4.766a2.583 2.583 0 01-.568-.54c-2.948-3.832-4.372-9.581-4.584-14.792-1.142.216-2.267.282-3.184.216-1.583-.113-2.946-.685-3.923-1.606-.152 1.113-.31 2.121-.512 2.866-1.235 4.559-2.807 9.571-5.75 13.339-5.145 6.588-14.806 10.113-23.313 9.417-1.424 1.42-3.989 1.778-5.424-.412-3.202-4.882-6.74-10.193-8.285-15.878-1.492-5.487.988-8.68 2.93-12.714-3.226-.445-6.363-1.561-7.82-4.46-.806-1.601-8.006-.43-10.433-1.693-4.345-2.26-2.504-7.715-6.642-9.54-3.612-1.593-6.719-4.245-9.563-7.157-1.127.344-2.455.04-3.39-1.228-1.394-1.896-2.066-3.904-3.118-5.995a3.034 3.034 0 01-.245-.727c-2.156-2.002-3.492-4.757-2.875-7.753" fill="#f5a020" transform="matrix(.66282 0 0 .66282 -68.947 186.766)"/><path d="M266.721 216.639c1.035-.28 2.048-.582 3.027-.864 10.552-3.047 20.901-2.644 28.91 4.666-1.74.13-3.494.488-4.854.632-6.233.655-12.58-.638-18.632-2.14-2.855-.708-5.66-1.512-8.45-2.294zm-27.038-2.238c2.554-.526 5.048-.65 7.5-.494 3.402 1.254 6.677 2.865 10.336 3.588 1.426.282 2.897.277 4.369.117 5.697 2.188 11.332 4.8 17.13 6.321 8.354 2.192 15.56 1.184 23.977 1.428 1.897.056 2.4-2.389 1.253-3.537-.513-.515-1.139-.852-1.83-1.075-5.847-7.514-14.257-11.722-24.051-10.805-6.224.583-12.148 3.263-18.35 3.547-6.17.284-12.252-1.866-18.25-1.472-.226.014-.264.368-.031.402.936.138 1.84.356 2.733.606-1.66.078-3.337.256-5.042.572-.531.097-.275.913.256.802M153.49 216.77c7.703-4.298 17.046-6.251 25.527-4.109-1.82.618-3.644 1.314-5.533 1.891-6.665 2.033-13.252 2.47-19.995 2.219zm-6.922 4.262c8.215.539 16.273.817 24.344-1.088 5.13-1.212 10.11-3.301 15.115-5.139 5.078 1.55 10.357 2.631 15.153 0 1.087-.598.048-2.167-1.027-1.609-3.5 1.824-7.09 1.502-10.706.408.142-.048.286-.1.43-.146 1.016-.33.939-1.832-.108-2.054-2.144-.452-4.169-.372-6.144-.008-3.745-1.578-7.48-3.201-11.133-3.361-9.843-.43-19.628 2.39-27.324 8.635-1.907 1.546-1.033 4.204 1.4 4.362" fill="#004f7f" transform="matrix(.66282 0 0 .66282 -68.947 186.766)"/><path d="M265.01 251.26c3.787.347 7.285-.58 7.793-4.496.152-1.176 1.421-2.263 2.605-2.237 3.336.07 6.096-1.85 9.17-2.919-.067-.607-.203-1.256-.337-1.875-.526-2.43 1.564-4.24 3.891-3.329 4.325 1.69 4.675-.876 8.177-1.58 1.483-.299 4.808-.324 5.39-1.485 2.621-5.227 8.82-4.528 8.569-11.962-.037-1.11 1.519-1.142 1.685-.088.428 2.718.995 6.071-1.009 8.39-1.235 1.429-2.632 2.677-3.977 3.998-1.018.999-.626 2.287-1.564 3.184-3.014 2.886-7.376 3.127-11.08 4.922a7.717 7.717 0 01-3.558.785c.396 1.944.366 3.868-1.129 5.527-2.404 2.67-6.223 2.258-9.316 1.317-.101-.03-.193-.075-.29-.113-.703.27-1.43.498-2.195.648-1.843 5.658-7.807 7.365-13.958 6.793-3.598-.336-2.41-5.803 1.134-5.48M240.252 279.768c1.835-1.25 4.196-1.644 6.608-1.559.368-1.377 1.488-2.662 3.608-3.545a8.095 8.095 0 013.093-.633c.244-.239.514-.451.819-.611 4.095-2.132 9.645-.045 11.436-5.864.339-1.096 2.263-1.161 2.164.165-.223 3.01-.943 5.232-2.823 7.611-.3.38-1.44.983-2.801 1.496-.012.15-.012.296-.05.453-.446 1.95-1.953 3.828-3.711 4.796-.598 1.067-1.628 1.591-2.934 1.539-.726 1.205-2.206 2.065-3.877 1.479-3.87-1.455-8.416-.119-11.74-2.799-.83-.67-.61-1.972.208-2.528M176.855 267.265c.618-1.828 3.473-3.085 4.612-.85.74 1.453 1.024 2.994 1.566 4.53.756 2.139 1.076.046 3.136.471 1.391.285 2.243 1.136 2.776 2.263.319.08.632.165.908.281.354-.172.731-.276 1.102-.265 4.793.144 7.962 4.426 12.834 5.173 1.103.168 1.266 2.001.118 2.233-.375.076-.75.15-1.124.219.049 1.487-.968 3.036-2.844 3.316-2.178.324-5.815.867-8.134-.092-.204.055-.409.107-.61.121a3.283 3.283 0 01-1.302-.153c-1.156 2.097-4.806 2.85-5.344-.033-.048-.256-.089-.479-.132-.479H184v-.527c0-.958-.076-1.834-.123-2.874-.003-.499.099-.998.098-1.496-.183-.455-.226-.826-.266-1.148-.86.064-1.694-.058-2.377-.454-3.107-1.796-5.693-6.646-4.477-10.236M137.435 215.273c.8-1.35 2.992-1.069 3.076.642.128 2.605.294 8.245 3.765 8.72 1.739.237 3.252.741 3.948 2.444 1.213 2.974 2.867 5.977 6.827 5.916 1.953-.031 3.404-.096 5.2.517a8.748 8.748 0 011.814-.263c1.851-.073 3.551 1.686 3.072 3.576-.189.744-.249 2.496.15 3.96 1.496.378 3.222.428 4.557.464a3.22 3.22 0 011.796.587c.35-.112.701-.216 1.063-.285 1.357-.258 2.632.262 3.249 1.282.53.331.96.811 1.123 1.439.602 2.327 1.553 6.013 4.37 6.199.208-.019.419.196.646.196h.576v-.206c0 .011.078-.078.281-.062 2.213.169 2.128 3.676.08 4.188-1.767.442-3.4.266-4.77-.291-.423.133-.938.148-1.46.027-3.653-.842-5.934-3.492-5.997-6.503-1.222.385-2.442.759-3.63.855-6.496 1.185-11.302-5.238-11.04-10.162-2.187-.253-4.346.271-6.714-.91-3.353-1.674-4.966-4.036-6.29-7.043-2.522-.663-4.435-1.385-5.615-4.348-1.487-3.74-2.196-7.365-.077-10.939" fill="#004f7f" transform="matrix(.66282 0 0 .66282 -68.947 186.766)"/><path d="M222.577 213.297c.058-.889.13-1.782.234-2.681.245-2.117 3.733-1.86 3.744.23 1.149.118 2.184 1.229 2.237 2.358a74.86 74.86 0 01-.779 14.948c-.261 1.69-1.748 2.139-2.992 1.7.054 1.048.127 2.096.223 3.144.985.163 1.841.876 1.876 2.208.17 6.504 2.217 14.392-1.596 20.225-1.097 1.676-3.86 1.912-4.524-.352-1.336-4.556-.175-8.676.52-13.077-1.261-6.93-4.447-22.079 1.057-28.703M229.217 239.128c.094-3.137 4.98-3.428 4.899-.256-.267 10.481-2.264 21.301.881 31.476.408 1.316-1.462 1.85-1.994.637-2.075-4.728-2.984-9.297-3.087-14.44-.057-2.885.264-5.756.203-8.644-.063-2.982-.992-5.764-.902-8.773M211.82 262.55c.912-1.794.23-4.562.048-6.458-.464-4.815.685-9.895 1.532-14.619.153-.857 1.277-.982 1.737-.32 1.479 2.131 1.232 4.767 1.192 7.272-.056 3.471.059 6.67.487 10.124.527 4.228-.827 9.623-5.35 10.91-1.182.336-2.085-.63-1.966-1.77.232-2.213 1.315-3.161 2.32-5.138M235.335 225.81c5.438.493 10.84-1.893 16.234-2.33 7.923-.641 16.43 1.085 24.228 2.225.731.107.62 1.238-.097 1.268-8.465.36-17.38-1.465-25.701.622-5.135 1.286-10.286 3.837-15.691 3.173-3.281-.404-2.156-5.247 1.027-4.959M176.93 220.023c5.84-1.051 11.982.478 17.78 1.362 6.6 1.006 13.54 2.054 19.509 5.178 1.026.537.806 2.388-.487 2.336-5.887-.232-11.716-1.596-17.524-2.539-6.541-1.061-13.752-.961-19.795-3.853-1.304-.623-.676-2.27.518-2.484M159.093 214.517c1.136-1.449 3.815-1.392 5.495-1.872 2.023-.577 3.91-.928 5.941-.26.934.306 1.035 1.48.099 1.871-2.628 1.096-9.495 5.143-11.656 1.733-.305-.482-.217-1.038.121-1.472M282.71 216.359c1.213-.91 2.809-.179 4.022.372a15.845 15.845 0 014.104 2.673c.928.832.128 2.404-1.09 2.153-1.474-.304-2.8-.846-4.166-1.473-1.263-.58-2.845-.957-3.348-2.399-.18-.514.07-1.018.479-1.326M249.26 263.093c-.068-1.512-.288-3.204.233-4.605.294-.79 1.254-1.297 2.046-1.34 1.13-.059 2.058.659 2.442 1.688.266.707.15 1.532.131 2.27l-.055 2.102c0 .065-.018.127-.024.19-.03.826-.47 1.611-1.222 2.026-.067.04-.142.065-.215.099-.068.029-.128.068-.201.092-.012.004-.024.003-.035.007-.15.046-.31.073-.473.089-.015.001-.03-.173-.044-.172-.172.012-.35-.205-.534-.205h-.005c-.042 0-.081.176-.122.166-.131-.026-.255.011-.376-.04-.01-.003-.02.039-.027.036-.103-.044-.197-.076-.295-.134-.09-.052-.178-.095-.264-.158l-.02-.012a2.292 2.292 0 01-.846-1.238 2.138 2.138 0 01-.094-.86M192.281 258.805c.412-.709 1.14-1.129 1.962-1.026.24-.171.54-.286.95-.308.498-.027 1.036.224 1.291.664.292.498.292.929.1 1.46-.032.086-.295.566-.237.35-.01.036-.032.058-.043.092-.092.336-.2.67-.31.999-.129.393-.346.86-.458 1.308-.019.277-.05.555-.088.83-.004.042-.005.083-.013.125-.003.021-.003.044-.007.065-.003-.001-.007-.001-.01-.003-.165.776-.834 1.39-1.658 1.435-1.068.056-1.717-.739-1.89-1.702-.231-1.294-.263-3.124.411-4.289" fill="#a56f55" transform="matrix(.66282 0 0 .66282 -68.947 186.766)"/><path d="M246.75 257.48c.555-2.09 1.52-2.985 2.714-3.335-.147.874.927 1.664 1.85 1.202 6.526-3.262 12.727 15.509 1.7 12.45-4.431-1.229-7.487-5.693-6.263-10.317zm7.387 15.804c14.134 1.03 10.57-15.268 3.814-20.317a2.202 2.202 0 00-.143-1.576c-1.853-3.703-7.695-3.726-10.963-2.194-2.952 1.387-5.01 4.52-5.488 7.718-1.221 8.17 4.372 15.756 12.78 16.369M191.35 259.881c.011-2.189 1.054-3.968 2.69-5.409 2.17-1.91 2.505-.824 4.433.556.599.43 1.252.577 1.847.5 2.848 2.875 4.327 7.85.779 10.333-4.866 3.404-9.78-.341-9.75-5.98zm9.345 12.435c6.925-3.143 10.122-10.65 5.405-17.279-1.09-1.533-2.533-3.081-4.232-4.11-1.299-3.055-5.428-4.116-8.573-2.747-3.287 1.43-6.888 5.227-7.439 8.904-1.17 7.825 5.461 19.487 14.839 15.232M151.485 216.768c4.103-.92 8.336-.641 12.506-1.07 5.294-.543 9.746-2.703 14.657-4.466 1.024-.368 2.103 1.105 1.212 1.875-6.761 5.845-20.187 8.322-28.459 4.757-.461-.197-.422-.983.084-1.096M277.501 218.19c3.078.333 6.05 1.343 9.154 1.697 3.602.408 7.253.236 10.866.544 1.083.092.856 1.733-.14 1.822-6.112.556-15.445 1.398-20.602-2.638-.71-.555-.02-1.507.722-1.426M245.83 216.464c2.033-.71 4.3.015 6.36.41a46.53 46.53 0 017.771 2.206c.708.268.283 1.383-.428 1.23-2.568-.555-5.176-.97-7.774-1.365-2.118-.321-4.35-.261-6.135-1.528-.368-.258-.157-.826.205-.953M239.303 216.057c.686-.014.886.974.216 1.191-1.296.417-2.562.915-3.863 1.324-.719.227-2.22.664-2.555-.392-.722-2.272 5.124-2.097 6.202-2.123M206.507 215.392c.136-.439.421-.916.917-1.019 2.537-.532 6.207-.18 8.193 1.608.72.65.071 1.696-.805 1.588-1.059-.13-2.123-.221-3.184-.348-1.35-.161-2.74.064-4.067-.224-.468-.102-.881-.45-1.018-.917-.071-.237-.112-.447-.036-.688M196.69 215.513c.805-.485 1.657-.378 2.574-.346 1.235.041 2.472.157 3.705.24.744.05.847 1.133.062 1.186l-3.22.216c-1.002.068-2.179.242-3.07-.292-.361-.216-.454-.762-.052-1.004M242.281 238.017c4.23-.529 7.602 2.115 11.128 4.095 2.56 1.437 5.16 2.53 8.155 2.457 2.33-.056 4.34-.396 6.65.058 1.18.229 1.06 2.082-.158 2.101-5.01.077-8.641 2.579-13.744.741-4.587-1.653-9.747-4.01-12.808-7.938-.49-.631.113-1.431.777-1.514M230.705 235.205c1.218-.772 2.51.936 3.456 1.474.355.201.175.744-.234.673-.572-.1-1.138-.279-1.695-.445-.56-.168-1.41-.403-1.693-.946-.136-.264-.103-.585.166-.756M189.912 244.32c2.265-3.087 7.099-3.73 10.504-5.161 4.157-1.747 7.5-4.948 12.197-4.855 1.223.024 1.422 1.53.367 2.012-4.048 1.85-7.175 5.028-11.29 6.84-3.353 1.476-7.523 3.959-11.229 2.839-.777-.235-1.024-1.028-.549-1.675" fill="#a53e0c" transform="matrix(.66282 0 0 .66282 -68.947 186.766)"/><path d="M161.459 217.832c-.407-.183.105-1.136-.442-1.179-1.024 1.01-2.35.362-3.684 1.179v-2.063c1.334 1.478 1.196-1.589 2.507 0 .297-.392.203-1.096.81-1.177.314.275.055 1.084.845.883-.242-.832.398-.762.277-1.472 1.081.218 1.628-.724 2.35 0-.023-.514-.205-.916.023-1.178 1.767-.096 3.855.394 3.855.882v2.652c-1.333 1.613-3.999.537-5.037 1.766-.694.008-.602-.508-1.504-.293M169.119 214.885c-.095-.397-.422-.561-.294-1.178.396-.094.563-.418 1.176-.294.058.843.039 1.607-.882 1.472M235.087 214.592c1.486 1.46 3.317 2.572 4.124 4.71-1.263-.222-5.008-3.306-4.124-4.71M209.17 219.303c1.102-1.939 2.711-3.376 4.714-4.418-.721 2.16-3.232 3.992-4.713 4.418M290.75 221.072c-.62-1.561-2.449-.38-3.535-1.473-.032 1.146-1.28 1.076-2.355 1.177-.188-1.737-1.001-.136-2.063-.293-.616-1.22-1.97-.904-2.944-1.767-.121-3.252 1.731-3.253 4.416-3.241.2 1.284 1.424 1.29 2.358 1.178.408.475.248 1.518.882 1.766-.052-.642.242-.936.883-.883.04.548.193.984.59 1.18.12-.372.38-.604.882-.59.192 1.466.461.934 1.473.59.362.833.242 1.947-.588 2.356" fill="#381400" transform="matrix(.66282 0 0 .66282 -68.947 186.766)"/><path d="M278.675 217.243v-1.474h.884c.573.57.306 1.804-.884 1.474M236.56 219.599c-1.781-.575-2.957-1.754-3.532-3.535 1.91.447 3.244 1.464 3.532 3.535M211.82 219.89c.119-2.089 2.152-3.67 3.83-3.237-1.005 1.351-2.07 2.642-3.83 3.238M142.024 221.364c.395-1.467.703-3.027 2.061-3.532-.192 1.672-.637 3.092-2.061 3.532M233.32 219.89c-.83-.053-1.256-.509-1.177-1.471 1.09-.17 1.822.796 1.177 1.472M214.764 220.187c-.068-1.048.425-1.542 1.477-1.471.067 1.048-.426 1.539-1.477 1.47M304.297 221.953c.064-.229.244-.342.588-.292.276 1.292 1.243 1.896 1.178 3.532-1.523-.146-1.479-1.858-1.766-3.24M173.241 223.427c-.621.262-.872.896-1.768.884-.029-.94 1.531-1.982 1.768-.884M276.613 226.37c-1.082.1-1.51-.45-1.768-1.177 1.099-.116 1.731.236 1.768 1.178M189.732 247.87c-.015-.377-.377-.407-.292-.883 2.107-3.103 3.785-8.176 6.477-9.72-1.738 3.853-3.534 7.656-6.185 10.604M254.525 242.864c.891 1.736 2.347 3.495 2.65 5.596-.062.33-.326.459-.588.588-1.858-3.639-3.976-7.02-5.3-11.19 1.897.887 2.326 3.231 3.238 5.006M181.781 241.097c-.336 1.038-.644 2.1-1.472 2.652.206-1.168.455-2.296 1.472-2.652M265.715 242.57c-.111 1.014 1.48 1.835.59 2.65-.204-.632-1.878-2.432-.59-2.65M196.507 264.363c-.01 1.897-1.348 4.901-3.24 5.89-.016-1.926 1.589-4.661 3.24-5.89M251.58 271.137c-1.103-1.745-2.133-3.558-2.65-5.89 1.758.728 3.757 4.244 2.65 5.89M182.961 214.297c-4.28.779-8.182 1.956-10.897 3.535-1.75-1.688-3.72 1.337-4.713 2.355-.115-.898.774-1.499-.294-1.768-1.485.872-1.68 3.033-4.122 2.945-.126-1.216 1.128-1.687 0-2.355-1.616-.037-1.312 3.392-2.944 2.355.453-.425.616-1.147.588-2.061-1.194.408-.932-.636-1.771-.587-1.07.21-1.592 2.515-2.353 2.06.625-.2.964-1.97 0-2.06-.914.372-1.287 2.821-2.356 2.06.344-.567 1.934-1.575.589-2.06-1.276 0-1.161 1.388-2.06 1.767-.083-.518.828-1.471 0-1.767-1.107-.224-.645 1.124-1.476 1.175.512-.98-.148-1.304 0-2.648 2.625-1.499 3.921-4.326 7.952-4.418 6.248-4.482 18.359-1.721 23.857 1.472zm19.436 2.356c2.35-1.481 3.866-3.792 5.007-6.481-1.159-.113-.9-.207-2.061-.587-1.063 1.783-2.372 3.32-3.536 5.007-.296-1.09 2.032-2.088 1.769-4.123-1.02.235-1.132-.438-2.061-.297-.507 1.163-1.411 1.928-2.062 2.947-.657-.043.38-.742 0-1.472-1.496-.022-1.501 1.445-2.358 2.06-.567-.119-.23-1.14-1.178-.882-.18.8-.584 1.378-1.176 1.767-1.07-.268-.178-.87-.294-1.767-1.036-.053-.97.994-1.77 1.178-7.08.402-10.633-2.719-16.197-3.831-.345-.045-.248-.536-.295-.883-.577.591-2.633.934-2.354-.882-.643-.054-.94.24-.883.882-.53.039-.621-.36-1.181-.292-.566-.032.46-1.1-.294-1.474-.98.1-1.045 1.116-1.766 1.474-.866-.252.384-.744 0-1.474-1.686-.211-1.259 1.685-2.946 1.474-.862-.25.382-.742 0-1.473-2.004.287-2.564.427-4.122 2.063-.055-1.043 1.246-1.611.588-2.356-1.7.165-1.247 2.486-2.648 2.946.176-1.192 1.013-1.725.88-3.233-1.766.41-.743.852-2.651.305-.15.926-.515 1.666-.883 2.379-.293-.233.11-.99-.588-1.432-.93.739-1.325 2.097-1.766 3.324-.654-.301.382-2.187 0-2.187h-1.179c.196 1.334-.464 1.722-.587 2.776-.764-.498.568-1.537.294-2.524-1.72.88-2.399 1.22-2.947 2.944-.353-.332-.533-.838-1.47-.588-.051 1.958-.658 3.046-2.062 2.944-.372 1.887-.879 3.638-2.063 4.714.19-.992.846-1.511.587-2.946-1.61.454-1.09 3.03-2.352 3.83.832.91 1.825-.514 2.943-.296.805.268-.522 1.032.296 1.474 1.18 0 .976-1.381 1.768-1.77 1.43.369-.494 1.505.292 2.062.74.744.934-.562 1.474-.881.005 1.667 1.639.367 1.471 1.767.94.252.912-.466 1.473-.59.523.005-.468 1.39.296 1.767.746-.037 1.14-.428 1.175-1.177.947-.26.405.968 1.177.881.95.259.612-.764 1.18-.881 1.29 1.332 2.49-.695 3.83.588 4.522-1.18 8.442-1.862 11.781-4.124.708-.12.64.537 1.47.296 3.993-5.004 13.418-4.3 20.323-3.535.272.215.446.536.586.883.738.052.924-.454 1.18-.883.161.737 1.985.961 1.768-.295 1.026.714 2.109.584 2.649-.589.401.09.245.739.296 1.179.615-.124.777.201 1.177.294" fill="#381400" transform="matrix(.66282 0 0 .66282 -68.947 186.766)"/><path d="M297.23 223.132c-1.215.232-.554-1.41-1.769-1.179-.844.459.615 1.376-.294 1.767-.227-.95-.815-1.541-1.767-1.767-.959 1.046.595 1.363.587 2.358-1.658-.014-.703-2.634-2.65-2.358-.378 1.188.846 2.271.296 2.652-.69-1.078-1.112-2.424-2.356-2.944-.385.594-1.56.403-1.768 1.178.238.549.492 1.077.591 1.766-1.925-.04-.868-3.06-3.24-2.652-.175 1.058.34 1.426.59 2.063-2.994.443-2.365-2.744-4.714-2.944-.095.681.048 1.13.293 1.47-1.777-1.26-2.173-3.282-4.12-3.24-.358.009-.582.669-.882.589-.786-.196-1.238-1.95-2.36-.882-1.623-1.766-5.539-2.076-8.248-3.534 6.858-2.156 18.37-4.534 24.152.294 3.766.456 5.298 3.147 7.658 5.007.218 1.079-.725 1.637 0 2.356zm6.774 1.767c.132-1.024-.499-3.815-1.768-4.416-.092 1.07.045 1.916.292 2.649-.852-1.304-1.435-2.885-1.765-4.713-1.799.23-1.638-1.503-1.767-2.944-1.19-.106-1.681.769-1.472-.883-.42-.025-.833-.05-.885.293-.766-.313-.412-1.745-1.178-2.06-1.253-.056-.332 1.846-.294 2.355-.894-.484-.576-2.175-1.18-2.944-1.327.139-.667 1.387-.587 2.356-.7-.775-.97-1.976-1.177-3.24-.926-.137-1.318.256-1.182 1.177-.577-.498-.79-1.369-.882-2.357-1.439.328-1.408.732-2.059-.587-1.357.671.095 2.572.292 3.534-1.37-.464-1.384-3.628-2.943-2.947.075.907.638 1.327.883 2.064-1.71-1.484-2.021-1.876-4.123-2.064-.245.835.414.765.294 1.475-1.858.188-1.5-1.84-3.239-1.768-.244.833.413.762.295 1.473-1.411.132-.808-1.745-2.358-1.473-.093.684.05 1.13.295 1.473-1.12.141-1.839-.125-2.063-.883-.854.254-.33.44-.292 1.178-1.41.133-1.436.322-2.357-.295.083.476-.279.507-.29.884-5.622.795-10.457 3.505-16.498 2.944-.857-.219-.568-1.592-1.765-1.473-.216.902.509.868.294 1.768-1.416.236-1.222-1.134-1.769-1.768-.643-.054-.936.242-.883.885-1.302-.367-.877-2.461-2.652-2.356-.24.832.418.761.296 1.47-1.105-.76-1.637-2.09-2.354-3.237-1.024.516-1.118.258-2.063.588.499 1.76 1.459 3.059 2.357 4.418-1.796-1.447-2.554-3.926-4.122-5.596-.895.552-.827.233-1.768.59.825 2.906 2.585 4.872 4.417 6.774.57-.414 1.804-.16 1.472-1.474.564.119 1.665 2.187 2.057.59.962-.076.848.916 1.471 1.177 1.273-.821 1.016-.116 2.35.296v-.885c5.333.614 13.207-1.616 16.497 2.356 1.578-.468 3.545.624 3.836 2.358.681.092 1.133-.049 1.474-.297 1.695 2.052 5.346 2.07 7.656 4.124 2.684-.105 4.879.41 6.48 1.179.738.049.922-.454 1.176-.884.586.2.676.897 1.18 1.177.432-.256.934-.439.886-1.177.86.218.569 1.588 1.765 1.473.401-.377.401-1.392 0-1.768 1.004-.221.372 1.196 1.468.883.232-.262.32-.664.297-1.178.587.003.374.804 1.18.59-.026-.804.49-.592 0-1.178 1.212-.232.551 1.41 1.767 1.178.588-.587-.095-1.402-.296-2.063.344.048.525-.064.59-.293.997.181.47 1.884 1.767 1.766.379-.388.379-1.085 0-1.473.954.421 2.22.532 2.947 1.179" fill="#381400" transform="matrix(.66282 0 0 .66282 -68.947 186.766)"/><path d="M151.152 236.09c1.34-1.115 1.719-3.191 4.419-2.945-.584 1.871-3.043 1.864-3.24 4.122 2.649-.05 3.596-4.442 5.594-3.239-1.442 1.108-3.422 1.683-4.12 3.535 1.491.521 2.459-1.796 4.12-2.062.427.118-2.79 1.467-2.945 2.946 1.023.234 1.247-.327 1.77-.588-.991 3.061-5.045.086-5.598-1.768zm5.89 3.534c1.385-1.659 3.686-2.4 4.711-4.419-2.302-.174-1.356 1.09-2.058-1.177 1.101-.021 2.033.125 2.65.59-.66.127-.121 1.451-.296 2.062-2.009.448-3.49 2.984-5.008 2.944zm.295 2.652c1.075-2.167 3.067-3.415 5.008-4.713-1.17 2.072-3.324 3.157-5.008 4.713zm.588 1.473c1.987-1.09 3.199-4.424 5.598-4.125.229.065.342.248.294.59-1.477 1.177-4.6 2.267-3.826 4.711 1.898-.922 3.628-4.905 5.886-3.534-1.96 1.404-5.573 2.637-5.298 5.302-1.459-.408-1.883-1.853-2.654-2.944zm9.426-2.062c1.909 1.033 4.642 1.248 7.657 1.177.16 1.533-1.252 1.497-2.65 1.473-2.38 1.056-3.757 3.118-6.186 4.123-.495-2.308 3.496-2.559 4.125-4.71-3.15-.518-4.093 3.503-7.07 4.12.777-2.758 4.056-3.01 5.301-5.3-2.984-.386-5.284 3.898-7.07 4.713-.627-2.178 3.75-4.252 5.893-5.596zm4.416 6.184c.462-1.307 1.65-1.886 2.946-2.355-.003 1.764-1.185 2.352-2.354 2.944-.032-.36-.09-.699-.592-.59zm.592 2.652c1.524-.735 2.068-2.451 3.533-3.24.773 1.365-3.819 2.425-1.767 4.121 1.432-.56 2.875-4.375 4.419-2.06-1.479.583-2.644 1.477-3.24 2.945.296-.003.35.238.588.295 1.493-.865 2.45-2.263 4.123-2.947.29 1.628-2.727 2.331-3.535 3.83-1.479-.879-3.633-1.078-4.121-2.944zm7.656 17.374c.068 1.904-.47 4.888-.588 6.186-.139-1.336-1.202-1.747-1.178-3.239 1.728.157.606-2.536 1.766-2.947zm-2.063 2.063c-.145-2.01.284-3.45 1.18-4.42.497 1.45-.684 3.059-1.18 4.42zm2.357-8.21c1.306-10.246 15.826-13.478 22.972-17.413.166 1.348-1.061 3.222.59 3.534.189-1.11.648-3.111 0-4.122.861.076.901-.668 1.766-.59.468 1.557-.953 3.322.292 3.828.576-1.387.091-3.836 1.179-4.711 1.38-.301-.05 2.21.883 2.355.862-.415-.466-3.018.884-2.944.262 2.13-1.183 4.109-.587 5.596 1.899-1.048.456-5.435 2.355-6.48-.004 2.552-1.294 5.376-.588 7.657 1.64-1.995.28-6.984 2.354-8.543.051 2.603-.672 4.435-.881 6.776 2.75 6.256-1.496 11.926-.885 18.847-1.662 4.525-6.559 7.38-8.54 10.603 2.662-.276 4.216-3.82 5.888-3.239-.099-1.28.225-2.133 1.18-2.356.116 1.75.128 3.603 1.177 4.419.783-3.21-1.607-5.667 0-7.07.357 2 .05 4.664 1.18 5.891 1.595-2.956-1.63-6.75 0-7.952.89 1.957-.073 5.768 1.473 7.068 1.239-4.108-1.886-7.915-.885-11.78 1.035 2.205.21 6.268 2.061 7.657 1.326-4.049-2.944-9.19-.882-12.076.466 3.164.642 6.623 1.765 9.131 1.801-3.75-2.85-10.279-.883-13.252.912 3.31.484 7.959 2.652 10.016-.134-5.167-2.572-10.697-1.476-14.43.751 3.08.55 7.115 1.768 9.723 1.556-.753-.457-3.844.294-4.702 1.457 2.182 1.496 4.69 1.182 7.086-1.292 9.764-5.781 22.318-18.85 16.53.745.13 2.128-.807 1.473-.807h-4.125c-.475-1.333-.467-1.963-.882-2.725-7.932-.495-16.996-2.971-15.904-11.524zm.588 14.393c.092-1.25.399-4.66 1.767-5.595.079.415.645.335.884.59-.763 1.789-1.135 3.967-2.65 5.005zm3.536-4.143h.883c-.564 2.667-1.792 4.492-2.355 7.07-1.818-2.031 1.154-4.403 1.472-7.07zm-1.181 7.383c2.127-1.115 1.935-4.547 3.241-6.479.195.396.631.55 1.18.588-1.286 2.445-1.844 5.621-3.829 7.364.045-.732-.465-.912-.592-1.473zm2.064 4.122c-.141-3.401 2.71-6.305 3.536-9.717.945-.067 1.244.519 2.355.295-.586 1.48-1.606 4.08-2.355 4.417-.01-1.301 2.584-3.312.588-3.83-1.739 2.58-2.585 6.054-4.124 8.835zm1.472.59c-.26 1.042.757 1.517-.295 1.768-.501-.476-.272-1.519.295-1.768zm1.473.294c1.419-3.488 2.363-7.454 4.712-10.013-1.072 2.77-2.746 5.524-3.829 8.247-.283.71.38 1.657-.883 1.766zm2.059-.372c.845-3.476 3.021-5.35 3.539-9.35h.882c1.38 2.666-3.874 5.648-2.064 8.984-1.01-.13-1.65.19-2.357.366zm2.653-1.1c1.102-1.846 1.819-4.074 3.24-5.597-.337 2.133-2.452 3.677-1.766 5.892-.43-.163-1.523.344-1.474-.295zm2.06 0c1.171-1.282 1.14-3.77 2.651-4.712.148 1.616-2.157 3.26-.59 4.418 1.413-.75.646-3.676 2.653-3.828-.059 1.326-1.548 2.424-.59 3.828-1.496-.21-2.885 1.228-4.124.294zm4.42-.885c1.076-.59.514-2.824 2.062-2.944.141 1.081-1.527 2.468.292 2.65.238-.853.981-2.735 1.769-2.062-.577-.141-.95 1.352-.295 1.475.607-.179 1.116-.456.884-1.475.992.187 2.735-.377 3.239.296-2.048 1.097-5.276 2.575-7.95 2.06zm20.319-33.572c.768.132.868 2.448.295 2.944-.168-.73-1.066-2.25-.295-2.944zm1.561-10.601v.588c0 3.402.543 10.08.588 12.664-1.198-3.654-.588-10.562-.588-13.252zM221.54 257c.144.35.316.667.589.884.775.088.233-1.143 1.18-.884-.265 1.028.961.504 1.176.295.203 1.477-.708 1.844-1.767 2.062-.466-.45-1.89-2.637-1.178-2.357zm2.945-19.733c.013.972-.12 2.085.885 2.064.691-1.112-.665-3.423.295-4.714.408 1.164.425 2.715.587 4.124-1.92 1.614-.231 6.835-1.472 9.13-.88-2.524-.991-8.399-.295-10.604zm.885 11.193c1 .615.556 3.803-.59 4.124.062-1.512-.259-3.403.59-4.124zm1.766-7.95c-.36 1.994.742 5.453-.588 6.477.204-.978-.636-5.54.588-6.478zm-.292 12.662c1.252-4.34 1.738-10.217 1.174-14.725 1.942 4.08.76 11.682-1.174 14.725zm2.354-.588c-.014 1.465-1.172 3.33-.293 4.71 1.732-2.29 1.165-6.885 2.65-9.423.066.228.007.58.294.589-.067.228-.007.58-.295.588.472 3.207-2.972 9.44-2.062 12.959 1.87-2.548 1.198-7.639 3.537-9.718-.33 4.514-3.625 9.095-2.359 13.251 1.292-2.732 1.308-6.743 2.651-9.423.843 4.063-3.199 8.698-1.767 12.368 1.486-1.754 1.062-5.417 2.358-7.361.257 4.384-2.66 7.156-1.475 11.487.996-1.755.988-4.512 1.475-6.775.728-.115 1.292 1.417.884 1.47-1.106-.207-2.086 5.037-.884 6.186.896-1.555.666-4.241 1.469-5.89 1.407 1.96-1.705 4.315-.293 7.067.882-.982.593-3.137 1.473-4.121.877.3.257 2.099.883 2.65.39-.003.27-.517.589-.587 1.512 2.608 4.523 3.721 7.361 5.006-4.558-.168-8.528 1.342-11.778-.589-3.112-1.85-5.603-9.367-6.186-13.843-.621-4.778-.262-8.234 1.768-10.601zm8.246 27.388c1.572.013 2.522-.135 3.242-.296-.013.896-.172 1.939.882 1.768.646-.619.062-1.308-.296-1.768 1.573 0 .785 2.356 2.357 2.356.173-1.15-.252-1.71-.588-2.356 2.135-.172 1.059 2.868 2.65 3.241 0-.297.237-.35.295-.59-.197-1.176-.733-2.018-1.18-2.944 2.672-.315.895 3.814 3.243 3.829.243-2.015-.815-2.721-.885-4.417 1.492.96 1.444 3.461 2.354 5.005-4.669-.633-8.924-1.677-12.074-3.828zM250.105 284c1.235-2.667-2.208-4.897-.884-6.185.439 2.412 1.854 3.518 2.359 6.185h-1.475zm1.768-.201c2.484-1.774-2.936-5.383-1.176-7.364-1.005-.332-.7-.435-.592-1.768h1.182c.344 4 2.18 6.362 2.944 9.72-.958-.026-1.812-.151-2.358-.588zm.296-8.539c2.04 2.476 3.304 7.296 3.827 10.308-1.153-3.559-2.53-6.89-3.827-10.308zm2.944.295c-.936 1.341 1.314 3.317.59 4.417-.372-1.787-1.278-3.043-1.766-4.712.947.064 1.242-.521 2.354-.293.484 3.294 3.674 6.861 2.652 9.717-1.224-3.095-1.568-7.072-3.83-9.13zm2.358-.886c.71.122.641-.534 1.472-.293.636 2.505.973 5.31 2.649 6.775-.756.028-.419 1.149-1.175 1.176-1.132-2.406-2.033-5.036-2.946-7.658zm4.121 5.892c-.04-2.902-1.323-4.568-1.765-7.069.404.015.646-.137.884-.293.172 2.518 3.378 5.769.881 7.362zm2.063-2.65c-.738-1.716-1.324-3.586-2.063-5.3.615-.171.84-.732 1.77-.591-.318 2.128 1.711 4.565.293 5.89zm1.47-2.356c1.884-1.535-.988-4.198.59-5.892.39 1.182.11 3.034 1.474 3.241-.812.757-.71 2.428-2.064 2.65zm2.064-3.83c.068-1.334-1.848-3.528-.296-4.418.015 1.37 1.206 3.105.296 4.418zm-5.302-31.216c1.144 3.372 3.278 5.752 4.124 9.424-4.415-3.441-4.318-11.388-8.836-14.728 2.205 5.16 4.421 10.306 6.773 15.318-4.332-5.094-6.16-12.688-10.6-17.671 1.82 4.636 4.192 9.573 6.479 13.841.786 1.467 2.4 2.676 1.765 4.122-1.567-.482-1.64-2.503-2.355-3.828-.748-1.394-1.653-2.703-2.357-4.123-1.396-2.828-2.515-6.161-4.71-7.363 2.087 5.275 4.93 9.794 7.067 15.022-1.75.221-3.16-2.298-5.3-2.652-1.621-8.002-8.068-11.175-12.96-15.902 3.296 3.379 7.858 7.062 9.72 10.895-4.464-5.352-10.302-9.335-15.02-14.43-.225-.695 1.164-.291 1.176-1.474-1.016-2.025-3.276-2.805-4.71-4.417 2.857 1.07 4.256 3.6 6.773 5.005.435-.692.62-.545.295-1.47 1.032-.037 1.645 1.869 2.65.882-.554-2.587-3.496-2.787-4.714-4.71 3.226.526 4.358 4.645 7.365 4.417-.525-2.519-3.199-2.888-4.42-4.714 3.937.284 3.95 4.495 7.661 5.007.824-.44-.75-1.239 0-1.472.372.715 2.148 2.125 2.651.883-.944-1.904-3.183-2.51-4.127-4.418 2.636.61 3.891 4.159 6.479 3.83-.273-2.179-2.673-2.232-3.535-3.83 3.48-.021 3.823 4.594 6.775 4.126-.035-1.975-3.983-3.022-2.943-4.126 2.703.246 3.339 4.12 5.89 3.535-.003-1.447-3.264-2.525-2.063-3.239 1.576 1.174 2.35 3.15 4.712 3.534.24-1.595-3.005-2.579-1.765-3.24 2.568.182 2.312 3.182 5.005 3.24.416-1.506-2.475-2.483-1.177-2.944 2.261.136 3.132 3.09 5.008 2.649.078-1.259-1.076-1.28-1.474-2.061 3.422-.834 3.631 2.992 5.595 2.652.137-.899-2.243-1.843-.884-2.063 9.79 1.893 19.241 4.119 25.916 9.13-3.225 2.467-9.043 2.342-14.135 2.945 2.583 8.812-8.906 5.982-13.548 8.54-.192 1.173.782 1.182.59 2.356-.768 1.292-2.32 1.802-3.83 2.357-1.625-2.988-2.416-6.815-5.006-8.835zm4.418 10.895c2.039.515 2.607 2.499 4.418 3.239 0-.295.241-.348.294-.588-.47-1.591-2.03-2.09-2.942-3.24 1.937-1.438 2.681 2.07 4.418 2.652.066-.42.479-.496.584-.883-.812-1.153-1.913-2.013-2.648-3.24 1.71.745 2.631 2.275 3.532 3.828-.97 1.088-2.433 1.69-4.122 2.061-1.255-1.198-2.768-2.142-3.534-3.829zm7.951-.881c-1.145-.524-2.168-1.17-2.356-2.652 1.237-.536 2.396 1.257 3.241 2.062-.505-.016-.754.226-.885.59zm-.295-4.126c-.87-.422-2.334.338-2.061-1.472 3.11.066 6.187.1 8.245-.884 1.806 2.027 4.226 3.435 5.891 5.596.661-3.146-3.67-3.77-4.713-6.184 2.392-.13 3.429 3.372 5.596 4.418.961-2.868-2.959-3.291-3.532-5.595 2.516-.224 3.817 3.225 5.596 4.71-1.36 1.293-2.152 3.153-4.714 3.24-.612-2.827-3.413-5.026-5.888-5.006 1.502 1.932 4.238 2.637 5.006 5.303-2.912-.388-4.026-5.518-6.774-4.126 1.198 1.65 3.323 2.372 4.123 4.418-2.715-.999-4.42-3.272-6.775-4.418zm15.316-.881c-.93-2.212-3.316-2.97-4.417-5.007 1.723 1.223 4.676 2.78 4.417 5.007zm-3.944-5.892v-2.652c0 .184 2.259-.37 2.572.295-1.901.197 1.272 2.417.218 1.768-.73-.174-1.542-1.748-2.334-.884.611 2.24 4.263 3.044 4.167 5.008-1.396-1.356-3.29-2.839-4.623-3.535zm4.531.885c.721.339 1.428 1.664 2.359.882-.159-1.418-2.86-1.843-2.359-2.944.924.914 2.288 2.728 3.536 2.356-.613-2.042-2.947-2.355-3.83-4.123 2.545.597 2.913 3.372 5.302 4.123.017-2.474-2.499-2.41-2.945-4.419 2.588-.133 3.046 1.864 4.122 3.24-1.016 3.348-6.328 2.976-6.185.885zm7.365-1.768c-.722-1.046-1.788-1.745-2.357-2.945 1.461.119 2.799 1.904 2.357 2.945zm0-3.829c.8.867 2.024 1.313 2.355 2.65-1.447-.031-2.61-1.893-2.355-2.65zm1.178-.884c1.36.605 2.228 1.7 3.238 2.652-1.544-.42-2.552-1.375-3.238-2.652zm2.944-3.239c1.282 1.862 4.174 3.678 4.414 5.595-1.033-1.933-5.062-3.928-4.414-5.595zm2.946-.589c1.738-.943 3.53 1.83 2.356 2.945-.432-1.337-1.717-1.818-2.356-2.945zm2.946-1.177c.188.521 1.452 1.461.586 2.061-.23-.677-2.013-1.496-.586-2.061zm.586-.884c.558-.034.207-.972.884-.883a11.18 11.18 0 011.179 2.061c-.587.003-.375.803-1.179.587.016-.896-.621-1.144-.884-1.765zm3.24 0c-1.156-.323-2.468-2.039-1.765-3.24.403 1.158 2.241 2.149 1.765 3.24zm.884-1.768c-.566-.034-2.956-2.33-2.357-3.532.559 1.278 2.353 2.66 2.357 3.532zm.296-.883c.096-2.452-3.516-2.763-2.653-5.005.66 1.698 3.552 2.724 2.653 5.005zm-10.898 8.54c-.234-.65-1.383-.383-1.472-1.176.494-.723 1.956.987 1.472 1.176zM245.1 223.427c-.439-.54-1.23-.735-1.472-1.474 1.275-.468 1.85 1.264 1.472 1.474zm62.73 1.178c.014-.632-.689-2.024-1.177-1.178-.048 1.766 1.618 1.846.883 3.533-.683.783-.788-.78-1.473 0 .168.615.84.953.296 1.473-2.308.347-3.887 1.415-6.775 1.179.097 1.175.016 2.175-.588 2.648-17-9.51-43.001-12.475-68.915-11.188 1.031-2.708-.788-7.327.883-8.836.992.141.972 2.348 2.064 1.47.41-.96-1.468-1.902 0-2.06 1.277.39.865 2.473 2.65 2.357.605-1.524-2.151-2.378-.591-2.946 2.209 2.862 3.333 7.46 6.774 8.542-.298-2.45-2.541-2.96-3.533-4.714.668-2.442-2.73-3.269-1.475-4.416 2.064 1.175 1.378 5.1 4.124 5.595.806-1.96-3.033-4.741-2.061-5.892.864 2.281 2.961 4.195 4.124 6.187.544.936.49 3.45 2.353 2.65-1.342-3.465-3.116-6.505-5.301-9.13 21.636-2.531 50.136-3.539 65.381 5.301.572 1.688 1.936 2.581 2.654 4.123-.195 1.673.385 4.118-.298 5.302zm-78.34 1.178c5.494 6.778 12.811 11.732 17.967 18.848-5.685-1.786-7.972-6.152-11.485-10.014-1.115-1.225-2.272-2.281-3.241-3.533-.82-1.06-1.595-3.15-3.24-2.945 1.372 1.954 2.933 4.161 4.712 6.186 1.548 1.759 4.473 3.92 4.125 5.592-4.17-2.998-6.23-8.102-9.717-11.778 1.157.08.084-2.075.88-2.356zm21.207 18.554c.994.576 1.766 1.374 2.059 2.65-1.983-.667-4.015-1.283-4.119-3.828-.685.093-1.133-.048-1.474-.295-4.139-4.99-8.831-9.43-13.843-13.547-.235-1.968-3.123-4.281-2.944-4.712 6.428 7.218 15.432 11.859 20.028 20.911.09-.4.417-.564.293-1.179zm14.722 10.896c-.402-.012-.643.139-.882.295.131-.655-.908-1.597-.293-1.768.053.83 1.397.368 1.175 1.473zm-30.332 4.416c-.308-3.169-1.447-6.288-1.176-9.126.133-1.41 1.044-2.715 1.176-4.126.205-2.172-1.115-4.666.293-6.48.685 2.658-.033 6.715 1.475 8.543.312-1.837-.574-4.883-.292-7.657 1.494 1.349.168 5.526 2.065 6.48.103-2.168-.575-3.548-.588-5.596 1.495-.023-.264 3.217 1.187 3.238.262-.816-.59-2.765.604-2.649 1.316.744.169 4.143 1.502 4.71v-3.533c2.667-.518.292 3.564 2.032 4.712.768-.605-.238-2.957.559-3.534 6.877 5.032 20.325 7.666 21.495 18.554.876 8.123-7.115 10.814-16.198 10.603-.64.633-.738 1.81-1.173 2.648-1.695.028-3.405.065-4.713-.293-2.88-3.392-7.278-5.792-8.248-11.19-.26-1.462.181-3.437 0-5.304zm-2.651-21.202c.68 2.208-1.047 3.537 0 0zm-1.472 2.356c-.373-.52-.045-3 .296-2.652-.184.8.375 2.338-.296 2.652zm-2.353-11.78c1.944 3.256 4.17 6.232 6.476 9.128-1.967-.682-3.538-1.762-5.3-2.65-.272-1.813-.347-1.976.589-1.766-.745-1.554-3.805-2.97-1.765-4.712zm-1.476-4.124c.357-3.755.008-9.491.592-12.074.009 3.82 1.042 9.136-.592 12.074zm-1.175 0c-2.144-1.774-.068-6.386 0-8.835 1.71 2.453-.63 5.547 0 8.835zm0-15.902c-1.575 1.292-4.467-2.01-3.537-4.125.353 2.2 1.529 3.577 3.537 4.125zm-1.181 3.828c-.227-.202-.766-1.754.296-1.473.194 1.367-.267 4.441-.296 1.473zm0 6.184c-1.068.071-.662-2.85-.295-3.24.452.428-.496 2.474.295 3.24zm-.587 2.944c-.35 3.235 1.419 5.63 0 8.247.336-2.728-.89-6.912 0-8.247zm-1.525 4.714v4.122c0 .031-1.334-4.201 0-4.122zm.05 11.78c-.238-1.598-.822-5.078.298-6.187-.198 1.97.385 4.71-.298 6.187zm.591 14.137c.055 2.323-.065 5.073-.293 2.356-.102-1.205.072-3.863 0-5.596.064-.228.005-.581.293-.59.092.398.417.562.293 1.18.203 1.182-.28 1.68-.293 2.65zm-1.18-39.465c.448.633 1.63.53 1.77 1.473-1.813 2.116-.417 7.437-1.475 10.307-.346-2.835-.542-6.923 0-9.719.185-.796-1.795-1.819-.295-2.061zm-7.068 25.622c-.01 1.068.167 2.326-.588 2.65.41-1.276-.484-2.038.588-2.65zm4.42-8.837c-.833 1.137-1.725 3.77-2.065 4.421.33.028.461-.429.589 0-.345 2.502-3.892 3.364-5.595 3.534 2.688-2.127 4.748-6.444 7.071-7.955zm-.295-.881c-4.049 3.116-5.914 8.421-10.601 10.894 1.773-3.829 7.996-7.308 9.42-11.484-6.065 5.026-10.384 13.372-18.55 15.316 6.125-6.146 12.82-11.721 19.438-17.378-.6 1.073-.053 1.758.293 2.652zm-1.181-7.362c-24.013-3.054-51.888-1.565-69.205 7.067-1.074-.601-.056-1.953-.591-2.65-2.87-.04-5.017-1.482-6.776-1.767-.25-.688 1.033-1.27.296-1.472-.556-.067-.648.33-1.176.293-.69-2.25 1.825-2.564.88-4.123-.847.034-.51 1.255-1.468 1.178-.51-4.531 1.56-6.488 3.237-8.835 16.535-8.428 45.383-4.967 65.087-1.767-.664 2.99-4.681 5.122-5.007 9.424 2.892-2.412 4.268-6.333 7.067-8.837-.076 1.433-3.415 3.608-2.652 5.892 2.344-.897 2.596-3.887 4.124-5.595.47 2.984-4.13 5.83-5.299 9.13 3.718-1.483 4.692-5.712 7.363-8.247.877.82-1.773 1.777-.59 2.945 1.49-.277 1.158-2.376 2.947-2.356.828.635-1.709 1.716 0 2.356.975-.102.346-1.813 1.763-1.472.95 1.914-.463 6.503 0 8.836zm-78.337 1.471c-.067.557.334.65.297 1.179-.347.538-.77.997-1.181 1.472-1.052-.766-.159-2.306.884-2.651zm-.588-2.356c-.06 1.707-.996 2.536-2.064 3.24-.543-1.248 1.196-2.456 2.064-3.24zm0-2.06c-.434 1.379-2.355 3.928-3.24 2.945 1.694-.369 1.601-2.522 3.24-2.945zm0-1.77c-.995 1.562-2.648 2.46-3.534 4.126.092-2.11 2.808-4.597 3.534-4.125zm.588 10.014c.084-.996.354-1.805 1.472-1.767-.295.782-.484 1.676-1.472 1.767zm.885 1.768c-.079-1.545 1.844-3.579 2.947-2.061-1.16.404-1.791 2.606-2.947 2.061zm.587 3.532c2.184-1.544 3.461-3.997 5.892-5.3-1.39 2.147-4.211 4.425-5.892 5.3zm4.713.885c.788-.937 2.728-3.34 3.533-2.356-1.413.551-1.852 2.075-3.533 2.356zm2.064.883c.313-1.45 1.763-1.768 2.65-2.65-.695 1.075-1.04 2.497-2.65 2.65zm55.07-11.19c.407-.374.129-1.443.885-1.474 0 .39.514.272.588.59-.388.223-2.119 1.498-1.472.885zm-6.773 20.615c.048.442-.105 1.087.294 1.178.914-.655 1.277-1.864 1.472-3.24 6.122-4.972 12.706-11.05 18.85-15.02-5.529 6.157-12.157 11.212-18.554 16.493-.236.552-.494 1.077-.591 1.767-1.13.346-2.712 1.794-3.825 1.177.737-.83 1.389-1.75 2.354-2.355zm-11.192 7.951c-.446.07-1.948.29-2.357 0 .308-.31 2.104-.607 2.357 0zm-2.653 1.18c-.596.183-.08 1.487-1.173 1.176-.834-.545.992-1.725 1.173-1.176zm-18.55-19.439c-5.42-.47-11.06-.72-13.843-3.828 7.228-4.16 16.665-6.113 26.8-7.364-.1.896-2.075 1.438-1.178 2.358 1.852-.508 2.539-3.742 5.3-2.358-.664.396-1.966 1.127-1.177 2.063 1.97-.583 2.565-2.539 5.008-2.652.616.639-2.353 1.75-1.18 2.947 2.243-.219 2.761-3.712 5.304-2.65-.893.874-2.421 1.115-2.359 2.944 2.291-.654 3.402-2.492 5.304-3.533-.454 1.61-2.613 1.512-2.653 3.533 3.107-.232 3.185-3.49 6.48-3.533-.713 1.839-3.261 1.845-3.535 4.121 3.266.023 3.766-4.281 6.775-3.532-1.357 1.095-3.399 1.507-3.83 3.532 3.095-.44 4.329-2.74 6.773-3.829-.61 2.336-3.775 2.115-4.123 4.715 1.628.532 2.316-1.402 2.948-.886-.792-.008-.792 1.483 0 1.474 2.85-.73 4.383-5.758 7.359-4.418-1.178 1.268-5.514 2.212-3.826 4.418 2.472-1.066 4.232-4.403 7.068-4.124-1.638 1.341-5.206 2.216-5.009 4.417 1.323.323 1.996-1.519 2.65-.881-.477-.212-.477 1.386 0 1.177 2.822-.719 4.58-4.061 7.073-4.124-1.794 1.252-3.887 2.205-5.01 4.124-.145.93 1.463.11 1.179 1.177-4.96 5.055-11.207 8.82-16.199 13.843 2.532-3.852 7.319-7.013 9.72-10.016-4.973 4.885-11.029 7.148-12.96 14.727-2.066.332-3.77 2.45-5.3 2.357 2.086-5.285 6.344-9.941 7.656-15.019-2.885 3.359-5.128 7.846-7.36 11.483-.72 1.172-1.242 3.341-2.945 3.536 2.175-5.385 7.544-11.695 9.424-17.375-4.597 4.926-7.044 12.003-11.488 17.079 2.155-5.015 5.99-9.913 7.068-15.02-3.688 4.07-5.101 10.408-8.835 14.432-.112-3.288 3.899-6.475 4.124-9.425-2.13 2.385-3.75 5.282-5.006 8.542-1.598-.564-3.296-1.025-3.83-2.652-.146-1.228.862-1.297.59-2.649-5.467-1.663-15.962-.903-12.958-9.13zm-14.137 2.06c.679-1.184 1.258-2.469 2.65-2.945.276 1.065-1.48 2.376-2.65 2.945zm5.595 6.186c.524 7.037 6.852 9.837 14.43 8.836 1.342 3.774 5.671 6.093 10.309 5.594-2.148 3.826-4.418 6.85-4.418 11.782 0 7.548 6.4 12.314 8.542 17.67.388 1.283.021 3.314 1.177 3.83 2.088-.172 2.863-2.258 4.416-2.947 2.179-.963 4.497-.583 6.775-.883 14.217-1.872 22.577-9.23 24.444-24.74.954-.249 3.216.934 4.124-.586.834 10.938 5.401 20.629 15.314 24.148 4.763 1.693 10.04.968 14.136 2.945 1.635.787 5.394 6.552 5.595.293 2.767-6.341 10.641-11.132 9.719-20.614-.375-3.848-2.326-5.88-3.828-9.131 4.362.39 9.618-.752 10.308-5.004 7.894 1.297 14.637-1.056 15.314-7.953 4.794-.299 6.556-6.21 11.191-5.89 2.517.174 3.121 2.662 5.89 2.062-.123-2.587-.931-5.002 0-7.658 1.037-2.953 4.87-5.157 5.595-7.952-.309-9.153-8.784-12.134-18.26-15.314-18.07-6.067-49.734-3.771-66.852.884-1.31-1.882.615-4.355.59-6.772.442-1.031 2.028-.919 2.356-2.063.128-1.012-.118-1.652-.295-2.356 4.52-4.432 8.41-10.39 11.487-17.083 1.462-3.184 3.613-7.461 1.47-11.19-3.445-.415-3.288 5.836-2.061 7.36-1.781 8.624-6.216 14.589-11.484 19.73-3.468-.804-8.139-2.958-11.193-.005-6.011-5.272-6.096-17.564-5.007-26.813-.103-.385-.516-.904-.588-.904h-.588c-2.093 1.333-1.785 4.767-1.768 6.795.06 8.069 2.873 17.781 7.07 21.816-.249.734-.385 1.577-.294 2.65.31.57 1.356.41 1.765.883-.154 2.707.042 5.061 1.471 6.187-1.044.72-2.177 1.354-2.943 2.354-19.361-7.164-64.29-11.484-80.99.884-1.598 1.183-4.164 4.587-4.418 6.48-.509 3.784 3.748 6.115 5.006 10.012.908 2.804-.378 5.603 0 8.244 2.853-.121 3.221-1.962 5.597-2.06 4.676-.19 6.14 6.046 10.896 6.479" fill="#381400" transform="matrix(.66282 0 0 .66282 -68.947 186.766)"/><path d="M200.039 261.417c.346.782-.562 1.735 0 1.768.424-.758.69-1.666 1.768-1.768-.728 2.73-2.422 7.228-4.712 6.48-.364.692-.972 2.12-1.768 1.472 1.138-3.084 2.404-6.038 4.712-7.952M245.985 263.773c.004-.693-.509-.865-.294-1.766 2.484 1.737 3.325 5.118 4.414 8.246-1.605.331-1.016-1.533-2.057-1.768-2.005.743-3.167-4.234-4.124-6.478 1.52-.244 1.295 1.254 2.061 1.766" fill="#381400" transform="matrix(.66282 0 0 .66282 -68.947 186.766)"/><path d="M187.673 260.24c-.468 1.297-1.04 2.496-2.062 3.239.281-1.486.777-2.755 2.062-3.239zm-1.476 5.89c-.048-1.285 1.055-2.629 1.77-3.827.654-1.099 1.462-3.259 2.061-2.654-1.405 2.032-2.168 4.707-3.83 6.482zm3.535-3.827c-.247 2.4-1.616 3.682-2.355 5.594-.972-1.557 1.746-3.74 2.355-5.594zm-1.765 6.182c1.304-1.05 1.505-3.204 2.646-4.417 1.499 1.237-1.862 3.127-.585 5.007 1.45-.519 1.043-4.448 2.945-3.535-.564 1.075-2.484 3.376-1.176 4.42 1.648-3.552 4.29-6.115 6.182-9.427.648 2.087 2.381-2.297 2.06-1.176.162.428-.343 1.522.298 1.474 1.807-.256 1.408-2.714 2.65-3.536 2.178 9.213-7.627 17.104-15.02 11.19zm12.665-15.901c.128 1.657-1.86 3.596-2.948 5.004-.465-2.088 1.719-3.67 2.948-5.004zm-1.475-.59c-.689 1.663-2.026 2.687-2.944 4.123-.58-1.394 2.052-3.318 1.471-4.713.907-.22.567.808 1.473.59zm-2.062-.295c-1.234.826-1.164 2.958-2.648 3.534-.4-1.189 1.752-2.096 1.766-3.829.347.048.838-.05.882.295zm-.588 6.185c.018 2.908-1.284 6.353-3.534 6.184-4.765-.357-.385-12.477 3.534-6.184zm-1.474-5.595c-1.313 2.122-4.142 4.294-6.181 4.711.435-.25.63-.743.588-1.472 1.952-.116 2.907-1.764 2.944-2.944.867.059 1.95-1.167 2.65-.295zm-10.894 9.718c-.191 5.864 5.301 11.629 12.368 9.718 4.785-1.293 8.446-7.044 8.245-12.664-.119-3.364-2.097-7.956-6.181-8.538-5.974-.852-14.194 4.137-14.432 11.484M243.335 257.588c.897 1.265.538 3.78 2.65 3.83.404-1.02-.921-2.694-.294-2.06.764.782 1.274 3.349 2.65 1.766 1.111 3.893 3.818 6.193 5.3 9.72 1.644-.981-1.78-3.979-.293-4.713 1.064.997.897 3.222 2.059 4.122 1.168-1.808-1.42-3.534-.588-5.006 1.516.937 1.566 3.342 2.652 4.713-8.236 5.012-17.07-3.435-14.136-12.372zm14.428 11.781c.186-2.448-2.232-3.846-1.472-5.89.882 1.573 1.082 3.828 2.652 4.713-.758.03-.419 1.15-1.18 1.177zm1.18-1.766c-.446-2.431-2.948-5.85-2.652-7.07.726 2.252 3.692 4.967 2.652 7.07zm.884-2.65c-.184-1.085-2.288-3.092-1.18-3.536.286 1.098 2.078 2.232 1.18 3.536zm-2.652-6.186c-1.827-2.002-4.848-2.807-5.595-5.89 1.124.152 2.205.344 2.65 1.178-.689.973 1.467 2.929 2.357 2.357-.298 1.103 1.22 1.892.588 2.355zm-7.363-6.774c.747 1.218 1.39 2.538 2.061 3.828-1.274-.496-2.242-2.85-2.061-3.828zm2.65 5.007c2.883.4 3.553 8.139 0 7.953-2.1-.11-2.993-3.472-2.945-6.481 1.458-.764 2.024-1.6 2.946-1.472zm-3.825-5.007c-.021 2.08 1.315 2.81 1.468 4.712-1.366-.985-1.98-2.728-2.942-4.121.733.043.912-.464 1.474-.59zm-2.36.884c.022 2.063 3.427 3.482 1.771 5.302-.328-1.755-3.219-3.687-1.77-5.302zm-5.006 6.48c-.548 6.19 3.308 11.935 7.658 13.254 7.182 2.172 12.858-3.39 12.663-9.72-.21-6.9-5.824-11.439-12.955-11.78-3.994-.192-6.981 3.902-7.366 8.246" fill="#381400" transform="matrix(.66282 0 0 .66282 -68.947 186.766)"/></g><use xlink:href="#a" transform="translate(50.255 -55.087)" width="100%" height="100%"/><use xlink:href="#a" transform="translate(102.442 20.295)" width="100%" height="100%"/><use xlink:href="#a" transform="translate(135.3 -50.255)" width="100%" height="100%"/><use xlink:href="#a" transform="translate(434.895 -280.266)" width="100%" height="100%"/><use xlink:href="#a" transform="translate(307.326 -280.266)" width="100%" height="100%"/><use xlink:href="#a" transform="translate(406.868 -211.649)" width="100%" height="100%"/><use xlink:href="#a" transform="translate(279.3 -213.582)" width="100%" height="100%"/></svg>