<svg xmlns="http://www.w3.org/2000/svg" xmlns:xlink="http://www.w3.org/1999/xlink" height="420" width="600"><g id="a" stroke-width=".285"><path d="M543.459 158.27c-.766 1.805-1.38 3.763-2.47 5.245.602-1.97 1.215-3.927 2.47-5.246M483.592 186.35c.739-1.63 3.152-3.22 4.32-3.394-1.597.975-2.264 2.88-4.32 3.395M494.392 172.773c.532-1.66-.223-3.729.617-5.554.315 2.153.372 4.565.31 7.097-1.567.125-2.256-.624-3.086-1.235.19-.837-.392-2.449.307-2.777.236 1.204.34 2.541 1.852 2.47M534.817 171.23c-.146-3.953 2.278-5.335 3.704-7.715-1.145 2.662-1.437 6.174-3.704 7.714M546.544 146.85c.179 1.003-.21 1.437-.308 2.16-.904.28-.95.28-1.853 0-.072-1.511.918-1.96 2.161-2.16M493.468 179.252c.177-1.001-.212-1.435-.31-2.16 1.614-.63 1.73 2.453.31 2.16M511.673 69.333h.926c.07 1.334 1.286 4.88.617 6.788-.216-2.56-1.327-4.121-1.543-6.788M529.333 119.387v2.468c-1.333 2.653-.493-2.102-.498-2.159-.91-11.336-2.814-23.137-4.534-31.476 2.847 9.188 3.699 20.207 5.032 31.167M524.635 119.696c-.196 3.715.396 9.859-.31 12.035.196-3.716-.397-9.859.31-12.035M522.473 121.855c-.64.318-.16-3.12-.308-4.319-.826-1.781-.877-7.51-.308-8.641-.008 4.534.879 8.173.616 12.96M524.325 116.3c-.082.661.239 3.292-.308 2.47.083-.66-.238-3.293.308-2.47M522.165 76.493c.11 2.256.675 4.056 1.235 5.864-1.304-.862-1.659-4.302-1.235-5.864M523.708 164.75c-.747 3.058-1.896 5.715-3.703 7.714.956-2.748 1.635-5.77 2.778-8.332-.04.555.305.723.925.617M521.24 107.66c.083-.66-.239-3.29.308-2.468-.083.66.24 3.292-.308 2.468M497.787 138.828c1.158-.496 2.186-2.741 3.085-2.468-.764.888-2.188 2.737-3.085 2.468M523.09 141.915c-.28 3.832-.733-4.39.618-4.631-.013 1.735-.327 3.172-.617 4.63M512.29 88.528c.546-.277.902-.745 1.543-.925-.228 1.52-.645 2.852-.925 4.32-.52 2.417-.053-2.904-.617-3.395M515.068 104.267c-.136-2.96-.873-7.151.308-9.568-.204 3.088.41 6.993-.308 9.568M510.748 131.421c.724 5.634-.077 12.215-.927 17.282.286-5.784.35-11.788.927-17.282M511.673 150.863c.647-7.787 1.058-15.812 1.543-23.762-.121 8.315.305 17.174-1.543 23.762M512.29 117.536c-.047-.364.054-.876-.309-.927.099-1.176.22-.989.31-1.852.48-4.65.452.22 0 2.779M511.981 99.02c.047-1.2.224-3.875.618-3.704-.215 1.227.538 3.419-.618 3.704" fill="#fff" transform="matrix(.46837 0 0 .46837 308.013 13.19)"/><path d="M526.485 127.41c.186-12.465-2.728-24.78-4.012-36.413-.016-.53.239-.792.618-.926 1.886 13.389 5.418 27.901 3.394 43.202-.441 1.471 1.291.767.927 2.16-1.188 10.588-3.859 21.187-6.481 29.934-.871 2.906-1.234 6.772-4.012 8.332.954-3.059 1.972-8.727 4.321-11.419 1.523-10.848 5.065-22.73 5.245-34.87M504.576 136.976c-.37 4.775-.821 11.11-1.544 14.504.31-5.04.14-10.559 1.544-14.504M527.412 146.233c1.05-5.325.435-12.318 2.777-16.354-.706 5.672-1.229 11.525-2.777 16.354M499.68 111.981c1.336-1.338 2.987-2.364 4.32-3.704v2.47c-1.333.462-2.993 1.933-4.32 1.234M498.712 107.66c1.61-.859 2.517-2.42 4.937-2.468.042 2.308-3.373 2.79-4.937 2.468M486.37 120.313c-.59-1.489 2.06-3.848 3.086-3.704-1.447.818-1.328 3.198-3.087 3.704M496.244 110.747c.433-.08.352-.678.617-.926.766.4 1.499-.689 1.543 0-.584.259-1.776 1.487-2.16.926M506.119 101.18c.354-1.497-.746-4.448.617-4.937-.035 1.817.215 3.918-.617 4.937M506.736 151.48c-.597 2.18-.745 4.81-.927 7.407-.806-2.786-.098-10.987.618-13.271.08 2.301-.775 4.223.309 5.864M509.204 159.195c-.072 1.264-.15 2.524-.617 3.394-.018-1.356.125-2.55.617-3.394M545.31 70.63c.206 1.337 1.429 1.658 1.543 3.086-1.122-.227-2.093-2.213-1.544-3.085M531.732 141.297c-.081 2.244-1.244 5.939-.927 3.086.09-.791.334-2.055.927-3.086M489.456 72.172c.388-2.083.913-6.695 2.16-8.948.567-1.71-.185.628-.31 1.233-.5 2.432-.353 6.762-1.85 7.715M487.295 75.259c.213.968.824.402 1.544.308v1.544c-1.115.17-2.347-1.128-1.544-1.852M507.353 119.079c.124-.919-.298-3.982.308-3.396-.282 1.517.898 2.689-.308 3.396M505.81 76.493c.054 2.312.37 4.362.926 6.171-1.581-.833-1.992-4.523-.927-6.17M515.068 69.333c.567 4 2.144 9.582 2.16 13.579-1.1-3.867-2.873-10.912-2.777-13.579h.617M548.087 112.907c-2.883-1.046-7.947-2.532-10.8-4.63 4.398.744 7.465 2.82 10.8 4.63M547.47 116.3c1.949.585 2.917-.224 4.01-1.233.599 1.986-3.92 3.86-4.01 1.233M551.48 119.696c-.54-.283-1.539-.107-1.85-.617 1.127.202 1.183-.668 2.16-.618.346 1.103 1.837 2.678 1.235 3.703-.12-1.217-.997-1.677-1.545-2.468M558.27 133.89c-.631-1.578-1.666-4.683-1.234-4.011.595.925 1.973 4.689 1.235 4.01M521.548 65.693c-1.23-3.606-2.65-7.02-3.703-10.801 1.063-.481 2.362-.725 4.012-.617.115 3.508 2.734 7.729 1.851 10.182-1.65-1.333-2.421-6.216-3.703-8.948-2.002 3.147 3.043 7.539 1.543 10.184M529.263 83.281v-.016c.077.099.156.186.244.251a.49.49 0 01-.244-.235M526.485 63.84c-.08-.479-.677-.213-.925 0-.963-2.33-2.225-6-2.16-8.33 1.84 1.762 3.381 5.46 3.085 8.33M526.795 58.904c-.044-1.19-1.044-1.427-.927-2.777.844.198 1.288 2.394.927 2.777M511.78 169.205l-.107.482a.86.86 0 01.107-.482" fill="#fff" transform="matrix(.46837 0 0 .46837 308.013 13.19)"/><path d="M530.497 83.59c-.393.167-.718.129-.99-.074.409.176.918-.459.99.075M530.497 91.615c.484 1.27 2.279 2.854 1.543 4.32-.143-1.612-2.08-3.054-1.543-4.32M531.732 139.753c.363-.766-.144-2.405.925-2.469-.453.68.038 2.3-.925 2.47M529.572 72.172a2.495 2.495 0 00-.367-.948c.368.07.498.379.367.948M529.263 95.316c2.654 4.65 3.848 12.405 2.777 19.75-.512-6.79-2.568-13.683-2.777-19.75M538.521 142.223c-.9-1.466-5.912-1.414-4.012-3.704 1.112 1.258 3.918 2.454 4.012 3.704M527.412 83.281c-2.296-3.156-1.656-9.248-3.087-13.268-1.604 3.168 1.607 9.815.618 12.344-2.047-3.097-1.66-8.628-3.086-12.344-.65.379-.2 1.858-.926 2.159-.122-1.112.113-2.581-.926-2.776-.845 4.344.69 8.977 1.235 12.961-2.279-3.276-2.384-8.726-3.087-13.578 3.451.996 9.47-.08 11.052 2.445a1.28 1.28 0 00-.56.024c.211 4.001.883 7.543.618 12.017-1.584-2.016-.971-10.625-2.16-12.944-1.396 4.211 1.184 10.299.309 12.96M515.068 55.817c-.044-.868.756-.889 1.543-.925-.008 1.153 1.202 2.688.617 3.395-.204-1.598-.844-2.787-2.16-2.47M530.497 122.164c-.442-11.695-2.69-23.23-4.32-32.71 2.082 10.055 5.066 20.855 4.32 32.71M520.313 125.559c.208 10.742-2.302 19.814-3.702 29.316-.974 6.609-1.53 13.349-5.247 17.898-.407-1.857 1.427-3.088.617-4.321.044.361-.096.541-.201.753 2.908-13.204 6.848-29.857 6.065-47.658-.346-7.88-.565-15.826-.926-23.762-.134-2.944-1.524-8.634 1.234-10.182.516 12.513 1.919 25.445 2.16 37.956" fill="#fff" transform="matrix(.46837 0 0 .46837 308.013 13.19)"/><path d="M518.699 165.27c1.52-.723 2.684-9.323 3.132-11.457 1.102-5.265 1.972-10.582 2.826-15.892 1.29-8.006 2.924-15.802 2.682-23.969-.212-7.136-4.335-13.507-2.814-20.801.832-3.991 6.456-2.628 6.059 1.254-.513 5.038 1.555 10.11 2.703 14.944.973 4.099.969 8.358.588 12.534-.675 7.382-2.163 14.684-3.375 21.996-1.064 6.421-2.203 12.861-3.916 19.146-.873 3.204-2.004 7.86-5.97 8.21-3.058.27-4.915-4.538-1.915-5.966M503.636 118.107c.033-7.846-.227-18.623 4.399-25.61.008-.26.008-.521.017-.781.12-3.44 4.673-4.173 5.844-1.519 1.383 1.084 2.056 3.163.635 4.972-.06.075-.107.159-.164.236 1.136 21.623 3.314 44.394-2.963 65.299-.916 3.052-5.797 4.035-6.716.352-3.576-14.316-1.115-28.45-1.052-42.95M509.227 74.639c.02 3.074 3.201 4.513 5.841 4.492 1.213-.01 2.396-.212 3.585-.434.423-.08.843-.165 1.264-.252.891.151 1.788.266 2.68.41.56 1.421 1.991 2.504 3.654 1.801 1.57-.663 2.793-1.28 3.333-3.013.353-1.14-.12-2.783-1.097-3.527-1.874-1.428-4.27-1.652-6.53-2.001-1.164-.179-2.277-.118-3.329.005.568-1.493-.103-3.328-2.039-3.86-4.136-1.137-7.389 2.421-7.362 6.379M513.221 55.676c1.227-1.361 3.062-1.252 4.435-.232 3.117 2.316 4.308 5.995 2.296 9.423-.808 1.374-2.433 2.057-3.93 1.308-1.4-.703-2.053-2.519-1.307-3.93-.09.17.102-.598.149-.488a.491.491 0 010-.096c-.007-.025-.007-.03-.009-.044-.153-.22-.393-.552-.365-.542-.322-.343-.688-.647-1.036-.963-1.264-1.153-1.383-3.157-.232-4.436" fill="#855f00" transform="matrix(.46837 0 0 .46837 308.013 13.19)"/><path d="M499.815 112.373c1.645.339 2.874-.613 3.494-1.992l.027-.032.027-.025c-.064.195-.026.099.038-.039l.003-.004.092-.06c.123-.045.247-.086.372-.121l.011-.003a4.86 4.86 0 01.276-.027c1.61-.118 2.89-1.477 2.805-3.114-.09-1.714-1.502-2.754-3.114-2.804-2.539-.08-5.224 1.35-6.178 3.792-.718 1.84.043 3.996 2.147 4.429M537.019 107.452c2.745.439 5.233 2.136 7.988 2.724 3.557.759 2.364 5.824-1.124 5.427-2.871-.327-6.176-1.44-8.704-2.851-2.831-1.577-1.352-5.81 1.84-5.3M533.463 134.563c3.452 1.064 6.989 3.841 8.318 7.252 1.143 2.933-3.614 5.218-5.03 2.361-1.188-2.392-3.68-3.19-5.755-4.741-2.215-1.655-.183-5.687 2.467-4.872" fill="#855f00" transform="matrix(.46837 0 0 .46837 308.013 13.19)"/><path d="M558.27 133.89c-.631-1.578-1.666-4.683-1.234-4.011.595.925 1.973 4.689 1.235 4.01zm-5.245-11.726c-.12-1.217-.997-1.677-1.545-2.468-.54-.283-1.539-.107-1.85-.617 1.127.202 1.183-.668 2.16-.618.346 1.103 1.837 2.678 1.235 3.703zm-5.554-5.864c1.948.585 2.916-.224 4.009-1.233.599 1.986-3.92 3.86-4.01 1.233zm.616-3.393c-2.883-1.046-7.947-2.532-10.8-4.63 4.398.744 7.465 2.82 10.8 4.63zm-13.578 25.612c1.112 1.258 3.918 2.454 4.012 3.704-.9-1.466-5.912-1.414-4.012-3.704zm-1.852-1.235c-.453.68.038 2.3-.925 2.47.363-.767-.144-2.406.925-2.47zm-.617-22.217c-.512-6.791-2.568-13.684-2.777-19.751 2.654 4.65 3.848 12.405 2.777 19.75zm0-19.132c-.143-1.612-2.08-3.054-1.543-4.32.484 1.27 2.279 2.854 1.543 4.32zm-1.543 26.229c-.442-11.695-2.69-23.23-4.32-32.71 2.082 10.055 5.066 20.855 4.32 32.71zm-1.164-38.899C528 81.25 528.327 72.64 527.14 70.321c-1.396 4.211 1.148 10.299.273 12.96-2.296-3.156-1.656-9.248-3.087-13.268-1.604 3.168 1.607 9.815.618 12.344-2.047-3.097-1.66-8.628-3.086-12.344-.65.379-.2 1.858-.926 2.159-.122-1.112.113-2.581-.926-2.776-.845 4.344.69 8.977 1.235 12.961-2.279-3.276-2.384-8.726-3.087-13.578 3.451.996 9.47-.08 11.052 2.445.368.07.498.379.367.948a2.47 2.47 0 00-.365-.948 1.28 1.28 0 00-.56.024c.21 4.001.884 7.543.621 12.017a1.3 1.3 0 00.248.251c.408.176.928-.459.999.075-.394.166-.702.128-.974-.075-.086-.039-.208-.101-.208-.235v-.016zm-9.328-27.756c-2.002 3.147 3.043 7.539 1.543 10.184-1.23-3.606-2.65-7.02-3.703-10.801 1.063-.481 2.362-.725 4.012-.617.115 3.508 2.734 7.729 1.851 10.182-1.65-1.333-2.421-6.216-3.703-8.948zm5.555 8.331c-.963-2.33-2.225-6-2.16-8.33 1.84 1.762 3.381 5.46 3.085 8.33-.08-.479-.677-.213-.925 0zm1.235-4.936c-.044-1.19-1.044-1.427-.927-2.777.844.198 1.288 2.394.927 2.777zm-8.642 28.699c.516 12.513 1.919 25.445 2.16 37.956.208 10.742-2.302 19.814-3.702 29.316-.974 6.609-1.53 13.349-5.247 17.898-.407-1.857 1.427-3.088.617-4.321.044.361-.096.541-.201.753l-.107.482a.86.86 0 01.107-.482c2.908-13.204 6.848-29.857 6.065-47.658-.346-7.88-.565-15.826-.926-23.762-.134-2.944-1.524-8.634 1.234-10.182zm-.925-29.316c-.204-1.598-.844-2.787-2.16-2.47-.044-.868.756-.889 1.543-.925-.008 1.153 1.202 2.688.617 3.395zm-2.777 11.046h.617c.567 4 2.144 9.582 2.16 13.579-1.1-3.867-2.873-10.912-2.777-13.579zm.617 34.934c-.136-2.96-.873-7.151.308-9.568-.204 3.088.41 6.993-.308 9.568zm-1.235-16.664c-.228 1.52-.645 2.852-.925 4.32-.52 2.417-.053-2.904-.617-3.395.545-.277.901-.745 1.542-.925zm-.617 39.498c-.121 8.315.305 17.174-1.543 23.762.647-7.787 1.058-15.812 1.543-23.762zm-.925-12.344c.48-4.65.452.22 0 2.779-.048-.364.053-.876-.31-.927.099-1.176.22-.989.31-1.852zm-.31-15.737c.047-1.2.224-3.875.618-3.704-.215 1.227.538 3.419-.618 3.704zm1.235-22.899c-.216-2.56-1.327-4.121-1.543-6.788h.926c.07 1.334 1.286 4.88.617 6.788zm-3.395 72.582c.286-5.784.35-11.788.927-17.282.724 5.634-.077 12.215-.927 17.282zm14.814-29.007c-.196 3.715.396 9.859-.31 12.035.196-3.716-.397-9.859.31-12.035zm-.31-3.396c-.082.661.239 3.292-.308 2.47.083-.66-.238-3.293.308-2.47zm-.617 20.984c-.013 1.735-.327 3.172-.617 4.63-.28 3.833-.734-4.389.617-4.63zm-1.543-60.79c.11 2.255.675 4.055 1.235 5.863-1.304-.862-1.659-4.302-1.235-5.864zm-.308 32.4c-.008 4.535.879 8.174.616 12.96-.64.32-.16-3.12-.308-4.318-.826-1.781-.877-7.51-.308-8.641zm-.617-1.234c.083-.66-.239-3.29.308-2.468-.083.66.24 3.292-.308 2.468zm-4.321 66.039c.954-3.059 1.972-8.727 4.321-11.419 1.523-10.848 5.065-22.73 5.245-34.87.186-12.465-2.728-24.78-4.012-36.413-.016-.53.239-.792.618-.926 1.886 13.389 5.418 27.901 3.394 43.202-.441 1.471 1.291.767.927 2.16-1.188 10.588-3.859 21.187-6.481 29.934-.871 2.906-1.234 6.772-4.012 8.332zm3.086-1.235c.956-2.748 1.635-5.77 2.778-8.332-.04.555.305.723.925.617-.747 3.059-1.896 5.716-3.703 7.715zm8.924-52.768c-.908-11.336-3.004-23.137-4.724-31.476 2.848 9.188 3.795 20.207 5.128 31.167v2.468c-1.333 2.653-.398-2.102-.404-2.159zm-1.517 26.537c1.05-5.325.435-12.318 2.777-16.354-.706 5.672-1.229 11.525-2.777 16.354zm3.393-1.85c.09-.791.334-2.055.927-3.086-.081 2.244-1.244 5.939-.927 3.086zM545.31 70.63c.207 1.336 1.43 1.657 1.544 3.085-1.122-.227-2.093-2.213-1.544-3.085zm-36.105 88.564c-.072 1.264-.15 2.524-.617 3.394-.018-1.356.125-2.55.617-3.394zm-2.468-76.531c-1.581-.833-1.992-4.523-.927-6.17.055 2.311.371 4.36.927 6.17zm-15.43-18.207c-.5 2.432-.353 6.762-1.85 7.715.388-2.083.913-6.695 2.16-8.948.567-1.71-.185.628-.31 1.233zm-2.467 12.654c-1.115.17-2.347-1.128-1.544-1.852.213.968.824.402 1.544.308v1.544zm18.514 41.968c.124-.919-.298-3.982.308-3.396-.282 1.517.898 2.689-.308 3.396zm-1.234-17.899c.354-1.497-.746-4.448.617-4.937-.035 1.817.215 3.918-.617 4.937zm.308 44.436c.08 2.301-.775 4.223.309 5.864-.597 2.18-.745 4.81-.927 7.407-.806-2.786-.098-10.987.618-13.271zm-1.851-8.64c-.37 4.775-.821 11.11-1.544 14.504.31-5.04.14-10.559 1.544-14.504zm-.576-26.23c-1.333.463-2.993 1.934-4.32 1.235 1.336-1.338 2.987-2.364 4.32-3.704v2.47zm-.35-5.554c.04 2.308-3.374 2.79-4.938 2.468 1.61-.859 2.517-2.42 4.937-2.468zm-5.246 4.63c-.584.258-1.776 1.486-2.16.925.433-.08.352-.678.617-.926.766.4 1.499-.689 1.543 0zm-8.948 6.787c-1.447.818-1.328 3.198-3.087 3.704-.589-1.489 2.06-3.848 3.087-3.704zm11.416 19.751c-.764.888-2.188 2.737-3.085 2.468 1.158-.496 2.186-2.741 3.085-2.468zm-8.332 33.944c.236 1.204.34 2.541 1.852 2.47.532-1.66-.223-3.73.617-5.555.315 2.153.372 4.565.31 7.097-1.567.125-2.256-.624-3.086-1.235.19-.837-.392-2.449.307-2.777zm.617 6.788c1.615-.63 1.731 2.453.311 2.16.177-1.001-.212-1.435-.31-2.16zm-5.245 5.864c-1.597.975-2.264 2.88-4.32 3.395.739-1.631 3.152-3.22 4.32-3.395zm55.547-24.687c-.766 1.806-1.38 3.764-2.47 5.246.602-1.97 1.215-3.927 2.47-5.246zm-4.938 5.246c-1.145 2.662-1.437 6.174-3.704 7.714-.146-3.952 2.278-5.334 3.704-7.714zm5.862-14.504c-.072-1.512.918-1.962 2.161-2.16.179 1.002-.21 1.436-.308 2.16-.904.278-.95.278-1.853 0zm18.284-4.319v-3.087c0-.716-1.007-1.55-2.044-1.852-.388-9.693-4.547-15.497-7.908-22.217.534-.703.745-1.725.618-3.087-5.424-2.6-9.512-6.536-16.356-7.714-1.312-8.356-2.922-16.416-9.257-19.75 1.687-.885 3.99-1.152 4.63-3.086 4.917.029 8.295-3.495 12.343-4.32 1.814-.371 3.934.764 5.246-1.235-.496-6.499-4.95-9.04-6.172-14.812 1.188-3.544 5.756-3.707 9.258-4.937.331-1.336.991-2.247 2.16-3.395-.258-3.137-.9-5.89-4.012-6.172-.517.513-.246 1.812-.31 2.777.616.58.489 1.122 1.545.618-.321.812-.37 1.894-.31 3.086-2.913 1.818-6.822 2.64-9.874 4.32-.636 1.127.137 1.387.617 2.16-.566.978-2.396.691-2.777 1.851.664 5.505 4.505 8.788 5.245 13.27-.684.17-.44-.589-.926-.617-2.44 2.187-6.223 3.034-11.108 2.778 1.268-8.47-3.418-10.983-9.875-11.727 2.005-1.47 4.528-.893 5.863-3.087 2.401-3.944-.392-9.74-3.086-11.725-.069-4.25-1.752-6.89-4.32-8.641.664 1.881 1.363 4.377.926 8.332-3.807-.207-6.275.926-9.875.926-1.756-1.64-.759-6.03-1.544-8.641-2.53 1.172-2.793 4.612-3.085 8.024-2.519 3.196-3.366 12.244.617 14.504-5.38.893-6.51 6.037-5.864 12.96-3.625-1.31-7.295-2.579-10.492-4.32.453-.68.939-1.325.928-2.468-.235-.899-1.527-.739-1.852-1.544.137-5.624 3.401-10.919 1.541-15.737-2.594.18-5.932-.379-8.021.308-.272 1.71 1.664 1.216 2.159 2.16-5.404-.07-.98-5.296-1.235-7.098-7.923 1.348-.935 13.315 5.245 8.024-1.596 3.375-4.077 9.04-3.084 12.96-4.925.986-1.372 9.059 2.159 4.938 3.572 5.584 13.221 5.088 18.207 9.257-4.16 2.992-5.807 9.61-4.938 16.664-5.216 1.16-7.169 5.585-11.726 7.407-.354.364-.348 1.09-.307 1.852-5.839 4.86-11.603 9.792-15.121 16.972.438 1.097.804 1.35.925 2.16-2.24 1.566-3.084 9.722.617 10.8.054-2.42-1.412-3.319-.925-6.171 2.839-.885 1.09 2.816 2.47 3.393 2.377-.253.911-5.593.307-6.789 4.903-5.485 8.867-11.91 12.344-18.824 3.363 1.819 7.847-.504 11.108-1.541.574 5.51.434 12.98 0 18.514-3.549 4.472-9.804 6.243-11.418 12.652-.551.375-1.794.056-2.16.618.238 3.516-.32 8.864 0 14.504.37 6.494.121 13.045 2.16 16.664-.326 5.53-10.763 6.674-11.416 13.577-.123 1.283-.194 4.085 2.158 4.628.827-1.05-.168-2.344-.306-3.395.338-.996.981-1.692 2.468-1.542.964.681-.487 3.778.925 4.012 2.144.104 1.395-2.211 1.235-3.703 1.966-2.663 4.43-4.827 5.246-8.641 1.255.338 2.094.281 3.086-.308.629-1.336.28-3.294-.618-4.012.82-.003 1.763.116 2.16-.308.946-10.114-2.809-17.608-3.704-26.848.143-1.299 1.902-.979 2.162-2.16.226-1.77-.568-2.518-.927-3.703 3.676.937 5.157-2.54 7.715-3.703-1.216 13.548-2.942 32.632 7.097 37.647 7.301.612 14.281-2.527 16.973-6.48.054-.077.319-.641.308-.617 2.931-7.387 5.422-18.822 7.099-27.772 3.43 1.198 5.867 3.389 9.257 4.628-.953 1.949.539 3.38.926 4.938-3.912 7.924-11.828 13.466-11.418 24.686.436.468 1.499.976 2.16.309 1.115 5.508 3.067 10.473 2.16 16.355.406.396 1.136.396 1.543 0-.165 1.025-1.573 1.905-.617 3.086 4.06.903 3.736-3.39 4.012-5.864.081-.726.66-1.273.617-1.85-.41-5.467-4.953-9.823-5.555-14.504-.705-.859-1.925.712-1.852-.926 1.21-1.288 1.507.944 2.778.618 4.553-8.74 10.621-17.59 10.492-28.391-1.882-.18-2.583-2.053-4.011-.308-3.028-3.043-6.325-5.815-9.567-8.64 3.594 1.139 6.076 6.059 9.874 8.023-1.942-4.539-5.651-7.31-9.566-9.875.691-7.128 1.252-14.384 2.159-21.292 2.463 1.447 4.955 2.863 8.641 3.084.37.548-.169 1.983.616 2.779.77.26 1.651.404 2.776.308 2.822 6.449 5.97 15.205 9.871 21.601.04 3.056-4.132 3.441-2.475 7.097 1.658-.398.574-3.525 2.454-3.702 1.493 1.938-.88 4.46-2.807 4.937.193 1.452 2.108 1.124 3.644 1.235 2.255-1.335 1.637-4.846 2.97-5.863" fill="#381400" transform="matrix(.46837 0 0 .46837 308.013 13.19)"/></g><use xlink:href="#a" transform="translate(-30.208 -15.898)" width="100%" height="100%"/><use xlink:href="#a" transform="translate(-34.169 56.036)" width="100%" height="100%"/><use xlink:href="#a" transform="translate(-72.437 11.617)" width="100%" height="100%"/><use xlink:href="#a" transform="translate(-505.695 -8.884)" width="100%" height="100%"/><use xlink:href="#a" transform="translate(-456.492 -8.884)" width="100%" height="100%"/><use xlink:href="#a" transform="translate(-505.695 64.437)" width="100%" height="100%"/><use xlink:href="#a" transform="translate(-456.492 64.437)" width="100%" height="100%"/><use xlink:href="#a" transform="translate(-427.107 181.093)" width="100%" height="100%"/><use xlink:href="#a" transform="translate(-391.572 205.695)" width="100%" height="100%"/><use xlink:href="#a" transform="translate(-423.007 265.831)" width="100%" height="100%"/><use xlink:href="#a" transform="translate(-353.986 254.898)" width="100%" height="100%"/><use xlink:href="#a" transform="translate(-162.642 162.642)" width="100%" height="100%"/><use xlink:href="#a" transform="translate(-125.057 185.877)" width="100%" height="100%"/><use xlink:href="#a" transform="translate(-195.444 217.312)" width="100%" height="100%"/><use xlink:href="#a" transform="translate(-152.392 254.898)" width="100%" height="100%"/></svg>