<svg xmlns="http://www.w3.org/2000/svg" width="42" height="42"><circle cx="21" cy="21" r="20" fill="#d40809"/><path style="line-height:normal;font-variant-ligatures:normal;font-variant-position:normal;font-variant-caps:normal;font-variant-numeric:normal;font-variant-alternates:normal;font-variant-east-asian:normal;font-feature-settings:normal;font-variation-settings:normal;text-indent:0;text-align:start;text-decoration-line:none;text-decoration-style:solid;text-decoration-color:#000;text-transform:none;text-orientation:mixed;white-space:normal;shape-padding:0;shape-margin:0;inline-size:0;isolation:auto;mix-blend-mode:normal;solid-color:#000;solid-opacity:1" d="M12.445 8.5a4 4 0 00-2.773 1.172 4 4 0 000 5.656L15.344 21l-5.672 5.672a4 4 0 000 5.656 4 4 0 005.656 0L21 26.656l5.672 5.672a4 4 0 005.656 0 4 4 0 000-5.656L26.656 21l5.672-5.672a4 4 0 000-5.656A4 4 0 0029.445 8.5a4 4 0 00-2.773 1.172L21 15.344l-5.672-5.672A4 4 0 0012.445 8.5z" color="#000" font-weight="400" font-family="sans-serif" overflow="visible" fill="#fff"/></svg>