<svg height="1276" width="1308" xmlns="http://www.w3.org/2000/svg"><path d="M911.273 291.651c4.676-5.864 11.533-14.87 20.087-11.342 6.7 4.22 8.944 12.503 13.918 18.346 3.54 4.814 8.342 12.35 15.377 9.446 6.974-3.67 5.192-13.112 2.374-18.973-5.748-12.901-13.265-25.375-23.612-35.096-5.823-3.873-12.015 1.966-17.047 4.683-26.078 18.299-46.775 42.876-69.1 65.324-6.488 10-12.149 20.783-15.52 32.249-.978 10.266-5.485 19.582-8.887 29.154-2.13 3.854-2.047 13.443 3.719 7.26 11.788-11.768 10.426-30.927 21.828-43.033 17.214-21.026 40.274-36.424 56.863-58.018z" fill="#262728"/><path d="M1256.359 350.063c24.877 62.83 20.013 134.085 4.894 198.316-17 72.221-45.502 141.209-58.95 214.585-14.453 78.869-29.195 163.936-89.8 223.27-82.593 80.857-211.792 96.816-315.803 52.534-108.71-46.281-216.018-141.177-224.51-257.361-3.65-49.92 59.423 31.34 73.818 52.977 44.082 66.257 102.301 134.073 183.466 149.813 62.448 12.11 124.615-24.622 163.715-71.152 41.4-58.87 26.169-136.67-6.43-195.672-26.573-48.097-56.485-94.605-73.785-147.34-27.62-84.188-50.343-181.724-9.61-265.026 41.668-85.22 153.8-111.723 238.976-78.44 55.819 21.813 92.747 69.77 114.019 123.496z" fill="#99ad64"/><path d="M911.95 566.742c.351 1.082.671 2.214 1.025 3.291 17.3 52.734 47.212 99.243 73.785 147.34 32.598 59.003 47.83 136.803 6.43 195.672-10.74 12.78-23.268 24.765-37.016 35.258 48.307-11.006 81.687-71.628 84.697-131.817 2.783-55.644-32.355-106.206-63.994-152.052-21.933-31.782-41.634-67.125-64.928-97.692z" fill="#8f9e5e"/><path d="M1229.82 657.307c-59.621 49.734-155.557 74.545-242.728 60.703a273.502 273.502 0 0118.447 41.455c61.444 8.964 150.46-16.138 209.147-50.389 4.672-17.367 9.845-34.587 15.134-51.77zM607.383 786.445c-9.488 4.887-21.82 13.507-31.694 19.805 3.512 17.8 9.358 34.988 17.045 51.525 14.193-11.711 31.886-24.56 51.24-26.265-7.339-10.637-22.053-29.795-36.591-45.065zM1189.4 828.17c-49.336 27.428-114.844 32.736-171.334 8.23a157.986 157.986 0 01-2.422 22.125c46.563 23.323 109.351 30.332 160.346 19.133 5.296-16.2 9.645-32.776 13.41-49.488zm-514.44 46.36c-14.59 5.147-37.46 22.885-50.355 35.359a342.964 342.964 0 0025.942 30.09c11.518-14.558 32.09-34.586 45.133-40.536a480.267 480.267 0 01-20.72-24.914zm306.985 50.859a233.746 233.746 0 01-20.054 18.431c27.342 33.935 74.61 58.07 119.18 68.502 11.045-7.8 21.588-16.451 31.431-26.088 4.1-4.014 7.954-8.168 11.648-12.408-45.418 6.268-104.922-15.9-142.205-48.437zm-257.234 3.595c-11.265 11.43-23.551 33.259-30.635 49.735 10.293 7.939 20.953 15.391 31.873 22.412 4.612-16.552 15.78-37.977 25.604-50.943a280.545 280.545 0 01-26.842-21.204zm68.935 44.309c-6.69 18.159-9.43 41.071-8.05 60.432 3.701 1.69 7.395 3.464 11.103 5.043 8.879 3.78 17.993 6.956 27.194 9.855-6.88-20.671-9.735-45.983-8.268-67.713-7.546-2.074-14.84-4.686-21.979-7.617zm98.596 7.725c-5.583 1.557-11.218 2.884-16.924 3.785 9.413 26.071 24.717 54.317 39.26 78a303.156 303.156 0 0059.877-5.627c-33.734-14.985-66.36-43.89-82.213-76.158z" fill="#879659"/><path d="M65.129 565.22l698.59 111.401 37.326 49.88-199.457 68.267-235.53 162.946L10.078 588.58z" fill="#c98f7f"/><path d="M37.43 583.846c-.867-3.749-1.706-93.189-1.706-93.189s123.216 21.92 126.464 23.15c3.222 1.226 219.824 279.452 219.824 279.452l-16.35 85.48 11.748 71.201S38.296 587.58 37.43 583.846z" fill="#d3bba7"/><path d="M377.396 949.94l-29.429-178.4L701.04 623.432l82.778 28.013-6.011 80.402-179.14 56.933z" fill="#ead0b5"/><path d="M783.817 651.444s-50.834.109-106.596 32.615c-55.76 32.507-81.774 83.986-81.774 83.986s-72.3-11.16-123.92 14.495c-51.592 25.653-105.891 98.573-105.891 98.573L35.724 490.657s64.64-72.773 123.839-95.424c115.88-44.36 203.555 26.118 203.555 26.118s12.398-52.053 43.12-70.974c61.202-37.706 126.086-40.827 126.086-40.827z" fill="#ffe5c0"/><path d="M534.035 325.271c-62.191 8.608-110.797 31.73-154.03 90.063l-9.648-15.795-7.242 21.813 232.332 346.695-162.978-266.82c42.095-71.36 87.63-77.64 167.443-90.702l-11.656-12.64c-79.269 13.78-123.527 21.633-163.158 91.273l-13.725-22.47c38.247-69.162 77.356-74.821 160.15-89.97l-12.197-12.214c-70.856 6.375-117.995 20.775-157.441 86.65l-11.85-19.398c26.128-50.73 80.272-77.936 155.367-89.71zM102.576 508.234L134.62 540.5c21.563-52.833 152.187-115.647 238.033-77.746l-19.646-33.988c-111.124-10.818-179.514 19.97-250.43 79.468zm55.115 64.188l17.74 24.492c91.446-66.772 111.136-99.68 239.145-83.52l-15.79-24.824c-84.715-27.36-168.689 17.64-241.095 83.852zm50.834 49.996L233.78 648.9c72.762-81.177 103.909-79.694 212.309-86.123l-16.674-24.226c-92.417-18.719-155.935 17.612-220.889 83.867zm38.643 55.4l14.87 22.707c58.272-58.635 106.478-91.724 210.165-92.652L461.2 590.857c-69.731-6.34-167.203 21.718-214.031 86.961z" fill="#ead0b5"/><path d="M597.187 785.5L366.049 957.712l4.082 17.787 203.441-154.614s25.693 7.588 44.475-1.97c18.781-9.562 17.705-27.296 17.705-27.296l165.402-46.238-.1-18.882z" fill="#996d5f"/><path d="M599.08 770.673c-32.674 9.736-28.742 36.08-28.742 36.08s24.673 3.512 37.124-3.64c25.363-14.568 20.003-23.48 20.003-23.48s-10.457-14.302-28.385-8.96z" fill="#6d4d45"/><path d="M10.08 588.581l5.745 24.892L370.14 975.501l-4.083-17.787z" fill="#996d5f"/><path d="M1042.528 407.464c-4.874 9.013-3.892 19.679-2.762 29.64.146-9.614 6.57-19.066 15.65-23.106 9.08-4.04 20.337-2.43 27.49 3.945 3.768 3.358 6.379 7.802 8.6 12.321 4.307 8.762 6.82 17.893 9.351 27.253 6.089-10.84 9.133-27.036 4.227-38.387-6.308-14.596-19.248-27.203-36.718-26.76-10.398.264-20.921 6.001-25.838 15.094zm-144.781-24.67c-3.944 7.309-3.14 15.945-2.246 24 .13-7.773 5.318-15.445 12.668-18.708 7.368-3.27 16.47-1.969 22.262 3.188 3.06 2.725 5.153 6.33 6.956 9.986 3.496 7.09 5.516 14.48 7.566 22.066 4.95-8.785 7.419-21.895 3.445-31.08-5.118-11.83-15.59-22.035-29.741-21.666-8.395.218-16.939 4.855-20.91 12.214zm65.65 143.696c34.835 2.12 54.2-22.214 55.563-20.934 1.363 1.281-.173 100.028-46.498 98.428-51.343-1.773-38.47-94.84-38.47-94.84s10.364 16.187 29.405 17.346z" fill="#262728"/><path d="M987.88 570.557c-5.62.052-11.368 2.148-15.7 5.785-6.002-5.8-16.028-6.158-23.215-1.947-2.94 1.722-5.594 4.358-7.82 7.511 5.89 12.393 15.577 21.535 31.318 22.078 15.232.526 25.598-9.823 32.635-23.963-.047-.053-.082-.106-.13-.16-1.311-2.107-2.951-3.968-4.927-5.478-3.493-2.67-7.788-3.867-12.16-3.826z" fill="#ef503f"/><path d="M1169.717 431.685c1.229-38.173-28.817-70.832-68.126-71.474-38.284-.625-69.125 29.606-70.329 67.033-1.228 38.173 28.818 70.826 68.137 71.461 38.294.619 69.114-29.606 70.318-67.02z" fill-opacity=".102"/><path d="M1100.857 457.517c6.088-10.84 9.143-27.04 4.226-38.387-6.192-14.346-18.808-26.76-35.818-26.76h-.9c-10.397.267-20.92 6.001-25.837 15.094-4.875 9.013-3.892 19.679-2.762 29.64.146-9.614 6.57-19.066 15.65-23.106 3.347-1.482 6.987-2.201 10.607-2.201 6.192 0 12.364 2.12 16.883 6.146 3.766 3.36 6.382 7.8 8.6 12.321 4.31 8.76 6.82 17.893 9.351 27.253" fill="#3b3d3e"/><path d="M812.059 408.363c-1.585 49.427 37.332 90.921 86.761 92.508 49.43 1.587 90.938-37.33 92.522-86.758a90.6 90.6 0 00.027-4.34c9.478.4 14.527 2.692 18.461 11.997a91.367 91.367 0 00-.281 4.77c-1.606 50.147 37.88 92.26 88.045 93.866 47.847 1.533 88.345-34.36 93.35-81.218 17.25-25.382 37.147-52.243 53.197-74.46 3.802-5.263 8.859-11.127 15.328-10.4 4.92.553 8.251 5.03 11.69 8.6 5.386 5.592 10.114 12.879 17.015 15.44 2.586.959 5.786.76 7.795-1.12 3.736-3.48 1.446-9.694-1.326-13.986-7.874-8.788-20.676-32.213-31.961-31.721-9.929.433-19.585 9.65-25.752 15.64-18.305 17.782-31.664 32.02-51.31 50.169-12.638-33.363-44.383-57.613-82.202-58.825-39.318-1.259-73.684 22.75-87.477 57.344-7.783-5.363-19.455-9.632-27.615-7.84-9.978-37.162-43.326-66.237-86.053-66.441-49.687-.237-88.68 38.894-90.214 86.775zm157.882 5.07c-1.205 37.627-32.803 67.246-70.427 66.04-37.624-1.206-67.26-32.802-66.055-70.428 1.167-36.45 30.855-66.324 68.674-66.052 39.395.284 69.014 32.813 67.808 70.44zm199.786 18.254c-1.224 38.172-33.281 68.22-71.46 66.999-38.155-1.221-68.198-33.267-66.984-71.44 1.176-36.98 31.282-67.302 69.657-67.025 39.977.288 70.01 33.293 68.787 71.467z" fill="#262728"/><ellipse cx="901.708" cy="411.232" rx="68.275" ry="68.262" fill-opacity=".102" paint-order="stroke fill markers"/><path d="M897.746 382.795c-4.003 7.27-3.14 15.935-2.246 23.986.137-7.768 5.325-15.43 12.67-18.695 2.703-1.202 5.675-2.13 10.967-1.525 5.74.654 8.793 2.496 11.281 4.71 3.064 2.729 5.166 6.333 6.967 9.987 3.495 7.093 5.514 14.48 7.576 22.066 4.927-8.787 7.4-21.892 3.43-31.08-5.017-11.611-15.24-21.863-29.37-21.668-8.77.121-17.476 5.318-21.275 12.219zM895.5 406.78v.014h.002a.119.119 0 00-.002-.014z" fill="#3b3d3e"/><path d="M1177.43 329.83c10.488-.073 16.957-11.505 15.762-21.054-1.829-15.652-12.003-28.741-22.542-39.803-11.543-11.707-24.274-22.368-38.083-31.28-22.078-11.255-49.015-12.912-72.16-3.936-7.869 2.896-2.645 9.912 3.388 10.186 19.233 6.838 41.297 7.552 57.705 20.924 17.96 14.623 25.36 37.523 39.35 55.312 4.192 4.89 9.797 9.61 16.58 9.651z" fill="#b1c189"/><path d="M908.24 356.283c-4.275-.129-8.301 3.01-7.574 7.016.936 5.13 6.351 7.065 10.041 9.838 9.243 6.781 14.437 18.478 13.438 29.884-.445 8.653-2.395 18.013 2.07 26.006 2.527 5.26 8.595 9.05 14.459 7.407 7.12-1.719 11.65-8.532 13.144-15.348 3.681-16.334.527-34.771-10.642-47.623-8.312-9.838-20.81-15.329-34.078-17.11a8.34 8.34 0 00-.858-.07zm198.545 17.45c-3.932-.125-8.425 3.27-7.25 7.552 1.424 5.491 7.505 7.097 11.342 10.475 8.625 6.984 13.34 18.32 12.385 29.365-.433 8.777-2.403 18.268 2.103 26.38 2.253 4.36 6.573 7.96 11.686 7.874v.002c7.423-.071 13.346-6.261 15.453-13.006 3.464-11.043 3.014-23.177-.41-34.176-4.213-13.688-14.893-25.153-28.303-30.222-5.47-2.015-11.138-4.005-17.006-4.245z" fill="#fff" fill-opacity=".6"/></svg>