<svg height="1276" width="1308" xmlns="http://www.w3.org/2000/svg"><path d="M1247.34 972.465l-73.904-16.8 20.824 50.32z" fill="#d8453d"/><path d="M765.181 1127.919c-9.794 29.145-3.436 63.719 18.259 85.973 11.851 12.44 26.13 22.382 40.932 30.97 7.585 4.502 17.18 2.068 23.28-3.77 15.124-13.475 17.88-34.799 21.452-53.613 3.035-19.808 6.145-39.866 5.153-59.96-1.04-18.787-12.969-34.84-25.914-47.567-7.95-7.237-18.955-15.155-30.242-11.3-25.318 10.205-44.104 33.96-52.92 59.267z" fill="#6d4d45"/><path d="M1223.593 884.092s-13.667 27.227-12.613 55.613c1.053 28.374 22.08 51.507 22.08 51.507L837.232 1248.72l-8.927-182.307 395.288-182.32" fill="#ead0b5"/><path d="M99.225 884.092s-33.936 10.413-38.14 67.173c-4.205 56.76 24.175 100.907 24.175 100.907L822.403 1265s-42.576-112.974-38.268-116.134c4.308-3.146 49.24-92.493 49.24-92.493l-10.972-43.093L181.96 884.092H99.225" fill="#f44b47"/><path d="M1240.42 856.159v36.76l-407.045 192.693s-30.17 20.293-24.351 75.12c7.599 71.6 28.208 70.72 28.208 70.72l410.108-258.987v29.174l-410.108 261.626s-40.777 22.094-53.097-73.36c-12.32-95.466 38.268-144.04 38.268-144.04L1240.42 856.16" fill="#aa3431"/><path d="M1240.42 856.159l-418.017 189.706L99.225 884.092 484.932 754.84z" fill="#d8453d"/><path d="M178.392 1061.679c5.95 1.204 11.901 2.406 17.851 3.613-15.934-12.728-19.997-33.978-23.319-52.992-3.824-22.51-4.253-47.583 8.771-67.394 6.514-10.09 16.33-18.472 28.111-21.534-16.952-3.57-33.807-10.352-51.396-8.812-9.821 1.077-13.2 12.043-15.826 20.01-8.2 28.665-9.668 59.861.085 88.352 3.369 10.163 7.99 19.919 13.818 28.903 4.091 8.344 14.17 7.843 21.905 9.854zm28.955-86.147c-4.287 32.187 1.961 65.927 18.325 94.038 4.912 7.046 14.384 7.336 21.702 10.468a19302.15 19302.15 0 0018.775 6.187c-25.317-25.817-42.718-61.611-40.19-98.365 1.462-18.634 7.99-39.182 24.892-49.275 2.218-2.395 14.34-3.581 6.092-3.39-8.318-1.685-17.105-5.252-25.414-1.401-15.847 7.282-22.026 25.688-24.182 41.738z" fill="#f7d42b"/><path d="M675.337 875.439c-19.115 7.923 4.813 20.823 15.532 23.465 35.99 8.87 72.718 5.683 109.058 5.589 73.16-.19 146.427.668 219.456-3.607 14.35-.84 46.905 2.366 44.164-16.742-1.886-13.15-21.601-12.361-33.256-14.55-44.494-8.353-90.13-5.762-135.146-9.83-59.728-5.398-120.675-4.427-179.357 9.922-13.235 3.237-27.538.4-40.451 5.753z" fill-opacity=".2"/><path d="M500.195 259.83c14.502 6.887 26.243 18.471 39.744 27.076 17.417 9.187-2.205 38.676-12.618 17.615-7.163-14.623-20.492-30.433-38.074-30.181-27.45 14.349-12.957 56.46-31.515 77.868-17.292 11.182-25.246 30.537-34.16 48.155-2.53 9.07-14.526 14.317-9.821-.26 16.198-40.42 34.52-80.183 53.1-119.611 5.942-12.61 17.983-27.316 33.344-20.662zm312.113 30.089c-3.166-13.58-13.55-29.786-29.759-25.572-15.392 4.566-28.778 14.204-43.444 20.625-18.626 6.39-3.782 38.565 9.753 19.347 9.328-13.348 24.94-26.902 42.272-23.945 11.361 6.337 10.282 21.987 12.97 33.26 2.882 14.153-1.44 28.931 2.611 42.778 8.857 12.926 20.81 24.328 24.013 40.5 3.62 6.895 6.261 32.937 15.191 26.22 1.38-16.637-7.597-32.155-9.778-48.503a1274.885 1274.885 0 00-23.829-84.71z" fill="#262728"/><path d="M1005.31 799.065c-40.536-14.564-84.165 11.406-125.973 3.78-45.872-1.943-102.491-17.71-119.02-66.442-27.615-66.717-16.518-145.577 24.022-204.642 24.06-36.97 47.056-78.776 41.351-124.536-3.657-62.366-51.089-117.478-111.537-132.237-67.626-22.178-151.94-12.892-199.615 44.447-43.885 51.466-69.215 119.664-62.506 187.656 6.506 83.051 28.991 165.334 66.179 239.908 24.937 49.944 69.552 86.175 118.75 110.68 80.45 43.146 175.24 35.013 262.832 26.493 35.83-4.68 78.969-9.956 100.967-42.057 4.113-12.998 11.51-30.228 4.551-43.05" fill="#99ad64"/><path d="M434.3 426.911c0-42.066 34.22-76.28 76.28-76.28 42.064 0 76.282 34.214 76.282 76.6 0 42.8-30.612 75.533-76.28 75.96-42.06.394-76.282-34.213-76.282-76.28z" fill-opacity=".1"/><path d="M471.828 453.998c8.144-1.368 12.771-9.72 13.977-17.243 1.65-11.41-1.937-23.295 2.15-34.433 3.41-9.288 10.414-16.987 19.176-21.472 3.855-1.974 8.01-6.49 5.94-11.036-2.213-4.865-8.559-4.854-13.175-3.944-13.21 2.605-26.364 8.13-35.305 18.529-11.952 13.899-15.929 33.471-12.655 51.23 1.372 7.595 5.875 15.363 13.6 17.83 2.022.645 4.193.892 6.292.539z" fill="#fff" fill-opacity=".6"/><path d="M747.14 691.48c-8.14-50.012 1.855-102.801 28.409-146.043 3.749-8.844 14.894-20.4 14.359-27.301-10.565-3.154-25.062.3-27.94 12.344-5.235 15.763-6.98 32.47-12.899 48.04-8.97 28.95-19.932 57.376-26.144 87.1-5.729 26.96-3.328 56.663 12.197 80.078 16.515 26.637 47.005 43.58 78.314 43.861-12.88-5.103-25.132-12.312-34.71-22.44-18.886-20.664-26.763-48.684-31.587-75.64z" fill="#8f9e5e"/><path d="M510.58 326.705c-55.254 0-100.205 44.962-100.205 100.215s44.951 100.2 100.205 100.2c52.263 0 95.284-40.218 99.793-91.327 1.932-.812 3.913-1.475 6.027-1.688 11.336-1.393 23.967 1.554 31.946 10.02 1.696 53.778 45.94 97.008 100.123 97.008 55.255 0 100.209-44.947 100.209-100.201 0-55.253-44.954-100.213-100.21-100.213-45.95 0-84.749 31.105-96.52 73.355-1.12-.846-2.292-1.623-3.395-2.365-10.317-6.012-23.203-5.23-34.047-1.098-1.596.588-3.193 1.21-4.772 1.875-7.02-48.438-48.8-85.78-99.154-85.78zm0 23.922c42.062 0 76.283 34.226 76.283 76.293 0 42.053-34.22 76.28-76.283 76.28-42.062 0-76.281-34.227-76.281-76.28 0-42.067 34.22-76.293 76.281-76.293zm314.172 90.305c0 42.067-34.22 76.28-76.283 76.28-42.061 0-76.281-34.213-76.281-76.28 0-42.066 34.22-76.28 76.282-76.28 42.063 0 76.282 34.214 76.282 76.28z" fill="#262728"/><path d="M672.188 440.932c0-42.066 34.22-76.28 76.281-76.28 42.063 0 76.281 34.214 76.281 76.6 0 42.799-30.611 75.533-76.28 75.96-42.06.394-76.282-34.213-76.282-76.28z" fill-opacity=".1"/><path d="M707.737 468.172c-8.124-.086-14.603-6.916-16.802-14.334-3.286-11.068-2.777-23.083.219-34.159 4.203-15.829 15.996-29.512 31.351-35.417 6.608-2.5 13.543-4.64 20.642-4.905 4.253-.12 9.223 3.384 8.202 8.073-1.244 5.767-7.433 7.7-11.714 10.715-10.486 7.255-16.63 20.088-15.932 32.802.173 9.678 2.03 20.2-3.24 28.97-2.577 4.582-7.255 8.35-12.726 8.255z" fill="#fff" fill-opacity=".6"/><path d="M559.328 96.386c-14.65 2.133-33.12 17.342-21.596 48.64 11.523 31.297 36.617 29.693 50.352 24.16-4.284 21.402 10.733 34.251 27.495 41.453 51.464 22.113 81.231-2.55 78.774-39.24 25.348 9.674 63.509-9.135 70.505-30.48 10.575-32.263-15.413-55.395-44.041-58.827 26.394-13.669 18.257-43.33-1.592-55.466-15.374-9.4-35.654-8.86-45.593 5.746 1.076-23.414-35.592-24.036-47.506-19.709-20.22 7.345-16.555 22.892-15.683 32.416-18.429-8.531-36.122-5.818-50.199 8.333-11.257 11.316-12.621 32.12-.916 42.974z" fill="#f7d42b"/><path d="M659.379 542.599c11.427-.445 24.932 1.19 31.969 11.382 3.664 4.781 4.099 13.785-2.438 16.312-7.155 2.034-14.292-1.758-21.381-2.513-39.926-7.66-82.98-5.614-119.783 12.883a136.39 136.39 0 00-15.211 8.896c21.626-13.637 42.765-28.893 67.446-36.594 19.124-6.424 39.221-9.995 59.398-10.366zM545.092 372.959c-17.403 0-31.512 14.108-31.512 31.508s14.109 31.506 31.512 31.506c17.4 0 31.508-14.106 31.508-31.506s-14.108-31.508-31.508-31.508zm234.887 9.174c-17.402 0-31.51 14.106-31.51 31.506 0 17.413 14.11 31.52 31.51 31.52 17.403 0 31.51-14.107 31.51-31.52 0-17.4-14.108-31.506-31.51-31.506z" fill="#262728"/><path d="M731.823 639.874c54.58 2.636 110.626-1.82 163.532 14.551 30.554 8.974 57.45 34.392 60.818 67.108 2.549 23.551-.847 50.785-18.316 68.245-21.698 18.848-58.047 5.32-76.165 29.958-12.931 19.173-1.29 43.73 17.85 53.153 10.636 10.967 25.973 13.115 40.332 9.877 32.454-5.827 66.768-17.749 87.162-45.266 22.778-26.839 27.891-64.553 19.582-98.016-13.625-62.918-68.682-111.386-130.85-123.886-59.762-13.399-121.51 9.841-180.822-9.732-20.629-3.202-32.738-21.784-33.403-41.517-12.938-23.942-42.015 5.332-30.914 27.88 15.839 32.174 49.568 46.1 81.194 47.645z" fill="#aabc6f"/><path d="M909.005 619.012a191.07 191.07 0 00-22.327-5.16c-1.4 10.386-1.428 24.921-6.268 36.294 6.016 1.44 11.942 3.173 17.672 5.253 4.775-11.874 9.588-25.181 10.923-36.387zm-6.845 183.04c-13.002 1.853-31.415-1.84-41.019 6.56-15.232 13.307-12.881 39.773-6.69 59.027 4.374 13.6 17.122 18.146 27.727 18.306 3.012.04 25.178-1.986 28.186-2.186-21.85-21.533-27.724-57.816-8.204-81.707zm52.71-46.573c28.623 4.718 51.757.39 71.175-18.293a154.426 154.426 0 00-9.093-26.467c-18.02 11.187-38.848 17.88-60.02 19.133.422 8.56-.306 17.227-2.062 25.627zm-248.277-152.44c-6.122-2.493-11.381-5.8-15.358-10.347-9.806 6.118-16.963 16.721-21.085 26.227 7.882 6.36 17.177 11.213 26.831 14.493 2.63-10.28 5.986-20.373 9.612-30.373zm314.874 211.013c-33.563-.338-55.866-17.692-70.783-44.067-5.373 11.198-9.908 19.272-19.866 24.614 14.69 32.284 43.406 49.06 76.109 43.013 5.848-7.413 10.809-15.467 14.54-23.56zM966.73 647.839c-8.513 12.287-17.303 26.126-26.344 36.053 5.03 6.328 9.256 14.284 11.716 21.054 14.014-10.787 25.428-24.934 33.122-40.854m-252.888-24.186c10.275.746 20.65.813 30.967.866 1.476-9 3.764-17.946 5.282-26.96a259.5 259.5 0 01-30.816-3.12c-2.437 9.307-3.589 19.427-5.433 29.214zm93.812 2.893a172.825 172.825 0 002.059-30.987c-8.9.467-17.804 1.08-26.71 1.547.138 9.387 1.388 18.787 1.219 28.173 7.817.307 15.63.72 23.432 1.267zm-64.416 96.746c-64.554 29.157-141.731 65.958-206.413 59.827 9.98 10.707 20.596 19.8 32.36 28.253 75.993 1.013 134.566-34.77 189.887-62.6-6.626-7.533-11.734-16.266-15.834-25.48zm60.744 53c-5.465-1.8-10.827-3.893-15.98-6.346-25.645 31.013-48.225 65.213-61.452 102.506 11.112 1.094 22.323 1.747 33.575 2.027 8.532-35.936 19.675-73.344 43.857-98.187zM477.21 641.706a762.898 762.898 0 0012.87 39.666c87.614 26.62 178.175 12.974 256.665 2.014a217.837 217.837 0 01-1.554-22.6c-90.691 7.724-194.005 9.67-267.98-19.08" fill="#879659"/><path d="M557.928 311.638c-.005-8.255 6.535-15.262 14.154-17.684 26.785-8.51 54.727-13.009 82.732-14.874 4.8-.32 10.952 1.485 11.89 6.829.799 4.552-4.161 7.051-7.929 7.85-11.664 2.472-23.712 1.9-35.363 4.62-14.712 3.433-28.556 9.828-41.085 18.194-4.003 2.674-8.651 4.574-13.571 4.746-5.503.192-10.825-4.023-10.828-9.681z" fill="#b1c189"/><path d="M668.652 565.879c-4.141-.244-9.097 2.044-9.173 6.7-.134 8.19 4.72 15.431 9.087 22.009 5.394 8.124 14.378 12.755 23.1 16.4 18.728 7.827 39.15 11.404 59.213 12.725 7.111.468 14.373 1.912 21.523 1.34 6.407-8.212-11.635-4.634-20.728-5.285-18.068-1.296-36.448-3.94-53.576-10.213-12.304-4.506-22.19-15.8-23.703-28.955-.507-4.402 1.285-9.663-1.784-13.362-.934-1.125-2.546-1.276-3.959-1.36zm131.1 53.293c-3.772.048-9.229 1.509-9.752 5.906 1.186 3.37 5.609 2.744 8.506 2.586 25.725-2.042 52.324-3.328 77.223 4.727 5.617 1.484 11.036 5.47 17.072 4.093 4.302-1.15 4.172-7.012 1.058-9.379-4.279-3.453-10.156-2.74-15.289-3.468a1289.023 1289.023 0 00-78.818-4.465z" fill="#fff" fill-opacity=".2"/><path d="M623.589 97.546s4.532-30.107 24.634-28.4c20.1 1.72 18.726 16.093 18.556 22.946-.17 6.854-9.34 15.96-23.2 28.467-12.994 11.733-16.658 41.507-16.658 41.507h33.016s-1.665-27.8 10.214-38.08c11.88-10.28 26.74-24.32 22.498-47.04-4.316-23.12-19.882-32.64-44.386-32.64-47.087 0-51.231 43.826-51.231 43.826zm2.12 102.066l38.468 3.64-4.24-33.013h-32.41z" fill="#262728"/></svg>