<svg height="1248" width="1200" xmlns="http://www.w3.org/2000/svg"><path d="M1095.68 1043.285l-26.71 60.375 36.57 53.994 49.821-22.672-59.681-91.697zM73.572 1067.986l-59.681 91.698 49.822 16.671 36.568-47.994-26.709-60.375z" fill="#c98f7f"/><path d="M485.702 115.357c-17.954 2.607-44.446 22.52-28.452 61.55 16.038 39.14 46.831 34.363 63.638 27.593-5.233 26.204 12.215 52.521 65.275 54.057 52.016 1.507 66.956-29.819 64.867-51.355 31.035 11.847 77.322-11.334 86.332-37.322 13.247-38.21-20.447-68.038-53.926-72.038 32.02-15.542 21.243-53.77-1.948-67.922-18.816-11.482-43.678-10.832-55.826 7.038 1.335-28.675-47.939-26.61-62.535-21.348-24.81 8.944-24.94 27.468-14.844 36.914-21.533-3.023-46.479-4.583-61.466 10.195-13.619 14.043-15.456 39.333-1.115 52.638z" fill="#f7d42b"/><path d="M411.785 297.179c6.1-5.1 13.725-12.321 22.332-8.925 8.341 5.374 8.426 16.72 13.315 24.61 2.008 7.727 11.656 17.643 18.778 8.987 5.877-9.043.646-19.99-1.75-29.321-3.69-10.9-8.201-21.975-15.658-30.825-7.683-4.256-16.094 2.179-23.32 4.726-29.689 14.34-55.655 35.008-82.613 53.679-9.199 9.245-17.485 19.742-23.242 31.452-3.734 10.396-9.46 19.904-15.663 28.976-2.849 3.214-4.711 13.934 2.453 9.028 15.45-10.607 17.853-32.062 33.389-42.629 22.624-18.545 50.058-30.273 71.979-49.758z" fill="#262728"/><path d="M370.466 503.325c-1.371 97.735 9.006 197.048 46.291 288.082 29.82 72.81 64.72 149.272 130.438 196.518 50.527 36.325 129.033 43.183 176.176-3.245 24.893-24.516 28.359-71.493-6.415-88.982-28.09-14.128-64.017-25.402-74.193-59.145-20.878-69.234-10.653-144.508 11.828-212.02 23.387-70.232 77.535-131.496 76.024-208.813-1.366-69.854-63.765-125.42-131.241-134.384-72.072-9.576-156.31 5.713-199.132 69.627-29.973 44.736-29.051 100.715-29.776 152.362z" fill="#99ad64"/><path d="M716.543 361.816c-.9 2.146-.917 5.267.443 9.698 9.721 40.186 3.063 83.494-19.127 118.494-49.143 85.041-108.104 169.535-121.029 269.342-7.723 52.727 6.015 108.407 40.549 149.484 20.738 28.166 55.246 51.31 91.621 42.62 7.695-2.182 21.526-8.541 33.3-16.952-1.2-15.847-9.008-30.588-25.345-38.805-28.09-14.127-64.016-25.4-74.191-59.144-20.879-69.234-10.655-144.508 11.826-212.02 23.387-70.233 77.537-131.495 76.025-208.812-.377-19.31-5.55-37.461-14.072-53.905z" fill="#8f9e5e"/><path d="M678.375 569.553c-86.08 58.459-217.75 117.587-303.719 43.556 1.72 17.583 4.024 35.092 6.963 52.48 95.19 33.957 196.776 20.462 272.043-38.015.328-1.004.595-2.04.928-3.04 6.265-18.814 14.767-36.974 23.785-54.981zM632.5 729.043c-73.367 47.643-156.177 57.39-231.389 18.617 4.607 14.757 9.756 29.366 15.647 43.748a1778.63 1778.63 0 0010.178 24.322c67.8 20.07 147.18-14.56 204.662-50.785a334.61 334.61 0 01.902-35.902zm9.473 104.603c-55.862 41.85-115.338 65.64-181.264 52.188 10.62 18.939 22.49 37.049 36.023 53.76 60.587-18.972 123.487-28.017 166.127-73.621-9.073-7.603-16.342-16.976-20.095-29.42-.29-.964-.513-1.94-.791-2.907z" fill="#879659"/><path d="M897.203 835.853c39.736-56.446 54.553-128.766 105.754-177.468 35.828-36.448 94.732-57.184 142.59-32.194 29.125 14.101 54.368 49.127 41.206 82.036-4.842 16.494-21.886 12.7-16.11-4.83-5.774-37.539-50.434-56.644-84.102-43.732-55.062 17.938-84.883 74.248-98.988 126.826-18.608 66.014-18.208 139.308-56.836 198.318-28.136 40.35-80.796 53.611-127.55 53.168-24.732-1.462-56.608-3.19-69.57-28.078-18.97-48.928 18.09-111.555 70.906-116.779 30.652-1.943 58.695-17.508 78.842-40.35a177.906 177.906 0 0013.858-16.917z" fill="#99ad64"/><path d="M1115.791 628.863c-16.276-.118-32.937 4.343-47 11.48-44.105 21.65-70.723 66.266-88.32 110.397-16.005 40.028-28.357 81.627-48.672 119.824-8.288 16.354-12.369 39.598 2.722 53.407 4.038 3.69 12.741 5.84 21.458 5.947 14.699-46.366 18.406-96.71 31.574-143.428 14.106-52.578 43.926-108.888 98.988-126.826 33.668-12.911 78.327 6.194 84.102 43.732-2.433 7.382-.8 12.292 2.246 14.313 3.874-1.56 6.215-3.972 4.51-6.936-1.044-22.516 1.313-49.132-16.917-65.918-12.524-11.177-28.415-15.873-44.691-15.992z" fill="#8f9e5e"/><path d="M13.89 1159.684v22.075l501.344 23.67s31.1 30.115 66.12 32.268c35.02 2.153 60.846-34.421 60.846-34.421l520.703-43.592-7.528-24.705-34.638 11.18-550.9 33.447-528.734-19.922z" fill="#996d5f"/><path d="M581.356 1218.546c47.945 0 54.818-32.147 54.818-32.147l-16.725-44.403-43.428-23.726-38.05 16.711-11.432 52.81s6.52 30.755 54.817 30.755z" fill="#6d4d45"/><path d="M129.044 839.842s102.75-26.464 203.842-13.223C433.996 839.842 580.697 949.1 580.697 949.1S698.19 839.842 835.155 816.33c70.019-12.015 244.618 0 244.618 0l69.743 218.687-568.819 99.961-571.141-85.681c1.213-.32 119.488-209.455 119.488-209.455z" fill="#ffe5c0"/><path d="M422.568 456.736c-20.093 0-36.394-18.29-36.394-40.832 0-22.554 16.3-40.83 36.394-40.83 20.106 0 36.393 18.276 36.392 40.83 0 22.541-16.286 40.832-36.392 40.832z" fill="#262728"/><path d="M392.047 303.418c-54.096 0-98.123 44.015-98.123 98.125s44.027 98.121 98.123 98.121c45.796 0 84.351-31.53 95.121-74.021 4.557-1.483 8.62-2.047 12.848-1.108.136 54.006 44.09 97.883 98.113 97.883 51.947 0 94.563-40.578 97.883-91.713 21.197-20.66 43.098-40.587 64.57-60.959 5.214-5.145 13.068-11.014 20.613-7.123 8.06 5.66 10.505 15.94 16.637 23.273 2.937 6.939 15.096 13.941 18.744 3.942 1.593-8.861-4.236-16.78-7.66-24.504-5.104-9.43-10.961-18.724-18.783-26.123-6.632-3.671-13.975 1.027-20.281 3.336-24.022 11.355-45.572 27.122-67.616 41.789-3.63 2.71-7.787 5.24-11.244 8.342-13.185-38.637-49.815-66.508-92.863-66.508-46.603 0-85.69 32.66-95.643 76.289-4.015-1.016-8.226-1.248-12.318-.781.004-54.245-44.011-98.26-98.121-98.26zm0 23.43c41.193 0 74.693 33.515 74.693 74.695 0 41.193-33.5 74.691-74.693 74.691-41.18 0-74.707-33.498-74.707-74.691 0-41.18 33.527-74.695 74.707-74.695zm206.082 22.754c41.187 0 74.683 33.496 74.683 74.683 0 41.203-33.496 74.701-74.683 74.701-41.188 0-74.701-33.498-74.701-74.7 0-41.188 33.513-74.684 74.7-74.684z" fill="#262728"/><path d="M400.58 403.216c-.826 3.696-.416 8.15 2.54 10.827 1.911 1.786 5.129 2.334 7.242.584 2.513-2.048 3.238-5.387 4.293-8.295 1.553-5.091 5.249-9.645 10.284-11.588 1.841-.7 3.761-2.19 3.714-4.35-.062-1.955-2.138-2.809-3.742-3.263a26.79 26.79 0 00-9.083-.708c-4.652.706-8.22 4.252-10.84 7.928-1.912 2.699-3.646 5.614-4.408 8.865z" fill="#fff"/><path d="M592.034 471.974c-20.087 0-36.39-18.272-36.39-40.82 0-22.549 16.303-40.835 36.39-40.835 20.114 0 36.403 18.286 36.403 40.835 0 22.548-16.289 40.82-36.403 40.82z" fill="#262728"/><path d="M570.07 418.463c-.865 3.703-.403 8.13 2.54 10.822 2.021 1.953 5.657 2.343 7.68.18 2.991-2.992 3.238-7.484 5.145-11.088 1.962-3.89 5.335-7.1 9.459-8.587 1.779-.764 3.545-2.472 3.205-4.573-.544-2.07-2.909-2.69-4.736-3.092-2.985-.593-6.12-.856-9.12-.245-4.69 1.228-8.067 5.096-10.645 8.988-1.548 2.332-2.889 4.852-3.528 7.595z" fill="#fff"/><path d="M580.71 1134.996s-31.678-51.1-151.535-88.454c-200.197-62.393-419.609 2.755-419.609 2.755s29.476 15.082 34.283 63.069c2.327 23.236-2.741 47.312-2.741 47.312l485.432 28.111s5.096-10.922 15.77-26.059c16.46-23.305 38.4-26.734 38.4-26.734" fill="#ead0b5"/><path d="M580.697 1134.978s30.383-51.873 149.274-92.209c198.577-67.38 419.545-7.752 419.545-7.752s-29.089 15.816-32.697 63.918c-1.743 23.286 3.919 47.225 3.919 47.225l-484.574 40.242s-5.352-10.79-16.4-25.652a77.697 77.697 0 00-2.555-3.22 70.77 70.77 0 00-6.767-7.092c-14.795-13.504-29.745-15.46-29.745-15.46" fill="#ead0b5"/><path d="M580.696 949.101l-10.866 180.997 10.866 4.886 11.338-13.967L580.696 949.1" fill="#ead0b5"/><path d="M44.405 1129.11c42.357-10.911 112.134-25.387 186.98-26.282 120.97-1.464 313.574 55.572 313.574 55.572l-4.012 5.286s-218.926-52.414-302.569-46.613c-80.85 5.625-162.324 27.204-195.68 32.978-.692.108 1.707-20.941 1.707-20.941" fill="#d3bba7"/><path d="M563.042 1141.909c-43.291-20.634-198.868-87.867-292.775-95.615-80.569-6.655-189.001 11.848-241.461 22.274 3.703 5.562 7.27 12.504 10.03 21.045 44.206-12.026 131.198-30.118 239.002-24.12 91.72 5.112 232.06 62.655 277.141 82.087a67.567 67.567 0 018.063-5.671m572.195-93.882c-49.328-6.575-166.207-19.382-250.367-6.511-85.98 13.153-220.894 80.52-273.949 109.346l6.286 6.666c51.304-25.999 176.049-85.6 261.445-96.33 110.696-13.908 201.005-.628 244.459 8.353l12.126-21.524" fill="#d3bba7"/><path d="M1116.872 1098.394c-43.05-6.629-114.85-14.247-190.387-7.473-95.807 8.596-241.66 61.886-297.387 83.351l3.6 5.855c.563-.19 1.126-.384 1.723-.58 60.727-20.365 219.48-71.58 286.553-73.736 79.752-2.563 149.93 5.303 195.864 12.627l.034-20.044" fill="#d3bba7"/><path d="M392.059 476.246c41.187-.007 74.691-33.517 74.691-74.705 0-32.68-21.103-60.518-50.382-70.63a74.322 74.322 0 00-24.311-4.063c-41.193 0-74.72 33.51-74.72 74.703 0 33.785 22.571 62.402 53.401 71.596a74.555 74.555 0 0021.32 3.1z" fill-opacity=".102"/><path d="M352.152 428.227c-5.094 0-10.038-3.073-13.042-7.265-3.415-4.725-4.753-10.639-5.3-16.443-1.146-12.427 1.134-25.278 7.198-36.176 9.068-15.405 21.96-22.739 39.03-26.262 2.05-.423 4.139-.847 6.214-.847.765 0 1.544.055 2.322.205 2.827.52 5.6 2.404 6.268 5.19.629 2.69-.819 5.503-2.826 7.388-2.035 1.885-4.575 3.086-6.938 4.534-9.177 5.64-15.582 15.569-16.948 26.262-1.052 8.207.737 16.579-.137 24.814-.874 8.248-5.722 17.153-13.888 18.45a13.39 13.39 0 01-1.953.15" fill="#fff" fill-opacity=".6"/><path d="M598.127 349.602c-41.194 0-74.703 33.509-74.703 74.689 0 41.194 33.509 74.703 74.703 74.703 41.18 0 74.69-33.508 74.69-74.703 0-41.18-33.51-74.69-74.69-74.69z" fill-opacity=".102"/><path d="M592.918 363.99c-6.455.215-12.757 2.14-18.816 4.264-14.896 5.296-26.772 17.919-31.422 32.992-3.55 11.296-4.241 23.703-1.063 35.164 2.073 7.465 8.464 14.479 16.633 14.565h.002c.63 0 1.26-.043 1.883-.14 0 .002 0 .004.002.005.013-.014.027-.016.04-.016 8.19-1.294 13.024-10.199 13.891-18.445a45.7 45.7 0 00.165-1.998 7.262 7.262 0 01-2.96-2.602c-.06-.095-.106-.2-.164-.296.055.092.106.185.165.275a7.44 7.44 0 002.966 2.625c.384-6.676-.673-13.408-.289-20.07l-.008.01c.053-.925.14-1.848.262-2.766.674-5.245 2.561-10.31 5.398-14.785 2.567-4.05 5.92-7.604 9.848-10.356 4.19-2.974 10.273-4.848 11.494-10.51 1.001-4.588-3.863-8.027-8.027-7.915zm-20.01 47.944c-.09.145-.18.29-.267.437.087-.147.178-.292.267-.437zm-1.226 2.181c-.052.104-.102.208-.153.313.05-.105.1-.21.153-.313zm-.436.918c-.05.113-.101.226-.15.34.048-.114.1-.227.15-.34zm-.47 1.13c-.03.077-.058.155-.087.233.03-.078.057-.156.086-.234zm-.362 1.042zm-.322 1.162c-.008.036-.02.07-.028.106-.008.034-.013.069-.021.103.008-.034.011-.07.02-.103.007-.036.02-.07.029-.106zm-.219 1.09zm-.135 1.086zm-.056 1.152zm.04 1.153zm.17 1.302zm.297 1.23zm.413 1.114z" fill="#fff" fill-opacity=".6"/><path d="M464.277 522.406c35.738 5.28 57.87-18.104 59.173-16.667 1.276 1.45-9.052 103.168-56.702 97.408-52.793-6.382-31.265-101.236-31.265-101.236s9.267 17.61 28.794 20.495z" fill="#262728"/><path d="M466.489 603.151c15.747 1.906 27.413-7.933 35.933-22-1.173-2.28-2.684-4.355-4.586-6.08-7.711-6.995-20.4-6.44-28.92-.453-5.68-6.507-15.989-7.778-23.787-4.067-3.269 1.556-6.307 4.12-8.907 7.267 4.987 13.213 14.174 23.385 30.267 25.333z" fill="#ef503f"/><path d="M591.365 62.613a3.238 3.238 0 00-3.244 3.227l-.03 14.875c-.003 1.792 1.435 3.255 3.227 3.258a3.23 3.23 0 003.227-3.229l.047-14.889a3.24 3.24 0 00-3.227-3.242zm-32.115 3.871c-.42.018-.845.118-1.25.309a3.231 3.231 0 00-1.55 4.297l6.323 13.472a3.241 3.241 0 004.311 1.55 3.244 3.244 0 001.55-4.311l-6.322-13.46a3.235 3.235 0 00-3.062-1.857zm64.2.192a3.243 3.243 0 00-3.067 1.845l-6.399 13.426a3.232 3.232 0 001.536 4.313 3.226 3.226 0 004.296-1.535l6.399-13.426a3.238 3.238 0 00-1.52-4.31 3.213 3.213 0 00-1.246-.313zm-91.641 22.543a3.245 3.245 0 00-2.887 1.636c-.887 1.557-.326 3.528 1.232 4.41l12.94 7.33c1.556.882 3.538.322 4.424-1.232.886-1.554.327-3.53-1.23-4.41l-12.94-7.312a3.247 3.247 0 00-1.54-.422zm118.945.345a3.196 3.196 0 00-1.531.409l-12.983 7.252a3.236 3.236 0 00-1.261 4.392 3.221 3.221 0 004.392 1.248l13.016-7.236c1.563-.869 2.106-2.852 1.228-4.41a3.246 3.246 0 00-2.861-1.655zm-58.72 5.266c-19.828 0-38.43 10.574-38.958 28.049-.245 8.116 3.212 15.902 9.072 22.146 4.789 5.103 10.573 9.451 11.907 15.883-1.774 1.32-2.942 3.429-2.942 5.81l.016 3.321h41.808l.016-3.32c0-2.382-1.167-4.49-2.941-5.81 1.334-6.433 7.118-10.781 11.906-15.884 5.86-6.244 9.318-14.03 9.072-22.146-.528-17.475-19.13-28.049-38.957-28.049zm0 7.16c17.24 0 32.97 9.68 30.536 25-1.176 7.403-6.171 12.76-11.664 18.143-4.428 4.34-7.843 8.902-9.011 14.363h-19.723c-1.168-5.46-4.584-10.023-9.012-14.363-5.493-5.383-10.488-10.74-11.664-18.143-2.434-15.32 13.297-25 30.537-25zm-66.493 17.37a3.253 3.253 0 00-3.26 3.228c-.01 1.787 1.443 3.236 3.23 3.242l14.884.047a3.239 3.239 0 003.242-3.229 3.22 3.22 0 00-3.213-3.244zm117.928 1.042a3.274 3.274 0 00-3.287 3.272c0 1.803 1.452 3.285 3.256 3.289l15.072.03a3.26 3.26 0 003.271-3.259c.005-1.8-1.455-3.281-3.256-3.287l-15.056-.045zm-72.348 52.842l.03 9.326h41.765l.03-9.326zm.055 12.563l.03 9.32h41.655l.03-9.32zm.021 12.515v1.266c.015 3.968 3.243 7.267 7.211 7.267h5.551c.014 4.273 4.364 7.66 8.074 7.66s8.06-3.387 8.074-7.66h5.551c3.968 0 7.196-3.3 7.211-7.267v-1.266z" fill="#262728"/></svg>