<svg width="72" height="72" xmlns="http://www.w3.org/2000/svg"><path d="M19.595 36.209c.553-6.198-1.252-10.968-3.763-12.836-4.653-3.466-12.562.25-14.364 4.498-1.724 4.066 1.669 8.415 4.478 10.467 4.387 3.202 10.172 3.465 15.254 6.303 1.343.75 5.545 1.204 4.102-2.41-1.65-4.131-.43-4.873-5.707-6.022" fill="#8d6b44"/><path d="M68.49 41.662c-2.465.042-6.382 1.853-7.271 2.518-.251.188-.755.4-.537.627 1.602 1.662-2.457 7.844 8.453 5.254 2.854-.677 1.652-4.573 1.396-7.084-.1-.987-.92-1.334-2.04-1.315zm-45.607 1.371c-1.12-.019-1.94.328-2.041 1.315-.255 2.51-1.458 6.408 1.396 7.086 10.91 2.589 6.851-3.594 8.453-5.256.218-.226-.285-.437-.537-.625-.889-.665-4.806-2.478-7.271-2.52zm34.676 1.682c-2.433-.045-5.5.83-6.268 1.404-.25.19-.753.401-.535.627 1.602 1.663-2.459 7.847 8.451 5.258 2.853-.678 1.77-3.003 1.514-5.514-.131-1.283-1.498-1.745-3.162-1.775zm-23.746 1.373c-1.665.03-3.032.49-3.163 1.773-.255 2.511-1.34 4.837 1.514 5.514 10.91 2.589 6.851-3.595 8.453-5.258.218-.226-.287-.437-.537-.625-.768-.574-3.835-1.448-6.267-1.404z" fill="#ba8a53"/><path d="M70.69 42.75c-3.114 5.126-37.647 7.24-50.279 2.644 1.045-9.09 1.068-7.678-.816-9.185 1.639-5.736 3.49-8.822 6.363-11.704C47.041 3.354 72.15 40.345 70.69 42.75" fill="#79a83b"/><path d="M41.135 18.361c-2.838-.062-5.673.505-7.272 2.143-.176.18 1.02 1.192 1.744 1.857 3.893 3.584 7.694 1.646 11.168.866 6.861-1.542.603-4.728-5.64-4.866zm-8.2 2.596c-4.35 1.408-10.96 6.681-4.443 7.998 3.49.706 7.274 2.72 11.168-.863.724-.667 1.978-1.768 1.744-1.86-2.826-1.107-6.748-3.358-8.468-5.275zm18.78 1.207c-1.721 1.916-6.662 2.419-8.89 4.31-.194.164 1.02 1.192 1.743 1.858 3.895 3.582 7.682 1.57 11.17.865 6.518-1.319.325-5.626-4.023-7.033zm-9.994 6.193c-.006-.002-6.31 1.762-6.01 5.024.442 4.778 11.646 3.853 12.12 3.21 3.2-4.35-1.852-6.894-6.11-8.234zM33.244 38.43c3.948-3.672 1.317-6.029-2.619-8.145-.002-.002-3.155-1.203-5.58-1.236-.809-.011-1.536.107-2.04.443-.808.54-.985 2.571-1.074 3.506-.447 4.778 10.731 5.973 11.313 5.432zm25.39-8.979a25.736 25.736 0 00-1.614.035c-.004.001-5.899 1.079-6.942 3.276-.42.882.461 2.712.863 3.56 2.048 4.33 12.248-.439 12.471-1.205 1.328-4.548-1.152-5.62-4.777-5.666zm7.231 6.463c-1.049-.022-2.277.419-3.552 1.315-.105.074-3.272.602-6.616 2.246-4.054 1.992-8.38 5.217-7.998 6.025 2.047 4.33 20.854-1.858 21.006-2.64.897-4.61-.532-6.898-2.84-6.946zm-43.447.607c-1.468-.033-1.143 2.52.842 6.532 1.053 2.128 7.794 5.489 9.586 1.699.334-.708.98-3.585-2.569-5.328-2.927-1.438-5.699-1.903-5.789-1.967-.892-.627-1.58-.925-2.07-.936zm13.686.418c-.328.026-.67.17-1.172.506-.81.54-.987 2.57-1.075 3.504-1.403 14.988 35.705-6.548 8.83-2.99-4.741-.103-5.6-1.096-6.583-1.02z" fill="#a3cd6f"/><path d="M7.405 31.31a.228.228 0 01-.22-.172 3.442 3.442 0 01.006-.505c.006-.095.013-.187.014-.284a2.99 2.99 0 01-.445-.08l-.32.618c-.012.066-.102.136-.206.136l-.06-.008a.23.23 0 01-.16-.278l.142-.294c.075-.148.075-.148.156-.3l.008-.016a2.526 2.526 0 01-.508-.267l-.046.05a6.928 6.928 0 01-.556.573l-.088.042-.039.002a.23.23 0 01-.114-.428l.488-.53a8.753 8.753 0 01-.378-.39.238.238 0 01-.054-.187.225.225 0 01.091-.15l.044-.031.09-.012c.072 0 .142.036.184.096.42.448.676.7 1.304.891 1.158.35 1.965-.078 2.635-1.427a.222.222 0 01.205-.13l.091.02a.23.23 0 01.118.301 6.58 6.58 0 01-.161.306l.09.078c.132.115.132.115.262.237l.2.188c.093.094.093.24.006.329a.232.232 0 01-.323 0l-.194-.181c-.123-.115-.123-.115-.25-.225l-.038-.034a3.591 3.591 0 01-.113.153l.112.174c.102.158.102.158.213.313l.195.292a.235.235 0 01-.027.176.225.225 0 01-.14.104l-.054.006a.228.228 0 01-.206-.13l-.135-.182c-.124-.165-.124-.165-.225-.327l-.048-.076c-.141.134-.29.245-.444.335l.243.607.02.053a.23.23 0 01-.165.28l-.057.007a.228.228 0 01-.22-.172c-.093-.182-.14-.32-.185-.452-.015-.046-.03-.092-.049-.142-.14.045-.287.073-.437.087 0 .11-.007.21-.014.307-.01.123-.018.247-.013.399.026.083-.046.209-.166.242l-.06.008m-1.863 5.036a6.577 6.577 0 01-2.362-.46l.124-.316c1.424.572 4.16.944 5.389-1.277l.293.165c-.795 1.439-2.153 1.888-3.444 1.888" fill="#fffcec"/><path d="M68.754 47.5c-.61.038-.952.66-.15 2.426.068.15 1.626-.466 1.636-.47 1.065-.654-.536-2.015-1.486-1.956zm-2.31.174c-.64.033-1.16.734-1.044 2.75.012.194 2.334-.165 2.346-.168 1.561-.278-.084-2.645-1.303-2.582zm-3.067.242c-.733-.014-1.37.725-1.227 2.143.02.194 2.378.5 2.391.5 1.127.005.618-.427.523-.797-.32-1.234-1.04-1.833-1.687-1.846zm-40.832.955c-.956.012-2.451 1.32-1.414 1.955.01.005 1.569.623 1.637.473.833-1.837.431-2.436-.223-2.428zm2.295.176c-1.208.049-2.739 2.31-1.215 2.582.013.002 2.334.36 2.346.166.123-2.107-.454-2.776-1.131-2.748zm3.154.242c-.646.013-1.365.612-1.685 1.846-.096.37-.606.8.521.797.013 0 2.37-.306 2.39-.5l.003-.002c.143-1.418-.497-2.156-1.229-2.14zm31.059.225c-.655-.008-1.057.59-.223 2.425.068.15 1.629-.463 1.639-.468 1.037-.637-.46-1.945-1.416-1.957zm-2.383.175c-.639.033-1.158.733-1.041 2.748.01.195 2.333-.164 2.346-.166 1.56-.278-.086-2.644-1.305-2.582zm-3.13.243c-.706.028-1.302.764-1.163 2.14l.002.002c.019.193 2.376.5 2.389.5 1.127.004.618-.429.521-.799-.33-1.274-1.088-1.87-1.75-1.843zm-21.222.955c-.956.011-2.452 1.318-1.414 1.955.01.005 1.569.622 1.637.47.834-1.836.432-2.433-.223-2.425zm2.295.174c-1.207.049-2.738 2.31-1.215 2.582.013.002 2.322.359 2.346.168v-.002c.122-2.106-.453-2.776-1.13-2.748zm3.155.244c-.647.012-1.366.61-1.686 1.843-.096.37-.605.801.522.797.013 0 2.371-.307 2.39-.5.144-1.418-.494-2.155-1.226-2.14z" fill="#8d6b44"/></svg>