<svg width="72" height="72" xmlns="http://www.w3.org/2000/svg"><path d="M59.01 41.05c2.356 5.373-4.397 6.302-7.027.63.808 1.289 2.218 5.645 1.932 9.736-.404 5.772-4.384 12.261-3.658 14.508.102.315.887 1.226.788 1.813-.36 2.136-6.572 3.071-7.286-.654-.871-4.544-3.412-6.224-6.39-5.78-2.31.345-5.23 1.826-5.623 5.143-.093.788.412 1.656.784 2.322.244.437.18.985.18.985-.543 2.098-6.407 1.646-6.977-2.104-.861-5.664-2.123-7.237-2.902-11.062-.87-4.267.392-10.973.807-14.163.032 4.623-7.447 7.945-9.213 4.09-.659-1.439.307-4.27 3.26-5.435.97-.383 2.08-6.396 4.17-10.164 4.148-7.473 17.19-4.122 22.794-4.56 5.283-.414 9.36 5.304 10.74 10.365.59 2.16 2.977 2.862 3.62 4.33zm-33.76 4.727c-.74 0 1.66 0 0 0" fill="#996d44"/><path d="M44.21 57.83c9.304-2.124 5.38-19.775-6.473-18.63-16.24 1.111-11.48 26.559 6.473 18.63" fill="#ece2a7"/><path d="M26.963 9.624c.002.001 3.242-3.782 7.041-4.416 4.335-.724 9.338 1.693 10.069 1.757C42.77 3.087 45.966.937 47.07 1c3.552.208 12.42 26.104-6.531 30.405C13.023 37.65 20.27-11.571 26.963 9.624" fill="#a87e56"/><path d="M34.89 5.814c-.472-.056-.84 3.078-.038 2.204.358-.39.528-1.727.134-2.147V5.87a.158.158 0 00-.095-.055zm1.364.05c-.044.001-.717 2.32.162 1.99.34-.125.278-2.02-.162-1.99zm1.58.093c-.018-.007-.041.003-.07.035-.52.576-.434.896-.22 2.07.016.087.46.311.349-.853-.03-.318.07-1.205-.059-1.252zm-4.639.088c-.403.001-.188 3.244.354 1.748.11-.3-.106-1.49-.21-1.635-.054-.078-.102-.113-.144-.113zm6.084.021a.16.16 0 00-.103.04c-.46.347-.517 1.691-.23 2.136.644.997.81-2.153.333-2.176zm1.6.51c-.036.007-.078.035-.129.086-.126.125-.537 1.263-.48 1.576.281 1.566 1.04-1.594.642-1.662a.089.089 0 00-.033 0zm-9.041.049c-.002 0-.005.004-.006.008-.131.424-.435 3.022.404 1.914.262-.346-.326-1.937-.398-1.922zm10.314.748c-.068-.028-.916 1.443-.716 1.828.639 1.231.777-1.38.72-1.82 0-.004-.001-.007-.004-.008zm-11.675.213c-.18.154-.502 2.066.382 1.908.216-.038.276-1.605-.382-1.908zm-1.163.588c-.192-.013-.327.124-.209.338.23.415.231 1.146.754 1.314.26-1.195-.224-1.631-.545-1.652zm5.832.38c-.473-.057-.841 3.077-.039 2.202.36-.391.53-1.727.135-2.147a.158.158 0 00-.096-.054zm1.364.048c-.044.003-.717 2.32.162 1.992.34-.127.278-2.02-.162-1.992zm1.58.095c-.019-.006-.042.003-.07.035-.52.575-.434.894-.22 2.07.016.086.46.31.348-.855-.03-.317.07-1.204-.058-1.25zm-4.639.088c-.404 0-.19 3.243.354 1.746.109-.3-.105-1.49-.207-1.635-.056-.078-.105-.11-.147-.11zm6.084.02a.16.16 0 00-.103.039c-.46.348-.519 1.693-.23 2.138.644.996.81-2.155.333-2.177zm1.6.51c-.036.007-.078.035-.13.085-.124.126-.536 1.265-.48 1.579.283 1.566 1.04-1.595.643-1.665a.088.088 0 00-.033 0zm-9.041.048c-.003 0-.003.002-.004.006-.131.425-.436 3.022.402 1.914.262-.346-.326-1.935-.398-1.92zm-1.36.96c-.18.153-.504 2.068.38 1.911.216-.04.277-1.609-.38-1.912zm11.26 20.859c-.085.003-.14.137-.14.466 0 .318.605 1.365.751 1.467.682.476-.24-1.949-.61-1.933zm-1.205.46a.128.128 0 00-.045.003c-.067.014-.132.086-.193.232-.204.487.09 1.8.603 2.064v-.002c.57.292.091-2.232-.365-2.296zm-8.422.42c-.897 0-.242 1.828-.037 1.948.594-.413.257-1.947.037-1.947zm6.965.14c-.075.003-.13.066-.13.099-.004 1.195-.03 1.522.583 1.998.271.21-.06-.857-.09-1.219-.06-.729-.238-.885-.363-.879zm-5.797.343c-.44-.002.125 1.833.297 2.166.061.118.389-1.65.059-1.955-.16-.147-.274-.21-.356-.211zm4.514.15c-.777-.027.23 2.001.271 1.996.438-.049.164-1.924-.191-1.988a.536.536 0 00-.08-.008zm-1.719.012c-.576-.04.372 2.77.742 2.2.314-.484-.09-1.769-.511-2.09a.462.462 0 00-.23-.11zm7.016.152a.12.12 0 00-.035.002c-.086.016-.17.129-.247.377-.132.427 1.037 1.797 1.03 1.664h.002c-.017-.348-.391-2.001-.75-2.043zm-8.344.065c-.403-.023.033 2.768.398 1.988.076-.16.076-1.368-.084-1.644-.138-.238-.24-.34-.314-.344zm7.227.998c-.086.004-.143.137-.143.467 0 .318.606 1.365.752 1.466.682.476-.239-1.949-.61-1.933zm-1.208.46a.128.128 0 00-.044.003c-.067.014-.133.086-.194.232-.204.488.09 1.802.604 2.065.568.29.09-2.234-.366-2.3zm-9.462.27c-.486.257-.355.978-.508 1.426h-.002c-.211.618 1.256.384.51-1.426zm1.04.15c-.896 0-.24 1.828-.035 1.948v.002c.593-.414.256-1.95.036-1.95zm6.965.14c-.075.003-.13.065-.13.097-.003 1.196-.03 1.524.584 2 .273.211-.058-.856-.088-1.219-.062-.728-.24-.885-.366-.879zm-5.796.343c-.44-.001.126 1.832.298 2.164v.002c.061.12.389-1.65.059-1.955-.16-.147-.276-.21-.357-.21zm4.513.15c-.777-.025.231 2.003.274 1.999.438-.05.162-1.926-.194-1.99a.536.536 0 00-.08-.008zm-1.718.012c-.576-.04.372 2.77.742 2.2.313-.484-.09-1.766-.512-2.088a.469.469 0 00-.23-.112zm-1.329.217c-.402-.022.035 2.767.4 1.988.076-.16.075-1.367-.085-1.644-.138-.238-.24-.34-.315-.344z" fill="#fcd7b1"/><path d="M46.852 21.128a.242.242 0 01-.242-.225h.002c-.004-.081.01-.281.056-.892a2.945 2.945 0 01-.712-.242l-.039.149c-.057.224-.057.225-.139.46l-.092.268a.242.242 0 01-.227.213h-.001c-.141 0-.247-.098-.256-.224l-.002-.033.118-.363c.072-.225.072-.225.132-.445l.073-.273a4.034 4.034 0 01-.246-.173l-.052.087c-.108.177-.109.178-.208.357l-.165.293a.238.238 0 01-.213.126h-.04l-.07-.026a.244.244 0 01-.106-.325l.17-.306c.104-.185.104-.185.218-.372l.088-.145a7.95 7.95 0 01-.32-.304.242.242 0 01.017-.348.25.25 0 01.343.022c1.32 1.328 2.413 1.516 3.675.647.673-.464.88-.857 1.216-1.567.024-.08.117-.148.223-.148l.075.012a.242.242 0 01.156.305 9.866 9.866 0 01-.323.645l.82.453a.24.24 0 01.188.216.242.242 0 01-.227.257l-.04.003-.038-.016c-.295-.126-.581-.289-.858-.446l-.108-.061a3.18 3.18 0 01-.545.55l.053.048c.15.142.149.142.296.289l.245.244c.093.141.06.29-.05.362l-.043.027-.09.012a.242.242 0 01-.204-.113l-.204-.195c-.145-.143-.146-.142-.29-.282l-.113-.108a3.753 3.753 0 01-.543.288c.041.128.087.242.135.36.066.16.133.326.19.535.011.098-.01.16-.053.209a.247.247 0 01-.167.08h-.001c-.142 0-.249-.098-.258-.224a5.459 5.459 0 00-.16-.426 5.504 5.504 0 01-.143-.38 2.638 2.638 0 01-.606.075c-.006.078-.006.148-.007.22a3.619 3.619 0 01-.048.597c-.003.143-.099.245-.224.253h-.015M28.293 22.787l-.023-.001a.243.243 0 01-.164-.085.237.237 0 01-.055-.177c-.024-.147-.061-.294-.098-.441a4.844 4.844 0 01-.086-.398c-.209.02-.412.017-.612-.013a4.126 4.126 0 00-.038.216c-.027.164-.054.333-.134.587-.023.135-.122.217-.24.217a.255.255 0 01-.184-.086.238.238 0 01-.057-.176c0-.02.126-.592.188-.873a2.954 2.954 0 01-.67-.342l-.06.144c-.09.213-.09.213-.205.436l-.13.25a.246.246 0 01-.236.179c-.152-.012-.252-.13-.24-.263l.016-.06.154-.313c.106-.212.106-.212.195-.42l.112-.26a5.297 5.297 0 01-.217-.206l-.062.074c-.135.163-.135.163-.259.324l-.206.27a.254.254 0 01-.335.052.243.243 0 01-.059-.336l.213-.277c.13-.17.13-.17.27-.337l.11-.133a8.326 8.326 0 01-.273-.347.244.244 0 01-.039-.19.243.243 0 01.107-.152l.04-.027.09-.01c.084 0 .16.04.205.11 1.104 1.492 2.18 1.838 3.542 1.167.734-.363.995-.72 1.43-1.376.03-.065.115-.116.208-.116h.039l.068.024c.121.06.17.206.11.325a9.755 9.755 0 01-.412.591l.74.561c.1.036.169.137.16.247a.245.245 0 01-.242.222h-.048l-.047-.025a8.642 8.642 0 01-.784-.564l-.1-.077a3.11 3.11 0 01-.617.466l.044.056c.127.162.127.162.251.328l.207.277c.073.153.02.297-.103.352l-.1.021a.243.243 0 01-.221-.143l-.19-.244c-.113-.15-.113-.15-.25-.325l-.075-.098a3.726 3.726 0 01-.58.208c.023.131.052.25.082.374.041.169.084.342.11.558-.008.158-.115.256-.24.256" fill="#4b443c"/><path d="M35.004 25.11c1.636 2.595 2.43.056 2.885-.737l-.009-.032.027.001c.122-.203.22-.27.304-.057.296.763 1.117 2.466 2.19 1.393.38-.379.473-.893.578-1.388.014-.09.1-.152.19-.139a.165.165 0 01.14.19c-.587 2.788-2.568 2.33-3.283.467-.81 1.877-1.952 2.622-3.321.454a.166.166 0 01.073-.224.168.168 0 01.226.073" fill="#42372a"/><path d="M37.385 24.323c-1.867-.324-4.003-8.407 2.153-6.276 3.171 1.097.445 6.728-2.153 6.276" fill="#42372a"/><path d="M39.924 53.258a.409.409 0 00-.287.16.52.52 0 00-.092.314c0 .242.133.59.377.59v-.168l.01-.002v.002c.114-.016.11-.053.185-.123.147-.134.322-.483.059-.57a.63.63 0 00-.196-.035v-.168a.409.409 0 00-.056 0z" fill="#231f20"/><path d="M30.089 23.84c-.267-.452-3.366-.472-3.366.155 0 3.351 4.24 1.32 3.366-.155m18.406-1.091c-.268-.45-3.366-.47-3.366.156 0 3.35 4.24 1.32 3.366-.156" fill="#f79aaa"/><path d="M16.068 41.98c.223.094-1.1.602-1.774.076-1.867-1.46 1.315-.266 1.773-.075zm.158-.963c-.605-.377-1.7-.777-2.11-.757-.026 1.149 1.074 1.415 1.813 1.407a.541.541 0 01.345-.49.694.694 0 01.123-.04v-.003c.672-2.342-2.739-2.58-3.854-2.187-.001.004-.156.481.129.316.89-.517 2.28-.267 3.102.284.8.535.407 1.074.451 1.47zm.732-.139c-.042.085-.087.17-.133.257a1.134 1.134 0 00-.194-.02c.206-1.131.078-2.887.114-2.849.59.632.676 1.22.518 1.832-.393.133-.503.544-.305.78" fill="#55b050"/><path d="M16.397 41.135h.002a.938.938 0 01.232-.02c.06 0 .125.007.194.02.018.003.034.004.052.008-.007.099-.001.189.007.273.143-.619.72-.594 1.148-.335-.165-.152-.224-.37-.237-.562.01.486.088.395-.408.313-.108-.017-.238.186-.31.146a.435.435 0 01-.12-.1c-.197-.237-.088-.648.306-.78a.994.994 0 01.542-.011 7.034 7.034 0 00-.01.22.844.844 0 01.033-.197c.738-1.1 1.947.725 1.196 1.106.72-.177 1.787 1.077.336 1.55-.249.08-.424.058-.547-.015a.712.712 0 01.141.465c.132-.23.378-.408.77-.454.025-.002.42.184.592.503a.983.983 0 00-.251-.365c-.18-.17-.396-.176-.393-.224.002-.024.193-.086.307-.237.121-.16.165-.415.176-.413.58.071.58 1.208.162 1.24a.622.622 0 01-.004.608c-.766 1.472-1.632.43-1.458-.392-.106.156-.301.297-.618.4-.894.291-.844-.721-.84-.766a1.27 1.27 0 01.019-.132c-.063.153-.219.29-.508.385-.732.238-.983-.755-.98-.792.116-1.203 1.56-.409 1.52.266.19-.68.795-.616 1.178-.294a1.175 1.175 0 01-.105-.55c.04-.413.192-.642.387-.741a1.247 1.247 0 01-.541-.01.758.758 0 01-.206-.077c.434.338.602.909-.317 1.135-.47.116-.737-.212-.871-.48.055.158.106.253.077.273-.024.018-.331-.163-.58-.185-.163-.014-.298.135-.325.118a.411.411 0 01-.216-.364.541.541 0 01.345-.49.694.694 0 01.123-.04zm.063 3.822c.071.004.136.008.195.01-.73-.078-1.292-1.612.22-1.554.929.035.533.959.514.999a1.471 1.471 0 01-.172.277c.016-.013.029-.02.038-.015.045.024.074.352.148.592.02.061.087.107.138.15-.375-.477-.292-1.44.853-1.547.036-.002 1 .465.587 1.113-.535.838-1.081.816-1.39.493a.06.06 0 01.01.035c-.017.365-.644.427-.986.092-.143-.14-.187-.394-.155-.645zm.333.006l.02-.002zm.084-.02c.004 0 .01 0 .015-.003l.019-.01-.034.014zm-.957-.163c-.66.936-1.521-1.085-.332-.844.546.11.347.823.332.844zm3.957-4.513c-1.19-.24-.328 1.781.332.846.015-.022.213-.736-.332-.846zm.461 5.122c.214-1.66-2.503-.273-1.14.539.031.02 1.042.22 1.14-.54zm-5.69-2.321c-.004.036.248 1.029.98.791 1.597-.52-.83-2.366-.98-.791" fill="#f25452"/></svg>