<svg width="72" height="72" xmlns="http://www.w3.org/2000/svg"><path d="M29.925 39.977c-1.034 1.307 2.775-.933 1.64 1.013-.274.468.028 2.186 2.192.943-3.645 2.996 3.71.562-.664 3.76-.489.358-.403 1.465.866.87.859-.404-2.256 1.37.29 1.43.362.008.572-1.743.64-2.276.235-1.88-2.344-7.802-4.1-7.508-.826.138-3.286-2.589-3.366-.676-.102 2.437 3.971.584 2.502 2.444m10.009-15.884c-1.033 1.307 2.776-.932 1.641 1.013-.274.468.028 2.187 2.192.944-3.645 2.995 3.709.56-.664 3.76-.488.357-.402 1.463.865.869.86-.403-2.256 1.372.292 1.43.36.007.57-1.742.638-2.276.236-1.88-2.344-7.802-4.1-7.508-.826.138-3.285-2.589-3.365-.676-.102 2.437 3.972.584 2.501 2.444m3.994 16.601s.845-.48.916.49c.184 2.548-1.395 1.432 1.283 1.344.571-.02 1.066 1.189-.004 1.979-2.196 1.622 2.21-.885 2.133.484-.115 2.02-1.48 1.935.437.866 1.458-.812.815 3.555 1.316 1.362.232-1.014 1.771-.752 1.747 1.733.023-2.339 2.295-.06 1.964 1.28 1.336-2.034 2.648 1.133 1.408 1.541-.315.105-1.501-1.026-3.053-2.012-1.345-.853-3-1.49-4.18-2.443-.649-.526-1.951-.613-2.57-2.427-.11-.326-1.029-1.882-.982-2.381.056-.57-.97-1.547-.415-1.816m-12.733-8.21c0-.001-.004.968.879.553 2.32-1.093.567-1.91 1.806.452.266.504 1.566.34 1.732-.976.339-2.702.31 2.35 1.471 1.61 1.712-1.092.966-2.235.973-.047.005 1.663 3.313-.5 1.641 1.012-.774.7-.4 2.427 1.764 1.184-2.035 1.17-2.653 2.839.441 2.373.681.727.922-.261-.677 1.148-.455.4.265 1.269 1.534.674.858-.403-2.204 1.4.342 1.459.361.008-.253-1.6-.081-2.11.296-.881-2.26-6.44-4.077-7.15-.78-.306-1.497-1.39-3.388-1.034-.34.064-2.153.033-2.566.32-.473.328-1.83-.082-1.794.532" fill="#99def9"/><path d="M14.11 35.772c1.43 3.374 4.727 1.21 3.767-1.445 2.342 2.955 4.323 2.432 2.936-.94-.824-2.005 3.44 4.37 2.148-1.973-.022-.11-.01.317.753 1.056.293.284 1.003.261 1.239.057.397-.341.17-1.204-.425-2.123.9.65 3.827 1.412 2.298-1.69-.53-1.074 3.785 2.628 2.068-2.197-.217-.61 3.604 2.722 2.993-.804-.209-1.207-1.314-1.312.981-.178 1.106.547 1.052-1.191.527-2.252-.055-.11 4.17 2.957 2.9-.99-.427-1.331-.725-.857 1.208-.242 1.814.579 2.062-.92 1.193-2.32-.128-.207 1.593.931 2.452.519.576-.278 1.43-3.84.947-4.67-.488-.842-6.27 4.609-6.77 4.896-1.193.685-11.005 7.828-11.04 7.869-2.273 2.536-6.263 3.931-7.537 5.536-.853 1.077-3.049.922-2.638 1.891" fill="#54a9e2"/><path d="M17.179 30.634c.052-2.138-1.353 2-.454 7.046.82 4.607 4.265 7.22 8.401 8.985 2.316.99 8.257 5.538 7.014 8.57-2.875 7.014 3.86 8.411 3.329 7.554-1.253-2.022-3.235-2.398-2.558-5.99 2.5-13.266-16.213-6.401-15.732-26.165m22.436-19.097c-1.888-1.024 2.415-.166 6.358 3.132 3.599 3.01 4.151 7.286 3.62 11.733-.298 2.49.69 9.882 3.95 10.328 7.543 1.03 5.39 7.532 4.91 6.647-1.133-2.092-.468-3.987-3.933-5.2-12.795-4.48 2.535-17.172-14.905-26.64" fill="#71c6f0"/><path d="M20.357 28.635c1.757 1.689-1.5 5.407 2.443 7.739 2.713 1.603 13.324 1.108 11.345 9.91C31.073 59.946 55.392 57.52 54.073 69c-.566 4.929 1.292-.723 1.222-1.332-1.006-8.706-17.814-10.733-20.092-16.915-1.429-3.875 1.184-3.377-.978-9.027-2.122-5.548-5.125-4.939-9.793-6.258-2.609-.736-2.729-5.538-4.075-6.832m9.863-15.787c1.758 1.688-1.5 5.406 2.443 7.738 2.714 1.604 13.324 1.108 11.345 9.91-3.072 13.663 21.247 11.237 19.928 22.716-.565 4.927 1.292-.724 1.222-1.332-1.005-8.707-17.813-10.733-20.093-16.916-1.428-3.875 1.186-3.376-.976-9.027-2.122-5.548-5.126-4.939-9.793-6.257-2.61-.737-2.73-5.538-4.076-6.832" fill="#71c6f0"/><path d="M26.396 21.988c-.194 16.517 5.89 7.525 12.296 11.458 2.634 1.616 4.017 6.007 4.398 7.7.975 4.336 2.961 6.392 7.354 8.218 7.19 2.988 4.27 6.801 5.329 8.437 1.402 2.165 3.254.653 6.115 1.126 3.99.658 1.125 4.959 4.112 5.587-2.623-2.615-.08-2.336-2.195-4.98-2.403-3-8.5 1.642-7.41-4.603 1.353-7.748-5.378-1.5-11.505-12.06-2.175-3.75-1.328-3.603-4.323-9.697-4.96-10.093-11.478 8.348-14.17-11.186" fill="#71c6f0"/><path d="M10.765 36.617c2.011 4.75 5.106 1.47 3.755-2.267 3.296 4.161 6.084 3.424 4.133-1.322-1.161-2.823 4.843 6.15 3.022-2.778-.031-.155-.014.447 1.06 1.487.411.4 1.41.367 1.745.08.557-.48.24-1.695-.599-2.989 1.266.914 5.386 1.988 3.234-2.378-.745-1.512 5.329 3.699 2.913-3.093-.305-.859 5.073 3.832 4.212-1.132-.295-1.698-1.85-1.847 1.382-.25 1.556.77 1.48-1.678.74-3.17-.076-.157 5.87 4.163 4.084-1.394-.602-1.874-1.021-1.208 1.7-.34 2.554.814 2.903-1.295 1.68-3.264-.182-.293 2.241 1.309 3.45.728.81-.39.316-2.702-.363-3.872-.688-1.185-7.13 3.786-7.834 4.19-1.678.964-15.49 11.02-15.54 11.076-3.2 3.57-8.816 5.535-10.608 7.795-1.203 1.514-2.745 1.528-2.166 2.893" fill="#f39c92"/><path d="M47.317 11.155c-.66 1.364-20.931 16.236-23.581 18.187-1.533 1.127-11.45 8.63-12.971 7.275-8.34-7.424-5.078-25.825 4.709-31.823 10.125-6.206 25.476-5.276 31.843 6.36" fill="#99def9"/><path d="M34.273 6.957a.281.281 0 00-.146.04l-.096.103c-.16.39-.276.806-.39 1.209l-.055.197a4.048 4.048 0 00-1.098-.016l.006-.136c.008-.273.008-.274.008-.547l-.002-.5a.272.272 0 00-.123-.178.287.287 0 00-.215-.04l-.08.032c-.107.061-.162.184-.14.264l-.005.416c-.004.275-.003.276-.01.539l-.005.24a4.943 4.943 0 00-.84.25 6.556 6.556 0 01-.227-.498c-.088-.211-.178-.429-.341-.709a.286.286 0 00-.356-.059l-.045.032c-.117.103-.128.28-.05.365.119.215.196.398.277.592.071.178.149.352.236.523a3.36 3.36 0 00-.691.531 6.145 6.145 0 01-.24-.224c-.16-.157-.326-.32-.606-.524a.285.285 0 00-.355-.058l-.045.031c-.117.102-.13.28-.008.416l.113.1.781.687c-.195.28-.354.6-.476.955l-.223-.133c-.26-.157-.258-.156-.558-.304l-.338-.164a.284.284 0 00-.323-.028l-.044.032a.28.28 0 00-.028.396l.47.26c.28.143.28.144.544.299l.346.203a7.088 7.088 0 00-.08.457l-.167-.041c-.274-.068-.275-.069-.535-.145l-.427-.125a.294.294 0 00-.36.182.284.284 0 00.19.357l.427.123c.278.081.28.083.553.15l.262.067a10.35 10.35 0 00-.018.625.284.284 0 00.301.262l.088-.016.037-.02a.274.274 0 00.14-.25c.002-2.49.894-3.725 2.897-4.075 1.081-.19 1.648-.009 2.617.343.14.069.307.015.381-.12.071-.139.018-.31-.142-.391a13.313 13.313 0 00-.916-.307l.357-1.223c.141-.202-.02-.445-.227-.447zm-1.513 7.078a.125.125 0 00-.186.111c.015.473-.144.678-.388 1.233-2.2 5.013-7.389 9.176-12.94 9.502v-.002a.124.124 0 00-.125.123.124.124 0 00.125.125c5.651-.331 10.928-4.541 13.168-9.648.238-.546.424-.83.41-1.336a.125.125 0 00-.064-.108zM17.568 19.35a.284.284 0 00-.136.037l-.053.039-.06.1c-.102.407-.158.835-.212 1.25l-.027.204a4.12 4.12 0 00-1.088.143l-.015-.144c-.03-.266-.03-.267-.07-.543l-.075-.487a.282.282 0 00-.363-.166l-.045.022c-.12.069-.172.212-.133.302l.05.38c.04.296.041.296.071.54l.033.268a5.19 5.19 0 00-.795.367c-.113-.157-.202-.307-.296-.463a5.753 5.753 0 00-.442-.65.286.286 0 00-.324-.03l-.074.06a.279.279 0 00-.069.204c.005.076.04.144.07.164.15.197.251.367.36.547.091.153.186.313.31.485a3.302 3.302 0 00-.609.625 6.75 6.75 0 01-.27-.19c-.18-.13-.368-.269-.673-.432a.286.286 0 00-.326-.029l-.075.06a.282.282 0 00.032.4l.002-.003c.073.058.29.201 1.02.668a3.809 3.809 0 00-.335 1.014l-.23-.098c-.285-.12-.287-.119-.6-.219l-.365-.119a.283.283 0 00-.287-.004l-.074.063a.281.281 0 00.03.396l.5.188c.299.103.298.1.58.217l.376.15a7.086 7.086 0 00-.014.467l-.18-.02c-.274-.028-.274-.026-.548-.064l-.436-.06a.291.291 0 00-.326.228.284.284 0 00.047.21.285.285 0 00.19.116l.452.064c.28.04.279.04.569.069l.26.025c.016.195.04.401.072.621a.284.284 0 00.334.219l.086-.031a.278.278 0 00.136-.291c-.364-2.476.33-3.81 2.276-4.45 1.04-.341 1.628-.246 2.64-.035a.295.295 0 00.36-.175.277.277 0 00-.014-.215.287.287 0 00-.183-.149 12.104 12.104 0 00-.956-.174l.18-1.261a.284.284 0 00-.258-.41z" fill="#656263"/></svg>