<svg width="72" height="72" xmlns="http://www.w3.org/2000/svg"><path d="M26.822 18.17c2.201.281 5.883.871 2.553 2.103-.052.019-1.175.107-2.188.082.057 2.208-.896 4.252-3.242 5.357-.29.137-.579.27-.865.403 1.09 1.27 2.842 3.14 5.08 4.147 5.316 2.39 16.687-1.157 22.012 11.091 2.972 3.92 2.623 22.666 2.247 27.74-1.024.488-.593.16-2.123.102-.371-.014-.563-9.617-.84-13.124-.372-4.671-2.798-5.749-3.233-1.158-.4 4.218.753 10.617.693 14.409-.016 1.019-2.751-.044-2.751-.08.047-18.76-4.486-25.099-8.113-25.134-3.248-.03-5.44 1.33-8.238 7.639-2.507 5.652-2.12 15.682-3.102 18.013-.582 1.38-2.113.665-2.724.373.017-.572 3.49-20.88.592-21.252-3.463-.445-1.938 16.105-3.228 20.626-.453 1.59-.96 1.825-2.821-.194.107-3.477.413-12.504.909-17.62-2.418-15.453-2.216-15.78-4.524-21.848-10.093 2.587-13.583-.787-5.253-8.16 1.339-1.8 1.9-4.857 4.095-7.115 4.764-4.904 9.69-3.653 12.658-.52.203-1.118.323-1.97 2.395-3.983.97-.942.67.464.67 2.414 0 2.02-.726 3.086-1.546 3.625.376.663.675 1.36.887 2.065" fill="#cbc1e6"/><path d="M45.648 33.759c.487-3.782 6.41-9.424 8.683-3.282 2.605 7.04 8.5 6.406 9.001 1.848.23-2.091.562-4.692-1.564-6.188 3.363-2.385 10.62 9.328 5.4 14.786-12.212 12.769-11.954-5.81-20.714-3.063-1.075.337-.958-2.918-.806-4.101" fill="#6e87cd"/><path d="M16.53 69.312c-.005.146.028 1.122.08 1.135.553.147 1.415.292 1.985.292.672 0 .777-1.231.757-1.232a82.818 82.818 0 01-2.476-.162c-.019-.007-.344-.058-.345-.033m5.474.249c-.006.144-.045 1.127.008 1.14.553.147 1.422.204 1.984.292.717.112.735-1.233.715-1.233a91.08 91.08 0 01-2.433-.16c-.02-.008-.273-.065-.274-.039m22.16-.318c0 .151-.052 1.185.006 1.197.589.128 1.7.195 2.3.168.707-.032.466-1.286.445-1.286a84.396 84.396 0 01-2.517-.055c-.02-.007-.234-.052-.234-.024m6.053-.152c.005.144.115 1.116.158 1.127.444.107 1.13.193 1.576.154.526-.047.484-1.28.467-1.278-.165.012-1.888.018-1.918.006-.016-.005-.284-.033-.283-.009" fill="#6e3b0b"/><path d="M13.547 22.873l-.06-.01a.207.207 0 01-.135-.26 5.93 5.93 0 00-.001-.264 2.884 2.884 0 010-.208 1.686 1.686 0 01-.28-.07 2.038 2.038 0 00-.032.077c-.04.099-.08.2-.165.347-.039.085-.11.131-.19.131l-.063-.01a.202.202 0 01-.12-.101l-.03-.06.037-.144.196-.424a1.819 1.819 0 01-.281-.234l-.018.026c-.085.119-.085.119-.187.242l-.108.128a.203.203 0 01-.18.106l-.06-.01a.209.209 0 01-.135-.26l.028-.052.135-.17c.092-.113.092-.113.175-.227l.08-.112a8.847 8.847 0 01-.05-.074l-.004.004c-.1.078-.1.078-.2.161l-.2.169-.09.012a.206.206 0 01-.151-.066.21.21 0 01.014-.294l.172-.144c.1-.084.1-.084.21-.17l.045-.035a5.528 5.528 0 01-.097-.21l-.029-.066.031-.101a.202.202 0 01.117-.107l.07-.012c.086 0 .163.054.193.134.452 1.036 1.024 1.381 1.917 1.165.48-.118.672-.287 1.028-.63l.046-.045.1-.016a.207.207 0 01.161.335 7.125 7.125 0 01-.297.277l.394.47a.205.205 0 01-.182.301l-.099-.021-.027-.026a5.349 5.349 0 01-.4-.456l-.02-.024a1.932 1.932 0 01-.347.16c.047.1.05.106.099.22l.087.197c.032.144-.039.253-.15.277l-.041.004a.207.207 0 01-.202-.165l-.197-.426a2.65 2.65 0 01-.295.038v.184a2.83 2.83 0 01-.009.362c-.033.118-.112.177-.203.177m-9.944 3.462c2.742-.365 4.172 4.471 1.13 4.096-.509-.062-1.103-.555-1.435-1.049a1.841 1.841 0 01-.278-.767c-.11-1.05.472-2.265.583-2.28" fill="#452408"/><path d="M15.459 13.557c-.017-.49-1.338-11.678-1.634-12.186-.708-1.212 1.139.8 1.77 2.358 1.427 3.52 6.905 10.236 1.294 10.477-.06.002-1.43-.613-1.43-.65" fill="#6e87cd"/></svg>