<svg width="72" height="72" xmlns="http://www.w3.org/2000/svg"><path d="M19.953 51.192c1.568 6.405 21.609 11.307 29.396 11.066C67.598 61.693 69.246 48.613 71 44.25c-13.78 6.497-24.44 6.907-30.711.636-6.94-2.104-20.525 5.536-20.336 6.305" fill="#4e7f39"/><path d="M39.243 45.509c6.18 4.286 18.2 5.79 24.774 2.088.476-.205.68-.315 1.29-.5 1.118-.335 2.272-1.018 3.408-1.36.11-.034.302-.133.406-.187.155-.067 1.757-.827 1.461-1.023-.39-.26-.66.173-1.015-.161-.659-.617-.715.155-.657.73a5.11 5.11 0 01-.633-.532c-1.013-.95-.952.579-.825 1.306-.266-.214-.386-.324-.72-.7-.96-1.076-1.005.614-.931 1.307-.402-.266-.553-.375-1.036-.828-1.251-1.175-1.177.715-1.02 1.612-.328-.264-.478-.4-.891-.864-1.1-1.232-1.227.471-1.167 1.41a6.5 6.5 0 01-.6-.757c-.973-1.361-1.279.384-1.314 1.316-.28-.281-.421-.446-.778-.946-.983-1.375-1.308.314-1.356 1.291-.185-.22-.316-.406-.58-.828-.907-1.456-1.32.39-1.401 1.297-.25-.34-.357-.509-.639-1.064-.745-1.474-1.306.14-1.49 1.063a6.714 6.714 0 01-.385-.885c-.59-1.565-1.335.043-1.607.934-.199-.344-.293-.54-.51-1.114-.68-1.803-1.511.287-1.694 1.069-.259-.52-.38-.497-.591-1.198-.509-1.688-1.46-.166-1.79.723-.114-.44-.108-.46-.166-1.115-.16-1.828-1.369-.342-1.828.43-.04-.517-.169-.51-.104-1.204.187-2.02-1.656-.437-2.037.09.015-.706-.135-.482.013-1.259.407-2.129-3.404-.454-3.587-.141" fill="#a3cd6f"/><path d="M14.397 36.243c.082 3.535-.78 6.405-.568 9.363.26 3.634 1.588 7.403 1.557 12.711 0 5.301-2.304 5.159-5.408 6.332-.427.162-.113.462-.6.687 1.782 2.192 9.79 1.67 10.986.4 2.006-3.362-.085-9.414 2.118-9.22 3.667.777 4.939.85 8.365-.031 0 5.572-.217 7.906-3.808 9.758-.503.26.09 2.68-.584 2.998 1.157 1.39 8.532-3.186 9.37-4.94.318-.748 2.995-6.05 4.128-11.152.758-3.416.056-6.912.336-8.262.75-3.622-.215-7.866-1.757-11.816 4.177.917 9.037-1.01 10.5-3.004 4.163-5.67-3.704-4.093-6.847-4.093-5.416 0-7.919-1.923-8.81-2.853a64.46 64.46 0 00-1.84-2.747c-3.56-1.299-4.474-.53-8.368.029-1.53.22-4.103 1.146-6.924 3.286-5.054 3.832-3.74 10.406-12.31 14.348-10.603 4.877 10.988 6.154 10.464-1.794" fill="#64a24c"/><path d="M28.458 23.866c7.887-1.517 22.483-8.537 21.407-11.244.087-.209.137-.198.137-.715 0-3.087-.543-2.34-1.607-1.074-.248-.437-.623-1.18-1.15-1.18-.526 0-1.06 1.073-1.212 1.901-8.958-.05-13.803-2.099-17.31-4.415-29.456-19.453-31.436 29.368-.265 16.727" fill="#64a24c"/><path d="M43.673 18.126c-7.504 1.743-13.56 2.776-20.104.698.001 0-.523-.243-.893-.475a.73.73 0 01-.187-.005.85.85 0 00.183.003c-.398-.25-.618-.485.181-.388.101.016.17.053.202.1a5.3 5.3 0 00.502.223c5.851 2.294 12.8 1.135 19.823-.498.206-.059.439-.03.52.065.08.093-.02.218-.227.277" fill="#4b443c"/><path d="M22.95 26.486c4.282 8.334 12.67 27.93 7.897 29.999-1.051.456-7.868 1.36-11.4-1.978-6.106-5.77-7.256-17.24 3.503-28.02" fill="#ece2a7"/><path d="M12.733 12.594c1.109-1.375 2.906-1.259 4.152-.149l.485.534a.222.222 0 01-.36.26l-.42-.462c-1.03-.918-2.56-1.087-3.49.068a.222.222 0 11-.367-.251" fill="#4b443c"/><path d="M6.41 9.62c4.123-.326 11.61.915 15.47 2.752.015-.039 18.412 8.335 24.153-.818C30.394 16.78 20.906-5.262 8.643 5.631c-1.37 1.217-1.928 3.064-2.232 3.99" fill="#78b663"/><path d="M12.474 17.2h-.046l-.124-.066-.055-.165.043-.093c.107-.148.2-.27.29-.376l-.09-.091c-.221-.222-.451-.451-.658-.698l-.033-.06-.02-.066.038-.096a.213.213 0 01.128-.103l.06-.008c.076 0 .146.041.183.105.186.201.38.397.572.592l.111.111c.176-.169.356-.303.56-.417l-.046-.065c-.18-.252-.367-.512-.529-.786l-.022-.066-.01-.069.054-.088a.213.213 0 01.143-.08c.112.013.191.056.223.136.15.228.309.45.467.674l.113.16c.134-.052.279-.1.441-.146.062-.017.13-.033.203-.047l-.002-.014c-.08-.36-.155-.7-.261-1.069a.212.212 0 01.14-.262l.065-.01c.094 0 .175.06.203.148.113.394.19.746.273 1.118l.006.027c.213-.02.436-.03.67-.027.106-.387.2-.726.276-1.136a.214.214 0 01.21-.176l.07.01.102.076a.211.211 0 01.039.16 12.73 12.73 0 01-.26 1.086c.282.023.549.066.79.126l.026-.06c.153-.356.296-.692.424-1.06a.212.212 0 01.203-.145l.054.006a.21.21 0 01.132.103l.035.061-.015.1c-.14.4-.29.75-.448 1.12l-.003.004c.21.083.389.182.535.296.236-.276.46-.544.682-.813.017-.04.09-.085.17-.085h.041l.059.026c.049.024.086.07.103.124l.021.066-.036.097c-.255.318-.501.612-.748.9.06.09.104.187.134.29.024.133-.053.244-.168.264-.147-.006-.231-.07-.248-.172-.182-.615-1.334-.84-2.263-.84-.419 0-.83.045-1.1.119a3.74 3.74 0 00-.508.176l-.073.033c-.493.233-.797.563-1.152 1.05a.204.204 0 01-.174.092" fill="#4b443c"/><path d="M49.138 12.195c.213 0 .387-.24.387-.535 0-.296-.174-.536-.387-.536-.211 0-.384.24-.384.536 0 .294.173.535.384.535m-1.751-.046c.277 0 .503-.314.503-.699 0-.385-.226-.7-.503-.7-.276 0-.501.315-.501.7 0 .385.225.699.501.699" fill="#f1e2af"/><path d="M44.348 12.2c-.099 0-.35.26-.491.362-.449.32-.395.081-.773-.026-.867-.25 1.04-.336 1.264-.336zm-15.784-.796c-.21-.073-2.043-.615-1.304-.096.322.225.193.432.72.277.169-.05.49-.213.584-.181zm1.59-1.844c-.203-.09-1.716-.986-1.294-.189.11.208.296.518.833.403.171-.036.552-.175.461-.214zm3.273 1.514c-.208-.08-1.758-.912-1.302-.132.12.202.318.502.85.366.17-.043.544-.198.452-.234zm-.35 1.312c-.217-.054-1.86-.683-1.31.032.144.186.38.46.891.256.162-.064.514-.265.419-.288zm1.092 1.04c-.096-.017-.39.193-.547.268-.498.235-.404.01-.755-.163-.81-.4 1.083-.145 1.302-.105zm-5.352.064c-.208-.078-1.772-.885-1.304-.113.122.2.325.498.857.354.168-.046.54-.207.447-.241zm1.539.513c-.094-.03-.412.139-.58.192-.524.166-.4-.044-.724-.263-.749-.505 1.092.002 1.304.07zm1.763-.02v.001c-.207-.082-2.014-.703-1.298-.153.312.24.174.44.708.309.17-.043.499-.193.59-.157zm-1.41-1.108c-.094-.03-.412.14-.58.192-.524.165-.4-.045-.724-.264-.749-.506 1.092.002 1.304.072zm.846-1.004c-.092-.032-.414.131-.582.181-.528.155-.4-.051-.72-.276-.74-.52 1.092.022 1.302.095zm-.202-1.204c.09.04-.291.176-.462.21-.54.11-.723-.201-.831-.41-.416-.801 1.09.11 1.293.2zm2.031 3.926c.095.024-.257.223-.42.287-.511.202-.746-.072-.89-.259-.548-.717 1.094-.082 1.31-.028zm1.537.521c-.217-.049-2.098-.385-1.305.05.344.188.24.408.746.195.162-.069.463-.267.559-.245zm1.83.12c-.097-.018-.39.19-.55.264-.5.23-.403.007-.754-.17-.807-.405 1.084-.135 1.303-.094zm2.118-2.72c-.183 0-1.616-.178-1.036.283.151.12.392.292.76.03.116-.084.356-.313.276-.313zm-3.116 1.227c-.223 0-2.13.087-1.262.336.377.107.324.345.771.026.143-.102.393-.362.491-.362zm-.012-.745c-.21-.074-2.035-.634-1.3-.109.318.23.188.435.717.285.168-.048.491-.208.583-.176zm-.404-.998c-.21-.07-1.796-.834-1.307-.075.128.198.34.489.866.328.168-.05.534-.221.441-.253zm2.1 2.148c.1 0-.194.279-.335.38-.448.32-.742.111-.927-.035-.706-.562 1.04-.345 1.263-.345zm.233-1.163c.098 0-.195.28-.337.38-.447.32-.742.112-.926-.035-.706-.563 1.04-.345 1.263-.345zm1.596.769c-.223 0-2.13.086-1.262.335.378.109.323.346.771.026.143-.101.393-.361.491-.361zm-.386 1.136c-.223 0-2.131.086-1.262.336.377.108.323.345.77.025.143-.101.394-.361.492-.361zm1.86-.28c-.098 0-.348.26-.49.361-.449.32-.395.083-.773-.025-.868-.25 1.04-.336 1.263-.336zm.328-.943c-.098 0-.35.258-.492.36-.447.32-.393.083-.77-.026-.87-.248 1.038-.335 1.262-.335zm-.347-.927c.099 0-.194.28-.336.38-.447.32-.742.111-.926-.035-.707-.562 1.04-.345 1.262-.345zm1.785 1.243c-.223 0-1.97-.218-1.262.345.184.146.478.354.926.035.142-.102.434-.38.336-.38zm.232-1.164c-.223 0-1.97-.217-1.262.345.183.146.478.355.925.036.143-.101.435-.38.337-.38zm1.399.385c-.099 0-.349.26-.491.362-.448.32-.394.082-.772-.026-.869-.25 1.04-.336 1.263-.336" fill="#bfe481"/><path d="M25.838 23.701c-.597.027-1.378.619-2.377 2.201.177.237.294.527.293.735-.006.9-.546.983 2.137 1.468.444.08 1.696.128 1.713-1.203.002-.01-.43-.291-.448-.511-.02-.236.298-.704.201-.95-.068-.17-.57-.327-.634-.49-.056-.15.262-.355.19-.486-.258-.463-.61-.785-1.075-.764zm-6.348.942c-.658-.017-.983.458-1.11 1.087-.03.146.334.247.325.407-.01.175-.44.475-.453.658-.018.265.426.614.478.846.05.214-.275.613-.27.623.42 1.263 1.599.839 1.997.629 2.412-1.274 1.87-1.192 1.592-2.047-.064-.198-.04-.508.056-.787-1.192-1.005-2.034-1.402-2.615-1.416zm3.309 1.134a.516.516 0 00-.069.008c-.373.062-.612.505-.53.99.08.483.447.826.82.764.374-.062.612-.504.53-.988-.074-.454-.403-.784-.751-.774z" fill="#99def9"/></svg>