<svg width="72" height="72" xmlns="http://www.w3.org/2000/svg"><path d="M58.072 56.188c-.242.286-.504.556-.765.826 2.512 2.196 5.233 3.704 6.192 3.902-.268-.427-1.323-1.669-5.427-4.728" fill="#8b613a"/><path d="M48.83 1.508c-1.058.111-2.267 1.512-3.594 4.912h-.002c-1.243 3.188-2.239 7.382-2.664 11.215-.266 2.408-.286 4.453-.086 6.04a35.2 35.2 0 014.618 3.137c.432-.297.887-.668 1.378-1.125.29-.268.567-.574.833-.906-.621.807-1.28 1.642-1.956 2.233.74.606 1.424 1.224 2.065 1.841l.01-.093c7.363.814 12.348-1.768 15.236-4.08 3.333-2.665 5.639-6.466 6.018-9.909.526-4.75-3.138-6.737-7.127-5.712-6.015 1.543-11.51 12.298-13.385 14.615-.213.264-.432.55-.658.844 2.76-3.683 4.134-10.49 3.49-14.504-.684-4.237-2.155-8.721-4.176-8.508z" fill="#a6e1e8"/><path d="M40.065 22.225c-16.497-9.13-32.667-1.48-35.442 1.948C-1.77 32.07-.462 49.556 22.78 64.553c16.258 10.49 34.997-1.514 35.948-10.08.48-4.324 6.2-18.49-18.662-32.248z" fill="#f8d62e"/><path d="M5.678 21.838c-.148.342-.308.902-.399 1.492-.126.797-.135 1.648.166 2.106.784 1.199 1.66 1.69 2.526 1.787 1.13.123 2.246-.433 3.129-.989l-.373-.597c-2.164 1.36-3.526 1.192-4.69-.592-.276-.42-.107-1.737.16-2.576.04-.128.083-.245.127-.348l-.646-.283zm7.957 6.576c-.692 1.31-.547 3.489.775 4.635.324.28.82.578 1.516.654.896.1 2.123-.17 3.728-1.338l-.41-.57c-1.824 1.323-3.376 1.579-4.367.72-1.027-.89-1.171-2.724-.617-3.773l-.625-.328zm-8.547 1.022c-2.008 3.212-1.007 6.575 1.02 8.236a5.319 5.319 0 002.79 1.174c1.73.192 3.818-.425 5.997-2.479l-.485-.515c-3.227 3.04-6.174 2.652-7.855 1.275-1.787-1.468-2.66-4.453-.867-7.316l-.6-.375zM30.195 18.578c-1.47 8.47-10.662 31.39-19.552 36.022a54.059 54.059 0 003.884 3.757c9.085-4.525 20.947-25.517 20.526-38.412a33.652 33.652 0 00-4.858-1.367zm11.856 4.791c-1.826 8.463-13.239 33.535-22.287 39.125.966.69 1.96 1.378 3.015 2.059.596.384 1.196.73 1.797 1.054 8.546-5.269 22.982-30.03 21.79-39.449a63.256 63.256 0 00-4.315-2.789zm9.965 7.496c-2.708 10.2-12.423 32.194-20.477 37.278 3.043.615 6.046.623 8.887.183 7.714-5.13 16.357-23.652 15.967-32.058-1.087-1.751-2.52-3.56-4.377-5.403z" fill="#8b613a"/></svg>