<svg width="72" height="72" xmlns="http://www.w3.org/2000/svg"><path d="M8.163 27.943c.072 2.132-.947 4.753 2.177 5.812 1.672.566 4.038-1.306 1.799-2.26-1.191-.507-1.965-3.214-3.976-3.552" fill="#f25452"/><path d="M27.736 54.336a.44.44 0 00-.216.07l-.002.002c-2.394 2.152-4.677 4.429-6.987 6.672a.443.443 0 00-.084-.016l-3.552-.289a.443.443 0 00-.475.407c-.02.245.16.46.402.48l2.887.234c-.572.553-1.465 1.41-1.629 1.75a.449.449 0 00.022.616.439.439 0 00.625-.008c.66-.82 1.184-1.277 1.943-2.06a.45.45 0 00.049-.05c-.072 1.6-.054.997-.092 3.33a.442.442 0 10.87-.15c.06-2.43.027-1.21.095-3.66a.442.442 0 00-.145-.236c2.166-2.11 4.32-4.24 6.555-6.276a.447.447 0 00.127-.615.44.44 0 00-.393-.201zm14.15 2.41a.442.442 0 00-.302.438c.504 6.205.252 3.495.871 9.337a.437.437 0 00-.117.079c-1.503 1.309-.726.687-2.34 1.869a.448.448 0 00-.19.6.44.44 0 00.596.19c1.612-1.166 1.18-.813 2.235-1.75.117 1.406.083 1.015.256 3.01a.442.442 0 10.88.073c-.186-2.327-.112-1.442-.287-3.479.953.216 1.542.524 2.64.742a.443.443 0 00.476-.408.444.444 0 00-.405-.478c-1.093-.22-1.689-.552-2.797-.772a.442.442 0 00-.091.008c-.54-5.055-.36-3.115-.844-9.016a.442.442 0 00-.58-.443z" fill="#796057"/><path d="M47.358 36.682c9.376-2.434 12.856-18.378 11.332-16.66-2.107 2.377-2.917 7.363-5.201 1.127-.469-1.28-2.452 2.964-4.293 4.283.409-2.358-.152-4.886-2.348-.808-1.511 2.806-5.502-.026-8.414-.587-3.604-.692-6.662 16.69 8.924 12.645" fill="#f25452"/><path d="M7.692 21.905c-.832.715-5.834 1.046-6.551-1-.348.017-.044 1.486.825 2.761 1.188 1.745 4.643 1.287 6.541 1.933-2.779-.08-3.893 3.984-3.862 5.263.446-1.373 5.709-4.491 5.756-3.386-.938-.187-1.958-6.216-2.709-5.571" fill="#eb8413"/><path d="M5.77 15.874C2.632 35.53 28.612 41.164 34.217 25.929 39.996-.665 8.357-.336 5.77 15.874" fill="#d3d2d2"/><path d="M17.723 45.343c4.3 10.153 14.363 14.384 23.232 13.595.48.033 1.169-.066 2.017-.27 2.1-.378 4.098-1.049 5.896-1.998 9.364-3.704 22.85-10.63 22.102-10.661-10.963-.46-9.851 3.218-.082-4.511-1.792-1.088-7.721.079-13.854 2.527.101-2.265-.242-4.77-1.123-7.503-11.573-26.088-44.582-6.278-38.188 8.821" fill="#d3d2d2"/><path d="M18.88 18.294c-.07 1.238-3.349 3.213-5.293.558a.183.183 0 00-.255-.054.188.188 0 00-.054.258c.083.11.166.216.252.313-.29.224-.5.36-.872.49a.186.186 0 00.053.368c.495-.163.696-.293 1.078-.59.253.236.521.422.796.56-.438.605-.23.3-.718 1.069a.186.186 0 00.028.26c.08.065.196.052.26-.029.519-.811.275-.44.731-1.12a.18.18 0 00.036-.034c.332.122.671.183 1.006.193.029.646.018.321.033 1.079a.185.185 0 10.366-.051c-.012-.715 0-.436-.04-1.035.392-.03.77-.124 1.12-.263.167.6.077.313.32 1.008a.186.186 0 00.232.12.187.187 0 00.119-.235c-.25-.714-.144-.38-.333-1.048.312-.162.593-.36.824-.58.34.591.171.307.579.972a.185.185 0 10.316-.192c-.428-.698-.22-.347-.632-1.064.248-.309.398-.643.417-.964a.185.185 0 00-.19-.18.185.185 0 00-.179.191" fill="#4f4c4c"/><path d="M27.635 49.306c8.732 4.215 21.566-5.738 19.303-5.41-3.13.454-6.93 3.747-4.702-2.51.458-1.284-3.768.68-6.02.496 1.817-1.54 3-3.84-1.281-2.14-2.948 1.168-4.197-3.589-6.07-5.906-2.318-2.867-15.747 8.462-1.23 15.47" fill="#f25452"/><path d="M28.153 7.9c1.162-.259 1.466 1.231-.372.524-.272-.105.252-.498.372-.524m-1.229-1.288c1.16-.257 1.465 1.233-.372.524-.273-.104.252-.497.372-.524m-2.227.676c1.161-.258 1.467 1.232-.372.524-.272-.105.253-.498.372-.524m-.802-1.368c1.161-.257 1.465 1.232-.373.525-.272-.104.252-.498.373-.524m6.582 3.248c.762.265.415 1.236-.4.17-.12-.157.32-.198.4-.17M22.898 7.03c.762.265.415 1.236-.4.17-.12-.159.32-.198.4-.17m-1.004-1.642c.79-.171.99.84-.255.355-.184-.073.173-.337.255-.355m-.906 1.207c.79-.171.991.841-.254.355-.185-.072.172-.337.254-.355m-1.683-1.18c1.052-.228 1.321 1.121-.34.473-.246-.096.23-.45.34-.473m-.728 1.798c1.035-.296 1.39 1.035-.308.494-.252-.08.2-.463.308-.494m-1.299-.992c.948-.51 1.574.713-.198.55-.262-.025.098-.496.198-.55m-2.393.157c.95-.511 1.576.712-.197.548-.263-.024.099-.495.197-.548m1.536 1.458c.585-.315.972.44-.122.339-.162-.016.062-.306.122-.339m-2.242.271c.585-.316.971.438-.122.338-.162-.015.06-.306.122-.338m-1.02 1.725c.585-.315.971.44-.122.339-.162-.016.06-.306.122-.339M12.701 7.7c.585-.315.972.44-.122.338-.162-.014.06-.306.122-.338m-1.448 2.357c.585-.315.97.439-.122.338-.162-.015.06-.305.122-.338m-1.825 2.059c.503-.437 1.044.213-.045.358-.16.02-.007-.313.045-.358" fill="#fff"/><path d="M7.692 10.962c-2.742-14.554 4.4-4.55 6.519-8.973.631-1.317 2.786-1.489 3.44.534.519 1.602 1.428-3.222 4.11.342.935 1.24 1.655-.485 2.695-.015.329.148-.004.645.649 1.313.602.615 2.389-1.266 4.743 3.624.249.515-4.998-2.887-11.076-2.7-3.83.117-7.506 2.833-10.714 5.606-.292.252-.318.525-.366.269" fill="#f25452"/></svg>