<svg width="72" height="72" xmlns="http://www.w3.org/2000/svg"><path d="M17.914 41.443c-3.954 4.048 3.083 6.521 7.025.623-.807 1.271-2.218 5.57-1.932 9.608.405 5.696 4.384 12.099 3.658 14.317-.102.31-1.844 1.209-1.745 1.788.003 3.865 7.249 4.41 8.244-.645.87-4.484 3.411-6.142 6.39-5.703 3.918.578 5.013 7.057 4.838 7.367-.243.43-.18.971-.18.971.543 2.071 6.407 1.625 6.977-2.076.862-5.59 2.123-7.142 2.902-10.917.87-4.21-.391-10.828-.807-13.977-.032 4.564 9.243 8.87 9.213 4.036.16-.343-6.799-14.27-7.43-15.392-4.147-7.375-17.19-4.069-22.793-4.5-5.283-.409-9.36 5.233-10.74 10.228-.59 2.132-2.314 2.818-3.62 4.272zm33.76 4.666c.738 0-1.662 0 0 0" fill="#9e9e97"/><path d="M32.712 58.003c-9.303-2.096-5.38-19.515 6.473-18.385 16.241 1.096 11.479 26.21-6.473 18.385" fill="#e9e9e9"/><path d="M34.928 31.705c-.371-.016-1.292 2.378-.61 1.908.145-.1.752-1.133.752-1.447 0-.325-.057-.457-.142-.46zm1.2.457c-.454.085-.924 2.552-.358 2.266.513-.258.807-1.554.603-2.035-.076-.18-.16-.247-.244-.23zm8.427.412c-.22 0-.557 1.513.037 1.922.205-.119.862-1.922-.037-1.922zm-6.963.137c-.125-.006-.304.148-.365.867-.03.358-.363 1.41-.09 1.201.614-.468.588-.791.586-1.97 0-.033-.056-.094-.131-.098zm5.795.338c-.082 0-.198.063-.358.209-.33.3-.001 2.045.06 1.93.173-.33.738-2.14.298-2.14zm-4.514.148a.56.56 0 00-.08.01c-.355.064-.63 1.915-.191 1.963.041.005 1.049-2 .271-1.973zm1.719.014a.47.47 0 00-.23.11c-.423.316-.825 1.585-.512 2.06.37.564 1.318-2.21.742-2.17zm-7.022.152c-.357.064-.727 1.673-.744 2.014-.006.131 1.166-1.223 1.033-1.643-.09-.286-.189-.389-.289-.37zm8.352.063c-.075.004-.179.103-.317.338-.16.272-.159 1.464-.084 1.623.367.768.804-1.984.4-1.961zm-7.229.984c-.37-.015-1.29 2.377-.609 1.908.145-.1.752-1.134.752-1.449 0-.325-.057-.455-.143-.459zm1.202.455c-.455.086-.925 2.553-.36 2.268.514-.258.808-1.555.604-2.037-.077-.18-.16-.247-.244-.23zm9.468.266c-.745 1.786.721 2.014.51 1.406-.153-.444-.024-1.152-.51-1.406zm-1.04.148c-.22 0-.56 1.514.034 1.92.205-.117.862-1.92-.035-1.92zm-6.966.137c-.125-.007-.304.147-.365.865-.03.358-.362 1.412-.088 1.203.613-.469.586-.792.584-1.97 0-.033-.055-.094-.13-.098zm5.797.338c-.081 0-.198.063-.357.209-.33.3-.003 2.046.058 1.93.173-.33.74-2.14.3-2.14zm-4.513.148a.56.56 0 00-.08.01c-.356.064-.632 1.913-.194 1.961.043.005 1.05-1.998.274-1.97zm1.718.014a.47.47 0 00-.23.11c-.422.315-.825 1.584-.512 2.06.37.565 1.318-2.21.742-2.17zm1.33.213c-.074.004-.178.103-.316.338-.16.273-.16 1.468-.086 1.625.365.77.805-1.985.402-1.963z" fill="#fcd7b1"/><path d="M36.94 53.46v.196a.641.641 0 00-.194.035c-.263.085-.088.43.059.565.076.068.071.104.185.119H37v.195c.266 0 .408-.354.408-.61a.538.538 0 00-.1-.327.452.452 0 00-.369-.172z" fill-rule="evenodd" fill="#231f20"/><path d="M47.855 8.051c-.002.003-3.755-3.073-7.526-3.06-4.3.014-8.726 3.127-9.42 3.306.552-9.392-5.304-8.21-9.213-4.784-3.902 3.418-3.694 9.07 2.414 8.67-.758 7.872 2.486 18.175 14.268 18.807 13.574.727 16.793-9.968 16.212-18.484 4.1 1.05 3.527-4.566 2.779-6.399-1.667-4.08-8.485-5.508-9.514 1.944" fill="#b7b2a5"/><path d="M41.25 5.656c-.04.007-.08.048-.121.131-.075.154-.086 1.322.068 1.59.773 1.337.443-1.785.053-1.72zm-1.629.053c-.047-.007-.09.015-.129.072-.31.464.077 1.707.487 2.02.89.68.1-2.03-.358-2.092zm-1.351.27c-.43.044-.176 1.855.171 1.921.904.168-.128-1.925-.171-1.921zm4.386.01c-.074-.004-.376 1.605-.066 1.892.993.919.267-1.505.072-1.887-.002-.003-.003-.006-.006-.006zm-5.865.335c-.184-.055.094.873.12 1.201.086 1.127.478.843.48.758.01-1.154.04-1.47-.557-1.933a.144.144 0 00-.043-.026zm-1.406.34c-.456.098.226 3.07.681 2.018.203-.47-.075-1.74-.576-1.998a.155.155 0 00-.105-.02zm8.742.018c-.583.395-.265 1.879-.05 1.879.877.007.25-1.762.05-1.88zm1.307.361c-.308-.012-.831.467-.338 1.672.477-.244.355-.942.508-1.373.065-.186-.03-.293-.17-.299zm-11.496.367c-.506-.071.838 3.073.851 1.483.003-.308-.584-1.323-.725-1.422a.319.319 0 00-.127-.06zm7.519.895c-.04.006-.08.047-.121.13-.075.156-.083 1.322.072 1.59.772 1.338.438-1.784.049-1.72zm-1.627.052c-.047-.006-.093.016-.13.073-.31.463.076 1.706.486 2.02.89.679.102-2.03-.356-2.093zm-7 .018c-.002.001-.002.004-.002.008.017.428.585 2.89.996 1.613.13-.399-.933-1.66-.994-1.621zm5.647.252c-.43.045-.173 1.857.173 1.922.904.17-.13-1.926-.173-1.922zm4.386.01c-.073-.005-.376 1.605-.066 1.892.993.918.27-1.504.072-1.886-.002-.004-.003-.006-.006-.006zm-5.865.336c-.183-.056.096.875.121 1.203.087 1.126.48.84.48.756.012-1.153.039-1.471-.558-1.934h-.002a.148.148 0 00-.041-.025zm-1.404.338c-.456.098.225 3.072.681 2.02.204-.47-.076-1.742-.576-1.999-.04-.021-.075-.028-.105-.021zm8.74.017c-.583.395-.265 1.881-.05 1.881.878.008.25-1.763.05-1.88zm-10.188.73c-.504-.07.838 3.074.852 1.485.002-.308-.584-1.326-.725-1.426a.31.31 0 00-.127-.058z" fill="#848485"/><path d="M51.346 17.223a.262.262 0 00-.242.148c-.812 1.588-1.792 2.092-3.192 1.682-.76-.224-1.068-.521-1.576-1.051a.27.27 0 00-.22-.11l-.106.012-.053.037c-.121.085-.148.252-.045.391a10.224 10.224 0 00.463.461l-.594.627a.262.262 0 00-.125.295.268.268 0 00.26.197l.045-.002.103-.049c.24-.206.458-.44.67-.668l.06-.066a3.07 3.07 0 00.624.316l-.018.032c-.096.175-.094.173-.185.351l-.17.338a.267.267 0 00.195.324l.065.008c.123 0 .232-.082.246-.158l.148-.281c.088-.17.09-.171.186-.348l.053-.102a3.777 3.777 0 00.544.096 5.28 5.28 0 01-.015.338 4.027 4.027 0 00-.008.594.271.271 0 00.262.197v-.002l.066-.008c.144-.038.23-.18.2-.279-.007-.178.005-.325.015-.469.008-.116.018-.234.018-.367a2.608 2.608 0 00.535-.102c.023.06.042.115.062.17.054.156.112.319.225.532a.268.268 0 00.26.199l.068-.008a.266.266 0 00.193-.322h-.004c-.02-.066-.086-.235-.314-.78a2.93 2.93 0 00.545-.4l.06.098c.121.189.123.188.274.383l.162.212a.27.27 0 00.242.153l.07-.012a.273.273 0 00.164-.12.26.26 0 00.028-.202l-.233-.336c-.136-.184-.136-.185-.257-.371l-.137-.207a4.098 4.098 0 00.14-.188l.06.05c.147.125.147.127.302.267l.226.207a.272.272 0 00.381-.002.26.26 0 00-.004-.38l-.24-.218c-.159-.145-.158-.144-.314-.277l-.118-.098c.066-.114.13-.234.196-.361a.258.258 0 00.004-.205.27.27 0 00-.145-.147l-.105-.02zm-24.442 1.886l-.082.008-.043.022a.264.264 0 00-.133.156.27.27 0 00.034.223 9.739 9.739 0 00.386.52l-.68.538a.272.272 0 00-.109.08.257.257 0 00-.056.194c.015.134.129.234.293.234h.004l.086-.03c.265-.168.515-.37.755-.566l.075-.058c.169.153.352.282.57.402l-.02.025c-.122.16-.123.16-.24.325l-.215.306a.266.266 0 00.143.35l.105.021c.108 0 .206-.065.227-.125l.201-.277c.104-.143.105-.142.24-.32l.05-.07a3.582 3.582 0 00.525.173 4.94 4.94 0 01-.067.33 3.93 3.93 0 00-.094.584.266.266 0 00.268.239l.027-.002c.148-.016.257-.146.24-.25.02-.178.053-.321.086-.463.024-.112.05-.228.07-.358a2.438 2.438 0 00.546-.025 4.93 4.93 0 01.035.178c.03.162.062.327.142.556.014.135.13.235.29.235h.003a.27.27 0 00.182-.092c.047-.055.07-.128.055-.235l-.194-.78a2.88 2.88 0 00.598-.317l.047.101c.092.205.093.205.213.42l.129.233c.034.109.14.185.285.185h.002a.27.27 0 00.181-.095.264.264 0 00.059-.198l-.185-.373c-.105-.197-.105-.197-.2-.4l-.103-.22a4.793 4.793 0 00.17-.167l.049.057c.128.146.127.146.26.306l.195.237a.272.272 0 00.214.107l.112-.013.05-.041a.263.263 0 00.051-.375l-.207-.25c-.135-.166-.133-.166-.271-.32l-.1-.112c.082-.103.165-.214.25-.334a.264.264 0 00-.092-.361l-.084-.041h-.054a.263.263 0 00-.223.117c-1.044 1.466-2.07 1.82-3.404 1.21-.718-.327-.98-.665-1.406-1.261a.27.27 0 00-.24-.143z" fill="#4b443c"/><path d="M42.673 24.1c-1.148 2.734-2.335.446-2.906-.235a.5.5 0 00.002-.032l-.026.005c-.151-.174-.256-.221-.301-.005-.16.773-.67 2.528-1.882 1.682-.429-.3-.605-.774-.788-1.229a.164.164 0 00-.207-.101.16.16 0 00-.103.204c1.03 2.558 2.864 1.802 3.244-.087 1.095 1.654 2.319 2.179 3.28-.109a.16.16 0 00-.11-.2.164.164 0 00-.203.105" fill="#42372a"/><path d="M40.243 23.736c3.402-.737 4.674-8.82-3.119-5.626-3.031 1.243.6 6.172 3.12 5.626" fill="#42372a"/><path d="M47.202 22.09c.183-.472 3.168-.994 3.272-.397.557 3.19-3.871 1.944-3.272.398M29.267 24.04c.183-.472 3.167-.995 3.272-.397.556 3.189-3.872 1.944-3.272.397" fill="#f79aaa"/><path d="M27.576 15.923c.432-.12 1.997-2.907 3.902-1.284 1.245 1.062-2.808 2.626-3.902 1.284m22.65-2.583c-.448.044-2.949-1.98-4.11.218-.76 1.439 3.594 1.425 4.11-.218" fill="#f9f5e7"/><path d="M14.724 36.705c.372.66 1.016 1.377 1.525 2.294.098.176.192.353.282.53-.48-.624-1.132-1.364-1.699-1.604-1.354-.575-1.995-.803-3.324-1.465-2.348-1.169-1.218-.771-.505.091 1.09 1.319 1.037 1.313 2.299 2.48 1.218 1.126 2.39.864 3.631 1.335.232.513.439 1.028.634 1.545-.53-.423-1.982-1.475-2.878-1.564-1.468-.144-2.149-.172-3.62-.407-2.598-.416-1.398-.373-.453.237.204.131 5.892 1.642 7.005 1.878.353.949.665 1.905 1.006 2.87.013.363.03.727.051 1.094.003.038-.227 3.147.218 2.25.189-.034.25-.755.23-1.828.212.82.644 2.366.764 1.623.24-.122-.17-1.485-.834-3.227-.216-3.412-.847-8.21-1.138-8.719.221-.739.62-2.212.397-3.002-.396-1.394-.618-2.027-.928-3.46-.549-2.526-.153-1.413-.388-.327-.36 1.662-.39 1.616-.522 3.314-.112 1.444.608 2.183 1.059 3.19-.123-.065-.221-.077-.186.09.158.737.56 1.608.773 2.632.362 1.74.417 3.404.465 5.09-1.274-3.152-3.016-6.846-3.303-6.944-.095-.033-.739-.312-.56.005zm3.552 1.027c.428-1.418-.184-2.572.82-4.047.965-1.415.968-1.362 2.113-2.635.748-.832.96-1.994.174.473-.445 1.397-.568 2.055-.922 3.461-.27 1.078-2.17 2.701-2.185 2.748" fill="#64a24c"/><path d="M18.001 41.076c2.357-.498 4.52 3.403 2.175 4.524-4.132 1.975-4.699-3.99-2.175-4.524" fill="#b7b2a5"/></svg>