<svg width="72" height="72" xmlns="http://www.w3.org/2000/svg"><path d="M23.82 35.913c-.806 1.188-2.278 5.246-2.131 9.107.206 5.446 3.779 11.673 3.021 13.767-.054.149-.99 3.122-2.54 5.14-1.51 1.966-2.796.679-3.599 3.25-.04 1.23 2.98 2.299 4.305 1.552 2.644-1.49 4.713-6.979 5.447-10.171.966-4.251 5.941-4.24 8.751-3.73 9.723 1.76.047 12.317-.29 14.225 2.083 8.565 13.167-13.634 14.222-18.225.042-.179.081-.363.116-.55 2.435 2.957 5.385 4.78 5.197 10.543-.372 11.39-8.45 7.686-8.767 6.017-1.174-6.167 6.057-6.202 4.87-1.576-.7 2.728-.457-.645-.803-.7-6.209-.986 2.666 6.728 1.863-.834-1.04-9.8-12.36 3.056-4.757 5.65 10.394 3.542 11.678-14.494 2.64-21.15.232-3.773-.451-8.338-.69-10.757-.095 2.417 2.812 5.563 5.092 9.89 1.282 2.429 1.125 5.848 2.007 7.452.374.682 1.535 1.927 2.202.79 1.202-1.173.642-4.408-.466-8.945-2.027-8.302-6.424-19.262-6.79-19.967-3.702-7.161-16.173-4.401-21.473-4.983-.934-.103-4.043.287-6.539 3.215C17.33 33.578 7.42 52.458 12.3 51.479c1.693-.34 5.202-11.204 11.521-15.566zm25.226 4.665c.7.022-1.575-.05 0 0" fill="#8d6b44"/><path d="M30.694 51.35c-8.757-2.28-4.493-18.778 6.712-17.34 15.367 1.536 10.067 25.347-6.712 17.34" fill="#e9e9e9"/><path d="M33.615 26.332c-.35-.026-1.299 2.23-.638 1.803.14-.091.75-1.06.76-1.36.01-.31-.04-.437-.122-.443zm1.125.47c-.433.069-.958 2.408-.412 2.153.495-.232.816-1.46.637-1.926-.067-.174-.145-.239-.225-.226zm1.37.57c-.119-.01-.293.132-.374.816-.04.34-.386 1.335-.12 1.144.595-.429.58-.74.614-1.863.001-.031-.05-.092-.12-.098zm6.609.081c-.208-.008-.578 1.427-.028 1.834.2-.107.879-1.807.028-1.834zm-10.444.418c-.34.05-.739 1.574-.765 1.899v.001c-.01.125 1.141-1.13 1.03-1.537-.078-.275-.17-.377-.265-.363zm9.32 0c-.077-.002-.187.054-.343.188-.321.277-.067 1.951-.006 1.841.174-.308.767-2.017.35-2.029zm-4.284.004a.52.52 0 00-.077.006c-.339.05-.657 1.807-.242 1.867.039.005 1.057-1.875.319-1.873zm1.63.064a.441.441 0 00-.222.096c-.41.29-.832 1.488-.55 1.951.334.549 1.32-2.067.772-2.047zm1.252.245c-.07.001-.17.093-.308.312-.16.254-.2 1.394-.131 1.547.322.744.822-1.869.44-1.86zm-6.882.72c-.351-.026-1.3 2.23-.64 1.803.142-.091.749-1.06.759-1.36.01-.31-.038-.437-.12-.443zm1.123.473c-.434.068-.958 2.406-.413 2.15.496-.23.816-1.457.637-1.923-.066-.175-.144-.24-.224-.227zm8.972.539c-.763 1.68.618 1.944.438 1.357-.131-.428.015-1.101-.438-1.357zm-7.601.03c-.119-.01-.293.13-.373.816-.04.34-.388 1.332-.123 1.142.597-.429.582-.738.617-1.861 0-.031-.05-.092-.121-.098zm6.607.08c-.207-.008-.575 1.426-.025 1.833.199-.107.876-1.807.025-1.834zm-1.121.417c-.077-.002-.19.056-.346.19-.32.276-.068 1.949-.006 1.84.174-.308.77-2.018.352-2.03zm-4.285.004a.545.545 0 00-.078.006c-.338.05-.657 1.807-.242 1.867.038.006 1.058-1.874.32-1.873zm1.629.065a.448.448 0 00-.223.097c-.41.29-.83 1.487-.549 1.95v.002c.334.548 1.32-2.07.772-2.05zm1.254.246c-.071.002-.173.093-.31.312-.16.254-.198 1.392-.132 1.545.323.744.824-1.867.442-1.857z" fill="#fcd7b1"/><path d="M34.846 47.156l-.006.176a.599.599 0 00-.186.027c-.252.073-.098.41.037.54.07.07.066.103.174.12h.008l-.006.176v.002c.068.001.2-.023.305-.218a.806.806 0 00.092-.344c.009-.283-.155-.47-.418-.479z" fill="#231f20"/><path d="M48.484 4.975C53.119.132 60.357.37 60.962 7.746c.282 3.45-.983 5.84-4.365 7.094-1.052.389-3.942.22-4.405-.965.254 6.493-4.295 12.823-15.283 11.878-7.948-.682-12.527-6.189-13.028-11.834-.377 1.281-3.447 1.283-4.507.81-3.294-1.466-4.4-3.933-3.892-7.356 1.032-6.965 7.63-7.101 11.98-2.687 2.58-2.33 6.572-3.832 12.11-3.675 3.732.108 6.757 1.672 8.91 3.967l.002-.003" fill="#8d6b44"/><path d="M47.494 12.316c-.126.002-.228.1-.238.243-.05.24-.06.397-.069.55-.002.06-.005.12-.011.184a2.463 2.463 0 00-.531.043 5.63 5.63 0 00-.114-.34c-.048-.13-.097-.26-.133-.39a.25.25 0 00-.252-.239.25.25 0 00-.173.078c-.046.048-.07.11-.063.207a4.075 4.075 0 00.158.504c.037.105.074.206.106.317a3.373 3.373 0 00-.485.23l-.097-.1c-.124-.127-.125-.128-.26-.271l-.172-.176a.246.246 0 00-.203-.12l-.088.009-.045.023a.243.243 0 00-.113.15c-.018.064-.008.129.047.216l.22.236c.13.14.13.14.264.277l.03.03a2.9 2.9 0 00-.499.459l-.082-.05c-.25-.154-.512-.317-.783-.445l-.039-.017h-.043a.247.247 0 00-.24.25.242.242 0 00.18.226l.722.436c-.104.17-.203.354-.314.568a.244.244 0 00.146.313l.078.013c.107.003.204-.06.23-.138.338-.64.543-.992 1.18-1.39 1.195-.75 2.19-.537 3.356.726a.257.257 0 00.35.037.243.243 0 00.027-.352 7.296 7.296 0 00-.273-.281l.08-.115c.113-.168.111-.17.215-.336l.17-.276a.243.243 0 00-.092-.33l-.07-.033h-.046a.246.246 0 00-.218.12l-.164.265c-.1.16-.1.16-.207.32l-.04.057a3.558 3.558 0 00-.19-.145l.073-.238c.062-.199.064-.198.14-.404l.122-.328v-.034a.25.25 0 00-.25-.24.244.244 0 00-.24.205l-.094.239c-.085.216-.084.215-.146.42l-.036.113a2.747 2.747 0 00-.617-.235c.058-.49.082-.7.08-.802h.006c-.002-.128-.107-.235-.25-.239zM31.846 13.65a.249.249 0 00-.172.077c-.046.047-.07.108-.065.152a3.396 3.396 0 00-.07.564l-.012.184a2.343 2.343 0 00-.53.043 4.595 4.595 0 00-.114-.338c-.048-.132-.097-.263-.133-.393-.003-.127-.108-.232-.252-.236a.249.249 0 00-.172.074c-.046.047-.07.11-.064.211a4.203 4.203 0 00.158.502c.038.105.074.207.105.317-.16.06-.323.137-.486.23l-.096-.1-.26-.271-.17-.176a.246.246 0 00-.204-.119l-.088.008-.045.025c-.116.068-.157.218-.067.364l.22.236c.13.14.13.14.265.275l.029.032a2.866 2.866 0 00-.498.459l-.084-.05a7.78 7.78 0 00-.781-.443l-.04-.017h-.042a.246.246 0 00-.24.25.242.242 0 00.18.224l.722.436a8.488 8.488 0 00-.315.568.243.243 0 00.149.313l.047.013.029.002c.105.003.202-.06.23-.14.336-.638.542-.99 1.178-1.39 1.196-.75 2.193-.535 3.36.728a.256.256 0 00.345.035.247.247 0 00.03-.352 6.593 6.593 0 00-.274-.279l.082-.121c.11-.165.112-.165.217-.336l.166-.27a.24.24 0 00-.092-.332l-.07-.03-.043-.003a.243.243 0 00-.22.12l-.165.267c-.099.16-.099.158-.207.318l-.039.059a4.3 4.3 0 00-.19-.147l.075-.24c.063-.197.061-.196.138-.402l.122-.33v-.034a.249.249 0 00-.25-.238.248.248 0 00-.24.205l-.092.237c-.087.218-.089.217-.149.42l-.033.117a2.77 2.77 0 00-.62-.237c.032-.274.089-.776.089-.8-.001-.13-.107-.237-.252-.24z" fill="#4e3427"/><path d="M43.744 20.285c-2.134 4.68-4.051.647-4.998-.565l.006-.054-.043.006c-.346-6.747-.495-4.763-.52-.025-.32 1.333-1.297 4.35-3.342 2.813-.723-.543-.998-1.376-1.287-2.173a.283.283 0 00-.352-.188.278.278 0 00-.19.347c1.633 4.495 4.837 3.283 5.6.027 1.793 2.93 3.874 3.907 5.66-.008a.28.28 0 00-.176-.354.283.283 0 00-.358.173" fill="#42372a"/><path d="M38.748 16c1.666-.308 2.414-4.244-1.429-2.802-1.495.56.193 3.03 1.429 2.802" fill="#393536"/><path d="M43.937 17.93c.382-.907 6.18-1.738 6.342-.571.873 6.23-7.597 3.537-6.342.57m-16.887.46c.365-.862 5.877-1.652 6.032-.542.829 5.923-7.224 3.362-6.032.542" fill="#f1e2af"/><path d="M27.135 11.055c.414-.103 1.985-2.713 3.74-1.107 1.15 1.05-2.743 2.42-3.74 1.107m21.559-1.779c-.425.028-2.734-1.978-3.903.084-.765 1.349 3.364 1.468 3.903-.084" fill="#4e3427"/><path d="M50.355 7.51c1.238-2.387 7.29-.62 3.628 3.063-.25.25-2.365 1.27-2.509-.307-.06-.66-1.394-2.228-1.12-2.756m-24.271.303c-1.08-2.46-7.236-1.083-3.82 2.825.231.266 2.275 1.42 2.522-.146.104-.654 1.537-2.134 1.298-2.679" fill="#ecb059"/></svg>