<svg width="72" height="72" xmlns="http://www.w3.org/2000/svg"><path d="M33.533 23.932c1.263 37.666 37.645 22.665 36.975 19.75-.046-.155-.894-1.007-1.621-.582-.425.248-.586 1.742-1.109 1.923-1.389.484-2.022-.719-2.71-.408-.355.554-1.346 2.79-1.406 1.694-.096-1.77-2.432.106-2.895.926-.086-.427-.115-.633-.139-1.276-.068-1.842-1.474 1.206-1.962 1.95-.177-.589-.146-1.263-.251-2.103-.273-2.176-1.864 1.12-2.436 2.133-.107-.528-.285-1.471-.314-2.267-.08-2.11-2 1.046-2.7 2.022-.021-.34.006-2.196.048-2.797.15-2.135-1.64.846-2.425 1.737-.046-.505-.152-1.85-.097-2.633.15-2.156-2.234.923-3.07 1.849-.004-.367.905-2.5.989-3.131.289-2.174-3.5.268-4.311 1.099.032-.538 1.348-2.294 1.521-3.07.462-2.06-3.11-.304-4.034.457.066-.334 2.262-1.735 2.456-2.304.687-2.026-2.78-.214-3.765.444.085-.5 2.4-2.514 2.653-3.257.791-2.332-3.6.434-4.408 1.058.168-.725 1.923-2.179 2.282-3.043.866-2.08-1.29-1.352-2.33-.744.245-.527.266-.542.739-1.234 1.32-1.934-1.06-1.45-2.131-1.063.378-.543.245-.64.87-1.273 1.812-1.84-1.264-1.778-2.061-1.567.584-.686.257-.586 1.028-1.232 2.117-1.77-2.954-3.217-3.386-3.058" fill="#a3cd6f"/><path d="M35.362 58.1c.02 1.692-.121 3.672-.982 5.014-.88 1.373-3.33 1.764-3.55 1.88 1.094 1.224 5.164 1.104 5.854-.525.143-.386 1.555-2.569 2.919-5.237 4.797 1.094 9.651 1.612 12.564 1.4C68.582 59.435 69.581 47.462 71 43.425c-13.88 7.335-28.032 6.06-34.95-9.443 3.796.68 11.672.42 12.916-1.451 4.035-4.415-.948-1.584-3.779-1.467-5.554.231-9.004-3.182-11.958-7.043-3.255-1.05-2.71-1.18-6.197-.525-1.37.257-3.653 1.197-6.114 3.25-1.258 2.599-1.54 8.56-3.182 8.97-.406.102-1.736-.299-2.325-1.384-.782-1.443-.94-3.622-2.54-2.843-1.164 2.212 2.075 11.603 6.85 6.76-.021 3.108-.464 5.86-.164 8.547.369 3.3 1.705 6.683 1.875 11.518.196 4.828-1.884 4.783-4.636 5.969-.379.162-.085.425-.516.647 1.687 1.93 5.545.889 6.575-.312 1.682-3.138.042-8.36 2.033-8.265 2.153 1.896 3.387 2.202 4.912 2.376 1.423.162 3.118.285 5.562-.63" fill="#82a44d"/><path d="M17.787 27.685c-9.333-2.427-7.196-10.827-.859-15.223 22.529-15.625 24.349 25.316.86 15.223" fill="#8eb657"/><path d="M16.959 26.022c-.825.127-8.536 7.786-13.997 2.394-1.78-1.759-2.567-4.988-1.433-6.86.559-.92 1.179-1.55 3.163-1.439 4.927.277 1.868 8.085-.945 4.473-.717-.921-.892-2.493.88-2.218.032.004 1.303 1 .297.836-1.433-.233.373 2.447 1.651.212.918-1.603-5.32-4.934-4.426 1.547.934 6.775 12.357 3.257 12.635.874.117-1.012 1.42.298 2.175.18" fill="#f16767"/><path d="M26.205 16.629c-.042 0-.083 0-.125.002-.67.024-1.344.332-1.885.861l-.416.504a.203.203 0 00.057.28.197.197 0 00.275-.057l.362-.436c.894-.874 2.265-1.085 3.146-.068a.2.2 0 00.281.04.203.203 0 00.04-.282c-.492-.568-1.108-.833-1.735-.844zm-13.992 3.553a.188.188 0 00-.104.033c-.388.314.676.85.46.137-.036-.119-.225-.18-.356-.17zm16.3.513a.186.186 0 00-.154.09c-.302.458-.563.77-1 1l-.064.035c-.13.063-.277.122-.45.178-.24.078-.608.134-.986.15-.837.034-1.883-.127-2.07-.683-.02-.09-.1-.149-.23-.147a.193.193 0 00-.12.088l-.043.092.024.066a.996.996 0 00.13.26c-.211.271-.423.55-.64.848l-.03.088.02.06a.193.193 0 00.102.11l.053.02h.037c.072-.004.134-.048.146-.085.192-.254.386-.505.586-.765a1.854 1.854 0 00.494.25l-.011.029c-.126.334-.245.65-.354 1.014l-.008.091.092.125.111.02a.19.19 0 00.176-.14c.102-.339.219-.647.342-.975l.023-.063a4.428 4.428 0 00.717.086c-.076.331-.141.633-.193 1.002a.194.194 0 00.174.213h.023a.192.192 0 00.184-.166c.054-.377.125-.692.207-1.047a6.193 6.193 0 00.603-.049l.012.043a15.669 15.669 0 00.28.987.19.19 0 00.189.128l.054-.01a.19.19 0 00.11-.099l.027-.088-.017-.056a14.478 14.478 0 01-.268-.944l-.01-.033a3.054 3.054 0 00.182-.05 4.94 4.94 0 00.392-.15l.1.13c.153.2.306.4.453.607.031.07.106.12.201.115a.194.194 0 00.13-.078l.044-.082-.01-.062-.021-.059a9.164 9.164 0 00-.506-.691l-.047-.063c.18-.11.34-.242.492-.402l.104.097a22.455 22.455 0 01.537.518.192.192 0 00.17.09l.055-.01a.197.197 0 00.119-.246l-.031-.053c-.193-.214-.407-.411-.612-.603l-.094-.088a6.059 6.059 0 00.25-.358.194.194 0 00-.074-.26l-.06-.025h-.041zm-12.857.584a.18.18 0 00-.101.032c-.388.314.675.85.459.136-.036-.118-.227-.177-.358-.168zm2.69 2.899c-.02-.002-.043.005-.076.023-.021.016-.037.05-.043.094a1.88 1.88 0 01-.104.207c-1.685 2.745-3.346-.02-3.414.523-.2 1.677 2.418 1.97 3.434-.029v-.002c0-.002.106-.225.18-.437a.04.04 0 00.042-.008.049.049 0 01-.04.004c.064-.188.103-.366.02-.375z" fill="#4b443c"/><path d="M24.223 29.656c-.033-.003-.07.056-.114.203-.102.341-.316.29-.033.702.091.13.322.36.322.45h.002c.001-.164-.038-1.342-.177-1.355zm-1.62.871c-.048.004-.11.049-.193.147-.138.163-.334.425-.06.842.089.132.333.406.336.316.005-.171.18-1.325-.082-1.305zm3.823.02c-.049 0-.116.04-.203.133-.146.155-.358.405-.106.836.08.138.307.427.315.338.014-.17.256-1.312-.006-1.307zm-.594 1.353c-.049 0-.114.041-.203.133-.148.155-.362.4-.115.834.078.14.302.429.312.34.016-.17.269-1.31.006-1.307zm-2.281.036c-.032-.003-.068.056-.11.205-.096.344-.311.298-.02.703.093.13.331.353.331.443-.002-.164-.061-1.34-.201-1.351zm-1.069.021c-.032-.002-.068.057-.109.205-.095.344-.31.296-.018.701.091.126.316.345.329.438-.002-.176-.062-1.333-.202-1.344zm.202 1.344v.008h.002l-.002-.008zm1.992-.928c-.032-.003-.07.057-.113.205-.101.341-.316.291-.032.701.087.126.307.345.32.44.002-.18-.037-1.334-.175-1.346zm.176 1.346v.01h.002l-.002-.01zm2.273-1.32a.013.013 0 00-.01.003c-.588.585.078 1.563.14.371.004-.046-.081-.371-.13-.375zm-4.04 1.064c-.031-.005-.07.052-.12.197-.116.338-.33.278-.063.701.084.135.307.374.301.463.008-.165.022-1.342-.117-1.361zm2.923.348c-.049.003-.114.045-.197.142-.14.161-.34.42-.07.842.084.133.324.41.33.32h-.003c.008-.171.202-1.32-.06-1.304zm-1.307.09c-.067-.008-.152.04-.256.17-.134.165-.286.458.035.841.1.122.314.35.366.277.125-.17.148-1.255-.145-1.289zm-1.877.904c-.048.009-.106.06-.178.166-.119.178-.286.46.032.843.1.122.372.37.365.28-.014-.17.04-1.338-.219-1.29zm1.166.242c-.063 0-.127.086-.185.295-.095.343-.266.335.076.697.11.115.342.47.385.397.16-.32-.05-1.39-.276-1.39zm2.875.049c-.003 0-.005 0-.008.004-.588.585.076 1.564.14.37.002-.044-.083-.37-.132-.374zm-1.16.634c-.048.006-.112.05-.191.15-.133.168-.32.436-.034.845.09.13.342.395.342.306 0-.171.144-1.328-.117-1.3zm-2.994.512c-.032 0-.064.063-.092.215-.063.351-.279.325.047.701.105.12.36.323.37.412-.017-.164-.185-1.33-.325-1.328zm2.209.069c-.032-.004-.07.055-.115.203-.105.342-.318.287-.04.7.09.132.319.366.317.454.003-.164-.023-1.342-.162-1.357zm1.97.15c-.004 0-.007.002-.01.006-.45.698.662 1.563.47.385-.008-.044-.384-.392-.46-.391zm-3.048.209c-.032.008-.048.076-.041.23.015.357-.204.38.197.672.125.093.408.23.447.315-.054-.165-.468-1.25-.603-1.217zm.603 1.217l.002.006h.002c0-.002-.003-.004-.004-.006zm1.948-.108c-.004 0-.006.003-.008.006-.45.7.408 1.51.215.332-.008-.046-.16-.344-.207-.338zm-3.309.09c-.032.002-.06.066-.082.219-.051.354-.27.333.07.697.108.117.37.31.383.4-.023-.163-.231-1.323-.371-1.316zm2.062.258c-.052.005-.105.066-.158.21-.072.202-.166.517.237.811.126.094.449.265.42.18-.052-.156-.269-1.221-.499-1.201zm-1.06.135c-.053.004-.108.068-.16.213-.072.2-.168.513.234.808.127.094.449.267.422.182-.051-.156-.267-1.224-.496-1.203zm1.894.98c-.043.004-.087.055-.13.174-.058.165-.137.422.193.664.104.077.369.219.346.149-.043-.128-.22-1.003-.409-.987zm-2.09.387c-.072.004-.136.09-.18.3-.072.35-.204.38.198.675.127.092.403.393.45.32.146-.268-.21-1.31-.467-1.295zm.946.076c-.032.008-.048.076-.041.23.015.358-.205.38.197.674.127.094.421.236.45.32-.052-.156-.47-1.258-.606-1.224zm2.299.326c-.003 0-.006.003-.008.006-.45.698.408 1.51.215.332-.008-.045-.16-.345-.207-.338zm-.803.559c-.084.014-.174.108-.264.314-.085.195-.166.514.235.809.126.092.39.263.422.182v-.002c.133-.394-.093-1.353-.393-1.303zm-1.738.549c-.056.008-.098.1-.112.316-.024.357-.203.38.198.674.128.094.437.408.449.32.04-.3-.337-1.34-.535-1.31zm.83.097c-.032.008-.048.077-.041.23.015.357-.204.38.197.675.128.094.423.234.451.318-.052-.156-.47-1.257-.607-1.223zm1.53 1.102c-.115-.007-.245.085-.378.328-.103.189-.165.517.235.81.127.095.371.254.421.18.265-.391.063-1.299-.279-1.318zm-1.28.252c-.053.004-.106.068-.158.213-.073.2-.17.513.232.808.127.093.45.267.422.182h.002c-.053-.156-.27-1.223-.498-1.203zm2.234.89c-.116.003-.237.116-.336.395-.12.336-.203.38.198.674.128.094.393.386.45.318.356-.418.037-1.395-.312-1.387zm-1.213.272c-.031.008-.047.076-.04.23.015.357-.205.38.197.674.125.092.409.23.447.315-.055-.166-.468-1.252-.604-1.219zm.604 1.219l.002.006h.002c0-.002-.003-.004-.004-.006z" fill="#f1e2af"/><path d="M28.355 6c-.549-.01-1.26.538-2.148 2.098.167.21.284.467.291.656.028.82-.454.917 1.98 1.258.4.057 1.532.054 1.497-1.158.002-.011-.396-.254-.42-.452-.027-.216.242-.653.144-.873-.067-.153-.525-.276-.588-.422-.057-.134.223-.334.153-.45-.231-.383-.533-.65-.909-.657zm-5.771 1.098c-.594.01-.87.453-.961 1.03-.02.136.313.212.31.358-.003.16-.38.451-.384.62-.007.24.407.54.463.75.05.193-.224.568-.219.578.424 1.135 1.47.703 1.818.498 2.125-1.25 1.643-1.157 1.36-1.924-.065-.178-.056-.464.021-.72-1.112-.871-1.884-1.2-2.408-1.19zm3.055.908a.479.479 0 00-.094.012c-.333.07-.531.481-.441.92.09.438.434.736.767.666.334-.07.532-.482.442-.92-.082-.397-.372-.68-.674-.678z" fill="#eb8413"/></svg>