<svg width="72" height="72" xmlns="http://www.w3.org/2000/svg"><path d="M47.776 32.01c-.032-.398 4.862 1.353 4.274-2.612-.112-.759 4.098 1.67 3.573-4.541-.09-1.069-1.282-1.577-2.227-1.25.66-.465.975-1.325 1.305-3.283.787-4.68-3.886-.876-1.153-4.201 1.291-1.57-.145-4.438-2.66-4.438-.01-.112 2.425-4.926-2.536-4.542-1.04.08 1.364-6.383-4.043-3.5-.851.453-.578-.5-1.788-1.94C41.64.648 39.028.56 38.192 2.98c-.52 1.503-1.44-5.385-6.549 1.21-.719.93-2.257-2.7-4.197-.873-.418.394-.087 1.504-.63 2.453-1.385 2.418-2.175.397-3.342-.462-1.124-.827-2.657-.527-2.298 3.453-.826-2.134-7.625-2.337-4.916 2.65-3.516-3-8.22 4.41-2.784 4.693 3.64.188-1.773 2.437-1.805 4.439-.007.555 1.663 4.148 4.195 3.055-1.775 2.594.527 5.468 3.793 5.006.445-.063-1.23 4.996 2.304 4.996 2.277 0-.077.23 1.008 1.732 1.137 1.573 4.294-2.11 6.638-1.96 2.446.157 2.824-1.181 6.383.095 2.095.75 12.139 2.996 11.784-1.457" fill="#e9d282"/><path d="M38.242 54.967c1.266-.03 3.22.53 5.174.53 4.651 0 7.977-2.456 7.719-7.196-.326-5.985-2.17-9.894.258-12.311 1.126-1.121 3.854-1.764 6.91-2.058-.096-1.014-4.815-1.06-7.838.519-1.788.934-2.36 3.577-1.22 7.693 2.161 7.81.655 14.118-8.034 10.514-.905-.375-4.339.945-4.287 2.171.014.328 1.067.25 1.318.138" fill="#d49745"/><path d="M47.51 25.332c2.82-8.34 4.897-17.08-4.781-10.12-.003.002-2.755-3.182-5.983-3.716-3.684-.609-7.937 1.426-8.557 1.48-1.4-2.883-2.538-4.013-3.462-4.03-2.773-.053-3.612 9.915-3.79 12.62-.166 2.55 2.019 7.101 5.772 9.878-3.837 1.806-7.471 6.087-9.111 8.046h-.002c-.568.678-4.16 2.24-4.748 3.883-.42 1.171 1.604 2.656 3.185 2.656 2.17 0 3.704-.811 4.924-2.058-.195 4.114.919 8.086 2.963 11.1-.567 1.147-.874 2.584-.94 4.058-.097 2.177.822 4.445.137 5.96-.248.553-1.998 1.456-2.142 2.704-.23 1.987 6.012 2.999 6.56-.461.305-1.922 1.063-4.98 1.484-7.81 2.383 1.084 5.173 1.286 8.196.238.172 2.468.913 5.145 1.515 6.984.271.83-.382 1.53-.728 2.145-.228.403-.17.908-.17.908.506 1.937 5.943 1.675 5.707-1.818-.192-2.847.026-8.285-.828-11.59 2.976-2.997 3.733-6.97 3.2-11.032 1.08.833 2.4 1.342 4.122 1.342 1.58 0 4.466-1.18 4.047-2.351-.587-1.643-5.043-3.51-5.611-4.188-1.167-1.392-4.68-5.79-8.514-8.005 3.482-1.527 6.602-4.004 7.555-6.823z" fill="#e3a34d"/><path d="M32.718 27.517c.874-.623 4.844-2.47 4.052-3.93-.202-1.6-6.867-2.163-7.03-.811-1.323 1.665 2.972 4.746 2.978 4.741" fill="#a36160"/><path d="M23.432 25.35c-1.932-.015-3.862.27-5.145.886a.09.09 0 00-.033.123.093.093 0 00.125.034c2.5-1.2 7.607-1.105 10.115.03a.093.093 0 00.125-.036.09.09 0 00-.037-.123c-1.287-.584-3.219-.9-5.15-.914zm1.562.888c-2.14.024-4.307.682-5.713 2.215l-.396.49a.09.09 0 00.021.127c.042.03.1.02.13-.021l.382-.475c2.09-2.279 5.926-2.57 8.742-1.715.048.016.1-.006.117-.054a.09.09 0 00-.054-.117 10.837 10.837 0 00-3.229-.45zm4.51.26c-.038 0-.158.044-.158.129 0 .281.273.123.275.023.004-.147-.067-.152-.117-.152zm.111.604c-.038 0-.158.04-.158.125 0 .283.273.125.275.025.004-.148-.067-.15-.117-.15zm-3.312.074c-.547.02-1.097.147-1.721.328-1.382.4-3.73 1.448-4.717 2.52a.09.09 0 00.02.124c.042.03.1.023.13-.02.856-.923 2.815-1.835 3.993-2.25 1.318-.462 2.573-.772 3.902-.232a.094.094 0 00.127-.035.09.09 0 00-.035-.123H28a3.98 3.98 0 00-1.697-.312zm2.738.053c-.038 0-.158.04-.158.126 0 .281.273.125.275.024.004-.146-.067-.15-.117-.15zm11.344.568c-.899-.012-1.733.06-2.42.228a.09.09 0 00-.059.116.092.092 0 00.115.058c2.68-.657 7.716.19 9.944 1.83a.094.094 0 00.13-.01.09.09 0 00-.01-.126c-1.714-1.263-5.003-2.06-7.7-2.096zm-3.086.125c-.038 0-.16.04-.16.127 0 .28.272.125.275.023.003-.146-.065-.15-.115-.15zm-8.387.035c-.039 0-.158.044-.158.129 0 .282.273.123.275.023.004-.147-.068-.15-.115-.15l-.002-.002zm10.484.492c-.394-.001-.78.02-1.156.06a.092.092 0 00-.078.104.092.092 0 00.106.076c2.929-.32 6.64.67 8.263 3.293l.287.536a.092.092 0 00.123.044.092.092 0 00.045-.12l-.297-.553c-1.456-2.353-4.533-3.429-7.293-3.44zm-2.56.13c-.038 0-.158.041-.158.126 0 .281.27.124.273.024.003-.147-.065-.15-.115-.15zm.72.237c-.04.001-.158.041-.158.125 0 .282.274.127.276.026.003-.144-.066-.15-.115-.15h-.002zm-.72.383c-.038 0-.158.04-.158.125 0 .282.27.127.273.026.003-.146-.065-.15-.115-.15zm2.375.045a4.33 4.33 0 00-.906.092.09.09 0 00-.059.115.093.093 0 00.117.057c1.407-.286 2.584.25 3.791.947 1.08.623 2.832 1.878 3.496 2.943a.092.092 0 00.123.043.09.09 0 00.045-.12c-.766-1.233-2.874-2.694-4.156-3.342-.868-.438-1.597-.728-2.451-.735zm-1.615.264c-.04 0-.16.042-.16.127 0 .282.272.124.275.023.004-.147-.067-.148-.115-.148v-.002z" fill="#4b443c"/><path d="M24.099 13.8c.177.157 2.602-.526 2.465-.704-3.436-4.468-2.506.668-2.465.704M47.4 16.938c-.21.114-2.412-1.1-2.237-1.242 4.384-3.572 2.284 1.216 2.236 1.242" fill="#fabfc0"/><path d="M24.195 21.33c-.108 0-.199.08-.213.217.016.183.048.33.077.473.02.103.042.202.056.31a3.288 3.288 0 00-.488.152l-.063-.086-.2-.279-.147-.205a.214.214 0 00-.2-.13l-.08.015c-.11.043-.161.167-.101.303l.172.248c.096.139.096.139.203.285l.023.031a2.649 2.649 0 00-.529.365l-.074-.062a7.501 7.501 0 00-.649-.5l-.091-.026a.214.214 0 00-.213.186.213.213 0 00.13.22l.604.49a8.35 8.35 0 00-.365.481.21.21 0 00.088.286l.062.025h.04a.203.203 0 00.175-.096c.39-.536.625-.828 1.258-1.11 1.173-.52 2.074-.194 2.96 1.093a.216.216 0 00.184.101l.075-.008.035-.021a.207.207 0 00.097-.129.214.214 0 00-.029-.168 6.418 6.418 0 00-.215-.295l.094-.107c.123-.134.123-.135.24-.276l.188-.22a.208.208 0 00-.04-.297.223.223 0 00-.296.035l-.182.215c-.113.134-.111.133-.228.263l-.053.06a3.457 3.457 0 00-.17-.171l.1-.207c.084-.175.084-.176.18-.348l.142-.261.018-.053a.206.206 0 00-.045-.156.23.23 0 00-.168-.08.212.212 0 00-.203.148l-.12.205c-.106.183-.105.184-.187.361l-.053.11a2.5 2.5 0 00-.547-.301c.063-.236.188-.706.188-.723.013-.116-.07-.221-.213-.236-.1 0-.183.067-.21.18-.075.21-.105.354-.134.492-.01.055-.02.11-.035.172a2.14 2.14 0 00-.508-.03 4.055 4.055 0 00-.058-.33c-.026-.124-.055-.25-.07-.375.014-.113-.068-.219-.212-.236zm17.043 1.764c-.097 0-.18.063-.21.185-.012.182-.003.334.005.479.006.106.012.204.01.314-.162.012-.33.04-.504.082l-.053-.1c-.082-.156-.082-.156-.156-.302l-.115-.22a.21.21 0 00-.207-.16l-.051.007a.21.21 0 00-.133.096c-.03.048-.04.104-.013.19l.127.255c.08.16.08.16.16.31l.025.05c-.217.077-.401.17-.576.284l-.063-.07c-.18-.2-.367-.409-.572-.59l-.027-.021-.09-.018a.213.213 0 00-.207.155.211.211 0 00.098.238l.525.568c-.14.124-.276.266-.432.426a.21.21 0 00.045.295c.09.066.24.034.285-.03.465-.475.74-.732 1.407-.92 1.23-.345 2.084.11 2.77 1.5a.214.214 0 00.196.132l.084-.016a.212.212 0 00.112-.283 6.156 6.156 0 00-.17-.325l.111-.091c.14-.115.14-.116.277-.239l.217-.193a.21.21 0 00.004-.299.225.225 0 00-.3-.008l-.208.188c-.132.118-.131.118-.265.23l-.065.05a3.497 3.497 0 00-.14-.192l.132-.196c.106-.158.105-.159.227-.32l.178-.232.023-.051a.206.206 0 00-.021-.16.207.207 0 00-.127-.098l-.059-.008a.215.215 0 00-.191.12l-.15.189c-.13.165-.13.165-.239.33l-.064.1a2.472 2.472 0 00-.496-.375l.244-.58.045-.112a.21.21 0 00-.15-.258l-.057-.007c-.097 0-.18.064-.198.142a3.11 3.11 0 00-.209.475c-.019.054-.037.109-.06.168a2.203 2.203 0 00-.498-.104c.003-.123-.006-.23-.012-.334a4.453 4.453 0 01-.012-.38.212.212 0 00-.15-.258l-.057-.008z" fill="#4b443c"/><path d="M36.245 57.271c-9.67 4.094-17.937-11.608-4.296-17.33 3.592-1.505 16.321 12.24 4.296 17.33" fill="#e9d282"/><path d="M32.357 52.443a.648.648 0 00-.166.034c-.254.083-.087.416.055.543.072.067.07.102.18.117.185.024.391-.716-.069-.694z" fill="#8d6b44"/><path d="M61 30.784c-3.399-.645-12.084.154-10.294 5.248 3.258 2.061 9.02.472 10.294-5.248" fill="#e9d282"/><path d="M32.041 27.609c3.269-.5 3.701 2.517 2.5 2.83-5.161 1.348-4.233-2.56-2.5-2.83" fill="#796057"/><path d="M34.7 28.322c-.186.07-.472.664-.567.729-.056-.322.047-.785-.057-1.209.454.24.627.479.624.48m-3.594-.151c.186.072.471.665.567.73.056-.322-.047-.785.056-1.208-.454.24-.627.477-.623.478" fill="#fff"/><path d="M27.965 30.309c-.694-.031-1.22.442-1.604 1.125-.109.193.368.496.282.716-.095.241-.846.471-.948.723-.146.363.33 1.052.3 1.402-.029.323-.67.74-.667.756.025 1.964 1.899 1.893 2.559 1.776 4.013-.717 3.206-.842 3.197-2.17-.002-.306.172-.732.437-1.082-1.494-2.334-2.664-3.207-3.556-3.246zm9.492 1.388c-.869.021-2.126.604-3.91 2.086.145.41.18.87.084 1.162-.415 1.262-1.223 1.14 2.38 3.02.595.31 2.356.936 2.983-.928.01-.015-.473-.603-.4-.92.079-.34.743-.856.715-1.246-.02-.27-.664-.713-.68-.97-.014-.237.532-.383.488-.6-.189-.929-.675-1.628-1.66-1.604zm-5 1.674c-.5.017-.962.493-1.07 1.14-.12.715.235 1.368.793 1.458.557.092 1.106-.413 1.226-1.127.12-.715-.234-1.37-.793-1.46a.814.814 0 00-.156-.01z" fill="#99def9"/></svg>