<svg width="72" height="72" xmlns="http://www.w3.org/2000/svg"><path d="M20.953 30.74c-1.44.322-8.958 3.064-9.297 2.998-.006 0-1.344.316-1.25.575.084.23.797 2.352.916 2.367.017-.106 6.774-2.776 7.252-2.744.545.037 4.576-.617 2.914-1.563-.617-.35-.657-1.606-.535-1.633zm30.094 1.207c.12.027.083 1.283-.535 1.633-1.662.944 2.369 1.598 2.914 1.56.478-.03 7.237 2.64 7.254 2.747.118-.016.83-2.14.912-2.37.095-.257-1.243-.574-1.25-.574-.338.067-7.855-2.676-9.295-2.996zm-21.37 25.186c-.836-.054-.248 3.025-.056 3.457.192.43-.077 7.59-.174 7.642.055.105 2.328.045 2.576.045.278 0 .128-1.344.125-1.35-.178-.291-.095-8.178-.275-9.618.015.12-1.2.507-1.744.054-.183-.152-.332-.223-.451-.23zm8.427.068c-.838-.053-.25 3.026-.057 3.455.192.432-.077 7.593-.174 7.645.055.105 2.326.045 2.574.045.278 0 .13-1.347.127-1.35-.177-.293-.095-8.178-.275-9.619.015.121-1.2.508-1.744.055-.183-.153-.332-.223-.451-.23z" fill="#bdbcbc"/><path d="M10.318 34.215c-.152 0-1.94.827-2.314.959-.036.014.216 1.194.346 1.158.349-.096.528.151.152.283-.164.058.212.852.277 1.035.092.247 2.037-.814 2.364-.93.19-.067-.72-2.313-.735-2.407-.003-.012-.063-.066-.09-.098zm51.364 1.205c-.025.032-.088.087-.09.098-.012.094-.923 2.34-.735 2.408.327.116 2.273 1.177 2.364.93.067-.184.441-.977.277-1.036-.376-.133-.197-.376.152-.28.13.035.382-1.146.346-1.16-.375-.132-2.162-.957-2.314-.96zM30.71 68.293c-.626.006-1.24.034-1.24.133 0 .343-.36 2.5-.092 2.5.197 0 1.084.082 1.084-.09 0-.393.294-.31.32.045.01.132 1.227-.034 1.227-.072 0-.392.185-2.327.135-2.467-.04-.014-.114-.052-.124-.049-.047.01-.684-.006-1.31 0zm8.426.053c-.626.006-1.24.035-1.24.134 0 .341-.36 2.5-.092 2.5.198 0 1.084.08 1.084-.09 0-.392.296-.31.322.046.01.132 1.225-.036 1.225-.073 0-.392.185-2.327.134-2.467-.038-.014-.113-.052-.123-.05-.047.01-.684-.007-1.31 0z" fill="#393536"/><path d="M46.047 22.358c2.184-.826 6.514.028 4.723 5.436 2.54.306 10.38 1.758 3.51 10.783 1.76.332 10.077 7.383-4.724 11.448 3.56 2.383.883 8.046-5.343 6.162.504 2.763-1.727 4.982-4.663 2.45-.45 1.774-4.37 4.176-6.945.015-3.418 2.203-9.688 1.097-9.326-5.736-8.022.723-8.752-7.773-5.757-10.736-2.523-1.069-7.921-7.438.94-9.978-2.35-.745-2.304-8.351 4.169-9.963-4.874-6.177 7.766-8.337 8.653-4.107 1.061-3.527 6.67-2.643 6.24.63 3.756-2.933 7.922-2.095 8.523 3.596" fill="#b1ac93"/><path d="M31.91 1.002c-2.726.046-5.109.841-7.111 2.146-1.114-.227-3.69-.46-6.861.913-6.892 2.98-2.45 5.784 2.273 3.918-3.998 6.564-3.758 16.09 1.992 20.968 3.425 2.905 9.398 2.598 12.914-.19 4.61-3.651 7.192-10.735 7.531-16.763 2.894 4.448 8.627 4.627 4.32-1.719-2.624-3.867-5.967-4.643-5.882-4.574l-.004.004c-1.44-2.062-3.727-4.06-6.26-4.48a16.06 16.06 0 00-2.912-.223z" fill="#dbd4c3"/><path d="M21.084 14.525c-.071.006-.124.068-.12.147a7.186 7.186 0 00.151.639c-.137.035-.27.072-.404.109a72.85 72.85 0 01-.445.115.133.133 0 00-.141.092.128.128 0 00.086.158l.016.008.015-.004a7.29 7.29 0 00.795-.19l.162-.046a2.572 2.572 0 00.406.67l-.132.076c-.15.082-.148.082-.301.174l-.262.156a.126.126 0 00-.004.182c.048.05.148.04.172.011l.235-.134.296-.174.168-.094a3.103 3.103 0 00.475.418c-.072.124-.147.224-.225.33a3.637 3.637 0 00-.267.402.129.129 0 00.086.16c.068.023.144-.02.158-.07.079-.137.16-.243.236-.346.074-.102.154-.207.23-.34a2.116 2.116 0 00.6.225 3.311 3.311 0 01-.052.254 2.975 2.975 0 00-.082.49l-.004.01a.127.127 0 00.084.162c.07.021.146-.022.16-.074.009-.016.111-.61.146-.807a2.41 2.41 0 00.778-.066c.002.099.002.17.002.225 0 .188 0 .192.02.398l.023.242a.128.128 0 00.085.145.1.1 0 00.041.008v-.002a.131.131 0 00.125-.092l.004-.01-.021-.305c-.014-.2-.014-.2-.018-.392l-.006-.291a3.916 3.916 0 00.362-.143l.05.162c.054.168.053.168.1.336l.074.27a.13.13 0 00.127.097l.03-.002a.127.127 0 00.082-.056.125.125 0 00.015-.102l-.076-.271c-.048-.175-.047-.176-.101-.346l-.063-.2a6.06 6.06 0 00.38-.212.124.124 0 00.054-.084.12.12 0 00-.022-.096c-.039-.058-.13-.068-.178-.033-.64.385-1.193.572-1.687.572-.584 0-1.101-.259-1.58-.793-.473-.528-.563-.897-.697-1.548-.004-.067-.061-.12-.141-.12zm12.86 4.082l-.038.004a.13.13 0 00-.09.164c.048.135.102.268.159.399l-.182.115c-.15.096-.15.097-.303.203l-.232.162a.13.13 0 00-.026.182.135.135 0 00.18.025l.234-.164c.144-.1.145-.099.295-.195l.141-.094c.058.115.122.228.191.336l-.195.223c-.126.146-.125.146-.267.293l-.204.21-.013.02a.128.128 0 00.002.102c.045.096.18.102.234.012l.17-.172c.151-.151.151-.151.273-.295l.149-.176c.155.208.342.389.555.537-.1.172-.4.693-.403.703a.126.126 0 00.002.1.131.131 0 00.242-.004l.002-.01c.126-.18.19-.307.252-.43a3.44 3.44 0 01.123-.226c.192.097.397.163.61.2-.025.15-.031.278-.04.403-.007.128-.016.26-.038.403a.127.127 0 00.072.166c.015.006.032.01.049.01v.001c.054 0 .1-.03.125-.093a3.54 3.54 0 00.048-.465 3.46 3.46 0 01.041-.397c.213.014.425.004.635-.027l.065.166c.063.167.063.166.119.32l.094.25c.008.064.062.114.142.114h.002c.07-.01.122-.074.111-.159l-.1-.275c-.057-.163-.056-.161-.118-.322l-.055-.137a2.61 2.61 0 00.746-.264l.104.145c.15.22.311.433.484.637l.025.017a.133.133 0 00.17-.07.13.13 0 00-.05-.158c-.098-.133-.194-.268-.291-.4l-.22-.305a7.4 7.4 0 00.538-.407.129.129 0 00-.008-.181c-.05-.047-.143-.037-.178 0-.53.427-.839.652-1.545.765-1.32.208-2.13-.354-2.664-1.867a.13.13 0 00-.125-.094zm-6.557.329c-2.695-.082-1.672 5.347-.598 5.347 1.846 0 4.017-3.947 1.99-4.943-.547-.269-1.007-.393-1.392-.404z" fill="#452408"/><path d="M36.385 25.006c.033.908-2.529.845-3.135.692-1.143-.289-3.108-1.076-2.315-2.625.406-.79 5.362-.498 5.45 1.933m-11.62-3.202c-.062 1.026-2.939.686-3.605.45-1.253-.445-3.38-1.538-2.318-3.197.542-.848 6.088.004 5.923 2.747" fill="#f16767"/><path d="M26.75 23.754c-.452 1.44-1.48 4.086-2.647 3.079-.325-.28-.39-.583-.48-.975a.115.115 0 00-.13-.096.114.114 0 00-.097.129c.105.465.227.921.674 1.197 1.004.62 1.811-.514 2.36-1.765-.219 1.58-.07 3.225 1.662 2.935.637-.107.85-.51 1.073-1.037a.112.112 0 00-.074-.143.115.115 0 00-.145.073c-.185.44-.355.794-.892.884-1.975.329-1.554-2.355-1.143-4.004.143-.45.242-.828.292-1.027a.106.106 0 00.002-.04.04.04 0 00.002-.007.113.113 0 00-.07-.145.115.115 0 00-.147.069c-.056.193-.146.5-.24.872" fill="#452408"/></svg>