<svg width="72" height="72" xmlns="http://www.w3.org/2000/svg"><path d="M38.4 6.67C31.35-6.989 8.058 7.952 8.506 10.823c1.22 7.828 16.927.057 19.954-1.695 6.155-3.56 6.828 1.395 9.646-1.16.24-.22.345-1.201.294-1.3" fill="#9e794f"/><path d="M26.42 26.667c-1.578.807-6.479 3.75-6.312 1.394 1.304-18.399-17.003 11.734 3.508 7.78-.851 8.37 2.316 15.723 2.316 26.043 0 6.461-2.846 1.2-4.066 5.867-1.171 4.48 8.144 3.442 9.434 2.081 1.05-1.747 1.412-6.19 1.254-10.07.337.095.68.16 1.03.192 1.871.504 5.466-.155 9.058-1.798-.029.602-.036 1.2-.036 1.765 0 6.807-2.927 3.276-2.927 8.28 0 4.873 7.392 1.973 8.295.093 1.533-3.584 2.453-11.15 1.998-15.397 2.264-.169 6.1.29 8.952-5.938.545-1.193.662-2.684.846-4.175.061-.496.13-.994.225-1.48.075-.382-.286-1.652.712-1.675-.558-.84-1.198-.506.738-1.481-1.405-1.101.826-.864 1.658-1.241-1.322-1.383-4.694-.109-5.722 1.557-.924 1.5-.28 5.81-1.522 7.686-.613.924-1.984 2.62-3.489 2.803.174-.473.315-.959.419-1.458.81-3.88-.232-8.426-1.895-12.658 4.505.983 9.745-1.082 11.325-3.218 4.489-6.076-3.996-4.385-7.385-4.385-5.842 0-8.541-2.06-9.501-3.058a70.065 70.065 0 00-1.985-2.942c-3.84-1.391-4.826-.568-9.025.031-3.564.508-6.147 2.532-7.902 5.402" fill="#8d6b44"/><path d="M42.35 57.693c-2.6 1.017-6.131 2.584-9.728 1.549-6.185-.543-10.813-22.338-2.739-26.817 3.196-1.774 7.222-2.47 9.238-.283 4.892 5.31 4.929 20.354 3.23 25.551" fill="#f1e2af"/><path d="M35.551 1.726c3.156.356 4.619.845 6.916 2.016l-.008.018c.34.236.66.49.965.76 1.347 1.857 2.8 4.718 3.626 6.96a11.345 11.345 0 01-.07 3.305c-1.124 6.62-8.671 12.532-16.619 11.38-.867-.126-8.587-2.503-11.339-5.146-1.073-1.032-1.905-1.081-1.484-2.634C25.458 13.5 23.39 1.31 35.55 1.726" fill="#a88456"/><path d="M45.04 6.31c-12.386.346-15.138 12.898-24.28 15.975-1.446-.33-3.007-3.017-3.009-3.03-.543-2.107 2.964-2.64 4.5-3.702 2.778-2.958 7.062-16.329 16.456-13.47 3.034.922 3.776 1.627 4.206 2.01.398.358.52.347 2.126 2.218" fill="#f1e2af"/><path d="M41.506 15.598a.175.175 0 00-.147.095v.002c-.916 1.438-2.263 2.297-3.773 1.735a.174.174 0 00-.115-.045 3.644 3.644 0 01-.551-.291.176.176 0 00-.246.037.173.173 0 00.037.242c.163.104.324.195.484.27-.135.209-.208.38-.388.595a.173.173 0 00-.026.246c.06.075.172.086.248.026.276-.323.307-.472.49-.735.267.093.528.148.784.168-.1.523-.052.27-.168.912a.176.176 0 00.344.069c.122-.672.066-.375.18-.975.23-.01.452-.049.671-.115.09.482.055.243.111.834a.174.174 0 00.155.193.174.174 0 00.195-.15c-.058-.71-.015-.404-.127-.998.19-.083.378-.187.557-.307.345.575.188.318.52.862.065.07.176.073.247.01a.174.174 0 00.008-.249c-.287-.495-.133-.235-.492-.832.234-.189.455-.408.662-.654.486.426.248.206.75.695a.177.177 0 00.246.026.172.172 0 00.026-.244c-.54-.531-.288-.3-.805-.75.1-.133.198-.274.29-.42a.175.175 0 00-.167-.252zm-22.402 1.521c-.07-.015-.187.04-.452.205-3.7 2.31 1.315 5.205 2.065 4.95.57-.197-1.053-4.287-1.447-4.932-.074-.12-.097-.207-.166-.223zm6.83 2.945c-.206-.006-.797.246-.663.475.542.928.718-.397.721-.402.027-.048 0-.07-.058-.073zm1.084.698c-.226.013-.766.254-.637.474.542.927.719-.399.72-.404.032-.055-.008-.075-.083-.07zm-2.688.314c-.057.002-.084.025-.057.072h-.002c.003.005.178 1.33.721.403.135-.23-.456-.48-.662-.475zm11.125.102a.414.414 0 00-.17.084.174.174 0 00-.064.119 2.83 2.83 0 01-.164.277c-1.977 2.965-5.05 3.146-8.243 2.93a.175.175 0 00-.2.142.175.175 0 00.144.2c3.41.23 6.091.095 8.394-2.803 0 0 .17-.298.278-.56a.163.163 0 00.002-.003c.087-.21.135-.398.023-.386zm-9.55.652c-.226.014-.764.253-.635.473.543.928.717-.397.72-.403h-.002c.032-.054-.009-.074-.084-.07zm.991.299c-.057.001-.085.023-.058.07.003.005.177 1.33.72.403.134-.23-.456-.479-.662-.473z" fill="#393536"/><path d="M38.215 23.914c-1.18.053-2.724 1.215-4.7 4.322.35.466.58 1.034.577 1.442-.011 1.767-1.079 1.932 4.226 2.884.875.157 3.353.252 3.385-2.36.004-.024-.845-.578-.88-1.009-.04-.464.588-1.38.394-1.865-.134-.335-1.125-.642-1.25-.963-.115-.294.517-.696.37-.953-.506-.909-1.204-1.539-2.122-1.498zm-12.55 1.85c-1.303-.032-1.945.896-2.194 2.132-.06.288.664.485.644.8-.02.342-.87.932-.896 1.292-.037.518.84 1.203.945 1.658.096.422-.544 1.207-.533 1.225.829 2.482 3.16 1.646 3.945 1.234 4.765-2.502 3.699-2.34 3.149-4.02-.127-.387-.08-.998.11-1.546-2.359-1.973-4.022-2.748-5.17-2.775zm6.544 2.228a1.075 1.075 0 00-.139.014c-.738.12-1.207.99-1.049 1.941.158.951.886 1.623 1.624 1.502.737-.12 1.207-.988 1.048-1.94-.148-.89-.795-1.54-1.484-1.517z" fill="#f25452"/><path d="M45.04 6.31c14.5 5.343 4.02 30.274 1.092 30.17-7.98-.284-3.763-16.69-2.365-19.878 2.844-6.483-1.421-6.941.806-10.017.191-.262.361-.313.466-.274" fill="#9e794f"/></svg>