<svg width="72" height="72" xmlns="http://www.w3.org/2000/svg"><path d="M20.63 5.848c-1.257-.223-1.29-7.422.908-1.68.207.54-.113 1.82-.908 1.68m9.622 6.717c.145-1.261 7.37-1.75 1.743.795-.527.238-1.834.001-1.743-.795m-7.706 5.375c.273 9.212 5.315 19.37 3.633 38.829-.491 5.013-.755 10.3-.861 13.707 2.454.48 1.852.214 2.245.206 1.294-.027.29-15.275 3.029-14.927 2.87.365-.494 14.38.178 14.698.92.435 2.435.884 2.537-.055 2.835-26.353 19.392-24.352 19.33.018 0 .035 2.7.63 2.715-.368.06-3.716-1.084-5.99-.688-10.123.43-4.5 2.831-3.443 3.199 1.135.276 3.436.696 9.192 1.064 9.205 1.514.057.803.109 1.818-.369.37-4.973.768-19.418-2.173-23.259-4.84-11.021-18.832-12.13-25.985-4.656-1.497-7.396-3.66-25.355-5.9-25.387-2.107-.03-2.871.99-4.141 1.347" fill="#d49745"/><path d="M28.978 19.116c7.84-5.576-2.03-21.142-12.061-10.92-1.688 1.72-4.108 4.712-5.315 8.2-.766 2.213-.776 4.182.03 5.24 2.734 3.58 14.5-.497 17.346-2.52" fill="#ecb059"/><path d="M23.605 5.38c0-.618.773-2.782.353-2.782-1.39 0 .142-2.596 1.41-1.17.467.526.083 1.219-.547 1.282-.922.094-.455 2.112-.579 2.694-.06.054-.2.005-.304.005-.084 0-.333.008-.333-.029m6.262 4.43c.542-.304 2.817-.697 2.61-1.062-.682-1.204 2.345-1.153 1.719.645-.231.664-1.027.672-1.392.159-.453-.637-1.897.606-2.585.932-.201-.334-.098-.167-.214-.372-.041-.072-.171-.284-.138-.302" fill="#6e3b0b"/><path d="M11.06 18.763c3.688.418 4.096 4.298 3.678 4.287-3.419-.092-3.947-2.46-3.677-4.287" fill="#8d6b44"/><path d="M25.28 69.346c-.006.141.025 1.099.079 1.112.547.144 1.4.286 1.963.286.665 0 .77-1.206.75-1.206a88.523 88.523 0 01-2.45-.16c-.02-.007-.342-.056-.343-.032m5.418.244c-.006.14-.045 1.103.008 1.117.547.144 1.407.2 1.964.287.709.11.727-1.209.706-1.209a89.734 89.734 0 01-2.408-.158c-.018-.007-.269-.062-.27-.037m21.93-.313c0 .15-.05 1.162.007 1.174.582.126 1.681.191 2.274.165.7-.031.463-1.261.442-1.26-.22.007-2.45-.042-2.49-.054-.022-.007-.233-.051-.233-.025m5.991-.147c.005.14.113 1.093.156 1.103.44.106 1.119.19 1.56.151.52-.045.478-1.254.463-1.253a54.91 54.91 0 01-1.9.008c-.015-.005-.28-.034-.279-.009" fill="#6e3b0b"/><path d="M15.158 11.748a.2.2 0 00-.185.135c-.024.076-.046.15-.065.224l-.068-.003c-.134-.008-.135-.008-.268-.01l-.215-.004a.196.196 0 00-.191.197.195.195 0 00.193.192l.207.003c.126.001.126.001.254.01h.01l-.014.102-.136.031c-.135.031-.136.032-.278.057l-.213.037-.125.08-.021.156.031.053a.195.195 0 00.166.09l.237-.037c.152-.024.152-.024.294-.059l.036-.01a1.828 1.828 0 00.06.37c-.47.206-.474.211-.47.212a.195.195 0 00-.063.268.197.197 0 00.168.092l.078-.014.022-.016c.15-.052.245-.1.335-.146a2.8 2.8 0 01.08-.04 1.673 1.673 0 00.172.245 3.722 3.722 0 00-.138.156 4.233 4.233 0 01-.17.2.196.196 0 00-.092.12l-.008.094.031.053a.195.195 0 00.168.094l.082-.008.043-.041c.098-.092.17-.176.24-.26.04-.048.082-.096.128-.144a2.408 2.408 0 00.254.17l-.088.298-.076.24.015.06a.192.192 0 00.094.116l.055.026h.04c.072 0 .136-.04.182-.13l.067-.21c.034-.111.035-.116.066-.227a1.947 1.947 0 00.379.11l-.004.039a5.05 5.05 0 00.008.594l.02.066a.196.196 0 00.167.092l.067-.006.107-.084.024-.154-.01-.016.01-.496c.117-.004.244-.006.406-.016a.193.193 0 00.158-.222c-.016-.094-.095-.16-.205-.16h-.002c-.455.021-.719.036-1.18-.2-.813-.417-1.016-1.047-.685-2.105a.197.197 0 00-.113-.25l-.07-.014zm5.426 5.68c-.092 0-.17.06-.193.16l-.032.23-.066.006c-.134.013-.135.013-.266.03l-.215.027a.195.195 0 00.06.385l.204-.028c.125-.016.125-.016.252-.027h.012a3.193 3.193 0 00.002.102l-.135.052c-.128.05-.128.049-.268.096l-.2.066-.048.026a.196.196 0 00-.07.133l.006.093.037.047a.195.195 0 00.152.07l.252-.072c.15-.046.15-.045.284-.1l.037-.015a1.843 1.843 0 00.115.357c-.158.1-.425.266-.436.276a.199.199 0 00-.07.133l.006.091.039.047c.061.078.17.104.27.032.145-.074.233-.138.316-.198a2.98 2.98 0 01.072-.049 1.617 1.617 0 00.207.215c-.043.061-.079.12-.115.178a3.885 3.885 0 01-.143.22.194.194 0 00.125.343l.104-.01.045-.057a2.953 2.953 0 00.197-.29c.034-.054.068-.107.106-.161a2.33 2.33 0 00.275.13l-.041.302-.043.255.074.135.057.022.072.013c.08 0 .155-.049.192-.154l.033-.21c.018-.123.018-.124.033-.241a1.981 1.981 0 00.39.055l.004.035a5.246 5.246 0 00.092.59l.031.06a.195.195 0 00.15.07v-.002l.083-.01.04-.034a.189.189 0 00.071-.131l-.08-.602a5.725 5.725 0 00.4-.072.193.193 0 00.114-.098l.03-.09-.02-.058a.194.194 0 00-.186-.131l-.043.004a3.246 3.246 0 01-.615.082c-.183 0-.361-.035-.58-.11-.864-.295-1.16-.89-.985-1.984a.195.195 0 00-.148-.232l-.043-.002z" fill="#4b443c"/><path d="M23.566 5.793a.113.113 0 00-.072.031c-1.145 1.08-.56.657-.51 1.403.011.182 1.023.412 1.178.222.148-.18.639-.266.809-.33.573-.22.379-1.71-.723-1.068-.16.093-.49-.271-.682-.258zm3.514.53c-.718-.057-1.72 1.025-.385 1.679.252.124.002.93.301 1 2.047.474 1.146.137 1.943-.465.196-.147-.289-1.435-.615-1.467-.31-.03-.767-.508-.963-.648a.555.555 0 00-.28-.1zm-2.023 1.779c-.339.028-.586.244-.44.609.06.15.457.411.473.62.03.412.917.69 1.012.358.335-1.162-.481-1.634-1.045-1.587zm3.953 1.6a.38.38 0 00-.192.066c-.132.094-.436.415-.646.435-.22.022-.545.888-.414.988.537.404-.07.633 1.306.313.201-.046.034-.59.202-.674.9-.44.226-1.167-.256-1.129zm.66 2.855c-.338.028-.585.242-.44.607.06.151.458.414.473.621.03.414.918.692 1.014.36.334-1.163-.483-1.635-1.047-1.588zm-2.936 7.877a.118.118 0 00-.074.03c-1.146 1.08-.56.656-.51 1.401.01.183 1.023.416 1.178.227.147-.182.64-.268.809-.332.574-.22.38-1.71-.723-1.069v-.002c-.16.093-.488-.268-.68-.255zm-1.783 1.427c-.258.01-.596.142-1.033.453-.255.182-.19.877-.488 1.04-.17.092-.156.63-.01.785.71.747 1.075.425 1.916.107.356-.136.735-2.423-.385-2.385zm2.88.53c-.23.01-.488.107-.778.314-.255.182.521 2.878.222 3.041-.17.092-.155.63-.01.783.71.748 1.074.429 1.915.11.383-.146.25-4.32-1.35-4.248zm-2.04 2.224c-.169.008-.477.118-1.143.393-.26.107.087.796-.12.945-1.266.904.31 1.854.84 1.328.154-.155.493-.654.769-.728.289-.077.534-1.311.334-1.414-.507-.266-.399-.537-.68-.524zm3.338 2.498c-1.175-.03-3.146 1.886-1.262 1.944.228.007 1.896-.145 1.934-.338.232-1.176-.138-1.592-.672-1.606zm-2.975.487c-.67.115-1.66 1.628-1.21 1.95.49.353-.356.18-.356.743 0 .477.961.425 1.191.346.43-.146.445-.161.723-.455.147-.155.16-.693-.01-.786-.298-.162.22-1.36.053-1.623a.36.36 0 00-.39-.175zm3.547 2.418a.267.267 0 00-.246.068c-.097.09-.664-.156-1.463.103-.495.16-.727.196-1.24.44-.613.292-.91.617-1.2 1.232-.091.196-.033.81.124 1.004.285.355.894 1.034 1.369.655.453-.36 1.31-1.419 1.754-1.487.584-.09 1.262-.64 1.353-1.176.068-.396-.192-.785-.45-.84zm.332 1.92c-.124.006-.242.076-.342.23h-.002c-.168.262-.188.874-.486 1.037-.17.093-.157.63-.01.785.278.293.292.31.721.455.23.078 1.193.13 1.193-.345 0-.564-.846-.392-.355-.745.448-.321-.183-1.447-.719-1.417zm-2.758 1.855c-.978-.027-1.74.81-.005 2.322.417.363.575.557 1.08.89.6.398 1.06.49 1.783.419.23-.022.761-.41.855-.658.17-.451.465-1.371-.14-1.598-.577-.215-2.016-.42-2.319-.785-.32-.387-.809-.578-1.254-.59zm-.972 2.674c-.434.051-.71.528-.217 1.656.164.372-.086 1.184.144 1.565.274.453 1.325 1.922 1.778 1.638.772-.483-.2-.68-.137-1.15.038-.294.434-.403.488-.455.257-.247.744-.769.412-1.11-.316-.325-1.21-.912-1.296-1.25-.145-.573-.738-.946-1.172-.894zm19.142.81c-.225.006-.453.038-.568.12-.266.186-2.545 2.158-.059 2.218.285.008 2.286-.205 2.434-.338 2.061-1.845-.088-1.719-1.256-1.963a2.813 2.813 0 00-.55-.037zm-3.552.07a.494.494 0 00-.102.008c-.765.132-1.965.36-2.75.631-.858.295-.28 2.085 1.02 2.116.136.003.834.219 1.351-.012.564-.252.947-.957.97-1.057.215-.862 0-1.668-.49-1.685zm7.681 1.477c-.366.01-.702.117-1.111.317-.21.102-.57.653-.57.92 0 .484.05 1.453.7 1.453.62 0 2.047-.314 2.46-.077.548.314 1.487.304 1.922-.082.43-.38.365-1.139-.063-1.107-.143.011-.452-.57-1.29-.885-.522-.195-.74-.319-1.333-.455a2.79 2.79 0 00-.715-.084zm-18.726.244c-.244.019-.467.204-.532.676-.029.207-.666.223-.644.451.147 1.562.173.845.795 1.266.152.103.96-.547.904-.785-.053-.227.183-.664.236-.836.113-.365-.353-.802-.76-.772zm6.726.315c-1.479-.03-3.962 1.883-1.59 1.941.286.007 2.388-.143 2.436-.336.292-1.175-.173-1.591-.846-1.605zm9.309.685c-.454.028-1.487.323-1.801.168-1.066-.525-2.684.821-.318 1.543.39.12.85.836 1.29.908.525.088 2.33.25 2.407-.277.133-.897-.648-.292-.969-.644-.199-.221-.025-.59-.03-.664-.022-.355-.103-1.064-.58-1.034zm-4.42.782c-.453.028-1.484.322-1.799.168-1.065-.525-2.684.82-.318 1.543.39.12.556.202.996.275.524.087.861.008 1.326-.256.148-.084.387-.503.375-.697-.021-.355-.104-1.062-.58-1.033zm12.209.328c-.31.1-3.565.924-1.68 2.535.134.115 2.038.741 2.358.69 1.944-.309 1.159-1.402.316-2.243-.499-.498-.97-.99-.994-.982zm-20.754.705c-.32-.023-.586.05-.926.217-.145.072-.396.452-.396.636 0 .336.035 1.01.486 1.01.43 0 1.42-.218 1.707-.053.976.557 2.586-.617.395-1.44-.362-.135-.513-.22-.924-.316a2.22 2.22 0 00-.342-.054zm10.18.107c-.124.007-.243.075-.342.229v.002c-.168.262-.19.875-.486 1.037-.17.094-.157.63-.01.787.278.293.29.307.72.453.23.078 1.196.13 1.196-.348 0-.563-.849-.39-.36-.742.45-.322-.182-1.447-.718-1.418zm5.554.098c-.623.003-1.058.553-.043 1.713.268.306.25 1.188.612 1.449 2.475 1.78.63-.246 2.04-.607.346-.088.475-.957.055-1.182-.4-.214-1.43-.506-1.615-.803a1.263 1.263 0 00-1.049-.57zm-12.136.021c-.45-.017.308.715-.4 1.086-.233.12-.179.763.16.854.321.085.716.67.9.85.617.612 2.45-.496.974-1.55-.243-.172-.378-.806-.681-.931-.518-.214-.803-.303-.953-.309zm-9.407 1.293c-.406-.03-.872.407-.76.772.054.173.29.609.239.836-.056.239.75.887.902.783.621-.421.648.297.795-1.264.021-.229-.615-.244-.644-.45-.065-.473-.288-.658-.532-.677zm19.516.123c-.483-.104-.772 1.124-.273 1.223.137.027.425.503.511.443.352-.238.367.17.45-.714.011-.13-.116-.201-.163-.311-.18-.422-.364-.606-.525-.64zm6.63 2.582c-.16.035-.341.217-.523.64-.046.107-.174.18-.162.31.083.884.098.478.45.716.087.058.374-.418.511-.445.499-.1.208-1.325-.275-1.22zM33.26 47.342c-.284.061-.604.384-.924 1.129-.084.193-.31.319-.29.547.148 1.562.176.843.796 1.265.153.103.661-.738.902-.785.88-.175.367-2.341-.484-2.156zm24.967 2.467c-.161.034-.344.216-.526.638h.002c-.047.11-.176.182-.164.31.083.886.1.479.451.718.086.058.375-.418.512-.446.499-.099.208-1.325-.275-1.22z" fill="#8d6b44"/></svg>