<svg width="72" height="72" xmlns="http://www.w3.org/2000/svg"><path d="M18.724 63.044c-.106.325-1.927 1.261-1.823 1.866.003 4.031 7.576 4.599 8.616-.674.33-1.701.623-4.654 1.625-3.971 2.604 1.774 6.649 2.015 8.356.404 1.913-1.802 1.874 5.094 1.756 5.303-.256.45-.189 1.013-.189 1.013.568 2.16 6.697 1.695 7.293-2.165.9-5.83 2.219-7.45 3.033-11.386l.044-.224c.798.207 1.733.531 2.685 1.32 4.495 3.72 6.187 6.94 1.965 12.288-3.539 4.483-6.2 2.817-5.504.977 1.396-3.684-1.235-.676-1.237-.66-.909 10.696 18.87-3.163 6.669-13.072-3.457-2.808-3.45-2.665-4.35-2.795.255-4.251-.747-9.63-1.115-12.413-2.673-17.992-12.52-13.48-20.782-13.733-4.867.003-8.862 6.466-9.533 14.42-.892 10.565 2.53 23.381 2.491 23.502zm26.14-20.737c.773 0-1.736 0 0 0" fill="#7b7979"/><path d="M25.045 54.713c-9.724-2.187-5.623-20.355 6.765-19.176 16.977 1.143 12 27.337-6.765 19.176" fill="#e9e9e9"/><path d="M29.465 50.031v.149a.669.669 0 00-.201.037c-.276.089-.096.449.058.586.08.072.076.11.196.127h.01v.146c.235 0 .368-.343.368-.58a.513.513 0 00-.091-.309.405.405 0 00-.34-.156z" fill="#231f20"/><path d="M32.293 32.33c9.247-.823 17.81-15.364 6.112-25.84 3.808.677 2.968-3.023.764-4.615C36.863.207 33.141.722 35.382 5.183c-1.083-.005-4.364-.776-7.396-.185-2.886.562-5.531 2.477-6.454 2.968-.188-6.036-9.734.91-3.317 4.03-4.195 8.848 5.587 18.63 14.078 20.333" fill="#918f90"/><path d="M41.576 18.098a.22.22 0 00-.205.125c-.86 1.68-1.903 2.219-3.398 1.78-.808-.236-1.136-.55-1.68-1.114a.233.233 0 00-.314-.051.216.216 0 00-.09.144.22.22 0 00.05.178 9.56 9.56 0 00.522.516l-.666.703a.216.216 0 00-.088.082.214.214 0 00-.023.166.224.224 0 00.216.166l.04-.004.08-.035a8.805 8.805 0 00.687-.69l.104-.11a3.165 3.165 0 00.74.376l-.047.084c-.101.183-.1.183-.195.367l-.174.34a.22.22 0 00.16.272l.059.007c.102 0 .19-.068.205-.134l.146-.278.193-.361.088-.162a3.87 3.87 0 00.655.113c.002.144-.008.272-.018.406a4.133 4.133 0 00-.01.602.225.225 0 00.217.166v-.004l.057-.006a.22.22 0 00.138-.101c.031-.051.04-.11.03-.135a4.136 4.136 0 01.015-.496c.01-.133.019-.271.018-.428.226-.015.443-.057.65-.125.034.083.058.156.084.23.056.16.115.325.235.557a.224.224 0 00.218.166l.057-.006a.221.221 0 00.16-.267h-.002a16.4 16.4 0 00-.345-.854 2.953 2.953 0 00.65-.478l.1.152c.128.198.128.2.28.398l.179.233a.225.225 0 00.205.129l.056-.006a.22.22 0 00.16-.27l-.232-.332c-.143-.194-.143-.193-.27-.386l-.168-.254a4.488 4.488 0 00.208-.274l.105.088c.158.134.156.134.316.278l.243.22a.235.235 0 00.318 0 .218.218 0 00-.004-.314l-.258-.237c-.16-.146-.16-.146-.33-.289l-.146-.123c.077-.13.151-.268.226-.416a.22.22 0 00-.119-.287l-.088-.017zm-19.72 2.064l-.073.01-.031.015c-.109.057-.153.192-.086.315.139.2.286.395.44.584l-.762.6a.226.226 0 00-.1.07.215.215 0 00-.047.162c.012.111.107.195.244.195h.004l.067-.023c.276-.175.536-.385.789-.588l.11-.092c.203.188.43.349.677.477l-.057.074c-.128.169-.128.169-.248.336l-.222.316a.22.22 0 00.12.291l.087.018c.09 0 .173-.055.191-.108l.195-.267c.118-.163.118-.163.244-.33l.1-.135c.205.086.416.155.633.205-.02.143-.048.27-.078.402-.038.17-.077.345-.098.59.013.114.11.2.225.198h.023a.225.225 0 00.152-.082c.037-.045.054-.105.047-.131.02-.165.05-.328.09-.489.028-.13.058-.263.08-.42.221.018.444.007.662-.03.019.078.035.158.05.238.034.199.084.394.15.585.013.111.108.196.246.196h.004c.122-.013.209-.122.199-.227 0-.03-.152-.633-.22-.906.242-.09.483-.217.714-.383l.078.174c.094.209.095.208.22.432l.137.246c.027.094.117.16.239.16h.004a.223.223 0 00.199-.242l-.184-.37c-.112-.208-.113-.208-.21-.42l-.128-.27c.086-.078.168-.158.247-.241l.091.103c.137.152.138.153.274.32l.205.253a.228.228 0 00.314.045.219.219 0 00.088-.147.213.213 0 00-.045-.168l-.224-.275c-.134-.162-.136-.162-.286-.332l-.12-.139c.093-.118.189-.242.283-.375a.217.217 0 00-.073-.305c-.104-.062-.25-.023-.304.067-1.106 1.55-2.207 1.927-3.63 1.279-.763-.348-1.041-.706-1.495-1.342a.228.228 0 00-.202-.119zm11.019 3.111c-.228.006-.511.07-.857.211-.838.343.11 1.666.822 1.602.05.454.12 1.162.076 1.373-.168.807-.7 2.638-1.969 1.754-.448-.313-.631-.806-.822-1.28a.172.172 0 00-.217-.107.167.167 0 00-.107.211c1.078 2.67 2.993 1.88 3.392-.09 1.143 1.726 2.422 2.274 3.426-.111a.167.167 0 00-.113-.211.172.172 0 00-.213.111c-.807 1.69-1.765 1.492-2.482.467-.393-.561-.7-1.484-.899-2.127.81-.187 1.189-1.832-.037-1.803z" fill="#42372a"/><path d="M43.603 29.667c-4.056.719-1.954 4.325-2.421 6.414-.394 1.754-1.54 1.474-3.82 2.128-3.233.927-4.546 2.053-.506 3.133 9.16 2.45 9.226-12.116 6.747-11.675m-24.182-.054c3.899 1.313 1.263 4.566 1.403 6.7.118 1.792 1.293 1.685 3.446 2.67 3.052 1.396 4.177 2.704.015 3.172-9.432 1.062-7.245-13.345-4.864-12.542" fill="#bdbcbc"/></svg>