<svg width="72" height="72" xmlns="http://www.w3.org/2000/svg"><path d="M32.98 53.02c-1.419-.033-3.608.594-5.798.594-5.212 0-8.94-2.753-8.65-8.07.366-6.71 2.432-11.094-.29-13.805-1.26-1.257-4.317-1.978-7.742-2.308 1.416-1.746 16.876-5.986 11.656 8.727-.348.98-.117 4.139.055 5.233.64 4.071 3.404 6.725 7.442 7.04 1.097.086 4.862 1.06 4.804 2.435-.016.368-1.195.28-1.477.154" fill="#d49745"/><path d="M56.117 35.665c.637.76 4.662 2.513 5.32 4.355.47 1.314-1.797 2.978-3.569 2.978-2.432-.001-4.15-.91-5.518-2.31.218 4.614-1.03 9.068-3.32 12.448.636 1.287.979 2.898 1.053 4.55.109 2.442-.921 4.985-.154 6.685.28.62 2.24 1.632 2.401 3.031.259 2.23-6.737 3.364-7.351-.515-.341-2.155-1.191-5.583-1.663-8.758-2.67 1.216-5.796 1.441-9.183.266-.195 2.768-1.025 5.772-1.7 7.834-.304.93.43 1.713.818 2.404.255.452.188 1.018.188 1.018-.567 2.172-6.66 1.878-6.396-2.038.215-3.194-.028-9.292.929-12.999-3.335-3.36-4.184-7.816-3.586-12.37-1.211.933-2.69 1.505-4.619 1.505-1.77 0-5.007-1.325-4.537-2.639.659-1.84 5.653-3.933 6.29-4.693 1.308-1.561 5.243-6.495 9.535-8.974 3.312-1.914 7.116-1.78 8.342-1.153 1.325.678 4.28-.697 6.509.352 4.298 2.024 8.371 6.828 10.21 9.023zm-30.47 9.17c-.772 0 1.735 0 0 0" fill="#e3a34d"/><path d="M21.695 3.925c.999.78 4.175 3.016 6.257 4.515.003.002 3.087-3.569 6.705-4.167 4.128-.683 8.893 1.597 9.587 1.658.623-1.282 4.375-3.76 5.79-4.931.72 2.59 1.716 5.076 2.338 14.564.253 3.86-4.292 11.812-11.491 13.432-5.818 1.308-16.291-3.299-18.287-9.209-.81-2.4-2.21-13.123-.899-15.862" fill="#e3a34d"/><path d="M39.187 20.818c.05.268.101.648.126 1.077.188 1.345.678 3.498 2.151 2.612.562-.338.385-1.174.29-1.681a.242.242 0 01.47-.118c.159.842.282 1.924-.725 2.31-1.242.479-1.897-.295-2.265-1.325-.184 1.036-.664 1.904-1.734 1.856-1.157-.051-1.507-1.256-1.662-2.174a.24.24 0 01.218-.26.24.24 0 01.264.215c.109.64.341 1.704 1.202 1.742 1.29.058 1.398-1.909 1.306-3.216-.042-.312-.074-.592-.102-.81a.215.215 0 01.001-.059l-.01-.057a.238.238 0 01.178-.288.242.242 0 01.292.176" fill="#4b443c"/><path d="M38.967 21.024c-.594-.425-3.292-1.68-2.754-2.673.11-.202 1.498-.91 2.554.207-.094-1.092 2.037-.993 2.224-.759.898 1.133-2.02 3.228-2.024 3.225" fill="#fbc4cc"/><path d="M29.993 7.391c.219.391.218 1.082.717 1.24.394-1.804-1.019-1.778-.717-1.24zm8.95 5.479c-.495.543-.414.844-.21 1.953.014.081.437.292.332-.806-.032-.342.098-1.388-.122-1.147zm-1.44-.124c-.04.003-.68 2.189.157 1.88.323-.12.263-1.906-.156-1.88zm-1.205.008c-.49-.517-.944 2.907-.129 2.025.342-.369.504-1.628.129-2.025zm-1.568.271c-.562-.786-.372 3.101.198 1.543.104-.283-.1-1.405-.198-1.543zm5.312-2.634c.572-.43.437 3.02-.217 2.017-.274-.42-.22-1.689.217-2.017zm-1.342-.106c-.496.543-.415.844-.212 1.954.015.08.438.292.333-.806-.033-.342.098-1.388-.121-1.147zm-1.44-.123c.42-.027.478 1.76.156 1.879-.837.31-.198-1.876-.156-1.88zm-1.206.008c.375.396.213 1.656-.128 2.025-.816.882-.362-2.543.128-2.025zm-1.568.27c.098.137.302 1.26.199 1.544-.571 1.558-.76-2.329-.199-1.543zm-1.435.449c-.125.4-.414 2.85.385 1.805.256-.337-.348-1.926-.385-1.805zm6.774-3.185c-.438.33-.492 1.598-.218 2.018.654 1.003.789-2.447.218-2.018zm1.499.527c.687-.683-.16 3.119-.458 1.488-.053-.297.339-1.37.458-1.488zM38.482 7.6c-.496.543-.415.843-.211 1.953.015.08.438.292.333-.807-.033-.342.097-1.387-.122-1.146zm-1.44-.124c-.041.002-.681 2.188.156 1.879.323-.12.263-1.906-.156-1.88zm-1.206.008c-.49-.518-.944 2.906-.128 2.025.341-.369.503-1.63.128-2.025zm-1.568.27c-.561-.786-.372 3.102.198 1.543.104-.283-.1-1.406-.198-1.542zm-1.435.448c.037-.12.642 1.47.385 1.806-.798 1.045-.51-1.405-.385-1.806zm-1.29.9c-.172.144-.48 1.95.363 1.803.205-.037.262-1.518-.364-1.804zM39.58 5.12c.571-.43.436 3.021-.218 2.018-.274-.42-.22-1.689.218-2.017zm1.5.526c.687-.682-.16 3.12-.458 1.489-.054-.297.338-1.37.458-1.489zm1.338.678c-.015-.123-.882 1.343-.686 1.717.61 1.163.741-1.3.686-1.716zm-4.181-1.309c-.496.544-.415.844-.211 1.953.014.08.437.293.334-.806-.034-.343.097-1.389-.123-1.147zm-1.44-.124c.42-.027.479 1.76.156 1.88-.838.31-.197-1.877-.156-1.88zm-1.206.008c.375.397.214 1.657-.128 2.025-.815.881-.362-2.543.128-2.025zm-1.567.271c.097.136.301 1.26.198 1.543-.57 1.558-.76-2.33-.198-1.543zm-1.436.447c-.125.4-.413 2.852.385 1.806.257-.337-.347-1.926-.385-1.806zm-1.29.9c.626.285.568 1.766.362 1.803-.84.15-.534-1.658-.362-1.803" fill="#fff"/><path d="M49.578 19.807c-2.164.017-4.33.37-5.773 1.025a.102.102 0 00-.041.139.105.105 0 00.138.04c2.81-1.274 8.536-1.38 11.336-.034a.104.104 0 00.143-.038.1.1 0 00-.04-.138c-1.436-.692-3.598-1.011-5.763-.994zm-1.752.996a12.12 12.12 0 00-3.615.506.101.101 0 00-.065.128.104.104 0 00.131.065c3.157-.959 7.455-.634 9.797 1.922l.432.53a.104.104 0 00.142.025.1.1 0 00.026-.141l-.445-.55c-1.576-1.72-4.005-2.458-6.403-2.485zm-5.055.293c-.055 0-.135.004-.13.17.003.112.308.288.308-.028 0-.095-.135-.142-.178-.142zm-.125.675c-.055 0-.133.004-.128.17.002.112.306.287.306-.029 0-.096-.136-.14-.178-.14zm3.713.083a4.46 4.46 0 00-1.902.351.1.1 0 00-.039.139.105.105 0 00.14.04c1.49-.605 2.897-.26 4.376.26 1.318.465 3.513 1.487 4.472 2.524a.104.104 0 00.145.021.102.102 0 00.023-.142c-1.105-1.201-3.737-2.375-5.287-2.824-.7-.203-1.315-.347-1.928-.37zm-3.07.06c-.055 0-.134.004-.129.17.002.112.309.29.309-.027 0-.095-.137-.143-.18-.143zm-12.71.637c-3.024.04-6.71.934-8.63 2.35a.103.103 0 00-.012.144.106.106 0 00.149.01c2.496-1.837 8.139-2.787 11.14-2.051a.104.104 0 00.131-.067.102.102 0 00-.068-.128c-.77-.19-1.703-.272-2.71-.258zm3.458.14c-.055 0-.134.005-.129.17.003.113.309.289.309-.027 0-.096-.137-.143-.18-.143zm9.399.041c-.056 0-.135.004-.131.17.003.113.308.288.308-.027 0-.096-.135-.143-.177-.143zm-11.75.551c-3.093.012-6.541 1.216-8.172 3.856l-.332.62a.101.101 0 00.05.136.105.105 0 00.137-.05l.32-.6c1.82-2.943 5.981-4.054 9.262-3.694a.102.102 0 10.031-.201 11.488 11.488 0 00-1.296-.067zm2.87.145c-.054 0-.135.005-.13.17.003.113.31.29.31-.028 0-.096-.136-.142-.18-.142zm-.808.265c-.056 0-.135.004-.13.17.002.111.308.289.308-.027 0-.096-.136-.143-.178-.143zm.809.43c-.055 0-.136.004-.131.17.003.113.31.289.31-.027 0-.095-.136-.143-.18-.143zm-2.662.05c-.958.009-1.774.333-2.747.823-1.437.727-3.8 2.367-4.658 3.75a.1.1 0 00.05.137.105.105 0 00.138-.049c.745-1.196 2.71-2.605 3.918-3.303 1.353-.783 2.67-1.381 4.248-1.06a.104.104 0 00.13-.065.103.103 0 00-.064-.129 4.867 4.867 0 00-1.015-.103zm1.81.298c-.056 0-.134.006-.129.17.002.113.309.288.309-.028 0-.095-.134-.141-.178-.142h-.002z" fill="#4b443c"/><path d="M49.012 3.431c.263.874 1.134 3.098.558 3.612-.198.177-2.916-.589-2.763-.789.893-1.163 1.477-1.491 2.205-2.823m-25.85 2.508c-.052.91-.384 3.27.298 3.641.233.128 2.7-1.233 2.506-1.392-1.14-.93-1.785-1.118-2.804-2.25" fill="#fabfc0"/><path d="M48.303 14.107c-.132.016-.226.133-.211.225a3.865 3.865 0 01-.074.455c-.025.116-.05.235-.069.371a2.51 2.51 0 00-.566.033c-.018-.068-.03-.13-.043-.193a3.495 3.495 0 00-.147-.549c-.016-.116-.114-.203-.261-.203h-.004a.237.237 0 00-.21.266l.053.209.157.6c-.21.081-.416.195-.614.337l-.056-.12c-.093-.202-.094-.201-.211-.405l-.133-.233c-.03-.096-.124-.164-.254-.164h-.004a.236.236 0 00-.209.264l.182.355c.105.19.104.191.2.391l.108.229c-.063.06-.127.122-.189.19l-.059-.065c-.13-.146-.13-.147-.255-.297l-.202-.239a.248.248 0 00-.334-.043.232.232 0 00-.091.159.23.23 0 00.05.18l.206.245c.131.158.131.157.269.307l.105.121a7 7 0 00-.248.34.236.236 0 00.082.322l.079.034h.046a.237.237 0 00.202-.108c1.003-1.452 2.008-1.813 3.324-1.23.709.314.968.643 1.394 1.226a.24.24 0 00.211.125l.077-.01.039-.02a.239.239 0 00.115-.142.245.245 0 00-.031-.197 10.134 10.134 0 00-.397-.52l.676-.548a.24.24 0 00.148-.248c-.016-.118-.117-.212-.27-.205l-.072.027a7.777 7.777 0 00-.726.559l-.088.072a2.954 2.954 0 00-.59-.41l.033-.047c.116-.157.118-.158.229-.319l.203-.298a.236.236 0 00-.133-.309l-.09-.018c-.098 0-.184.059-.203.116l-.17.24-.222.31-.088.12a3.733 3.733 0 00-.545-.17c.015-.122.038-.232.062-.346.033-.161.068-.326.084-.566-.014-.119-.11-.196-.265-.206zm-19.016 1.76l-.064.01c-.126.035-.201.166-.172.256.009.174.001.317-.008.459-.006.117-.016.238-.014.377a2.44 2.44 0 00-.554.113 3.764 3.764 0 01-.07-.186c-.056-.15-.111-.305-.225-.519a.244.244 0 00-.233-.174l-.062.008a.237.237 0 00-.168.293h.004c.02.065.09.236.32.771-.196.11-.38.25-.557.42l-.074-.113c-.122-.184-.12-.183-.265-.37l-.166-.21a.241.241 0 00-.217-.135l-.065.01a.24.24 0 00-.144.111.228.228 0 00-.022.18l.223.312c.137.182.137.184.256.36l.15.22c-.054.068-.108.141-.16.217l-.068-.056c-.151-.125-.15-.125-.297-.256l-.233-.207a.246.246 0 00-.34.006.236.236 0 00.01.336l.242.216c.15.136.151.136.311.268l.12.1c-.066.117-.13.239-.194.369a.23.23 0 000 .181.238.238 0 00.13.13l.09.017v.002a.234.234 0 00.217-.137c.774-1.57 1.73-2.08 3.11-1.691.748.212 1.054.498 1.562 1.015a.252.252 0 00.334.05.231.231 0 00.094-.157.24.24 0 00-.059-.192c-.165-.168-.315-.323-.468-.459l.587-.638a.238.238 0 00.112-.266.24.24 0 00-.233-.176l-.043.002-.09.043c-.23.203-.436.435-.638.66l-.072.08a2.93 2.93 0 00-.647-.32l.024-.04c.094-.179.093-.178.177-.348l.162-.334a.237.237 0 00-.173-.288l-.059-.007c-.111 0-.208.074-.22.144l-.14.274-.173.34-.063.119a3.569 3.569 0 00-.564-.09 4.618 4.618 0 01.012-.356c.01-.163.018-.328 0-.568a.24.24 0 00-.233-.176z" fill="#4b443c"/><path d="M35.218 55.604c10.836 4.59 20.101-13.017 4.814-19.433-4.025-1.69-18.29 13.725-4.814 19.433" fill="#f9f5e7"/><path d="M39.553 50.021a.43.43 0 00-.362.168.547.547 0 00-.097.33c0 .254.14.618.394.618l.022-.17c.11-.018.111-.058.191-.13.157-.143.345-.516.06-.608a.696.696 0 00-.208-.04v-.168z" fill="#716257"/><path d="M39.559 31.17c.857 1.095.627 5.43-.36 8.517-.067.211.734-1.603-1.192-3.878-2.935-3.469-.693-6.274 1.16-6.496.82-.098.344 1.795.392 1.857" fill="#71c6f0"/><path d="M40.53 29.254c2.465-.286 5.633-3.505 7.214-3.673.189-.02.377.644.542.772 1.347 2.837-7.477 5.034-8.275 4.683-.754-.331.441-1.773.52-1.782" fill="#71c6f0"/><path d="M38.32 29.412c-2.063.358-8.373-2.895-9.426-2.465-.182.298-.077.86-.212 1.292.625 3.169 8.884 4.236 10.653 2.734.626-.531-.939-1.574-1.016-1.56" fill="#99def9"/><path d="M38.452 29.107c-1.07 1.766 2.17 2.95 2.453 1.786.629-2.582-2.344-1.966-2.453-1.786" fill="#71c6f0"/><path d="M39.559 31.17c-.786 1.386 1.031 6.766 2.68 10.107.113.229-.572-1.435.69-4.6 1.918-4.815-.21-7.752-2.427-7.18-.917.236-.9 1.595-.943 1.673" fill="#99def9"/><path d="M29.438 27.372c-.153.01-.483.582.231.568.286-.005.066-.589-.231-.568m.769 1.448c.153.01.482.583-.232.57-.285-.006-.066-.59.232-.57m1.499-.832c.137.065.451.773-.233.568-.358-.107-.201-.775.233-.568m-.123 1.402c-.138.065-.452.773.231.568.36-.107.202-.776-.231-.569m1.711-.644c-.138.066-.452.773.232.57.359-.109.202-.777-.232-.57m.404 1.058c-.138.066-.451.774.232.57.36-.108.202-.777-.232-.57m1.852.568c-.138.066-.452.774.232.569.358-.107.202-.776-.232-.569m-.184-1.26c.121.057.397.679-.204.499-.314-.094-.177-.68.204-.499m1.87.989c.12.057.396.678-.204.498-.315-.094-.177-.68.204-.499m5.058-1.001c.14-.043.823.246.215.543-.32.156-.65-.408-.215-.543m1.01.534c-.052.134.197.825.535.245.179-.304-.37-.667-.535-.245m.761-1.544c-.052.134.196.826.536.246.178-.304-.372-.666-.536-.246m.978.474c-.053.134.196.825.536.246.178-.304-.371-.667-.536-.246m1.657-.792c-.052.133.196.825.536.245.177-.305-.372-.667-.536-.246m-.958-.755c.122-.038.722.216.189.475-.281.138-.572-.358-.19-.475m1.947-.514c.122-.037.723.217.188.477-.28.137-.571-.359-.188-.476" fill="#fde1bc"/></svg>