<svg width="72" height="72" xmlns="http://www.w3.org/2000/svg"><path d="M16.55 67.555c3.673.73 6.09.231 6.678-.137 1.647-1.03 1.466-17.482 3.874-20.869.017-.025-2.372 20.684-1.366 21.166 1.377.66 6.593 1.392 6.708-.039 2.188-27.081 22.253-28.18 23.778.338.013.244 6.315.602 6.315-.914 0-6.377-1.219-8.819-1.031-15.375.085-2.993 2.658 15.603 3.588 15.638 2.265.088 3.997.232 5.515-.493.723-9.84.777-28.69-2.818-34.67.789-.866.792-2.421-.524-3.167-.44-.25-.817-.936-.656-1.39.192-.543 1.012-.812 1.489-.38.606.55-.776 1.325.428.883.217-.079 1.255-1.499-1.145-1.499-1.427 0-1.95 1.351-.868 2.298 1.049.918 1.93 1.556.842 2.6-8.23-11.774-30.898-11.21-40.978-4.519-15.604 10.358-9.735 28.266-9.83 40.53" fill="#bdbcbc"/><path d="M23.534 17.303C24.39 8.31 8.599.393 3.927 4.715c-5.128 4.745.1 13.215-.015 20.342-.103 6.44 9.665 11.206 11.64 4.91 1.485-4.728 5.528-8.028 7.982-12.664m11.558 6.377c4.54-7.788 21.934-4.855 23.201 1.41 1.392 6.877-7.77 10.642-11.825 16.48-3.664 5.276-14.346 3.354-12.283-2.913 1.55-4.706.197-9.771.907-14.977" fill="#918f90"/><path d="M18.089 17.756c.429-4.507-7.485-8.474-9.826-6.308-2.57 2.378.05 6.623-.008 10.194-.05 3.228 4.844 5.615 5.834 2.46.744-2.369 2.77-4.023 4-6.346m23.749 8.367c2.579-3.503 10.781-1.188 11.069 1.887.315 3.375-4.278 4.705-6.524 7.297-2.03 2.342-7.062.863-5.749-2.039.986-2.18.596-4.682 1.204-7.145" fill="#f39c92"/><path d="M25.453 13.258c-7.338.39-12.384 7.66-12.384 15.113 0 10.656 8.484 17.03-3.579 21.566-6.242 2.347-6.648-9.134-2.728-9.996.711-.156-1.226-1.412-2.064-1.96-4.55 3.548-4.986 10.82.639 14.397 5.3 3.371 17.566-7.216 17.82-7.257 32.049-5.142 22.553-32.94 2.296-31.863" fill="#d3d2d2"/><path d="M17.044 67.635c-.867-.106 1.545-2.4 1.626-.054.016.455-1.21.104-1.626.054zm9.07.278c-.858-.174 1.726-2.27 1.625.075-.02.455-1.214.009-1.626-.075zm2.233.45c-.457.022-.215-.68.27-1.02.491-.345 1.231-.32 1.351.884.052.514-1.204.118-1.62.136zm-9.041-.455c-.454.056-.268-.663.19-1.04.463-.382 1.203-.416 1.416.775.09.509-1.192.213-1.606.265zm2.362-.07c-.406.097-.338-.495-.03-.889.312-.398.915-.56 1.303.38.166.4-.93.428-1.273.509zm9.04.643c-.413.064-.3-.52.038-.888.343-.373.956-.488 1.27.48.135.413-.96.354-1.308.408m25.762-.444c-.873-.055 1.406-2.485 1.62-.148.042.454-1.2.175-1.62.148zm8.606-.701c-.822-.052 1.326-2.343 1.527-.14.04.429-1.132.165-1.527.14zm2.144.134c-.424.078-.288-.609.122-.989.416-.385 1.11-.456 1.376.652.113.474-1.111.265-1.498.337zm-8.477.709c-.45.083-.304-.645.13-1.049.441-.408 1.178-.484 1.46.692.119.502-1.179.281-1.59.357zm2.355-.206c-.4.12-.366-.475-.081-.885.29-.417.881-.613 1.322.303.19.39-.904.482-1.24.582zm8.342-.697c-.378.113-.346-.448-.076-.835.272-.392.83-.578 1.247.285.178.369-.853.454-1.171.55" fill="#656263"/><path d="M37.977 36.576c-1.204 1.244-2.713 1.816-4.08.935a.179.179 0 00-.103-.07 3.65 3.65 0 01-.482-.407.175.175 0 00-.25-.015.179.179 0 00-.014.252c.138.138.279.262.421.371-.178.181-.288.337-.51.514a.178.178 0 00.161.317c.34-.262.402-.405.64-.63.24.15.485.26.733.335-.208.501-.109.259-.358.876a.178.178 0 00.092.235.176.176 0 00.232-.094c.262-.646.145-.36.383-.936.228.038.458.045.686.026-.013.502.004.255-.067.859a.18.18 0 00.11.226.176.176 0 00.225-.111c.093-.722.07-.406.086-1.025a3.56 3.56 0 00.612-.188c.219.65.12.358.33.97.05.085.157.113.242.063a.18.18 0 00.06-.244c-.177-.557-.082-.265-.31-.939a4.85 4.85 0 00.792-.513c.388.528.2.26.59.855a.178.178 0 00.239.077.18.18 0 00.076-.24c-.42-.645-.22-.359-.633-.919a7.32 7.32 0 00.374-.359.179.179 0 00-.029-.25.175.175 0 00-.248.028m-22.784-8.07c.235 1.663 1.088 2.977 2.652 3.076a.185.185 0 01.12.006c.192.004.394-.008.606-.041a.172.172 0 01.073.337 4.12 4.12 0 01-.54.047c.037.242.035.427.108.693a.174.174 0 01-.076.231.17.17 0 01-.23-.076c-.116-.4-.084-.547-.142-.859a2.91 2.91 0 01-.76-.16c-.123.51-.063.263-.217.888a.171.171 0 11-.333-.077c.161-.653.09-.363.231-.949a2.775 2.775 0 01-.55-.375c-.274.398-.147.197-.433.707a.17.17 0 11-.325-.102c.335-.616.174-.358.512-.849a3.414 3.414 0 01-.371-.498c-.538.38-.296.21-.805.567a.17.17 0 01-.225-.091.173.173 0 01.09-.225c.454-.331.214-.16.772-.554a4.894 4.894 0 01-.326-.854c-.6.188-.303.086-.943.325a.17.17 0 01-.23-.076.172.172 0 01.077-.23c.692-.263.374-.154 1.013-.352a7.125 7.125 0 01-.088-.495.17.17 0 11.34-.015" fill="#4b443c"/><path d="M27.986 13.363C17.027 11.8 24.171 45.122 9.73 49.673c-6.532 2.059-6.704-8.81-2.635-9.476.738-.12-1.54-1.92-2.37-2.53C-.139 41.053-.505 48.54 5.2 52.37c5.358 3.598 18.498-6.255 18.679-6.448 18.28-19.617 22.138-29.986 4.106-32.559" fill="#989a9a"/><path d="M33.04 11.104c-.34-.01-.685.153-1.013.412-.13.102.104.45-.017.578-.135.14-.712.081-.854.226-.206.21-.084.825-.205 1.059-.113.216-.67.32-.672.332-.556 1.368.733 1.86 1.215 1.97 2.927.667 2.419.346 2.799-.577.087-.213.33-.458.61-.624-.406-2.505-1.118-3.357-1.864-3.376zm2.212 3.511c-.287.02-.59.217-.783.537-.28.467-.22 1.02.136 1.239.356.217.873.015 1.153-.45.28-.467.218-1.02-.137-1.24h-.002a.61.61 0 00-.367-.086zm3.22.26c-.58.01-1.341.147-2.326.453-.022.328-.132.655-.283.83-.649.754-1.158.436.735 2.783.312.386 1.323 1.332 2.29.221.01-.008-.144-.556-.003-.754.153-.215.751-.378.845-.656.066-.193-.24-.688-.175-.871.059-.168.473-.112.506-.274.192-.945-.106-1.756-1.588-1.732z" fill="#68bc47"/><path d="M19.249 24.75c-.667-.835-1.748-.765-2.498-.09l-.29.323a.137.137 0 00.029.189c.06.043.143.03.187-.03l.251-.281c.62-.558 1.54-.66 2.1.041a.134.134 0 00.186.036.136.136 0 00.035-.187m19.034 6.069c1.042-.209 1.827.545 1.973 1.547l.018.436a.134.134 0 11-.267-.018l-.015-.379c-.12-.828-.762-1.503-1.638-1.326a.135.135 0 01-.071-.259" fill="#4b443c"/></svg>