<svg width="72" height="72" xmlns="http://www.w3.org/2000/svg"><path d="M21.513 47.857C2.834 49.733 6.708 38.78 23.67 45.932c-.707.436-1.475 1.13-2.157 1.925zm-1.086 1.223C2.413 45.04.643 56.493 18.663 51.354c.524-.903 1.15-1.719 1.764-2.274z" fill="#f4c94e"/><path d="M32.833 53.293c-1.657 4.89-3.35 9.764-5.006 14.654.627 1 .303.512 1.283 1.853a.735.735 0 01-.146 1.048.783.783 0 01-1.076-.143c-.668-.915-.771-1.036-.932-1.28-.07.148-.129.295-.382.88a.77.77 0 01-.952.508.745.745 0 01-.522-.926c.16-.373.255-.602.32-.758-.184.042-.465.1-1.1.244a.763.763 0 01-.84-.67.752.752 0 01.689-.816c1.394-.33.68-.14 2.137-.577a.954.954 0 01.128-.02c1.634-4.825 3.304-9.634 4.937-14.459a.772.772 0 01.968-.478.743.743 0 01.494.94zm-1.746 13.98c-1.15.974-.577.52-1.714 1.37a.738.738 0 00-.29 1.019.78.78 0 001.047.282c.522-.382.753-.545.904-.659.006.17.013.417.022.82.057.41.443.698.865.641a.75.75 0 00.657-.84c-.012-.636-.02-.793-.016-.956.248.16.392.232 1.385.804a.78.78 0 001.042-.295.738.738 0 00-.303-1.016c-1.292-.745-1.041-.578-1.664-.999 1.859-5.271 3.961-10.584 7.193-15.208a.735.735 0 00-.136-1.05.783.783 0 00-1.078.135c-3.337 4.77-5.519 10.218-7.437 15.656a.758.758 0 00-.202.16.762.762 0 00-.274.137" fill="#625047"/><path d="M22.403 54.619c1.329-4.676 3.565-9.236 3.987-14.029C31.375-16.042 61.46.087 65.446 16.051c1.825 7.311-.82 11.216-8.48 14.077 2.54 26.663-27.607 23.796-34.563 24.491z" fill="#837871"/><path d="M26.687 41.329c2.203-3.21 7.413-8.809 9.74-2.666 2.215 5.858-5.542 13.767-10.982 15.142-1.929.487-7.603.107-8.938-1.686 4.651-3.551 7.231-6.494 10.18-10.79z" fill="#a7663a"/><path d="M53.285 28.545c-1.286.01-2.63 2.332-2.762 3.092-.55 1.362.77 1.358 1.266 1.46 3.008.619 2.48.307 2.857-.61.086-.213.333-.458.618-.628-.456-2.493-1.207-3.32-1.979-3.314zm2.377 3.445c-.305.009-.633.208-.834.541-.28.466-.21 1.015.158 1.227.368.21.893.003 1.174-.463.28-.466.209-1.014-.158-1.225a.643.643 0 00-.34-.08zm3.469.026c-.619.01-1.458.187-2.574.595-.003.325-.096.657-.239.838-.62.784-1.162.5.918 2.703.343.364 1.015 1.472 1.938.317.801-.661 2.937-4.502-.043-4.453z" fill="#99def9"/><path d="M51.77 20.436c.236 2.482 3.002 2.641 3.998 1.054a.2.2 0 01.264-.09c.1.045.141.161.093.257-1.228 1.959-4.477 1.677-4.752-1.217 0-.107.088-.194.196-.195.11 0 .2.086.201.191" fill="#fff"/><path d="M60.568 32.908l-3.65-2.803c1.342-1.618 5.155-3.652 6.682-3.866-1.502 3.803-1.692 4.852-2.198 6.929-.016.065-1.207-1.85-1.578-3.364-.217-.878-.168-1.597-.177-1.557-.114 1.928.362 2.817.921 4.661z" fill="#f79412"/></svg>