<svg width="72" height="72" xmlns="http://www.w3.org/2000/svg"><path d="M31.877 63.482c.176 5.682 1.85 2.375-.99 6.54-.002.006.74-.517 1.341-.098.187.13.019.736.246.983.372.404.38-.635 1.265-.694.236-.016.512.62.9.678.126.018-.028-.697.262-1.144.29-.45 1.026-.633 1.014-.644-1.349-1.16-1.679-1.027-1.96-1.556-.244-.46-.433-1.876-.365-4.14.028-.93-1.714.005-1.713.075m11.204-.072c-.175 5.683-1.848 2.375.99 6.541.003.004-.74-.517-1.34-.098-.187.13-.018.735-.246.983-.371.404-.38-.636-1.265-.695-.236-.015-.51.621-.9.678-.127.019.027-.697-.262-1.144-.29-.448-1.027-.632-1.014-.643 1.348-1.161 1.678-1.027 1.96-1.556.243-.46.433-1.876.364-4.14-.027-.93 1.715.006 1.713.074" fill="#e64112"/><path d="M23.234 1C11.461.889 2.524 18.354 11.94 25.826h.002c1.903 1.634 6.861 3.26 11.967 3.33.73.01 1.395 3.002 2.164 10.172a9.494 9.494 0 00-1.445 1.186c-7.58 7.743-5.923 18.723 2.715 22.535 13.937 6.15 25.515-.732 30.644-9.598 4.765-8.237 3.874-18.179.75-15.88-6.12 4.502-15.42.941-22.334-.618-1.432-6.454-2.65-10.382-2.533-10.469 4.2-3.096 5-13.856 1.51-18.492C31.552 2.91 27.159 1.037 23.234 1z" fill="#fce387"/><path d="M10.234 20.97c-1.21 1.875 2.165 3.093 3.092 1.719 1.675-2.485-2.113-3.237-3.092-1.72m17.061.049c-1.21 1.876 2.165 3.094 3.092 1.72 1.674-2.485-2.113-3.238-3.092-1.72" fill="#f4afb3"/><path d="M10.622 19.131c.925.667 1.885-.74 1.212-1.246-1.219-.915-1.96.706-1.212 1.246m19.527.629c.767.61 1.562-.676 1.003-1.14-1.01-.837-1.625.646-1.003 1.14" fill="#31302f"/><path d="M18.99 19.57c-2.819 1.51-8.433 2.833-8.082 3.755.332.888 5.096 3.688 10.746 2.505 2.355-3.645-.787-7.265-2.664-6.26" fill="#ef7e00"/><path d="M56.145 35.531a.815.815 0 00-.149.022c-.686.16-.825 1.558.475 1.127a.361.361 0 00.207-.211c-.01.055-.012.106-.014.123-.06.488 1.369.46 1.729.63.562.265 2.962 1.055 3.47.483-.455-1.144-4.204-1.108-4.994-1.41-.077-.03-.123.003-.152.055.077-.351-.09-.841-.572-.819z" fill="#694926"/><path d="M57.113 30.882c1.937-.913 5.445.56 4.86 2.835-.135.522-1.364 2.482-1.89 2.696-.61.248-.807.402-1.563.402-1.965 0-2.944-5.21-1.407-5.933" fill="#4cbac9"/><path d="M59.636 36.743c.358-1.029 2.392-3.165 3.48-2.993 2.349.373-.504 3.164-2.506 3.211-.664.015-1.001-.139-.974-.218" fill="#92d0d8"/><path d="M57.727 40.92c1.127-.414.405.73-.242 2.122-7.674 16.52-20.79 8.42-21.846.55-1.151-8.602 11.864 1.078 22.088-2.672" fill="#fff0b1"/></svg>