<svg width="72" height="72" xmlns="http://www.w3.org/2000/svg"><path d="M45.62 52.106C54.872 56.064 63.5 46.15 63.5 35.88c0-7.214-7.264-15.793-.814-23.208-3.773-1.532-13.5 3.978-14.01 8.119-.459 3.726 2.73 8.23 1.986 12.966-.574 3.651-3.319 7.907-4.36 10.992-1.86 5.494-1.955 8.594-.683 7.356" fill="#dd873c"/><path d="M22.243 29.183c-1.35.694-3.229 1.316-5.808 1.569-3.157.309-11.217-.505-6.476 4.789 1.51 1.685 5.81 3.043 9.658 2.295-.657 6.511.796 13.821 3.583 18.359-1.303 1.391-1.415 4.055-1.415 6.206 0 6.095-2.665 1.132-3.807 5.535-1.095 4.225 7.625 3.246 8.831 1.963.984-1.649 1.322-5.838 1.175-9.499.315.09.637.152.965.181 1.751.476 5.116-.147 8.478-1.696a35.851 35.851 0 00-.033 1.665c0 6.42-2.74 3.09-2.74 7.81 0 4.597 6.92 1.86 7.765.088 1.436-3.382 2.297-10.516 1.87-14.523 1.286-1.487 2.243-3.193 2.637-5.095.758-3.66-.217-7.95-1.775-11.94 4.218.927 9.124-1.021 10.602-3.037 4.203-5.73-3.74-4.135-6.913-4.135-5.468 0-7.995-1.944-8.894-2.884a66.24 66.24 0 00-1.858-2.776c-3.594-1.312-4.517-.536-8.449.03-3.336.48-5.754 2.388-7.396 5.095" fill="#e9a64e"/><path d="M60.186 21.728c-.25-2.85.246-6.409 2.565-9.075-3.774-1.532-13.527 3.884-14.037 8.024-.009.07-.016.142-.022.214l1.826-2.203.28 2.098 1.337-2.397.884 2.323 1.592-2.526.819 2.648 1.827-3.124.316 3.114L58.684 18l1.502 3.729" fill="#ece2a7"/><path d="M33.152 6.203c.7-2.11 7.024-5.405 9.243-5.193.915.763-.356 4.18-3.31 8.404l-.01.014c.264.285.509.582.733.89 2.711-.812 9.05.256 10.68 1.695.316 1.256-2.99 3.452-8.291 5.282-.164.057-.308.11-.44.152a10.755 10.755 0 01-.715 3.035c-2.335 5.888-10.408 9.866-17.457 7.25-1.07-.396-19.353-8.482-10.1-9.257 8.684-.728 8.719-14.543 19.667-12.272" fill="#dd873c"/><path d="M40.934 12.286c-3.454.252-6.063 1.27-9.026 3.28C26.183 19.45 20.252 25.55 13.07 22.2c-1.26-.587-2.164-2.676-2.164-2.69.047-1.338 5.928-1.403 7.472-2.482 3.126-2.186 9.555-14.35 17.593-9.88 2.596 1.444 3.136 2.24 3.454 2.679.294.406.408.42 1.51 2.46" fill="#ece2a7"/><path d="M48.294 12.148c.208.825-1.962 2.266-5.443 3.467-1.33.46-1.528-2.678-2.02-3.52-1.262-2.162 5.958-1.276 7.463.053M35.067 6.49c-1.56-.695 4.77-3.475 6.552-3.583.49.294-1.682 5.06-3.195 4.942-1.764-.14-3.336-1.35-3.357-1.36" fill="#af5711"/><path d="M31.99 16.625c-.62-.003-1.255.253-1.775.717l-.404.445c-.12.195.15.391.298.217l.352-.387c.86-.767 2.135-.907 2.912.059.14.203.445-.008.305-.211-.462-.574-1.067-.837-1.688-.84zm2.727 2.648a.165.165 0 00-.112.063c-1.12 1.148-2.522 1.675-3.794.863a.164.164 0 00-.096-.064 3.375 3.375 0 01-.45-.375c-.145-.137-.363.055-.245.217.13.128.26.242.392.343-.165.167-.267.31-.474.475-.196.1-.045.393.15.293.316-.243.373-.374.594-.582.225.139.452.24.681.308-.193.462-.1.239-.334.809-.077.198.212.323.303.13.244-.596.136-.333.357-.864.213.034.426.04.64.023-.013.463.002.235-.063.791a.164.164 0 10.31.107c.086-.665.066-.375.08-.945.191-.04.383-.098.57-.174.203.6.11.33.305.897a.165.165 0 00.227.057.166.166 0 00.056-.225c-.165-.513-.076-.244-.287-.865.251-.128.498-.289.737-.475.36.487.186.241.549.79.1.194.393.044.292-.151-.39-.595-.204-.33-.59-.848a6.71 6.71 0 00.348-.33.165.165 0 00-.146-.268zm-6.041 5.055a.386.386 0 00-.172.045.16.16 0 00-.082.1c-.056.074-.17.188-.205.222-2.395 2.35-5.243 1.913-8.123 1.09-.206-.08-.327.228-.121.309h.002c3.076.879 5.559 1.275 8.236-.948 0 0 .277-.288.366-.463.056-.11.204-.344.099-.355z" fill="#4b443c"/><path d="M12.703 18.256c-.411.088-.8.268-1.172.463-.386.217-.808.542-.831 1.023-.007.487.354.872.676 1.194.385.37.81.697 1.164 1.098.195.223.538.073.589-.193.167-.575.13-1.185.105-1.776-.043-.549-.075-1.108-.25-1.634a.262.262 0 00-.28-.175z" fill="#462008"/><path d="M30.257 7.536c2.022-1.984 1.673 1.432.044.36-.257-.168-.202-.204-.044-.36m2.051.703c1.378-.708 1.491.496.118.743-.22.04-.814-.387-.118-.743m1.248 1.391c.705-.747 2.453-.294.24.585-.012.006-.684-.117-.24-.585m-5.574-.135c2.792-.483-.187-2.193-.268-.246-.013.306.05.285.268.246m1.718.055c1.379-.707 1.492.496.118.744-.219.04-.813-.388-.118-.744m1.249 1.39c.705-.745 2.452-.293.24.587-.012.004-.684-.117-.24-.586m2.28.777c2.022-1.984 1.673 1.432.044.36-.257-.167-.202-.205-.044-.36m-2.723 1.212c.705-.746 2.453-.294.24.587-.011.004-.684-.118-.24-.587m-2.593-1.302c.705-.745 2.453-.293.24.587-.011.004-.683-.117-.24-.587m8.205-.933c.706-.746 2.454-.294.24.586-.01.004-.682-.117-.24-.586m-8.488 3.088c.479-.507 1.665-.2.163.398-.007.002-.463-.08-.162-.398m-1.63-2.047c.324-.616 1.549-.642.265.34-.007.004-.468.048-.265-.34" fill="#c39163"/><path d="M26.395 55.202c-5.644-2.114-4.63-18.43 4.277-17.29 10.73 1.372 9.374 25.383-4.277 17.29" fill="#ece2a7"/><path d="M38.126 70.808c1.63-3.001-3.16-9.288-3.436-2.384-.084 2.092 1.63 2.706 3.436 2.384m-16.834 0c1.082-1.378.992-4.303-.283-5.21-.587.35-.977.105-1.531.3-.901.314-1.536 1.104-1.622 2.526-.112 1.872 2.079 2.634 3.436 2.384" fill="#fcd7b1"/><path d="M37.181 12.343c1.21-.118 3.833-2.885 5.21-5.38.094-.17-.583 1.436-3.184 1.587-3.963.232-4.41 3.353-3.443 4.664.428.581 1.35-.866 1.417-.871" fill="#68bc47"/><path d="M36.6 14.215c1.58 2.126 2.308 3.607 2.783 5.048.297.902.762 1.683.992 2.707 4.804-4.797-1.47-10.35-2.718-9.561-.85-.357-1.11 1.735-1.057 1.806m-1.652-1.897c-5.6-8.034-11.348-3.48-6.728-6.631 3.16-2.006 8.71 3.553 8.843 6.238.047.95-2.065.468-2.115.393" fill="#68bc47"/><path d="M44.018 8.426c-2.353.734-5.611 2.196-6.72 3.342-.881-.4-2.063-.358-2.402.863-.045.167.9 1.773 2.047 1.617 1.137.86 3.397.154 4.856-2.986 1.112-2.391 2.406-2.895 2.219-2.836z" fill="#7dce60"/><path d="M31.492 5.984c-.21.016-.358.429-.324.543.164.512.827.122.64-.252-.11-.223-.22-.298-.316-.29zm-2.767.043c-.206-.028-.413.478-.2.676.125.116.845-.059.288-.629a.153.153 0 00-.088-.047zm1.285.041c-.317-.014-.584.5-.149.668.164.059.972-.23.285-.627a.297.297 0 00-.136-.04zm2.812.764c-.211.016-.36.429-.324.541.163.512.829.123.64-.252-.11-.223-.22-.296-.316-.289zm-1.162.414c-.211.016-.358.43-.322.543.162.512.826.122.639-.252-.112-.223-.22-.298-.317-.29zm1.565 1.219c-.278-.013-.515.438-.131.586.139.054.857-.203.252-.551a.264.264 0 00-.121-.035zm1.127.16c-.212.016-.36.429-.325.541.164.513.829.123.641-.25-.111-.223-.22-.298-.316-.291zm1.181 1.055c-.278-.013-.516.438-.133.586.14.054.856-.203.252-.551a.257.257 0 00-.119-.035zm-.703.707c-.211.016-.36.43-.324.543.162.512.827.122.64-.252-.11-.223-.22-.299-.316-.291zm4.225 4.66c-.218-.004-.443.17-.303.457.071.145.83.478.605-.246-.043-.143-.172-.209-.302-.211zm1.312.662c-.17.01-.375.13-.41.203-.217.46.497.624.61.244.105-.361-.03-.458-.2-.447zm-.674 1.81c-.17.011-.375.13-.41.204-.217.458.498.626.61.246.106-.362-.03-.46-.2-.45zm1.133.428c-.17.011-.375.13-.41.203-.217.46.497.626.61.246.106-.362-.03-.46-.2-.449zm.324 1.367c-.17.011-.375.13-.41.204-.218.459.498.626.61.246.106-.362-.03-.46-.2-.45zm-1.195.202c-.191-.004-.389.147-.266.398.063.128.73.42.534-.215-.04-.125-.153-.181-.268-.183z" fill="#fffdf8"/></svg>