<svg width="72" height="72" xmlns="http://www.w3.org/2000/svg"><path d="M27.9 53.403c-9.004 3.83-17.4-5.76-17.4-15.697 0-6.98 7.069-15.28.792-22.454 3.672-1.482 13.138 3.85 13.634 7.855.446 3.605-2.657 7.963-1.933 12.545.558 3.533 3.23 7.65 4.244 10.635 1.807 5.316 1.902 8.315.663 7.116" fill="#918f90"/><path d="M32.068 1c-1.025.538-.51 4.026 1.442 8.62l.006.017a9.63 9.63 0 00-.88.691c-2.412-1.314-8.661-1.584-10.505-.55-.557 1.124 2.142 3.868 6.816 6.671.144.086.27.166.389.233-.124.996-.108 2.012.062 3.015.374 2.202 1.527 4.316 3.188 6.065a63.79 63.79 0 00-1.688 2.508c-.875.91-3.333 2.789-8.654 2.789-3.087 0-10.816-1.542-6.726 4.002 1.439 1.95 6.211 3.832 10.316 2.935-1.516 3.862-2.465 8.014-1.727 11.555.383 1.84 1.314 3.49 2.565 4.928-.414 3.877.424 10.78 1.82 14.052.824 1.714 7.559 4.362 7.559-.086 0-4.566-2.668-1.344-2.668-7.556 0-.516-.007-1.06-.033-1.61 3.273 1.5 6.546 2.1 8.25 1.64a5.01 5.01 0 00.94-.175c-.145 3.541.185 7.597 1.142 9.192 1.176 1.242 9.66 2.187 8.593-1.9-1.11-4.26-3.703.54-3.703-5.356 0-2.081-.11-4.658-1.377-6.004 2.712-4.39 4.127-11.463 3.487-17.762 3.745.723 7.928-.592 9.398-2.223 4.613-5.122-3.23-4.333-6.303-4.632-2.51-.244-4.338-.846-5.65-1.518a12.753 12.753 0 00-.58-.861c5.123-.765 14.38-2.672 8.482-6.317-7.215-4.458-5.141-15.965-16.218-15.584-.237-2.138-5.588-6.531-7.743-6.779z" fill="#a7a5a6"/><path d="M32.948 53.199c1.446 4.428 8.813 3.55 11.021 2.954 5.842-.514 7.243-15.91-.384-20.149-10.35-5.752-12.903 10.251-10.637 17.195" fill="#e9e9e9"/><path d="M32.67 70.814c-1.586-2.904 3.075-8.986 3.344-2.307.082 2.024-1.585 2.62-3.343 2.307m16.381 0c-1.054-1.333-.966-4.163.275-5.041.572.34.95.102 1.49.29.877.304 1.495 1.068 1.578 2.444.11 1.811-2.022 2.549-3.343 2.307" fill="#4f4c4c"/><path d="M31.166 11.964c3.236.936 5.513 2.427 7.924 4.928 4.658 4.829 8.798 12.647 16.314 10.927 1.317-.302 2.868-2.944 2.87-2.956.228-1.277-5.356-2.525-6.605-3.858-2.53-2.7-6.177-15.508-14.734-12.9-2.764.842-3.44 1.485-3.832 1.836-.362.326-.474.316-1.937 2.023" fill="#d3d2d2"/><path d="M24.19 10.348c-.365.738 1.407 2.54 4.475 4.379 1.173.704 2-2.225 2.638-2.922 1.641-1.792-5.41-2.412-7.112-1.457" fill="#f79aaa"/><path d="M34.519 20.528c.833 1.312 2.062 2.095 3.438 1.583a.163.163 0 01.104-.042c.166-.068.334-.156.503-.264a.16.16 0 01.224.033.16.16 0 01-.034.223 3.884 3.884 0 01-.444.245c.124.191.193.347.356.544a.158.158 0 01.023.223.161.161 0 01-.226.024c-.25-.294-.279-.43-.447-.67-.242.085-.48.136-.712.154.09.476.048.246.153.832a.16.16 0 01-.314.062c-.11-.613-.06-.342-.163-.89a2.583 2.583 0 01-.613-.105c-.083.44-.05.222-.101.762a.16.16 0 01-.14.176.16.16 0 01-.178-.139c.053-.647.013-.368.115-.91a3.165 3.165 0 01-.506-.279c-.315.525-.173.29-.474.785a.16.16 0 01-.235-.216c.262-.452.124-.216.45-.76a4.439 4.439 0 01-.603-.597c-.443.388-.227.189-.684.635a.161.161 0 01-.225.023.158.158 0 01-.023-.224c.493-.485.262-.272.734-.683a6.044 6.044 0 01-.264-.383.158.158 0 01.072-.214.16.16 0 01.214.072m13.788 8.732c-3.107.211-5.55.086-7.647-2.558 0 0-.154-.272-.254-.51a.17.17 0 01-.07-.034.2.2 0 00.068.03c-.106-.258-.148-.476.135-.277a.158.158 0 01.058.11c.038.081.124.214.15.254 1.801 2.706 4.6 2.869 7.508 2.672a.16.16 0 11.051.314M38.6 19.22c-.942-1.216-2.666-1.588-4.014-.668 1.377-1.396 3.398-1.09 4.778.106a.471.471 0 01-.1.66.477.477 0 01-.664-.099" fill="#4f4c4c"/><path d="M56.729 23.309c-.227.012-.284.284-.378.447-.32.79-.553 1.613-.738 2.444-.081.425-.178.858-.133 1.292.002.327.419.412.612.166.684-.496 1.437-.941 1.944-1.633.272-.366.42-.858.26-1.301-.2-.56-.696-.944-1.183-1.25-.12-.068-.242-.158-.384-.165z" fill="#462008"/><path d="M42.294 9.626c-.258-.346-.562-.866-1.057-.798-.473.292-.202 1.134.32 1.21.225.04 1.072-.031.737-.412zm-2.094.25c-.256-.271-1.077-.648-1.04-.009.157.383.616.772 1.044.664.353-.11.249-.499-.005-.655m-1.471 1.064c-.201-.356-1.006-.845-1.225-.349.207.383.627.847 1.078.839.273-.036.286-.304.147-.489m5.332.999c-.391-.181-.965-.37-.998-.869.194-.518 1.072-.426 1.256.067.086.214.182 1.053-.258.802zm-1.646-.296c-.255-.27-1.077-.649-1.04-.01.157.383.616.773 1.045.665.352-.111.25-.499-.005-.655zm-1.471 1.064c-.201-.356-1.006-.845-1.225-.349.207.383.627.845 1.078.839.273-.037.286-.305.147-.49zm-2.329.275c-.258-.346-.561-.866-1.056-.798-.473.292-.2 1.133.32 1.21.226.04 1.074-.033.736-.412zm2.346 1.697c-.201-.357-1.006-.847-1.226-.35.208.383.627.846 1.08.84.271-.037.285-.305.146-.49zm2.732-.708c-.201-.357-1.006-.847-1.226-.35.208.383.628.846 1.08.84.272-.037.285-.305.146-.49zm-7.618-2.542c-.202-.356-1.007-.844-1.226-.348.207.383.627.847 1.078.839.273-.036.287-.305.148-.49m7.449 4.636c-.091-.341-1.08-.592-.73-.06.15.245.815.67.764.124zm1.967-1.607c.005-.353-.878-.86-.686-.254.078.276.602.862.701.323l-.015-.07" fill="#4f4c4c"/><path d="M13.725 24.013c.244-2.757-.24-6.2-2.496-8.78 3.672-1.482 13.164 3.758 13.66 7.764.008.068.015.136.02.205l-1.775-2.13-.273 2.029-1.302-2.319-.86 2.249-1.55-2.446-.796 2.563-1.777-3.022-.308 3.013-1.082-2.734-1.461 3.608" fill="#e9e9e9"/><path d="M37.87 26.266c-.343.017-.677.206-.987.488-.124.112.138.437.025.574-.124.15-.709.138-.84.293-.19.223-.02.827-.125 1.067-.097.224-.65.368-.652.38-.453 1.401.886 1.792 1.38 1.862 3 .433 2.46.156 2.772-.79.072-.218.297-.481.567-.667-.603-2.456-1.388-3.246-2.14-3.207zm2.618 3.306c-.322-.007-.672.223-.865.602-.246.485-.14 1.03.234 1.219.375.188.88-.054 1.125-.538.246-.485.142-1.03-.234-1.218a.606.606 0 00-.26-.065zm3.512 0c-.622-.007-1.489.181-2.672.647.003.327-.083.659-.22.843-.596.8-1.136.525.955 2.706.344.36 1.437 1.22 2.326.043.009-.008-.193-.54-.065-.75.137-.223.729-.433.803-.717.05-.196-.296-.665-.246-.852.047-.17.467-.146.488-.31.11-.87-.182-1.596-1.369-1.61z" fill="#99def9"/></svg>