<svg width="72" height="72" xmlns="http://www.w3.org/2000/svg"><path d="M30.073 29.288c-.276.126-.55.249-.822.37 1.034 1.168 2.696 2.887 4.818 3.811 19.497 8.495 25.656.97 23.007 35.69-.972.448-.563.146-2.014.093-.352-.012-.533-8.839-.797-12.062-.353-4.292-2.654-5.283-3.066-1.065-.379 3.877.714 9.759.658 13.244-.016.936-2.61-.04-2.61-.074.045-17.242-4.253-20.303-7.693-20.334-3.081-.03-5.16-1.543-7.813 4.254-2.377 5.196-2.01 14.414-2.942 16.557-.551 1.268-2.004.61-2.583.343.016-.526 3.31-19.191.562-19.533-3.284-.408-1.838 14.802-3.062 18.957-.43 1.462-.91 1.677-2.675-.179-.457-12.363 2.324-39.088-5.516-34.183-2.673 1.673-7.49 1.041-9.232-.332-6.467-5.1 1.902-25.206 10.739-23.202.101-.503.517-1.027 1.705-.948.805.052.63 1.516.725 1.855l.099.049.006-.006c1.436-1.306 3.626 1.067 3.485 2.142l-.004.017-.011-.008c-.01-.142.13-.96 1.52-.435 2.096.791 1.71 2.763 1.423 2.907 2.59-1.29 3.616 1.141 2.62 2.62-.01.015 1.63.663 1.837.874 1.12 1.145.469 1.937-.65 1.989 1.223 2.798 1.006 5.347-1.714 6.588" fill="#8d6b44"/><path d="M23.041 67.992c-.007.271.027 2.105.083 2.131.567.275 1.452.549 2.037.549.69 0 .799-2.313.778-2.313-.217-.004-2.503-.28-2.543-.305-.02-.014-.354-.11-.355-.062m5.384.375c-.042.235-.324 1.83-.277 1.862.481.314 1.282.526 1.788.746.644.28.997-1.911.978-1.914-.197-.032-2.209-.566-2.241-.594-.016-.014-.24-.141-.248-.1m20.823-.024c0 .245-.05 1.913.006 1.933.558.206 1.61.314 2.18.27.67-.05.443-2.075.423-2.075-.211.012-2.348-.067-2.387-.088-.02-.01-.222-.084-.222-.04m5.627.107c.006.212.116 1.637.158 1.652.444.158 1.13.284 1.575.226.526-.068.483-1.876.468-1.875-.166.018-1.887.028-1.918.012-.016-.008-.284-.051-.283-.013" fill="#231f20"/><path d="M9.838 19.354a.215.215 0 00-.217.199 7.439 7.439 0 00-.004.332l-.125.025c-.17.035-.169.035-.34.078l-.27.065a.211.211 0 00-.148.261.217.217 0 00.21.153l.31-.07c.166-.042.165-.04.324-.073l.067-.015a4.092 4.092 0 00.029.2l-.19.098c-.162.084-.162.084-.334.164l-.255.12-.047.033a.208.208 0 00.01.297.227.227 0 00.275.017l.203-.09c.188-.082.188-.081.351-.17l.09-.048a2.266 2.266 0 00.237.506c-.184.147-.534.422-.547.435a.206.206 0 00.01.3c.078.073.198.085.298-.007.178-.117.281-.208.381-.297.038-.032.076-.066.12-.101a2.029 2.029 0 00.353.287 3.908 3.908 0 00-.139.271c-.052.107-.103.218-.158.317a.205.205 0 00-.059.148.209.209 0 00.069.148c.083.078.211.095.326-.035.093-.146.154-.273.213-.398a4.156 4.156 0 01.127-.254 3.183 3.183 0 00.44.145l-.003.115c-.002.153 0 .151-.006.318l-.002.21a.204.204 0 00.024.157.217.217 0 00.133.1l.054.006c.1 0 .183-.067.213-.192l.01-.273c.006-.163.007-.163.008-.326v-.033a2.5 2.5 0 00.588.013l.02.073a6.759 6.759 0 00.212.74l.04.06a.22.22 0 00.148.057.22.22 0 00.158-.068.206.206 0 00.059-.15.199.199 0 00-.032-.102l-.177-.686c.169-.042.344-.095.544-.158a.21.21 0 00.104-.281.216.216 0 00-.195-.121l-.077.011c-.628.198-.971.28-1.587.15-1.183-.246-1.685-1-1.631-2.43.012-.115-.075-.22-.215-.231zm9.53 7.695a.216.216 0 00-.218.199 7.299 7.299 0 00-.002.33l-.119.026c-.173.037-.173.036-.34.076l-.277.066a.21.21 0 00-.146.264.217.217 0 00.207.15l.316-.07c.162-.04.163-.04.328-.074l.059-.012a3.599 3.599 0 00.027.197l-.19.1c-.16.085-.16.085-.331.164l-.256.117-.047.033a.21.21 0 00.01.301.23.23 0 00.273.016l.207-.092c.184-.08.185-.08.352-.168l.088-.049a2.287 2.287 0 00.234.506c-.379.298-.502.395-.545.437h-.002a.208.208 0 00.008.297c.079.075.203.088.303-.004.179-.118.28-.21.38-.298.037-.033.076-.066.118-.1a2.047 2.047 0 00.353.285c-.054.097-.095.186-.137.272-.05.108-.102.217-.158.316a.21.21 0 00.01.3c.084.075.211.092.324-.036.093-.147.153-.276.213-.4.04-.087.078-.169.127-.255a2.99 2.99 0 00.442.147l-.002.101c-.003.161-.001.162-.006.32l-.002.22a.212.212 0 00.156.257l.053.006c.099 0 .187-.064.215-.191l.01-.283c.005-.156.005-.158.005-.329v-.02c.21.028.4.032.59.013l.02.082a6.895 6.895 0 00.21.73l.04.06a.221.221 0 00.15.057.224.224 0 00.156-.066.206.206 0 00.03-.252l-.178-.686c.163-.04.335-.094.543-.16a.21.21 0 00.101-.281.213.213 0 00-.193-.12l-.074.013c-.608.193-.971.28-1.588.15-1.184-.246-1.688-1.002-1.633-2.432.012-.116-.073-.22-.215-.23z" fill="#452408"/><path d="M6.815 30.4c1.84-.424 5.278 2.522 5.592 4.24.123.666-.797 1.104-1.607 1.155-1.051.067-2.28-.588-3.153-1.563-1.333-1.487-1.963-3.572-.832-3.833" fill="#393536"/><path d="M15.326 39.03c-5.677-.571-3.363 3.952-1.502 3.612-3.71 1.909-5.101 7.815-.122 7.815.118-.34-5.338 10.032 2.275 8.81 4.105-.658 2.716 1.882 6.946.042 5.519 3.968 1.12-.82 6.738.605 1.577.4 1.295-.543 4.529-.18 1.598.179 14.34.64 15.065.32 2.011-.89.535 1.363 6.28 1.363 9.614 0-.938-3.801 7.405-4.12 3.557-.135 3.393-3.516 2.567-5.664-1.028-2.672-.64-11.961-2.84-14.022-2.304-2.159-.32 3.198-3.612-3.23.528-5.198-3.791-7.067-7.275-5.42-1.914-2.387-1.61.833-5.473-2.352-2.146-5.305-4.611 1.499-8.297-1.08-2.16-1.51-.658 1.598-5.344 1.038-3.107-.372-2.062 3.246-4.736 1.483-1.169 3.3-4.728 5.096-8.92 6.547-.662.23-6.78 3.255-3.684 4.433" fill="#85501f"/><path d="M13.888 15.75c-4.576 0-5.066-12.717 4.005-14.736 1.724-.384-4.442 7.427.355 11.976 1.147 1.088-3.035 2.22-4.11 2.669l-.25.09m13.469 11.055c-.413 4.433 12.561 6.057 15.448-2.55.548-1.635-8.006 3.632-12.23-1.425-1.01-1.21-2.545 2.74-3.102 3.74l-.116.235" fill="#bdbcbc"/></svg>