<svg width="72" height="72" xmlns="http://www.w3.org/2000/svg"><path d="M44.853 57.197c.393 3.188 7.303 3.964 7.4 1.092.076-2.282-2.519-1.48-2.89-2.733-1.313-4.438-3.411-22.712-9.127-21.156-4.999 1.36 4.054 18.212 4.617 22.797" fill="#9e928c"/><path d="M21.515 34.09c-5.078 9.6-9.637 24.09 5.213 28.173 4.862 1.337 33.04 1.655 29.707-7.342-1.537-4.148-9.997 1.932-9.997.613 0-13.068-2.486-21.996-6.788-26.654-1.89-2.044-3.134.468-8.568.12-6.933-.442-6.228-1.22-9.567 5.09" fill="#b1b1b2"/><path d="M47.57 1c-3.695.162-7.149 8.508-7.466 8.189-3.188-3.21-14.808-1.386-16.4 1.805-5.266-2.514-7.094-5.42-8.183-4.281-.726 2.699 3.323 16.743 4.874 18.98 4.248 6.126 10.33 11.635 15.737 10.919 5.022-.664 9.441-7.07 11.731-13.925.615-1.843.584-21.705-.294-21.687" fill="#9e928c"/><path d="M42.459 24.178c-.765.01-.914 1.185-.295 1.511.927.486 1.529-.975.85-1.35a1.13 1.13 0 00-.555-.161zm-16.115 2.23c-.766.01-.914 1.186-.293 1.512.926.487 1.525-.976.847-1.35a1.13 1.13 0 00-.554-.162z" fill="#31302f"/><path d="M35.002 28.195c-5.886 1.007-5.933 3.082-3.794 5.12 1.63 1.551 3.854 3.498 5.13 2.899 4.403-2.065 5.645-9.798-.105-8.228-.401.109-.82.14-1.23.21" fill="#fff9e8"/><path d="M27.608 30.543c-.277-.344-1.635 1.451-2.138 2.047-1.21 1.43-1.37 2.076-.92 1.793.439-.275.79-1.169 1.422-1.913.785-.926 1.807-1.717 1.636-1.927m-.32-.36c-.144-.41-2.041.847-2.723 1.246-1.634.96-2.009 1.52-1.484 1.397.51-.119 1.146-.85 2-1.349 1.06-.621 2.296-1.04 2.207-1.294m-.172-.423c-.032-.432-2.198.321-2.96.544-1.833.53-2.342.98-1.802.99.523.008 1.331-.543 2.287-.819 1.189-.343 2.494-.446 2.475-.714m16.025-1.268c.139-.413 2.052.823 2.736 1.214 1.648.943 2.028 1.496 1.502 1.38-.509-.112-1.157-.836-2.015-1.326-1.067-.609-2.307-1.012-2.223-1.268m.173-.443c-.012-.434 2.218.117 2.999.268 1.878.36 2.428.76 1.892.82-.52.057-1.379-.418-2.358-.605-1.216-.23-2.525-.215-2.533-.483m.012-.453c-.126-.418 2.177-.427 2.973-.471 1.91-.109 2.547.145 2.043.332-.487.181-1.443-.068-2.439-.011-1.239.072-2.501.406-2.577.15m-7.702 6.621c.019.396.088.225.48.183.01 0-.348-1.294-.354-1.48-.003-.105-.022-1.155-.106-1.14-.484.082-.047 1.857-.02 2.437" fill="#31302f"/><path d="M36.023 34.66c.403-.075 1.172-.442 1.12-.82 0-.008-.87.443-1.3.536-.03.005-.58.03-1.41-.052.084.464.934.461 1.59.337m-.527-4.805c1.145-.06 2.4.878.224 2.407-.67.47-3.5-2.234-.224-2.407" fill="#31302f"/><path d="M17.287 9.296c-.09.392.701 3.093.851 3.61.485 1.657.735.487 2.034-.17.693-.35 2.24-.823.973-1.679-.492-.332-3.558-3.075-3.858-1.76m29.532-4.534c.224.34.444 3.138.487 3.673.136 1.717-.517.702-1.97.515-.777-.099-2.398-.031-1.512-1.254.342-.475 2.245-4.067 2.995-2.934" fill="#f4afb3"/><path d="M24.286 12.507c.533 2.557 4.978 12.969 6.715 15.865.124.209 6.254-1.082 7.251-1.246 1.225-3.72 3.306-14.592.99-17.596-.68-.882-5.377-1.734-8.87-1.004-3.153.659-5.786 1.63-6.086 3.98" fill="#948982"/><path d="M37.063 61.594c2.163-.991 2.465-3.618 1.936-4.23-2.099-2.43-2.906-.39-6.478-11.199-1.675-5.066-2.348-13.145-6.684-11.143-5.016 2.317 2.628 30.515 11.226 26.572" fill="#9e928c"/><path d="M17.092 52.901c-4.71 3.891-.804 12.3 5.142 14.881 5.626 2.44 25.035 6.306 27.673-1.063.007-.02.943-2.01 1.044-2.234-3.847 2.156-7.126 2.215-11.472 1.773-4.96-.505-12.279-1.563-15.964-4.892-.89-.805-6.66-6.218-6.423-8.465" fill="#948982"/><path d="M43.294 70.754c3.204-.488 5.73-1.577 6.563-3.899.006-.02.993-2.146 1.094-2.37-2.313 1.296-4.5 1.854-6.757 1.98l1.05.79-1.271.261 1.135.708-1.498 1.013.973.39-1.29 1.127" fill="#dddcda"/><path d="M55.083 57.91c-.006-.132.73-.088.992-.057.628.077.84.32.653.342-.106.012-.47-.145-.797-.184-.408-.047-.842.055-.848-.1m-.055-1.991c-.068-.154.813-.26 1.115-.314.727-.128.983-.06.8.035-.179.091-.557.039-.934.105-.471.085-.939.27-.981.175M53.1 54.208c-.121-.152.824-.513 1.143-.653.768-.341 1.072-.336.897-.181-.17.15-.606.196-1.005.374-.497.221-.96.554-1.035.46m-17.766 6.74c.218-.145.23.476.257.678.063.489-.068.727-.167.64-.097-.083.03-.407-.003-.662-.042-.314-.222-.567-.087-.656m1.737-.652c.197-.16.498.294.622.437.3.345.255.553.095.515a15.93 15.93 0 01-.717-.952m1.346-1.502c.16-.168.73.093.946.168.52.18.56.346.351.357a28.4 28.4 0 01-1.297-.525" fill="#31302f"/><path d="M35.536 6.64a3.325 3.325 0 01-.41 2.112 3.15 3.15 0 01-.281.419l.141-.07c.611-.291 1.195-.827 1.454-1.444.191-.458.34-.325.292-.213a3.455 3.455 0 01-1.41 1.662 3.73 3.73 0 01-.383.206c.045.004.09.013.142.02.672.113 1.47.012 2.056-.338.436-.26.474-.069.368-.005a3.66 3.66 0 01-2.154.538 2.932 2.932 0 01-.687-.113l-.038.01a3.644 3.644 0 01-2.079.493c-.88-.053-1.252-.358-.27-.194.672.112 1.471.01 2.057-.339.116-.07.203-.106.267-.123.042-.082.115-.2.228-.356.391-.539.635-1.28.555-1.94-.06-.492.136-.443.152-.324" fill="#694926"/><path d="M36.064 5.786c.255.158.29.553.04.83-1.278 1.414-1.583-1.777-.04-.83m.641 1.769c-.336-.165-.217-.883.286-1.132 1.118-.552 1.096 1.806-.286 1.132m1.141 1.784c-1.414.137-.714-1.858.517-1.366.062.024.542 1.262-.517 1.366" fill="#fbbf04"/><path d="M26.37 7.47a3.405 3.405 0 001.134 1.845c.151.129.295.229.414.302a8.302 8.302 0 00-.156-.02c-.68-.07-1.418-.38-1.88-.874-.345-.366-.436-.192-.352-.103a3.583 3.583 0 001.915 1.093c.163.034.309.055.434.067-.039.019-.079.042-.125.067-.59.328-1.377.498-2.052.363-.503-.1-.47.092-.347.118.93.191 1.68.017 2.215-.21.273-.115.482-.239.604-.332l.039-.004a3.665 3.665 0 002.129-.227c.807-.34 1.047-.751.184-.271-.591.328-1.377.498-2.053.363a1.146 1.146 0 00-.295-.027 2.837 2.837 0 00-.34-.258c-.56-.377-1.053-.992-1.212-1.64-.12-.48-.287-.37-.257-.253" fill="#694926"/><path d="M25.567 6.842c-.184.232-.073.614.26.792 1.702.904.853-2.192-.26-.792m.028 1.874c.256-.266-.11-.903-.672-.968-1.247-.149-.386 2.059.672.968m-.435 2.052c1.374-.338.007-1.98-.973-1.111-.048.043-.058 1.365.973 1.111" fill="#fbbf04"/><path d="M29.815 8.12c-.762-1.61.334-3.944.91-3.611.48.278.171 1.658.068 3.132-.062.895-.097.327.244-.24.7-1.16 2.757-2.446 1.68-.656-.351.582-1.113 1.232-1.33 1.566 4.988-2.79 1.4.127.69.61.64.145 2.41 1.425 2.35 1.956-.07.634-1.442.37-3.062-1.118 1.824 3.489 1.154 4.673-.74 1.034-.49 3.637-1.7 1.961-1.423 1.032.062-.204.521-1.33.523-1.341-1.263.676-2.625.922-2.671.75-.09-.332 2.229-1.756 2.185-1.765-1.553-.315-2.29-1.965-2.055-2.053.874-.32 2.282-.03 2.63.704" fill="#a399ca"/><path d="M31.057 9.558c.02-.014.477-1.291-.676-.886-.684.241-.684 1.876.676.886" fill="#fbbf04"/><path d="M34.034 9.424c.317.67-.14 1.645-.38 1.506-.2-.116-.07-.692-.029-1.306.027-.373.042-.136-.1.1-.292.484-1.15 1.02-.701.273.146-.242.464-.513.554-.653-2.078 1.164-.584-.053-.288-.253-.266-.06-1.004-.595-.98-.816.031-.264.602-.155 1.278.465-.762-1.453-.482-1.946.308-.43.204-1.515.707-.818.593-.43-.026.085-.218.554-.218.558.526-.281 1.095-.384 1.115-.312.036.139-.93.731-.912.736.647.132.954.819.856.855-.364.134-.952.014-1.096-.293" fill="#ea5c05"/><path d="M33.516 8.826c-.009.005-.2.537.282.368.284-.1.284-.782-.282-.368" fill="#fbbf04"/></svg>