<svg width="72" height="72" xmlns="http://www.w3.org/2000/svg"><path d="M34.535 10.591c2.536.32 6.777.994 2.942 2.4-.06.021-1.355.122-2.522.093.066 2.521-1.032 4.854-3.734 6.115-.335.156-.667.309-.997.458 1.256 1.452 3.274 3.586 5.852 4.734 5.76 2.566 17.688-.86 24.19 10.351.124.1.246.201.37.303 1.136.945 1.972 2.305 3.263 2.493 1.986.29 4.705-1.534 5.446-5.467.267-1.42-.696-3.74-2.17-4.768 1.324.202 2.116.673 2.623 2.675.426 1.684.198 3.532-.862 5.323-1.776 3.001-3.209 3.276-4.268 3.408-1.317.165-2.26-1.004-3.412-2.05.06.131.12.26.178.393 3.423 4.473 3.021 25.869 2.59 31.661-1.18.557-.685.182-2.447.116-.428-.016-.648-10.977-.969-14.98-.427-5.33-3.222-6.56-3.723-1.321-.46 4.814.867 12.118.799 16.446-.02 1.163-3.17-.05-3.17-.09.054-21.414-5.167-25.215-9.346-25.254-3.743-.036-6.268-1.916-9.49 5.284-2.888 6.452-2.442 17.9-3.574 20.56-.67 1.575-2.434.758-3.138.426.02-.653 4.022-23.832.682-24.257-3.988-.507-2.232 18.382-3.718 23.542-.522 1.816-1.106 2.083-3.25-.222-.555-15.352-1.635-32.379-6.7-42.45-1.917-3.812-11.786-4.695-13.344-6.916C1.27 17.646 22.472-5.72 31.764 5.889c.233-1.277.372-2.25 2.758-4.546 1.116-1.076.771.529.771 2.754 0 2.306-.835 3.524-1.78 4.137a11.41 11.41 0 011.022 2.357" fill="#cdcdcb"/><path d="M22.68 67.264c-.007.337.033 2.614.1 2.647.689.341 1.765.68 2.475.68.84 0 .97-2.871.945-2.872-.263-.005-3.04-.346-3.089-.378-.024-.016-.43-.136-.431-.077m6.54.466c-.05.292-.393 2.274-.336 2.312.584.39 1.557.654 2.171.927.783.348 1.212-2.374 1.189-2.377-.24-.04-2.683-.703-2.723-.738-.02-.017-.291-.175-.3-.123m25.293-.031c0 .305-.059 2.376.007 2.4.678.257 1.958.39 2.648.337.815-.064.538-2.579.515-2.577-.257.015-2.853-.084-2.9-.11-.024-.014-.27-.104-.27-.05m6.836.133c.007.264.14 2.032.192 2.052.54.196 1.372.352 1.913.28.638-.083.587-2.33.568-2.328-.201.022-2.291.034-2.33.014-.019-.011-.345-.064-.343-.018" fill="#231f20"/><path d="M19.243 15.929l-.064-.01a.208.208 0 01-.134-.26 3.977 3.977 0 000-.309 4.353 4.353 0 01.002-.263 1.871 1.871 0 01-.37-.092 2.7 2.7 0 00-.048.115 2.712 2.712 0 01-.189.392.206.206 0 01-.191.134l-.062-.01a.205.205 0 01-.135-.26h.002c.02-.054.078-.181.255-.554a2.114 2.114 0 01-.365-.302l-.04.055c-.097.137-.097.137-.213.274l-.128.152a.207.207 0 01-.182.108l-.064-.01a.203.203 0 01-.12-.101.204.204 0 01-.015-.157l.028-.05.16-.198c.104-.128.104-.128.2-.261l.103-.141a3.098 3.098 0 01-.086-.128l-.023.018c-.12.093-.12.093-.23.184l-.232.193-.091.013a.206.206 0 01-.14-.358l.195-.162c.117-.098.117-.097.242-.194l.074-.057a5.728 5.728 0 01-.123-.26c-.042-.117.011-.232.118-.273l.073-.013c.086 0 .164.054.194.134.527 1.198 1.201 1.598 2.243 1.347.561-.136.796-.341 1.198-.725a.196.196 0 01.148-.062h.055l.076.046a.205.205 0 01.03.29c-.13.125-.245.234-.359.33l.4.477a.206.206 0 01-.115.377l-.097-.021-.026-.025c-.166-.16-.315-.343-.46-.518l-.038-.047a2.234 2.234 0 01-.45.204l.013.027c.059.123.059.123.125.272l.091.206c.033.142-.039.251-.15.274l-.042.004a.207.207 0 01-.203-.164L20 15.395c-.06-.133-.06-.133-.121-.262l-.036-.077c-.132.026-.26.042-.385.048-.004.085-.002.163 0 .242.002.126.004.254-.011.408-.036.118-.115.175-.204.175" fill="#452408"/><path d="M24.418 2.777c-.32.012-.667.044-.932.08-.21.731.507 3.904-.43 4.909 2.199-.242 2.386-4.442 2.14-4.944-.164-.046-.458-.056-.778-.045zm1.8.028c-.21.73-.891 4.208-1.827 5.213 2.198-.241 3.249-4.402 3.002-4.903-.327-.094-.723-.188-1.174-.31zm-3.69.271c-.473-.072-1.995.798-1.708.756-.21.731.507 3.903-.43 4.908 2.199-.242 2.385-5.162 2.137-5.664zm5.279.176v.002c-.21.73-.89 4.207-1.827 5.213 2.2-.24 3.211-4.213 2.963-4.715-.147-.3-.847-.25-1.136-.5zM3.902 16.132c-.094.003-.19.01-.289.022-.128.016-1.73 1.355-1.605 2.553a2.084 2.084 0 00.32.875c.382.564 1.065 1.125 1.652 1.197 3.395.415 2.833-4.705-.078-4.646zm28.053 5.487a.042.042 0 00-.031.01v.002c-1.118 1.017-5.66 5.962-8.287 6.697 4.633 2.735 11.72-4.345 9.7-5.623-.421-.267-1.184-1.08-1.382-1.086zm3.498 2.535c-.021.003-.037.013-.045.028-1.41 2.505-5.746 6.041-8.373 6.775 4.634 2.736 11.6-5.412 9.444-6.398-.424-.194-.876-.427-1.026-.405zm2.943.885c-.046.005-.076.016-.085.035-.696 1.34-2.972 6.998-5.18 8.592 5.3.971 9.498-7.771 7.158-8.275-.455-.098-1.57-.383-1.893-.352zm4.565.611c-.133.004-.22.025-.229.075-.452 2.835-3.29 7.647-5.498 9.24 5.3.972 9-9.075 6.633-9.258-.332-.025-.684-.063-.906-.057zm4.146.559c-.092-.002-.153.007-.168.035-.697 1.338-2.97 6.999-5.18 8.592 5.3.972 9.5-7.77 7.16-8.273-.422-.091-1.413-.344-1.812-.354zm4.225.99c-.018.002-.029.01-.031.026-.45 2.835-3.229 7.316-5.438 8.91 5.3.97 8.958-8.276 6.592-8.46-.525-.172-.998-.487-1.123-.476zm-8.797 11.975c.726.87 1.373 3.106 1.26 4.297-.006.055.236.085.455.123.975.17.527-4.266-1.715-4.42zm-1.79.217c.725.87 1.054 3.39 1.194 4.004.016.069.612.068.834.076.997.037.211-3.926-2.029-4.08zm3.605.3c.726.871 1.057 3.39 1.197 4.002.016.07.612.069.834.077.996.038.21-3.925-2.031-4.079zm-5.948.098a1.654 1.654 0 00-.4.066c.984.568 2.366 2.443 2.676 3.6.013.054.25-.003.468-.043.914-.164-.754-3.698-2.744-3.623zm8.034.615c.726.871 1.392 2.603 1.279 3.793-.006.055.239.319.502.301.974.171.459-3.94-1.781-4.094zm-9.577.002c-.133.008-.27.031-.404.07.983.568 2.303 3.033 2.649 3.56.039.058.471-.222.681-.29.89-.289-.92-3.461-2.926-3.34z" fill="#393536"/><path d="M65.258 24.107c1.471.282 5.656 2.559 2.795 4.139-1.6-.675-2.96-2.562-2.795-4.14" fill="#7b7979"/></svg>