<svg width="72" height="72" xmlns="http://www.w3.org/2000/svg"><path d="M6.216 46.81c-2.58 1.843 1.884 5.03 4.342 2.94.004.04-5.16 9.729 2.214 5.01 1.263-.807-.45-.607 1.169 2.513.529 1.02 4.021-.414 5.178-3.42C34.78 13.175-9.75 45.176 7.572 44.91c2.518-.038 3.159-1.329-1.356 1.9zm59.568-.883c2.58 1.844-1.884 5.032-4.342 2.94-.004.042 5.16 9.73-2.215 5.012-1.261-.808.45-.608-1.168 2.512-.529 1.019-4.021-.415-5.179-3.42-15.66-40.679 28.87-8.677 11.548-8.943-2.518-.039-3.16-1.329 1.356 1.899z" fill="#eda335"/><path d="M21.113 21.172c1.686-3.302 4.576-6.266 7.684-8.403-.735-1.384-1.733-2.971-2.537-3.74-3.118-2.98.514-5.288 3.299 1.055.618 1.41-2.073-4.473-2.287-4.917-.274-.57-.98-2.63.042-2.98 1.438-.493 3.408 6.698 3.267 7.108-.166-.417-.095-4.002-.561-5.853-.58-2.303 1.61-4.298 2.01.495.051.613.04 4.123-.314 7.102 2.324-1.163 4.6-1.79 6.434-1.683 1.299.076 3.091.697 4.936 1.726-.326-2.866-.36-6.053-.316-6.634.361-4.796 2.566-2.817 2.006-.511-.45 1.855-.35 5.44-.513 5.858-.143-.409 1.767-7.614 3.209-7.133 1.025.343.335 2.41.066 2.98-.21.446-2.853 6.347-2.246 4.934 2.732-6.363 6.384-4.083 3.29-1.079-.777.755-1.733 2.288-2.45 3.653 1.778 1.447 3.365 3.23 4.315 5.211 6.093 12.696 8.122 36.128 4.284 40.993-10.646 13.492-26.77 8.605-34.66 2.51-9.972-7.699-3.782-31.246 1.042-40.692" fill="#ba8a53"/><path d="M36.551 30.771c.496.033 3.859-3.499 1.868-3.662-.334-.028-4.752-.891-4.405.356.01.031 1.186 3.214 2.537 3.306z" fill="#fbc70c"/><path d="M29.514 29.368c10.17-1.936.824-22.54-8.068-5.403-1.118 2.155 2.426 6.477 8.068 5.403zm13.545-.22c-10.168-1.936-.825-22.54 8.068-5.404 1.118 2.155-2.425 6.478-8.068 5.404z" fill="#fffcec"/><path d="M45.623 31.484c-.045 0-.091.002-.14.008-.386.05-.63 2.8.51 3.387.322-.247 1.023-3.38-.37-3.395zm-17.287.63c-.656.055-1.725 4.48-.635 3.503.233-.209 1.063-2.17.99-2.724-.075-.574-.204-.793-.355-.78zm15.201.48c-.143.019-.333.156-.58.449-.51.604.469 3.609.549 3.39.228-.618.806-3.941.031-3.84zm-12.894.043c-.849-.074-1.163 4.747-.198 4.093.844-.572 1.063-2.927.592-3.732-.14-.24-.273-.35-.394-.361zm2.613.654c-.222.017-.5.33-.442 1.613.03.638-.31 2.572.122 2.143.973-.965.85-1.531.574-3.613-.008-.057-.121-.153-.254-.143zm5.496.209c-.12-.021-.277.05-.477.246-.67.655-1.086 2.983-.425 3.754.755.881 1.74-3.85.902-4zm2.291.084c-.13.024-.288.223-.477.668-.218.517.058 2.622.227 2.885.82 1.275.953-3.682.25-3.553zm-5.291.271a.829.829 0 00-.266.043c-.61.193-.665 3.52.118 3.508.073 0 1.304-3.522.148-3.55zm-9.348 1.477c-.665-.035-.97 3.1-.918 3.73.02.233 1.767-2.413 1.436-3.128-.192-.416-.364-.594-.518-.602zm21.094.492c-.901 3.32 1.73 3.4 1.22 2.371-.372-.748-.306-2.033-1.22-2.37zm-1.66.489c-.045 0-.091.001-.14.007-.387.048-.631 2.798.509 3.385.323-.247 1.024-3.38-.37-3.392zm-17.287.624c-.656.056-1.725 4.489-.633 3.508.233-.209 1.061-2.17.988-2.726-.075-.574-.204-.794-.355-.782zm15.201.485c-.144.019-.333.154-.58.447-.51.603.469 3.612.55 3.39.227-.617.805-3.94.03-3.837zm-12.895.043c-.847-.074-1.162 4.742-.199 4.094h.002c.844-.573 1.062-2.928.592-3.733-.14-.24-.273-.35-.395-.361zm2.614.654c-.222.017-.5.329-.442 1.611.03.638-.31 2.571.121 2.143.972-.966.85-1.531.575-3.611-.008-.058-.121-.153-.254-.143zm5.496.207c-.12-.021-.277.05-.477.246-.67.655-1.088 2.983-.426 3.754.756.881 1.74-3.851.903-4zm2.293.084c-.13.024-.29.223-.479.668-.22.517.058 2.625.227 2.887.822 1.276.954-3.684.252-3.555zm-5.295.274a.817.817 0 00-.264.043c-.61.192-.666 3.518.117 3.505.073 0 1.303-3.521.147-3.548zm10.564 1.466c-.054 0-.112.003-.172.01-.468.06-.762 3.395.62 4.108.392-.3 1.243-4.101-.448-4.118zm-20.972.76c-.796.068-2.093 5.444-.77 4.254.282-.254 1.29-2.633 1.201-3.307-.092-.695-.248-.962-.431-.947zM44 41.496c-.174.023-.405.188-.705.543-.618.732.568 4.382.666 4.115.277-.75.979-4.781.039-4.658zm-15.645.053c-1.028-.09-1.411 5.755-.242 4.967h.002c1.024-.696 1.289-3.551.719-4.528-.17-.292-.331-.426-.479-.44zm3.17.793c-.269.02-.608.401-.537 1.957.035.775-.375 3.12.149 2.6 1.18-1.172 1.031-1.86.695-4.383-.009-.07-.145-.187-.307-.174zm6.666.254c-.145-.026-.335.061-.578.299-.812.794-1.317 3.618-.515 4.554.917 1.068 2.11-4.673 1.093-4.853zm2.782.101c-.158.03-.35.27-.578.809-.265.628.068 3.183.273 3.502.996 1.547 1.158-4.467.305-4.31zm-6.42.33a.99.99 0 00-.32.051c-.742.233-.812 4.271.14 4.256.087-.002 1.581-4.273.18-4.307zm-11.34 1.793c-.808-.043-1.176 3.76-1.113 4.526.022.283 2.144-2.932 1.742-3.797-.234-.505-.443-.719-.63-.729zm25.592.596c-1.092 4.027 2.098 4.125 1.478 2.877-.45-.907-.37-2.466-1.478-2.877zm-2.014.59c-.055 0-.112.002-.172.01-.468.06-.766 3.395.617 4.107.393-.3 1.246-4.1-.445-4.117zm-20.975.762c-.795.067-2.09 5.442-.767 4.253.283-.255 1.288-2.633 1.199-3.306-.092-.696-.248-.963-.432-.947zm18.444.586c-.174.022-.405.188-.705.542-.618.732.568 4.383.666 4.116.275-.75.979-4.781.039-4.658zm-15.645.052c-1.028-.09-1.41 5.759-.24 4.965 1.024-.693 1.29-3.551.719-4.527-.17-.292-.332-.425-.479-.438zm3.17.793c-.269.021-.606.4-.535 1.955.036.776-.378 3.12.146 2.6 1.18-1.17 1.032-1.859.696-4.383-.01-.069-.146-.184-.307-.172zm6.668.252c-.145-.026-.335.062-.578.299-.812.794-1.319 3.62-.516 4.555.916 1.069 2.11-4.673 1.094-4.854zm2.781.104c-.157.029-.351.269-.58.808-.266.626.072 3.183.276 3.5.995 1.549 1.157-4.465.304-4.308zm-6.422.328a.997.997 0 00-.32.053c-.74.234-.807 4.27.143 4.255v-.002c.088-.001 1.58-4.272.178-4.306z" fill="#fcd7b1"/><path d="M29.983 64.856c1.218 1.898.196 3.17.866.105.434-1.982 1.477.414 1.4 2.033-.072 1.502.622-2.798 2.313-2.72.729.034-.377 9.487-1.313 5.813-.375-1.476.057-.592-.982.614-.858.997-1.37-.768-1.611-1.39-.162.308.14 1.528-.813 1.536-3.296-.291-2.371-9.907.14-5.991m15.091 0c-1.218 1.898-.196 3.17-.867.105-.433-1.982-1.475.414-1.399 2.033.072 1.502-.621-2.798-2.314-2.72-.728.034.377 9.487 1.313 5.813.376-1.476-.056-.592.982.614.859.997 1.37-.768 1.612-1.39.162.308-.14 1.528.813 1.536 3.295-.291 2.37-9.907-.14-5.991" fill="#fbc70c"/><path d="M24.947 23.955c.2.285.435.525.75.766-.326.287-.476.443-.779.734a.143.143 0 00.041.2c.066.041.162.014.191-.032.315-.303.507-.475.784-.732.239.164.495.302.763.412-.14.374-.284.763-.41 1.092-.007.079.053.149.145.156.075 0 .14-.058.142-.12.13-.358.271-.717.395-1.035.282.084.576.124.87.12.004.343.037.704.055 1.015.007.092.053.164.138.166a.146.146 0 00.152-.136c0-.011-.042-.765-.061-1.07a3.173 3.173 0 001.01-.33c.1.465.196.707.326 1.122 0 .033.013.065.035.09a.15.15 0 00.11.049.145.145 0 00.144-.131l.002-.012c-.167-.505-.234-.796-.36-1.261.15-.09.3-.193.456-.311l.533.936a.15.15 0 00.193.064.143.143 0 00.067-.193l-.565-.99c.15-.126.294-.257.434-.393a.14.14 0 00-.01-.201.154.154 0 00-.203.007c-.91.881-1.713 1.291-2.531 1.291-.57 0-1.136-.202-1.727-.617-.768-.539-.996-.985-1.363-1.783a.141.141 0 00-.123-.1.146.146 0 00-.154.193c.119.27.251.535.396.792-.347.182-.681.39-1.04.55-.065.03-.131.061-.136.134-.005.079.061.181.15.15.457-.162.783-.374 1.18-.592zm23.32-.996c-.37.805-.598 1.25-1.365 1.789-.59.415-1.155.617-1.726.617-.817 0-1.623-.41-2.53-1.289a.152.152 0 00-.207-.01.145.145 0 00-.005.205c.138.136.281.266.43.391-.244.395-.356.611-.563.99a.14.14 0 00.064.194c.07.033.157.006.194-.063.203-.385.345-.613.535-.94.145.112.296.216.453.311-.123.522-.242.792-.359 1.269-.018.077.07.14.158.138.074-.003.112-.069.135-.14.145-.453.214-.712.324-1.122a3.2 3.2 0 001.01.33c-.019.303-.058 1.06-.057 1.072.005.075.07.125.15.134.115.014.135-.107.138-.164l.052-1.019c.298.008.583-.033.873-.119l.39 1.022c.027.07.069.126.157.133.117.009.151-.12.132-.168l-.408-1.08c.269-.11.525-.249.764-.413l.771.723c.059.055.131.075.203.041.109-.05.069-.176.034-.209l-.772-.725c.314-.239.548-.48.748-.765.389.234.832.437 1.182.592.087.038.154-.073.148-.153-.005-.066-.064-.097-.132-.129-.354-.163-.73-.387-1.043-.552.146-.26.28-.527.4-.8a.14.14 0 00-.126-.182c-.085-.01-.136.041-.151.091z" fill="#452408"/></svg>