<svg width="72" height="72" xmlns="http://www.w3.org/2000/svg"><path d="M33.569 68.132c-.302-4.445-1.009-15.499-5.275-13.847-5.607 2.168 1.496 12.942 1.494 12.944-.533.939-1.813 2.777-1.191 3.338 1.194 1.079 5.143.096 4.972-2.435zm7.396 1.396c.494 1.878 5.808 1.625 5.578-1.762-.302-4.445.432-15.405-3.834-13.754-3.93 1.52-2.099 8.824-.866 12.558.266.803-.375 1.481-.714 2.078-.222.39-.164.88-.164.88" fill="#94887d"/><path d="M29.46 58.585c16.939 7.462 31.192-18.39 7.811-31.266-5.117-2.87-26.353 21.722-7.812 31.266" fill="#bdbcbc"/><path d="M28.444 15.51c.083-.15 1.004-1.336.64-2.044-5.452-10.63 7.45-18.952 2.967-5.463-.646 1.947.432 7.248 3.274 8.33 1.85.705 3.481-.361 4.048-1.999 1.1-3.177-.508-9.294 3.757-12.254 2.107-1.462 3.725-.162 3.25 1.743-.506 2.035-2.039 7.286-1.846 10.419.121 1.954 2.292 4.248 3.03 5.57 1.354 2.431.745 7.224-1.688 9.875-6.412 6.987-29.262 6.86-17.432-14.178" fill="#bdbcbc"/><path d="M29.472 4.485c-.832 2.253-.862 4.846.053 7.096.293.72.896 1.22 1.692 1.321.916.117.78-.88.558-1.448-.5-1.275-.798-2.687-.466-4.069.292-1.213.681-2.492.402-3.744-.092-.413-.47-.72-.9-.684-.754.062-1.107.902-1.339 1.528zm14.817-.438c-.96.062-1.688.91-2.077 1.724-.741 1.552-1.03 3.326-.909 5.042.044.625.27 1.333.953 1.547.947.297 1.05-.861 1.015-1.515-.055-.988-.23-2.049.304-2.964.562-.962 1.265-1.913 1.425-3.043.061-.43-.292-.818-.71-.791z" fill="#f79aaa"/><path d="M30.467 22.639l-.074.011c-.113.041-.174.165-.141.245.02.149.023.272.025.394a4.388 4.388 0 00.018.318c-.16.027-.315.071-.461.131a3.21 3.21 0 01-.07-.146c-.058-.126-.118-.259-.23-.432a.22.22 0 00-.208-.14l-.074.011a.214.214 0 00-.133.276h.002c.024.062.1.207.332.636a2.39 2.39 0 00-.44.389l-.066-.084c-.117-.149-.116-.15-.26-.303l-.154-.166a.22.22 0 00-.19-.105l-.075.014a.217.217 0 00-.123.11.208.208 0 00-.008.165l.217.258c.133.147.133.148.248.29l.142.175a3.796 3.796 0 00-.113.181l-.065-.043c-.133-.093-.133-.093-.277-.201l-.203-.152a.23.23 0 00-.31.025.211.211 0 00-.051.158.22.22 0 00.084.15l.222.167c.143.108.144.109.291.21l.108.075a6.02 6.02 0 00-.14.326.208.208 0 00.013.164.213.213 0 00.127.106l.068.01a.215.215 0 00.205-.14c.562-1.411 1.338-1.906 2.568-1.665.663.129.95.355 1.424.765a.23.23 0 00.31.018c.09-.078.1-.214.007-.317a8.775 8.775 0 00-.434-.357l.457-.582a.21.21 0 00.08-.248.22.22 0 00-.207-.14l-.049.003-.086.047c-.186.192-.353.41-.513.62l-.047.062a2.644 2.644 0 00-.568-.227l.021-.049c.064-.144.065-.144.133-.314l.107-.28c.017-.114-.064-.224-.217-.245-.108 0-.2.075-.209.146l-.085.21c-.072.178-.071.177-.13.313l-.054.127a3.163 3.163 0 00-.482-.039c-.01-.102-.013-.197-.016-.295-.003-.142-.005-.287-.04-.494a.22.22 0 00-.206-.142zm11.847.324a.216.216 0 00-.218.215c0 .019.06.472.092.709-.184.049-.368.12-.55.218l-.033-.1c-.06-.18-.058-.18-.138-.37l-.09-.207a.22.22 0 00-.217-.176.217.217 0 00-.219.215l.12.326c.07.176.07.175.132.355l.069.202a4.434 4.434 0 00-.17.132l-.037-.05c-.1-.14-.1-.142-.19-.282l-.15-.226a.224.224 0 00-.188-.104l-.076.008-.037.024a.214.214 0 00-.072.296l.144.223c.101.155.102.155.202.293l.08.115a7.126 7.126 0 00-.247.262.212.212 0 00.041.3l.08.046h.053a.218.218 0 00.168-.076c1.025-1.15 1.913-1.353 2.996-.713.58.342.769.65 1.073 1.19a.222.222 0 00.205.136l.082-.016c.112-.045.165-.165.113-.295a8.291 8.291 0 00-.283-.48l.633-.395a.216.216 0 00.16-.207.216.216 0 00-.219-.215l-.072.016c-.242.12-.473.268-.697.412l-.067.043a2.542 2.542 0 00-.455-.4l.031-.033c.113-.12.114-.12.23-.25l.208-.235a.213.213 0 00-.086-.29l-.065-.028h-.043c-.08 0-.154.044-.17.084l-.171.185c-.116.128-.117.13-.227.246l-.084.088a3.167 3.167 0 00-.44-.195c.028-.099.057-.188.089-.281.046-.135.093-.275.134-.48a.216.216 0 00-.218-.216c-.121 0-.221.096-.217.182-.033.147-.074.264-.114.38a4.05 4.05 0 00-.095.304 2.095 2.095 0 00-.479-.03 3.326 3.326 0 01-.013-.162c-.011-.137-.023-.278-.069-.478a.217.217 0 00-.219-.215z" fill="#4b443c"/><path d="M28.73 27.861c-.175.585 1.51.965 1.933.965.796 0 2.214-.189 1.96-1.326-.13-.58-3.42-1.204-3.892.361m11.636-.149c-.2.66 1.706 1.09 2.184 1.09.9 0 2.503-.213 2.216-1.498-.147-.656-3.866-1.36-4.4.408" fill="#efced6"/><path d="M28.572 19.586c.532-.91 1.621-1.01 2.474-.475l.34.269a.13.13 0 010 .186.138.138 0 01-.19 0l-.296-.232c-.704-.443-1.638-.4-2.085.365a.136.136 0 01-.18.062.13.13 0 01-.063-.175m12.986.201c.533-.91 1.621-1.01 2.474-.473l.34.267a.13.13 0 010 .186.137.137 0 01-.19 0l-.296-.232c-.704-.443-1.637-.4-2.085.365a.135.135 0 01-.18.062.13.13 0 01-.063-.175" fill="#4f4c4c"/><path d="M36.418 32.756c.47 2.613 9.355 11.74 12.654 10.253 1.868-.84.559-6.191-.81-8.274-4.467-6.8-5.552-2.51-3.635.383-2.86-3.131-8.808-5.693-8.209-2.362m-.132.668c.12 1.295-8.239 11.287-11.403 11.572-2.047.185-1.607-6.164-.492-8.387 4.066-8.11 5.882-3.665 4.009.058 2.482-3.423 7.576-6.613 7.886-3.243" fill="#9d9d90"/><path d="M36.616 26.28c-.317-.023-1.584-1.938.664-1.938 1.014 0 .398 2.01-.664 1.937" fill="#4f4c4c"/><path d="M36.746 26.698c-.015 1.01.084 2.908 1.046 2.504.268-.113.374-.292.514-.525a.078.078 0 01.104-.034.075.075 0 01.036.102c-.167.276-.341.542-.686.627-.777.191-1.055-.698-1.142-1.607-.194 1.053-.638 2.071-1.688 1.533-.386-.198-.438-.499-.469-.88 0-.042.035-.076.078-.076.042 0 .077.034.077.076.026.318.06.579.385.745 1.198.613 1.497-1.184 1.583-2.32.003-.318.02-.579.03-.716a.069.069 0 01.007-.025v-.005a.078.078 0 01.155-.005c-.005.134-.012.349-.03.606" fill="#4f4c4c"/><path d="M31.704 56.611c10.403 3.46 18.176-10.576 2.949-15.111-3.648-1.088-15.056 11.085-2.95 15.111" fill="#fffcec"/></svg>