<svg width="72" height="72" xmlns="http://www.w3.org/2000/svg"><path d="M58.4 19.95c1.368.263 5.144-.178 7.486-.811-1.695-5.31-4.771-9.514-10.935-5.163-2.75 1.955 2.2 5.732 3.45 5.973" fill="#4cbac9"/><path d="M32.007 45.193c-.452 1.307-.554 4.158-1.618 4.727 2.7 1.067 9.519-1.522 6.025-8.176-1.573-2.97-3.992 2.255-4.407 3.449" fill="#008c9e"/><path d="M29.9 6.558c-15.754 5.408-16.496 15.886-13.67 22.276.926 2.091-4.003 8.063-2.462 10.852 3.593 6.504 15.183 2.371 19.51 2.112 3.85-1.277 10.856 10.279-2.09 17.456-11.489 6.37-16.603-3.382-16.594-3.25.79 10.923 13.012 18.19 25.794 13.595 6.395-2.298 18.179-9.893 21.737-20.527C69.515 26.986 55.988-2.394 29.9 6.558" fill="#4cbac9"/><path d="M18.568 43.553c-2.735.117-3.44 9.69-3.51 11.886-.009.323.098 1.315.296 2.204-.402-.844-.963-1.74-1.178-1.995-1.426-1.685-7.946-8.777-10.17-7.193-.085 2.426.842 7.34 2.834 9.012 3.302 2.767 8.404 1.588 8.39 1.926l.315-.065c.19-.01.26-.154.248-.379.144.24.305.346.48.223l.288-.143c-.221-.257 4.526-2.46 5.396-6.66.525-2.533-1.81-6.963-3.389-8.816z" fill="#008c9e"/><path d="M27.21 31.327c.955.582 1.675-.982.977-1.427-1.262-.806-1.75.956-.977 1.427" fill="#31302f"/><path d="M27.162 35.27c2.024 1.154 3.536-1.927 2.056-2.813-2.675-1.597-3.692 1.876-2.056 2.812" fill="#f4afb3"/><path d="M32.795 41.819c16.667-7.681 20.715 3.564 16.967 10.87-3.718 7.245-10.946 10.278-19.319 6.96 1.369-.583 4.263-2.408 5.944-4.613 2.25-2.951 3.01-6.663 1.533-9.74-.905-1.891-2.65-3.6-5.125-3.477" fill="#92d0d8"/><path d="M25.018 40.45c-.224.08-.24.663-.572.96-.348.311-.98.563-1.435.481-.559-.101-.989-.33-1.442-1.354-.272-.048.015.79.224 1.056.63.81 2.346.913 2.989-.13.16-.26.44-1.088.236-1.013" fill="#31302f"/><path d="M17.116 27.738c1.774-.433 3.558-16.55 22.875-18.337 6.954.54 13.573 4.028 17.281 10.004 2.98 4.806 4.432 10.01 6.21 16.54C63.067 17.32 50.22-.219 29.268 6.972 20.654 9.928 16.99 16.047 16.18 20.77c-.693 4.039.917 6.973.936 6.968" fill="#6ec5d2"/><path d="M24.214 3.548a3.91 3.91 0 001.454 2.631l-.172-.039c-.744-.162-1.525-.603-1.978-1.22-.336-.46-.459-.272-.377-.159a3.955 3.955 0 001.991 1.471c.174.059.335.101.473.128a3.326 3.326 0 00-.148.062c-.695.306-1.59.406-2.322.171-.544-.173-.532.05-.399.094a3.99 3.99 0 002.482.023c.32-.099.565-.217.713-.308h.043a3.977 3.977 0 002.39-.005c.936-.296 1.254-.735.24-.29-.7.305-1.592.406-2.325.173a1.208 1.208 0 00-.322-.066 3.193 3.193 0 00-.347-.335c-.573-.497-1.045-1.256-1.141-2.012-.073-.564-.272-.458-.255-.32" fill="#694926"/><path d="M23.403 2.738c-.233.243-.158.692.19.932 1.776 1.233 1.216-2.399-.19-.932M23.2 4.876c.32-.273-.008-1.04-.624-1.184-1.365-.315-.68 2.304.624 1.184m-.734 2.291c1.566-.224.253-2.258-.942-1.383-.06.043-.234 1.551.942 1.383" fill="#ea5c05"/><path d="M29.541 6.915c-.03.043-.942.087-1.857.302a9.939 9.939 0 00-.655.18c.086-.806-1.4-1.574-1.524-1.503-.716.413.32 1.409 1.212 1.605-.489.166-1.01.369-1.499.58-.111-.81-1.757-1.183-1.857-1.084-.567.557.575 1.231 1.477 1.251-.275.125-.533.249-.764.365-.111.057-.31.148-.553.256-.2-.836-1.985-.865-2.067-.743-.428.653.785 1.073 1.668.924-.373.168-.784.356-1.11.522-.918-.128-2.368.644-1.735 1.254.101.098 1.727-.29 1.844-1.091.154-.087.342-.182.554-.287-.646.655-.922 2.175-.068 2.078.146-.017.917-1.614.252-2.166.401-.19.869-.398 1.352-.604-.646.654-.922 2.172-.067 2.075.143-.017.91-1.601.26-2.16a73.653 73.653 0 011.743-.71c-.6.685-.831 2.102-.006 2.007.142-.015.88-1.535.298-2.122a30.8 30.8 0 01.54-.203c.442-.163 2.553-.453 2.563-.631.004-.059.016-.12 0-.095" fill="#6f813a"/><path d="M29.6 6.337c.043-.006.393-.625.865-1.187.105-.125.226-.257.357-.392-.6-.225-.624-1.528-.53-1.589.543-.355.886.717.712 1.407a15.5 15.5 0 01.936-.84c-.534-.361-.222-1.64-.117-1.675.594-.2.67.833.369 1.468.185-.15.363-.286.527-.404.08-.058.213-.166.375-.296-.522-.432.084-1.687.199-1.7.613-.07.482.921.07 1.484.25-.2.526-.42.759-.59.23-.683 1.285-1.424 1.495-.77.034.105-.81 1.103-1.42.903a8.511 8.511 0 00-.395.286c.688-.22 1.863.12 1.494.68-.063.096-1.464.074-1.623-.582a36.25 36.25 0 00-.901.728c.689-.22 1.863.12 1.494.681-.062.096-1.454.073-1.62-.574-.395.331-.79.673-1.117.964.697-.177 1.782.158 1.425.7-.06.094-1.395.075-1.608-.535-.126.113-.24.217-.333.303-.27.252-1.216 1.62-1.345 1.564-.041-.016-.09-.03-.068-.034" fill="#759d35"/><path d="M28.171 5.537c-1.13-1.691-.348-4.528.349-4.25.578.23.488 1.848.643 3.536.095 1.025-.047.386.225-.313.56-1.437 2.593-3.253 1.73-1.036-.28.72-1 1.588-1.178 2.005 4.987-4.028 1.565-.099.87.57.73.053 2.916 1.195 2.946 1.808.036.73-1.523.67-3.578-.733 2.645 3.634 2.121 5.091-.627 1.3.12 4.203-1.516 2.516-1.38 1.416.03-.244.332-1.597.332-1.61-1.269.986-2.727 1.5-2.809 1.312-.157-.36 2.138-2.376 2.09-2.377-1.77-.088-2.883-1.829-2.639-1.97.903-.513 2.51-.43 3.026.342" fill="#fbbf04"/><path d="M29.803 6.948c.018-.019.29-1.546-.908-.884-.708.39-.411 2.243.908.884" fill="#92d0d8"/><path d="M33.059 6.28c.47.704.143 1.887-.147 1.77-.241-.095-.203-.77-.269-1.474-.038-.426.02-.16-.092.13-.234.601-1.08 1.357-.722.433.118-.3.417-.663.492-.837-2.079 1.68-.653.042-.363-.236-.305-.022-1.215-.498-1.227-.753-.016-.304.634-.28 1.49.305-1.102-1.516-.884-2.122.262-.543-.05-1.751.63-1.048.576-.589-.014.102-.14.665-.139.672.529-.411 1.134-.627 1.17-.55.066.152-.891.992-.87.993.737.037 1.202.762 1.1.82-.377.215-1.048.18-1.261-.141" fill="#ea5c05"/><path d="M32.378 5.691c-.008.008-.12.644.377.369.297-.162.173-.935-.377-.369" fill="#fbbf04"/><path d="M63.25 34.133c1.317.844 3.409 3.297 4.75 3.066-1.638 2.808-9.49 5.224-11.07-3.077-.696-3.714 5.115-.76 6.32.01" fill="#008c9e"/></svg>