<svg width="72" height="72" xmlns="http://www.w3.org/2000/svg"><path d="M14.648 41.443c-3.888 4.048 3.033 6.52 6.91.623-.794 1.271-2.182 5.57-1.9 9.608.398 5.696 4.311 12.099 3.597 14.317-.1.311-1.813 1.21-1.716 1.788.003 3.866 7.13 4.41 8.108-.645.857-4.484 3.356-6.142 6.285-5.703 3.853.579 4.93 7.058 4.759 7.367-.24.431-.178.971-.178.971.535 2.071 6.302 1.625 6.863-2.075.848-5.59 2.088-7.143 2.854-10.917.855-4.211-.385-10.829-.793-13.977-.032 4.563 9.09 8.869 9.06 4.035.158-.343-6.686-14.27-7.307-15.392-4.079-7.375-16.908-4.07-22.419-4.502-5.196-.407-9.206 5.235-10.563 10.23-.579 2.132-2.275 2.818-3.56 4.272zm33.204 4.665c.727 0-1.633 0 0 0" fill="#4f4c4c"/><path d="M35.679 28.042c18.057 1.735 12.763 41.46-7.197 29.084-10.343-3.317-5.981-30.871 7.197-29.084z" fill="#dbd4c3"/><path d="M33.361 53.484v.172a.62.62 0 00-.19.035c-.26.086-.087.43.058.563.074.069.07.105.181.119v.002h.01v.174h.002c.246 0 .377-.342.377-.588a.52.52 0 00-.094-.315.405.405 0 00-.344-.162z" fill="#231f20"/><path d="M44.098 8.051c-.003.001-3.695-3.073-7.403-3.06-4.23.014-8.583 3.127-9.265 3.306.542-9.393-5.216-8.21-9.062-4.784-3.838 3.418-3.633 9.07 2.375 8.67-.746 7.872 2.444 18.175 14.032 18.807 13.351.727 16.517-9.968 15.946-18.484 4.034 1.05 3.468-4.566 2.733-6.399-1.64-4.081-8.346-5.508-9.356 1.944" fill="#dbd4c3"/><path d="M39.015 24.656c-1.129 2.735-2.296.446-2.858-.233l.003-.033-.025.007c-.149-.174-.253-.222-.297-.007-.157.774-.658 2.53-1.852 1.683-.422-.3-.594-.775-.774-1.229a.16.16 0 00-.305.102c1.013 2.558 2.816 1.802 3.191-.087 1.076 1.654 2.28 2.179 3.225-.108a.16.16 0 00-.106-.2.162.162 0 00-.202.105" fill="#4f4c4c"/><path d="M36.4 24.263c3.344-.737 4.596-8.82-3.068-5.626-2.983 1.243.588 6.171 3.068 5.626" fill="#4f4c4c"/><path d="M40.998 22.757c.18-.473 3.115-.995 3.217-.397.548 3.19-3.806 1.943-3.217.397m-13.571.423c.18-.474 3.115-.995 3.218-.398.548 3.19-3.807 1.944-3.218.398" fill="#f79aaa"/><path d="M22.674 19.936c1.08-.528 4.987-12.67 9.742-5.598 3.111 4.628-7.007 11.44-9.742 5.598m26.465-.577c-1.08-.528-4.987-12.67-9.742-5.598-3.11 4.627 7.007 11.44 9.742 5.598" fill="#4f4c4c"/><path d="M46.014 15.951a.238.238 0 00-.22.139c-.803 1.598-1.772 2.104-3.163 1.69-.753-.225-1.06-.524-1.565-1.06a.25.25 0 00-.34-.052c-.108.077-.133.228-.04.355.15.164.307.322.468.475l-.601.647a.244.244 0 00.12.455l.04-.004.092-.043c.233-.203.443-.435.648-.66l.08-.088c.196.135.405.244.647.336l-.028.048c-.095.176-.093.178-.183.356l-.164.332a.243.243 0 00.172.297l.062.008c.112 0 .209-.077.223-.147l.14-.271c.091-.177.09-.178.18-.348l.068-.127c.187.049.378.084.57.102 0 .126-.009.242-.017.363-.012.166-.025.337-.01.582a.245.245 0 00.237.182l.062-.008c.13-.035.208-.166.18-.258a4.624 4.624 0 01.014-.47c.008-.12.017-.246.017-.386.195-.016.384-.052.563-.109.024.063.045.126.066.19.054.156.109.317.22.535a.245.245 0 00.237.181l.059-.01a.24.24 0 00.15-.109.26.26 0 00.02-.207l-.313-.771c.198-.111.388-.254.566-.424l.073.113c.12.192.12.193.265.383l.166.219c.04.085.127.14.221.14l.06-.007a.243.243 0 00.176-.295l-.226-.336c-.133-.181-.133-.182-.254-.37l-.143-.218c.053-.068.107-.142.162-.219l.075.064c.147.126.146.126.297.266l.226.21c.097.09.248.09.344-.003a.244.244 0 00-.006-.348l-.244-.224c-.15-.14-.15-.14-.31-.277l-.118-.102c.07-.124.138-.25.201-.377a.241.241 0 00-.127-.318l-.095-.022zM25 16.955l-.076.01-.037.02c-.12.062-.163.21-.09.345.137.195.264.375.394.537l-.689.553a.246.246 0 00-.152.254c.014.122.123.219.265.215l.076-.028c.261-.169.507-.37.745-.564l.085-.07a2.972 2.972 0 00.592.423l-.027.038c-.124.166-.124.166-.234.324l-.217.312a.24.24 0 00.13.32l.092.018c.1 0 .188-.058.206-.115l.181-.252c.113-.158.116-.158.23-.316l.083-.114a3.7 3.7 0 00.548.184c-.019.124-.044.235-.07.353a3.918 3.918 0 00-.092.577.244.244 0 00.243.216h.027c.133-.015.228-.134.215-.232a4.033 4.033 0 01.084-.465c.026-.118.05-.237.07-.375.197.013.386.003.572-.027.016.069.03.133.041.197a3.576 3.576 0 00.14.56c.015.124.116.215.265.215h.004a.238.238 0 00.164-.09.221.221 0 00.052-.16c0-.034-.133-.576-.2-.85a2.783 2.783 0 00.62-.335l.057.125c.09.204.092.204.209.416l.129.238c.03.1.126.172.254.172h.002a.237.237 0 00.166-.088.25.25 0 00.054-.18l-.174-.36c-.108-.202-.109-.201-.199-.401l-.111-.242a5.21 5.21 0 00.193-.192l.051.06c.134.156.136.154.258.305l.201.252a.249.249 0 00.344.05.246.246 0 00.045-.345l-.205-.254c-.131-.162-.13-.163-.268-.32l-.105-.121c.084-.108.169-.223.254-.346a.242.242 0 00-.08-.332l-.079-.037h-.05a.237.237 0 00-.202.11c-1.032 1.474-2.052 1.83-3.375 1.216-.71-.33-.97-.671-1.392-1.273a.248.248 0 00-.217-.13z" fill="#fffcec"/></svg>