<svg width="72" height="72" xmlns="http://www.w3.org/2000/svg"><path d="M43.966 45.102c1.415 3.441.794 20.869 2.173 20.581.38-.08 1.561.342 1.862-.163.944-1.587.624-5.691.725-6.997.158-2.011 1.174-14.08-.977-14.08-1.568 0-2.318.267-3.783.659" fill="#bdbdbe"/><path d="M22.479 35.75c-1.222 2.285-4.275 8.396-6.767 16.117 1.402 5.677 3.743 10.7 5.055 12.337.642.14 2.462-.725 2.642-1.137.372-.861-2.788-7.271-3.48-11.158 1.99-1.48 4.88-4.368 5.564-5.195 1.157-.237.208 20.983 2.586 24.117.52.467 2.37-.124 2.454-.669-.136-2.32-.284-20.301 1.584-19.987 6.06 1.02 12.647.4 16.95-1.378.675-.28 1.334 17.71 2.522 17.71 2.414 0 1.706 1.316 3.106-4.061.95-3.65 2.026-26.435.25-29.914l-.012-.026c.522-.91 1.103-2.72 1.107-3.045.047-3.605-1.048-9.025-1.64-8.484-1.725 1.58-3.356 6.09-2.406 8.182-3.698-2.268-8.762-.384-12.843 1.934-6.634 3.768-14.569.722-16.672 4.657" fill="#d4d4d4"/><path d="M55.911 21.422c-.905.345-5.199.303-5.72 1.613.583.652 3.333-.25 3.976-.553.412-.194 2.049-.163 1.979-.723-.007-.054-.007-.424-.235-.337" fill="#694926"/><path d="M56.912 20.572c.787.184.946 1.783-.543 1.289-.5-.165-.42-1.514.543-1.289" fill="#694926"/><path d="M55.632 15.229c-2.217-1.043-6.237.642-5.566 3.244.154.597 1.562 2.838 2.164 3.083.7.284.926.46 1.79.46 2.252 0 3.373-5.959 1.612-6.787" fill="#4cbac9"/><path d="M52.742 21.934c-.409-1.177-2.74-3.62-3.987-3.422-2.69.425.579 3.617 2.87 3.67.76.02 1.148-.159 1.117-.248" fill="#92d0d8"/><path d="M38.07 30.568c-1.475 2.376 1.06 11.298 1.37 7.632.07-.832-.024-7.968-.948-7.735-.142.036-.369.017-.422.103m2.91-.81c.63 2.449.797 5.9 2.618 7.705.938.93.44.95.267-1.14-.126-1.538.025-7.572-2.885-6.565m4.126-.92c.134 1.36 5.399 12.652 2.541 1.482-.29-1.127-2.564-1.697-2.541-1.482m3.704-.48c1.565 2.63 1.608 2.853 2.31 5.6.817-.76 1.36-4.54-1.235-5.509-.57-.213-1.115-.16-1.075-.09" fill="#525051"/><path d="M17.964 32.73c2.404 2.48 6.207 4.056 9.805 4.337 5.156.402 9.54-1.637 12.611-5.053 1.656-1.842 3.186-4.905 3.116-8.13-.082-3.701-1.948-9.005-2.88-11.115 3.728-3.462.707-7.167-.698-10.002-.15.308-2.717 5.6-1.154 8.694-1.925 0-1.495-2.321-7.95-2.321-3.235 0-9.148-.646-11.764.819.743-5.121.637-7.8-.985-8.959-1.228 1.647-4.154 7.737-1.753 11.604-3.42 9.365-1.503 16.87 1.652 20.126" fill="#dedfe2"/><path d="M17.781 23.738c-.746.017-1.068 1.09-.488 1.508.92.662 1.873-.732 1.203-1.234-.265-.2-.506-.278-.715-.274zm22.85.809c-.62.015-.888.996-.406 1.379h.002c.762.606 1.552-.67.998-1.13-.22-.18-.42-.253-.594-.25zm-11.34 4.142c-.51 0-.396 1.945-.477 2.559a1.06 1.06 0 00-.011.176 10.772 10.772 0 01-1.227-.278c-.002.502.869.654 1.56.641.428-.008 1.282-.254 1.302-.66 0-.007-.688.214-1.178.297-.007-.177-.101-1.335-.074-1.516.016-.113.194-1.219.105-1.219z" fill="#31302f"/><path d="M18.179 26.708c-1.363 2.11 2.437 3.477 3.48 1.932 1.885-2.792-2.38-3.637-3.48-1.932m17.321.426c-1.361 2.109 2.438 3.476 3.48 1.932 1.884-2.791-2.379-3.636-3.48-1.932" fill="#f4afb3"/><path d="M29.501 26.637c1.18.142 2.288 1.356-.223 2.572-.772.375-3.156-2.98.223-2.572" fill="#31302f"/><path d="M22.62 9.243c-2.283 2.196-2.006 12.675-.64 8.742.31-.89 2.208-8.738 1.13-8.738-.165 0-.408-.083-.49-.004m3.417-.083c.001 2.86-.784 6.686.708 9.17.767 1.278.214 1.161.613-1.176.29-1.72 2.148-8.29-1.321-7.994m4.778.134c-.236 1.528 2.369 15.36 2.369 2.33 0-1.317-2.333-2.571-2.37-2.33m4.196.5c.975 3.316.96 3.571.962 6.778 1.106-.609 2.761-4.6.189-6.38-.565-.392-1.177-.484-1.152-.398M21.85 37.956c1.317.392 10.339 6.987-.141 2.05-1.06-.5-.067-2.112.14-2.05m-1.458 2.834c2.297 2.03 2.068 2.45 4.646 3.666-.908.648-4.746.45-5.202-2.268-.101-.597.498-1.451.556-1.398" fill="#525051"/></svg>