<svg width="72" height="72" xmlns="http://www.w3.org/2000/svg"><path d="M18.385 40.01c.297-4.202 7.592-5.651 3.214-16.36-3.216-7.868-17.318-7.397-19.657 2.5.102-.002 2.05-2.865 3.495-3.043-1.156 1.338-4.95 2.937-3.68 12.46 1.146-4.906 3.294-7.25 4.968-8.312-3.558 2.506-3.06 7.764-.573 11.19 1.862-4.843 15.745-12.058 10.593-.238-.33.754-.394 5.172 1.149 2.795.186-.286.364-.573.642-.78l-.15-.212" fill="#ffe76c"/><path d="M32.083 59.61c-1.07 1.293-2.825 4.623-5.937 7.39-1.063.944 2.343 3.946 3.455 3.853 16.841-9.3 5.896-14.48 2.482-11.243" fill="#92d0d8"/><path d="M38.096 21.633c-7.429-3.577-.032-8.103-5.92-10.583-.031-.012 3.086-1.55 5.925 3.504.147-.044.128-1.014-.372-2.038-.326-.674-.98-1.255-1.513-2.023.618-.416 3.186 1.729 4.982 3.82.575-.114.447-2.25 1.349-3.66.9-1.411 2.448-1.872 2.903-1.75-1.31 1.693.202 5.109.736 5.373 1.053-2.995 3.07-4.176 4.45-4.287-1.01.787-1.937 2.782-1.651 4.345.46-2.177 3.048-2.25 4.393-2-.894.773-2.545 3.01-1.427 3.762 1.17-1.691 5.512-2.422 7.895.297-2.498 1.15-4.029 1.812-3.8 2.26.43.836 3.781.246 5.253 2.125-.938-.28-1.938.019-1.82.86.088.64 2.74-.2 2.94 1.021-.856-.146-1.312.091-1.552.857 4.609.469 9.369 8.44 8.407 13.994-.498-.88-2.77-1.216-2.377-1.04.519.232 2.774 1.773 3.137 2.972-.903-.753-1.81-1.213-1.721-.893 1.718.841 2.46 3.993 2.097 4.502-.453-1.524-1.558-2.057-1.909-1.817 1.237.552 1.524 2.237 1.22 2.94-.522 1.214-1.202 2.27-2.296 3.125-.225-2.895-.908-2.71-1.435-2.564 2.328 4.064-2.515 7.301-3.498 7.268 1.145-2.053.416-4.091-.109-4.3-1.112 6.76-8.732 6.469-9.053 5.752.436-.257 5.697-7.743 5.468-10.034-.484-4.833.328-7.446.201-8.583-2.314-5.463-4.478-14.678-9.438-16.805-5.884-2.522-9.213.934-11.465 3.6" fill="#ffe76c"/><path d="M53.545 45.418c2.264.235 7.38-.014 12.807 1.185 1.855.41 2.913-4.054 2.012-4.95-22.798-9.454-21.011 2.555-14.82 3.765" fill="#92d0d8"/><path d="M23.016 63.058c-5.956-1.607-16.69-14.81-6.19-23.084 16.292-12.834 19.272 7.97 25.484 3.733-8.425-.822-9.39-9.02-8.002-14.058 2.234-8.1 8.873-17.17 17.584-9.912 3.466 2.888 4.679 8.329 6.785 13.038 4.171 22.219-15.935 35.608-35.66 30.283" fill="#52bbc9"/><path d="M38.875 23.244c-3.409-8.674-13.389-5.669-9.912-4.951.852.177 2.867 1.36 4.257 3.302 2.092 2.925.558 7.115 5.655 1.649m14.982-9.162c-.024-1.087 1.048-4.955 2.332-1.687 2.02 5.14 1.574 7.259-1.776 11.533-.625.797-3.989 1.996-4.475-.557-1.27-6.68 4.02-4.485 3.919-9.29" fill="#52bbc9"/><path d="M35.84 23.243c-2.636 4.767-4.235 12.575-1.103 17.122 1.464 2.127 2.987 3.962 7.238 3.175 8.68-1.607 12.649-14.699 10.229-22.365-1.366-4.327-4.44-4.653-6.452-4.426-6.621.747-7.906 2.867-9.913 6.494" fill="#92d0d8"/><path d="M46.823 35.053c.027-.6-.002-1.234-.667-1.436-.776-.236-.877 1.388-.495 2.121.334.644 1.109.49 1.162-.685M35.35 33.539c.028-.6-.002-1.234-.668-1.437-.775-.234-.875 1.389-.494 2.123.335.644 1.11.489 1.163-.686" fill="#543417"/><path d="M40.471 19.304c1.093 2.515.568 3.965 4.336 3.43.842-.119 2.933-2.095 2.169-4.029-10.306-26.057-12.06-21.201-6.505.6" fill="#96d3e5"/><path d="M42.208 22.637c.521.259 1.313.314 2.628.126.842-.119 2.933-2.093 2.168-4.028-3.042-7.691-5.338-12.689-6.922-15.353.115 1.222 4.947 10.439 5.442 15.126.45 4.255-3.435 4.07-3.316 4.129" fill="#8dd0e1"/><path d="M38.547 41.802c1.652.541 3.607.719 4.11 1.444.206.296-.049.808-.232 1.209-.801 1.75-3.729 3.36-5.08 1.036-.073-.128-1.546.555-3.12-.863-.808-1.585-.031-3.842.647-4.092.737-.034 2.503.88 3.675 1.266" fill="#92d0d8"/><path d="M39.39 44.834c-.276.317.705.657.325-.125-.024.018-.206-.012-.324.125m-4.206-1.309c-.277.316.704.657.325-.126-.026.02-.207-.013-.325.126" fill="#543417"/><path d="M45.126 36.32c2.108-.252 2.839 1.515 1.466 1.711-1.091.155-2.572-.314-2.026-1.413.123-.244.402-.28.56-.298m-10.954-1.148c2.012-.671 3.087.914 1.783 1.38-1.038.373-2.582.211-2.27-.975.069-.264.335-.354.487-.405" fill="#f9d2cf"/><path d="M17.927 61.592c-1.397.933-4.034 3.624-7.811 5.386-1.29.6.921 3.638 2.013 3.866 7.079 1.475 22.082-7.606 20.995-24.035-.603-9.103-10.23-9.118-15.428-3.986-4.038 3.985-4.957 11.22.231 18.769m31.223-9.708c2.273.102 7.365-.444 12.856.438 1.874.302 2.668-4.216 1.717-5.058-26.123-7.909-25.687 4.126-14.573 4.62" fill="#92d0d8"/><path d="M40.656 24.884c-.136-.176-.357-.335-.635-.467-.06.843-1.074 1.31-1.068.825.003-.26.628-.775.887-.883.01-.004.023-.006.035-.01a4.869 4.869 0 00-.98-.283c.12.845-.767 1.535-.874 1.05-.058-.257.442-.914.677-1.084a6.4 6.4 0 00-1.16-.07c.267.748-.4 1.545-.594 1.126-.101-.218.203-.891.386-1.114-.02.002-.04.002-.059.005a4.75 4.75 0 00-.84.153c.366.624-.139 1.436-.362 1.087-.117-.183.086-.832.22-1.029a.16.16 0 01.019-.022 6.23 6.23 0 00-.765.287c.323.469-.01 1.14-.213.881-.104-.132-.005-.641.084-.821a7.53 7.53 0 00-.801.437.159.159 0 01-.02.099c-.103.159-.52.51-.693.482-.328-.055.117-.681.695-.606.105-.085.215-.164.327-.238-.236.018-.639-.021-.727-.137-.2-.262.54-.415.914.02a4.98 4.98 0 01.714-.35c-.234-.009-.64-.102-.714-.233-.166-.287.604-.34.91.154.002.001.002.002.003.005.2-.07.406-.128.609-.173-.23-.062-.572-.216-.619-.348-.109-.31.64-.228.86.297.33-.06.657-.09.97-.097-.318-.176-.794-.56-.809-.784-.035-.506 1.044-.08 1.16.789.387.019.743.075 1.047.161l.022.007c-.298-.241-.73-.74-.703-.979.06-.538 1.125.129 1.054 1.073-.001.006-.002.01-.007.015.329.112.65.255.938.446.557.37.227.476.112.329m5.599.088c.128-.181.341-.349.613-.495.098.839 1.132 1.262 1.103.776-.014-.258-.66-.744-.925-.84-.01-.005-.021-.006-.034-.009.28-.133.61-.244.966-.327-.083.849.836 1.498.92 1.01.045-.26-.484-.894-.725-1.053a6.293 6.293 0 011.157-.12c-.235.757.467 1.525.643 1.098.092-.224-.243-.883-.436-1.097l.06.001a4.7 4.7 0 01.844.116c-.335.64.204 1.429.412 1.07.108-.189-.123-.828-.265-1.019a.233.233 0 00-.02-.022c.277.07.538.16.777.253-.303.484.06 1.139.25.871.1-.136-.023-.64-.12-.817.35.146.636.296.82.403a.161.161 0 00.024.097c.11.154.543.486.714.45.325-.07-.147-.676-.72-.576a4.566 4.566 0 00-.337-.22c.235.006.634-.05.719-.17.189-.27-.56-.39-.912.06a4.973 4.973 0 00-.729-.316c.233-.02.634-.132.703-.265.152-.295-.618-.314-.902.193l-.003.007a5.636 5.636 0 00-.616-.148c.226-.07.561-.24.602-.374.095-.315-.65-.2-.847.335a5.886 5.886 0 00-.972-.052c.311-.193.767-.597.772-.82.014-.507-1.045-.035-1.123.841a4.589 4.589 0 00-1.038.208l-.02.006c.284-.255.694-.772.657-1.008-.085-.536-1.119.178-1.006 1.119l.008.013a4.088 4.088 0 00-.916.488c-.54.396-.206.486-.098.334" fill="#789f3d"/><path d="M38.907 23.503c-.986-.361-.945-3.15 1.067-1.998.572.547.429.89.498.754.353-.685.842-1.34 1.592-1.329a1.408 1.408 0 01.864 2.359c-.279.36.627-.17 1.265.715 1.201 1.67-1.158 1.343-1.06 1.575.287.678.398 1.233.058 1.55-.284.265-1.646.029-1.863-.32-.384.956-3.052 1.525-2.435-1.185-.92.062-1.617-.733-1.291-1.313.31-.556 1.227-.788 1.305-.808" fill="#a59bcc"/><path d="M39.788 23.772c-.403.153.18.83.39.454.153-.275-.242-.51-.39-.454m1.062-.164c-.581.634.645 1.027.503.201-.025-.137-.446-.263-.502-.201m-.437.922c-.271-.27.266-.47.218-.1-.007.062-.192.126-.218.1m.681.13c-.225.366.652.545.586.12-.048-.312-.504-.256-.586-.12m.739-.78c-.07.856 1.14.42.52-.146-.104-.096-.515.064-.52.147m.22.995c-.38-.047-.079-.532.112-.212.031.053-.075.217-.112.212m-.251.618c-.271-.27.266-.469.22-.098-.008.06-.193.125-.22.098m-.524-2.45c-.071.856 1.14.419.52-.147-.105-.096-.515.064-.52.147m-.419 2.289c-.271-.27.265-.469.218-.1-.007.063-.193.127-.218.1m-.662-.23c-.27-.27.266-.468.219-.1-.007.063-.193.127-.22.1m.133-1.279c-.27-.271.267-.47.22-.1-.008.061-.194.126-.22.1m.094-.638c-.271-.27.265-.469.219-.1-.009.063-.194.126-.22.1" fill="#fbbf26"/><path d="M37.706 25.636c-.029.977 1.013 1.94 1.227 1.651.176-.24-.274-.88-.641-1.61-.223-.443-.118-.146.172.072.594.446 1.885.677.968-.013-.297-.224-.813-.398-.992-.523 3.06.39.663-.354.21-.452.283-.206.88-1.225.737-1.483-.171-.308-.791.109-1.27 1.203.15-2.156-.436-2.619-.587-.375-1.023-1.75-1.259-.647-.923-.23.075.091.542.57.547.574-.768-.083-1.494.074-1.48.172.029.186 1.478.432 1.458.445-.697.483-.706 1.476-.572 1.471.5-.017 1.133-.456 1.146-.902" fill="#52bbc9"/><path d="M38.216 24.63c.012.002.513.558-.144.59-.387.02-.74-.814.144-.59" fill="#fbbf26"/><path d="M43.92 25.016c-.759.317-.628 2.5.908 1.527.427-.448.303-.712.363-.609.3.525.707 1.021 1.294.986a1.104 1.104 0 00.594-1.878c-.231-.272.497.111.966-.604.88-1.35-.954-1.013-.886-1.197.2-.542.28-.995-.01-1.217-.756-.58-1.28.451-1.439.731-.2-1.015-2.455-1.503-1.874.599-.723-.017-1.242.63-.967 1.074.264.424.991.574 1.051.588" fill="#e95707"/><path d="M45.745 23.567c.026.003 1.015.63.076 1.464-.919.813-1.804-1.711-.076-1.464" fill="#fbbf26"/><path d="M47.525 24.504c-.468-.597-.26-1.677.006-1.593.221.07.235.676.34 1.3.064.379-.006.145.075-.124.167-.55.868-1.284.612-.434-.083.276-.326.62-.38.78 1.732-1.643.578-.081.34.188.272 0 1.114.361 1.143.588.035.272-.545.295-1.346-.17 1.084 1.278.932 1.835-.196.501.166 1.563-.489.98-.47.568.004-.092.077-.605.076-.61-.44.403-.966.637-1.003.569-.068-.129.724-.945.705-.945-.657.018-1.12-.598-1.033-.658.32-.218.918-.232 1.13.04" fill="#52bbc9"/><path d="M48.307 24.9c.006-.008.062-.584-.363-.304-.25.166-.087.848.363.304" fill="#fbbf26"/></svg>