<svg width="72" height="72" xmlns="http://www.w3.org/2000/svg"><path d="M16.963 42.064c-3.07 4.5-6.505 13.658-3.17 18.777 3.834 5.885 15.927 6.776 22.265 6.29 4.22-.323 11.674-2.97 13.026-6.883 2.174-6.293 2.504-17.153.698-23.987-2.48-9.378-26.252-3.817-32.82 5.803" fill="#aea9a4"/><path d="M21.709 65.725c-1.857-5.166-1.291-6.298-.257-7.042 3.16-2.27 6.022 2.201 7.3 4.76.358-4.78 8.005-10.972 12.631-11.464 10.219-1.087 12.618 7.95 6.695 11.739-5.016 3.206-22.262 13.44-26.369 2.007m-8.994.255c2.39 1.588 5.586-.305 4.997-3.389-.68-3.565-.919-9.418-5.912-8.401-5.378 1.092-1.837 9.963.915 11.79" fill="#9b918d"/><path d="M50.101 35.194c.817.93 3.851 10.365 6 13.812 1.513-.8 6.004-2.296 6.75.859 1.388 5.875-7.235 10.197-11.779 4.557-1.66-2.06-8.323-17.644-4.032-19.156.357-.126 3.499-2.24 3.061-.072" fill="#bdbdbe"/><path d="M24.917 10.125c.016-.006-.998-3.25-2.096-3.78-1.49-.718-3.493 3.1-.519 5.012 1.017.655 2.624 2.176 2.624-.713 0-.264-.207-.47-.009-.52m24.688 2.466c-.017-.003.997-3.249 2.096-3.779 1.49-.718 3.492 3.1.518 5.014-1.017.654-2.624 2.173-2.624-.714 0-.266.207-.47.01-.52" fill="#9b918d"/><path d="M53.639 29.945c-1.324 11.006-29.416 10.603-32.019 4.793-5.502-12.287-3.908-20.523 3.297-24.613 12.112-6.878 31.686-4.82 28.722 19.82" fill="#9f9794"/><path d="M15.529 26.61c.046-2.355 3.065-3.025 3.576-.334.01-.001.897-.849 2.223-1.195 4.954-1.293 8.99-1.629 13.28 1.51 1.635-3.458 5.011-1.808 5.275.483 1.738 15.085-24.758 19.728-24.354-.463" fill="#d4d4d4"/><path d="M37.004 26.016c-1.097-.045-1.712 2.571.297 2.502 1.505-.053 2.753-2.379-.297-2.502m-20.081-.581c-.874-.046-1.364 2.016.236 1.948 1.765-.077 1.67-1.852-.236-1.948" fill="#9b918d"/><path d="M44.638 26.655c-.991.586-1.75-1.062-1.022-1.51 1.31-.81 1.824 1.036 1.022 1.51m-23.374-2.461c-.992.584-1.748-1.062-1.022-1.51 1.312-.812 1.826 1.036 1.022 1.51" fill="#31302f"/><path d="M43.69 29.642c-1.211 1.865 2.165 3.076 3.091 1.708 1.675-2.47-2.114-3.218-3.092-1.708" fill="#f4afb3"/><path d="M20.08 54.299c-.696.41-1.227-.746-.717-1.062.921-.568 1.281.73.718 1.062" fill="#31302f"/><path d="M12.681 65.095c1.696 1.127 3.963-.216 3.545-2.405-.482-2.528-.652-6.68-4.194-5.96-3.815.776-1.304 7.069.65 8.365m11.125 3.725c1.695 1.125 2.78.09 2.988-1.523.329-2.55-1.142-7.037-4.697-6.384-2.42.444-.243 6.61 1.709 7.906" fill="#948982"/><path d="M55.542 9.706c-.628.7-3.588-.27-4.28-.593-.446-.208-2.207-.175-2.131-.774.006-.057.007-.455.253-.363.973.37 5.596.326 6.158 1.73z" fill="#694926"/><path d="M48.891 8.448c.536-.177.451-1.622-.585-1.382-.848.197-1.018 1.912.585 1.382z" fill="#694926"/><path d="M49.683 1.335c2.389-1.117 6.715.688 5.993 3.479-.165.64-1.681 3.045-2.33 3.306-.754.305-.996.494-1.927.494-2.423 0-3.631-6.391-1.736-7.279" fill="#f0882e"/><path d="M52.795 8.526c.44-1.261 2.95-3.882 4.293-3.67 2.895.457-.624 3.879-3.092 3.937-.818.02-1.236-.17-1.201-.267" fill="#fbbf04"/></svg>