<svg width="72" height="72" xmlns="http://www.w3.org/2000/svg"><path d="M22.48 15.296c-.411-5.943-3.313-9.498-9.425-7.367-5.814 2.025-3.279 14.13 6.459 11.595.405-.105 3.025-3.378 2.966-4.228m21.384-2.316c2.254-5.515 6.12-8 11.251-4.11 4.882 3.7-1.318 14.41-9.763 9.027-.35-.224-1.81-4.13-1.488-4.917" fill="#f0882e"/><path d="M46.015 13.057c1.5-3.673 4.076-5.328 7.495-2.738 3.25 2.465-.88 9.599-6.504 6.013-.234-.148-1.206-2.75-.991-3.275M20.16 14.489c-.274-3.96-2.206-6.328-6.278-4.91-3.872 1.35-2.184 9.414 4.303 7.725.27-.07 2.014-2.25 1.974-2.815" fill="#fbcf9e"/><path d="M13.024 58.86c-1.984.35-6.41 8.156 4.704 8.401 1.015.022 12.036-.544 12.94 2.79.077.283-.52.673-.988.709-10.176.789-18.494-.21-21.479-5.364-1.21-2.093-1.005-5.468 1.828-7.473 1.82-1.29 2.693-1.843 2.866.763l.13.174" fill="#f0882e"/><path d="M45.255 33.75c-1.365.528 1.827 5.331 4.836 18.055 1.407 5.949 5.508 8.814 8.878 8.554 2.085-.16 4.719-.778 5.364-2.456 1.092-2.84-3.479-5.98-5.142-3.998-5.17-4.188-8.539-22.253-13.936-20.155" fill="#ee7a00"/><path d="M48.1 38.987c3.751 3.87 10.563 18.724 4.965 20.709-2.671.947-3.593 3.532-8.37 4.2-7.198 1.003-8.496.478-15.409.15-8.01-.384-8.483-.385-13.823-4.7-2.745-2.215-.986-8.57.758-12.525 4.999-11.33 24.408-20.824 31.88-7.834" fill="#f0882e"/><path d="M41.21 43.848C22.079 34.62 7.734 64.678 27.113 66.487c8.703.814 22.234 1.836 22.772-11.075.231-5.513-4.1-9.357-8.675-11.564" fill="#fbcf9e"/><path d="M11.508 49.865c8.248-4.417 15.739 9.072 9.476 14.862-7.203 6.66-16.18-11.272-9.476-14.862" fill="#e07200"/><path d="M14.356 54.747c5.397-2.794 9.713 5.523 5.756 9.029-4.46 3.952-9.858-6.905-5.756-9.029" fill="#f4afb3"/><path d="M10.518 53.917c1.499-.72 2.71 1.357 1.74 2.199-1.604 1.392-3.334-1.434-1.74-2.199m2.372-2.533c1.498-.72 2.711 1.357 1.74 2.2-1.605 1.391-3.334-1.433-1.74-2.2m4.752-.998c-1.614.41-1.175 2.768.116 2.789 2.136.033 1.6-3.224-.116-2.79" fill="#f4afb3"/><path d="M32.191 51.282c.896-.598 1.867.627 1.32 1.255-.902 1.04-2.274-.62-1.32-1.255" fill="#31302f"/><path d="M55.26 54.952c-7.745-6.367-18.549 4.865-13.055 11.927 6.009 7.73 18.915-7.108 13.054-11.927" fill="#e07200"/><path d="M51.224 58.938c-4.744-4.833-11.023 2.158-7.928 7.246 3.086 5.074 11.155-3.96 7.928-7.246" fill="#f4afb3"/><path d="M55.15 59.12c-1.258-1.08-2.973.615-2.258 1.677 1.184 1.756 3.596-.531 2.258-1.678m-1.624-3.053c-1.258-1.08-2.976.617-2.258 1.678 1.184 1.756 3.595-.53 2.258-1.678m-4.111-1.989c1.45.81.408 2.975-.845 2.664-2.071-.514-.698-3.524.845-2.664" fill="#f4afb3"/><path d="M33.477 42.03c-8.293.235-14.921-1.203-17.929-6.918-5.293-10.06 3.62-27.103 15.95-27.832 20.15-1.19 34.473 33.83 1.979 34.75" fill="#f4a261"/><path d="M34.866 37.06a1.87 1.87 0 01-.001.295 19.323 19.323 0 002.065-.3c-.061.83-1.526.962-2.675.85-.706-.069-2.09-.591-2.067-1.263 0-.012 1.104.443 1.906.646.081-.546.355-2.218.335-2.49-.011-.188-.157-2.039-.01-2.027.845.066.396 3.264.447 4.29" fill="#31302f"/><path d="M34.227 27.34c-3.348.132-6.729 3.27.043 7.225 2.08 1.216 9.53-7.608-.043-7.225" fill="#8e6334"/><path d="M46.289 29.058c-1.169.702-2.178-1.056-1.324-1.592 1.543-.967 2.269 1.024 1.324 1.592m-23.559.199c-.974.649-1.8-.951-1.09-1.447 1.29-.894 1.877.921 1.09 1.447" fill="#31302f"/><path d="M42.606 34.017c3.156 1.706 5.918-1.46 3.614-2.75-4.165-2.334-6.165 1.371-3.614 2.75m-18.034.673c-3.534.655-5.167-3.201-2.57-3.723 4.692-.942 5.43 3.193 2.57 3.723" fill="#f4afb3"/><path d="M23.357 11.47c-.126.029 5.748 7.961 6.038 8.098-.022-1.567.339-3.144-1.539-8.03-1.63-4.24-4.074-.163-4.499-.067m18.957-.467c.127.03-5.747 7.96-6.038 8.099.02-1.567-.338-3.145 1.538-8.032 1.629-4.24 4.074-.162 4.5-.066M33.162 18.9c-.728-1.39-1.8-2.614-2.477-7.796C30.28 8 32.85 7.026 34.263 8.609c1.54 1.73.031 6.157-1.101 10.292m14.681 21.411c-.903.508-2.66 5.001-2.656 5.186.812-.42 1.73-.646 3.794-2.877 1.79-1.934-.918-2.432-1.138-2.31m5.587 11.068c-.69.204-3.835-.988-3.983-1.1.824-.396 1.21-.923 2.776-1.175 2.62-.422 1.449 2.202 1.208 2.275m-6.182-3.835c.43-.59.72-1.283 2.752-2.644 1.217-.815 2.164.033 1.795.942-.402.99-2.576 1.3-4.547 1.702M20.97 41.74c.765.431 2.253 4.234 2.25 4.39-.688-.355-1.464-.547-3.211-2.435-1.516-1.636.776-2.058.962-1.955m.424 6.511c-.4-.546-.667-1.19-2.554-2.454-1.127-.754-2.006.03-1.665.875.375.92 2.39 1.206 4.22 1.58" fill="#525051"/><path d="M30.502 8.363c-.252-.336-.664-.641-1.184-.904-.152 1.579-2.091 2.416-2.058 1.503.017-.485 1.22-1.424 1.718-1.617a.428.428 0 01.063-.016 9.169 9.169 0 00-1.841-.574c.191 1.593-1.521 2.847-1.702 1.936-.098-.487.878-1.699 1.33-2.008a12.193 12.193 0 00-2.198-.178c.475 1.413-.82 2.882-1.17 2.088-.186-.415.42-1.666.776-2.076-.036.002-.075.003-.112.006a8.872 8.872 0 00-1.595.25c.664 1.188-.326 2.692-.734 2.027-.213-.35.197-1.56.457-1.922a.212.212 0 01.04-.042c-.523.144-1.017.321-1.462.507.594.893-.066 2.139-.44 1.647-.193-.254.018-1.205.194-1.541-.655.287-1.19.583-1.537.788a.297.297 0 01-.04.184c-.204.295-1.01.937-1.335.875-.62-.116.252-1.274 1.341-1.108.206-.155.415-.298.63-.432-.448.025-1.205-.064-1.37-.287-.369-.499 1.041-.757 1.73.075a9.479 9.479 0 011.368-.625c-.441-.03-1.208-.22-1.344-.467-.3-.547 1.157-.614 1.718.324.004.004.004.008.006.013a10.61 10.61 0 011.161-.303c-.432-.124-1.073-.426-1.156-.676-.195-.587 1.22-.403 1.619.593.625-.1 1.247-.142 1.838-.14-.596-.348-1.478-1.086-1.498-1.507-.047-.95 1.98-.108 2.165 1.53.73.05 1.403.171 1.975.347l.04.012c-.553-.467-1.35-1.422-1.289-1.869.138-1.007 2.126.292 1.951 2.06a.065.065 0 01-.012.028c.617.225 1.22.505 1.756.876 1.041.72.41.904.2.622m10.603.402c.252-.335.664-.641 1.184-.903.152 1.58 2.09 2.415 2.06 1.502-.02-.484-1.223-1.424-1.72-1.617a.304.304 0 00-.064-.015 9.277 9.277 0 011.843-.575c-.192 1.592 1.519 2.847 1.7 1.936.099-.486-.877-1.698-1.329-2.007.71-.124 1.46-.188 2.198-.179-.476 1.413.82 2.882 1.172 2.089.183-.416-.422-1.667-.779-2.076a8.667 8.667 0 011.707.258c-.662 1.186.327 2.69.734 2.025.214-.349-.196-1.56-.456-1.922a.298.298 0 00-.04-.042c.523.144 1.016.322 1.461.507-.593.893.065 2.14.44 1.647.194-.254-.018-1.204-.194-1.542.656.288 1.19.584 1.538.79a.31.31 0 00.04.183c.203.295 1.009.938 1.336.876.619-.117-.252-1.275-1.342-1.11a8.592 8.592 0 00-.63-.43c.447.024 1.206-.066 1.37-.288.369-.5-1.041-.756-1.729.075a9.367 9.367 0 00-1.369-.625c.442-.03 1.207-.22 1.343-.467.3-.548-1.158-.614-1.719.325a.025.025 0 00-.003.012 10.594 10.594 0 00-1.163-.302c.434-.125 1.075-.427 1.158-.678.194-.586-1.222-.402-1.619.594-.627-.1-1.247-.143-1.84-.14.597-.348 1.48-1.086 1.499-1.508.046-.95-1.98-.108-2.166 1.531-.73.05-1.403.172-1.975.347l-.04.012c.553-.467 1.35-1.42 1.29-1.868-.138-1.007-2.127.291-1.95 2.06.001.01.003.019.01.027-.617.226-1.217.505-1.756.877-1.04.719-.41.904-.2.621" fill="#759d35"/><path d="M27.243 5.697c-1.85-.72-1.655-5.952 2.11-3.705 1.06 1.05.771 1.688.91 1.437.698-1.273 1.653-2.479 3.074-2.427 1.317.049 3.457 2.13 1.538 4.463-.546.662 1.195-.294 2.365 1.395 2.203 3.184-2.251 2.473-2.076 2.913.514 1.285.702 2.331.042 2.912-.547.482-3.117-.016-3.514-.678-.767 1.776-5.85 2.734-4.563-2.329-1.745.08-3.033-1.443-2.393-2.519.613-1.03 2.362-1.428 2.507-1.462" fill="#fbbf04"/><path d="M28.903 6.24c-.77.27.307 1.566.72.868.302-.51-.434-.968-.72-.868m2.02-.263c-1.128 1.165 1.177 1.956.942.4-.038-.26-.832-.514-.942-.4m-.867 1.713c-.502-.52.522-.87.42-.178-.02.115-.372.227-.42.177m1.284.271c-.443.68 1.215 1.052 1.107.25-.077-.584-.943-.5-1.107-.25m1.434-1.43c-.17 1.605 2.141.834.99-.255-.19-.182-.974.098-.99.255m.376 1.878c-.718-.107-.126-1.004.22-.394.058.102-.15.404-.22.394m-.502 1.151c-.503-.518.522-.87.418-.178-.017.115-.37.228-.418.178m-.891-4.623c-.17 1.605 2.143.834.992-.254-.192-.182-.977.098-.992.254m-.89 4.278c-.503-.517.522-.87.418-.178-.016.117-.37.229-.418.178m-1.244-.458c-.502-.52.523-.87.42-.178-.019.116-.37.227-.42.178m.307-2.397c-.503-.518.521-.87.418-.179-.018.116-.37.23-.418.179m.202-1.192c-.503-.518.523-.87.419-.178-.017.115-.37.23-.419.178" fill="#ee7a00"/><path d="M24.878 9.652c-.096 1.832 1.838 3.684 2.253 3.15.346-.444-.48-1.663-1.145-3.048-.403-.84-.217-.279.324.142 1.108.863 3.542 1.348 1.834.016-.554-.432-1.523-.78-1.857-1.024 5.78.861 1.27-.637.416-.84.546-.375 1.722-2.261 1.46-2.753-.311-.585-1.503.172-2.456 2.204.374-4.038-.715-4.933-1.096-.726-1.866-3.33-2.36-1.268-1.74-.474.137.176 1.005 1.093 1.01 1.104-1.451-.188-2.83.075-2.807.26.043.351 2.779.874 2.74.898-1.34.875-1.401 2.74-1.144 2.736.947-.012 2.165-.81 2.208-1.645" fill="#4cbac9"/><path d="M25.888 7.783c.023.005.947 1.072-.298 1.105-.736.019-1.367-1.56.298-1.105" fill="#fbbf04"/><path d="M36.68 8.749c-1.453.564-1.298 4.666 1.653 2.905.832-.825.606-1.325.714-1.127.548.997 1.296 1.944 2.412 1.903 1.032-.037 2.71-1.67 1.204-3.5-.427-.52.939.23 1.857-1.094 1.727-2.498-1.766-1.94-1.628-2.285.404-1.008.572-1.854.033-2.285-1.408-1.12-2.445.794-2.756 1.313-.34-1.914-4.588-2.926-3.58 1.047-1.368-.064-2.378 1.13-1.876 1.975.48.808 1.854 1.12 1.966 1.148" fill="#ea5c05"/><path d="M40.2 6.103c.046.007 1.893 1.229.08 2.75-1.775 1.492-3.346-3.285-.08-2.75" fill="#fbbf04"/><path d="M43.531 7.939c-.86-1.14-.42-3.157.08-2.99.416.14.416 1.278.59 2.454.105.713-.018.272.147-.229.337-1.028 1.696-2.375 1.176-.79-.17.514-.642 1.15-.752 1.45 3.352-3.012 1.097-.13.634.365.517.01 2.097.726 2.141 1.154.055.51-1.044.528-2.544-.377 2 2.445 1.69 3.486-.39.934.247 2.94-.97 1.82-.916 1.044.011-.171.171-1.131.17-1.14-.853.739-1.858 1.155-1.924 1.026-.125-.247 1.412-1.745 1.378-1.745-1.247.004-2.098-1.17-1.93-1.279.615-.395 1.748-.397 2.14.123" fill="#4cbac9"/><path d="M44.996 8.715c.013-.013.144-1.094-.672-.586-.484.3-.203 1.587.672.586" fill="#fbbf04"/></svg>