<svg width="72" height="72" xmlns="http://www.w3.org/2000/svg"><path d="M45.982 44.365c-1.084-1.06-5.77 3.382-6.676 2.133-.728-1-.741-1.598-1.815-1.509-.357.789.848 1.626.825 2.108-.02.41-.99-1.22-1.86-.681-.24.147.315 2.158 2.27 2.47.53.086-2.317-.036-1.72.348 3.496 2.25 2.505-.652 5.177-1.309 3.279-.805 4.502-2.872 3.8-3.56m-4.891-13.02c-.005.004-2.473 1.222-3.382 1.974-1.17.968-5.77 3.382-6.677 2.134-.727-1-.74-1.598-1.813-1.508-.357.787.847 1.624.824 2.105-.02.41-1.201.473-2.072 1.012-.239.148.762 1.579 2.48.78.488-.227-.207 1.54.389 1.922.418.269 1.331-1.583 3.07-2.883 1.08-.808 5.421-1.932 7.299-3.475 1.946-1.602-.53-1.71-.118-2.061" fill="#96ba34"/><path d="M26.507 39.293c-6.709-1.877-7.1 3.42-1.502 6.2 1.03.51 8.91 3.608 9.12 1.084.287-3.49-.587-8.582-3.207-11.172-1.066-1.054-2.02-1.266-3.36-.17-.917.75-1.5 2.584-1.05 4.058" fill="#f4afb3"/><path d="M50.864 13.487C70.85 22.309 73.278 38.78 66.798 51.59 47.711 89.312 9.467 63.18 13.583 47.338c2.234 5.174 6.35 17.396 20.336 11.71 22.857-9.295-6.638-23.495-4.028-35.263 1.063-4.795 4.686-17.488 20.973-10.298" fill="#6f813a"/><path d="M40.766 36.629c-.007.006-2.477 1.224-3.385 1.976-1.168.967-5.77 3.38-6.678 2.133-.726-1-.737-1.6-1.812-1.51-.357.789.848 1.627.826 2.108-.02.41-1.202.472-2.074 1.012-.24.147.762 1.577 2.48.779.488-.227-.206 1.54.39 1.922.418.268 1.33-1.583 3.069-2.883 1.078-.808 5.422-1.933 7.299-3.475 1.948-1.602-.528-1.71-.115-2.062zm6.65 16.24c-1.536-.115-5.461 3.426-6.283 2.295-.727-1-.74-1.6-1.815-1.508-.357.786.848 1.625.825 2.106-.018.41-.989-1.22-1.86-.68-.24.147.316 2.158 2.27 2.47.53.086-2.318-.035-1.721.348 3.496 2.25 2.506-.65 5.178-1.306 3.279-.805 4.503-2.875 3.8-3.56v-.003a.61.61 0 00-.394-.162z" fill="#96ba34"/><path d="M39.672 19.972c24.712 11.062 27.17 37.457-1.388 49.69 1.75.9 9.545-.756 16.097-5.564 6.763-4.963 12.28-13.234 13.651-21.961 3.69-23.486-29.76-34.52-30.951-26.992-.219 1.385.773 3.607 2.59 4.827" fill="#6d952c"/><path d="M4.303 9.056C-5.23 24.181 16.647 55.354 36.628 27.913 49.881 9.717 16.714-10.632 4.303 9.056" fill="#759d35"/><path d="M33.653 21.976c-.422 1.4-2.522.711-2.23-.33.528-1.885 2.572-.804 2.23.33M14.315 34.18c-.423 1.402-2.523.714-2.232-.33.53-1.883 2.574-.803 2.232.33" fill="#31302f"/><path d="M23.206 38.392C22.77 37.021.763 14.912 5.596 7.24c2.024-3.216 7.87-6.145 13.683-6.232 1.89 12.544 1.231 24.334 9.896 34.55-1.02.613-2.026 1.307-3.025 1.773-1.567.732-2.935 1.084-2.944 1.061" fill="#96ba34"/><path d="M24.228 35.432c-.21.701-1.261.356-1.115-.164.264-.942 1.286-.402 1.115.164m1.905-1.134c-.212.7-1.261.355-1.115-.167.263-.941 1.286-.4 1.115.167" fill="#6f813a"/><path d="M31.55 28.809c-.339-.968-.1-.998.205-.506.23.37.575 1.025.312 1.886-.314 1.03-1.986 2.015-2.427 1.723-.434-.288 2.795-.572 1.91-3.103" fill="#31302f"/><path d="M36.226 23.733c-.974 1.97-3.535 1.668-2.842.21 1.254-2.634 3.628-1.804 2.842-.21M15.187 37.222c1.964-.612 2.041-2.982.59-2.553-2.621.775-2.179 3.047-.59 2.553" fill="#f4afb3"/></svg>