<svg width="72" height="72" xmlns="http://www.w3.org/2000/svg"><path d="M26.587 1c-3.532.129-2.63 7.408-1.17 10.497 2.929-2.393 3.674-6.907 2.32-9.77A1.213 1.213 0 0026.587 1m20.991.399c-3.418.125-2.544 7.166-1.132 10.155C49.28 9.237 50 4.871 48.69 2.1a1.174 1.174 0 00-1.112-.701" fill="#f7b068"/><path d="M23.241 64.738c2.075 7.758 12.838 4.186 3.204.222-1.214-.499-.852-.86-.974-1.447-.666-.344-1.402 1.239-2.23 1.225m26.822 1.669c-2.078 7.758-12.84 4.186-3.204.221 1.212-.498.851-.858.973-1.446.666-.345 1.402 1.238 2.23 1.225" fill="#bb803e"/><path d="M36.538 68.421c39.778 4.63 16.815-57.207-12.826-33.884-7.378 5.804-17.744 32.64 12.826 33.884" fill="#f7b068"/><path d="M36.317 37.233c6.15.24 14.082 2.997 17.71.348 4.277-1.33 5.336-7.056 2.018-13.083-2.376-4.318-3.048-9.567-4.978-12.292C36.407-8.478 20.2 9.966 17.084 25.214c-1.979 1.71-3.47 6.21-2.996 9.059.342 2.053 2.19 2.706 3.323 3.413 4.884 3.038 15.823-.572 18.906-.453" fill="#fbcf9e"/><path d="M23.745 27.392c-1.431 2.2 2.566 3.629 3.664 2.017 1.983-2.914-2.503-3.796-3.664-2.017m20.211.059c-1.434 2.2 2.563 3.626 3.662 2.016 1.984-2.915-2.504-3.797-3.662-2.016" fill="#e9868c"/><path d="M24.896 23.457c-.965-.087-1.41 1.267-.69 1.781 1.095.78 2.232-.869 1.435-1.463-.27-.201-.522-.298-.745-.318zm23.012.89c-.8-.079-1.168 1.158-.572 1.628.909.715 1.85-.793 1.19-1.336-.225-.184-.433-.273-.618-.291zm-11.54 4.01c-2.745.009-1.043 2.454-.079 2.733-.093.66.009 1.72-.021 2.156-.006.085-.003.14.002.186a11.4 11.4 0 01-1.313-.213c.03.527.96.627 1.69.57.45-.036 1.336-.353 1.33-.78 0-.008-.71.27-1.223.39-.02-.187-.198-1.39-.182-1.583.006-.063.04-.42.057-.744 2.563-1.438 1.315-2.634.059-2.705a5.372 5.372 0 00-.32-.01z" fill="#31302f"/><path d="M36.024 64.455c20.815 2.424 8.8-29.938-6.713-17.731-3.86 3.038-9.285 17.08 6.713 17.731" fill="#fbcf9e"/><path d="M37.588 34.56c-1.36.019-2.735.305-3.861.82-1.127.517-2.048 1.277-2.307 2.333-.24.98-.133 2.647.144 4.69.278 2.041.755 4.4 1.37 6.513.614 2.114 1.343 3.97 2.242 5.08.45.555.98.968 1.627.979.646.01 1.23-.412 1.713-1.112 2.918-4.224 4.513-8.539 4.605-15.343.02-1.409-.723-2.483-1.775-3.108-1.053-.625-2.399-.87-3.758-.851z"/><path d="M33.257 37.942c-.006 2.717 1.022 4.75 1.307 7.812.22 2.385.205 5.745 1.662 7.733.096-.07-.6-3.01-.63-3.452-.247-3.463.296-8.506-1.146-11.69-.424-.936-1.195-.183-1.193-.403m8.497.222c-.195 2.709-1.371 4.664-1.878 7.697-.397 2.364-.63 5.717-2.23 7.594-.089-.076.82-2.96.883-3.397.502-3.435 1.695-8.316 2.548-12.013.23-1 .694-.1.677.119m-3.419-2.343c.324 2.699-.636 5.83-.557 8.902.062 2.395-.2 6.487-.74 7.872-.103-.06.24-3.06.22-3.5-.165-3.468-.32-9.12-.188-12.91.036-1.026 1.239-.581 1.265-.364" fill="#6b6a6a"/><path d="M28.48 42.141c1.111-4.155 7.804-3.678 4.107-1.785-1.44.738 3.172-.455-1.901 1.632-.835.344-.587.593-.67.997-.46.237-.966-.853-1.536-.844m16.485 2.11c-1.113-4.154-7.805-3.677-4.107-1.783 1.439.737-3.174-.457 1.9 1.632.836.343.587.59.67.995.459.238.965-.852 1.537-.844" fill="#bb803e"/></svg>