<svg width="72" height="72" xmlns="http://www.w3.org/2000/svg"><path d="M21.89 40.305c.742.01-3.988 9.71-3.25 18.341.562 6.589 5.329 9.402 8.755 11.298 5.419 2.997 31.234-1.203 37.595-2.519.598-5.037-24.999 2.699-33.748-3.378-7.977-5.541-1.006-25.773-.555-26.106 3.71-2.74 4.278-12.165 1.334-16.369C18.52 2.288.421 27.976 11.32 37.359c1.679 1.446 6.058 2.884 10.57 2.946z" fill="#c98c14"/><path d="M12.01 31.564c1.48-2.2-1.867-2.865-2.731-1.522-1.069 1.66 1.913 2.738 2.731 1.522zm15.068.043c1.48-2.2-1.866-2.864-2.73-1.521-1.069 1.66 1.912 2.737 2.73 1.521z" fill="#f4afb3"/><path d="M10.691 27.311c-1.076-.81-1.73.627-1.07 1.104.817.59 1.665-.655 1.07-1.104zm17.064.652c-.892-.74-1.435.57-.887 1.008.677.54 1.38-.598.887-1.008z" fill="#31302f"/><path d="M18.836 31.46c.16-.264.303-.555.326-.866.005-.215-.213-.106-.202.054-.14.447-.382.88-.768 1.159-.362.252-.887.31-1.258.044-.336-.19-.461-.574-.714-.833-.2.037-.048.328.03.441.24.347.564.736 1.094.778a1.597 1.597 0 001.492-.778z"/><path d="M10.815 6.162c-.213.037-.07 4.195-3.211 1.42-1.835-1.62.682-6.318 5.25-2.15 1.167 1.063 4.211 8.214 3.338 13.561 0 .004-.966.2-.966.189-.078-2.707-1.513-13.505-4.411-13.02zm7.885-2.56c-.228.039-.074 4.526-3.464 1.532-1.98-1.748.736-6.817 5.665-2.321 1.258 1.148 4.544 8.863 3.601 14.634 0 .004-1.042.216-1.042.203-.083-2.921-1.631-14.572-4.76-14.048z" fill="#c98c14"/><path d="M57.686 42.731c-20.77-24.585-45.154 7.014-29.082 20.852 21.527 15.74 37.488-8.844 29.082-20.852z" fill="#fce387"/><path d="M55.571 62.724c4.864-3.592 5.61-15.95 1.75-21.463-17.703-25.286-41.435 8.398-27.144 20.7 3.746 3.226 17.735 6.421 25.394.763z" fill="#e6cd76"/><path d="M53.978 61.008c4.256-3.145 4.91-13.962 1.53-18.786C40.014 20.087 19.24 49.57 31.75 60.339c3.278 2.824 15.524 5.621 22.228.669z" fill="#fce387"/><path d="M57.9 57.937c4.14-3.058 4.775-13.577 1.49-18.27-15.07-21.524-35.271 7.147-23.107 17.621 3.189 2.746 15.098 5.465 21.617.649z" fill="#e6cd76"/><path d="M56.542 56.476c3.626-2.677 4.181-11.883 1.306-15.991-13.19-18.842-30.873 6.255-20.226 15.422 2.791 2.404 13.215 4.784 18.92.569z" fill="#fce387"/><path d="M60.21 52.232c3.103-2.292 3.579-10.176 1.116-13.693C50.03 22.406 34.89 43.895 44.008 51.745c2.39 2.058 11.316 4.096 16.202.487z" fill="#e6cd76"/><path d="M59.101 51.037c2.681-1.98 3.093-8.792.964-11.83-9.758-13.94-22.84 4.628-14.963 11.41 2.065 1.778 9.778 3.54 13.999.42z" fill="#fce387"/><path d="M58.633 42.34c.707-.521.814-2.313.254-3.113-2.568-3.669-6.012 1.217-3.939 3.003.544.467 2.574.931 3.685.11z" fill="#e6cd76"/><path d="M57.802 41.445c.39-.287.45-1.277.141-1.718-1.419-2.025-3.32.672-2.175 1.658.3.258 1.421.514 2.034.06z" fill="#fce387"/><path d="M39.152 24.686a.846.846 0 00-.195.025c-.73.172-.877 1.664.508 1.203.1-.033.174-.118.22-.228-.01.06-.011.115-.013.132-.064.525 1.457.494 1.842.674.599.283 3.157 1.13 3.699.52-.485-1.223-4.48-1.186-5.322-1.508-.086-.033-.137.003-.168.06.081-.365-.084-.876-.57-.878z" fill="#694926"/><path d="M45.329 22.75c-.144.557-1.453 2.651-2.014 2.88-.651.265-.861.43-1.665.43-2.095 0-3.14-5.567-1.5-6.34 2.063-.974 5.803.6 5.179 3.03z" fill="#4cbac9"/><path d="M46.548 22.786c2.503.398-.539 3.38-2.67 3.43-.708.017-1.069-.15-1.04-.233.381-1.1 2.55-3.381 3.71-3.197z" fill="#92d0d8"/></svg>