<svg width="72" height="72" xmlns="http://www.w3.org/2000/svg"><path d="M23.055 40.355c-3.256 6.144-3.333 16.255 1.666 20.864.304.28.323 9.375 3.468 9.768.713.089 2.025-.284 2.372-.696.796-.944-.322-2.26-1.145-2.162-.805.095-1.035-4.701-.738-4.605 4.988 1.615 7.137 1.454 10.54-.13.164-.077.48 4.49-.42 4.053-1.265-.089-1.892 1.011-1.868 1.579.054 1.222 2.023 1.338 2.577 1.335 4.55-.021 3.456-8.98 3.727-9.284 3.742-4.173 3.96-11.177 2.569-16.949-.163-.673 9.777-5.362 7.98-7.602-1.75-2.18-8.997 4.562-9.238 4.065-1.519-3.116-3.97-5.138-7.502-5.835-6.097-1.205-9.25-1.192-12.185 2.696-.307.404-4.254-9.49-6.743-6.069-1.06 1.458 5.563 7.85 5.43 8.08-.162.285-.326.581-.49.892" fill="#e7d29a"/><path d="M22.983 32.674c3.254 9.373 18.924 11.947 24.412 4.128 2.171-3.093 4.398-12.322 3.944-17.677-.17-2.003.408-16.146-.26-17.037-.785-1.043-4.223-3.47-4.904 5.67-.091 1.251.182 10.224-.276 11.78-3.305-2.817-12.559-3.453-16.6-1.749-1.396-2.113.482-14.7-1.176-15.422-6.168-2.692-7.671 23.022-5.14 30.307" fill="#f1dca8"/><path d="M36.984 34.615c-.483 0-.375 1.827-.45 2.403a1.1 1.1 0 00-.014.168 10.997 10.997 0 01-1.163-.262c0 .47.826.61 1.483.6.406-.009 1.215-.242 1.234-.622 0-.006-.648.201-1.113.28-.02-.304-.1-1.267-.076-1.422.017-.105.184-1.145.1-1.145z" fill="#3b3a39"/><path d="M26.285 5.13c1.522.574.998 3.57.814 6.518-.232 3.699-.428 7.436-1.033 7.517-1.922.254-1.906-14.284.22-14.035m22.935-.015c-1.556.477-1.23 3.501-1.24 6.453-.011 3.707-.062 7.448.537 7.566 1.903.375 2.84-14.135.703-14.02M28.63 32.758c-1.293 1.978 2.318 3.261 3.308 1.813 1.792-2.62-2.26-3.414-3.307-1.813m13.109.347c-1.293 1.979 2.318 3.263 3.308 1.813 1.792-2.62-2.26-3.413-3.307-1.813" fill="#f5b0b4"/><path d="M37.185 32.69c1.123.134 2.174 1.273-.212 2.415-.733.351-2.998-2.797.212-2.415" fill="#d79ea3"/><path d="M29.895 59.261c8.478 7.497 18.06-9.51 7.032-14.142-3.821-1.605-17.476 4.908-7.032 14.142" fill="#fff3d5"/><path d="M31.123 14.17a3.377 3.377 0 00.446 2.586 2.82 2.82 0 00-.131-.081c-.574-.345-1.097-.931-1.295-1.57-.147-.474-.305-.353-.27-.237a3.434 3.434 0 001.233 1.78c.13.098.252.177.359.24l-.142.008c-.67.054-1.445-.115-1.989-.517-.404-.297-.458-.11-.36-.035a3.544 3.544 0 002.066.723 2.86 2.86 0 00.684-.053l.036.012c.724.517 1.44.659 1.997.673.868.023 1.26-.25.283-.17-.67.053-1.445-.117-1.99-.518a1.056 1.056 0 00-.25-.145 2.667 2.667 0 00-.191-.375c-.334-.573-.505-1.333-.367-1.986.104-.486-.093-.453-.12-.335" fill="#6d4f33"/><path d="M30.682 13.27c-.265.136-.334.528-.115.825 1.124 1.522 1.717-1.638.115-.825m-.792 1.71c.346-.134.296-.863-.177-1.154-1.047-.648-1.24 1.709.177 1.155m-1.28 1.683c1.372.26.868-1.794-.385-1.41-.063.02-.647 1.215.385 1.41" fill="#e95707"/><path d="M34.589 18.462c-.04.027-.813-.195-1.639-.278a8.152 8.152 0 00-.6-.035c.308-.643-.709-1.7-.832-1.675-.72.138-.145 1.255.544 1.67-.458-.002-.951.019-1.421.053.143-.7-1.121-1.476-1.235-1.422-.636.3.122 1.181.869 1.453-.266.024-.519.054-.746.085-.108.016-.302.034-.535.056.077-.748-1.407-1.278-1.51-1.2-.548.417.344 1.107 1.124 1.235-.361.034-.757.073-1.08.117-.727-.367-2.163-.14-1.813.543.056.11 1.526.251 1.858-.38.154-.026.338-.053.546-.077-.73.356-1.403 1.535-.662 1.695.126.028 1.236-1.072.843-1.717.389-.044.84-.082 1.303-.116-.73.358-1.402 1.533-.662 1.695.127.027 1.227-1.064.847-1.71a64.13 64.13 0 011.662-.093c-.7.396-1.306 1.502-.59 1.658.124.027 1.183-1.019.869-1.67.193-.006.364-.011.51-.014.414-.008 2.263.35 2.323.205.02-.046.048-.093.027-.078" fill="#728442"/><path d="M34.807 18.002c.036.007.508-.405 1.068-.735.123-.075.263-.148.413-.224-.438-.355-.077-1.439.018-1.462.558-.139.532.842.186 1.364.324-.153.681-.3 1.027-.43-.342-.45.29-1.417.39-1.416.554.003.316.878-.12 1.318.197-.071.386-.134.558-.185.082-.025.226-.075.398-.137-.31-.507.562-1.37.662-1.35.532.117.135.9-.375 1.247.268-.096.562-.198.806-.272.39-.5 1.488-.812 1.474-.212-.003.097-.998.68-1.448.343a7.57 7.57 0 00-.415.124c.639.013 1.521.628 1.05.986-.081.06-1.244-.355-1.186-.942-.291.098-.625.218-.965.346.64.014 1.52.628 1.05.986-.081.062-1.235-.351-1.185-.934a46.79 46.79 0 00-1.213.48c.632.052 1.44.636.985.983-.078.06-1.188-.334-1.188-.898a33.69 33.69 0 00-.366.156c-.297.13-1.486.993-1.579.911-.03-.026-.066-.05-.045-.047" fill="#789f3d"/><path d="M33.847 16.934c-.45-1.716 1.029-3.838 1.529-3.41.417.353-.13 1.666-.494 3.102-.22.873-.151.306.281-.194.887-1.029 3.11-1.952 1.745-.365-.443.515-1.297 1.029-1.569 1.322 5.338-1.914 1.336.361.56.718.597.25 2.086 1.812 1.934 2.327-.182.614-1.467.123-2.774-1.62 1.15 3.753.287 4.808-.901.896-1.124 3.507-2 1.65-1.565.78.095-.193.743-1.226.744-1.237-1.345.453-2.712.468-2.726.289-.026-.343 2.478-1.357 2.437-1.373-1.45-.574-1.874-2.326-1.63-2.372.905-.17 2.224.353 2.429 1.137" fill="#62c2cf"/><path d="M34.798 18.564c.02-.01.692-1.195-.5-.99-.706.123-.996 1.737.5.99" fill="#fbbf26"/><path d="M37.71 18.934c.188.715-.429 1.6-.639 1.422-.171-.148.055-.694.207-1.294.092-.364.063-.127-.116.08-.37.43-1.298.815-.728.154.185-.215.541-.429.654-.552-2.225.798-.557-.15-.234-.299-.248-.104-.87-.755-.805-.97.075-.256.612-.05 1.155.675-.478-1.563-.12-2.004.377-.373.469-1.462.833-.687.652-.326-.04.082-.31.512-.311.516.561-.188 1.13-.194 1.136-.12.011.142-1.032.565-1.015.572.605.239.78.97.679.989-.378.071-.927-.148-1.012-.474" fill="#e95707"/><path d="M37.314 18.254c-.009.005-.289.499.208.414.294-.052.416-.725-.208-.414" fill="#fbbf26"/><path d="M34.878 55.804c.287.225.585-.25.376-.42-.379-.31-.61.238-.376.42" fill="#6d4f33"/><path d="M26.924 31.617c1.015.723 2.07-.802 1.33-1.35-1.339-.99-2.152.766-1.33 1.35m18.102-.323c1.015.723 2.07-.8 1.33-1.35-1.339-.99-2.152.767-1.33 1.35" fill="#3b3a39"/></svg>