<svg width="72" height="72" xmlns="http://www.w3.org/2000/svg"><path d="M28.385 8.688C23.955.953 17.737-1.982 10.903 4.77c-6.496 6.42 4.808 21.089 16.25 11.488.476-.4 1.865-6.467 1.232-7.57m18.417 8.128c4.904-5.797 10.558-7.313 15.225-.634 4.438 6.35-7.286 16.909-15.366 7.15-.336-.406-.558-5.689.141-6.516" fill="#90673e"/><path d="M49.372 17.736c3.265-3.86 7.033-4.869 10.141-.421 2.956 4.228-4.853 11.262-10.236 4.761-.223-.269-.371-3.786.095-4.34M25.333 9.373c-2.951-5.15-7.092-7.106-11.644-2.607-4.327 4.274 3.202 14.047 10.824 7.648.317-.263 1.243-4.305.82-5.041" fill="#f5b0b4"/><path d="M14.778 58.964c-5.313 2.437-3.288 6.47 2.49 8.722 3.579 1.395 7.553.515 9.868.526 4.66.02 9.815-.692 9.942 1.186.078 1.105-5.323 1.329-5.788 1.365-10.086.78-18.334-.21-21.294-5.32-1.2-2.073-.996-5.42 1.812-7.409 1.806-1.277 2.67-1.826 2.842.76l.128.17" fill="#90673e"/><path d="M43.145 32.344c-1.354.526 2.34 3.415 6.932 14.535 2.316 5.607 4.926 10.453 8.266 10.196a14.826 14.826 0 003.715-.785c1.083-2.817-3.45-5.928-5.097-3.965-5.127-4.15-8.466-22.06-13.816-19.98" fill="#ca9965"/><path d="M50.887 58.065c-2.648.94-3.563 3.503-8.299 4.164-7.134.995-8.422.475-15.274.148-7.94-.378-8.41-.379-13.705-4.656-2.72-2.197-.977-8.496.752-12.419C22.58 26.678 37.596 26.041 44.563 34.98c6.894 8.84 12.559 20.876 6.324 23.085" fill="#90673e"/><path d="M39.134 42.356C20.168 33.208 5.948 63.006 25.157 64.8c8.63.805 22.043 1.818 22.578-10.981.229-5.465-4.064-9.275-8.601-11.463" fill="#fbd0a1"/><path d="M30.193 49.724c.889-.59 1.85.624 1.31 1.246-.894 1.031-2.255-.615-1.31-1.246" fill="#3b3a39"/><path d="M52.48 53.13c-6.58-5.41-15.762 4.136-11.094 10.139 5.108 6.568 16.078-6.043 11.094-10.139" fill="#bd8342"/><path d="M49.054 56.518c-4.033-4.107-9.37 1.835-6.74 6.159 2.622 4.31 9.48-3.367 6.74-6.159" fill="#f5b0b4"/><path d="M52.391 56.673c-1.07-.919-2.529.523-1.92 1.426 1.006 1.49 3.056-.451 1.92-1.426m-1.381-2.595c-1.07-.917-2.53.523-1.92 1.425 1.006 1.493 3.056-.45 1.92-1.425m-3.495-1.69c1.234.687.347 2.527-.718 2.263-1.76-.436-.593-2.994.718-2.263" fill="#f5b0b4"/><path d="M29.153 40.4c-7.896-2.27-13.706-5.62-14.781-11.914C12.477 17.402 26.142 4.003 37.998 7.02c19.379 4.934 22.095 42.28-8.845 33.38" fill="#ca9965"/><path d="M37.215 16.373c1.14-1.37 3.59-2.794 5.414-2.006 5.489 2.376 7.96 8.958 7.975 13.714.01 3.823-2.725 7.908-6.105 10-2.672 1.652-7.948 2.714-12.993 1.727-5.768-1.128-11.277-4.59-12.925-6.979-6.413-9.296.46-22.34 13.634-20.87 4.417.493 4.921 4.51 5 4.414" fill="#fbd0a1"/><path d="M31.996 36.13a1.906 1.906 0 01-.091.277c.39.09 1.107.232 2.042.339-.315.763-1.738.447-2.787-.001-.646-.28-1.79-1.189-1.562-1.815.004-.01.905.75 1.6 1.184.244-.492 1.017-1.986 1.084-2.25.046-.18.479-1.97.614-1.915.776.316-.633 3.197-.9 4.181" fill="#3b3a39"/><path d="M33.449 29.38c-2.082-.573-4.788.69-1.425 4.445 1.035 1.155 7.38-2.807 1.425-4.446" fill="#90673e"/><path d="M45.24 32.012c-1.32.312-1.729-1.649-.759-1.899 1.753-.448 1.825 1.65.759 1.9m-22.289-6.894c-1.12.319-1.406-1.437-.58-1.69 1.489-.458 1.487 1.431.58 1.69" fill="#3b3a39"/><path d="M18.677 38.138c1.091.423-2.941 5.045-1.04 8.62 2.594 4.878 10.762 2.175 10.228 5.686-.823 5.413-11.368.762-13.073-1.75-3.667-5.4 2.615-13.05 3.885-12.556" fill="#ca9965"/><path d="M11.878 51.35c6.646-3.56 12.683 7.312 7.637 11.976-5.804 5.368-13.04-9.083-7.637-11.976" fill="#bd8342"/><path d="M14.174 55.285c4.35-2.252 7.827 4.45 4.638 7.275-3.595 3.185-7.946-5.563-4.638-7.275" fill="#f5b0b4"/><path d="M11.08 54.616c1.208-.581 2.185 1.093 1.403 1.771-1.294 1.122-2.686-1.154-1.402-1.77m1.911-2.042c1.207-.58 2.185 1.092 1.402 1.772-1.294 1.122-2.686-1.155-1.402-1.772m3.83-.805c-1.302.33-.948 2.232.094 2.248 1.72.026 1.288-2.6-.094-2.247m28.054-15.139c-3.357 1.185-5.563-2.34-3.103-3.25 4.445-1.643 5.819 2.292 3.103 3.25M24.633 31.42c-3.359 1.185-5.563-2.339-3.105-3.249 4.447-1.645 5.82 2.29 3.105 3.25" fill="#f5b0b4"/></svg>