<svg width="72" height="72" xmlns="http://www.w3.org/2000/svg"><path d="M59.396 29.56c2.957.679 2.939 2.172 5.789 1.43 4.873-1.268 6.406 1.652 5.62 1.528-3.1-.493-2.191.952-5.49-.726-3.006.343-6.117-2.278-5.919-2.232" fill="#7d6851"/><path d="M23.738 50.09c.526.996-2.172 3.496-2.187 7.083-.02 4.24 2.598 9.567 2.786 9.492 3.128-.413 6.797-2.22 6.722-3.1.47-1.434-2.487-17.224-3.291-17.979-1.401.193-2.786 3.907-4.03 4.503" fill="#7a6147"/><path d="M25.843 66.373c-.802-1.733-1.998-1.233-1.988-1.202.173.548.347 1.468.482 1.494a24.588 24.588 0 001.506-.292" fill="#dcb592"/><path d="M27.757 65.775c-.037-.445-.786-1.522-1.726-1.057-.307.151-.53.41-.192 1.651.466-.07 1.483-.438 1.918-.594" fill="#dcb592"/><path d="M49.266 49.379c.223 2.45-2.629 16.093-2.255 16.098 3.044.829 7.126.58 7.396-.261.987-1.14 4.341-16.852 3.893-17.858-1.368-.364-7.657 1.952-9.034 2.021" fill="#7a6147"/><path d="M48.513 65.79c-.073-1.91-1.368-1.909-1.37-1.875-.052.571-.247 1.487-.132 1.562.457.115 1.166.257 1.502.314" fill="#dcb592"/><path d="M50.508 65.978c.137-.425-.138-1.707-1.185-1.642-.34.021-.646.173-.812 1.45.457.115 1.536.168 1.997.192" fill="#dcb592"/><path d="M45.741 59.935c2.434.013 4.204-.075 4.764-.115 20.904-1.448 18.697-24.128 8.403-32.211-3.324-2.61-15.493-2.608-26.26.949-13.757 4.545-15.842 7.807-14.633 13.9 1.478 7.44 9.506 17.377 27.726 17.477" fill="#8b745a"/><path d="M25.698 47.593c-1.66 4.31 2.727 19.185 3.066 19.172 2.823.732 6.507.265 6.688-.644.81-1.264 2.098-14.344 1.616-15.395.257-5.174-9.124-10.54-11.37-3.133" fill="#b18d71"/><path d="M30.15 67.025c-.21-2.033-2.018-1.91-2.007-1.877.433 1.39.563 1.462.62 1.617.424.1 1.077.215 1.387.26" fill="#dcb592"/><path d="M31.974 67.126c.092-.46-.252-1.814-1.198-1.692-.308.04-.573.216-.63 1.585.424.1 1.407.105 1.828.107" fill="#dcb592"/><path d="M51.89 49.082c-1.38 6.751 1.576 18.436 2.002 18.436 3.486.846 8.127.498 8.413-.422 1.094-1.263 4.532-18.454 3.995-19.543-1.183-2.583-5.048-5.72-8.523-4.954-2.666.587-5.115 4.505-5.887 6.483" fill="#a4866c"/><path d="M55.577 67.806c-.13-2.081-2.271-1.802-2.273-1.766-.046.625.423 1.372.556 1.452.523.117 1.334.258 1.717.314" fill="#dcb592"/><path d="M57.853 67.973c.146-.465-.199-1.858-1.39-1.768-.387.03-.73.201-.889 1.596.523.116 1.753.155 2.28.172" fill="#dcb592"/><path d="M23.38 44.51c-2.822.475-10.038-.718-14.087-5.167C5.438 35.107 4.68 27.676 4.52 25.286c-.317-4.736 2.966-11.554 6.972-13.003l-1.458-.232c-.06-.008-9.239-2.197-9.032-4.4 3.274-.884 5.034-1.981 8.63-.295 1.172.55 2.27 1.346 3.141 2.436.384.481.511.48.864.88.326-.158 3.961-1.26 3.944-1.328-.012-.04-.215-.138-.827-.346-1.05-.357-3.647-.195-5.673-1.798-2.414-1.909-3.857-2.435-2.307-2.827.53-.135 4.105-1.02 6.806.53 1.24.713 3.314 2.428 4.12 3.43.066.083 14.373-.956 17.748 13.778.996 4.35 7.561 1.533 7.642 4.715.108 4.295-3.682 14.28-21.712 17.684" fill="#b9997d"/><path d="M44.567 29.671c3.108-2.172 4.907-12.516 4.349-13.115-.806-.866-4.766 2.05-11.152 6.12-.363 1.112.588 3.31 2.209 4.765 1.748 1.57 4.206 2.354 4.594 2.23M31.645 14.948c1.497-1.045 2.36-6.022 2.093-6.31-.388-.418-2.293.986-5.366 2.944-.175.536.282 1.593 1.062 2.293.842.755 2.024 1.133 2.21 1.073" fill="#694926"/><path d="M29.544 31c-.898.858-2.045-.682-1.393-1.332 1.177-1.176 2.118.637 1.393 1.331" fill="#31302f"/><path d="M31.288 32.952c1.964 2.537-2.694 4.713-4.19 2.859-2.705-3.352 2.6-4.912 4.19-2.859" fill="#f5c3c6"/><path d="M59.185 18.165c.98.28 5.48-.165 6.15 1.17-.55.745-3.518.046-4.222-.213-.452-.167-2.165.02-2.144-.578.002-.058-.032-.45.216-.38" fill="#54432b"/><path d="M58.274 17.432c-.808.267-.824 1.973.691 1.311.508-.22.298-1.638-.69-1.31" fill="#54432b"/><path d="M58.895 11.592c2.229-1.308 6.602.097 6.144 2.909-.105.645-1.373 3.147-1.981 3.462-.708.366-.928.573-1.836.653-2.36.21-4.097-5.984-2.327-7.024" fill="#f0882e"/><path d="M62.556 18.41c.32-1.281 2.535-4.082 3.86-3.99 2.862.198-.268 3.878-2.667 4.149-.794.09-1.218-.06-1.193-.16" fill="#fbbf04"/><path d="M36.794 35.194c.47.16.935.154 1.328-.01.412-.174.744-.516.904-.73.13-.174.153-.325.017-.321-.045.003-.25.29-.531.525-.237.196-.564.265-.73.314-.489.144-.982.027-1.258-.42a1.98 1.98 0 01-.206-.44c-.064-.206-.147-.35-.15-.428-.007-.133-.073-.29-.178-.13-.174.258.194 1.434.804 1.64"/></svg>