<svg width="72" height="72" xmlns="http://www.w3.org/2000/svg"><path d="M42.56 46.685c1.37 3.228.768 19.58 2.102 19.31.369-.074 1.513.32 1.803-.154.914-1.488.605-5.338.703-6.563.152-1.888 1.135-13.211-.945-13.211-1.52 0-2.243.25-3.663.618" fill="#8e6334"/><path d="M18.99 37.535c-1.374 2.92-1.62 33.38 1.39 33.38 1.184 0 2.207.218 2.609-.31.37-.488.166-1.666.166-3.12 0-2.281.262-16.8 2.58-17.26 1.12-.223-.853 17.66 1.45 20.599.504.439 2.946-.02 3.026-.53-.13-2.177.277-18.807 2.085-18.511 5.865.956 11.037.037 15.2-1.632.654-.262 1.293 16.616 2.442 16.616 2.336 0 1.65 1.236 3.006-3.81.92-3.424 1.96-24.801.243-28.065l-.012-.025c.504-.854 1.067-2.552 1.07-2.856.047-3.382-1.013-8.47-1.586-7.96-1.67 1.482-3.247 5.712-2.33 7.676-3.578-2.128-8.479-.361-12.429 1.814-6.42 3.536-17.121.186-18.91 3.994" fill="#bc8039"/><path d="M14.89 34.016c2.328 2.327 8.512 4.868 11.994 5.13 4.99.378 11.44-1.438 14.412-4.644 3.442-3.712 1.404-11.168 1.782-15.593 3.608-3.25 2.639-6.05 1.28-8.709-.147.289-2.824 6.787-2.816 6.89-1.862 0-5.463-4.146-11.71-4.146-3.13 0-8.854-.605-11.386.769.72-4.804-.786-6.159-2.357-7.247-1.188 1.546-2.615 6.1-.292 9.728-1.206 5.843-3.96 14.766-.908 17.822" fill="#ca9862"/><path d="M17.219 26.64c-.722.016-1.035 1.024-.473 1.417.89.62 1.813-.69 1.164-1.16-.256-.187-.49-.26-.691-.256zm22.113.76c-.599.014-.857.933-.393 1.293h.002c.738.566 1.502-.627.965-1.058-.213-.17-.406-.238-.574-.235zm-10.975 3.885c-.49 0-.383 1.826-.46 2.402a.967.967 0 00-.012.167 10.684 10.684 0 01-1.186-.262c-.003.47.842.612 1.512.601.413-.008 1.238-.24 1.256-.62 0-.008-.663.198-1.137.277-.015-.25-.099-1.258-.074-1.42.016-.106.188-1.145.101-1.145z" fill="#31302f"/><path d="M17.603 29.428c-1.317 1.979 2.36 3.262 3.369 1.812 1.824-2.62-2.303-3.411-3.369-1.812m16.764.4c-1.319 1.978 2.358 3.26 3.368 1.812 1.824-2.62-2.302-3.412-3.368-1.812" fill="#f4afb3"/><path d="M28.561 29.36c1.143.134 2.214 1.273-.216 2.415-.748.35-3.054-2.798.216-2.414" fill="#694926"/><path d="M20.827 15.353c-.91-.81-.907-4.227-.513-5.218.33-.833-2.494-4.127-1.817-6.906.434-1.789 1.806 3.9 2.263 2.668C23-.142 24.445.504 24.092 2.073c-.401 1.779-2.78 4.987-2.81 5.413-.162 2.282 3.26-3.825 3.225-.681-.013 1.092-3.104 2.476-2.924 4.378.089.934-.206 1.549.061 3.122.145.857-.823 1.042-.817 1.048m17.345 2.641c1.138-.47 2.33-3.686 2.306-4.747-.02-.892 3.791-3.077 4.125-5.914.216-1.825-3.065 3.086-3.064 1.777.003-6.41-1.585-6.272-1.8-4.68-.245 1.805.873 5.597.753 6.007-.645 2.203-1.733-4.657-2.798-1.686-.37 1.031 2.058 3.339 1.223 5.07-.41.851-.348 1.526-1.149 2.92-.436.76.41 1.25.404 1.253" fill="#8e6334"/><path d="M23.245 15.514c.008-.003 2.057.537 1.274-.579-.328-.466-2.31-.186-1.274.579m5.659.419c.008-.004 2.057.794 1.272-.854-.327-.689-2.309-.277-1.272.854m5.917.903c-.007-.004-2.058.793-1.273-.855.327-.687 2.31-.275 1.273.855m-7.777.657c-.01-.005-2.059.793-1.274-.855.327-.687 2.31-.275 1.274.855m3.544.45c.009-.002 2.058.538 1.273-.58-.327-.465-2.31-.185-1.273.58m-2.4 1.353c.008-.004 2.057.537 1.273-.58-.327-.466-2.31-.186-1.273.58m-2.566 1.01c.008-.005 2.057.793 1.273-.855-.326-.687-2.311-.275-1.273.855m6.233.162c-.009-.004-2.058.792-1.273-.856.327-.687 2.31-.274 1.273.856m-2.754 2.272c-.006-.005-2.057.792-1.272-.856.327-.688 2.311-.275 1.272.855m12.156 12.917c.007-.003 1.506.394.932-.424-.24-.34-1.69-.136-.932.424m4.736-3.643c.006-.003 1.506.58.931-.626-.24-.503-1.691-.201-.93.626m3.586.851c-.006-.004-1.507.58-.932-.626.24-.503 1.69-.2.932.626m-5.694.481c-.007-.004-1.507.58-.932-.626.24-.503 1.69-.201.932.626m3.017.081c.006-.003 1.507.393.931-.423-.238-.342-1.69-.137-.931.423m-1.905.746c.005-.003 1.507.393.932-.424-.239-.342-1.692-.137-.932.424m-1.512 1.413c.006-.004 1.506.58.932-.626-.24-.503-1.69-.201-.932.626m3.922-.063c-.006-.004-1.507.58-.932-.626.24-.503 1.69-.201.932.626m-2.015 1.663c-.006-.004-1.506.58-.932-.626.24-.504 1.692-.201.932.626" fill="#fbcf9e"/><path d="M50.595 23.72c.875.326 5.03.286 5.535 1.514-.563.613-3.223-.236-3.847-.518-.4-.183-1.983-.153-1.916-.679.007-.05.007-.398.228-.316" fill="#694926"/><path d="M49.626 22.924c-.762.173-.914 1.673.526 1.21.483-.156.405-1.421-.526-1.21" fill="#694926"/><path d="M50.865 17.912c2.147-.978 6.036.602 5.387 3.043-.15.56-1.511 2.664-2.094 2.893-.679.266-.896.431-1.733.431-2.179 0-3.265-5.59-1.56-6.367" fill="#4cbac9"/><path d="M53.66 24.202c.397-1.104 2.654-3.396 3.86-3.21 2.603.398-.56 3.393-2.778 3.444-.735.016-1.11-.15-1.081-.234" fill="#92d0d8"/></svg>