<svg width="72" height="72" xmlns="http://www.w3.org/2000/svg"><path d="M45.182 48.24c1.28 3.006.717 18.24 1.964 17.987.344-.07 1.413.3 1.685-.142.854-1.386.564-4.975.656-6.116.142-1.758 1.062-12.306-.882-12.306-1.421 0-2.098.234-3.423.576" fill="#f7c643"/><path d="M24.85 70.988c1.107 0 2.77.117 3.146-.376.806-1.056-.94-21.118.712-21.81.979-.41-.047 19.186 2.105 21.924.47.409 2.753-.017 2.828-.494-.123-2.028.108-19.965 1.798-19.691 5.481.892 10.023-.534 13.915-2.09.611-.244 1.648 18.496 2.723 18.496 2.182 0 1.542 1.15 2.809-3.548.86-3.19 1.832-23.106.226-26.147l-.012-.022c2.028-3.423.073-10.567-.482-10.076-1.688 1.493-2.91 5.033-2.176 7.15-4.885-2.895-12.852 3.22-20.748 3.426-.848.022 1.23-11.083.325-12.986-1.703-3.574-6.359.946-7.42 1.222-.51.133-2.12 9.81-2.003 20.6.123 11.561 2.061 23.882 2.255 24.422" fill="#fdca45"/><path d="M33.377 28.065c-2.578.849-7.297.997-9.914-.054-3.751-1.506-6.343-4.68-7.257-8.047-1.057-3.902 2.22-8.912 3.653-12.233-1.357-3.627.423-5.298 2.43-6.731-.007.26-.575 5.896-.621 5.967 1.347.664 5.545-1.04 10.06 1.185 2.263 1.116 6.633 2.719 7.932 4.61 1.33-3.717 2.942-4.156 4.495-4.38.264 1.536-.459 5.326-3.536 7.112-1.38 4.639-3.859 11.459-7.242 12.572" fill="#f7c643"/><path d="M35.363 23.701c-.882.13-1.045-1.141-.395-1.25 1.174-.197 1.108 1.144.395 1.25m-16.285-7.448c-.752.147-.844-.989-.29-1.108 1.004-.215.899.99.29 1.108" fill="#31302f"/><path d="M34.216 24.383c.19 1.895-2.962 1.51-3.133.107-.31-2.538 2.979-1.638 3.133-.107M21.947 18.7c.191 1.894-2.961 1.51-3.133.105-.31-2.537 2.979-1.638 3.133-.106" fill="#f9d4d4"/><path d="M37.308 13.097c.97-.262 2.069-2.771 2.38-3.577.84-2.163-.54-1.822-1.357-.692-.818 1.127-1.07 3.04-1.21 3.222-.434.565.194 1.044.187 1.047M23.674 8.176c-.578-.791.226-3.402.515-4.216.776-2.185 1.62-1.08 1.508.292-.111 1.367-1.177 3.002-1.19 3.227-.036.702-.837.692-.833.697" fill="#8e6334"/><path d="M37.995 42.35c-1.389.096-6.389-1.49-4.523-3.802.558-.692 3.986-1.3 4.717-1.454.898.903.554 5.203-.194 5.255m6.118-1.863c-.792.055-3.019 3.017-4.216 2.157-.904-.65-1.108-4.964-.306-5.959.558-.691 3.948-1.695 4.68-1.85.897.904.59 5.6-.158 5.652" fill="#bc8039"/><path d="M45.154 38.468c.073-1.012-.375-3.114-.436-3.64.366-.441 1.688-.666 2.42-.82 6.206 6.246-2.148 6.685-1.984 4.46" fill="#bc8039"/><path d="M49.162 36.31a17.398 17.398 0 00-1.67-2.238c.364-.44 1.35-.306 1.932-.226 2.195 1.606.925 4.401-.262 2.463m-16.354 2.928c.535-.875.177-.46.556-.88-.365-.44-1.35-.305-1.932-.225-2.196 1.605.19 3.044 1.376 1.105m6.918 4.11c-.534-1.855-.816-1.016-1.738-.425-.6 2.36 2.385 2.666 1.738.425m6.954-3.402c-3.093-2.089-2.141 2.834-1.274 1.906.27-.288 1.96-1.442 1.273-1.906" fill="#bc8039"/><path d="M50.918 37.56c-.54-.486-1.044-.45-1.29-.362-.201.684-.227 2.294.583 1.822.214-.124 1.088-1.12.707-1.46m-6.626 4.213c-1.28.864-.886-1.173-.527-.79.112.12.81.597.527.79m-11.554-1.742c-1.97-.274.174 1.692.498.768.083-.237-.3-.74-.498-.768m4.909 2.573c-1.547-.216-.237 1.43-.098.932.044-.155.442-.885.098-.932m-9.554-31.947c-.44-.18-2.49.821-2.886.042-.298-.588.831-2.962 1.547-3.284.5-.224 2.61.135 3.049.246.222.723-1.292 3.166-1.71 2.996" fill="#bc8039"/><path d="M28.848 10.294c.484-.576 1.129-2.01 1.322-2.349.408-.117 1.297.279 1.801.48.993 6.216-4.188 3.133-3.123 1.869m6.682 1.802a12.264 12.264 0 00-.307-1.984c.389-.168.98.234 1.33.471.868 1.742-.926 3.149-1.023 1.513m-9.687-3.741c.75-1.203.148-.924-.64-1.094-1.599.882-.267 2.547.64 1.094" fill="#bc8039"/><path d="M28.924 11.64c-1.28-2.343-2.369 1.152-1.484.828.273-.101 1.77-.31 1.484-.829m7.311 1.829c-.181-.488-.521-.626-.711-.647-.367.38-.942 1.414-.253 1.368.181-.012 1.092-.377.964-.721m-1.072-.435c-.53-.968-.98.478-.614.343.114-.041.732-.128.614-.343M25.29 9.191c-.93-.635-.65.85-.388.572.083-.086.594-.431.388-.572" fill="#bc8039"/><path d="M35 12.672c-.442-.18-2.627-.044-3.023-.824-.145-.284.241-.929.315-1.579.08-.7-.142-1.404.037-1.577.258-.134 2.32 1.09 2.758 1.2.223.724.33 2.95-.087 2.78m-3.074.085c-1.128.151-.167-1.044-.067-.68.03.113.318.647.067.68m-5.384-1.555c.445 1.007 1.017-.4.641-.294-.117.032-.74.07-.641.294" fill="#bc8039"/><path d="M30.278 12.595c.57 1.287 1.3-.51.819-.375-.148.042-.946.09-.82.375" fill="#bc8039"/><path d="M18.867 24.794c.27-1.959 5.029-5.945 7.568-5.913 3.255.04 2.322 8.926 1.648 9.868-2.522-.1-3.942-.365-5.455-1.11-1.082-.532-2.273-1.217-3.673-2.693l-.088-.152" fill="#f3dea7"/><path d="M25.788 22.753c-.132.354-.145.182-.488.037-.01-.002.692-1.076.75-1.241.035-.096.355-1.04.427-1.004.416.205-.495 1.692-.689 2.208" fill="#31302f"/><path d="M25.297 23.048c-.344-.178-.936-.717-.78-1.044.004-.006.663.633 1.027.833.025.014.518.184 1.294.332-.209.397-.981.167-1.54-.121" fill="#31302f"/><path d="M27.17 18.845c-1.021-.362-2.435.148-.9 2.116.47.605 3.826-1.08.9-2.116" fill="#694926"/><path d="M28.353 30.87c.295-.617 2.874-1.947 3.563-2.067.406-.07 1.405-.343 1.124.338-.327.795-2.838 1.207-3.688 1.488-.096.032-1.014.272-1 .24" fill="#4cbac9"/><path d="M28.353 30.87c-.039.424-.013 1.246.147 1.618.198.458.22.62.94.755.446.082 3.371.575 3.565.204.311-.603.497-3.038.388-3.818-.017-.12-.227-.907-.384-.533-.122.29-1.682 1.047-2.094 1.095-.31.035-1.542.255-1.748.403-.02.015-.809.227-.814.276" fill="#92d0d8"/><path d="M27.2 30.552c-.293-.615-2.874-1.945-3.56-2.065-.408-.07-1.408-.344-1.126.336.328.796 2.838 1.208 3.69 1.49.094.031 1.012.271.996.239" fill="#4cbac9"/><path d="M27.2 30.552c.04.425.014 1.248-.146 1.62-.198.458-.22.62-.941.753-.444.084-3.37.576-3.564.205-.312-.602-.497-3.038-.387-3.818.016-.12.225-.907.383-.533.123.29 1.682 1.048 2.094 1.095.31.036 1.542.254 1.748.404.02.014.81.226.813.274" fill="#92d0d8"/><path d="M28.855 32.264c.18-.462.104-1.21-.244-1.617-.217-.252-.646-.309-.977-.309-.353 0-.77-.08-1.033.136-.41.338-.352 1.57-.16 2.003.285.639 2.132.515 2.414-.213" fill="#5dc0cd"/></svg>