<svg width="72" height="72" xmlns="http://www.w3.org/2000/svg"><path d="M50.28 39.788c1.592-1.067 6.073-4.553 8.193-8.712 6.094 9.675-8.028 19.702-7.881 15.204.023-.727-.34-3.325-.34-4.656 0-.71-.373-1.568.028-1.836m-28.56-.945c-1.59-1.068-6.071-4.552-8.193-8.712-6.094 9.675 8.027 19.703 7.883 15.205-.025-.729.339-3.326.339-4.658 0-.709.372-1.568-.029-1.835m21.588 23.821c.755.773-2.468 5.648-.819 6.538 1.49.804 1.9 2.241-.79.157-.28-.216-1.459 1.339-1.771 1.268-.265-.062.321-1.287 1.43-1.964.727-2.225.757-7.218 1.95-5.999m-10.691.374c-.754.77 2.47 5.647.82 6.537-1.488.802-1.901 2.24.792.157.277-.216 1.458 1.337 1.77 1.266.265-.06-.321-1.285-1.43-1.964-.726-2.223-.758-7.219-1.952-5.996" fill="#694926"/><path d="M20.725 35.613c.64.09-5.05 33.055 21.5 29.442 12.501-1.7 9.337-30.007 8.81-29.957-2.843.269-1.787 1.135-7.404 1.135-3.37 0-19.26.005-22.181-1.31-.473-.213-.432.731-.725.69" fill="#c57801"/><path d="M27.58 40.13c.389.055-3.069 20.089 13.067 17.894 7.598-1.035 5.674-18.237 5.354-18.207-1.727.163-1.086.69-4.5.69-2.047 0-11.706.005-13.48-.796-.288-.13-.263.443-.44.419" fill="#fbcf9e"/><path d="M18.852 34.887c3.083 3.16 11.702 8.18 16.317 8.538 6.612.512 14.73-3.526 18.669-7.878 2.103-2.324 2.057-6.476 3.038-11.891.122-.666 2.779-24.201-1.085-16.361-.195.394-1.638 4.48-1.626 4.62-2.468 0-7.238-5.628-15.517-5.628-4.147 0-11.722-.809-15.083 1.042-4.838 2.665 1.638-12.044-4.352-3.78-1.83 2.523-5.874 25.686-.361 31.338" fill="#da8000"/><path d="M41.493 20.265c-6.679 9.927 2.143 20.283 9.29 12.434 10.11-11.097-4.21-19.983-9.29-12.434m-9.887-.289c4.54 10.243-7.148 18.395-10.91 11.084-6.842-13.304 7.23-19.387 10.91-11.084" fill="#fbcf9e"/><path d="M23.626 28.23c-1.541 2.372 2.76 3.911 3.94 2.174 2.136-3.14-2.692-4.089-3.94-2.173m21.744.062c-1.542 2.371 2.76 3.91 3.94 2.173 2.135-3.14-2.693-4.09-3.94-2.173" fill="#f4afb3"/><path d="M37.09 44.003c.466 1.003 4.551 3.167 5.641 3.363.644.114 2.226.56 1.78-.55-.518-1.294-4.494-1.965-5.84-2.422-.152-.052-1.606-.442-1.581-.39" fill="#96ba34"/><path d="M37.09 44.003c-.062-.69-.022-2.03.232-2.634.313-.746.35-1.01 1.488-1.227.706-.135 5.34-.937 5.645-.333.495.98.789 4.943.615 6.213-.027.195-.359 1.476-.608.868-.194-.472-2.663-1.706-3.316-1.782-.491-.058-2.441-.415-2.768-.657-.03-.023-1.282-.37-1.288-.448" fill="#9fc243"/><path d="M35.264 44.52c-.466 1.002-4.551 3.166-5.641 3.36-.643.115-2.226.56-1.78-.547.518-1.295 4.495-1.965 5.84-2.423.153-.051 1.606-.442 1.581-.39" fill="#96ba34"/><path d="M35.264 44.52c.062-.693.022-2.032-.232-2.636-.314-.746-.348-1.009-1.49-1.227-.704-.136-5.338-.937-5.644-.332-.494.98-.788 4.943-.614 6.213.027.194.358 1.477.607.868.195-.472 2.665-1.706 3.317-1.781.49-.06 2.441-.417 2.768-.659.03-.023 1.282-.37 1.288-.446" fill="#9fc243"/><path d="M37.885 41.736c.285.75.162 1.969-.39 2.628-.34.412-1.02.505-1.544.505-.559 0-1.221.13-1.637-.221-.65-.55-.557-2.558-.253-3.261.45-1.04 3.377-.837 3.824.35" fill="#759d35"/><path d="M23.683 26.156c1.177.843 2.401-.934 1.543-1.574-1.553-1.156-2.496.893-1.543 1.574m24.884.796c.979.77 1.993-.856 1.281-1.441-1.289-1.059-2.071.817-1.28 1.44" fill="#31302f"/><path d="M35.093 30.54c1.333.2 1.853.769-.638 3.084-.877-.562-3.172-3.653.638-3.084" fill="#fbbf04"/></svg>