<svg width="72" height="72" xmlns="http://www.w3.org/2000/svg"><path d="M27.541 64.739c-.28 1.736-.047 2.376-1.1 3.152-.402.298-1.046.53-1.04.934.005.401 1.253.838 1.599.81 1.053-.084 1.887-.287 2.126-2.148.138-1.08 3.092-2.129 2.033-6.009-.438-1.6-2.17-1.057-2.564-.778-.65.457-.955 3.421-1.054 4.039m18.71 1.355c.864 1.533 1.132 2.161.791 3.423-.13.48-.49 1.062-.234 1.374.255.311 1.504-.119 1.759-.356.773-.719 1.3-1.393.327-2.999-.565-.932.697-3.763-1.867-6.47-1.144-1.206-2.647 1.02-2.783 1.482-.223.76 1.7 3 2.007 3.546M25.96 40.535c-1.29-.005-1.898-.291-2.73-.576-1.106-.378-1.784-.45-2.589.935-.19.889.87 1.253 2.751 1.21 1.092-.025 2.577 2.727 6.266 1.101 1.523-.67.723-2.295.389-2.643-.551-.57-3.46-.02-4.087-.027" fill="#75552f"/><path d="M22.252 15.94c-.483 3.648-1.57 9.857-5.898 10.511-1.762.267 3.857 15.92 19.723 11.911 23.26-5.875 11.49-32.369-5.18-29.164-4.175.804-8.246 3.73-8.645 6.742" fill="#d6b185"/><path d="M18.006 26.03c0 .456-.88 3.074-1.476 3.143-.72.082-1.097-1.847-1.02-2.531.081-.725 2.496-1.342 2.496-.611"/><path d="M20.297 28.206c.14 0 .447.167.447.444 0 .21-.19.422-.397.453-.25.038-.516-.214-.475-.526.012-.105.187-.396.425-.37m-1.866-.409c.14 0 .447.166.447.444 0 .21-.19.421-.397.454-.25.038-.517-.214-.476-.527.013-.105.187-.397.426-.371m.364 1.883c.139 0 .446.167.446.445 0 .209-.189.42-.396.452-.25.038-.517-.213-.476-.527.014-.104.187-.396.426-.37" fill="#98764b"/><path d="M23.944 13.822c.04-.003.007.002.088.01.024.036-.224 1.523-.27 1.63-.675 1.664-.707-1.57.182-1.64zm-1.031 1.75c-.672.052-.647 2.495-.137 1.238.034-.081.222-1.203.204-1.23-.062-.007-.036-.01-.067-.008zm3.111-2.254c.04.006.007.004.084.03.014.042-.573 1.43-.64 1.524-1.047 1.463-.325-1.692.556-1.554zm-1.489 1.774c.041-.003.008.001.09.01.022.037-.226 1.523-.27 1.63-.676 1.664-.71-1.57.18-1.64zm-1.03 1.75c-.673.052-.647 2.496-.137 1.239.034-.081.221-1.203.203-1.23-.06-.007-.036-.011-.066-.009zm-.893.987c.032-.001.007.001.067.008.018.027-.17 1.15-.203 1.231-.51 1.256-.534-1.187.136-1.24zm2.802-2.056c-.672.053-.647 2.495-.137 1.24.034-.083.221-1.204.204-1.232-.06-.007-.036-.01-.067-.008zm1.626-1.388c.028.012.004.004.056.037.005.032-.658.959-.723 1.017-1.01.908.041-1.3.667-1.054zm-2.69 3.138c.043-.003.008.002.09.01.023.037-.226 1.523-.27 1.63-.676 1.665-.71-1.57.18-1.64zm-1.03 1.75c.03-.003.005.001.066.008.019.027-.169 1.15-.202 1.23-.51 1.258-.536-1.186.136-1.239zm1.623-.48c-.89.07-.856 3.306-.18 1.641.043-.108.291-1.593.269-1.63-.082-.007-.048-.014-.09-.011zm-1.03 1.75c-.673.052-.647 2.497-.137 1.24.032-.082.22-1.204.202-1.231-.06-.007-.035-.011-.066-.008zm-.893.988c-.672.052-.647 2.495-.137 1.239.034-.083.221-1.204.204-1.232-.061-.006-.037-.01-.067-.008zm-.906-1.56c-.672.052-.647 2.495-.137 1.238.033-.081.22-1.203.204-1.23-.062-.007-.037-.011-.067-.009zm-.41 2.02c.03.004.005.004.064.022.011.03-.392 1.093-.44 1.166-.747 1.134-.293-1.267.376-1.188zm.257 1.014c-.444-.053-.746 1.54-.25.789.033-.05.3-.754.293-.776-.039-.012-.022-.012-.043-.013zm4.207-5.331c.02.003.003.003.043.014.007.02-.26.726-.293.775-.495.752-.194-.84.25-.79zm1.796-3.105c.02.004.003.002.04.02a8.22 8.22 0 01-.404.722c-.602.673-.067-.859.364-.742zm-1.91 5.216c-.443-.052-.745 1.54-.25.788.032-.049.3-.754.293-.775-.04-.012-.023-.012-.043-.013zm1.274-8.408c-.628-.246-1.678 1.962-.666 1.055.065-.059.726-.985.723-1.018-.053-.033-.028-.025-.057-.037zm-1.882 1.002c-.883-.138-1.604 3.016-.559 1.555.069-.095.657-1.483.642-1.524-.077-.027-.044-.025-.083-.03" fill="#e6c49d"/><path d="M46.269 3.94c-1.217-2.667-2.835 6.642-3.286 4.2-.398-2.156-4.615-9.677-3.341-4.254.433 1.845.933 6.12-1.282 1.155-.085-.193-2.201-3.866-2.011-2.998 1.212 5.539.606 5.01-2.702 1.407-.714-.777-2.925-2.625-3.484-2.437.04.351 1.506 5.492.512 4.747-.996-.744-1.85-3.708-4.042-4.429.538 1.7.994 4.33.327 4.674-.37.193-1.968-.464-3.918-1.86-.482-.344-.773-.635-.925-.746-2.02-1.475 5.045 5.786-.284 3.672-.467-.184-4.883-3.396-3.365-.52 2.08 3.94 4.877 3.86 5.176 4.199-2.526 1.752-3.286 1.527-.184 2.516 1.319.422 4.296.274-.288 2.044-.47.182-2.798.072-2.149.755 1.587 1.668 5.171 1.936 7.272 2.346.91.176-5.217 2.955.366 1.787 2.578-.54 2.426-1.068.905 1.699-.413.749-2.486 1.262 1.486 1.262 1.751 0 2.504-.647 2.86-.668 0 1.318-.712 4.107-2.253 4.652 4.04.517 5.265 6.96 2.956 9.047-.994 1.114-2.638 2.053-5.147 2.566-1.64.914-3.74 2.495-3.613 3.108.608.21 1.9-.836 1.65.012-.597 2.01-3.046 3.04-1.227 2.63 1.58-.357 1.401-.41 1.227-.169-.642.885-2.055 2.152-.767 2.152.507 0-1.9 2.251-1.96 2.295-.39.282 1.237-.101 1.425-.162.078-.026-1.76 2.467-1.612 2.995 3.172-.676.32-.379-.428 3.498.233-.35 1.199-.848 1.189-.825-2.25 4.835-.014 2.921-.045 2.716-.058.05-.437 1.81-.436 1.848.086 2.338-.538 3.01.56 1.711 1.106-1.31.759-.813.784-.316.202 3.912-.919 2.712 1.008 1.197 0 .852.202 2.048.38 2.88.223 1.045-.079 1.1.374.483 1.658-2.25 1.224-1.385 1.224.758 0 .97 1.235-.438 1.436-.742.006-.01.103 1.589.096 2.019-.014.7 1.294-1.476 1.492-1.566 0 .711.132 1.335.153 1.965.034.969.887-1.774 1.014-1.481.544 1.248.245 2.772 1.351 1.079.67-1.026.417-1.106.606-.623.576 1.47.495 1.981 1.26.849.914-1.352.31-1.045.694-.601.15.172.777 1.603.977 1.16.654-1.463.019-1.81.485-1.08 1.895 2.958 1.077-.26 1.712-1.082.951-.081 1.865 2.508 1.865-.038 0-.81 2.122 2.74 1.699-.03-.558-3.65 1.35.424 2.042.304 1.155-.2-.319-3.477 1.97-1.096.883.916.363-3.285 1.046-2.562.774.818 1.64 1.741 1.963 1.791.31.022-.056-2.617-.432-3.61-1.366-3.608.818.242 1.262-.063.133-.091-.23-.678-.466-1.804-.964-4.59.995-1.872 1.86-1.468.125-.114-.638-2.007-.74-2.27-2.213-5.643 1.437-1.18.877-2.579-.976-2.436-4.406-4.253-2.134-4.136 2.502.129-.914-1.728-1.405-1.96-3.762-1.776 2.466.007.368-1.266-.93-.562-2.137-1.002-2.27-1.24-.321-.58 2.291-.097.502-1.108-1.808-1.023-2.298-1.214-2.19-1.552.127-.393 1.952.214 2.051-.118-1.09-1.004-4.805-.983-1.71-2.3.182-.078-2.365-.935-3.058-2.582l2.64 1.297c-.255-2.057-.477-4.203 1.372-1.316 2.658 4.15-.945-8.937 2.711-2.696.7 1.196.128-3.67-.323-4.957-.265-.757 1.645 1.591 1.855 2.447.005.024.457-3.085-.719-6.156-.712-1.86-.598-.58 2.408 1.263 1.669 1.023.838 1.467.785-1.572-.032-1.87-1.93-3.837-1.885-4.418.08-1.016 1.57-.396 3.895-.63.99-.1-2.26-1.352-3.933-1.897 1.044-.664 1.429-2.102 1.553-3.137.115-.947-2.628.849-3.405 1.35-.023-.017-.294-7.892-.932-6.793-1.427 2.446-2.25 3.184-2.836 2.733-.878-.678.175-5.885-.494-7.354" fill="#98764b"/><path d="M25.938 28.068c-.949.684-1.933-.76-1.242-1.279 1.248-.94 2.008.725 1.242 1.279" fill="#31302f"/><path d="M26.938 29.303c.668 1.036-1.195 1.71-1.705.95-.924-1.373 1.166-1.789 1.705-.95" fill="#f4afb3"/><path d="M22.688 33.721c-.45.151-.894.147-1.27-.01-.392-.164-.709-.489-.863-.693-.124-.165-.145-.309-.016-.304.044.002.24.275.508.498.225.187.538.252.697.298.467.138.937.027 1.2-.398.082-.13.153-.274.198-.419.06-.196.14-.332.144-.407.006-.125.07-.274.17-.123.165.247-.186 1.363-.768 1.559"/><path d="M31.307 44.453c4.306-.593 8.287 5.392 8.893 9.758.411 2.968-.935 7.366-3.358 8.322-3.2 1.263-6.606.798-8.898-3.19-2.442-4.245-.39-14.373 3.363-14.89" fill="#b38a5c"/><path d="M30.458 57.588c.107 0 .344.128.344.341a.378.378 0 01-.305.348c-.193.03-.397-.164-.366-.405.01-.08.144-.303.327-.284"/><path d="M38.309 43.484c-1.135 1.344-1.631 1.816-2.935 1.942-.994.097-1.527 1.169-1.095 1.713.567.712 2.44.79 3.606-.683.676-.855 3.75-.241 4.845-4.112.452-1.596-1.314-2.018-1.797-1.981-.792.06-2.22 2.642-2.624 3.12" fill="#75552f"/></svg>