<svg width="72" height="72" xmlns="http://www.w3.org/2000/svg"><path d="M21.966 39.75c.144-.343-10.71 11.935-7.186 16.32 1.08 1.343-.73 3.544 2.203 4.85 2.604 1.16 3.605 3.611 8.4 4.293 7.225 1.027 8.528.49 15.466.153 8.04-.392 7.659-1.732 13.876-4.803 2.807-1.385 3.433-6.797 1.787-10.832-1.99-4.879-2.62-12.002-5.236-11.737-6.79.69-30.977.369-29.31 1.755" fill="#948982"/><path d="M28.882 44.718c19.203-9.435 33.6 21.296 14.15 23.145-8.737.83-22.316 1.877-22.859-11.323-.231-5.637 4.117-9.566 8.71-11.822" fill="#f1f2f1"/><path d="M44.627 10.112c-.071-3.282 1.318-5.374 4.716-4.506 3.23.828 2.461 7.596-2.91 6.68-.223-.038-1.796-1.705-1.806-2.174m-18.788.959c-6.763-11.017-10.709 8.386-.783 2.722.196-.114 1.027-2.322.783-2.722" fill="#31302f"/><path d="M18.796 24.835C8.098 36.327 24.202 43.342 38.99 42.46c8.313-.494 16.208-3.485 18.693-9.576.876-2.147 1.065-4.29.636-6.342-.511-2.455-3.788-3.23-4.591-5.265-4.55-11.534-11.045-17.72-23.493-14.54-9.144 2.336-10.519 17.112-11.439 18.098" fill="#dedfe2"/><path d="M21.326 16.568c3.568-.504 19.426 11.205 9.51 16.409-1.946 1.022-6.313.922-9.4-1.27-2.614-1.852-3.67-5.115-3.762-5.557.365-.427 1.054-.668 1.335-1.742.583-2.226 1.515-5.493 2.292-7.525l.025-.315m28.507-2.96c-3.597-.217-18.193 12.706-7.898 17.107 2.019.862 6.365.417 9.272-2.013 2.457-2.054 3.789-5.343 3.846-5.791-.4-.397-1.153-1.064-1.517-2.113-.754-2.172-2.426-4.921-3.36-6.885l-.343-.305" fill="#9e928c"/><path d="M37.334 39.163a2 2 0 00.028.298 18.846 18.846 0 01-2.093-.117c.138.839 1.614.842 2.752.623.701-.134 2.036-.791 1.952-1.474-.002-.01-1.063.552-1.847.832-.13-.548-.557-2.226-.563-2.506-.005-.19-.028-2.09-.174-2.064-.839.146-.098 3.358-.055 4.408" fill="#31302f"/><path d="M36.899 27.571c3.358-.168 7.024 2.719.617 7.36-1.97 1.427-10.224-6.882-.617-7.36" fill="#31302f"/><path d="M52.14 50.55c-6.877-2.147-10.938 13.037-6.27 16.811 7.718 6.245 13.582-14.529 6.27-16.811" fill="#b1b1b2"/><path d="M50.34 56.02c-4.177-1.304-6.643 7.917-3.809 10.21 4.689 3.794 8.252-8.824 3.81-10.21" fill="#31302f"/><path d="M53.944 54.406c-1.62-.417-2.388 1.911-1.26 2.556 1.862 1.067 2.983-2.113 1.26-2.556m-2.849-2.053c-1.621-.416-2.388 1.911-1.261 2.556 1.862 1.068 2.983-2.113 1.26-2.556m-3.734.719c1.67.081 1.723 2.532.456 2.817-2.091.467-2.233-2.904-.456-2.817m-9.425-.755c-.9-.61-1.876.643-1.327 1.285.907 1.062 2.283-.635 1.327-1.285" fill="#31302f"/><path d="M22.818 35.955c1.37.542-1.835 5.451-4.855 18.46-1.413 6.081-5.53 9.011-8.911 8.746-2.093-.166-4.737-.797-5.385-2.513-1.096-2.904 3.494-6.111 5.16-4.086 5.192-4.283 8.572-22.75 13.99-20.607" fill="#dedfe2"/><path d="M14.78 56.07c5.19-5.024 15.592 6.714 13.104 12.195-4.112 9.064-18.62-6.855-13.104-12.196" fill="#b1b1b2"/><path d="M18.828 60.146c3.152-3.052 9.472 4.077 7.96 7.406-2.497 5.506-11.31-4.163-7.96-7.406" fill="#31302f"/><path d="M14.888 60.33c1.263-1.103 2.986.63 2.267 1.715-1.19 1.795-3.61-.541-2.267-1.715m1.632-3.12c1.262-1.104 2.985.63 2.266 1.715-1.189 1.793-3.609-.543-2.267-1.715m3.658-1.044c-1.457.827-.408 3.041.848 2.723 2.08-.525.7-3.603-.848-2.723" fill="#31302f"/><path d="M51.78 38.039c-1.37.541-.777-.882 2.253 12.124 1.417 6.081 5.536 9.007 8.916 8.74 2.095-.167 4.737-.801 5.384-2.516 1.094-2.905-3.497-6.11-5.164-4.084-5.192-4.278-5.973-16.413-11.389-14.264" fill="#dedfe2"/><path d="M35.635 6.34c-.06-.027-1.034.491-2.12.83a10.94 10.94 0 01-.793.214c.588.8-.481 2.53-.652 2.53-1.004.009-.544-1.684.264-2.444-.613.129-1.28.237-1.92.317.385.924-1.094 2.336-1.262 2.295-.937-.238-.164-1.659.762-2.236a19.85 19.85 0 01-1.024.085c-.15.01-.414.037-.733.072.312 1.008-1.531 2.144-1.69 2.065-.853-.425.152-1.618 1.162-2.008-.493.054-1.037.109-1.48.136-.875.704-2.864.785-2.585-.248.046-.168 1.978-.764 2.598.01.213-.003.47-.02.754-.04-1.078-.293-2.308-1.727-1.36-2.152.163-.073 1.957 1.137 1.608 2.13.535-.047 1.15-.116 1.781-.198-1.078-.29-2.308-1.725-1.358-2.15.161-.072 1.941 1.126 1.61 2.118a79.75 79.75 0 002.257-.326c-1.05-.352-2.17-1.708-1.252-2.118.158-.071 1.87 1.077 1.628 2.056.262-.043.494-.083.687-.118.56-.103 2.94-1.101 3.061-.92.038.058.091.114.057.1" fill="#6f813a"/><path d="M36.055 6.911c.048-.019.797.419 1.638.72.186.066.394.131.615.193-.487.608.297 1.999.432 2.006.787.037.479-1.306-.13-1.927.476.12.997.227 1.496.31-.332.712.785 1.87.917 1.839.742-.155.181-1.295-.527-1.778.284.043.555.076.8.1.119.012.324.043.573.08-.275.78 1.135 1.73 1.262 1.673.681-.305-.07-1.273-.85-1.611.387.057.81.118 1.158.153.665.58 2.223.709 2.034-.113-.03-.132-1.527-.662-2.037-.074-.168-.01-.368-.03-.59-.056.855-.194 1.866-1.281 1.134-1.644-.125-.062-1.57.83-1.328 1.62a39.99 39.99 0 01-1.391-.212c.855-.194 1.865-1.28 1.133-1.643-.124-.062-1.557.821-1.33 1.61a70.881 70.881 0 01-1.76-.328c.835-.244 1.757-1.27 1.049-1.622-.122-.06-1.5.785-1.342 1.562a25.885 25.885 0 01-.536-.116c-.436-.098-2.27-.956-2.372-.818-.032.043-.075.087-.048.076" fill="#759d35"/><path d="M35.065 8.644c-.128 2.484 2.447 4.994 3 4.27.459-.6-.64-2.255-1.526-4.131-.538-1.14-.287-.379.43.19 1.475 1.172 4.717 1.831 2.444.023-.74-.586-2.028-1.058-2.473-1.388 7.693 1.168 1.692-.864.553-1.14.729-.507 2.293-3.065 1.945-3.73-.414-.795-2.002.231-3.27 2.987.498-5.475-.951-6.69-1.459-.983-2.483-4.516-3.14-1.72-2.316-.643.183.238 1.337 1.481 1.345 1.495-1.933-.255-3.768.103-3.738.351.059.478 3.7 1.187 3.65 1.219-1.786 1.187-1.866 3.714-1.525 3.71 1.261-.014 2.881-1.096 2.94-2.23" fill="#fbbf04"/><path d="M35.887 6.141c.031.01 1.261 1.454-.395 1.498-.98.026-1.82-2.115.395-1.498m3.804-1.307c.052-1.036-1.02-2.082-1.251-1.781-.191.251.266.941.636 1.723.224.475.12.158-.18-.08-.614-.489-1.965-.763-1.017-.01.307.245.844.442 1.03.58-3.207-.487-.706.358-.231.475-.303.212-.956 1.276-.81 1.554.172.332.834-.097 1.363-1.244-.208 2.28.396 2.787.608.409 1.035 1.881 1.31.718.965.268-.076-.1-.557-.617-.561-.624.806.107 1.57-.041 1.559-.146-.025-.199-1.542-.494-1.522-.508.744-.494.778-1.548.636-1.545-.526.005-1.201.457-1.225.929" fill="#ea5c05"/><path d="M39.349 5.876c-.014-.004-.527-.605.164-.624.408-.01.758.883-.164.624" fill="#fbbf04"/><path d="M32.23 8.288c.052-1.036-1.021-2.083-1.25-1.78-.193.25.265.94.634 1.722.225.474.121.157-.18-.08-.614-.488-1.964-.762-1.016-.01.306.245.844.442 1.03.58-3.207-.487-.706.36-.23.474-.304.212-.956 1.279-.812 1.556.173.331.835-.097 1.364-1.246-.208 2.283.396 2.79.608.41 1.034 1.882 1.308.718.964.269-.075-.1-.556-.619-.56-.624.806.106 1.572-.042 1.559-.146-.025-.2-1.543-.494-1.522-.508.745-.494.778-1.548.636-1.547-.526.007-1.202.458-1.226.93" fill="#ea5c05"/><path d="M31.887 9.33c-.013-.003-.526-.606.164-.623.408-.012.76.881-.164.623" fill="#fbbf04"/><path d="M24.997 30.413c1.232.61 2.08-1.272 1.179-1.74-1.631-.844-2.175 1.248-1.18 1.74m23.254-3.26c1.032.573 1.712-1.13.955-1.57-1.368-.796-1.793 1.106-.956 1.57" fill="#31302f"/></svg>