<svg width="72" height="72" xmlns="http://www.w3.org/2000/svg"><path d="M21.586 17.835c-1.159-5.04-4.104-7.699-8.995-5.05-4.649 2.52-.848 12.562 7.06 9.074.328-.145 2.101-3.303 1.935-4.024m20.384-5.581c1.16-5.042 4.105-7.7 8.996-5.05 4.65 2.52.847 12.56-7.06 9.074-.329-.144-2.102-3.303-1.935-4.024" fill="#90673e"/><path d="M43.807 12.031c.773-3.36 2.734-5.13 5.991-3.364 3.1 1.678.566 8.365-4.701 6.044-.218-.096-1.4-2.201-1.29-2.68M19.51 17.455c-.772-3.36-2.732-5.129-5.991-3.363-3.098 1.677-.566 8.365 4.701 6.043.218-.097 1.4-2.201 1.29-2.68" fill="#f5b0b4"/><path d="M13.425 58.933c-1.947.347-6.297 8.106 4.623 8.35.997.022 11.827-.541 12.714 2.773.074.28-.51.67-.97.706-9.997.783-18.172-.21-21.103-5.333-1.19-2.079-.987-5.436 1.794-7.429 1.79-1.281 2.646-1.83 2.818.76l.124.173" fill="#90673e"/><path d="M45.092 33.972c-1.34.526 1.796 5.3 4.752 17.948 1.383 5.912 5.413 8.76 8.722 8.502 2.05-.16 4.636-.773 5.27-2.441 1.074-2.824-3.418-5.942-5.051-3.975-5.08-4.163-8.388-22.118-13.693-20.034" fill="#fbbf26"/><path d="M47.886 39.179c3.688 3.845 10.38 18.612 4.88 20.584-2.624.942-3.531 3.512-8.224 4.174-7.072.998-8.348.477-15.139.149-7.867-.38-8.333-.38-13.58-4.67-2.697-2.203-.97-8.52.745-12.452 4.91-11.26 23.979-20.697 31.318-7.785" fill="#90673e"/><path d="M41.118 44.01c-18.796-9.172-32.89 20.704-13.85 22.504 8.551.808 21.844 1.826 22.374-11.01.226-5.48-4.03-9.299-8.524-11.493" fill="#fdcc4f"/><path d="M11.937 49.991c8.104-4.39 15.464 9.018 9.31 14.773-7.075 6.621-15.897-11.204-9.31-14.773" fill="#bd8342"/><path d="M14.736 54.844c5.302-2.776 9.542 5.49 5.655 8.974-4.382 3.93-9.686-6.861-5.655-8.974" fill="#f5b0b4"/><path d="M10.966 54.018c1.47-.716 2.663 1.35 1.71 2.187-1.578 1.383-3.276-1.425-1.71-2.187m2.329-2.516c1.471-.717 2.663 1.35 1.71 2.185-1.578 1.384-3.276-1.425-1.71-2.185m4.67-.992c-1.587.407-1.155 2.751.112 2.77 2.1.035 1.573-3.203-.112-2.77" fill="#f5b0b4"/><path d="M32.258 51.399c.88-.594 1.834.625 1.298 1.249-.889 1.033-2.235-.618-1.298-1.25" fill="#3b3a39"/><path d="M54.92 55.047c-7.607-6.327-18.22 4.837-12.824 11.857C48 74.586 60.68 59.838 54.922 55.047" fill="#bd8342"/><path d="M50.958 59.011c-4.66-4.806-10.83 2.145-7.791 7.202 3.034 5.042 10.96-3.936 7.791-7.202" fill="#f5b0b4"/><path d="M54.815 59.19c-1.236-1.073-2.923.613-2.218 1.668 1.163 1.744 3.533-.527 2.218-1.668m-1.597-3.035c-1.235-1.073-2.923.613-2.22 1.668 1.165 1.745 3.534-.526 2.22-1.668m-4.038-1.976c1.425.803.4 2.957-.83 2.647-2.036-.512-.685-3.503.83-2.647" fill="#f5b0b4"/><path d="M36.431 41.697c-8.009 1.509-14.664 1.118-18.476-4.029-6.708-9.058-.721-27.163 11.129-29.78 19.365-4.274 38.732 27.896 7.347 33.809" fill="#fdcc4f"/><path d="M37.004 36.602c.026.126.042.22.044.29a18.516 18.516 0 001.96-.613c.069.823-1.334 1.18-2.463 1.248-.698.041-2.121-.258-2.206-.922 0-.011 1.143.265 1.951.342-.006-.55-.002-2.231-.062-2.497-.042-.182-.473-1.978-.33-1.988.832-.065.896 3.142 1.106 4.14" fill="#3b3a39"/><path d="M34.866 27.16c-3.228.646-6.02 4.246 1.168 7.087 2.21.871 8.06-8.94-1.168-7.086" fill="#ca9965"/><path d="M46.837 26.987c-1.024.868-2.278-.701-1.534-1.36 1.346-1.186 2.362.657 1.534 1.36M24.01 30.812c-.846.788-1.896-.654-1.283-1.25 1.109-1.078 1.965.614 1.282 1.25" fill="#3b3a39"/><path d="M35.193 8.143c-.766-.017-1.604.134-2.177.445-1.876 1.016-1.13 3.43.216 4.088 2.867 1.399 3.711-3.978 3.707-3.98-.285-.354-.98-.537-1.746-.553zm-5.56.109a7.67 7.67 0 00-2.213.37c-3.532 1.191-.384 3.652 1.807 4.22 3.088.8 2.12-4.108 2.117-4.113v-.002c-.284-.353-.956-.484-1.711-.475zm8.76.78c-.21 0-.43.03-.659.091-1.463 1.315-.865 4.488.48 5.147 1.407.686 3.45-.438 3.03-2.266-.367-1.592-1.379-2.98-2.851-2.973zm-13.862 1.56c-.23.017-.47.085-.713.217-1.373.744-.397 2.877.59 3.359 1.03.503 2.525-.322 2.217-1.66-.25-1.082-1.093-1.99-2.094-1.916zm18.772 1.047a1.29 1.29 0 00-.52.16c-.999.54-.287 2.09.43 2.441.748.365 1.835-.233 1.611-1.207-.181-.787-.793-1.448-1.521-1.394zm-15.112 1.06c-.594.009-.967.618-.96 1.248h-.002c.007.725.873.964 1.34.58.445-.368.685-1.579-.11-1.793a.979.979 0 00-.268-.035zm7.913 1.19a1.279 1.279 0 00-.518.158c-1 .54-.29 2.091.428 2.441.75.367 1.838-.232 1.615-1.205-.181-.788-.797-1.448-1.525-1.394zm-4.729.033c-.596.008-.967.618-.96 1.248.005.724.875.963 1.34.578.446-.368.685-1.578-.11-1.791a.992.992 0 00-.27-.035zm14.906.332a1.287 1.287 0 00-.52.158c-1.41.762-1.454 2.72.428 2.442.825-.122 1.839-.234 1.614-1.208-.18-.787-.793-1.446-1.522-1.392zm-25.304.385c-.82.012-1.336.855-1.329 1.724.012.999 1.208 1.329 1.85.8.617-.509.946-2.183-.15-2.477a1.36 1.36 0 00-.371-.047zm-2.29 3.234c-.82.011-1.335.854-1.328 1.725.01.997 1.022.871 1.85.798 1.897-.167 1.4-2.061-.15-2.474a1.36 1.36 0 00-.372-.049zm31.364 1.838c-.169 0-.347.037-.53.12-1.462.654-1.189 3.4.71 3.265.83-.06 1.387-.894 1.236-1.881-.122-.799-.686-1.503-1.416-1.504zm-32.746 3.508c-.822.011-1.337.855-1.328 1.724.008 1 .687 1.732 1.517 1.659 1.896-.166 1.73-2.92.182-3.334a1.362 1.362 0 00-.371-.05zm33.533.2c-.168 0-.347.038-.53.12-1.035.464-.443 2.066.247 2.469.72.42 1.847-.098 1.697-1.084-.122-.799-.685-1.503-1.414-1.504zm.834 3.188a.768.768 0 00-.54.248c-.35.397-.387 1.522.36 1.6.703.071 1.044-.623.934-1.271-.07-.407-.416-.594-.754-.577zm-34.553.397c-.821.012-1.337.856-1.33 1.725.01 1 1.21 1.328 1.852.798.617-.508.947-2.18-.15-2.474a1.363 1.363 0 00-.372-.05zm33.15 3.283a.656.656 0 00-.48.256c-.197.282-.11.934.406.857.485-.073.644-.527.504-.88-.07-.179-.245-.246-.43-.233zm-33.636.012c-.337.036-.649.276-.65.69-.007.655.44 1.29 1.12 1.107.727-.194.51-1.301.1-1.637a.765.765 0 00-.57-.16zm32.666 2.494a.793.793 0 00-.676.383c-.261.459-.065 1.57.682 1.492.703-.075.888-.828.648-1.438v-.001a.669.669 0 00-.654-.436zm-1.742 1.582c-.355.036-.731.218-.94.486-.399.512-.28 1.652.715 1.477.938-.163 1.278-.973 1.035-1.584-.122-.307-.456-.415-.81-.379zm-28.377.816c-.236.021-.454.16-.455.399-.004.38.309.747.787.64.51-.11.354-.752.068-.945a.62.62 0 00-.4-.094zm26.666.985a.795.795 0 00-.676.383c-.26.46-.064 1.57.682 1.492.703-.075.893-.826.65-1.438a.672.672 0 00-.656-.437zm-25.567.945c-.336.037-.646.276-.65.69-.006.658.44 1.291 1.123 1.107.726-.194.508-1.3.1-1.637a.772.772 0 00-.573-.16zm23.354.223a.652.652 0 00-.479.254c-.198.285-.11.935.405.857.484-.073.644-.526.504-.879h.001c-.07-.177-.247-.245-.431-.232zm-21.604 1.258c-.46.036-.884.275-.888.687-.008.658.6 1.293 1.533 1.111.993-.195.695-1.3.137-1.636a1.342 1.342 0 00-.782-.162zm2.172 1.068c-.336.037-.647.276-.65.687-.005.658.439 1.29 1.123 1.11.725-.195.507-1.3.1-1.637a.77.77 0 00-.573-.16zm4.356.316c-.236.021-.454.16-.457.399-.003.38.309.746.789.64.508-.112.354-.752.07-.947a.631.631 0 00-.402-.092z" fill="#bd8342"/><path d="M44.039 32.424c3.328 1.186 5.513-2.347 3.077-3.26-4.406-1.647-5.768 2.298-3.077 3.26m-17.393 3.439c-3.328 1.187-5.514-2.345-3.077-3.258 4.407-1.65 5.769 2.298 3.077 3.258" fill="#d79ea3"/><path d="M47.092 10.105c-.715-.695-.082-1.498.544-1.519.498-.015 1.002.61.75 1.145-.187.399-.976.685-1.294.374" fill="#6d4f33"/><path d="M44.717 1.002c-.347-.032-.526.188-.42.787.123.698 1.608 2.112 2.967 3.17-1.91-.654-4.714-1.232-3.717.139.64.877 5.486 1.888 5.726 1.502a.37.37 0 00.028-.338c.095.029.166.034.205.01.394-.247.121-.838.021-1.18-.193-.655-3.572-3.975-4.81-4.09zm5.758 5.16c-.224.009-.425.076-.512.291-.017.042.002.112.047.2a.37.37 0 00-.328.087l-.002-.002c-.336.303 1.515 4.89 2.494 5.366 1.528.74.457-1.92-.526-3.682 1.283 1.15 2.94 2.363 3.65 2.361 2.785-.008-3.306-4.463-4.175-4.558-.177-.02-.424-.072-.648-.063z" fill="#52bbc9"/><path d="M48.27 8.754c.251.092.361.176.924-.554.839-1.086 2.948-3.682 3.245-5.082.477-2.228-5.531 5.138-4.17 5.636" fill="#6d4f33"/></svg>