<svg width="72" height="72" xmlns="http://www.w3.org/2000/svg"><path d="M38.019 64.47c.07 1.465 3.93 3.217 5.748 3.989 6.003 2.55 10.332-.46 12.19-6.53 2.562-8.365-.59-13.98.899-17.047 2.318-4.777 8.06-4.434 7.62-7.615-.415-3.009-3.071-3.29-6.433-2.69-3.571.64-7.85 2.418-7.894 7.967-.084 10.545 1.513 19.104-9.507 22.273-.555.16-2.656-1.01-2.623-.348" fill="#b1b1b2"/><path d="M22.249 70.576c12.155 1.05 26.596 1.03 26.596-10.794 0-14.357-8.27-20.767-12.847-25.885-2.01-2.245.76-.064-4.796 1.572-13.467 3.968-26.384 33.598-8.953 35.107" fill="#bdbdbe"/><path d="M13.59 68.74c-2.736-3.492 4.376-5.187 5.776-9.438 1.292-3.926 4.473-19.794 9.49-19.846 9.26-.094-9.178 37.054-15.266 29.284" fill="#d4d4d4"/><path d="M44.533 66.36c-5.883 7.465-35.403 4.09-36.697.953-.882-2.138.1-4.27 1.46-4.716 3.056-1 9.704 1.938 13.402.04 2.16-1.11 5.11-8.81 11.404-11.293 7.067-2.788 19.125 3.987 10.43 15.017m9.104-57.18c-1.393.236-11.24 5.237-11.6 4.824-2.02-2.312-15.806-4.161-19.205-4.663C17.99 4.254 15.475.985 15.47 1c-1.01 4.646-1.896 9.513-.393 14.184-6.267 8.662-1.853 23.53 12.582 25.888 11.087 1.809 23.43-2.205 22.72-19.428 1.482-4.09 2.165-7.295 3.256-12.463" fill="#b1b1b2"/><path d="M17.601 26.643c1.11 1.15 2.784-.555 1.981-1.42-1.453-1.563-2.877.491-1.98 1.42" fill="#31302f"/><path d="M16.854 28.237c-1.24 1.33 1.287 2.791 2.229 1.822 1.7-1.754-1.226-2.898-2.23-1.822m21.917 4.085c-1.398 1.502 1.451 3.144 2.512 2.053 1.916-1.975-1.382-3.266-2.512-2.053" fill="#f4afb3"/><path d="M29.87 28.168c-7.046-1.26-10.078 3.655-7.787 6.424 8.634 10.436 20.36-4.18 9.261-6.161-.492-.088-.982-.177-1.473-.263" fill="#fff3d5"/><path d="M25.916 33.042c-.165-.512-2.459 1.011-3.28 1.495-1.973 1.16-2.432 1.844-1.802 1.701.61-.137 1.387-1.03 2.417-1.634 1.28-.749 2.767-1.247 2.665-1.562m-.206-.548c.015-.538-2.656.139-3.593.324-2.248.44-2.908.934-2.267 1.008.622.071 1.653-.513 2.827-.742 1.456-.282 3.025-.26 3.034-.59m-.013-.562c.15-.516-2.606-.532-3.558-.59-2.288-.14-3.052.174-2.45.406.584.226 1.73-.08 2.922-.007 1.482.092 2.994.51 3.086.19m6.394 2.134c.333-.42 1.953 1.8 2.555 2.538 1.446 1.771 1.636 2.571 1.095 2.22-.524-.341-.942-1.447-1.696-2.37-.938-1.144-2.16-2.126-1.954-2.388m.384-.442c.174-.51 2.443 1.052 3.257 1.547 1.954 1.193 2.401 1.884 1.774 1.731-.61-.148-1.371-1.053-2.39-1.673-1.269-.77-2.748-1.291-2.64-1.605m.206-.523c.04-.535 2.63.404 3.544.68 2.193.661 2.8 1.218 2.155 1.227-.626.01-1.595-.673-2.738-1.017-1.422-.426-2.984-.559-2.961-.89m-4.696 2.311c-.15.468 0 .299.46.41.01.004.162-1.645.236-1.862.042-.124.471-1.35.371-1.367-.579-.104-.85 2.134-1.067 2.82" fill="#31302f"/><path d="M28.244 36.09c.485.078 1.507-.032 1.611-.49.002-.01-1.168.153-1.691.084-.036-.006-.666-.204-1.561-.64-.107.572.85.92 1.641 1.046m1.469-5.794c1.314.403 2.321 2.01-.782 2.886-.954.269-2.974-4.035.782-2.886" fill="#31302f"/><path d="M16.347 4.726c-.267.419-.539 3.88-.59 4.54-.169 2.123.615.869 2.357.641.93-.121 2.87-.032 1.814-1.548-.41-.586-2.679-5.032-3.58-3.633m35.132 6.913c.106.485-.846 3.824-1.028 4.463-.584 2.047-.882.6-2.436-.216-.83-.435-2.68-1.024-1.16-2.08.589-.407 4.268-3.791 4.624-2.167" fill="#f4afb3"/><path d="M40.397 30.292c1.11 1.148 2.783-.557 1.98-1.42-1.453-1.565-2.877.49-1.98 1.42" fill="#31302f"/><path d="M36.458 25.1c.023.018-10.463-1.647-13.226-.905-1.773.477-1.784-.13-1.75-.792.052-1.02 3.057-1.108 6.376-.854 2.027.157 6.825 1.153 8.6 2.55zm-12.406-4.584c-.026.01 10.428 1.232 12.864 2.682 1.561.931 1.736.356 1.883-.287.226-.987-2.617-1.877-5.853-2.523-1.976-.394-6.822-.73-8.894.128zm13.145-.737c-2.257-1.269-8.27-3.154-10.591-2.974-3.805.295-7.192.925-7.07 2.088.079.758.199 1.443 2.122.59 2.997-1.327 15.568.313 15.54.296zM23.56 15.071c2.661-1.102 8.892-.67 11.431-.165 4.161.83 7.816 1.975 7.525 3.243-.188.825-.412 1.566-2.421.37-3.131-1.863-16.57-3.434-16.535-3.448zm-.62 11.134c1.809-.905 6.19-.918 7.995-.692 2.954.372 5.57.989 5.43 1.892-.09.588-.208 1.116-1.676.379-2.286-1.146-11.77-1.568-11.749-1.579" fill="#bdbdbe"/><path d="M26.386 12.348c-.235-.315-.618-.601-1.102-.848-.14 1.484-1.947 2.269-1.917 1.411.017-.455 1.137-1.338 1.6-1.518a.26.26 0 01.06-.015 8.511 8.511 0 00-1.716-.54c.18 1.496-1.414 2.674-1.584 1.82-.09-.458.818-1.597 1.238-1.886a11.142 11.142 0 00-2.046-.169c.443 1.327-.763 2.707-1.091 1.961-.171-.389.393-1.563.725-1.949a8.228 8.228 0 00-1.59.241c.617 1.115-.305 2.527-.683 1.903-.2-.328.182-1.465.425-1.805a.205.205 0 01.037-.04c-.487.135-.947.302-1.361.477.552.838-.061 2.009-.41 1.546-.18-.239.017-1.13.182-1.447-.612.27-1.11.547-1.432.742a.278.278 0 01-.038.171c-.189.277-.94.88-1.243.822-.577-.109.234-1.195 1.25-1.041.19-.145.385-.28.584-.404-.414.022-1.121-.06-1.275-.27-.342-.47.97-.71 1.61.07a8.88 8.88 0 011.276-.588c-.412-.027-1.125-.206-1.251-.438-.28-.514 1.077-.577 1.6.305a.022.022 0 01.003.01c.359-.116.722-.21 1.083-.283-.404-.118-1.001-.4-1.078-.637-.18-.55 1.137-.377 1.507.558a10.565 10.565 0 011.713-.132c-.555-.326-1.377-1.02-1.396-1.415-.042-.892 1.845-.102 2.017 1.438.681.047 1.307.16 1.839.325l.038.011c-.516-.438-1.257-1.335-1.2-1.753.127-.947 1.979.271 1.815 1.933 0 .01-.003.018-.01.025.574.213 1.135.475 1.635.824.968.674.383.848.186.584m9.874.378c.234-.316.617-.602 1.101-.848.14 1.484 1.948 2.268 1.918 1.41-.017-.454-1.138-1.336-1.602-1.517a.243.243 0 00-.058-.015 8.529 8.529 0 011.716-.54c-.18 1.496 1.414 2.674 1.584 1.819.09-.458-.817-1.597-1.24-1.885a11.163 11.163 0 012.048-.17c-.443 1.328.762 2.707 1.09 1.963.171-.39-.393-1.565-.723-1.95.034.002.069.003.103.006.509.03 1.009.115 1.486.235-.619 1.116.304 2.528.683 1.904.2-.328-.183-1.464-.426-1.805a.2.2 0 00-.036-.04c.487.136.945.302 1.361.476-.552.84.06 2.008.41 1.547.18-.24-.016-1.13-.18-1.448.61.27 1.107.549 1.43.741a.278.278 0 00.037.172c.19.278.94.88 1.244.822.577-.109-.234-1.196-1.25-1.042a8.1 8.1 0 00-.585-.403c.415.022 1.121-.061 1.275-.27.343-.469-.97-.71-1.61.07a8.96 8.96 0 00-1.275-.588c.412-.027 1.125-.206 1.252-.437.279-.515-1.08-.577-1.6.305a.016.016 0 00-.004.01 9.93 9.93 0 00-1.083-.283c.403-.118 1-.4 1.078-.637.18-.551-1.138-.377-1.508.558a10.436 10.436 0 00-1.712-.13c.555-.328 1.376-1.023 1.395-1.417.043-.893-1.844-.101-2.017 1.437a8.18 8.18 0 00-1.838.325l-.039.01c.516-.437 1.258-1.333 1.2-1.753-.127-.945-1.978.274-1.814 1.936 0 .01.003.017.01.024-.574.213-1.135.475-1.636.825-.97.674-.382.848-.185.582" fill="#6f813a"/><path d="M23.352 9.844c-1.723-.675-1.54-5.589 1.965-3.48.985.988.718 1.588.847 1.35.65-1.193 1.54-2.327 2.862-2.278 1.226.045 3.22 2 1.432 4.19-.508.624 1.114-.274 2.202 1.312 2.053 2.99-2.095 2.32-1.931 2.735.479 1.206.652 2.19.038 2.734-.51.453-2.903-.014-3.271-.637-.716 1.669-5.448 2.568-4.25-2.187-1.625.077-2.825-1.353-2.227-2.365.57-.967 2.199-1.342 2.333-1.374" fill="#fbbf04"/><path d="M24.898 10.355c-.717.253.287 1.471.67.816.28-.48-.404-.91-.67-.816m1.881-.248c-1.051 1.096 1.096 1.837.877.376-.035-.244-.775-.482-.877-.376m-.807 1.608c-.468-.486.486-.817.39-.166-.017.11-.345.213-.39.166m1.195.255c-.41.639 1.13.989 1.032.235-.073-.55-.88-.47-1.032-.234m1.334-1.344c-.157 1.506 1.997.784.926-.239-.18-.17-.91.093-.926.24m.351 1.763c-.668-.1-.117-.942.206-.37.055.095-.14.38-.206.37m-.468 1.08c-.467-.486.487-.815.39-.166-.015.107-.344.214-.39.166m-.829-4.341c-.158 1.507 1.997.783.924-.24-.18-.169-.909.094-.924.24m-.829 4.019c-.467-.488.487-.818.39-.168-.016.109-.344.215-.39.168m-1.157-.432c-.468-.487.487-.816.39-.167-.015.109-.345.215-.39.167m.284-2.251c-.468-.485.487-.816.39-.166-.015.107-.345.215-.39.166m.19-1.118c-.469-.488.486-.817.39-.167-.017.108-.346.214-.39.167" fill="#ee7a00"/><path d="M21.15 13.56c-.089 1.72 1.711 3.46 2.099 2.956.32-.415-.447-1.561-1.067-2.861-.377-.79-.202-.263.3.131 1.032.812 3.3 1.268 1.71.017-.516-.406-1.418-.733-1.73-.96 5.381.807 1.184-.599.386-.79.51-.352 1.604-2.124 1.36-2.586-.289-.549-1.4.163-2.287 2.07.35-3.79-.664-4.633-1.019-.681-1.737-3.126-2.197-1.19-1.62-.444.127.164.935 1.024.94 1.034-1.351-.176-2.636.072-2.615.244.042.33 2.589.822 2.553.844-1.248.822-1.305 2.573-1.066 2.57.883-.01 2.016-.76 2.056-1.545" fill="#4cbac9"/><path d="M22.091 11.804c.02.007.882 1.006-.277 1.038-.686.018-1.274-1.465.277-1.038" fill="#fbbf04"/><path d="M32.138 12.71c-1.35.53-1.207 4.384 1.541 2.729.774-.774.564-1.244.665-1.058.51.936 1.207 1.825 2.245 1.787a1.947 1.947 0 001.122-3.288c-.398-.487.874.216 1.728-1.027 1.61-2.345-1.643-1.82-1.515-2.145.375-.947.532-1.741.03-2.145-1.31-1.053-2.277.745-2.567 1.234-.316-1.799-4.271-2.748-3.332.98-1.274-.057-2.214 1.062-1.747 1.856.447.759 1.726 1.052 1.83 1.078" fill="#ea5c05"/><path d="M35.418 10.226c.042.007 1.763 1.154.074 2.584-1.654 1.399-3.117-3.086-.074-2.584" fill="#fbbf04"/><path d="M38.518 11.95c-.801-1.07-.39-2.964.076-2.806.388.13.387 1.199.548 2.302.098.671-.017.256.137-.213.315-.966 1.58-2.231 1.095-.743-.157.483-.598 1.08-.7 1.361 3.122-2.828 1.023-.121.59.343.481.01 1.953.683 1.995 1.084.05.479-.972.496-2.37-.353 1.863 2.296 1.573 3.271-.364.875.232 2.762-.9 1.71-.852.982.011-.162.16-1.063.16-1.071-.796.692-1.731 1.084-1.792.964-.116-.231 1.315-1.64 1.282-1.64-1.161.006-1.954-1.099-1.798-1.2.573-.371 1.629-.373 1.993.116" fill="#4cbac9"/><path d="M39.883 12.679c.01-.012.134-1.027-.626-.55-.45.282-.19 1.49.626.55" fill="#fbbf04"/></svg>