<svg width="72" height="72" xmlns="http://www.w3.org/2000/svg"><path d="M15.384 52.62c-3.102 2.514 2.168 16.506 12.575 6.083-5.643.705-10.247.204-12.575-6.083" fill="#9d6f00"/><path d="M19.737 5.608c-2.311-1.624-.332-5.213-.302-4.253 0 .01.42.674.42 2.057 0 .443-.046 1.825.01 2.207l-.128-.011m32.075-.196c2.311-1.623.333-5.211.301-4.251 0 .008-.42.674-.42 2.057 0 .443.048 1.823-.01 2.205l.129-.01" fill="#54432b"/><path d="M43.815 59.563c.407 3.412 11.036 4.116 9.362-.44-.304-.83-2.455-.398-2.979-1.736-1.607-4.105-4.038-9.515-4.246-10.146-1.55-4.71-1.957-11.499-6.13-10.326-4.505 1.267 3.485 18.375 3.993 22.648" fill="#c98c14"/><path d="M22.944 36.627c-4.578 8.945-9.169 25.057 4.701 26.256 1.407.122 17.255.839 17.292-.452.047-1.694.478-3.398.478-5.82 0-12.177-2.241-20.5-6.12-24.84-1.704-1.905-2.826.436-7.725.113-6.252-.413-5.615-1.138-8.626 4.743" fill="#aa7702"/><path d="M52.27 4.055c-1.127.404-7.592 5.01-8.962 7.138-2.033-1.63-14.932-.88-17.843-.793-3.616-4.058-6.264-6.116-6.265-6.103-3.095 10.264-.854 15.38 1.387 20.464 6.017 13.646 20.632 15.61 27.996 1.743 2.705-5.093 5.477-12.426 3.687-22.45" fill="#c98c14"/><path d="M24.83 25.39c1.097.793 2.236-.878 1.436-1.481-1.446-1.09-2.325.84-1.437 1.481" fill="#31302f"/><path d="M24.445 26.833c-.835 1.296 1.493 2.137 2.132 1.187 1.155-1.717-1.458-2.237-2.132-1.187m18.891.141c-.94 1.46 1.682 2.41 2.403 1.339 1.302-1.935-1.642-2.52-2.403-1.339" fill="#f4afb3"/><path d="M35.289 24.833c-6.065 0-7.855 4.555-5.53 6.524 8.77 7.428 16.353-6.524 6.8-6.524h-1.27" fill="#fff3d5"/><path d="M30.915 29.71c-.107-.443-2.14.704-2.865 1.06-1.74.86-2.17 1.41-1.629 1.329.524-.079 1.236-.787 2.145-1.232 1.128-.555 2.415-.884 2.349-1.157m-.139-.477c.047-.453-2.254-.046-3.056.051-1.929.234-2.517.61-1.98.712.523.1 1.43-.33 2.435-.451 1.248-.15 2.572-.032 2.6-.312m.025-.475c.16-.428-2.168-.612-2.969-.72-1.924-.26-2.59-.043-2.096.19.48.228 1.466.041 2.47.177 1.246.17 2.498.615 2.596.353m8.702.581c.1-.445 2.154.664 2.884 1.009 1.757.828 2.195 1.37 1.654 1.298-.527-.07-1.252-.763-2.168-1.194-1.138-.534-2.43-.839-2.37-1.113m.131-.479c-.055-.453 2.251-.088 3.056-.004 1.933.198 2.528.564 1.993.677-.52.108-1.436-.306-2.443-.409-1.251-.126-2.573.014-2.606-.264m-.034-.475c-.167-.424 2.158-.652 2.957-.774 1.92-.294 2.588-.09 2.099.154-.476.236-1.466.066-2.466.22-1.244.192-2.487.661-2.59.4m-4.795 2.777c-.053.412.047.25.446.275.01.001-.11-1.4-.082-1.591.016-.11.19-1.198.104-1.198-.499 0-.389 1.91-.468 2.514" fill="#31302f"/><path d="M35.123 31.69c.417-.008 1.252-.25 1.27-.649 0-.01-.95.302-1.398.322-.03.001-.586-.07-1.398-.302-.003.493.848.642 1.526.629m.355-5.056c1.156.14 2.238 1.33-.218 2.526-.756.367-3.087-2.926.218-2.526" fill="#31302f"/><path d="M20.491 7.278c-.161.388.133 3.318.189 3.878.179 1.797.644.634 2.062.183.758-.24 2.39-.455 1.28-1.562-.429-.43-2.99-3.803-3.53-2.5m30.338.533c.161.388-.133 3.318-.189 3.878-.177 1.796-.645.634-2.062.184-.758-.24-2.39-.456-1.28-1.562.428-.43 2.989-3.803 3.53-2.5" fill="#f4afb3"/><path d="M33.368 24.134c.332.692-1.034-4.783-2.168-6.842-.523-.949-1.034-3.637-2.21-5.414-1.082-1.757-2.484-.455-1.636 1.785 1.33 3.513 5.278 8.944 6.014 10.47M39.45 11.54s-1.315 6.53-1.647 7.597c-.203.65-1.378 4.362-1.2 4.876 2.024-2.303 3.87-9.508 3.963-10.741.181-2.431-.168-2.171-1.117-1.732" fill="#9d6f00"/><path d="M30.618 62.266c.324 2.974 5.752 4.31 7.607 2.056 1.894-2.695-2.563-3.064-3.368-5.507-1.38-4.181-2.363-22.85-8.017-21.32-4.517 1.223 1.593 20.73 3.778 24.771" fill="#c98c14"/><path d="M35.762 36.938c.334.727 3.263 2.294 4.044 2.434.462.084 1.596.406 1.277-.396-.372-.939-3.222-1.423-4.188-1.755-.109-.037-1.151-.32-1.133-.283" fill="#f5a800"/><path d="M35.762 36.938c-.044-.502-.016-1.472.166-1.91.226-.54.25-.73 1.067-.887.506-.098 3.828-.68 4.048-.241.353.71.565 3.58.44 4.5-.02.141-.257 1.07-.436.63-.14-.344-1.91-1.237-2.377-1.292-.353-.042-1.75-.3-1.985-.477-.022-.015-.918-.267-.923-.323" fill="#fab827"/><path d="M34.453 37.312c-.334.725-3.263 2.292-4.043 2.434-.462.084-1.597.407-1.277-.397.372-.938 3.222-1.423 4.187-1.755.11-.038 1.15-.32 1.133-.282" fill="#f5a800"/><path d="M34.453 37.312c.045-.502.016-1.471-.167-1.91-.224-.54-.25-.732-1.066-.888-.506-.098-3.827-.68-4.047-.24-.355.709-.565 3.579-.44 4.5.018.14.257 1.068.435.629.14-.343 1.91-1.236 2.379-1.291.35-.043 1.749-.301 1.983-.477.022-.017.918-.267.923-.323" fill="#fab827"/><path d="M36.332 35.295c.203.544.117 1.426-.279 1.904-.246.298-.732.365-1.108.365-.4 0-.875.095-1.173-.161-.466-.398-.399-1.852-.18-2.36.322-.754 2.42-.606 2.74.252" fill="#f5a800"/><path d="M44.39 25.036c1.096.794 2.235-.879 1.435-1.482-1.445-1.088-2.323.841-1.436 1.482" fill="#31302f"/><path d="M31.225 11.324c-.471.73.841 1.204 1.201.669.65-.968-.821-1.26-1.2-.67m3.514 1.965c-.471.73.84 1.204 1.201.67.65-.968-.821-1.261-1.202-.67m1.921-2.089c-.47.73.842 1.204 1.203.668.65-.966-.822-1.26-1.202-.668m5.567.885c-.47.73.841 1.205 1.202.67.65-.968-.822-1.261-1.202-.67m-17.615-.514c-.47.73.841 1.205 1.202.67.65-.967-.822-1.26-1.202-.67m24.76 8.978c-.47.73.84 1.204 1.202.669.65-.967-.822-1.26-1.202-.67m-.823 2.577c-.346.538.618.886.883.493.478-.712-.603-.927-.884-.493M21.668 21.59c.47.73-.842 1.204-1.202.67-.652-.969.82-1.261 1.202-.67m.822 2.577c.346.537-.618.886-.883.492-.479-.711.603-.927.884-.492m.182 1.871c.345.537-.619.885-.884.492-.477-.71.604-.927.884-.492m25.703.145c.346.538-.619.886-.883.493-.479-.711.604-.927.883-.493" fill="#9d6f00"/><path d="M33.403 70.1c2.767 2.524 8.967-.69 8.842-4.333-.454-4.089-4.942-.766-7.72-2.395-4.755-2.789-11.1-13.585-15.139-7.497 1.804 11.307 8.622 12.23 14.017 14.225" fill="#aa7702"/><path d="M48.657 65.655c2.767 2.523 8.966-.69 8.841-4.332-.454-4.09-4.942-.767-7.72-2.396-4.755-2.79-11.1-13.586-15.14-7.496 1.804 11.305 8.622 12.228 14.019 14.224" fill="#aa7702"/><path d="M25.345 34.12c-.47.73.842 1.205 1.202.67.65-.969-.821-1.26-1.202-.67m-1.629 2.186c-.47.73.84 1.204 1.201.669.652-.968-.82-1.26-1.201-.67m-2.506 4.824c-.471.73.841 1.204 1.201.67.652-.968-.821-1.26-1.202-.67m-.889 3.957c-.47.73.843 1.204 1.202.669.651-.967-.82-1.26-1.202-.67m-.058 4.045c-.47.731.842 1.205 1.202.67.651-.968-.822-1.26-1.202-.67m-.888 3.957c-.47.73.841 1.205 1.201.67.651-.967-.821-1.26-1.201-.67m2.388 4.69c-.471.731.842 1.206 1.202.67.65-.967-.821-1.26-1.202-.67m.089 4.036c-.335.523.603.862.86.48.467-.693-.587-.904-.86-.48m2.527-.733c-.337.523.603.862.86.48.466-.693-.588-.904-.86-.48m.05 2.958c-.471.73.84 1.205 1.201.669.65-.967-.82-1.26-1.201-.669m2.963 1.147c-.336.523.602.863.86.48.467-.693-.587-.903-.86-.48m-4.679-21.202c-.337.523.603.863.86.48.467-.693-.587-.903-.86-.48m.118 9.331c-.336.524.603.863.86.48.467-.692-.588-.902-.86-.48m18.868-14.131c-.337.523.602.861.86.48.467-.694-.587-.903-.86-.48m4.659-19.572c-.337.523.602.862.86.479.466-.693-.587-.903-.86-.479m-22.864.236c-.337.522.602.862.86.479.466-.692-.588-.902-.86-.48m-4.77-4.848c-.337.523.603.861.86.478.466-.692-.587-.902-.86-.478m30.683.591c-.336.522.603.862.86.478.466-.692-.587-.902-.86-.478" fill="#805600"/></svg>