<svg width="72" height="72" xmlns="http://www.w3.org/2000/svg"><path d="M32.215 46.853c-.802 1.017-1.772 3.511-2.888 3.691 2.055 1.764 8.883 1.546 7.847-5.406-.472-3.106-4.224.784-4.959 1.715" fill="#008e9f"/><path d="M42.276 12.02c-15.596 0-19.529 11.587-19.001 18.102.505 6.268 5.193 12.468 11.112 14.112 3.796.039 6.424 12.393-7.236 14.813-12.122 2.149-13.634-8.036-13.666-7.916-2.67 9.906 5.89 20.049 18.607 19.867 6.364-.093 19.124-3.233 25.55-11.565C70.99 42.133 68.1 12.021 42.277 12.021" fill="#52bbc9"/><path d="M6.807 41.19c-.12-.004-.239.01-.354.044-.824 2.12-1.52 6.75-.273 8.834 2.064 3.452 6.94 3.96 6.824 4.254l.297.04c.171.049.277-.058.336-.26.053.255.164.396.357.34l.297-.038c-.116-.294 4.758-.799 6.824-4.252 1.245-2.084.55-6.716-.273-8.836-2.454-.726-6.034 7.531-6.772 9.455-.107.282-.317 1.19-.418 2.034-.095-.867-.316-1.825-.427-2.116-.706-1.835-3.988-9.423-6.418-9.5z" fill="#008e9f"/><path d="M25.323 34.613c.919.502 1.522-.992.85-1.378-1.217-.697-1.594.972-.85 1.378" fill="#3b3a39"/><path d="M25.454 38.303c1.942.992 3.218-1.958 1.795-2.721-2.571-1.376-3.366 1.919-1.795 2.721" fill="#f5b0b4"/><path d="M44.758 34.175c.919.501 1.522-.992.849-1.379-1.217-.697-1.592.972-.85 1.379" fill="#3b3a39"/><path d="M44.889 37.864c1.942.991 3.217-1.96 1.795-2.72-2.57-1.377-3.365 1.918-1.795 2.72" fill="#f5b0b4"/><path d="M33.953 44.104c17.104-1.734 17.212 9.449 11.644 14.776-5.523 5.283-12.848 5.771-19.227.29 1.39-.1 4.512-.836 6.68-2.276 2.9-1.93 4.716-4.983 4.36-8.155-.216-1.948-1.232-3.991-3.457-4.635" fill="#92d0d8"/><path d="M37.717 37.403c-.205.085-.195.632-.49.924-.313.307-.892.57-1.32.514-.527-.07-.938-.266-1.41-1.204-.255-.033.051.737.259.977.624.73 2.233.753 2.786-.253.138-.249.36-1.036.175-.958" fill="#3b3a39"/><path d="M34.892 25.832C30.916 24.239 24.104 8.318 22.834 3.204c-1.42-5.71 3.251 1.24 5.456 3.332 1.776 1.686 12.674 16.146 9.66 17.803-.657.363-2.447 1.739-3.058 1.493" fill="#e7d29a"/><path d="M63.247 46.554c.906 1.147 1.997 3.954 3.253 4.157-2.315 1.987-10.001 1.74-8.836-6.086.532-3.498 4.756.881 5.583 1.93" fill="#008e9f"/><path d="M50.89 17.078c0 3.982 3.505 2.075 1.892.645-.203-.18-.176-1.26-1.9-1.041-.248.031.009.297.009.396m4.229 1.768c-2.086 2.556 3.82 2.66.416-.027-.106-.085-.334-.072-.416.027m-1.739.953c-1.19 1.308.397 1.665.323.49-.004-.052-.285-.533-.323-.49m2.059 1.987c-.64.672.848 1.826.848.504 0-.294-.68-.678-.848-.504m2.408-.841c-.22.614-.061 1.185.683 1.25.348.03.512-1.423-.599-1.31l-.084.06m-4.104-4.13c-.658.094.24 1.709.376.621.074-.587-.205-.646-.376-.62m-4.814-2.239c-.297 1.895 1.52 1.353.812.348-.131-.188-.799-.441-.812-.348" fill="#92d0d8"/><path d="M38.178 7.629a3.663 3.663 0 00.473 2.77 6.52 6.52 0 00-.14-.087c-.607-.37-1.161-.997-1.372-1.68-.154-.508-.322-.38-.284-.254a3.69 3.69 0 001.684 2.162c-.047.003-.095.005-.149.01-.709.058-1.532-.124-2.105-.553-.428-.32-.486-.118-.383-.039a3.72 3.72 0 002.189.775c.311.008.565-.02.723-.056l.04.013a3.713 3.713 0 002.113.72c.92.025 1.335-.267.3-.182-.71.058-1.53-.125-2.106-.554a1.087 1.087 0 00-.266-.156 2.876 2.876 0 00-.202-.402c-.354-.613-.537-1.43-.388-2.128.108-.52-.1-.485-.127-.359" fill="#6d4f33"/><path d="M37.71 6.665c-.28.145-.353.565-.12.882 1.19 1.632 1.817-1.752.12-.882m-.837 1.832c.365-.144.313-.924-.19-1.237-1.107-.694-1.31 1.832.19 1.237m-1.357 1.804c1.454.278.92-1.922-.407-1.51-.066.02-.685 1.301.407 1.51" fill="#e95707"/><path d="M41.847 12.227c-.04.029-.858-.209-1.734-.297a8.626 8.626 0 00-.634-.038c.325-.689-.752-1.82-.884-1.795-.76.148-.152 1.345.578 1.79a18.69 18.69 0 00-1.505.057c.151-.751-1.188-1.581-1.308-1.524-.674.32.13 1.265.92 1.555a17.5 17.5 0 00-.79.093c-.113.017-.318.036-.565.06.081-.802-1.49-1.37-1.599-1.287-.582.448.364 1.188 1.19 1.325-.383.035-.803.076-1.144.124-.772-.393-2.292-.15-1.92.582.06.118 1.615.27 1.967-.406.163-.029.358-.057.577-.085-.772.384-1.485 1.646-.701 1.818.134.03 1.309-1.15.892-1.838.414-.048.891-.09 1.38-.127-.77.384-1.484 1.644-.698 1.817.132.029 1.298-1.14.896-1.83a66.96 66.96 0 011.76-.102c-.742.424-1.383 1.61-.625 1.777.13.03 1.252-1.093.92-1.79.204-.007.387-.01.54-.015.44-.01 2.396.374 2.459.22.022-.05.052-.1.028-.084" fill="#728442"/><path d="M42.08 11.734c.037.007.538-.433 1.13-.788.131-.079.277-.16.437-.238-.463-.38-.08-1.542.02-1.568.59-.149.563.903.196 1.461a14.72 14.72 0 011.087-.46c-.36-.482.309-1.518.413-1.518.587.006.336.942-.128 1.412.21-.075.41-.142.592-.197.087-.028.24-.081.422-.147-.328-.542.596-1.47.7-1.446.565.125.144.963-.396 1.337.283-.103.595-.212.854-.294.414-.535 1.576-.868 1.56-.225-.003.103-1.056.728-1.534.367a8.541 8.541 0 00-.439.133c.678.013 1.61.673 1.111 1.056-.084.065-1.317-.38-1.254-1.009-.309.105-.663.234-1.022.371.679.015 1.61.672 1.111 1.056-.084.066-1.307-.375-1.256-1a51.38 51.38 0 00-1.283.515c.67.053 1.526.68 1.044 1.052-.083.064-1.258-.359-1.257-.964-.147.064-.278.122-.389.169-.315.14-1.574 1.064-1.671.975-.032-.026-.07-.053-.049-.05" fill="#789f3d"/><path d="M41.061 10.59c-.476-1.839 1.09-4.111 1.62-3.654.44.38-.138 1.785-.522 3.325-.232.935-.16.327.296-.21.94-1.1 3.295-2.09 1.85-.39-.47.552-1.376 1.102-1.662 1.416 5.653-2.05 1.414.388.594.769.63.27 2.208 1.943 2.046 2.493-.193.659-1.554.133-2.937-1.733 1.215 4.018.304 5.15-.955.959-1.19 3.756-2.117 1.766-1.657.835.102-.207.787-1.312.79-1.326-1.425.489-2.873.501-2.888.31-.027-.367 2.624-1.453 2.581-1.47-1.536-.615-1.984-2.494-1.726-2.543.959-.182 2.353.38 2.57 1.22" fill="#fbbf26"/><path d="M42.07 12.335c.022-.01.732-1.279-.53-1.058-.748.13-1.056 1.86.53 1.058" fill="#92d0d8"/><path d="M45.154 12.733c.199.767-.456 1.714-.676 1.523-.182-.159.057-.744.218-1.386.097-.39.066-.137-.124.088-.39.459-1.372.871-.77.163.195-.231.572-.46.693-.59-2.356.855-.591-.163-.249-.321-.262-.112-.92-.81-.852-1.04.08-.274.647-.055 1.223.724-.506-1.676-.126-2.147.399-.4.496-1.567.882-.737.69-.348-.042.085-.327.547-.328.551.593-.202 1.196-.208 1.204-.129.01.153-1.095.607-1.076.613.64.256.827 1.04.718 1.06-.4.075-.98-.158-1.07-.508" fill="#e95707"/><path d="M44.734 12.005c-.01.005-.307.534.22.443.312-.055.44-.776-.22-.443" fill="#fbbf26"/></svg>