<svg width="72" height="72" xmlns="http://www.w3.org/2000/svg"><path d="M68.476 54.341c.374.61-3.635 3.547-6.913 5.877-3.416-2.605-4.203-4.107-8.462-8.471-5.804-5.948-12.1-12.807-9.87-14.418 1.13-.82 3.152-3.084 3.624-4.235 7.182 4.442 16.338 12.618 21.62 21.247" fill="#d4d4d4"/><path d="M68.207 54.582c-.104-.359-2.152-1.327-2.274.375-.017.26.206 1.702.602 1.45.284-.184 2.02-1.48 1.73-1.768l-.058-.057m-2.145 1.854c-.073-.365-2.036-1.497-2.296.192-.037.257.069 1.712.483 1.493.3-.16 2.134-1.314 1.868-1.622l-.055-.063m-2.525 1.904c-.073-.366-2.036-1.495-2.296.193-.038.257.069 1.713.483 1.493.3-.159 2.134-1.314 1.866-1.623l-.053-.063" fill="#a09f9f"/><path d="M4.805 60.363c-.204.686 4.427 2.496 8.193 3.906 2.632-3.391 3.007-5.045 6-10.354 4.078-7.237 8.398-15.48 5.83-16.466-1.305-.5-3.842-2.17-4.595-3.164C14.436 40.42 7.69 50.67 4.805 60.363" fill="#d4d4d4"/><path d="M5.127 60.526c.009-.373 1.738-1.834 2.294-.22.085.247.239 1.698-.209 1.556-.322-.104-2.333-.913-2.126-1.265l.041-.07m2.549 1.243c-.022-.373 1.585-1.969 2.268-.403.105.237.376 1.674-.08 1.566-.331-.078-2.402-.723-2.223-1.09l.035-.074" fill="#a09f9f"/><path d="M10.607 62.962c-.023-.371 1.584-1.966 2.268-.402.104.238.374 1.672-.082 1.567-.33-.077-2.4-.723-2.222-1.09l.036-.075" fill="#a69b94"/><path d="M15.974 56.314c.716 16.342 39.774 10.06 40.19 5.319 3.441-39.037-41.3-30.684-40.19-5.319" fill="#bdbdbe"/><path d="M50.794 8.707c3.175-6.019 17.192-5.32 16.554 2.792-1.328-1.208-7.58-7.1-13.788-1.55-.99.885-1.78 1.546-2.648-.1-.258-.04-.136-1.107-.118-1.142" fill="#a09f9f"/><path d="M67.348 11.5c.75 3.119-4.839 17.33-9.903 19.59-5.32 2.373-5.914.205-5.243-3.757.527-3.114-1.494-15.204-.052-16.48 8.73-7.708 14.57-1.963 15.198.646" fill="#f4afb3"/><path d="M4.934 10.559c.06 0 2.82-2.18 3.652-2.379 6.815-1.617 9.14 4.537 10.566 1.962C20.84 7.095 8.249.553 4.934 10.56" fill="#a09f9f"/><path d="M18.998 12.541C17.648 4.851 3.5 4.403 3.5 16.07c0 1.95 3.124 7.985 3.884 9.59.939 1.982-.133 5.034 2.766 7.493 2.896 2.457 5.42 3.931 8.287 1.052 2.422-2.431 3.634-11.032 3.088-14.045-.444-2.45-2.54-7.696-2.527-7.618" fill="#f4afb3"/><path d="M20.286 37.274c-3.964-3.524-6.813-12.92-5.869-18.616 1.076-6.488 5.098-15.852 18.199-17.587C52.35-.105 55.598 13.476 53.822 28.101c-.75 6.16-7.524 9.313-13.983 10.609a38.309 38.309 0 01-3.19.5c-1.42.162-2.77.235-3.967.235-2.103 0-8.462 1.325-12.396-2.17" fill="#b1b1b2"/><path d="M46.41 28.64c-1.231.665-2.17-1.203-1.27-1.71 1.628-.92 2.266 1.175 1.27 1.71m-25.253-.383c-1.128.68-1.962-1.178-1.135-1.698 1.494-.94 2.049 1.148 1.135 1.698" fill="#31302f"/><path d="M38.95 35.748c-4.597 7.387-12.456 7.361-15.903 5.101-8.395-5.504-2.31-16.99 3.028-10.699 1.505 1.773-1.528 4.83-1.836 2.873-.09-.566-2.185 1.929 1.064 2.861 1.61.464 2.851.225 3.014-1.78.61-7.512 12.4-1.19 10.634 1.644" fill="#a09f9f"/><path d="M22.492 59.236c.422 12.244 23.444 7.536 23.69 3.985 2.027-29.247-24.344-22.991-23.69-3.985" fill="#d4d4d4"/><path d="M15.556 69.646c4.941 1.375 10.728.403 11.607-5.574.773-5.264-.087-8.56-4.996-11.272-10.32-5.7-17.182 13.909-6.61 16.846" fill="#a09f9f"/><path d="M17.372 68.668c3.111.865 6.755.254 7.307-3.509.488-3.316-.053-5.39-3.144-7.099-6.499-3.588-10.82 8.759-4.163 10.608" fill="#f4afb3"/><path d="M21.374 57.817c1.224.342 2.66.1 2.878-1.381.191-1.305-.022-2.123-1.238-2.795-2.56-1.413-4.261 3.448-1.64 4.176m-6.044-.167c1.289.357 2.797.104 3.026-1.453.2-1.372-.023-2.23-1.302-2.939-2.69-1.485-4.478 3.626-1.724 4.391m-3.494 4.693c1.113.31 2.414.09 2.611-1.253.174-1.184-.02-1.925-1.122-2.536-2.322-1.282-3.866 3.13-1.489 3.79" fill="#f4afb3"/><path d="M52.417 70.994c-5.126.142-10.506-2.194-9.913-8.206.522-5.295 2.154-8.287 7.573-9.736 11.393-3.044 13.31 17.638 2.34 17.942" fill="#a09f9f"/><path d="M50.893 69.607c-3.23.091-6.617-1.381-6.244-5.166.33-3.335 1.357-5.219 4.769-6.132 7.174-1.916 8.383 11.107 1.475 11.298" fill="#f4afb3"/><path d="M49.633 58.113c-1.27.036-2.606-.543-2.458-2.035.128-1.313.535-2.053 1.877-2.413 2.825-.755 3.3 4.374.58 4.448m5.906 1.295c-1.336.036-2.739-.575-2.584-2.14.137-1.381.562-2.16 1.974-2.537 2.969-.794 3.468 4.596.61 4.677m2.256 5.394c-1.154.032-2.363-.494-2.229-1.845.117-1.19.484-1.864 1.703-2.19 2.561-.684 2.992 3.967.526 4.035" fill="#f4afb3"/><path d="M33.572 55.209c-.615.333-1.084-.601-.634-.856.814-.459 1.132.588.634.856" fill="#31302f"/><path d="M47.542 9.03c-2.267-.552-1.429 6.612 1.864 3.31.936-.937.682-1.508.805-1.282.616 1.136 1.46 2.214 2.716 2.167a2.362 2.362 0 001.36-3.988c-.483-.591 1.05.259 2.089-1.247 1.154-1.672-2.1-1.875-1.947-2.269 1.712-4.328-2.688-3.386-3.564-1.68-.373-.736-.89-2.628-2.625-1.755-1.95.98.042 3.092-1.464 3.022-1.543-.072-2.016 1.453-1.45 2.416.542.92 2.088 1.277 2.216 1.306" fill="#ee7a00"/><path d="M49.01 8.336c-.404.143.161.829.376.46.158-.27-.227-.513-.376-.46m1.058-.14c-.592.618.615 1.036.494.212-.021-.136-.437-.27-.494-.212m-.454.907c-.264-.274.274-.46.22-.093-.01.06-.195.12-.22.093m.673.145c-.233.359.635.557.579.132-.04-.31-.494-.265-.58-.132m.751-.758c-.088.849 1.122.44.52-.136-.1-.096-.512.053-.52.136m.197.995c-.376-.058-.067-.533.116-.208.03.052-.08.212-.116.208m-.262.608c-.264-.275.273-.46.22-.094-.01.062-.195.12-.22.094m-.468-2.448c-.087.85 1.123.442.52-.133-.1-.097-.51.05-.52.133m-.465 2.266c-.265-.275.274-.46.218-.095-.007.062-.194.121-.218.095m-.651-.242c-.264-.276.273-.46.219-.095-.01.06-.194.12-.22.095m.16-1.27c-.263-.274.274-.46.219-.094-.008.062-.194.12-.22.094m.107-.632c-.263-.274.273-.46.22-.093-.01.06-.195.121-.22.093m.139-1.595c-.404.143.16.83.377.46.158-.269-.227-.512-.377-.46m1.058-.139c-.592.618.617 1.036.494.212-.02-.137-.436-.272-.494-.212m-.455.907c-.263-.274.274-.46.22-.093-.01.06-.194.12-.22.093m.673.144c-.231.36.636.557.58.132-.04-.31-.495-.265-.58-.132m.75-.758c-.088.85 1.124.443.52-.135-.1-.095-.51.053-.52.135m.199.994c-.377-.055-.067-.53.114-.208.031.054-.078.214-.114.209m-.264.609c-.263-.274.273-.461.22-.094-.01.062-.194.121-.22.095m-3.07-.308c-.089.85 1.122.443.52-.135-.1-.096-.511.053-.52.135m3.401.807c-.264-.275.274-.46.219-.095-.01.062-.195.12-.22.095m-1.913-.925c-.263-.274.274-.46.219-.093-.01.06-.194.12-.22.093m.161-1.268c-.265-.276.272-.462.219-.095-.01.062-.194.121-.22.095m-.981 1.003c-.265-.273.273-.46.218-.094-.008.061-.194.12-.218.094m2.212 2.069c-.09.85 1.123.44.52-.135-.101-.097-.512.052-.52.135m.852-1.543c-.265-.275.274-.46.22-.094-.01.06-.194.121-.22.094m.052 1.379c-.264-.275.274-.46.219-.094-.01.061-.194.12-.22.094" fill="#ffeb00"/></svg>