<svg width="72" height="72" xmlns="http://www.w3.org/2000/svg"><path d="M19.205 4.554c.857.333 2.751.477 3.102 1.194.78-1.753-.762-6.324-5.278-4.193-2.017.96 1.394 2.695 2.176 3m2.718 39.2c-.38-.838-.624-2.724-1.358-3.036 1.707-.875 6.348.422 4.465 5.051-.847 2.069-2.762-1.248-3.107-2.015m4.142 19.208c2.473-.691 3.931-.778 4.152-1.541.64-2.21-7.308-6.592-9.744-1.991-1.399 2.66 4.504 3.837 5.592 3.532m-12.132 2.934c-1.423 3.081-1.842 4.967-2.883 5.094-3.014.37-7.042-10.93-.538-13.14 3.76-1.266 4.048 6.689 3.42 8.046" fill="#f08433"/><path d="M54.3 38.55c-7.086-.4-21.225-4.792-24.653-3.278-5.282 2.33-11.067 8.832-7.862 19.304 4.521 14.771 16.823 10.583 16.708 10.688-9.599 8.696-25.885 4.991-32.952-9.309-3.537-7.155-7.307-23.212-1.626-35.19 21.16-32.773 49.979-15.488 59.27-2.859 2.48 3.371 8.3 5.513 7.783 8.967-1.407 9.387-6.3 12.262-16.669 11.676" fill="#6d952c"/><path d="M36.635 66.547c.106-.121 1.588.948 3.644 1.075 1.242.077 3.077-.3 3.854-1.172-.195-1.045-2.827-1.74-4.173-1.967.43-1.026 1.218-4.094.79-4.541-2.326.247-2.849 1.447-3.44 2.475-1.002 1.742-.949 3.56-1.012 3.565l.05.145c.02.1.11.119.239.082-.078.075-.102.147-.04.213l.088.125" fill="#f08433"/><path d="M54.165 32.233c.104.011.617.462 1.602.872 1.49.621 3.971 1.278 7 1.15 2.459-.103 4.636-.608 6.737-1.808-.612.776-.658.997-1.344 1.236-1.304.43-3.658.934-6.01.958-2.785.026-5.6-.52-7.063-1.2-.674-.312-1.8-1.301-.922-1.208m2.671-2.63c-1.208.518-1.776-1.434-.888-1.837 1.6-.727 1.864 1.417.888 1.837" fill="#31302f"/><path d="M56.216 34.227c-2.542 1.01-3.77-2.857-1.902-3.641 3.377-1.416 3.96 2.826 1.902 3.641" fill="#f4afb3"/><path d="M38.426 32.973c-.981-1.575-.993-1.304-3.568-5.68-3.376 1.888-6.401 11.137 3.465 13.158 4.414.89 1-6.04.103-7.478" fill="#f08433"/><path d="M35.616 9.055c-3.58 1.009-5.307-2.858-2.678-3.642 4.752-1.415 5.574 2.825 2.678 3.642m-8.446.361c3.618-.864 3.245-5.085.568-4.488-4.837 1.084-3.493 5.189-.567 4.488m13.623-2.094c-1.79.505-2.654-1.429-1.34-1.822 2.376-.707 2.788 1.414 1.34 1.822m-21.024 6.48c-1.955 3.169-5.84 1.49-4.434-.868 2.545-4.26 6.015-1.693 4.433.868m-5.975 5.987c2.081-3.087-1.046-5.944-2.614-3.69-2.832 4.075.932 6.186 2.614 3.69M22.413 9.02c-.977 1.585-2.921.746-2.217-.434 1.273-2.13 3.007-.847 2.217.434m.835 3.219c1.728-.689 1.24-2.75-.04-2.262-2.318.884-1.358 2.817.04 2.262m-6.123 7.301c1.728-.69 1.242-2.75-.04-2.263-2.318.884-1.357 2.819.04 2.262m13.585-7.546c1.728-.688 1.241-2.749-.042-2.26-2.316.882-1.356 2.815.041 2.26m-8.219 5.418c2.69-1.07 1.932-4.277-.062-3.518-3.606 1.374-2.112 4.385.062 3.518m-5.567 6.925c-3.174 1.941-5.882-1.313-3.563-2.78 4.192-2.65 6.13 1.208 3.563 2.78M8.89 26.972c3.25-1.812 1.749-5.772-.667-4.473-4.364 2.354-1.96 5.942.668 4.473m-3.015 3.782c1.48-1.131.452-2.984-.65-2.166-1.992 1.478-.544 3.08.65 2.166m7.118-2.26c1.477-1.13.451-2.983-.651-2.165-1.992 1.478-.544 3.08.651 2.165m-8.184 7.45c2.299-1.759.702-4.641-1.013-3.37-3.098 2.3-.847 4.793 1.012 3.37m-.591 3.81c1.478-1.13.452-2.983-.65-2.165-1.992 1.478-.545 3.08.65 2.165m5.196-7.521c1.478-1.13.45-2.983-.651-2.165-1.991 1.478-.544 3.08.651 2.165M8.363 20.96c1.478-1.13.451-2.982-.65-2.165-1.992 1.48-.545 3.08.65 2.165m4.769-7.716c.87-.664.267-1.755-.383-1.273-1.171.87-.32 1.812.383 1.273m4.954-3.989c.871-.665.267-1.755-.382-1.273-1.171.87-.32 1.812.382 1.273M4.503 26.863c.87-.665.265-1.755-.384-1.274-1.171.87-.32 1.812.384 1.274m4.735 17.172c.87-.666.266-1.755-.382-1.274-1.172.87-.32 1.812.382 1.274m8.374-15.092c.87-.664.266-1.756-.383-1.275-1.171.87-.32 1.814.383 1.275m12.483-11.988c.87-.666.266-1.756-.383-1.274-1.171.869-.319 1.81.383 1.274m16.695-3.787c.87-.665.266-1.755-.382-1.274-1.173.87-.32 1.812.382 1.274" fill="#506f15"/><path d="M18.24 52.142c.869-.665.266-1.754-.383-1.274-1.171.87-.32 1.813.382 1.274m.986-5.842c.306 3.027-3.045 3.872-3.304 1.643-.466-4.027 3.058-4.091 3.304-1.644m-.903-4.771c-1.055 1.975.99 3.49 1.789 2.044 1.443-2.61-.937-3.64-1.789-2.044" fill="#a6c13b"/><path d="M20.766 37.822c-1.615 1.547-.144 3.624 1.065 2.501 2.183-2.03.242-3.753-1.065-2.5m3.508-.526c.87-.665.266-1.756-.383-1.275-1.171.87-.32 1.813.383 1.275m-8.188 6.056c.87-.667.266-1.757-.383-1.275-1.172.87-.32 1.811.383 1.275m11.444-8.056c1.022-.391.752-1.607-.006-1.33-1.37.5-.82 1.646.006 1.33m-2.698-1.727c.87-.665.266-1.755-.382-1.274-1.172.87-.321 1.812.382 1.274" fill="#a6c13b"/></svg>