<svg width="72" height="72" xmlns="http://www.w3.org/2000/svg"><path d="M32.049 5.686c-.145 1.36 1.829.705.847-.216-.164-.154-.834.083-.847.216m.321 1.592c-.613-.09-.108-.85.19-.335.048.087-.13.344-.19.335m-.43.975c-.428-.439.447-.737.359-.15-.016.097-.317.193-.359.15m-.76-3.918c-.144 1.36 1.83.708.847-.215-.164-.155-.834.083-.847.215m-.76 3.627c-.43-.439.447-.737.358-.15-.015.096-.316.192-.357.15m-1.061-.389c-.43-.44.446-.737.357-.15-.015.097-.316.193-.358.15m.261-2.033c-.429-.438.447-.735.357-.149-.015.097-.316.193-.357.15m.174-1.01c-.43-.44.446-.737.357-.15-.014.097-.316.194-.357.15" fill="#ee7a10"/><path d="M25.308 8.332c-.082 1.553 1.57 3.122 1.924 2.67.295-.377-.41-1.41-.978-2.583-.344-.713-.185-.237.277.119.946.732 3.023 1.145 1.565.014-.473-.365-1.3-.661-1.584-.868 4.932.73 1.084-.539.353-.712.467-.317 1.472-1.916 1.249-2.332-.267-.496-1.284.145-2.1 1.867.321-3.423-.609-4.182-.933-.615-1.593-2.82-2.014-1.075-1.486-.4.118.148.858.925.861.934-1.238-.16-2.416.063-2.396.22.039.297 2.373.74 2.34.761-1.144.742-1.195 2.323-.977 2.32.81-.01 1.849-.686 1.885-1.395" fill="#52bbc9"/><path d="M26.17 6.748c.02.006.81.908-.253.937-.629.016-1.168-1.322.254-.937" fill="#fbbf26"/><path d="M35.382 7.567c-1.239.477-1.107 3.955 1.413 2.462.71-.698.516-1.123.61-.954.466.845 1.106 1.646 2.056 1.611.882-.031 2.316-1.416 1.03-2.965-.365-.442.801.194 1.584-.929 1.475-2.116-1.506-1.642-1.389-1.935.344-.855.488-1.571.027-1.936-1.2-.95-2.087.672-2.352 1.112-.29-1.623-3.916-2.477-3.056.888-1.167-.054-2.03.958-1.6 1.672.41.685 1.58.95 1.677.974" fill="#e95707"/><path d="M38.388 5.325c.04.006 1.616 1.041.068 2.33-1.515 1.263-2.856-2.784-.068-2.33" fill="#fbbf26"/><path d="M41.231 6.88c-.734-.966-.358-2.676.069-2.532.355.117.355 1.082.504 2.078.09.605-.016.231.125-.193.288-.872 1.448-2.014 1.003-.67-.143.436-.548.974-.64 1.228 2.86-2.552.936-.11.54.31.44.008 1.79.615 1.829.978.046.432-.893.448-2.174-.32 1.71 2.073 1.443 2.954-.332.792.212 2.49-.827 1.543-.781.884.01-.144.146-.959.145-.966-.73.626-1.587.978-1.642.87-.107-.21 1.205-1.48 1.175-1.48-1.064.005-1.79-.992-1.65-1.083.527-.335 1.494-.337 1.83.105" fill="#52bbc9"/><path d="M42.482 7.539c.01-.012.123-.928-.575-.497-.411.255-.172 1.345.575.497" fill="#fbbf26"/><path d="M22.545 35.385c-2.063-2.05-5.331 1.82-3.305 3.96.28.295-3.073.097-3.662 2.572-.708 2.969 1.87 4.427 1.725 4.442-1.044.11-2.427.71-3.07 1.831-.515.895-.397 3.352.764 4.081-3.008-.246-4.404 5.756 1.153 6.408-3.626 4.852 2.417 10.995 8.393 5.505 1.653 9.16 10.029 6.291 12.592 2.34 2.961 2.254 8.801 4.176 9.9-.666 4.352 3.653 7.813-1.509 7.21-3.74 1.867.585 7.064-.655 3.498-6.594.589-.866 7.198-3.17-.283-8.017 3.265-3.031 1.191-7.745-2.535-7.87 2.574-3.644-1.433-7.425-5.329-4.475-.836-3.11-6.304-4.089-9.231.531-.834 1.315-4.524-4.25-9.58.707-.45-1.447-5.184-7.114-8.24-1.015" fill="#fde2c4"/><path d="M34.688 6.78c-8.617.086-13.681 4.569-15.614 10.157-1.145.463-3.971 3.8-4.435 6.563-.505 3.008-.671 6.697-3.63 8.387-.299 1.78 6.202-1.916 7.53-5.846.696 3.368 2.353 6.542 4.914 8.896 8.862 8.15 27.388 5.117 26.95-12.54.142.228.293.445.454.642 1.94 2.377 4.63 4.963 3.932 8.25 1.17 1.434 2.755-6.07.486-9.594-.997-1.55-3.536-5.23-5.578-6.336-.88-4.39-3.175-7.348-11.197-8.351-1.34-.168-2.61-.24-3.813-.229z" fill="#e7d29a"/><path d="M34.983 34.722c.534-.01 1.601-.316 1.625-.817 0-.008-.854.264-1.467.367-.027-.41-.13-1.668-.1-1.87.022-.138.244-1.507.134-1.507-.637 0-.497 2.403-.597 3.163a1.344 1.344 0 00-.018.218 14.127 14.127 0 01-1.528-.345c-.005.62 1.084.806 1.95.79" fill="#3b3a39"/><path d="M33.592 26.582c3.097-1.81 6.279 1.62 2.082 5.478-.83.763-1.676.12-2.132-.571-1.025-1.554-2.288-3.54.05-4.907z" fill="#d79ea3"/><path d="M46.8 25.91c1.316-.978 2.12.748 1.31 1.325-.998.712-2.038-.783-1.31-1.325zm-24.718.884c1.09-.893 1.756.685 1.088 1.21-.829.651-1.69-.716-1.088-1.21z" fill="#3b3a39"/><path d="M43.563 31.266c-2.056-2.992 2.582-3.908 3.783-2.08 1.486 2.26-2.646 3.736-3.783 2.08zm-19.616.409c-2.057-2.994 2.58-3.91 3.783-2.08 1.485 2.26-2.646 3.735-3.783 2.08z" fill="#f9d4d5"/><path d="M49.621 16.406c-.034-.01 1.049 8.156 5.635 8.998-.067-.543-.3-2.539-1.567-4.71-1.378-2.365-3.7-4.169-4.068-4.288zm-30.781 1.76c-.014-.03-5.484 6.219-3.057 10.125.368-.411 1.726-1.918 2.528-4.295.87-2.584.686-5.482.529-5.83z" fill="#d79ea3"/><path d="M18.121 10.627c-1.876 1.42-1.61 4.983 1.953 4.787 1.194-.066 1.09-2.283 1.168-.121.034.912 1.473 1.86 2.709 1.273-.035 1.123.745 2.21 2.568 2.11.48-.027.706-.474.82-.721.041.022.084.043.124.061.007.123.014.304.023.558.039 1.08 2.451 2.217 3.361-.366 1.515 4.753 4.549 2.397 4.765.203.648 1.243 3.997.837 3.997-1.185-.088 1.038 3.401 1.216 3.3-1.388 1.216 1.677 3.951 1.832 3.997-1.204.009-.578.45.724 1.384 1.246 2.575 1.44 4.76.129 3.31-2.576 2.771.245 2.217-4.1-.739-3.07a4.805 4.805 0 00-.495-1.307c3.98.351 2.282-7.13-3.213-2.23 1.03-3.03-5.083-5.568-6.494-2.186-5.377-4.666-7.179 1.562-7.267 2.418-1.15-3.095-6.065-4.272-6.623 1.57-1.721-5.233-5.509-2.963-5.67-.127-.97-3.164-5.794.055-2.978 2.255" fill="#fde2c4"/><path d="M41.383 51.863c-.417.118-2.797 16.746-2.797 17.688.712.6 1.815.505 3.637.625 2.205-2.462 4.96-14.894 5.243-18.912-.628-.032-5.474.424-6.083.6zM31.027 70.938c1.822-.12 2.925-.025 3.639-.626 0-.941-2.38-17.568-2.799-17.689-.607-.173-5.456-.628-6.082-.596.286 4.02 3.039 16.449 5.242 18.91z" fill="#f1dca8"/><path d="M30.109 7.24c-.215-.286-.567-.544-1.01-.765-.13 1.339-1.785 2.047-1.758 1.273.016-.411 1.042-1.207 1.467-1.37.017-.008.035-.01.055-.014a8.027 8.027 0 00-1.573-.487c.163 1.35-1.297 2.414-1.453 1.64-.083-.412.75-1.439 1.136-1.7a10.336 10.336 0 00-1.876-.152c.406 1.197-.699 2.442-1 1.77-.157-.351.359-1.412.664-1.76l-.096.006a7.556 7.556 0 00-1.361.213c.565 1.006-.28 2.28-.627 1.717-.183-.296.167-1.322.39-1.629a.212.212 0 01.033-.035c-.446.12-.867.27-1.247.43.507.756-.056 1.812-.375 1.395-.166-.215.014-1.02.164-1.307a12.15 12.15 0 00-1.31.67.254.254 0 01-.036.155c-.172.25-.861.794-1.139.741-.53-.098.214-1.08 1.145-.94.174-.13.353-.253.537-.363-.38.018-1.029-.056-1.17-.244-.314-.423.89-.642 1.477.063.378-.21.77-.386 1.169-.53-.377-.024-1.03-.186-1.148-.396-.256-.464.99-.52 1.468.275a.034.034 0 01.003.01c.33-.105.66-.19.992-.256-.37-.105-.917-.36-.987-.575-.166-.497 1.043-.34 1.381.505a9.484 9.484 0 011.57-.119c-.508-.296-1.262-.921-1.278-1.278-.04-.805 1.69-.092 1.848 1.298a7.634 7.634 0 011.686.293l.035.01c-.473-.394-1.153-1.204-1.101-1.582.117-.854 1.814.246 1.664 1.746a.04.04 0 01-.01.022c.528.19 1.041.428 1.5.743.89.61.351.766.17.528m9.052.339c.215-.285.566-.544 1.01-.766.13 1.338 1.786 2.047 1.757 1.274-.014-.411-1.042-1.208-1.466-1.371a.315.315 0 00-.055-.012 7.925 7.925 0 011.573-.488c-.163 1.35 1.297 2.414 1.452 1.64.084-.411-.75-1.44-1.135-1.7a10.528 10.528 0 011.876-.15c-.406 1.196.699 2.441 1 1.77.158-.354-.36-1.414-.664-1.761.033 0 .064.004.095.005.465.028.925.105 1.363.213-.566 1.007.278 2.281.626 1.717.183-.295-.169-1.32-.391-1.629a.15.15 0 00-.034-.035c.447.122.87.272 1.249.43-.507.756.056 1.813.375 1.395.165-.215-.015-1.02-.164-1.305a12.21 12.21 0 011.31.668.244.244 0 00.035.155c.174.25.861.795 1.14.742.53-.098-.215-1.08-1.146-.94h.001a7.85 7.85 0 00-.536-.365c.38.021 1.027-.055 1.167-.243.316-.424-.888-.641-1.476.062a8.29 8.29 0 00-1.167-.528c.375-.026 1.03-.187 1.146-.397.257-.464-.988-.52-1.467.276a.018.018 0 00-.003.01 9.06 9.06 0 00-.993-.258c.37-.104.917-.36.989-.573.165-.497-1.043-.34-1.383.503a9.783 9.783 0 00-1.569-.118c.509-.295 1.262-.921 1.28-1.278.038-.805-1.693-.091-1.85 1.298a7.55 7.55 0 00-1.686.294l-.035.01c.473-.397 1.153-1.204 1.102-1.582-.119-.855-1.816.245-1.667 1.744a.047.047 0 00.01.023 6.651 6.651 0 00-1.5.744c-.886.609-.349.765-.169.527" fill="#728442"/><path d="M27.327 4.98c-1.578-.61-1.412-5.044 1.801-3.14.904.891.659 1.432.778 1.217.596-1.077 1.411-2.101 2.623-2.056 1.125.041 2.951 1.805 1.313 3.782-.467.563 1.021-.248 2.019 1.184 1.88 2.697-1.92 2.095-1.771 2.467.438 1.09.597 1.977.035 2.469-.467.408-2.662-.014-3-.575-.656 1.506-4.993 2.318-3.895-1.974-1.49.068-2.59-1.221-2.043-2.135.524-.873 2.017-1.21 2.14-1.24" fill="#fbbf26"/><path d="M28.745 5.44c-.659.229.262 1.327.613.737.258-.433-.37-.82-.613-.736m1.725-.223c-.965.987 1.003 1.658.804.339-.034-.221-.712-.437-.805-.34m-.741 1.452c-.429-.44.448-.737.359-.152-.015.099-.317.194-.359.152m1.097.231c-.377.574 1.036.89.946.21-.067-.495-.807-.424-.946-.21" fill="#ee7a10"/><path d="M38.852 67.258c-.101.02-.212 1.696-.26 2.178-.048.49 3.3 1.082 3.804.656.164-.136 1.102-2.091 1.045-2.088-.663.018-4.13-.261-4.59-.746zm-4.452.76c-.46.487-3.928.767-4.59.748-.057-.001.882 1.95 1.045 2.088.505.426 3.853-.167 3.805-.657-.048-.482-.16-2.157-.26-2.18z" fill="#ca9965"/></svg>