<svg width="72" height="72" xmlns="http://www.w3.org/2000/svg"><path d="M47.975 59.184c-.304-1.852 4.52-10.312 2.524-3.453.658-.591 3.923-4.679 6.41-3.905-.197 1.518.008 1.893 2.246 1.056.926-.347 3.87-.95 3.688-.255-.046.173-.16.971-1.386 1.354-1.54.482 6.368-1.09 4.098.621 2.86-.342 4.48-.294 4.996.194.73.688.866 2.233-1.923 2.273-2.704.037 3.57 2.474-3.28.995-.552-.12.951.957 1.104 1.058 0 1.021-7.127-1.881-3.203.31 2.103 1.174-4.355.03-4.326.052 1.879 1.373.526 1.736-2.285.827-4.843-1.569 1.108.65-2.03 1.112-1.854.272-9.309-.478-6.633-2.24" fill="#6d6a66"/><path d="M14.657 16.263c2.286 2.936 6.401 2.806 8.796 4.146 1.2-4.728 2.566-6.55-1.653-11.9-1.097-1.391-1.813-2.048-3.461-2.97-1.803-1.61-4.744-2.312-6.317-.809-1.72 1.645-1.818 5.816 2.635 11.533" fill="#7b7772"/><path d="M12.022 4.73c-.013.017 5.54 1.283 7.797 6.882.731 1.82 3.184 7.23 4.782 2.502.557-1.645-.963-2.687-2.183-4.604-.771-1.212-1.46-2.095-3.397-3.506-2.511-1.832-5.86-2.814-6.999-1.274" fill="#9f9990"/><path d="M50.223 14.862c-2.286 2.936-6.402 2.805-8.796 4.146-1.201-4.727-2.567-6.55 1.652-11.9 1.097-1.391 1.814-2.049 3.462-2.97 1.802-1.61 4.743-2.31 6.316-.81 1.721 1.645 1.818 5.817-2.634 11.534" fill="#7b7772"/><path d="M52.857 3.329c.012.016-5.54 1.283-7.795 6.883-.733 1.818-3.186 7.228-4.784 2.5-.557-1.644.963-2.687 2.183-4.604.771-1.212 1.46-2.094 3.397-3.506 2.512-1.83 5.861-2.814 6.999-1.273" fill="#9f9990"/><path d="M19.053 63.148c-1.349 7.575 9.244 8.757 2.638 1.47-.832-.917-.38-1.087-.249-1.647-.428-.564-1.69.52-2.39.177m30.563.276c.053 7.695-10.583 7.051-2.846.998.973-.761.557-1.005.521-1.578.518-.485 1.578.8 2.325.58" fill="#6d6a66"/><path d="M33.135 67.955c37.32 4.44 15.776-54.864-12.036-32.498-6.921 5.57-16.648 31.304 12.036 32.498" fill="#7b7772"/><path d="M32.926 38.044c5.77.23 13.213 2.874 16.618.335 4.013-1.276 6.522-7.91 1.894-12.549-6.525-6.536-4.162-19.402-19.415-18.787-7.714.31-14.062 4.06-17.14 19.475-3.556 3.137-4.429 8.948.304 11.96 4.584 2.915 14.847-.55 17.74-.434" fill="#bcb7ae"/><path d="M22.043 31.637c-1.345 2.11 2.407 3.479 3.436 1.934 1.861-2.795-2.349-3.64-3.436-1.934m17.722-.643c-1.345 2.11 2.406 3.479 3.436 1.934 1.86-2.794-2.348-3.64-3.436-1.934" fill="#eb606b"/><path d="M22.473 29.569c1.03.75 2.096-.832 1.347-1.401-1.354-1.03-2.177.796-1.347 1.4m20.463.011c.853.687 1.737-.76 1.116-1.282-1.123-.941-1.806.727-1.116 1.282M32.882 34.22c-.028.426.062.253.469.253.01 0-.202-1.426-.185-1.625.01-.113.116-1.237.028-1.231-.505.03-.27 1.98-.312 2.604" fill="#31302f"/><path d="M33.237 34.74c.422-.034 1.253-.337 1.246-.745 0-.009-.945.37-1.396.42-.032.002-.599-.035-1.436-.22.027.506.9.601 1.586.546" fill="#31302f"/><path d="M33.274 29.54c1.18.07 2.353 1.22-.061 2.601-.741.426-3.316-2.798.061-2.6" fill="#6b6a6a"/><path d="M32.65 64.152c19.532 2.324 8.256-28.711-6.297-17.007-3.622 2.914-8.712 16.382 6.298 17.007" fill="#9f9990"/><path d="M25.573 42.751c1.043-3.985 7.322-3.528 3.853-1.711-1.35.706 2.978-.438-1.783 1.564-.784.33-.55.568-.628.957-.431.227-.906-.82-1.442-.81m15.467 2.025c-1.044-3.985-7.323-3.53-3.853-1.712 1.35.707-2.978-.437 1.782 1.566.784.328.55.567.629.955.43.227.906-.82 1.442-.81" fill="#bcb7ae"/><path d="M18.14 30.053c-5.784 1.583-8.452 3.118-13.495 6.447-2.173 1.434-1.219.944 2.667-1.287 3.124-1.794 7.29-3.923 10.728-4.59 1.024-.2.468-.67.1-.57m-.268 1.374c-6.79 2.456-9.845 4.555-15.58 9.035-2.47 1.932-1.373 1.25 3.079-1.8 3.577-2.452 8.372-5.41 12.436-6.541 1.21-.34.498-.85.065-.694m2.146 1.337c-6.79 2.455-9.845 4.554-15.58 9.035-2.47 1.932-1.373 1.25 3.078-1.802 3.578-2.452 8.374-5.407 12.438-6.54 1.209-.34.497-.849.064-.693m27.422-2.602c5.783 1.58 8.45 3.116 13.494 6.446 2.173 1.435 1.219.945-2.667-1.288-3.124-1.792-7.29-3.92-10.728-4.588-1.025-.202-.467-.672-.1-.57m.268 1.373c6.79 2.456 9.845 4.554 15.58 9.036 2.47 1.93 1.373 1.25-3.079-1.802-3.577-2.451-8.372-5.408-12.436-6.54-1.21-.339-.497-.85-.065-.694m-2.145 1.337c6.788 2.455 9.844 4.553 15.579 9.034 2.47 1.931 1.373 1.251-3.079-1.8-3.578-2.452-8.372-5.408-12.436-6.54-1.21-.34-.497-.852-.064-.694" fill="#edeced"/></svg>