<svg width="72" height="72" xmlns="http://www.w3.org/2000/svg"><path d="M32.903 51.014c.088 10.882.905 14.759.775 16.393-.082 1.018-.214.526-1.689 1.746-.01.01 1.403-.494 1.596-.442.177.048-.255.699-.441 1.397.6-.612.78-1.11 1.029-1.373.136-.144-.077 1.103.243 1.28.104.056.008.122.246-1.27.155.259 1.132.59 1.112.561-.527-.792-1.058-.16-1.288-1.804-.202-1.433-.233-9.676-.177-16.72.023-2.893-1.408.018-1.406.232" fill="#54432b"/><path d="M31.394 29.85c-.203 2.884-.034 4.17-.555 10.644 6.455.942 7.408 1.38 9.597.717-.369-8.194-1.235-13.43-1.097-13.504 4.02-2.121 5.938-11.154 3.673-15.64-.79-1.229 3.783 2.61 7.528 1.306-5.026-1-12.036-6.541-13.096-7.247-8.69-5.789-18.366 1.424-20.217 9.932-1.502 6.905 3.835 14.125 14.167 13.792" fill="#c5c4c5"/><path d="M25.445 23.716c.116 1.926 3.122 1.065 3.066-.366-.102-2.588-3.16-1.191-3.066.366" fill="#f4afb3"/><path d="M26.807 21.389c.855.038.752-1.266.12-1.307-1.145-.073-.812 1.276-.12 1.307" fill="#31302f"/><path d="M21.95 23.795c-4.53 2.569-13.408 7.833-12.93 10.062.1.472 6.968-4.752 10.834-6.495-3.228 2.329-11.174 6.732-10.37 6.82.784.088 8.187-3.357 14.771-7.694 1.054-2.35-.655-3.627-2.303-2.693" fill="#f18d18"/><path d="M27.74 53.178c-6.226-6.312-4.865-15.263 2.231-18.37 11.448-5.013 16.826-.467 23.191 5.015 5.899 5.08 12.006 13.394 9.084 14.658-.765.33-4.868-3.818-5.683-3.61-7.119 1.813-12.55 3.789-17.332 4.847-3.25.718-9.23-.248-11.49-2.54" fill="#c5c4c5"/><path d="M53.949 45.302c-6.065-1.504-18.737-1.965-15.589-7.8 2.077-3.848 18.928 8.628 15.589 7.8" fill="#7b7772"/><path d="M39.035 51.906c.087 10.883.904 14.76.774 16.393-.081 1.019-.214.526-1.688 1.748-.01.008 1.402-.495 1.595-.443.177.048-.254.698-.44 1.396.6-.612.779-1.11 1.029-1.372.136-.145-.077 1.103.243 1.279.103.056.008.122.246-1.27.154.26 1.13.59 1.112.562-.527-.792-1.059-.16-1.289-1.806-.2-1.432-.233-9.674-.177-16.718.023-2.893-1.407.017-1.405.23" fill="#54432b"/><path d="M31.53 4.746c-.043-.02-.74.344-1.514.582a7.831 7.831 0 01-.568.15c.422.561-.343 1.775-.465 1.776-.716.006-.388-1.182.189-1.716a18.6 18.6 0 01-1.372.224c.276.647-.782 1.639-.9 1.609-.67-.166-.118-1.163.543-1.57-.26.028-.508.05-.73.062a11.68 11.68 0 00-.525.05c.223.706-1.093 1.503-1.207 1.448-.61-.298.109-1.135.83-1.408-.352.037-.74.076-1.057.095-.625.494-2.046.551-1.846-.174.033-.118 1.413-.537 1.855.007.153-.003.336-.014.539-.03-.77-.205-1.649-1.209-.97-1.508.115-.05 1.397.797 1.147 1.494.382-.033.822-.082 1.272-.139-.77-.204-1.649-1.21-.97-1.508.115-.05 1.386.79 1.15 1.485a59.03 59.03 0 001.612-.228c-.75-.247-1.55-1.197-.895-1.486.114-.05 1.336.755 1.164 1.442.186-.03.353-.058.491-.082.4-.073 2.1-.773 2.186-.647.027.042.064.082.04.072" fill="#6f813a"/><path d="M31.83 5.147c.034-.014.569.293 1.169.505.134.046.282.091.44.134-.348.428.213 1.403.309 1.408.561.026.342-.915-.094-1.352.341.085.713.159 1.069.218-.237.499.56 1.31.655 1.29.53-.109.13-.908-.377-1.247.204.03.398.053.572.07.086.009.231.03.41.055-.197.549.81 1.215.901 1.174.486-.213-.05-.893-.607-1.13.276.04.58.083.827.107.474.41 1.587.497 1.454-.078-.022-.093-1.091-.465-1.457-.052a6.607 6.607 0 01-.42-.04c.61-.137 1.332-.898.81-1.152-.09-.045-1.123.58-.95 1.135-.298-.038-.642-.09-.993-.148.61-.137 1.332-.898.81-1.153-.089-.043-1.113.577-.951 1.13a51.64 51.64 0 01-1.256-.23c.596-.172 1.254-.892.748-1.138-.086-.043-1.07.551-.959 1.094a16.358 16.358 0 01-.381-.079c-.312-.07-1.623-.672-1.694-.575-.024.03-.054.061-.036.054" fill="#759d35"/><path d="M31.122 6.362c-.09 1.743 1.749 3.504 2.143 2.996.327-.421-.456-1.583-1.089-2.9-.385-.798-.206-.265.307.136 1.054.821 3.369 1.283 1.745.015-.527-.412-1.448-.742-1.766-.973 5.495.819 1.209-.606.395-.8.52-.356 1.638-2.15 1.39-2.617-.297-.558-1.431.163-2.337 2.095.356-3.84-.68-4.692-1.042-.69-1.773-3.166-2.242-1.206-1.654-.45.13.167.955 1.039.96 1.05-1.379-.18-2.691.07-2.669.245.042.335 2.643.833 2.607.856-1.275.832-1.333 2.604-1.09 2.602.902-.01 2.059-.77 2.1-1.565" fill="#fbbf04"/><path d="M31.71 4.607c.022.006.9 1.019-.283 1.05-.7.018-1.3-1.483.283-1.05m2.717-.917c.038-.727-.729-1.461-.894-1.25-.136.176.19.66.454 1.208.161.335.086.112-.128-.056-.439-.342-1.404-.535-.727-.005.22.172.603.308.736.405-2.291-.341-.503.253-.165.333-.217.15-.682.897-.58 1.092.124.232.597-.068.975-.874-.148 1.6.283 1.956.434.287.74 1.32.935.503.69.189-.055-.07-.398-.433-.4-.438.575.075 1.121-.03 1.112-.103-.017-.14-1.101-.346-1.087-.356.532-.347.557-1.086.455-1.085-.376.006-.859.321-.875.653" fill="#ea5c05"/><path d="M34.182 4.421c-.01-.002-.376-.425.118-.438.291-.007.541.618-.118.438" fill="#fbbf04"/><path d="M29.097 6.112c.038-.726-.728-1.46-.893-1.249-.137.176.19.66.453 1.21.161.33.087.11-.127-.058-.44-.342-1.403-.534-.727-.006.219.172.603.31.736.406-2.29-.341-.504.253-.165.333-.217.149-.682.897-.578 1.092.122.232.596-.068.973-.874-.149 1.6.282 1.956.435.288.738 1.32.934.502.689.187-.055-.069-.398-.433-.4-.437.574.074 1.121-.03 1.112-.103-.017-.139-1.102-.346-1.087-.356.532-.347.557-1.086.454-1.085-.375.004-.858.321-.875.653" fill="#ea5c05"/><path d="M28.852 6.844c-.01-.003-.375-.425.119-.438.29-.008.541.619-.12.438" fill="#fbbf04"/></svg>