<svg width="72" height="72" xmlns="http://www.w3.org/2000/svg"><path d="M47.681 61.819c.406 3.338 1.797 2.17 4.397 1.869 1.176-.136-1.756-12.99-2.143-14.146-1.778-5.293-2.244-12.924-7.03-11.605-5.167 1.425 4.193 19.078 4.776 23.882" fill="#ee7a10"/><path d="M23.546 37.612c-5.25 10.056-10.514 28.165 5.392 29.513 1.615.137 19.79.942 19.832-.508.056-1.904.55-3.821.55-6.54 0-13.69-2.571-23.044-7.02-27.923-1.953-2.142-3.241.49-8.86.127-7.17-.464-6.44-1.28-9.894 5.33" fill="#ef8a39"/><path d="M57.181 1c-1.294.454-9.862 8.352-10.279 8.024-2.331-1.832-15.834-1.255-19.172-1.157-5.506-3.964-8.476-6.61-8.476-6.594-.358 9.677-.98 17.288 1.59 23.002 6.9 15.338 23.662 17.545 32.109 1.959C56.055 20.51 56.856 11.604 57.18 1" fill="#ee7a10"/><path d="M25.709 24.981c1.26.893 2.566-.987 1.649-1.663-1.659-1.226-2.667.943-1.649 1.663" fill="#3b3a39"/><path d="M25.267 26.603c-.957 1.457 1.713 2.402 2.446 1.336 1.325-1.93-1.672-2.515-2.446-1.336m21.668.159c-1.08 1.642 1.93 2.709 2.756 1.505 1.493-2.174-1.885-2.833-2.756-1.505" fill="#f5b0b4"/><path d="M37.706 24.355c-6.957 0-9.01 5.12-6.342 7.335 10.057 8.348 18.754-7.335 7.797-7.335h-1.455" fill="#fff3d5"/><path d="M34.764 29.592c-.246-.452-2.178 1.362-2.88 1.953-1.69 1.42-2.008 2.14-1.43 1.9.56-.233 1.149-1.2 2.03-1.94 1.095-.917 2.431-1.632 2.28-1.913m-.291-.479c-.079-.508-2.518.575-3.381.905-2.076.791-2.621 1.365-1.995 1.328.607-.038 1.492-.76 2.575-1.17 1.345-.51 2.849-.751 2.801-1.063m-.108-.525c.055-.51-2.586-.063-3.506.043-2.213.252-2.889.674-2.273.79.597.115 1.64-.365 2.794-.494 1.433-.162 2.95-.025 2.985-.34m6.483.933c.246-.453 2.178 1.36 2.88 1.951 1.688 1.42 2.009 2.14 1.43 1.9-.56-.232-1.15-1.201-2.03-1.939-1.095-.919-2.431-1.634-2.28-1.913m.29-.479c.08-.509 2.518.575 3.382.904 2.075.791 2.621 1.366 1.995 1.327-.608-.036-1.493-.758-2.575-1.168-1.345-.511-2.85-.752-2.802-1.063m.109-.526c-.055-.51 2.585-.063 3.506.043 2.211.253 2.89.674 2.273.791-.596.114-1.64-.365-2.794-.496-1.434-.162-2.951-.025-2.985-.338m-4.095 2.956c-.062.463.053.28.51.307.012 0-.127-1.571-.094-1.788.02-.123.218-1.346.119-1.346-.571 0-.445 2.147-.535 2.827" fill="#3b3a39"/><path d="M37.515 32.062c.478-.008 1.436-.281 1.457-.728.001-.01-1.09.34-1.603.361-.035.003-.672-.079-1.603-.338-.004.553.972.72 1.749.705m.408-5.682c1.325.158 2.566 1.495-.252 2.839-.866.413-3.54-3.29.252-2.84" fill="#3b3a39"/><path d="M20.734 4.622c-.185.437.152 3.732.216 4.36.205 2.02.739.711 2.366.205.868-.268 2.74-.51 1.468-1.755-.494-.482-3.43-4.274-4.05-2.81m34.794.598c.186.438-.15 3.732-.215 4.36-.205 2.02-.739.712-2.366.207-.868-.27-2.74-.512-1.468-1.756.493-.482 3.43-4.275 4.05-2.811" fill="#f5b0b4"/><path d="M28.08 8.915c.072 2.333 6.04 11.838 7.421 14.654.381.778-1.185-5.376-2.486-7.69-.6-1.067-1.186-4.088-2.534-6.086-1.13-1.676-.621-1.39-2.402-.878m7.204.545c0 1.57 1.504 13.634 2.046 13.677.83.068.465-3.418.465-4.186 0-.56-.762-10.01-.991-10.007-.024 0-1.52.518-1.52.516m7.195-.045s-1.509 7.34-1.89 8.538c-.232.73-1.58 4.903-1.376 5.48.376.128 2.387-1.956 2.65-2.952.697-2.64 1.692-6.456 1.895-9.12.208-2.733.624-1.046-1.28-1.946" fill="#ef8a39"/><path d="M32.551 62.515c.373 3.342 1.775 2.188 4.378 1.912 1.176-.125-1.625-13.007-2.001-14.166-1.723-5.31-2.114-12.946-6.91-11.673-5.184 1.374 3.998 19.119 4.533 23.927" fill="#ee7a10"/><path d="M18.619 51.8c-1.423.165-2.863 3.938-3.49 5.711-2.073 5.858 1.15 9.758 7.188 11.113 32.288 7.241 30.51-3.708 35.183-10.946-9.819 4.14-9.93.01-17.62.479-10.272.627-17.583 6.377-21.422-3.848-.193-.516.802-2.583.16-2.51" fill="#da6c00"/><path d="M44.361 70.756c9.712-1.54 9.983-8.197 13.135-13.08-7.416 3.127-9.243 1.548-13.03.785l1.735 1.992-1.7.946 3.53 1.895-3.67 3.234 2.696 1-2.696 3.228" fill="#fff9e8"/><path d="M38.44 5.757c.383-.817 3.742-2.58 4.637-2.737.53-.094 1.83-.457 1.464.446-.426 1.055-3.695 1.6-4.802 1.972-.125.041-1.32.361-1.299.319" fill="#52bbc9"/><path d="M38.44 5.757c-.051.562-.018 1.653.191 2.145.258.608.286.821 1.223 1 .58.108 4.39.761 4.641.27.407-.798.648-4.025.505-5.059-.021-.16-.295-1.203-.499-.707-.16.385-2.19 1.388-2.727 1.452-.404.045-2.006.337-2.275.535-.025.017-1.055.3-1.059.364" fill="#92d0d8"/><path d="M36.939 5.336c-.384-.815-3.743-2.578-4.638-2.736-.53-.094-1.83-.457-1.464.445.426 1.055 3.695 1.6 4.803 1.974.124.041 1.319.36 1.299.317" fill="#52bbc9"/><path d="M36.939 5.336c.05.563.017 1.654-.191 2.146-.258.608-.287.822-1.225 1-.58.108-4.389.762-4.639.27-.408-.798-.65-4.026-.506-5.059.022-.158.294-1.203.5-.708.16.387 2.19 1.389 2.726 1.452.404.047 2.007.338 2.276.536.026.018 1.054.298 1.059.363" fill="#92d0d8"/><path d="M39.094 7.603c.232-.61.133-1.603-.32-2.14-.281-.335-.84-.412-1.271-.412-.46 0-1.004-.106-1.346.182-.533.447-.457 2.08-.206 2.653.37.847 2.775.681 3.143-.283" fill="#62c2cf"/><path d="M48.142 24.584c1.258.892 2.566-.988 1.648-1.666-1.658-1.223-2.666.946-1.648 1.666" fill="#3b3a39"/></svg>