<svg width="72" height="72" xmlns="http://www.w3.org/2000/svg"><path d="M44.94 47.463c1.29 3.127.723 18.966 1.98 18.705.348-.073 1.427.311 1.7-.148.861-1.442.57-5.173.664-6.36.141-1.827 1.07-12.796-.892-12.796-1.432 0-2.115.242-3.453.599" fill="#ca9862"/><path d="M25.33 38.963c-1.113 2.077-3.9 7.632-6.175 14.649 1.28 5.158 3.417 9.725 4.614 11.212.586.126 2.248-.66 2.41-1.033.34-.783-2.543-6.609-3.174-10.14 1.815-1.347 4.452-3.971 5.076-4.723 1.056-.216.19 19.07 2.36 21.918.475.425 2.163-.113 2.238-.607-.122-2.109-.258-18.45 1.448-18.165 5.53.926 11.54.363 15.467-1.254.616-.253 1.217 16.096 2.302 16.096 2.202 0 1.557 1.197 2.834-3.69.868-3.318 1.848-24.026.229-27.187l-.013-.023c.477-.829.96-2.477 1.011-2.768.705-4.072-5.198-6.097-4.616-5.653 2.252 1.724 4.573 4.885 2.956 7.67-3.375-2.062-10.029-2.642-13.752-.534-6.055 3.426-13.295.657-15.215 4.232" fill="#bc8039"/><path d="M25.396 31.455c-1.779-1.643-4.598 1.46-2.85 3.176.24.237-2.65.078-3.16 2.06-.608 2.383 1.615 3.551 1.49 3.563-.901.087-2.094.57-2.649 1.467-.442.718-.341 2.688.659 3.272-2.594-.198-3.797 4.614.995 5.137-3.127 3.89 2.085 8.815 7.238 4.413 1.425 7.344 8.65 5.045 10.86 1.877 2.554 1.807 7.593 3.347 8.54-.534 3.751 2.93 6.736-1.21 6.217-2.998 1.61.469 6.093-.525 3.018-5.286.508-.696 6.207-2.543-.245-6.427 2.816-2.43 1.027-6.21-2.186-6.31 2.22-2.922-1.235-5.953-4.597-3.59-.72-2.49-5.437-3.275-7.96.428-.72 1.054-3.902-3.408-8.262.567-.39-1.16-4.472-5.703-7.108-.815" fill="#8e6334"/><path d="M40.993 16.383c2.273-2.114 2.566-9.336.79-11.721C39.228 1.23 36.5.19 37.86 1.628c2.06 2.18 1.97 8.822.692 11.334-.975 1.915 2.12 3.722 2.442 3.42M21.196 17.88c-2.273-2.115-2.566-9.337-.79-11.722 2.557-3.431 5.285-4.472 3.924-3.032-2.06 2.179-1.97 8.822-.691 11.331.976 1.916-2.12 3.722-2.443 3.423" fill="#694926"/><path d="M21.21 36.219c2.195 2.254 5.665 3.687 8.948 3.941 4.705.366 8.707-1.487 11.509-4.591 1.51-1.675 2.907-4.459 2.842-7.388-.075-3.365-1.604-7.785-2.455-9.702 7.172 12.751 6.739-5.944-1.862-1.589-1.756 0-1.365-2.11-7.255-2.11-2.952 0-11.164.268-13.552 1.598-13.008 7.482-2.589 12.517.319 1.549-3.121 8.512-1.372 15.332 1.507 18.292" fill="#ca9862"/><path d="M20.6 29.418c.838.602 1.71-.667 1.098-1.123-1.105-.827-1.778.637-1.099 1.123m20.927.618c.696.55 1.416-.61.911-1.028-.916-.756-1.474.583-.91 1.028" fill="#31302f"/><path d="M37.213 31.134c-1.242 1.916 2.223 3.16 3.176 1.755 1.72-2.537-2.171-3.306-3.176-1.755" fill="#f4afb3"/><path d="M16.737 16.596c-1.491 1.138-1.279 3.994 1.55 3.837.95-.053.866-1.83.928-.097.027.732 1.17 1.491 2.152 1.02-.028.9.592 1.773 2.04 1.691.381-.02.562-.379.651-.578.033.02.066.035.1.051.005.098.01.244.017.447.03.865 1.947 1.778 2.67-.294 1.203 3.812 3.613 1.922 3.784.162.516.997 3.175.672 3.175-.949-.069.83 2.701.975 2.622-1.111.965 1.343 3.138 1.468 3.176-.967.005-.463.356.581 1.098.999 2.046 1.155 3.782.104 2.63-2.065 2.2.196 1.76-3.288-.587-2.46a3.967 3.967 0 00-.394-1.049c3.16.282 1.812-5.716-2.552-1.787.819-2.43-4.038-4.465-5.158-1.753-4.272-3.74-5.703 1.252-5.772 1.938-.913-2.48-4.818-3.425-5.261 1.26-1.369-4.196-4.376-2.376-4.504-.104-.77-2.535-4.602.045-2.365 1.81" fill="#8e6334"/><path d="M26.457 32.366c-3.604 5.557 6.45 9.16 9.21 5.092 4.989-7.358-6.296-9.585-9.21-5.092" fill="#fde3c4"/><path d="M31.112 34.873c-.05.383.043.23.414.255.01 0-.103-1.296-.076-1.474.016-.102.179-1.108.098-1.108-.466 0-.363 1.768-.436 2.327" fill="#31302f"/><path d="M31.407 35.362c.39-.007 1.169-.232 1.185-.6.001-.009-.886.28-1.303.298-.03.001-.549-.065-1.306-.28-.002.457.792.594 1.424.582" fill="#31302f"/><path d="M21.406 30.747c-1.242 1.916 2.224 3.16 3.176 1.755 1.72-2.537-2.17-3.306-3.176-1.755" fill="#f4afb3"/><path d="M31.739 30.682c1.077.128 2.087 1.231-.205 2.338-.704.34-2.88-2.71.205-2.338" fill="#31302f"/><path d="M56.11 19.45c-.667-.319-1.068.319-.925.755.116.347.678.54.988.233.232-.229.232-.845-.064-.987" fill="#694926"/><path d="M54.213 21.832c.207-.261-1.718-3.354-2.493-3.576-1.708-.49 1.225 3.297 1.74 3.508.21.087.57.297.753.068" fill="#4cbac9"/><path d="M54.041 22.072c.084-.376-3.517-2.632-4.44-2.474-2.034.35 2.974 2.822 3.621 2.784.265-.016.747.024.82-.31m.37.006c.126-.31 3.795-.178 4.373.38 1.272 1.228-3.503.573-3.945.233-.18-.138-.54-.343-.428-.613" fill="#4cbac9"/><path d="M54.284 22.343c.29-.258 4.05 1.728 4.366 2.6.696 1.923-3.95-1.165-4.234-1.743-.117-.235-.389-.63-.132-.857" fill="#4cbac9"/><path d="M55.462 20.6c.129.152.215.206-.153.778-.547.847-1.828 2.951-2.728 3.507-1.435.884 2.192-5.1 2.881-4.284" fill="#694926"/></svg>