<svg width="72" height="72" xmlns="http://www.w3.org/2000/svg"><path d="M50.118 63.712c1.094.203 1.586-.016 1.92.88-.507.59-1.648-.058-2.033.142-.327.172 1.294.346 1.184 1.251-.03.25-2.802.79-2.802-.895 0-.478-1.177.753-1.717.422-.165-.103.99-.745 1.192-1.866.258-1.428-.392-3.414-.32-3.671.576-2.075 2.12-1.277 2.564.069.49 1.482-.139 3.64.012 3.668" fill="#6f813a"/><path d="M52.377 32.348c.005.004 2.25 1.01 3.086 1.652 1.078.827 5.267 2.828 6.03 1.679.613-.923.603-1.46 1.564-1.416.347.693-.697 1.485-.66 1.916.03.368 1.088.382 1.885.836.218.123-.625 1.442-2.186.785-.442-.186.24 1.372-.277 1.737-.363.256-1.243-1.372-2.84-2.478-.993-.685-4.903-1.541-6.632-2.859-1.794-1.367.41-1.551.03-1.852" fill="#96ba34"/><path d="M50.267 26.657c8.958 7.882 6.831 28.292-4.045 36.275C30.762 74.278 4.07 65.28 5.56 53.942c3.297 1.554 9.142 12.395 17.034 3.733 1.976-2.17-.233-8.357 1.418-16.199C26.89 27.804 38.674 16.46 50.267 26.657" fill="#6d952c"/><path d="M29.286 33.822c-.006.003-2.027 1.401-3.012 1.785-1.266.494-5.145 3.04-4.545 4.282.48.996.95 1.264.419 2.063-.777-.06-.924-1.36-1.315-1.549-.334-.162-.889.732-1.689 1.179-.218.122-.923-1.273.445-2.268.387-.282-1.308-.5-1.356-1.13-.035-.439 1.822-.355 3.596-1.15 1.102-.493 3.849-3.39 5.875-4.19 2.1-.827 1.127 1.149 1.582.978" fill="#6d952c"/><path d="M38.204 30.84c.99 1.639.224 14.984-.263 17.097-3.113 13.514-11.474 17.91-19.25 16.923-6.935-.881-11.896-5.81-12.442-6.745 4.632 11.437 28.388 15.508 41.49 3.574 2.225-2.027 3.959-4.695 5.435-7.673 3.156-6.364 3.44-14.392 1.544-20.235-2.489-7.658-8.672-11.551-16.514-2.94" fill="#83ae3d"/><path d="M42.685 30.058c12.059 3.2 27.09-6.108 23.185-11.634-1.509-2.135-8.922-1.51-11.785-1.37-2.659-12.728-11.59-18.953-22.116-14.75-11.642 4.648-10.557 18.858-3.825 25.272 3.49 3.327 8.756 4.105 14.541 2.482" fill="#759d35"/><path d="M65.95 22.597c-7.844 5.809-19.93 7.737-24.303 3.934 1.54 4.433 17.758 2.548 24.303-3.934" fill="#6f813a"/><path d="M62.7 22.039c-.019.058-.723 1.277.263.543.608-.452-.052-1.235-.263-.543m2.358-2.505c-.018.058-.723 1.277.264.544.608-.453-.053-1.237-.264-.544" fill="#9fc243"/><path d="M36.283 24.33c1.194.403 1.445-1.576.565-1.894-1.59-.572-1.53 1.568-.565 1.894m15.538-7.838c.847.561 1.14-1.152.514-1.583-1.126-.78-1.2 1.128-.514 1.583" fill="#31302f"/><path d="M37.695 25.112c-1.018 1.578 1.82 2.6 2.601 1.445 1.409-2.087-1.778-2.719-2.601-1.445" fill="#f4afb3"/><path d="M54.05 16.879c-2.276.233-.933.086-3.245.43-.907.133 2.386-.228 3.62-.257a1.85 1.85 0 01-.376-.173M36.345 68.366c1.094.203 1.587-.015 1.92.88-.507.59-1.647-.058-2.032.143-.328.172 1.453.473 1.344 1.38-.03.246-2.963.66-2.963-1.025 0-.477-1.757.243-2.296-.09-.165-.102 1.318-.624 1.772-1.353.237-.796-.603-2.518-.321-3.672.509-2.092 2.121-1.277 2.565.07.49 1.48-.14 3.64.011 3.667" fill="#6f813a"/><path d="M46.587 16.751c.208-.564.136-4.092-1.073-3.673-.296 1.286.615 2.456.573 3.418-.011.297.477.319.5.255m-1.561 1.153c1.084-1.469.346-1.68-.255-3.353-.16-.448-.787-2.592-1.241-1.327-.506 1.41.892 5.5 1.496 4.68m-.628.351c-2.134 2.514-3.963-5.453-2.183-4.147.012.01 1.659 4.764 2.183 4.147m-3.571-1.759c-1.022-.264-2.037-1.198-1.982-2.303.002-.049 1.01-.911 1.075-.835.614.724.065 1.536 1.053 2.821.242.313.058.371-.146.317m1.713-2.981c-3.395-.879-2.6-3.95-2.032-3.937 1.097.02 2.286 2.079 2.179 3.62-.027.393.058.37-.148.317m2.267-.827c.693-3.01-1.912-3.747-2.136-3.3-.431.866.796 2.5 1.825 3.285.279.212.27.195.311.015m-5.412-.203c-1.711.111-1.886-1.366-1.623-1.448.513-.16 1.303.651 1.642 1.277.093.17.085.164-.019.17m-.156-1.421c-2.035-.77-1.454-2.568-1.106-2.522.675.086 1.158 1.434 1.218 2.335.017.244.01.232-.112.187m2.233-1.771c-.967-.366-1.859-1.203-1.95-1.725-.1-.576.822-.932 1.005-.91.676.088 1.512 2.074 1.573 2.978.016.243-.506-.297-.628-.343m-2.409-.929c-1.667-.402-1.389-1.864-1.112-1.863.536.001 1.046 1.008 1.182 1.707.036.19.03.182-.07.156m3.155-2.035c1.536.762.938 2.127.668 2.065-.523-.121-.794-1.216-.77-1.927.007-.192.01-.183.102-.138m-5.144 3.01c-1.021-.266-2.036-1.2-1.982-2.304.003-.049 1.011-.912 1.076-.836.615.725.065 1.536 1.054 2.823.24.313.057.37-.148.317m1.714-2.981c-3.394-.879-2.599-3.95-2.032-3.939 1.097.02 2.285 2.08 2.18 3.621-.028.393.057.37-.148.318m2.266-.83c.692-3.007-1.913-3.744-2.136-3.298-.432.864.797 2.501 1.825 3.285.278.211.269.195.311.013m-5.208.216c-1.711.112-1.888-1.366-1.623-1.447.513-.158 1.302.65 1.642 1.276.093.17.084.163-.019.17m-.343-1.834c-1.728-.653-1.234-2.18-.937-2.142.573.073.982 1.218 1.033 1.984.014.206.01.197-.096.158m2.549-1.56c-.455-.17-1.904-.358-1.947-.603-.046-.27 1.417-.645 1.503-.634.317.04.71.974.738 1.397.007.115-.237-.139-.294-.16M34.07 7.864c-1.666-.403-1.389-1.866-1.112-1.865.536.002 1.045 1.01 1.181 1.709.037.19.03.18-.07.156m1.627 1.577c1.536.762.938 2.126.667 2.064-.522-.12-.794-1.215-.769-1.927.007-.192.01-.183.102-.137m-2.992-4.129c-1.034-.026-2.154-.526-2.412-.99-.286-.51.467-1.148.647-1.186.666-.14 2.116 1.462 2.471 2.293.097.226-.574-.113-.706-.117m-1.938.314c-1.707.167-1.93-1.305-1.668-1.395.507-.174 1.322.609 1.682 1.224.098.167.089.162-.014.171m1.66-3.356c1.702.216 1.59 1.7 1.314 1.729-.533.059-1.151-.887-1.366-1.567-.057-.182-.05-.176.052-.162m12.577 17.705c-.924.49-1.396-.288-1.268-.4.244-.217.888.036 1.237.3.093.071.087.07.031.1m2.704-2.209c-.924.49-1.396-.288-1.27-.399.245-.216.89.037 1.238.3.094.072.088.07.032.1" fill="#96ba34"/><path d="M48.087 43.06c-1.602-.609-1.144-2.024-.87-1.989.532.069.912 1.131.959 1.843.012.191.007.18-.089.146m.453-1.358c-1.528-1.542-.246-2.935.052-2.751.578.359.451 1.784.129 2.629-.088.228-.088.216-.18.122m2.77-.684c-.726-.733-1.185-1.864-1.048-2.377.15-.565 1.138-.504 1.295-.409.577.358.505 2.512.18 3.357-.086.227-.334-.479-.427-.571m-1.8-1.843c-1.346-1.056-.48-2.27-.23-2.154.488.224.528 1.35.358 2.043-.045.186-.047.175-.128.111m3.722-.541c1.076 1.327-.039 2.321-.259 2.15-.424-.324-.212-1.432.108-2.07.087-.172.085-.16.15-.08m-5.936.603c-.819-.664-1.35-1.934-.837-2.916.022-.043 1.3-.408 1.328-.313.254.914-.584 1.423-.224 3.002.087.385-.104.36-.267.227m2.806-2.001c-2.717-2.205-.707-4.666-.197-4.422.989.474 1.207 2.839.464 4.196-.19.345-.102.36-.267.226m2.408.187c1.89-2.45-.17-4.198-.56-3.884-.754.608-.324 2.603.283 3.742.164.308.162.29.277.142m-4.824-1.963c-1.603-.608-1.144-2.023-.87-1.989.532.07.912 1.132.959 1.843.012.192.007.183-.09.146m.459-1.81c-1.298-1.31-.21-2.492.044-2.335.49.304.383 1.514.108 2.232-.074.194-.074.182-.152.103m2.969-.362c-.341-.343-1.58-1.114-1.516-1.353.071-.265 1.558 0 1.632.045.27.167.237 1.18.084 1.575-.04.108-.156-.223-.2-.267m-5.93 3.366c-1.347-1.057-.482-2.272-.23-2.157.487.224.528 1.352.359 2.044-.047.185-.049.177-.13.113M46 38.761c1.078 1.329-.038 2.32-.257 2.152-.425-.326-.214-1.433.107-2.07.086-.172.085-.162.15-.082m-.989-4.993c-.929-.454-1.738-1.371-1.78-1.899-.045-.583.908-.852 1.088-.811.664.149 1.31 2.205 1.284 3.108-.006.245-.475-.341-.592-.398m-1.893-.517c-1.623-.557-1.21-1.987-.932-1.96.533.05.946 1.102 1.015 1.81.019.191.014.183-.083.15m2.915-2.364c1.457.901.734 2.203.47 2.115-.51-.167-.677-1.283-.585-1.989.024-.19.028-.18.115-.126m4.069 16.702c1.345-1.058.48-2.272.228-2.156-.487.223-.528 1.351-.357 2.043.045.186.047.176.129.113m.01-4.896c.728.9-.026 1.573-.174 1.457-.29-.218-.146-.97.071-1.401.06-.118.06-.111.103-.056m-2.446 5.677c.73.9-.026 1.572-.175 1.458-.288-.22-.144-.971.073-1.403.059-.116.058-.11.102-.055" fill="#759d35"/></svg>