<svg width="72" height="72" xmlns="http://www.w3.org/2000/svg"><path d="M32.687 51.08c.09 11.353.935 15.398.8 17.102-.083 1.062-.22.549-1.743 1.824-.01.008 1.448-.517 1.647-.463.183.05-.261.728-.454 1.457.619-.638.803-1.158 1.061-1.432.142-.15-.077 1.15.251 1.334.108.06.009.128.254-1.325.161.271 1.169.616 1.149.587-.544-.826-1.093-.167-1.33-1.884-.207-1.493 2.023-10.297 2.08-17.647.024-3.018-3.717.224-3.715.448m-6.583-.341c.09 11.353.934 15.398.8 17.102-.083 1.063-.221.55-1.743 1.823-.01.01 1.448-.516 1.647-.46.183.049-.262.726-.455 1.455.62-.638.805-1.157 1.063-1.432.14-.15-.079 1.151.25 1.335.108.059.008.127.254-1.325.16.27 1.168.616 1.15.586-.545-.827-1.094-.167-1.332-1.883-.207-1.494 1.304-10.299 1.36-17.647.025-3.018-2.996.223-2.994.446" fill="#b19e89"/><path d="M24.946 29.28c.209 3.007.034 4.349.572 11.103-6.664.983-7.648 1.44-9.907.747.38-8.547 1.274-14.01 1.132-14.086-4.15-2.213-6.13-11.638-3.792-16.317.952-1.498 6.688-8.686 13.315-7.97 3.766.407 11.303 2.832 13.305 12.134 1.55 7.204-3.959 14.736-14.625 14.388" fill="#694926"/><path d="M24.534 23.54c.986 1.809-2.51 2.55-3.273 1.223-1.377-2.402 2.476-2.684 3.273-1.223" fill="#f7c2c4"/><path d="M23.174 21.935c-.883.04-.776-1.32-.123-1.362 1.181-.077.838 1.331.123 1.362" fill="#31302f"/><path d="M33.622 25.552c.174 1.578.152 2.834-.021 4.377-2.613-1.466-4.03-2.182-4.384-2.85.248-2.67 4.189-3.475 4.405-1.527" fill="#54432b"/><path d="M15.399 50.682C6.705 34.525 36.572 22.623 52.163 36.19c5.967 5.192 11.146 16.335 7.767 20.114-1.7 1.9-7.33-1.588-12.547-1.514-5.394.077-11.739.185-14.745.857-3.355.75-14.34.42-17.239-4.966" fill="#8e6334"/><path d="M41.816 42.441c-.13.319.287 5.75 1.786 5.813 1.095.045-.656-4.922-1.786-5.813zm-5.627.995c-.132.308.286 5.749 1.786 5.812 1.095.044-.656-4.921-1.786-5.812zm15.069.054c-.132.31.282 5.752 1.781 5.813 1.095.045-.651-4.922-1.781-5.813zm-4.674.908v.002c-.132.308.284 5.752 1.783 5.813 1.095.045-.653-4.924-1.783-5.815zm9.455.967c-.133.308.283 5.752 1.781 5.813 1.096.046-.652-4.92-1.78-5.813zm-24.549.96c-.178.428.385 7.78 2.412 7.863 1.482.06-.883-6.654-2.412-7.864zm8.983 1.071c-.146.34.312 6.33 1.96 6.399 1.207.05-.718-5.417-1.96-6.399zm-12.87.465c-.203 2.023.221 6.53 1.82 6.123 1.972-.501-.866-5.039-1.82-6.123zm23.256.694c-.145.34.314 6.33 1.965 6.396 1.205.05-.72-5.416-1.963-6.396zm-14.996.814c-.147.34.313 6.333 1.963 6.4 1.205.05-.72-5.418-1.963-6.4zm-12.347 4.77c.984 0 .67-3.31-.025-4.472-.7 1.264-.96 4.472.025 4.472zm22.203-4.584c-.147.34.312 6.328 1.963 6.396 1.205.05-.72-5.415-1.963-6.396zm10.404 1.06c-.146.34.313 6.332 1.963 6.4 1.205.049-.72-5.419-1.963-6.4zM19.25 48.631c-.194.146-1.87 3.703-.953 4.273.67.417 1.343-3.314.952-4.273m.161-46.58a3.272 3.272 0 01.54 2.445c.026-.038.054-.077.086-.12.375-.505.62-1.208.562-1.841-.042-.473.137-.421.149-.306a3.283 3.283 0 01-.658 2.346c.038-.014.08-.027.126-.042.602-.187 1.215-.611 1.543-1.156.244-.406.36-.26.3-.159a3.283 3.283 0 01-1.536 1.367c-.253.11-.47.172-.614.194l-.026.024A3.268 3.268 0 0118.387 6.1c-.746.325-1.186.222-.307-.052.603-.187 1.215-.61 1.543-1.156a.968.968 0 01.166-.218 2.65 2.65 0 01.032-.399c.084-.624-.04-1.357-.395-1.886-.265-.392-.082-.434-.017-.338" fill="#694926"/><path d="M19.469 1.1c.28.026.48.348.395.69-.43 1.741-2.08-.845-.395-.69m1.303 1.234c-.349.002-.566-.659-.261-1.083.678-.943 1.693 1.075.261 1.083m1.719 1.039c-1.1.712-1.4-1.282-.173-1.383.062-.005 1 .847.173 1.383" fill="#ea5c05"/><path d="M17.938 7.067c.044.01.636-.458 1.325-.821a7.73 7.73 0 01.508-.243c-.497-.462.007-1.752.122-1.775.676-.13.578 1.059.128 1.67.397-.164.834-.32 1.254-.454-.375-.57.445-1.7.563-1.694.661.042.318 1.09-.234 1.593.241-.073.47-.136.679-.188.1-.024.275-.075.485-.139-.335-.635.765-1.625.881-1.593.628.176.1 1.101-.532 1.488.326-.097.684-.203.981-.277.502-.58 1.831-.885 1.772-.158-.01.118-1.237.76-1.751.32-.144.03-.314.072-.503.122.762.06 1.77.864 1.184 1.267-.1.069-1.46-.514-1.349-1.223-.354.1-.76.224-1.175.356.762.06 1.77.864 1.184 1.268-.1.068-1.448-.51-1.35-1.215-.52.17-1.043.348-1.48.503.752.104 1.676.869 1.109 1.259-.098.067-1.394-.486-1.355-1.17-.17.06-.321.117-.448.165-.364.138-1.843 1.105-1.947 1-.032-.035-.076-.067-.05-.06" fill="#6f813a"/><path d="M17.583 6.737c-.03.02-.588-.178-1.192-.275a6.145 6.145 0 00-.44-.05c.253-.47-.45-1.3-.542-1.288-.534.073-.16.932.329 1.272a13.14 13.14 0 00-1.046-.02c.134-.519-.764-1.151-.85-1.115-.48.198.041.889.579 1.123-.197.007-.385.019-.551.032a7.83 7.83 0 01-.398.02c.089-.556-.98-1.014-1.059-.96-.42.29.206.843.774.97-.267.01-.56.023-.798.043-.52-.305-1.587-.194-1.357.331.037.084 1.111.252 1.381-.205a6.9 6.9 0 01.405-.037c-.55.237-1.096 1.09-.558 1.241.092.026.954-.751.692-1.25.289-.016.623-.027.964-.033-.552.238-1.096 1.09-.558 1.242.091.025.947-.746.695-1.244.43-.007.863-.007 1.226-.001-.531.267-1.024 1.07-.502 1.215.089.025.91-.714.708-1.212.142.002.27.004.375.008.306.011 1.65.356 1.701.251.016-.034.04-.069.022-.058" fill="#759d35"/><path d="M18.034 5.455c-.225-1.677-2.273-3.033-2.555-2.479-.235.46.712 1.428 1.544 2.572.505.693.242.216-.313-.075-1.141-.598-3.407-.631-1.65.292.572.3 1.498.453 1.84.618-5.33.185-1.033.79-.23.83-.427.433-1.161 2.34-.844 2.741.378.478 1.32-.407 1.83-2.41.35 3.725 1.478 4.355 1.106.475 2.238 2.708 2.331.756 1.64.14-.152-.137-1.085-.823-1.092-.832 1.334-.072 2.526-.542 2.474-.705-.099-.31-2.641-.328-2.612-.356 1.055-1.018.793-2.717.564-2.672-.848.168-1.805 1.096-1.702 1.86" fill="#5dc0cd"/><path d="M17.793 7.231c-.021-.001-1.032-.813.08-1.05.657-.141 1.49 1.184-.08 1.05" fill="#fbbf04"/><path d="M15.394 8.584c.094.698.947 1.265 1.065 1.033.098-.191-.297-.595-.644-1.073-.21-.288-.1-.09.13.032.476.25 1.421.263.688-.122-.238-.125-.624-.189-.767-.257 2.221-.077.43-.33.097-.346.178-.18.484-.976.35-1.142-.156-.2-.549.169-.761 1.004-.146-1.553-.616-1.816-.462-.2-.932-1.127-.97-.314-.683-.056.063.056.452.342.455.346-.556.03-1.053.226-1.031.294.04.13 1.1.137 1.088.148-.44.425-.33 1.133-.235 1.114.354-.07.752-.457.71-.775" fill="#ea5c05"/><path d="M15.494 7.843c.009.001.43.339-.033.439-.273.057-.62-.494.033-.439" fill="#fbbf04"/><path d="M37.58 22.297c.985 1.808-2.512 2.55-3.273 1.222-1.377-2.402 2.476-2.685 3.273-1.222" fill="#f7c2c4"/><path d="M36.22 20.691c-.883.04-.776-1.32-.124-1.363 1.182-.076.838 1.331.124 1.363" fill="#31302f"/></svg>