<svg width="72" height="72" xmlns="http://www.w3.org/2000/svg"><path d="M35.184 52.597c.18.09-.106 10.519.1 10.517.77.014 1.726.043 1.675.208-.06.24-1.14.35-1.93.337-.02 1.716-.061 1.956-.517 1.802-.33-.105.134-1.309-.157-1.636-.428-.473-1.531-.118-1.503-.437.053-.392.855-.093 1.356-.219 1.192-.307-.582-8.278.393-10.568a.574.574 0 01.583-.004m-7.668-.272c-.193.058-2.266 10.27-2.468 10.215-.738-.16-1.7-.341-1.678-.17.016.247 1.038.604 1.794.764-.354 1.668-.358 1.912.115 1.88.342-.027.173-1.306.515-1.56.522-.367 1.523.232 1.55-.086.054-.39-.803-.28-1.27-.53-1.078-.566 2.435-7.932 2.014-10.385-.14-.127-.322-.18-.572-.128" fill="#421700"/><path d="M54.62 51.856c5.452-4.256 13.42 11.377 16.221 5.957 1.792-3.46-12.092-13.713-15.043-16.169-3.108-2.59-14.133-7.217-17.671-16.637C32.697 10.549 25.382 4.039 14.09 7.344c-15.778 4.033-17.314 27.79-1.869 29.49-3.727 13.787 9.983 33.71 42.398 15.022" fill="#6b6a6a"/><path d="M25.855 11.205c.01.184-.468-.14-.913-.29-.39-.13-.62-.055-.522-.26.316-.623 1.436.23 1.435.55zM8.83 16.632c.169.086-.342.374-.645.7-.293.291-.316.563-.47.383-.426-.565.813-1.236 1.115-1.08zM6.436 14.39c.17.084-.335.355-.645.698-.292.29-.316.564-.468.384-.427-.566.812-1.238 1.113-1.082zm.192 1.764c.151.077-.335.354-.664.69-.274.299-.315.563-.45.391-.444-.573.813-1.238 1.114-1.081zm5.23-.151c.137.114-.431.238-.827.489-.359.204-.445.432-.533.237-.267-.665 1.109-.962 1.36-.726zm13.846.394c-.008.179-.48-.162-.924-.312-.375-.124-.627-.039-.522-.26.317-.624 1.455.235 1.446.573zm-10.375.654c.138.113-.432.237-.827.49-.359.203-.446.431-.55.23-.25-.658 1.127-.956 1.377-.72zm6.247-.503h.001c-.117-.327-1.47-.724-1.552-.032-.028.231.175.067.577.062.47-.023 1.033.133.974-.03zm-3.235-.455c-.1-.319-1.463-.742-1.551-.032-.03.23.173.067.576.061.47-.022 1.032.134.975-.03zm6.306-1.609c-.009.178-.462-.156-.906-.306-.39-.131-.627-.039-.529-.243.324-.64 1.444.212 1.435.55zm-9.594.711c.113.125-.439.255-.852.5-.333.194-.445.432-.524.221-.275-.649 1.118-.94 1.376-.72zm1.87-.33c.112.125-.46.207-.878.41-.378.155-.49.394-.565.165-.2-.681 1.216-.822 1.442-.574zm-3.155-.242c.131.13-.438.254-.835.505-.35.187-.445.434-.525.222-.275-.649 1.102-.947 1.36-.727zm1.706-.534c-.25-.235-1.628.06-1.376.72.097.22.19-.026.549-.232.396-.25.963-.375.827-.488zm1.696-.295c-.226-.248-1.633-.083-1.43.599.08.21.184-.01.554-.19.434-.195 1-.262.876-.41zm1.552 1.138c-.105-.302-1.451-.716-1.54-.008-.023.213.181.049.584.043.463-.004 1.008.143.956-.036zm.367-.966c-.098-.32-1.462-.741-1.534-.025-.02.212.182.05.585.043.464-.004 1.009.145.949-.018zm1.483 1.11c.034.174-.509-.034-.964-.047-.409-.035-.62.104-.577-.121.142-.689 1.46-.145 1.541.169zm.454-.93c-.074-.332-1.39-.877-1.533-.186-.045.223.17.084.576.12.45.031.992.238.957.065zm1.413 1.505c-.007.178-.468-.14-.906-.307-.392-.13-.627-.04-.53-.243.325-.64 1.445.211 1.436.55zm.58-.683c.008-.34-1.129-1.197-1.444-.574-.098.204.147.138.52.26.445.15.916.491.925.314zm-9.849-1.199c-.258-.218-1.634.08-1.36.728.08.212.172-.034.525-.222.414-.243.965-.373.835-.506zm1.793-.5c.13.13-.437.256-.827.489-.36.204-.452.45-.55.233-.256-.643 1.12-.94 1.377-.721zm1.87-.328c.114.123-.46.206-.877.408-.363.163-.49.395-.547.172-.202-.68 1.198-.828 1.424-.58zm-3.155-.243c.13.13-.42.26-.827.488-.342.211-.453.45-.532.238-.276-.65 1.118-.939 1.359-.726zm1.705-.533c-.232-.23-1.626.06-1.358.726.086.194.19-.028.533-.239.413-.244.964-.375.825-.487zm1.715-.29c-.227-.247-1.633-.083-1.43.598.061.205.184-.008.553-.19.417-.201.99-.285.877-.407zm1.552 1.137v.002c-.122-.311-1.469-.725-1.552-.033-.027.231.175.067.578.062.462-.006 1.026.151.974-.031zm.375-.982c.052.179-.512.025-.974.03-.403.005-.605.17-.579-.062.083-.692 1.43-.278 1.553.032zm1.457 1.121c.035.175-.49-.027-.964-.048-.407-.036-.621.104-.575-.119.16-.684 1.457-.145 1.539.167zm.456-.931c-.076-.33-1.391-.876-1.534-.185-.045.223.169.083.577.119.466.037.997.221.957.066zm1.429 1.512c-.009.178-.479-.163-.923-.314-.375-.123-.627-.039-.53-.242.324-.64 1.461.218 1.453.556zm.562-.69c.01-.34-1.11-1.189-1.427-.566-.116.196.13.129.522.26.444.15.905.467.905.307zm-12.08 1.287c.132.132-.42.263-.832.507-.36.204-.446.433-.525.221-.276-.648 1.1-.945 1.358-.728zm-.036-1.22c.132.13-.437.255-.826.487-.359.204-.452.452-.55.234-.256-.641 1.126-.958 1.377-.72zm-2.129.854c.169.085-.342.373-.653.715-.291.291-.307.547-.46.367-.434-.547.805-1.22 1.113-1.081zm-.61-1.823c.15.078-.341.372-.67.709-.274.298-.307.546-.444.374-.432-.549.806-1.22 1.114-1.083zm1.358-.244c-.31-.139-1.546.534-1.115 1.082.136.172.17-.077.443-.374.329-.335.822-.63.672-.708zm18.205 2.687c-.001.161-.478-.162-.923-.311-.375-.124-.621-.057-.523-.262.317-.623 1.455.236 1.445.573zm.589-.86c.008-.339-1.112-1.19-1.428-.567-.098.203.13.13.522.261.443.15.905.466.906.305zM29.564 15c.016.168-.463-.157-.906-.307-.391-.129-.62-.055-.523-.26.317-.623 1.437.228 1.429.567zm-2.01-2.359c-.007.177-.468-.139-.912-.29-.392-.13-.621-.056-.522-.26.317-.623 1.436.228 1.433.55zm.606-.855c.002-.32-1.135-1.178-1.453-.556-.098.203.156.12.523.261.445.15.922.473.93.295zm1.34 1.278c-.01.177-.486-.147-.93-.296-.369-.14-.622-.056-.524-.26.318-.623 1.455.234 1.453.556zm-17.83-1.257c.137.114-.43.237-.826.488-.36.205-.446.434-.55.233-.253-.66 1.124-.956 1.376-.72zm1.37.143c-.252-.236-1.628.06-1.36.726.087.195.174-.033.532-.238.413-.244.966-.375.828-.488zm1.794-.5c.12.106-.43.237-.828.49-.359.202-.445.432-.549.232-.25-.661 1.126-.959 1.377-.722zm1.876-.347c.112.123-.46.206-.877.408-.362.164-.49.396-.547.172-.209-.663 1.199-.827 1.424-.58zm-3.162-.225c.137.112-.413.243-.827.487-.34.21-.445.433-.532.24-.267-.667 1.126-.957 1.36-.727zm1.713-.551c-.25-.238-1.627.06-1.36.726.08.211.175-.035.533-.238.407-.227.965-.375.827-.488zm1.708-.272c-.22-.266-1.644-.106-1.442.574.074.23.202-.002.572-.184.41-.183.984-.267.87-.39zm1.552 1.136c-.116-.324-1.463-.74-1.552-.03-.022.213.175.067.584.044.464-.004 1.026.15.968-.014zm.356-.989c.058.165-.486.015-.956.037-.403.005-.606.169-.578-.06.09-.71 1.435-.296 1.535.024zm1.476 1.129c-.074-.33-1.392-.875-1.533-.185-.046.224.167.084.575.12.467.038.999.222.958.065zm.461-.95c.034.175-.49-.026-.957-.064-.414-.02-.627.122-.582-.103.147-.707 1.464-.163 1.54.168zm1.423 1.53c0 .161-.48-.162-.923-.312-.375-.124-.62-.056-.522-.261.317-.621 1.454.235 1.445.573zm.57-.706c.008-.338-1.129-1.197-1.435-.55-.115.198.138.112.53.243.443.15.897.485.905.307zm1.187 1.52c.01.185-.462-.156-.907-.306-.39-.13-.62-.057-.522-.261.317-.622 1.454.236 1.429.569zm.605-.853c.009-.34-1.129-1.197-1.429-.568-.114.197.131.13.523.26.427.145.899.485.906.308zm1.338 1.277c.009-.34-1.127-1.198-1.428-.568-.115.197.13.13.523.26.426.144.898.485.905.308zM11.581 9.88c.137.114-.414.245-.828.488-.34.212-.446.433-.532.239-.267-.665 1.125-.957 1.36-.727zm1.37.142c-.235-.229-1.627.062-1.36.727.087.194.19-.026.532-.238.414-.246.964-.375.827-.489zm1.8-.517c.13.13-.42.263-.833.506-.36.204-.446.432-.527.22-.273-.647 1.103-.945 1.36-.726zm1.87-.33c.131.131-.441.214-.878.409-.362.163-.49.396-.547.172-.201-.68 1.199-.829 1.425-.58zm-3.138-.236c.113.125-.438.255-.852.5-.335.192-.445.431-.526.22-.274-.648 1.12-.94 1.378-.72zm1.705-.533c-.248-.236-1.643.054-1.376.72.081.212.19-.028.533-.239.408-.227.965-.375.843-.48zm1.699-.295c.105.14-.45.23-.879.408-.368.18-.491.395-.553.19-.202-.682 1.204-.846 1.432-.598zm1.545 1.156c-.1-.321-1.463-.742-1.535-.026-.02.213.175.068.585.042.462-.004 1.008.145.95-.016zm.374-.984c.057.162-.505.007-.967.01-.41.025-.606.17-.586-.042.09-.71 1.437-.294 1.553.032zm1.457 1.121c-.074-.331-1.374-.868-1.516-.178-.063.217.17.084.559.113.468.037 1.016.228.957.065zm.463-.95c.05.18-.491-.028-.959-.066-.407-.034-.628.122-.565-.095.15-.708 1.449-.17 1.524.16zm1.428 1.513c.01-.338-1.134-1.179-1.452-.556-.097.204.155.119.539.266.428.145.905.469.913.29zm.564-.69c.01.186-.462-.156-.906-.306-.392-.13-.628-.04-.523-.26.318-.624 1.438.229 1.43.567zm1.202 1.527c0 .16-.478-.162-.922-.312-.374-.124-.621-.057-.523-.262.318-.622 1.455.237 1.446.576zm.589-.859c.01-.34-1.112-1.192-1.427-.569-.098.205.13.13.521.26.445.151.923.474.906.309" fill="#525051"/><path d="M24.718 34.219c-5.268 11.52 26.423 22.659 37.205 20.69-2.303-1.035-23.31-50.999-37.205-20.69" fill="#838382"/><path d="M7.791 29.616c-.471 3.137 4.584 2.765 4.982.443.717-4.197-4.6-2.982-4.982-.443" fill="#f4afb3"/><path d="M10.409 26.784c1.342.347 1.622-1.785.633-2.064-1.787-.502-1.719 1.781-.633 2.064" fill="#31302f"/><path d="M12.077 37.117c.294-1.717 1.458 3.243 1.88 3.236.433-.008-.555-4.823.141-4.777.272.016 1.691 2.855 2.061 4.648.808-1.046-.766-9.259 2.436.047.47 1.367 1.73-6.641 2.267-2.251.5 4.082 3.343 11.323 9.332 14.19 6.892 3.293 17.247 1.892 21.295 1.362-7.49 3.333-16.7 8.084-26.103 5.243-8.519-2.575-13.037-7.946-13.694-15.882-.18-2.161.089-3.883.385-5.816" fill="#f18d18"/><path d="M5.108 30.9c.696 1.709.385 2.725-4.108 1.443.055-1.43 2.12-6.328 4.108-1.442" fill="#fbbf04"/></svg>