<svg width="72" height="72" xmlns="http://www.w3.org/2000/svg"><path d="M20.204 61.369c1.96-6.407 4.551-14.52 8.37-13.119 6.349 2.33 3.268 10.257 2.409 14.797-.46 2.429-10.799-1.61-10.779-1.678m30.736 3.073c.389-6.691.988-15.19 5.03-14.743 6.717.745 5.598 9.181 5.836 13.797.127 2.468-10.87 1.02-10.865.946" fill="#59660f"/><path d="M34.7 64.198c.408-6.692 1.032-15.189 5.073-14.73 6.716.766 5.571 9.2 5.796 13.815.12 2.47-10.873.986-10.868.915m24.43.796c-.785-6.656-1.679-15.13 2.377-15.402 6.744-.452 7.114 8.05 8.155 12.553.556 2.406-10.523 2.92-10.532 2.849" fill="#6a7c0d"/><path d="M51.006 58.638c7.18-.25 23.675-5.754 16.541-8.052-4.752-1.532-18.733-6.431-24.745-5.128-7.998 1.735-10.141-1.61-15.845-2.79-6.273 17.476 7.218 16.554 24.05 15.97" fill="#6a7c0d"/><path d="M23.444 45.39c-.492-14.114 7.908-22.594 23.06-22.437 10.917.111 28.648 11.15 23.617 30.73-2.638 10.268-44.957-7.751-46.677-8.293" fill="#c98c14"/><path d="M20.204 61.369c.037-1.064 2.592-2.811 3.062-.597.181.85.19 1.388.081 1.702a35.931 35.931 0 01-3.143-1.105m6.625 1.994c-.491-2.897 3.893-2.154 3.564.367-1.1-.084-2.895-.24-3.564-.367" fill="#beca22"/><path d="M50.94 64.442c-.216-1.041 1.852-3.348 2.833-1.31.376.782.52 1.352.49 1.683-1.103-.043-2.65-.269-3.322-.373" fill="#bec918"/><path d="M54.36 64.821c-.258-1.031 1.588-3.538 2.649-1.542.406.768.66 1.316.643 1.647-1.103 0-2.618-.027-3.292-.105m3.482.101c-1.162-2.696 3.268-3.208 3.546-.682-.48.33-1.19.449-1.836.558-.689.117-1.36.106-1.71.124" fill="#bec918"/><path d="M34.7 64.198c-.213-1.044 1.863-3.344 2.837-1.303.375.783.507 1.304.475 1.635a36.51 36.51 0 01-3.311-.332" fill="#beca22"/><path d="M37.988 64.466c-.254-1.033 1.73-3.414 2.784-1.414.405.77.559 1.283.54 1.616a35.709 35.709 0 01-3.324-.202m3.617.104c-1.155-2.699 3.282-3.012 3.552-.484-1.09.178-2.872.453-3.552.485" fill="#beca22"/><path d="M59.131 64.994c-.395-.988 1.238-3.624 2.56-1.79.508.704.748 1.239.776 1.57-1.092.152-2.656.204-3.336.22" fill="#bec918"/><path d="M62.562 64.764c-.434-.97.948-3.766 2.34-1.986.534.684.881 1.178.92 1.508-1.085.195-2.58.434-3.26.478m3.447-.516c-1.615-2.449 2.659-3.735 3.372-1.298-.416.409-1.094.652-1.71.874-.658.236-1.32.345-1.662.424" fill="#bec918"/><path d="M47.253 24.257c-.344.691-2.08 3.807-1.768 4.365.06.106 2.444 3.838 2.471 3.869.331-.353 2.165-3.473 1.869-4.039-.723-1.378-1.494-2.982-2.468-4.178zm18.68 12.952c.048.443.18 2.493.505 2.664a248.63 248.63 0 002.398 1.09c.05-.274-.036-2.358-.355-2.538-.779-.437-1.65-.97-2.494-1.24zm-4.182 2.83c.047.443.18 2.493.504 2.664a303.8 303.8 0 002.397 1.09c.052-.275-.035-2.358-.354-2.538-.779-.438-1.65-.97-2.493-1.24zm-5.032 1.83c-.094.435-.616 2.422-.362 2.687.049.051 1.91 1.786 1.93 1.8.134-.244.71-2.249.464-2.52-.6-.663-1.258-1.447-1.972-1.972zm-6.06.467l.059.008c.579.673 1.048 1.583 1.487 2.364.179.32-.825 2.144-1.011 2.352a308.087 308.087 0 01-1.483-2.185c-.188-.315.76-2.136.947-2.54zm-5.637.217l.06.01c.58.67 1.049 1.58 1.487 2.362.18.32-.826 2.145-1.01 2.353a284.825 284.825 0 01-1.483-2.185c-.189-.316.76-2.136.946-2.54zm-5.585-2.423c-.392.209-2.242 1.082-2.28 1.448-.008.07-.135 2.619-.133 2.643.273-.054 2.169-.897 2.218-1.26.122-.89.295-1.9.237-2.787zm-5.381-2.664l.03.052c-.172.873-.599 1.803-.943 2.631-.142.339-2.19.661-2.467.642.003-.024.78-2.453.805-2.519.133-.343 2.143-.707 2.575-.806zm-3.378-2.782c-.442.031-2.484.083-2.667.402a317.72 317.72 0 00-1.178 2.365c.271.062 2.344.057 2.535-.255.466-.765 1.029-1.62 1.332-2.455zm11.405.917c-.345.692-2.08 3.807-1.768 4.366.06.106 2.443 3.838 2.47 3.868.333-.352 2.167-3.472 1.87-4.038-.724-1.378-1.494-2.982-2.468-4.178zm-1.022-.523c-.768.054-4.318.145-4.637.699a514.84 514.84 0 00-2.046 4.11c.47.108 4.074.1 4.406-.444.81-1.33 1.789-2.815 2.314-4.268zm13.337.338c.238.736 1.178 4.18 1.79 4.356.116.034 4.42 1.008 4.46 1.011-.01-.485-.883-4.001-1.488-4.194-1.478-.472-3.147-1.07-4.675-1.233zm-1.259-.166c-.388.669-2.315 3.667-2.04 4.244.054.11 2.198 3.986 2.224 4.018.352-.33 2.378-3.329 2.118-3.912-.634-1.42-1.304-3.07-2.2-4.326zm-5.399.112c-.388.67-2.316 3.668-2.04 4.244.054.11 2.198 3.987 2.223 4.019.353-.33 2.379-3.328 2.12-3.91-.636-1.423-1.304-3.072-2.202-4.328zm10.475-2.545l.087-.06c1.527.163 3.197.76 4.674 1.232.606.193 1.48 3.71 1.49 4.195a583.84 583.84 0 01-4.462-1.01c-.611-.177-1.55-3.621-1.79-4.357zm-21.087-.819l.037.1c-.525 1.451-1.504 2.937-2.313 4.266-.332.545-3.937.552-4.406.446a503.42 503.42 0 012.047-4.113c.317-.554 3.868-.643 4.635-.699zm2.736-5.375c-.767.055-4.317.143-4.635.699a516.71 516.71 0 00-2.047 4.111c.47.107 4.074.1 4.407-.445.81-1.328 1.787-2.815 2.313-4.267zm15.9.975c.247.733 1.226 4.166 1.839 4.336.117.033 4.432.956 4.472.96-.014-.486-.93-3.992-1.536-4.179-1.483-.453-3.16-1.033-4.69-1.178zm-5.541 2.8c-.388.67-2.316 3.668-2.04 4.244a514 514 0 002.222 4.018c.354-.33 2.379-3.328 2.12-3.91-.636-1.421-1.304-3.072-2.2-4.328zm1.424-.226l.087-.061c1.528.164 3.198.762 4.675 1.234.605.192 1.48 3.708 1.49 4.194a484.23 484.23 0 01-4.461-1.01c-.612-.178-1.552-3.62-1.79-4.357zm-8.05-.618c-.767.055-4.318.145-4.635.7a570.34 570.34 0 00-2.047 4.111c.47.108 4.074.1 4.407-.446.81-1.328 1.788-2.814 2.313-4.266zm1.301.037l.104.018c.975 1.196 1.746 2.8 2.467 4.178.297.566-1.536 3.685-1.867 4.038-.029-.03-2.412-3.762-2.471-3.869-.313-.558 1.423-3.673 1.767-4.365zm4.026-4.815l.086-.06c1.532.145 3.207.724 4.69 1.179.607.186 1.521 3.691 1.536 4.175-.04 0-4.354-.925-4.473-.957-.612-.17-1.591-3.603-1.839-4.337zm-2.972-.557l.038.1c-.526 1.452-1.504 2.938-2.313 4.266-.333.545-3.937.552-4.407.445.012-.038 1.986-4.005 2.047-4.111.317-.554 3.867-.645 4.635-.7" fill="#9d6f00"/><path d="M34.52 49.628c-1.385-8.346 5.318-23.44-.625-30.313-4.852-5.61-20.077-11.502-28.497-1.743-5.538 6.417-6.095 16.34-.243 24.233 5.984 8.072 18.523 3.813 18.435 3.836.255 3.787 2.757 10.317 5.643 11.28 3.706 1.239 6.256-1.45 5.287-7.293" fill="#6a7c0d"/><path d="M20.757 35.718c.794.892 2.005-.503 1.43-1.176-1.04-1.215-2.073.455-1.43 1.176" fill="#31302f"/><path d="M18.946 37.464c-2.065 2.291 2.23 4.725 3.797 3.056 2.831-3.02-2.127-4.91-3.797-3.056" fill="#f5c3c6"/><path d="M13.516 39.21c-.461.117-.907.079-1.27-.11-.38-.195-.673-.549-.812-.766-.112-.176-.119-.324.008-.31.044.007.218.298.47.543.212.207.52.297.675.356.456.174.936.1 1.232-.31.091-.125.175-.266.231-.407.076-.193.166-.326.176-.4.014-.127.09-.272.18-.112.145.262-.294 1.364-.89 1.517"/><path d="M5.462 34.452c.794.892 2.005-.503 1.43-1.175-1.04-1.215-2.074.454-1.43 1.175" fill="#31302f"/><path d="M3.65 36.199c-2.064 2.291 2.23 4.726 3.797 3.056 2.833-3.02-2.126-4.91-3.797-3.056" fill="#f5c3c6"/><path d="M12.45 13.786c-.937.28-5.258-.096-5.885 1.198.536.71 3.376.002 4.046-.254.432-.165 2.077-.008 2.05-.584-.002-.054.025-.432-.21-.36" fill="#694926"/><path d="M13.525 12.998c.777.247.813 1.89-.648 1.27-.489-.207-.304-1.574.648-1.27" fill="#694926"/><path d="M12.653 7.453c-2.153-1.236-6.331.167-5.86 2.871.11.62 1.353 3.014 1.94 3.311.683.345.897.54 1.767.609 2.267.175 3.861-5.812 2.153-6.791" fill="#f0882e"/><path d="M9.219 14.06c-.32-1.23-2.477-3.902-3.748-3.798-2.74.224.301 3.731 2.605 3.965.764.078 1.168-.072 1.143-.167" fill="#fbbf04"/><path d="M23.338 62.406c-.006-1.064 2.479-2.91 3.037-.716.213.843.242 1.378.147 1.696a35.618 35.618 0 01-3.184-.98" fill="#beca22"/></svg>