<svg width="72" height="72" xmlns="http://www.w3.org/2000/svg"><path d="M22.005 34.207c1.456.568-1.945 5.723-5.153 19.38-1.498 6.385-5.868 9.461-9.458 9.182-2.222-.172-5.029-.834-5.716-2.636-1.165-3.049 3.707-6.417 5.478-4.29 5.51-4.496 9.099-23.888 14.85-21.636m27.954 2.319c-1.454.57.346.824 5.182 12.597 2.495 6.069 5.877 9.458 9.468 9.176 2.221-.174 5.026-.84 5.713-2.641 1.162-3.05-3.713-6.415-5.482-4.287-5.513-4.49-9.132-17.1-14.881-14.845" fill="#a89d97"/><path d="M21.103 38.19c.82-1.94-14.346 18.238-5.292 22.227 2.765 1.218 3.83 3.792 8.92 4.507 7.668 1.078 9.053.516 16.416.163 8.535-.41 8.129-1.82 14.73-5.043 2.98-1.456 3.646-7.137 1.897-11.373-2.112-5.124-7.424-12.327-10.2-12.046-7.207.724-28.241.11-26.471 1.564" fill="#958b85"/><path d="M28.443 43.406c20.386-9.904 35.67 22.358 15.022 24.3-9.275.874-23.69 1.972-24.266-11.888-.246-5.918 4.368-10.042 9.244-12.412" fill="#b9baba"/><path d="M44.272 11.436c-.117-5.348 2.17-8.758 7.77-7.34 5.326 1.347 4.056 12.377-4.796 10.884-.367-.062-2.958-2.78-2.974-3.544m-18.324-.393C15.125-6.394 8.812 24.313 24.695 15.35c.315-.177 1.646-3.675 1.253-4.307" fill="#958b85"/><path d="M35.784 41.83c8.835-.284 17.206-3.658 19.844-10.054C60.905 18.98 39.254-4.53 26.49 4.324 17.817 10.34 2.695 42.9 35.784 41.831" fill="#afa9a6"/><path d="M53.134 49.53c-7.302-2.255-11.612 13.687-6.658 17.651 8.194 6.555 14.42-15.255 6.658-17.65" fill="#b0b1b2"/><path d="M51.223 55.273c-4.435-1.37-7.053 8.313-4.043 10.72 4.976 3.983 8.76-9.266 4.043-10.72" fill="#696561"/><path d="M55.048 53.58c-1.72-.438-2.533 2.005-1.338 2.683 1.978 1.12 3.167-2.22 1.338-2.684m-3.025-2.155c-1.72-.438-2.533 2.005-1.338 2.684 1.977 1.12 3.167-2.22 1.338-2.684m-3.963.754c1.772.085 1.827 2.66.485 2.957-2.222.491-2.371-3.049-.485-2.957" fill="#696561"/><path d="M38.053 51.385c-.955-.641-1.989.675-1.408 1.35.963 1.114 2.424-.667 1.408-1.35" fill="#3b3a39"/><path d="M14.675 56.641c5.046-4.83 15.163 6.457 12.744 11.729-3.999 8.716-18.109-6.593-12.744-11.73" fill="#b0b1b2"/><path d="M18.613 60.56c3.064-2.933 9.21 3.924 7.74 7.126-2.43 5.294-11-4.005-7.74-7.125" fill="#696561"/><path d="M14.781 60.74c1.227-1.063 2.903.606 2.204 1.648-1.156 1.727-3.51-.52-2.204-1.649m1.585-3.001c1.23-1.063 2.905.605 2.206 1.649-1.157 1.726-3.51-.521-2.206-1.649m3.558-1.004c-1.417.795-.399 2.925.824 2.619 2.023-.507.682-3.465-.824-2.619" fill="#696561"/><path d="M42.672 9.023c-.134 2.61 2.598 5.247 3.185 4.486.487-.631-.679-2.368-1.62-4.338-.571-1.197-.306-.398.457.201 1.566 1.228 5.006 1.92 2.593.023-.784-.617-2.152-1.111-2.624-1.457 8.165 1.227 1.795-.906.587-1.197.774-.533 2.434-3.218 2.065-3.917-.44-.833-2.125.245-3.473 3.136.53-5.747-1.01-7.023-1.548-1.032-2.636-4.74-3.332-1.806-2.458-.675.193.25 1.419 1.555 1.428 1.57-2.05-.267-4.002.108-3.969.37.063.5 3.929 1.244 3.875 1.279-1.895 1.246-1.981 3.9-1.62 3.895 1.34-.016 3.06-1.15 3.122-2.343" fill="#fbbf26"/><path d="M43.544 6.398c.033.01 1.34 1.527-.419 1.571-1.04.029-1.932-2.218.42-1.57" fill="#e95707"/><path d="M49.002 24.965c1.098.602 1.82-1.187 1.016-1.648-1.454-.835-1.902 1.162-1.016 1.648" fill="#3b3a39"/><path d="M36.99 21.887c-8.96-.939-15.097 20.073 3.304 17.372 4.727-.694 12.44-15.722-3.304-17.372" fill="#d4d4d4"/><path d="M37.887 34.768c.005.14.015.24.03.315a20.258 20.258 0 01-2.222-.124c.146.88 1.714.883 2.922.654.744-.14 2.161-.83 2.072-1.547-.001-.012-1.13.578-1.96.872-.14-.575-.592-2.337-.6-2.63-.003-.202-.03-2.194-.182-2.167-.89.151-.104 3.525-.06 4.627" fill="#3b3a39"/><path d="M37.18 21.457c3.563-.176 6.228 11.527-.208 11.045-2.569-.192-9.99-10.542.207-11.045" fill="#696561"/><path d="M24.32 28.389c1.308.638 2.209-1.336 1.25-1.827-1.73-.888-2.307 1.31-1.25 1.827" fill="#3b3a39"/><path d="M49.16 29.383c2.32 1.188 3.844-2.346 2.144-3.257-3.071-1.647-4.02 2.295-2.144 3.257m-25.124 4.363c2.318 1.187 3.842-2.343 2.143-3.254-3.07-1.649-4.02 2.295-2.143 3.254" fill="#f5b0b4"/></svg>