<svg width="994" height="450" xmlns:xlink="http://www.w3.org/1999/xlink" xmlns="http://www.w3.org/2000/svg"><defs><linearGradient id="a"><stop offset="0" stop-color="#3498db" stop-opacity=".15"/><stop offset="1" stop-color="#3498db"/></linearGradient><linearGradient xlink:href="#a" id="b" x1="0" y1="0" x2="0" y2="510" gradientUnits="userSpaceOnUse"/></defs><path fill="url(#b)" d="M0 0h994v450H0z"/><path fill="#c3af8c" d="M0 510h994V320H0z"/><path d="M552.678-34.596v227.909h-17.285l13.988 25.712h.172v141.649H537.75v23.347h79.143v-81.783a47.5 47.5 0 0147.5-47.5 47.5 47.5 0 0147.5 47.5v81.783h79.143v-23.347h-11.803V219.025h.172l13.988-25.713h-17.285V-34.595z" fill="#e8e8e8"/><path d="M664.393 218.045a61.385 61.385 0 00-61.385 61.385v104.59h13.885v-81.783a47.5 47.5 0 0147.5-47.5 47.5 47.5 0 0147.5 47.5v81.783h13.884V279.43a61.385 61.385 0 00-61.384-61.385zm-129-24.732l5.984 11h246.031l5.985-11h-258z" fill-opacity=".2"/><path d="M552.678-34.596v227.909h-17.285l13.988 25.712h.172v141.649H537.75v23.347h79.143v-81.783a47.5 47.5 0 0147.5-47.5 47.5 47.5 0 0147.5 47.5v81.783h79.142v-23.347h-11.803V219.025h.172l13.989-25.713h-17.286V-34.595zm7.896 398.94h32.389m142.86 0h32.388m-207.637-10h32.389m142.86 0h32.388m-207.637-10h32.389m142.86 0h32.388m-207.637-10h32.389m142.86 0h32.388m-207.637-10h32.389m142.86 0h32.388m-207.637-10h32.389m142.86 0h32.388m-207.637-10h32.389m142.86 0h32.388m-207.637-10h32.389m142.86 0h32.388m-207.637-10h32.389m142.86 0h32.388m-207.637-10h32.467m142.703 0h32.467m-207.637-10h33.406m140.825 0h33.406m-207.637-10h35.715m136.21 0h35.712m-207.637-10h39.807m128.023 0h39.807m-207.637-10h45.795m116.047 0h45.795m-207.637-10h54.46m98.718 0h54.46m-207.638-10h67.701m72.235 0h67.701m-207.637-10H768.21m-207.637-10H768.21m-207.637-10H768.21m-207.637-10H768.21m-207.637-10H768.21m-207.637-10H768.21m-207.637-10h22.318m163 0h22.32m-207.638-10h22.318m163 0h22.32m-207.638-10h22.318m163 0h22.32m-207.638-10h22.318m163 0h22.32m-207.638-10h22.318m163 0h22.32m-207.638-10h22.318m163 0h22.32m-207.638-10h22.318m163 0h22.32m-207.638-10h22.318m163 0h22.32m-207.638-10h22.318m163 0h22.32m-207.638-10h22.318m163 0h22.32m-207.638-10h22.318m163 0h22.32m-207.638-10h22.318m163 0h22.32m-207.638-10H768.21m-207.637-10H768.21m-207.637-10H768.21m-207.637-10H768.21m-207.637-10H768.21m-207.637-10H768.21" fill="none" stroke="#557f86" stroke-width="2" stroke-linecap="round" stroke-linejoin="round"/><circle cx="662.783" cy="91.732" r="88" fill="#e8e8e8" stroke="#bdcad9" stroke-width="2"/><text style="line-height:1.25;-inkscape-font-specification:'Arial Bold';text-align:center" x="662.268" y="29.147" font-weight="700" font-size="17.306" font-family="Arial" text-anchor="middle"><tspan x="662.268" y="29.147" style="-inkscape-font-specification:'Arial Bold'">12</tspan></text><text style="line-height:1.25;-inkscape-font-specification:'Arial Bold';text-align:center" x="629.012" y="38.361" font-weight="700" font-size="17.306" font-family="Arial" text-anchor="middle"><tspan x="629.012" y="38.361" style="-inkscape-font-specification:'Arial Bold'">11</tspan></text><text style="line-height:1.25;-inkscape-font-specification:'Arial Bold';text-align:center" x="602.665" y="63.429" font-weight="700" font-size="17.306" font-family="Arial" text-anchor="middle"><tspan x="602.665" y="63.429" style="-inkscape-font-specification:'Arial Bold'">10</tspan></text><text style="line-height:1.25;-inkscape-font-specification:'Arial Bold';text-align:center" x="594" y="97.816" font-weight="700" font-size="17.306" font-family="Arial" text-anchor="middle"><tspan x="594" y="97.816" style="-inkscape-font-specification:'Arial Bold'">9</tspan></text><text style="line-height:1.25;-inkscape-font-specification:'Arial Bold';text-align:center" x="603.222" y="132.204" font-weight="700" font-size="17.306" font-family="Arial" text-anchor="middle"><tspan x="603.222" y="132.204" style="-inkscape-font-specification:'Arial Bold'">8</tspan></text><text style="line-height:1.25;-inkscape-font-specification:'Arial Bold';text-align:center" x="628.349" y="157.377" font-weight="700" font-size="17.306" font-family="Arial" text-anchor="middle"><tspan x="628.349" y="157.377" style="-inkscape-font-specification:'Arial Bold'">7</tspan></text><text style="line-height:1.25;-inkscape-font-specification:'Arial Bold';text-align:center" x="662.825" y="166.591" font-weight="700" font-size="17.306" font-family="Arial" text-anchor="middle"><tspan x="662.825" y="166.591" style="-inkscape-font-specification:'Arial Bold'">6</tspan></text><text style="line-height:1.25;-inkscape-font-specification:'Arial Bold';text-align:center" x="697.128" y="157.267" font-weight="700" font-size="17.306" font-family="Arial" text-anchor="middle"><tspan x="697.128" y="157.267" style="-inkscape-font-specification:'Arial Bold'">5</tspan></text><text style="line-height:1.25;-inkscape-font-specification:'Arial Bold';text-align:center" x="722.622" y="132.284" font-weight="700" font-size="17.306" font-family="Arial" text-anchor="middle"><tspan x="722.622" y="132.284" style="-inkscape-font-specification:'Arial Bold'">4</tspan></text><text style="line-height:1.25;-inkscape-font-specification:'Arial Bold';text-align:center" x="731.558" y="97.812" font-weight="700" font-size="17.306" font-family="Arial" text-anchor="middle"><tspan x="731.558" y="97.812" style="-inkscape-font-specification:'Arial Bold'">3</tspan></text><text style="line-height:1.25;-inkscape-font-specification:'Arial Bold';text-align:center" x="722.509" y="63.535" font-weight="700" font-size="17.306" font-family="Arial" text-anchor="middle"><tspan x="722.509" y="63.535" style="-inkscape-font-specification:'Arial Bold'">2</tspan></text><text style="line-height:1.25;-inkscape-font-specification:'Arial Bold';text-align:center" x="697.787" y="38.361" font-weight="700" font-size="17.306" font-family="Arial" text-anchor="middle"><tspan x="697.787" y="38.361" style="-inkscape-font-specification:'Arial Bold'">1</tspan></text><circle cx="662.783" cy="91.732" r="2" fill="#34495e"/><path d="M-23.186 295.193v179.265s116.692-23.645 175.872-28.84c19.097-1.677 39.34-3.021 55.985 4.523 30.176 13.678 80.402 36.254 123.28 36.758 19.342.228 35.263-10.85 54.485-13.018 8.998-1.015 19.628.461 28.144-2.62 9.43-3.411 18.763-11.23 31.19-7.9 14.304 3.834 28.324-3.872 31.343-16.31 2.647-10.907-7.787-21.632-18.055-25.947-17.05-7.165-52.46-7.72-52.46-7.72 43.419-7.842 72.116-39.788 94.438-59.378 24.913-14.142 45.76-38.806 45.24-39.586 12.509-11.742 26.403-20.76 36.759-36.757 11.896-18.378 12.967-30.556 6.59-40.01-6.46-9.578-23.205-8.897-33.646-2.12-12.064 7.83-6.11 2.178-36.28 24.033-24.427 13.95-45.618 27.899-68.427 41.848-4.963.15-8.225-.72-8.483-3.393 13.87-8.846 31.32-16.2 40.151-27.144 13.14-11.964 25.771-19.31 44.71-19.58 11.572-.165 22.365-21.696 13.536-32.836-8.183-10.326-19.356-13.544-33.116-16.434-6.675-6.735-18.234-11.156-29.088-14.28-6.334-7.292-23.174-14.913-71.538-1.803-17.915-12.466-31.326-8.012-59.872-.53-15.511 4.064-39.036 18.038-58.072 28.017-21.55 11.296-46.381 23.023-63.483 36.022-20.792 15.803-35.39 37.86-65.414 38.954-61.53 2.243-123.537 10.082-183.789 6.786z" fill="#ffcd84"/><path d="M384.873 178.135c-3.483-.063-7.136.302-11.082.97-.883 4.138-1.707 8.354-3.672 11.758-5.741 9.944-16.721 18.442-30.159 19.366-11.447.787-19.613 12.436-30.773 15.175-8.968 2.201-5.827 9.304 2.42 7.457 9.89-2.214 18.145-8.521 29.201-7.658 8.809.688 16.724-5.942 23.742-10.988 10.003-7.191 18.634-14.101 30.2-19.164 10.426-4.012 21.515-4.6 30.976.863 13.662 7.888 7.636 22.819-2.71 25.211-13.342 3.085-22.246 16.933-36.475 18.56-9.97-.796-20.1 1.84-28.163 7.887-3.568 3.395-18.944 12.577-11.09 14.791 14.721-7.85 27.835-13.05 44.358-12.908 8.384.072 42.562-24.462 58.951-36.746 10.675-8.001 23.446-1.666 34.156 2.834 13.427 5.64 20.816 19.115 22.17 29.662.506 3.937 2.469 6.493 5.266 8.176 4.714-1.279 9.8-2.004 15.459-2.084 11.573-.165 22.365-21.696 13.537-32.836-8.183-10.326-19.355-13.543-33.115-16.434-6.675-6.734-18.234-11.155-29.088-14.279-6.334-7.292-23.175-14.913-71.54-1.803-7.837-5.454-14.811-7.67-22.57-7.81zm189.421 52.324c-6.299-.18-13.095 1.685-18.316 5.074-11.564 7.506-6.918 2.885-33.057 21.717a11.88 11.88 0 00-.636 4.193c.436 14.727 21.725 14.838 32.88 4.98 7.986-7.056 15.592-35.155 24.48-22.952 9.187 12.616-10.54 26.067-17.089 38.12-7.447 13.708-18.922 26.153-34.162 30.09-15.07 3.894-24.44 16.12-32.666 28.397-8.125 12.127-15.606 28.152-31.744 31.215-14.369 2.727-28.267 8.679-40.715 16.59-13.293 8.448-29.113 11.78-39.736 24.605-9.963 12.03-26.991 12.204-39.762 19.668-13.958 8.158 9.078 13.29 16.791 8.13 11.218-7.506 25.862-8.22 37.154-15.425 6.292-4.014 12.768-7.833 19.496-11.007-6.236-.383-10.615-.471-10.615-.471 43.42-7.841 72.117-39.787 94.44-59.377 24.912-14.142 45.76-38.807 45.24-39.586 12.508-11.742 26.402-20.761 36.758-36.758 11.896-18.378 12.966-30.554 6.59-40.008-3.23-4.789-9.032-7.015-15.33-7.195zM438.146 292.83c-4.734-.031-9.455.878-13.69 3.037-8.669 4.421-18.21 6.428-27.525 8.819-2.988.766-7.18-1.083-9.119 2.084-2.07 3.383 3.114 5.663 6.059 5.804 4.548.218 9.073.056 13.619-.027 12.467-.228 25.018-3.33 37.463-.645 4.001.864 8.826 1.488 12.26-1.388 2.667-2.235 2.87-6.65.238-9.098-.792-.737-1.534-1.567-2.29-2.398-1.296.799-2.583 1.597-3.89 2.396-4.963.15-8.225-.72-8.482-3.392 1.93-1.231 3.937-2.43 5.972-3.618-3.408-.975-7.013-1.55-10.615-1.574zm-257.22 108.557c-4.622.1-9.41.92-14.426 2.613-71.179 24.018-127.686 34.712-189.686 48.146v22.313s116.692-23.646 175.871-28.842c19.097-1.676 39.339-3.021 55.984 4.524 30.177 13.677 80.404 36.253 123.282 36.757 19.342.228 35.263-10.85 54.484-13.017 8.999-1.015 19.629.462 28.145-2.62 9.43-3.41 18.761-11.23 31.19-7.9 13.49 3.615 26.724-3.036 30.718-14.24C422.584 454.138 368.205 460.578 315.5 462c-61.336 1.655-90.035-59.672-132.604-60.613a44.8 44.8 0 00-1.97 0z" fill="#e7b171"/><path d="M452.371 444.416a20.506 13.17 0 00-20.506 13.17 20.506 13.17 0 002.014 5.69c3.684-.868 7.6-1.064 11.89.085 10.56 2.83 20.96-.633 26.899-7.642a20.506 13.17 0 00-20.297-11.303z" fill="#e8d3b9"/><path d="M-23.186 474.458s116.692-23.645 175.872-28.84c19.097-1.677 39.34-3.021 55.985 4.523 30.176 13.678 80.402 36.254 123.28 36.758 19.342.228 35.263-10.85 54.485-13.018 8.998-1.015 19.628.461 28.144-2.62 9.43-3.411 18.763-11.23 31.19-7.9 14.304 3.834 28.324-3.872 31.343-16.31 2.647-10.907-7.787-21.632-18.055-25.947-17.05-7.165-52.46-7.72-52.46-7.72m-429.784-118.19c60.252 3.295 122.26-4.544 183.789-6.787 30.024-1.094 44.622-23.151 65.414-38.954 17.102-12.999 41.934-24.726 63.483-36.022 19.036-9.979 42.56-23.953 58.072-28.018 28.546-7.48 41.957-11.935 59.872.531m-71.038 257.412c20.032 4.065 48.815-22.375 70.191-29.972 43.42-7.842 72.117-39.788 94.44-59.378 24.912-14.142 45.76-38.806 45.24-39.586 12.508-11.742 26.402-20.76 36.758-36.757 11.896-18.378 12.967-30.556 6.59-40.01-6.46-9.578-23.205-8.897-33.646-2.12-12.064 7.83-6.11 2.178-36.28 24.033-24.427 13.95-45.618 27.899-68.427 41.848-13.668 1.582-13.392-1.463-14.834-3.977m14.834 3.977c-4.963.15-8.225-.72-8.483-3.393 13.87-8.846 31.32-16.2 40.151-27.144 13.14-11.964 25.771-19.31 44.71-19.58 11.572-.165 22.365-21.696 13.536-32.836-8.183-10.326-19.356-13.544-33.116-16.434-20.113-2.78-39.45-1.904-55.753 10.2-23.33 17.32-47.345 35.85-67.12 36.675m122.873-46.875c-6.675-6.735-18.234-11.156-29.088-14.28-6.334-7.292-23.174-14.913-71.538-1.803-23.66 6.173-40.841 36.252-62.022 36.971m79.55-31.996c6.566 4.882 14.674 9.25 15.91 15.91m134.703 33.587c4.86 5.534 11.95 8.279 13.435 18.032m-103.945-44.902c10.617 7.76 21.73 15.113 22.274 31.113M432.06 456.062c.582-4.82 3.503-8.547 11.137-10.076" fill="none" stroke="#95502f" stroke-linecap="round" stroke-linejoin="round"/><path d="M200.509 351.173l-22.075-5.915v31.395l22.075-5.487" fill="#95a5a6" stroke="#34495e"/><path d="M200.51 361.17h-15.19m14.93 5.296l-14.671 3.93m14.671-14.523l-14.671-3.93" fill="none" stroke="#34495e"/><path d="M87.895 277.29c-2.595 0-3.72 2.273-4.696 4.651l-13.79 33.643H90.91l2.807-26.354c.204-1.917 1.483-3.494 3.31-3.494h48.616c1.827 0 3.106 1.577 3.31 3.494l2.809 26.354h21.502l-13.793-33.643c-.975-2.378-2.101-4.652-4.696-4.652h-66.88zM69.408 408.087L83.2 441.73c.975 2.379 2.101 4.653 4.696 4.653h66.88c2.595 0 3.72-2.274 4.696-4.653l13.793-33.642h-21.502l-2.809 26.353c-.204 1.918-1.483 3.495-3.31 3.495H97.027c-1.827 0-3.106-1.577-3.31-3.495l-2.807-26.353z" fill="#95a5a6" stroke="#34495e"/><circle cx="121.499" cy="361.836" r="69.5" fill="#95a5a6" stroke="#34495e"/><circle cx="121.499" cy="361.836" r="55.5" fill="#ecf0f1" stroke="#bdc3c7" stroke-width="4"/><text style="line-height:1.25;-inkscape-font-specification:'Arial Bold';text-align:center" x="121.2" y="323.28" font-weight="700" font-size="10.667" font-family="Arial" text-anchor="middle"><tspan x="121.2" y="323.28" style="-inkscape-font-specification:'Arial Bold'">12</tspan></text><text style="line-height:1.25;-inkscape-font-specification:'Arial Bold';text-align:center" x="100.703" y="328.959" font-weight="700" font-size="10.667" font-family="Arial" text-anchor="middle"><tspan x="100.703" y="328.959" style="-inkscape-font-specification:'Arial Bold'">11</tspan></text><text style="line-height:1.25;-inkscape-font-specification:'Arial Bold';text-align:center" x="84.463" y="344.41" font-weight="700" font-size="10.667" font-family="Arial" text-anchor="middle"><tspan x="84.463" y="344.41" style="-inkscape-font-specification:'Arial Bold'">10</tspan></text><text style="line-height:1.25;-inkscape-font-specification:'Arial Bold';text-align:center" x="79.122" y="365.605" font-weight="700" font-size="10.667" font-family="Arial" text-anchor="middle"><tspan x="79.122" y="365.605" style="-inkscape-font-specification:'Arial Bold'">9</tspan></text><text style="line-height:1.25;-inkscape-font-specification:'Arial Bold';text-align:center" x="84.807" y="386.8" font-weight="700" font-size="10.667" font-family="Arial" text-anchor="middle"><tspan x="84.807" y="386.8" style="-inkscape-font-specification:'Arial Bold'">8</tspan></text><text style="line-height:1.25;-inkscape-font-specification:'Arial Bold';text-align:center" x="100.294" y="402.316" font-weight="700" font-size="10.667" font-family="Arial" text-anchor="middle"><tspan x="100.294" y="402.316" style="-inkscape-font-specification:'Arial Bold'">7</tspan></text><text style="line-height:1.25;-inkscape-font-specification:'Arial Bold';text-align:center" x="121.544" y="407.995" font-weight="700" font-size="10.667" font-family="Arial" text-anchor="middle"><tspan x="121.544" y="407.995" style="-inkscape-font-specification:'Arial Bold'">6</tspan></text><text style="line-height:1.25;-inkscape-font-specification:'Arial Bold';text-align:center" x="142.687" y="402.248" font-weight="700" font-size="10.667" font-family="Arial" text-anchor="middle"><tspan x="142.687" y="402.248" style="-inkscape-font-specification:'Arial Bold'">5</tspan></text><text style="line-height:1.25;-inkscape-font-specification:'Arial Bold';text-align:center" x="158.4" y="386.849" font-weight="700" font-size="10.667" font-family="Arial" text-anchor="middle"><tspan x="158.4" y="386.849" style="-inkscape-font-specification:'Arial Bold'">4</tspan></text><text style="line-height:1.25;-inkscape-font-specification:'Arial Bold';text-align:center" x="163.908" y="365.602" font-weight="700" font-size="10.667" font-family="Arial" text-anchor="middle"><tspan x="163.908" y="365.602" style="-inkscape-font-specification:'Arial Bold'">3</tspan></text><text style="line-height:1.25;-inkscape-font-specification:'Arial Bold';text-align:center" x="158.331" y="344.475" font-weight="700" font-size="10.667" font-family="Arial" text-anchor="middle"><tspan x="158.331" y="344.475" style="-inkscape-font-specification:'Arial Bold'">2</tspan></text><text style="line-height:1.25;-inkscape-font-specification:'Arial Bold';text-align:center" x="143.093" y="328.959" font-weight="700" font-size="10.667" font-family="Arial" text-anchor="middle"><tspan x="143.093" y="328.959" style="-inkscape-font-specification:'Arial Bold'">1</tspan></text><circle cx="121.499" cy="361.836" r="2" fill="#34495e"/><rect width="50" height="20" x="96.336" y="270" ry="4" fill="#4c272a"/><rect width="50" height="20" x="96.336" y="434" ry="4" fill="#4c272a"/><ellipse cx="200.509" cy="361.17" rx="3.205" ry="9.996" fill="#bdc3c7" stroke="#34495e"/></svg>