<svg width="133" height="139" xmlns="http://www.w3.org/2000/svg"><path d="M59.86 31.374q2.656-2.226 6.64-2.226 3.984 0 6.64 2.226 2.657 2.227 2.657 6.055 0 3.477-2.305 5.781 3.203 2.54 3.203 6.329 0 3.867-3.086 6.171-3.086 2.305-7.109 2.305t-7.11-2.305q-3.085-2.304-3.085-6.171 0-3.79 3.203-6.329-2.266-2.265-2.266-5.78 0-3.829 2.617-6.056zm10.038 3.594q-1.25-.976-3.398-.976t-3.398.976q-1.25.938-1.25 2.5 0 1.64 1.289 2.54 1.289.898 3.359.898 2.07 0 3.36-.899 1.328-.898 1.328-2.539 0-1.562-1.29-2.5zm.391 11.836q-1.914-.937-3.789-.937-1.875 0-3.79.937-1.913.938-1.913 2.695 0 1.797 1.836 2.735 1.875.937 3.867.937t3.828-.937q1.875-.938 1.875-2.735 0-1.757-1.914-2.695zM62.477 86.57q-.508.196-1.602 1.056-1.055.82-1.719.82-.937 0-1.601-.664-.664-.703-.664-1.758 0-1.523 1.601-2.734 1.602-1.211 3.594-1.758 1.992-.586 3.672-.586 4.96 0 7.617 1.914 2.656 1.875 2.656 6.21 0 3.556-2.734 5.821 1.523 1.133 2.46 2.93.938 1.758.938 3.828 0 4.18-3.007 6.21-2.97 1.993-7.93 1.993-1.797 0-3.906-.625-2.07-.625-3.829-2.031-1.718-1.406-1.718-3.242 0-1.055.664-1.72.664-.702 1.601-.702 1.055 0 1.914 1.133.86 1.093 1.407 1.406 1.718.937 3.867.937 6.445 0 6.445-3.437 0-2.383-1.992-3.242-1.953-.86-6.875-.86-1.016 0-1.758-.664-.703-.703-.703-1.719 0-1.015.703-1.718.703-.742 1.758-.742 2.266 0 4.219-.196 3.867-.43 3.867-3.32 0-1.133-.547-1.836-.508-.742-1.484-1.016-.938-.312-1.68-.39-.742-.078-1.797-.078-1.172 0-3.437.78z"/><path d="M50.327 69.5h32.346" fill="none" stroke="#000" stroke-width="2"/></svg>