<svg width="133" height="139" xmlns="http://www.w3.org/2000/svg"><path d="M57.395 63.543q0 1.172-.43 2.266-.43 1.093-1.016 1.875-.586.742-1.601 1.601-.977.82-1.758 1.328-.742.469-1.953 1.211-1.172.742-1.719 1.133-.117.078-.898.625-.782.508-.977.664-.195.117-.86.625-.663.469-.937.703l-.742.742q-.508.47-.781.82-.274.352-.586.86-.313.469-.547.977h13.203q.938 0 1.563.703.664.703.664 1.719 0 1.015-.664 1.718-.625.703-1.563.703H39.856q-.938 0-1.602-.664-.625-.664-.625-1.64 0-1.758.508-3.36.508-1.64 1.289-2.812.781-1.172 1.953-2.344 1.211-1.172 2.227-1.914 1.054-.781 2.422-1.64.039-.04 1.328-.82 1.289-.782 1.875-1.173.625-.43 1.601-1.172 1.016-.742 1.485-1.367.468-.625.468-1.133 0-1.757-1.445-2.734-1.406-1.016-3.516-1.016-1.68 0-3.359.86-1.68.86-2.617 2.265-.86 1.328-1.992 1.328-1.016 0-1.641-.742-.586-.781-.586-1.68 0-2.734 3.516-4.804 3.515-2.07 6.68-2.07 4.257 0 6.913 2.421 2.657 2.422 2.657 5.938zm17.78-28.809q-.508.195-1.602 1.055-1.055.82-1.719.82-.937 0-1.601-.664-.664-.703-.664-1.758 0-1.523 1.601-2.734 1.602-1.211 3.594-1.758 1.992-.586 3.672-.586 4.96 0 7.617 1.914 2.656 1.875 2.656 6.21 0 3.556-2.734 5.821 1.523 1.133 2.46 2.93.938 1.758.938 3.828 0 4.18-3.008 6.21-2.968 1.993-7.93 1.993-1.796 0-3.905-.625-2.07-.625-3.829-2.031-1.718-1.406-1.718-3.242 0-1.055.664-1.72.664-.702 1.601-.702 1.055 0 1.914 1.133.86 1.093 1.407 1.406 1.718.937 3.867.937 6.445 0 6.445-3.437 0-2.383-1.992-3.242-1.953-.86-6.875-.86-1.016 0-1.758-.664-.703-.703-.703-1.719 0-1.015.703-1.718.703-.742 1.758-.742 2.266 0 4.219-.196 3.867-.43 3.867-3.32 0-1.133-.547-1.836-.508-.742-1.484-1.016-.938-.312-1.68-.39-.742-.078-1.797-.078-1.172 0-3.437.78zm-2.618 48.477q2.657-2.226 6.641-2.226t6.64 2.226q2.657 2.227 2.657 6.055 0 3.477-2.305 5.781 3.203 2.54 3.203 6.329 0 3.867-3.086 6.171-3.086 2.305-7.109 2.305t-7.11-2.305q-3.085-2.304-3.085-6.171 0-3.79 3.203-6.329-2.266-2.265-2.266-5.78 0-3.829 2.617-6.056zm10.04 3.594q-1.25-.976-3.399-.976-2.148 0-3.398.976-1.25.938-1.25 2.5 0 1.64 1.289 2.54 1.289.898 3.359.898 2.07 0 3.36-.899 1.327-.898 1.327-2.539 0-1.562-1.289-2.5zm.39 11.836q-1.914-.937-3.789-.937-1.875 0-3.79.937-1.913.938-1.913 2.695 0 1.797 1.836 2.735 1.875.937 3.867.937t3.828-.937q1.875-.938 1.875-2.734 0-1.758-1.914-2.696z"/><path d="M63.025 69.5h32.346" fill="none" stroke="#000" stroke-width="2"/></svg>