<svg width="133" height="139" xmlns="http://www.w3.org/2000/svg"><path d="M49.273 37.546q-.586.39-1.132.39-.977 0-1.641-.663-.625-.664-.625-1.602 0-1.289 1.016-1.953 3.047-2.07 6.68-4.18.702-.351 1.406-.351 1.093 0 1.796.664.743.664.743 1.64V52.82h2.968q.938 0 1.563.703.664.703.664 1.719 0 1.015-.664 1.718-.625.704-1.563.704H49.195q-.937 0-1.601-.704-.625-.703-.625-1.718 0-1.016.625-1.72.664-.702 1.601-.702h3.125V35.71q-2.617 1.563-3.047 1.836zm37.852 9.844q0 5.04-3.438 7.852-3.437 2.773-9.062 2.773-1.328 0-3.008-.39-1.68-.43-3.203-1.485-1.523-1.055-1.523-2.539 0-1.016.664-1.719.664-.703 1.601-.703.781 0 1.563.625 1.601 1.367 3.906 1.367 3.32 0 5.664-1.406 2.383-1.445 2.383-4.375 0-1.992-1.836-3.164-1.797-1.21-4.023-1.21-2.11 0-4.61.898-2.5.898-3.047.898-.937 0-1.601-.664-.664-.703-.664-1.719l1.484-11.015q.156-.86.781-1.407t1.485-.547h12.187q.938 0 1.602.704.664.703.664 1.718 0 1.016-.664 1.719-.664.703-1.602.703H72.75l-.86 4.57q2.735-.703 4.922-.703 4.376 0 7.344 2.578 2.969 2.579 2.969 6.641zm-27.031 57.97q6.68-1.563 9.258-6.758-2.11 1.406-4.493 1.406-4.453 0-7.343-2.734-2.852-2.773-2.852-6.836 0-4.062 2.93-6.797 2.93-2.734 7.422-2.734 4.53 0 7.421 3.086 2.93 3.047 2.93 7.148 0 4.414-1.133 7.774-1.093 3.359-3.125 5.507-2.03 2.11-4.414 3.399-2.343 1.25-5.39 1.992-.196.04-.586.04-1.094 0-1.797-.665-.664-.664-.664-1.601 0-.782.508-1.407.507-.625 1.328-.82zm4.922-19.61q-2.618 0-4.258 1.25-1.602 1.25-1.602 3.438 0 2.461 1.68 3.594t3.945 1.133q2.305 0 3.985-1.407 1.68-1.406 1.68-3.32 0-2.11-1.641-3.398-1.64-1.29-3.79-1.29z"/><path d="M39 69.5h55" fill="none" stroke="#000" stroke-width="2"/></svg>