<svg width="133" height="139" xmlns="http://www.w3.org/2000/svg"><path d="M81.698 55.71v-5.35H70.292q-.977 0-1.64-.664-.626-.664-.626-1.68 0-.898.469-1.484l13.75-16.485q.664-.86 1.914-.86 1.016 0 1.719.704.703.664.703 1.64v13.985h1.523q.977 0 1.602.703.664.703.664 1.719t-.664 1.719q-.625.703-1.602.703h-1.523v5.351q0 .938-.703 1.602-.703.625-1.72.625-1.015 0-1.757-.625-.703-.664-.703-1.602zm-6.406-10.195h6.406V37.82zM71.23 81.297h15.937q.937 0 1.562.704.664.664.664 1.601 0 .703-.273 1.172l-14.14 23.828q-.704 1.172-2.11 1.172-.977 0-1.64-.664-.626-.664-.626-1.64 0-.47.352-1.094L83.104 86.14H71.23q-.937 0-1.601-.703-.625-.703-.625-1.719 0-1.015.625-1.718.664-.704 1.601-.704z"/><path d="M63.025 69.5h32.346" fill="none" stroke="#000" stroke-width="2"/><path d="M50.324 81.863v-5.351H38.918q-.976 0-1.64-.664-.625-.664-.625-1.68 0-.898.468-1.484l13.75-16.485q.664-.86 1.914-.86 1.016 0 1.72.704.702.664.702 1.64v13.985h1.524q.976 0 1.601.703.664.703.664 1.719 0 1.015-.664 1.719-.625.703-1.601.703h-1.524v5.351q0 .938-.703 1.602-.703.625-1.719.625-1.015 0-1.757-.625-.704-.664-.704-1.602zm-6.406-10.195h6.406v-7.695z"/></svg>