<svg width="810" height="380" xmlns="http://www.w3.org/2000/svg"><path d="M110.732 273.116c1.367-.73-10.962-26.408-27.601-57.491l-4.983 2.673c16.667 31.062 31.217 55.55 32.584 54.818z" fill="#b19962"/><path d="M81.889 216.289l-2.498 1.341 30.096 56.151c1.372-.73-10.958-26.408-27.598-57.492z" fill="#c8b381"/><path d="M128.63 208.917l-81.263 43.556c-1.51.81-3.39.24-4.2-1.27L22.5 212.644a3.1 3.1 0 011.27-4.198l81.26-43.553a3.105 3.105 0 014.203 1.266l20.666 38.56a3.1 3.1 0 01-1.269 4.198z" fill="#c8b381"/><path d="M99.683 183.277a5.647 5.647 0 00-7.649-2.308l-47.677 25.555a5.648 5.648 0 00-2.316 7.645l.467.872c-5.02 2.684-6.902 8.94-4.213 13.959 2.69 5.02 8.94 6.905 13.954 4.216l.47.872a5.651 5.651 0 007.647 2.308l47.681-25.554a5.652 5.652 0 002.31-7.646l-.466-.875c5.017-2.688 6.905-8.935 4.216-13.956-2.688-5.02-8.941-6.904-13.957-4.215z" fill="#f5f5f5"/><path d="M195.875 268.954l1.951 36.26h-45.217l1.952-36.581 1.308-2.673-1.308-3.992h41.314l-1.308 3.992z" fill="#e43439"/><path d="M195.875 268.954l1.951 36.26h-41.801l1.952-36.581 1.306-2.673-1.306-3.992h37.898l-1.308 3.992z" fill="#eb5038"/><path d="M193.943 266.645c0 .38-.306.688-.685.688H159.97a.688.688 0 01-.687-.688c0-.376.308-.685.687-.685h33.288c.379 0 .685.309.685.685" fill="#e43439"/><path d="M171.551 272.945c-5.658 0-10.264 4.604-10.264 10.261v7.824c0 5.656 4.606 10.26 10.264 10.26h10.402c5.66 0 10.264-4.604 10.264-10.26v-7.824c0-5.657-4.604-10.261-10.264-10.261zm10.402 29.15H171.55c-6.102 0-11.068-4.965-11.068-11.065v-7.824c0-6.102 4.966-11.066 11.068-11.066h10.402c6.104 0 11.068 4.964 11.068 11.066v7.824c0 6.1-4.964 11.064-11.068 11.064" fill="#fde1a5"/><path d="M191.118 290.657c0 5.332-4.324 9.657-9.656 9.657h-9.419c-5.329 0-9.657-4.325-9.657-9.657v-7.081c0-5.334 4.328-9.655 9.657-9.655h9.419c5.332 0 9.656 4.321 9.656 9.655v7.08" fill="#fff"/><path d="M174.337 289.616c-.555.872-5.782 6.013-6.315 6.336-.453.276-1.861.673-2.125-1.92a10.77 10.77 0 01-.022-1.638c.234-4.376 3.776-7.774 3.776-7.774s1.97 1.549 3.363 2.95c.881.883 1.535 1.71 1.323 2.046" fill="#f2a22e"/><path d="M173.014 287.57c-.744 1.047-5.743 5.956-6.267 6.27-.18.11-.506.236-.85.193a10.77 10.77 0 01-.022-1.639c.234-4.376 3.776-7.774 3.776-7.774s1.97 1.549 3.363 2.95" fill="#fbbf48"/><path d="M180.802 285.713c1.028-.084 8.016-2.31 8.548-2.635.455-.272 1.463-1.333-.708-2.773-.373-.25-.85-.513-1.436-.785-3.979-1.828-8.639-.278-8.639-.278s.45 2.464 1.039 4.35c.375 1.191.797 2.152 1.196 2.121" fill="#f2a22e"/><path d="M179.606 283.592c1.275-.171 7.948-2.307 8.47-2.622.18-.11.445-.342.566-.665-.373-.25-.85-.513-1.436-.785-3.979-1.828-8.639-.278-8.639-.278s.45 2.464 1.039 4.35" fill="#fbbf48"/><path d="M180.622 280.429l1.156 1.91a3.093 3.093 0 01-1.044 4.238l-5.476 3.303a3.085 3.085 0 01-4.233-1.046l-1.155-1.917c-.02-.034-.039-.063-.05-.096a3.073 3.073 0 011.095-4.135l5.475-3.302a3.072 3.072 0 014.17.952.381.381 0 01.062.093" fill="#fbbf48"/><path d="M180.56 280.336c.157.285.265.578.325.888a3.064 3.064 0 01-1.427 3.238l-5.472 3.306a3.074 3.074 0 01-3.544-.249 2.992 2.992 0 01-.623-.698 3.073 3.073 0 011.096-4.135l5.475-3.302a3.072 3.072 0 014.17.952" fill="#fcd47f"/><path d="M137.151 228.802l-1.114 2.843L113.36 256.9l-29.885-29.884 25.467-22.891 2.632-.901 1.772-3.502 27.307 27.306-3.503 1.774" fill="#d8a43e"/><path d="M137.151 228.802l-1.114 2.843L113.36 256.9l-27.627-27.628 25.467-22.887 2.631-.903 1.773-3.502 25.049 25.048-3.503 1.774" fill="#fbbf48"/><path d="M136.286 228.84a.641.641 0 01-.908.002l-22-22a.642.642 0 01.001-.908.64.64 0 01.906 0l22.001 22.003a.64.64 0 010 .904" fill="#885136"/><path d="M112.684 209.446l-.167.168a1.71 1.71 0 00-.477.922 1.712 1.712 0 00.477 1.522c.034.035.064.066.104.088a1.7 1.7 0 001.665.322 1.574 1.574 0 00-.062.254c-.094.532.065 1.11.476 1.519a.582.582 0 00.102.088c.472.41 1.105.508 1.67.323a1.2 1.2 0 00-.063.254c-.096.53.062 1.107.471 1.515a.413.413 0 00.105.088c.471.412 1.103.51 1.666.324-.033.083-.05.17-.062.253a1.724 1.724 0 00.473 1.518.475.475 0 00.105.086 1.699 1.699 0 001.667.324c-.033.087-.05.17-.061.256-.097.53.062 1.107.472 1.516.034.034.065.066.103.088a1.702 1.702 0 001.667.322 1.285 1.285 0 00-.061.254 1.72 1.72 0 00.475 1.519c.033.033.064.065.102.087.471.41 1.106.51 1.667.322-.032.087-.05.172-.063.255a1.727 1.727 0 00.474 1.519.577.577 0 00.105.086c.47.41 1.103.51 1.668.323a1.07 1.07 0 00-.064.253 1.72 1.72 0 00.475 1.52.571.571 0 00.101.087 1.71 1.71 0 001.67.323.982.982 0 00-.063.253 1.721 1.721 0 00.472 1.519c.036.034.065.065.104.086.472.41 1.104.51 1.666.323-.03.085-.049.17-.062.253.338-.056.664-.212.925-.474l.167-.167-20.089-20.09m-1.76 41.939l.17-.168c.26-.264.419-.586.474-.921a1.714 1.714 0 00-.477-1.523c-.034-.034-.065-.065-.102-.09a1.704 1.704 0 00-1.667-.318c.031-.086.048-.174.06-.253a1.725 1.725 0 00-.472-1.521.648.648 0 00-.103-.088 1.714 1.714 0 00-1.669-.322c.032-.086.049-.174.061-.256a1.71 1.71 0 00-.471-1.514.622.622 0 00-.105-.092 1.714 1.714 0 00-1.667-.32c.033-.083.051-.17.062-.252a1.725 1.725 0 00-.472-1.52.588.588 0 00-.103-.088 1.707 1.707 0 00-1.668-.322c.031-.086.049-.17.06-.254a1.714 1.714 0 00-.472-1.518.584.584 0 00-.101-.09 1.709 1.709 0 00-1.669-.32 1.26 1.26 0 00.06-.252 1.722 1.722 0 00-.474-1.522c-.033-.032-.063-.064-.1-.086a1.71 1.71 0 00-1.669-.322c.032-.085.05-.172.062-.253a1.716 1.716 0 00-.473-1.519c-.034-.033-.065-.068-.103-.09a1.718 1.718 0 00-1.67-.322c.034-.084.053-.17.064-.252a1.727 1.727 0 00-.473-1.52c-.034-.032-.064-.062-.102-.085a1.714 1.714 0 00-1.67-.325c.033-.083.051-.17.062-.252a1.713 1.713 0 00-.472-1.52.628.628 0 00-.102-.088 1.72 1.72 0 00-1.669-.32 1.3 1.3 0 00.061-.254c-.335.055-.66.212-.92.472l-.17.17 20.09 20.09m7.869-9.213a8.908 8.908 0 01-12.6-.001l-6.145-6.146c-3.479-3.477-3.481-9.121-.002-12.6l4.622-4.621c3.482-3.481 9.125-3.48 12.602 0l6.144 6.144a8.91 8.91 0 010 12.603l-4.62 4.62" fill="#fde1a5"/><path d="M113.779 238.826l-2.281 2.283a.692.692 0 01-.977 0l-11.93-11.93a.693.693 0 01-.001-.978l5.99-5.99a.69.69 0 01.978 0l9.821 9.822c-.34.05-.673.172-.97.359a2.7 2.7 0 00-.436.352 2.569 2.569 0 00-.017 3.604c.002.009.007.014.015.014a.04.04 0 01-.025-.004c-.02.016-.04.035-.057.05a1.818 1.818 0 00-.11 2.417" fill="#784129"/><path d="M105.502 227.78a.69.69 0 01-.977 0l-1.67-1.671a.693.693 0 010-.979l1.67-1.67a.695.695 0 01.98-.002l1.671 1.67a.695.695 0 01-.004.98l-1.67 1.672" fill="#885136"/><path d="M105.37 227.18a.5.5 0 01-.709.002l-1.208-1.21a.5.5 0 010-.707l1.208-1.208a.5.5 0 01.71 0l1.208 1.21a.5.5 0 01-.002.705l-1.208 1.208" fill="#784129"/><path d="M102.407 230.873a.69.69 0 01-.978.001l-1.67-1.67a.69.69 0 010-.978l1.67-1.67a.69.69 0 01.978 0l1.671 1.67a.69.69 0 010 .978l-1.671 1.669" fill="#885136"/><path d="M102.271 230.278a.5.5 0 01-.707 0l-1.207-1.208a.503.503 0 010-.71l1.207-1.207a.503.503 0 01.71 0l1.21 1.208a.504.504 0 01-.004.708l-1.209 1.21" fill="#784129"/><path d="M108.519 230.794a.69.69 0 01-.979-.001l-1.67-1.67a.69.69 0 010-.975l1.67-1.672a.696.696 0 01.98-.003l1.67 1.67c.271.27.27.709-.001.98l-1.67 1.671" fill="#885136"/><path d="M108.385 230.196a.505.505 0 01-.71 0l-1.207-1.206a.503.503 0 01.001-.71l1.208-1.208a.504.504 0 01.708-.002l1.208 1.21a.502.502 0 01-.001.708l-1.207 1.208" fill="#784129"/><path d="M105.423 233.89a.693.693 0 01-.979 0l-1.67-1.67a.695.695 0 010-.98l1.67-1.67a.694.694 0 01.978 0l1.67 1.67c.27.27.27.71.002.98l-1.67 1.67" fill="#885136"/><path d="M105.286 233.292a.498.498 0 01-.707 0l-1.207-1.207a.5.5 0 010-.708l1.209-1.208a.503.503 0 01.707-.001l1.208 1.208a.502.502 0 010 .708l-1.21 1.208" fill="#784129"/><path d="M111.534 233.812a.694.694 0 01-.979-.002l-1.67-1.672a.693.693 0 010-.977l1.669-1.67a.694.694 0 01.98-.003l1.672 1.672c.27.269.27.708-.001.98l-1.671 1.672" fill="#885136"/><path d="M111.398 233.21a.504.504 0 01-.708.003l-1.208-1.21a.501.501 0 01.002-.709l1.209-1.206a.498.498 0 01.706-.002l1.21 1.208a.503.503 0 01-.002.708l-1.209 1.208" fill="#784129"/><path d="M108.438 236.905a.694.694 0 01-.978-.001l-1.672-1.672a.693.693 0 010-.978l1.67-1.67a.695.695 0 01.978 0l1.672 1.672a.69.69 0 010 .978l-1.67 1.67" fill="#885136"/><path d="M108.301 236.306a.499.499 0 01-.706.002l-1.21-1.208a.5.5 0 01.001-.707l1.21-1.21a.504.504 0 01.707-.002l1.21 1.21a.5.5 0 01-.003.706l-1.209 1.21" fill="#784129"/><path d="M113.58 236.833l-1.68-1.677a.696.696 0 010-.98l1.673-1.674a.7.7 0 01.836-.11 2.7 2.7 0 00-.436.352 2.569 2.569 0 00-.017 3.604c.002.009.007.014.015.014a.04.04 0 01-.025-.004c-.02.016-.04.035-.057.05a1.747 1.747 0 00-.31.425" fill="#885136"/><path d="M113.971 236.362a.49.49 0 01-.263-.133l-1.21-1.212a.5.5 0 01.001-.705l1.118-1.118a2.569 2.569 0 00.34 3.154c.001.009.006.014.014.014" fill="#784129"/><path d="M111.455 239.92a.695.695 0 01-.98 0l-1.67-1.671a.69.69 0 010-.977l1.67-1.671a.694.694 0 01.978 0l1.67 1.67c.268.27.272.71.002.98l-1.67 1.669" fill="#885136"/><path d="M111.318 239.324a.5.5 0 01-.707 0l-1.21-1.211a.5.5 0 010-.705l1.21-1.21a.502.502 0 01.707-.001l1.21 1.21a.503.503 0 01-.002.706l-1.208 1.21" fill="#784129"/><path d="M113.957 236.348c.001.009.006.014.014.014a.04.04 0 01-.025-.004l.01-.01" fill="#885136"/><path d="M119.78 237.332a6.341 6.341 0 11-8.968-8.968 6.342 6.342 0 118.967 8.968" fill="#e28f18"/><path d="M120.677 236.436a6.345 6.345 0 01-8.967 0 6.344 6.344 0 010-8.97 6.34 6.34 0 018.967.002 6.34 6.34 0 010 8.968" fill="#fbbf48"/><path d="M116.93 230.269a1.2 1.2 0 01-1.696.001 1.205 1.205 0 010-1.698 1.201 1.201 0 011.698 0 1.197 1.197 0 01-.002 1.697m-2.405 4.496a.739.739 0 11-1.044-1.046.739.739 0 011.044 1.046m3.725.957a1.217 1.217 0 01-1.72-1.718 1.216 1.216 0 011.719 1.719m2.051-3.769a.61.61 0 01-.858-.001.606.606 0 11.857-.855.604.604 0 01.002.856m-7.171-.078a.903.903 0 01-1.27-.002.898.898 0 111.27.001m6.237-2.995a.671.671 0 11-.95-.947.671.671 0 01.95.948" fill="#885136"/><path d="M144.1 256.952c-5.115 0-9.274-4.16-9.274-9.271 0-5.115 4.159-9.273 9.273-9.273s9.272 4.158 9.272 9.273c0 5.11-4.158 9.27-9.272 9.27zm0-29.543c-11.18 0-20.274 9.093-20.274 20.272 0 11.176 9.093 20.27 20.273 20.27s20.272-9.094 20.272-20.27c0-11.179-9.092-20.272-20.272-20.272" fill="#f2a22e"/><path d="M144.52 259.56c-.427 0-.837-.026-1.25-.072h-.005a10.8 10.8 0 01-4.846-1.791 10.898 10.898 0 01-4.042-5.03 10.677 10.677 0 01-.752-3.554c-.016-.153-.016-.316-.016-.468 0-2.7.984-5.175 2.613-7.077a10.87 10.87 0 018.299-3.834c.198 0 .398.006.593.012a10.842 10.842 0 017.243 3.323 10.811 10.811 0 012.92 9.377v.01a10.744 10.744 0 01-2.039 4.75 10.888 10.888 0 01-8.717 4.355zm16.943-11.766c-.018-2.196-.46-4.3-1.241-6.234a16.5 16.5 0 00-1.665-3.16 17.145 17.145 0 00-4.396-4.542 17.157 17.157 0 00-4.035-2.137 17.172 17.172 0 00-6.027-1.084c-7.148 0-13.302 4.336-15.962 10.524a16.89 16.89 0 00-1.236 4.408 17.317 17.317 0 00.266 6.316 16.895 16.895 0 001.158 3.381 17.194 17.194 0 003.666 5.19 17.275 17.275 0 003.242 2.486 17.01 17.01 0 005.798 2.166h.007c.997.18 2.019.274 3.061.274 6.052 0 11.391-3.108 14.499-7.82a17.108 17.108 0 002.437-5.704c.291-1.238.435-2.525.435-3.85 0-.072 0-.14-.007-.214" fill="#f5f5f5"/><path d="M154.16 233.858l-9.046 3.888a17.403 17.403 0 00-.593-.012 10.87 10.87 0 00-8.299 3.834l-9.321 4a16.89 16.89 0 011.236-4.407l21.989-9.44c1.45.535 2.8 1.256 4.035 2.137m-20.536 15.255c.044 1.248.313 2.444.752 3.553l-6.052 2.6a16.895 16.895 0 01-1.158-3.381l6.458-2.772m26.597-7.553l-5.8 2.5a10.674 10.674 0 00-2.065-2.991l6.2-2.668a16.5 16.5 0 011.665 3.159m-21.802 16.137a10.8 10.8 0 004.845 1.79l-8.032 3.455a17.277 17.277 0 01-3.242-2.486l6.428-2.76m23.051-9.687c0 1.324-.144 2.61-.435 3.85l-7.797 3.347a10.744 10.744 0 002.039-4.75v-.01l6.186-2.652c.007.074.007.142.007.215m-2.872 9.553c-3.108 4.712-8.447 7.82-14.499 7.82a17.21 17.21 0 01-3.061-.274l17.56-7.546" fill="#d24f38"/><path d="M185.49 239.837c0 1.541-1.47 2.79-3.285 2.79H166.55c-1.817 0-3.287-1.249-3.287-2.79l-2.629-12.968c0-1.54 1.472-2.79 3.287-2.79h20.912c1.816 0 3.288 1.25 3.288 2.79l-2.631 12.968" fill="#eb5038"/><path d="M175.97 238.77a1.837 1.837 0 11-3.672 0v-12.854a1.835 1.835 0 113.672 0v12.854m6.383.2a1.836 1.836 0 01-2.086 1.548 1.839 1.839 0 01-1.548-2.086l1.887-12.715a1.836 1.836 0 113.633.537l-1.886 12.716m-16.438 0a1.838 1.838 0 003.633-.539l-1.886-12.714a1.836 1.836 0 10-3.633.537l1.886 12.716" fill="#e43439"/><path d="M190.838 220.773a5.385 5.385 0 01-5.384 5.387c-.463 0-.91-.067-1.337-.178-2.146 2.403-5.679 3.972-9.674 3.972-4.018 0-7.56-1.585-9.704-3.994-.454.125-.941.2-1.441.2a5.384 5.384 0 01-5.383-5.387c0-.447.052-.873.162-1.284a5.363 5.363 0 015.221-4.099c.413 0 .803.052 1.192.13 2.108-2.576 5.773-4.296 9.953-4.296 4.164 0 7.815 1.706 9.931 4.277a5.12 5.12 0 011.08-.11 5.363 5.363 0 015.221 4.098c.111.41.163.837.163 1.284" fill="#fbbf48"/><path d="M171.04 224.149a2.353 2.353 0 01-4.705 0 2.35 2.35 0 012.352-2.35 2.35 2.35 0 012.352 2.35m4.701-6.447a2.351 2.351 0 11-4.7.002 2.351 2.351 0 014.7-.002m10.443 5.24a2.352 2.352 0 01-4.702 0 2.351 2.351 0 114.702 0m-2.353-7.59a2.35 2.35 0 11-4.701 0 2.351 2.351 0 114.701 0m-16.687 0a2.35 2.35 0 11-4.701 0 2.352 2.352 0 114.701 0" fill="#986144"/><path d="M132.331 162.893c-1.524.115-12.234-1.557-13.085-1.904-.726-.297-2.44-1.621.407-4.217.49-.45 1.123-.938 1.921-1.468 5.396-3.58 12.556-2.37 12.556-2.37s-.1 3.702-.533 6.588c-.276 1.826-.676 3.327-1.266 3.37" fill="#e28f18"/><path d="M133.597 159.522c-1.898.039-12.134-1.566-12.969-1.908-.288-.117-.725-.394-.975-.842.49-.45 1.123-.938 1.921-1.468 5.396-3.58 12.556-2.37 12.556-2.37s-.1 3.702-.533 6.588" fill="#fbbf48"/><path d="M142.662 167.128c1.007 1.15 9.81 7.477 10.661 7.825.726.296 2.874.557 2.67-3.288-.035-.664-.143-1.457-.339-2.395-1.332-6.338-7.283-10.5-7.283-10.5s-2.526 2.706-4.242 5.066c-1.087 1.5-1.855 2.846-1.467 3.292" fill="#e28f18"/><path d="M144.129 163.836c1.324 1.362 9.741 7.4 10.577 7.744.287.117.793.226 1.287.085-.035-.664-.143-1.457-.339-2.395-1.332-6.338-7.283-10.5-7.283-10.5s-2.526 2.706-4.242 5.066" fill="#fbbf48"/><path d="M148.778 162.256l-1.255 3.06a4.558 4.558 0 01-5.944 2.489l-8.746-3.583a4.554 4.554 0 01-2.49-5.945l1.255-3.061c.021-.052.041-.102.07-.148a4.543 4.543 0 015.875-2.342l8.746 3.587a4.546 4.546 0 012.541 5.788c-.01.053-.032.104-.052.155" fill="#fbbf48"/><path d="M148.83 162.1a4.537 4.537 0 01-5.868 2.33l-8.747-3.584a4.542 4.542 0 01-2.828-4.416c.019-.457.116-.91.282-1.362a4.543 4.543 0 015.874-2.342l8.746 3.587a4.546 4.546 0 012.541 5.788" fill="#fcd47f"/><path d="M152.586 303.268l-8.733 1.867-16.499-1.867a5.13 5.13 0 01-5.125-5.126v-19.364a5.137 5.137 0 01-3.943-4.988v-1.774c0-1.236-6.54-2.174-5.81-3.06 0 0 9.345-2.066 10.935-2.066h33.118a5.132 5.132 0 015.126 5.126v1.774a5.136 5.136 0 01-3.942 4.988v19.364a5.13 5.13 0 01-5.127 5.126" fill="#de8817"/><path d="M146.998 270.776h-33.115a3.942 3.942 0 00-3.944 3.942v1.775a3.943 3.943 0 003.944 3.941v20.41a3.942 3.942 0 003.94 3.942h25.234a3.941 3.941 0 003.941-3.942v-20.41a3.943 3.943 0 003.944-3.941v-1.775a3.942 3.942 0 00-3.944-3.942" fill="#f2a22e"/><path d="M113.883 271.125a2.762 2.762 0 00-2.761 2.759v1.776a2.763 2.763 0 002.76 2.758c.654 0 1.183.53 1.183 1.184v20.407a2.763 2.763 0 002.759 2.761h25.233a2.764 2.764 0 002.76-2.761v-20.407c0-.654.529-1.184 1.181-1.184a2.763 2.763 0 002.76-2.758v-1.776a2.761 2.761 0 00-2.76-2.76zm29.174 34.01h-25.233a5.133 5.133 0 01-5.126-5.126v-19.363a5.136 5.136 0 01-3.942-4.986v-1.776a5.13 5.13 0 015.127-5.124h33.115a5.13 5.13 0 015.127 5.124v1.776a5.135 5.135 0 01-3.943 4.986v19.363c0 2.826-2.3 5.126-5.125 5.126" fill="#de8817"/><path d="M123.422 283.378c.957 1.09 1.355 2.305.89 2.712-.463.405-1.615-.15-2.571-1.244-.957-1.088-1.356-2.304-.89-2.71.463-.408 1.614.147 2.571 1.242" fill="#fbbf48"/><path d="M134.829 286.73c-.894 1.276-2.078 1.992-2.642 1.595-.564-.396-.297-1.751.596-3.028.895-1.275 2.078-1.99 2.642-1.596.565.398.298 1.752-.596 3.03m-14.239-9.994c-1.393.697-2.772.761-3.08.145-.309-.617.572-1.682 1.966-2.378 1.394-.696 2.774-.76 3.082-.143.308.617-.572 1.681-1.967 2.376m22.629-1.692c.718 1.383.806 2.761.193 3.08-.611.319-1.69-.547-2.408-1.928-.719-1.383-.806-2.761-.195-3.08.612-.319 1.69.545 2.41 1.928m-14.895 3.743c.717 1.382.805 2.762.192 3.08-.611.318-1.691-.544-2.41-1.928-.718-1.382-.805-2.76-.194-3.078.613-.318 1.692.543 2.412 1.926m.018 10.988c.672 1.402.714 2.783.092 3.083-.622.298-1.672-.6-2.344-2.007-.673-1.405-.714-2.787-.094-3.084.624-.297 1.672.602 2.346 2.008m12.915.969c-1.525.31-2.875.013-3.012-.662-.137-.677.99-1.474 2.516-1.786 1.528-.31 2.877-.014 3.013.662.138.679-.988 1.479-2.517 1.786m-20.354 9.988c-1.527.312-2.877.014-3.013-.663-.138-.675.988-1.473 2.516-1.784 1.527-.31 2.876-.013 3.014.661.137.678-.99 1.476-2.517 1.786m19.145-.025c-1.495-.443-2.547-1.338-2.351-2 .196-.66 1.564-.838 3.059-.395 1.494.44 2.546 1.337 2.352 1.997-.196.663-1.566.84-3.06.398" fill="#de8817"/><path d="M134.831 279.81c-.622 1.434-1.588 2.399-2.154 2.154-.567-.246-.518-1.607.105-3.044.624-1.435 1.587-2.4 2.153-2.152.568.245.52 1.608-.104 3.042m79.255-55.276c.068.084.136.186.201.274 1.752 2.394 2.047 5.296.484 7.094l-43.645 50.242c-1.541 1.774-4.419 1.912-7.03.567a1.243 1.243 0 01-.05-.069c-1.999-2.637-.992-8.164 2.303-15.034a64.67 64.67 0 011.686-3.266 80.74 80.74 0 012.596-4.362 76.318 76.318 0 011.979-3.004 93.708 93.708 0 012.944-4.071 80.528 80.528 0 012.188-2.83 138.309 138.309 0 013.087-3.686l.125-.145a117.162 117.162 0 015.85-6.259c.857-.864 1.729-1.7 2.578-2.501a92.747 92.747 0 013.768-3.344 71.428 71.428 0 012.82-2.272c7.755-6 14.557-8.93 18.116-7.334" fill="#fbbf48"/><path d="M168.038 264.342l4.27 3.71a1.786 1.786 0 01-2.345 2.698l-3.614-3.141a64.237 64.237 0 011.689-3.267m4.572-7.366l5.31 4.612c.746.646.826 1.774.185 2.513a1.786 1.786 0 01-2.52.177l-4.954-4.304a78.73 78.73 0 011.979-2.998m5.132-6.9l5.801 5.04a1.785 1.785 0 11-2.341 2.697l-5.65-4.908a86.734 86.734 0 012.19-2.83m5.595-6.495l5.829 5.065c.745.645.82 1.78.177 2.52a1.789 1.789 0 01-2.521.177l-5.87-5.101c.789-.908 1.587-1.793 2.385-2.661m6.038-6.096l5.407 4.696a1.787 1.787 0 01-2.344 2.699l-5.632-4.894c.855-.868 1.728-1.7 2.57-2.501m6.593-5.614l4.428 3.847a1.78 1.78 0 11-2.336 2.687l-4.912-4.266c.946-.801 1.89-1.56 2.82-2.268m18.318-7.062c1.752 2.394 2.047 5.296.484 7.094l-43.645 50.242c-1.541 1.774-4.419 1.912-7.03.567a1.243 1.243 0 01-.05-.069l50.241-57.834m-49.152 16.096c-2.674 6.037-9.738 8.76-15.757 6.092l-2.913-1.291c-6.034-2.675-8.747-9.73-6.072-15.767a11.8 11.8 0 011.581-2.6 12.049 12.049 0 015.039-3.702 11.995 11.995 0 015.126-.778c1.215.09 2.434.35 3.616.846.131.04.267.1.391.154l2.913 1.292a11.566 11.566 0 012.983 1.898c3.107 2.7 4.636 6.87 3.95 10.953-.157.985-.434 1.95-.857 2.903" fill="#f2a22e"/><path d="M165.993 238c-3.311 4.157-9.103 5.726-14.172 3.48l-2.912-1.29c-5.084-2.253-7.804-7.61-6.935-12.852a12.049 12.049 0 015.039-3.702 11.995 11.995 0 015.126-.778c1.215.09 2.434.35 3.616.846.131.04.267.1.391.154l2.913 1.292a11.566 11.566 0 012.983 1.898c3.107 2.7 4.636 6.87 3.95 10.953" fill="#fbbf48"/><path d="M155.614 224.726l-4.123 9.304a1.99 1.99 0 01-2.621 1.003 1.986 1.986 0 01-1.003-2.608l4.123-9.304c.043-.095.095-.175.15-.263 1.214.09 2.433.35 3.615.846.066.34.006.692-.141 1.022m6.277 2.883l-4.122 9.301a1.974 1.974 0 01-2.606 1.008 1.984 1.984 0 01-1.006-2.608l4.122-9.302a2.14 2.14 0 01.736-.88l.044.022a11.566 11.566 0 012.983 1.898c-.02.189-.072.382-.15.56" fill="#f2a22e"/><path d="M153.41 192.642c1.447 5.442 1.83 10.77 1.3 15.466l1.007 3.792c.066.248.072.493.022.73a1.694 1.694 0 01-.273.626c-.036.045-.076.096-.117.137a1.348 1.348 0 01-.318.267 3.04 3.04 0 00-.113.065 1.417 1.417 0 01-.319.127h-.006a1.6 1.6 0 01-1.092-.1 1.67 1.67 0 01-.508-.386c-.007.002-.008-.005-.008-.005a1.66 1.66 0 01-.386.763 1.539 1.539 0 01-.756.458c-.378.1-.762.055-1.092-.097a1.8 1.8 0 01-.509-.388c-.004 0-.005-.005-.005-.005a1.68 1.68 0 01-.387.76 1.553 1.553 0 01-.756.46 1.613 1.613 0 01-1.09-.098 1.742 1.742 0 01-.51-.386c-.007 0-.008-.007-.008-.007a1.641 1.641 0 01-.385.763 1.547 1.547 0 01-.755.458 1.6 1.6 0 01-1.092-.098 1.697 1.697 0 01-.51-.387c-.003 0-.005-.005-.005-.005a1.68 1.68 0 01-.388.76c-.194.217-.452.38-.756.462a1.59 1.59 0 01-1.601-.49c-.003.004-.005-.004-.005-.004a1.643 1.643 0 01-.387.762 1.53 1.53 0 01-.753.46 1.61 1.61 0 01-1.094-.098 1.69 1.69 0 01-.506-.388c-.007 0-.01-.006-.01-.006a1.656 1.656 0 01-.385.762 1.59 1.59 0 01-1.848.361 1.708 1.708 0 01-.51-.387c-.003.003-.005-.005-.005-.005-.06.285-.196.548-.388.761-.194.219-.452.38-.753.459-.38.101-.763.056-1.093-.099a1.682 1.682 0 01-.508-.385c-.006 0-.007-.007-.007-.007-.06.288-.197.548-.388.763-.195.216-.452.38-.753.459-.007 0-.007 0-.014.004a1.36 1.36 0 01-.205.037l-.105.01a.937.937 0 01-.267-.013 1.583 1.583 0 01-1.017-.528 1.6 1.6 0 01-1.148 1.222 1.6 1.6 0 01-1.955-1.135l-1.123-4.228c-2.662-3.753-4.866-8.42-6.264-13.681-1.396-5.256-1.787-10.39-1.344-14.972l-.803-3.023a1.595 1.595 0 012.737-1.463.147.147 0 01.016-.052 1.15 1.15 0 01.101-.29.585.585 0 01.061-.118c.046-.093.111-.182.188-.266a.924.924 0 01.106-.111c.132-.13.29-.236.472-.305a.976.976 0 01.198-.072l.012-.003c.302-.081.606-.067.883.019.136.048.263.106.385.185.12.08.228.175.327.284 0 0-.001-.005.005-.008.027-.143.078-.28.146-.404a1.564 1.564 0 011.004-.807 1.54 1.54 0 01.881.022 1.64 1.64 0 01.715.468s-.002-.008.004-.01c.026-.141.077-.28.145-.401a1.597 1.597 0 011.887-.79c.136.047.262.109.384.186.121.079.228.175.328.281 0 0-.002-.005.006-.006.026-.14.076-.278.146-.402a1.548 1.548 0 011.002-.806 1.58 1.58 0 01.882.017 1.696 1.696 0 01.715.47s-.003-.005.002-.007c.027-.144.079-.28.147-.404a1.566 1.566 0 011.002-.808c.303-.08.608-.066.883.02.137.048.264.106.384.185.121.079.23.176.33.284 0 0-.002-.007.003-.008.027-.143.079-.279.146-.403a1.56 1.56 0 011.004-.806c.304-.082.606-.068.882.016a1.664 1.664 0 01.712.473s-.001-.008.006-.01a1.35 1.35 0 01.145-.402 1.592 1.592 0 011.885-.79c.139.047.266.109.386.185.121.08.229.177.329.285 0 0-.003-.007.003-.008a1.37 1.37 0 01.148-.405 1.567 1.567 0 011.002-.806c.304-.082.608-.066.882.019.138.048.264.107.385.185.123.082.23.176.328.284 0 0-.001-.004.005-.008a1.37 1.37 0 01.144-.402c.199-.388.55-.686 1.006-.808h.005a1.12 1.12 0 01.215-.04c.358-.043.708.034 1.004.214.034.02.07.047.105.074.088.057.164.126.23.202.18.183.313.418.383.682l.682 2.569c2.792 3.815 5.1 8.63 6.545 14.077" fill="#d99f15"/><path d="M153.41 192.642c1.447 5.442 1.83 10.77 1.3 15.466l1.007 3.792c.066.248.072.493.022.73a1.694 1.694 0 01-.273.626c-.036.045-.076.096-.117.137a1.348 1.348 0 01-.318.267 3.04 3.04 0 00-.113.065 1.417 1.417 0 01-.319.127h-.006a1.6 1.6 0 01-1.092-.1 1.803 1.803 0 01-.508-.386 1.636 1.636 0 01-.394.758 1.539 1.539 0 01-.756.458c-.378.1-.762.055-1.092-.097a1.89 1.89 0 01-.509-.388 1.606 1.606 0 01-.392.755 1.553 1.553 0 01-.756.46 1.613 1.613 0 01-1.09-.098 1.84 1.84 0 01-.51-.386 1.626 1.626 0 01-.393.756 1.547 1.547 0 01-.755.458 1.6 1.6 0 01-1.092-.098 1.808 1.808 0 01-.51-.387 1.613 1.613 0 01-.393.756c-.194.216-.452.38-.756.461a1.59 1.59 0 01-1.09-.102 1.725 1.725 0 01-.511-.387 1.597 1.597 0 01-.392.757 1.53 1.53 0 01-.753.46 1.61 1.61 0 01-1.094-.098 1.765 1.765 0 01-.506-.388 1.646 1.646 0 01-.395.756 1.59 1.59 0 01-1.848.361 1.802 1.802 0 01-.51-.387 1.601 1.601 0 01-.393.756c-.194.219-.452.38-.753.459-.38.101-.763.056-1.093-.099a1.798 1.798 0 01-.508-.385 1.61 1.61 0 01-.395.756c-.195.216-.452.38-.753.459-.007 0-.007 0-.014.004a1.36 1.36 0 01-.205.037l-.105.01a1.24 1.24 0 01-.267-.013 1.583 1.583 0 01-1.36-1.173l-1.123-4.228c-2.662-3.756-4.868-8.42-6.264-13.683-1.396-5.256-1.793-10.39-1.344-14.972l-.803-3.024a1.552 1.552 0 01-.007-.78 1.15 1.15 0 01.101-.29.585.585 0 01.061-.118c.046-.093.111-.182.188-.266a.924.924 0 01.106-.111c.132-.13.29-.236.472-.305a.976.976 0 01.198-.072l.012-.003a1.551 1.551 0 011.268.204c.119.075.231.165.332.276a1.64 1.64 0 01.146-.404 1.564 1.564 0 011.004-.807 1.54 1.54 0 01.881.022c.133.037.264.105.385.184.12.073.234.166.334.274.032-.144.078-.273.145-.401a1.597 1.597 0 011.887-.79 1.6 1.6 0 01.384.186c.12.073.232.167.334.275a1.59 1.59 0 01.146-.402 1.548 1.548 0 011.002-.806 1.58 1.58 0 01.882.017c.134.04.264.105.385.187.12.072.233.166.332.276.032-.146.08-.275.147-.404a1.566 1.566 0 011.002-.808c.303-.08.608-.066.883.02.136.04.264.106.384.185.121.073.233.167.333.276a1.73 1.73 0 01.146-.403 1.56 1.56 0 011.004-.806c.304-.082.606-.068.882.016.134.04.263.108.384.188.12.072.234.166.334.276.033-.146.08-.274.145-.403a1.592 1.592 0 011.885-.79c.136.04.266.109.386.185.12.074.232.168.332.277a1.72 1.72 0 01.148-.405 1.567 1.567 0 011.002-.806 1.567 1.567 0 011.267.204c.12.075.232.167.333.276.032-.144.08-.273.144-.402.199-.388.55-.686 1.006-.808h.005a1.12 1.12 0 01.215-.04c.358-.043.708.034 1.004.214.034.02.07.047.105.074.088.057.164.126.23.202.18.183.313.418.383.682l.682 2.569c2.792 3.815 5.1 8.63 6.545 14.077" fill="#f2ae0d"/><path d="M146.45 179.145a.655.655 0 01-.463.801l-25.334 6.726a.653.653 0 11-.335-1.264l25.332-6.73a.657.657 0 01.8.467m7.69 28.965a.655.655 0 01-.462.8l-25.333 6.727a.654.654 0 01-.336-1.265l25.333-6.727a.652.652 0 01.799.465" fill="#e18a16"/><path d="M151.291 197.096a8.532 8.532 0 01-6.06 10.437l-8.04 2.136a8.533 8.533 0 01-10.436-6.057l-1.606-6.05a8.535 8.535 0 016.057-10.438l8.039-2.134a8.535 8.535 0 0110.441 6.058l1.605 6.048" fill="#fbe472"/><path d="M139.031 197.118a3.347 3.347 0 01-2.381 4.09l-2.3.609a3.349 3.349 0 01-4.09-2.379s-.907-1.248-1.007-3.812c-.099-2.566 3.174-5.454 3.174-5.454s4.439.573 5.596 3.136c1.162 2.564 1.008 3.81 1.008 3.81" fill="#753f32"/><path d="M131.198 193.38s.345-.78.73-.192c.383.586.022 1.645.907 1.87.886.223.959.159 2.148 4.663 0 0 .594.85-.713 1.288-1.308.436-2.163-.025-2.145-1.177.016-1.151-.836-.375-1.276-1.36-.444-.983.412-1.211.424-2.04.008-.827-1.532-1.108-1.2-1.93.333-.822 1.018.556 1.125-1.121" fill="#af753f"/><path d="M135.223 192.318s-.685-.51-.729.19c-.045.7.795 1.442.136 2.076-.66.633-.756.61.432 5.116 0 0-.093 1.03 1.26.766 1.352-.265 1.868-1.088 1.283-2.08-.582-.996.54-.738.438-1.816-.1-1.073-.956-.846-1.373-1.562-.421-.715.783-1.72.085-2.271-.694-.552-.61.987-1.532-.419" fill="#af753f"/><path d="M132.46 195.817s.171-.39.363-.096c.192.293.012.821.452.933.442.11.479.079 1.074 2.328 0 0 .296.424-.358.644-.652.216-1.081-.013-1.072-.586.01-.578-.416-.187-.636-.682-.222-.49.207-.604.212-1.018.006-.414-.765-.552-.597-.963.164-.412.508.279.561-.56m3.161-.835s-.343-.254-.366.094c-.021.352.397.72.068 1.037-.33.316-.377.307.216 2.553 0 0-.048.516.627.386.677-.135.936-.547.642-1.042-.288-.494.268-.366.218-.905-.048-.536-.476-.424-.684-.779-.21-.36.389-.862.042-1.133-.348-.276-.305.49-.764-.21m-1.409-2.205c.257.975.04 1.876-.485 2.012-.527.139-1.162-.537-1.419-1.51-.256-.972.49-2.011.49-2.011s1.158.537 1.414 1.51" fill="#cc904d"/><path d="M145.03 202.293a3.844 3.844 0 01-5.259 1.39l-2.364-1.377a3.845 3.845 0 01-1.389-5.258s.275-1.748 2.277-3.918c2.007-2.166 7.014-1.852 7.014-1.852s3.142 4.076 2.001 7.099c-1.141 3.025-2.28 3.916-2.28 3.916" fill="#60362b"/><path d="M141.702 192.888s.915-.354.75.436c-.163.789-1.32 1.356-.783 2.257.537.904.65.91-2.043 5.535 0 0-.212 1.177-1.628.469-1.42-.707-1.739-1.779-.788-2.701.95-.92-.373-.983.068-2.142.437-1.162 1.319-.648 2.001-1.312.683-.666-.341-2.15.596-2.545.94-.397.376 1.281 1.827.003" fill="#af753f"/><path d="M145.84 195.293s-.145-.965-.749-.435c-.605.532-.528 1.816-1.577 1.796-1.05-.021-1.113-.116-3.805 4.51 0 0-.918.765.397 1.649 1.316.883 2.405.632 2.737-.648.334-1.28 1.039-.163 1.831-1.117.793-.956-.09-1.47.152-2.391.241-.921 2.036-.763 1.917-1.775-.118-1.013-1.298.306-.902-1.59" fill="#af753f"/><path d="M140.746 195.892s.459-.176.375.22c-.083.392-.658.674-.391 1.122.27.45.325.456-1.02 2.768 0 0-.107.587-.813.232-.708-.352-.868-.888-.394-1.35.475-.458-.186-.488.035-1.068.219-.58.659-.323.999-.655.342-.332-.171-1.072.297-1.27.47-.198.187.64.912 0m3.249 1.889s-.073-.483-.376-.216c-.302.268-.262.908-.786.896-.524-.01-.555-.058-1.9 2.254 0 0-.456.382.198.82.656.442 1.2.316 1.367-.324.168-.64.519-.08.915-.557.394-.476-.044-.732.076-1.193.12-.46 1.014-.382.956-.884-.059-.508-.648.153-.45-.796m.647-2.934c-.584 1-1.49 1.556-2.033 1.242-.539-.315-.507-1.38.077-2.38.581-1.002 2.03-1.24 2.03-1.24s.506 1.377-.074 2.378" fill="#cc904d"/><path d="M185.803 186.94c-2.156 4.133-4.893 7.592-7.838 10.17l-1.5 2.88c-.315.6-1.039.859-1.66.615-.024-.012-.052-.023-.074-.035l-.048-.024c-.036-.02-.061-.044-.093-.066-.007-.006-.016-.01-.021-.014a1.316 1.316 0 01-.591-1.116c-.38.274-.893.342-1.343.123a.209.209 0 01-.04-.016 1.315 1.315 0 01-.702-1.193 1.32 1.32 0 01-1.344.12c-.014 0-.027-.008-.038-.014a1.315 1.315 0 01-.702-1.11 1.153 1.153 0 01-.003-.086c-.38.272-.893.34-1.341.123-.016-.003-.028-.01-.042-.016a1.322 1.322 0 01-.702-1.193c-.382.27-.895.338-1.343.12-.016-.002-.027-.008-.04-.015a1.318 1.318 0 01-.703-1.195c-.381.274-.893.34-1.344.122a.177.177 0 01-.04-.015 1.317 1.317 0 01-.702-1.196 1.317 1.317 0 01-1.343.124.118.118 0 01-.04-.017 1.314 1.314 0 01-.7-1.108c-.003-.027-.003-.055-.004-.086-.381.27-.893.34-1.343.123-.013-.001-.026-.01-.038-.015a1.323 1.323 0 01-.702-1.112l-.002-.085a1.313 1.313 0 01-1.358.12l-.025-.013a.144.144 0 01-.044-.028 1.308 1.308 0 01-.66-1.168 1.31 1.31 0 01-1.383.108 1.32 1.32 0 01-.557-1.778l1.675-3.21c.466-3.775 1.725-7.86 3.809-11.852 2.08-3.987 4.707-7.343 7.532-9.887l1.196-2.295a1.314 1.314 0 012.483.632c.377-.273.893-.34 1.334-.126.019.005.031.013.048.02l.026.014c.446.242.686.708.678 1.18l.071-.046a1.32 1.32 0 011.312-.06c.01.008.025.014.035.024.436.245.673.702.668 1.172a1.314 1.314 0 011.383-.107c.013.008.025.013.035.024.436.244.674.703.667 1.17.027-.017.05-.031.073-.047a1.32 1.32 0 011.311-.06c.01.008.025.013.035.025.437.243.673.703.669 1.172.024-.02.048-.033.07-.048a1.32 1.32 0 011.311-.059c.014.004.026.01.035.023.436.244.675.703.67 1.17a.623.623 0 01.071-.045 1.306 1.306 0 011.308-.06.145.145 0 01.039.024c.433.243.672.703.667 1.17a1.314 1.314 0 011.383-.105.141.141 0 01.034.022c.436.245.673.704.67 1.172.025-.019.049-.033.07-.05a1.324 1.324 0 011.31-.057c.014.007.026.012.035.024.438.243.675.703.67 1.17.025-.016.048-.034.072-.047.35-.219.785-.26 1.18-.105.008 0 .017.006.025.009.035.013.072.02.105.037l.051.026c.02.012.044.028.07.04.554.37.757 1.113.44 1.718l-1.014 1.944c-.43 3.89-1.703 8.118-3.859 12.25" fill="#d8c796"/><path d="M185.803 186.94c-2.156 4.133-4.893 7.592-7.838 10.17l-1.5 2.88a1.332 1.332 0 01-1.707.595l-.027-.015a1.31 1.31 0 01-.678-1.18 1.32 1.32 0 01-1.381.107c-.013-.007-.025-.013-.037-.024a1.316 1.316 0 01-.666-1.17c-.027.017-.05.033-.074.045a1.314 1.314 0 01-1.31.06c-.014-.007-.024-.012-.036-.023a1.319 1.319 0 01-.667-1.17.729.729 0 01-.073.045 1.317 1.317 0 01-1.311.06c-.01-.006-.024-.012-.033-.023a1.315 1.315 0 01-.668-1.172.379.379 0 01-.074.045 1.314 1.314 0 01-1.31.062c-.012-.008-.026-.014-.035-.023a1.318 1.318 0 01-.668-1.172c-.025.019-.05.032-.073.047a1.312 1.312 0 01-1.31.06c-.012-.007-.025-.014-.036-.024a1.311 1.311 0 01-.666-1.172l-.074.049a1.32 1.32 0 01-1.31.059.098.098 0 01-.035-.023 1.317 1.317 0 01-.668-1.172l-.072.047a1.314 1.314 0 01-1.347.037 1.324 1.324 0 01-.668-1.172c-.025.016-.048.033-.072.045-.349.22-.785.263-1.178.108-.01-.002-.016-.005-.026-.008-.034-.016-.07-.022-.105-.038l-.05-.027c-.02-.01-.045-.028-.07-.041a1.328 1.328 0 01-.444-1.711l1.676-3.212c.467-3.776 1.727-7.859 3.81-11.852 2.08-3.987 4.706-7.344 7.53-9.888l1.197-2.292a1.331 1.331 0 011.66-.621c.026.014.054.024.074.034l.05.026c.034.017.06.044.09.064l.025.017c.35.236.565.616.584 1.027.004.029.004.053.005.085.379-.27.894-.339 1.342-.121.016.002.026.009.04.016.425.222.68.652.7 1.109l.004.085c.38-.273.893-.338 1.342-.121.014.003.027.01.039.015.427.22.68.652.701 1.108.002.028.004.056.003.086a1.317 1.317 0 011.343-.121c.014.003.026.01.04.015.424.22.677.652.7 1.109a.861.861 0 01.004.087c.38-.272.892-.342 1.341-.123.015.001.028.01.04.016a1.315 1.315 0 01.704 1.193 1.32 1.32 0 011.344-.12.12.12 0 01.039.014c.424.222.677.653.7 1.109a.88.88 0 01.004.087c.38-.274.893-.34 1.341-.123.015.004.027.01.04.016.427.221.68.652.7 1.107.004.029.004.057.005.089a1.306 1.306 0 011.34-.123.11.11 0 01.042.015c.424.223.678.652.7 1.108.002.03.005.055.002.087a1.318 1.318 0 011.359-.12l.025.014a1.331 1.331 0 01.485 1.744l-1.014 1.944c-.43 3.89-1.703 8.118-3.859 12.25" fill="#e7d3a1"/><path d="M189.082 174.816a.538.538 0 01-.73.229l-19.22-10.028a.54.54 0 01-.231-.73.545.545 0 01.73-.23l19.223 10.03a.54.54 0 01.228.729m-11.464 21.977a.541.541 0 01-.732.23l-19.22-10.026a.543.543 0 01-.23-.732.544.544 0 01.73-.23l19.221 10.027a.542.542 0 01.231.73" fill="#c0a86f"/><path d="M182.022 188.477a7.055 7.055 0 01-9.521 2.993l-6.103-3.182a7.058 7.058 0 01-2.992-9.523l2.393-4.588a7.059 7.059 0 019.523-2.995l6.101 3.184a7.06 7.06 0 012.994 9.524l-2.395 4.587" fill="#fde9b5"/><path d="M176.798 179.436a3.643 3.643 0 01-2.377 3.213c-.462.172-.97.253-1.492.224l-1.523-.09a3.611 3.611 0 01-1.455-.394 3.665 3.665 0 01-1.985-3.465c.104-1.782 1.283-3.144 2.428-4.071 1.147-.915 2.272-1.392 2.272-1.392s4.347 2.239 4.132 5.975" fill="#885136"/><path d="M172.738 173.497c.55.303 4.257 2.481 4.06 5.936a3.642 3.642 0 01-2.381 3.216 3.706 3.706 0 01-1.486.227l-.924-.055c-.01-.044-.01-.219.007-.485a3.409 3.409 0 001.85-1.611c1.571-2.897-.605-6.393-1.134-7.17l.003-.003a.504.504 0 01.005-.055" fill="#683e2b"/><path d="M174.42 182.649c-.46.172-.969.253-1.491.224l-1.523-.09a3.611 3.611 0 01-1.455-.394 1.55 1.55 0 011.603-1.165l1.408.08c.756.046 1.36.622 1.459 1.345" fill="#996638"/><path d="M175.767 188.117a3.637 3.637 0 01-3.213-2.377 3.644 3.644 0 01-.225-1.49l.089-1.525a3.654 3.654 0 013.859-3.437c1.782.102 3.145 1.28 4.072 2.425a10.994 10.994 0 011.392 2.273s-2.239 4.348-5.974 4.13" fill="#986144"/><path d="M181.706 184.057c-.304.553-2.483 4.26-5.937 4.061a3.64 3.64 0 01-3.215-2.381 3.644 3.644 0 01-.227-1.487l.055-.922c.045-.01.221-.01.485.005.28.772.828 1.436 1.608 1.853 2.9 1.568 6.395-.608 7.174-1.136l.004.003c.037.004.053.004.053.004" fill="#885136"/><path d="M172.554 185.74a3.644 3.644 0 01-.225-1.49l.089-1.525a3.6 3.6 0 01.396-1.452 1.545 1.545 0 011.164 1.603l-.081 1.406a1.558 1.558 0 01-1.343 1.458" fill="#af753f"/><path d="M205.243 192.454c2.618 3.86 4.366 7.914 5.238 11.728l1.821 2.687c.16.235.23.499.224.759a1.3 1.3 0 01-.575 1.072.5.5 0 01-.088.048 1.31 1.31 0 01-1.297.005c.01.065.01.135.012.195a1.31 1.31 0 01-.575 1.072.38.38 0 01-.085.048c-.413.24-.904.225-1.3.004.012.068.012.136.013.197a1.31 1.31 0 01-.574 1.07.285.285 0 01-.087.05c-.412.24-.904.227-1.297.003.01.068.01.137.012.197a1.32 1.32 0 01-.575 1.072.446.446 0 01-.088.05 1.313 1.313 0 01-1.297.005c.01.064.01.133.013.192-.01.418-.205.824-.575 1.074a.348.348 0 01-.086.048 1.31 1.31 0 01-1.3.004 1.32 1.32 0 01-.561 1.27c-.029.017-.055.034-.087.048a1.314 1.314 0 01-1.3.004c.012.066.013.134.014.196-.008.414-.205.82-.574 1.072-.028.018-.055.037-.087.046-.412.24-.905.227-1.3.006.012.066.012.136.015.196a1.33 1.33 0 01-.576 1.073c-.027.017-.054.036-.087.048a1.312 1.312 0 01-1.299.005c.012.064.012.134.014.195-.008.415-.206.82-.575 1.073-.027.016-.055.034-.087.047a1.308 1.308 0 01-1.298.004c.01.067.01.135.009.199a1.31 1.31 0 01-.57 1.07c-.606.41-1.427.25-1.834-.35l-2.035-2.996c-3.101-2.21-6.098-5.246-8.626-8.974-2.524-3.724-4.235-7.624-5.135-11.317l-1.453-2.141a1.327 1.327 0 01.353-1.84 1.31 1.31 0 011.205-.132c.06.02.123.048.18.08a1.3 1.3 0 01.484-1.202c.023-.028.051-.045.076-.064a1.326 1.326 0 011.211-.138c.056.025.12.05.175.085-.059-.45.11-.912.486-1.204a.322.322 0 01.075-.063 1.314 1.314 0 011.21-.138c.057.025.12.05.177.085-.06-.45.11-.912.486-1.205a.373.373 0 01.075-.063c.372-.25.821-.284 1.21-.139.055.024.12.052.175.086-.058-.45.111-.911.486-1.204.024-.028.049-.044.077-.063a1.318 1.318 0 011.385-.055c-.058-.448.11-.91.486-1.202.022-.027.049-.046.077-.066a1.32 1.32 0 011.21-.137c.054.027.118.052.174.085-.06-.45.11-.912.485-1.202a.331.331 0 01.079-.066 1.32 1.32 0 011.207-.137c.057.024.121.05.178.084-.06-.448.11-.91.483-1.205a.497.497 0 01.077-.063c.371-.25.822-.283 1.208-.136.058.024.122.05.178.084-.059-.45.11-.91.486-1.204.02-.025.05-.045.075-.063a1.319 1.319 0 011.387-.056 1.3 1.3 0 01.485-1.201c.021-.028.05-.045.076-.065.37-.25.821-.288 1.208-.138.245.092.467.259.624.494l1.232 1.814c3.223 2.222 6.343 5.347 8.957 9.2" fill="#a8d292"/><path d="M205.243 192.454c2.618 3.86 4.366 7.914 5.238 11.728l1.821 2.687c.16.235.23.499.224.759a1.083 1.083 0 01-.18-.082 1.3 1.3 0 01-.483 1.202.297.297 0 01-.08.064 1.31 1.31 0 01-1.205.136.902.902 0 01-.18-.082 1.3 1.3 0 01-.48 1.202.377.377 0 01-.083.066 1.314 1.314 0 01-1.204.135.98.98 0 01-.178-.083c.058.448-.108.908-.483 1.203a.371.371 0 01-.081.065 1.306 1.306 0 01-1.204.135.81.81 0 01-.18-.083c.058.45-.107.908-.483 1.204a.359.359 0 01-.08.064c-.365.25-.82.283-1.204.134a.826.826 0 01-.18-.08c.059.448-.107.908-.481 1.202a.392.392 0 01-.082.064 1.31 1.31 0 01-1.205.136.984.984 0 01-.18-.081c.059.448-.107.908-.481 1.203-.022.025-.05.042-.08.065a1.321 1.321 0 01-1.387.05c.06.45-.105.909-.48 1.203-.023.027-.05.044-.081.067-.367.25-.82.284-1.204.135-.06-.023-.124-.047-.182-.083a1.3 1.3 0 01-.481 1.204.34.34 0 01-.081.064 1.314 1.314 0 01-1.204.136 1.156 1.156 0 01-.182-.083c.06.448-.106.908-.48 1.203a.5.5 0 01-.08.065 1.31 1.31 0 01-1.209.138 1.27 1.27 0 01-.62-.49l-2.035-2.997c-3.104-2.204-6.1-5.244-8.628-8.972-2.525-3.721-4.233-7.625-5.132-11.317l-1.453-2.143a1.3 1.3 0 01-.227-.761c.004-.42.204-.822.574-1.072a.305.305 0 01.09-.05 1.294 1.294 0 011.295-.004 1.106 1.106 0 01-.008-.198 1.3 1.3 0 01.57-1.068.321.321 0 01.091-.051 1.3 1.3 0 011.295-.004.98.98 0 01-.01-.197c.005-.412.206-.823.571-1.071.032-.02.059-.037.092-.05a1.305 1.305 0 011.294-.003c-.01-.064-.011-.132-.01-.198.006-.412.206-.82.571-1.07.032-.02.06-.04.09-.048a1.294 1.294 0 011.295-.003 1.106 1.106 0 01-.008-.199c.004-.412.204-.821.572-1.07a.296.296 0 01.09-.048c.412-.242.9-.227 1.294-.004a1.101 1.101 0 01-.008-.2c.004-.411.204-.82.571-1.068a.266.266 0 01.09-.048 1.297 1.297 0 011.295-.006c-.01-.064-.013-.133-.01-.197.005-.412.205-.821.57-1.07.032-.02.06-.038.091-.051a1.31 1.31 0 011.296-.003c-.01-.063-.012-.132-.01-.196.005-.413.206-.823.57-1.07.032-.02.06-.04.093-.05.41-.241.899-.224 1.294-.004a.97.97 0 01-.01-.196 1.31 1.31 0 01.571-1.07.295.295 0 01.092-.05c.41-.241.899-.225 1.293-.004a1.24 1.24 0 01-.009-.199c.245.092.467.259.624.494l1.232 1.814c3.223 2.222 6.343 5.347 8.957 9.2" fill="#b7e29e"/><path d="M196.123 183.82a.542.542 0 01-.144.753l-17.942 12.17a.54.54 0 11-.608-.895l17.942-12.17a.543.543 0 01.752.143m13.914 20.516a.543.543 0 01-.144.753l-17.943 12.17a.541.541 0 01-.608-.897l17.943-12.17a.542.542 0 01.752.144" fill="#87aa79"/><path d="M204.803 196.514a7.058 7.058 0 01-1.878 9.804l-5.696 3.864a7.059 7.059 0 01-9.804-1.88l-2.904-4.282a7.059 7.059 0 011.878-9.804l5.696-3.863a7.06 7.06 0 019.804 1.879l2.904 4.282" fill="#f1f9e3"/><path d="M198.4 198.694a.502.502 0 01.026.116c.33 1.423-1.621 3.264-4.45 4.179-2.907.928-5.633.52-6.093-.92-.14-.433-.056-.904.21-1.385.604-1.114 2.181-2.248 4.21-2.903 2.904-.936 5.634-.523 6.098.913" fill="#75b55b"/><path d="M198.4 198.694a.502.502 0 01.026.116c-.6 1.116-2.181 2.25-4.216 2.904-2.903.934-5.632.52-6.09-.917a.389.389 0 01-.027-.113c.604-1.114 2.181-2.248 4.21-2.903 2.904-.936 5.634-.523 6.098.913" fill="#84cb62"/><path d="M192.567 195.593c3.56-1.145 7.094-.052 7.895 2.44.799 2.49-1.439 5.436-5 6.579-1.364.436-5.636.406-7.077-1.086l5.629-3.424-6.58.567c.263-2.075 3.767-4.639 5.133-5.076" fill="#f9cb88"/><path d="M200.617 198.996c.053 2.242-2.048 4.617-5.156 5.617-1.364.436-5.639.407-7.076-1.087l2.173-1.32c1.857.543 4.35.472 5.337.156 2.063-.661 3.684-1.936 4.523-3.373.068-.001.132 0 .199.007" fill="#deb478"/><path d="M196.73 196.465c.073.457-.69.961-1.707 1.128-1.018.165-1.902-.072-1.976-.53-.076-.454.69-.96 1.706-1.123 1.018-.167 1.904.069 1.977.525" fill="#fff"/><path d="M129.08 348.24c0 4.818-3.913 8.737-8.739 8.737-4.828 0-8.742-3.919-8.742-8.737 0-4.83 3.914-8.747 8.742-8.747 4.826 0 8.74 3.917 8.74 8.747" fill="#5e7173"/><path d="M125.851 348.24a5.512 5.512 0 11-11.02-.005 5.512 5.512 0 0111.02.005" fill="#b5c6c3"/><path d="M124.351 347.722a4.01 4.01 0 01-4.012 4.004 4.01 4.01 0 110-8.024c2.219 0 4.012 1.8 4.012 4.02" fill="#91a3a2"/><path d="M122.949 345.806a2.853 2.853 0 01-1.371 3.79 2.855 2.855 0 01-3.79-1.371l-4.017-8.573a2.846 2.846 0 011.37-3.791 2.847 2.847 0 013.791 1.37l4.017 8.575" fill="#91a3a2"/><path d="M209.854 348.24c0 4.818-3.913 8.737-8.741 8.737-4.827 0-8.743-3.919-8.743-8.737 0-4.83 3.916-8.747 8.743-8.747 4.828 0 8.741 3.917 8.741 8.747" fill="#5e7173"/><path d="M206.623 348.24a5.51 5.51 0 01-11.021 0 5.512 5.512 0 1111.021 0" fill="#b5c6c3"/><path d="M205.125 347.722a4.012 4.012 0 01-4.012 4.004 4.01 4.01 0 01-4.012-4.004c0-2.22 1.794-4.02 4.012-4.02 2.216 0 4.012 1.8 4.012 4.02" fill="#91a3a2"/><path d="M203.72 345.806a2.85 2.85 0 01-1.371 3.79 2.857 2.857 0 01-3.791-1.371l-4.017-8.573a2.847 2.847 0 011.373-3.791 2.847 2.847 0 013.79 1.37l4.017 8.575m-2.444-34.878h-94.203a2.526 2.526 0 01-2.439-1.863l-13.899-50.7a2.529 2.529 0 011.77-3.105 2.533 2.533 0 013.106 1.77l13.39 48.844h90.127l14.75-90.612a2.54 2.54 0 012.07-2.093l25.905-4.416a2.526 2.526 0 11.85 4.983l-24.126 4.114-14.804 90.955a2.532 2.532 0 01-2.497 2.123" fill="#91a3a2"/><path d="M93.172 260.225a2.524 2.524 0 01-.254-5.037l118.328-12.108c1.357-.184 2.628.864 2.772 2.253a2.53 2.53 0 01-2.26 2.772L93.43 260.209a1.858 1.858 0 01-.258.016m118.33 77.904H109.6a2.523 2.523 0 01-2.526-2.527 2.526 2.526 0 012.526-2.528h98.254l-8.944-23.784a2.524 2.524 0 011.479-3.253c1.293-.507 2.762.165 3.256 1.479l10.224 27.198a2.525 2.525 0 01-2.367 3.415m-113.228-60.92a2.528 2.528 0 01-.274-5.044l109.131-8.484c1.351-.185 2.607.932 2.715 2.317a2.526 2.526 0 01-2.324 2.716L98.394 277.2c-.042.004-.08.009-.12.009m4.942 19.66a2.53 2.53 0 01-.099-5.059l101.013-4.087c1.384-.073 2.57 1.033 2.627 2.424a2.531 2.531 0 01-2.426 2.631l-101.011 4.09h-.104" fill="#91a3a2"/><path d="M120.363 310.928a2.503 2.503 0 01-2.449-2.005l-10.63-52.057a2.506 2.506 0 011.948-2.958 2.506 2.506 0 012.953 1.96l10.632 52.058a2.5 2.5 0 01-2.454 3.002m17.211 0a2.53 2.53 0 01-2.497-2.143l-8.403-54.419a2.528 2.528 0 014.996-.77l8.403 54.42a2.527 2.527 0 01-2.499 2.912m15.983 0a2.527 2.527 0 01-2.52-2.371l-3.568-56.397a2.522 2.522 0 012.362-2.678c1.378-.174 2.592.959 2.683 2.36l3.567 56.4a2.526 2.526 0 01-2.362 2.681c-.053.005-.106.005-.162.005m16.623 0a2.53 2.53 0 01-2.53-2.527v-58.413a2.53 2.53 0 015.056 0V308.4a2.527 2.527 0 01-2.527 2.527m15.031.001a2.522 2.522 0 01-2.516-2.801l6.745-60.849c.158-1.382 1.428-2.376 2.792-2.236a2.529 2.529 0 012.236 2.792l-6.748 60.843a2.527 2.527 0 01-2.509 2.25" fill="#91a3a2"/><path d="M247.185 210.792a3.948 3.948 0 01-3.316 4.496l-25.303 3.822a3.94 3.94 0 01-4.49-3.312 3.948 3.948 0 013.311-4.497l25.302-3.82a3.943 3.943 0 014.496 3.31" fill="#559949"/><path d="M63.366 218.272q.527-.286.915-.2.388.085.617.507.477.878-.578 1.451l-.896.487.754 1.388q.296.545.142 1.016-.137.46-.63.728-.491.267-.97.14-.461-.137-.757-.681l-.754-1.389-4.605 2.5q-.474.258-.881.137-.416-.138-.636-.542-.229-.422-.158-.961l1.195-10.753q.042-.341.239-.608.187-.283.468-.436.457-.248.953-.13.497.117.792.662l3.894 7.171zm-6.38 3.464l3.27-1.775-2.568-4.728zm16.926-9.189q.527-.286.915-.201.388.085.617.507.477.88-.578 1.452l-.896.486.754 1.389q.296.545.142 1.015-.137.461-.63.728-.491.268-.97.14-.461-.136-.757-.68l-.754-1.39-4.605 2.5q-.474.258-.881.138-.416-.138-.636-.543-.229-.421-.158-.96l1.195-10.753q.042-.342.239-.608.187-.284.468-.436.457-.249.953-.131.497.117.792.662l3.894 7.172zm-6.38 3.464l3.27-1.775-2.568-4.728zm12.206-1.074q-.562.305-1.132.136-.579-.186-.884-.748-.305-.563-.137-1.132.16-.587.722-.893.562-.305 1.141-.119.57.169.875.731.306.563.146 1.15-.168.57-.73.875zm.178-16.482q2.355-1.279 4.49-.366 2.141.885 3.744 3.838 1.098 2.021 1.311 3.84.204 1.8-.491 3.202-.678 1.392-2.19 2.213-1.002.544-2.212.746-1.202.175-2.24-.059-.333-.07-.534-.188-.193-.145-.336-.409-.21-.387-.142-.765.076-.405.375-.567.175-.096.372-.111.187-.033.491-.017 2.013.228 3.155-.393 1.283-.696 1.382-2.275.09-1.596-1.04-3.76.026 1.011-.525 1.925-.56.896-1.563 1.44-1.107.6-2.235.576-1.138-.042-2.117-.671-.97-.656-1.6-1.816-.65-1.196-.628-2.414.03-1.244.675-2.278.663-1.042 1.858-1.691zm3.549 6.243q.984-.534 1.248-1.474.271-.967-.273-1.968-.553-1.02-1.502-1.301-.941-.308-1.926.226-.966.525-1.203 1.473-.246.93.308 1.95.553 1.019 1.467 1.319.914.3 1.88-.225zm6.997-11.968q2.355-1.28 4.49-.367 2.141.886 3.744 3.839 1.098 2.02 1.311 3.84.204 1.8-.492 3.202-.677 1.392-2.189 2.213-1.002.544-2.212.745-1.202.175-2.24-.058-.333-.07-.534-.188-.193-.146-.336-.41-.21-.386-.142-.764.076-.405.375-.568.175-.095.372-.11.187-.034.491-.017 2.013.227 3.155-.393 1.283-.697 1.382-2.275.09-1.596-1.04-3.76.026 1.01-.525 1.924-.56.896-1.563 1.44-1.107.601-2.235.577-1.138-.042-2.117-.672-.97-.656-1.6-1.816-.65-1.195-.628-2.413.03-1.245.675-2.278.663-1.043 1.858-1.691zm3.549 6.243q.984-.535 1.248-1.474.271-.967-.273-1.969-.553-1.02-1.502-1.3-.941-.309-1.926.226-.966.524-1.203 1.472-.246.93.308 1.95.553 1.02 1.467 1.32.914.3 1.88-.225z"/><path d="M727.678 190.394c-13.225 32.675-22.753 59.523-21.316 60.104 1.435.586 13.298-25.313 26.556-57.982l-5.24-2.122" fill="#b19962"/><path d="M728.985 190.922l-23.933 59.04c.004.002.004.007.006.008 1.435.584 13.298-25.314 26.555-57.984l-2.628-1.064" fill="#c8b381"/><path d="M771.208 221.502a3.101 3.101 0 01-4.042 1.708l-85.448-34.632a3.107 3.107 0 01-1.708-4.041l16.435-40.544a3.104 3.104 0 014.04-1.71l85.444 34.633a3.109 3.109 0 011.712 4.044l-16.433 40.542" fill="#a97252"/><path d="M768.002 185.476l.372-.918a5.645 5.645 0 00-3.117-7.354l-50.132-20.32a5.649 5.649 0 00-7.357 3.108l-.375.918c-5.273-2.142-11.288.408-13.424 5.684-2.141 5.28.405 11.292 5.68 13.424l-.372.919a5.654 5.654 0 003.115 7.357l50.134 20.322c2.894 1.166 6.187-.223 7.356-3.114l.376-.916c5.274 2.139 11.286-.404 13.428-5.682 2.139-5.278-.41-11.291-5.684-13.428" fill="#f5f5f5"/><path d="M627.527 181.194c10.82 10.242 21.52 16.507 21.52 16.507s-6.839-10.345-17.657-20.588c-10.816-10.241-21.52-16.505-21.52-16.505s6.84 10.344 17.657 20.586" fill="#84cb62"/><path d="M625.066 184.354c12.123 8.658 23.584 13.395 23.584 13.395s-8.194-9.308-20.318-17.967c-12.122-8.658-23.583-13.393-23.583-13.393s8.197 9.305 20.317 17.965" fill="#58b535"/><path d="M635.72 182.032c5.68 9.293 12.039 15.756 12.039 15.756s-2.854-8.606-8.534-17.899c-5.681-9.292-12.041-15.756-12.041-15.756s2.854 8.604 8.535 17.899" fill="#58b535"/><path d="M653.626 207.425c10.317 9.765 19.882 16.408 21.367 14.84 1.488-1.57-5.67-10.76-15.985-20.527-10.316-9.762-14.57-11.38-16.059-9.813-1.484 1.572.361 5.733 10.677 15.5" fill="#f68b14"/><path d="M649.496 202.594a.717.717 0 001.012-.028l1.65-1.744a.716.716 0 00-.025-1.012.718.718 0 00-1.013.028l-1.652 1.744a.716.716 0 00.028 1.012m8.418 3.39c.286.272.74.26 1.01-.027l1.653-1.747a.716.716 0 10-1.042-.983l-1.65 1.743a.717.717 0 00.029 1.014m3.316 7.721c.286.27.74.259 1.01-.03l1.652-1.743a.717.717 0 00-.027-1.014.717.717 0 00-1.012.028l-1.652 1.743a.719.719 0 00.029 1.016m7.434 4.395a.715.715 0 001.012-.026l1.653-1.745a.72.72 0 00-.03-1.013.72.72 0 00-1.014.029l-1.65 1.744a.714.714 0 00.029 1.01" fill="#e8621a"/><path d="M665.806 265.25c2.486-2.352 8.38-.156 13.167 4.903 4.79 5.056 6.661 11.06 4.181 13.415-2.485 2.346-8.377.154-13.168-4.903-4.79-5.059-6.66-11.064-4.18-13.415" fill="#559949"/><path d="M681.093 296.489c-4.907.321-9.448-8.04-10.141-18.676-.692-10.636 2.717-19.516 7.622-19.837 4.907-.322 9.443 8.04 10.139 18.676.696 10.636-2.719 19.518-7.62 19.837" fill="#59ac3b"/><path d="M682.629 293.336c-3.357-3.59.23-12.403 8.013-19.686 7.787-7.278 16.815-10.273 20.174-6.68 3.36 3.591-.228 12.398-8.014 19.682-7.784 7.28-16.816 10.273-20.173 6.684" fill="#59ac3b"/><path d="M704.708 286.885c-3.282 11.333-12.527 18.612-20.656 16.261-8.127-2.353-12.059-13.446-8.779-24.78 3.279-11.332 12.53-18.612 20.656-16.26 8.13 2.351 12.059 13.446 8.779 24.779" fill="#559949"/><path d="M686.685 301.866c-4.348 2.906-12.68-1.918-18.603-10.773-5.925-8.863-7.206-18.4-2.858-21.31 4.349-2.906 12.674 1.915 18.604 10.777 5.924 8.857 7.202 18.398 2.857 21.306" fill="#84cb62"/><path d="M713.497 279.66c2.908 4.348-1.917 12.674-10.775 18.6-8.857 5.928-18.398 7.206-21.306 2.858-2.908-4.348 1.914-12.673 10.776-18.604 8.858-5.921 18.397-7.201 21.305-2.854" fill="#58b535"/><path d="M639.093 218.689c2.517 1.584 5.15 1.93 5.15 1.93s-1.167-2.398-3.531-4.267c2.488-.131 3.967-1.536 3.967-1.536s-2.583-1.54-5.248-1.783c1.008-1.77.465-4.104.465-4.104s-2.483.22-3.889 1.743c-1.065-2.37-3.31-4.264-3.31-4.264s-.931 1.85-.253 4.248c-2.516-1.586-5.147-1.928-5.147-1.928s1.167 2.4 3.534 4.265c-2.494.13-3.971 1.535-3.971 1.535s2.584 1.542 5.25 1.782c-1.01 1.774-.467 4.106-.467 4.106s2.484-.219 3.885-1.744c1.07 2.374 3.317 4.262 3.317 4.262s.929-1.848.248-4.245" fill="#84cb62"/><path d="M638.63 228.097c-3.147 4.577-11.51 8.88-16.043 5.765-4.533-3.113-3.52-12.464-.376-17.04 3.147-4.581 9.373-5.769 13.907-2.657 4.532 3.115 5.66 9.352 2.513 13.932" fill="#f46b4b"/><path d="M631.614 216.401a1.16 1.16 0 01-.89-2.141 1.16 1.16 0 01.89 2.141m4.713 8.044a1.482 1.482 0 11-1.138-2.736 1.482 1.482 0 011.138 2.736m-6.636 2.109a1.548 1.548 0 11-1.189-2.857 1.548 1.548 0 011.189 2.857m-4.901-5.134a1.007 1.007 0 11-.774-1.86 1.007 1.007 0 01.773 1.86m.395 10.202a1.474 1.474 0 11-1.132-2.722 1.474 1.474 0 011.132 2.722" fill="#f8a58f"/><path d="M613.094 239.226c2.43-1.718 3.758-4.016 3.758-4.016s-2.661.156-5.294 1.624c.834-2.348.104-4.253.104-4.253s-2.414 1.793-3.659 4.16c-1.25-1.61-3.613-2.004-3.613-2.004s-.75 2.377.117 4.261c-2.597.072-5.209 1.419-5.209 1.419s1.352 1.57 3.826 1.864c-2.428 1.715-3.756 4.015-3.756 4.015s2.663-.159 5.296-1.628c-.837 2.352-.107 4.257-.107 4.257s2.415-1.793 3.663-4.164c1.247 1.613 3.608 2.005 3.608 2.005s.753-2.377-.118-4.256c2.603-.073 5.21-1.426 5.21-1.426s-1.35-1.566-3.826-1.858" fill="#559949"/><path d="M621.604 243.265c3.02 4.661 3.783 14.036-.833 17.027-4.617 2.989-12.863-1.534-15.882-6.195-3.023-4.664-1.728-10.87 2.886-13.863 4.616-2.988 10.807-1.634 13.829 3.031" fill="#f04420"/><path d="M608.11 245.253a1.16 1.16 0 11-2.32.002 1.16 1.16 0 012.32-.002m9.239-1.264a1.483 1.483 0 11-2.966.002 1.483 1.483 0 012.966-.002m-.6 6.936a1.548 1.548 0 11-3.093 0 1.548 1.548 0 013.093 0m-6.623 2.556a1.007 1.007 0 11-2.014 0 1.007 1.007 0 012.014 0m9.573 3.551a1.476 1.476 0 11-2.95 0 1.475 1.475 0 012.95 0" fill="#f46b4b"/><path d="M652.07 278.637c.803 2.864 2.522 4.887 2.522 4.887s.745-2.56.245-5.534c1.934 1.575 3.973 1.524 3.973 1.524s-.882-2.876-2.695-4.844c1.935-.637 3.099-2.729 3.099-2.729s-1.989-1.504-4.054-1.319c.801-2.472.407-5.384.407-5.384s-1.933.748-3.037 2.983c-.802-2.864-2.524-4.885-2.524-4.885s-.744 2.562-.242 5.536c-1.934-1.578-3.974-1.527-3.974-1.527s.882 2.876 2.697 4.847c-1.939.633-3.1 2.728-3.1 2.728s1.988 1.501 4.05 1.312c-.8 2.477-.402 5.385-.402 5.385s1.929-.744 3.034-2.98" fill="#559949"/><path d="M645.413 285.302c-5.405 1.282-14.493-1.137-15.765-6.489-1.271-5.35 5.754-11.605 11.158-12.888 5.406-1.285 10.819 2.012 12.093 7.363 1.27 5.349-2.078 10.73-7.486 12.014" fill="#f04420"/><path d="M648.06 271.921a1.159 1.159 0 11.774-2.182 1.159 1.159 0 01-.774 2.182m-1.905 9.128a1.481 1.481 0 11.992-2.792 1.481 1.481 0 01-.992 2.792m-6.335-2.889a1.547 1.547 0 111.036-2.913 1.549 1.549 0 01.943 1.975 1.548 1.548 0 01-1.978.938m-.19-7.095a1.008 1.008 0 11.676-1.899 1.008 1.008 0 01-.676 1.899m-6.554 7.831a1.477 1.477 0 01.989-2.783 1.479 1.479 0 01.894 1.887 1.475 1.475 0 01-1.883.896" fill="#f46b4b"/><path d="M674.073 226.104a5.902 5.902 0 01-.761 8.312l-45.767 38.092a5.904 5.904 0 11-7.551-9.077l45.764-38.09a5.905 5.905 0 018.315.763" fill="#559949"/><path d="M693.834 221.397c3.956-3.288 9.827-2.745 13.116 1.208l9.299 11.187c3.29 3.956 2.748 9.824-1.207 13.114l-15.465 8.82c-3.953 3.29-9.827 2.748-13.113-1.208l-5.331-6.409c-3.29-3.956-2.75-9.828 1.205-13.116l11.496-13.596" fill="#e43439"/><path d="M700.164 227.28a1.895 1.895 0 012.681-.072c.763.718.795 1.92.076 2.68l-15.555 16.436a1.895 1.895 0 01-2.682.072 1.892 1.892 0 01-.074-2.68l15.554-16.436" fill="#f46b4b"/><path d="M705.244 221.314a2.813 2.813 0 013.962.367l8.366 10.063a2.812 2.812 0 01-.364 3.961 2.81 2.81 0 01-3.962-.365l-8.368-10.063a2.816 2.816 0 01.366-3.963" fill="#559949"/><path d="M717.552 221.19a1.585 1.585 0 012.228.207c.56.67.466 1.67-.204 2.227l-5.784 4.81a1.581 1.581 0 01-2.226-.206 1.578 1.578 0 01.202-2.227l5.784-4.81" fill="#559949"/><path d="M647.716 237.322c-1.574-4.894 1.12-10.14 6.019-11.713l13.849-4.448c4.897-1.575 10.14 1.12 11.714 6.017l2.406 17.64c1.573 4.896-1.122 10.142-6.016 11.715l-7.939 2.55c-4.897 1.574-10.143-1.12-11.715-6.017l-8.318-15.744" fill="#f8c92a"/><path d="M655.535 233.649a1.896 1.896 0 01.933-2.513 1.9 1.9 0 012.518.93l9.434 20.567a1.897 1.897 0 11-3.447 1.583l-9.438-20.567" fill="#fae248"/><path d="M651.9 226.71a2.813 2.813 0 011.82-3.538l12.458-4.004a2.814 2.814 0 011.721 5.357l-12.461 4.001a2.812 2.812 0 01-3.538-1.816" fill="#559949"/><path d="M656.383 215.246a1.584 1.584 0 011.021-1.992 1.584 1.584 0 011.991 1.023l2.301 7.163a1.582 1.582 0 01-3.013.968l-2.3-7.162" fill="#559949"/><path d="M635.285 244.298c-.063-.9-.758-1.704-1.789-2.25-.216-.112-.47-.203-.722-.294-7.18-2.664-14.14-8.326-19.044-16.25-8.783-14.188-8.102-30.859.983-39.396l1.968-1.216a1.661 1.661 0 10-1.748-2.825l-5.505 3.406c-.133.083-.226.197-.328.307-2.745.393-5.386 1.252-7.795 2.742-11.994 7.424-13.872 26.16-4.151 41.863 8.152 13.17 21.873 20.027 33.176 17.472a.305.305 0 00.187-.019c1.065-.113 2.052-.428 2.768-.87 1.257-.679 2.037-1.656 2-2.67" fill="#e9bc27"/><path d="M608.7 188.37s-22.496 32.418 21.501 55.304c0 0-15.481-3.341-25.38-14.061-8.937-9.683-12.838-29.863 3.878-41.243" fill="#e7a711"/><path d="M634.347 246.248c-.672.105-1.355-.674-1.521-1.735-.162-1.064.25-2.01.92-2.115.676-.104 1.356.674 1.52 1.736.165 1.062-.247 2.011-.92 2.114" fill="#734947"/><path d="M627.276 214.104c5.045 3.437 10.206 4.741 14.41 2.537.837-.444 1.15-1.34 1.91-1.837.417-.204 1.047-.188 1.6-.26.29-.046.57-.108.775-.239 4.12-2.668 6.027-7.735 5.6-14.135-.617-8.956-5.984-15.877-11.985-15.473-.858.053-1.629.17-2.35.352a9.054 9.054 0 00-2.49 1.061c-1.427.858-2.858 2.199-4.638 4.264-.058.071-.123.146-.181.215-4.778.505-7.828 2.243-9.963 5.363-3.38 4.976-.107 13.098 7.312 18.152" fill="#e43439"/><path d="M630.369 192.113c.3-.172.509-.49.528-.86.007-.14.15-3.439-1.964-5.62-1.22-1.259-2.898-1.879-4.99-1.837a1.053 1.053 0 00-1.033 1.072 1.056 1.056 0 001.075 1.036c1.481-.03 2.637.373 3.433 1.194 1.458 1.507 1.374 4.022 1.375 4.046a1.053 1.053 0 001.576.969" fill="#734947"/><path d="M622.636 200.228c-.609 2.282-.011 4.422 1.332 4.781 1.345.359 2.93-1.199 3.54-3.479.608-2.281.014-4.421-1.332-4.78-1.345-.36-2.93 1.198-3.54 3.478" fill="#fff"/><path d="M622.994 185.277s5.227-1.87 7.861-6.393c2.632-4.527 1.67-9.995 1.67-9.995s-5.23 1.87-7.863 6.393c-2.63 4.526-1.668 9.995-1.668 9.995" fill="#5f7f29"/><path d="M687.485 278.398c-.796-.418-1.848-.25-2.855.338-.209.125-.42.293-.629.461-6.044 4.703-14.523 7.637-23.841 7.637-16.687 0-30.503-9.352-32.98-21.572v-2.312a1.661 1.661 0 10-3.322 0v6.472c0 .158.05.3.089.44-1.11 2.544-1.772 5.239-1.772 8.075 0 14.103 14.943 25.563 33.41 25.563 15.488 0 28.541-8.059 32.319-19.015a.305.305 0 00.084-.168c.462-.965.714-1.972.714-2.812.084-1.425-.336-2.603-1.217-3.107" fill="#f8c92a"/><path d="M625.937 271.568s15.724 36.189 58.343 10.828c0 0-10.991 11.404-25.315 14.176-12.938 2.506-32.148-4.8-33.028-25.004" fill="#f2ae0d"/><path d="M688.649 280.225c-.264.625-1.285.795-2.275.38-.99-.423-1.577-1.273-1.314-1.897.268-.63 1.286-.798 2.274-.378.991.419 1.582 1.267 1.315 1.895" fill="#734947"/><path d="M694.822 191.884a1.91 1.91 0 01.759 2.597l-2.223 4.06a1.915 1.915 0 01-2.6.759l-22.386-12.267a1.915 1.915 0 01-.76-2.599l2.224-4.057a1.917 1.917 0 012.6-.76l22.386 12.267" fill="#b7e29e"/><path d="M675.326 183.02c5.087 2.788 6.95 9.169 4.163 14.257-2.788 5.088-9.17 6.95-14.256 4.164-5.089-2.787-6.951-9.17-4.165-14.259 2.788-5.086 9.17-6.95 14.258-4.162" fill="#559949"/><path d="M666.917 176.592a7.314 7.314 0 012.899 9.928 7.311 7.311 0 01-9.927 2.897 7.313 7.313 0 017.028-12.825" fill="#559949"/><path d="M682.044 167.086c6.085 3.335 8.314 10.97 4.981 17.054-3.333 6.085-10.968 8.313-17.055 4.978-6.084-3.33-8.312-10.968-4.98-17.052 3.335-6.084 10.968-8.314 17.054-4.98" fill="#559949"/><path d="M672.33 191.17a4.441 4.441 0 11-4.269 7.788 4.441 4.441 0 014.27-7.788m2.633-20.152a4.38 4.38 0 011.737 5.943 4.38 4.38 0 01-5.945 1.735 4.378 4.378 0 114.208-7.678m-8.644 10.096a2.968 2.968 0 011.177 4.027 2.97 2.97 0 01-4.028 1.175 2.966 2.966 0 112.85-5.202m12.775-.273a2.127 2.127 0 11-2.044 3.731 2.127 2.127 0 012.044-3.731" fill="#58b535"/><path d="M640.063 348.241c0 4.819-3.913 8.736-8.74 8.736s-8.741-3.917-8.741-8.736c0-4.83 3.914-8.748 8.741-8.748s8.74 3.919 8.74 8.748" fill="#5e7173"/><path d="M636.834 348.241a5.511 5.511 0 01-11.023 0 5.512 5.512 0 1111.022 0" fill="#b5c6c3"/><path d="M635.334 347.722a4.012 4.012 0 11-8.023-.012 4.012 4.012 0 018.023.012" fill="#91a3a2"/><path d="M633.932 345.806a2.856 2.856 0 01-1.372 3.792 2.859 2.859 0 01-3.79-1.372l-4.018-8.574a2.846 2.846 0 011.371-3.79 2.845 2.845 0 013.791 1.37l4.018 8.574" fill="#91a3a2"/><path d="M720.836 348.241c0 4.819-3.914 8.736-8.742 8.736-4.826 0-8.741-3.917-8.741-8.736 0-4.83 3.915-8.748 8.741-8.748 4.828 0 8.742 3.919 8.742 8.748" fill="#5e7173"/><path d="M717.606 348.241a5.51 5.51 0 01-5.512 5.51 5.51 5.51 0 01-5.51-5.51 5.512 5.512 0 1111.022 0" fill="#b5c6c3"/><path d="M716.106 347.722a4.013 4.013 0 01-8.024 0 4.014 4.014 0 014.012-4.018 4.015 4.015 0 014.012 4.018" fill="#91a3a2"/><path d="M714.704 345.806a2.854 2.854 0 01-1.374 3.792 2.858 2.858 0 01-3.789-1.372l-4.019-8.574a2.847 2.847 0 011.374-3.79 2.845 2.845 0 013.79 1.37l4.018 8.574m-2.444-34.877h-94.204a2.526 2.526 0 01-2.438-1.861l-13.9-50.703a2.53 2.53 0 011.77-3.105 2.534 2.534 0 013.107 1.772l13.389 48.842h90.126l14.751-90.612a2.541 2.541 0 012.072-2.092l25.903-4.417a2.528 2.528 0 01.849 4.984l-24.124 4.115-14.805 90.953a2.53 2.53 0 01-2.496 2.124" fill="#91a3a2"/><path d="M604.155 260.225a2.526 2.526 0 01-.255-5.037l118.33-12.108c1.356-.185 2.627.863 2.77 2.253a2.529 2.529 0 01-2.258 2.771l-118.33 12.106a1.856 1.856 0 01-.257.015m118.33 77.905H620.583a2.525 2.525 0 01-2.527-2.528 2.524 2.524 0 012.527-2.525h98.251l-8.941-23.787a2.523 2.523 0 011.479-3.253c1.292-.505 2.762.164 3.254 1.479l10.226 27.198c.29.779.182 1.644-.29 2.326a2.52 2.52 0 01-2.077 1.09m-113.229-60.921a2.525 2.525 0 01-.273-5.043l109.13-8.485c1.352-.185 2.608.93 2.716 2.319a2.526 2.526 0 01-2.325 2.716L609.376 277.2c-.04.004-.08.008-.12.008m4.942 19.66a2.53 2.53 0 01-.099-5.056l101.013-4.087c1.385-.073 2.572 1.032 2.628 2.421a2.532 2.532 0 01-2.426 2.632l-101.012 4.09h-.104" fill="#91a3a2"/><path d="M631.345 310.929a2.503 2.503 0 01-2.448-2.004l-10.631-52.059a2.507 2.507 0 011.949-2.958 2.508 2.508 0 012.952 1.961l10.63 52.059a2.497 2.497 0 01-2.452 3.001m17.211 0a2.529 2.529 0 01-2.496-2.144l-8.404-54.419a2.529 2.529 0 014.996-.769l8.403 54.419a2.526 2.526 0 01-2.112 2.881c-.132.023-.26.032-.387.032m15.982 0a2.526 2.526 0 01-2.519-2.37l-3.568-56.4a2.525 2.525 0 012.363-2.677c1.377-.172 2.592.96 2.683 2.363l3.567 56.399a2.525 2.525 0 01-2.362 2.68c-.054.005-.107.005-.164.005m16.624 0a2.53 2.53 0 01-2.529-2.528v-58.413a2.528 2.528 0 015.056 0V308.4a2.528 2.528 0 01-2.527 2.528m15.03.001a2.524 2.524 0 01-2.516-2.801l6.746-60.85c.156-1.382 1.428-2.376 2.791-2.237a2.531 2.531 0 012.237 2.793l-6.749 60.844a2.528 2.528 0 01-2.51 2.251" fill="#91a3a2"/><path d="M758.166 210.793a3.946 3.946 0 01-3.313 4.496l-25.304 3.821a3.94 3.94 0 01-4.49-3.312 3.945 3.945 0 013.311-4.496l25.302-3.821a3.943 3.943 0 014.494 3.312m-73.485 8.923c2.517 1.584 5.15 1.929 5.15 1.929s-1.166-2.399-3.531-4.265c2.489-.131 3.966-1.538 3.966-1.538s-2.582-1.541-5.246-1.781c1.008-1.772.464-4.104.464-4.104s-2.483.219-3.888 1.743c-1.066-2.371-3.312-4.266-3.312-4.266s-.93 1.852-.251 4.248c-2.516-1.585-5.15-1.929-5.15-1.929s1.17 2.4 3.537 4.267c-2.494.132-3.972 1.536-3.972 1.536s2.584 1.541 5.25 1.782c-1.01 1.772-.468 4.103-.468 4.103s2.486-.219 3.887-1.743c1.068 2.375 3.315 4.263 3.315 4.263s.929-1.847.249-4.245" fill="#559949"/><path d="M684.218 229.125c-3.146 4.576-11.508 8.879-16.042 5.765-4.534-3.114-3.521-12.465-.376-17.042 3.145-4.582 9.372-5.768 13.906-2.656 4.532 3.114 5.659 9.352 2.512 13.933" fill="#f04420"/><path d="M677.201 217.428a1.158 1.158 0 01-1.513-.626 1.155 1.155 0 01.624-1.514 1.159 1.159 0 11.89 2.14m4.712 8.045a1.483 1.483 0 11-1.138-2.738 1.483 1.483 0 011.138 2.738m-6.634 2.108a1.546 1.546 0 01-1.188-2.855 1.546 1.546 0 111.188 2.855m-4.902-5.133a1.009 1.009 0 11-.773-1.863 1.009 1.009 0 01.773 1.863m.396 10.202a1.476 1.476 0 01-1.134-2.725 1.477 1.477 0 011.134 2.725" fill="#f46b4b"/><path d="M714.368 205.781c-2.538 6.844-11.222 9.933-19.399 6.903-8.176-3.032-12.748-11.035-10.21-17.879 2.537-6.843 11.22-9.933 19.397-6.904 8.177 3.03 12.749 11.036 10.212 17.88" fill="#e43439"/><path d="M706.017 192.426c1.883.575 3.757.024 3.757.024s-.997-1.729-2.794-2.6c1.737-.925 2.673-2.641 2.673-2.641s-1.928-.516-3.817.139c.578-1.884.022-3.76.022-3.76s-1.726.998-2.6 2.798c-.921-1.74-2.64-2.676-2.64-2.676s-.517 1.928.139 3.818c-1.884-.579-3.76-.024-3.76-.024s.999 1.728 2.799 2.601c-1.743.923-2.675 2.641-2.675 2.641s1.927.516 3.816-.138c-.577 1.884-.023 3.758-.023 3.758s1.726-.998 2.6-2.796c.924 1.74 2.64 2.674 2.64 2.674s.518-1.93-.137-3.818" fill="#559949"/><path d="M656.73 149.132c2.901-.662 5.007-2.279 5.007-2.279s-2.52-.87-5.515-.519c1.667-1.852 1.719-3.892 1.719-3.892s-2.916.739-4.97 2.452c-.54-1.965-2.574-3.23-2.574-3.23s-1.601 1.909-1.518 3.982c-2.428-.924-5.357-.674-5.357-.674s.651 1.966 2.826 3.181c-2.9.657-5.004 2.277-5.004 2.277s2.522.868 5.518.516c-1.673 1.855-1.723 3.895-1.723 3.895s2.916-.736 4.973-2.452c.538 1.967 2.57 3.23 2.57 3.23s1.603-1.91 1.516-3.98c2.434.923 5.358.669 5.358.669s-.648-1.96-2.826-3.176" fill="#84cb62"/><path d="M663.055 156.112c1.011 5.462-1.857 14.417-7.266 15.42-5.409 1.005-11.304-6.324-12.316-11.783-1.015-5.464 2.548-10.707 7.955-11.715 5.406-1 10.615 2.614 11.627 8.078" fill="#f46b4b"/><path d="M649.823 152.802a1.159 1.159 0 11-2.142-.886 1.159 1.159 0 012.142.886m9.022 2.356a1.482 1.482 0 11-2.74-1.13 1.48 1.48 0 011.933-.806 1.484 1.484 0 01.807 1.936m-3.202 6.183a1.546 1.546 0 11-2.858-1.18 1.547 1.547 0 112.858 1.18m-7.096-.164a1.008 1.008 0 11-1.863-.772 1.008 1.008 0 011.863.772m7.495 6.936a1.476 1.476 0 01-2.728-1.128 1.477 1.477 0 012.728 1.128" fill="#f8a58f"/><path d="M716.058 173.434q1.225.49 1.938 1.4.74.9.88 2.054.141 1.155-.349 2.381-.512 1.281-1.5 2.028-.97.754-2.27.88-1.273.115-2.666-.442-1.151-.46-2.117-1.278-.94-.828-1.46-1.79-.278-.542-.078-1.044.164-.408.498-.597.36-.201.676-.075.186.075.323.216.145.122.308.36.535.817 1.13 1.378.594.56 1.392.88 1.226.49 2.12.138.896-.353 1.349-1.486.438-1.096.022-1.994-.39-.91-1.541-1.37-.724-.29-1.382-.317-.638-.018-1.426.227-.45.1-.82-.048-.372-.149-.543-.476-.17-.327-.022-.698l2.318-5.794q.208-.52.624-.698.416-.178.954.037l6.184 2.474q1.114.446.742 1.374-.371.929-1.485.483l-4.977-1.99-1.411 3.527q1.214-.29 2.588.26zm11.798 6.637q1.051.766 1.33 1.846.305 1.07-.186 2.295-.676 1.69-2.321 2.195-1.645.505-3.762-.341-1.207-.483-2.173-1.3-.965-.817-1.478-1.798-.278-.542-.078-1.044.164-.408.498-.597.36-.201.676-.075.185.075.304.208.126.115.327.368.572.832 1.166 1.393.594.56 1.43.895 1.226.49 2.013.245.795-.264 1.196-1.266.394-.985-.052-1.701-.42-.728-1.72-1.248l-1.058-.424q-.427-.17-.557-.546-.104-.386.045-.757.156-.39.49-.58.353-.182.78-.01l.742.296q2.545 1.018 3.31-.895.356-.891.01-1.59-.345-.697-1.292-1.076-1.355-.543-3.327-.082-.32.044-.498.06-.17-.005-.356-.079-.316-.126-.446-.501-.104-.386.06-.795.11-.278.278-.427.193-.16.497-.275 1.04-.338 2.266-.278 1.252.048 2.384.501 1.932.773 2.685 2.173.773 1.407.141 2.986-.449 1.07-1.333 1.664-.858.583-1.99.56zm3.134 9.181q-.593-.237-.827-.783-.227-.565.01-1.16.238-.593.784-.827.554-.253 1.148-.015.594.238.82.802.235.546-.003 1.14-.238.595-.791.847-.546.234-1.14-.004zm11.956-5.062q1.226.49 1.939 1.4.739.9.88 2.055.14 1.155-.35 2.38-.512 1.281-1.5 2.028-.97.754-2.27.88-1.273.115-2.666-.442-1.151-.46-2.117-1.278-.94-.828-1.46-1.79-.278-.542-.077-1.043.163-.409.498-.598.36-.2.676-.075.185.075.323.216.144.122.308.36.535.817 1.129 1.378.594.56 1.393.88 1.225.49 2.12.138.895-.353 1.348-1.486.439-1.095.023-1.994-.39-.91-1.542-1.37-.724-.29-1.381-.316-.639-.019-1.426.226-.45.1-.821-.048-.371-.149-.542-.476-.171-.326-.023-.698l2.318-5.793q.208-.52.624-.699.416-.178.955.038l6.183 2.473q1.114.446.743 1.374-.372.929-1.486.483l-4.976-1.99-1.412 3.528q1.215-.29 2.589.26zm7.038 12.725q-2.322-.929-2.864-3.128-.535-2.217.78-5.504 1.308-3.268 3.217-4.486 1.916-1.237 4.237-.308 2.321.928 2.856 3.146.542 2.198-.765 5.467-1.307 3.268-3.224 4.504-1.916 1.237-4.237.309zm.75-1.876q1.263.505 2.299-.416 1.043-.94 2.054-3.465 1.017-2.544.895-3.907-.115-1.381-1.378-1.887-1.263-.505-2.299.416t-2.046 3.447q-1.01 2.525-.903 3.925.115 1.382 1.378 1.887z"/><path d="M472.083 138.632a3.657 3.657 0 01-3.654 3.65H341.57a3.653 3.653 0 01-3.653-3.65V74.257a3.65 3.65 0 013.653-3.653h126.859a3.653 3.653 0 013.654 3.653v64.375" fill="#f04420"/><path d="M449.934 92.273v-1.36a7.764 7.764 0 00-7.764-7.767h-74.343a7.763 7.763 0 00-7.762 7.767v1.36c-7.827 0-14.175 6.344-14.175 14.17 0 7.829 6.348 14.171 14.175 14.171v1.36a7.765 7.765 0 007.762 7.767h74.343c4.29 0 7.764-3.48 7.764-7.767v-1.36c7.83 0 14.176-6.342 14.176-14.17 0-7.827-6.347-14.171-14.176-14.171" fill="#f5f5f5"/><path d="M354.514 79.113a4.031 4.031 0 01-4.039 4.033 4.033 4.033 0 01-4.037-4.033 4.037 4.037 0 014.037-4.039 4.036 4.036 0 014.039 4.039m108.854 0a4.031 4.031 0 01-4.038 4.033 4.033 4.033 0 01-4.038-4.033 4.037 4.037 0 014.038-4.039 4.036 4.036 0 014.038 4.039" fill="#962e1e"/><path d="M350.53 80.937a1.824 1.824 0 01-1.28-3.128l55.07-54.261a1.822 1.822 0 012.575.016l53.87 54.26a1.825 1.825 0 11-2.59 2.572L405.59 27.433l-53.78 52.979a1.823 1.823 0 01-1.281.525" fill="#c8b381"/><path d="M388.907 257.98l-.555 1.556-2.595 7.296a7.139 7.139 0 01-9.117 4.33l-42.033-14.961a7.135 7.135 0 01-4.331-9.116l2.07-5.821 1.08-3.031 55.48 19.747" fill="#b0b0ae"/><path d="M388.907 257.98a7.023 7.023 0 01-.734 1.492 7.146 7.146 0 01-8.384 2.837l-42.03-14.96a7.135 7.135 0 01-4.334-9.116 7.144 7.144 0 013.66-4.057 7.124 7.124 0 015.459-.275l42.033 14.96a7.137 7.137 0 014.33 9.119" fill="#f04420"/><path d="M349.417 243.809c-.37 1.041-2.708 1.156-5.228.259-2.516-.896-4.261-2.463-3.89-3.503.37-1.037 2.71-1.15 5.228-.255 2.518.896 4.26 2.463 3.89 3.499" fill="#fff"/><path d="M388.907 257.98l-.555 1.556-21.83-7.768a1.442 1.442 0 01-.874-1.846.796.796 0 01.092-.188 1.429 1.429 0 011.752-.686l21.73 7.733a7.57 7.57 0 01-.315 1.199" fill="#ce3134"/><path d="M360.696 248.16c-.136.377-.408.621-.61.55l-13.791-4.908c-.2-.073-.256-.433-.122-.812.134-.373.404-.62.607-.548l13.79 4.908c.203.071.26.435.126.81" fill="#fff"/><path d="M392.381 284.72l-2.029-2.103-4.759-4.925a3.56 3.56 0 00-5.033-.086l-.523.503-3.481 3.37c-4.493 3.983-10.601 8.77-14.755 8.77a21.47 21.47 0 01-17.993-9.69c.424-1.013.852-2.437 1.177-4.042.652-3.224.655-5.941.003-6.076-.652-.135-1.71 2.376-2.365 5.597a28.07 28.07 0 00-.296 1.779 29.396 29.396 0 00-.3-1.78c-.655-3.223-1.714-5.73-2.367-5.596-.65.135-.65 2.856.005 6.076.52 2.564 1.294 4.665 1.92 5.356.09 11.655 10.923 21.087 24.284 21.087 10.126 0 23.523-6.551 27.17-14.264.005-.008.005-.019.006-.026a3.557 3.557 0 00-.664-3.95" fill="#f8a58f"/><path d="M349.63 295.413c-.26.493-.867.685-1.36.424a1.003 1.003 0 01-.425-1.36l3.17-6.036a1.005 1.005 0 011.358-.425c.494.257.684.868.423 1.361l-3.167 6.036m10.101 3.885a.995.995 0 11-1.99 0v-8.434a.996.996 0 111.991 0v8.434m9.762.6a.99.99 0 01-.712 1.198.985.985 0 01-1.196-.711l-2.565-10.037a.98.98 0 01.71-1.194.981.981 0 011.198.707l2.565 10.037m10.244-4.656a1.083 1.083 0 01-.31 1.499 1.085 1.085 0 01-1.5-.312l-6.323-9.652a1.083 1.083 0 011.81-1.188l6.323 9.653m7.033-5.908a1.08 1.08 0 01-.313 1.498 1.08 1.08 0 01-1.496-.311l-6.325-9.656a1.084 1.084 0 01.315-1.499 1.083 1.083 0 011.493.315l6.327 9.653m1.259-30.357l2.029-2.101 4.76-4.926a3.556 3.556 0 015.03-.085l.524.504 3.48 3.368c4.496 3.985 10.6 8.77 14.756 8.77a21.475 21.475 0 0017.994-9.687c-.427-1.012-.851-2.438-1.178-4.043-.653-3.225-.656-5.943-.001-6.076.652-.132 1.707 2.375 2.363 5.596.126.62.221 1.21.298 1.78.079-.57.174-1.16.302-1.78.65-3.224 1.71-5.728 2.366-5.596.65.133.65 2.856-.008 6.076-.52 2.561-1.294 4.665-1.922 5.355-.087 11.654-10.92 21.088-24.279 21.088-10.13 0-23.524-6.552-27.17-14.266-.006-.008-.006-.017-.007-.025a3.555 3.555 0 01.664-3.952" fill="#f46b4b"/><path d="M430.783 269.672a1 1 0 001.358.422.997.997 0 00.423-1.357l-3.167-6.039a1.01 1.01 0 00-1.361-.424 1.005 1.005 0 00-.421 1.362l3.168 6.036m-10.104 3.884c0 .552.444.998.993.998a1 1 0 001-.998v-8.434a.998.998 0 00-1-.996.994.994 0 00-.993.996v8.434m-9.759.601a.984.984 0 101.904.488l2.568-10.039a.981.981 0 00-.712-1.193.98.98 0 00-1.196.705l-2.564 10.039m-10.248-4.656a1.082 1.082 0 101.809 1.187l6.326-9.654a1.085 1.085 0 00-.311-1.498 1.086 1.086 0 00-1.499.313l-6.325 9.652m-7.035-5.911a1.084 1.084 0 00.316 1.499c.5.33 1.17.19 1.498-.31l6.325-9.655a1.084 1.084 0 00-.315-1.499 1.085 1.085 0 00-1.497.316l-6.327 9.65" fill="#f04420"/><path d="M436.973 215.137c.963 5.913-3.318 11.528-9.562 12.543-6.242 1.014-12.083-2.955-13.043-8.87-.961-5.91 3.319-11.526 9.563-12.541 6.241-1.015 12.082 2.956 13.042 8.868" fill="#e18a16"/><path d="M450.947 201.104l.504-2.336a3.062 3.062 0 00-5.986-1.288l-.892 4.142-13.528 8.74a3.025 3.025 0 00-.898 4.178 3.03 3.03 0 004.178.898l13.526-8.741 4.145.892a3.064 3.064 0 003.636-2.35 3.061 3.061 0 00-2.35-3.634l-2.335-.501" fill="#f8c92a"/><path d="M444.488 228.248c1.908 11.736-11.736 23.722-30.476 26.765-18.735 3.048-35.473-4.001-37.381-15.737-1.91-11.74 11.734-23.726 30.474-26.771 18.738-3.044 35.476 4.003 37.383 15.743" fill="#e99d12"/><path d="M438.564 233.312c.961 5.912-3.32 11.529-9.56 12.544-6.243 1.016-12.08-2.959-13.044-8.87-.957-5.913 3.324-11.526 9.563-12.54 6.242-1.014 12.081 2.954 13.041 8.866" fill="#e18a16"/><path d="M452.541 219.278l.502-2.334a3.06 3.06 0 10-5.984-1.285l-.894 4.142-13.525 8.739a3.016 3.016 0 00-.9 4.173 3.01 3.01 0 004.172.899l13.53-8.738 4.143.89a3.06 3.06 0 001.291-5.984l-2.335-.502" fill="#f8c92a"/><path d="M350.45 222.542a2.662 2.662 0 01-2.746 2.578l-14.207-.44-2.725 2.557a2.692 2.692 0 01-3.817-.125 2.605 2.605 0 01-.647-2.451c.11.43.324.832.647 1.176a2.694 2.694 0 003.817.128l2.725-2.561 14.207.441a2.66 2.66 0 002.667-2.01c.058.225.089.46.078.707" fill="#cdccca"/><path d="M350.37 221.836a2.66 2.66 0 01-2.666 2.009l-14.207-.441-2.725 2.561a2.694 2.694 0 01-3.817-.128 2.675 2.675 0 01-.647-1.176c.02-.119.057-.237.11-.355.126-.372.351-.714.654-1l1.541-1.452-.637-.676-.344-.362-.46-.491a2.697 2.697 0 01-.657-2.49c.029-.118.069-.227.106-.342.139-.363.364-.696.667-.981a2.692 2.692 0 013.816.116l2.57 2.726 14.195.442a2.687 2.687 0 012.396 1.677c.048.117.078.236.106.363" fill="#e9e8e7"/><path d="M376.13 234.445c-.589.157-1.177.304-1.795.423-2.244.469-4.658.714-7.166.714-12.326 0-22.326-6.05-22.326-13.512 0-.501.049-.99.136-1.47 1.205-6.764 10.688-12.042 22.19-12.042 1.706 0 3.363.119 4.951.334h.008c.572.078 1.13.166 1.679.276.008-.011.018 0 .029.009 2.841 1.207 5.335 6.04 5.97 12.032.05.43.08.861.098 1.283.333 5.717-1.224 10.54-3.773 11.953" fill="#ce3c22"/><path d="M379.904 222.492c-.252 4.373-1.675 7.836-3.773 9.001-.59.159-1.178.304-1.796.424-2.244.47-4.658.715-7.166.715-11.502 0-20.974-5.267-22.19-12.032 1.205-6.764 10.688-12.042 22.19-12.042 1.706 0 3.363.119 4.951.334h.008c.572.078 1.13.166 1.679.276.008-.011.018 0 .029.009 2.841 1.207 5.335 6.04 5.97 12.032.05.43.08.861.098 1.283" fill="#df4120"/><path d="M376.132 234.442a3.286 3.286 0 01-1.264.411c-.175.02-.353.02-.532.012-3.301-.217-6.432-5.53-7.145-12.327-.754-7.157 1.46-13.266 4.93-13.649h.01c.57-.059 1.13.04 1.678.275.011-.01.018 0 .032.009 2.842 1.205 5.331 6.041 5.971 12.03.655 6.269-.943 11.718-3.68 13.24" fill="#f04420"/><path d="M374.932 225.333a.888.888 0 01-.493.115c-.912-.059-1.772-1.523-1.971-3.391-.207-1.973.403-3.652 1.357-3.757h.003a.894.894 0 01.461.074c.004-.004.007 0 .011.004.78.33 1.468 1.66 1.644 3.311.179 1.724-.261 3.225-1.012 3.644" fill="#f5f5f5"/><path d="M437.401 274.444c-.113-.37-1.624-5.951-1.892-6.258-2.134-2.452-7.649 2.328-14.937 4.819-15.447 5.28-10.047 11.825-17.072 12.452-6.555.584-16.683 1.7-18.036 6.968l1.892 6.257c1.185 3.919 12.79 3.874 25.924-.098 29.45-8.904 24.788-21.927 24.121-24.14" fill="#e43439"/><path d="M435.51 268.186c-1-3.301-8.629-4.241-16.829-1.436-15.448 5.278-10.05 11.823-17.073 12.448-7.833.699-18.167 6.54-16.144 13.227 1.185 3.919 12.79 3.875 25.925-.097 29.448-8.906 24.79-21.926 24.12-24.142" fill="#dd343b"/><path d="M435.024 269.734c-.848-2.808-7.63-4.68-15.56-2.006-14.935 5.032-10.457 11.796-17.195 12.56-7.509.85-17.57 6.204-15.853 11.89 1.008 3.33 12.103 2.923 24.784-.913 28.433-8.597 24.396-19.647 23.824-21.53" fill="#f04420"/><path d="M427.232 272.586c.387 1.27-1.89 3.079-5.076 4.042-3.19.964-6.081.718-6.465-.551-.383-1.267 1.889-3.075 5.077-4.039 3.185-.964 6.081-.718 6.464.548" fill="#c03034"/><path d="M425.99 272.888c.233.769-1.618 2.006-4.129 2.768-2.514.76-4.737.753-4.968-.018-.233-.77 1.612-2.006 4.126-2.768 2.51-.758 4.736-.753 4.97.018" fill="#fbc3b8"/><path d="M396.356 170.728a9.53 9.53 0 01-9.53 9.53H374.3c-5.263 0-9.531-4.268-9.531-9.53 0-5.263 4.268-9.531 9.53-9.531h12.529c5.264 0 9.529 4.268 9.529 9.53" fill="#f25432"/><path d="M379.297 170.728c0 5.209 4.223 9.434 9.434 9.434 5.21 0 9.434-4.225 9.434-9.434 0-5.21-4.224-9.435-9.434-9.435-5.211 0-9.434 4.225-9.434 9.435" fill="#f8a58f"/><path d="M393.61 168.29a2.44 2.44 0 11-4.88-.004 2.44 2.44 0 014.88.004m-4.88 6.675a.907.907 0 11-1.813 0 .91.91 0 01.908-.91c.5 0 .906.409.906.91m-2.746-4.872a1.805 1.805 0 01-3.608 0 1.803 1.803 0 013.608 0m7.739 5.24a1.278 1.278 0 11-2.555.002 1.278 1.278 0 012.555-.002" fill="#f46b4b"/><path d="M389.245 198.628a8.85 8.85 0 0011.606 4.68l33.072-14.062c4.496-1.912 6.589-7.109 4.678-11.604-1.91-4.496-7.106-6.589-11.601-4.678l-33.073 14.061a8.85 8.85 0 00-4.682 11.603" fill="#ce3c22"/><path d="M403.82 192.43a8.755 8.755 0 01-4.635 11.486 8.754 8.754 0 01-11.482-4.632 8.758 8.758 0 1116.117-6.853" fill="#f04420"/><path d="M397.297 199.476a.844.844 0 101.552-.662.844.844 0 00-1.552.662m2.727-4.551a.844.844 0 001.552-.66.843.843 0 00-1.552.66m-5.004-.805a.845.845 0 001.555-.66.842.842 0 00-1.108-.444.84.84 0 00-.447 1.104m-2.761 7.276a.847.847 0 001.106.446.845.845 0 00.446-1.105.843.843 0 00-1.552.659m-.546-3.438a.844.844 0 001.552-.66.843.843 0 00-1.552.66m-1.126-4.805a.843.843 0 101.55-.664.843.843 0 00-1.55.664m5.72-2.431a.846.846 0 001.105.443.842.842 0 10-.657-1.55.845.845 0 00-.448 1.107m-7.843 6.134a.842.842 0 101.55-.659.843.843 0 10-1.55.659" fill="#fff"/><path d="M414.837 231.214c1.276 1.723.96 4.067-.662 5.216-1.62 1.146-3.894.72-5.115-.928-4.245-5.718-8.804-11.226-13.599-16.524-1.377-1.529-1.346-3.848.107-5.204 1.444-1.357 3.804-1.204 5.232.374 4.94 5.46 9.64 11.14 14.037 17.066" fill="#f46b4b"/><path d="M370.793 203.564c-1.885-1.25-2.393-3.692-1.173-5.352 1.213-1.664 3.564-2.027 5.305-.874 6.074 4.023 12.587 7.514 19.272 10.635 1.928.895 2.839 3.121 2.014 5.008-.831 1.89-3.148 2.703-5.163 1.767-6.961-3.247-13.772-6.887-20.255-11.184" fill="#f46b4b"/><path d="M346.933 182.637c-.441-1.339-.258-2.767.363-3.707a2.87 2.87 0 012.625-1.341c2.042.247 3.636 1.376 4.111 2.71.844 2.557 2.997 5.189 5.503 7.473 2.536 2.292 5.46 4.348 8.534 6.196 1.764 1.069 2.464 3.333 1.492 5.156-.976 1.817-3.386 2.424-5.352 1.242-3.369-2.028-6.654-4.316-9.705-7.069-2.993-2.79-5.967-6.039-7.57-10.66" fill="#f46b4b"/><path d="M365.621 348.24c0 4.82-3.91 8.737-8.736 8.737-4.829 0-8.745-3.917-8.745-8.737 0-4.828 3.916-8.747 8.745-8.747 4.826 0 8.736 3.919 8.736 8.747" fill="#5e7173"/><path d="M362.395 348.24a5.511 5.511 0 01-11.023 0 5.511 5.511 0 1111.023 0" fill="#b5c6c3"/><path d="M360.893 347.721a4.013 4.013 0 11-4.012-4.019c2.219 0 4.012 1.8 4.012 4.019" fill="#91a3a2"/><path d="M359.49 345.806a2.853 2.853 0 01-1.37 3.791 2.856 2.856 0 01-3.79-1.372l-4.018-8.575a2.847 2.847 0 011.37-3.789 2.845 2.845 0 013.791 1.372l4.018 8.573" fill="#91a3a2"/><path d="M446.396 348.24c0 4.82-3.913 8.737-8.74 8.737-4.83 0-8.744-3.917-8.744-8.737 0-4.828 3.915-8.747 8.744-8.747 4.827 0 8.74 3.919 8.74 8.747" fill="#5e7173"/><path d="M443.167 348.24a5.512 5.512 0 01-11.023 0 5.511 5.511 0 1111.023 0" fill="#b5c6c3"/><path d="M441.667 347.721a4.012 4.012 0 11-8.024-.01 4.012 4.012 0 018.024.01" fill="#91a3a2"/><path d="M440.263 345.806a2.852 2.852 0 01-1.372 3.791 2.86 2.86 0 01-3.791-1.372l-4.017-8.575a2.847 2.847 0 011.372-3.789 2.845 2.845 0 013.79 1.372l4.018 8.573m-2.444-34.878h-94.204a2.528 2.528 0 01-2.439-1.862l-13.899-50.701a2.53 2.53 0 011.771-3.105 2.533 2.533 0 013.107 1.772l13.389 48.842h90.127l14.75-90.612a2.54 2.54 0 012.071-2.092l25.903-4.417a2.527 2.527 0 01.85 4.983l-24.125 4.114-14.805 90.955a2.527 2.527 0 01-2.496 2.123" fill="#91a3a2"/><path d="M329.715 260.225a2.525 2.525 0 01-.255-5.037l118.327-12.107c1.357-.185 2.628.861 2.773 2.252a2.528 2.528 0 01-2.26 2.77L329.972 260.21a1.852 1.852 0 01-.257.016m118.329 77.904H346.141a2.525 2.525 0 01-2.526-2.526 2.525 2.525 0 012.526-2.528h98.254l-8.943-23.786a2.524 2.524 0 011.479-3.253c1.293-.507 2.762.164 3.254 1.479l10.226 27.198c.29.778.182 1.644-.29 2.326a2.517 2.517 0 01-2.077 1.09m-113.228-60.921a2.526 2.526 0 01-.273-5.043l109.13-8.485c1.351-.185 2.608.93 2.715 2.319a2.526 2.526 0 01-2.324 2.714L334.936 277.2c-.041.004-.081.009-.12.009m4.94 19.659a2.53 2.53 0 01-.096-5.058l101.012-4.086c1.385-.072 2.57 1.032 2.625 2.422a2.527 2.527 0 01-2.422 2.631l-101.014 4.09h-.105" fill="#91a3a2"/><path d="M356.904 310.928a2.502 2.502 0 01-2.448-2.004l-10.63-52.058a2.508 2.508 0 011.949-2.958 2.506 2.506 0 012.952 1.961l10.63 52.057a2.499 2.499 0 01-2.453 3.002m17.212 0a2.527 2.527 0 01-2.496-2.142l-8.404-54.42a2.527 2.527 0 014.995-.77l8.404 54.42a2.526 2.526 0 01-2.499 2.912m15.983 0a2.523 2.523 0 01-2.519-2.37l-3.57-56.398a2.525 2.525 0 012.362-2.678c1.379-.173 2.593.96 2.685 2.362l3.564 56.398a2.524 2.524 0 01-2.36 2.682c-.053.004-.106.004-.162.004m16.624 0a2.53 2.53 0 01-2.531-2.527v-58.415a2.53 2.53 0 012.53-2.526 2.526 2.526 0 012.526 2.526v58.415a2.526 2.526 0 01-2.525 2.527m15.027 0a2.525 2.525 0 01-2.516-2.8l6.747-60.85c.156-1.382 1.428-2.376 2.792-2.237a2.53 2.53 0 012.236 2.792l-6.748 60.845a2.528 2.528 0 01-2.51 2.25" fill="#91a3a2"/><path d="M483.728 210.793a3.951 3.951 0 01-3.317 4.496l-25.302 3.821a3.942 3.942 0 01-4.492-3.312 3.945 3.945 0 013.312-4.496l25.302-3.821a3.944 3.944 0 014.497 3.312" fill="#559949"/></svg>