<svg width="274.339" height="363.685" version="1.2" xmlns="http://www.w3.org/2000/svg"><path d="M223.213 343.424c4.182-.977 6.71-5.466 5.64-10.086-1.07-4.622-5.328-7.597-9.515-6.645l-5.192 1.18a7.095 7.095 0 00-2.785 1.318c-.288-1.217-.635-2.56-.988-3.677 4.305-2.707 8.06-6.286 8.008-11.09-.09-8.358-3.486-10.816-9.129-11.985-4.862-1.007-9.84.196-14.703-.119-4.412-.372-4.741-.45-6.11-3.834-2.008-4.885-4.623-9.576-7.039-14.29l.657-.175-2.664-5.668-1.918.502-9.028-26.246c1.408-1.016 2.626-2.12 3.621-3.302-3.964-8.316-7.652-16.849-10.015-25.77.261-5.282.552-11.732.39-18.25 5.188 2.579 11.48 5.068 18.592 6.625 20.27 4.438 48.459-.561 70.283-30.074a11.339 11.339 0 001.996-4.49c1.32-.787 2.437-1.862 3.329-3.131 3.063.875 6.3 1.132 8.863-.45 2.856-1.77.222-6.296-2.633-4.503-1.055.664-2.575.609-4.133.25.285-1.157.426-2.344.442-3.536a20.586 20.586 0 013.37-1.613c1.66-.457 3.314-.976 4.981-1.488 3.15-.965 1.848-5.695-1.36-4.922-1.75.418-3.549.934-5.296 1.59-.945.255-1.9.47-2.863.644-.16-.355-.344-.699-.543-1.039 3.047-2.332 5.793-5.312 7.633-7.148 2.344-2.344-1.145-5.723-3.602-3.598-2.636 2.285-5.574 4.4-7.75 6.992a13.044 13.044 0 00-2-.992c1.278-3.133 2.242-6.449 3.527-9.137 1.398-2.914-2.695-5.414-4.379-2.558-1.043 1.77-3.413 5.13-5.064 8.61-2.45-7.258-5.016-15.211-7.602-23.464a61.335 61.335 0 004.436-8.72c9.817 1.073 18.772-5.779 20.297-15.621 2.132-13.758-9.326-20.596-17.393-21.229a56.775 56.775 0 00-11.185-22.418l9.527-1.986c1.225-35.505-35.463-52.624-76.113-52.879-42.25-.265-88.773 17.69-101.469 52.143-.393.587-.774 1.187-1.16 1.783-.637.02-1.238.124-1.774.343-1.914.797-2.804 2.27-3.066 3.958-1.918 2.29-2.998 5.165-2.47 8.167-17.112 32.307-25.688 72.172-28.128 101.41.722.356 1.437.688 2.157 1.036.036.282.108.571.25.867 1.28 2.687 2.25 6.004 3.523 9.137-.692.273-1.36.605-1.996.992-2.175-2.594-5.117-4.707-7.754-6.992-2.453-2.125-5.94 1.253-3.598 3.601 1.84 1.836 4.586 4.813 7.63 7.149-.197.336-.38.685-.54 1.035a34.067 34.067 0 01-2.863-.64c-1.75-.66-3.547-1.173-5.297-1.595-3.208-.774-4.507 3.961-1.357 4.926 1.667.508 3.318 1.03 4.978 1.485a20.74 20.74 0 013.371 1.613 15.4 15.4 0 00.442 3.535c-1.558.36-3.077.418-4.135-.25-2.856-1.793-5.486 2.737-2.631 4.502 2.563 1.587 5.8 1.33 8.863.451 1.076 1.535 2.577 2.631 4.975 4.24 5.197 3.485 9.78 6 14.715 7.713-.135.418-.263.836-.37 1.262-.276 1.101.234 2.055 1.024 2.566.117.391.316.746.61 1.024 3.187 3.03 6.229.73 8.372-2.416 18.611 2.478 34.157-1.917 48.538-9.253a131.627 131.627 0 00-2.036 7.497c-.434.406-1.196 1.128-3.076 2.807-6.767 6.034-20.747 17.841-26.607 17.841 4.614 3.54 9.3 6.61 13.996 9.258a112.068 112.068 0 0010.45 5.205c-.3 4.771-.89 10.043-2.11 13.668-.494 1.467-.89 2.008-1.256 2.604-.849-.361-2.361-1.067-4.494-2.526l.883-2.127-4-3.667c-.212.246-.532.808-1.039 1.508-2.7-2.481-6.024-4.407-8.86-6.243-5.656-3.677-11.526-7.022-19.588-10.866-4.528-2.16-7.378-3.317-10.485-2.99-2.726.287-4.567 1.633-6.204 3.132l-4.268-1.954c1.984-.602 3.671-1.92 4.596-3.826.41-.848 1.917-3.95 2.324-4.793 1.67-3.432.739-7.967-4.098-10.488-4.838-2.521-9.623-.918-11.644 3.525-.721 1.586-1.723 3.623-2.063 4.319-1.426 2.939-.634 6.411 1.707 8.81l-.755 1.653c-1.114.461-1.954 1.395-2.6 2.244-2.626.34-4.772 1.52-6.175 4.611-.714 1.573-1.722 3.633-2.892 6.25-1.41 3.154-2.406 5.193-2.745 5.889-1.19 2.45-.836 5.273.67 7.535-.845 1.605-1.61 3.161-1.245 5.103-3.056.02-5.465.947-7.253 4.692l-2.063 4.318c-1.849 3.87.074 8.654 4.348 10.707 4.272 2.052 9.257.586 11.132-3.273.406-.844 1.919-3.946 2.325-4.793.467-.961.697-1.98.712-3 1.131.536 2.393 1.106 3.489 1.529-.856 6.071-.06 9.554 3.65 13.19 4.596 4.506 10.487 4.336 15.059.363 3.75-3.258 6-7.8 9.285-11.402.667-.74 2.38-2.075 3.891-3.363 1.353.383 1.906.694 2.917.991 5.29 1.554 10.82 2.444 16.22 3.565l-.684 1.724 5 2.333.425-1.026c6.039 3.463 12.112 5.042 18.705 4.15 6.055-.818 11.341-4.285 14.667-8.15 3.325-3.864 5.21-8.038 6.585-12.125 1.618-4.808 2.589-9.764 3.172-14.377 5.902.823 11.834 1.344 17.328.967l8.788 25.543-1.334.35 2 5.667c.114-.002.623-.115 1.154-.234-.098 3.932.378 7.621.713 10.918.67 6.713 1.727 13.385 3.77 22.08 1.239 5.277 2.418 8.538 4.605 10.444 1.657 1.442 3.744 2.157 5.937 2.496l1.143 4.548c-1.71-1.171-3.794-1.663-5.861-1.193l-5.192 1.18c-2.944.67-5.058 3.105-5.682 6.1-.646-.001-1.274-.007-1.923-.007-56.332 0-102 2.46-102 5.5s45.668 5.5 102 5.5 102-2.46 102-5.5c0-2.055-20.922-3.845-51.864-4.789 1.61-.964 2.81-2.532 3.403-4.394 1.781-.351 3.936-.934 4.754-2.231 1.925 2.382 4.656 3.571 8.223 2.737zm9.873-175.07c-14.905 19.136-31.104 24.223-44.291 21.968 20.838-6.532 35.577-16.015 46.507-24.605-.88 1.067-1.604 1.808-2.216 2.637zM39.884 177.57c3.264 1.46 6.495 2.83 9.699 4.123-.32.397-.517.898-.49 1.504.027.637.115 2.515-.201 3.985-1.695-2.036-3.887-3.345-6.254-3.893-.655-1.92-1.693-3.904-2.754-5.719zm23.263 18.139c-.464-1.465-1.097-2.83-1.955-4.012-.547-.763-1.406-1.28-2.345-1.297-2.213-.04-2.851 1.41-2.924 3.088a36.574 36.574 0 01-2.688-1.287c1.073-2.712 1.526-7.228 1.006-8.68 11.192 4.284 21.998 7.565 32.4 9.989-7.594 2.506-15.575 3.735-23.494 2.199z" fill="none" stroke-width="2" stroke-linejoin="round" stroke="#000" stroke-opacity=".5"/><path d="M254.057 353.185c0 3.04-45.668 5.5-102 5.5s-102-2.46-102-5.5 45.668-5.5 102-5.5 102 2.46 102 5.5" fill="#ccc"/><path d="M147.502 230.932l24.122 70.132m-57.239-61.57s4.34 69.57-37.304 28.43" fill="none" stroke="#facfc2" stroke-width="25.5"/><path d="M68.627 53.818c-24.378 34.246-35.984 84.16-38.89 118.989 114.344 56.3 193.863 8.707 217.082-18.575-14.512-42.37-34.246-113.761-34.246-113.761" fill="#422e21"/><path d="M69.745 53.717c-12.426 41.644-17.403 85.492-16.84 129.285 9.894 3.847 19.488 6.91 28.773 9.289-5.289-46.75-7.683-94.82 3.633-140.02zm142.828-13.246l-23.985 2.222c13.403 41.781 27.883 83.27 45.477 123.637 5.281-4.203 9.559-8.34 12.754-12.098-14.512-42.37-34.246-113.761-34.246-113.761zm-65.141 6.039c9.938 49.011 23.156 97.468 38.406 144.754 10.73-3.34 20.297-7.516 28.633-12.047-14.215-45.282-31.57-89.328-44.539-134.793zm-48.426 4.492c-5.59 48.844 1.27 98.46 11.856 146.73 12.265 1.418 23.86 1.637 34.73.926-10.398-49.348-18.722-99.422-21.683-149.965z" fill="#3a2317"/><path d="M154.202 186.709s48.691 41.543 88-11.613" fill="none" stroke="#facfc2" stroke-width="22.677" stroke-linecap="round"/><path d="M156.327 203.139c-7.453 0-13.493-6.04-13.493-13.493s6.04-13.492 13.493-13.492 13.496 6.04 13.496 13.492c0 7.453-6.043 13.493-13.496 13.493z" fill="#f0683d"/><path d="M127.291 177.795c-5.78 4.215-15.175 14.676-21.035 39.898 19.313 18.211 49.72 12.371 55.797 5.844.555-11.18 1.301-27.574-2.59-38.836-6.686 5.583-19.156 4.899-24.375 1.164-2.7-1.932-6.109-4.766-7.797-8.07z" fill="#f59c33"/><path d="M127.291 177.791c1.684 3.312 5.204 6 7.797 8.074 6.094 4.356 13.059 2.613 19.153.871a22.268 22.268 0 005.222-2.039c-3.644-10.547-11.355-16.59-27.097-9.61 0 0-2.04.489-5.075 2.704z" fill="#f0683d"/><path d="M162.054 223.537c-29.688 2.402-50.075-4.469-54.727-7.902 0 0-1.477 1.39-3.797 3.464 17.176 9.961 39.789 13 59.254 7.063-.496-1.676-.73-2.625-.73-2.625z" fill="#f085b0"/><path d="M103.53 219.096c-6.767 6.035-20.746 17.843-26.606 17.843 4.614 3.54 9.3 6.61 13.996 9.258a452.007 452.007 0 0016.527-25 68.268 68.268 0 01-3.918-2.101zm13.577 6.074c-3.52 9.512-6.54 19.12-10.62 28.312a105.074 105.074 0 0013.464 4.07c2.117-10.026 4.621-19.894 7.301-29.765a78.055 78.055 0 01-10.145-2.617zm37.067 2.996a72.51 72.51 0 01-5.301.684c1.992 9.738 4.253 19.456 6.25 29.43 2.964-.7 5.671-1.602 8.078-2.684-3.094-9.02-6.148-18.188-9.027-27.43zm-20.297.59c-.98 10.234-1.8 20.473-2.402 30.71 3.86.392 7.57.516 11.093.403-1.238-10.039-1.195-20.401-1.035-30.7a78.34 78.34 0 01-7.656-.413z" fill="#eb598f"/><path d="M107.447 221.197a453.483 453.483 0 01-16.527 25 112.07 112.07 0 0015.566 7.282c4.078-9.187 7.106-18.797 10.621-28.305a74.725 74.725 0 01-9.66-3.977zm55.336 4.965a66.355 66.355 0 01-8.61 2.004c2.88 9.242 5.934 18.41 9.028 27.43 3.765-1.688 6.79-3.82 8.867-6.29-5.117-10.078-8.04-18.925-9.285-23.144zm-35.531 1.625c-2.68 9.871-5.188 19.738-7.3 29.766 3.944.906 7.8 1.53 11.523 1.914.602-10.24 1.422-20.477 2.402-30.711a80.297 80.297 0 01-6.625-.969zm21.621 1.063a75.406 75.406 0 01-7.34.32c-.16 10.297-.203 20.66 1.035 30.7 4.54-.149 8.754-.704 12.555-1.595-1.997-9.968-4.254-19.686-6.25-29.425z" fill="#d75182"/><path d="M241.92 119.06c-10.1-1.517-17.063-10.941-15.546-21.043 1.518-10.11 10.94-17.068 21.046-15.55 10.106 1.518 17.067 10.941 15.547 21.047-1.52 10.101-10.94 17.064-21.047 15.546zm-99.156 63.579c-8.344-1.25-14.004-9.598-12.644-18.645 1.359-9.043 9.222-15.36 17.562-14.105 8.34 1.25 14.004 9.601 12.645 18.644-1.36 9.043-9.223 15.36-17.563 14.106z" fill="#f8bfba"/><path d="M163.934 27.012c-37.631.095-75.863 25.322-90.371 60.273-2.268 5.462-3.89 10.597-4.65 16.072a51.439 51.439 0 00-.466 6.026c-9.358-.44-17.72 6.263-19.144 15.736-1.52 10.102 5.442 19.523 15.543 21.043a18.443 18.443 0 0013.636-3.344 59.765 59.765 0 006.563 8.227c18.98 19.819 48.65 24.131 74.75 20.887 27.012-3.358 54.899-15.29 72.816-36.313 18.41-21.602 19.998-53.513 1.707-75.844-12.315-15.036-31.132-25.189-49.695-30.132-6.773-1.804-13.72-2.649-20.69-2.631z" fill="#facfc2"/><path d="M130.334 127.826c-12.128-1.822-20.478-13.129-18.656-25.254 1.822-12.125 13.13-20.476 25.254-18.656 12.125 1.82 20.478 13.13 18.656 25.254-1.823 12.125-13.132 20.478-25.254 18.656zm77.922-14.703c-12.125-1.822-20.474-13.129-18.652-25.254 1.822-12.125 13.125-20.478 25.25-18.656 12.125 1.822 20.477 13.129 18.656 25.254-1.82 12.125-13.13 20.478-25.254 18.656z" fill="#fff"/><path d="M135.385 124.096c-9.703-1.457-16.383-10.504-14.926-20.204 1.457-9.699 10.5-16.382 20.204-14.925 9.7 1.457 16.383 10.504 14.925 20.203-1.459 9.7-10.504 16.383-20.203 14.926zm77.922-14.704c-9.7-1.457-16.383-10.503-14.926-20.203 1.457-9.703 10.504-16.382 20.203-14.925 9.7 1.457 16.383 10.5 14.926 20.203-1.457 9.699-10.5 16.382-20.203 14.925z" fill="#3f3f3f"/><path d="M175.893 98.853c.406 2.637.332 5.758 1.223 8.282.687 1.953 1.867 1.785 3.656 2.386 2.734.918 4.047 3.68 4.207 6.407.164 2.82-1.977 5.324-4.695 5.84-2.657.503-7.426-1.16-6.477-4.833m-4.766 16.981c-4.359 14.437-13.718 15.957-13.644.883" fill="none" stroke="#3f3f3f" stroke-width="2.126" stroke-linecap="round" stroke-linejoin="round"/><path d="M243.916 57.88c2.903-84.16-207.21-65.007-178.19 37.15z" fill="#3a2317"/><path d="M86.834 90.627l22.45-4.68c-7.22-19.293-12.688-39.152-19.125-58.625-6.29 4.543-11.766 9.766-16.121 15.652 2.445 16.254 6.937 32.137 12.796 47.653zM230.39 60.701l13.526-2.82c.938-27.223-20.414-43.625-48.746-49.91 16.051 14.839 29.575 32.086 35.22 52.73zm-38.645 8.059l21.234-4.43c-6.957-21.832-19.145-41.684-34.598-58.856-7.23-.585-14.687-.613-22.172-.082 16.844 18.688 31.606 39.809 35.536 63.368zm-52.43 10.93l30.059-6.27c-8.391-23.696-23.903-44.02-40.27-63.63-6.367 1.642-12.555 3.704-18.434 6.18 12.282 20.051 23.434 41.051 28.645 63.72z" fill="#4c3328"/><path d="M72.401 125.213c-3.688 0-6.676-9.227-6.676-20.606 0-11.379 2.988-20.605 6.676-20.605 3.687 0 6.676 9.226 6.676 20.605 0 11.38-2.989 20.606-6.676 20.606z" fill="#3a2317"/><path d="M191.069 333.686c-4.184.951-6.707 5.464-5.637 10.085 1.07 4.621 5.327 7.59 9.512 6.641l5.191-1.176c4.185-.948 6.706-5.469 5.637-10.086-1.07-4.625-5.328-7.595-9.512-6.644z" fill="#f38a35"/><path d="M195.116 350.439c-4.16 1.044-8.472-1.831-9.63-6.433-1.157-4.601 1.278-9.175 5.434-10.223 4.16-1.05 8.472 1.832 9.63 6.43 1.159 4.601-1.274 9.181-5.434 10.226z" fill="#f5b32b"/><path d="M197.323 341.025c.66 2.63-.73 5.244-3.106 5.844-2.375.6-4.838-1.047-5.5-3.676-.662-2.63.727-5.244 3.106-5.844 2.375-.599 4.84 1.047 5.5 3.676z" fill="none" stroke="#3f3f3f" stroke-width="2.022"/><path d="M192.752 345.721l-27.363 6.89c-4.39 1.106-6.067-5.558-1.676-6.664l27.36-6.89a3.436 3.436 0 111.679 6.664z" fill="#babdbd"/><path d="M174.034 325.639c-3.812.96-5.802 6.076-4.457 11.433l1.343 5.348c1.346 5.36 5.531 8.92 9.344 7.96l4.281-1.077c3.813-.96 5.802-6.078 4.457-11.434l-1.343-5.348c-1.345-5.357-5.532-8.92-9.344-7.96z" fill="#a6a6ab"/><path d="M184.721 338.947c1.348 5.356-.644 10.475-4.457 11.434-3.812.958-8-2.604-9.344-7.957l-1.343-5.352c-1.344-5.357.645-10.474 4.457-11.433 3.809-.959 7.993 2.605 9.34 7.957z" fill="#919497"/><path d="M180.143 348.896l-18.086 4.555c-4.442 1.119-6.118-5.545-1.676-6.664l18.082-4.555a3.437 3.437 0 011.68 6.664z" fill="#babdbd"/><path d="M159.663 341.592c-4.184.951-6.708 5.465-5.637 10.09 1.07 4.617 5.328 7.591 9.512 6.64l5.191-1.18c4.184-.951 6.707-5.464 5.637-10.085-1.07-4.622-5.328-7.596-9.512-6.645z" fill="#f38a35"/><path d="M163.709 358.346c-4.16 1.046-8.469-1.832-9.628-6.434-1.158-4.598 1.277-9.176 5.433-10.223 4.16-1.047 8.472 1.832 9.629 6.43 1.159 4.602-1.273 9.18-5.434 10.227z" fill="#f5b32b"/><path d="M165.916 348.932c.66 2.632-.73 5.25-3.105 5.847-2.374.597-4.837-1.048-5.5-3.68-.661-2.626.727-5.243 3.102-5.84 2.378-.598 4.844 1.048 5.503 3.673z" fill="none" stroke="#3f3f3f" stroke-width="2.022"/><path d="M214.147 327.873c-4.184.951-6.704 5.464-5.633 10.086 1.07 4.62 5.324 7.595 9.508 6.644l5.191-1.18c4.188-.952 6.71-5.465 5.641-10.085-1.07-4.622-5.329-7.597-9.516-6.645z" fill="#f38a35"/><path d="M218.194 344.627c-4.156 1.046-8.467-1.833-9.625-6.434-1.158-4.598 1.273-9.175 5.433-10.222 4.157-1.046 8.471 1.832 9.63 6.433 1.157 4.598-1.274 9.175-5.438 10.223z" fill="#f5b32b"/><path d="M217.3 341.057c-2.38.6-4.84-1.047-5.505-3.676-.665-2.63.726-5.245 3.106-5.844 2.374-.597 4.838 1.048 5.5 3.676.662 2.63-.726 5.245-3.101 5.844z" fill="none" stroke="#3f3f3f" stroke-width="2.022"/><path d="M215.831 339.908l-27.36 6.89a3.435 3.435 0 11-1.68-6.663l27.36-6.887a3.435 3.435 0 111.68 6.66z" fill="#babdbd"/><path d="M197.112 319.826c-3.812.96-5.807 6.078-4.457 11.438l1.347 5.347c1.35 5.356 5.531 8.916 9.34 7.957l4.282-1.078c3.811-.96 5.809-6.078 4.46-11.433l-1.347-5.348c-1.35-5.357-5.53-8.921-9.344-7.961z" fill="#a6a6ab"/><path d="M207.8 333.135c1.349 5.355-.645 10.477-4.458 11.437-3.808.958-7.991-2.605-9.34-7.96l-1.347-5.348c-1.35-5.36.648-10.479 4.457-11.438 3.808-.959 7.992 2.606 9.34 7.957z" fill="#919497"/><path d="M203.221 343.084l-18.082 4.555a3.436 3.436 0 01-4.168-2.497 3.432 3.432 0 012.488-4.168l18.082-4.554a3.435 3.435 0 111.68 6.664z" fill="#babdbd"/><path d="M182.741 335.783c-4.183.954-6.707 5.465-5.637 10.082 1.07 4.62 5.327 7.595 9.512 6.645l5.195-1.18c4.18-.95 6.702-5.465 5.633-10.082-1.07-4.625-5.329-7.602-9.512-6.649z" fill="#f38a35"/><path d="M186.788 352.537c-4.156 1.045-8.467-1.833-9.625-6.438-1.157-4.598 1.273-9.175 5.433-10.222 4.16-1.047 8.472 1.831 9.63 6.43 1.158 4.6-1.273 9.182-5.438 10.23z" fill="#f5b32b"/><path d="M188.999 343.123c.662 2.629-.73 5.247-3.106 5.844-2.378.598-4.84-1.047-5.504-3.68-.663-2.625.727-5.24 3.106-5.84 2.379-.6 4.842 1.047 5.504 3.676z" fill="none" stroke="#3f3f3f" stroke-width="2.022"/><path d="M154.663 291.334c.07 11.789 2.304 24.581 4.851 34.913 7.387-.292 14.563-1.538 21.473-3.589-5.344-12.55-11.828-24.863-16.07-38.133-2.833.813-5.672 1.594-8.598 1.926zm39.886 10.984c-1.773-.137-3.152-.434-4.906-.726-.457-.707-.8-2.13-1.203-3.106-2.164-5.265-5.047-10.304-7.61-15.39-.581-1.153-2.214-1.903-4.181-1.217-2.08.361-3.43.553-4.764.834 6.989 11.781 14.469 23.437 21.918 35.105a95.688 95.688 0 003.774-1.828c-2.27-4.117-3.23-8.89-3.028-13.672z" fill="#fdb854"/><path d="M164.916 284.525c4.239 13.266 10.727 25.582 16.07 38.133a95.615 95.615 0 0012.817-4.84c-7.449-11.668-14.93-23.324-21.918-35.105-2.344.472-4.652 1.152-6.969 1.812z" fill="#ffcc23"/><path d="M194.549 302.322c-.203 4.777.758 9.55 3.024 13.672 6.015-3.082 11.754-6.766 17.168-10.945-1.47-1.266-3.328-2.172-5.489-2.61-4.867-.98-9.84.196-14.703-.117z" fill="#f3ab19"/><path d="M163.635 334.56c3.394 2.955 8.582 2.885 12.793 2.547 11.848-.951 24.859-5.257 34.645-12.058 3.807-2.645 6.951-5.82 7.308-10.625.288-3.88-1.09-7.176-3.64-9.375-15.992 12.343-34.82 20.386-55.223 21.199.79 3.137 1.93 6.407 4.117 8.312z" fill="gold"/><path d="M177.916 299.861l-16.18 4.074-2.515-9.992 16.176-4.07zm0 0" fill="#ffcc23" stroke="#f05926" stroke-width="2.126" stroke-linejoin="round"/><path d="M33.413 262.779c1.872-3.853-.079-8.649-4.352-10.703-4.277-2.056-9.26-.59-11.133 3.27l-2.324 4.789c-1.875 3.863.074 8.657 4.348 10.707 4.277 2.051 9.259.585 11.132-3.27z" fill="#f38a35"/><path d="M17.803 255.467c1.78-3.9 6.723-5.465 11.035-3.496 4.317 1.972 6.368 6.734 4.586 10.636-1.78 3.9-6.726 5.465-11.039 3.493-4.312-1.973-6.364-6.731-4.582-10.633z" fill="#f5b32b"/><path d="M23.772 263.072c-2.468-1.128-3.64-3.848-2.621-6.074 1.02-2.23 3.843-3.123 6.308-1.996 2.464 1.127 3.636 3.845 2.618 6.074-1.017 2.228-3.843 3.122-6.305 1.996z" fill="none" stroke="#3f3f3f" stroke-width="2.022"/><path d="M22.963 256.568l11.727-25.66a3.436 3.436 0 116.25 2.856l-11.727 25.664a3.437 3.437 0 01-6.25-2.86z" fill="#babdbd"/><path d="M50.338 254.514c1.632-3.576-1.112-8.334-6.136-10.63l-5.016-2.292c-5.025-2.296-10.421-1.258-12.055 2.316l-1.836 4.016c-1.635 3.577 1.12 8.333 6.141 10.629l5.016 2.293c5.022 2.296 10.422 1.259 12.054-2.317z" fill="#a6a6ab"/><path d="M33.268 254.537c-5.022-2.294-7.77-7.055-6.137-10.629s7.028-4.602 12.051-2.312l5.02 2.289c5.026 2.292 7.769 7.053 6.136 10.629-1.633 3.577-7.026 4.61-12.05 2.316z" fill="#919497"/><path d="M28.37 244.744l7.75-16.96c1.924-4.211 8.17-1.356 6.246 2.855l-7.75 16.96a3.435 3.435 0 01-6.246-2.855z" fill="#babdbd"/><path d="M46.87 233.322c1.87-3.857-.075-8.649-4.348-10.703-4.277-2.056-9.26-.59-11.133 3.27l-2.324 4.789c-1.875 3.863.073 8.654 4.348 10.707 4.272 2.052 9.261.586 11.132-3.27z" fill="#f38a35"/><path d="M31.264 226.01c1.78-3.9 6.724-5.467 11.04-3.496 4.313 1.97 6.364 6.735 4.581 10.636-1.783 3.9-6.726 5.465-11.039 3.492-4.312-1.972-6.364-6.73-4.582-10.632z" fill="#f5b32b"/><path d="M37.229 233.615c-2.465-1.129-3.634-3.847-2.617-6.074 1.018-2.229 3.844-3.124 6.308-1.996 2.46 1.126 3.636 3.845 2.618 6.074-1.017 2.228-3.844 3.125-6.309 1.996z" fill="none" stroke="#3f3f3f" stroke-width="2.022"/><path d="M23.518 284.424c1.87-3.858-.074-8.648-4.348-10.7-4.277-2.053-9.258-.59-11.132 3.27l-2.325 4.79c-1.873 3.859.074 8.653 4.348 10.706 4.272 2.052 9.261.588 11.133-3.273z" fill="#f38a35"/><path d="M7.913 277.115c1.78-3.902 6.722-5.47 11.039-3.496 4.312 1.972 6.367 6.732 4.582 10.637-1.78 3.896-6.725 5.462-11.04 3.488-4.31-1.972-6.362-6.727-4.581-10.629z" fill="#f5b32b"/><path d="M11.26 278.646c1.019-2.233 3.845-3.126 6.305-2 2.466 1.129 3.64 3.849 2.621 6.078-1.018 2.228-3.84 3.126-6.309 1.996-2.464-1.127-3.633-3.846-2.617-6.074z" fill="none" stroke="#3f3f3f" stroke-width="2.022"/><path d="M13.073 278.217l11.726-25.664a3.432 3.432 0 014.551-1.692 3.434 3.434 0 011.695 4.551l-11.722 25.664a3.436 3.436 0 11-6.25-2.859z" fill="#babdbd"/><path d="M40.448 276.158c1.633-3.574-1.116-8.329-6.14-10.625l-5.017-2.293c-5.022-2.295-10.416-1.257-12.05 2.317l-1.836 4.015c-1.634 3.573 1.115 8.332 6.136 10.625l5.02 2.293c5.024 2.295 10.417 1.262 12.05-2.312z" fill="#a6a6ab"/><path d="M23.377 276.182c-5.02-2.292-7.771-7.052-6.136-10.63 1.632-3.57 7.028-4.606 12.05-2.312l5.02 2.293c5.022 2.294 7.77 7.05 6.137 10.629-1.632 3.574-7.026 4.606-12.051 2.312z" fill="#919497"/><path d="M18.475 266.389l7.754-16.961a3.435 3.435 0 116.246 2.859l-7.75 16.96a3.436 3.436 0 01-6.25-2.858z" fill="#babdbd"/><path d="M36.979 254.97c1.872-3.858-.074-8.651-4.348-10.703-4.277-2.053-9.259-.589-11.132 3.266l-2.329 4.793c-1.875 3.858.079 8.65 4.352 10.703 4.274 2.053 9.26.59 11.133-3.27z" fill="#f38a35"/><path d="M21.374 247.658c1.782-3.9 6.722-5.468 11.035-3.496 4.316 1.974 6.367 6.73 4.582 10.633-1.782 3.898-6.721 5.465-11.035 3.492-4.311-1.972-6.366-6.726-4.582-10.629z" fill="#f5b32b"/><path d="M27.338 255.264c-2.465-1.128-3.636-3.848-2.62-6.075 1.02-2.234 3.848-3.126 6.308-2 2.466 1.129 3.64 3.845 2.62 6.078-1.017 2.228-3.844 3.124-6.308 1.997z" fill="none" stroke="#3f3f3f" stroke-width="2.022"/><path d="M89.225 260.838c-9.254-7.307-20.629-13.57-30.289-18.039-4.383 5.953-7.898 12.328-10.621 19.004 13.14 3.675 26.805 6.312 39.812 11.296 1.137-2.718 2.305-5.421 3.872-7.91zm-33.512 24.265c1.165-1.173 2.477-2.196 3.637-3.374.836.085 2.16.706 3.172 1.003 5.469 1.606 11.2 2.5 16.773 3.676 3.387-.261 4.518-4.073 5.891-6.734-13.566-1.91-27.344-3.36-41.105-4.844a104.16 104.16 0 00-.93 4.09c4.633.808 8.961 3.039 12.562 6.183z" fill="#fdb854"/><path d="M88.127 273.1c-13.007-4.989-26.671-7.622-39.808-11.293a95.628 95.628 0 00-4.238 13.023c13.761 1.484 27.539 2.934 41.109 4.84 1.094-2.125 2.008-4.352 2.937-6.57z" fill="#ffcc23"/><path d="M55.713 285.103c-3.601-3.144-7.93-5.375-12.562-6.183-1.356 6.617-2.067 13.398-2.188 20.238 1.907-.355 3.774-1.238 5.465-2.652 3.809-3.188 6-7.801 9.285-11.403z" fill="#f3ab19"/><path d="M49.877 240.822c-4.425.8-7.62 4.895-9.988 8.39-6.665 9.84-11.43 22.692-12.242 34.583-.316 4.625.191 9.062 3.723 12.347 2.847 2.649 6.28 3.637 9.593 3.016.36-20.203 5.852-39.922 17.977-56.36-2.945-1.339-6.211-2.491-9.063-1.976z" fill="gold"/><path d="M68.03 273.654l6.933-15.176 9.371 4.286-6.933 15.175zm0 0" fill="#ffcc23" stroke="#f05926" stroke-width="2.126" stroke-linejoin="round"/><path d="M122.038 186.709s-43.329 37.074-79.063 12.508" fill="none" stroke="#facfc2" stroke-width="22.677" stroke-linecap="round"/><path d="M123.694 199.217c-7.317 0-13.25-5.934-13.25-13.25 0-7.317 5.933-13.25 13.25-13.25 7.316 0 13.25 5.933 13.25 13.25 0 7.316-5.934 13.25-13.25 13.25z" fill="#f0683d"/><path d="M266.174 157.955c-1.75.418-3.55.934-5.297 1.59-.945.255-1.9.47-2.863.644-.16-.355-.344-.699-.543-1.039 3.047-2.332 5.793-5.312 7.633-7.148 2.344-2.344-1.145-5.723-3.602-3.598-2.636 2.285-5.574 4.399-7.75 6.992a13.044 13.044 0 00-2-.992c1.278-3.133 2.243-6.449 3.528-9.137 1.398-2.914-2.696-5.414-4.38-2.558-1.296 2.2-4.66 6.851-6.12 11.14-2.364.547-4.555 1.852-6.25 3.891-.317-1.469-.227-3.348-.2-3.984.122-2.848-4.515-3.535-5.015-.68-.734 4.18-.145 8.543 2.078 12.09-.918 3.773 1.356 7.695 4.68 10.348 1.156 1.156 2.543 2.003 4.14 2.402 1.387.531 2.805.836 4.145.816 3.629-.047 6.433-1.879 8.285-4.515 3.063.875 6.3 1.132 8.863-.45 2.856-1.77.223-6.296-2.632-4.503-1.055.664-2.575.609-4.133.25.285-1.157.425-2.344.441-3.536a20.585 20.585 0 013.371-1.613c1.66-.457 3.313-.976 4.98-1.488 3.15-.965 1.848-5.695-1.359-4.922M26.545 188.99c.95.25 1.899.473 2.864.64.16-.35.343-.698.539-1.034-3.043-2.336-5.79-5.313-7.63-7.149-2.343-2.348 1.145-5.726 3.598-3.601 2.637 2.285 5.579 4.398 7.754 6.992a13.184 13.184 0 011.996-.992c-1.273-3.133-2.242-6.45-3.523-9.137-1.394-2.914 2.695-5.414 4.375-2.559 1.3 2.2 4.66 6.856 6.121 11.14 2.367.548 4.559 1.856 6.254 3.892.316-1.47.227-3.348.2-3.985-.126-2.848 4.515-3.535 5.015-.676.734 4.176.273 8.63-2.078 12.086-3.476 5.11-6.226 13.575-12.969 13.567-3.625-.004-6.43-1.875-8.281-4.516-3.063.879-6.301 1.137-8.864-.45-2.855-1.765-.226-6.296 2.63-4.503 1.058.668 2.578.61 4.136.25a15.398 15.398 0 01-.441-3.535 20.741 20.741 0 00-3.371-1.613c-1.66-.454-3.313-.977-4.98-1.485-3.15-.965-1.849-5.7 1.359-4.926 1.75.422 3.546.934 5.296 1.594z" fill="#facfc2"/><path d="M126.959 141.463c-7.851 0-14.218-1.95-14.218-4.356 0-2.398 6.367-4.351 14.218-4.351 7.856 0 14.223 1.953 14.223 4.351 0 2.407-6.367 4.356-14.223 4.356zm84.743-13.348c-7.852 0-14.22-1.953-14.22-4.355 0-2.403 6.368-4.356 14.22-4.356 7.855 0 14.218 1.953 14.218 4.356 0 2.402-6.363 4.355-14.218 4.355z" fill="#f3bdd4"/><path d="M62.943 212.045c1.635-6.04 2.126-15.004-1.75-20.348-1.585-2.187-5.207-1.558-5.253 1.426-.067 4.348-.657 8.547-1.738 12.758-.98 3.82-3.156 7.218-4.102 10.992-.276 1.101.27 2.019 1.328 3.078 5.68 5.68 10.462-4.019 11.515-7.906z" fill="#f0a1c2"/><path d="M94.58 85.951c-5.992-3.133-11.37-7.23-16.402-11.727 2.776-5.557 1.583-12.362-1.946-15.093-2.72-2.104-6.671-1.528-9.917-.168-3.158-.465-5.663 1.564-5.981 4.265-2.199 2.625-3.3 6.02-2.136 9.493 1.86 5.554 7.043 6.863 11.984 5.824 1.184.32 2.317.3 3.348-.004 1.285 1.158 2.687 2.186 3.93 3.39 3.925 3.802 7.313 8.269 11.03 11.809 1.557 1.483 3.684.988 4.868-.629.73-.996 1.61-1.89 2.34-2.894.968-1.33.277-3.536-1.117-4.266" fill="#9485b5"/><path d="M153.393 291.353c1.27-.023 28.664-7.332 28.664-7.332l-2.664-5.668-28 7.332zm-63-32c-2 2.332-12.336 28.668-12.336 28.668l5 2.332 11.336-27.332zm0 0" fill="#fdc73f"/></svg>