<svg width="1080" height="120" xmlns:xlink="http://www.w3.org/1999/xlink" xmlns="http://www.w3.org/2000/svg"><path d="M862.256 41.47l-11.489 6.356 36.423 51.213 2.351-15.837zm75.488 0l11.489 6.356-36.424 51.213-2.35-15.837z" fill="#36619e"/><path d="M889.541 83.203l-27.285-41.734-11.489 6.356 36.424 51.213m23.268-15.835l27.285-41.733 11.489 6.356-36.424 51.213" fill="none" stroke="#481d32" stroke-linecap="round" stroke-width="1.729"/><use xlink:href="#a" transform="translate(367.185)"/><use xlink:href="#a" transform="translate(247.63)"/><use xlink:href="#b" transform="translate(247.63)"/><g id="b" fill-rule="evenodd"><path d="M40.814 83.744c-8.612 15.093-6.746 25.594-5.915 35.966h6.725c0-11.837 1.036-18.233 1.896-26.895" fill="#36619e"/><path d="M40.814 83.744c-8.612 15.093-6.746 25.515-5.915 35.886" stroke="#481d32" stroke-linecap="round" stroke-width="1.729" fill="none"/></g><ellipse transform="matrix(-.58548 .81069 .87668 .48108 0 0)" cx="21.715" cy="206.722" rx="6.081" ry="3.72" fill="#f4cbaf" stroke="#481d32" stroke-width="1.735"/><path d="M176.795 93.53l-12.566 11.82 6.091 4.408-5.905 7.468s-6.993-4.113-9.04-8.59c-.844-1.84-1.519-4.342-.839-6.247 1.62-4.543 14.368-16.674 14.368-16.674m21.536-.761l10.015 17.317 2.034-6.358 6.54 4.724s-1.87 9.121-4.417 11.45c-1.047.957-2.32 1.36-3.584.802-3.014-1.33-7.355-8.401-7.355-8.401" fill="#36619e" stroke="#481d32" stroke-linecap="round" stroke-width="1.729" stroke-linejoin="round"/><use xlink:href="#c" transform="translate(128.502)"/><use xlink:href="#d" transform="translate(128.502)"/><path d="M187.22 72.396a6.548 6.499 0 01-6.325 4.816 6.548 6.499 0 01-6.325-4.817" fill="none" stroke="#481d32" stroke-linecap="round" stroke-linejoin="round" stroke-width="1.729"/><path fill="#fff" d="M205.008 74.23h-3.721v7.444h3.721z" stroke="#481d32" stroke-width="1.729"/><path d="M203.146 35.44a20.325 20.325 0 0120.326 20.325 20.325 20.325 0 01-20.326 20.325 20.325 20.325 0 01-20.324-20.325 20.325 20.325 0 0120.324-20.325zm0 5.009a15.316 15.316 0 00-15.314 15.316 15.316 15.316 0 0015.314 15.316 15.316 15.316 0 0015.316-15.316 15.316 15.316 0 00-15.316-15.316z" fill="#fff" stroke="#481d32" stroke-width="1.729"/><rect x="199.855" y="79.812" width="6.584" height="25.479" rx="1.037" ry="1.037" fill="#57a2ff" stroke="#481d32" stroke-width="1.729" stroke-linejoin="round"/><ellipse cx="-203.238" cy="93.971" rx="7.641" ry="8.705" fill="#f4cbaf" transform="scale(-1 1)" stroke="#481d32" stroke-width="1.729"/><ellipse transform="scale(-1 1) rotate(-14.833)" cx="-213.192" cy="36.039" rx="2.783" ry="3.442" fill="#f4cbaf" stroke="#481d32" stroke-width="1.729"/><path d="M205.594 95.895l-3.266-.272m3.27-3.285l-3.275-.072m3.268-3.576l-3.261.31" fill="none" stroke="#481d32" stroke-width="1.729" stroke-linecap="round"/><path d="M221.786 75.246s.32-4.84 2.074-4.84c1.754 0 2.075 4.84 2.075 4.84s4.148.529 4.148 2.075c0 1.546-4.148 2.074-4.148 2.074s-.32 4.84-2.074 4.84c-1.754 0-2.075-4.84-2.075-4.84s-4.148-.528-4.148-2.074c0-1.546 4.148-2.075 4.148-2.075zM139.044 16.34s.32-4.84 2.074-4.84c1.755 0 2.074 4.84 2.074 4.84s4.15.528 4.15 2.074c0 1.546-4.15 2.075-4.15 2.075s-.319 4.84-2.074 4.84-2.074-4.84-2.074-4.84-4.149-.529-4.149-2.075c0-1.546 4.15-2.074 4.15-2.074z" fill="#ffc800"/><path d="M63.681 85.667l12.594 11.79 4.013-6.357 9.013 4.938s-4.367 8.907-8.705 11.236c-1.782.957-3.858 1.36-5.803.802-4.636-1.33-11.548-8.186-11.548-8.186" fill="#36619e" stroke="#481d32" stroke-linejoin="round" stroke-width="1.729" id="a"/><g id="c"><path d="M41.674 84.424c-1.33 2.992-2.075 11.685-2.075 17.588 0 5.903.953 14.425 2.075 17.588h21.438c1.122-3.163 2.075-11.684 2.075-17.588 0-5.904-.745-14.596-2.075-17.588z" fill="#36619e"/><path d="M43.75 83.906l8.643 33.188 8.643-33.188" fill="#fff"/><path d="M39.6 99.202c0 6.846.952 16.728 2.074 20.397m21.438 0c1.122-3.67 2.075-13.551 2.075-20.398" fill="none" stroke="#481d32" stroke-linecap="round" stroke-width="1.729"/><path d="M49.015 90.986l2.2 4.598-1.65 7.578 2.828 10.39 2.827-10.39-1.65-7.578 2.2-4.598z" fill="#ff5952"/><path d="M55.79 103.732l-2.22-8.148 2.2-4.598h-6.754l2.2 4.598-2.22 8.147" fill="none" stroke="#481d32" stroke-linejoin="round" stroke-width="1.729"/><path d="M43.75 83.906l4.89 18.772 3.753 14.416 8.643-33.188" fill="none" stroke="#481d32" stroke-linejoin="round" stroke-width="1.729"/><path fill="#f4cbaf" stroke="#481d32" stroke-width="1.729" d="M46.603 83.732h11.581v7.434h-11.58z"/><path d="M43.664 84.597l2.42 10.976 6.31-4.442 6.31 4.442 2.42-10.976-8.73 6.419z" fill="#fff" fill-rule="evenodd" stroke="#481d32" stroke-width="1.729" stroke-linejoin="round"/></g><g id="d"><path d="M28.058 62.522h48.157c14.246-9.27 9.61-30.127.856-40.335-8.482-9.89-27.77-14.064-38.746-5.133-7.61.952-17.318 2.496-23.834 16.5 4.278-.373 8.434-1.96 12.712-4.277-5.215 3.752-17.54 16.347.855 33.245z" fill="#ad8c7a"/><path d="M70.715 26.954c3.73 2.144 6.243.688 7.7-2.69 1.223 1.468 2.12 2.935 2.69 4.4-4.165 1.815-7.849 1.996-10.39-1.71zM14.98 33.432l3.545-.855c3.618-9.336 9.32-10.813 13.2-13.934-4.074 1.349-11.448 3.778-16.745 14.79zm11 21.39l-2.689 2.2c-10.637-12.566-1.238-24.824 6.112-27.501-11.25 11.038-8.47 19.748-3.423 25.3z" fill="#fff"/><path d="M80.48 58.809c8.834-10.313 4.317-27.614-3.41-36.622-8.48-9.89-27.769-14.064-38.745-5.133-7.61.952-17.318 2.496-23.834 16.5 4.278-.373 8.434-1.96 12.712-4.277-4.852 3.49-15.858 14.636-2.552 29.78" fill="none" stroke="#481d32" stroke-linecap="round" stroke-linejoin="round" stroke-width="1.729"/><ellipse transform="rotate(-14.855)" cx="7.225" cy="64.899" rx="4.198" ry="5.002" fill="#f4cbaf" stroke="#481d32" stroke-width="1.729"/><ellipse transform="scale(-1 1) rotate(-14.855)" cx="-94.059" cy="38.035" rx="4.198" ry="5.002" fill="#f4cbaf" stroke="#481d32" stroke-width="1.729"/><ellipse cx="52.394" cy="56.369" rx="27.829" ry="31.114" fill="#f4cbaf" stroke-width="1.307"/><ellipse cx="52.394" cy="56.369" rx="27.829" ry="31.114" fill="none" stroke="#481d32" stroke-width="1.729"/><path d="M45.627 23.839c1.82 8.106 5.117 15.415 16.075 21.693-.74-2.711-.9-5.037-.259-6.827 3.65 5.41 8.08 7.7 12.013 8.988-.507-2.215-.385-4.555.26-7 1.72 3.29 5.083 6.527 8.297 7.087-2.772-6.218-3.654-11.1-10.608-17.968-9.275-9.16-17.108-6.96-25.778-5.973z" fill="#ad8c7a"/><path d="M45.627 23.839c1.82 8.106 5.117 15.415 16.075 21.693-.74-2.711-.9-5.037-.259-6.827 3.65 5.41 8.08 7.7 12.013 8.988-.507-2.215-.385-4.555.26-7 1.72 3.29 5.083 6.527 8.297 7.087" fill="none" stroke="#481d32" stroke-linecap="round" stroke-linejoin="round" stroke-width="1.729"/></g><path d="M52.085 59.037l.617 1.05" fill="none" stroke="#481d32" stroke-linecap="round" stroke-width="1.729" id="f"/><g id="h" stroke-width="1.729" stroke="#481d32" stroke-linecap="round" stroke-linejoin="round"><path d="M94.352 77.704c-.392 2.377-1.988 5.053-3.155 6.762 3.064 2.048 4.438 5.56 3.381 8.643-1.328 3.862-5.98 5.764-10.39 4.248-4.411-1.516-6.911-5.877-5.583-9.74.872-2.53 3.235-4.324 6.18-4.694 1.002-2.408 3.19-7.23 5.06-8.367.787-.48 1.584-.727 2.29-.726 1.549.005 2.654 1.223 2.217 3.874z" fill="#f4cbaf"/><path d="M81.202 86.242c4.791-1.333 5.891 5.237.278 4.074m8.1-4.856c-4.476.07-5.91 6.873-.019 3.94-3.53 1.889-1.646 4.716 1.16 3.297-1.717 2.464 1.06 3.887 3.006 1.948" fill="none"/></g><g id="e" fill="#481d32" stroke-width="1.307"><ellipse cx="41.677" cy="54.986" rx="2.19" ry="3.247"/><ellipse cx="63.11" cy="54.986" rx="2.19" ry="3.247"/></g><path d="M39.818 38.987c.785-1.08 2.864-1.38 4.074-.53" fill="none" stroke="#481d32" stroke-linecap="round" stroke-width="1.729" id="g"/><path d="M45.49 70.886l13.82.159c0 2.449-1.719 5.884-5.98 5.863-3.82-.02-6.234-2.5-6.234-5.653" fill="#fff" stroke="#481d32" stroke-linecap="round" stroke-linejoin="round" stroke-width="1.729"/><path d="M105.508 74.274l-4.094 1.71m.794-10.204l-4.094 3.972m-3.667-9.045l-1.834 4.645" fill="none" stroke="#ff5851" stroke-linecap="round" stroke-width="1.729"/><path d="M820.212 33.967c9.244-3.596 1.7-9.51-2.45-2.396m5.683 8.496c6.992.542 5.691-7.266-.197-2.734" stroke-width="1.382" fill="none" stroke="#a0c3d5" stroke-linecap="round"/><path d="M528.051 82.428c-9.386 14.624-11.983 30.543-1.24 34.653l2.72.66c.616-11.82-.56-17.507.75-26.113" fill="#36619e"/><path d="M528.051 82.428c-9.386 14.624-13.322 32.99.481 34.836" fill="none" stroke="#481d32" stroke-width="1.729"/><path d="M574.365 37.595c1.326-3.04 4.778-4.647 7.97-4.516 3.093.128 6.16 1.553 8.228 3.884 2.07 2.334 2.553 6.016.764 8.646-1.414 2.078-3.938 2.786-6.169 3.595-1.596.58-3.488 1.035-4.347 2.65-.604 1.137-1.825 2.066-3.182 1.477-1.273-.552-1.699-2.011-1.18-3.237.82-1.937 2.449-3.363 4.377-4.129 1.82-.722 3.833-1.085 5.416-2.289 1.639-1.246 1.444-3.904-.072-5.173-1.41-1.18-3.604-1.767-5.273-.676-1.202.786-1.932 2.072-3.135 2.812-1.582.974-3.749-.616-3.546-2.418.025-.214.066-.428.15-.626h-.001zm.66 22.62c-1.37-.536-2.158-2.121-1.637-3.554.605-1.662 2.673-2.366 4.17-1.473 1.424.85 1.741 2.85.773 4.157-.75 1.011-2.167 1.316-3.306.87z" fill="#f44c8a"/><path d="M340.885 98.354c3.865-1.543 3.48-3.228-.043-3.072 6.128.146 4.3-4.4-.568-2.924 6.44-.801 5.755-6.294-.916-2.61 6.642-3.312-.256-5.94-5.98-.62 2.046-2.642 2.229-8.97-3.742-2.74-1.758 1.833-2.425 4.17-2.195 7.803.22 3.493 2.393 4.243 4.496 5.064 2.792 1.09 6.204.194 8.948-.901z" fill="#f4cbaf" stroke="#481d32" stroke-linecap="round" stroke-linejoin="round" stroke-width="1.729"/><path d="M355.905 88.102l-4.095 1.712m.795-10.206l-4.095 3.972m-3.667-9.044l-1.833 4.644" fill="none" stroke="#ff5851" stroke-linecap="round" stroke-width="1.729"/><path d="M649.205 83c-8.61 15.093-7.82 27.428-3.149 35.966h3.96c0-11.837 1.036-18.233 1.896-26.895" fill="#36619e"/><path d="M649.205 83c-8.61 15.093-8.345 29.443-3.148 35.887" stroke="#481d32" stroke-width="1.729" fill="none"/><path d="M690.76 89.114c4.137 6.446-1.683 9.293-1.87 3.584m5.14-15.992c4.138 6.445-1.68 9.292-1.87 3.584" stroke-width="1.382" fill="none" stroke="#a0c3d5" stroke-linecap="round"/><path d="M855.079 27.753c-2.54.865 1.315 12.824-.426 7.13-.908-2.968-3.69-6.84-5.319-6.054-1.356.655-1.824 2.996.777 7.573 2.24 5.478-2.491-6.543-5.82-4.374-3.329 2.169 6.388 11.433 1.711 6.894-1.012-.982-2.81-2.425-3.692-1.693-1.721 1.427 1.455 6.69 4.738 9.732 6.058 5.615 10.372 1.444 15.3-1.613 4.157-2.58 5.938-6.916 4.463-8.478-1.038-1.1-4.06.539-5.894 2.358-.509-3.997-2.63-12.57-5.838-11.476zm89.842 0c2.54.865-1.315 12.824.426 7.13.908-2.968 3.69-6.84 5.319-6.054 1.356.655 1.824 2.996-.777 7.573-2.24 5.478 2.491-6.543 5.82-4.374 3.329 2.169-6.388 11.433-1.711 6.894 1.012-.982 2.81-2.425 3.692-1.693 1.721 1.427-1.455 6.69-4.738 9.732-6.058 5.615-10.372 1.444-15.3-1.613-4.157-2.58-5.938-6.916-4.463-8.478 1.038-1.1 4.06.539 5.894 2.358.509-3.997 2.63-12.57 5.838-11.476z" fill="#f4cbaf" stroke="#481d32" stroke-linecap="round" stroke-linejoin="round" stroke-width="1.729"/><path d="M845.813 64.599l8.734 7.682m-9.252-17.88l10.51 11.785m98.382-1.587l-8.734 7.682m9.252-17.88l-10.51 11.785" fill="none" stroke="#ff5851" stroke-linecap="round" stroke-width="1.729"/><path d="M1009.956 84.5c-1.684 2.13-13.934-2.571-6.668 3.81l-7.753-1.175c-1.57 3.42-1.836 5.397-2.723 8.383-5.248 17.684 6.013 14.325 16.708.594" fill="#36619e"/><path d="M1000.44 99.779l3.598-9.8-9.093-3.17s-2.5 6.405-3.18 9.757c-3.355 16.513 6.378 13.336 15.378 2.679" fill="none" stroke="#481d32" stroke-linecap="round" stroke-width="1.729"/><path d="M1029.838 84.038c9 3.864 16.596 8.16 20.95 16.67l-5.761 5.412c-4.163-7.265-11.645-6.71-20.45-7.938z" fill="#36619e" stroke-width="1.729" stroke="#481d32"/><path d="M1045.17 110.073c1.868.473 1.856-4.342 2.414-2.605.626 1.946.875 4.429 2.44 5.879.573.53 1.585.556 2.088-.14.6-.83-.058-2.754-.685-4.287-.603-1.472 2.178 2.645 3.696 2.814 1.156.129 1.81-.626 1.465-1.84-.364-1.288-1.49-2.402-2.56-3.075-2.035-1.277 1.896.404 2.454.4.912.312 2.063-.202 1.97-1.283.068-1.036-3.004-1.81-3.903-2.003-1.16-.248 3.07.449 2.887-1.39-.12-1.194-1.46-1.296-2.322-1.55-2.298-.675-5.634-.175-7.808 1.237-3.29 2.136-3.792 7.423-2.135 7.843z" fill="#f4cbaf" stroke-width="1.729" stroke="#481d32" stroke-linecap="round" stroke-linejoin="round"/><path d="M1052.88 20.969c3.796 3.457 6.75 2.993 9.508 1.605-2.3 5.202-2.446 9.668 3.704 11.976-3.142 2.927-2.55 4.61-2.716 6.544" fill="none" stroke="#481d32" stroke-linecap="round" stroke-linejoin="round" stroke-width="1.729"/><use xlink:href="#c" transform="translate(247.63)"/><use xlink:href="#c" transform="translate(367.185)"/><g stroke="#481d32" stroke-linecap="round" stroke-linejoin="round"><path d="M550.958 85.149c6.514 7.3 9.327 6.493 16.146 7.62 0 0 .523 15.508-3.815 17.836-6.736 3.128-13.636-10.386-15.15-12.517" fill="#36619e" stroke-width="1.729"/><path d="M558.045 92.16l.673 9.412" fill="none" stroke-width="1.383"/></g><use xlink:href="#c" transform="translate(486.932)"/><use xlink:href="#c" transform="translate(607.862)"/><use xlink:href="#c" transform="translate(729.986)"/><use xlink:href="#c" transform="translate(847.617)"/><use xlink:href="#c" transform="translate(967.498)"/><use xlink:href="#e" transform="translate(128.502)"/><use xlink:href="#f" transform="translate(128.502)"/><use xlink:href="#g" transform="translate(128.502)"/><use xlink:href="#d" transform="translate(247.536)"/><use xlink:href="#e" transform="translate(247.63)"/><use xlink:href="#f" transform="translate(247.63)"/><use xlink:href="#g" transform="translate(247.63)"/><path d="M303.127 72.71a3.213 3.218 0 01-3.103 2.385 3.213 3.218 0 01-3.104-2.385" fill="none" stroke="#481d32" stroke-linecap="round" stroke-width="1.729"/><path d="M407.244 80.967c-8.612 15.093-8.23 13.6-5.915 22.138h6.725c0-11.837 1.036-4.405 1.896-13.067" fill="#36619e"/><path d="M407.244 80.967c-7.128 8.37-8.143 13.607-5.915 22.058" fill="none" stroke="#481d32" stroke-width="1.729"/><path fill="#f6dbda" d="M406.735 86.363l-23.232 3.597 4.55 29.38 23.23-3.597z" stroke-width="1.729" stroke="#481d32" stroke-linejoin="round"/><path d="M402.523 92.612l-13.115 2.03m13.962 3.436l-13.115 2.03" fill="none" stroke-width="1.729" stroke="#481d32" stroke-linecap="round"/><path d="M387.96 111.204c2.67.158 5.104-3.636-.153-3.055 2.692-1.224 5.076-5.122-1.56-3.178 1.949-.66 3.256-8.085-2.26-3.208-1.735 1.533-1.508 3.263-1.772 4.95-.266 1.697.227 4.067.58 5.928.574 3.023 4.702 4.925 6.29 4.505 5.055-1.49.468-2.57-.755-3.144 4.262-.767 3.144-2.708-.37-2.798z" fill="#f4cbaf" stroke-width="1.729" stroke="#481d32" stroke-linecap="round" stroke-linejoin="round"/><use xlink:href="#h" transform="rotate(-21.439 268.035 -876.183)"/><use xlink:href="#d" transform="translate(367.184)"/><use xlink:href="#e" transform="translate(367.185)"/><use xlink:href="#g" transform="translate(367.185)"/><use xlink:href="#f" transform="translate(367.184)"/><ellipse cx="419.579" cy="73.928" rx="2.837" ry="3.71" fill="#fff" stroke="#481d32" stroke-width="1.729"/><g transform="rotate(-15 531.654 41.567)"><use xlink:href="#d" transform="translate(480.893)"/><use xlink:href="#f" transform="translate(480.893)"/><use xlink:href="#e" transform="translate(480.893)"/><use xlink:href="#g" transform="translate(480.893)"/><path d="M530.28 75.37a3.113 1.26 0 013.006-.934 3.113 1.26 0 013.007.934" fill="none" stroke="#481d32" stroke-linecap="round" stroke-width="1.729"/></g><path d="M556.696 77.883c.435 1.545 1.254 2.914 2.667 4.012-4.226-1.313-7.8 2.197-6.743 5.28 1.328 3.864 3.713 5.338 8.375 5.166 2.343-.086 5.762.008 5.972-1.363.21-1.37-.407-3.96-.635-5.015-.57-2.643-1.826-9.21-5.129-11.23-3.335-2.04-5.15.866-4.507 3.15zM671.473 92.573c-.469-1.64-.57-2.95-.19-5.782.381-2.832 3.37-4.335 5.771-2.245-2.823-4.443.871-4.858 3.187-2.177-3.626-6.112 1.357-3.851 2.926-1.448-2.146-2.602 1.233-12.022 4.04-1.034.506 1.985-.543 4.255-1.422 4.902 0 0-3.219 2.218-5.054 3.276-2.897 1.672-9.258 4.509-9.258 4.509z" fill="#f4cbaf" stroke="#481d32" stroke-linejoin="round" stroke-width="1.729"/><path d="M680.631 88.069c1.687 3.944 2.178 6.165 2.927 9.664 1.974 9.215-5.91 16.404-10.462 4.61-1.282-3.322-2.428-5.494-3.306-9.386z" fill="#36619e" stroke-width="1.729" stroke="#481d32"/><path d="M676.947 89.966l2.733 9.31" fill="none" stroke-width="1.729" stroke="#481d32" stroke-linecap="round"/><use xlink:href="#d" transform="translate(607.862)"/><use xlink:href="#f" transform="translate(607.862)"/><use xlink:href="#e" transform="translate(607.862)"/><use xlink:href="#g" transform="translate(607.862)"/><path d="M663.36 75.115a3.213 3.218 0 00-3.105-2.386 3.213 3.218 0 00-3.103 2.386" fill="none" stroke="#481d32" stroke-linecap="round" stroke-width="1.729"/><path d="M792.929 85.068c2.604 4.413 5.478 10.91 7.075 15.694l2.908-5.805 6.593 5.803c-3.517 6.394-5.607 12.374-11.05 11.347-4.636-1.33-5.671-11.817-5.671-11.817" fill="#36619e" stroke-width="1.729" stroke="#481d32" stroke-linecap="round" stroke-linejoin="round"/><path d="M815.923 91.42c4.74-4.058.265-6.257-2.418-1.83 4.33-4.985.077-8.68-2.468-1.351 2.776-7.027-4.233-4.324-4.951 3.597-.247-3.392-4.411-8.308-4.697.47-.084 2.583.316 5.055 2.961 7.65 2.542 2.496 5.204 1.485 7.532.529 3.005-1.235 4.83-4.073 6.435-7.32 1.604-3.246.169-4.26-2.394-1.745z" fill="#f4cbaf" stroke-width="1.729" stroke="#481d32" stroke-linecap="round" stroke-linejoin="round"/><path d="M771.829 85.068c-2.604 4.413-5.477 10.91-7.075 15.694l-2.908-5.805-6.593 5.803c3.518 6.394 5.607 12.374 11.05 11.347 4.637-1.33 5.672-11.817 5.672-11.817" fill="#36619e" stroke-width="1.729" stroke="#481d32" stroke-linecap="round" stroke-linejoin="round"/><path d="M748.835 91.42c-4.74-4.058-.265-6.257 2.419-1.83-4.331-4.985-.077-8.68 2.468-1.351-2.777-7.027 4.232-4.324 4.95 3.597.247-3.392 4.412-8.308 4.697.47.084 2.583-.316 5.055-2.96 7.65-2.543 2.496-5.205 1.485-7.533.529-3.005-1.235-4.83-4.073-6.435-7.32-1.604-3.246-.168-4.26 2.394-1.745z" fill="#f4cbaf" stroke-width="1.729" stroke="#481d32" stroke-linecap="round" stroke-linejoin="round"/><use xlink:href="#d" transform="translate(729.986)"/><use xlink:href="#f" transform="translate(729.986)"/><path d="M788.704 70.677c-.767 3.354-3.361 6.502-6.325 6.502s-5.558-3.148-6.325-6.502z" fill="#fff" stroke="#481d32" stroke-linejoin="round" stroke-width="1.729"/><path d="M768.747 56.283c1.498-4.1 5.405-2.567 5.832-.086m21.432.086c-1.498-4.1-5.404-2.567-5.832-.086M769.906 39.08c1.188.61 3.18-.06 3.877-1.362" stroke-width="1.729" fill="none" stroke="#481d32" stroke-linecap="round"/><path d="M802.776 53.238c-3.667 9.107 8.79 7.373 1.895-2.384" fill="#fff" stroke="#481d32" stroke-linecap="round" stroke-width="1.729"/><use xlink:href="#d" transform="translate(847.617)"/><use xlink:href="#f" transform="translate(847.617)"/><use xlink:href="#g" transform="translate(847.617)"/><path d="M892.982 71.029c5.078.989 9.899 1.38 14.07.264 0 4.072-1.75 9.783-6.09 9.748-3.887-.032-6.345-4.157-6.345-9.4" fill="#fff" stroke="#481d32" stroke-linecap="round" stroke-linejoin="round" stroke-width="1.729"/><path d="M912.64 52.849a.864.864 0 00-.538.18l-4.58 3.459a.864.864 0 00.548 1.555l5.357-.174a.864.864 0 10-.054-1.728l-2.636.084 2.406-1.814a.864.864 0 00-.502-1.562zm-25.26 0a.864.864 0 01.538.18l4.581 3.459a.864.864 0 01-.549 1.555l-5.356-.174a.864.864 0 11.053-1.728l2.637.084-2.407-1.814a.864.864 0 01.503-1.562z" fill="#481d32"/><use xlink:href="#d" transform="translate(967.497)"/><use xlink:href="#f" transform="translate(967.497)"/><path d="M994.144 80.716c1.81-1.112 3.38 3.968 3.397 1.954.02-2.256-.533-4.955.64-6.997.428-.747 1.486-1.106 2.243-.54.906.68.844 2.925.687 4.746-.152 1.75 1.426-3.502 2.97-4.18 1.174-.514 2.11.068 2.146 1.46.04 1.478-.78 3.02-1.688 4.08-1.723 2.015 1.865-1.047 2.455-1.224.858-.63 2.238-.464 2.495.705.413 1.07-2.57 2.894-3.453 3.392-1.14.642 3.087-1.48 3.498.519.266 1.296-1.112 1.843-1.938 2.394-2.2 1.466-5.875 2.033-8.63 1.257-4.164-1.172-6.43-6.58-4.822-7.566z" fill="#f4cbaf" stroke="#481d32" stroke-linejoin="round" stroke-width="1.729"/><path d="M1013.494 70.204l-2.107 8.219 17.009-.287-2.224-7.932z" fill="#fff" stroke="#481d32" stroke-linejoin="round" stroke-width="1.729"/><ellipse cx="1009.531" cy="56.792" rx="2.345" ry="3.272" fill="#fff" stroke="#481d32" stroke-width="1.729"/><ellipse cx="1030.238" cy="56.792" rx="2.345" ry="3.272" fill="#fff" stroke="#481d32" stroke-width="1.729"/><path d="M997.937 46.375v-5.58m8.297 5.58V31.46m4.149 14.915v-17.16m-8.297 17.16V35.004m12.445 11.37V33.572" fill="none" stroke="#819da5" stroke-linecap="round" stroke-width="1.728"/><path d="M1013.06 27.113c-11.558 3.388-20.134 15.154-20.134 29.256 0 .101.005.2.006.3h53.918c0-.1.005-.199.005-.3a33.56 33.56 0 00-1.347-9.445c-1.447-1.023-2.753-2.382-3.807-3.865-.197 1.538-.238 3.033.084 4.441a.864.864 0 01-1.111 1.014c-3.593-1.176-7.64-3.355-11.149-7.723-.082 1.294.015 2.75.496 4.514a.864.864 0 01-1.263.976c-9.736-5.578-13.638-12.124-15.697-19.168z" fill="#00f" fill-opacity=".235"/></svg>