<svg xmlns="http://www.w3.org/2000/svg" width="621" height="411"><path d="M1 1v410h620V1zm17.463 45a7.5 7.5 0 01.037 0 7.5 7.5 0 017.5 7.5 7.5 7.5 0 01-7.5 7.5 7.5 7.5 0 01-7.5-7.5 7.5 7.5 0 017.463-7.5zm0 41a7.5 7.5 0 01.037 0 7.5 7.5 0 017.5 7.5 7.5 7.5 0 01-7.5 7.5 7.5 7.5 0 01-7.5-7.5 7.5 7.5 0 017.463-7.5zm0 41a7.5 7.5 0 01.037 0 7.5 7.5 0 017.5 7.5 7.5 7.5 0 01-7.5 7.5 7.5 7.5 0 01-7.5-7.5 7.5 7.5 0 017.463-7.5zm0 41a7.5 7.5 0 01.037 0 7.5 7.5 0 017.5 7.5 7.5 7.5 0 01-7.5 7.5 7.5 7.5 0 01-7.5-7.5 7.5 7.5 0 017.463-7.5zm0 41a7.5 7.5 0 01.037 0 7.5 7.5 0 017.5 7.5 7.5 7.5 0 01-7.5 7.5 7.5 7.5 0 01-7.5-7.5 7.5 7.5 0 017.463-7.5zm0 41a7.5 7.5 0 01.037 0 7.5 7.5 0 017.5 7.5 7.5 7.5 0 01-7.5 7.5 7.5 7.5 0 01-7.5-7.5 7.5 7.5 0 017.463-7.5zm0 41a7.5 7.5 0 01.037 0 7.5 7.5 0 017.5 7.5 7.5 7.5 0 01-7.5 7.5 7.5 7.5 0 01-7.5-7.5 7.5 7.5 0 017.463-7.5zm0 41a7.5 7.5 0 01.037 0 7.5 7.5 0 017.5 7.5 7.5 7.5 0 01-7.5 7.5 7.5 7.5 0 01-7.5-7.5 7.5 7.5 0 017.463-7.5zm0 41a7.5 7.5 0 01.037 0 7.5 7.5 0 017.5 7.5 7.5 7.5 0 01-7.5 7.5 7.5 7.5 0 01-7.5-7.5 7.5 7.5 0 017.463-7.5z" fill="#95a5a6"/><path d="M0 0v410h620V0zm17.463 45a7.5 7.5 0 01.037 0 7.5 7.5 0 017.5 7.5 7.5 7.5 0 01-7.5 7.5 7.5 7.5 0 01-7.5-7.5 7.5 7.5 0 017.463-7.5zm0 41a7.5 7.5 0 01.037 0 7.5 7.5 0 017.5 7.5 7.5 7.5 0 01-7.5 7.5 7.5 7.5 0 01-7.5-7.5 7.5 7.5 0 017.463-7.5zm0 41a7.5 7.5 0 01.037 0 7.5 7.5 0 017.5 7.5 7.5 7.5 0 01-7.5 7.5 7.5 7.5 0 01-7.5-7.5 7.5 7.5 0 017.463-7.5zm0 41a7.5 7.5 0 01.037 0 7.5 7.5 0 017.5 7.5 7.5 7.5 0 01-7.5 7.5 7.5 7.5 0 01-7.5-7.5 7.5 7.5 0 017.463-7.5zm0 41a7.5 7.5 0 01.037 0 7.5 7.5 0 017.5 7.5 7.5 7.5 0 01-7.5 7.5 7.5 7.5 0 01-7.5-7.5 7.5 7.5 0 017.463-7.5zm0 41a7.5 7.5 0 01.037 0 7.5 7.5 0 017.5 7.5 7.5 7.5 0 01-7.5 7.5 7.5 7.5 0 01-7.5-7.5 7.5 7.5 0 017.463-7.5zm0 41a7.5 7.5 0 01.037 0 7.5 7.5 0 017.5 7.5 7.5 7.5 0 01-7.5 7.5 7.5 7.5 0 01-7.5-7.5 7.5 7.5 0 017.463-7.5zm0 41a7.5 7.5 0 01.037 0 7.5 7.5 0 017.5 7.5 7.5 7.5 0 01-7.5 7.5 7.5 7.5 0 01-7.5-7.5 7.5 7.5 0 017.463-7.5zm0 41a7.5 7.5 0 01.037 0 7.5 7.5 0 017.5 7.5 7.5 7.5 0 01-7.5 7.5 7.5 7.5 0 01-7.5-7.5 7.5 7.5 0 017.463-7.5z" fill="#fcfce1"/><path d="M0 400.5h620m-620-41h620m-620-41h620m-620-41h620m-620-41h620m-620-41h620m-620-41h620m-620-41h620M0 72.5h620M0 31.5h620" fill="none" stroke="#65c0e7"/><path d="M600 0v410" fill="none" stroke="#dd6479"/></svg>